<?xml version="1.0" encoding="UTF-8"?>
<svg width="48px" height="36px" viewBox="0 0 48 36" version="1.1" xmlns="http://www.w3.org/2000/svg" xmlns:xlink="http://www.w3.org/1999/xlink">
    <!-- Generator: Sketch 50.2 (55047) - http://www.bohemiancoding.com/sketch -->
    <title>Group 3 Copy</title>
    <desc>Created with Sketch.</desc>
    <defs></defs>
    <g id="Page-1" stroke="none" stroke-width="1" fill="none" fill-rule="evenodd">
        <g id="m7-card-declined-and-ID-in-process-1366" transform="translate(-539.000000, -396.000000)">
            <g id="Group-3-Copy" transform="translate(521.000000, 371.000000)">
                <path d="M20.7902069,25 C19.1390858,25 18,26.23525 18,27.7585 L18,52.2415 C18,53.76475 19.2494483,55 20.7902069,55 L59.2097931,55 C60.7505517,55 62,53.76475 62,52.2415 L62,27.7585 C62,26.23525 60.7505517,25 59.2097931,25 L20.7902069,25 Z" id="Shape" fill="#FFFFFF" fill-rule="nonzero"></path>
                <rect id="Rectangle-2" fill="#1C75C6" x="38" y="33" width="18" height="2" rx="1"></rect>
                <rect id="Rectangle-2-Copy-2" fill="#91C5F3" x="38" y="37" width="11" height="2" rx="1"></rect>
                <rect id="Rectangle-2-Copy-3" fill="#91C5F3" x="38" y="41" width="2" height="2" rx="1"></rect>
                <rect id="Rectangle-2-Copy-4" fill="#91C5F3" x="42" y="41" width="2" height="2" rx="1"></rect>
                <circle id="Oval" fill="#6B758E" cx="56" cy="51" r="10"></circle>
                <rect id="Rectangle-3" fill="#FFFFFF" x="55" y="45" width="2" height="7" rx="1"></rect>
                <rect id="Rectangle-3-Copy" fill="#FFFFFF" transform="translate(58.500000, 51.000000) rotate(90.000000) translate(-58.500000, -51.000000) " x="57.5" y="47.5" width="2" height="7" rx="1"></rect>
                <path d="M33.5581111,44.3957415 L31.2560556,43.2125656 C31.099,43.1313914 31,42.969043 31,42.7913206 L31,42.0822761 C32.1812778,41.5700175 32.8602222,40.5750183 33.1908333,39.3303469 C33.6888889,39.174763 34.0555556,38.711086 34.0555556,38.1607001 L34.0555556,37.5457439 C34.0555556,37.0746874 33.7860556,36.6682013 33.3967778,36.461576 C33.1272778,34.1487256 31.6080556,33.2127622 29.1666667,33.2127622 C29.0511667,33.2127622 28.9375,33.2170669 28.8262778,33.2262912 C27.9963889,33.2927065 27.1567222,33.1358927 26.4661667,32.667296 C26.1789444,32.4729698 25.9375556,32.2657296 25.7676667,32.04865 C25.6900556,31.9496421 25.5354444,32.0129826 25.5495,32.1378187 C25.5739444,32.3530534 25.6106111,32.6039555 25.6643889,32.878226 C25.8660556,33.8990534 25.7456667,33.7502339 25.3533333,34.7132554 C25.1363889,35.2458075 24.9964444,35.8367805 24.9316667,36.4628059 C24.5454444,36.6712761 24.2777778,37.0765323 24.2777778,37.5457439 L24.2777778,38.1607001 C24.2777778,38.711086 24.6444444,39.174763 25.1425,39.3303469 C25.4731111,40.5744034 26.1514444,41.5700175 27.3333333,42.0822761 L27.3333333,42.786401 C27.3333333,42.9665832 27.2318889,43.1307765 27.0711667,43.2107208 L24.7116667,44.3797526 C24.0675556,44.7333524 23.6666667,45.4128791 23.6666667,46.1508266 L23.6666667,46.7141265 C23.6666667,46.7141265 23.6666667,46.8795497 23.6666667,46.9656436 C23.6666667,47.6605442 26.1288333,48 29.1666667,48 C32.2045,48 34.6666667,47.6605442 34.6666667,46.9656436 C34.6666667,46.8795497 34.6666667,46.7141265 34.6666667,46.7141265 L34.6666667,46.2000231 C34.6666667,45.4362474 34.2376667,44.7376571 33.5581111,44.3957415 Z" id="Shape" fill="#1C75C6" fill-rule="nonzero"></path>
            </g>
        </g>
    </g>
</svg>
