<?xml version="1.0" encoding="UTF-8"?>
<svg width="48px" height="37px" viewBox="0 0 48 37" version="1.1" xmlns="http://www.w3.org/2000/svg" xmlns:xlink="http://www.w3.org/1999/xlink">
    <!-- Generator: Sketch 50.2 (55047) - http://www.bohemiancoding.com/sketch -->
    <title>Group 4 Copy</title>
    <desc>Created with Sketch.</desc>
    <defs></defs>
    <g id="Page-1" stroke="none" stroke-width="1" fill="none" fill-rule="evenodd">
        <g id="m7-card-declined-and-ID-in-process-1366" transform="translate(-979.000000, -397.000000)">
            <g id="Group-4-Copy" transform="translate(961.000000, 371.000000)">
                <rect id="Rectangle-2" fill="#1C75C6" x="38" y="33" width="18" height="2" rx="1"></rect>
                <rect id="Rectangle-2-Copy-2" fill="#91C5F3" x="38" y="37" width="11" height="2" rx="1"></rect>
                <rect id="Rectangle-2-Copy-3" fill="#91C5F3" x="38" y="41" width="2" height="2" rx="1"></rect>
                <rect id="Rectangle-2-Copy-4" fill="#91C5F3" x="42" y="41" width="2" height="2" rx="1"></rect>
                <g id="Group-3" transform="translate(18.000000, 26.000000)">
                    <g id="Group-12">
                        <path d="M2.7902069,0 C1.13908577,0 0,1.23525 0,2.7585 L0,27.2415 C0,28.76475 1.24944828,30 2.7902069,30 L41.2097931,30 C42.7505517,30 44,28.76475 44,27.2415 L44,2.7585 C44,1.23525 42.7505517,0 41.2097931,0 L2.7902069,0 Z" id="Shape" fill="#91C5F3" fill-rule="nonzero"></path>
                        <rect id="Rectangle-2" fill="#FFFFFF" x="5" y="14" width="8" height="2" rx="1"></rect>
                        <rect id="Rectangle-2-Copy" fill="#FFFFFF" x="15" y="14" width="8" height="2" rx="1"></rect>
                        <rect id="Rectangle-2-Copy-3" fill="#1C75C6" x="0" y="5" width="44" height="6" rx="1"></rect>
                        <circle id="Oval" fill="#1C75C6" cx="9" cy="22" r="3"></circle>
                        <circle id="Oval-Copy" fill="#FFFFFF" cx="14" cy="22" r="3"></circle>
                    </g>
                </g>
                <path d="M65.0956738,42.0177969 C63.764539,42.1106215 62.581773,42.0236308 61.5473759,41.8271262 C57.9016312,41.1354831 56.0819858,39.11232 56.0230496,39.0448985 C55.9351773,39.1355077 52.6695035,42.7721354 46.0465248,41.93184 C46.0465248,49.8228923 46.0465248,52.1497846 46.0465248,52.1497846 C46.0078014,52.8162462 46.4,54.4667077 47.5952482,56.35392 C48.0357447,57.0502154 48.5858865,57.7775262 49.2644681,58.5009231 C50.8302128,60.1693292 53.0768794,61.8112246 56.2412057,62.9656615 C65.6675887,58.8051692 65.9916312,52.1497846 65.9916312,52.1497846 C65.9916312,52.1497846 65.9916312,49.8226708 65.9916312,41.93184 C65.6848227,41.9708308 65.3880851,41.9968246 65.0956738,42.0177969 Z" id="Shape" fill="#DA4931" fill-rule="nonzero"></path>
                <path d="M61.493977,51.4765857 L57.4765857,51.4765857 L57.4765857,55.493977 C57.4765857,56.0678901 57.0331075,56.4852814 56.4852814,56.4852814 C55.9374553,56.4852814 55.493977,56.0418031 55.493977,55.493977 L55.493977,51.4765857 L51.4765857,51.4765857 C50.9026727,51.4765857 50.4852814,51.0331075 50.4852814,50.4852814 C50.4852814,49.9374553 50.9026727,49.493977 51.4765857,49.493977 L55.493977,49.493977 L55.493977,45.4765857 C55.493977,44.9026727 55.9374553,44.4852814 56.4852814,44.4852814 C57.0331075,44.4852814 57.4765857,44.9287596 57.4765857,45.4765857 L57.4765857,49.493977 L61.493977,49.493977 C62.0678901,49.493977 62.4852814,49.9374553 62.4852814,50.4852814 C62.4852814,51.0331075 62.0418031,51.4765857 61.493977,51.4765857 Z" id="Path-Copy-3" fill="#FFFFFF" transform="translate(56.485281, 50.485281) rotate(45.000000) translate(-56.485281, -50.485281) "></path>
            </g>
        </g>
    </g>
</svg>
