<?xml version="1.0" encoding="UTF-8" standalone="no"?>
<svg width="32px" height="32px" viewBox="0 0 32 32" version="1.1" xmlns="http://www.w3.org/2000/svg" xmlns:xlink="http://www.w3.org/1999/xlink">
    <!-- Generator: Sketch 49.2 (51160) - http://www.bohemiancoding.com/sketch -->
    <title>ruble</title>
    <desc>Created with Sketch.</desc>
    <defs></defs>
    <g id="Page-1" stroke="none" stroke-width="1" fill="none" fill-rule="evenodd">
        <g id="ruble">
            <rect id="Rectangle-3-Copy-8" fill="#6B758E" x="0" y="0" width="32" height="32" rx="16"></rect>
            <path d="M18.75,9 L14.375,9 C13.892,9 13.5,9.392 13.5,9.875 L13.5,17.75 L10.875,17.75 C10.392,17.75 10,18.142 10,18.625 C10,19.108 10.392,19.5 10.875,19.5 L13.5,19.5 L13.5,22.125 C13.5,22.608 13.892,23 14.375,23 C14.858,23 15.25,22.608 15.25,22.125 L15.25,19.5 L17.875,19.5 C18.358,19.5 18.75,19.108 18.75,18.625 C18.75,18.142 18.358,17.75 17.875,17.75 L15.25,17.75 L15.25,16 L18.75,16 C20.68025,16 22.25,14.43025 22.25,12.5 C22.25,10.56975 20.68025,9 18.75,9 Z M18.75,14.25 L15.25,14.25 L15.25,10.75 L18.75,10.75 C19.716,10.75 20.5,11.53575 20.5,12.5 C20.5,13.46425 19.716,14.25 18.75,14.25 Z" id="Shape" fill="#FFFFFF" fill-rule="nonzero"></path>
        </g>
    </g>
</svg>