<?xml version="1.0" encoding="UTF-8" standalone="no"?>
<svg width="32px" height="32px" viewBox="0 0 32 32" version="1.1" xmlns="http://www.w3.org/2000/svg" xmlns:xlink="http://www.w3.org/1999/xlink">
    <!-- Generator: Sketch 49.2 (51160) - http://www.bohemiancoding.com/sketch -->
    <title>dollar</title>
    <desc>Created with Sketch.</desc>
    <defs></defs>
    <g id="Page-1" stroke="none" stroke-width="1" fill="none" fill-rule="evenodd">
        <g id="dollar">
            <rect id="Rectangle-3-Copy-6" fill="#6B758E" x="0" y="0" width="32" height="32" rx="16"></rect>
            <g id="dollar-copy-2" transform="translate(12.000000, 8.000000)" fill="#FFFFFF" fill-rule="nonzero">
                <path d="M4.44444444,7.11111111 C2.99911111,7.11111111 1.77777778,6.29688889 1.77777778,5.33333333 C1.77777778,4.36977778 2.99911111,3.55555556 4.44444444,3.55555556 C5.26222222,3.55555556 6.01955556,3.81155556 6.52088889,4.256 C6.88711111,4.58133333 7.44711111,4.55111111 7.776,4.18133333 C8.10311111,3.81511111 8.06933333,3.25333333 7.70133333,2.92622222 C7.07911111,2.37333333 6.24355556,2 5.33333333,1.85244444 L5.33333333,0.888888889 C5.33333333,0.398222222 4.93511111,0 4.44444444,0 C3.95377778,0 3.55555556,0.398222222 3.55555556,0.888888889 L3.55555556,1.84888889 C1.52888889,2.17955556 0,3.616 0,5.33333333 C0,7.29422222 1.99466667,8.88888889 4.44444444,8.88888889 C5.88977778,8.88888889 7.11111111,9.70311111 7.11111111,10.6666667 C7.11111111,11.6302222 5.88977778,12.4444444 4.44444444,12.4444444 C3.62666667,12.4444444 2.86933333,12.1884444 2.368,11.744 C2.00177778,11.4168889 1.44,11.4488889 1.11288889,11.8186667 C0.785777778,12.1848889 0.819555556,12.7466667 1.18755556,13.0737778 C1.80977778,13.6284444 2.64533333,14 3.55555556,14.1493333 L3.55555556,15.1111111 C3.55555556,15.6017778 3.95377778,16 4.44444444,16 C4.93511111,16 5.33333333,15.6017778 5.33333333,15.1111111 L5.33333333,14.1511111 C7.36,13.8204444 8.88888889,12.384 8.88888889,10.6666667 C8.88888889,8.70577778 6.89422222,7.11111111 4.44444444,7.11111111 Z" id="Shape"></path>
            </g>
        </g>
    </g>
</svg>