<svg width="80" height="24" xmlns="http://www.w3.org/2000/svg" xmlns:xlink="http://www.w3.org/1999/xlink"><defs><rect id="a" width="11" height="11" rx="5.5"/></defs><g fill="none" fill-rule="evenodd"><path d="M8.217 16.829c-.674.354-2.04.657-3.407.657-2.733 0-4.1-1.08-4.1-2.935 0-2.48 2.581-2.97 5.331-3.121v-.472c0-.945-.658-1.3-1.704-1.3-.86 0-1.906.27-2.547.54l-.574-1.552c.76-.32 2.058-.658 3.374-.658 2.328 0 3.627.911 3.627 3.24v5.6zm-2.176-1.165v-2.766c-1.687.084-3.172.236-3.172 1.602 0 .86.675 1.35 1.873 1.35.49 0 1.063-.084 1.3-.186zm10.85 1.165c-.659.354-1.94.657-3.324.657-2.936 0-4.538-1.737-4.538-4.69 0-2.8 1.467-4.69 4.25-4.69.49 0 1.013.085 1.3.186V4.041h2.311v12.788zm-2.312-1.333v-5.483c-.186-.085-.658-.169-1.063-.169-1.434 0-2.193 1.198-2.193 2.919 0 1.839.776 2.918 2.193 2.918.405 0 .877-.084 1.063-.185zM26.49 8.19l-3.273 9.093h-2.666l-3.29-9.093h2.599l1.67 5.668c.202.692.337 1.468.337 1.468h.034s.135-.776.337-1.468l1.67-5.668h2.582z" fill="#10364A"/><path d="M33.67 16.862c-.591.388-1.333.624-2.413.624-2.126 0-4.066-1.518-4.066-4.757 0-3.24 1.94-4.74 4.066-4.74 1.08 0 1.839.236 2.412.624l-.725 1.653c-.337-.253-.827-.388-1.35-.388-1.13 0-2.024.945-2.024 2.834 0 1.89.928 2.834 2.024 2.834.523 0 1.013-.151 1.35-.405l.725 1.721zM41.232 16.829c-.675.354-2.041.657-3.408.657-2.733 0-4.1-1.08-4.1-2.935 0-2.48 2.582-2.97 5.332-3.121v-.472c0-.945-.658-1.3-1.704-1.3-.86 0-1.907.27-2.548.54l-.573-1.552c.759-.32 2.058-.658 3.374-.658 2.328 0 3.627.911 3.627 3.24v5.6zm-2.176-1.165v-2.766c-1.687.084-3.172.236-3.172 1.602 0 .86.675 1.35 1.873 1.35.489 0 1.063-.084 1.299-.186zM46.002 17.344a6.163 6.163 0 0 1-1.374.142c-1.13 0-2.261-.303-2.936-.657l.742-1.755c.456.287 1.468.59 2.126.59.827 0 1.367-.388 1.367-.995 0-.675-.59-.962-1.4-1.248-1.148-.422-2.599-.962-2.599-2.75 0-1.603 1.215-2.683 3.34-2.683 1.165 0 2.11.287 2.801.658l-.708 1.57c-.388-.237-1.198-.524-1.805-.524-.81 0-1.283.405-1.283.945 0 .692.59.962 1.384 1.248.659.242 1.4.504 1.933.996a7.466 7.466 0 0 0-1.588 4.463zM53.576 10a2.18 2.18 0 0 0-.866-.156 2.82 2.82 0 0 0-1.316.338v.118a7.472 7.472 0 0 0-2.294 1.125V4.041h2.294v4.42a4.648 4.648 0 0 1 1.906-.422c1.703 0 2.83.682 3.222 1.961h-2.946zM64.574 10l3.184-6.99 1.763 5.01h-1.305l-.458.2-.75 1.78h-2.434z" fill="#009D5B"/><path d="M76.014 8.104l-1.397 2.068H60.843l-1.425-2.068h16.596z" fill="#10364A"/><path d="M70.941 10h-2.446l-.737-1.78-.378-1.022-.451-1.75.829-2.438L70.94 10z" fill="#009D5B"/><g transform="translate(48 12)"><rect fill="#2355E9" width="32" height="11" rx="5.5"/><mask id="b" fill="#fff"><use xlink:href="#a"/></mask><use fill="#2355E9" xlink:href="#a"/><g mask="url(#b)"><g transform="translate(2.047 2.047)" fill="#FBCB03"><g transform="translate(.3)"><circle cx="3.153" cy=".45" r="1"/><circle cx="1.652" cy=".751" r="1"/><circle cx="4.655" cy=".751" r="1"/><circle cx="5.856" cy="1.952" r="1"/><circle cx=".45" cy="1.952" r="1"/></g><g transform="matrix(1 0 0 -1 .3 6.907)"><circle cx="3.153" cy=".45" r="1"/><circle cx="1.652" cy=".751" r="1"/><circle cx="4.655" cy=".751" r="1"/><circle cx="5.856" cy="1.952" r="1"/><circle cx=".45" cy="1.952" r="1"/></g><circle cx="6.457" cy="3.453" r="1"/><circle cx=".45" cy="3.453" r="1"/></g></g><path d="M16.567 6.984V8.3h-3.976V2.663h3.976V3.98h-2.32v.91h2.176v1.187h-2.176v.907h2.32zm2.43-4.32v3.445c0 .593.293.918.828.918.535 0 .828-.325.828-.918V2.663h1.656v3.63c0 1.284-.996 2.105-2.484 2.105s-2.484-.82-2.484-2.106V2.663h1.656zm5.75 1.222v1.43h.683c.465 0 .75-.286.75-.711 0-.418-.3-.72-.746-.72h-.687zm0 2.523V8.3H23.09V2.663h2.504c1.503 0 2.277.707 2.277 1.914 0 .664-.32 1.305-.91 1.586l1.07 2.137H26.18l-.89-1.89h-.543z" fill="#FFF"/></g></g></svg>