<?xml version="1.0" encoding="UTF-8"?>
<svg width="76px" height="15px" viewBox="0 0 76 15" version="1.1" xmlns="http://www.w3.org/2000/svg" xmlns:xlink="http://www.w3.org/1999/xlink">
    <!-- Generator: Sketch 49.1 (51147) - http://www.bohemiancoding.com/sketch -->
    <title>Group 13</title>
    <desc>Created with Sketch.</desc>
    <defs></defs>
    <g id="Page-1" stroke="none" stroke-width="1" fill="none" fill-rule="evenodd">
        <g id="Artboard-4" transform="translate(0.000000, -8.000000)">
            <g id="Group-13" transform="translate(0.000000, 7.000000)">
                <path d="M8.21742764,14.8285005 C7.54260718,15.1827813 6.17609576,15.4864505 4.80958433,15.4864505 C2.07656148,15.4864505 0.710050054,14.4067378 0.710050054,12.5509815 C0.710050054,10.0710163 3.2912383,9.58177149 6.04113166,9.42993689 L6.04113166,8.95756257 C6.04113166,8.01281393 5.38318172,7.65853319 4.33721001,7.65853319 C3.47681393,7.65853319 2.43084222,7.92846137 1.78976279,8.19838955 L1.2161654,6.6463025 C1.97533841,6.32576279 3.27436779,5.98835256 4.59026768,5.98835256 C6.91839826,5.98835256 8.21742764,6.89936017 8.21742764,9.22749075 L8.21742764,14.8285005 Z M6.04113166,13.6644353 L6.04113166,10.8976714 C4.35408052,10.9820239 2.86947552,11.1338585 2.86947552,12.50037 C2.86947552,13.3607661 3.54429597,13.8500109 4.74210229,13.8500109 C5.23134712,13.8500109 5.8049445,13.7656583 6.04113166,13.6644353 Z M16.8901937,14.8285005 C16.2322437,15.1827813 14.9500849,15.4864505 13.5667029,15.4864505 C10.6312339,15.4864505 9.02853536,13.7487878 9.02853536,10.7964483 C9.02853536,7.99594342 10.4962699,6.10644614 13.2799042,6.10644614 C13.7691491,6.10644614 14.2921349,6.19079869 14.5789336,6.29202176 L14.5789336,2.04065288 L16.8901937,2.04065288 L16.8901937,14.8285005 Z M14.5789336,13.4957301 L14.5789336,8.01281393 C14.393358,7.92846137 13.9209837,7.84410881 13.5160914,7.84410881 C12.0820979,7.84410881 11.3229249,9.04191513 11.3229249,10.7627073 C11.3229249,12.601593 12.0989684,13.6813058 13.5160914,13.6813058 C13.9209837,13.6813058 14.393358,13.5969532 14.5789336,13.4957301 Z M26.4908379,6.19079869 L23.2179587,15.2840044 L20.5524178,15.2840044 L17.2626681,6.19079869 L19.8607269,6.19079869 L21.5309075,11.8592905 C21.7333536,12.5509815 21.8683177,13.327025 21.8683177,13.327025 L21.9020588,13.327025 C21.9020588,13.327025 22.0370229,12.5509815 22.239469,11.8592905 L23.9096496,6.19079869 L26.4908379,6.19079869 Z" id="advcash-copy" fill="#10364A"></path>
                <path d="M33.6694059,14.8622416 C33.078938,15.2502633 32.3366355,15.4864505 31.2569227,15.4864505 C29.1312383,15.4864505 27.1911295,13.9681045 27.1911295,10.7289663 C27.1911295,7.48982807 29.1312383,5.98835256 31.2569227,5.98835256 C32.3366355,5.98835256 33.0958085,6.22453972 33.6694059,6.61256148 L32.9439739,8.2658716 C32.6065637,8.01281393 32.1173188,7.87784984 31.594333,7.87784984 C30.4640087,7.87784984 29.5698716,8.82259848 29.5698716,10.7120958 C29.5698716,12.601593 30.4977497,13.5463417 31.594333,13.5463417 C32.1173188,13.5463417 32.6065637,13.3945071 32.9439739,13.1414494 L33.6694059,14.8622416 Z" id="Path" fill="#009D5B"></path>
                <path d="M41.2320261,14.8285005 C40.5572057,15.1827813 39.1906942,15.4864505 37.8241828,15.4864505 C35.09116,15.4864505 33.7246485,14.4067378 33.7246485,12.5509815 C33.7246485,10.0710163 36.3058368,9.58177149 39.0557301,9.42993689 L39.0557301,8.95756257 C39.0557301,8.01281393 38.3977802,7.65853319 37.3518085,7.65853319 C36.4914124,7.65853319 35.4454407,7.92846137 34.8043613,8.19838955 L34.2307639,6.6463025 C34.9899369,6.32576279 36.2889663,5.98835256 37.6048662,5.98835256 C39.9329967,5.98835256 41.2320261,6.89936017 41.2320261,9.22749075 L41.2320261,14.8285005 Z M39.0557301,13.6644353 L39.0557301,10.8976714 C37.368679,10.9820239 35.884074,11.1338585 35.884074,12.50037 C35.884074,13.3607661 36.5588945,13.8500109 37.7567008,13.8500109 C38.2459456,13.8500109 38.819543,13.7656583 39.0557301,13.6644353 Z" id="Combined-Shape" fill="#009D5B"></path>
                <path d="M48.322272,12.6690751 C48.322272,14.3729967 47.0569837,15.4864505 44.62763,15.4864505 C43.4973058,15.4864505 42.3669815,15.1827813 41.692161,14.8285005 L42.4344635,13.0739674 C42.8899674,13.3607661 43.902198,13.6644353 44.560148,13.6644353 C45.386803,13.6644353 45.9266594,13.2764135 45.9266594,12.6690751 C45.9266594,11.9942546 45.3361915,11.7074559 44.526407,11.4206572 C43.3792122,10.9988945 41.9283482,10.4590381 41.9283482,8.67076387 C41.9283482,7.06806529 43.143025,5.98835256 45.2687095,5.98835256 C46.4327748,5.98835256 47.3775234,6.27515125 48.0692144,6.6463025 L47.3606529,8.21526007 C46.9726311,7.97907291 46.1628466,7.69227421 45.5555082,7.69227421 C44.7457236,7.69227421 44.2733493,8.09716649 44.2733493,8.63702285 C44.2733493,9.32871382 44.8638172,9.598642 45.6567312,9.8854407 C46.8545375,10.324074 48.322272,10.8301893 48.322272,12.6690751 Z" id="Path" fill="#009D5B"></path>
                <path d="M56.6744984,15.2840044 L54.3632383,15.2840044 L54.3632383,9.34558433 C54.3632383,8.35022416 53.7558999,7.84410881 52.7099282,7.84410881 C52.2544244,7.84410881 51.748309,7.97907291 51.3940283,8.18151904 L51.3940283,15.2840044 L49.0996387,15.2840044 L49.0996387,2.04065288 L51.3940283,2.04065288 L51.3940283,6.46072688 C51.9338847,6.20766921 52.6255756,6.03896409 53.3003961,6.03896409 C55.442951,6.03896409 56.6744984,7.11867682 56.6744984,9.10939717 L56.6744984,15.2840044 Z" id="Path" fill="#009D5B"></path>
                <g id="Group-12" transform="translate(59.377584, 0.977149)">
                    <path d="M1.87936754,14.3068553 L8.38031039,0.0327106794 L10.143716,5.04372931 L8.83875239,5.04372931 L8.38031039,5.24337434 L4.56011439,14.3068553 L1.87936754,14.3068553 Z" id="Combined-Shape-Copy-4" fill="#009D5B"></path>
                    <path d="M16.6366812,5.1273123 L15.2390347,7.19477693 L1.46568213,7.19477693 L0.0405123394,5.1273123 L16.6366812,5.1273123 Z" id="Combined-Shape" fill="#10364A"></path>
                    <path d="M14.344541,8.5179543 L12.9468946,10.5854189 L3.80296058,10.5854189 L2.37779079,8.5179543 L14.344541,8.5179543 Z" id="Combined-Shape" fill="#10364A"></path>
                    <path d="M14.8812532,14.3068553 L12.135527,14.3068553 L8.38031039,5.24337434 L8.00274754,4.22063686 L7.55092572,2.47145871 L8.38031039,0.0327106794 L14.8812532,14.3068553 Z" id="Combined-Shape-Copy-3" fill="#009D5B"></path>
                </g>
            </g>
        </g>
    </g>
</svg>