<svg xmlns="http://www.w3.org/2000/svg" width="78" height="20" viewBox="0 0 78 20" xmlns:xlink="http://www.w3.org/1999/xlink">
  <defs>
    <rect id="a" width="20.341" height="19.732" y=".034" rx="9.866"/>
  </defs>
  <g fill="none" fill-rule="evenodd">
    <path fill="#433E3D" d="M26.2833253,12.2039233 L28.670894,7.30155682 L30.9389803,12.2039233 L26.2833253,12.2039233 Z M29.5827092,3.74724716 L28.6217236,3.74724716 L23.0159741,14.8662102 L24.9187257,14.8662102 L25.898931,12.9869489 L31.2745244,12.9869489 L32.1453376,14.8662102 L34.9102534,14.8662102 L29.5827092,3.74724716 Z"/>
    <polygon fill="#433E3D" points="36.072 14.866 38.579 14.866 38.579 3.747 36.072 3.747"/>
    <polygon fill="#433E3D" points="40.887 14.866 43.354 14.866 43.354 6.68 40.887 6.68"/>
    <polygon fill="#433E3D" points="45.622 18.157 48.129 18.157 48.129 6.68 45.622 6.68"/>
    <g transform="translate(0 .123)">
      <path fill="#04A1E8" d="M43.513285,4.06672159 C43.513285,4.77582955 42.925322,5.35072692 42.2000982,5.35072692 C41.4748743,5.35072692 40.8870715,4.77582955 40.8870715,4.06672159 C40.8870715,3.35761364 41.4748743,2.78271626 42.2000982,2.78271626 C42.925322,2.78271626 43.513285,3.35761364 43.513285,4.06672159"/>
      <path fill="#433E3D" d="M49.5428144 13.9705229C48.7701994 13.9705229 48.331008 13.3018191 48.0020257 12.9803088L48.0020257 8.87772464C48.0020257 8.87772464 48.7065414 7.77428501 49.6872376 7.77428501 50.6679339 7.77428501 51.4619327 8.96260462 51.4619327 11.0280695 51.4619327 13.0933777 50.3154293 13.9705229 49.5428144 13.9705229M50.3881344 6.51893842C48.8759672 6.51893842 47.9852476 7.33532088 47.9852476 7.33532088L48.0020257 14.8999743 49.6849347 14.8999743C52.1370044 14.8999743 54.0618799 13.3278156 54.0618799 10.5264633 54.0618799 7.7249544 51.9001371 6.51893842 50.3881344 6.51893842M60.1741491 13.4591446C60.1741491 13.4591446 59.3653195 13.8035192 58.9879725 13.8035192 58.6106255 13.8035192 57.1981368 13.5574926 57.1981368 12.0818026 57.1981368 10.6061126 58.6010156 10.2373076 59.1543832 10.2373076 59.7077507 10.2373076 60.1741491 10.4585906 60.1741491 10.4585906L60.1741491 13.4591446zM58.7334715 6.33846669C57.1787569 6.33846669 55.891837 6.81298018 55.891837 6.81298018L56.0438329 7.56719041C56.0438329 7.56719041 57.9353729 6.99699119 59.4767938 7.48794822 60.5136973 7.8180718 60.1419561 9.26244077 60.1419561 9.26244077 60.1419561 9.26244077 59.1836932 9.18366839 58.3532415 9.18366839 56.7656932 9.18366839 55.0802846 9.68511797 55.0802846 12.049542 55.0802846 14.413966 57.3273893 14.9000683 58.1578411 14.9000683 59.7947199 14.9000683 60.1741491 14.4302529 60.1741491 14.4302529L60.1741491 14.7434631 62.5766131 14.7434631 62.5766131 8.2282206C62.5766131 7.17740028 61.0247815 6.33846669 58.7334715 6.33846669L58.7334715 6.33846669zM63.4778895 6.27364783L67.5599963 14.0415747C67.5599963 14.0415747 67.6641031 14.8693893 67.0855897 15.4843776 66.5070764 16.0992093 65.7040127 16.2158801 64.8235897 16.2158801L64.8002057 17.5623708 66.4205877 17.5623708C66.4205877 17.5623708 67.9443906 17.5160157 68.7493762 15.8682167 69.5542016 14.2204177 73.1763166 6.28680266 73.1763166 6.28680266L71.2255158 6.28680266 68.9505425 11.8113613 66.1837047 6.33848235 63.4778895 6.27364783z"/>
      <polygon fill="#433E3D" points="76.27 3.103 75.715 3.103 75.715 4.443 75.508 4.443 75.508 3.103 74.953 3.103 74.953 2.923 76.27 2.923"/>
      <polygon fill="#433E3D" points="77.863 4.443 77.656 4.443 77.656 3.133 77.224 4.024 77.101 4.024 76.672 3.133 76.672 4.443 76.479 4.443 76.479 2.923 76.761 2.923 77.175 3.769 77.576 2.923 77.863 2.923"/>
      <mask id="b" fill="white">
        <use xlink:href="#a"/>
      </mask>
      <use fill="#FFFFFF" xlink:href="#a"/>
      <g fill="#1CACEC" transform="translate(-.48 -.47)" mask="url(#b)">
        <path d="M21.2353004,17.1729185 L21.2353004,20.8633879 L0,20.8633879 L0,0.104780145 L21.2353004,0.104780145 L21.2353004,14.0592161 C18.8418974,13.4157811 16.2713093,12.6472427 14.0258633,11.7108237 C14.569143,10.3342021 15.3089281,9.00035777 15.6482715,7.57304913 C15.2532791,7.54124865 11.577637,7.57304913 11.577637,7.57304913 L11.6070302,6.18900205 L16.5036481,6.18900205 L16.5036481,5.39608867 L11.5627752,5.36719382 L11.5923336,3.06044869 C11.5923336,3.06044869 10.0150061,3.08805215 9.37198749,3.11162001 C9.29916489,3.61025792 9.33582389,5.39608867 9.33582389,5.39608867 L4.35086118,5.38156054 L4.36555781,6.23226361 L9.24731388,6.2178969 L9.26201051,7.54431571 L5.23579609,7.57304913 L5.22209025,8.38000637 L13.0966734,8.39485735 C13.0966734,8.39485735 12.7191849,9.31658686 12.5953369,9.62038633 C12.4490312,9.97842417 12.0053252,11.0333283 12.0053252,11.0333283 C12.0053252,11.0333283 9.5182932,10.3106342 8.53939898,10.1106302 C7.04348083,9.80473223 5.34709412,9.56130524 3.90831116,10.2691483 C2.57702822,10.9242058 1.89454343,12.1455378 1.91733146,13.6140095 C1.93962409,15.0560077 2.84800755,16.1691857 4.21809617,16.5695166 C5.26469395,16.8754146 5.9577471,16.9771115 6.91699078,16.8867142 C9.17366563,16.526255 10.6659509,15.5971 12.1527869,14.0032021 C12.4521687,13.6824531 12.6836818,13.478575 12.6836818,13.478575 C12.6836818,13.478575 15.6609866,14.784493 16.6658063,15.2287311 C18.202842,15.908325 19.6759721,16.5432045 21.2353004,17.1729185"/>
        <path d="M10.7906245,12.590357 C9.64841612,14.3755421 7.42559305,15.6864642 5.04407946,15.5021183 C4.30660618,15.4449743 4.14230123,15.269991 3.99682116,15.2142998 C3.24465126,14.925997 2.53409426,13.9519662 2.61054973,13.2066728 C2.70467418,12.2868804 3.32391395,11.8240786 4.14312688,11.427299 C4.83750107,11.090892 5.49851889,11.0936362 6.13542763,11.090892 C7.81398023,11.083305 9.27191834,11.8863881 10.7906245,12.590357"/>
      </g>
    </g>
  </g>
</svg>
