<svg xmlns="http://www.w3.org/2000/svg" width="73" height="35" viewBox="0 0 73 35">
  <g fill="#828282" fill-rule="evenodd" transform="translate(.582)">
    <g transform="translate(1.286)">
      <path d="M3.73069996 15.0891021L.703247626 15.0891021.703247626 2.90969618 6.06218624 2.90969618 6.06218624 4.64961132 2.61715427 4.64961132 2.61715427 7.76405941 3.73069996 7.76405941C4.68185832 7.76405941 5.40101605 8.02214424 5.88819473 8.53832164 6.3753734 9.05449904 6.61895908 9.79975524 6.61895908 10.7741126L6.61895908 12.0790489C6.61895908 13.0534063 6.3753734 13.7986625 5.88819473 14.3148399 5.40101605 14.8310173 4.68185832 15.0891021 3.73069996 15.0891021zM2.61715427 13.349187L3.73069996 13.349187C4.38027152 13.349187 4.70505244 12.9664095 4.70505244 12.200843L4.70505244 10.6523185C4.70505244 9.88675204 4.38027152 9.50397454 3.73069996 9.50397454L2.61715427 9.50397454 2.61715427 13.349187zM12.1518892 2.90969618L14.1005942 15.0891021 12.1692884 15.0891021 11.8387045 12.8794099 9.48981905 12.8794099 9.15923518 15.0891021 7.40192089 15.0891021 9.35062584 2.90969618 12.1518892 2.90969618zM10.6555622 5.06719095L9.73340717 11.2264905 11.5777172 11.2264905 10.6555622 5.06719095zM16.9018575 9.86935672L16.9018575 15.0891021 14.9879509 15.0891021 14.9879509 2.90969618 16.9018575 2.90969618 16.9018575 8.12944158 19.0767514 8.12944158 19.0767514 2.90969618 21.0254564 2.90969618 21.0254564 15.0891021 19.0767514 15.0891021 19.0767514 9.86935672 16.9018575 9.86935672zM26.7845755 15.0891021L24.9228663 10.2347389 24.3312952 11.3482846 24.3312952 15.0891021 22.4173885 15.0891021 22.4173885 2.90969618 24.3312952 2.90969618 24.3312952 8.21643734 26.8367729 2.90969618 28.7506796 2.90969618 26.0886094 8.3382314 28.7506796 15.0891021 26.7845755 15.0891021zM31.3779514 5.71095955L31.3779514 12.2878388C31.3779514 13.0882037 31.708532 13.4883802 32.3697031 13.4883802 33.0308741 13.4883802 33.3614547 13.0882037 33.3614547 12.2878388L33.3614547 5.71095955C33.3614547 4.91059458 33.0308741 4.5104181 32.3697031 4.5104181 31.708532 4.5104181 31.3779514 4.91059458 31.3779514 5.71095955zM29.4640448 12.1660447L29.4640448 5.83275361C29.4640448 4.85839626 29.7134301 4.10444057 30.2122083 3.57086393 30.7109865 3.03728729 31.4301442 2.77050297 32.3697031 2.77050297 33.3092619 2.77050297 34.0284197 3.03728729 34.5271978 3.57086393 35.025976 4.10444057 35.2753613 4.85839626 35.2753613 5.83275361L35.2753613 12.1660447C35.2753613 13.140402 35.025976 13.8943577 34.5271978 14.4279344 34.0284197 14.961511 33.3092619 15.2282953 32.3697031 15.2282953 31.4301442 15.2282953 30.7109865 14.961511 30.2122083 14.4279344 29.7134301 13.8943577 29.4640448 13.140402 29.4640448 12.1660447zM39.3989602 2.90969618C40.3849171 2.90969618 41.1040748 3.13878272 41.556455 3.59696266 42.0088352 4.0551426 42.2350219 4.75980118 42.2350219 5.71095955L42.2350219 6.14593833C42.2350219 7.39868349 41.8232461 8.21643543 40.9996821 8.59921867 41.9508405 8.97040242 42.4264125 9.84035129 42.4264125 11.2090914L42.4264125 12.200843C42.4264125 13.1404019 42.179927 13.8566598 41.6869486 14.3496382 41.1939702 14.8426166 40.4719126 15.0891021 39.5207543 15.0891021L36.5107011 15.0891021 36.5107011 2.90969618 39.3989602 2.90969618zM39.2771662 9.60836945L38.4246077 9.60836945 38.4246077 13.349187 39.5207543 13.349187C39.8571395 13.349187 40.1065249 13.2592923 40.2689178 13.0795001 40.4313107 12.899708 40.5125059 12.5894262 40.5125059 12.1486455L40.5125059 11.0872973C40.5125059 10.5305217 40.4168115 10.1448444 40.2254199 9.93025375 40.0340283 9.71566314 39.7179469 9.60836945 39.2771662 9.60836945zM39.3467628 4.64961132L38.4246077 4.64961132 38.4246077 7.86845431 39.1727712 7.86845431C39.5555545 7.86845431 39.8426376 7.76986011 40.0340292 7.57266874 40.2254209 7.37547737 40.3211152 7.0448968 40.3211152 6.58091711L40.3211152 5.90235021C40.3211152 5.06718677 39.9963343 4.64961132 39.3467628 4.64961132zM47.3155741 10.5479236L49.1250858 10.5479236 49.1250858 12.1660447C49.1250858 13.1520015 48.8815001 13.908857 48.3943215 14.4366339 47.9071428 14.9644108 47.1995844 15.2282953 46.271625 15.2282953 45.3436656 15.2282953 44.6361072 14.9644108 44.1489285 14.4366339 43.6617499 13.908857 43.4181642 13.1520015 43.4181642 12.1660447L43.4181642 5.83275361C43.4181642 4.84679677 43.6617499 4.08994125 44.1489285 3.56216436 44.6361072 3.03438746 45.3436656 2.77050297 46.271625 2.77050297 47.1995844 2.77050297 47.9071428 3.03438746 48.3943215 3.56216436 48.8815001 4.08994125 49.1250858 4.84679677 49.1250858 5.83275361L49.1250858 7.0158959 47.3155741 7.0158959 47.3155741 5.71095955C47.3155741 4.91059458 46.9849935 4.5104181 46.3238224 4.5104181 45.6626514 4.5104181 45.3320708 4.91059458 45.3320708 5.71095955L45.3320708 12.2878388C45.3320708 13.0766042 45.6626514 13.470981 46.3238224 13.470981 46.9849935 13.470981 47.3155741 13.0766042 47.3155741 12.2878388L47.3155741 10.5479236zM54.6580159 15.0891021L52.7963067 10.2347389 52.2047356 11.3482846 52.2047356 15.0891021 50.290829 15.0891021 50.290829 2.90969618 52.2047356 2.90969618 52.2047356 8.21643734 54.7102134 2.90969618 56.62412 2.90969618 53.9620499 8.3382314 56.62412 15.0891021 54.6580159 15.0891021zM61.0609036 9.50397454L59.4601817 15.0891021 57.4940776 15.0891021 57.4940776 2.90969618 59.1991944 2.90969618 59.1991944 10.6175202 59.8951605 7.93805092 61.4610841 2.90969618 63.5663814 2.90969618 63.5663814 15.0891021 61.8438654 15.0891021 61.8438654 6.51132051 61.0609036 9.50397454zM64.9235152 15.0891021L64.9235152 2.90969618 66.6286321 2.90969618 66.6286321 10.6175202 67.3245981 7.93805092 68.8905217 2.90969618 70.9958191 2.90969618 70.9958191 15.0891021 69.2733031 15.0891021 69.2733031 6.51132051 68.4903413 9.50397454 66.8896193 15.0891021 64.9235152 15.0891021zM68.8557234.195428571L70.0214666.195428571C70.0214666.798602167 69.8474768 1.27127439 69.499492 1.61345941 69.1515073 1.95564443 68.6469369 2.12673437 67.9857659 2.12673437 67.3361943 2.12673437 66.8461231 1.95854426 66.5155376 1.62215898 66.1849521 1.28577371 66.0080625.810201659 65.9848635.195428571L67.1680058.195428571C67.1912047.508614862 67.2666003.720302419 67.3941947.830497595 67.5217891.940692772 67.7189776.995789533 67.9857659.995789533 68.2641537.995789533 68.4729414.937792942 68.6121353.82179802 68.7513292.705803098 68.8325245.497015369 68.8557234.195428571zM22.8244974 22.507118L22.8244974 33.260948 20.8529619 33.260948 20.8529619 20.714813 27.0722603 20.714813 27.0722603 33.260948 25.0648787 33.260948 25.0648787 22.507118 22.8244974 22.507118zM30.4776398 22.507118L30.4776398 26.0021127 33.1840203 26.0021127 33.1840203 27.7944177 30.4776398 27.7944177 30.4776398 31.468643 33.8830193 31.468643 33.8830193 33.260948 28.5061043 33.260948 28.5061043 20.714813 33.8830193 20.714813 33.8830193 22.507118 30.4776398 22.507118zM38.0053208 20.714813C39.9649174 20.714813 40.944701 21.7483652 40.944701 23.8155006L40.944701 25.4464982C40.944701 27.5136336 39.9649174 28.5471858 38.0053208 28.5471858L37.0733222 28.5471858 37.0733222 33.260948 35.1017867 33.260948 35.1017867 20.714813 38.0053208 20.714813zM38.0053208 22.507118L37.0733222 22.507118 37.0733222 26.7548808 38.0053208 26.7548808C38.3279373 26.7548808 38.569896 26.6652665 38.7312043 26.4860351 38.8925126 26.3068037 38.9731655 26.0021149 38.9731655 25.5719595L38.9731655 23.6900393C38.9731655 23.2598839 38.8925126 22.9551951 38.7312043 22.7759637 38.569896 22.5967323 38.3279373 22.507118 38.0053208 22.507118zM43.830312 22.507118L43.830312 26.0021127 46.5366926 26.0021127 46.5366926 27.7944177 43.830312 27.7944177 43.830312 31.468643 47.2356915 31.468643 47.2356915 33.260948 41.8587765 33.260948 41.8587765 20.714813 47.2356915 20.714813 47.2356915 22.507118 43.830312 22.507118zM51.4296852 20.714813C52.4453298 20.714813 53.1861418 20.9507974 53.6521434 21.4227734 54.1181451 21.8947495 54.3511424 22.6206257 54.3511424 23.600424L54.3511424 24.0485003C54.3511424 25.3389663 53.9269678 26.1813413 53.0786058 26.5756503 54.0584041 26.9580106 54.5482959 27.8541542 54.5482959 29.2641078L54.5482959 30.2857217C54.5482959 31.2535712 54.2943886 31.9913961 53.7865663 32.4992184 53.278744 33.0070406 52.5349449 33.260948 51.5551466 33.260948L48.4544589 33.260948 48.4544589 20.714813 51.4296852 20.714813zM51.3042239 27.6151872L50.4259944 27.6151872 50.4259944 31.468643 51.5551466 31.468643C51.9016606 31.468643 52.1585551 31.3760415 52.3258377 31.1908357 52.4931204 31.0056299 52.5767604 30.6860054 52.5767604 30.2319525L52.5767604 29.1386465C52.5767604 28.565106 52.4781846 28.1678157 52.2810301 27.9467636 52.0838756 27.7257116 51.7582767 27.6151872 51.3042239 27.6151872zM51.3759161 22.507118L50.4259944 22.507118 50.4259944 25.8228822 51.1966856 25.8228822C51.5909946 25.8228822 51.886722 25.7213193 52.0838766 25.5181904 52.2810311 25.3150615 52.3796069 24.9745269 52.3796069 24.4965765L52.3796069 23.7975776C52.3796069 22.9372669 52.0450466 22.507118 51.3759161 22.507118zM57.5414453 23.600424L57.5414453 30.3753369C57.5414453 31.1998013 57.8819798 31.6120274 58.5630591 31.6120274 59.2441384 31.6120274 59.584673 31.1998013 59.584673 30.3753369L59.584673 23.600424C59.584673 22.7759596 59.2441384 22.3637336 58.5630591 22.3637336 57.8819798 22.3637336 57.5414453 22.7759596 57.5414453 23.600424zM55.5699098 30.2498756L55.5699098 23.7258854C55.5699098 22.7221896 55.8268043 21.9455318 56.3406009 21.3958889 56.8543976 20.8462459 57.5952096 20.5714286 58.5630591 20.5714286 59.5309087 20.5714286 60.2717207 20.8462459 60.7855173 21.3958889 61.299314 21.9455318 61.5562085 22.7221896 61.5562085 23.7258854L61.5562085 30.2498756C61.5562085 31.2535714 61.299314 32.0302291 60.7855173 32.5798721 60.2717207 33.129515 59.5309087 33.4043324 58.5630591 33.4043324 57.5952096 33.4043324 56.8543976 33.129515 56.3406009 32.5798721 55.8268043 32.0302291 55.5699098 31.2535714 55.5699098 30.2498756zM70.4818874 34.9457147L68.5282749 34.9457147 68.5282749 33.260948 64.3163582 33.260948 64.3163582 34.9457147 62.3985918 34.9457147 62.3985918 31.5044891 63.169283 31.5044891C63.4560532 31.1460263 63.6173591 30.6023659 63.6532053 29.8734915L64.1012816 20.714813 69.621581 20.714813 69.621581 31.5044891 70.4818874 31.5044891 70.4818874 34.9457147zM65.9473557 22.507118L65.5888947 29.8376454C65.5410997 30.6382123 65.3558967 31.1938213 65.0332802 31.5044891L67.6141994 31.5044891 67.6141994 22.507118 65.9473557 22.507118z"/>
    </g>
    <g transform="translate(0 20.571)">
      <path d="M14.8528998 2.97057996L10.8921265 0 10.8921265 1.98038664 4.94799603 1.98038664C2.21506246 1.98038664 0 4.20238046 0 6.93135325 0 7.76113525.203979824 8.54338798.565400387 9.22959195L2.18436647 8.01561494C2.05267076 7.6799394 1.98038664 7.31455807 1.98038664 6.93135325 1.98038664 5.29456369 3.30922608 3.96077329 4.94799603 3.96077329L10.8921265 3.96077329 10.8921265 5.94115993 14.8528998 2.97057996 14.8528998 2.97057996zM13.6587267 5.84610137C13.7904224 6.1827671 13.8627065 6.54814844 13.8627065 6.93135325 13.8627065 8.56814281 12.5338671 9.90193321 10.8950971 9.90193321L4.95096661 9.90193321 4.95096661 7.92154657.990193321 10.8921265 4.95096661 13.8627065 4.95096661 11.8823199 10.8950971 11.8823199C13.6280307 11.8823199 15.8430931 9.66032604 15.8430931 6.93135325 15.8430931 6.10157125 15.6391133 5.31931852 15.2776928 4.63311455L13.6587267 5.84610137 13.6587267 5.84610137z"/>
    </g>
  </g>
</svg>
