<svg xmlns="http://www.w3.org/2000/svg" width="59" height="36" viewBox="0 0 59 36">
  <g fill="#828282" fill-rule="evenodd">
    <path d="M31.7134452,15.7935484 L30.8448,7.69343226 L29.9761548,15.7935484 L26.6970194,15.7935484 L25.0031613,0.592258065 L27.3267871,0.592258065 L28.6080387,12.5795613 L29.7589935,0.592258065 L32.0609032,0.592258065 L33.2552903,12.6664258 L34.4931097,0.592258065 L36.5778581,0.592258065 L34.884,15.7935484 L31.7134452,15.7935484 Z M37.7722452,15.7935484 L37.7722452,0.592258065 L40.1610194,0.592258065 L40.1610194,15.7935484 L37.7722452,15.7935484 Z M49.3252258,15.7935484 L46.8930194,15.7935484 C46.7482444,15.3592236 46.6758581,14.7367008 46.6758581,13.9259613 L46.6758581,11.5371871 C46.6758581,10.8422675 46.5528012,10.3464208 46.3066839,10.0496323 C46.0605665,9.75284368 45.6624415,9.60445161 45.1122968,9.60445161 L44.2870839,9.60445161 L44.2870839,15.7935484 L41.8983097,15.7935484 L41.8983097,0.592258065 L45.5031871,0.592258065 C46.7337739,0.592258065 47.6313649,0.878184237 48.1959871,1.45004516 C48.7606093,2.02190609 49.0429161,2.90140052 49.0429161,4.08855484 L49.0429161,5.28294194 C49.0429161,6.84651104 48.5217342,7.87439754 47.4793548,8.36663226 C48.5362117,8.8154345 49.0646323,9.89399146 49.0646323,11.6023355 L49.0646323,13.9476774 C49.0646323,14.7728944 49.1514959,15.3881786 49.3252258,15.7935484 L49.3252258,15.7935484 Z M45.4380387,2.76387097 L44.2870839,2.76387097 L44.2870839,7.43283871 L45.2208774,7.43283871 C45.6986346,7.43283871 46.0569472,7.30978188 46.2958258,7.06366452 C46.5347044,6.81754716 46.6541419,6.40494483 46.6541419,5.82584516 L46.6541419,4.32743226 C46.6541419,3.28505285 46.2487782,2.76387097 45.4380387,2.76387097 L45.4380387,2.76387097 Z M53.0169677,2.76387097 L53.0169677,6.99851613 L56.2961032,6.99851613 L56.2961032,9.17012903 L53.0169677,9.17012903 L53.0169677,13.6219355 L57.1430323,13.6219355 L57.1430323,15.7935484 L50.6281935,15.7935484 L50.6281935,0.592258065 L57.1430323,0.592258065 L57.1430323,2.76387097 L53.0169677,2.76387097 Z"/>
    <g transform="translate(.705)">
      <path d="M17.9792627 3.59585253L13.1847926 0 13.1847926 2.39723502 5.98949171 2.39723502C2.68130737 2.39723502 0 5.08693272 0 8.39032258 0 9.39476406.246915207 10.3416719.684410599 11.1723138L2.64415023 9.70280876C2.4847341 9.29647742 2.39723502 8.85418756 2.39723502 8.39032258 2.39723502 6.40900783 4.00577972 4.79447005 5.98949171 4.79447005L13.1847926 4.79447005 13.1847926 7.19170507 17.9792627 3.59585253 17.9792627 3.59585253zM16.53373 7.07663779C16.6931461 7.48416774 16.7806452 7.9264576 16.7806452 8.39032258 16.7806452 10.3716373 15.1721005 11.9861751 13.1883885 11.9861751L5.99308756 11.9861751 5.99308756 9.58894009 1.19861751 13.1847926 5.99308756 16.7806452 5.99308756 14.3834101 13.1883885 14.3834101C16.4965728 14.3834101 19.1778802 11.6937124 19.1778802 8.39032258 19.1778802 7.38588111 18.930965 6.43897327 18.4934696 5.60833134L16.53373 7.07663779 16.53373 7.07663779z"/>
    </g>
    <path d="M0.153197416,23.4533232 L0.153197416,21.5383555 L6.66408761,21.5383555 L6.66408761,23.4533232 L4.46187475,23.4533232 L4.46187475,34.9431294 L2.35541028,34.9431294 L2.35541028,23.4533232 L0.153197416,23.4533232 Z M14.1324617,34.9431294 L11.9876978,34.9431294 C11.8600327,34.560134 11.7962011,34.011182 11.7962011,33.2962572 L11.7962011,31.1897927 C11.7962011,30.577 11.6876873,30.1397534 11.4706565,29.8780398 C11.2536258,29.6163263 10.9025519,29.4854715 10.4174243,29.4854715 L9.68973658,29.4854715 L9.68973658,34.9431294 L7.58327211,34.9431294 L7.58327211,21.5383555 L10.7621185,21.5383555 C11.8472723,21.5383555 12.6387844,21.7904904 13.1366785,22.2947677 C13.6345725,22.7990451 13.8835159,23.5745992 13.8835159,24.6214535 L13.8835159,25.6746857 C13.8835159,27.0534694 13.4239282,27.9598783 12.5047391,28.3939399 C13.4366947,28.7897018 13.9026655,29.7407929 13.9026655,31.2472417 L13.9026655,33.3154069 C13.9026655,34.0430982 13.9792635,34.585667 14.1324617,34.9431294 L14.1324617,34.9431294 Z M10.7046695,23.4533232 L9.68973658,23.4533232 L9.68973658,27.5705037 L10.5131727,27.5705037 C10.9344677,27.5705037 11.2504342,27.46199 11.4610817,27.2449592 C11.6717292,27.0279285 11.7770514,26.6640883 11.7770514,26.1534276 L11.7770514,24.8320999 C11.7770514,23.9129108 11.4195943,23.4533232 10.7046695,23.4533232 L10.7046695,23.4533232 Z M19.9539635,21.5383555 L22.0987273,34.9431294 L19.9731132,34.9431294 L19.6092693,32.5111204 L17.0240629,32.5111204 L16.660219,34.9431294 L14.7261016,34.9431294 L16.8708655,21.5383555 L19.9539635,21.5383555 Z M18.3070913,23.9129154 L17.2921584,30.6919011 L19.3220241,30.6919011 L18.3070913,23.9129154 Z M27.5755349,34.9431294 L24.9520292,25.2342431 L24.9520292,34.9431294 L23.0562112,34.9431294 L23.0562112,21.5383555 L25.6988666,21.5383555 L27.8627801,29.5620702 L27.8627801,21.5383555 L29.7394484,21.5383555 L29.7394484,34.9431294 L27.5755349,34.9431294 Z M30.9841775,24.7555012 C30.9841775,23.6703474 31.2458871,22.8373448 31.7693142,22.2564684 C32.2927413,21.6755919 33.0651039,21.3851581 34.0864251,21.3851581 C35.1077464,21.3851581 35.8801089,21.6755919 36.4035361,22.2564684 C36.9269632,22.8373448 37.1886728,23.6703474 37.1886728,24.7555012 L37.1886728,25.1767941 L35.1971064,25.1767941 L35.1971064,24.6214535 C35.1971064,23.7405639 34.8460325,23.3001258 34.1438742,23.3001258 C33.4417158,23.3001258 33.0906419,23.7405639 33.0906419,24.6214535 C33.0906419,25.1193476 33.2310715,25.58851 33.5119348,26.0289547 C33.7927982,26.4693995 34.1342973,26.8683471 34.5364425,27.2258096 C34.9385878,27.583272 35.3439186,27.956687 35.752447,28.3460657 C36.1609755,28.7354444 36.5056663,29.2205647 36.7865296,29.8014411 C37.0673929,30.3823176 37.2078225,31.0238253 37.2078225,31.7259837 C37.2078225,32.8111375 36.9397297,33.6441401 36.4035361,34.2250165 C35.8673424,34.805893 35.0885967,35.0963268 34.0672755,35.0963268 C33.0459542,35.0963268 32.2672085,34.805893 31.7310149,34.2250165 C31.1948212,33.6441401 30.9267284,32.8111375 30.9267284,31.7259837 L30.9267284,30.9025476 L32.9182948,30.9025476 L32.9182948,31.8600314 C32.9182948,32.7281544 33.2821351,33.1622094 34.0098264,33.1622094 C34.7375178,33.1622094 35.101358,32.7281544 35.101358,31.8600314 C35.101358,31.3621373 34.9609285,30.8929749 34.6800651,30.4525301 C34.3992018,30.0120854 34.0577026,29.6131378 33.6555574,29.2556753 C33.2534122,28.8982129 32.8480814,28.5247979 32.4395529,28.1354192 C32.0310244,27.7460405 31.6863337,27.2609202 31.4054704,26.6800438 C31.124607,26.0991673 30.9841775,25.4576596 30.9841775,24.7555012 L30.9841775,24.7555012 Z M40.5207166,23.4533232 L40.5207166,27.493905 L43.2399708,27.493905 L43.2399708,29.4088727 L40.5207166,29.4088727 L40.5207166,34.9431294 L38.4142521,34.9431294 L38.4142521,21.5383555 L43.9868082,21.5383555 L43.9868082,23.4533232 L40.5207166,23.4533232 Z M47.1082055,23.4533232 L47.1082055,27.1875102 L49.9998068,27.1875102 L49.9998068,29.1024779 L47.1082055,29.1024779 L47.1082055,33.0281617 L50.7466442,33.0281617 L50.7466442,34.9431294 L45.0017411,34.9431294 L45.0017411,21.5383555 L50.7466442,21.5383555 L50.7466442,23.4533232 L47.1082055,23.4533232 Z M58.5980118,34.9431294 L56.4532479,34.9431294 C56.3255828,34.560134 56.2617512,34.011182 56.2617512,33.2962572 L56.2617512,31.1897927 C56.2617512,30.577 56.1532374,30.1397534 55.9362066,29.8780398 C55.7191759,29.6163263 55.368102,29.4854715 54.8829744,29.4854715 L54.1552867,29.4854715 L54.1552867,34.9431294 L52.0488222,34.9431294 L52.0488222,21.5383555 L55.2276686,21.5383555 C56.3128224,21.5383555 57.1043345,21.7904904 57.6022285,22.2947677 C58.1001226,22.7990451 58.3490659,23.5745992 58.3490659,24.6214535 L58.3490659,25.6746857 C58.3490659,27.0534694 57.8894783,27.9598783 56.9702892,28.3939399 C57.9022448,28.7897018 58.3682156,29.7407929 58.3682156,31.2472417 L58.3682156,33.3154069 C58.3682156,34.0430982 58.4448136,34.585667 58.5980118,34.9431294 L58.5980118,34.9431294 Z M55.1702196,23.4533232 L54.1552867,23.4533232 L54.1552867,27.5705037 L54.9787228,27.5705037 C55.4000178,27.5705037 55.7159843,27.46199 55.9266318,27.2449592 C56.1372793,27.0279285 56.2426015,26.6640883 56.2426015,26.1534276 L56.2426015,24.8320999 C56.2426015,23.9129108 55.8851444,23.4533232 55.1702196,23.4533232 L55.1702196,23.4533232 Z"/>
  </g>
</svg>
