<?xml version="1.0" encoding="UTF-8" standalone="no"?>
<svg width="40px" height="40px" viewBox="0 0 40 40" version="1.1" xmlns="http://www.w3.org/2000/svg" xmlns:xlink="http://www.w3.org/1999/xlink">
    <!-- Generator: Sketch 47.1 (45422) - http://www.bohemiancoding.com/sketch -->
    <title>ic_2</title>
    <desc>Created with Sketch.</desc>
    <defs></defs>
    <g id="Page-1" stroke="none" stroke-width="1" fill="none" fill-rule="evenodd">
        <g id="ic_2">
            <path d="M30.040308,2.68218477 C26.9749704,0.893417685 23.6296493,0 20.0004827,0 C16.3722816,0 13.025995,0.893417685 9.96162294,2.68218477 C6.89725085,4.469986 4.47104825,6.89621867 2.68301513,9.96088279 C0.894016558,13.0255469 0,16.3712754 0,20 C0,23.6287246 0.894982018,26.9744531 2.68301513,30.0391172 C4.47104825,33.1028155 6.89725085,35.5290481 9.96162294,37.3178152 C13.025995,39.1065823 16.3722816,40 20.0004827,40 C23.6286838,40 26.9759359,39.1065823 30.040308,37.3178152 C33.1037146,35.530014 35.5299172,33.1037813 37.3179503,30.0391172 C39.1059834,26.9744531 40,23.6277587 40,20 C40,16.3712754 39.1059834,13.0245811 37.3189158,9.96088279 C35.5299172,6.89621867 33.1037146,4.47095185 30.040308,2.68218477" id="Fill-1" fill="#BCBEC5"></path>
            <polyline id="Path-2-Copy" stroke="#FFFFFF" stroke-width="4" stroke-linecap="round" points="24.5172678 25.5996694 18.8672677 21.6205579 18.8672677 11.5996694"></polyline>
        </g>
    </g>
</svg>