<svg xmlns="http://www.w3.org/2000/svg" width="76" height="17" viewBox="0 0 76 17" xmlns:xlink="http://www.w3.org/1999/xlink">
  <defs>
    <polygon id="a" points="0 .063 0 13.031 27.681 13.031 27.681 .063 0 .063"/>
    <polygon id="c" points="27.224 12.815 27.224 .093 .101 .093 .101 12.815 27.224 12.815"/>
  </defs>
  <g fill="none" fill-rule="evenodd">
    <g transform="translate(0 .053)">
      <mask id="b" fill="white">
        <use xlink:href="#a"/>
      </mask>
      <path fill="#E79A3A" d="M22.9377156,8.53215781 C21.9960487,8.86119427 21.0165648,8.9630224 20.1066779,9.32888785 C19.613234,9.52723333 19.2199141,9.84126111 19.0481427,10.3744156 C18.9468796,10.6885589 19.1363065,11.000624 19.4375898,11.0395311 C20.9182633,11.2309495 22.5931477,10.0490736 22.9377156,8.53215781 M3.5191254,11.8966422 C3.68417624,11.7764573 3.82724308,11.8220606 3.95960269,11.8218297 C5.79634858,11.818597 7.63298057,11.8187125 9.46972646,11.8227533 C9.70300743,11.8233306 9.86657748,11.817558 9.99745631,11.5363184 C10.448413,10.5669885 10.9526781,9.62328889 11.4355287,8.66919861 C11.6057053,8.33288872 11.3604641,8.31499375 11.1424467,8.28786267 C9.71861265,8.11099115 8.29455081,7.93562049 6.87037507,7.76163524 C4.69999638,7.49667431 2.52927598,7.23367604 0.359011207,6.96790694 C0.237586641,6.95301372 0.11844021,6.91999462 -2.27813445e-05,6.8065059 L0.468247753,6.8065059 C4.1986929,6.80789132 7.92913805,6.80927674 11.6595832,6.81043125 C11.8446816,6.81043125 12.0301218,6.81516476 12.2147646,6.80546684 C12.459664,6.79265174 12.5014678,6.57213958 12.5356398,6.40450417 C12.5752793,6.21066128 12.3651214,6.24541215 12.2632888,6.22543906 C10.5939858,5.89767257 8.92286029,5.57925764 7.25173477,5.26049635 C6.58367185,5.13303802 5.91469767,5.00996684 5.23945862,4.81335312 C5.38958768,4.80538698 5.53971674,4.79049375 5.68995971,4.79049375 C7.66897509,4.79107101 9.6482183,4.78368212 11.6271198,4.80538698 C11.9636002,4.80908142 12.1817316,4.72076111 12.2675034,4.40072986 C12.4258337,3.81008056 12.8000173,3.60630885 13.3741072,3.71240868 C13.4566895,3.72764826 13.5448534,3.7095224 13.6299417,3.71506406 C13.8169765,3.72718646 14.0108458,3.69255104 14.006859,3.47377066 C14.0029862,3.25995469 13.7880442,3.35716476 13.6668475,3.34157882 C12.0331972,3.1319191 10.3987497,2.92941736 8.76452995,2.72472205 C6.77856625,2.47592431 4.79305818,2.22308576 2.80606932,1.98340868 C2.62028745,1.96101111 2.45922335,1.83851719 2.26569583,1.84659878 C3.958008,1.84659878 5.65043407,1.84648333 7.34274624,1.84659878 C9.76326409,1.84659878 12.1837819,1.84694514 14.6042998,1.84613698 C14.7177509,1.84613698 14.8392893,1.85976024 14.9428306,1.82443212 C15.1091344,1.76751458 15.2772607,1.6273566 15.2723627,1.46711007 C15.2667813,1.28157969 15.0467135,1.3492342 14.917885,1.33341736 C12.6092235,1.05136962 10.2995369,0.777634375 7.9911033,0.49373941 C7.32030662,0.411307118 6.65247151,0.303244618 5.9880536,0.112980729 C6.92368341,0.112980729 7.85942713,0.116213368 8.79505695,0.112403472 C12.1553052,0.0987802083 15.5155535,0.0894286458 18.8756879,0.062759375 C19.6627834,0.0564095486 20.435071,0.185253299 21.2149903,0.240900868 C21.3880146,0.253254167 21.4573838,0.295163021 21.3341367,0.472842708 C20.9340963,1.04986875 20.5406625,1.63174375 20.1495068,2.21511962 C20.0672662,2.33772899 19.9771659,2.38287049 19.8274925,2.35654757 C19.6321425,2.32237396 19.4318945,2.30828889 19.2333551,2.30378628 C18.2411136,2.28161962 17.8672717,2.53711354 17.4954802,3.45668385 C17.4162011,3.65272031 17.4606247,3.7059434 17.6613284,3.7182967 C17.9994035,3.7391934 18.333378,3.81746944 18.6757816,3.7845658 C18.9180612,3.76136007 18.9379949,3.86053281 18.834112,4.06141823 C18.5478644,4.61477674 18.2714128,5.17356146 17.9995174,5.73442431 C17.9637507,5.80808229 17.8286574,5.89824983 17.9626117,5.98726285 C18.0548761,6.04868299 18.110007,5.93911962 18.1635431,5.88277934 C18.5520789,5.47385052 18.9025699,5.03490434 19.3733464,4.70124983 C20.4637755,3.92841823 21.695221,3.62362656 22.986012,3.55089219 C24.0784914,3.4893566 25.1745019,3.48012049 26.2633362,3.68770208 C27.3698261,3.89874722 27.8662316,4.63313351 27.6188262,5.74435312 C27.3706235,6.85892083 26.7368465,7.79627066 26.2696011,8.81004931 C25.8323132,9.75894427 25.308684,10.6650068 24.9126303,11.6354911 C24.7940534,11.9260823 24.7738919,12.2241778 24.750541,12.5225042 C24.7299239,12.785387 24.5911855,12.8118253 24.3821667,12.810209 C23.5279802,12.8036283 22.6733381,12.7938149 21.8194933,12.813788 C21.4979346,12.8212924 21.4160357,12.6897932 21.4629652,12.4048592 C21.4928088,12.2236005 21.5226524,12.0423418 21.5642283,11.7900806 C20.9851265,12.0985667 20.4847343,12.4248323 19.9210099,12.6090927 C18.7691852,12.9855797 17.6049446,13.1835788 16.3975333,12.8883696 C15.4914053,12.6668184 15.0151613,11.8770155 15.3073321,10.9889634 C15.7826648,9.54432014 16.741076,8.55547899 18.1727696,8.10337135 C19.4252879,7.7078349 20.724394,7.51133663 22.0212221,7.30687222 C22.625725,7.21150937 23.2237353,7.00057969 23.7896239,6.75813177 C24.0534319,6.64498941 24.1586817,6.2949408 24.1145998,5.97340868 C24.0745046,5.68039306 23.8239099,5.6422941 23.6011083,5.61516302 C22.9805445,5.53965781 22.3824203,5.66930972 21.8000152,5.87215781 C21.5286894,5.96659705 21.3120388,6.16829062 21.1647574,6.40473507 C21.0156535,6.64395035 20.8353392,6.67073507 20.5951099,6.64187222 C19.790245,6.54558576 18.973306,6.51383663 18.1821099,6.35128108 C17.5491303,6.22116736 16.9298194,6.36559705 16.3086861,6.2906691 C16.1077546,6.26642431 16.0285894,6.40450417 15.9576255,6.54396944 C15.3554007,7.72850069 14.76525,8.91938177 14.1597218,10.1018349 C13.7582006,10.8860962 13.3561099,11.6830571 13.0139341,12.5023002 C12.9147214,12.7398991 12.7766664,12.8145962 12.5208319,12.7895432 C9.91578519,12.534742 7.30925767,12.2957576 4.70421093,12.040841 C4.3223956,12.0034347 3.91848236,12.0975276 3.5191254,11.8966422" mask="url(#b)"/>
    </g>
    <g transform="translate(48.183 3.747)">
      <mask id="d" fill="white">
        <use xlink:href="#c"/>
      </mask>
      <path fill="#537BB0" d="M22.1542765,6.09972405 C22.7100274,4.16002526 23.2359347,2.35459644 23.7384912,0.542586892 C23.8296166,0.214127691 23.9472822,0.0793959201 24.3116698,0.0940582465 C25.1785,0.128809115 26.04795,0.115301302 26.9159192,0.0982144965 C27.2115072,0.0924419271 27.2901028,0.147743142 27.1691339,0.449186719 C26.8244521,1.30872231 26.4948061,2.17472318 26.1743865,3.04407214 C25.8029366,4.05196276 25.450851,5.06735773 25.0845269,6.07732648 C24.6210405,7.355027 24.156415,8.63226571 23.6837021,9.90650269 C22.8593591,12.1281338 21.8904685,12.8077961 19.5400033,12.809297 C13.2056505,12.8132223 6.87129771,12.8135687 0.536944897,12.8150695 C0.047259899,12.815185 0.0527274216,12.8154159 0.160710994,12.3071989 C0.261404536,11.8335018 0.375083445,11.3599202 0.432150713,10.8801043 C0.469284304,10.5687319 0.581824146,10.467481 0.886752441,10.4718681 C1.89721897,10.486415 2.90802722,10.4748699 3.91860766,10.4747544 C8.84382042,10.4745235 13.7689193,10.4708291 18.6940181,10.4790261 C19.436576,10.4802961 19.971482,10.2017119 20.2909904,9.5039237 C20.3906587,9.28618238 20.3845078,9.11231259 20.2939519,8.89641849 C19.1479364,6.16149054 18.0111473,3.42252179 16.8704854,0.685169358 C16.6272945,0.101562587 16.6244469,0.104102517 17.2298611,0.104910677 C18.098172,0.106065191 18.9672803,0.128116406 19.8343383,0.0946355035 C20.2102305,0.0800886285 20.3420206,0.221632031 20.4438532,0.564176302 C20.9620149,2.30818498 21.5066029,4.04411207 22.0423062,5.78269453 C22.0622399,5.84711641 22.0870715,5.90992196 22.1542765,6.09972405" mask="url(#d)"/>
    </g>
    <path fill="#537BB0" d="M48.8026288 8.36662361C48.7893018 8.86248733 48.8505836 9.33987882 49.0790805 9.79106285 49.3651002 10.3555047 49.8423694 10.5409196 50.4262553 10.5268345 50.9890684 10.5132113 51.3728201 10.2048406 51.5633861 9.69535365 51.8761739 8.85960104 51.8791355 7.99810278 51.5925462 7.15473038 51.3919564 6.56488924 50.9036383 6.23908542 50.3280677 6.23596823 49.7245899 6.23250469 49.2309181 6.5616566 49.0001431 7.13868264 48.8432935 7.53087101 48.7872514 7.94407153 48.8026288 8.36662361M46.7124405 3.84300729C47.2244512 3.84554722 47.7369176 3.8600941 48.2484726 3.84531632 48.4945112 3.83827378 48.575271 3.92116788 48.5601214 4.16684844 48.5416685 4.46644479 48.555793 4.76811927 48.555793 5.09126771 48.7341709 5.06413663 48.7912382 4.91901424 48.8766682 4.81972604 49.795212 3.75272431 50.9665148 3.4824526 52.2821375 3.74556632 53.5781682 4.00475469 54.3372426 4.88230069 54.7935529 6.08772865 55.3179794 7.47326076 55.3964612 8.88615486 55.0318458 10.3155585 54.3370147 13.039634 51.2270195 14.0777729 49.0664368 12.3089422 48.7934024 12.0854283 48.7628754 12.1730559 48.7029605 12.4587981 48.439722 13.7142165 48.1469818 14.9634005 47.8837433 16.2189344 47.8332826 16.459766 47.7582181 16.558246 47.5013584 16.5553597 46.3629747 16.542891 45.2243631 16.5462391 44.0859793 16.5553597 43.8254746 16.5574378 43.7392472 16.5157599 43.8182985 16.2145472 44.0966865 15.1527408 44.3405608 14.0816983 44.5976483 13.0141193 44.6580189 12.7616271 44.8279677 12.5620116 44.9292308 12.3356115 45.8845664 10.2011462 47.0316071 8.1540776 47.7414738 5.90646997 48.0353532 4.97604722 47.8078814 4.06340399 46.7124405 3.84300729M59.9066662 11.1991311C61.2713826 11.231342 62.1543875 10.2349965 61.9725924 8.87671094 61.9530004 8.73054948 61.9229291 8.66728212 61.76551 8.71750347 61.0366209 8.95002257 60.2961133 9.14975347 59.5789565 9.41448351 59.0135236 9.62310417 58.7986955 10.0498125 58.9100963 10.5554896 59.0077143 10.998592 59.2958983 11.1846997 59.9066662 11.1991311M65.81478 12.9479887C64.7326662 12.9479887 63.7249334 12.9445252 62.7173145 12.9506441 62.4857422 12.9520295 62.4539622 12.7713481 62.3762778 12.6235703 62.2619155 12.4059444 62.229566 12.1638429 62.1759159 11.8985356 62.1149758 11.9328247 62.0629204 11.951066 62.0246478 11.985355 60.5909039 13.2660573 58.9268405 13.3976719 57.1766638 12.9230512 56.2944562 12.6838359 55.6894976 12.051855 55.4748973 11.1472934 55.2435528 10.1720755 55.4672656 9.28333073 56.2582339 8.61752257 56.7396037 8.21228819 57.3372722 8.04869358 57.9342574 7.90818924 59.1238992 7.62821962 60.3438402 7.47478472 61.4974875 7.04576736 61.6757515 6.97949826 61.9695169 7.02129167 61.9623408 6.7043776 61.9550508 6.3794974 61.8871623 6.07020312 61.572552 5.89032986 60.7873929 5.44157031 59.5208641 5.79600608 59.0841457 6.60358854 58.9988296 6.76117969 58.9122605 6.80458941 58.7524494 6.78761806 57.8184142 6.68867622 56.8842652 6.59054253 55.9492049 6.50187587 55.6942817 6.47763108 55.6915479 6.34797917 55.7510072 6.14905642 56.1062823 4.96059983 56.8128457 4.22713715 58.0710593 3.94405035 59.2621819 3.67608767 60.4288146 3.62956076 61.6309861 3.73092708 62.1480087 3.77445226 62.6676512 3.78380382 63.1699799 3.91507205 64.2118846 4.18742187 64.8612669 4.84041493 65.1657395 5.9139974 65.3142739 6.4376849 65.3708855 6.94636372 65.3717968 7.47582378 65.373961 8.70249479 65.3830736 9.92928125 65.3720246 11.1558368 65.3664432 11.7725781 65.5015365 12.3508741 65.81478 12.9479887"/>
    <path fill="#E79A3A" d="M40.5170311 12.4618229L40.5170311 12.4397717C40.6309378 12.4397717 40.7448445 12.4395408 40.8587513 12.4397717 41.6424295 12.441388 41.6032456 12.4349227 41.7283152 11.6602439 41.8549795 10.8759826 41.7455151 9.99959115 42.4503699 9.39543403 42.517461 9.33782378 42.5473045 9.22087153 42.568719 9.12562413 42.6720324 8.66682031 42.4848836 8.33455122 42.0941836 8.2666658 41.3463859 8.13689844 40.5119053 8.98835243 40.6672741 9.73913281 40.7062302 9.92789583 40.6654516 10.0642439 40.5791103 10.2248368 40.2327199 10.8690556 39.9080858 11.5251658 39.5639736 12.1706545 39.4366258 12.4095234 39.5001858 12.4768316 39.7494137 12.4645938 40.0047926 12.452125 40.2610827 12.4618229 40.5170311 12.4618229M46.7124177 3.84303038C47.8078587 4.06331163 48.0353304 4.97607031 47.741451 5.9063776 47.0315843 8.15410069 45.8845437 10.2011693 44.9293219 12.3356345 44.8279449 12.5620347 44.65811 12.7616502 44.5976255 13.0141424 42.4395488 13.1704635 40.2804468 13.2329227 38.1184973 13.1036172 37.5073877 13.0670191 36.8942278 13.0263802 36.3146704 12.8157969 35.5648225 12.5433316 35.2215076 11.8573194 35.46766 11.0885286 35.9789873 9.49137413 36.9997054 8.39920399 38.6152445 7.91650174 39.7233291 7.58538715 40.8573844 7.50076128 42.0063615 7.46474045 43.038812 7.43241406 44.0693261 7.31892535 45.0990429 7.22310069 45.4076162 7.19446875 45.9295368 6.35363628 45.9186018 5.95867708 45.9089197 5.60631944 45.6424919 5.38038108 45.1479089 5.29679427 43.9414089 5.09302257 42.7671445 5.33166059 41.6016509 5.59165712 41.0519371 5.71426649 40.7140897 6.1384349 40.5786546 6.68174913 40.486618 7.05119358 40.2475278 7.15267535 39.932234 7.18823438 39.5278651 7.23372222 39.1370512 7.16237326 38.7594504 7.02209983 38.5339151 6.93828212 38.4261593 6.80228038 38.5151205 6.52277257 39.0460397 4.8542691 40.2385292 4.02879167 41.8832283 3.76383073 42.8206806 3.61282031 43.7669038 3.51872743 44.7114183 3.59411719 45.3790256 3.64745573 46.0704394 3.5615599 46.7124177 3.84303038M34.048929 3.58892187C34.6904517 3.56560069 35.327532 3.5912309 35.9572083 3.73900868 37.1280555 4.01401389 37.3821814 4.85865625 37.3224943 5.80200955 37.3117871 5.97195399 37.2256736 6.01166927 37.0771392 6.0263316 36.0872898 6.12458073 35.097896 6.22837153 34.10873 6.33527951 33.9230621 6.3552526 33.8423022 6.28528906 33.8566545 6.09791146 33.8945854 5.60447222 33.5033158 5.45438542 33.1805042 5.42609983 32.5345391 5.36941319 31.903382 5.50980208 31.4404651 6.03799219 31.3346457 6.15875434 31.2461402 6.3175 31.3447834 6.51134288 31.4719033 6.76141059 31.7375338 6.82941146 31.9332256 6.82767969 32.8054093 6.81994444 33.6327139 7.08502083 34.4697004 7.24607552 35.8615267 7.51392274 36.3160145 8.59685677 35.6226643 9.95156337 34.8519714 11.4571649 33.5327037 12.3031927 31.9610188 12.7557622 30.4571083 13.1889358 28.9265437 13.1702326 27.3932453 12.930671 26.1525733 12.7368281 25.5516015 11.8413872 25.8053856 10.5987839 25.8433166 10.4134844 25.8958276 10.3309366 26.0936835 10.313388 27.106656 10.2235668 28.1192868 10.1276267 29.1296394 10.0115981 29.4162287 9.97857899 29.4688536 10.0763663 29.4514259 10.3372865 29.4213545 10.7861615 29.6638619 11.0445417 30.0885062 11.1014592 30.8760573 11.2070972 31.6092748 11.1034219 32.1883766 10.4720182 32.5225789 10.1076536 32.4642587 9.79847483 31.9816359 9.65439149 31.4788516 9.50430469 30.9587535 9.41459896 30.4470846 9.29464497 29.9502234 9.17826997 29.4434524 9.09145052 28.9607157 8.93074219 28.0124423 8.61498264 27.6485103 7.71653993 28.0814698 6.68648264 28.2975508 6.17226215 28.5285536 5.64049306 29.0906833 5.35567448 29.291273 5.25407726 29.3491377 4.95286458 29.5653326 4.7963125 30.6414094 4.01724653 31.8649954 3.70668229 33.1528248 3.59284722 33.449324 3.56652431 33.7501517 3.58892187 34.048929 3.58892187"/>
  </g>
</svg>
