<svg xmlns="http://www.w3.org/2000/svg" width="47" height="36" viewBox="0 0 47 36">
  <g fill="none" fill-rule="evenodd" transform="translate(.278 .111)">
    <path fill="#000000" d="M8.61741176,35.1166667 L8.61741176,32.7833333 C8.61741176,31.8888889 8.064,31.3055556 7.15482353,31.3055556 C6.68047059,31.3055556 6.16658824,31.4611111 5.81082353,31.9666667 C5.53411765,31.5388889 5.13882353,31.3055556 4.54588235,31.3055556 C4.15058824,31.3055556 3.71576471,31.4222222 3.39952941,31.85 L3.39952941,31.3833333 L2.64847059,31.3833333 L2.64847059,35.1166667 L3.39952941,35.1166667 L3.39952941,32.9777778 C3.39952941,32.3166667 3.79482353,32.0055556 4.34823529,32.0055556 C4.90164706,32.0055556 5.21788235,32.3555556 5.21788235,32.9777778 L5.21788235,35.1166667 L5.96894118,35.1166667 L5.96894118,32.9777778 C5.96894118,32.3166667 6.36423529,32.0055556 6.91764706,32.0055556 C7.47105882,32.0055556 7.78729412,32.3555556 7.78729412,32.9777778 L7.78729412,35.1166667 L8.61741176,35.1166667 Z M20.9505882,31.4222222 L19.5670588,31.4222222 L19.5670588,30.2944444 L18.816,30.2944444 L18.816,31.4222222 L18.0254118,31.4222222 L18.0254118,32.0833333 L18.816,32.0833333 L18.816,33.8333333 C18.816,34.6888889 19.1322353,35.1944444 20.0809412,35.1944444 C20.4367059,35.1944444 20.832,35.0777778 21.1087059,34.9222222 L20.8715294,34.2611111 C20.6343529,34.4166667 20.3576471,34.4555556 20.16,34.4555556 C19.7647059,34.4555556 19.5670588,34.2222222 19.5670588,33.8333333 L19.5670588,32.0444444 L20.9505882,32.0444444 L20.9505882,31.4222222 Z M27.9868235,31.3055556 C27.5124706,31.3055556 27.1567059,31.5388889 26.9590588,31.85 L26.9590588,31.3833333 L26.208,31.3833333 L26.208,35.1166667 L26.9590588,35.1166667 L26.9590588,33.0166667 C26.9590588,32.3944444 27.2752941,32.0055556 27.7891765,32.0055556 C27.9472941,32.0055556 28.1449412,32.0444444 28.3030588,32.0833333 L28.5402353,31.3833333 C28.3821176,31.3444444 28.1449412,31.3055556 27.9868235,31.3055556 L27.9868235,31.3055556 Z M17.3534118,31.6944444 C16.9581176,31.4222222 16.4047059,31.3055556 15.8117647,31.3055556 C14.8630588,31.3055556 14.2701176,31.7333333 14.2701176,32.4722222 C14.2701176,33.0944444 14.7049412,33.4444444 15.5350588,33.5611111 L15.9303529,33.6 C16.3651765,33.6777778 16.6418824,33.8333333 16.6418824,34.0277778 C16.6418824,34.3 16.3256471,34.4944444 15.7327059,34.4944444 C15.1397647,34.4944444 14.7444706,34.3 14.4677647,34.1055556 L14.0724706,34.6888889 C14.6258824,35.0777778 15.2978824,35.1555556 15.6931765,35.1555556 C16.8,35.1555556 17.3929412,34.65 17.3929412,33.95 C17.3929412,33.2888889 16.9185882,32.9777778 16.0884706,32.8611111 L15.6931765,32.8222222 C15.3374118,32.7833333 15.0211765,32.6666667 15.0211765,32.4333333 C15.0211765,32.1611111 15.3374118,31.9666667 15.7722353,31.9666667 C16.2465882,31.9666667 16.7209412,32.1611111 16.9581176,32.2777778 L17.3534118,31.6944444 Z M28.8169412,33.25 C28.8169412,34.3777778 29.568,35.1944444 30.7934118,35.1944444 C31.3468235,35.1944444 31.7421176,35.0777778 32.1374118,34.7666667 L31.7421176,34.1833333 C31.4258824,34.4166667 31.1096471,34.5333333 30.7538824,34.5333333 C30.0818824,34.5333333 29.568,34.0277778 29.568,33.2888889 C29.568,32.55 30.0818824,32.0444444 30.7538824,32.0444444 C31.1096471,32.0444444 31.4258824,32.1611111 31.7421176,32.3944444 L32.1374118,31.8111111 C31.7421176,31.5 31.3468235,31.3833333 30.7934118,31.3833333 C29.6075294,31.3055556 28.8169412,32.1222222 28.8169412,33.25 L28.8169412,33.25 Z M23.52,31.3055556 C22.4131765,31.3055556 21.6621176,32.0833333 21.6621176,33.25 C21.6621176,34.4166667 22.4527059,35.1944444 23.5990588,35.1944444 C24.1524706,35.1944444 24.7058824,35.0388889 25.1407059,34.6888889 L24.7454118,34.1444444 C24.4291765,34.3777778 24.0338824,34.5333333 23.6385882,34.5333333 C23.1247059,34.5333333 22.5712941,34.2222222 22.4922353,33.5611111 L25.2988235,33.5611111 L25.2988235,33.25 C25.2988235,32.0833333 24.5872941,31.3055556 23.52,31.3055556 L23.52,31.3055556 Z M23.4804706,32.0055556 C24.0338824,32.0055556 24.4291765,32.3555556 24.4687059,32.9388889 L22.4131765,32.9388889 C22.5317647,32.3944444 22.8875294,32.0055556 23.4804706,32.0055556 L23.4804706,32.0055556 Z M13.2423529,33.25 L13.2423529,31.3833333 L12.4912941,31.3833333 L12.4912941,31.85 C12.2145882,31.5 11.8192941,31.3055556 11.2658824,31.3055556 C10.1985882,31.3055556 9.408,32.1222222 9.408,33.25 C9.408,34.3777778 10.1985882,35.1944444 11.2658824,35.1944444 C11.8192941,35.1944444 12.2145882,35 12.4912941,34.65 L12.4912941,35.1166667 L13.2423529,35.1166667 L13.2423529,33.25 Z M10.1985882,33.25 C10.1985882,32.55 10.6334118,32.0055556 11.3844706,32.0055556 C12.096,32.0055556 12.5308235,32.55 12.5308235,33.25 C12.5308235,33.9888889 12.0564706,34.4944444 11.3844706,34.4944444 C10.6334118,34.5333333 10.1985882,33.95 10.1985882,33.25 L10.1985882,33.25 Z M39.4108235,31.3055556 C38.9364706,31.3055556 38.5807059,31.5388889 38.3830588,31.85 L38.3830588,31.3833333 L37.632,31.3833333 L37.632,35.1166667 L38.3830588,35.1166667 L38.3830588,33.0166667 C38.3830588,32.3944444 38.6992941,32.0055556 39.2131765,32.0055556 C39.3712941,32.0055556 39.5689412,32.0444444 39.7270588,32.0833333 L39.9642353,31.3833333 C39.8061176,31.3444444 39.5689412,31.3055556 39.4108235,31.3055556 L39.4108235,31.3055556 Z M36.4856471,33.25 L36.4856471,31.3833333 L35.7345882,31.3833333 L35.7345882,31.85 C35.4578824,31.5 35.0625882,31.3055556 34.5091765,31.3055556 C33.4418824,31.3055556 32.6512941,32.1222222 32.6512941,33.25 C32.6512941,34.3777778 33.4418824,35.1944444 34.5091765,35.1944444 C35.0625882,35.1944444 35.4578824,35 35.7345882,34.65 L35.7345882,35.1166667 L36.4856471,35.1166667 L36.4856471,33.25 Z M33.4418824,33.25 C33.4418824,32.55 33.8767059,32.0055556 34.6277647,32.0055556 C35.3392941,32.0055556 35.7741176,32.55 35.7741176,33.25 C35.7741176,33.9888889 35.2997647,34.4944444 34.6277647,34.4944444 C33.8767059,34.5333333 33.4418824,33.95 33.4418824,33.25 L33.4418824,33.25 Z M44.1148235,33.25 L44.1148235,29.9055556 L43.3637647,29.9055556 L43.3637647,31.85 C43.0870588,31.5 42.6917647,31.3055556 42.1383529,31.3055556 C41.0710588,31.3055556 40.2804706,32.1222222 40.2804706,33.25 C40.2804706,34.3777778 41.0710588,35.1944444 42.1383529,35.1944444 C42.6917647,35.1944444 43.0870588,35 43.3637647,34.65 L43.3637647,35.1166667 L44.1148235,35.1166667 L44.1148235,33.25 Z M41.0710588,33.25 C41.0710588,32.55 41.5058824,32.0055556 42.2569412,32.0055556 C42.9684706,32.0055556 43.4032941,32.55 43.4032941,33.25 C43.4032941,33.9888889 42.9289412,34.4944444 42.2569412,34.4944444 C41.5058824,34.5333333 41.0710588,33.95 41.0710588,33.25 Z"/>
    <rect width="13.717" height="22.011" x="16.484" y="3.072" fill="#FF5F00"/>
    <path fill="#EB001B" d="M17.8672941,14.0777778 C17.8672941,9.60555556 20.0018824,5.63888889 23.2828235,3.07222222 C20.8715294,1.20555556 17.8277647,0.0777777778 14.5072941,0.0777777778 C6.64094118,0.0777777778 0.276705882,6.33888889 0.276705882,14.0777778 C0.276705882,21.8166667 6.64094118,28.0777778 14.5072941,28.0777778 C17.8277647,28.0777778 20.8715294,26.95 23.2828235,25.0833333 C20.0018824,22.5166667 17.8672941,18.55 17.8672941,14.0777778 Z"/>
    <path fill="#F79E1B" d="M46.3284706,14.0777778 C46.3284706,21.8166667 39.9642353,28.0777778 32.0978824,28.0777778 C28.7774118,28.0777778 25.7336471,26.95 23.3223529,25.0833333 C26.6428235,22.5166667 28.7378824,18.55 28.7378824,14.0777778 C28.7378824,9.60555556 26.6032941,5.63888889 23.3223529,3.07222222 C25.7336471,1.20555556 28.7774118,0.0777777778 32.0978824,0.0777777778 C39.9642353,0.0777777778 46.3284706,6.33888889 46.3284706,14.0777778 Z"/>
  </g>
</svg>
