<svg xmlns="http://www.w3.org/2000/svg" width="76" height="14" viewBox="0 0 76 14">
  <g fill="#8DC640" fill-rule="evenodd">
    <path d="M66.6635478 5.67353399C66.2587946 5.95565394 65.6713624 6.09512541 64.8675747 6.09512541L64.5187372 6.09512541 64.0704587 6.09512541 64.6817186 2.79387714 64.9914787 2.79387714 65.26788 2.79387714C65.9350556 2.79387714 66.4224115 2.90126063 66.7582232 3.11920465 67.0206456 3.29012868 67.3316765 3.62848201 67.3316765 4.27055907 67.3316765 5.04416503 66.9698132 5.46035551 66.6635478 5.67353399L66.6635478 5.67353399zM19.1123562 9.81669429L12.9435238 9.81669429 13.3422406 7.65885787 17.2115413 7.65885787 17.6512417 5.22843257 13.8191123 5.22843257 14.1895536 3.09283533 20.3475842 3.09283533 19.1123562 9.81669429 19.1123562 9.81669429zM69.9867176 1.24062886C69.0796765.618884769 67.707201.305629953 65.9077332.305629953L61.194932.305629953 59.4431196 9.817012 53.2695216 9.817012 53.6653791 7.65917557 57.3847241 7.65917557 57.8269662 5.23542203 54.1098451 5.24209378 54.5079266 3.09347074 58.3381498 3.09347074 58.8477448.305947655 51.0672068.305947655 49.4043511 9.32902072 46.5513813 9.32902072 48.2263097.305947655 44.1587626.305947655 42.4959069 9.32902072 39.7141025 9.32902072 41.3906194.305947655 37.3272025.305947655 35.5709422 9.8173297 29.3535013 9.8173297 29.7452286 7.65949328 33.4814119 7.65949328 33.92143 5.24971865 30.1909655 5.24622392 30.5871407 3.09347074 34.459936 3.09347074 34.9669895.305947655 10.7272301.305947655 9.34744747 7.84344311 6.59868411.305629953 2.37991058.305629953.109289713 12.6061236 4.13807706 12.6061236 5.51214104 4.86148601 8.17989022 12.6061236 22.6201112 12.6061236 24.3754184 3.09315304 26.6349197 3.09315304 24.8786594 12.6061236 62.8752614 12.6061236 63.9757834 6.60059033 65.7596838 12.6061236 69.790695 12.6061236 67.9438895 7.69920611 68.3654809 7.60802545C69.2944435 7.40914358 70.0216648 6.9805627 70.5261767 6.33848564 71.0316416 5.69037223 71.2883453 4.85830898 71.2883453 3.85881643 71.288663 2.69475391 70.8635769 1.83886296 69.9867176 1.24062886L69.9867176 1.24062886zM73.3086165 11.1513631L73.8576067 11.1227699C73.9738859 11.117369 74.0657019 11.0998953 74.1298779 11.0722552 74.1940538 11.0452505 74.2426623 11.0039491 74.2737972 10.9483511 74.304932 10.8930709 74.319864 10.8349313 74.3157339 10.7726616 74.3109684 10.6805278 74.2737972 10.6071385 74.2048557 10.5509051 74.1355965 10.4953072 74.0288484 10.4724326 73.8855645 10.4791043L73.2746223 10.5102392 73.3086165 11.1513631 73.3086165 11.1513631zM73.1056045 12.2436249L73.006799 10.3088157 73.8652316 10.2656081C74.036791 10.2567125 74.1680022 10.2675144 74.2598182 10.2980138 74.351952 10.3278779 74.4259767 10.3856997 74.484434 10.4711618 74.5425736 10.5563061 74.5749793 10.6509815 74.5791094 10.7577296 74.587052 10.8949771 74.5479746 11.0125271 74.4641011 11.1116503 74.3802276 11.2098204 74.2464747 11.2768557 74.0625249 11.311803 74.1314664 11.341667 74.1851581 11.3702603 74.2213762 11.3998066 74.2998488 11.464618 74.3748266 11.5472206 74.4466274 11.6469793L74.8075376 12.1565743 74.4885642 12.1727772 74.2121628 11.7832737C74.1314664 11.6704893 74.0653842 11.5847096 74.0139164 11.5256169 73.9627663 11.4665242 73.9166994 11.4261759 73.8773043 11.4033013 73.8388622 11.3804268 73.7975609 11.3654947 73.7584835 11.3572345 73.7286194 11.3527866 73.6812817 11.3521512 73.6151996 11.3556459L73.3197361 11.370578 73.3623083 12.2305991 73.1056045 12.2436249 73.1056045 12.2436249z"/>
    <path d="M72.2675049,11.3073551 C72.2478073,10.9070498 72.3837841,10.523265 72.6522428,10.2265307 C72.9207016,9.92916103 73.289872,9.75347146 73.6908128,9.7331385 C74.5162043,9.69024864 75.2224573,10.3278779 75.2650294,11.1542225 C75.2663003,11.1796387 75.2678888,11.2066434 75.2678888,11.2311065 C75.2678888,12.0240923 74.6432854,12.6884086 73.8429924,12.7303453 C73.0163301,12.7722821 72.3107125,12.1340174 72.2675049,11.3073551 M73.6736569,9.42464922 C73.1923373,9.45038313 72.7475536,9.66070229 72.42445,10.0193886 C72.1010287,10.3777572 71.9358233,10.8416031 71.9606041,11.3241934 C72.0127074,12.3192381 72.8638328,13.0871254 73.8595129,13.0372461 C74.8539222,12.9857783 75.623398,12.1340174 75.5719302,11.1389727 L75.5719302,11.1380196 C75.5217332,10.1426572 74.6706078,9.3741345 73.6736569,9.42464922"/>
  </g>
</svg>
