<svg xmlns="http://www.w3.org/2000/svg" width="76" height="26" viewBox="0 0 76 26">
  <path fill="#862165" fill-rule="evenodd" d="M54.5906963,19.6757272 C56.3140927,19.6757272 57.7101774,21.068125 57.7101774,22.7857414 C57.7101774,24.5038021 56.3140927,25.8975328 54.5906963,25.8975328 C52.8704171,25.8975328 51.4743325,24.5038021 51.4743325,22.7857414 C51.4743325,21.068125 52.8704171,19.6757272 54.5906963,19.6757272 L54.5906963,19.6757272 Z M30.700058,17.9967638 C30.5588909,17.643555 29.5462285,14.7885619 27.0956212,11.8296055 L27.0956212,24.4815877 L20.5671997,23.1944861 L20.5671997,0.26035262 L27.0956212,0.26035262 L27.0956212,7.34940791 C28.986904,4.52062782 29.9202991,0.26035262 29.9202991,0.26035262 L37.7401546,0.26035262 C36.9666301,3.46855444 33.5830731,9.38424579 33.5830731,9.38424579 C36.6197243,13.2251134 37.9534638,17.3178921 38.1654371,17.9967638 L30.700058,17.9967638 L30.700058,17.9967638 Z M47.8627705,18.2357906 C42.0156917,18.0483011 39.0467295,15.431002 39.0467295,10.2279482 L39.0467295,0.26035262 L45.4268588,0.26035262 L45.4268588,8.38904123 C45.4268588,11.5039426 45.8356644,12.8399159 49.540744,12.9669822 L49.540744,18.1442673 C48.9172931,18.276665 47.8627705,18.2357906 47.8627705,18.2357906 L47.8627705,18.2357906 Z M9.61851134,15.4709879 C8.8187129,15.5229696 6.96750907,15.642483 6.96750907,17.305452 C6.96750907,19.3118555 9.63276164,19.3118555 10.6325097,19.3118555 C12.3901959,19.3118555 14.6666823,18.7942603 16.2925532,18.3086538 C16.2925532,18.3086538 17.1996742,17.9896552 17.9714174,17.6631037 L18.0431142,17.643555 L18.0431142,17.7164182 L18.0431142,23.1389501 L17.944698,23.1678288 C16.0258052,23.8373705 13.7947417,24.4815877 9.65859032,24.4815877 C2.52675741,24.4815877 0,20.3368273 0,16.7860796 C0,14.739246 0.879065761,9.92138967 9.04716312,9.3655857 C9.73919362,9.32337837 11.5765925,9.21763788 11.5765925,7.49957717 C11.5765925,6.0805221 10.0722945,5.24437256 7.54241986,5.24437256 C4.76984466,5.24437256 2.07920873,5.94945722 0.44576739,6.61855456 L0.44576739,0.959217245 C2.89192151,0.319887178 5.6484651,-2.0250468e-13 8.88016735,-2.0250468e-13 C15.8534656,-2.0250468e-13 18.9765093,3.92172794 18.9765093,7.80835715 C18.9765093,12.2152473 15.4816217,15.0791261 9.61851134,15.4709879 L9.61851134,15.4709879 Z M51.4284643,0.26035262 L57.7560455,0.26035262 L57.7560455,17.9763265 L51.4284643,17.9763265 L51.4284643,0.26035262 L51.4284643,0.26035262 Z M69.6710828,23.3526525 L69.6710828,0.26035262 L76,0.26035262 L76,24.4815877 L69.6710828,23.3526525 L69.6710828,23.3526525 Z M60.4368844,23.3526525 L66.7591218,24.4815877 L66.7591218,0.26035262 L60.4368844,0.26035262 L60.4368844,23.3526525 L60.4368844,23.3526525 Z" transform="matrix(1 0 0 -1 0 25.898)"/>
</svg>
