<svg xmlns="http://www.w3.org/2000/svg" width="65" height="42" viewBox="0 0 65 42">
  <g fill="none" fill-rule="evenodd" transform="translate(.333)">
    <path fill="#01798A" d="M61.5175481,0.105550421 L45.6018699,0.101405021 L45.5977681,0.101405021 C45.585466,0.101405021 45.5734343,0.103617758 45.5614058,0.103617758 C43.3749558,0.1713138 40.6518003,1.94360372 40.1558364,4.12898441 L32.6291652,37.7869296 C32.133201,39.9927168 33.4824732,41.7875821 35.6530669,41.8206105 L52.3731154,41.8206105 C54.5106241,41.7137541 56.5877109,39.9618472 57.0752011,37.8012985 L64.6021492,4.14307674 C65.1060398,1.91486555 63.7242304,0.105550421 61.5175481,0.105550421"/>
    <path fill="#024381" d="M32.6291652,37.7869296 L40.1558397,4.12898441 C40.6518038,1.94360349 43.3749558,0.171313579 45.5614058,0.103617758 L39.2333583,0.0994723579 L27.8322057,0.0972596211 C25.639658,0.142575853 22.8810183,1.92730197 22.3852444,4.12898441 L14.8563555,37.7869296 C14.3585608,39.9927168 15.709802,41.7875821 17.8790273,41.8206105 L35.6530667,41.8206105 C33.482473,41.7875821 32.1332008,39.9927168 32.629165,37.7869296"/>
    <path fill="#DD0228" d="M14.8563557,37.7869296 L22.3852429,4.12898795 C22.881015,1.92730197 25.6396565,0.142579389 27.8322042,0.0972631579 L13.2265924,0.0933942947 C11.021796,0.0933942947 8.19499345,1.89856756 7.69112864,4.12898795 L0.162229682,37.7869296 C0.116412476,37.9923417 0.0909937604,38.1936386 0.075828316,38.390625 L0.075828316,39.0150441 C0.223212551,40.6229544 1.43828104,41.7938426 3.18488551,41.8206107 L17.8790275,41.8206107 C15.7098022,41.7875823 14.358561,39.992717 14.8563557,37.7869298"/>
    <path fill="#FFFFFF" d="M28.140063 24.6226377L28.416479 24.6226377C28.6704769 24.6226377 28.8413575 24.5365099 28.9214643 24.365968L29.6397099 23.2796055 31.5631408 23.2796055 31.1620522 23.9941307 33.4682555 23.9941307 33.1757093 25.0889206 30.431501 25.0889206C30.1154421 25.5694612 29.7263816 25.7953776 29.2585795 25.7686029L27.8291969 25.7686029 28.1400626 24.6226377 28.140063 24.6226377zM27.8242758 26.1917248L32.8768717 26.1917248 32.5547951 27.3809603 30.5228218 27.3809603 30.2127769 28.5288599 32.1900685 28.5288599 31.867992 29.7179824 29.8907004 29.7179824 29.4313721 31.4142046C29.3176332 31.6977318 29.4671902 31.8252243 29.8775774 31.7962941L31.4890479 31.7962941 31.1904843 32.9013346 28.0965917 32.9013346C27.5101276 32.9013346 27.308954 32.5622947 27.4929044 31.8826428L28.0801845 29.7179824 26.8162708 29.7179824 27.1373359 28.5288599 28.40144 28.5288599 28.7112144 27.3809603 27.5030205 27.3809603 27.824276 26.1917248 27.8242758 26.1917248zM35.8887451 23.2715083L35.8091823 23.9676862C35.8091823 23.9676862 36.7622852 23.2445125 37.6278986 23.2445125L40.8265091 23.2445125 39.6032779 27.7195566C39.501841 28.2311557 39.0668499 28.4855605 38.298568 28.4855605L34.6731668 28.4855605 33.8239605 31.6279039C33.7750192 31.7962905 33.8441925 31.8826392 34.0271013 31.8826392L34.7404243 31.8826392 34.478226 32.8580353 32.6647059 32.8580353C31.968608 32.8580353 31.6790656 32.6464877 31.7938993 32.221541L34.1936063 23.2715083 35.8887414 23.2715083 35.8887447 23.2715083 35.8887451 23.2715083zM38.5974055 24.5365099L35.7424687 24.5365099 35.4009812 25.7440103C35.4009812 25.7440103 35.8764397 25.3970961 36.6709675 25.3846884 37.4633061 25.3721443 38.3677414 25.3846884 38.3677414 25.3846884L38.5974055 24.5365099 38.5974055 24.5365099zM37.5631007 27.3376612C37.7741715 27.3665914 37.8922829 27.2821772 37.9065006 27.0829528L38.0812093 26.4464331 35.2219002 26.4464331 34.9821201 27.3376612 37.5631007 27.3376612 37.5631007 27.3376612zM35.6344733 28.783484L37.282583 28.783484 37.2519614 29.5042526 37.6907807 29.5042526C37.9125149 29.5042526 38.0224259 29.4324956 38.0224259 29.2908838L38.1522952 28.8246009 39.5220731 28.8246009 39.339164 29.5042526C39.1844137 30.0711419 38.7743004 30.3668827 38.1077293 30.3958129L37.2298138 30.3958129 37.225712 31.6279041C37.2095817 31.825221 37.3862028 31.9258004 37.7498379 31.9258004L38.5749875 31.9258004 38.3086842 32.9013349 36.32948 32.9013349C35.7747323 32.9279985 35.5026918 32.6608572 35.5084323 32.0941873L35.6344733 28.7834842 35.6344733 28.783484zM15.6631305 17.3094708C15.4395907 18.4164474 14.9214003 19.2666717 14.1176042 19.870448 13.3211097 20.4640024 12.2937755 20.7616779 11.0360128 20.7616779 9.8523437 20.7616779 8.98457165 20.4577305 8.43080862 19.8477901 8.04675115 19.4144175 7.85569367 18.8640509 7.85569367 18.1986281 7.85569367 17.9234996 7.88828357 17.6277588 7.95332755 17.3094711L9.29344167 10.7788011 11.3174326 10.7788011 9.99555549 17.2355281C9.95487203 17.4142496 9.93863176 17.5805923 9.94076435 17.7305202 9.93863176 18.0612423 10.0198884 18.3322542 10.184481 18.5436903 10.4242604 18.8579996 10.8134309 19.0139803 11.3549988 19.0139803 11.97777 19.0139803 12.4909307 18.8600721 12.8892058 18.5498526 13.2875628 18.2418156 13.5476291 17.8044627 13.6644563 17.2355278L14.9904903 10.7788009 17.0042275 10.7788009 15.6631305 17.3094708M24.1632484 14.7402583L25.748391 14.7402583 24.5067318 20.5686985 22.9247066 20.5686985 24.1632484 14.7402583M24.6622197 12.6168539L26.2614699 12.6168539 25.9627442 14.0315919 24.3636025 14.0315919 24.6622197 12.6168539M27.1515256 20.1250737C26.7369284 19.7246366 26.5276063 19.1845224 26.5255837 18.4985967 26.5255837 18.381466 26.5326375 18.2480607 26.5480035 18.1021382 26.563286 17.9542542 26.5826168 17.8104871 26.6099577 17.6770818 26.7979263 16.730368 27.1983059 15.9787061 27.8149794 15.4241401 28.4306967 14.8676127 29.17355 14.5882849 30.0432619 14.5882849 30.7554934 14.5882849 31.3203537 14.7895818 31.7340216 15.1920915 32.1474156 15.5967279 32.3546618 16.1428934 32.3546618 16.837248 32.3546618 16.956173 32.3456371 17.0938066 32.3303279 17.2416634 32.3120085 17.3915914 32.2898639 17.5353585 32.2641619 17.6770816 32.080432 18.6094265 31.6812557 19.3529088 31.0644435 19.8972243 30.4476347 20.4455452 29.7069676 20.7184897 28.8432698 20.7184897 28.1280346 20.7184897 27.5650833 20.5214208 27.1515256 20.1250735M30.17231 18.970902C30.4517365 18.6649105 30.6518703 18.2006717 30.7738096 17.582636 30.7921291 17.4861463 30.8082593 17.3854575 30.8183755 17.2848511 30.8284914 17.1862061 30.8325932 17.0938064 30.8325932 17.0096129 30.8325932 16.6501816 30.7420966 16.3709631 30.560279 16.1737577 30.3795561 15.9745064 30.1225511 15.8760555 29.7903587 15.8760555 29.3512657 15.8760555 28.9936447 16.031925 28.7134006 16.3441884 28.4306967 16.6564535 28.2305629 17.1287605 28.1045186 17.7571851 28.0872936 17.8536748 28.0730792 17.9502739 28.0599527 18.0447195 28.0498368 18.1412092 28.0468295 18.2315649 28.0487453 18.3136855 28.0487453 18.671073 28.1392419 18.946311 28.3210595 19.1413342 28.5017823 19.3364958 28.7576926 19.4329853 29.0942607 19.4329853 29.5352695 19.4329853 29.892887 19.278966 30.17231 18.9709017"/>
    <path fill="#E02F41" d="M45.5977681,0.105398572 L39.233355,0.0994758947 L45.5614058,0.112169379 C45.5734343,0.112169379 45.585466,0.10539925 45.5977681,0.10539925"/>
    <path fill="#2E4F7D" d="M39.233355,0.112020617 L27.9196955,0.0933942947 C27.8912616,0.0933942947 27.861733,0.0993169722 27.8322042,0.105250488 L39.233355,0.112021295"/>
    <path fill="#FFFFFF" d="M42.6392116 24.6719879L43.0214368 23.3125138 44.9538923 23.3125138 44.8705013 23.8114017C44.8705013 23.8114017 45.858054 23.3125138 46.569191 23.3125138L48.9587854 23.3125138 48.57902 24.6719879 48.2030827 24.6719879 46.4004964 31.0837015 46.7764336 31.0837015 46.4188159 32.3570208 46.0428786 32.3570208 45.8864896 32.9094298 44.0150038 32.9094298 44.1711225 32.3570208 40.4790077 32.3570208 40.8388147 31.0837015 41.2087378 31.0837015 43.0129628 24.6719879 42.6392118 24.6719879 42.6392116 24.6719879zM44.7242282 24.6719879L44.2323658 26.4072507C44.2323658 26.4072507 45.0739193 26.0808662 45.7992704 25.9884662 45.9594909 25.3825059 46.1689197 24.6719877 46.1689197 24.6719877L44.724228 24.6719877 44.7242282 24.6719879zM44.0046175 27.2206689L43.5111132 29.0381923C43.5111132 29.0381923 44.4437105 28.5740647 45.0837616 28.5349921 45.2685862 27.8325439 45.4536847 27.2206691 45.4536847 27.2206691L44.0046175 27.2206691 44.0046175 27.2206689zM44.3663371 31.0837015L44.7362567 29.7652616 43.2937544 29.7652616 42.9219157 31.0837015 44.3663371 31.0837015 44.3663371 31.0837015zM49.0402608 23.2283476L50.8570616 23.2283476 50.9341648 23.9058474C50.9221331 24.0783239 51.02357 24.1606923 51.2390164 24.1606923L51.5599982 24.1606923 51.2351882 25.3085919 49.8998601 25.3085919C49.3899518 25.3352555 49.1277503 25.1382708 49.1034198 24.7129934L49.0402608 23.2283476 49.0402608 23.2283476zM48.5079345 25.6906816L54.3927873 25.6906816 54.0474717 26.9229667 52.1737997 26.9229667 51.8525442 28.0687092 53.7243037 28.0687092 53.3767988 29.2989789 51.292056 29.2989789 50.8204256 30.0199971 51.8407896 30.0199971 52.0764678 31.4636357C52.1046263 31.6074028 52.2306709 31.6772274 52.4461171 31.6772274L52.7629971 31.6772274 52.4299836 32.8661307 51.3081895 32.8661307C50.726922 32.8950609 50.4264458 32.6978822 50.4018384 32.2728276L50.1314365 30.9543844 49.202941 32.3570211C48.9833928 32.7533412 48.6460038 32.9382522 48.1910545 32.90943L46.4778735 32.90943 46.8111574 31.7201961 47.3456731 31.7201961C47.5652213 31.7201961 47.7478565 31.6216338 47.9124493 31.4224921L49.3656182 29.2989789 47.4919462 29.2989789 47.8391775 28.0687092 49.8714247 28.0687092 50.1945925 26.9229667 48.1604329 26.9229667 48.5079345 25.6906816 48.5079345 25.6906816zM17.5275326 14.7382143L18.9570503 14.7382143 18.7935523 15.5802033 18.9987192 15.3399465C19.4621192 14.8389033 20.0249588 14.5903303 20.6894789 14.5903303 21.2909784 14.5903303 21.7247966 14.7670347 21.9971389 15.1222382 22.2652979 15.4775798 22.3384628 15.9684553 22.2116007 16.5989254L21.4240466 20.5707441 19.9548843 20.5707441 20.6660744 16.9706533C20.7393495 16.5989257 20.7190624 16.3216417 20.6060627 16.1428932 20.4944563 15.9642559 20.2809507 15.8760555 19.9731471 15.8760555 19.5951873 15.8760555 19.277131 15.9950092 19.0180483 16.2312875 18.7578726 16.4694985 18.5862545 16.8002208 18.5018805 17.2211605L17.8465452 20.5707441 16.3743208 20.5707441 17.5275326 14.7382143M33.921296 14.7382143L35.3520437 14.7382143 35.1896403 15.5802033 35.3925108 15.3399465C35.8562112 14.8389033 36.4210749 14.5903303 37.0835442 14.5903303 37.6850437 14.5903303 38.1197645 14.7670347 38.3898892 15.1222382 38.6564629 15.4775798 38.7335662 15.9684553 38.6034231 16.5989254L37.8190112 20.5707441 36.3477997 20.5707441 37.0592101 16.9706533C37.1322081 16.5989257 37.1119761 16.3216417 37.0001529 16.1428932 36.8842278 15.9642559 36.6747957 15.8760555 36.3683054 15.8760555 35.990182 15.8760555 35.6732989 15.9950092 35.4111007 16.2312875 35.150815 16.4694985 34.9782955 16.8002208 34.8970906 17.2211605L34.2387231 20.5707441 32.7683292 20.5707441 33.9212956 14.7382143M40.9932881 11.1236423L45.146917 11.1236423C45.9455433 11.1236423 46.5631731 11.3065631 46.987778 11.6657737 47.4104671 12.0294061 47.6220853 12.5510906 47.6220853 13.2308276L47.6220853 13.2512748C47.6220853 13.3805912 47.6136114 13.5264842 47.6015797 13.6845395 47.581074 13.8406561 47.5545542 13.9987088 47.5203781 14.1631169 47.3374691 15.0626627 46.9125906 15.7856153 46.2564092 16.3339364 45.5977681 16.8801862 44.8177319 17.1554243 43.9195843 17.1554243L41.6921194 17.1554243 41.003404 20.5707425 39.0747765 20.5707425 40.9932878 11.1236425M42.0314205 15.5125329L43.8788464 15.5125329C44.360319 15.5125329 44.7422706 15.3994094 45.0208725 15.175677 45.2972917 14.9497605 45.4802007 14.6048077 45.5816343 14.1365919 45.5977679 14.0501048 45.6078838 13.9721835 45.6201859 13.9003406 45.6264738 13.8326436 45.6344036 13.7646702 45.6344036 13.6991818 45.6344036 13.3642873 45.5168364 13.1219603 45.2808843 12.9699866 45.0452061 12.8158002 44.6755599 12.7420261 44.1631886 12.7420261L42.5943681 12.7420261 42.0314201 15.5125329M56.2541533 21.6983331C55.6444502 23.0084838 55.0634563 23.7723325 54.7222424 24.1276472 54.3804813 24.4789818 53.7040679 25.2963801 52.0742779 25.2346509L52.2145369 24.2346083C53.5859568 23.8074235 54.3277153 21.8829121 54.7504044 21.0307551L54.2465103 14.7546274 55.3073381 14.7402601 56.1972821 14.7402601 56.2929752 18.677234 57.9610431 14.7402601 59.6498902 14.7402601 56.2541531 21.6983331M51.5318358 15.2146382L50.8608893 15.6809211C50.1598684 15.1264665 49.5198173 14.7834478 48.2845577 15.3625221 46.6017247 16.1510998 45.1955845 22.1993765 49.8287707 20.207223L50.0928846 20.5234667 51.9156995 20.5707443 53.1126845 15.074961 51.5318358 15.2146384M50.4953418 18.2192403C50.202522 19.0921226 49.5485266 19.6691529 49.0364324 19.5048829 48.524338 19.3447026 48.3414259 18.5025754 48.6380737 17.6277585 48.9306231 16.7528338 49.5889907 16.1778478 50.0969831 16.3421447 50.6090808 16.502325 50.7939054 17.344314 50.4953418 18.2192403"/>
  </g>
</svg>
