<svg xmlns="http://www.w3.org/2000/svg" width="67" height="43" viewBox="0 0 67 43">
  <g fill="none" fill-rule="evenodd" transform="translate(.85 .389)">
    <polygon fill="#FFFFFF" points="0 41.975 65.55 41.975 65.55 .24 0 .24"/>
    <polygon fill="#F1AD2B" points="1.092 40.905 64.457 40.905 64.457 35.209 1.092 35.209"/>
    <polygon fill="#172E66" points="1.092 7.032 64.457 7.032 64.457 1.336 1.092 1.336"/>
    <path fill="#172E66" d="M32.2278532,13.3078208 L28.8878365,28.9654232 L24.8480126,28.9654232 L28.1883327,13.3078208 L32.2278532,13.3078208 L32.2278532,13.3078208 Z M49.2235187,23.4183931 L51.3502529,17.5381578 L52.5735499,23.4183931 L49.2235187,23.4183931 L49.2235187,23.4183931 Z M53.7331178,28.9654232 L57.4682555,28.9654232 L54.2047138,13.3078208 L50.7590888,13.3078208 C49.9821995,13.3078208 49.3279132,13.7593976 49.0380971,14.4556291 L42.9762369,28.9654232 L47.2190838,28.9654232 L48.0612196,26.627205 L53.2433134,26.627205 L53.7331178,28.9654232 L53.7331178,28.9654232 Z M43.1868467,23.8538421 C43.2044481,19.7217931 37.4900637,19.4926574 37.5279978,17.6461832 C37.5404401,17.0850595 38.0739445,16.4877245 39.2410992,16.3349674 C39.8195175,16.2601104 41.415782,16.1995553 43.2253877,17.0354591 L43.9330852,13.713753 C42.9607598,13.3613771 41.7101502,13.0217817 40.1542475,13.0217817 C36.1605514,13.0217817 33.3510043,15.1488177 33.3285474,18.1972651 C33.3030557,20.4514973 35.3357135,21.7085482 36.8636968,22.4592489 C38.4390218,23.2263817 38.9670637,23.7187342 38.9594768,24.4043154 C38.9485518,25.4547486 37.7027978,25.9200187 36.5435335,25.9373637 C34.5111791,25.9693149 33.3334029,25.3868904 32.3944595,24.9477898 L31.6612703,28.3805643 C32.6065867,28.8141875 34.3488214,29.1921244 36.1523576,29.2112951 C40.3979358,29.2112951 43.1744043,27.1092114 43.1868467,23.8538421 L43.1868467,23.8538421 Z M26.4555056,13.3078208 L19.9099105,28.9654232 L15.6400545,28.9654232 L12.4186955,16.4694667 C12.2235628,15.7014211 12.0533148,15.4187292 11.4594194,15.0943486 C10.4880044,14.5648718 8.88415305,14.0700848 7.47422051,13.7624406 L7.56951083,13.3078208 L14.4437665,13.3078208 C15.3195877,13.3078208 16.1070985,13.8920711 16.3073902,14.9035543 L18.0089597,23.9646062 L22.2114448,13.3078208 L26.4555056,13.3078208 L26.4555056,13.3078208 Z"/>
  </g>
</svg>
