<svg xmlns="http://www.w3.org/2000/svg" width="76" height="25" viewBox="0 0 76 25">
  <g fill="none" fill-rule="evenodd" transform="translate(.643 .477)">
    <rect width="74.81" height="23.91" fill="#000000"/>
    <rect width="35.776" height="22.719" x="38.427" y=".584" fill="#FFFFFF"/>
    <rect width="34.585" height="3.101" x="39.012" y="19.618" fill="#F7B600"/>
    <rect width="34.585" height="3.101" x="39.012" y="1.191" fill="#1A1F71"/>
    <path fill="#1A1F71" d="M52.8545739,7.70795869 L49.2814968,16.224916 L46.9443898,16.224916 L45.1915596,9.41584458 C45.0791987,8.98887311 44.9893099,8.85404001 44.6746994,8.67426255 C43.9823601,8.34103972 43.2496098,8.09930769 42.4948976,7.9551527 L42.539842,7.70795869 L46.2926965,7.70795869 C46.7999706,7.71024826 47.2295786,8.08257518 47.3039447,8.58437382 L48.2253042,13.5057818 L50.5174669,7.70795869 L52.8545739,7.70795869 Z M62.0007523,13.4383653 C62.0007523,11.191147 58.8995911,11.0563139 58.9220632,10.0675379 C58.9220632,9.75292733 59.2142016,9.43831677 59.8658949,9.34842804 C60.6135821,9.27861403 61.3663132,9.41053598 62.0456966,9.73045514 L62.4277238,7.93268052 C61.7679223,7.67932346 61.0670552,7.54981541 60.3602829,7.55065341 C58.1804812,7.55065341 56.6523728,8.71920692 56.6299006,10.3596763 C56.6074284,11.5956463 57.7310376,12.2698118 58.5625083,12.6743111 C59.3939791,13.0788104 59.7085896,13.3709488 59.7085896,13.7305037 C59.7085896,14.2923082 59.011952,14.5619744 58.3827309,14.5619744 C57.5920148,14.583833 56.8094004,14.3978652 56.1130404,14.0226421 L55.7085411,15.8878332 C56.4866957,16.2001635 57.319661,16.3530012 58.158009,16.3372769 C60.4726439,16.3597491 61.9782801,15.2136677 62.0007523,13.4383653 L62.0007523,13.4383653 Z M67.7536311,16.224916 L69.7985997,16.224916 L68.0232973,7.70795869 L66.1356339,7.70795869 C65.7213697,7.70299577 65.3465535,7.95287326 65.1918022,8.33717981 L61.8659192,16.224916 L64.180554,16.224916 L64.6299977,14.9440015 L67.4614927,14.9440015 L67.7536311,16.224916 Z M65.281691,13.2136435 L66.4502445,10.0225935 L67.12441,13.2136435 L65.281691,13.2136435 Z M56.0006795,7.70795869 L54.1804327,16.224916 L51.9781588,16.224916 L53.7984056,7.70795869 L56.0006795,7.70795869 Z"/>
    <path fill="#FFFFFF" d="M10.5394537,21.9103782 L10.5394537,20.5620472 C10.5602871,20.3337943 10.4802295,20.1078501 10.3203345,19.9436337 C10.1604396,19.7794173 9.9367102,19.693364 9.70798296,19.7081043 C9.40464738,19.6960417 9.11628005,19.8402254 8.94392875,20.0901314 C8.79392807,19.8389609 8.51691638,19.6917984 8.2248189,19.7081043 C7.96854881,19.6969301 7.72377244,19.815098 7.5731256,20.0227149 L7.5731256,19.7530487 L7.14615412,19.7530487 L7.14615412,21.9103782 L7.5731256,21.9103782 L7.5731256,20.6744082 C7.55514786,20.5246145 7.60530486,20.3746552 7.70978616,20.2658205 C7.81426746,20.1569858 7.96205559,20.1007523 8.11245798,20.1126036 C8.42706854,20.1126036 8.606846,20.3148532 8.606846,20.6744082 L8.606846,21.9103782 L9.03381748,21.9103782 L9.03381748,20.6744082 C9.01583974,20.5246145 9.06599674,20.3746552 9.17047804,20.2658205 C9.27495934,20.1569858 9.42274747,20.1007523 9.57314986,20.1126036 C9.88776042,20.1126036 10.0675379,20.3148532 10.0675379,20.6744082 L10.0675379,21.9103782 L10.5394537,21.9103782 Z M17.5507747,19.7755208 L16.7642484,19.7755208 L16.7642484,19.1238275 L16.3372769,19.1238275 L16.3372769,19.7755208 L15.8878332,19.7755208 L15.8878332,20.157548 L16.3372769,20.157548 L16.3372769,21.1687962 C16.3372769,21.6631842 16.5170543,21.9553226 17.0563867,21.9553226 C17.2610535,21.9512769 17.4616308,21.8972754 17.6406635,21.7980173 L17.5058304,21.4159902 C17.3846868,21.4917422 17.2441887,21.5307695 17.1013311,21.5283511 C17.0056561,21.5362403 16.9116146,21.5000151 16.8459565,21.4299798 C16.7802984,21.3599445 16.7502094,21.2637638 16.7642484,21.1687962 L16.7642484,20.1350758 L17.5507747,20.1350758 L17.5507747,19.7755208 Z M21.5508233,19.7081043 C21.3143614,19.7032257 21.092636,19.8226163 20.9665465,20.0227149 L20.9665465,19.7530487 L20.5395751,19.7530487 L20.5395751,21.9103782 L20.9665465,21.9103782 L20.9665465,20.6968803 C20.9665465,20.3373254 21.146324,20.1126036 21.4384624,20.1126036 C21.5372217,20.1165554 21.6352205,20.1316321 21.7306007,20.157548 L21.8654338,19.7530487 C21.7624267,19.7270924 21.6569779,19.7120283 21.5508233,19.7081043 Z M15.5058061,19.9328261 C15.2427199,19.7719466 14.9374302,19.6936672 14.629391,19.7081043 C14.0900586,19.7081043 13.7529759,19.9552983 13.7529759,20.3822698 C13.7529759,20.7418247 14.0001699,20.9440743 14.4720857,21.0114909 L14.6968075,21.0339631 C14.9440015,21.0789074 15.1013068,21.1687962 15.1013068,21.2811571 C15.1013068,21.4384624 14.9215294,21.5508233 14.5844466,21.5508233 C14.326672,21.5561918 14.0741872,21.4772903 13.8653368,21.3261015 L13.6406149,21.6631842 C13.9136207,21.8436982 14.234722,21.9376791 14.5619744,21.9328504 C15.1911956,21.9328504 15.5282783,21.640712 15.5282783,21.2362127 C15.5282783,20.8317134 15.2586121,20.6744082 14.7866963,20.6069916 L14.5619744,20.5845194 C14.3597248,20.5620472 14.1799473,20.4946307 14.1799473,20.3597976 C14.1799473,20.2249645 14.3597248,20.0901314 14.6069188,20.0901314 C14.8420299,20.100386 15.0720852,20.1617341 15.2810843,20.2699089 L15.5058061,19.9328261 Z M22.0452113,20.8317134 C22.0266144,21.1350329 22.1390093,21.4317605 22.3538914,21.6466425 C22.5687734,21.8615245 22.865501,21.9739195 23.1688204,21.9553226 C23.44526,21.9698571 23.7173358,21.8818326 23.9328747,21.7081286 L23.7081528,21.3710458 C23.5494007,21.5005079 23.3511912,21.5718633 23.1463483,21.5732955 C22.7711906,21.5436135 22.4818862,21.2305157 22.4818862,20.8541856 C22.4818862,20.4778556 22.7711906,20.1647577 23.1463483,20.1350758 C23.3511912,20.1365079 23.5494007,20.2078633 23.7081528,20.3373254 L23.9328747,20.0002427 C23.7173358,19.8265386 23.44526,19.7385141 23.1688204,19.7530487 C22.8692332,19.7170932 22.5693144,19.8174072 22.3516451,20.0263698 C22.1339757,20.2353324 22.0215087,20.5309086 22.0452113,20.8317134 L22.0452113,20.8317134 Z M19.0114666,19.7081043 C18.3822455,19.7081043 17.955274,20.157548 17.955274,20.8317134 C17.9358114,21.1313039 18.0447646,21.4250206 18.2548986,21.639443 C18.4650326,21.8538654 18.7564885,21.9687295 19.056411,21.9553226 C19.373495,21.9619095 19.6831111,21.8587042 19.9328261,21.6631842 L19.7081043,21.3485736 C19.5275858,21.4884653 19.3071795,21.5671818 19.0788832,21.5732955 C18.7479392,21.5858978 18.4634863,21.3406798 18.4271899,21.0114909 L20.0227149,21.0114909 L20.0227149,20.8317134 C20.0227149,20.157548 19.6182156,19.7081043 19.0114666,19.7081043 L19.0114666,19.7081043 Z M19.0114666,20.1126036 C19.1585343,20.1058256 19.3019367,20.1597157 19.408142,20.2616728 C19.5143473,20.3636299 19.5740433,20.5047143 19.5732712,20.651936 L18.4047177,20.651936 C18.4251971,20.336361 18.695667,20.0959433 19.0114666,20.1126036 L19.0114666,20.1126036 Z M13.1911713,20.8317134 L13.1911713,19.7530487 L12.7641998,19.7530487 L12.7641998,20.0227149 C12.5972935,19.8103793 12.337217,19.6929254 12.0675622,19.7081043 C11.44701,19.7081043 10.943953,20.2111612 10.943953,20.8317134 C10.943953,21.4522656 11.44701,21.9553226 12.0675622,21.9553226 C12.337217,21.9705015 12.5972935,21.8530476 12.7641998,21.640712 L12.7641998,21.9103782 L13.1911713,21.9103782 L13.1911713,20.8317134 Z M11.438341,20.8317134 C11.4627616,20.4662332 11.7745386,20.187123 12.1404835,20.2031387 C12.5064284,20.2191544 12.7926292,20.5244354 12.7850269,20.8906516 C12.7774245,21.2568679 12.4788008,21.5500083 12.1125065,21.5508233 C11.9243426,21.5554069 11.7431562,21.4795181 11.6144249,21.3422048 C11.4856937,21.2048915 11.4216399,21.0191908 11.438341,20.8317134 L11.438341,20.8317134 Z M28.0452841,19.7081043 C27.8088222,19.7032257 27.5870969,19.8226163 27.4610074,20.0227149 L27.4610074,19.7530487 L27.0340359,19.7530487 L27.0340359,21.9103782 L27.4610074,21.9103782 L27.4610074,20.6968803 C27.4610074,20.3373254 27.6407848,20.1126036 27.9329232,20.1126036 C28.0316826,20.1165554 28.1296813,20.1316321 28.2250616,20.157548 L28.3598947,19.7530487 C28.2568875,19.7270924 28.1514387,19.7120283 28.0452841,19.7081043 L28.0452841,19.7081043 Z M31.5060003,21.5957676 C31.537677,21.592405 31.5695214,21.600366 31.595889,21.6182398 C31.6183612,21.6182398 31.6408334,21.640712 31.6633055,21.6631842 C31.6857777,21.6856564 31.7082499,21.7081286 31.7082499,21.7306007 C31.7082499,21.7530729 31.7307221,21.7755451 31.7307221,21.8204895 C31.7340848,21.8521662 31.7261237,21.8840106 31.7082499,21.9103782 C31.6857777,21.9328504 31.6857777,21.9553226 31.6633055,21.9777948 C31.6408334,22.0002669 31.6183612,22.0227391 31.595889,22.0227391 C31.5734168,22.0227391 31.5509446,22.0452113 31.5060003,22.0452113 C31.4743235,22.048574 31.4424791,22.0406129 31.4161115,22.0227391 C31.3936393,22.0002669 31.3711672,22.0002669 31.348695,21.9777948 C31.3262228,21.9553226 31.3037506,21.9328504 31.3037506,21.9103782 C31.3037506,21.887906 31.2812784,21.8654338 31.2812784,21.8204895 C31.2779157,21.7888127 31.2858768,21.7569684 31.3037506,21.7306007 C31.3262228,21.7081286 31.3262228,21.6856564 31.348695,21.6631842 C31.3711672,21.640712 31.3936393,21.6182398 31.4161115,21.6182398 C31.4385837,21.6182398 31.4835281,21.5957676 31.5060003,21.5957676 L31.5060003,21.5957676 Z M31.5060003,21.9777948 C31.5307028,21.9807682 31.5554388,21.9725228 31.5734168,21.9553226 C31.5973197,21.9532325 31.6162711,21.9342811 31.6183612,21.9103782 L31.6633055,21.8654338 C31.6633055,21.8429617 31.6857777,21.8204895 31.6857777,21.7980173 C31.6887511,21.7733147 31.6805058,21.7485788 31.6633055,21.7306007 C31.6612155,21.7066978 31.6422641,21.6877465 31.6183612,21.6856564 L31.5734168,21.640712 C31.5509446,21.640712 31.5284724,21.6182398 31.5060003,21.6182398 C31.4812977,21.6152664 31.4565617,21.6235117 31.4385837,21.640712 C31.4146808,21.6428021 31.3957294,21.6617535 31.3936393,21.6856564 L31.348695,21.7306007 C31.348695,21.7530729 31.3262228,21.7755451 31.3262228,21.7980173 C31.3232494,21.8227199 31.3314947,21.8474558 31.348695,21.8654338 C31.3507851,21.8893368 31.3697364,21.9082881 31.3936393,21.9103782 L31.4385837,21.9553226 C31.4565617,21.9725228 31.4812977,21.9807682 31.5060003,21.9777948 L31.5060003,21.9777948 Z M31.5284724,21.7306007 C31.553175,21.7276273 31.577911,21.7358727 31.595889,21.7530729 C31.6183612,21.7755451 31.6183612,21.7755451 31.6183612,21.7980173 C31.6183612,21.8204895 31.6183612,21.8204895 31.595889,21.8429617 C31.5837677,21.8551653 31.5679803,21.863059 31.5509446,21.8654338 L31.6183612,21.9328504 L31.5509446,21.9328504 L31.4835281,21.8654338 L31.4610559,21.8654338 L31.4610559,21.9328504 L31.4161115,21.9328504 L31.4161115,21.7306007 L31.5284724,21.7306007 Z M31.4835281,21.7530729 L31.4835281,21.7980173 L31.5509446,21.7980173 L31.5509446,21.7530729 L31.4835281,21.7530729 L31.4835281,21.7530729 Z M26.3823426,20.8317134 L26.3823426,19.7530487 L25.9553711,19.7530487 L25.9553711,20.0227149 C25.7884648,19.8103793 25.5283883,19.6929254 25.2587334,19.7081043 C24.6381812,19.7081043 24.1351243,20.2111612 24.1351243,20.8317134 C24.1351243,21.4522656 24.6381812,21.9553226 25.2587334,21.9553226 C25.5283883,21.9705015 25.7884648,21.8530476 25.9553711,21.640712 L25.9553711,21.9103782 L26.3823426,21.9103782 L26.3823426,20.8317134 Z M24.6519845,20.8317134 C24.6764051,20.4662332 24.9881821,20.187123 25.354127,20.2031387 C25.7200718,20.2191544 26.0062727,20.5244354 25.9986703,20.8906516 C25.9910679,21.2568679 25.6924443,21.5500083 25.32615,21.5508233 C24.8991785,21.5732955 24.6519845,21.2362127 24.6519845,20.8317134 Z M30.741946,20.8317134 L30.741946,18.8991057 L30.3149746,18.8991057 L30.3149746,20.0227149 C30.1480682,19.8103793 29.8879917,19.6929254 29.6183369,19.7081043 C28.9977847,19.7081043 28.4947278,20.2111612 28.4947278,20.8317134 C28.4947278,21.4522656 28.9977847,21.9553226 29.6183369,21.9553226 C29.8879917,21.9705015 30.1480682,21.8530476 30.3149746,21.640712 L30.3149746,21.9103782 L30.741946,21.9103782 L30.741946,20.8317134 Z M28.9891158,20.8317134 C29.0135364,20.4662332 29.3253134,20.187123 29.6912582,20.2031387 C30.0572031,20.2191544 30.343404,20.5244354 30.3358016,20.8906516 C30.3281992,21.2568679 30.0295755,21.5500083 29.6632813,21.5508233 C29.4751173,21.5554069 29.2939309,21.4795181 29.1651997,21.3422048 C29.0364685,21.2048915 28.9724147,21.0191908 28.9891158,20.8317134 L28.9891158,20.8317134 Z"/>
    <g transform="translate(5.618 1.573)">
      <rect width="7.798" height="12.719" x="9.393" y="1.82" fill="#FF5F00"/>
      <path fill="#EB001B" d="M10.202371,8.17987453 C10.2030503,5.70096316 11.3370789,3.35840784 13.28106,1.8202468 C10.4950841,-0.370238363 6.60771843,-0.492409792 3.68969207,1.51881102 C0.771665709,3.53003183 -0.497614496,7.20637044 0.557973971,10.589508 C1.61356244,13.9726456 4.74824592,16.2748831 8.29223544,16.2698603 C10.1025534,16.2711345 11.8603299,15.6614553 13.28106,14.5395023 C11.3370789,13.0013412 10.2030503,10.6587859 10.202371,8.17987453 L10.202371,8.17987453 Z"/>
      <path fill="#F79E1B" d="M25.5958162 13.2643871L25.5958162 12.9319645 25.7081771 12.9319645 25.7081771 12.8765607 25.4385109 12.8765607 25.4385109 12.9319645 25.5508718 12.9319645 25.5508718 13.2643871 25.5958162 13.2643871zM26.1351486 13.2643871L26.1351486 12.8765607 26.0452598 12.8765607 25.9553711 13.1535796 25.8654824 12.8765607 25.7755936 12.8765607 25.7755936 13.2643871 25.8430102 13.2643871 25.8430102 12.9596664 25.9328989 13.2089833 26.0003155 13.2089833 26.0902042 12.9596664 26.0902042 13.2643871 26.1351486 13.2643871zM26.3823426 8.17987453C26.3789005 11.2731338 24.6119102 14.0936623 21.8300872 15.4463357 19.0482642 16.799009 15.7386213 16.4470152 13.3035322 14.5395023 15.2480227 13.001756 16.382161 10.6589282 16.382161 8.17987453 16.382161 5.7008209 15.2480227 3.35799306 13.3035322 1.8202468 15.7386213-.0872661431 19.0482642-.439259969 21.8300872.913413412 24.6119102 2.26608679 26.3789005 5.08661531 26.3823426 8.17987453L26.3823426 8.17987453z"/>
    </g>
  </g>
</svg>
