<svg xmlns="http://www.w3.org/2000/svg" width="76" height="20" viewBox="0 0 76 20">
  <g fill="none" fill-rule="evenodd">
    <path fill="#0068A3" d="M66.3299321,1.04626918 C67.8176201,1.04626918 69.2265358,1.39271447 70.4813484,2.00778868 C70.6784704,2.10128302 70.8750189,2.20414591 71.0721409,2.31771572 L70.1999094,3.09836478 L68.8894591,1.74336604 L66.6777157,3.71611572 L65.3640151,2.28234465 L61.2439547,5.99611572 L63.8853132,8.90705912 L62.8473157,9.82001509 L65.4489057,12.735356 L64.4170264,13.6462088 L68.1346214,17.7842415 L70.3413937,15.7526038 L72.2493283,17.9297409 C71.8698063,18.2247547 71.4564428,18.5023698 71.0010164,18.7589535 C69.6213535,19.5457208 68.0267874,19.9961761 66.3299321,19.9961761 C61.1114566,19.9961761 56.8552654,15.7394113 56.8552654,10.5215094 C56.8552654,5.30246038 61.1114566,1.04626918 66.3299321,1.04626918"/>
    <polyline fill="#0068A3" points="64.603 9.922 66.856 7.894 68.885 10.147 66.632 12.175 64.603 9.922"/>
    <polyline fill="#0068A3" points="66.205 13.816 68.459 11.787 70.487 14.04 68.234 16.069 66.205 13.816"/>
    <polyline fill="#0068A3" points="62.991 6.075 65.244 4.047 67.272 6.3 65.019 8.328 62.991 6.075"/>
    <polyline fill="#0068A3" points="67.125 4.983 68.815 3.462 70.337 5.152 68.647 6.673 67.125 4.983"/>
    <polyline fill="#0068A3" points="70.128 11.952 71.818 10.43 73.34 12.12 71.65 13.642 70.128 11.952"/>
    <polyline fill="#0068A3" points="71.615 15.365 73.304 13.843 74.825 15.533 73.136 17.054 71.615 15.365"/>
    <polyline fill="#0068A3" points="72.295 7.542 73.422 6.528 74.436 7.655 73.31 8.669 72.295 7.542"/>
    <polyline fill="#0068A3" points="70.856 4.195 71.982 3.181 72.997 4.307 71.87 5.322 70.856 4.195"/>
    <polyline fill="#0068A3" points="73.735 10.889 74.862 9.875 75.876 11.001 74.75 12.016 73.735 10.889"/>
    <polyline fill="#0068A3" points="68.683 8.381 70.373 6.86 71.894 8.549 70.205 10.07 68.683 8.381"/>
    <polyline fill="#0068A3" points="4.513 2.888 4.437 2.888 3.01 8.283 1.843 8.283 .092 .618 1.302 .618 2.513 6.337 2.589 6.337 3.994 .618 4.956 .618 6.459 6.337 6.534 6.337 7.637 .618 8.902 .618 7.151 8.283 5.983 8.283 4.513 2.888"/>
    <path fill="#0068A3" d="M13.6924277 7.09327296L13.6924277 7.91483774C13.2060277 8.19627673 12.5574943 8.41251824 11.7789484 8.41251824 9.96297862 8.41251824 9.21693585 7.28829182 9.21693585 5.57977358 9.21693585 3.93683522 10.0493987 2.74760252 11.6709233 2.74760252 13.0220981 2.74760252 13.854561 3.62346667 13.854561 5.3853283L13.854561 5.78511698 10.3306465 5.78511698C10.3306465 7.08218365 10.8602566 7.65538616 11.9737761 7.65538616 12.5574943 7.65538616 13.0978113 7.45004277 13.6924277 7.09327296L13.6924277 7.09327296zM10.3522516 5.06106164L12.8274616 5.06106164C12.7737358 3.92574591 12.2223296 3.47204025 11.6386113 3.47204025 10.9787975 3.47204025 10.4709836 3.98023648 10.3522516 5.06106164L10.3522516 5.06106164zM15.9622943 3.14777358C16.286561 2.97474214 16.8377761 2.74760252 17.4216855 2.74760252 18.7619623 2.74760252 19.4864 3.67738365 19.4864 5.40750692 19.4864 7.42862893 18.5137912 8.41251824 16.9461836 8.41251824 16.3729811 8.41251824 15.4866013 8.22858868 14.8378767 7.88233459L14.8378767.337016352 15.9622943.0666666667 15.9622943 3.14777358 15.9622943 3.14777358zM15.9515874 7.48254591C16.2972679 7.63397233 16.675834 7.65538616 16.9461836 7.65538616 17.7461434 7.65538616 18.3514667 7.15827925 18.3514667 5.40750692 18.3514667 4.03415346 17.8541686 3.59096352 17.129922 3.59096352 16.6972478 3.59096352 16.3840704 3.70988679 15.9515874 3.94773333L15.9515874 7.48254591 15.9515874 7.48254591z"/>
    <polyline fill="#0068A3" points="24.405 6.661 24.459 6.661 26.773 .618 28.113 .618 28.113 8.283 26.946 8.283 26.946 2.726 26.848 2.726 24.643 8.283 23.951 8.283 21.746 2.856 21.649 2.856 21.649 8.283 20.676 8.283 20.676 .618 21.984 .618 24.405 6.661"/>
    <path fill="#0068A3" d="M29.3023497,5.57977358 C29.3023497,3.68789937 30.340156,2.74760252 31.767044,2.74760252 C33.1941233,2.74760252 34.2321208,3.68789937 34.2321208,5.57977358 C34.2321208,7.42862893 33.2482314,8.41251824 31.767044,8.41251824 C30.2858566,8.41251824 29.3023497,7.42862893 29.3023497,5.57977358 L29.3023497,5.57977358 Z M33.0966138,5.57977358 C33.0966138,4.12057358 32.5019975,3.5045434 31.767044,3.5045434 C31.0535044,3.5045434 30.437283,4.12057358 30.437283,5.57977358 C30.437283,7.0613434 30.9997786,7.65538616 31.767044,7.65538616 C32.5345006,7.65538616 33.0966138,7.0613434 33.0966138,5.57977358 L33.0966138,5.57977358 Z"/>
    <path fill="#828282" d="M19.9375,17.359375 L20.703125,13.3125 L21.8710938,13.3125 L20.609375,19 L19.4296875,19 L18.5039062,15.1953125 L17.578125,19 L16.3984375,19 L15.1367188,13.3125 L16.3046875,13.3125 L17.0742188,17.3515625 L18.0117188,13.3125 L19.0039062,13.3125 L19.9375,17.359375 Z M24.0351562,13.3125 L25.4960938,17.4375 L26.9492188,13.3125 L28.4882812,13.3125 L28.4882812,19 L27.3125,19 L27.3125,17.4453125 L27.4296875,14.7617188 L25.8945312,19 L25.0898438,19 L23.5585938,14.765625 L23.6757812,17.4453125 L23.6757812,19 L22.5039062,19 L22.5039062,13.3125 L24.0351562,13.3125 Z M32.9335938,16.5351562 L30.6835938,16.5351562 L30.6835938,18.0585938 L33.3242188,18.0585938 L33.3242188,19 L29.5117188,19 L29.5117188,13.3125 L33.3164062,13.3125 L33.3164062,14.2617188 L30.6835938,14.2617188 L30.6835938,15.6171875 L32.9335938,15.6171875 L32.9335938,16.5351562 Z"/>
    <path fill="#0068A3" d="M35.2588377 3.54756226C35.7452377 3.25560755 36.7725283 2.74760252 38.0151044 2.74760252 39.3129358 2.74760252 39.7989535 3.25560755 39.7989535 4.36893585L39.7989535 8.28269686 38.674727 8.28269686 38.674727 4.6178717C38.674727 3.76380377 38.2535245 3.61237736 37.7023094 3.61237736 37.2696352 3.61237736 36.7182289 3.80739623 36.3832553 4.00165031L36.3832553 8.28269686 35.2588377 8.28269686 35.2588377 3.54756226M45.2795572 7.09327296L45.2795572 7.91483774C44.7933484 8.19627673 44.1450063 8.41251824 43.3662692 8.41251824 41.5504906 8.41251824 40.8044478 7.28829182 40.8044478 5.57977358 40.8044478 3.93683522 41.6369107 2.74760252 43.2584352 2.74760252 44.6099925 2.74760252 45.4426465 3.62346667 45.4426465 5.3853283L45.4426465 5.78511698 41.9183497 5.78511698C41.9183497 7.08218365 42.4479597 7.65538616 43.5612881 7.65538616 44.1450063 7.65538616 44.6855145 7.45004277 45.2795572 7.09327296L45.2795572 7.09327296zM41.9395723 5.06106164L44.4151648 5.06106164C44.361439 3.92574591 43.8096503 3.47204025 43.2259321 3.47204025 42.5663094 3.47204025 42.0586868 3.98023648 41.9395723 5.06106164L41.9395723 5.06106164zM49.6475975 2.93134088L50.804327 2.93134088 48.8474465 8.33661384C48.3067472 9.82869937 47.6471245 10.6066717 46.4045484 10.6066717L46.4045484 9.72067421C47.1396931 9.72067421 47.5932075 9.13657358 47.8530415 8.33661384L45.7774289 2.93134088 46.9666616 2.93134088 48.3503396 6.9093434 48.4147723 6.9093434 49.6475975 2.93134088"/>
  </g>
</svg>
