<svg xmlns="http://www.w3.org/2000/svg" width="75" height="17" viewBox="0 0 75 17" xmlns:xlink="http://www.w3.org/1999/xlink">
  <defs>
    <polygon id="a" points=".036 11.613 5.232 11.613 5.232 .034 .036 .034"/>
  </defs>
  <g fill="none" fill-rule="evenodd">
    <polygon fill="#FF0000" points="6.288 0 3.734 7.463 1.515 1.29 0 1.29 3.012 9.294 3.012 13.758 4.403 13.758 4.403 9.347 7.679 0"/>
    <g transform="translate(6.744 1.161)">
      <path fill="#000000" d="M31.0713458 3.80837903L29.4157572 7.92370161 31.2650257 12.5970242 29.8385979 12.5970242 28.4646588 8.96987904 27.1262008 12.5970242 25.7701487 12.5970242 27.6194172 8.04563708 25.9463813 3.80837903 27.372809 3.80837903 28.5175872 6.99945965 29.7327412 3.80837903 31.0713458 3.80837903zM21.4199035 7.4006855L23.691866 7.4006855C23.691866 5.90102419 23.4452578 4.80244355 22.6526513 4.80244355 21.8074097 4.80244355 21.5077265 5.83105645 21.4199035 7.4006855L21.4199035 7.4006855zM22.934594 12.7189597C21.1026263 12.7189597 19.9754419 11.2717016 19.9754419 8.56908873 19.9754419 5.74410484 20.7680484 3.68644355 22.6526513 3.68644355 24.1320074 3.68644355 25.1008464 4.78502419 25.1008464 7.76678225L25.1008464 8.51668546 21.4023095 8.51668546C21.4023095 10.5045242 21.9659017 11.5508468 23.0577515 11.5508468 23.8327641 11.5508468 24.3963562 11.201879 24.748528 10.9580081L25.0655119 12.0041855C24.5019197 12.4401048 23.8151701 12.7189597 22.934594 12.7189597L22.934594 12.7189597zM17.2280035 5.22094355C16.9460608 4.94179839 16.6468174 4.80244355 16.189082 4.80244355 15.0791984 4.80244355 14.5507941 6.45902422 14.5507941 8.2549597 14.5507941 10.3126209 14.9383004 11.5684113 15.9423272 11.5684113 16.6290769 11.5684113 16.9989892 11.2368629 17.2280035 10.8880403L17.2280035 5.22094355zM13.089032 8.53410485C13.089032 5.27305645 14.3217798 3.68644355 16.1008192 3.68644355 16.52366 3.68644355 16.9636547 3.82579839 17.2280035 4.01770161L17.2280035.129120968 18.6019427.129120968 18.6019427 12.5970242 17.5801753 12.5970242 17.4746117 11.8996693 17.3864955 11.8996693C16.9989892 12.3877016 16.5059194 12.7189597 15.7838353 12.7189597 14.0401304 12.7189597 13.089032 11.2542823 13.089032 8.53410485L13.089032 8.53410485zM8.12226611 12.5970242L6.7486202 12.5970242 6.7486202 3.79095968 8.12226611 3.79095968 8.12226611 4.55813709 8.21038241 4.55813709C8.45713725 4.22687903 9.12629293 3.68644355 9.95408727 3.68644355 11.1166061 3.68644355 11.7328334 4.33139516 11.7328334 5.67428226L11.7328334 12.5970242 10.3415935 12.5970242 10.3415935 5.79650806C10.3415935 5.13370161 10.0420569 4.90695968 9.51379919 4.90695968 8.93246652 4.90695968 8.43939669 5.34302419 8.12226611 5.77894355L8.12226611 12.5970242zM3.68405121 8.01108869L3.52555924 8.01108869C1.81704223 8.01108869 1.44727651 8.7608468 1.44727651 9.89426615 1.44727651 10.9056049 1.78185437 11.5684113 2.48619795 11.5684113 2.96196708 11.5684113 3.43729637 11.2542823 3.68405121 10.870621L3.68405121 8.01108869zM5.19874178 12.5970242L4.036223 12.5970242C3.98358783 12.4052661 3.93065943 12.1264113 3.9130655 11.8996693L3.82480263 11.8996693C3.43729637 12.3877016 2.94422654 12.7189597 2.16936063 12.7189597.901278281 12.7189597.0381495003 11.7774435.0381495003 10.0511855.0381495003 8.16786288 1.00684184 6.98204033 3.49022477 6.98204033L3.68405121 6.98204033 3.68405121 6.45902422C3.68405121 5.30804032 3.29654495 4.8198629 2.52153242 4.8198629 1.81704223 4.8198629 1.21826222 5.18610484.760380241 5.58718549L.49617809 4.38379839C.901278281 4.05254032 1.71147866 3.68644355 2.60964868 3.68644355 4.17712104 3.68644355 5.04024981 4.34895968 5.04024981 6.47644355L5.04024981 10.6091855C5.04024981 11.4461855 5.12807284 12.1785242 5.19874178 12.5970242L5.19874178 12.5970242zM36.0107825 4.07006129L35.6408701 12.5971258 34.9189326 12.5971258 35.4647842.12907742 36.4333299.12907742 38.3177862 7.81914195C38.4765714 8.42939997 38.564541 9.02223873 38.6174695 9.54539999L38.6526573 9.54539999C38.7052925 9.02223873 38.8111493 8.42939997 38.9696413 7.81914195L40.907026.12907742 41.8931656.12907742 42.4391639 12.5971258 41.593629 12.5971258 41.2240099 4.00023871C41.1713747 3.02359355 41.1886754 2.27383548 41.1886754 1.50680323L41.1356004 1.50680323C41.0303301 2.29125484 40.907026 3.02359355 40.7133461 3.75622258L38.9519007 10.6441258 38.2651511 10.6441258 36.5214462 3.75622258C36.3453603 3.07599677 36.2044623 2.37864193 36.116346 1.52422258L36.0634176 1.52422258C36.0634176 2.20415807 36.0461169 3.21549677 36.0107825 4.07006129M48.4121411 8.20286126C48.4121411 5.44740967 47.5666062 4.31428064 46.5273916 4.31428064 45.4880303 4.31428064 44.6424954 5.53479677 44.6424954 8.20286126 44.6424954 10.9404581 45.4880303 12.1088613 46.5273916 12.1088613 47.5666062 12.1088613 48.4121411 10.8532161 48.4121411 8.20286126M43.8148477 8.25497421C43.8148477 5.32547419 44.9952537 3.63405484 46.5273916 3.63405484 48.0593829 3.63405484 49.2392023 5.13371613 49.2392023 8.15045806 49.2392023 11.0625387 48.0593829 12.7713774 46.5273916 12.7713774 44.9952537 12.7713774 43.8148477 11.2542968 43.8148477 8.25497421M51.5837105 6.18011129L51.5837105 12.5971113 50.7554763 12.5971113 50.7554763 3.80832097 51.5131882 3.80832097 51.548376 5.25572419 51.5837105 5.25572419C51.8301721 4.61062742 52.5345157 3.63398226 53.7322223 3.63398226 54.9126283 3.63398226 55.5992313 4.36632097 55.5992313 5.76161129L55.5992313 12.5971113 54.7715836 12.5971113 54.7715836 5.86598226C54.7715836 4.81995 54.3840773 4.33148226 53.573877 4.33148226 52.6930077 4.33148226 52.0238519 5.06411129 51.5837105 6.18011129M57.8725721 7.69697416L61.0962195 7.69697416C61.2368243 5.36045806 60.5323341 4.31428064 59.6341641 4.31428064 58.7008062 4.31428064 57.9430944 5.4998129 57.8725721 7.69697416M59.8101034 12.056458C60.9899229 12.056458 61.6064434 11.1147968 61.6064434 11.1147968L61.8706456 11.7773129C61.8706456 11.7773129 61.2014898 12.7713774 59.792656 12.7713774 57.9083464 12.7713774 57.0449244 11.079958 57.0449244 8.20286126 57.0449244 5.32547419 58.1369208 3.63405484 59.6341641 3.63405484 61.166302 3.63405484 62.152295 5.22095807 61.8706456 8.34236129L57.8552714 8.34236129C57.8904592 10.7487 58.5244271 12.056458 59.8101034 12.056458"/>
      <g transform="translate(62.752 3.774)">
        <mask id="b" fill="white">
          <use xlink:href="#a"/>
        </mask>
        <path fill="#000000" d="M0.423661783,11.5779774 L0.335692144,10.8106548 C0.476296951,10.8456387 0.652676081,10.8804774 0.88169037,10.8804774 C1.48032377,10.8804774 1.90301789,10.3050581 2.16736665,9.32855806 L2.23788898,9.06712256 L0.0361555218,0.0341709677 L0.863803213,0.0341709677 L2.27263699,5.77109032 C2.43112896,6.43389679 2.55487292,7.07899353 2.64284256,7.75921937 L2.69591757,7.75921937 C2.81863522,7.0615742 2.95967988,6.4164774 3.11817184,5.77109032 L4.49225761,0.0341709677 L5.23208228,0.0341709677 L2.95967988,9.27630002 C2.66014325,10.4619774 2.13203218,11.6129613 0.88169037,11.6129613 C0.688010552,11.6129613 0.546819279,11.5953968 0.423661783,11.5779774" mask="url(#b)"/>
      </g>
    </g>
  </g>
</svg>
