<svg id="Layer_1" data-name="Layer 1" xmlns="http://www.w3.org/2000/svg" viewBox="0 0 119 119"><defs><style>.cls-1{fill:#6e7c91;}</style></defs><title>iq.deposit.icons</title><path id="Fail" class="cls-1" d="M119,59.59A59.85,59.85,0,0,0,74.89,2.12L75,2A63.82,63.82,0,0,0,59.59,0a59.07,59.07,0,0,0-42,17.49l0,0,0,0A59.51,59.51,0,0,0,54.74,118.91v-.11c1.61.13,3.23.2,4.86.2a59.75,59.75,0,0,0,59.31-54.74h-.12C118.92,62.67,119,61.12,119,59.59ZM59.59,115.66a56.11,56.11,0,1,1,56.06-56.06,55.66,55.66,0,0,1-1.38,12.7h0A56.26,56.26,0,0,1,59.59,115.66ZM62,59.5,89.24,86.72l-2.51,2.51L59.5,62,32.28,89.24l-2.51-2.51L57,59.5,29.76,32.28l2.51-2.51L59.5,57,86.72,29.76l2.51,2.51Z"/></svg>