<?xml version="1.0" encoding="UTF-8"?>
<svg width="86px" height="28px" viewBox="0 0 86 28" version="1.1" xmlns="http://www.w3.org/2000/svg" xmlns:xlink="http://www.w3.org/1999/xlink">
    <!-- Generator: Sketch 49.3 (51167) - http://www.bohemiancoding.com/sketch -->
    <title>Group 17 Copy</title>
    <desc>Created with Sketch.</desc>
    <defs></defs>
    <g id="Page-1" stroke="none" stroke-width="1" fill="none" fill-rule="evenodd">
        <g id="m4-deposit-840" transform="translate(-552.000000, -845.000000)" fill="#ADB3C1">
            <g id="Group-2-Copy-2" transform="translate(100.000000, 843.000000)">
                <g id="Group-17-Copy" transform="translate(451.750000, 2.000000)">
                    <path d="M82.5627643,24.6163077 L82.5627643,24.9975385 L82.0596643,24.9975385 L82.0596643,26.9230769 L81.5952643,26.9230769 L81.5952643,24.9975385 L81.0921643,24.9975385 L81.0921643,24.6163077 L82.5627643,24.6163077 Z M82.526675,24.6163077 L83.216825,24.6163077 L83.545775,26.2446154 L83.552225,26.2446154 L83.8844,24.6163077 L84.571325,24.6163077 L84.571325,26.9230769 L84.145625,26.9230769 L84.145625,25.0815385 L84.139175,25.0815385 L83.7296,26.9230769 L83.3684,26.9230769 L82.958825,25.0815385 L82.952375,25.0815385 L82.952375,26.9230769 L82.526675,26.9230769 L82.526675,24.6163077 Z" id="TM" opacity="0.900000036"></path>
                    <path d="M81.920375,9.92384615 C81.920375,10.1176933 81.9553122,10.3016658 82.0251875,10.4757692 C82.0950628,10.6498727 82.1918119,10.8015378 82.3154375,10.9307692 C82.4390631,11.0600006 82.5859783,11.1623073 82.7561875,11.2376923 C82.9263967,11.3130773 83.1118323,11.3507692 83.3125,11.3507692 C83.5131677,11.3507692 83.6986033,11.3130773 83.8688125,11.2376923 C84.0390217,11.1623073 84.1859369,11.0600006 84.3095625,10.9307692 C84.4331881,10.8015378 84.5299372,10.6498727 84.5998125,10.4757692 C84.6696878,10.3016658 84.704625,10.1176933 84.704625,9.92384615 C84.704625,9.72999903 84.6696878,9.54602651 84.5998125,9.37192308 C84.5299372,9.19781964 84.4331881,9.04615449 84.3095625,8.91692308 C84.1859369,8.78769166 84.0390217,8.68538499 83.8688125,8.61 C83.6986033,8.53461501 83.5131677,8.49692308 83.3125,8.49692308 C83.1118323,8.49692308 82.9263967,8.53461501 82.7561875,8.61 C82.5859783,8.68538499 82.4390631,8.78769166 82.3154375,8.91692308 C82.1918119,9.04615449 82.0950628,9.19781964 82.0251875,9.37192308 C81.9553122,9.54602651 81.920375,9.72999903 81.920375,9.92384615 Z M81.318375,9.92384615 C81.318375,9.64743452 81.3703328,9.38807813 81.47425,9.14576923 C81.5781672,8.90346033 81.7206033,8.69166757 81.9015625,8.51038462 C82.0825217,8.32910166 82.2939363,8.18641078 82.5358125,8.08230769 C82.7776887,7.97820461 83.036582,7.92615385 83.3125,7.92615385 C83.588418,7.92615385 83.8473113,7.97820461 84.0891875,8.08230769 C84.3310637,8.18641078 84.5424783,8.32910166 84.7234375,8.51038462 C84.9043967,8.69166757 85.0468328,8.90346033 85.15075,9.14576923 C85.2546672,9.38807813 85.306625,9.64743452 85.306625,9.92384615 C85.306625,10.2002578 85.2546672,10.4596142 85.15075,10.7019231 C85.0468328,10.944232 84.9043967,11.1551273 84.7234375,11.3346154 C84.5424783,11.5141035 84.3310637,11.6541021 84.0891875,11.7546154 C83.8473113,11.8551287 83.588418,11.9053846 83.3125,11.9053846 C83.036582,11.9053846 82.7776887,11.8551287 82.5358125,11.7546154 C82.2939363,11.6541021 82.0825217,11.5141035 81.9015625,11.3346154 C81.7206033,11.1551273 81.5781672,10.944232 81.47425,10.7019231 C81.3703328,10.4596142 81.318375,10.2002578 81.318375,9.92384615 Z M83.006125,9.75692308 L83.36625,9.75692308 C83.4701672,9.75692308 83.5561663,9.74076939 83.62425,9.70846154 C83.6923337,9.67615368 83.726375,9.60256468 83.726375,9.48769231 C83.726375,9.42666636 83.7138335,9.37910273 83.68875,9.345 C83.6636665,9.31089727 83.630521,9.28487188 83.5893125,9.26692308 C83.548104,9.24897427 83.5033127,9.23730772 83.4549375,9.23192308 C83.4065623,9.22653843 83.3608752,9.22384615 83.317875,9.22384615 L83.006125,9.22384615 L83.006125,9.75692308 Z M82.533125,8.84692308 L83.371625,8.84692308 C83.6511264,8.84692308 83.8589577,8.9043584 83.995125,9.01923077 C84.1312923,9.13410314 84.199375,9.29922969 84.199375,9.51461538 C84.199375,9.69769322 84.148313,9.83858925 84.0461875,9.93730769 C83.944062,10.0360261 83.8177508,10.0943589 83.66725,10.1123077 L84.199375,11.0007692 L83.683375,11.0007692 L83.178125,10.1338462 L83.006125,10.1338462 L83.006125,11.0007692 L82.533125,11.0007692 L82.533125,8.84692308 Z" id="®" opacity="0.900000036"></path>
                    <path d="M15.2271664,1.21574298 L13.5463258,11.6389148 L11.7082844,11.6389148 L12.6998594,5.4445727 L9.47119448,10.5370367 L8.60054327,10.5370367 L6.85924085,5.38501172 L5.84348111,11.6389148 L4.00543967,11.6389148 L5.69837258,1.21574298 L7.29456646,1.21574298 L9.41073259,7.70789002 L13.5463258,1.21574298 L15.2271664,1.21574298 Z M23.2562998,3.62796275 L21.8095105,11.6389148 L19.808344,11.6389148 L19.9435579,10.8497318 C19.3395992,11.4552715 18.5959299,11.7580368 17.7125276,11.7580368 C17.1446262,11.7580368 16.6218041,11.6140992 16.1440457,11.3262197 C15.6662874,11.0383402 15.2854385,10.6238991 15.0014878,10.0828842 C14.7175371,9.54186922 14.5755638,8.90407675 14.5755638,8.16948763 C14.5755638,7.28599531 14.7535938,6.48937514 15.109659,5.77960323 C15.4657242,5.06983131 15.950236,4.51393437 16.563209,4.11189573 C17.176182,3.70985709 17.852245,3.50884079 18.5914183,3.50884079 C19.7091926,3.50884079 20.4979328,3.9108734 20.9576626,4.71495067 L21.1469621,3.62796275 L23.2562998,3.62796275 Z M19.4703091,9.5021646 C19.7948242,9.2788098 20.047221,8.96859945 20.2275072,8.57152426 C20.4077934,8.17444906 20.4979351,7.71781943 20.4979351,7.20162167 C20.4979351,6.65564327 20.3514548,6.22383047 20.0584898,5.90617031 C19.7655247,5.58851015 19.3576334,5.42968246 18.8348035,5.42968246 C18.4201453,5.42968246 18.0505641,5.54135818 17.726049,5.76471298 C17.4015339,5.98806778 17.149137,6.29827812 16.9688509,6.69535332 C16.7885647,7.09242852 16.698423,7.54905815 16.698423,8.06525591 C16.698423,8.61123431 16.8449033,9.04304711 17.1378683,9.36070727 C17.4308334,9.67836743 17.8387247,9.83719512 18.3615546,9.83719512 C18.7762128,9.83719512 19.1457939,9.7255194 19.4703091,9.5021646 Z M23.5849985,11.527238 C23.0216042,11.3733713 22.5821632,11.172355 22.2666624,10.924183 L23.0779462,9.2415853 C23.393447,9.46990354 23.7788029,9.65354807 24.2340255,9.79252439 C24.6892481,9.93150071 25.1467174,10.0009878 25.6064472,10.0009878 C26.0842055,10.0009878 26.4402654,9.93398239 26.6746374,9.79996951 C26.9090094,9.66595663 27.0261937,9.47486706 27.0261937,9.22669506 C27.0261937,9.02815746 26.9225307,8.88421986 26.7152016,8.79487794 C26.5078725,8.70553602 26.1743481,8.61123207 25.7146183,8.51196327 C25.1917884,8.40276759 24.7613616,8.28364682 24.423325,8.15459738 C24.0852885,8.02554794 23.7923278,7.81460491 23.5444343,7.52176195 C23.2965408,7.22891899 23.1725959,6.82936806 23.1725959,6.32309719 C23.1725959,5.43960487 23.5083739,4.74969706 24.1799399,4.25335306 C24.8515059,3.75700906 25.7326414,3.50884079 26.8233728,3.50884079 C27.3281741,3.50884079 27.8194465,3.56840117 28.2972049,3.68752373 C28.7749633,3.80664629 29.1806011,3.97043736 29.5141305,4.17890183 L28.7569323,5.87638982 C28.161988,5.46938774 27.4453612,5.26588976 26.6070304,5.26588976 C26.1473007,5.26588976 25.7980015,5.34034024 25.5591223,5.48924344 C25.3202431,5.63814664 25.2008053,5.82675453 25.2008053,6.05507277 C25.2008053,6.26353725 25.3044683,6.4149199 25.5117974,6.50922525 C25.7191265,6.60353061 26.0661722,6.70527961 26.5529449,6.81447529 C27.0667605,6.92367097 27.4881731,7.04031006 27.8171953,7.16439606 C28.1462176,7.28848206 28.4324176,7.49446173 28.675804,7.78234124 C28.9191903,8.07022076 29.0408816,8.46232664 29.0408816,8.95867064 C29.0408816,9.85208984 28.7005966,10.5419976 28.0200163,11.0284148 C27.339436,11.5148319 26.4583005,11.7580368 25.3765834,11.7580368 C24.7455818,11.7580368 24.1483928,11.6811046 23.5849985,11.527238 Z M31.7425853,8.80976818 C31.7245566,8.88918322 31.7155425,8.99837727 31.7155425,9.13735359 C31.7155425,9.65355134 31.9724464,9.91164635 32.486262,9.91164635 C32.7657056,9.91164635 33.0496521,9.81734241 33.3381099,9.62873169 L33.649102,11.2815489 C33.180358,11.5992091 32.5764083,11.7580368 31.837235,11.7580368 C31.1521476,11.7580368 30.602283,11.5595022 30.1876248,11.162427 C29.7729666,10.7653518 29.5656406,10.2193816 29.5656406,9.52449997 C29.5656406,9.32596237 29.588176,9.09268419 29.6332475,8.82465843 L30.2146675,5.59347516 L29.0923917,5.59347516 L29.4169052,3.8066457 L30.539181,3.8066457 L30.8907373,1.85602354 L33.000075,1.85602354 L32.6485188,3.8066457 L34.4603858,3.8066457 L34.1358723,5.59347516 L32.3240053,5.59347516 L31.7425853,8.80976818 Z M41.2725937,8.2588291 L35.7017787,8.2588291 C35.7738931,9.3507859 36.4003782,9.89675611 37.5812526,9.89675611 C37.9508393,9.89675611 38.3046456,9.83223235 38.6426822,9.70318291 C38.9807188,9.57413347 39.275933,9.39048895 39.5283336,9.15224383 L40.4072243,10.6859391 C40.0015804,11.0433068 39.5373505,11.3113285 39.0145206,11.4900124 C38.4916907,11.6686962 37.9418261,11.7580368 37.3649103,11.7580368 C36.6167227,11.7580368 35.9609416,11.6116175 35.3975473,11.3187746 C34.834153,11.0259316 34.4014726,10.6065272 34.0994933,10.0605488 C33.7975139,9.51457041 33.6465265,8.88422299 33.6465265,8.16948763 C33.6465265,7.28599531 33.8290635,6.48937514 34.194143,5.77960323 C34.5592225,5.06983131 35.0662698,4.51393437 35.7153001,4.11189573 C36.3643303,3.70985709 37.1034925,3.50884079 37.9328089,3.50884079 C38.635925,3.50884079 39.2466353,3.65277839 39.764958,3.94065791 C40.2832808,4.22853743 40.6844115,4.64049676 40.9683623,5.17654828 C41.252313,5.7125998 41.3942862,6.33302049 41.3942862,7.03782897 C41.3942862,7.40512353 41.3537224,7.8121195 41.2725937,8.2588291 Z M36.5806694,5.69026175 C36.2381256,5.98310471 35.9947429,6.387619 35.850514,6.90381676 L39.4607266,6.90381676 C39.4607266,6.387619 39.3142463,5.98310471 39.0212813,5.69026175 C38.7283162,5.39741879 38.3339461,5.25099951 37.8381592,5.25099951 C37.3423722,5.25099951 36.9232131,5.39741879 36.5806694,5.69026175 Z M45.3737617,3.76197496 C45.81997,3.593218 46.3450456,3.50884079 46.9490043,3.50884079 L46.5704052,5.65303614 C46.3180046,5.63318238 46.1557494,5.62325565 46.083635,5.62325565 C45.4436191,5.62325565 44.9320647,5.79697344 44.5489566,6.14441424 C44.1658485,6.49185504 43.906691,7.03286188 43.7714763,7.767451 L43.0683638,11.6389148 L40.959026,11.6389148 L42.4058154,3.62796275 L44.4069819,3.62796275 L44.2312038,4.58093846 C44.5467046,4.20371702 44.9275534,3.93073192 45.3737617,3.76197496 Z M51.1828108,11.2517684 C50.4751875,10.874547 49.9320836,10.3434669 49.5534826,9.65851218 C49.1748816,8.97355746 48.985584,8.18438234 48.985584,7.29096314 C48.985584,6.10966443 49.2312202,5.04502252 49.7225001,4.09700548 C50.2137799,3.14898845 50.9056177,2.40200194 51.7980343,1.85602354 C52.6904509,1.31004514 53.7135596,1.03706003 54.8673911,1.03706003 C55.7147361,1.03706003 56.4629125,1.19588773 57.1119428,1.51354789 C57.760973,1.83120805 58.2522455,2.28783768 58.5857749,2.88345048 L57.0037716,4.31291404 C56.4989703,3.49890989 55.7372726,3.09191391 54.7186557,3.09191391 C54.024554,3.09191391 53.4115902,3.27059507 52.8797459,3.62796275 C52.3479017,3.98533043 51.9355033,4.47174025 51.6425382,5.08720681 C51.3495732,5.70267337 51.2030929,6.38761781 51.2030929,7.14206069 C51.2030929,7.94613797 51.4352079,8.58393044 51.8994448,9.05545723 C52.3636817,9.52698403 53.0149557,9.7627439 53.8532864,9.7627439 C54.8538747,9.7627439 55.6921929,9.36071129 56.368266,8.55663401 L57.66632,10.0158781 C56.7288319,11.2170305 55.3947342,11.8175978 53.6639869,11.8175978 C52.7174845,11.8175978 51.890434,11.6289899 51.1828108,11.2517684 Z M66.0064456,3.62796275 L64.5596562,11.6389148 L62.5584897,11.6389148 L62.6937036,10.8497318 C62.089745,11.4552715 61.3460756,11.7580368 60.4626734,11.7580368 C59.8947719,11.7580368 59.3719498,11.6140992 58.8941915,11.3262197 C58.4164331,11.0383402 58.0355843,10.6238991 57.7516335,10.0828842 C57.4676828,9.54186922 57.3257096,8.90407675 57.3257096,8.16948763 C57.3257096,7.28599531 57.5037395,6.48937514 57.8598047,5.77960323 C58.2158699,5.06983131 58.7003817,4.51393437 59.3133547,4.11189573 C59.9263277,3.70985709 60.6023908,3.50884079 61.3415641,3.50884079 C62.4593384,3.50884079 63.2480786,3.9108734 63.7078083,4.71495067 L63.8971079,3.62796275 L66.0064456,3.62796275 Z M62.2204548,9.5021646 C62.5449699,9.2788098 62.7973668,8.96859945 62.977653,8.57152426 C63.1579391,8.17444906 63.2480809,7.71781943 63.2480809,7.20162167 C63.2480809,6.65564327 63.1016005,6.22383047 62.8086355,5.90617031 C62.5156705,5.58851015 62.1077791,5.42968246 61.5849492,5.42968246 C61.170291,5.42968246 60.8007099,5.54135818 60.4761948,5.76471298 C60.1516796,5.98806778 59.8992828,6.29827812 59.7189966,6.69535332 C59.5387104,7.09242852 59.4485687,7.54905815 59.4485687,8.06525591 C59.4485687,8.61123431 59.595049,9.04304711 59.8880141,9.36070727 C60.1809791,9.67836743 60.5888704,9.83719512 61.1117004,9.83719512 C61.5263586,9.83719512 61.8959397,9.7255194 62.2204548,9.5021646 Z M69.8912713,3.76197496 C70.3374796,3.593218 70.8625552,3.50884079 71.4665139,3.50884079 L71.0879148,5.65303614 C70.8355142,5.63318238 70.673259,5.62325565 70.6011446,5.62325565 C69.9611286,5.62325565 69.4495743,5.79697344 69.0664662,6.14441424 C68.683358,6.49185504 68.4242006,7.03286188 68.2889859,7.767451 L67.5858733,11.6389148 L65.4765356,11.6389148 L66.923325,3.62796275 L68.9244915,3.62796275 L68.7487134,4.58093846 C69.0642142,4.20371702 69.445063,3.93073192 69.8912713,3.76197496 Z M79.549733,0.59035267 L77.5485664,11.6389148 L75.5473999,11.6389148 L75.6961352,10.8348416 C75.0831622,11.4503081 74.3394929,11.7580368 73.4651049,11.7580368 C72.8972035,11.7580368 72.3743814,11.6140992 71.896623,11.3262197 C71.4188647,11.0383402 71.0380158,10.6238991 70.7540651,10.0828842 C70.4701144,9.54186922 70.3281411,8.90407675 70.3281411,8.16948763 C70.3281411,7.28599531 70.5061711,6.48937514 70.8622363,5.77960323 C71.2183015,5.06983131 71.7028133,4.51393437 72.3157863,4.11189573 C72.9287593,3.70985709 73.6048223,3.50884079 74.3439956,3.50884079 C74.8758399,3.50884079 75.3423233,3.6081081 75.7434601,3.8066457 C76.1445968,4.0051833 76.4623465,4.29802186 76.6967185,4.68517018 L77.4403952,0.59035267 L79.549733,0.59035267 Z M75.2228864,9.5021646 C75.5474015,9.2788098 75.7997983,8.96859945 75.9800845,8.57152426 C76.1603707,8.17444906 76.2505124,7.71781943 76.2505124,7.20162167 C76.2505124,6.65564327 76.1040321,6.22383047 75.8110671,5.90617031 C75.518102,5.58851015 75.1102107,5.42968246 74.5873808,5.42968246 C74.1727226,5.42968246 73.8031414,5.54135818 73.4786263,5.76471298 C73.1541112,5.98806778 72.9017143,6.29827812 72.7214282,6.69535332 C72.541142,7.09242852 72.4510003,7.54905815 72.4510003,8.06525591 C72.4510003,8.61123431 72.5974806,9.04304711 72.8904456,9.36070727 C73.1834107,9.67836743 73.591302,9.83719512 74.1141319,9.83719512 C74.5287901,9.83719512 74.8983712,9.7255194 75.2228864,9.5021646 Z M2.56309159,27.4438468 C1.87800412,27.2254555 1.32813953,26.947507 0.91348132,26.6099931 L1.80589343,24.7487124 C2.23858026,25.0961532 2.72534563,25.3641749 3.26620416,25.5527857 C3.80706269,25.7413964 4.36143437,25.8357003 4.92933582,25.8357003 C5.53329451,25.8357003 6.01104571,25.7265063 6.36260376,25.5081149 C6.7141618,25.2897236 6.88993819,24.9919216 6.88993819,24.6147002 C6.88993819,24.3069669 6.7502185,24.071207 6.47077492,23.9074135 C6.19133135,23.74362 5.74512976,23.5674205 5.13215676,23.3788098 C4.51918376,23.1802722 4.01889712,22.9891826 3.63128184,22.8055354 C3.24366656,22.6218881 2.9078886,22.3464213 2.62393787,21.9791267 C2.33998714,21.6118322 2.19801391,21.1254224 2.19801391,20.5198827 C2.19801391,19.8150742 2.37604383,19.1946535 2.73210903,18.658602 C3.08817423,18.1225505 3.59296795,17.7105911 4.24650534,17.4227116 C4.90004273,17.1348321 5.65948686,16.9908945 6.52486051,16.9908945 C7.16487643,16.9908945 7.76882607,17.0678267 8.33672752,17.2216933 C8.90462898,17.3755599 9.39139435,17.5964297 9.79703825,17.8843092 L8.97223312,19.7306997 C8.62067507,19.4626739 8.22405143,19.2616576 7.7823503,19.1276447 C7.34064917,18.9936318 6.88092631,18.9266264 6.40316795,18.9266264 C5.78118064,18.9266264 5.28990818,19.0457472 4.92933582,19.2839923 C4.56876347,19.5222374 4.38848,19.8299661 4.38848,20.2071875 C4.38848,20.4355058 4.46510047,20.6265953 4.61834372,20.780462 C4.77158697,20.9343286 4.96539171,21.0584128 5.19976373,21.1527181 C5.43413576,21.2470235 5.7631531,21.3586992 6.18682562,21.4877486 C6.79078431,21.6664325 7.28656386,21.8475953 7.67417914,22.0312426 C8.06179441,22.2148899 8.39306529,22.4829116 8.66800171,22.8353159 C8.94293813,23.1877201 9.08040428,23.6517948 9.08040428,24.2275538 C9.08040428,24.9422892 8.90012081,25.5651915 8.53954846,26.0962796 C8.1789761,26.6273677 7.66967529,27.039327 7.01163075,27.33217 C6.35358621,27.625013 5.58738145,27.7714322 4.71299349,27.7714322 C3.96480586,27.7714322 3.24817906,27.6622382 2.56309159,27.4438468 Z M16.6498103,24.2126636 L11.0789953,24.2126636 C11.1511098,25.3046204 11.7775949,25.8505906 12.9584693,25.8505906 C13.328056,25.8505906 13.6818623,25.7860668 14.0198989,25.6570174 C14.3579354,25.5279679 14.6531496,25.3443234 14.9055503,25.1060783 L15.784441,26.6397736 C15.3787971,26.9971413 14.9145672,27.265163 14.3917372,27.4438468 C13.8689073,27.6225307 13.3190427,27.7118713 12.742127,27.7118713 C11.9939393,27.7118713 11.3381582,27.565452 10.7747639,27.272609 C10.2113696,26.9797661 9.77868928,26.5603617 9.47670993,26.0143833 C9.17473059,25.4684049 9.02374318,24.8380574 9.02374318,24.1233221 C9.02374318,23.2398298 9.20628019,22.4432096 9.5713597,21.7334377 C9.93643921,21.0236658 10.4434865,20.4677688 11.0925167,20.0657302 C11.7415469,19.6636916 12.4807092,19.4626752 13.3100256,19.4626752 C14.0131417,19.4626752 14.6238519,19.6066128 15.1421747,19.8944924 C15.6604975,20.1823719 16.0616282,20.5943312 16.3455789,21.1303827 C16.6295296,21.6664343 16.7715029,22.286855 16.7715029,22.9916634 C16.7715029,23.358958 16.7309391,23.765954 16.6498103,24.2126636 Z M11.957886,21.6440962 C11.6153423,21.9369392 11.3719596,22.3414535 11.2277307,22.8576512 L14.8379433,22.8576512 C14.8379433,22.3414535 14.691463,21.9369392 14.3984979,21.6440962 C14.1055329,21.3512533 13.7111628,21.204834 13.2153758,21.204834 C12.7195888,21.204834 12.3004298,21.3512533 11.957886,21.6440962 Z M18.2157167,27.2651639 C17.6568295,26.9673575 17.2264028,26.5479531 16.9244234,26.0069381 C16.6224441,25.4659232 16.4714567,24.8380574 16.4714567,24.1233221 C16.4714567,23.2398298 16.6607543,22.4456913 17.0393553,21.7408828 C17.4179562,21.0360743 17.9452854,20.4801774 18.6213586,20.0731753 C19.2974317,19.6661732 20.0591294,19.4626752 20.9064744,19.4626752 C21.681705,19.4626752 22.3510074,19.6388747 22.9144017,19.991279 C23.477796,20.3436832 23.8992086,20.8425014 24.1786522,21.4877486 L22.3938279,22.4705048 C22.0783271,21.7458426 21.5374767,21.3835169 20.7712605,21.3835169 C20.3566023,21.3835169 19.9847676,21.4951926 19.6557453,21.7185474 C19.326723,21.9419022 19.0698191,22.2521126 18.8850258,22.6491878 C18.7002324,23.046263 18.6078372,23.4979292 18.6078372,24.0042001 C18.6078372,24.5501785 18.756571,24.984473 19.0540432,25.3070966 C19.3515154,25.6297202 19.7661674,25.7910296 20.2980116,25.7910296 C21.0732422,25.7910296 21.6681776,25.4336673 22.0828358,24.7189319 L23.6377963,25.7910296 C23.2862383,26.3965693 22.8062335,26.868089 22.1977677,27.2056029 C21.5893019,27.5431168 20.9154924,27.7118713 20.1763191,27.7118713 C19.4281314,27.7118713 18.7746038,27.5629703 18.2157167,27.2651639 Z M32.0725717,19.5817972 L30.6257824,27.5927493 L28.6246158,27.5927493 L28.7733512,26.7291151 C28.4578503,27.0567021 28.0972834,27.3023887 27.6916395,27.4661822 C27.2859956,27.6299757 26.8578224,27.7118713 26.4071069,27.7118713 C25.6138477,27.7118713 24.980602,27.4736297 24.5073508,26.9971395 C24.0340996,26.5206492 23.7974776,25.8505949 23.7974776,24.9869563 C23.7974776,24.6593693 23.8290272,24.3367505 23.8921273,24.0190904 L24.6898897,19.5817972 L26.7992274,19.5817972 L26.0285078,23.8701879 C25.9924506,24.0587986 25.9744223,24.2523699 25.9744223,24.4509075 C25.9744223,25.2847654 26.3800601,25.7016881 27.1913479,25.7016881 C27.7231921,25.7016881 28.1626331,25.530452 28.5096839,25.1879746 C28.8567348,24.8454973 29.0933569,24.331789 29.2195572,23.6468342 L29.963234,19.5817972 L32.0725717,19.5817972 Z M35.9709188,19.7158094 C36.4171271,19.5470525 36.9422027,19.4626752 37.5461614,19.4626752 L37.1675623,21.6068706 C36.9151617,21.5870168 36.7529065,21.5770901 36.6807921,21.5770901 C36.0407762,21.5770901 35.5292218,21.7508079 35.1461137,22.0982487 C34.7630055,22.4456895 34.5038481,22.9866963 34.3686334,23.7212855 L33.6655209,27.5927493 L31.5561831,27.5927493 L33.0029725,19.5817972 L35.004139,19.5817972 L34.8283609,20.5347729 C35.1438617,20.1575515 35.5247105,19.8845664 35.9709188,19.7158094 Z M44.006813,24.2126636 L38.435998,24.2126636 C38.5081125,25.3046204 39.1345975,25.8505906 40.315472,25.8505906 C40.6850586,25.8505906 41.038865,25.7860668 41.3769015,25.6570174 C41.7149381,25.5279679 42.0101523,25.3443234 42.262553,25.1060783 L43.1414437,26.6397736 C42.7357998,26.9971413 42.2715698,27.265163 41.7487399,27.4438468 C41.22591,27.6225307 40.6760454,27.7118713 40.0991297,27.7118713 C39.350942,27.7118713 38.6951609,27.565452 38.1317666,27.272609 C37.5683723,26.9797661 37.135692,26.5603617 36.8337126,26.0143833 C36.5317333,25.4684049 36.3807459,24.8380574 36.3807459,24.1233221 C36.3807459,23.2398298 36.5632829,22.4432096 36.9283624,21.7334377 C37.2934419,21.0236658 37.8004892,20.4677688 38.4495194,20.0657302 C39.0985496,19.6636916 39.8377119,19.4626752 40.6670283,19.4626752 C41.3701444,19.4626752 41.9808546,19.6066128 42.4991774,19.8944924 C43.0175001,20.1823719 43.4186309,20.5943312 43.7025816,21.1303827 C43.9865323,21.6664343 44.1285056,22.286855 44.1285056,22.9916634 C44.1285056,23.358958 44.0879418,23.765954 44.006813,24.2126636 Z M39.3148887,21.6440962 C38.972345,21.9369392 38.7289623,22.3414535 38.5847333,22.8576512 L42.194946,22.8576512 C42.194946,22.3414535 42.0484657,21.9369392 41.7555006,21.6440962 C41.4625356,21.3512533 41.0681655,21.204834 40.5723785,21.204834 C40.0765915,21.204834 39.6574324,21.3512533 39.3148887,21.6440962 Z M49.1195102,27.2056029 C48.411887,26.8283815 47.868783,26.2973014 47.490182,25.6123466 C47.1115811,24.9273919 46.9222834,24.1382168 46.9222834,23.2447976 C46.9222834,22.0634989 47.1679196,20.998857 47.6591995,20.0508399 C48.1504793,19.1028229 48.8423171,18.3558364 49.7347337,17.809858 C50.6271503,17.2638796 51.650259,16.9908945 52.8040905,16.9908945 C53.6514355,16.9908945 54.3996119,17.1497222 55.0486422,17.4673824 C55.6976724,17.7850425 56.1889449,18.2416721 56.5224743,18.8372849 L54.940471,20.2667485 C54.4356697,19.4527443 53.6739721,19.0457484 52.6553552,19.0457484 C51.9612534,19.0457484 51.3482896,19.2244295 50.8164453,19.5817972 C50.2846011,19.9391649 49.8722027,20.4255747 49.5792376,21.0410413 C49.2862726,21.6565078 49.1397923,22.3414523 49.1397923,23.0958951 C49.1397923,23.8999724 49.3719073,24.5377649 49.8361442,25.0092917 C50.3003811,25.4808185 50.9516551,25.7165784 51.7899858,25.7165784 C52.7905741,25.7165784 53.6288923,25.3145457 54.3049654,24.5104685 L55.6030194,25.9697125 C54.6655313,27.170865 53.3314336,27.7714322 51.6006863,27.7714322 C50.6541839,27.7714322 49.8271334,27.5828243 49.1195102,27.2056029 Z M56.9863869,27.2651639 C56.4320069,26.9673575 56.0038337,26.5479531 55.7018543,26.0069381 C55.399875,25.4659232 55.2488876,24.8380574 55.2488876,24.1233221 C55.2488876,23.2398298 55.4381852,22.4456913 55.8167862,21.7408828 C56.1953872,21.0360743 56.7182093,20.4801774 57.3852681,20.0731753 C58.052327,19.6661732 58.8050105,19.4626752 59.6433412,19.4626752 C60.3825145,19.4626752 61.0270279,19.6115762 61.5769008,19.9093826 C62.1267736,20.207189 62.5526933,20.6265934 62.8546726,21.1676084 C63.156652,21.7086233 63.3076394,22.3364891 63.3076394,23.0512244 C63.3076394,23.9347167 63.1205953,24.7288552 62.7465015,25.4336637 C62.3724077,26.1384722 61.8495856,26.6943691 61.1780196,27.1013712 C60.5064536,27.5083733 59.7515165,27.7118713 58.9131858,27.7118713 C58.1830268,27.7118713 57.5407669,27.5629703 56.9863869,27.2651639 Z M60.1436328,25.4559991 C60.4681479,25.2326443 60.7205448,24.9224339 60.900831,24.5253587 C61.0811171,24.1282835 61.1712589,23.6716539 61.1712589,23.1554561 C61.1712589,22.6094777 61.0270321,22.1776649 60.7385742,21.8600048 C60.4501163,21.5423446 60.0444785,21.3835169 59.5216486,21.3835169 C59.1069904,21.3835169 58.7374093,21.4951926 58.4128942,21.7185474 C58.0883791,21.9419022 57.8359822,22.2521126 57.655696,22.6491878 C57.4754098,23.046263 57.3852681,23.5028926 57.3852681,24.0190904 C57.3852681,24.5650688 57.5317484,24.9968816 57.8247135,25.3145417 C58.1176785,25.6322019 58.5255699,25.7910296 59.0483998,25.7910296 C59.4540437,25.7910296 59.8191177,25.6793539 60.1436328,25.4559991 Z M72.3238348,16.5441871 L70.3226682,27.5927493 L68.3215017,27.5927493 L68.470237,26.788676 C67.857264,27.4041426 67.1135947,27.7118713 66.2392067,27.7118713 C65.6713053,27.7118713 65.1484832,27.5679337 64.6707248,27.2800541 C64.1929665,26.9921746 63.8121176,26.5777336 63.5281669,26.0367186 C63.2442162,25.4957037 63.1022429,24.8579112 63.1022429,24.1233221 C63.1022429,23.2398298 63.2802729,22.4432096 63.6363381,21.7334377 C63.9924033,21.0236658 64.4769151,20.4677688 65.0898881,20.0657302 C65.7028611,19.6636916 66.3789241,19.4626752 67.1180974,19.4626752 C67.6499417,19.4626752 68.1164251,19.5619426 68.5175619,19.7604802 C68.9186986,19.9590178 69.2364482,20.2518563 69.4708203,20.6390046 L70.214497,16.5441871 L72.3238348,16.5441871 Z M67.9969882,25.4559991 C68.3215033,25.2326443 68.5739001,24.9224339 68.7541863,24.5253587 C68.9344725,24.1282835 69.0246142,23.6716539 69.0246142,23.1554561 C69.0246142,22.6094777 68.8781339,22.1776649 68.5851689,21.8600048 C68.2922038,21.5423446 67.8843125,21.3835169 67.3614826,21.3835169 C66.9468244,21.3835169 66.5772432,21.4951926 66.2527281,21.7185474 C65.928213,21.9419022 65.6758161,22.2521126 65.49553,22.6491878 C65.3152438,23.046263 65.2251021,23.5028926 65.2251021,24.0190904 C65.2251021,24.5650688 65.3715824,24.9968816 65.6645474,25.3145417 C65.9575124,25.6322019 66.3654038,25.7910296 66.8882337,25.7910296 C67.3028919,25.7910296 67.672473,25.6793539 67.9969882,25.4559991 Z M79.0278715,24.2126636 L73.4570565,24.2126636 C73.5291709,25.3046204 74.155656,25.8505906 75.3365305,25.8505906 C75.7061171,25.8505906 76.0599234,25.7860668 76.39796,25.6570174 C76.7359966,25.5279679 77.0312108,25.3443234 77.2836114,25.1060783 L78.1625021,26.6397736 C77.7568583,26.9971413 77.2926283,27.265163 76.7697984,27.4438468 C76.2469685,27.6225307 75.6971039,27.7118713 75.1201881,27.7118713 C74.3720005,27.7118713 73.7162194,27.565452 73.1528251,27.272609 C72.5894308,26.9797661 72.1567504,26.5603617 71.8547711,26.0143833 C71.5527917,25.4684049 71.4018043,24.8380574 71.4018043,24.1233221 C71.4018043,23.2398298 71.5843414,22.4432096 71.9494209,21.7334377 C72.3145004,21.0236658 72.8215476,20.4677688 73.4705779,20.0657302 C74.1196081,19.6636916 74.8587703,19.4626752 75.6880867,19.4626752 C76.3912028,19.4626752 77.0019131,19.6066128 77.5202359,19.8944924 C78.0385586,20.1823719 78.4396893,20.5943312 78.7236401,21.1303827 C79.0075908,21.6664343 79.149564,22.286855 79.149564,22.9916634 C79.149564,23.358958 79.1090002,23.765954 79.0278715,24.2126636 Z M74.3359472,21.6440962 C73.9934035,21.9369392 73.7500208,22.3414535 73.6057918,22.8576512 L77.2160045,22.8576512 C77.2160045,22.3414535 77.0695241,21.9369392 76.7765591,21.6440962 C76.4835941,21.3512533 76.089224,21.204834 75.593437,21.204834 C75.09765,21.204834 74.6784909,21.3512533 74.3359472,21.6440962 Z" id="Master-Card-Secure-C"></path>
                </g>
            </g>
        </g>
    </g>
</svg>