<?xml version="1.0" encoding="UTF-8"?>
<svg width="80px" height="80px" viewBox="0 0 80 80" version="1.1" xmlns="http://www.w3.org/2000/svg" xmlns:xlink="http://www.w3.org/1999/xlink">
    <!-- Generator: Sketch 51.3 (57544) - http://www.bohemiancoding.com/sketch -->
    <title>Group 8 Copy 21</title>
    <desc>Created with Sketch.</desc>
    <defs></defs>
    <g id="Page-1" stroke="none" stroke-width="1" fill="none" fill-rule="evenodd">
        <g id="m7-withdraw-balance-0-1366-copy" transform="translate(-193.000000, -637.000000)">
            <g id="Group-8-Copy-21" transform="translate(193.000000, 637.000000)">
                <rect id="Mask" fill="#F0F2F5" x="0" y="0" width="80" height="80" rx="40"></rect>
                <g id="Group-27" transform="translate(18.000000, 23.000000)" fill="#0071BC">
                    <path d="M35.482378,12.9441325 L35.482378,6.380352 L38.2511585,6.4098642 C39.4155488,6.41724224 39.579202,8.32346176 39.4718902,10.9534008 C39.4470732,11.58523 39.1854878,12.257974 38.7461585,12.9441325 L42.7651776,12.9441325 C43.2038415,11.1197422 43.2957317,9.00291298 43.2038415,6.61913249 C43.1112805,4.36144978 41.9126829,0.422913217 39.6670732,0.430291266 L31.5176829,0.399437607 L31.5176829,12.9441325 L35.482378,12.9441325 Z" id="path3579"></path>
                    <path d="M39.2398171,21.047913 C39.7757317,21.7937666 40.0976776,22.980291 40.0621341,24.6745593 C40.0433537,25.5860837 39.0627439,27.5171203 38.1378049,27.5171203 L35.4213415,27.5171203 L35.4213415,21.047913 L31.5176829,21.047913 L31.5176829,20.6870593 L31.5176829,33.3290105 L39.0801829,33.3290105 C42.6001829,33.3290105 45.0604268,29.1087666 43.3668293,21.047913 L39.2398171,21.047913 Z" id="path3581"></path>
                    <path d="M43.2695732,20.6676081 C43.2541463,20.607913 43.2360366,20.5207179 43.2078659,20.4174252 L31.494202,20.4174252 L31.494202,20.6676081 L43.2695732,20.6676081 Z" id="path3583"></path>
                    <path d="M43.0938415,20.030413 C43.0676829,19.9700471 43.0314634,19.8841935 43.0073171,19.7815715 L31.4767683,19.7815715 L31.4767683,20.030413 L43.0938415,20.030413 Z" id="path3585"></path>
                    <path d="M42.8865854,19.3972422 C42.862439,19.315413 42.8175,19.2309008 42.8020732,19.1443764 L31.497561,19.1443764 L31.497561,19.3972422 L42.8865854,19.3972422 Z" id="path3587"></path>
                    <path d="M42.6920732,18.7607179 C42.6491463,18.6809008 42.6303659,18.5937057 42.5881098,18.5165715 L31.5317683,18.5165715 L31.5317683,18.7607179 L42.6920732,18.7607179 Z" id="path3589"></path>
                    <path d="M42.3996341,18.13023 C42.3801829,18.0430349 42.3379268,17.9591935 42.2963415,17.8793764 L31.5123117,17.8793764 L31.5123117,18.13023 L42.3996341,18.13023 Z" id="path3591"></path>
                    <path d="M42.0957927,17.445413 C42.0340854,17.3595593 41.9904878,17.2784008 41.9495732,17.1925471 L31.494202,17.1925471 L31.494202,17.445413 L42.0957927,17.445413 Z" id="path3593"></path>
                    <path d="M41.6859756,16.8088886 C41.6269512,16.7230349 41.542439,16.6438886 41.4787195,16.5580349 L31.4821341,16.5580349 L31.4821341,16.8088886 L41.6859756,16.8088886 Z" id="path3595"></path>
                    <path d="M41.6739024,16.1730349 C41.7181707,16.1113276 41.755061,16.0261447 41.7953049,15.9208398 L31.5056098,15.9208398 L31.5056098,16.1730349 L41.6739024,16.1730349 Z" id="path3597"></path>
                    <path d="M41.9428659,15.5365105 C41.9864634,15.475474 42.0226829,15.3949861 42.0461585,15.2930349 L31.4895122,15.2930349 L31.4895122,15.5365105 L41.9428659,15.5365105 Z" id="path3599"></path>
                    <path d="M42.24,14.905352 C42.2789024,14.8215105 42.3017073,14.7363276 42.3204878,14.6551691 L31.5123117,14.6551691 L31.5123117,14.905352 L42.24,14.905352 Z" id="path3601"></path>
                    <path d="M42.4559756,14.2701691 C42.4915244,14.1843154 42.5136585,14.1038276 42.5331098,14.0193154 L31.497561,14.0193154 L31.497561,14.2701691 L42.4559756,14.2701691 Z" id="path3603"></path>
                    <path d="M42.6672561,13.5846813 C42.6860366,13.4994983 42.7088415,13.4210227 42.7282927,13.3351691 L31.5056098,13.3351691 L31.5056098,13.5846813 L42.6672561,13.5846813 Z" id="path3605"></path>
                    <path d="M21.3889634,21.1015715 C22.5017073,26.0589496 24.4327439,27.830352 29.0124946,25.5337666 L29.0124946,32.6649861 C27.0304878,34.6932788 23.3186585,33.9447422 21.6793902,32.2571813 C19.1064634,29.6071203 18.0044512,25.9248032 17.3940854,21.1015715 L21.3889634,21.1015715 Z" id="path3607"></path>
                    <path d="M21.285,13.410291 L17.3156098,13.410291 C17.3156098,13.2701081 17.3156098,13.1124861 17.3457927,13.0340105 L21.3641463,13.0340105 C22.5017073,7.40053492 25.279878,5.79279102 29.0124946,8.16181541 L29.0728659,1.12047416 L28.8776829,0.970230261 C24.31,-1.20294047 21.3514024,0.329010776 19.3539634,5.01943758 C18.3934756,7.2858398 17.6308537,9.96407151 17.3156098,13.0340105 L17.3156098,13.410291 L21.285,13.410291 Z" id="path3609"></path>
                    <path d="M21.2970732,20.7239496 C21.2970732,20.6387666 21.2709146,20.560291 21.2709146,20.4737666 L17.3223171,20.4737666 C17.3377439,20.5770593 17.3377439,20.6635837 17.362561,20.7239496 L21.2970732,20.7239496 Z" id="path3611"></path>
                    <path d="M21.2145732,20.0907788 C21.1991463,20.0049252 21.1991463,19.9264496 21.1991463,19.8405959 L17.2679878,19.8405959 C17.2854268,19.9445593 17.2854268,20.0297422 17.2854268,20.0907788 L21.2145732,20.0907788 Z" id="path3613"></path>
                    <path d="M21.154878,19.4576081 C21.154878,19.3764496 21.1320732,19.2932788 21.1320732,19.2074252 L17.1989024,19.2074252 C17.2237195,19.3113886 17.2237195,19.3972422 17.2237195,19.4576081 L21.154878,19.4576081 Z" id="path3615"></path>
                    <path d="M21.1434756,18.8237666 C21.1434756,18.7459618 21.127378,18.6594374 21.127378,18.5816325 L17.2116463,18.5816325 C17.2116463,18.6855959 17.2357927,18.7634008 17.2357927,18.8237666 L21.1434756,18.8237666 Z" id="path3617"></path>
                    <polygon id="path3619" points="21.0831098 17.9471203 17.1747561 17.9471203 17.1747561 18.1966325 21.0831098 18.1966325"></polygon>
                    <polygon id="path3621" points="21.0898171 17.2636447 17.1559756 17.2636447 17.1559756 17.5158398 21.0898171 17.5158398"></polygon>
                    <polygon id="path3623" points="21.0764024 16.6324861 17.1452439 16.6324861 17.1452439 16.8819983 21.0764024 16.8819983"></polygon>
                    <path d="M21.0831098,16.2488276 C21.102561,16.170352 21.102561,16.0838276 21.102561,15.997974 L17.1479268,15.997974 L17.1479268,16.2488276 L21.0831098,16.2488276 Z" id="path3625"></path>
                    <path d="M21.102561,15.6156569 C21.102561,15.5358398 21.102561,15.4513276 21.12,15.3721813 L17.1479268,15.3721813 C17.1479268,15.4513276 17.1479268,15.5358398 17.1257927,15.6156569 L21.102561,15.6156569 Z" id="path3627"></path>
                    <path d="M21.1696341,14.9865105 C21.1696341,14.9033398 21.1917683,14.8174861 21.1917683,14.7369983 L17.1989024,14.7369983 C17.1747561,14.8174861 17.1747561,14.9033398 17.1747561,14.9865105 L21.1696341,14.9865105 Z" id="path3629"></path>
                    <path d="M21.2145732,14.3546813 C21.2145732,14.2674861 21.2427439,14.1896813 21.2427439,14.1038276 L17.2237195,14.1038276 C17.2237195,14.1896813 17.2237195,14.2674861 17.2042683,14.3546813 L21.2145732,14.3546813 Z" id="path3631"></path>
                    <path d="M21.3031098,13.6718764 C21.319878,13.5866935 21.319878,13.5082179 21.319878,13.4230349 L17.2887805,13.4230349 C17.2887805,13.5082179 17.2887805,13.5866935 17.2706707,13.6718764 L21.3031098,13.6718764 Z" id="path3633"></path>
                    <polygon id="path3635" points="2.09 21.1015715 6.21835366 21.1015715 4.20615854 33.3290105 0 33.3290105"></polygon>
                    <polygon id="path3637" points="6.27268293 20.7420593 2.16713415 20.7420593 6.2954878 20.7420593"></polygon>
                    <polygon id="path3639" points="10.717622 21.1015715 14.6809756 21.1015715 17.0077439 33.3290105 13.1289024 33.3290105"></polygon>
                    <path d="M14.6031707,20.7420593 L10.6934756,20.7420593 L14.6031707,20.7420593 Z" id="path3641"></path>
                    <polygon id="path3643" points="13.3676829 13.0340105 9.41439024 13.0340105 8.5122561 7.92370566 7.62286585 13.0340105 3.65481707 13.0340105 5.92591463 0.378644924 11.1361585 0.378644924"></polygon>
                    <polygon id="path3645" points="14.6333537 20.7239496 14.5890854 20.4737666 2.16713415 20.4737666 2.12689024 20.7239496"></polygon>
                    <polygon id="path3647" points="14.5360976 20.0907788 14.4945122 19.8405959 2.29591463 19.8405959 2.25164634 20.0907788"></polygon>
                    <polygon id="path3649" points="14.3905488 19.4576081 14.3469512 19.2074252 2.41865854 19.2074252 2.35695122 19.4576081"></polygon>
                    <polygon id="path3651" points="14.337561 18.8237666 14.2993293 18.5816325 2.57628049 18.5816325 2.53939024 18.8237666"></polygon>
                    <polygon id="path3653" points="14.1933537 18.1966325 14.1517683 17.9471203 2.66146341 17.9471203 2.61853659 18.1966325"></polygon>
                    <polygon id="path3655" points="14.0967683 17.5158398 14.0538415 17.2636447 2.78756098 17.2636447 2.7520122 17.5158398"></polygon>
                    <polygon id="path3657" points="14.0001829 16.8819983 13.9565854 16.6324861 2.92304878 16.6324861 2.87878049 16.8819983"></polygon>
                    <polygon id="path3659" points="13.9015854 16.2488276 13.8593293 15.997974 3.03371951 15.997974 2.97067073 16.2488276"></polygon>
                    <polygon id="path3661" points="13.7546951 15.6156569 13.7117683 15.3721813 3.11286585 15.3721813 3.06926829 15.6156569"></polygon>
                    <polygon id="path3663" points="13.6594512 14.9865105 13.6158537 14.7369983 3.28859756 14.7369983 3.24432927 14.9865105"></polygon>
                    <polygon id="path3665" points="13.5621951 14.3546813 13.5192683 14.1038276 3.41469512 14.1038276 3.37310976 14.3546813"></polygon>
                    <polygon id="path3667" points="13.509878 13.6718764 13.4689634 13.4230349 3.56829268 13.4230349 3.52335366 13.6544374 7.53835366 13.6544374 7.53835366 13.6718764 9.54182927 13.6718764 9.52237805 13.6544374 9.54182927 13.6718764 13.509878 13.6718764 13.4944512 13.6544374 9.52237805 13.6544374 13.4944512 13.6544374"></polygon>
                    <polygon id="path3669" points="3.52335366 13.6718764 7.53835366 13.6718764 7.53835366 13.6544374 3.52335366 13.6544374"></polygon>
                    <path d="M3.50792683,13.6718764 L3.52335366,13.6718764 L3.50792683,13.6718764 Z" id="path3671"></path>
                </g>
            </g>
        </g>
    </g>
</svg>