<?xml version="1.0" encoding="UTF-8"?>
<svg width="80px" height="80px" viewBox="0 0 80 80" version="1.1" xmlns="http://www.w3.org/2000/svg" xmlns:xlink="http://www.w3.org/1999/xlink">
    <!-- Generator: Sketch 51.3 (57544) - http://www.bohemiancoding.com/sketch -->
    <title>Group 8 Copy 14</title>
    <desc>Created with Sketch.</desc>
    <defs></defs>
    <g id="Page-1" stroke="none" stroke-width="1" fill="none" fill-rule="evenodd">
        <g id="m7-withdraw-balance-0-1366-copy" transform="translate(-303.000000, -417.000000)">
            <g id="Group-8-Copy-14" transform="translate(303.000000, 417.000000)">
                <rect id="Mask" fill="#F0F2F5" x="0" y="0" width="80" height="80" rx="40"></rect>
                <g id="Group-19" transform="translate(40.000000, 39.538462) scale(1, -1) translate(-40.000000, -39.538462) translate(19.000000, 27.038462)">
                    <path d="M16.1538462,9.28846154 C15.2754808,8.27076923 13.9811538,7.62764423 12.5303365,7.62764423 C9.89322115,7.62764423 7.756875,9.76298077 7.756875,12.4000962 C7.756875,15.0362019 9.89322115,17.1725481 12.5303365,17.1725481 C15.1674519,17.1725481 17.3058173,15.0362019 17.3058173,12.4000962 L17.3058173,0.240288462 L24.6992308,0.240288462 L24.6931731,12.3496154 C24.6931731,19.0686058 19.2483173,24.5124519 12.5303365,24.5124519 C5.81538462,24.5124519 0.370528846,19.0686058 0.370528846,12.3496154 C0.370528846,5.63264423 5.81538462,0.188798077 12.5303365,0.188798077 C13.7893269,0.188798077 15.0049038,0.379615385 16.1477885,0.737019231 L16.1538462,9.28846154 Z" id="path204" fill="#ED1C24" fill-rule="nonzero"></path>
                    <path d="M28.1095096,0.291173077 C28.6365288,0.221509615 29.1766731,0.185163462 29.7198462,0.185163462 C36.4368173,0.185163462 41.8806635,5.63001923 41.8806635,12.3449712 C41.8806635,19.0629519 36.4368173,24.5088173 29.7198462,24.5088173 C26.782875,24.5088173 24.0831635,23.4638654 21.979125,21.7263173 L21.9932596,21.6990577 C23.8247019,19.8373269 25.1089327,17.4384808 25.5885,14.7619904 L25.6066731,14.7690577 C26.4375865,16.1784808 27.9691731,17.1194423 29.7198462,17.1194423 C32.3589808,17.1194423 34.4953269,14.9830962 34.4953269,12.3449712 C34.4953269,9.71189423 32.3589808,7.57150962 29.7198462,7.57150962 C29.1534519,7.57150962 28.6092692,7.67146154 28.1004231,7.85521154 L28.1095096,0.291173077 Z" id="path212" fill="#ED1C24" fill-rule="nonzero"></path>
                    <path d="M16.1538462,9.28846154 C15.2754808,8.27076923 13.9811538,7.62764423 12.5303365,7.62764423 C9.89322115,7.62764423 7.756875,9.76298077 7.756875,12.4000962 C7.756875,15.0362019 9.89322115,17.1725481 12.5303365,17.1725481 C15.1674519,17.1725481 17.3058173,15.0362019 17.3058173,12.4000962 L17.3058173,0.240288462 L24.6992308,0.240288462 L24.6931731,12.3496154 C24.6931731,19.0686058 19.2483173,24.5124519 12.5303365,24.5124519 C5.81538462,24.5124519 0.370528846,19.0686058 0.370528846,12.3496154 C0.370528846,5.63264423 5.81538462,0.188798077 12.5303365,0.188798077 C13.7893269,0.188798077 15.0049038,0.379615385 16.1477885,0.737019231 L16.1538462,9.28846154 Z" id="path208" stroke="#ED1C24" stroke-width="0.5"></path>
                    <path d="M28.1095096,0.291173077 C28.6365288,0.221509615 29.1766731,0.185163462 29.7198462,0.185163462 C36.4368173,0.185163462 41.8806635,5.63001923 41.8806635,12.3449712 C41.8806635,19.0629519 36.4368173,24.5088173 29.7198462,24.5088173 C26.782875,24.5088173 24.0831635,23.4638654 21.979125,21.7263173 L21.9932596,21.6990577 C23.8247019,19.8373269 25.1089327,17.4384808 25.5885,14.7619904 L25.6066731,14.7690577 C26.4375865,16.1784808 27.9691731,17.1194423 29.7198462,17.1194423 C32.3589808,17.1194423 34.4953269,14.9830962 34.4953269,12.3449712 C34.4953269,9.71189423 32.3589808,7.57150962 29.7198462,7.57150962 C29.1534519,7.57150962 28.6092692,7.67146154 28.1004231,7.85521154 L28.1095096,0.291173077 Z" id="path216" stroke="#ED1C24" stroke-width="0.5"></path>
                </g>
            </g>
        </g>
    </g>
</svg>