<?xml version="1.0" encoding="UTF-8" standalone="no"?>
<svg width="80px" height="80px" viewBox="0 0 80 80" version="1.1" xmlns="http://www.w3.org/2000/svg" xmlns:xlink="http://www.w3.org/1999/xlink">
    <!-- Generator: Sketch 49.2 (51160) - http://www.bohemiancoding.com/sketch -->
    <title>bancontact_r</title>
    <desc>Created with Sketch.</desc>
    <defs></defs>
    <g id="Page-1" stroke="none" stroke-width="1" fill="none" fill-rule="evenodd">
        <g id="m7-withdraw-balance-0-1366" transform="translate(-1073.000000, -867.000000)">
            <g id="bancontact_r" transform="translate(1073.000000, 867.000000)">
                <g id="Group-8-Copy-12" fill="#F0F2F5">
                    <rect id="Mask" x="0" y="0" width="80" height="80" rx="40"></rect>
                </g>
                <g id="mister_cash-copy-3" transform="translate(18.000000, 31.000000)">
                    <path d="M39.1352898,4.81541931 L37.0818489,4.81541931 L27.5919834,4.81541931 L25.5385424,4.81541931 L24.1557369,6.39389582 L19.6684401,11.5157077 L19.6684401,11.5158838 L18.2856346,13.0941842 L16.2320198,13.0941842 L6.92219537,13.0941842 L4.86858062,13.0941842 L6.23001059,11.4957983 L6.87440456,10.7392431 L8.23583453,9.14085724 L6.18221978,9.14085724 L3.53599893,9.14085724 L2.05361475,9.14085724 C0.924187462,9.14085724 0,10.1016154 0,11.2757384 L0,11.2759145 L0,15.3987352 L0,15.7803604 C0,16.9546596 0.924187462,17.9154177 2.05361475,17.9154177 L2.63058022,17.9154177 L24.1771124,17.9154177 L25.7218854,17.9154177 C26.8513126,17.9154177 28.3941739,17.2018526 29.1504853,16.3297175 L32.7306255,12.2012587 L39.1352898,4.81541931 Z" id="Fill-1" fill="#005596"></path>
                    <path d="M41.8671345,1.76188917e-05 C42.9965617,1.76188917e-05 43.9207492,0.960775787 43.9207492,2.13507492 L43.9207492,6.63952079 C43.9207492,7.81364374 42.9965617,8.7745781 41.8671345,8.7745781 L40.7530002,8.7745781 L37.7586885,8.7745781 L35.7050737,8.7745781 L37.0793638,7.18817308 L37.0795375,7.18817308 L37.7609477,6.40166575 L39.1352377,4.81543693 L25.5386641,4.81543693 L18.2857562,13.1001922 L4.78545936,13.1001922 L14.4671833,2.00152372 L14.8335216,1.58148934 C15.5924397,0.711644657 17.1373864,1.76188917e-05 18.2668137,1.76188917e-05 L18.7436791,1.76188917e-05 L41.8671345,1.76188917e-05 Z" id="Fill-3" fill="#FFDC00"></path>
                </g>
            </g>
        </g>
    </g>
</svg>