<?xml version="1.0" encoding="UTF-8"?>
<svg width="80px" height="80px" viewBox="0 0 80 80" version="1.1" xmlns="http://www.w3.org/2000/svg" xmlns:xlink="http://www.w3.org/1999/xlink">
    <!-- Generator: Sketch 51.3 (57544) - http://www.bohemiancoding.com/sketch -->
    <title>Group 9</title>
    <desc>Created with Sketch.</desc>
    <defs></defs>
    <g id="Page-1" stroke="none" stroke-width="1" fill="none" fill-rule="evenodd">
        <g id="m7-withdraw-balance-0-1366-copy" transform="translate(-193.000000, -307.000000)">
            <g id="Group-9" transform="translate(193.000000, 307.000000)">
                <g id="Group-8-Copy-4">
                    <rect id="Mask" fill="#F0F2F5" x="0" y="0" width="80" height="80" rx="40"></rect>
                    <g id="Group-16" transform="translate(21.000000, 31.000000)" fill="#0060AF" fill-rule="nonzero">
                        <path d="M28.6920219,1.7498124 L26.3542839,5.99289358 C25.4719104,5.27640191 24.3944383,4.74902758 23.0197113,4.74902758 C19.7664571,4.74902758 18.4450313,7.17406693 18.4450313,8.88226874 C18.4450313,10.1502222 19.2753001,12.0210553 22.1699672,12.0210553 C23.3849623,12.0210553 25.1122971,11.175759 25.6094334,10.7912069 L23.2973224,15.7138836 C22.1952507,15.9337529 21.8332467,16.0700776 20.900305,16.0989497 C15.7193231,16.253559 13.6257124,13.0708627 13.62725,9.81862791 C13.6306723,5.5193326 17.4531506,0.290691186 23.7898464,0.290691186 C24.1781588,0.290691186 24.6530869,0.424969698 25.0591664,0.573768302 L25.4695178,0.0489564884" id="path46"></path>
                        <path d="M38.3380049,0.182039 L39,15.6038613 L34.0733954,15.6038613 L34.0704871,12.9589539 L30.7111426,12.9589539 L29.6054841,15.6038613 L24.2625488,15.6038613 L29.8484148,4.5913536 L28.5888315,4.58315333 L30.982091,0.182039 L38.3380049,0.182039 Z M34.0385452,4.89988563 L32.1391762,9.38555498 L34.0957748,9.38555498 L34.0385452,4.89988563 Z" id="path48"></path>
                        <path d="M10.5169861,0.182039 C12.9567142,0.195705326 14.3353709,1.52003588 14.3353709,3.43307658 C14.3353709,5.19662967 12.8813747,6.75774042 11.2852413,7.5649467 C12.928526,8.1690186 13.070662,9.65189474 13.070662,10.701005 C13.070662,13.2355455 10.5274079,15.6038613 7.22153507,15.6038613 L0.0118614419,15.6038613 L2.82418409,4.74476056 L1.66898233,4.73809791 L4.03046619,0.182039 C4.03046619,0.182039 8.53305307,0.168371465 10.5169861,0.182039 Z M8.12338558,6.43467893 C8.62803953,6.43467893 9.51912544,6.30689679 9.74189767,5.33021586 C9.98602377,4.27000872 9.14977609,4.24147463 8.74864991,4.24147463 L7.31532493,4.23519653 L6.81545558,6.43473033 L8.12338558,6.43467893 Z M6.09691414,9.15988344 L5.43696884,11.6944227 L7.12467056,11.6944227 C7.7887154,11.6944227 8.69364056,11.3648757 8.9153867,10.5400771 C9.13440102,9.71288349 8.50178958,9.15988344 7.84013674,9.15988344 L6.09691414,9.15988344 Z" id="path50"></path>
                    </g>
                    <g id="Group-11" transform="translate(17.000000, 16.000000)" fill-rule="nonzero">
                        <g id="#e7cb00ff" transform="translate(23.564356, 0.000000)" fill="#E7CB00">
                            <path d="M0.308415842,3.47227723 C3.88118812,2.00643564 7.55792079,0.564851485 11.4356436,0.214851485 C11.2381188,0.346534653 11.0267327,0.45049505 10.8014851,0.51980198 C7.47128713,1.42079208 4.26237624,2.73762376 1.21980198,4.35940594 C1.01881188,4.16188119 0.616831683,3.77376238 0.415841584,3.57623762 L0.308415842,3.47227723 Z" id="Shape"></path>
                        </g>
                        <g id="#f3c302ff" transform="translate(18.366337, 3.465347)" fill="#F3C302">
                            <path d="M1.1019802,2.36683168 C2.56782178,1.55247525 4.00594059,0.623762376 5.61386139,0.110891089 C5.81485149,0.308415842 6.21683168,0.696534653 6.41782178,0.894059406 C5.57574257,1.36188119 4.73019802,1.81930693 3.90891089,2.32178218 C3.28861386,2.7029703 2.69257426,3.11881188 2.07920792,3.50693069 C2.04108911,3.52425743 1.96138614,3.55891089 1.92326733,3.57623762 C1.30643564,3.44455446 0.71039604,3.22970297 0.142079208,2.95940594 C0.381188119,2.81039604 0.862871287,2.51584158 1.1019802,2.36683168 Z" id="Shape"></path>
                        </g>
                        <g id="#373e7fff" transform="translate(0.000000, 30.148515)" fill="#373E7F">
                            <path d="M2.30792079,1.55940594 C2.44653465,1.12277228 2.58514851,0.686138614 2.71336634,0.246039604 C2.74455446,1.21287129 2.98712871,2.14851485 3.2990099,3.05990099 C3.21584158,3.2019802 3.0460396,3.48960396 2.96287129,3.63168317 C2.13118812,3.49306931 1.29950495,3.33712871 0.474752475,3.15693069 L0.391584158,3.13613861 C0.304950495,2.61980198 0.211386139,2.10693069 0.117821782,1.59059406 C0.845544554,1.56287129 1.57673267,1.55247525 2.30792079,1.55940594 Z" id="Shape"></path>
                        </g>
                        <g id="#f79901ff" transform="translate(15.247525, 6.237624)" fill="#F79901">
                            <path d="M1.8019802,1.11237624 C2.27326733,0.783168317 2.76881188,0.485148515 3.26089109,0.187128713 C3.82920792,0.457425743 4.42524752,0.672277228 5.04207921,0.803960396 C4.06485149,1.41732673 3.15,2.11732673 2.22821782,2.80346535 C1.58366337,2.60247525 0.935643564,2.40148515 0.287623762,2.20049505 C0.80049505,1.85049505 1.29950495,1.47970297 1.8019802,1.11237624 Z" id="Shape"></path>
                        </g>
                        <g id="#f47305ff" transform="translate(13.168317, 8.316832)" fill="#F47305">
                            <path d="M0.155940594,1.85742574 C0.876732673,1.25792079 1.63564356,0.71039604 2.36683168,0.121287129 C3.01485149,0.322277228 3.66287129,0.523267327 4.30742574,0.724257426 C3.69752475,1.19207921 3.10148515,1.67376238 2.51237624,2.16930693 C1.72574257,2.06534653 0.939108911,1.96138614 0.155940594,1.85742574 Z" id="Shape"></path>
                        </g>
                        <g id="#1e0b0eff" transform="translate(1.386139, 32.920792)" fill="#1E0B0E">
                            <path d="M7.95990099,2.83811881 C11.2485149,2.60594059 14.429703,1.59752475 17.4480198,0.311881188 C14.5891089,2.47772277 11.279703,4.26930693 7.68267327,4.77178218 C5.01089109,5.13910891 2.16584158,4.31782178 0.280693069,2.34950495 C1.38960396,2.51237624 2.55742574,2.66138614 3.59009901,2.1 C4.95544554,2.71683168 6.46633663,2.95594059 7.95990099,2.83811881 Z" id="Shape"></path>
                        </g>
                        <g id="#e95406ff" transform="translate(11.782178, 10.049505)" fill="#E95406">
                            <path d="M0.204455446,1.2509901 C0.641089109,0.866336634 1.08811881,0.492079208 1.54207921,0.124752475 C2.32524752,0.228712871 3.11188119,0.332673267 3.89851485,0.436633663 C3.24009901,0.987623762 2.59207921,1.55594059 1.96138614,2.1450495 C1.37574257,1.84356436 0.79009901,1.54554455 0.204455446,1.2509901 Z" id="Shape"></path>
                        </g>
                        <g id="#e63109ff" transform="translate(9.702970, 11.089109)" fill="#E63109">
                            <path d="M0.173267327,2.21089109 C0.862871287,1.52821782 1.55940594,0.855940594 2.28366337,0.211386139 C2.86930693,0.505940594 3.4549505,0.803960396 4.04059406,1.10544554 C3.42722772,1.67722772 2.82079208,2.25594059 2.23514851,2.85891089 C1.5490099,2.64059406 0.859405941,2.42574257 0.173267327,2.21089109 Z" id="Shape"></path>
                        </g>
                        <g id="#e2150dff" transform="translate(4.158416, 13.168317)" fill="#E2150D">
                            <path d="M3.0980198,2.91435644 C3.93663366,1.95445545 4.81683168,1.03267327 5.71782178,0.131683168 C6.4039604,0.346534653 7.09356436,0.561386139 7.77970297,0.77970297 C5.80792079,2.8 3.8950495,4.90346535 2.31485149,7.24950495 L2.1450495,7.50594059 C1.40693069,7.48168317 0.7,7.25990099 0.045049505,6.92376238 C0.246039604,6.63960396 0.447029703,6.35544554 0.648019802,6.07475248 C0.80049505,5.85643564 0.956435644,5.63811881 1.11584158,5.42326733 C1.5490099,4.84455446 1.98910891,4.27277228 2.43960396,3.70792079 C2.65445545,3.44108911 2.87623762,3.17425743 3.0980198,2.91435644 Z" id="Shape"></path>
                        </g>
                        <g id="#b11120ff" transform="translate(2.425743, 19.752475)" fill="#B11120">
                            <path d="M1.77772277,0.33960396 C2.43267327,0.675742574 3.13960396,0.897524752 3.87772277,0.921782178 C3.38564356,1.66683168 2.92475248,2.42920792 2.4950495,3.21584158 C1.7049505,3.32326733 0.890594059,3.42722772 0.107425743,3.19158416 C0.53019802,2.16930693 1.17821782,1.26138614 1.77772277,0.33960396 Z" id="Shape"></path>
                        </g>
                        <g id="#84163fff" transform="translate(0.693069, 22.871287)" fill="#84163F">
                            <path d="M1.69108911,0.0415841584 L1.84009901,0.0727722772 C2.62326733,0.308415842 3.43762376,0.204455446 4.22772277,0.097029703 L4.13415842,0.266831683 C3.45841584,1.43118812 2.95247525,2.68217822 2.55742574,3.96782178 C1.71188119,3.96089109 0.86980198,3.93316832 0.0277227723,3.88118812 C0.495544554,2.56435644 1.11930693,1.31336634 1.69108911,0.0415841584 Z" id="Shape"></path>
                        </g>
                        <g id="#52236eff" transform="translate(0.000000, 26.683168)" fill="#52236E">
                            <path d="M0.720792079,0.0693069307 C1.56287129,0.121287129 2.4049505,0.149009901 3.25049505,0.155940594 C3.02178218,1.21980198 2.6509901,2.28712871 2.80346535,3.39257426 C1.94752475,2.92128713 0.977227723,2.92821782 0.0311881188,3.01831683 C0.27029703,2.03762376 0.412376238,1.03267327 0.720792079,0.0693069307 Z" id="Shape"></path>
                        </g>
                        <g id="#4a4c94ff" transform="translate(0.000000, 29.455446)" fill="#4A4C94">
                            <path d="M0.0311881188,0.246039604 C0.977227723,0.155940594 1.94752475,0.149009901 2.80346535,0.62029703 L2.71336634,0.939108911 C2.58514851,1.37920792 2.44653465,1.81584158 2.30792079,2.25247525 C1.57673267,2.24554455 0.845544554,2.25594059 0.117821782,2.28366337 L0.0103960396,2.29059406 C0.0103960396,1.60792079 0.0138613861,0.928712871 0.0311881188,0.246039604 Z" id="Shape"></path>
                        </g>
                        <g id="#391a39ff" transform="translate(0.346535, 32.920792)" fill="#391A39">
                            <path d="M0.128217822,0.384653465 C0.952970297,0.564851485 1.78465347,0.720792079 2.61633663,0.859405941 C2.69950495,0.717326733 2.86930693,0.42970297 2.95247525,0.287623762 C3.36485149,1.01881188 3.97475248,1.59059406 4.62970297,2.1 C3.5970297,2.66138614 2.42920792,2.51237624 1.32029703,2.34950495 C0.793564356,1.78118812 0.35,1.13663366 0.128217822,0.384653465 Z" id="Shape"></path>
                        </g>
                    </g>
                </g>
            </g>
        </g>
    </g>
</svg>