<?xml version="1.0" encoding="UTF-8"?>
<svg width="80px" height="80px" viewBox="0 0 80 80" version="1.1" xmlns="http://www.w3.org/2000/svg" xmlns:xlink="http://www.w3.org/1999/xlink">
    <!-- Generator: Sketch 51.3 (57544) - http://www.bohemiancoding.com/sketch -->
    <title>Group 8 Copy 29</title>
    <desc>Created with Sketch.</desc>
    <defs></defs>
    <g id="Page-1" stroke="none" stroke-width="1" fill="none" fill-rule="evenodd">
        <g id="m7-withdraw-balance-0-1366-copy" transform="translate(-303.000000, -527.000000)">
            <g id="Group-8-Copy-29" transform="translate(303.000000, 527.000000)">
                <rect id="Mask" fill="#F0F2F5" x="0" y="0" width="80" height="80" rx="40"></rect>
                <g id="Group-8" transform="translate(25.000000, 20.000000)">
                    <g id="Group-5-Copy" fill-rule="nonzero">
                        <g id="Group-4">
                            <polygon id="path544" fill="#790008" points="30.8442662 0.0457175397 0.567021673 0.0457175397 0.567021673 29.1159015 30.8442662 29.1159015"></polygon>
                            <g id="g546" transform="translate(3.955502, 14.214291)" fill="#FFFFFF">
                                <polygon id="path548" points="16.7989159 9.40826149 0.70135474 9.40826149 7.82549501 0.362890086 23.9230562 0.362890086"></polygon>
                            </g>
                            <g id="g550" transform="translate(4.079393, 5.169457)" fill="#ED1D24">
                                <polygon id="path552" points="23.7984642 9.40826149 7.70230296 9.40826149 0.57816269 0.368266236 16.674324 0.368266236"></polygon>
                            </g>
                        </g>
                    </g>
                    <path d="M5.27639383,42.7983393 L4.27995255,42.7983393 L4.27995255,33.8857256 L1,33.8857256 L1,33 L8.55634638,33 L8.55634638,33.8857256 L5.27639383,33.8857256 L5.27639383,42.7983393 Z M10.1419533,33 L11.1383946,33 L11.1383946,37.2487149 L16.480427,37.2487149 L16.480427,33 L17.4768683,33 L17.4768683,42.7983393 L16.480427,42.7983393 L16.480427,38.1621194 L11.1383946,38.1621194 L11.1383946,42.7983393 L10.1419533,42.7983393 L10.1419533,33 Z M20.1281139,42.7983393 L19.0347964,42.7983393 L23.2696718,33 L24.2384342,33 L28.4456307,42.7983393 L27.3384737,42.7983393 L26.2589957,40.2241993 L21.1937525,40.2241993 L20.1281139,42.7983393 Z M21.567418,39.3107948 L25.8853302,39.3107948 L23.7263741,34.107157 L21.567418,39.3107948 Z M31,42.7983393 L30.0035587,42.7983393 L30.0035587,33 L31,33 L31,42.7983393 Z" id="THAI" fill="#891F26"></path>
                </g>
            </g>
        </g>
    </g>
</svg>