<?xml version="1.0" encoding="UTF-8"?>
<svg width="80px" height="80px" viewBox="0 0 80 80" version="1.1" xmlns="http://www.w3.org/2000/svg" xmlns:xlink="http://www.w3.org/1999/xlink">
    <!-- Generator: Sketch 51.3 (57544) - http://www.bohemiancoding.com/sketch -->
    <title>Group 8 Copy 7</title>
    <desc>Created with Sketch.</desc>
    <defs></defs>
    <g id="Page-1" stroke="none" stroke-width="1" fill="none" fill-rule="evenodd">
        <g id="m7-withdraw-balance-0-1366-copy" transform="translate(-523.000000, -307.000000)">
            <g id="Group-8-Copy-7" transform="translate(523.000000, 307.000000)">
                <rect id="Mask" fill="#F0F2F5" x="0" y="0" width="80" height="80" rx="40"></rect>
                <g id="Group-5" transform="translate(25.000000, 20.000000)">
                    <g id="Group-4" fill-rule="nonzero">
                        <polygon id="path544" fill="#790008" points="30.8442662 0.0457175397 0.567021673 0.0457175397 0.567021673 29.1159015 30.8442662 29.1159015"></polygon>
                        <g id="g546" transform="translate(3.955502, 14.214291)" fill="#FFFFFF">
                            <polygon id="path548" points="16.7989159 9.40826149 0.70135474 9.40826149 7.82549501 0.362890086 23.9230562 0.362890086"></polygon>
                        </g>
                        <g id="g550" transform="translate(4.079393, 5.169457)" fill="#ED1D24">
                            <polygon id="path552" points="23.7984642 9.40826149 7.70230296 9.40826149 0.57816269 0.368266236 16.674324 0.368266236"></polygon>
                        </g>
                    </g>
                    <path d="M5.54572896,38.6233022 L5.56383943,38.6233022 L5.56383943,33.1629943 L6.21581649,33.1629943 L6.21581649,39.574102 L5.40084516,39.574102 L1.67008754,34.0594627 L1.65197706,34.0594627 L1.65197706,39.574102 L1,39.574102 L1,33.1629943 L1.81497133,33.1629943 L5.54572896,38.6233022 Z M9.09538183,39.574102 L8.44340477,39.574102 L8.44340477,33.1629943 L9.09538183,33.1629943 L9.09538183,39.574102 Z M11.2776939,39.574102 L10.5623302,39.574102 L13.3332327,33.1629943 L13.9670993,33.1629943 L16.7198913,39.574102 L15.9954724,39.574102 L15.2891639,37.889828 L11.9749472,37.889828 L11.2776939,39.574102 Z M12.2194386,37.2921823 L15.0446725,37.2921823 L13.6320555,33.8874132 L12.2194386,37.2921823 Z M22.8865077,34.3130094 C22.6631441,34.077572 22.3975264,33.8949599 22.0896468,33.7651675 C21.7817672,33.6353751 21.4286165,33.5704799 21.0301841,33.5704799 C20.619678,33.5704799 20.2499262,33.6459395 19.9209176,33.7968609 C19.591909,33.9477822 19.3127087,34.151523 19.0833082,34.4080893 C18.8539077,34.6646557 18.6773323,34.9619663 18.5535768,35.3000302 C18.4298213,35.6380941 18.3679445,35.9942632 18.3679445,36.3685482 C18.3679445,36.7428331 18.4298213,37.0990022 18.5535768,37.4370661 C18.6773323,37.77513 18.8539077,38.0709314 19.0833082,38.3244793 C19.3127087,38.5780272 19.591909,38.7802588 19.9209176,38.9311802 C20.2499262,39.0821016 20.619678,39.1575611 21.0301841,39.1575611 C21.3923954,39.1575611 21.7244174,39.1183222 22.0262602,39.0398431 C22.3281029,38.9613639 22.5725919,38.8617573 22.7597344,38.7410202 L22.7597344,36.7941443 L21.2656203,36.7941443 L21.2656203,36.2236644 L23.4117114,36.2236644 L23.4117114,39.112285 C23.0615739,39.3235749 22.6842761,39.4805307 22.2798068,39.5831573 C21.8753375,39.6857838 21.4557824,39.7370963 21.0211289,39.7370963 C20.5381805,39.7370963 20.0914599,39.6525816 19.6809538,39.4835497 C19.2704477,39.3145177 18.917297,39.0805931 18.6214911,38.7817688 C18.3256852,38.4829445 18.094779,38.1282846 17.9287655,37.7177785 C17.762752,37.3072723 17.6797464,36.8575334 17.6797464,36.3685482 C17.6797464,35.8795629 17.7642611,35.429824 17.9332931,35.0193178 C18.102325,34.6088117 18.3362496,34.2541518 18.6350739,33.9553275 C18.9338983,33.6565032 19.287049,33.4225786 19.6945367,33.2535466 C20.1020244,33.0845147 20.5442173,33 21.0211289,33 C21.5342615,33 21.9809821,33.0754596 22.361304,33.2263809 C22.7416258,33.3773023 23.0676111,33.588589 23.3392695,33.8602475 L22.8865077,34.3130094 Z M25.5578026,39.574102 L24.8424389,39.574102 L27.6133414,33.1629943 L28.247208,33.1629943 L31,39.574102 L30.275581,39.574102 L29.5692726,37.889828 L26.2550558,37.889828 L25.5578026,39.574102 Z M26.4995472,37.2921823 L29.3247812,37.2921823 L27.9121642,33.8874132 L26.4995472,37.2921823 Z" id="NIAGA" fill="#891F26"></path>
                </g>
            </g>
        </g>
    </g>
</svg>