<?xml version="1.0" encoding="UTF-8" standalone="no"?>
<svg width="80px" height="80px" viewBox="0 0 80 80" version="1.1" xmlns="http://www.w3.org/2000/svg" xmlns:xlink="http://www.w3.org/1999/xlink">
    <!-- Generator: Sketch 49.2 (51160) - http://www.bohemiancoding.com/sketch -->
    <title>fasapay_r</title>
    <desc>Created with Sketch.</desc>
    <defs></defs>
    <g id="Page-1" stroke="none" stroke-width="1" fill="none" fill-rule="evenodd">
        <g id="m7-withdraw-balance-0-1366" transform="translate(-853.000000, -867.000000)">
            <g id="fasapay_r" transform="translate(853.000000, 867.000000)">
                <g id="Group-8-Copy-10" fill="#F0F2F5">
                    <rect id="Mask" x="0" y="0" width="80" height="80" rx="40"></rect>
                </g>
                <path d="M33.8804711,53.5787105 C35.0396054,51.3907544 36.1528335,49.1780433 37.3750891,47.0262675 C38.0904624,45.7675739 37.6887822,45.4457597 36.3938417,45.2991342 C29.9822601,44.5774324 13.2398455,42.8636287 11,41.9933973 C20.0894498,41.9933973 28.7753066,42.0124395 37.4611634,41.9686423 C38.4538874,41.9648339 40.0892998,42.5684736 40.192589,41.0508052 C40.2595357,40.0472779 28.6356749,38.4572489 24.083299,37.2271187 C28.4711773,37.2271187 32.8571429,37.1909384 37.2431084,37.2499694 C38.5284852,37.2671074 39.5671155,37.1395243 39.9879233,35.7189714 C40.2690995,34.7706667 41.0055133,34.6430835 41.8930353,34.6411793 C42.5548513,34.639275 43.4002925,35.0239288 43.9511683,33.8375957 C35.1811499,32.7578994 26.5067697,31.6915326 17.8323895,30.6232616 C17.8381277,30.5071038 17.8457788,30.3890418 17.8515171,30.272884 C22.1514083,30.272884 26.4532123,30.272884 30.7531036,30.272884 C35.3762517,30.272884 40.0013127,30.2747882 44.6244609,30.2709798 C45.5502382,30.2690755 46.5850429,30.4594982 46.9369913,29.0960721 C40.1562465,28.262021 33.429059,27.4336825 26.6999587,26.6072482 C38.2855643,26.2206903 49.8539549,25.5903914 62,26.3749326 C60.7241871,28.1649054 59.7142482,29.6216386 58.6564903,31.0459999 C58.1496081,31.7296172 57.4208454,31.2649859 56.8030229,31.2497521 C54.2609609,31.1869126 53.2892773,31.862913 52.2678618,34.622137 C53.388741,34.622137 54.4560627,34.622137 55.8064734,34.622137 C54.8634812,36.7377325 54.025691,38.6191081 53.1859881,40.5004838 L53.2146795,40.460495 C53.0750478,40.502388 52.9239395,40.6014078 52.7976972,40.5766529 C49.014252,39.8435257 43.36395,51.5621347 41.8012227,54.7783731 C41.3134681,55.7838046 40.7702434,56.090385 39.611109,55.9780357 C33.4826164,55.3782044 22.6162097,54.8964351 16.480066,54.3746771 C26.2007276,53.8967163 30.2443086,54.0566713 33.8804711,53.5787105" id="Fill-1" fill="#FF9500"></path>
            </g>
        </g>
    </g>
</svg>