<?xml version="1.0" encoding="UTF-8"?>
<svg width="80px" height="80px" viewBox="0 0 80 80" version="1.1" xmlns="http://www.w3.org/2000/svg" xmlns:xlink="http://www.w3.org/1999/xlink">
    <!-- Generator: Sketch 51.3 (57544) - http://www.bohemiancoding.com/sketch -->
    <title>Group 8 Copy 13</title>
    <desc>Created with Sketch.</desc>
    <defs></defs>
    <g id="Page-1" stroke="none" stroke-width="1" fill="none" fill-rule="evenodd">
        <g id="m7-withdraw-balance-0-1366-copy" transform="translate(-193.000000, -417.000000)">
            <g id="Group-8-Copy-13" transform="translate(193.000000, 417.000000)">
                <rect id="Mask" fill="#F0F2F5" x="0" y="0" width="80" height="80" rx="40"></rect>
                <g id="g1622" transform="translate(25.000000, 18.000000)">
                    <g id="Group-20">
                        <path d="M14.3678426,21.9375814 C9.38100393,25.6793369 5.15206891,31.1097958 3.77874262,34.6671091 L0.671696644,32.3419294 C2.44253325,28.3265344 5.29694466,25.0851915 8.11543645,21.9375814 C14.2948061,15.1857916 24.5199208,11.3064605 29.0733296,11.4893907 L29.0733296,16.2334831 C26.5445893,16.0067101 20.0395485,17.648547 14.3678426,21.9375814" id="path1624" fill="#00529B"></path>
                        <path d="M9.30796849,38.9107895 L6.12908331,36.5856097 C10.8980097,27.5509711 19.8599516,20.2488786 29.0733307,19.7031114 L29.0733307,24.3549828 C21.4140732,24.8130643 13.5716258,30.5156509 9.30796849,38.9107895" id="path1628" fill="#00529B"></path>
                        <path d="M14.7641565,43.1998234 L11.5481544,40.7355562 C16.751708,32.1574873 22.8233189,28.6893713 29.0733304,27.7777436 L29.0733304,32.5702142 C25.063505,32.7032544 18.4507054,36.4011671 14.7641565,43.1998234" id="path1632" fill="#00529B"></path>
                        <path d="M11.5481544,3.36789211 L14.7641565,0.948979486 C16.2452416,3.68688621 18.2351878,5.87600214 20.2933813,7.56470552 C23.3645076,10.0289728 26.6535463,11.398682 29.0733304,11.533234 L29.0733304,16.2803501 C26.0752406,15.8237803 23.1477927,14.8184198 20.2933813,12.9467861 C17.2210576,10.9406005 14.2588873,7.83985683 11.5481544,3.36789211" id="path1636" fill="#CE1041" fill-rule="nonzero"></path>
                        <path d="M6.12788584,7.38328716 L9.30796835,5.1473048 C11.9097452,10.2103913 15.8848483,14.3648737 20.2933814,16.8729838 C23.1118732,18.5163325 26.1111603,19.4733148 29.0745279,19.7031115 L29.0745279,24.3549829 C26.0752407,24.1735644 23.1118732,23.2604249 20.2933814,21.845361 C14.4756024,18.8353266 9.34508527,13.5439552 6.12788584,7.38328716" id="path1640" fill="#CE1041" fill-rule="nonzero"></path>
                        <path d="M20.2933807,30.4249411 C16.1015626,28.6001739 11.5122342,25.7246915 8.11543677,22.0282907 C5.29814229,18.835326 2.44253356,15.5032739 0.671696955,11.5332335 L3.85177946,9.20654193 C5.15206922,12.7683908 9.38100424,18.2865352 14.367843,22.0736453 C16.3182776,23.5355756 18.3417488,24.6754882 20.2933807,25.5871159 C24.0517689,27.2743074 27.4114494,27.9621857 29.0745272,27.7777436 L29.0745272,32.521836 C27.0151364,32.6609235 23.7991343,31.8838478 20.2933807,30.4249411" id="path1644" fill="#CE1041" fill-rule="nonzero"></path>
                    </g>
                </g>
            </g>
        </g>
    </g>
</svg>