<?xml version="1.0" encoding="UTF-8"?>
<svg width="80px" height="80px" viewBox="0 0 80 80" version="1.1" xmlns="http://www.w3.org/2000/svg" xmlns:xlink="http://www.w3.org/1999/xlink">
    <!-- Generator: Sketch 51.3 (57544) - http://www.bohemiancoding.com/sketch -->
    <title>Group 8 Copy 20</title>
    <desc>Created with Sketch.</desc>
    <defs></defs>
    <g id="Page-1" stroke="none" stroke-width="1" fill="none" fill-rule="evenodd">
        <g id="m7-withdraw-balance-0-1366-copy" transform="translate(-963.000000, -417.000000)">
            <g id="Group-8-Copy-20" transform="translate(963.000000, 417.000000)">
                <rect id="Mask" fill="#F0F2F5" x="0" y="0" width="80" height="80" rx="40"></rect>
                <g id="#0080c6ff" transform="translate(20.000000, 22.000000)" fill="#0080C6" fill-rule="nonzero">
                    <path d="M16.9875753,0.207297765 C21.639453,-0.43855805 26.5292715,0.42605538 30.5742663,2.78290825 C34.1219914,4.82464599 37.0227313,7.9601718 38.6081126,11.6790513 C40.4635167,15.9838886 40.4635167,21.0127095 38.6107861,25.3201511 C36.9264855,29.2786222 33.7503759,32.5730077 29.8898522,34.6017242 C22.9601585,38.2945611 13.8649356,37.6903734 7.57153325,33.0131272 C3.75378535,30.2265719 1.01345511,26.0363219 0.248836135,21.4319949 C-0.51578284,17.0360086 0.50014447,12.3795965 3.04263624,8.6685298 C6.15725549,4.06420285 11.3946281,0.952115358 16.9875753,0.207297765 Z M12.5549241,4.67359907 C11.0497475,5.38456132 9.64616375,6.30646841 8.42437749,7.42109054 C7.79343316,7.96798458 7.53945133,8.81176395 7.56351277,9.61647946 C7.56885975,14.5958195 7.56618626,19.5777637 7.56618626,24.5571037 C9.95094195,24.5571037 12.3330241,24.5571037 14.7177798,24.5571037 C14.7177798,18.4553288 14.7177798,12.3509496 14.7151063,6.24917475 C14.6856979,5.47050181 14.9557207,4.72568421 14.9878026,3.95482405 C14.1242644,3.97565811 13.3222165,4.31681581 12.5549241,4.67359907 Z M25.3876901,5.9835405 C22.1073143,7.34296282 18.8429794,8.73884474 15.586665,10.158165 C15.586665,12.7181499 15.5839915,15.2781349 15.5893385,17.8407241 C20.7438329,15.5619989 25.8822863,13.2572312 31.0287601,10.9628805 C31.6115816,10.6998505 32.2425259,10.5071355 32.8948582,10.5644291 C33.3172701,10.512344 33.9963373,10.7909995 34.092583,10.1946246 C33.6273953,9.186777 32.7504896,8.43675089 31.9671562,7.66328647 C31.0448011,6.83513264 30.1037316,5.97833198 28.9541296,5.45748052 C27.7564048,4.98610995 26.4945161,5.53300398 25.3876901,5.9835405 Z M21.6448,16.1271228 C23.163344,18.9397207 24.7032759,21.7445058 26.2218199,24.5571037 C27.9141409,24.5466867 29.6091354,24.5727292 31.3014564,24.5571037 C32.8734703,24.7576315 34.0471336,22.9086088 33.1381461,21.6377312 C31.5367238,18.801695 29.9165871,15.9786801 28.3098178,13.1478524 C26.0854717,14.1374702 23.8664726,15.1349007 21.6448,16.1271228 Z M5.44877987,25.0909765 C5.26430886,25.9009005 5.95407003,26.5024839 6.38717588,27.1014631 C7.79075967,28.7786048 9.27989522,30.5573126 11.3973016,31.3906749 C12.3517386,31.8047518 13.4157888,31.796939 14.4397366,31.7891263 C18.6478144,31.7630837 22.8558923,31.8099603 27.0612966,31.7708965 C30.1304665,31.5703687 32.2184645,29.0442391 33.9963373,26.8748927 C34.3519118,26.351437 35.1753477,25.6040151 34.5230154,25.005036 C33.712947,25.1352488 32.9269401,25.4321342 32.0954838,25.4060916 C24.0723316,25.3982788 16.0491793,25.4060916 8.02602704,25.4034873 C7.14644787,25.450364 6.32568555,24.9842019 5.44877987,25.0909765 Z" id="Shape"></path>
                </g>
            </g>
        </g>
    </g>
</svg>