<?xml version="1.0" encoding="UTF-8"?>
<svg width="80px" height="80px" viewBox="0 0 80 80" version="1.1" xmlns="http://www.w3.org/2000/svg" xmlns:xlink="http://www.w3.org/1999/xlink">
    <!-- Generator: Sketch 51.3 (57544) - http://www.bohemiancoding.com/sketch -->
    <title>Group 8 Copy 24</title>
    <desc>Created with Sketch.</desc>
    <defs></defs>
    <g id="Page-1" stroke="none" stroke-width="1" fill="none" fill-rule="evenodd">
        <g id="m7-withdraw-balance-0-1366-copy" transform="translate(-523.000000, -637.000000)">
            <g id="Group-8-Copy-24" transform="translate(523.000000, 637.000000)">
                <rect id="Mask" fill="#F0F2F5" x="0" y="0" width="80" height="80" rx="40"></rect>
                <g id="Group-32" transform="translate(15.000000, 31.000000)" fill-rule="nonzero">
                    <path d="M0.211034483,0.133655172 C1.4877931,0.102 2.76103448,0.109034483 4.0377931,0.123103448 C4.01317241,2.47613793 4.04131034,4.82917241 4.01668966,7.18572414 C6.87972414,4.96282759 9.50006897,2.44096552 12.2751724,0.105517241 C14.0830345,0.119586207 15.8873793,0.123103448 17.6917241,0.0949655172 C14.7126207,2.77510345 11.5752414,5.27937931 8.64537931,8.01227586 C11.6209655,11.2973793 14.4628966,14.7055862 17.3927586,18.0328966 C15.9366207,18.0082759 14.4804828,18.0575172 13.0278621,18.0188276 C12.4932414,18.1102759 12.2153793,17.6002759 11.9058621,17.2766897 C9.91862069,14.9517931 7.85751724,12.6866897 5.8737931,10.3582759 C5.23717241,10.9034483 4.61110345,11.4662069 4.00965517,12.050069 C4.04834483,14.090069 4.00965517,16.1265517 4.03427586,18.1630345 C2.75751724,18.1489655 1.48075862,18.1595172 0.204,18.1384138 C0.249724138,12.138 0.235655172,6.13406897 0.211034483,0.133655172 Z" id="Shape" fill="#2BA3E0"></path>
                    <path d="M18.7785517,0.102 C23.8785517,0.130137931 28.9785517,0.109034483 34.0785517,0.112551724 C34.0715172,1.25213793 34.0785517,2.39172414 34.1172414,3.5277931 L33.9765517,3.48910345 C32.1581379,3.00724138 30.1251724,2.90172414 28.3208276,3.46448276 C28.2504828,8.31475862 28.1344138,13.1685517 28.1906897,18.0223448 C26.9174483,18.0258621 25.6477241,18.0258621 24.3744828,18.0293793 C24.3393103,13.1755862 24.4202069,8.32531034 24.5433103,3.47503448 C24.1493793,3.21124138 23.678069,3.15144828 23.2137931,3.15144828 C21.7224828,3.1197931 20.196,3.02834483 18.7398621,3.44337931 C18.7926207,2.33193103 18.7891034,1.21696552 18.7785517,0.102 Z" id="Shape" fill="#2BA3E0"></path>
                    <path d="M35.9497241,0.109034483 C38.8655172,0.130137931 41.7813103,0.102 44.6935862,0.116068966 C46.6843448,0.211034483 48.8931724,1.03406897 49.8252414,2.92282759 C50.7362069,4.66737931 50.679931,7.15406897 49.0162759,8.44137931 C50.300069,9.70758621 51.1336552,11.5576552 50.7608276,13.376069 C50.4653793,15.7466897 48.2671034,17.456069 46.0090345,17.8077931 C42.7837241,17.4666207 39.5373103,17.8464828 36.3049655,17.6037931 C36.0974483,14.2342759 36.5863448,10.826069 36.006,7.4882069 C35.8758621,5.03317241 35.9989655,2.56758621 35.9497241,0.109034483 Z M39.4845517,3.26751724 C39.3157241,4.60758621 39.3051724,5.96172414 39.4845517,7.3017931 C41.3627586,7.446 43.2831724,7.55151724 45.1543448,7.27717241 L45.3477931,6.96413793 C46.1637931,6.59834483 47.0149655,5.69441379 46.5823448,4.74827586 C46.4135172,4.12572414 45.7874483,3.81268966 45.2246897,3.6297931 L45.2668966,3.28862069 C43.3464828,3.07406897 41.4049655,3.08110345 39.4845517,3.26751724 Z M39.6674483,10.4321379 C39.6744828,11.8355172 39.6287586,13.245931 39.7166897,14.6493103 C41.7742759,14.4417931 43.9408966,14.9764138 45.9211034,14.2307586 C47.444069,13.6468966 47.4722069,11.205931 45.8542759,10.71 C43.8388966,10.2211034 41.7250345,10.506 39.6674483,10.4321379 Z" id="Shape" fill="#2BA3E0"></path>
                    <path d="M18.7398621,3.49613165 C20.196,3.01330431 21.7224828,3.11969 23.2137931,3.15651581 C23.678069,3.15651581 24.1493793,3.22607568 24.5433103,3.53295746 C22.6123448,3.63525139 20.6673103,3.67616896 18.7398621,3.49613165 Z" id="Shape" fill="#019CDE"></path>
                    <path d="M28.3208276,3.49353878 C30.1251724,2.88785529 32.1581379,3.00142094 33.9765517,3.52003743 C32.0913103,3.58817682 30.2025517,3.62981756 28.3208276,3.49353878 Z" id="Shape" fill="#009CDE"></path>
                    <path d="M39.4845517,3.26751724 C41.4049655,3.08110345 43.3464828,3.07406897 45.2668966,3.28862069 L45.2246897,3.6297931 C43.4168276,3.43634483 41.5913793,3.57 39.7764828,3.53482759 C39.78,4.70255172 39.7764828,5.86675862 39.7694483,7.03448276 C41.630069,7.00986207 43.4906897,7.10482759 45.3477931,6.96413793 L45.1543448,7.27717241 C43.2831724,7.55151724 41.3627586,7.446 39.4845517,7.3017931 C39.3051724,5.96172414 39.3157241,4.60758621 39.4845517,3.26751724 Z" id="Shape" fill="#049DDE"></path>
                    <path d="M36.006,7.4882069 C36.5863448,10.826069 36.0974483,14.2342759 36.3049655,17.6037931 C39.5373103,17.8464828 42.7837241,17.4666207 46.0090345,17.8077931 C42.650069,18.2615172 39.2313103,17.8922069 35.8477241,18.0223448 C35.9602759,14.5121379 35.6648276,10.9808276 36.006,7.4882069 Z" id="Shape" fill="#0A9DDE"></path>
                </g>
            </g>
        </g>
    </g>
</svg>