<?xml version="1.0" encoding="UTF-8"?>
<svg width="80px" height="80px" viewBox="0 0 80 80" version="1.1" xmlns="http://www.w3.org/2000/svg" xmlns:xlink="http://www.w3.org/1999/xlink">
    <!-- Generator: Sketch 51.3 (57544) - http://www.bohemiancoding.com/sketch -->
    <title>Group 8 Copy 6</title>
    <desc>Created with Sketch.</desc>
    <defs>
        <linearGradient x1="-0.816508089%" y1="46.3978601%" x2="106.004264%" y2="284.058889%" id="linearGradient-1">
            <stop stop-color="#FDB913" offset="0%"></stop>
            <stop stop-color="#FFCB05" offset="22.4719%"></stop>
            <stop stop-color="#FAA61A" offset="39.3258%"></stop>
            <stop stop-color="#FFCB05" offset="52.809%"></stop>
            <stop stop-color="#FAA61A" offset="64.6067%"></stop>
            <stop stop-color="#FFCB05" offset="76.4045%"></stop>
            <stop stop-color="#FFCB05" offset="100%"></stop>
        </linearGradient>
    </defs>
    <g id="Page-1" stroke="none" stroke-width="1" fill="none" fill-rule="evenodd">
        <g id="m7-withdraw-balance-0-1366-copy" transform="translate(-413.000000, -307.000000)">
            <g id="Group-8-Copy-6" transform="translate(413.000000, 307.000000)">
                <rect id="Mask" fill="#F0F2F5" x="0" y="0" width="80" height="80" rx="40"></rect>
                <g id="Group-3" transform="translate(21.000000, 24.000000)" fill-rule="nonzero">
                    <path d="M21.6471544,7.33594933 C20.4541201,6.63492796 16.5657121,4.38291457 16.5657121,4.38291457 C15.1058057,3.772898 13.9874676,4.5158669 13.6252088,5.06047377 C13.6090772,5.08109205 13.5929457,5.10562068 13.5824251,5.12588347 L13.5347318,5.20871206 L13.2881994,5.61681172 C13.1829936,5.78531281 13.0658644,5.95879071 12.9315516,6.13688995 C12.8116169,6.29259348 12.6783562,6.44687506 12.5335228,6.59582433 C11.5964894,7.5559961 10.0966048,8.23035591 7.59796602,7.02560873 C6.08685942,6.15146494 2.57298425,4.1145215 2.57298425,4.1145215 C2.57263356,4.11345504 2.57263356,4.11345504 2.57228287,4.11345504 C1.1264039,3.27557098 0,2.62360688 0,2.62360688 L1.33085392,0.967035078 C1.89054901,0.426338574 2.94330882,-0.460602767 4.57189527,0.287342957 C4.57189527,0.287342957 9.06628891,2.92541578 9.08382322,2.9332365 C12.9262913,5.07078291 14.822802,3.02815167 15.6605912,1.6666345 C15.6896981,1.62468697 15.7138955,1.57811811 15.7394956,1.53688156 L15.7415997,1.53510412 C15.7514189,1.5187517 15.7587833,1.50311025 15.7668491,1.48746879 L15.8625864,1.32998783 C16.2700837,0.70255237 16.9149955,0.297296607 17.6822968,0.315781958 C18.1059257,0.324313658 18.3934883,0.464375737 18.8115062,0.700063957 L23.1603651,3.25673014 C23.1631706,3.25815209 23.1652747,3.25992953 23.1698336,3.2606405 C27.0596443,5.42413749 28.9877168,3.24819844 29.8114785,1.88703676 C29.8753034,1.7690149 29.9489475,1.65703634 30.0225916,1.55181203 C30.4300889,0.991563716 30.9929401,0.624345117 31.7069371,0.64247498 C32.1782593,0.652073143 32.7077954,0.938951565 32.7856477,0.991563716 L38,4.04129108 C38,4.04129108 37.4666064,4.85677943 36.3696601,6.12835825 C35.388791,7.2627189 34.3454997,6.74939494 33.5168283,6.33169711 C33.168597,6.15750823 30.6513718,4.71102955 30.6513718,4.71102955 C29.2724739,4.1344288 28.1983222,4.7636417 27.7767975,5.2929626 C27.7333124,5.34912963 27.695789,5.40103081 27.6670327,5.45222101 L27.5698927,5.62463245 C27.4187469,5.88307187 27.2384943,6.17457163 27.0165099,6.46251651 C26.8976273,6.61857553 26.765068,6.77463455 26.6195332,6.92216187 C26.039849,7.51582601 25.2469476,7.99964451 24.137026,8 C23.4402126,8 22.6192564,7.80945869 21.6471544,7.33594933" id="path19788" fill="url(#linearGradient-1)"></path>
                    <g id="Group-16" transform="translate(3.000000, 10.000000)" fill="#003D79">
                        <g id="g19736" transform="translate(15.567115, 10.503879) scale(-1, 1) rotate(-180.000000) translate(-15.567115, -10.503879) translate(0.067115, 0.003879)">
                            <path d="M0.902040816,14.2628571 C0.902040816,16.5377829 0.86144898,18.4490057 0.736967347,20.1543086 L5.09653061,20.1543086 L5.30309796,17.2250743 L5.42487347,17.2250743 C6.40990204,18.7708114 8.21939592,20.6026971 11.5921265,20.6026971 C14.2251837,20.6026971 16.2791306,19.1362971 17.1414816,16.9451657 L17.2262735,16.9451657 C17.9244531,18.0416229 18.7453102,18.8537143 19.690649,19.4206629 C20.8010612,20.19264 22.078351,20.6026971 23.7209673,20.6026971 C27.051302,20.6026971 30.4213265,18.3678857 30.4213265,12.02448 L30.4213265,0.365485714 L25.4889673,0.365485714 L25.4889673,11.2961829 C25.4889673,14.5846629 24.3379633,16.5377829 21.9114735,16.5377829 C20.1849673,16.5377829 18.9085796,15.3183086 18.3754735,13.8946971 C18.2527959,13.4115429 18.1292163,12.79824 18.1292163,12.2330743 L18.1292163,0.365485714 L13.1950531,0.365485714 L13.1950531,11.8274743 C13.1950531,14.5846629 12.0864449,16.5377829 9.74023673,16.5377829 C7.85226531,16.5377829 6.57768163,15.0749486 6.12124898,13.6941257 C5.91738776,13.2074057 5.8344,12.6368914 5.8344,12.0699429 L5.8344,0.365485714 L0.902040816,0.365485714 L0.902040816,14.2628571 Z" id="path19738"></path>
                        </g>
                    </g>
                </g>
            </g>
        </g>
    </g>
</svg>