<?xml version="1.0" encoding="UTF-8" standalone="no"?>
<svg width="80px" height="80px" viewBox="0 0 80 80" version="1.1" xmlns="http://www.w3.org/2000/svg" xmlns:xlink="http://www.w3.org/1999/xlink">
    <!-- Generator: Sketch 49.2 (51160) - http://www.bohemiancoding.com/sketch -->
    <title>multibanco_r</title>
    <desc>Created with Sketch.</desc>
    <defs></defs>
    <g id="Page-1" stroke="none" stroke-width="1" fill="none" fill-rule="evenodd">
        <g id="m7-withdraw-balance-0-1366" transform="translate(-963.000000, -867.000000)">
            <g id="multibanco_r" transform="translate(963.000000, 867.000000)">
                <g id="Group-8-Copy-11" fill="#F0F2F5">
                    <rect id="Mask" x="0" y="0" width="80" height="80" rx="40"></rect>
                </g>
                <g id="Group-5-Copy" transform="translate(21.000000, 22.000000)">
                    <path d="M18.8340976,35.9252542 L34.4178049,35.9252542 C37.9765203,35.9252542 38.0117398,32.1904068 37.6493496,30.3464746 C37.4513171,29.1075254 35.3186829,29.1175932 35.0838862,30.3464746 L35.0838862,31.7852542 C35.0838862,32.4424068 34.5392195,32.9805763 33.8731382,32.9805763 L3.99556098,32.9805763 C3.32978862,32.9805763 2.78512195,32.4424068 2.78512195,31.7852542 L2.78512195,30.3464746 C2.5503252,29.1175932 0.417691057,29.1075254 0.219658537,30.3464746 C-0.142422764,32.1904068 -0.107512195,35.9252542 3.45120325,35.9252542 L18.8340976,35.9252542 Z M7.81687805,0.152237288 L31.8455447,0.152237288 C33.5339187,0.152237288 34.9148943,1.59559322 34.9148943,3.35989831 L34.9148943,4.89294915 C34.9148943,7.06027119 31.941626,7.05233898 31.941626,4.90759322 L31.941626,4.07013559 C31.941626,3.53745763 31.5004553,3.10179661 30.9610407,3.10179661 L6.88294309,3.10179661 C6.34352846,3.10179661 5.90204878,3.53745763 5.90204878,4.07013559 L5.90204878,4.89050847 C5.90204878,7.04623729 3.06842276,7.03067797 3.06842276,4.93718644 L3.06842276,3.35989831 C3.06842276,1.59559322 4.44970732,0.152237288 6.13777236,0.152237288 L7.81687805,0.152237288 Z" id="Fill-1" fill="#2B619E"></path>
                    <path d="M34.308439,17.7739322 C35.9727154,18.5470169 37.1219837,20.1429153 37.1219837,21.9752542 C37.1219837,24.5587119 34.8376585,26.672339 32.0454309,26.672339 L24.2202114,26.672339 C23.4883252,26.672339 22.8895935,26.1183051 22.8895935,25.4410169 L22.8895935,10.7389831 C22.8895935,10.029661 23.4778211,9.44938983 24.1967317,9.44938983 L30.714813,9.44938983 C33.4585366,9.44938983 35.7030081,11.6636949 35.7030081,14.3704068 C35.7030081,15.6877627 35.1706992,16.8882712 34.308439,17.7739322 Z M28.4678699,16.5764746 L30.9523902,16.5764746 L30.9523902,16.5496271 C32.0837398,16.3778644 32.9574309,15.4064746 32.9574309,14.2431864 C32.9574309,12.96 31.8940488,11.9098983 30.5946341,11.9098983 L25.590374,11.9098983 L25.590374,24.1102373 L31.9366829,24.1102373 C33.2784228,24.1102373 34.3764065,23.0259661 34.3764065,21.700678 C34.3764065,20.3753898 33.2784228,19.2911186 31.9366829,19.2911186 L30.9523902,19.2911186 L30.9523902,19.285322 L28.4678699,19.285322 C27.7137398,19.285322 27.0964715,18.6760678 27.0964715,17.9310508 C27.0964715,17.1860339 27.7137398,16.5764746 28.4678699,16.5764746 Z" id="Fill-3" fill="#2E2E2E"></path>
                    <path d="M21.6460976,25.2039661 C21.7378537,26.0554576 21.1131707,26.8193898 20.2509106,26.9096949 C19.3886504,27 18.6150569,26.3834237 18.5233008,25.5316271 L17.2365528,13.8395593 L12.6790244,25.2716949 L12.6746992,25.282678 L12.6740813,25.2838983 L12.6617236,25.3144068 L12.6512195,25.3382034 L12.637935,25.3677966 L12.6314472,25.3821356 L12.6203252,25.4044068 L12.6150732,25.4147797 L12.6030244,25.4379661 L12.5986992,25.4465085 C12.5146667,25.6027119 12.4065366,25.7403051 12.2801789,25.8559322 L12.2755447,25.8602034 L12.252065,25.8812542 C12.1698862,25.9532542 12.0790569,26.0167119 11.9805041,26.0710169 L11.9740163,26.0749831 L11.9440488,26.0908475 L11.943122,26.0914576 L11.9153171,26.1054915 L11.9029593,26.1115932 L11.8850407,26.1201356 L11.8661951,26.128678 L11.8498211,26.136 L11.8303577,26.1445424 L11.8133659,26.1515593 L11.7973008,26.1582712 L11.7827805,26.1637627 L11.774748,26.1671186 L11.7614634,26.172 L11.7404553,26.1796271 L11.7284065,26.1835932 C11.5764065,26.2360678 11.421626,26.2638305 11.2680813,26.2696271 L11.2495447,26.2702373 L11.2273008,26.2705424 L11.1951707,26.2705424 L11.1732358,26.2702373 L11.1534634,26.2696271 C10.982,26.2632203 10.808374,26.2290508 10.6393821,26.1637627 L10.618374,26.1555254 L10.613122,26.1530847 L10.5921138,26.1448475 L10.5717236,26.1356949 L10.5553496,26.1283729 L10.5377398,26.1204407 L10.5188943,26.1112881 L10.5080813,26.1061017 L10.4796585,26.0917627 L10.4765691,26.0899322 L10.4521626,26.0768136 L10.4382602,26.0694915 C10.352065,26.0212881 10.2720488,25.9663729 10.1985203,25.9050508 L10.1923415,25.8998644 C10.1747317,25.8849153 10.1577398,25.8699661 10.140748,25.8547119 L10.1395122,25.8534915 C10.1262276,25.8412881 10.113252,25.8287797 10.1002764,25.8162712 C10.0876098,25.8034576 10.0749431,25.7906441 10.0622764,25.7775254 L10.0613496,25.7763051 C10.0455935,25.7595254 10.0304553,25.7424407 10.0153171,25.7250508 L10.010374,25.7192542 C9.94796748,25.646339 9.89235772,25.567322 9.84385366,25.4822034 L9.83613008,25.4687797 L9.82284553,25.4443729 L9.82130081,25.441322 L9.80647154,25.4132542 L9.80121951,25.4025763 L9.79226016,25.3842712 L9.7839187,25.3665763 L9.77650407,25.3504068 L9.76754472,25.3302712 L9.75889431,25.3095254 L9.75673171,25.3046441 L9.7480813,25.2838983 L5.18560976,13.8395593 L3.89886179,25.5316271 C3.80741463,26.3834237 3.03382114,27 2.17156098,26.9096949 C1.30899187,26.8193898 0.684617886,26.0554576 0.776065041,25.2039661 L2.29328455,11.419322 L2.29452033,11.4095593 L2.2935935,11.4095593 C2.31182114,11.2487797 2.34642276,11.0892203 2.39554472,10.9324068 C2.44343089,10.7801695 2.50738211,10.6300678 2.58647154,10.4836271 C2.97388618,9.76484746 3.68661789,9.26084746 4.53713821,9.14491525 L4.54022764,9.14430508 C4.56865041,9.14033898 4.59769106,9.13759322 4.62580488,9.13515254 C4.75926829,9.12142373 4.89149593,9.11745763 5.02186992,9.12325424 L5.02804878,9.12386441 L5.02804878,9.12325424 C5.19796748,9.13149153 5.35676423,9.15223729 5.50289431,9.18610169 C6.31417886,9.37311864 7.00343089,9.93020339 7.32782114,10.7441695 L11.2112358,20.4846102 L15.0943415,10.7441695 C15.4187317,9.93050847 16.1079837,9.37311864 16.9192683,9.18610169 C17.0653984,9.15223729 17.2241951,9.13149153 17.3941138,9.12325424 L17.3941138,9.12386441 L17.4002927,9.12325424 C17.5309756,9.11745763 17.6638211,9.12111864 17.7972846,9.13515254 C17.8257073,9.13759322 17.8535122,9.14033898 17.881935,9.14430508 L17.8850244,9.14491525 C18.7355447,9.26084746 19.4485854,9.76484746 19.836,10.4836271 C19.9147805,10.6300678 19.9790407,10.7801695 20.0266179,10.9324068 C20.0760488,11.0892203 20.1103415,11.2487797 20.1285691,11.4095593 L20.1279512,11.4095593 L20.1285691,11.415661 L20.129187,11.419322 L21.6460976,25.2039661" id="Fill-6" fill="#2E2E2E"></path>
                </g>
            </g>
        </g>
    </g>
</svg>