<?xml version="1.0" encoding="UTF-8" standalone="no"?>
<svg width="80px" height="80px" viewBox="0 0 80 80" version="1.1" xmlns="http://www.w3.org/2000/svg" xmlns:xlink="http://www.w3.org/1999/xlink">
    <!-- Generator: Sketch 49.2 (51160) - http://www.bohemiancoding.com/sketch -->
    <title>neosurf_r</title>
    <desc>Created with Sketch.</desc>
    <defs></defs>
    <g id="Page-1" stroke="none" stroke-width="1" fill="none" fill-rule="evenodd">
        <g id="m7-withdraw-balance-0-1366" transform="translate(-523.000000, -977.000000)">
            <g id="neosurf_r" transform="translate(523.000000, 977.000000)">
                <g id="Group-8-Copy-16" fill="#F0F2F5">
                    <rect id="Mask" x="0" y="0" width="80" height="80" rx="40"></rect>
                </g>
                <g id="Group-7" transform="translate(20.000000, 20.000000)">
                    <path d="M-6.77264306e-08,23.111111 L0.00344709743,23.1149412 C6.2713311,17.4738456 12.3478907,15.9547057 18.442914,18.392715 C18.6003356,18.4556837 23.9965077,20.6722931 25.4398361,21.216156 C27.9699161,22.1695195 29.951817,22.7401835 31.8017544,22.9868419 C34.9260088,23.4034091 37.6143787,22.8381704 39.9999999,21.1247699 L39.9999999,36 C39.9999999,38.209139 38.2091389,40 35.9999999,40 L3.99999993,40 C1.79086093,40 -6.77264322e-08,38.209139 -6.77264325e-08,36 L-6.77264325e-08,23.111111 Z M-6.77264325e-08,19.2077327 L-6.77264325e-08,4 C-6.77264327e-08,1.790861 1.79086093,4.05812251e-16 3.99999993,0 L35.9999999,0 C38.2091389,-4.05812251e-16 39.9999999,1.790861 39.9999999,4 L39.9999999,17.0848992 C37.7538908,19.6222841 35.3535459,20.4338649 32.1982456,20.0131581 C30.6159263,19.8021822 28.8328282,19.288761 26.4976639,18.408844 C25.103169,17.8833822 19.7512269,15.6849413 19.557086,15.607285 C13.0012478,12.9849497 6.43026339,14.225915 -1.354529e-07,19.2077342 Z" id="Combined-Shape" fill="#7FCEF3"></path>
                    <path d="M7.63278329e-17,23.0734495 L0.00344709743,23.1149412 C6.2713311,17.4738456 12.3478907,15.9547057 18.442914,18.392715 C18.6003356,18.4556837 23.9965077,20.6722931 25.4398361,21.216156 C27.9699161,22.1695195 29.951817,22.7401835 31.8017544,22.9868419 C34.9260088,23.4034091 37.6143787,22.8381704 40,21.1247699 L40,36 C40,38.209139 38.209139,40 36,40 L4,40 C1.790861,40 2.705415e-16,38.209139 0,36 L0,23.0734495 Z" id="Combined-Shape" fill="#ED008C"></path>
                    <path d="M11.7096679,31.8489556 C13.0017642,31.8316683 14.2941148,31.8504809 15.5863383,31.846032 C15.8588671,31.8451422 16.1409292,31.8891231 16.390832,31.7269278 C16.5537899,31.4752455 16.4943014,31.1920393 16.4945556,30.9215444 C16.4978605,27.0457637 16.4960809,23.1699831 16.4956996,19.2942024 C16.4955725,18.956338 16.4956996,18.6184735 16.6168376,18.2359926 C17.100627,19.1552687 17.5849248,20.0742905 18.0682057,20.9938208 C19.5939344,23.8969382 21.0282694,26.8481041 22.6460275,29.7026647 C22.8122903,29.9960398 23.016814,30.2694583 23.2201936,30.5395719 C24.783929,32.6159511 27.5225631,32.303382 28.5983144,30.6975725 C28.953339,30.1673872 29.1590067,29.6914788 29.1609134,29.1478196 C29.1851918,22.3348554 29.1776922,15.5218912 29.1768024,8.70892696 C29.1768024,8.62198215 29.1612947,8.5417743 29.1103227,8.47008297 C27.3318947,8.45788019 25.5533396,8.45393971 23.7750388,8.42813592 C23.2423112,8.42038207 23.3506109,8.78760946 23.3503566,9.08162017 C23.3460348,12.5135247 23.3498482,15.9454293 23.3471788,19.3773338 C23.3469246,19.6928265 23.3160363,20.0083192 23.2993846,20.323939 C23.1317235,20.2174189 20.1988618,14.6068098 19.3044997,12.8571092 C18.8420653,11.952324 18.4086124,11.0316497 17.9161794,10.1436433 C16.7478904,8.03713853 13.9281586,7.35556247 11.9875353,8.6742253 C11.6545012,8.90061228 11.0406759,9.51850509 11.0517347,10.1539394 C11.038515,12.0101601 11,31.3816908 11,31.3816908 C11,31.3816908 11,31.858489 11.7096679,31.8489556" id="Fill-10" fill="#FFFFFF"></path>
                </g>
            </g>
        </g>
    </g>
</svg>