<?xml version="1.0" encoding="UTF-8"?>
<svg width="80px" height="80px" viewBox="0 0 80 80" version="1.1" xmlns="http://www.w3.org/2000/svg" xmlns:xlink="http://www.w3.org/1999/xlink">
    <!-- Generator: Sketch 52.2 (67145) - http://www.bohemiancoding.com/sketch -->
    <title>permata</title>
    <desc>Created with Sketch.</desc>
    <defs>
        <polygon id="path-1" points="0.136026109 23.9819544 0.0845567702 22.9783023 19.3607431 0.364880845 20.0528219 0.252751215 20.1401359 0.295948696 20.478363 0.922771709 12.2579744 28.4377285 10.8627877 29.3788822 0.136026109 23.9819544"></polygon>
        <polygon id="path-3" points="8.65971618 38.5110133 0.416350184 1.29960079 0.707703402 0.601088344 0.845567702 0.538589862 1.77936855 0.783988315 22.2338351 31.7676109 22.2108577 33.3842996 9.74700595 39.114859 8.65971618 38.5110133"></polygon>
        <polygon id="path-5" points="0.579949152 26.8274735 0.0827185795 25.8716144 8.89868096 0.459547664 9.4225653 0.106615058 9.43818992 0.105695963 9.92255316 0.387858228 17.5675881 25.9304365 16.5363631 27.0002634 0.579949152 26.8274735"></polygon>
    </defs>
    <g id="Page-1" stroke="none" stroke-width="1" fill="none" fill-rule="evenodd">
        <g id="m7-withdraw-balance-0-1366-copy" transform="translate(-633.000000, -637.000000)">
            <g id="permata" transform="translate(633.000000, 637.000000)">
                <rect id="Mask" fill="#F0F2F5" x="0" y="0" width="80" height="80" rx="40"></rect>
                <g id="Group-9" transform="translate(18.000000, 14.000000)">
                    <g id="g4348" transform="translate(10.661506, 26.837584) scale(1, -1) translate(-10.661506, -26.837584) translate(0.000000, 11.764420)" fill="#0097B9" fill-rule="nonzero">
                        <polygon id="path4350" points="0.448857795 24.1854151 0.397388457 23.1808439 19.6735748 0.568341534 20.3656536 0.455292809 20.4529676 0.498490289 20.7911947 1.1253133 12.5708061 28.6411892 11.1756194 29.5814237"></polygon>
                    </g>
                    <g id="Group-8">
                        <g id="Group-7">
                            <g id="g4376" transform="translate(32.663640, 31.228561) scale(-1, 1) rotate(-180.000000) translate(-32.663640, -31.228561) translate(20.899220, 11.008464)" fill="#80B13A" fill-rule="nonzero">
                                <g id="g4378-Clipped">
                                    <g id="g4378" transform="translate(0.551457, 0.551457)">
                                        <g id="g4384" transform="translate(0.556053, 0.512488)">
                                            <polygon id="path4386" points="9.37477234 38.6020038 21.8386241 32.8714444 21.8616015 31.2547557 1.40713495 0.271133122 0.473334094 0.0248155739 0.335469795 0.0882331515 0.0441165757 0.786745601 8.28840167 37.9981581"></polygon>
                                        </g>
                                    </g>
                                </g>
                            </g>
                            <g id="g4412" transform="translate(21.634496, 15.052483) scale(-1, 1) rotate(-180.000000) translate(-21.634496, -15.052483) translate(12.075905, 0.714596)" fill="#D81936" fill-rule="nonzero">
                                <g id="g4414-Clipped" transform="translate(0.000000, 0.000000)">
                                    <g id="g4414" transform="translate(0.183819, 0.367638)">
                                        <g id="g4420" transform="translate(0.082719, 0.137405)">
                                            <polygon id="path4422" points="0 25.9184882 0.496311477 26.8743474 16.4536446 27.0471373 17.4848695 25.9763913 9.83983458 0.433812995 9.35547134 0.152569824 9.33984672 0.15348892 8.81596238 0.506421526"></polygon>
                                        </g>
                                    </g>
                                </g>
                            </g>
                            <g id="Group-5" transform="translate(0.000000, 1.470553)">
                                <g id="g4352" transform="translate(10.605352, 25.530170) scale(-1, 1) rotate(-180.000000) translate(-10.605352, -25.530170) translate(0.311485, 10.824645)">
                                    <g id="g4354-Clipped">
                                        <mask id="mask-2" fill="white">
                                            <use xlink:href="#path-1"></use>
                                        </mask>
                                        <g id="path4358-8"></g>
                                        <g id="g4354" mask="url(#mask-2)">
                                            <g transform="translate(-0.735276, -0.919095)">
                                                <g id="g4360" transform="translate(0.138140, 0.739964)">
                                                    <polygon id="path4362" fill="#005874" points="6.4336673 22.0582879 20.6888358 0.371314512 19.9305822 0.495392382 0.6295803 23.1667168"></polygon>
                                                </g>
                                                <g id="g4364" transform="translate(6.103528, 22.969111)">
                                                    <polygon id="path4366" fill="#2FB8E7" fill-rule="nonzero" points="5.51457197 7.35276262 6.9051632 6.40885172 2.58633425 0.666344113 0.580868247 1.54316106"></polygon>
                                                </g>
                                                <g id="g4368" transform="translate(0.249902, 22.674817)">
                                                    <polygon id="path4370" fill="#007592" fill-rule="nonzero" points="6.4336673 1.83819066 6.32153767 0.123158774 0.518369765 1.23158774 0.579030057 2.22880617"></polygon>
                                                </g>
                                                <g id="g4372" transform="translate(8.689587, 0.657337)">
                                                    <polygon id="path4374" fill="#007592" fill-rule="nonzero" points="0 22.9773832 4.3280199 28.7290818 12.6522663 1.19022845 12.2285633 0.47792957"></polygon>
                                                </g>
                                            </g>
                                        </g>
                                    </g>
                                </g>
                                <g id="g4388" transform="translate(33.031278, 29.574189) scale(-1, 1) rotate(-180.000000) translate(-33.031278, -29.574189) translate(21.634496, 9.721730)">
                                    <g id="g4390-Clipped">
                                        <mask id="mask-4" fill="white">
                                            <use xlink:href="#path-3"></use>
                                        </mask>
                                        <g id="path4394-7"></g>
                                        <g id="g4390" mask="url(#mask-4)">
                                            <g transform="translate(-0.183819, -0.183819)">
                                                <g id="g4396" transform="translate(0.402288, 0.521954)">
                                                    <polygon id="path4398" fill="#6E9123" fill-rule="nonzero" points="22.0582879 31.4330602 1.62036506 0.382343656 0.575353675 0.0781231029 13.7119832 30.7225995"></polygon>
                                                </g>
                                                <g id="g4400" transform="translate(0.547597, 0.370579)">
                                                    <polygon id="path4402" fill="#3F7937" fill-rule="nonzero" points="11.212963 32.1683365 0.312492411 0.325359746 0.00551457197 1.10659077 8.281968 38.3556862"></polygon>
                                                </g>
                                                <g id="g4404" transform="translate(13.236627, 30.811016)">
                                                    <polygon id="path4406" fill="#A5C550" fill-rule="nonzero" points="9.19095328 2.75728598 9.22404071 1.14427368 0.877736038 0.432893899 0.40715923 2.64331816"></polygon>
                                                </g>
                                                <g id="g4408" transform="translate(8.129490, 32.535423)">
                                                    <polygon id="path4410" fill="#5D8B27" fill-rule="nonzero" points="5.51457197 0.919095328 3.63042655 0.00551457197 0.698512449 6.19378341 1.77569217 6.80130543"></polygon>
                                                </g>
                                            </g>
                                        </g>
                                    </g>
                                </g>
                                <g id="g4424" transform="translate(21.083039, 13.765750) scale(-1, 1) rotate(-180.000000) translate(-21.083039, -13.765750) translate(12.259724, 0.163139)">
                                    <g id="g4426-Clipped">
                                        <mask id="mask-6" fill="white">
                                            <use xlink:href="#path-5"></use>
                                        </mask>
                                        <g id="path4430-4"></g>
                                        <g id="g4426" mask="url(#mask-6)">
                                            <g transform="translate(-0.183819, -0.919095)">
                                                <g id="g4432" transform="translate(0.061947, 23.235006)">
                                                    <polygon id="path4434" fill="#AF2C35" fill-rule="nonzero" points="7.53658169 1.83819066 6.38679343 0.479767761 0.150731634 3.58539087 0.654395873 4.53022087"></polygon>
                                                </g>
                                                <g id="g4436" transform="translate(0.211760, 0.901908)">
                                                    <polygon id="path4438" fill="#762624" fill-rule="nonzero" points="0 25.9184882 6.23698089 22.8128651 9.39866882 0.0716894356 8.84537344 0.44851852"></polygon>
                                                </g>
                                                <g id="g4440" transform="translate(9.448851, 0.734081)">
                                                    <polygon id="path4442" fill="#B22B37" fill-rule="nonzero" points="0 22.9773832 8.33068005 26.1262038 0.696674259 0.537670767 0.172789922 0.239883881"></polygon>
                                                </g>
                                                <g id="g4444" transform="translate(7.599356, 23.235006)">
                                                    <polygon id="path4446" fill="#DC505E" fill-rule="nonzero" points="0 1.83819066 1.8492198 0.47609138 10.1808189 3.62491197 9.13764575 4.69014346"></polygon>
                                                </g>
                                            </g>
                                        </g>
                                    </g>
                                </g>
                            </g>
                        </g>
                    </g>
                </g>
            </g>
        </g>
    </g>
</svg>