<?xml version="1.0" encoding="UTF-8" standalone="no"?>
<svg width="80px" height="80px" viewBox="0 0 80 80" version="1.1" xmlns="http://www.w3.org/2000/svg" xmlns:xlink="http://www.w3.org/1999/xlink">
    <!-- Generator: Sketch 49.2 (51160) - http://www.bohemiancoding.com/sketch -->
    <title>sofort_r</title>
    <desc>Created with Sketch.</desc>
    <defs></defs>
    <g id="Page-1" stroke="none" stroke-width="1" fill="none" fill-rule="evenodd">
        <g id="m7-withdraw-balance-0-1366" transform="translate(-633.000000, -977.000000)">
            <g id="sofort_r" transform="translate(633.000000, 977.000000)">
                <g id="Group-8-Copy-17" fill="#F0F2F5">
                    <rect id="Mask" x="0" y="0" width="80" height="80" rx="40"></rect>
                </g>
                <path d="M45.423008,27 C43.1245557,27 40.8917616,26.9998237 38.8908245,27.9980172 C36.8913445,28.9962512 35.1251338,30.9941927 33.7658956,34.9899894 C33.4712983,35.8491013 33.3154772,36.5892853 33.2950608,37.231827 C33.2746498,37.8758018 33.3884427,38.4236113 33.6363714,38.8997789 C33.9426367,39.4806464 34.4385049,40.0271251 35.0583303,40.4875172 C35.6796128,40.9493424 36.4217536,41.3238189 37.2224228,41.5633384 C37.2530482,41.57194 37.6732516,41.68947 38.1836968,41.8328948 C38.6912222,41.9763195 39.2846951,42.1482547 39.6609632,42.2601249 C39.8811826,42.3260999 40.1230747,42.4122482 40.3418369,42.5427652 C40.5620563,42.6704127 40.7590723,42.8424184 40.8830348,43.0805031 C40.9647075,43.2382685 41.0085334,43.4118799 41.0129085,43.5968955 C41.0187335,43.7833477 40.9864699,43.9843344 40.9120902,44.196602 C40.725416,44.7387446 40.4424688,45.0886713 39.9028572,45.3023737 C39.3661616,45.5160742 38.5743286,45.5846685 37.3725999,45.5932754 L22.37133,45.5932754 L20,52 L36.0570603,52 C37.5679723,52 40.33016,52.0001763 42.9844658,50.8900985 C45.6387699,49.781429 48.1854395,47.5654967 49.2632039,43.1293877 C49.6686421,41.4627983 49.5431113,40.1045607 48.8795352,39.0374839 C48.2130413,37.9718419 47.0083947,37.197507 45.2539273,36.7026943 C45.2539273,36.7026943 44.8617379,36.590505 44.3994221,36.4599898 C43.9400223,36.3294745 43.407657,36.1804393 43.136394,36.1029896 C42.6872034,35.9767769 42.341489,35.7214485 42.1373127,35.3958742 C41.9345936,35.0717364 41.8733212,34.6772911 41.9885354,34.2742671 C42.1095819,33.8554693 42.4013168,33.5212776 42.8213374,33.290365 C43.2442759,33.0608836 43.7984484,32.9347414 44.4459813,32.9347414 L53.7797222,32.9347414 C53.84535,32.8415163 53.9052298,32.7398181 53.9708575,32.6465929 C55.6757367,30.2743564 57.7394661,28.3553593 60,27 L45.423008,27 L45.423008,27 Z" id="path66-path" fill="#EE7F00"></path>
            </g>
        </g>
    </g>
</svg>