<?xml version="1.0" encoding="UTF-8" standalone="no"?>
<svg width="80px" height="80px" viewBox="0 0 80 80" version="1.1" xmlns="http://www.w3.org/2000/svg" xmlns:xlink="http://www.w3.org/1999/xlink">
    <!-- Generator: Sketch 49.2 (51160) - http://www.bohemiancoding.com/sketch -->
    <title>teleingreso_r</title>
    <desc>Created with Sketch.</desc>
    <defs></defs>
    <g id="Page-1" stroke="none" stroke-width="1" fill="none" fill-rule="evenodd">
        <g id="m7-withdraw-balance-0-1366" transform="translate(-193.000000, -977.000000)">
            <g id="teleingreso_r" transform="translate(193.000000, 977.000000)">
                <g id="Group-8-Copy-13" fill="#F0F2F5">
                    <rect id="Mask" x="0" y="0" width="80" height="80" rx="40"></rect>
                </g>
                <path d="M56.7950182,29 C57.4053987,29.1576653 57.9945243,29.3586445 58.4718516,29.8015184 C59.8251764,31.0572681 59.6878583,33.094149 58.1605785,34.1303665 C57.1049628,34.8465269 55.963768,34.940985 54.809988,34.4184672 C53.8180672,33.9691739 53.1951714,33.197284 53.1386081,32.061247 C53.0787586,30.8586168 53.6497756,30.0067302 54.6537222,29.410071 C54.9755528,29.2188973 55.3439486,29.1575948 55.6763368,29 C56.0492073,29 56.4221477,29 56.7950182,29 Z M59.9998899,38.9982743 C60.0135585,40.6497686 58.7533993,42.295782 56.7009509,42.3156418 C54.8984421,42.3330102 53.4325569,40.8161922 53.4328358,39.0012639 C53.4331845,37.1592152 54.9287082,35.6362045 56.7157352,35.6581285 C58.5532523,35.6806932 59.9961241,37.148182 59.9998899,38.9982743 Z M56.1330373,49.2763151 C54.3062103,49.2752132 52.8429038,47.8643637 52.8358459,46.0973066 C52.8288578,44.345057 54.2904172,42.9202953 56.0941835,42.9210529 C57.9389699,42.9217417 59.4073777,44.3446438 59.4029752,46.1271972 C59.3986426,47.8936344 57.9617511,49.2774171 56.1330373,49.2763151 Z M46.8656749,41.5766777 C46.8679724,39.8274029 48.2168932,38.3898448 49.8636822,38.3816165 C51.5347303,38.3731824 52.8404711,39.7881812 52.8358084,41.6023912 C52.8313485,43.3231411 51.4714806,44.7399227 49.8273271,44.7368371 C48.1688478,44.7337515 46.8633097,43.3407634 46.8656749,41.5766777 Z M49.8867067,51.3947368 C47.6764138,51.3470834 46.1471253,49.328626 46.6701775,47.3197823 C47.0356231,45.9163237 48.4806843,45.0804178 49.9611915,45.4161358 C52.0110448,45.8810505 53.1523627,48.2045173 52.1928348,49.9916932 C51.6766231,50.9531993 50.8304808,51.3829099 49.8867067,51.3947368 Z M43.8196755,41.407892 C42.6867038,41.4066245 41.771081,40.5855019 41.5531915,39.2659035 C41.3278677,37.9007459 41.7268138,36.7248668 42.8089626,35.8834644 C44.223082,34.7839164 46.0175621,35.4765295 46.4634787,37.2622124 C46.8619517,38.8580533 46.0771032,40.6282445 44.7060345,41.2260775 C44.399678,41.359657 44.162392,41.4083145 43.8196755,41.407892 Z M45.9701112,49.6299911 C45.964242,50.8803961 45.3020769,51.7776211 44.1961627,51.9672231 C43.4133308,52.1014105 42.7359339,51.8113608 42.1344166,51.320486 C41.0873336,50.4659092 40.6187104,48.8770544 41.0626692,47.6892187 C41.5247943,46.4528426 42.7443184,45.9302623 43.9559471,46.4494757 C45.1513657,46.9616746 45.9766091,48.2647586 45.9701112,49.6299911 Z M41.189253,36.0798271 C41.1840082,37.1024559 40.842337,37.9969685 40.0989554,38.6920186 C38.9331603,39.7819486 37.4546094,39.3273694 37.1101778,37.7614493 C36.8212997,36.448205 37.1923003,35.3004587 38.184948,34.3958336 C38.7284751,33.9004552 39.3875948,33.6801398 40.0957119,33.9748701 C40.8327446,34.2816657 41.104025,34.9424026 41.1873207,35.697431 C41.2011919,35.823455 41.189253,35.9523384 41.189253,36.0798271 Z M36.7161496,35.0194211 C36.6522346,36.0633587 36.3597425,37.0144151 35.5440821,37.7169442 C34.8104821,38.3488372 33.9793846,38.1314529 33.6070665,37.236659 C33.5594011,37.1219436 33.5129544,37.0026424 33.4927779,36.8809455 C33.289049,35.6543941 33.6019208,34.5866374 34.4730328,33.6990304 C34.5745249,33.5956086 34.6992403,33.509572 34.8256483,33.4379091 C35.5706231,33.0160083 36.2601462,33.2711063 36.5620495,34.080685 C36.6740361,34.3810942 36.7204151,34.6957402 36.7161496,35.0194211 Z M32.8342136,34.8366039 C32.7937689,35.7205727 32.5705334,36.5405672 32.0239464,37.2480797 C31.9088609,37.3970482 31.7731068,37.5206379 31.6155854,37.6188488 C31.1600504,37.9027256 30.7094594,37.8010698 30.4415905,37.3277311 C30.0746356,36.6796232 30.1023083,35.9816015 30.2576324,35.2823143 C30.4049225,34.6192323 30.6778727,34.0178748 31.1884097,33.5604241 C31.8189075,32.9954124 32.468014,33.1871241 32.7209135,34.0043769 C32.8045496,34.2747558 32.8445823,34.5511103 32.8342136,34.8366039 Z M27.4630504,36.7803654 C27.4700813,36.0923635 27.623966,35.447989 27.9578029,34.8566362 C28.0557054,34.6831946 28.1712516,34.5253392 28.3130643,34.3916105 C28.7481201,33.9812434 29.2400868,34.0855077 29.4016658,34.6817712 C29.7380895,35.9227651 29.5060022,37.0774296 28.7531612,38.0789359 C28.3922618,38.5591209 27.9004941,38.4473838 27.6432016,37.8888404 C27.523344,37.6285712 27.457147,37.2217626 27.4630504,36.7803654 Z M27.1641791,37.131459 C27.1554028,37.7972079 27.0277661,38.4303886 26.7241883,39.0216961 C26.6419535,39.1818882 26.5391945,39.323613 26.4069968,39.4404286 C26.1458495,39.6710536 25.8721941,39.6366245 25.6636355,39.3511706 C25.5357915,39.1762335 25.4612964,38.9725935 25.430061,38.7617957 C25.299591,37.8799523 25.3789925,37.0253086 25.8190524,36.2402389 C25.9860099,35.9424735 26.1891091,35.6024055 26.5760274,35.6655375 C26.9882381,35.7327494 27.0475301,36.143823 27.1182244,36.4914068 C27.1604474,36.698912 27.1506345,36.9177265 27.1641791,37.131459 Z M25.0739223,38.6781412 C25.0708341,39.2869954 24.9905413,39.8787677 24.7005877,40.4176639 C24.5885403,40.6259785 24.4554127,40.8281975 24.1862708,40.7999875 C23.9357251,40.7736912 23.8338821,40.5679283 23.7627196,40.3521713 C23.4465836,39.3944486 23.5592352,38.4697557 23.9927893,37.5839048 C24.0993988,37.3660923 24.2581046,37.1455865 24.5324831,37.1734421 C24.8133736,37.2019356 24.8909138,37.4653944 24.9699311,37.6977371 C25.0774133,38.0138593 25.0765405,38.3466382 25.0739223,38.6781412 Z M23.2814979,40.4500984 C23.2846145,41.0256048 23.243121,41.5255612 23.0258761,41.9857036 C22.947778,42.1511116 22.8576412,42.3096074 22.6682624,42.315621 C22.4718559,42.3218419 22.3741415,42.154775 22.3140707,41.9875699 C21.9818175,41.0634834 22.0182999,40.1509402 22.4237015,39.2641793 C22.4940998,39.1101764 22.6048916,38.9789837 22.7814375,38.9872091 C22.9761329,38.9963332 23.0576532,39.1663723 23.1238349,39.3344069 C23.2719036,39.7102209 23.2911532,40.1114718 23.2814979,40.4500984 Z M22.0895445,42.8050885 C22.0900786,43.2431716 22.0632408,43.6766664 21.8972737,44.0845243 C21.8275755,44.2557518 21.7341105,44.4247216 21.5480484,44.4338255 C21.3613855,44.4430023 21.2470912,44.2867053 21.1770592,44.116716 C20.8128795,43.2329752 20.8050685,42.3377998 21.1358678,41.4420417 C21.1979553,41.2738003 21.2994316,41.1133519 21.4936385,41.1055589 C21.711946,41.0968191 21.7936611,41.2833413 21.8703691,41.4595213 C22.0558971,41.8854416 22.0866071,42.3429708 22.0895445,42.8050885 Z M20,44.8300432 C20.0047365,44.4832343 20.0197817,44.1373962 20.1742742,43.8171423 C20.2400275,43.6808316 20.3195723,43.5415395 20.4911996,43.5274647 C20.6650558,43.5131819 20.7762235,43.6342391 20.8417679,43.7696485 C21.2294617,44.5706646 21.3051059,45.3996916 21.0289977,46.2508362 C20.9822599,46.395051 20.9013916,46.534967 20.7274658,46.5511912 C20.5554205,46.5672767 20.4498948,46.4460115 20.3674942,46.3185755 C20.0743208,45.865339 20.0045972,45.3551098 20,44.8300432 Z" id="Combined-Shape" fill="#35AAE5"></path>
            </g>
        </g>
    </g>
</svg>