<?xml version="1.0" encoding="UTF-8"?>
<svg width="16px" height="18px" viewBox="0 0 16 18" version="1.1" xmlns="http://www.w3.org/2000/svg" xmlns:xlink="http://www.w3.org/1999/xlink">
    <!-- Generator: Sketch 41.1 (35376) - http://www.bohemiancoding.com/sketch -->
    <title>Shape</title>
    <desc>Created with Sketch.</desc>
    <defs></defs>
    <g id="Page-1" stroke="none" stroke-width="1" fill="none" fill-rule="evenodd">
        <g id="DepositPage-Card" transform="translate(-772.000000, -659.000000)" fill="#FFFFFF">
            <g id="Group-10" transform="translate(230.000000, 260.000000)">
                <g id="Group-9" transform="translate(10.000000, 10.000000)">
                    <g id="Group-2" transform="translate(499.000000, 377.000000)">
                        <path d="M45.7272727,19.5314685 L45.7272727,16.8951049 C45.7272727,14.193007 43.5342657,12 40.8321678,12 C38.1300699,12 35.9370629,14.193007 35.9370629,16.8951049 L35.9370629,19.5314685 L34.958042,19.5314685 C33.8811189,19.5314685 33,20.4125874 33,21.4895105 L33,28.041958 C33,29.1188811 33.8811189,30 34.958042,30 L46.7062937,30 C47.7832168,30 48.6643357,29.1188811 48.6643357,28.041958 L48.6643357,21.4895105 C48.6643357,20.4125874 47.7832168,19.5314685 46.7062937,19.5314685 L45.7272727,19.5314685 Z M37.7972028,19.5314685 L37.7972028,16.8951049 C37.7972028,15.220979 39.158042,13.8601399 40.8321678,13.8601399 C42.5062937,13.8601399 43.8671329,15.220979 43.8671329,16.8951049 L43.8671329,19.5314685 L37.7972028,19.5314685 Z" id="Shape"></path>
                    </g>
                </g>
            </g>
        </g>
    </g>
</svg>