<?xml version="1.0" encoding="UTF-8"?>

<svg width="41px" height="32px" viewBox="0 0 41 32" version="1.1" xmlns="http://www.w3.org/2000/svg" xmlns:xlink="http://www.w3.org/1999/xlink">
    <!-- Generator: Sketch 49.1 (51147) - http://www.bohemiancoding.com/sketch -->
    <desc>Created with Sketch.</desc>
    <defs></defs>
    <g id="Page-1" stroke="none" stroke-width="1" fill="none" fill-rule="evenodd">
        <g id="m2-deposit-payment-480" transform="translate(-188.000000, -454.000000)" fill-rule="nonzero">
            <g id="mc_vrt_rev-copy-7" transform="translate(188.000000, 454.000000)">
                <path d="M7.44512821,31.7397802 L7.44512821,29.6298901 C7.46979655,29.2709258 7.3400985,28.9186143 7.08912245,28.6628368 C6.83814639,28.4070593 6.49016279,28.2725506 6.13394872,28.2936264 C5.66451652,28.2625926 5.21554055,28.491662 4.96225641,28.8914286 C4.73133396,28.5035813 4.30850731,28.2741998 3.86030769,28.2936264 C3.47006349,28.2737326 3.0985548,28.4637238 2.88389744,28.792967 L2.88389744,28.378022 L2.1585641,28.378022 L2.1585641,31.7397802 L2.89087179,31.7397802 L2.89087179,29.8901099 C2.85933318,29.6573504 2.93246605,29.4225432 3.09031309,29.2497651 C3.24816013,29.0769871 3.47424526,28.9842727 3.70687179,28.9969231 C4.18810256,28.9969231 4.43220513,29.3134066 4.43220513,29.8830769 L4.43220513,31.7538462 L5.16451282,31.7538462 L5.16451282,29.8901099 C5.13426836,29.6576151 5.20784842,29.4235687 5.3654028,29.251111 C5.52295718,29.0786532 5.7482538,28.9855517 5.98051282,28.9969231 C6.47569231,28.9969231 6.71282051,29.3134066 6.71282051,29.8830769 L6.71282051,31.7538462 L7.44512821,31.7397802 Z M18.2797949,28.378022 L17.0871795,28.378022 L17.0871795,27.3582418 L16.3548718,27.3582418 L16.3548718,28.378022 L15.6923077,28.378022 L15.6923077,29.0461538 L16.3688205,29.0461538 L16.3688205,30.5934066 C16.3688205,31.3740659 16.6687179,31.8382418 17.5265641,31.8382418 C17.8470563,31.8393274 18.1613381,31.7491263 18.4332308,31.578022 L18.224,30.9520879 C18.0294863,31.0690847 17.8087225,31.1344185 17.582359,31.141978 C17.233641,31.141978 17.1011282,30.9169231 17.1011282,30.5793407 L17.1011282,29.0461538 L18.2867692,29.0461538 L18.2797949,28.378022 Z M24.4660513,28.2936264 C24.1057968,28.2829424 23.7686095,28.4718429 23.5872821,28.7859341 L23.5872821,28.378022 L22.8689231,28.378022 L22.8689231,31.7397802 L23.5942564,31.7397802 L23.5942564,29.8549451 C23.5942564,29.2993407 23.8313846,28.9898901 24.2916923,28.9898901 C24.4468314,28.9877502 24.6008709,29.0164272 24.7450256,29.0742857 L24.9682051,28.370989 C24.8025543,28.3112313 24.6280325,28.2803144 24.4521026,28.2795604 L24.4660513,28.2936264 Z M15.1134359,28.6452747 C14.7028641,28.3991128 14.2308133,28.277057 13.7534359,28.2936264 C12.9095385,28.2936264 12.3585641,28.7015385 12.3585641,29.3696703 C12.3585641,29.9182418 12.7630769,30.2558242 13.5093333,30.3613187 L13.8580513,30.4105495 C14.2555897,30.4668132 14.4438974,30.5723077 14.4438974,30.7621978 C14.4438974,31.0224176 14.1788718,31.1701099 13.6836923,31.1701099 C13.2853875,31.1817361 12.8947888,31.0578742 12.5747692,30.8184615 L12.2260513,31.3881319 C12.6485628,31.6856231 13.154625,31.838471 13.6697436,31.8241758 C14.6322051,31.8241758 15.1901538,31.367033 15.1901538,30.727033 C15.1901538,30.087033 14.7507692,29.8268132 14.0254359,29.7213187 L13.6767179,29.6720879 C13.3628718,29.6298901 13.1117949,29.5665934 13.1117949,29.3415385 C13.1117949,29.1164835 13.3489231,28.9476923 13.7464615,28.9476923 C14.1138971,28.9519965 14.474095,29.0512779 14.7926154,29.236044 L15.1134359,28.6452747 Z M34.5405128,28.2936264 C34.1802584,28.2829424 33.843071,28.4718429 33.6617436,28.7859341 L33.6617436,28.378022 L32.9433846,28.378022 L32.9433846,31.7397802 L33.6687179,31.7397802 L33.6687179,29.8549451 C33.6687179,29.2993407 33.9058462,28.9898901 34.3661538,28.9898901 C34.5212929,28.9877502 34.6753324,29.0164272 34.8194872,29.0742857 L35.0426667,28.370989 C34.8770159,28.3112313 34.702494,28.2803144 34.5265641,28.2795604 L34.5405128,28.2936264 Z M25.1948718,30.0518681 C25.1774281,30.5295595 25.3604099,30.9925495 25.6989031,31.3271942 C26.0373962,31.661839 26.500061,31.837155 26.9733333,31.8101099 C27.4088397,31.8324536 27.8368406,31.6894242 28.1729231,31.4092308 L27.8242051,30.8184615 C27.5734668,31.0112742 27.267715,31.1173367 26.9524103,31.1208791 C26.3964495,31.0755176 25.9681847,30.6073 25.9681847,30.0448352 C25.9681847,29.4823703 26.3964495,29.0141527 26.9524103,28.9687912 C27.267715,28.9723336 27.5734668,29.0783961 27.8242051,29.2712088 L28.1729231,28.6804396 C27.8368406,28.4002462 27.4088397,28.2572168 26.9733333,28.2795604 C26.500061,28.2525153 26.0373962,28.4278314 25.6989031,28.7624761 C25.3604099,29.0971208 25.1774281,29.5601108 25.1948718,30.0378022 L25.1948718,30.0518681 Z M31.9878974,30.0518681 L31.9878974,28.378022 L31.2625641,28.378022 L31.2625641,28.7859341 C31.012674,28.4616967 30.6233558,28.2784882 30.2164103,28.2936264 C29.2534522,28.2936264 28.4728205,29.080818 28.4728205,30.0518681 C28.4728205,31.0229182 29.2534522,31.8101099 30.2164103,31.8101099 C30.6233558,31.8252481 31.012674,31.6420395 31.2625641,31.3178022 L31.2625641,31.7257143 L31.9878974,31.7257143 L31.9878974,30.0518681 Z M29.2888205,30.0518681 C29.3210752,29.5000153 29.7848515,29.0753788 30.3326695,29.0961134 C30.8804875,29.1168481 31.3113924,29.5753478 31.3025327,30.1280861 C31.2936731,30.6808244 30.8482989,31.1250416 30.3001026,31.1279121 C30.0209675,31.1314737 29.7530423,31.0173109 29.5610166,30.8129879 C29.3689908,30.608665 29.2703174,30.3327524 29.2888205,30.0518681 Z M20.536,28.2936264 C19.573042,28.3072211 18.8033391,29.1054334 18.8168205,30.0764835 C18.8303019,31.0475336 19.6218625,31.8237046 20.5848205,31.8101099 C21.0865348,31.8360787 21.579924,31.6731578 21.9692308,31.352967 L21.6205128,30.8114286 C21.3451519,31.03412 21.004015,31.1578623 20.6510769,31.1630769 C20.152538,31.2063121 19.7104383,30.8415545 19.6537436,30.3402198 L22.129641,30.3402198 C22.129641,30.2487912 22.129641,30.1573626 22.129641,30.0589011 C22.129641,29.003956 21.4810256,28.3006593 20.5464615,28.3006593 L20.536,28.2936264 Z M20.536,28.9476923 C20.7552052,28.9429796 20.9672839,29.0262962 21.1255562,29.1793033 C21.2838284,29.3323105 21.3753216,29.5424672 21.3798974,29.7635165 L19.6363077,29.7635165 C19.6625761,29.2940038 20.0559821,28.9316527 20.5220513,28.9476923 L20.536,28.9476923 Z M38.7076923,30.0589011 L38.7076923,27.0276923 L38.0102564,27.0276923 L38.0102564,28.7859341 C37.7603663,28.4616967 37.3710481,28.2784882 36.9641026,28.2936264 C36.0011445,28.2936264 35.2205128,29.080818 35.2205128,30.0518681 C35.2205128,31.0229182 36.0011445,31.8101099 36.9641026,31.8101099 C37.3710481,31.8252481 37.7603663,31.6420395 38.0102564,31.3178022 L38.0102564,31.7257143 L38.7076923,31.7257143 L38.7076923,30.0589011 Z M39.9177436,31.250989 C39.9630814,31.2504289 40.0080925,31.2587901 40.0502564,31.2756044 C40.0903041,31.2920841 40.126962,31.315933 40.158359,31.3459341 C40.1890005,31.3762537 40.213827,31.4120181 40.2315897,31.4514286 C40.2672849,31.5344342 40.2672849,31.6286427 40.2315897,31.7116484 C40.213827,31.7510589 40.1890005,31.7868233 40.158359,31.8171429 C40.126962,31.8471439 40.0903041,31.8709929 40.0502564,31.8874725 C40.0085087,31.9060484 39.9633748,31.9156302 39.9177436,31.9156044 C39.7828071,31.9145788 39.6605686,31.8351409 39.6038974,31.7116484 C39.5686156,31.6285567 39.5686156,31.5345202 39.6038974,31.4514286 C39.6216602,31.4120181 39.6464866,31.3762537 39.6771282,31.3459341 C39.7085252,31.315933 39.745183,31.2920841 39.7852308,31.2756044 C39.8306513,31.2573849 39.8793629,31.2489984 39.9282051,31.250989 L39.9177436,31.250989 Z M39.9177436,31.8452747 C39.9525489,31.8454879 39.9870078,31.8382986 40.0188718,31.8241758 C40.0488742,31.8106681 40.076084,31.7915806 40.0990769,31.7679121 C40.1894984,31.6684283 40.1894984,31.5157476 40.0990769,31.4162637 C40.0761388,31.39253 40.0489159,31.3734332 40.0188718,31.36 C39.9869764,31.3459768 39.9525386,31.3387918 39.9177436,31.3389011 C39.8829786,31.3390864 39.8485991,31.3462591 39.8166154,31.36 C39.7852847,31.3729547 39.7568319,31.3920826 39.7329231,31.4162637 C39.6425016,31.5157476 39.6425016,31.6684283 39.7329231,31.7679121 C39.7568906,31.7920209 39.7853282,31.8111386 39.8166154,31.8241758 C39.8517975,31.8394753 39.8899165,31.8466827 39.9282051,31.8452747 L39.9177436,31.8452747 Z M39.9386667,31.4268132 C39.97122,31.4252212 40.0032984,31.4351745 40.0293333,31.4549451 C40.0509896,31.4730184 40.0626748,31.500513 40.0607179,31.5287912 C40.0617303,31.5524062 40.0528755,31.575367 40.0363077,31.5920879 C40.0160953,31.6106008 39.9903106,31.6217442 39.9630769,31.6237363 L40.0642051,31.7397802 L39.984,31.7397802 L39.8898462,31.6237363 L39.8584615,31.6237363 L39.8584615,31.7397802 L39.7922051,31.7397802 L39.7922051,31.4303297 L39.9386667,31.4268132 Z M39.8619487,31.4865934 L39.8619487,31.570989 L39.9386667,31.570989 C39.9523185,31.5750934 39.966861,31.5750934 39.9805128,31.570989 C39.9854865,31.5610357 39.9854865,31.549294 39.9805128,31.5393407 C39.9854865,31.5293873 39.9854865,31.5176456 39.9805128,31.5076923 C39.966861,31.5035879 39.9523185,31.5035879 39.9386667,31.5076923 L39.8619487,31.4865934 Z M36.0260513,30.0589011 C36.058306,29.5070483 36.5220823,29.0824118 37.0699003,29.1031464 C37.6177183,29.123881 38.0486231,29.5823808 38.0397635,30.1351191 C38.0309039,30.6878574 37.5855297,31.1320745 37.0373333,31.1349451 C36.7581982,31.1385066 36.4902731,31.0243439 36.2982473,30.8200209 C36.1062216,30.6156979 36.0075481,30.3397853 36.0260513,30.0589011 Z M11.5355897,30.0589011 L11.5355897,28.378022 L10.8102564,28.378022 L10.8102564,28.7859341 C10.5603663,28.4616967 10.1710481,28.2784882 9.76410256,28.2936264 C8.80114454,28.2936264 8.02051282,29.080818 8.02051282,30.0518681 C8.02051282,31.0229182 8.80114454,31.8101099 9.76410256,31.8101099 C10.1710481,31.8252481 10.5603663,31.6420395 10.8102564,31.3178022 L10.8102564,31.7257143 L11.5355897,31.7257143 L11.5355897,30.0589011 Z M8.83651282,30.0589011 C8.86876749,29.5070483 9.33254384,29.0824118 9.88036182,29.1031464 C10.4281798,29.123881 10.8590847,29.5823808 10.850225,30.1351191 C10.8413654,30.6878574 10.3959912,31.1320745 9.84779487,31.1349451 C9.56745686,31.1404949 9.29766647,31.0272025 9.1040941,30.8226446 C8.91052174,30.6180867 8.8109219,30.3410255 8.82953846,30.0589011 L8.83651282,30.0589011 Z" id="Shape" fill="#FFFFFF"></path>
                <g id="_Group_">
                    <rect id="Rectangle-path" fill="#FF5F00" x="14.8728205" y="2.76043956" width="10.9846154" height="19.9068132"></rect>
                    <path d="M15.5702564,12.7156044 C15.5661494,8.83041486 17.334366,5.15922435 20.3651282,2.76043956 C15.2179782,-1.31866311 7.82646429,-0.724506531 3.38514388,4.12535202 C-1.05617653,8.97521057 -1.05617653,16.4524817 3.38514388,21.3023403 C7.82646429,26.1521988 15.2179782,26.7463554 20.3651282,22.6672527 C17.3353302,20.2692295 15.5672216,16.5995599 15.5702564,12.7156044 Z" id="_Path_" fill="#EB001B"></path>
                    <path d="M40.6779487,12.7156044 C40.6778367,17.5625074 37.9333365,21.983877 33.610048,24.1019407 C29.2867595,26.2200044 24.1436928,25.6629081 20.3651282,22.6672527 C23.3936042,20.2671936 25.1618459,16.598012 25.1618459,12.7138462 C25.1618459,8.82968035 23.3936042,5.1604987 20.3651282,2.76043956 C24.1436928,-0.235215763 29.2867595,-0.792312061 33.610048,1.3257516 C37.9333365,3.44381526 40.6778367,7.86518492 40.6779487,12.7120879 L40.6779487,12.7156044 Z" id="Shape" fill="#F79E1B"></path>
                    <path d="M39.478359,20.5573626 L39.478359,20.1494505 L39.6422564,20.1494505 L39.6422564,20.0650549 L39.2272821,20.0650549 L39.2272821,20.1494505 L39.4051282,20.1494505 L39.4051282,20.5573626 L39.478359,20.5573626 Z M40.2838974,20.5573626 L40.2838974,20.0650549 L40.158359,20.0650549 L40.0118974,20.4167033 L39.8654359,20.0650549 L39.7538462,20.0650549 L39.7538462,20.5573626 L39.8445128,20.5573626 L39.8445128,20.1881319 L39.9805128,20.5081319 L40.0746667,20.5081319 L40.2106667,20.1881319 L40.2106667,20.5608791 L40.2838974,20.5573626 Z" id="Shape" fill="#F79E1B"></path>
                </g>
            </g>
        </g>
    </g>
</svg>
