<?xml version="1.0" encoding="UTF-8"?>
<svg width="75px" height="24px" viewBox="0 0 75 24" version="1.1" xmlns="http://www.w3.org/2000/svg" xmlns:xlink="http://www.w3.org/1999/xlink">
    <!-- Generator: Sketch 49.1 (51147) - http://www.bohemiancoding.com/sketch -->
    <desc>Created with Sketch.</desc>
    <defs></defs>
    <g id="Page-1" stroke="none" stroke-width="1" fill="none" fill-rule="evenodd">
        <g id="m2-deposit-payment-480" transform="translate(-245.000000, -454.000000)" fill="#FFFFFF" fill-rule="nonzero">
            <path d="M273.251649,454.478724 L263.495253,477.699912 L257.150603,477.699912 L252.362188,459.147023 C252.062912,458.00991 251.823492,457.590974 250.925664,457.11219 C249.035516,456.221842 247.046391,455.55888 245,455.137205 L245.11971,454.478877 L255.354948,454.478877 C256.74669,454.46431 257.929458,455.492681 258.108286,456.872798 L260.622204,470.338604 L266.847144,454.538725 L273.251649,454.538725 L273.251649,454.478724 Z M298.151408,470.099212 C298.151408,463.994713 289.651971,463.635625 289.711826,460.882616 C289.711826,460.044743 290.549799,459.147023 292.285599,458.907631 C294.315821,458.722698 296.359042,459.073513 298.211263,459.925047 L299.288656,455.017509 C297.490887,454.338325 295.584073,453.993517 293.662269,454.000092 C287.736605,454.000092 283.546742,457.172038 283.486887,461.66064 C283.427031,465.01213 286.479646,466.867419 288.754143,468.004531 C291.02864,469.141644 291.866613,469.85982 291.866613,470.877236 C291.866613,472.433285 290.011102,473.151462 288.275302,473.151462 C286.123899,473.208568 283.996053,472.692162 282.110217,471.655261 L281.032824,476.742343 C282.409493,477.400672 285.043121,477.939304 287.736605,477.999152 C293.961545,478.059 298.091553,474.946902 298.151408,470.099212 Z M313.833467,477.699912 L319.4,477.699912 L314.55173,454.478877 L309.404183,454.478877 C308.285897,454.464317 307.26942,455.12613 306.83041,456.154621 L297.792277,477.699912 L304.077072,477.699912 L305.334031,474.228726 L313.05535,474.228726 L313.833467,477.699912 Z M307.129686,469.440884 L310.302011,460.703072 L312.097667,469.440884 L307.129686,469.440884 Z M281.810941,454.478877 L276.842961,477.699912 L270.857442,477.699912 L275.825422,454.478877 L281.810941,454.478877 Z" id="Shape-Copy-21"></path>
        </g>
    </g>
</svg>
