<svg width="76px" height="29px" viewBox="0 0 76 29" version="1.1" xmlns="http://www.w3.org/2000/svg" xmlns:xlink="http://www.w3.org/1999/xlink">
    <!-- Generator: Sketch 47.1 (45422) - http://www.bohemiancoding.com/sketch -->
    <desc>Created with Sketch.</desc>
    <defs></defs>
    <g id="Page-1" stroke="none" stroke-width="1" fill="none" fill-rule="evenodd">
        <g id="popup_buy_success_update-copy-2" transform="translate(-511.000000, -728.000000)" fill="#4982FF">
            <g id="footer" transform="translate(133.000000, 692.000000)">
                <g id="Group-18" transform="translate(44.000000, 22.000000)">
                    <g id="CERTIFIED-+-Rectangle-3-+-Letters-+-DSS" transform="translate(334.000000, 14.000000)">
                        <g id="CERTIFIED" transform="translate(49.808609, 14.602225)">
                            <path d="M2.00095857,1.72029621 L2.75365529,1.94484258 C2.70309607,2.15317275 2.62346648,2.32719445 2.51476414,2.46691289 C2.4060618,2.60663133 2.27113389,2.71204232 2.10997636,2.78314903 C1.94881882,2.85425573 1.74374103,2.88980855 1.49473684,2.88980855 C1.19264546,2.88980855 0.945856936,2.84645906 0.754363865,2.75975878 C0.562870793,2.6730585 0.397607799,2.52055561 0.258569925,2.30224555 C0.119532052,2.08393549 0.0500141575,1.8045028 0.0500141575,1.4639391 C0.0500141575,1.00985417 0.172302453,0.660875172 0.416882713,0.416991644 C0.661462973,0.173108116 1.00747249,0.0511681817 1.45492165,0.0511681817 C1.80504429,0.0511681817 2.08027196,0.121026354 2.28061289,0.260744795 C2.48095383,0.400463235 2.62978532,0.615027622 2.72711183,0.904444391 L1.96872722,1.07098295 C1.94218363,0.987401383 1.91437647,0.926275482 1.88530492,0.887603414 C1.83727365,0.822734138 1.77849943,0.772835443 1.70898049,0.737905833 C1.63946156,0.702976223 1.56172791,0.68551168 1.47577723,0.68551168 C1.2811242,0.68551168 1.13197672,0.762854656 1.02833031,0.91754293 C0.949963504,1.03231165 0.910780691,1.21257068 0.910780691,1.45832544 C0.910780691,1.76271204 0.957547274,1.97135096 1.05108184,2.08424845 C1.14461641,2.19714594 1.27606843,2.25359384 1.44544184,2.25359384 C1.60975933,2.25359384 1.73394357,2.20806128 1.81799828,2.11699479 C1.902053,2.02592831 1.96303915,1.89369677 2.00095857,1.72029621 L2.00095857,1.72029621 Z M3.06269702,1.47142398 C3.06269702,1.02357648 3.18909319,0.674909348 3.44188933,0.425412133 C3.69468546,0.175914918 4.0466988,0.0511681817 4.4979399,0.0511681817 C4.96055683,0.0511681817 5.31699403,0.17373185 5.5672622,0.418862864 C5.81753037,0.663993878 5.94266258,1.00735927 5.94266258,1.44896934 C5.94266258,1.76957326 5.88799624,2.03247701 5.77866191,2.23768847 C5.66932758,2.44289993 5.51133237,2.60257575 5.30467153,2.71672073 C5.09801069,2.8308657 4.84047849,2.88793733 4.53206721,2.88793733 C4.2186,2.88793733 3.95917186,2.83866237 3.753775,2.74011097 C3.54837814,2.64155957 3.38185119,2.48562615 3.25418914,2.27230603 C3.12652709,2.05898592 3.06269702,1.7920279 3.06269702,1.47142398 L3.06269702,1.47142398 Z M3.9215676,1.47516642 C3.9215676,1.75210833 3.97370602,1.95107937 4.07798442,2.07208552 C4.18226283,2.19309167 4.32414253,2.25359384 4.50362778,2.25359384 C4.68816896,2.25359384 4.83099664,2.19433914 4.93211509,2.07582796 C5.03323354,1.95731678 5.08379201,1.7446236 5.08379201,1.43774202 C5.08379201,1.1795124 5.03102161,0.990832966 4.92547922,0.871698046 C4.81993684,0.752563125 4.67679317,0.692996559 4.49604394,0.692996559 C4.32287859,0.692996559 4.1838428,0.753498726 4.0789324,0.874504875 C3.97402201,0.995511025 3.9215676,1.19572954 3.9215676,1.47516642 L3.9215676,1.47516642 Z M6.39579739,0.0979486756 L7.52579046,0.0979486756 L7.96186161,1.7670767 L8.3960368,0.0979486756 L9.52223795,0.0979486756 L9.52223795,2.84115684 L8.82073218,2.84115684 L8.82073218,0.749133151 L8.27659122,2.84115684 L7.64144411,2.84115684 L7.09919911,0.749133151 L7.09919911,2.84115684 L6.39579739,2.84115684 L6.39579739,0.0979486756 Z M10.0663789,0.0979486756 L11.4940379,0.0979486756 C11.8049772,0.0979486756 12.0378621,0.170925516 12.1926998,0.316881387 C12.3475374,0.462837258 12.424955,0.670540574 12.424955,0.939997567 C12.424955,1.21693948 12.3405856,1.43337506 12.1718442,1.58931082 C12.0031028,1.74524658 11.7455706,1.82321329 11.3992399,1.82321329 L10.9290414,1.82321329 L10.9290414,2.84115684 L10.0663789,2.84115684 L10.0663789,0.0979486756 Z M10.9290414,1.26746102 L11.1394931,1.26746102 C11.3050746,1.26746102 11.4213591,1.23908114 11.48835,1.18232053 C11.555341,1.12555991 11.588836,1.05289493 11.588836,0.964323424 C11.588836,0.878246884 11.5597649,0.805270044 11.5016218,0.745390712 C11.4434787,0.68551138 11.334146,0.655572164 11.1736204,0.655572164 L10.9290414,0.655572164 L10.9290414,1.26746102 Z M12.8742979,0.0979486756 L13.7331685,0.0979486756 L13.7331685,2.16564651 L15.0736133,2.16564651 L15.0736133,2.84115684 L12.8742979,2.84115684 L12.8742979,0.0979486756 Z M15.4983087,0.0979486756 L16.3590752,0.0979486756 L16.3590752,2.84115684 L15.4983087,2.84115684 L15.4983087,0.0979486756 Z M18.68542,2.38832166 L17.7071039,2.38832166 L17.5724906,2.84115684 L16.6946604,2.84115684 L17.7393352,0.0979486756 L18.6759402,0.0979486756 L19.720615,2.84115684 L18.8219292,2.84115684 L18.68542,2.38832166 Z M18.5053037,1.795145 L18.1981579,0.809012184 L17.8929081,1.795145 L18.5053037,1.795145 Z M20.0012173,0.0979486756 L20.803209,0.0979486756 L21.8497798,1.6155079 L21.8497798,0.0979486756 L22.6593554,0.0979486756 L22.6593554,2.84115684 L21.8497798,2.84115684 L20.8088969,1.33482494 L20.8088969,2.84115684 L20.0012173,2.84115684 L20.0012173,0.0979486756 Z M23.0347557,0.0979486756 L25.6454948,0.0979486756 L25.6454948,0.775330228 L24.7695605,0.775330228 L24.7695605,2.84115684 L23.91069,2.84115684 L23.91069,0.775330228 L23.0347557,0.775330228 L23.0347557,0.0979486756 Z" id="COMPLIANT"></path>
                        </g>
                        <g id="Rectangle-3-+-Letters" transform="translate(0.000000, 0.033037)">
                            <path d="M41.4679543,18.8543403 L43.9556431,18.0805143 L43.1501986,16.309525 C42.5513289,17.0393126 41.961367,17.9826959 41.467954,18.8543407 L41.4679543,18.8543403 Z M27.9073787,20.3881792 C28.0498413,21.1572121 28.4354702,21.981383 28.9698457,22.7420295 L9.92379927,28.6665346 L0.0300121881,2.02261975 L35.7423526,0.0213578312 L40.6206487,10.7476207 C40.0674165,11.4993642 38.4097199,13.7608167 36.8483146,15.9804198 L36.8483146,8.86418754 L32.4191349,8.86418754 L32.4191349,18.4076727 C31.8066927,17.9982624 31.1630796,17.7106982 30.5434226,17.6079036 L30.5434226,17.1330469 C30.5434226,17.0965924 30.5189107,17.0836567 30.486959,17.1028574 C30.486959,17.1028574 30.0088493,17.482182 27.906156,17.6845727 C27.3100864,17.7507275 27.0272974,17.7197092 26.8124046,17.6845727 C23.8311929,17.189756 23.6892574,15.0339526 23.6892574,15.0339526 C23.6851526,14.9982886 23.681825,14.939673 23.681825,14.9035684 L23.681825,14.0777443 C23.681825,14.0413991 23.6852237,13.9827014 23.6903559,13.946958 C23.6903559,13.946958 23.8919179,11.6374318 26.8125307,11.3938336 L27.9062938,11.3938336 C29.1963705,11.5657823 30.2324942,12.1953237 30.2324942,12.1953237 C30.264187,12.2137097 30.289879,12.1986895 30.289879,12.1626516 L30.289879,9.27103383 C30.289879,9.23460353 30.2645471,9.19048095 30.2313934,9.17305523 C30.2313934,9.17305523 29.6505306,8.79938288 27.8776317,8.69527519 C27.7829589,8.64358161 26.2400424,8.63597482 25.8119295,8.69527519 C19.3706354,9.20507092 19.1317019,13.8043856 19.1317019,14.0144399 L19.1317019,15.131803 C19.1317019,15.2689834 19.1317019,19.9712929 25.8116616,20.3882371 C26.4642727,20.4372475 27.7429678,20.3882371 27.8773792,20.3882371 C27.8873991,20.3882371 27.897399,20.3882177 27.9073787,20.3881792 Z M34.6337248,7.7713425 C36.1286055,7.7713425 37.3404457,6.64327245 37.3404457,5.25172754 C37.3404457,3.86018262 36.1286055,2.73211258 34.6337248,2.73211258 C33.1388441,2.73211258 31.9270039,3.86018262 31.9270039,5.25172754 C31.9270039,6.64327245 33.1388441,7.7713425 34.6337248,7.7713425 Z M6.8461597,20.2330772 C6.8461588,20.2693939 6.87573387,20.2988345 6.91247802,20.2988345 L11.227208,20.2988345 C11.2638355,20.2988345 11.2935279,20.2690612 11.2935279,20.233112 L11.2935279,16.9205957 C11.2935279,16.8842982 11.3230194,16.8567233 11.3601212,16.858747 C11.3601212,16.858747 18.2472234,17.3505019 18.247224,12.7875779 C18.2472236,9.18709772 13.9262457,8.7920217 12.5036544,8.85796068 C12.4750407,8.85928697 6.91358237,8.85797615 6.91358237,8.85797615 C6.87650164,8.85796761 6.84644103,8.88780556 6.84644014,8.923718 L6.8461597,20.2330772 Z M11.2166793,14.3287704 L11.2166793,11.3443153 L12.2725442,11.3443153 C12.2725442,11.3443153 13.8079263,11.4125315 13.9274633,12.4434757 C13.9553761,12.5240264 13.9486444,13.0286701 13.9273092,13.0564829 C13.729504,14.269629 12.3955516,14.3290183 12.3955516,14.3290183 L11.2166793,14.3287704 Z" id="Combined-Shape"></path>
                            <path d="M34.7554639,25.7891943 C35.1153925,25.7891943 35.3911019,25.7891943 35.846193,25.5899275 C37.4188053,24.7737571 42.7121638,12.0150887 48.2953084,8.09071053 C48.329334,8.06555335 48.374962,8.02891669 48.4013498,7.99164904 C48.4379784,7.93991845 48.4394616,7.88712255 48.4394616,7.88712255 C48.4394616,7.88712255 48.4394611,7.62393034 47.6116675,7.62393034 C42.6412848,7.49021935 37.4725838,17.7738184 34.755464,21.8425448 C34.7215268,21.8873633 34.5346258,21.8425448 34.5346258,21.8425448 C34.5346258,21.8425448 32.7138686,19.7227358 31.1320653,18.9090993 C31.0990851,18.8921352 30.9191392,18.8380031 30.7324079,18.8516722 C30.6073313,18.8516722 29.8715665,18.9978027 29.5287394,19.3548146 C29.1235592,19.7767596 29.1319428,20.0135644 29.1355043,20.5270305 C29.1357945,20.5688555 29.1629976,20.7379532 29.2131756,20.8245518 C29.5998752,21.4919283 31.366408,23.889133 32.8138339,25.2116326 C33.0378092,25.3689321 33.3785852,25.7891943 34.7554639,25.7891943 L34.7554639,25.7891943 Z" id="Path-7"></path>
                        </g>
                        <g id="DSS" transform="translate(49.741662, 4.096552)">
                            <path d="M0.0214439787,0.160279651 L4.15738598,0.160279651 C4.9726971,0.160279651 5.63128653,0.269454553 6.13317403,0.487807633 C6.63506153,0.706160714 7.04988068,1.01953312 7.37764395,1.42793425 C7.70540721,1.83633538 7.94303201,2.31144838 8.09052548,2.85328751 C8.23801895,3.39512663 8.31176458,3.96930575 8.31176458,4.57584208 C8.31176458,5.52608234 8.20217038,6.26301293 7.9829787,6.78665596 C7.76378702,7.310299 7.4595863,7.74902036 7.07036742,8.10283323 C6.68114855,8.45664609 6.26325666,8.69218083 5.81667921,8.80944452 C5.20622013,8.97118754 4.65312792,9.05205784 4.15738598,9.05205784 L0.0214439787,9.05205784 L0.0214439787,0.160279651 Z M2.80536928,2.17397021 L2.80536928,7.03230195 L3.48752316,7.03230195 C4.06930295,7.03230195 4.48309787,6.96861659 4.72892032,6.84124396 C4.97474276,6.71387133 5.16730079,6.49147801 5.30660018,6.17405733 C5.44589957,5.85663665 5.51554822,5.34209938 5.51554822,4.63043008 C5.51554822,3.68827697 5.359863,3.04333635 5.0484879,2.69558885 C4.7371128,2.34784135 4.2208934,2.17397021 3.49981422,2.17397021 L2.80536928,2.17397021 Z M9.28890392,6.11037133 L11.9376276,5.94660734 C11.9949861,6.37118277 12.11175,6.69466397 12.2879228,6.91706062 C12.5747156,7.27693885 12.9844136,7.45687526 13.5170289,7.45687526 C13.9144418,7.45687526 14.220691,7.3648853 14.4357857,7.18090261 C14.6508803,6.99691992 14.758426,6.78362451 14.758426,6.54100998 C14.758426,6.31052617 14.6560016,6.10430691 14.4511495,5.92234601 C14.2462975,5.74038511 13.7710479,5.56853573 13.0253864,5.4067927 C11.8044683,5.13587314 10.9338602,4.77600031 10.413536,4.32716343 C9.88911478,3.87832654 9.6269081,3.30616918 9.6269081,2.61067419 C9.6269081,2.15375015 9.76108417,1.72210493 10.0294403,1.31572559 C10.2977965,0.909346246 10.701349,0.589908568 11.2401098,0.357402974 C11.7788707,0.124897379 12.5173512,0.00864632578 13.4555736,0.00864632578 C14.606842,0.00864632578 15.4846199,0.219919979 16.0889334,0.642473625 C16.6932469,1.06502727 17.0527568,1.73726162 17.167474,2.65919685 L14.5433325,2.81083018 C14.4736828,2.4105162 14.3272158,2.11938312 14.103927,1.93742222 C13.8806383,1.75546132 13.5723406,1.66448224 13.1790247,1.66448224 C12.8553585,1.66448224 12.6115882,1.73221111 12.4477066,1.86767089 C12.283825,2.00313067 12.2018854,2.16790391 12.2018854,2.36199553 C12.2018854,2.50352068 12.2694855,2.6308914 12.4046879,2.74411151 C12.5357932,2.8613752 12.8471636,2.97055011 13.3388085,3.0716395 C14.5556296,3.33042833 15.427262,3.59224592 15.9537317,3.85710012 C16.4802015,4.12195432 16.863269,4.4504899 17.1029459,4.84271673 C17.3426228,5.23494356 17.4624594,5.67366493 17.4624594,6.158894 C17.4624594,6.72903815 17.3026772,7.25469509 16.9831081,7.73588058 C16.6635389,8.21706607 16.2169681,8.58199329 15.6433824,8.83067319 C15.0697967,9.07935308 14.3466799,9.20369117 13.4740102,9.20369117 C11.9417169,9.20369117 10.8805993,8.91255809 10.2906254,8.33028321 C9.70065151,7.74800833 9.3667477,7.00804511 9.28890392,6.11037133 L9.28890392,6.11037133 Z" id="DS"></path>
                            <path d="M17.9496823,6.11037133 L20.598406,5.94660734 C20.6557645,6.37118277 20.7725284,6.69466397 20.9487012,6.91706062 C21.2354941,7.27693885 21.645192,7.45687526 22.1778073,7.45687526 C22.5752202,7.45687526 22.8814695,7.3648853 23.0965641,7.18090261 C23.3116587,6.99691992 23.4192044,6.78362451 23.4192044,6.54100998 C23.4192044,6.31052617 23.31678,6.10430691 23.1119279,5.92234601 C22.9070759,5.74038511 22.4318263,5.56853573 21.6861649,5.4067927 C20.4652467,5.13587314 19.5946386,4.77600031 19.0743144,4.32716343 C18.5498932,3.87832654 18.2876865,3.30616918 18.2876865,2.61067419 C18.2876865,2.15375015 18.4218626,1.72210493 18.6902187,1.31572559 C18.9585749,0.909346246 19.3621274,0.589908568 19.9008883,0.357402974 C20.4396491,0.124897379 21.1781296,0.00864632578 22.116352,0.00864632578 C23.2676204,0.00864632578 24.1453983,0.219919979 24.7497118,0.642473625 C25.3540253,1.06502727 25.7135352,1.73726162 25.8282524,2.65919685 L23.2041109,2.81083018 C23.1344612,2.4105162 22.9879942,2.11938312 22.7647054,1.93742222 C22.5414167,1.75546132 22.233119,1.66448224 21.8398031,1.66448224 C21.5161369,1.66448224 21.2723666,1.73221111 21.108485,1.86767089 C20.9446034,2.00313067 20.8626638,2.16790391 20.8626638,2.36199553 C20.8626638,2.50352068 20.9302639,2.6308914 21.0654663,2.74411151 C21.1965716,2.8613752 21.507942,2.97055011 21.9995869,3.0716395 C23.216408,3.33042833 24.0880404,3.59224592 24.6145101,3.85710012 C25.1409799,4.12195432 25.5240474,4.4504899 25.7637243,4.84271673 C26.0034012,5.23494356 26.1232378,5.67366493 26.1232378,6.158894 C26.1232378,6.72903815 25.9634557,7.25469509 25.6438865,7.73588058 C25.3243173,8.21706607 24.8777465,8.58199329 24.3041608,8.83067319 C23.7305751,9.07935308 23.0074583,9.20369117 22.1347886,9.20369117 C20.6024953,9.20369117 19.5413777,8.91255809 18.9514038,8.33028321 C18.3614299,7.74800833 18.0275261,7.00804511 17.9496823,6.11037133 L17.9496823,6.11037133 Z" id="S"></path>
                        </g>
                    </g>
                </g>
            </g>
        </g>
    </g>
</svg>