<?xml version="1.0" encoding="UTF-8"?>
<svg width="20px" height="20px" viewBox="0 0 20 20" version="1.1" xmlns="http://www.w3.org/2000/svg" xmlns:xlink="http://www.w3.org/1999/xlink">
    <!-- Generator: Sketch 47.1 (45422) - http://www.bohemiancoding.com/sketch -->
    <title>billing_usd</title>
    <desc>Created with Sketch.</desc>
    <defs></defs>
    <g id="Page-1" stroke="none" stroke-width="1" fill="none" fill-rule="evenodd">
        <g id="Artboard" transform="translate(-49.000000, -21.000000)" fill="#000000">
            <g id="usd" transform="translate(49.000000, 21.000000)">
                <path d="M10,20 C4.4771525,20 0,15.5228475 0,10 C0,4.4771525 4.4771525,0 10,0 C15.5228475,0 20,4.4771525 20,10 C20,15.5228475 15.5228475,20 10,20 Z M10.8107281,15.9616089 L10.8107281,15.0350952 C12.930479,14.8666382 14.1447735,13.7786865 14.1447735,12.0309448 C14.1447735,10.5499268 13.2744122,9.65148926 11.5056133,9.23034668 L10.8107281,9.08294678 L10.8107281,6.17004395 C11.6670513,6.28234863 12.26367,6.87194824 12.2847271,7.6159668 L13.9622784,7.6159668 C13.9271832,6.03668213 12.7058697,4.90661621 10.8107281,4.73815918 L10.8107281,3.76953125 L9.84210014,3.76953125 L9.84210014,4.73815918 C7.85571098,4.91363525 6.66247368,5.99456787 6.66247368,7.65106201 C6.66247368,9.05487061 7.54687309,10.0094604 9.16827202,10.4025269 L9.84210014,10.5709839 L9.84210014,13.6383057 C8.85241508,13.526001 8.21368217,12.9574585 8.15051079,12.1572876 L6.4378643,12.1572876 C6.44488335,13.8137817 7.75042534,14.9157715 9.84210014,15.0491333 L9.84210014,15.9616089 L10.8107281,15.9616089 Z M12.439146,12.2134399 C12.439146,13.0557251 11.8425274,13.5891724 10.8107281,13.6523438 L10.8107281,10.753479 C11.9267559,10.9780884 12.439146,11.4413452 12.439146,12.2134399 Z M8.38915825,7.51068115 C8.38915825,6.7666626 8.99981499,6.2121582 9.84210014,6.1630249 L9.84210014,8.87939453 C8.89452934,8.68286133 8.38915825,8.21258545 8.38915825,7.51068115 Z" id="billing_usd"></path>
            </g>
        </g>
    </g>
</svg>