<?xml version="1.0" encoding="UTF-8"?>
<svg width="22px" height="17px" viewBox="0 0 22 17" version="1.1" xmlns="http://www.w3.org/2000/svg" xmlns:xlink="http://www.w3.org/1999/xlink">
    <!-- Generator: Sketch 47.1 (45422) - http://www.bohemiancoding.com/sketch -->
    <title>billing_vip</title>
    <desc>Created with Sketch.</desc>
    <defs>
        <linearGradient x1="50%" y1="0%" x2="50%" y2="100%" id="linearGradient-1">
            <stop stop-color="#F8CF55" offset="0%"></stop>
            <stop stop-color="#FCBA37" offset="100%"></stop>
        </linearGradient>
    </defs>
    <g id="Page-1" stroke="none" stroke-width="1" fill="none" fill-rule="evenodd">
        <g id="billing_vip">
            <g id="Group-23-Copy-2">
                <path d="M19.7353698,3.4829206 C18.9708034,3.4829206 18.3495932,4.10744429 18.3495932,4.87608884 C18.3495932,5.18835068 18.445164,5.47659239 18.6124129,5.69277367 L16.7965678,7.01388148 C15.4824693,7.97468716 13.6188387,7.49428432 12.9020578,6.02905565 L11.2295688,2.64221563 C11.6835301,2.4020142 11.9941352,1.94563151 11.9941352,1.39316824 C11.9941352,0.624523693 11.372925,1.77635684e-15 10.6083586,1.77635684e-15 C9.84379221,1.77635684e-15 9.22258202,0.624523693 9.22258202,1.39316824 C9.22258202,1.94563151 9.53318712,2.4020142 9.98714841,2.64221563 L8.31465944,6.02905565 C7.59787845,7.49428432 5.73424789,7.95066702 4.42014941,7.01388148 L2.55651885,5.66875352 C2.69987505,5.45257224 2.79544585,5.16433054 2.79544585,4.87608884 C2.79544585,4.10744429 2.17423566,3.4829206 1.40966927,3.4829206 C0.645102888,3.4829206 1.77635684e-15,4.10744429 1.77635684e-15,4.87608884 C1.77635684e-15,5.64473338 0.621210188,6.26925707 1.38577657,6.26925707 C1.57691817,6.26925707 1.74416707,6.22121679 1.91141596,6.17317651 L5.089145,14.4120852 L16.1036795,14.4120852 L19.2814085,6.19719665 C19.4247647,6.24523693 19.5681209,6.26925707 19.7353698,6.26925707 C20.4999362,6.26925707 21.1211464,5.64473338 21.1211464,4.87608884 C21.1211464,4.10744429 20.4999362,3.4829206 19.7353698,3.4829206 L19.7353698,3.4829206 Z" id="Shape" fill="url(#linearGradient-1)"></path>
                <path d="M5.089145,16.2856563 C5.089145,16.6459584 5.3758574,16.9342001 5.73424789,16.9342001 L15.4346839,16.9342001 C15.7930744,16.9342001 16.0797868,16.6459584 16.0797868,16.2856563 L16.0797868,15.3728909 L5.089145,15.3728909 L5.089145,16.2856563 L5.089145,16.2856563 Z" id="Shape" fill="#F6B132"></path>
            </g>
        </g>
    </g>
</svg>