<?xml version="1.0" encoding="UTF-8"?>
<svg width="20px" height="20px" viewBox="0 0 20 20" version="1.1" xmlns="http://www.w3.org/2000/svg" xmlns:xlink="http://www.w3.org/1999/xlink">
    <!-- Generator: Sketch 47.1 (45422) - http://www.bohemiancoding.com/sketch -->
    <title>billing_btc</title>
    <desc>Created with Sketch.</desc>
    <defs></defs>
    <g id="Page-1" stroke="none" stroke-width="1" fill="none" fill-rule="evenodd">
        <g id="Artboard" transform="translate(-49.000000, -57.000000)" fill="#000000">
            <path d="M59,57 L59,57 C64.5228475,57 69,61.4771525 69,67 L69,67 C69,72.5228475 64.5228475,77 59,77 C53.4771525,77 49,72.5228475 49,67 L49,67 L49,67 C49,61.4771525 53.4771525,57 59,57 L59,57 Z M63.8561337,65.3865423 C64.1100589,63.8923732 63.038705,63.0575144 61.5589881,62.4805446 L62.096756,60.461578 L60.9217145,60.122397 L60.3981536,62.0881601 C60.0892489,61.999003 59.7718001,61.9142042 59.4563546,61.8301629 L59.9836265,59.8514556 L58.8092589,59.5122922 L58.2711726,61.5305455 C58.0153301,61.4625162 57.7641868,61.3953149 57.52054,61.3251376 L57.5220539,61.3188328 L55.901582,60.8502627 L55.5522614,62.1628789 C55.5522614,62.1628789 56.4245695,62.3961458 56.4056947,62.408693 C56.881596,62.5462818 56.9595188,62.8799968 56.9381482,63.1423801 L56.3255794,65.4424215 C56.3583721,65.4520919 56.4008356,65.4658928 56.4474953,65.486853 C56.408337,65.4756059 56.3665105,65.4632316 56.3233269,65.4511742 L55.4647353,68.67318 C55.4021175,68.8238075 55.2475357,69.0481603 54.9148535,68.952741 C54.9261772,68.9710136 54.0607739,68.7058526 54.0607739,68.7058526 L53.4363611,70.1060798 L54.965485,70.5475849 C55.2499474,70.63011 55.528589,70.7160074 55.8029699,70.797211 L55.2595387,72.8392923 L56.4332323,73.178438 L56.9713741,71.1580714 C57.291796,71.2581042 57.6029673,71.3508454 57.9075281,71.4384789 L57.3713203,73.4493795 L58.5463618,73.7885605 L59.0896916,71.7503537 C61.0966984,72.2022579 62.6179657,72.0810147 63.3064744,70.1904175 C63.8612462,68.6681744 63.3442755,67.7681743 62.2979372,67.1627237 C63.0758323,66.9966369 63.6720397,66.4803715 63.8561337,65.3865423 L63.8561337,65.3865423 Z M61.0491823,69.2779777 C60.6433525,70.804121 58.1913738,69.9091413 57.3948292,69.6799731 L58.115801,66.9746098 C58.9123179,67.2048346 61.4732486,67.6864 61.0491823,69.2779777 Z M58.4456436,65.7362072 L59.0993286,63.282508 C59.7626526,63.4739981 61.9050469,63.8550762 61.5194704,65.303149 C61.1492871,66.6913525 59.1089676,65.9276973 58.4456436,65.7362072 Z" id="billing_btc"></path>
        </g>
    </g>
</svg>