<?xml version="1.0" encoding="UTF-8"?>
<svg width="36px" height="20px" viewBox="0 0 36 20" version="1.1" xmlns="http://www.w3.org/2000/svg" xmlns:xlink="http://www.w3.org/1999/xlink">
    <!-- Generator: Sketch 47.1 (45422) - http://www.bohemiancoding.com/sketch -->
    <title>billing_crypto_purchase</title>
    <desc>Created with Sketch.</desc>
    <defs></defs>
    <g id="Page-1" stroke="none" stroke-width="1" fill="none" fill-rule="evenodd">
        <g id="Artboard" transform="translate(-42.000000, -83.000000)" fill="#000000">
            <g id="billing_crypto_purchase" transform="translate(42.000000, 83.000000)">
                <path d="M19.564654,17.6544662 C20.5426085,16.4340442 21.2918225,15.0224148 21.7472889,13.484585 L21.965485,13.5475849 C22.2499474,13.63011 22.528589,13.7160074 22.8029699,13.797211 L22.2595387,15.8392923 L23.4332323,16.178438 L23.9713741,14.1580714 C24.291796,14.2581042 24.6029673,14.3508454 24.9075281,14.4384789 L24.3713203,16.4493795 L25.5463618,16.7885605 L26.0896916,14.7503537 C28.0966984,15.2022579 29.6179657,15.0810147 30.3064744,13.1904175 C30.8612462,11.6681744 30.3442755,10.7681743 29.2979372,10.1627237 C30.0758323,9.99663686 30.6720397,9.48037147 30.8561337,8.38654233 L30.8561337,8.38654233 C31.1100589,6.89237321 30.038705,6.05751439 28.5589881,5.48054455 L29.096756,3.46157802 L27.9217145,3.122397 L27.3981536,5.08816007 C27.0892489,4.99900296 26.7718001,4.91420422 26.4563546,4.83016288 L26.9836265,2.85145558 L25.8092589,2.51229221 L25.2711726,4.53054546 C25.0153301,4.46251616 24.7641868,4.39531486 24.52054,4.32513762 L24.5220539,4.3188328 L22.901582,3.8502627 L22.5522614,5.16287891 C22.5522614,5.16287891 23.4245695,5.39614585 23.4056947,5.40869299 C23.881596,5.54628185 23.9595188,5.87999685 23.9381482,6.14238006 L23.3255794,8.44242147 C23.3583721,8.45209194 23.4008356,8.46589282 23.4474953,8.48685298 C23.408337,8.47560594 23.3665105,8.46323163 23.3233269,8.45117425 L22.4647353,11.67318 C22.4144726,11.7940873 22.3049563,11.9624967 22.0916381,11.9748979 C22.1958376,11.3319991 22.25,10.6723247 22.25,10 C22.25,7.10385949 21.2449702,4.44245628 19.564654,2.34553381 C21.303839,0.881828686 23.5489384,4.50252704e-16 26,0 L26,0 L26,0 C31.5228475,-1.01453063e-15 36,4.4771525 36,10 L36,10 C36,15.5228475 31.5228475,20 26,20 C23.5489384,20 21.303839,19.1181713 19.564654,17.6544662 Z M28.0491823,12.2779777 C27.6433525,13.804121 25.1913738,12.9091413 24.3948292,12.6799731 L25.115801,9.97460977 C25.9123179,10.2048346 28.4732486,10.6864 28.0491823,12.2779777 Z M25.4456436,8.73620721 L26.0993286,6.28250801 C26.7626526,6.47399807 28.9050469,6.85507622 28.5194704,8.30314902 C28.1492871,9.6913525 26.1089676,8.92769727 25.4456436,8.73620721 Z" id="Combined-Shape"></path>
                <path d="M10,20 C4.4771525,20 0,15.5228475 0,10 C0,4.4771525 4.4771525,0 10,0 C15.5228475,0 20,4.4771525 20,10 C20,15.5228475 15.5228475,20 10,20 Z M10.8107281,15.9616089 L10.8107281,15.0350952 C12.930479,14.8666382 14.1447735,13.7786865 14.1447735,12.0309448 C14.1447735,10.5499268 13.2744122,9.65148926 11.5056133,9.23034668 L10.8107281,9.08294678 L10.8107281,6.17004395 C11.6670513,6.28234863 12.26367,6.87194824 12.2847271,7.6159668 L13.9622784,7.6159668 C13.9271832,6.03668213 12.7058697,4.90661621 10.8107281,4.73815918 L10.8107281,3.76953125 L9.84210014,3.76953125 L9.84210014,4.73815918 C7.85571098,4.91363525 6.66247368,5.99456787 6.66247368,7.65106201 C6.66247368,9.05487061 7.54687309,10.0094604 9.16827202,10.4025269 L9.84210014,10.5709839 L9.84210014,13.6383057 C8.85241508,13.526001 8.21368217,12.9574585 8.15051079,12.1572876 L6.4378643,12.1572876 C6.44488335,13.8137817 7.75042534,14.9157715 9.84210014,15.0491333 L9.84210014,15.9616089 L10.8107281,15.9616089 Z M12.439146,12.2134399 C12.439146,13.0557251 11.8425274,13.5891724 10.8107281,13.6523438 L10.8107281,10.753479 C11.9267559,10.9780884 12.439146,11.4413452 12.439146,12.2134399 Z M8.38915825,7.51068115 C8.38915825,6.7666626 8.99981499,6.2121582 9.84210014,6.1630249 L9.84210014,8.87939453 C8.89452934,8.68286133 8.38915825,8.21258545 8.38915825,7.51068115 Z" id="Combined-Shape"></path>
            </g>
        </g>
    </g>
</svg>