<svg xmlns="http://www.w3.org/2000/svg" width="75" height="16" viewBox="0 0 75 16" xmlns:xlink="http://www.w3.org/1999/xlink">
  <defs>
    <polygon id="a" points="6.18 .051 .073 .051 .073 13.77 6.18 13.77"/>
  </defs>
  <g fill="none" fill-rule="evenodd">
    <path fill="#06A1E3" d="M0.223238641,6.09171831 C1.01678999,2.41983099 4.35005817,0.566985915 8.8280495,1.17453521 C9.0087025,1.19909859 9.18538995,1.25588732 9.3620774,1.30433803 C12.3254475,2.11876056 11.6012934,1.86276056 10.8780204,4.25509859 C10.707061,4.82073239 10.4852103,4.95030986 9.94347163,4.66861972 C8.94591457,4.14985915 7.86772459,3.94861972 6.74569321,4.05002817 C4.66333691,4.23842254 3.42233892,5.85149296 3.45626643,8.32022535 C3.48953302,10.7287887 4.74727446,12.248338 6.8256652,12.4 C7.99065675,12.4849577 9.1014524,12.2573521 10.1095843,11.6763944 C10.692741,11.3403944 10.837704,11.5553803 10.9824467,12.0987042 C11.651744,14.6084507 11.6314756,14.6738028 9.1067398,15.1738592 C7.42710751,15.5067042 5.7545251,15.4819155 4.12269976,14.8836056 C2.32189777,14.2233239 1.2104412,12.919662 0.433412986,11.131493 C-0.0525876479,10.0128451 -0.140270446,7.77374648 0.223238641,6.09171831"/>
    <g transform="translate(68.075 .175)">
      <mask id="b" fill="white">
        <use xlink:href="#a"/>
      </mask>
      <path fill="#FCC61A" d="M6.17141494,5.68448451 C6.17317741,7.4224 6.18925993,8.02363944 6.17317741,9.2468507 C6.19476765,9.72955493 6.0876977,10.2791887 6.02997686,10.9126535 C5.91189148,12.2088789 4.9628023,12.9007099 3.71078888,13.1413859 C2.67203413,13.3408225 1.63504184,13.5492732 0.598049556,13.7579493 C0.394264159,13.7989634 0.241149725,13.7392451 0.0734949281,13.4760338 C0.36099757,13.2718648 0.66832798,13.0674704 0.961118026,12.8432451 C3.39618829,10.9798085 4.45543174,8.57665352 3.6828097,5.47783662 C3.33009573,4.06352676 2.94147147,2.65845634 2.56562511,1.25045634 C2.46053793,0.856540845 2.27459753,0.474794366 2.4261698,0.0506816901 L6.12735323,0.0506816901 C6.14211391,1.33473803 6.15885735,2.61879437 6.17053371,3.9028507 C6.17582111,4.49665352 6.17141494,5.09068169 6.17141494,5.68448451" mask="url(#b)"/>
    </g>
    <path fill="#06A1E3" d="M39.4524123 8.13588732C39.4524123 6.18591549 39.4724604 4.23549296 39.4409563 2.28597183 39.4306018 1.6475493 39.547145 1.36676056 40.2688757 1.3543662 42.8876833 1.30952113 42.8870224 1.27864789 42.8870224 3.93938028 42.8870224 6.71414085 42.8870224 6.71414085 45.6384557 6.71414085 48.2299451 6.71414085 48.2299451 6.71414085 48.2299451 4.01757746L48.2299451 3.90512676C48.2299451 1.10715493 48.2286232 1.12067606 50.9796159 1.36247887 51.4482122 1.40349296 51.6191716 1.55357746 51.6180701 2.02816901 51.6088171 6.15323944 51.6127827 10.2783099 51.6125623 14.4033803 51.6125623 14.4784225 51.6378978 14.5784789 51.600886 14.6244507 50.8298061 15.5837746 49.7917123 14.852507 48.8963784 15.0587042 48.3599271 15.1819718 48.2123204 14.8612958 48.2220139 14.3463662 48.2464682 13.0343662 48.2043893 11.7205634 48.2411808 10.4092394 48.2581445 9.81205634 48.0514951 9.62929577 47.4846413 9.64371831 46.2022253 9.67661972 44.9180468 9.67752113 43.6356308 9.64371831 43.0650317 9.62861972 42.8612463 9.82061972 42.8771085 10.412169 42.9112563 11.6863099 42.8643306 12.9624789 42.8971566 14.2366197 42.9132391 14.8615211 42.712538 15.0661408 42.0824556 15.0848451 39.4517514 15.1628169 39.4524123 15.1855775 39.4524123 12.523493L39.4524123 8.13588732M19.151311 4.0900507C18.7651102 5.26030423 18.4866402 6.10830423 18.2055265 6.95540282 17.2751635 9.7592338 17.2731807 9.74300845 20.1975563 9.45388169 20.7408371 9.40024789 20.801422 9.19652958 20.655798 8.74898028 20.1854393 7.3056 19.7221304 5.8599662 19.151311 4.0900507M12.3160183 15.0683042C12.9463211 13.2346141 13.5347652 11.5126986 14.1298185 9.79303662 15.0088496 7.2519662 15.9063866 4.71765634 16.7631665 2.16869859 16.9568177 1.59269859 17.2075288 1.31506479 17.8508297 1.35945915 18.9801313 1.43743099 20.3237931 1.04937465 21.1885041 1.55393803 22.0177454 2.03821972 22.0391153 3.53162817 22.40659 4.58312113 23.5279604 7.79033239 24.6096753 11.0121915 25.7024057 14.229769 25.7839199 14.4699944 25.8312862 14.7226141 25.9196299 15.0676282 24.9306649 15.0676282 24.0199094 15.0376563 23.1122382 15.077769 22.4691576 15.1061634 22.4433815 14.6036282 22.3015028 14.2079099 21.5674348 12.158107 21.5725018 12.1560789 19.4709787 12.1560789L18.9213089 12.1560789C16.7215282 12.1560789 16.7025816 12.1493183 15.9570575 14.3057127 15.7722187 14.8406986 15.5569772 15.1165296 14.9601614 15.0809239 14.1265139 15.0311211 13.2877993 15.0683042 12.3160183 15.0683042M32.2783512 1.13289014C33.6574826 1.06460845 34.9621498 1.39227042 36.2432439 1.89548169 36.835213 2.12804507 36.9768714 2.42077746 36.8246382 3.07272113 36.3701416 5.02179155 36.4014255 5.03824225 34.5977595 4.42505915 33.5746466 4.07711549 32.5347903 3.90787606 31.4583628 4.01018592 30.8597845 4.06697465 30.3577013 4.30945352 30.271781 4.97041127 30.1907075 5.59328451 30.6308839 5.93581972 31.1349499 6.12308732 32.0981388 6.48072113 33.0840195 6.77322817 34.0496318 7.12410141 36.4871255 8.00928451 37.4373162 9.31429859 37.2366151 11.4616789 37.0517763 13.4418479 35.4902293 14.9681577 33.2045283 15.2784676 31.2479681 15.5441577 29.3337073 15.2969465 27.4754047 14.5713127 26.8019215 14.3085521 26.5071487 13.9603831 26.83651 13.239031 26.8814529 13.1405521 26.8744031 13.0179606 26.8975355 12.9082141 27.2304217 11.3293972 27.2321841 11.3255662 28.6622068 11.8765521 29.8093534 12.3184676 30.9877838 12.5645521 32.2166648 12.4667493 32.9342097 12.4097352 33.6885461 12.2731718 33.8381356 11.4105239 33.9971984 10.4926648 33.2477087 10.2042141 32.5870034 9.96331268 31.690568 9.63655211 30.7591035 9.40827042 29.8681758 9.06798873 27.5276179 8.17379155 26.5983565 6.74550986 26.8951121 4.58528451 27.1557371 2.68714366 28.732265 1.34066479 30.9591436 1.13852394 31.3955749 1.09908732 31.838395 1.13289014 32.2783512 1.13289014"/>
    <path fill="#E85311" d="M64.1014568,0.643966197 C64.9571351,0.796529577 66.1047223,0.110783099 66.771376,0.751909859 C67.3571764,1.31529014 67.4261329,2.45354366 67.6942484,3.34706479 C68.091685,4.67145915 68.5252522,5.98909296 68.8328029,7.33624789 C69.3600013,9.64633239 66.8980534,12.1919099 64.5931854,11.7903324 C63.7535896,11.6440789 63.1686704,11.1390648 62.8710336,10.3735437 C61.7346822,7.4496 60.6465783,4.5060507 59.529614,1.57421972 C59.3086445,0.993938028 59.5452559,0.879233803 60.0645231,0.860980282 C61.3835104,0.814783099 62.7009554,0.722388732 64.1014568,0.643966197"/>
    <path fill="#06A1E3" d="M61.7847803,15.0827268 C60.3045273,15.3524732 58.7293212,15.6668394 57.1446419,15.9190085 C55.9664318,16.1067268 55.1506293,15.4081352 55.0904851,14.1617127 C54.9204069,10.6365296 54.7809516,7.10999437 54.6295996,3.58413521 C54.6016205,2.93129014 54.6822534,2.31495211 55.2109939,1.80385352 C57.6222708,6.12227606 58.1792108,11.4004732 61.7847803,15.0827268"/>
    <path fill="#EFF9FC" d="M19.151311,4.0900507 C19.7221304,5.8599662 20.1854393,7.3056 20.655798,8.74898028 C20.801422,9.19652958 20.7408371,9.40024789 20.1975563,9.45388169 C17.2731807,9.74300845 17.2751635,9.7592338 18.2055265,6.95540282 C18.4866402,6.10830423 18.7651102,5.26030423 19.151311,4.0900507"/>
  </g>
</svg>
