<?xml version="1.0" encoding="UTF-8"?>
<svg width="40px" height="40px" viewBox="0 0 40 40" version="1.1" xmlns="http://www.w3.org/2000/svg" xmlns:xlink="http://www.w3.org/1999/xlink">
    <!-- Generator: Sketch 50.1 (55044) - http://www.bohemiancoding.com/sketch -->
    <title>file</title>
    <desc>Created with Sketch.</desc>
    <defs></defs>
    <g id="Page-1" stroke="none" stroke-width="1" fill="none" fill-rule="evenodd" opacity="0.599999964">
        <g id="m6-button_trade-1280-copy-4" transform="translate(-881.000000, -454.000000)" fill-rule="nonzero">
            <g id="file" style="mix-blend-mode: luminosity;" transform="translate(881.000000, 454.000000)">
                <path d="M23.6065574,14.4268852 L7.21311475,14.4268852 C6.85114754,14.4268852 6.55737705,14.7206557 6.55737705,15.082623 C6.55737705,15.4445902 6.85114754,15.7383607 7.21311475,15.7383607 L23.6065574,15.7383607 C23.9685246,15.7383607 24.2622951,15.4445902 24.2622951,15.082623 C24.2622951,14.7206557 23.9685246,14.4268852 23.6065574,14.4268852 Z" id="Shape" fill="#25258E"></path>
                <path d="M7.21311475,10.492459 L13.7704918,10.492459 C14.132459,10.492459 14.4262295,10.1986885 14.4262295,9.83672131 C14.4262295,9.4747541 14.132459,9.18098361 13.7704918,9.18098361 L7.21311475,9.18098361 C6.85114754,9.18098361 6.55737705,9.4747541 6.55737705,9.83672131 C6.55737705,10.1986885 6.85114754,10.492459 7.21311475,10.492459 Z" id="Shape" fill="#25258E"></path>
                <path d="M24.2622951,20.3285246 C24.2622951,19.9665574 23.9685246,19.6727869 23.6065574,19.6727869 L7.21311475,19.6727869 C6.85114754,19.6727869 6.55737705,19.9665574 6.55737705,20.3285246 C6.55737705,20.6904918 6.85114754,20.9842623 7.21311475,20.9842623 L23.6065574,20.9842623 C23.9685246,20.9842623 24.2622951,20.6904918 24.2622951,20.3285246 Z" id="Shape" fill="#25258E"></path>
                <path d="M19.0163934,25.5744262 C19.0163934,25.212459 18.722623,24.9186885 18.3606557,24.9186885 L7.21311475,24.9186885 C6.85114754,24.9186885 6.55737705,25.212459 6.55737705,25.5744262 C6.55737705,25.9363934 6.85114754,26.2301639 7.21311475,26.2301639 L18.3606557,26.2301639 C18.722623,26.2301639 19.0163934,25.9363934 19.0163934,25.5744262 Z" id="Shape" fill="#25258E"></path>
                <path d="M7.21311475,30.1645902 C6.85114754,30.1645902 6.55737705,30.4583607 6.55737705,30.8203279 C6.55737705,31.1822951 6.85114754,31.4760656 7.21311475,31.4760656 L16.3934426,31.4760656 C16.7554098,31.4760656 17.0491803,31.1822951 17.0491803,30.8203279 C17.0491803,30.4583607 16.7554098,30.1645902 16.3934426,30.1645902 L7.21311475,30.1645902 Z" id="Shape" fill="#25258E"></path>
                <path d="M1.31147541,1.31213115 L1.31147541,38.0334426 L19.6721311,38.0334426 L19.6721311,39.344918 L0,39.344918 L0,0.000655737705 L21.255082,0.000655737705 L30.8196721,9.5652459 L30.8196721,21.64 L29.5081967,21.64 L29.5081967,10.492459 L20.3278689,10.492459 L20.3278689,1.31213115 L1.31147541,1.31213115 Z M21.6393443,2.23934426 L21.6393443,9.18098361 L28.5809836,9.18098361 L21.6393443,2.23934426 Z" id="Combined-Shape" fill="#25258E"></path>
                <path d="M39.1429508,37.1383607 L31.3763934,23.8222951 C31.1101639,23.3665574 30.6367213,23.0944262 30.1081967,23.0944262 C29.5803279,23.0944262 29.1068852,23.3665574 28.8406557,23.8222951 L21.0734426,37.1383607 C20.8052459,37.5980328 20.8032787,38.147541 21.0681967,38.6085246 C21.3331148,39.0695082 21.8085246,39.344918 22.3403279,39.344918 L37.8754098,39.344918 C38.4072131,39.344918 38.882623,39.0695082 39.1468852,38.6085246 C39.412459,38.147541 39.4111475,37.597377 39.1429508,37.1383607 Z M38.0104918,37.9554098 C37.9908197,37.9914754 37.9501639,38.0334426 37.8760656,38.0334426 L22.3409836,38.0334426 C22.2662295,38.0334426 22.2262295,37.9908197 22.2059016,37.9554098 C22.1855738,37.9193443 22.1691803,37.8636066 22.2065574,37.7993443 L29.9737705,24.4832787 C30.0111475,24.4190164 30.067541,24.4059016 30.1081967,24.4059016 C30.1495082,24.4059016 30.2052459,24.4196721 30.2432787,24.4832787 L38.0104918,37.7986885 C38.0472131,37.8636066 38.0314754,37.9193443 38.0104918,37.9554098 Z" id="Shape" fill="#FF5722"></path>
                <path d="M30.1639344,27.5416393 C29.8019672,27.5416393 29.5081967,27.8354098 29.5081967,28.197377 L29.5081967,33.4432787 C29.5081967,33.8052459 29.8019672,34.0990164 30.1639344,34.0990164 C30.5259016,34.0990164 30.8196721,33.8052459 30.8196721,33.4432787 L30.8196721,28.197377 C30.8196721,27.8347541 30.5259016,27.5416393 30.1639344,27.5416393 Z" id="Shape" fill="#FF5722"></path>
                <path d="M29.6983607,35.6006557 C29.5803279,35.7252459 29.5081967,35.8957377 29.5081967,36.0662295 C29.5081967,36.2367213 29.5803279,36.4072131 29.6983607,36.5318033 C29.8229508,36.6498361 29.9934426,36.7219672 30.1639344,36.7219672 C30.3409836,36.7219672 30.504918,36.6498361 30.6295082,36.5318033 C30.747541,36.4072131 30.8196721,36.2367213 30.8196721,36.0662295 C30.8196721,35.8957377 30.747541,35.7252459 30.6295082,35.6006557 C30.3803279,35.3580328 29.947541,35.3580328 29.6983607,35.6006557 Z" id="Shape" fill="#FF5722"></path>
            </g>
        </g>
    </g>
</svg>
