<?xml version="1.0" encoding="UTF-8" standalone="no"?>
<svg width="40px" height="40px" viewBox="0 0 40 40" version="1.1" xmlns="http://www.w3.org/2000/svg" xmlns:xlink="http://www.w3.org/1999/xlink">
    <!-- Generator: Sketch 47.1 (45422) - http://www.bohemiancoding.com/sketch -->
    <title>ic_1</title>
    <desc>Created with Sketch.</desc>
    <defs></defs>
    <g id="Page-1" stroke="none" stroke-width="1" fill="none" fill-rule="evenodd">
        <g id="ic_1">
            <circle id="Oval-1" fill="#E34929" cx="20" cy="20" r="20"></circle>
            <path d="M18,23 L18,9 L18,9 C18,7.8954305 18.8954305,7 20,7 L20,7 L20,7 C21.1045695,7 22,7.8954305 22,9 L22,23 L22,23 C22,24.1045695 21.1045695,25 20,25 L20,25 L20,25 C18.8954305,25 18,24.1045695 18,23 Z" id="!" fill="#FFFFFF"></path>
            <path d="M18,29 L18,29 L18,29 C18,27.8954305 18.8954305,27 20,27 L20,27 L20,27 C21.1045695,27 22,27.8954305 22,29 L22,29 L22,29 C22,30.1045695 21.1045695,31 20,31 L20,31 L20,31 C18.8954305,31 18,30.1045695 18,29 Z" id="!-copy" fill="#FFFFFF"></path>
        </g>
    </g>
</svg>