
<svg width="273px" height="188px" viewBox="0 0 273 188" version="1.1" xmlns="http://www.w3.org/2000/svg" xmlns:xlink="http://www.w3.org/1999/xlink">
    <!-- Generator: Sketch 48.2 (47327) - http://www.bohemiancoding.com/sketch -->
    <desc>Created with Sketch.</desc>
    <defs>
        <linearGradient x1="50%" y1="0%" x2="50%" y2="100%" id="linearGradient-1">
            <stop stop-color="#7D858D" offset="0%"></stop>
            <stop stop-color="#414447" offset="100%"></stop>
        </linearGradient>
        <linearGradient x1="0%" y1="0%" x2="101.999998%" y2="100.999999%" id="linearGradient-2">
            <stop stop-color="#3023AE" offset="0%"></stop>
            <stop stop-color="#C86DD7" offset="100%"></stop>
        </linearGradient>
        <rect id="path-3" x="0" y="0" width="229.880345" height="144.924479" rx="8.47"></rect>
        <filter x="-20.0%" y="-18.6%" width="136.5%" height="158.0%" filterUnits="objectBoundingBox" id="filter-5">
            <feOffset dx="-3" dy="14" in="SourceAlpha" result="shadowOffsetOuter1"></feOffset>
            <feGaussianBlur stdDeviation="11" in="shadowOffsetOuter1" result="shadowBlurOuter1"></feGaussianBlur>
            <feColorMatrix values="0 0 0 0 0   0 0 0 0 0   0 0 0 0 0  0 0 0 0.3 0" type="matrix" in="shadowBlurOuter1" result="shadowMatrixOuter1"></feColorMatrix>
            <feOffset dx="-1" dy="1" in="SourceAlpha" result="shadowOffsetOuter2"></feOffset>
            <feGaussianBlur stdDeviation="1" in="shadowOffsetOuter2" result="shadowBlurOuter2"></feGaussianBlur>
            <feColorMatrix values="0 0 0 0 0   0 0 0 0 0   0 0 0 0 0  0 0 0 0.2 0" type="matrix" in="shadowBlurOuter2" result="shadowMatrixOuter2"></feColorMatrix>
            <feMerge>
                <feMergeNode in="shadowMatrixOuter1"></feMergeNode>
                <feMergeNode in="shadowMatrixOuter2"></feMergeNode>
            </feMerge>
        </filter>
        <radialGradient cx="50%" cy="50%" fx="50%" fy="50%" r="52.388882%" gradientTransform="translate(0.500000,0.500000),scale(0.998708,1.000000),rotate(90.000000),translate(-0.500000,-0.500000)" id="radialGradient-6">
            <stop stop-color="#FFFFFF" offset="0%"></stop>
            <stop stop-color="#FFFFFF" stop-opacity="0" offset="100%"></stop>
        </radialGradient>
        <filter x="-55.2%" y="-55.2%" width="210.3%" height="210.4%" filterUnits="objectBoundingBox" id="filter-7">
            <feGaussianBlur stdDeviation="30.25" in="SourceGraphic"></feGaussianBlur>
        </filter>
        <linearGradient x1="64.2523545%" y1="0%" x2="31.5395311%" y2="100%" id="linearGradient-8">
            <stop stop-color="#FFEA9E" offset="0%"></stop>
            <stop stop-color="#C19D39" offset="48.5880661%"></stop>
            <stop stop-color="#D09B21" offset="64.6853361%"></stop>
            <stop stop-color="#ECCF6B" offset="100%"></stop>
        </linearGradient>
        <linearGradient x1="68.9587823%" y1="0%" x2="39.6484375%" y2="100%" id="linearGradient-9">
            <stop stop-color="#FFECC8" offset="0%"></stop>
            <stop stop-color="#D0B978" offset="100%"></stop>
        </linearGradient>
        <rect id="path-10" x="0.574700861" y="0" width="33.33265" height="24.6802083" rx="3.63"></rect>
        <filter x="-4.5%" y="-6.1%" width="109.0%" height="112.2%" filterUnits="objectBoundingBox" id="filter-11">
            <feOffset dx="0" dy="0" in="SourceAlpha" result="shadowOffsetOuter1"></feOffset>
            <feGaussianBlur stdDeviation="0.5" in="shadowOffsetOuter1" result="shadowBlurOuter1"></feGaussianBlur>
            <feColorMatrix values="0 0 0 0 0   0 0 0 0 0   0 0 0 0 0  0 0 0 1 0" type="matrix" in="shadowBlurOuter1"></feColorMatrix>
        </filter>
        <rect id="path-12" x="21.8386327" y="6.31354167" width="12.0866365" height="1"></rect>
        <filter x="-4.1%" y="-82.8%" width="108.3%" height="431.0%" filterUnits="objectBoundingBox" id="filter-13">
            <feOffset dx="0" dy="1" in="SourceAlpha" result="shadowOffsetOuter1"></feOffset>
            <feComposite in="shadowOffsetOuter1" in2="SourceAlpha" operator="out" result="shadowOffsetOuter1"></feComposite>
            <feColorMatrix values="0 0 0 0 1   0 0 0 0 1   0 0 0 0 1  0 0 0 0.5 0" type="matrix" in="shadowOffsetOuter1"></feColorMatrix>
        </filter>
        <rect id="path-14" x="21.8386327" y="14.3489583" width="12.0866365" height="1"></rect>
        <filter x="-4.1%" y="-82.8%" width="108.3%" height="431.0%" filterUnits="objectBoundingBox" id="filter-15">
            <feOffset dx="0" dy="1" in="SourceAlpha" result="shadowOffsetOuter1"></feOffset>
            <feComposite in="shadowOffsetOuter1" in2="SourceAlpha" operator="out" result="shadowOffsetOuter1"></feComposite>
            <feColorMatrix values="0 0 0 0 1   0 0 0 0 1   0 0 0 0 1  0 0 0 0.5 0" type="matrix" in="shadowOffsetOuter1"></feColorMatrix>
        </filter>
        <rect id="path-16" x="0.556782419" y="6.31354167" width="12.0866365" height="1"></rect>
        <filter x="-4.1%" y="-82.8%" width="108.3%" height="431.0%" filterUnits="objectBoundingBox" id="filter-17">
            <feOffset dx="0" dy="1" in="SourceAlpha" result="shadowOffsetOuter1"></feOffset>
            <feComposite in="shadowOffsetOuter1" in2="SourceAlpha" operator="out" result="shadowOffsetOuter1"></feComposite>
            <feColorMatrix values="0 0 0 0 1   0 0 0 0 1   0 0 0 0 1  0 0 0 0.5 0" type="matrix" in="shadowOffsetOuter1"></feColorMatrix>
        </filter>
        <rect id="path-18" x="0.556782419" y="14.3489583" width="12.0866365" height="1"></rect>
        <filter x="-4.1%" y="-82.8%" width="108.3%" height="431.0%" filterUnits="objectBoundingBox" id="filter-19">
            <feOffset dx="0" dy="1" in="SourceAlpha" result="shadowOffsetOuter1"></feOffset>
            <feComposite in="shadowOffsetOuter1" in2="SourceAlpha" operator="out" result="shadowOffsetOuter1"></feComposite>
            <feColorMatrix values="0 0 0 0 1   0 0 0 0 1   0 0 0 0 1  0 0 0 0.5 0" type="matrix" in="shadowOffsetOuter1"></feColorMatrix>
        </filter>
        <path d="M12.8570096,15.3722908 C13.566967,18.8139147 15.2626217,21.2364583 17.241488,21.2364583 C19.2306982,21.2364583 20.9337282,18.7885226 21.6370187,15.3182378 C21.8593165,14.2213418 20.9283446,11.8743882 20.9283446,10.6182292 C20.9283446,9.38008121 21.8628017,7.04951233 21.6465191,5.96546591 C20.9491587,2.4701744 19.2397134,0 17.241488,0 C15.2551426,0 13.5541537,2.44089002 12.8490021,5.90323359 C12.6247776,7.00419142 13.5546314,9.35634674 13.5546314,10.6182292 C13.5546314,11.8950536 12.6277205,14.2607778 12.8570096,15.3722908 Z" id="path-20"></path>
        <filter x="-9.1%" y="-3.8%" width="118.2%" height="112.3%" filterUnits="objectBoundingBox" id="filter-21">
            <feMorphology radius="0.3025" operator="dilate" in="SourceAlpha" result="shadowSpreadOuter1"></feMorphology>
            <feOffset dx="0" dy="1" in="shadowSpreadOuter1" result="shadowOffsetOuter1"></feOffset>
            <feMorphology radius="1" operator="erode" in="SourceAlpha" result="shadowInner"></feMorphology>
            <feOffset dx="0" dy="1" in="shadowInner" result="shadowInner"></feOffset>
            <feComposite in="shadowOffsetOuter1" in2="shadowInner" operator="out" result="shadowOffsetOuter1"></feComposite>
            <feColorMatrix values="0 0 0 0 1   0 0 0 0 1   0 0 0 0 1  0 0 0 0.6 0" type="matrix" in="shadowOffsetOuter1"></feColorMatrix>
        </filter>
        <text id="text-22" font-family="HelveticaNeue, Helvetica Neue" font-size="10.89" font-weight="normal" line-spacing="16.94" letter-spacing="-0.320294148">
            <tspan x="184.675448" y="123.571667">09-20</tspan>
        </text>
        <filter x="-7.3%" y="-5.9%" width="114.5%" height="123.6%" filterUnits="objectBoundingBox" id="filter-23">
            <feOffset dx="0" dy="1" in="SourceAlpha" result="shadowOffsetOuter1"></feOffset>
            <feGaussianBlur stdDeviation="0.5" in="shadowOffsetOuter1" result="shadowBlurOuter1"></feGaussianBlur>
            <feColorMatrix values="0 0 0 0 0   0 0 0 0 0   0 0 0 0 0  0 0 0 0.2 0" type="matrix" in="shadowBlurOuter1"></feColorMatrix>
        </filter>
        <text id="text-24" font-family="HelveticaNeue-Medium, Helvetica Neue" font-size="19.36" font-weight="400" line-spacing="16.94" letter-spacing="-0.302500007">
            <tspan x="15.7428251" y="104.175833">6888  8338  3863  8936</tspan>
        </text>
        <filter x="-1.0%" y="-5.9%" width="102.0%" height="123.6%" filterUnits="objectBoundingBox" id="filter-25">
            <feOffset dx="0" dy="1" in="SourceAlpha" result="shadowOffsetOuter1"></feOffset>
            <feGaussianBlur stdDeviation="0.5" in="shadowOffsetOuter1" result="shadowBlurOuter1"></feGaussianBlur>
            <feColorMatrix values="0 0 0 0 0   0 0 0 0 0   0 0 0 0 0  0 0 0 0.2 0" type="matrix" in="shadowBlurOuter1"></feColorMatrix>
        </filter>
    </defs>
    <g id="Page-1" stroke="none" stroke-width="1" fill="none" fill-rule="evenodd">
        <g id="m6-button_trade-1280-copy-18" transform="translate(-377.000000, -357.000000)">
            <g id="Group-14" transform="translate(402.000000, 365.000000)">
                <g id="Group-6">
                    <g id="front">
                        <g id="Card">
                            <mask id="mask-4" fill="white">
                                <use xlink:href="#path-3"></use>
                            </mask>
                            <g id="Card-BG">
                                <use fill="black" fill-opacity="1" filter="url(#filter-5)" xlink:href="#path-3"></use>
                                <use fill="url(#linearGradient-1)" fill-rule="evenodd" xlink:href="#path-3"></use>
                                <use fill-opacity="0.799999952" fill="url(#linearGradient-2)" fill-rule="evenodd" xlink:href="#path-3"></use>
                            </g>
                            <rect id="Rectangle-Copy" fill="#FFFFFF" opacity="0.100000001" mask="url(#mask-4)" x="24.197931" y="144.395833" width="181.484483" height="1" rx="0.5"></rect>
                            <rect id="Rectangle-Copy-2" fill="#FFFFFF" opacity="0.100000001" mask="url(#mask-4)" x="24.197931" y="0" width="181.484483" height="1" rx="0.5"></rect>
                            <g id="Page-1" opacity="0.0800000057" mask="url(#mask-4)" stroke="#FFFFFF" stroke-width="1.21">
                                <g transform="translate(71.383896, -22.958333)">
                                    <path d="M110.173748,182.760417 C160.696959,182.760417 53.2891652,135.037649 87.0957374,172.506917 C133.251964,193.014529 54.5800431,105.820668 70.1925536,153.772589 C103.999024,191.241244 67.6672834,79.6528394 62.386503,129.796322 C77.9991159,177.748448 90.2890101,61.0606608 65.0265862,104.724836 C59.7460105,154.868115 118.531147,53.2565717 77.6576447,82.8924421 C52.395937,126.55723 147.514348,57.5920066 98.0945491,68.0749665 C57.2209449,97.710939 172.224401,73.316089 122.8045,62.8333333 C73.3847007,73.316089 188.387952,97.710939 147.514348,68.0749665 C98.0945491,57.5920066 193.212756,126.55723 167.95115,82.8924421 C127.077341,53.2565717 185.863092,154.868115 180.582311,104.724836 C155.320092,61.0606608 167.609884,177.748448 183.222497,129.796322 C177.941409,79.6528394 141.609874,191.241244 175.416446,153.772589 C191.02865,105.820668 112.356933,193.014529 158.512955,172.506917 C192.319835,135.037649 84.912143,182.760417 135.435354,182.760417 C181.590864,162.253213 64.0181358,162.253213 110.173748,182.760417 Z" id="Stroke-1"></path>
                                    <path d="M125.017197,0.302083333 C122.653025,0.302083333 132.724085,27.160319 126.845992,26.5480042 C125.932413,13.4258085 142.234289,15.1327443 138.602281,27.7799754 C132.724085,27.160319 148.179611,2.97669048 145.86691,2.48704261 C142.234289,15.1327443 148.648373,16.4917669 150.491801,3.46450293 C148.179611,2.97669048 152.426402,31.3370092 146.804843,29.5178073 C148.648373,16.4917669 164.238971,21.5393614 158.047654,33.1579445 C152.426402,31.3370092 172.59042,10.8799863 170.430903,9.92149197 C164.238971,21.5393614 170.229216,24.1981635 174.750755,11.8371551 C172.59042,10.8799863 170.826194,39.5021575 165.707676,36.5573365 C170.229216,24.1981635 184.425092,32.366065 175.944506,42.4468765 C170.826194,39.5021575 194.818279,23.6675247 192.905678,22.2834181 C184.425092,32.366065 189.730562,36.2050389 196.731084,25.052855 C194.818279,23.6675247 187.1206,51.2987759 182.729118,47.3573247 C189.730562,36.2050389 201.912021,47.1350356 191.513718,55.2402271 C187.1206,51.2987759 213.892408,40.7823593 212.310938,39.0315776 C201.912021,47.1350356 206.300024,51.991441 215.475105,42.533345 C213.892408,40.7823593 200.598854,66.2142738 197.125044,61.449945 C206.300024,51.991441 215.935578,65.2058153 204.073789,70.9782967 C200.598854,66.2142738 228.979453,61.4748251 227.798186,59.4346596 C215.935578,65.2058153 219.214045,70.8657246 230.161334,63.5119315 C228.979453,61.4748251 210.67063,83.5963651 208.266039,78.215337 C219.214045,70.8657246 225.881901,85.7884621 213.074198,88.9759657 C210.67063,83.5963651 239.419301,84.8371055 238.688274,82.5998369 C225.881901,85.7884621 227.907369,92.0024626 240.149714,87.0805941 C239.419301,84.8371055 216.894693,102.683965 215.665536,96.9246371 C227.907369,92.0024626 231.315689,107.98036 218.122826,108.446555 C216.894693,102.683965 244.756287,109.856969 244.509064,107.514062 C231.315689,107.98036 232.000566,114.477728 245.003305,112.199468 C244.756287,109.856969 218.999157,122.645935 218.999157,116.756293 C232.000566,114.477728 232.000566,130.813837 218.999157,128.535373 C218.999157,122.645935 244.756287,135.434901 245.003305,133.092198 C232.000566,130.813837 231.315689,137.311307 244.509064,137.776177 C244.756287,135.434901 216.894693,142.607702 218.122826,136.846539 C231.315689,137.311307 227.907369,153.289102 215.665536,148.36703 C216.894693,142.607702 239.419301,160.451604 240.149714,158.211277 C227.907369,153.289102 225.881901,159.504632 238.688786,162.692034 C239.419301,160.451604 210.67063,161.695302 213.074198,156.314273 C225.881901,159.504632 219.214045,174.427268 208.266039,167.076228 C210.67063,161.695302 228.979453,183.817046 230.161334,181.778308 C219.214045,174.427268 215.935578,180.086055 227.798186,185.858639 C228.979453,183.817046 200.598854,179.077597 204.073789,174.313166 C215.935578,180.086055 206.300024,193.301857 197.125044,183.843353 C200.598854,179.077597 213.892408,204.509511 215.475105,202.760157 C206.300024,193.301857 201.912021,198.156631 212.310938,206.260293 C213.892408,204.509511 187.1206,193.993095 191.513718,190.051644 C201.912021,198.156631 189.730562,209.086628 182.729118,197.934342 C187.1206,193.993095 194.818279,221.622714 196.731084,220.239016 C189.730562,209.086628 184.425092,212.927233 192.905678,223.008249 C194.818279,221.622714 170.826194,205.791243 175.94512,202.84632 C184.425092,212.927233 170.229216,221.095339 165.707676,208.735758 C170.826194,205.791243 172.59042,234.41321 174.750755,233.454512 C170.229216,221.095339 164.238971,223.752101 170.430903,235.370379 C172.59042,234.41321 152.426402,213.954658 158.047654,212.133722 C164.238971,223.752101 148.648373,228.7999 146.804843,215.774165 C152.426402,213.954658 148.179611,242.31518 150.491801,241.825634 C148.648373,228.7999 142.234289,230.158922 145.86691,242.804624 C148.179611,242.31518 132.724085,218.128289 138.602281,217.511793 C142.234289,230.158922 125.932413,231.86749 126.845992,218.743764 C132.724085,218.128289 122.653025,244.989583 125.017197,244.989583 C125.932413,231.86749 119.375275,231.86749 120.288956,244.989583 C122.653025,244.989583 112.581965,218.128289 118.460059,218.743764 C119.375275,231.86749 103.070943,230.158922 106.703769,217.511793 C112.581965,218.128289 97.1268483,242.31518 99.4398562,242.804624 C103.070943,230.158922 96.6577796,228.7999 94.814352,241.825634 C97.1268483,242.31518 92.8797507,213.954658 98.5011049,215.774165 C96.6577796,228.7999 81.0671812,223.752101 87.2592151,212.133722 C92.8797507,213.954658 72.7156304,234.41321 74.8752496,235.370379 C81.0671812,223.752101 75.0767322,221.095339 70.5561136,233.454512 C72.7156304,234.41321 74.4800613,205.791243 79.5983741,208.735758 C75.0767322,221.095339 60.8811629,212.927233 69.3616462,202.84632 C74.4800613,205.791243 50.4873624,221.622714 52.4005773,223.008249 C60.8811629,212.927233 55.5764096,209.086628 48.5757848,220.239016 C50.4873624,221.622714 58.1847343,193.993095 62.5772391,197.934342 C55.5764096,209.086628 43.3942337,198.156631 53.7929458,190.051644 C58.1847343,193.993095 31.4135403,204.509511 32.9944982,206.260293 C43.3942337,198.156631 39.006129,193.301857 29.8310475,202.760157 C31.4135403,204.509511 44.7066845,179.077597 48.1811081,183.843353 C39.006129,193.301857 29.3705743,180.086055 41.2323633,174.313166 C44.7066845,179.077597 16.3265972,183.817046 17.5088877,185.858639 C29.3705743,180.086055 26.0921077,174.427268 15.1446138,181.778308 C16.3265972,183.817046 34.6356246,161.695302 37.0403178,167.076228 C26.0921077,174.427268 19.4242514,159.504632 32.2319546,156.314273 C34.6356246,161.695302 5.88685178,160.451604 6.61798086,162.692034 C19.4242514,159.504632 17.3988858,153.289102 5.156439,158.211277 C5.88685178,160.451604 28.4122785,142.607702 29.6404116,148.36703 C17.3988858,153.289102 13.990361,137.311307 27.1831221,136.846539 C28.4122785,142.607702 0.550683997,135.434901 0.797088308,137.776177 C13.990361,137.311307 13.30487,130.813837 0.302847102,133.092198 C0.550683997,135.434901 26.3068928,122.645935 26.3068928,128.535373 C13.30487,130.813837 13.30487,114.477728 26.3068928,116.756293 C26.3068928,122.645935 0.550683997,109.856969 0.302847102,112.199468 C13.30487,114.477728 13.990361,107.98036 0.797088308,107.514062 C0.550683997,109.856969 28.4122785,102.683965 27.1831221,108.446555 C13.990361,107.98036 17.3988858,92.0024626 29.6404116,96.9246371 C28.4122785,102.683965 5.88685178,84.8371055 5.156439,87.0805941 C17.3988858,92.0024626 19.4242514,85.7884621 6.61798086,82.5998369 C5.88685178,84.8371055 34.6356246,83.5963651 32.2319546,88.9759657 C19.4242514,85.7884621 26.0921077,70.8657246 37.0403178,78.215337 C34.6356246,83.5963651 16.3265972,61.4748251 15.1446138,63.5119315 C26.0921077,70.8657246 29.3705743,65.2058153 17.5088877,59.4346596 C16.3265972,61.4748251 44.7066845,66.2142738 41.2323633,70.9782967 C29.3705743,65.2058153 39.006129,51.991441 48.1811081,61.449945 C44.7066845,66.2142738 31.4135403,40.7823593 29.8310475,42.533345 C39.006129,51.991441 43.3942337,47.1350356 32.9944982,39.0315776 C31.4135403,40.7823593 58.1847343,51.2987759 53.7929458,55.2402271 C43.3942337,47.1350356 55.5764096,36.2050389 62.5772391,47.3573247 C58.1847343,51.2987759 50.4873624,23.6675247 48.5757848,25.052855 C55.5764096,36.2050389 60.8811629,32.366065 52.4005773,22.2834181 C50.4873624,23.6675247 74.4800613,39.5021575 69.3616462,42.4468765 C60.8811629,32.366065 75.0767322,24.1981635 79.5983741,36.5573365 C74.4800613,39.5021575 72.7156304,10.8799863 70.5554996,11.8371551 C75.0767322,24.1981635 81.0671812,21.5393614 74.8752496,9.92149197 C72.7156304,10.8799863 92.8797507,31.3370092 87.2592151,33.1579445 C81.0671812,21.5393614 96.6577796,16.4917669 98.5011049,29.5178073 C92.8797507,31.3370092 97.1268483,2.97669048 94.814352,3.46450293 C96.6577796,16.4917669 103.070943,15.1327443 99.4398562,2.48704261 C97.1268483,2.97669048 112.581965,27.160319 106.703769,27.7799754 C103.070943,15.1327443 119.375275,13.4258085 118.460059,26.5480042 C112.581965,27.160319 122.653025,0.302083333 120.288956,0.302083333 C119.375275,13.4258085 125.932413,13.4258085 125.017197,0.302083333 Z" id="Stroke-5"></path>
                                    <path d="M123.552718,91.8333333 C122.955872,91.8333333 125.498337,98.5976095 124.01437,98.4433549 C123.783749,95.1383951 127.899456,95.5684535 126.982713,98.7535961 C125.498337,98.5976095 129.400643,92.5066942 128.816609,92.3837185 C127.899456,95.5684535 129.519028,95.9107886 129.984369,92.6296699 C129.400643,92.5066942 130.472875,99.6494748 129.053687,99.1913978 C129.519028,95.9107886 133.455159,97.1821151 131.892166,100.108163 C130.472875,99.6494748 135.563851,94.4974338 135.018664,94.2558634 C133.455159,97.1821151 134.96762,97.8515024 136.109346,94.7384947 C135.563851,94.4974338 135.118395,101.706032 133.825997,100.964204 C134.96762,97.8515024 138.551772,99.9085694 136.410588,102.447555 C135.118395,101.706032 141.175825,97.7180325 140.692957,97.3693805 C138.551772,99.9085694 139.891319,100.875462 141.658591,98.0668882 C141.175825,97.7180325 139.232359,104.67691 138.123535,103.68424 C139.891319,100.875462 142.966671,103.628407 140.341491,105.669682 C139.232359,104.67691 145.991491,102.028398 145.592159,101.587234 C142.966671,103.628407 144.074675,104.851338 146.391131,102.46946 C145.991491,102.028398 142.635192,108.433528 141.758014,107.233317 C144.074675,104.851338 146.507364,108.179426 143.512576,109.633229 C142.635192,108.433528 149.800627,107.239736 149.502357,106.725928 C146.507364,108.179426 147.335036,109.605007 150.098999,107.752729 C149.800627,107.239736 145.177964,112.811036 144.571073,111.455857 C147.335036,109.605007 149.018669,113.363357 145.784958,114.166112 C145.177964,112.811036 152.436467,113.12362 152.251765,112.560092 C149.018669,113.363357 149.529929,114.928317 152.620963,113.688779 C152.436467,113.12362 146.749465,117.6185 146.439203,116.167855 C149.529929,114.928317 150.390503,118.952181 147.059829,119.069553 C146.749465,117.6185 153.783804,119.425031 153.721383,118.835012 C150.390503,118.952181 150.563315,120.588664 153.846328,120.014846 C153.783804,119.425031 147.280814,122.645935 147.280814,121.162585 C150.563315,120.588664 150.563315,124.702697 147.280814,124.129183 C147.280814,122.645935 153.783804,125.86684 153.846328,125.276821 C150.563315,124.702697 150.390503,126.339486 153.721383,126.456247 C153.783804,125.86684 146.749465,127.673167 147.059829,126.22242 C150.390503,126.339486 149.529929,130.36335 146.439203,129.123811 C146.749465,127.673167 152.436467,132.167231 152.620963,131.603092 C149.529929,130.36335 149.018669,131.928616 152.252073,132.731371 C152.436467,132.167231 145.177964,132.480631 145.784958,131.125249 C149.018669,131.928616 147.335036,135.687068 144.571073,133.835809 C145.177964,132.480631 149.800627,138.051931 150.098999,137.53853 C147.335036,135.687068 146.507364,137.112241 149.502357,138.566146 C149.800627,138.051931 142.635192,136.858139 143.512576,135.658438 C146.507364,137.112241 144.074675,140.440635 141.758014,138.058655 C142.635192,136.858139 145.991491,143.263167 146.391131,142.822818 C144.074675,140.440635 142.966671,141.66326 145.592159,143.704331 C145.991491,143.263167 139.232359,140.614757 140.341491,139.622189 C142.966671,141.66326 139.891319,144.416204 138.123535,141.607325 C139.232359,140.614757 141.175825,147.57343 141.658591,147.224778 C139.891319,144.416204 138.551772,145.383505 140.692957,147.922286 C141.175825,147.57343 135.118395,143.586144 136.41069,142.84452 C138.551772,145.383505 134.96762,147.44047 133.825997,144.327768 C135.118395,143.586144 135.563851,150.794742 136.109346,150.553376 C134.96762,147.44047 133.455159,148.109755 135.018664,151.035905 C135.563851,150.794742 130.472875,145.642192 131.892166,145.183504 C133.455159,148.109755 129.519028,149.380878 129.053687,146.100473 C130.472875,145.642192 129.400643,152.784667 129.984369,152.661284 C129.519028,149.380878 127.899456,149.723213 128.816609,152.90805 C129.400643,152.784667 125.498337,146.693242 126.982713,146.538071 C127.899456,149.723213 123.783749,150.153373 124.01437,146.848312 C125.498337,146.693242 122.955872,153.458333 123.552718,153.458333 C123.783749,150.153373 122.1282,150.153373 122.359026,153.458333 C122.955872,153.458333 120.4131,146.693242 121.897272,146.848312 C122.1282,150.153373 118.011776,149.723213 118.929133,146.538071 C120.4131,146.693242 116.511204,152.784667 117.095033,152.90805 C118.011776,149.723213 116.392614,149.380878 115.927273,152.661284 C116.511204,152.784667 115.438767,145.642192 116.85816,146.100473 C116.392614,149.380878 112.456278,148.109755 114.019784,145.183504 C115.438767,145.642192 110.347893,150.794742 110.89308,151.035905 C112.456278,148.109755 110.943919,147.44047 109.802501,150.553376 C110.347893,150.794742 110.793452,143.586144 112.085543,144.327768 C110.943919,147.44047 107.359972,145.383505 109.500952,142.84452 C110.793452,143.586144 104.735714,147.57343 105.218788,147.922286 C107.359972,145.383505 106.020733,144.416204 104.253153,147.224778 C104.735714,147.57343 106.67918,140.614757 107.788209,141.607325 C106.020733,144.416204 102.944971,141.66326 105.570459,139.622189 C106.67918,140.614757 99.9201504,143.263167 100.319278,143.704331 C102.944971,141.66326 101.837172,140.440635 99.520613,142.822818 C99.9201504,143.263167 103.276347,136.858139 104.153423,138.058655 C101.837172,140.440635 99.4043802,137.112241 102.399066,135.658438 C103.276347,136.858139 96.1111175,138.051931 96.4095918,138.566146 C99.4043802,137.112241 98.5764008,135.687068 95.8126431,137.53853 C96.1111175,138.051931 100.733678,132.480631 101.340774,133.835809 C98.5764008,135.687068 96.8930752,131.928616 100.126684,131.125249 C100.733678,132.480631 93.4753798,132.167231 93.6598763,132.731371 C96.8930752,131.928616 96.3817123,130.36335 93.2907808,131.603092 C93.4753798,132.167231 99.1623822,127.673167 99.4724389,129.123811 C96.3817123,130.36335 95.5211386,126.339486 98.8521206,126.22242 C99.1623822,127.673167 92.1279403,125.86684 92.1902591,126.456247 C95.5211386,126.339486 95.3481219,124.702697 92.065519,125.276821 C92.1279403,125.86684 98.6309298,122.645935 98.6309298,124.129183 C95.3481219,124.702697 95.3481219,120.588664 98.6309298,121.162585 C98.6309298,122.645935 92.1279403,119.425031 92.065519,120.014846 C95.3481219,120.588664 95.5211386,118.952181 92.1902591,118.835012 C92.1279403,119.425031 99.1623822,117.6185 98.8521206,119.069553 C95.5211386,118.952181 96.3817123,114.928317 99.4724389,116.167855 C99.1623822,117.6185 93.4753798,113.12362 93.2907808,113.688779 C96.3817123,114.928317 96.8930752,113.363357 93.6598763,112.560092 C93.4753798,113.12362 100.733678,112.811036 100.126684,114.166112 C96.8930752,113.363357 98.5764008,109.605007 101.340774,111.455857 C100.733678,112.811036 96.1111175,107.239736 95.8126431,107.752729 C98.5764008,109.605007 99.4043802,108.179426 96.4095918,106.725928 C96.1111175,107.239736 103.276347,108.433528 102.399066,109.633229 C99.4043802,108.179426 101.837172,104.851338 104.153423,107.233317 C103.276347,108.433528 99.9201504,102.028398 99.520613,102.46946 C101.837172,104.851338 102.944971,103.628407 100.319278,101.587234 C99.9201504,102.028398 106.67918,104.67691 105.570459,105.669682 C102.944971,103.628407 106.020733,100.875462 107.788209,103.68424 C106.67918,104.67691 104.735714,97.7180325 104.253153,98.0668882 C106.020733,100.875462 107.359972,99.9085694 105.218788,97.3693805 C104.735714,97.7180325 110.793452,101.706032 109.500952,102.447555 C107.359972,99.9085694 110.943919,97.8515024 112.085543,100.964204 C110.793452,101.706032 110.347893,94.4974338 109.802501,94.7384947 C110.943919,97.8515024 112.456278,97.1821151 110.89308,94.2558634 C110.347893,94.4974338 115.438767,99.6494748 114.019784,100.108163 C112.456278,97.1821151 116.392614,95.9107886 116.85816,99.1913978 C115.438767,99.6494748 116.511204,92.5066942 115.927273,92.6296699 C116.392614,95.9107886 118.011776,95.5684535 117.095033,92.3837185 C116.511204,92.5066942 120.4131,98.5976095 118.929133,98.7535961 C118.011776,95.5684535 122.1282,95.1383951 121.897272,98.4433549 C120.4131,98.5976095 122.955872,91.8333333 122.359026,91.8333333 C122.1282,95.1383951 123.783749,95.1383951 123.552718,91.8333333 Z" id="Stroke-7"></path>
                                    <path d="M134.680665,33.4706871 C132.954506,33.2728553 138.046504,53.7353334 133.80597,52.7965762 C134.243675,43.1342438 146.003288,45.7447254 142.286322,54.679498 C138.046504,53.7353334 151.367816,37.3619228 149.720356,36.810667 C146.003288,45.7447254 150.572025,47.2743251 153.014763,37.9118523 C151.367816,37.3619228 152.080507,58.4346287 148.129082,56.6355737 C150.572025,47.2743251 161.530525,52.2657259 156.031728,60.2350101 C152.080507,58.4346287 168.526035,45.1771451 167.03014,44.2963397 C161.530525,52.2657259 165.680591,54.7085759 170.022748,46.0573383 C168.526035,45.1771451 164.827797,65.9383603 161.338434,63.3594053 C165.680591,54.7085759 175.358211,61.8628625 168.317263,68.5176214 C164.827797,65.9383603 183.679221,56.3778516 182.399263,55.2069814 C175.358211,61.8628625 178.908671,65.1112215 184.959282,57.5504564 C183.679221,56.3778516 175.73216,75.9188152 172.857344,72.6723947 C178.908671,65.1112215 186.882751,74.1149649 178.607794,79.1657457 C175.73216,75.9188152 196.165239,70.4760437 195.158015,69.0647961 C186.882751,74.1149649 189.677639,78.0292588 197.173486,71.8874954 C196.165239,70.4760437 184.317409,87.9421713 182.182098,84.1713283 C189.677639,78.0292588 195.600428,88.4887339 186.453437,91.7131163 C184.317409,87.9421713 205.438721,86.8539435 204.748135,85.2648616 C195.600428,88.4887339 197.517653,92.8974542 206.130228,88.441291 C205.438721,86.8539435 190.207757,101.482272 188.905386,97.3505567 C197.517653,92.8974542 201.130233,104.356189 191.509821,105.613273 C190.207757,101.482272 211.094609,104.79399 210.749009,103.097779 C201.130233,104.356189 202.085571,109.065279 211.438981,106.493466 C211.094609,104.79399 193.145204,115.946743 192.732776,111.63648 C202.085571,109.065279 203.228805,121.022419 193.556813,120.259048 C193.145204,115.946743 212.884729,123.517099 212.901513,121.785484 C203.228805,121.022419 203.181933,125.825681 212.867741,125.249632 C212.884729,123.517099 193.000905,130.704851 193.496842,126.40275 C203.181933,125.825681 201.806492,137.759354 192.504969,135.00736 C193.000905,130.704851 210.730997,142.202152 211.108629,140.511348 C201.806492,137.759354 200.759151,142.448855 210.353467,143.891833 C210.730997,142.202152 189.783458,145.111167 191.165449,141.005469 C200.759151,142.448855 196.925211,153.835456 188.400955,149.215742 C189.783458,145.111167 204.727565,160.030682 205.449364,158.455272 C196.925211,153.835456 194.922941,158.206528 204.005663,161.606398 C204.727565,160.030682 183.631736,158.534547 185.839912,154.804414 C194.922941,158.206528 188.798032,168.54959 181.422843,162.264171 C183.631736,158.534547 195.137547,176.22585 196.171993,174.835722 C188.798032,168.54959 185.92731,172.409299 194.1031,177.618529 C195.137547,176.22585 174.814073,170.38966 177.752543,167.199967 C185.92731,172.409299 177.779254,181.25745 171.876319,173.580271 C174.814073,170.38966 182.379204,190.079686 183.681984,188.934017 C177.779254,181.25745 174.166265,184.436838 181.076936,191.226478 C182.379204,190.079686 163.717005,180.157897 167.256515,177.645974 C174.166265,184.436838 164.351714,191.40268 160.178417,182.669922 C163.717005,180.157897 167.010901,200.98543 168.524397,200.134621 C164.351714,191.40268 160.15447,193.764009 165.497813,201.83777 C167.010901,200.98543 150.826133,187.413803 154.81174,185.690657 C160.15447,193.764009 149.101306,198.543601 146.840731,189.136542 C150.826133,187.413803 149.704392,208.469777 151.362187,207.950251 C149.101306,198.543601 144.503812,199.98311 148.046596,208.988282 C149.704392,208.469777 136.703914,191.837624 140.961744,190.977632 C144.503812,199.98311 132.695383,202.366478 132.445982,192.696901 C136.703914,191.837624 131.214942,212.200115 132.944477,212.035748 C132.695383,202.366478 127.897713,202.822542 129.485099,212.364583 C131.214942,212.200115 121.966635,193.238975 126.310634,193.27999 C127.897713,202.822542 115.850629,202.707148 117.62284,193.196327 C121.966635,193.238975 112.351237,212.018607 114.077702,212.216337 C115.850629,202.707148 111.062989,202.158545 110.625079,211.820776 C112.351237,212.018607 107.259546,191.553885 111.499773,192.49509 C111.062989,202.158545 99.3021481,199.546737 103.019626,190.611761 C107.259546,191.553885 93.9384392,207.929744 95.5858985,208.480694 C99.3021481,199.546737 94.7337185,198.017137 92.29098,207.37859 C93.9384392,207.929744 93.2253385,186.85663 97.1766617,188.656297 C94.7337185,198.017137 83.7753208,193.025737 89.2747317,185.056146 C93.2253385,186.85663 76.7798106,200.115236 78.2757053,200.994817 C83.7753208,193.025737 79.6250499,190.583601 75.2835067,199.234022 C76.7798106,200.115236 80.4779462,179.354225 83.9674118,181.93318 C79.6250499,190.583601 69.9477365,183.429722 76.988583,176.774555 C80.4779462,179.354225 61.6263174,188.912285 62.9066853,190.084481 C69.9477365,183.429722 66.397686,180.180139 60.3470752,187.741006 C61.6263174,188.912285 69.5731744,169.372647 72.448399,172.619374 C66.397686,180.180139 58.423095,171.177008 66.698359,166.125615 C69.5731744,169.372647 49.1402999,174.815113 50.1473193,176.226564 C58.423095,171.177008 55.6281044,167.263326 48.1323594,173.404885 C49.1402999,174.815113 60.9880267,157.349291 63.1234401,161.121359 C55.6281044,167.263326 49.7052132,156.803239 58.8524087,153.578244 C60.9880267,157.349291 39.86692,158.437315 40.5582224,160.027927 C49.7052132,156.803239 47.7877827,152.394723 39.1756175,156.848947 C39.86692,158.437315 55.0980888,143.809089 56.400869,147.940804 C47.7877827,152.394723 44.1757146,140.935988 53.7962296,139.676966 C55.0980888,143.809089 34.2117486,140.49533 34.5569393,142.193378 C44.1757146,140.935988 43.2203765,136.226184 33.8667625,138.797793 C34.2117486,140.49533 52.1613582,129.344413 52.5730695,133.654983 C43.2203765,136.226184 42.0769387,124.26935 51.7491352,125.033435 C52.1613582,129.344413 32.4216282,121.774261 32.4046399,123.504754 C42.0769387,124.26935 42.1235031,119.46568 32.4379002,120.041831 C32.4216282,121.774261 52.304838,114.58651 51.8090037,118.888611 C42.1235031,119.46568 43.4990466,107.532006 52.8007746,110.284 C52.304838,114.58651 34.5754627,103.089209 34.197421,104.77991 C43.4990466,107.532006 44.5466948,102.842914 34.9525833,101.398813 C34.5754627,103.089209 55.5227972,100.180296 54.1402946,104.287116 C44.5466948,102.842914 48.380737,91.4561085 56.9047881,96.0756181 C55.5227972,100.180296 40.578588,85.2587399 39.856379,86.8365988 C48.380737,91.4561085 50.3828022,87.0860566 41.3006946,83.6854723 C40.578588,85.2587399 61.6742122,86.7572212 59.4662402,90.4860288 C50.3828022,87.0860566 56.5078137,76.7427911 63.8829006,83.0272914 C61.6742122,86.7572212 50.1684012,69.0656124 49.1340572,70.4547199 C56.5078137,76.7427911 59.3783307,72.8822658 51.203564,67.6742602 C50.1684012,69.0656124 70.4911585,74.9019048 67.5533022,78.0914957 C59.3783307,72.8822658 67.5265916,64.0353391 73.4292196,71.7121097 C70.4911585,74.9019048 62.9265391,55.2117767 61.6235542,56.3581603 C67.5265916,64.0353391 71.1392738,60.8549306 64.2285006,54.0648829 C62.9265391,55.2117767 81.5883284,65.1335656 78.0500469,67.6453863 C71.1392738,60.8549306 80.9547454,53.8893952 85.1275309,62.6217448 C81.5883284,65.1335656 78.2944334,44.30491 76.7820621,45.1568416 C80.9547454,53.8893952 85.1512737,51.5285755 79.8080327,43.4538967 C78.2944334,44.30491 94.4798145,57.8789857 90.4944123,59.602132 C85.1512737,51.5285755 96.2041306,46.7489843 98.465012,56.1559413 C94.4798145,57.8789857 95.601454,36.8232164 93.9435562,37.3411091 C96.2041306,46.7489843 100.802034,45.3082507 97.2591472,36.303181 C95.601454,36.8232164 108.602034,53.4537368 104.344716,54.3136265 C100.802034,45.3082507 112.610565,42.9249849 112.860068,52.5946633 C108.602034,53.4537368 114.091313,33.091246 112.361471,33.2544903 C112.610565,42.9249849 117.407928,42.4688189 115.821053,32.9270833 C114.091313,33.091246 123.339518,52.0502433 118.995314,52.0115748 C117.407928,42.4688189 129.456137,42.5858447 127.683108,52.0947274 C123.339518,52.0502433 132.954506,33.2728553 131.228451,33.0751256 C129.456137,42.5858447 134.243675,43.1342438 134.680665,33.4706871 Z" id="Stroke-9"></path>
                                    <path d="M144.514132,55.457966 C142.994001,55.2837183 147.478239,73.3068119 143.743837,72.4799664 C144.1293,63.9695054 154.485335,66.2687848 151.21201,74.1384202 C147.478239,73.3068119 159.209575,58.8853176 157.758749,58.3997783 C154.485335,66.2687848 158.508766,67.616037 160.659949,59.3696885 C159.209575,58.8853176 159.837202,77.4458922 156.357402,75.8613071 C158.508766,67.616037 168.159305,72.0124001 163.316822,79.0316455 C159.837202,77.4458922 174.319861,65.7688672 173.00251,64.9930648 C168.159305,72.0124001 171.814037,74.1640317 175.637933,66.5441303 C174.319861,65.7688672 171.063029,84.0550848 167.990142,81.7835736 C171.814037,74.1640317 180.336577,80.4654375 174.136007,86.3268655 C171.063029,84.0550848 187.664426,75.6343088 186.537238,74.603021 C180.336577,80.4654375 183.463269,83.3265513 188.791704,76.6671243 C187.664426,75.6343088 180.665893,92.845744 178.134203,89.9863377 C183.463269,83.3265513 190.485596,91.2569353 183.198303,95.7055997 C180.665893,92.845744 198.660165,88.0518193 197.773159,86.8088101 C190.485596,91.2569353 192.946898,94.7045963 199.548072,89.2950082 C198.660165,88.0518193 188.226443,103.435765 186.345994,100.114454 C192.946898,94.7045963 198.162768,103.917171 190.107523,106.757166 C188.226443,103.435765 206.826803,102.477268 206.218643,101.077624 C198.162768,103.917171 199.851161,107.800316 207.435775,103.875383 C206.826803,102.477268 193.413743,115.361715 192.266818,111.722553 C199.851161,107.800316 203.032559,117.893026 194.560398,119.000249 C193.413743,115.361715 211.807628,118.278635 211.503277,116.784634 C203.032559,117.893026 203.873872,122.040733 212.110897,119.775512 C211.807628,118.278635 196.000589,128.10184 195.637387,124.305414 C203.873872,122.040733 204.880653,132.572432 196.36307,131.900064 C196.000589,128.10184 213.384087,134.769715 213.398868,133.24453 C204.880653,132.572432 204.839376,136.803084 213.369126,136.295708 C213.384087,134.769715 195.873513,141.100596 196.310257,137.311359 C204.839376,136.803084 203.628102,147.314114 195.43677,144.890192 C195.873513,141.100596 211.487416,151.227274 211.819975,149.738036 C203.628102,147.314114 202.705767,151.444567 211.154946,152.715525 C211.487416,151.227274 193.040087,153.789498 194.257129,150.173251 C202.705767,151.444567 199.32943,161.473743 191.822594,157.404757 C193.040087,153.789498 206.200528,166.93042 206.836176,165.542818 C199.32943,161.473743 197.566143,165.323728 205.564789,168.318291 C206.200528,166.93042 187.622608,165.612643 189.567226,162.327188 C197.566143,165.323728 192.172277,174.433767 185.67736,168.897649 C187.622608,165.612643 197.755134,181.19492 198.666113,179.970513 C192.172277,174.433767 189.644193,177.83335 196.844155,182.421574 C197.755134,181.19492 179.857385,176.054477 182.445132,173.245036 C189.644193,177.83335 182.468654,185.62669 177.270269,178.864728 C179.857385,176.054477 186.519574,193.397205 187.66686,192.388114 C182.468654,185.62669 179.286896,188.427055 185.372739,194.407285 C186.519574,193.397205 170.084817,184.658218 173.201865,182.445748 C179.286896,188.427055 170.64377,194.562481 166.96858,186.870778 C170.084817,184.658218 172.985566,203.002848 174.318419,202.253465 C170.64377,194.562481 166.94749,196.642311 171.653075,203.753578 C172.985566,203.002848 158.732545,191.049129 162.242447,189.531403 C166.94749,196.642311 157.213586,200.852115 155.222824,192.566495 C158.732545,191.049129 157.74469,209.594966 159.204618,209.137374 C157.213586,200.852115 153.164829,202.120016 156.284762,210.051658 C157.74469,209.594966 146.295895,194.945574 150.045528,194.188104 C153.164829,202.120016 142.765805,204.219257 142.546172,195.702415 C146.295895,194.945574 141.462063,212.880601 142.985169,212.735828 C142.765805,204.219257 138.540765,204.620952 139.938688,213.025463 C141.462063,212.880601 133.317596,196.179867 137.143113,196.215992 C138.540765,204.620952 127.931571,204.519315 129.492258,196.142303 C133.317596,196.179867 124.849851,212.720731 126.370253,212.894889 C127.931571,204.519315 123.715363,204.036112 123.32972,212.546483 C124.849851,212.720731 120.365883,194.695661 124.100015,195.524663 C123.715363,204.036112 113.358247,201.735665 116.632022,193.86585 C120.365883,194.695661 108.634728,209.119312 110.085553,209.604581 C113.358247,201.735665 109.335086,200.388412 107.183902,208.633862 C108.634728,209.119312 108.00674,190.558378 111.48645,192.143502 C109.335086,200.388412 99.6846366,195.992049 104.527661,188.972534 C108.00674,190.558378 93.5240812,202.236391 94.8414321,203.011115 C99.6846366,195.992049 96.0297246,193.841047 92.2063698,201.460229 C93.5240812,202.236391 96.7808228,183.950353 99.8538004,186.221864 C96.0297246,193.841047 87.5074547,187.540001 93.7079353,181.678213 C96.7808228,183.950353 80.1792453,192.368972 81.3067939,193.401429 C87.5074547,187.540001 84.3811234,184.677808 79.0526882,191.337325 C80.1792453,192.368972 87.1775988,175.158705 89.7096487,178.018381 C84.3811234,184.677808 77.3583462,176.747964 84.6459094,172.29876 C87.1775988,175.158705 69.1835065,179.952361 70.0703323,181.195549 C77.3583462,176.747964 74.8969539,173.300842 68.2958696,178.71025 C69.1835065,179.952361 79.6171384,164.568684 81.4976777,167.891074 C74.8969539,173.300842 69.6809942,164.087728 77.7364187,161.247194 C79.6171384,164.568684 61.0169583,165.527002 61.6257498,166.927993 C69.6809942,164.087728 67.9924201,160.204763 60.4081668,164.127988 C61.0169583,165.527002 74.4301987,152.642644 75.5774846,156.281807 C67.9924201,160.204763 64.8114733,150.112053 73.283724,149.003122 C74.4301987,152.642644 56.0367645,149.723927 56.3407547,151.219546 C64.8114733,150.112053 63.9701604,145.963717 55.7329546,148.228758 C56.0367645,149.723927 71.843984,139.90234 72.2065551,143.699035 C63.9701604,145.963717 62.9631985,135.432287 71.4809622,136.105284 C71.843984,139.90234 54.4603054,133.234645 54.4453448,134.758841 C62.9631985,135.432287 63.0042052,131.201275 54.4746352,131.708742 C54.4603054,133.234645 71.9703386,126.903764 71.533685,130.693 C63.0042052,131.201275 64.2155696,120.690245 72.4070823,123.114167 C71.9703386,126.903764 56.3570672,116.777085 56.0241471,118.266234 C64.2155696,120.690245 65.1381749,116.560152 56.6891763,115.288206 C56.3570672,116.777085 74.8042157,114.214951 73.5867228,117.832187 C65.1381749,116.560152 68.5146019,106.530797 76.021258,110.599603 C74.8042157,114.214951 61.6436846,101.072232 61.0076755,102.461991 C68.5146019,106.530797 70.277709,102.68171 62.2796036,99.686518 C61.6436846,101.072232 80.2214236,102.392076 78.2769859,105.676363 C70.277709,102.68171 75.6716648,93.5714917 82.1664922,99.1068005 C80.2214236,102.392076 70.088898,86.8095291 69.1780089,88.0330376 C75.6716648,93.5714917 78.1995689,90.1711895 71.0005081,85.5840435 C70.088898,86.8095291 87.9860162,91.9500621 85.3988101,94.7594138 C78.1995689,90.1711895 85.3752875,82.3789275 90.5734026,89.1405307 C87.9860162,91.9500621 81.3242781,74.6072446 80.176812,75.6169649 C85.3752875,82.3789275 88.5567751,79.5776637 82.4708429,73.597075 C81.3242781,74.6072446 97.7586744,83.3462316 94.6427074,85.5586118 C88.5567751,79.5776637 97.2007132,73.4425077 100.875453,81.1338515 C97.7586744,83.3462316 94.8579249,65.0006135 93.5260639,65.7509841 C97.2007132,73.4425077 100.896361,71.3631273 96.1908673,64.2510516 C94.8579249,65.0006135 109.111487,76.9564888 105.601766,78.4742145 C100.896361,71.3631273 110.629996,67.1533234 112.621028,75.438853 C109.111487,76.9564888 110.099252,58.4108317 108.639234,58.8669851 C110.629996,67.1533234 114.679113,65.8843434 111.55909,57.9527911 C110.099252,58.4108317 121.548137,73.0587852 117.798955,73.8161653 C114.679113,65.8843434 125.078227,63.7851928 125.29795,72.302124 C121.548137,73.0587852 126.382239,55.123759 124.858864,55.2675426 C125.078227,63.7851928 129.302996,63.3834075 127.905525,54.9791667 C126.382239,55.123759 134.526617,71.8226058 130.700919,71.788547 C129.302996,63.3834075 139.913182,63.4864824 138.351774,71.8617868 C134.526617,71.8226058 142.994001,55.2837183 141.47396,55.1095604 C139.913182,63.4864824 144.1293,63.9695054 144.514132,55.457966 Z" id="Stroke-9"></path>
                                </g>
                            </g>
                            <g id="light" mask="url(#mask-4)" fill="url(#radialGradient-6)" opacity="0.5">
                                <g transform="translate(102.841207, -36.854167)" id="Soft-light">
                                    <ellipse filter="url(#filter-7)" cx="82.2729654" cy="82.1666667" rx="82.2729654" ry="82.1666667"></ellipse>
                                </g>
                            </g>
                            <g id="Chip" mask="url(#mask-4)">
                                <g transform="translate(19.358345, 38.062500)">
                                    <g id="Rectangle-41" opacity="0.9">
                                        <use fill="black" fill-opacity="1" filter="url(#filter-11)" xlink:href="#path-10"></use>
                                        <use fill="url(#linearGradient-8)" fill-rule="evenodd" xlink:href="#path-10"></use>
                                        <use fill="url(#linearGradient-9)" fill-rule="evenodd" xlink:href="#path-10"></use>
                                    </g>
                                    <g id="Group" opacity="0.799999952" stroke-width="1" fill-rule="evenodd" transform="translate(0.000000, 1.721875)">
                                        <g id="Rectangle-42">
                                            <use fill="black" fill-opacity="1" filter="url(#filter-13)" xlink:href="#path-12"></use>
                                            <use fill-opacity="0.8" fill="#000000" fill-rule="evenodd" xlink:href="#path-12"></use>
                                        </g>
                                        <g id="Rectangle-42">
                                            <use fill="black" fill-opacity="1" filter="url(#filter-15)" xlink:href="#path-14"></use>
                                            <use fill-opacity="0.8" fill="#000000" fill-rule="evenodd" xlink:href="#path-14"></use>
                                        </g>
                                        <g id="Rectangle-42">
                                            <use fill="black" fill-opacity="1" filter="url(#filter-17)" xlink:href="#path-16"></use>
                                            <use fill-opacity="0.8" fill="#000000" fill-rule="evenodd" xlink:href="#path-16"></use>
                                        </g>
                                        <g id="Rectangle-42">
                                            <use fill="black" fill-opacity="1" filter="url(#filter-19)" xlink:href="#path-18"></use>
                                            <use fill-opacity="0.8" fill="#000000" fill-rule="evenodd" xlink:href="#path-18"></use>
                                        </g>
                                        <g id="Oval-3">
                                            <use fill="black" fill-opacity="1" filter="url(#filter-21)" xlink:href="#path-20"></use>
                                            <use stroke-opacity="0.8" stroke="#000000" stroke-width="0.605" xlink:href="#path-20"></use>
                                        </g>
                                    </g>
                                </g>
                            </g>
                        </g>
                        <text id="Samuel-Sullenhaal" fill="#FFFFFF" font-family="HelveticaNeue, Helvetica Neue" font-size="9.68" font-weight="normal" letter-spacing="-0.145199999">
                            <tspan x="16.9385517" y="126.200571">Samuel Sullenhaal</tspan>
                        </text>
                        <text id="Your-card-number" opacity="0.799999952" font-family="Montserrat-Light, Montserrat Light" font-size="5.445" font-weight="normal" line-spacing="4.84" letter-spacing="-0.181500007" fill="#D3DDE5">
                            <tspan x="16.9538117" y="83.5383333">Your card number</tspan>
                        </text>
                        <text id="Cardholder-Name" opacity="0.799999952" font-family="Montserrat-Light, Montserrat Light" font-size="5.445" font-weight="normal" line-spacing="4.84" letter-spacing="-0.181500007" fill="#D3DDE5">
                            <tspan x="16.9538117" y="114.955">Cardholder Name</tspan>
                        </text>
                        <text id="Card-expiration-date" opacity="0.799999952" font-family="Montserrat-Light, Montserrat Light" font-size="5.445" font-weight="normal" line-spacing="4.84" letter-spacing="-0.181500007" fill="#D3DDE5">
                            <tspan x="158.639238" y="114.350833">Card expiration date</tspan>
                        </text>
                        <g id="09-20" fill="#FFFFFF">
                            <use fill-opacity="1" filter="url(#filter-23)" xlink:href="#text-22"></use>
                            <use fill-rule="evenodd" xlink:href="#text-22"></use>
                            <use fill-opacity="1" xlink:href="#text-22"></use>
                        </g>
                        <g id="6888-8338-3863-8936" fill="#FFFFFF">
                            <use fill-opacity="1" filter="url(#filter-25)" xlink:href="#text-24"></use>
                            <use fill-rule="evenodd" xlink:href="#text-24"></use>
                            <use fill-opacity="1" xlink:href="#text-24"></use>
                        </g>
                    </g>
                </g>
            </g>
        </g>
    </g>
</svg>