<?xml version="1.0" encoding="UTF-8"?>
<svg width="52px" height="45px" viewBox="0 0 52 45" version="1.1" xmlns="http://www.w3.org/2000/svg" xmlns:xlink="http://www.w3.org/1999/xlink">
    <!-- Generator: Sketch 47.1 (45422) - http://www.bohemiancoding.com/sketch -->
    <title>Group 14</title>
    <desc>Created with Sketch.</desc>
    <defs></defs>
    <g id="Page-1" stroke="none" stroke-width="1" fill="none" fill-rule="evenodd">
        <g id="m6-button_trade-1280-copy-5" transform="translate(-618.000000, -393.000000)" fill-rule="nonzero">
            <g id="Group-14" transform="translate(618.000000, 393.000000)">
                <g id="credit-card-(1)">
                    <path d="M32.9078538,34.8442346 C33.2951371,33.4158519 33.7077518,32.1014109 33.745955,31.9213933 C34.3195173,29.258485 32.7197213,27.5646543 32.7197213,27.5646543 L34.5377181,24.8089277 C34.5377181,24.8089277 35.8384792,26.6460441 39.0827617,26.6460441 C42.3270443,26.6460441 42.7187554,24.8089277 42.7187554,24.8089277 C42.7187554,24.8089277 43.1105695,26.6460441 46.3547491,26.6460441 C46.6838523,26.6460441 46.9792833,26.6157637 47.2683298,26.5817372 L47.2683298,2.76332275 C47.2683298,1.24128924 46.0475792,0.00759611993 44.5412831,0.00759611993 L2.72704675,0.00759611993 C1.2216774,0.00759611993 0,1.24118519 0,2.76332275 L0,32.1574974 C0,33.6795309 1.2216774,34.913224 2.72704675,34.913224 L32.8933346,34.913224 C32.8987922,34.89106 32.9023962,34.8662945 32.9078538,34.8442346" id="Shape" fill="#DDE1E4"></path>
                    <g id="Group" transform="translate(0.000000, 4.578483)" fill="#BCBEC5">
                        <polygon id="Shape" points="0.000411893932 7.3702134 47.2688447 7.3702134 47.2688447 0.021643739 0.000411893932 0.021643739"></polygon>
                        <path d="M10.9084959,13.8001728 L3.63650856,13.8001728 C3.13379201,13.8001728 2.72745865,13.3886296 2.72745865,12.8815626 C2.72745865,12.3744956 3.13379201,11.9629524 3.63650856,11.9629524 L10.9085989,11.9629524 C11.4113154,11.9629524 11.8176488,12.3744956 11.8176488,12.8815626 C11.8175458,13.3886296 11.4112125,13.8001728 10.9084959,13.8001728" id="Shape"></path>
                        <path d="M21.81658,13.8001728 L14.5444896,13.8001728 C14.0417731,13.8001728 13.6354397,13.3886296 13.6354397,12.8815626 C13.6354397,12.3744956 14.0417731,11.9629524 14.5444896,11.9629524 L21.81658,11.9629524 C22.3192965,11.9629524 22.7256299,12.3744956 22.7256299,12.8815626 C22.7256299,13.3886296 22.3192965,13.8001728 21.81658,13.8001728" id="Shape"></path>
                        <path d="M15.4535395,17.4744056 L3.63650856,17.4744056 C3.13379201,17.4744056 2.72745865,17.0628624 2.72745865,16.5557954 C2.72745865,16.0487284 3.13379201,15.6371852 3.63650856,15.6371852 L15.4536425,15.6371852 C15.956359,15.6371852 16.3626924,16.0487284 16.3626924,16.5557954 C16.3625894,17.0628624 15.9562561,17.4744056 15.4535395,17.4744056" id="Shape"></path>
                        <path d="M21.81658,17.4744056 L19.0895332,17.4744056 C18.5868167,17.4744056 18.1804833,17.0628624 18.1804833,16.5557954 C18.1804833,16.0487284 18.5868167,15.6371852 19.0895332,15.6371852 L21.81658,15.6371852 C22.3192965,15.6371852 22.7256299,16.0487284 22.7256299,16.5557954 C22.7256299,17.0628624 22.3192965,17.4744056 21.81658,17.4744056" id="Shape"></path>
                        <path d="M32.7195153,22.9858589 L34.5375122,20.2301323 C34.5375122,20.2301323 35.8382732,22.0672487 39.0825558,22.0672487 C42.3268383,22.0672487 42.7185495,20.2301323 42.7185495,20.2301323 C42.7185495,20.2301323 42.720403,20.2375203 42.7240071,20.2503192 L42.7240071,16.5871164 L28.1799293,16.5871164 L28.1799293,24.8229753 L33.6794341,24.8229753 C33.3521844,23.6600406 32.7195153,22.9858589 32.7195153,22.9858589" id="Shape"></path>
                    </g>
                </g>
                <path d="M41.8932556,20.6816314 C41.8932556,20.6816314 42.2850697,22.5187478 45.5292493,22.5187478 C48.7734289,22.5187478 50.0742929,20.6816314 50.0742929,20.6816314 L51.8922897,23.437358 C51.8922897,23.437358 50.2923907,25.1321252 50.8651292,27.7950335 C50.9042592,27.9741146 51.3168739,29.2886596 51.7041572,30.7170423 C52.4277518,33.3909806 51.1206065,38.2584286 47.7917827,40.3041781 C47.7718058,40.3170811 47.7490487,40.3262381 47.7281451,40.3372681 L46.9572856,40.7258148 C46.9572856,40.7258148 41.8932556,42.8854021 41.8932556,44.5645608 C41.8932556,42.8854021 36.8292257,40.7258148 36.8292257,40.7258148 L36.0583662,40.3372681 C36.0374625,40.3262381 36.0147054,40.3170811 35.9947285,40.3041781 C32.6659048,38.2585326 31.3587594,33.3910847 32.082354,30.7170423 C32.4696373,29.2886596 32.882252,27.9742187 32.921382,27.7950335 C33.4940175,25.1321252 31.8942215,23.437358 31.8942215,23.437358 L33.7122183,20.6816314 C33.7122183,20.6816314 35.0129794,22.5187478 38.2572619,22.5187478 C41.5015445,22.5187478 41.8932556,20.6816314 41.8932556,20.6816314" id="Shape" fill="#F0C419"></path>
                <polygon id="Shape" fill="#FFFFFF" points="41.8984043 26.1930847 43.6900399 29.862739 47.3523948 29.8673175 44.7981376 33.3073192 45.534398 37.2158871 41.8984043 35.4356896 38.2624106 37.2158871 38.998671 33.3073192 36.4443108 29.8673175 40.1067687 29.862739"></polygon>
            </g>
        </g>
    </g>
</svg>