<svg xmlns="http://www.w3.org/2000/svg" width="76" height="30" viewBox="0 0 76 30" xmlns:xlink="http://www.w3.org/1999/xlink">
  <defs>
    <polygon id="a" points="0 .043 0 29.854 27.78 29.854 27.78 .043 0 .043"/>
  </defs>
  <g fill="none" fill-rule="evenodd">
    <g transform="translate(0 .07)">
      <mask id="b" fill="white">
        <use xlink:href="#a"/>
      </mask>
      <path fill="#FE9902" d="M16.0235745,0.295614993 C21.3203777,1.13412049 25.2136959,5.39252973 25.9016572,10.7799078 C26.3611466,14.3775914 25.3733162,17.6135424 23.1870053,20.5934862 C22.537012,18.3744938 21.2061419,17.0005164 18.9527506,16.6633634 C19.9867403,16.4520255 20.4409165,16.545966 21.828019,17.2612377 C22.1551188,16.4110598 22.238139,15.5210386 22.2589495,14.6307929 C22.379827,9.47854646 18.5399739,4.33988041 13.6184221,3.04424295 C9.06260234,1.84490288 4.94357978,4.44762573 3.93217162,9.19526605 C2.8202536,14.4155267 5.39587416,21.1111127 12.9110895,22.4447977 C12.9292433,22.4480525 12.9479505,22.4486136 12.9658829,22.452654 C13.3454516,22.5371668 13.8281867,22.7132631 14.0905307,22.519097 C14.3678184,22.3137075 14.0118274,21.8519739 14.0143734,21.4938329 C14.0162553,21.2390602 14.0148163,20.9841751 14.0148163,20.743095 C14.1429995,20.693824 14.1779787,20.7701436 14.215836,20.8292913 C15.3731384,22.6399738 17.0859017,23.4910496 19.1340669,23.7866758 C19.9537535,23.9050834 20.7803033,24.0223687 21.5784048,24.2369614 C24.1927681,24.9396629 26.2217832,26.4473117 27.5432444,28.870908 C27.6843789,29.1299457 27.8606031,29.4015537 27.7399471,29.8544208 C27.5027305,29.5052586 27.3362472,29.2278144 27.1391018,28.9750618 C24.6463908,25.7781684 20.1546626,24.420353 16.2288006,25.3890507 C11.4534751,26.5672906 7.08184961,25.4873683 3.41977058,22.1480491 C0.925399171,19.8736127 -0.0358647526,16.8236346 0.000996243124,13.459287 C0.0697370188,7.18379565 4.74743057,1.26420051 11.5000772,0.238711998 C13.0298639,0.0062739201 13.7112941,-0.0703823845 16.0235745,0.295614993" mask="url(#b)"/>
    </g>
    <path fill="#2769BC" d="M75.8633163 16.8900776C75.3726112 17.0184741 74.8706154 16.9694275 74.3780285 16.9446236 73.9117868 16.9212788 73.7466317 17.0302587 73.7550445 17.5505788 73.7888061 19.6440928 73.7542697 21.7386169 73.7796185 23.8323553 73.7858173 24.3378604 73.66018 24.5230477 73.1357133 24.5046412 71.9995534 24.4645734 72.1179956 24.579614 72.1166673 23.4781426 72.1140107 21.4775589 72.1038269 19.4768631 72.1256335 17.4766161 72.130172 17.0564093 72.0187034 16.9096064 71.601831 16.9484395 71.2178347 16.9842424 70.8276394 16.9432768 70.4409863 16.9584285 70.0141516 16.9752637 70.0314198 16.6878306 70.032416 16.3959081 70.0333016 16.1049958 70.014705 15.835408 70.4444179 15.8411319 72.2506067 15.8649257 74.0570169 15.8687417 75.8633163 15.8799652L75.8633163 16.8900776zM48.3468819 4.80003148C47.8447754 6.41351762 47.3494212 7.97571251 46.877534 9.54509041 46.7724857 9.89447702 46.6352255 10.0644004 46.236839 10.0642881 45.8311467 10.064176 45.7099371 9.88460042 45.6126374 9.53151001 44.9198056 7.01666694 44.2166794 4.50474197 43.4934068 1.99876545 43.3569215 1.52592062 43.4800129 1.39763636 43.9391703 1.41256357 45.2684907 1.45588617 44.9506891 1.20818417 45.290408 2.48575184 45.6970966 4.01483747 46.055412 5.55727905 46.4696278 7.23563685 46.9955335 5.49667231 47.4802611 3.89485858 47.9643246 2.29270814 48.0126977 2.13232474 48.0553148 1.97003336 48.1033558 1.8094255 48.1707683 1.58439491 48.2581056 1.41761413 48.5498941 1.40841089 48.8634894 1.39842199 48.9674307 1.56183573 49.0443628 1.81537393 49.4607924 3.18789216 49.8809856 4.5591758 50.3019538 5.93023498 50.4193997 6.3128431 50.5435981 6.69331875 50.7085316 7.21274098 51.0695037 5.77995271 51.3964929 4.48195833 51.7233713 3.18396395 51.832626 2.7501768 51.9384491 2.31560402 52.0517994 1.88293922 52.1533055 1.49539278 53.0677461 1.20560277 53.3552175 1.46834422 53.4941381 1.59550614 53.4218552 1.75476719 53.3848835 1.88911214 52.667367 4.49340627 51.9394453 7.09489453 51.2269101 9.70064768 51.1435578 10.005365 50.9734216 10.0624924 50.7025542 10.0534014 50.421835 10.0439736 50.1806334 10.0730424 50.062634 9.69806635 49.6046943 8.24159653 49.1143212 6.79545233 48.6314754 5.34706344 48.5751323 5.17815022 48.562956 4.98353523 48.3468819 4.80003148M35.5091159 19.2281846C35.0830559 20.5952033 34.6654087 21.9355102 34.24754 23.2757048 34.1754785 23.5069083 34.0829385 23.7338469 34.0352295 23.9701009 33.9618397 24.3331802 33.7943601 24.5042259 33.3985195 24.5051238 32.9960372 24.5060217 32.8699572 24.3160083 32.772436 23.9615711 32.0798257 21.4460547 31.3744856 18.9340174 30.6548659 16.4262451 30.5364237 16.0137827 30.5830257 15.8431859 31.0504852 15.8602456 32.4611654 15.9117613 32.1067242 15.6241038 32.4647076 16.9838272 32.8581129 18.4783446 33.2159856 19.9824019 33.6315297 21.6521176 34.0144192 20.3919463 34.3497103 19.2918217 34.6826769 18.191136 34.8715203 17.5669987 35.060253 16.9427493 35.2419013 16.3163674 35.31828 16.0529525 35.3937731 15.8536237 35.7465538 15.8529503 36.1160494 15.8522768 36.1547922 16.0916736 36.230728 16.3390388 36.7555267 18.0478122 37.2802148 19.7565856 37.8092199 21.4792761 37.9971778 21.366368 37.9815699 21.189935 38.0194272 21.0395405 38.416264 19.4670201 38.8111084 17.8939384 39.2096056 16.3217547 39.3059092 15.9418402 40.232526 15.6540704 40.51402 15.9161384 40.6471845 16.0401578 40.5775582 16.2039082 40.5411399 16.3362329 39.8238449 18.9415372 39.0947056 21.5435866 38.3813955 24.1500132 38.2859776 24.4987264 38.0552919 24.4853705 37.7881881 24.498053 37.4877655 24.5124191 37.3196217 24.4154483 37.2205509 24.105905 36.7548626 22.6508942 36.2694708 21.2022809 35.7846325 19.7535552 35.7284001 19.5854277 35.7233082 19.3850888 35.5091159 19.2281846M35.8977282 5.72916651C35.8817883 5.0122112 35.8122727 4.2713499 35.5029945 3.57650484 35.1601762 2.80623804 34.6306176 2.27020508 33.741526 2.2858057 32.8407008 2.3016308 32.2501501 2.82890945 31.9620143 3.64148872 31.4664387 5.03948423 31.4734125 6.4641916 31.9942262 7.85882007 32.3212154 8.73458747 33.0275518 9.26657998 33.7686459 9.22527762 34.6572948 9.17566988 35.2212791 8.64502418 35.5502607 7.84703542 35.8237848 7.18384054 35.887655 6.47597624 35.8977282 5.72916651M37.5868031 5.74611395C37.520719 7.57138698 36.9544101 9.11293067 35.2056713 9.96007825 34.9030348 10.1066568 34.9784172 10.2788248 35.0892215 10.4916218 35.5137319 11.3062213 36.2420962 11.7227243 37.052374 12.0280027 37.258707 12.1056691 37.4772163 12.1493284 37.6865381 12.2195874 37.8701789 12.2813164 38.0344483 12.3771649 37.9982515 12.6143169 37.959398 12.869314 37.7645771 12.9549491 37.5516025 12.9309309 37.2238385 12.8941179 36.8959638 12.8320521 36.5768339 12.7472027 35.1981442 12.3804197 33.997007 11.7480894 33.2935487 10.4067724 33.2165058 10.2599693 33.1155532 10.1902717 32.9570399 10.158397 31.2688506 9.81832581 30.1541652 8.47274391 29.9462825 6.40829872 29.8402379 5.35475152 29.9539203 4.3179273 30.4148488 3.34664815 31.1169788 1.86750695 32.554779 1.07086501 34.1725672 1.25751132 35.8565502 1.45167737 37.0511564 2.5819931 37.4475504 4.35114877 37.5501635 4.80951531 37.5881314 5.27293243 37.5868031 5.74611395M44.7342829 18.0789349C44.4346351 18.9994839 44.1818109 19.7869227 43.9205737 20.5715555 43.8546003 20.7696498 43.9097258 20.8483262 44.1117417 20.8469795 44.6035537 20.8439491 45.0954764 20.8459694 45.6468417 20.8459694 45.3416592 19.9205942 45.0588368 19.063121 44.7342829 18.0789349M47.6468551 24.4930362C47.0507697 24.6709281 46.7538891 24.3007781 46.6319047 23.6843851 46.6283625 23.6662031 46.6228278 23.6479088 46.6154114 23.6309613 46.3592662 23.0381377 46.3685644 22.1554117 45.8709964 21.8919969 45.3325824 21.6069207 44.542783 21.8185953 43.8631237 21.7951382 43.5933632 21.785935 43.4766921 21.896374 43.3968819 22.151708 43.2026145 22.7731515 42.9766887 23.384494 42.7608361 23.9988667 42.610514 24.4270421 41.8114164 24.7051598 41.4447989 24.4493768 41.1888751 24.2706992 41.4080486 24.066432 41.4664948 23.9047018 42.1995083 21.8748249 42.9485725 19.8508964 43.6929875 17.8251722 43.8726433 17.3362778 44.0820758 16.8555766 44.2198894 16.3547854 44.3409883 15.9144886 44.6032216 15.8599426 44.9968484 15.8515249 45.4126138 15.8426584 45.6133015 15.9749831 45.7558749 16.3784669 46.6358897 18.8695161 47.5426924 21.3509133 48.4395326 23.8359019 48.6750887 24.488659 48.673539 24.4893324 48.0139154 24.4930362 47.9218182 24.4934851 47.8297211 24.4930362 47.6468551 24.4930362M63.5754323 20.1463655C63.5754323 18.8938262 63.5896011 17.6410624 63.5674623 16.388972 63.5600458 15.9696632 63.7020658 15.8330735 64.1083117 15.839022 65.3618069 15.8574284 66.6159663 15.8615811 67.8692401 15.836665 68.2834558 15.8283597 68.3588382 15.9992932 68.3454443 16.3649538 68.332936 16.7073819 68.3601666 16.9878564 67.8717861 16.9648483 67.1358945 16.93028 66.3967928 16.9697866 65.6599049 16.9499211 65.3341334 16.9410546 65.1965412 17.0268018 65.213588 17.3837082 65.2403759 17.9431983 65.2377193 18.5057186 65.2142522 19.0655453 65.2004155 19.3950664 65.324171 19.479018 65.6286893 19.4684679 66.2180225 19.447929 66.8097909 19.4866499 67.3980172 19.4543263 67.8093548 19.4316549 67.8903826 19.6106693 67.8923751 19.9802581 67.8944783 20.3661211 67.8194279 20.5780202 67.3774281 20.5547876 66.8073556 20.5249332 66.234073 20.5626441 65.6633364 20.5418806 65.341882 20.5302082 65.198755 20.6103438 65.2132559 20.9717396 65.239601 21.6249455 65.2387154 22.280733 65.213588 22.9340512 65.2000834 23.2870293 65.3257207 23.3809698 65.657691 23.3717665 66.4130648 23.3505542 67.1698775 23.3826533 67.9251405 23.359533 68.345555 23.3466259 68.3527501 23.5869205 68.340131 23.8945558 68.3280654 24.190182 68.4078755 24.5041025 67.928904 24.4981541 66.6200619 24.48188 65.3108877 24.4868183 64.001935 24.496695 63.6555745 24.4992764 63.5670195 24.340801 63.5702296 24.0159937 63.5829594 22.7261925 63.5754323 21.436279 63.5754323 20.1463655M50.44052 20.1698675C50.44052 18.9192362 50.4503719 17.6683803 50.4345426 16.4179735 50.4296721 16.0330084 50.5052759 15.8497291 50.9481613 15.8547797 52.0775689 15.8676867 52.0777903 15.8450153 52.0777903 17.0041753 52.0777903 18.9268681 52.0938409 20.8497854 52.0664995 22.7720291 52.0597473 23.2507102 52.207634 23.3785455 52.6574931 23.3539662 53.3183344 23.3178265 53.983382 23.3651896 54.6451088 23.3384777 55.1080298 23.3197345 55.0759287 23.6052596 55.074711 23.9170476 55.0733827 24.2290601 55.1057053 24.5080756 54.6416774 24.500107 53.3901746 24.4786701 52.137897 24.4819249 50.8861729 24.4993213 50.4917713 24.5048208 50.434432 24.3062776 50.4367565 23.9778788 50.4460548 22.7086166 50.44052 21.439242 50.44052 20.1698675M57.0268384 20.1827071C57.026949 18.8930181 57.0356938 17.6032169 57.0209716 16.31364 57.0170973 15.9800785 57.1079769 15.8496618 57.4561084 15.8602119 58.8953476 15.9038712 58.6324502 15.6468537 58.6449586 17.0035468 58.6625589 18.9285965 58.6606771 20.8539829 58.6407523 22.7790326 58.6362138 23.2070958 58.7372771 23.3788149 59.1892395 23.3542355 59.8693414 23.3174225 60.5533177 23.3607451 61.2347479 23.3402061 61.6558267 23.3275236 61.6644608 23.5808373 61.6498492 23.8848812 61.6356804 24.1765791 61.7147157 24.5027332 61.2362976 24.4973459 59.9644272 24.4832044 58.6922248 24.48298 57.4204651 24.4982439 57.0342548 24.5028454 57.0225213 24.2849979 57.0239603 23.9956569 57.0303806 22.724711 57.0267277 21.4537652 57.0268384 20.1827071M56.9889479 5.77954867C56.9889479 7.0111001 56.9773251 8.242876 56.9953681 9.47409074 57.0014563 9.8889102 56.9064811 10.0767911 56.4437815 10.0583846 55.1540895 10.0072056 55.3275465 10.2412149 55.3223439 8.93839448 55.3133777 6.66193793 55.333856 4.3852569 55.3093927 2.10902482 55.3037473 1.5866845 55.4251783 1.37736676 55.979975 1.40654779 57.0819306 1.46468536 56.9836346 1.23505316 56.9880623 2.42081283 56.9922687 3.54035403 56.9889479 4.66000747 56.9889479 5.77954867M41.5529687 5.71953676C41.5529687 6.98823789 41.5366967 8.25727572 41.5619349 9.52552791 41.570569 9.95437667 41.4252282 10.067846 41.0216391 10.0561736 39.7067088 10.0180138 39.9023045 10.2158836 39.8969913 8.94134626 39.8874716 6.64648321 39.9056253 4.35150793 39.8850364 2.05675712 39.8807193 1.58391229 39.9886456 1.39266435 40.4946264 1.40658146 41.5523046 1.43553801 41.5529687 1.40893838 41.5529687 2.47314788L41.5529687 5.71953676"/>
    <path fill="#FE9902" d="M19.8364957 22.6123752C19.3871901 22.5999172 18.9584735 22.1213484 18.973085 21.6325663 18.985372 21.2258277 19.1773149 20.9589336 19.6004969 20.9432207 20.0615361 20.9260488 20.5229072 21.4551232 20.5018754 21.9512007 20.4852715 22.3431243 20.2039988 22.6225887 19.8364957 22.6123752M22.5437533 21.1064998C22.5253781 21.2271521 22.5703197 21.4109925 22.3878965 21.4588045 22.2380173 21.4981989 22.1606424 21.3494879 22.1092805 21.2417426 21.9835326 20.9776544 21.8744992 20.7045873 21.7737681 20.4295001 21.7281622 20.3052562 21.734029 20.1604734 21.8607732 20.0821336 22.0272565 19.9792144 22.1379502 20.1159163 22.2280549 20.2224269 22.4362697 20.4684455 22.524714 20.7667653 22.5437533 21.1064998"/>
  </g>
</svg>
