<svg xmlns="http://www.w3.org/2000/svg" width="76" height="19" viewBox="0 0 76 19">
  <g fill="#0068A3" fill-rule="evenodd">
    <path d="M66.3299321,0.0462691824 C67.8176201,0.0462691824 69.2265358,0.392714465 70.4813484,1.00778868 C70.6784704,1.10128302 70.8750189,1.20414591 71.0721409,1.31771572 L70.1999094,2.09836478 L68.8894591,0.743366038 L66.6777157,2.71611572 L65.3640151,1.28234465 L61.2439547,4.99611572 L63.8853132,7.90705912 L62.8473157,8.82001509 L65.4489057,11.735356 L64.4170264,12.6462088 L68.1346214,16.7842415 L70.3413937,14.7526038 L72.2493283,16.9297409 C71.8698063,17.2247547 71.4564428,17.5023698 71.0010164,17.7589535 C69.6213535,18.5457208 68.0267874,18.9961761 66.3299321,18.9961761 C61.1114566,18.9961761 56.8552654,14.7394113 56.8552654,9.52150943 C56.8552654,4.30246038 61.1114566,0.0462691824 66.3299321,0.0462691824"/>
    <polyline points="64.603 8.922 66.856 6.894 68.885 9.147 66.632 11.175 64.603 8.922"/>
    <polyline points="66.205 12.816 68.459 10.787 70.487 13.04 68.234 15.069 66.205 12.816"/>
    <polyline points="62.991 5.075 65.244 3.047 67.272 5.3 65.019 7.328 62.991 5.075"/>
    <polyline points="67.125 3.983 68.815 2.462 70.337 4.152 68.647 5.673 67.125 3.983"/>
    <polyline points="70.128 10.952 71.818 9.43 73.34 11.12 71.65 12.642 70.128 10.952"/>
    <polyline points="71.615 14.365 73.304 12.843 74.825 14.533 73.136 16.054 71.615 14.365"/>
    <polyline points="72.295 6.542 73.422 5.528 74.436 6.655 73.31 7.669 72.295 6.542"/>
    <polyline points="70.856 3.195 71.982 2.181 72.997 3.307 71.87 4.322 70.856 3.195"/>
    <polyline points="73.735 9.889 74.862 8.875 75.876 10.001 74.75 11.016 73.735 9.889"/>
    <polyline points="68.683 7.381 70.373 5.86 71.894 7.549 70.205 9.07 68.683 7.381"/>
    <polyline points="4.513 7.888 4.437 7.888 3.01 13.283 1.843 13.283 .092 5.618 1.302 5.618 2.513 11.337 2.589 11.337 3.994 5.618 4.956 5.618 6.459 11.337 6.534 11.337 7.637 5.618 8.902 5.618 7.151 13.283 5.983 13.283 4.513 7.888"/>
    <path d="M13.6924277 12.093273L13.6924277 12.9148377C13.2060277 13.1962767 12.5574943 13.4125182 11.7789484 13.4125182 9.96297862 13.4125182 9.21693585 12.2882918 9.21693585 10.5797736 9.21693585 8.93683522 10.0493987 7.74760252 11.6709233 7.74760252 13.0220981 7.74760252 13.854561 8.62346667 13.854561 10.3853283L13.854561 10.785117 10.3306465 10.785117C10.3306465 12.0821836 10.8602566 12.6553862 11.9737761 12.6553862 12.5574943 12.6553862 13.0978113 12.4500428 13.6924277 12.093273L13.6924277 12.093273zM10.3522516 10.0610616L12.8274616 10.0610616C12.7737358 8.92574591 12.2223296 8.47204025 11.6386113 8.47204025 10.9787975 8.47204025 10.4709836 8.98023648 10.3522516 10.0610616L10.3522516 10.0610616zM15.9622943 8.14777358C16.286561 7.97474214 16.8377761 7.74760252 17.4216855 7.74760252 18.7619623 7.74760252 19.4864 8.67738365 19.4864 10.4075069 19.4864 12.4286289 18.5137912 13.4125182 16.9461836 13.4125182 16.3729811 13.4125182 15.4866013 13.2285887 14.8378767 12.8823346L14.8378767 5.33701635 15.9622943 5.06666667 15.9622943 8.14777358 15.9622943 8.14777358zM15.9515874 12.4825459C16.2972679 12.6339723 16.675834 12.6553862 16.9461836 12.6553862 17.7461434 12.6553862 18.3514667 12.1582792 18.3514667 10.4075069 18.3514667 9.03415346 17.8541686 8.59096352 17.129922 8.59096352 16.6972478 8.59096352 16.3840704 8.70988679 15.9515874 8.94773333L15.9515874 12.4825459 15.9515874 12.4825459z"/>
    <polyline points="24.405 11.661 24.459 11.661 26.773 5.618 28.113 5.618 28.113 13.283 26.946 13.283 26.946 7.726 26.848 7.726 24.643 13.283 23.951 13.283 21.746 7.856 21.649 7.856 21.649 13.283 20.676 13.283 20.676 5.618 21.984 5.618 24.405 11.661"/>
    <path d="M29.3023497 10.5797736C29.3023497 8.68789937 30.340156 7.74760252 31.767044 7.74760252 33.1941233 7.74760252 34.2321208 8.68789937 34.2321208 10.5797736 34.2321208 12.4286289 33.2482314 13.4125182 31.767044 13.4125182 30.2858566 13.4125182 29.3023497 12.4286289 29.3023497 10.5797736L29.3023497 10.5797736zM33.0966138 10.5797736C33.0966138 9.12057358 32.5019975 8.5045434 31.767044 8.5045434 31.0535044 8.5045434 30.437283 9.12057358 30.437283 10.5797736 30.437283 12.0613434 30.9997786 12.6553862 31.767044 12.6553862 32.5345006 12.6553862 33.0966138 12.0613434 33.0966138 10.5797736L33.0966138 10.5797736zM35.2588377 8.54756226C35.7452377 8.25560755 36.7725283 7.74760252 38.0151044 7.74760252 39.3129358 7.74760252 39.7989535 8.25560755 39.7989535 9.36893585L39.7989535 13.2826969 38.674727 13.2826969 38.674727 9.6178717C38.674727 8.76380377 38.2535245 8.61237736 37.7023094 8.61237736 37.2696352 8.61237736 36.7182289 8.80739623 36.3832553 9.00165031L36.3832553 13.2826969 35.2588377 13.2826969 35.2588377 8.54756226M45.2795572 12.093273L45.2795572 12.9148377C44.7933484 13.1962767 44.1450063 13.4125182 43.3662692 13.4125182 41.5504906 13.4125182 40.8044478 12.2882918 40.8044478 10.5797736 40.8044478 8.93683522 41.6369107 7.74760252 43.2584352 7.74760252 44.6099925 7.74760252 45.4426465 8.62346667 45.4426465 10.3853283L45.4426465 10.785117 41.9183497 10.785117C41.9183497 12.0821836 42.4479597 12.6553862 43.5612881 12.6553862 44.1450063 12.6553862 44.6855145 12.4500428 45.2795572 12.093273L45.2795572 12.093273zM41.9395723 10.0610616L44.4151648 10.0610616C44.361439 8.92574591 43.8096503 8.47204025 43.2259321 8.47204025 42.5663094 8.47204025 42.0586868 8.98023648 41.9395723 10.0610616L41.9395723 10.0610616zM49.6475975 7.93134088L50.804327 7.93134088 48.8474465 13.3366138C48.3067472 14.8286994 47.6471245 15.6066717 46.4045484 15.6066717L46.4045484 14.7206742C47.1396931 14.7206742 47.5932075 14.1365736 47.8530415 13.3366138L45.7774289 7.93134088 46.9666616 7.93134088 48.3503396 11.9093434 48.4147723 11.9093434 49.6475975 7.93134088"/>
  </g>
</svg>
