<svg xmlns="http://www.w3.org/2000/svg" width="42" height="42" viewBox="0 0 42 42" xmlns:xlink="http://www.w3.org/1999/xlink">
  <defs>
    <linearGradient id="b" x1="50%" x2="50%" y1="0%" y2="100%">
      <stop stop-color="#00E222" offset="0%"/>
      <stop stop-color="#00C31D" offset="100%"/>
    </linearGradient>
    <path id="a" d="M14.64295,0 L27.35705,0 C31.5735,0 33.6812,0 35.95095,0.7175 C38.42895,1.61945 40.38055,3.57105 41.2825,6.04905 C42,8.31845 42,10.42685 42,14.64295 L42,27.35705 C42,31.5735 42,33.6812 41.2825,35.95095 C40.38055,38.42895 38.42895,40.38055 35.95095,41.28215 C33.6812,42 31.5735,42 27.35705,42 L14.64295,42 C10.4265,42 8.31845,42 6.04905,41.28215 C3.57105,40.38055 1.61945,38.42895 0.7175,35.95095 C0,33.6812 0,31.5735 0,27.35705 L0,14.64295 C0,10.42685 0,8.31845 0.7175,6.04905 C1.61945,3.57105 3.57105,1.61945 6.04905,0.7175 C8.31845,0 10.4265,0 14.64295,0 L14.64295,0"/>
    <linearGradient id="c" x1="50%" x2="50%" y1="0%" y2="100%">
      <stop stop-color="#3AD41A" offset="0%"/>
      <stop stop-color="#31B716" offset="100%"/>
    </linearGradient>
  </defs>
  <g fill="none" fill-rule="evenodd">
    <mask id="d" fill="white">
      <use xlink:href="#a"/>
    </mask>
    <use fill="url(#b)" xlink:href="#a"/>
    <rect width="42" height="42" fill="url(#c)" mask="url(#d)"/>
    <path fill="#FFFFFF" d="M31.1718791,23.6249795 C31.9420705,23.6249795 32.5664104,23.0006396 32.5664104,22.2304482 C32.5664104,21.4602979 31.9420705,20.835917 31.1718791,20.835917 C30.4016877,20.835917 29.7773479,21.4602979 29.7773479,22.2304482 C29.7773479,23.0006396 30.4016877,23.6249795 31.1718791,23.6249795 L31.1718791,23.6249795 Z M24.3632854,23.6249795 C25.1334768,23.6249795 25.7578166,23.0006396 25.7578166,22.2304482 C25.7578166,21.4602979 25.1334768,20.835917 24.3632854,20.835917 C23.5930939,20.835917 22.9687541,21.4602979 22.9687541,22.2304482 C22.9687541,23.0006396 23.5930939,23.6249795 24.3632854,23.6249795 L24.3632854,23.6249795 Z M20.466801,15.5449014 C21.3728771,15.5449014 22.107426,14.8103936 22.107426,13.9042764 C22.107426,12.9982002 21.3728771,12.2636514 20.466801,12.2636514 C19.5606838,12.2636514 18.826176,12.9982002 18.826176,13.9042764 C18.826176,14.8103936 19.5606838,15.5449014 20.466801,15.5449014 L20.466801,15.5449014 Z M12.2226604,15.5449014 C13.1287365,15.5449014 13.8632854,14.8103936 13.8632854,13.9042764 C13.8632854,12.9982002 13.1287365,12.2636514 12.2226604,12.2636514 C11.3165842,12.2636514 10.5820354,12.9982002 10.5820354,13.9042764 C10.5820354,14.8103936 11.3165842,15.5449014 12.2226604,15.5449014 L12.2226604,15.5449014 Z M31.8632795,33.1061514 C31.6890451,33.0052529 31.4810139,32.9822432 31.2883225,33.0404854 C30.1958713,33.3707021 29.0171643,33.5507607 27.78809,33.5507607 C22.1137014,33.5507607 17.513676,29.7128467 17.513676,24.9784951 C17.513676,20.2441846 22.1137014,16.4062295 27.78809,16.4062295 C33.4624787,16.4062295 38.0625041,20.2441846 38.0625041,24.9784951 C38.0625041,27.5935283 36.6590725,29.9350283 34.4464025,31.5073623 C34.2688869,31.6335264 34.1882912,31.8565693 34.2434982,32.0672256 L34.7271545,33.9122725 C34.8719807,34.4646709 34.5861018,34.6825049 34.0919045,34.3964209 L31.8632795,33.1061514 L31.8632795,33.1061514 Z M12.2043264,26.8823174 C13.5043576,27.2695459 14.9052053,27.4804482 16.3652385,27.4804482 C16.5879943,27.4804482 16.8093146,27.4755674 17.0291584,27.4658467 C16.7569377,26.6616533 16.6113322,25.8136553 16.6113322,24.9374795 C16.6113322,19.772751 21.6704455,15.585917 27.9111369,15.585917 C28.12934,15.585917 28.3460666,15.5910439 28.5611936,15.6011338 C27.6353479,10.6890615 22.527549,6.93162012 16.3652385,6.93162012 C9.54688301,6.93162012 4.01953535,11.5316455 4.01953535,17.2060342 C4.01953535,20.3253545 5.68985566,23.1199951 8.32670918,25.004335 C8.57497676,25.1817275 8.68867207,25.4933643 8.60967598,25.7881436 L8.02938691,27.9533994 C7.8542502,28.6069014 8.18897871,28.8625107 8.77324629,28.5213428 L11.4168264,26.9778428 C11.6549631,26.8387998 11.9400217,26.8035674 12.2043264,26.8823174 Z" mask="url(#d)"/>
  </g>
</svg>
