<svg xmlns="http://www.w3.org/2000/svg" width="76" height="15" viewBox="0 0 76 15">
  <g fill="none" fill-rule="evenodd">
    <path fill="#FF0000" d="M4.81574144,1.13289836 L4.10544487,1.13289836 C3.0313308,1.13289836 1.99203802,1.84746448 1.99203802,3.9215377 C1.99203802,5.92569508 2.94463878,6.57063607 4.10544487,6.57063607 L4.81574144,6.57063607 L4.81574144,1.13289836 Z M3.70695057,7.6860918 L1.59354373,12.4614459 L0.051581749,12.4614459 L2.37319392,7.35482732 C1.28145247,6.79709945 0.55381749,5.78629945 0.55381749,3.9215377 C0.55381749,1.30717923 2.1996654,0 4.15746008,0 L6.14978707,0 L6.14978707,12.4614459 L4.81574144,12.4614459 L4.81574144,7.6860918 L3.70695057,7.6860918 L3.70695057,7.6860918 Z"/>
    <path fill="#000000" d="M32.0688213 8.0695388C32.0688213 5.31563934 33.1258859 3.55553333 35.1702281 3.55553333 35.9495894 3.55553333 36.4000989 3.76469945 36.7812548 4.00846011L36.5906768 5.29848743C36.2268593 4.98452022 35.7071407 4.68843169 35.1527452 4.68843169 34.1825171 4.68843169 33.4897034 5.78629945 33.4897034 7.99976831 33.4897034 10.1956492 34.0092776 11.4507913 35.10073 11.4507913 35.7590114 11.4507913 36.2615361 11.1892973 36.5733384 10.910506L36.8851407 11.9211607C36.4174373 12.3219049 35.8630418 12.5833989 35.0660532 12.5833989 33.1949506 12.5833989 32.0688213 11.0673443 32.0688213 8.0695388zM28.1189886 8.08669071L28.1189886 12.4614459 26.7676046 12.4614459 26.7676046 3.67734098 28.1189886 3.67734098 28.1189886 7.73827432 30.2152015 3.67734098 31.583924 3.67734098 29.4183574 7.80804481 31.8955817 12.4614459 30.4231179 12.4614459 28.1189886 8.08669071zM21.7608517 7.26775956L23.9957719 7.26775956C23.9957719 5.76885683 23.7531787 4.67084372 22.973673 4.67084372 22.1420076 4.67084372 21.8475437 5.69908634 21.7608517 7.26775956zM23.2507985 12.5833989C21.4490494 12.5833989 20.340403 11.1371148 20.340403 8.43583388 20.340403 5.61201858 21.1200532 3.55553333 22.973673 3.55553333 24.428943 3.55553333 25.3818327 4.65340109 25.3818327 7.63347322L25.3818327 8.3832153 21.7435133 8.3832153C21.7435133 10.3702208 22.2979087 11.415906 23.3720228 11.415906 24.1343346 11.415906 24.7407452 11.0673443 25.0872243 10.8234383L25.3991711 11.8685421C24.8447757 12.3046077 24.1169962 12.5833989 23.2507985 12.5833989zM17.4990722 4.7753541L15.9917871 4.7753541 15.9917871 4.93248306C15.9917871 6.77980219 15.9052395 9.4809377 15.1776046 11.3459902L17.4990722 11.3459902 17.4990722 4.7753541zM19.5259316 14.1869574L18.3133992 14.1869574 18.3133992 12.4614459 14.5711939 12.4614459 14.5711939 14.1869574 13.3586616 14.1869574 13.3586616 11.3459902 13.8957186 11.3459902C14.6924183 9.4809377 14.7791103 6.76235956 14.7791103 4.42679235L14.7791103 3.67734098 18.8331179 3.67734098 18.8331179 11.3459902 19.5259316 11.3459902 19.5259316 14.1869574zM12.5790114 3.67734098L12.5790114 12.4614459 11.2449658 12.4614459 11.2449658 8.52275628 9.23530038 8.52275628 9.23530038 12.4614459 7.88391635 12.4614459 7.88391635 3.67734098 9.23530038 3.67734098 9.23530038 7.40686448 11.2449658 7.40686448 11.2449658 3.67734098 12.5790114 3.67734098 12.5790114 3.67734098zM45.1562814.71456612L42.4711407.71456612C42.418981 3.86906448 42.332289 6.27425683 42.1937262 8.0695388 42.0378251 9.93415519 41.7605551 11.1715639 41.2929962 11.7471705L45.1562814 11.7471705 45.1562814.71456612zM46.0744943 12.4614459L40.7732776 12.4614459 40.6517643 14.5355191 39.976289 14.5355191 39.976289 11.7471705 40.3401065 11.7471705C40.9465171 11.2413344 41.2408365 9.84723279 41.414076 8.0695388 41.5873156 6.22221967 41.6393308 3.46817486 41.6914905 0L46.0224791 0 46.0224791 11.7471705 46.8717719 11.7471705 46.8717719 14.5355191 46.1955741 14.5355191 46.0744943 12.4614459 46.0744943 12.4614459zM48.553308 7.56370273L51.7242129 7.56370273C51.8624867 5.22857158 51.169673 4.18303169 50.2861369 4.18303169 49.367924 4.18303169 48.6226616 5.36796721 48.553308 7.56370273zM50.4590875 11.9211607C51.6196046 11.9211607 52.2260152 10.9802765 52.2260152 10.9802765L52.4860913 11.6419333C52.4860913 11.6419333 51.8278099 12.6354361 50.442038 12.6354361 48.5885627 12.6354361 47.73927 10.9448098 47.73927 8.0695388 47.73927 5.19368634 48.8132395 3.50306011 50.2861369 3.50306011 51.7931331 3.50306011 52.7630722 5.08932131 52.4860913 8.20922514L48.5362586 8.20922514C48.5709354 10.6141268 49.1943954 11.9211607 50.4590875 11.9211607L50.4590875 11.9211607z"/>
    <polyline fill="#000000" points="57.823 8.226 54.843 8.226 54.843 12.461 54.029 12.461 54.029 3.677 54.843 3.677 54.843 7.564 57.823 7.564 57.823 3.677 58.637 3.677 58.637 12.461 57.823 12.461 57.823 8.226"/>
    <path fill="#000000" d="M61.375924,7.58143607 L61.375924,11.8165049 L61.8959316,11.8165049 C63.1258023,11.8165049 63.9574677,11.2068852 63.9574677,9.69039454 C63.9574677,8.20922514 63.2299772,7.58143607 61.9823346,7.58143607 L61.375924,7.58143607 Z M60.5623194,3.67734098 L61.375924,3.67734098 L61.375924,6.93664044 L62.0175894,6.93664044 C63.6804867,6.93664044 64.7546008,7.84293005 64.7546008,9.67309727 C64.7546008,11.5377137 63.6111331,12.4614459 61.9652852,12.4614459 L60.5623194,12.4614459 L60.5623194,3.67734098 L60.5623194,3.67734098 Z"/>
    <polyline fill="#000000" points="66.956 4.357 66.956 12.461 66.159 12.461 66.159 3.677 69.849 3.677 69.849 4.357 66.956 4.357"/>
    <path fill="#000000" d="M75.169057,6.34402732 C75.169057,5.89080984 75.2031559,5.50736284 75.2384106,5.14135847 L75.1861065,5.14135847 C75.0648821,5.52480546 74.9091255,5.89080984 74.7185475,6.27425683 L71.8775057,12.4614459 L71.1845475,12.4614459 L71.1845475,3.67734098 L71.9468593,3.67734098 L71.9468593,9.77731694 C71.9468593,10.2478317 71.9116046,10.6312787 71.8775057,11.0147257 L71.9292319,11.0147257 C72.0504563,10.6141268 72.2234068,10.2306798 72.3969354,9.84723279 L75.2384106,3.67734098 L75.9484183,3.67734098 L75.9484183,12.4614459 L75.169057,12.4614459 L75.169057,6.34402732"/>
  </g>
</svg>
