<?xml version="1.0" encoding="UTF-8" standalone="no"?>
<svg width="48px" height="48px" viewBox="0 0 48 48" version="1.1" xmlns="http://www.w3.org/2000/svg" xmlns:xlink="http://www.w3.org/1999/xlink">
    <!-- Generator: Sketch 46.2 (44496) - http://www.bohemiancoding.com/sketch -->
    <title>eur</title>
    <desc>Created with Sketch.</desc>
    <defs>
        <path d="M48.00105,24.00105 C48.00105,37.2557529 37.2557529,48 24,48 C10.7452971,48 0,37.2557529 0,24.00105 C0,10.746347 10.7452971,0 24,0 C37.2557529,0 48.00105,10.746347 48.00105,24.00105 Z" id="path-1"></path>
    </defs>
    <g id="Page-1" stroke="none" stroke-width="1" fill="none" fill-rule="evenodd">
        <g id="eur">
            <g>
                <mask id="mask-2" fill="white">
                    <use xlink:href="#path-1"></use>
                </mask>
                <g id="Clip-5794"></g>
                <polygon id="Fill-5793" fill="#0437A0" mask="url(#mask-2)" points="-6 48 54 48 54 0 -6 0"></polygon>
                <path d="M23.7702128,4.34246809 L24.3931915,6.21548936 L26.3673191,6.22978723 L24.779234,7.40221277 L25.3756596,9.28340426 L23.7702128,8.13446809 L22.164766,9.28340426 L22.7611915,7.40221277 L21.1720851,6.22978723 L23.1462128,6.21548936 L23.7702128,4.34246809 Z M15.3569362,35.9091064 L15.9799149,37.7821277 L17.9540426,37.7954043 L16.3649362,38.9678298 L16.9613617,40.8500426 L15.3569362,39.7011064 L13.7504681,40.8500426 L14.3479149,38.9678298 L12.7588085,37.7954043 L14.7329362,37.7821277 L15.3569362,35.9091064 Z M9.16595745,29.7222128 L9.78893617,31.595234 L11.7651064,31.6085106 L10.1749787,32.7809362 L10.7714043,34.6621277 L9.16595745,33.5131915 L7.56051064,34.6621277 L8.15693617,32.7809362 L6.56885106,31.6085106 L8.54297872,31.595234 L9.16595745,29.7222128 Z M6.8772766,21.2558298 L7.50025532,23.1298723 L9.47438298,23.1441702 L7.88629787,24.3155745 L8.48374468,26.196766 L6.8772766,25.0478298 L5.27285106,26.196766 L5.8692766,24.3155745 L4.27914894,23.1441702 L6.25429787,23.1298723 L6.8772766,21.2558298 Z M9.16595745,12.7996596 L9.78893617,14.6726809 L11.7651064,14.6869787 L10.1749787,15.858383 L10.7714043,17.7405957 L9.16595745,16.5926809 L7.56051064,17.7405957 L8.15693617,15.858383 L6.56885106,14.6869787 L8.54297872,14.6726809 L9.16595745,12.7996596 Z M15.3508085,6.60561702 L15.9748085,8.4786383 L17.9489362,8.49293617 L16.3598298,9.66434043 L16.9562553,11.5465532 L15.3508085,10.397617 L13.7453617,11.5465532 L14.3428085,9.66434043 L12.7526809,8.49293617 L14.7278298,8.4786383 L15.3508085,6.60561702 Z M32.2396596,6.61685106 L32.8636596,8.48987234 L34.8377872,8.50417021 L33.2497021,9.67557447 L33.8451064,11.5577872 L32.2396596,10.4088511 L30.635234,11.5577872 L31.2306383,9.67557447 L29.6425532,8.50417021 L31.6166809,8.48987234 L32.2396596,6.61685106 Z M38.4071489,12.7884255 L39.0311489,14.6624681 L41.0052766,14.6757447 L39.4161702,15.8471489 L40.0125957,17.7293617 L38.4071489,16.5804255 L36.8017021,17.7293617 L37.3991489,15.8471489 L35.8110638,14.6757447 L37.7841702,14.6624681 L38.4071489,12.7884255 Z M40.6702979,21.245617 L41.2942979,23.1186383 L43.2684255,23.1319149 L41.6793191,24.3033191 L42.276766,26.1865532 L40.6702979,25.037617 L39.0648511,26.1865532 L39.6612766,24.3033191 L38.0721702,23.1319149 L40.0462979,23.1186383 L40.6702979,21.245617 Z M38.4234894,29.682383 L39.0464681,31.5554043 L41.0205957,31.5697021 L39.4314894,32.7411064 L40.0289362,34.6222979 L38.4234894,33.4733617 L36.8180426,34.6222979 L37.4144681,32.7411064 L35.8253617,31.5697021 L37.8005106,31.5554043 L38.4234894,29.682383 Z M32.2355745,35.8733617 L32.8585532,37.746383 L34.8326809,37.7606809 L33.2435745,38.9320851 L33.8410213,40.8142979 L32.2355745,39.6653617 L30.6301277,40.8142979 L31.2265532,38.9320851 L29.6374468,37.7606809 L31.6115745,37.746383 L32.2355745,35.8733617 Z M23.7702128,38.1528511 L24.3931915,40.0268936 L26.3673191,40.0411915 L24.779234,41.2125957 L25.3756596,43.0948085 L23.7702128,41.9448511 L22.164766,43.0948085 L22.7611915,41.2125957 L21.1720851,40.0411915 L23.1462128,40.0268936 L23.7702128,38.1528511 L23.7702128,38.1528511 Z" id="Fill-5795" fill="#FFDE27" mask="url(#mask-2)"></path>
            </g>
        </g>
    </g>
</svg>