<?xml version="1.0" encoding="UTF-8" standalone="no"?>
<svg width="48px" height="48px" viewBox="0 0 48 48" version="1.1" xmlns="http://www.w3.org/2000/svg" xmlns:xlink="http://www.w3.org/1999/xlink">
    <!-- Generator: Sketch 46.2 (44496) - http://www.bohemiancoding.com/sketch -->
    <title>usd</title>
    <desc>Created with Sketch.</desc>
    <defs>
        <path d="M48.00105,24.000525 C48.00105,37.2555179 37.2565679,48 24.000525,48 C10.7455321,48 0,37.2555179 0,24.000525 C0,10.7455321 10.7455321,0 24.000525,0 C37.2565679,0 48.00105,10.7455321 48.00105,24.000525 Z" id="path-1"></path>
    </defs>
    <g id="Page-1" stroke="none" stroke-width="1" fill="none" fill-rule="evenodd">
        <g id="usd">
            <g>
                <mask id="mask-2" fill="white">
                    <use xlink:href="#path-1"></use>
                </mask>
                <use id="Clip-10219" fill="#FFFFFF" xlink:href="#path-1"></use>
                <path d="M0,3.6927923 L48,3.6927923 L48,0 L0,0 L0,3.6927923 Z M0,48 L48,48 L48,44.3072077 L0,44.3072077 L0,48 Z M0,40.6165154 L48,40.6165154 L48,36.9237231 L0,36.9237231 L0,40.6165154 Z M0,33.2309308 L48,33.2309308 L48,29.5391885 L0,29.5391885 L0,33.2309308 Z M0,25.8463962 L48,25.8463962 L48,22.1546538 L0,22.1546538 L0,25.8463962 Z M0,18.4608115 L48,18.4608115 L48,14.7690692 L0,14.7690692 L0,18.4608115 Z M0,11.0762769 L48,11.0762769 L48,7.38453462 L0,7.38453462 L0,11.0762769 Z" id="Fill-10220" fill="#FF1612" mask="url(#mask-2)"></path>
                <polygon id="Fill-10221" fill="#0437A0" mask="url(#mask-2)" points="-8.8861084 25.8257446 27.1138916 25.8257446 27.1138916 -1.17425537 -8.8861084 -1.17425537"></polygon>
                <path d="M24.6147612,0.483831585 L24.9434568,1.53996577 L26.0119786,1.53671945 L25.1469351,2.18706437 L25.4787612,3.23995224 L24.6147612,2.5852789 L23.7518046,3.23995224 L24.0846742,2.18706437 L23.2175438,1.53671945 L24.285022,1.53996577 L24.6147612,0.483831585 Z M-5.60019535,11.1046892 L-5.27045622,12.1608233 L-4.20297796,12.1586591 L-5.06802144,12.8079219 L-4.73619535,13.8608098 L-5.60019535,13.2093828 L-6.46419535,13.8608098 L-6.13028231,12.8079219 L-6.99636927,12.1586591 L-5.92784753,12.1608233 L-5.60019535,11.1046892 Z M-2.57723883,13.7601741 L-2.24958666,14.8152261 L-1.18106492,14.814144 L-2.0461084,15.4634069 L-1.71532579,16.5152126 L-2.57723883,15.8637856 L-3.44019535,16.5152126 L-3.10836927,15.4634069 L-3.97445622,14.814144 L-2.90593449,14.8152261 L-2.57723883,13.7601741 Z M21.5938916,13.7601741 L21.9225873,14.8152261 L22.989022,14.814144 L22.1260655,15.4634069 L22.4568481,16.5152126 L21.5938916,15.8637856 L20.7298916,16.5152126 L21.0617177,15.4634069 L20.1977177,14.814144 L21.2662394,14.8152261 L21.5938916,13.7601741 Z M15.551109,13.7601741 L15.8787612,14.8152261 L16.9472829,14.814144 L16.0822394,15.4634069 L16.4140655,16.5152126 L15.551109,15.8637856 L14.687109,16.5152126 L15.0199786,15.4634069 L14.1538916,14.814144 L15.2224133,14.8152261 L15.551109,13.7601741 Z M9.50832638,13.7601741 L9.83597856,14.8152261 L10.9034568,14.814144 L10.0405003,15.4634069 L10.3712829,16.5152126 L9.50832638,15.8637856 L8.64328291,16.5152126 L8.97823943,15.4634069 L8.11006551,14.814144 L9.17858725,14.8152261 L9.50832638,13.7601741 Z M3.4645003,13.7601741 L3.79319595,14.8152261 L4.86171769,14.814144 L3.99667421,15.4634069 L4.32745682,16.5152126 L3.4645003,15.8637856 L2.60154378,16.5152126 L2.93336986,15.4634069 L2.06832638,14.814144 L3.1378916,14.8152261 L3.4645003,13.7601741 Z M0.443630732,11.1046892 L0.773369862,12.1608233 L1.83980465,12.1586591 L0.974761167,12.8079219 L1.30658725,13.8608098 L0.443630732,13.2093828 L-0.41932579,13.8608098 L-0.0864562245,12.8079219 L-0.954630138,12.1586591 L0.11493508,12.1608233 L0.443630732,11.1046892 Z M18.573022,11.1046892 L18.9017177,12.1608233 L19.9691959,12.1586591 L19.1041525,12.8079219 L19.4349351,13.8608098 L18.573022,13.2093828 L17.709022,13.8608098 L18.0418916,12.8079219 L17.1747612,12.1586591 L18.2443264,12.1608233 L18.573022,11.1046892 Z M24.6147612,11.1046892 L24.9434568,12.1608233 L26.0119786,12.1586591 L25.1469351,12.8079219 L25.4787612,13.8608098 L24.6147612,13.2093828 L23.7518046,13.8608098 L24.0846742,12.8079219 L23.2175438,12.1586591 L24.285022,12.1608233 L24.6147612,11.1046892 Z M24.6147612,16.4167411 L24.9434568,17.469629 L26.0119786,17.4685469 L25.1469351,18.1178097 L25.4787612,19.1717796 L24.6147612,18.5181884 L23.7518046,19.1717796 L24.0846742,18.1178097 L23.2175438,17.4685469 L24.285022,17.469629 L24.6147612,16.4167411 Z M18.573022,16.4167411 L18.9017177,17.469629 L19.9691959,17.4685469 L19.1041525,18.1178097 L19.4349351,19.1717796 L18.573022,18.5181884 L17.709022,19.1717796 L18.0418916,18.1178097 L17.1747612,17.4685469 L18.2443264,17.469629 L18.573022,16.4167411 Z M0.443630732,16.4167411 L0.773369862,17.469629 L1.83980465,17.4685469 L0.974761167,18.1178097 L1.30658725,19.1717796 L0.443630732,18.5181884 L-0.41932579,19.1717796 L-0.0864562245,18.1178097 L-0.954630138,17.4685469 L0.11493508,17.469629 L0.443630732,16.4167411 Z M-2.57723883,19.072226 L-2.24958666,20.126196 L-1.18106492,20.1240318 L-2.0461084,20.7732946 L-1.71532579,21.8261825 L-2.57723883,21.1747554 L-3.44019535,21.8261825 L-3.10836927,20.7732946 L-3.97445622,20.1240318 L-2.90593449,20.126196 L-2.57723883,19.072226 Z M21.5938916,19.072226 L21.9225873,20.126196 L22.989022,20.1240318 L22.1260655,20.7732946 L22.4568481,21.8261825 L21.5938916,21.1747554 L20.7298916,21.8261825 L21.0617177,20.7732946 L20.1977177,20.1240318 L21.2662394,20.126196 L21.5938916,19.072226 Z M15.551109,19.072226 L15.8787612,20.126196 L16.9472829,20.1240318 L16.0822394,20.7732946 L16.4140655,21.8261825 L15.551109,21.1747554 L14.687109,21.8261825 L15.0199786,20.7732946 L14.1538916,20.1240318 L15.2224133,20.126196 L15.551109,19.072226 Z M9.50832638,19.072226 L9.83597856,20.126196 L10.9034568,20.1240318 L10.0405003,20.7732946 L10.3712829,21.8261825 L9.50832638,21.1747554 L8.64328291,21.8261825 L8.97823943,20.7732946 L8.11006551,20.1240318 L9.17858725,20.126196 L9.50832638,19.072226 Z M3.4645003,19.072226 L3.79319595,20.126196 L4.86171769,20.1240318 L3.99667421,20.7732946 L4.32745682,21.8261825 L3.4645003,21.1747554 L2.60154378,21.8261825 L2.93336986,20.7732946 L2.06832638,20.1240318 L3.1378916,20.126196 L3.4645003,19.072226 Z M-5.60019535,16.4167411 L-5.27045622,17.469629 L-4.20297796,17.4685469 L-5.06802144,18.1178097 L-4.73619535,19.1717796 L-5.60019535,18.5181884 L-6.46419535,19.1717796 L-6.13028231,18.1178097 L-6.99636927,17.4685469 L-5.92784753,17.469629 L-5.60019535,16.4167411 Z M-5.60019535,21.7266288 L-5.27045622,22.782763 L-4.20297796,22.7784346 L-5.06802144,23.4298616 L-4.73619535,24.4838316 L-5.60019535,23.8280761 L-6.46419535,24.4838316 L-6.13028231,23.4298616 L-6.99636927,22.7784346 L-5.92784753,22.782763 L-5.60019535,21.7266288 Z M0.443630732,21.7266288 L0.773369862,22.782763 L1.83980465,22.7784346 L0.974761167,23.4298616 L1.30658725,24.4838316 L0.443630732,23.8280761 L-0.41932579,24.4838316 L-0.0864562245,23.4298616 L-0.954630138,22.7784346 L0.11493508,22.782763 L0.443630732,21.7266288 Z M18.573022,21.7266288 L18.9017177,22.782763 L19.9691959,22.7784346 L19.1041525,23.4298616 L19.4349351,24.4838316 L18.573022,23.8280761 L17.709022,24.4838316 L18.0418916,23.4298616 L17.1747612,22.7784346 L18.2443264,22.782763 L18.573022,21.7266288 Z M24.6147612,21.7266288 L24.9434568,22.782763 L26.0119786,22.7784346 L25.1469351,23.4298616 L25.4787612,24.4838316 L24.6147612,23.8280761 L23.7518046,24.4838316 L24.0846742,23.4298616 L23.2175438,22.7784346 L24.285022,22.782763 L24.6147612,21.7266288 Z M-2.57723883,8.44920424 L-2.24958666,9.50533842 L-1.18106492,9.50317421 L-2.0461084,10.152437 L-1.71532579,11.206407 L-2.57723883,10.5538979 L-3.44019535,11.206407 L-3.10836927,10.152437 L-3.97445622,9.50317421 L-2.90593449,9.50533842 L-2.57723883,8.44920424 Z M-2.57723883,3.1393165 L-2.24958666,4.19436858 L-1.18106492,4.19112227 L-2.0461084,4.84254929 L-1.71532579,5.89435505 L-2.57723883,5.24076382 L-3.44019535,5.89435505 L-3.10836927,4.84254929 L-3.97445622,4.19112227 L-2.90593449,4.19436858 L-2.57723883,3.1393165 Z M21.5938916,3.1393165 L21.9225873,4.19436858 L22.989022,4.19112227 L22.1260655,4.84254929 L22.4568481,5.89435505 L21.5938916,5.24076382 L20.7298916,5.89435505 L21.0617177,4.84254929 L20.1977177,4.19112227 L21.2662394,4.19436858 L21.5938916,3.1393165 Z M15.551109,3.1393165 L15.8787612,4.19436858 L16.9472829,4.19112227 L16.0822394,4.84254929 L16.4140655,5.89435505 L15.551109,5.24076382 L14.687109,5.89435505 L15.0199786,4.84254929 L14.1538916,4.19112227 L15.2224133,4.19436858 L15.551109,3.1393165 Z M9.50832638,3.1393165 L9.83597856,4.19436858 L10.9034568,4.19112227 L10.0405003,4.84254929 L10.3712829,5.89435505 L9.50832638,5.24076382 L8.64328291,5.89435505 L8.97823943,4.84254929 L8.11006551,4.19112227 L9.17858725,4.19436858 L9.50832638,3.1393165 Z M3.4645003,3.1393165 L3.79319595,4.19436858 L4.86171769,4.19112227 L3.99667421,4.84254929 L4.32745682,5.89435505 L3.4645003,5.24076382 L2.60154378,5.89435505 L2.93336986,4.84254929 L2.06832638,4.19112227 L3.1378916,4.19436858 L3.4645003,3.1393165 Z M-5.60019535,5.79480142 L-5.27045622,6.8498535 L-4.20297796,6.84877139 L-5.06802144,7.4969521 L-4.73619535,8.55092208 L-5.60019535,7.89733084 L-6.46419535,8.55092208 L-6.13028231,7.4969521 L-6.99636927,6.84877139 L-5.92784753,6.8498535 L-5.60019535,5.79480142 Z M21.5938916,8.44920424 L21.9225873,9.50533842 L22.989022,9.50317421 L22.1260655,10.152437 L22.4568481,11.206407 L21.5938916,10.5538979 L20.7298916,11.206407 L21.0617177,10.152437 L20.1977177,9.50317421 L21.2662394,9.50533842 L21.5938916,8.44920424 Z M15.551109,8.44920424 L15.8787612,9.50533842 L16.9472829,9.50317421 L16.0822394,10.152437 L16.4140655,11.206407 L15.551109,10.5538979 L14.687109,11.206407 L15.0199786,10.152437 L14.1538916,9.50317421 L15.2224133,9.50533842 L15.551109,8.44920424 Z M9.50832638,8.44920424 L9.83597856,9.50533842 L10.9034568,9.50317421 L10.0405003,10.152437 L10.3712829,11.206407 L9.50832638,10.5538979 L8.64328291,11.206407 L8.97823943,10.152437 L8.11006551,9.50317421 L9.17858725,9.50533842 L9.50832638,8.44920424 Z M3.4645003,8.44920424 L3.79319595,9.50533842 L4.86171769,9.50317421 L3.99667421,10.152437 L4.32745682,11.206407 L3.4645003,10.5538979 L2.60154378,11.206407 L2.93336986,10.152437 L2.06832638,9.50317421 L3.1378916,9.50533842 L3.4645003,8.44920424 Z M0.443630732,5.79480142 L0.773369862,6.8498535 L1.83980465,6.84877139 L0.974761167,7.4969521 L1.30658725,8.55092208 L0.443630732,7.89733084 L-0.41932579,8.55092208 L-0.0864562245,7.4969521 L-0.954630138,6.84877139 L0.11493508,6.8498535 L0.443630732,5.79480142 Z M0.443630732,0.483831585 L0.773369862,1.53996577 L1.83980465,1.53671945 L0.974761167,2.18706437 L1.30658725,3.23995224 L0.443630732,2.5852789 L-0.41932579,3.23995224 L-0.0864562245,2.18706437 L-0.954630138,1.53671945 L0.11493508,1.53996577 L0.443630732,0.483831585 Z M-5.60019535,0.483831585 L-5.27045622,1.53996577 L-4.20297796,1.53671945 L-5.06802144,2.18706437 L-4.73619535,3.23995224 L-5.60019535,2.5852789 L-6.46419535,3.23995224 L-6.13028231,2.18706437 L-6.99636927,1.53671945 L-5.92784753,1.53996577 L-5.60019535,0.483831585 Z M6.48641334,21.7266288 L6.81510899,22.782763 L7.88154378,22.7784346 L7.01858725,23.4298616 L7.34936986,24.4838316 L6.48641334,23.8280761 L5.62345682,24.4838316 L5.95528291,23.4298616 L5.08919595,22.7784346 L6.15876117,22.782763 L6.48641334,21.7266288 Z M6.48641334,16.4167411 L6.81510899,17.469629 L7.88154378,17.4685469 L7.01858725,18.1178097 L7.34936986,19.1717796 L6.48641334,18.5181884 L5.62345682,19.1717796 L5.95528291,18.1178097 L5.08919595,17.4685469 L6.15876117,17.469629 L6.48641334,16.4167411 Z M6.48641334,11.1046892 L6.81510899,12.1608233 L7.88154378,12.1586591 L7.01858725,12.8079219 L7.34936986,13.8608098 L6.48641334,13.2093828 L5.62345682,13.8608098 L5.95528291,12.8079219 L5.08919595,12.1586591 L6.15876117,12.1608233 L6.48641334,11.1046892 Z M6.48641334,5.79480142 L6.81510899,6.8498535 L7.88154378,6.84877139 L7.01858725,7.4969521 L7.34936986,8.55092208 L6.48641334,7.89733084 L5.62345682,8.55092208 L5.95528291,7.4969521 L5.08919595,6.84877139 L6.15876117,6.8498535 L6.48641334,5.79480142 Z M6.48641334,0.483831585 L6.81510899,1.53996577 L7.88154378,1.53671945 L7.01858725,2.18706437 L7.34936986,3.23995224 L6.48641334,2.5852789 L5.62345682,3.23995224 L5.95528291,2.18706437 L5.08919595,1.53671945 L6.15876117,1.53996577 L6.48641334,0.483831585 Z M12.5291959,21.7266288 L12.8578916,22.782763 L13.9274568,22.7784346 L13.0603264,23.4298616 L13.3931959,24.4838316 L12.5291959,23.8280761 L11.6662394,24.4838316 L11.9980655,23.4298616 L11.133022,22.7784346 L12.2025873,22.782763 L12.5291959,21.7266288 Z M12.5291959,16.4167411 L12.8578916,17.469629 L13.9274568,17.4685469 L13.0603264,18.1178097 L13.3931959,19.1717796 L12.5291959,18.5181884 L11.6662394,19.1717796 L11.9980655,18.1178097 L11.133022,17.4685469 L12.2025873,17.469629 L12.5291959,16.4167411 Z M12.5291959,11.1046892 L12.8578916,12.1608233 L13.9274568,12.1586591 L13.0603264,12.8079219 L13.3931959,13.8608098 L12.5291959,13.2093828 L11.6662394,13.8608098 L11.9980655,12.8079219 L11.133022,12.1586591 L12.2025873,12.1608233 L12.5291959,11.1046892 Z M12.5291959,5.79480142 L12.8578916,6.8498535 L13.9274568,6.84877139 L13.0603264,7.4969521 L13.3931959,8.55092208 L12.5291959,7.89733084 L11.6662394,8.55092208 L11.9980655,7.4969521 L11.133022,6.84877139 L12.2025873,6.8498535 L12.5291959,5.79480142 Z M12.5291959,0.483831585 L12.8578916,1.53996577 L13.9274568,1.53671945 L13.0603264,2.18706437 L13.3931959,3.23995224 L12.5291959,2.5852789 L11.6662394,3.23995224 L11.9980655,2.18706437 L11.133022,1.53671945 L12.2025873,1.53996577 L12.5291959,0.483831585 Z M18.573022,5.79480142 L18.9017177,6.8498535 L19.9691959,6.84877139 L19.1041525,7.4969521 L19.4349351,8.55092208 L18.573022,7.89733084 L17.709022,8.55092208 L18.0418916,7.4969521 L17.1747612,6.84877139 L18.2443264,6.8498535 L18.573022,5.79480142 Z M18.573022,0.483831585 L18.9017177,1.53996577 L19.9691959,1.53671945 L19.1041525,2.18706437 L19.4349351,3.23995224 L18.573022,2.5852789 L17.709022,3.23995224 L18.0418916,2.18706437 L17.1747612,1.53671945 L18.2443264,1.53996577 L18.573022,0.483831585 Z M24.6147612,5.79480142 L24.9434568,6.8498535 L26.0119786,6.84877139 L25.1469351,7.4969521 L25.4787612,8.55092208 L24.6147612,7.89733084 L23.7518046,8.55092208 L24.0846742,7.4969521 L23.2175438,6.84877139 L24.285022,6.8498535 L24.6147612,5.79480142 L24.6147612,5.79480142 Z" id="Fill-10222" fill="#F4F4F4" mask="url(#mask-2)"></path>
            </g>
        </g>
    </g>
</svg>