<?xml version="1.0" encoding="UTF-8" standalone="no"?>
<svg width="32px" height="32px" viewBox="0 0 32 32" version="1.1" xmlns="http://www.w3.org/2000/svg" xmlns:xlink="http://www.w3.org/1999/xlink">
    <!-- Generator: Sketch 49.2 (51160) - http://www.bohemiancoding.com/sketch -->
    <title>euro</title>
    <desc>Created with Sketch.</desc>
    <defs></defs>
    <g id="Page-1" stroke="none" stroke-width="1" fill="none" fill-rule="evenodd">
        <g id="euro">
            <rect id="Rectangle-3-Copy-7" fill="#6B758E" x="0" y="0" width="32" height="32" rx="16"></rect>
            <path d="M19.0065,20.57975 C18.3555,21.02425 17.638,21.25 16.875,21.25 C15.26325,21.25 13.86675,20.186 13.109,18.625 L16,18.625 C16.483,18.625 16.875,18.233 16.875,17.75 C16.875,17.267 16.483,16.875 16,16.875 L12.5735,16.875 C12.53325,16.58975 12.5,16.29925 12.5,16 C12.5,15.70075 12.53325,15.41025 12.5735,15.125 L16.875,15.125 C17.358,15.125 17.75,14.733 17.75,14.25 C17.75,13.767 17.358,13.375 16.875,13.375 L13.109,13.375 C13.86675,11.814 15.26325,10.75 16.875,10.75 C17.638,10.75 18.3555,10.97575 19.0065,11.42025 C19.4055,11.6915 19.9515,11.59175 20.22275,11.191 C20.49575,10.792 20.3925,10.24775 19.9935,9.97475 C19.059,9.33775 17.981,9 16.875,9 C14.31125,9 12.11675,10.81475 11.205,13.375 L9.875,13.375 C9.392,13.375 9,13.767 9,14.25 C9,14.733 9.392,15.125 9.875,15.125 L10.827,15.125 C10.7955,15.4155 10.75,15.70075 10.75,16 C10.75,16.29925 10.7955,16.5845 10.827,16.875 L9.875,16.875 C9.392,16.875 9,17.267 9,17.75 C9,18.233 9.392,18.625 9.875,18.625 L11.205,18.625 C12.11675,21.18525 14.31125,23 16.875,23 C17.981,23 19.059,22.66225 19.9935,22.02525 C20.3925,21.75225 20.49575,21.208 20.22275,20.809 C19.9515,20.41 19.4055,20.3085 19.0065,20.57975 Z" id="Shape" fill="#FFFFFF" fill-rule="nonzero"></path>
        </g>
    </g>
</svg>