<?xml version="1.0" encoding="UTF-8" standalone="no"?>
<svg width="32px" height="32px" viewBox="0 0 32 32" version="1.1" xmlns="http://www.w3.org/2000/svg" xmlns:xlink="http://www.w3.org/1999/xlink">
    <!-- Generator: Sketch 49.2 (51160) - http://www.bohemiancoding.com/sketch -->
    <title>pound</title>
    <desc>Created with Sketch.</desc>
    <defs></defs>
    <g id="Page-1" stroke="none" stroke-width="1" fill="none" fill-rule="evenodd">
        <g id="pound">
            <rect id="Rectangle-3-Copy-9" fill="#6B758E" x="0" y="0" width="32" height="32" rx="16"></rect>
            <path d="M19.4136292,21.2498793 L15.7646275,21.2498793 C15.8608841,20.9768604 15.9133877,20.68109 15.9133877,20.3748189 L15.9133877,15.9995171 L18.5385688,15.9995171 C19.0216021,15.9995171 19.4136292,15.6074901 19.4136292,15.1244568 C19.4136292,14.6414234 19.0216021,14.2493964 18.5385688,14.2493964 L15.9133877,14.2493964 L15.9133877,12.677788 C15.9133877,11.6872197 16.6046854,10.8454116 17.4849961,10.7579056 C17.9872808,10.7036518 18.4598134,10.866413 18.8203383,11.198936 C19.1738626,11.5262086 19.7286509,11.5052071 20.0576736,11.1499326 C20.3866963,10.7946581 20.3639447,10.2398698 20.0086702,9.91259725 C19.2858704,9.24755138 18.309303,8.9202788 17.3152344,9.01653544 C15.5476125,9.18804727 14.163267,10.7964082 14.163267,12.677788 L14.163267,14.2493964 L12.4131463,14.2493964 C11.930113,14.2493964 11.5380859,14.6414234 11.5380859,15.1244568 C11.5380859,15.6074901 11.930113,15.9995171 12.4131463,15.9995171 L14.163267,15.9995171 L14.163267,20.3748189 C14.163267,20.8578522 13.77124,21.2498793 13.2882067,21.2498793 C12.8051733,21.2498793 12.4131463,21.6419063 12.4131463,22.1249396 C12.4131463,22.607973 12.8051733,23 13.2882067,23 L19.4136292,23 C19.8966625,23 20.2886895,22.607973 20.2886895,22.1249396 C20.2886895,21.6419063 19.8966625,21.2498793 19.4136292,21.2498793 Z" id="Shape" fill="#FFFFFF" fill-rule="nonzero"></path>
        </g>
    </g>
</svg>