<?xml version="1.0" encoding="UTF-8" standalone="no"?>
<svg width="80px" height="80px" viewBox="0 0 80 80" version="1.1" xmlns="http://www.w3.org/2000/svg" xmlns:xlink="http://www.w3.org/1999/xlink">
    <!-- Generator: Sketch 49.2 (51160) - http://www.bohemiancoding.com/sketch -->
    <title>astropay_r</title>
    <desc>Created with Sketch.</desc>
    <defs></defs>
    <g id="Page-1" stroke="none" stroke-width="1" fill="none" fill-rule="evenodd">
        <g id="m7-withdraw-balance-0-1366" transform="translate(-193.000000, -1087.000000)">
            <g id="astropay_r" transform="translate(193.000000, 1087.000000)">
                <g id="Group-8-Copy-22" fill="#F0F2F5">
                    <rect id="Mask" x="0" y="0" width="80" height="80" rx="40"></rect>
                </g>
                <g id="Group-11" transform="translate(24.000000, 21.000000)" fill-rule="nonzero">
                    <path d="M0.00221075903,4.86152569 C0.00221075903,4.86152569 4.15765516,2.09122942 10.1830495,1.19088313 C23.6882438,-0.886839066 31.3065586,2.64528868 31.3065586,2.64528868 L29.159579,3.19934793 C29.159579,3.19934793 24,2 17.6628495,2.29900164 C6.80530659,2.81128601 1.4566163,9.1554849 1.4566163,9.1554849 L0.00221075903,4.86152569 Z" id="Shape" fill="#F02E24"></path>
                    <path d="M9.94183154,28.4243392 L6.67207677,38.2336035 L2.47826087,38.2336035 L13.0694231,7.09985161 L17.9029736,7.09985161 L28.5652174,38.2336035 L24.3003199,38.2336035 L20.9594835,28.4243392 L9.94183154,28.4243392 Z M20.1775856,25.2256661 L17.1210757,16.2693813 C16.4102594,14.2080142 15.9837697,12.3598919 15.4861983,10.5828513 L15.4151167,10.5828513 C14.9886269,12.4309735 14.4199739,14.3501774 13.8513209,16.1982997 L10.794811,25.2256661 L20.1775856,25.2256661 Z" id="Shape" fill="#000000"></path>
                </g>
            </g>
        </g>
    </g>
</svg>