<?xml version="1.0" encoding="UTF-8"?>
<svg width="80px" height="80px" viewBox="0 0 80 80" version="1.1" xmlns="http://www.w3.org/2000/svg" xmlns:xlink="http://www.w3.org/1999/xlink">
    <!-- Generator: Sketch 51.3 (57544) - http://www.bohemiancoding.com/sketch -->
    <title>Group 8 Copy 18</title>
    <desc>Created with Sketch.</desc>
    <defs></defs>
    <g id="Page-1" stroke="none" stroke-width="1" fill="none" fill-rule="evenodd">
        <g id="m7-withdraw-balance-0-1366-copy" transform="translate(-743.000000, -417.000000)">
            <g id="Group-8-Copy-18" transform="translate(743.000000, 417.000000)">
                <rect id="Mask" fill="#F0F2F5" x="0" y="0" width="80" height="80" rx="40"></rect>
                <g id="Group-28" transform="translate(25.000000, 20.000000)" fill="#1F4396" fill-rule="nonzero">
                    <path d="M29.6698333,21.3670882 C29.3033039,19.9811078 28.7732157,18.9550882 27.9179804,17.3878137 C27.6388137,16.9431176 27.2781961,16.4465294 26.9563333,15.9197255 C23.2378333,10.4060196 15.9013333,0.783637255 15.2300196,0.165529412 C15.2300196,0.165529412 15.1840392,0.130058824 15.146598,0.130058824 C15.1045588,0.130058824 15.0579216,0.165529412 15.0579216,0.165529412 C14.390549,0.782980392 7.05207843,10.4060196 3.33226471,15.9197255 C3.01105882,16.4471863 2.65044118,16.9437745 2.36864706,17.3878137 C1.51472549,18.9550882 0.986607843,19.9811078 0.618107843,21.3670882 C0.162245098,23.368549 0.139254902,25.857402 0.553735294,27.9035294 C0.928147059,29.6993922 2.63467647,31.5340098 4.35105882,32.9042255 L6.97785294,34.9904216 C6.97785294,34.9904216 14.3196078,40.2840784 15.0014314,40.6184216 C15.0014314,40.6184216 15.0690882,40.6630882 15.1459412,40.6630882 C15.2208235,40.6630882 15.2858529,40.6184216 15.2858529,40.6184216 C15.9703039,40.2834216 23.3074608,34.9904216 23.3074608,34.9904216 L25.9342549,32.9042255 C27.6526078,31.5340098 29.3571667,29.6993922 29.7309216,27.9035294 C30.1460588,25.857402 30.1270098,23.368549 29.6698333,21.3670882 M12.844951,35.1743431 C12.7930588,35.2531667 12.6741667,35.2282059 12.5887745,35.2203235 C12.1598431,34.9188235 11.0963824,34.1489804 11.0963824,34.1489804 C9.26833333,32.7938725 7.42451961,31.5432059 5.6720098,30.15 C2.98281373,27.1901765 3.25541176,24.2369216 4.07977451,21.2692157 C4.10933333,21.0780686 4.1980098,20.7883922 4.45090196,20.7365 C5.20892157,21.8551373 6.81692157,24.1594118 6.81692157,24.1594118 C8.38156863,26.4085098 10.2818725,28.4355882 12.0783922,30.547402 C13.3119804,31.6804902 12.8134216,33.5834216 12.844951,35.1743431 M15.1485686,29.3059314 C15.1117843,29.3046176 15.0526667,29.2796569 14.9968333,29.2218529 C12.6695686,26.4656569 10.0296373,23.3495 7.71353922,20.5821373 C7.29446078,19.8806078 6.8675,19.2066667 6.81954902,18.3028235 C6.79196078,17.5973529 6.74795098,16.9477157 7.33190196,16.0635784 C7.33190196,16.0635784 7.71748039,15.5032745 7.82783333,15.338402 C7.82783333,15.338402 12.5730098,8.66533333 15.0717157,5.50319608 C15.0717157,5.50319608 15.1045588,5.45984314 15.146598,5.45984314 C15.1820686,5.45984314 15.213598,5.50319608 15.213598,5.50319608 C17.7123039,8.66467647 22.4561667,15.338402 22.4561667,15.338402 C22.5684902,15.5032745 22.9547255,16.0635784 22.9547255,16.0635784 C23.5367059,16.9483725 23.4926961,17.5973529 23.4618235,18.3028235 C23.4158431,19.2066667 22.9869118,19.879951 22.5704608,20.5821373 C20.253049,23.3495 17.6144314,26.4656569 15.2891373,29.2218529 C15.2333039,29.2796569 15.1774706,29.3046176 15.1485686,29.3059314 M24.6014804,30.15 C22.8489706,31.5432059 21.0025294,32.7932157 19.1738235,34.1489804 C19.1738235,34.1489804 18.1123333,34.9188235 17.6820882,35.2203235 C17.5966961,35.2282059 17.4778039,35.2531667 17.4278824,35.1743431 C17.4600686,33.5834216 16.9601961,31.6811471 18.195098,30.5480588 C19.9916176,28.4362451 21.8906078,26.4091667 23.454598,24.1600686 C23.454598,24.1600686 25.062598,21.8557941 25.8212745,20.7371569 C26.0702255,20.7883922 26.1608725,21.0787255 26.1910882,21.2698725 C27.0193922,24.2369216 27.2893627,27.1908333 24.6014804,30.15" id="Shape"></path>
                </g>
            </g>
        </g>
    </g>
</svg>