<?xml version="1.0" encoding="UTF-8"?>
<svg width="80px" height="80px" viewBox="0 0 80 80" version="1.1" xmlns="http://www.w3.org/2000/svg" xmlns:xlink="http://www.w3.org/1999/xlink">
    <!-- Generator: Sketch 51.3 (57544) - http://www.bohemiancoding.com/sketch -->
    <title>Group 8 Copy 16</title>
    <desc>Created with Sketch.</desc>
    <defs></defs>
    <g id="Page-1" stroke="none" stroke-width="1" fill="none" fill-rule="evenodd">
        <g id="m7-withdraw-balance-0-1366-copy" transform="translate(-523.000000, -417.000000)">
            <g id="Group-8-Copy-16" transform="translate(523.000000, 417.000000)">
                <rect id="Mask" fill="#F0F2F5" x="0" y="0" width="80" height="80" rx="40"></rect>
                <g id="Group-22" transform="translate(13.000000, 22.000000)" fill-rule="nonzero">
                    <path d="M16.675266,1.17714832 C22.406266,-0.254226683 28.437016,-0.335351683 34.242266,0.690398317 C33.578141,0.657398317 32.920891,0.562523317 32.259516,0.503398317 C28.318766,0.129398317 24.316141,0.324648317 20.444141,1.16339832 C16.247641,2.08189832 12.132266,3.75389832 8.81026597,6.52727332 C6.77939097,8.23227332 5.06889097,10.4020233 4.22189097,12.9388983 C3.61414097,14.7470233 3.46839097,16.7077733 3.83001597,18.5818983 C4.32501597,21.2521483 5.75501597,23.6762733 7.59476597,25.6425233 C10.901641,29.1762733 15.344266,31.4518983 19.934016,32.8378983 C25.832766,34.5786483 32.142641,34.9196483 38.195391,33.8278983 C42.453766,33.0331483 46.650266,31.4931483 50.126266,28.8586483 C52.161266,27.3268983 53.878641,25.3606483 54.999266,23.0643983 C54.306266,24.9742733 53.093516,26.6572733 51.688266,28.1065233 C50.014891,29.7895233 48.041766,31.1603983 45.929766,32.2342733 C41.302891,34.6047733 36.104016,35.6758983 30.936766,35.9013983 L27.602391,35.9013983 C24.301016,35.7432733 21.006516,35.2798983 17.822016,34.3806483 C13.662641,33.2063983 9.63526597,31.3652733 6.27201597,28.6193983 C4.24939097,26.9542733 2.46326597,24.9453983 1.31376597,22.5762733 C0.0542659726,20.0490233 -0.352734027,17.0817733 0.325140973,14.3276483 C1.03051597,11.3425233 2.92251597,8.76989832 5.21326597,6.78852332 C8.48989097,3.99589832 12.526891,2.22214832 16.675266,1.17714832 Z" id="Shape" fill="#C70B46"></path>
                    <path d="M29.563875,8.90785579 C29.98325,8.74560579 30.446625,8.82260579 30.886625,8.80748079 C32.175,8.84048079 33.46475,8.91060579 34.753125,8.83223079 C35.415875,8.82260579 36.089625,8.74560579 36.7455,8.87073079 C36.795,8.99998079 36.773,9.11273079 36.68225,9.21035579 C36.2175,9.29973079 35.721125,9.25985579 35.283875,9.46335579 C34.835625,9.70398079 34.799875,10.2759808 34.761375,10.7242308 C34.67475,14.2566058 34.714625,17.7917308 34.7105,21.3254808 C34.79025,22.7224808 34.662375,24.1291058 34.857625,25.5192308 C34.907125,25.9606058 35.245375,26.3483558 35.701875,26.3882308 C36.26975,26.5546058 36.95175,26.3483558 37.448125,26.6879808 C37.3945,26.7498558 37.28725,26.8736058 37.233625,26.9354808 C36.172125,27.0083558 35.105125,26.9341058 34.04225,26.9162308 C32.668625,26.8323558 31.295,27.0179808 29.92275,26.9492308 C29.69175,26.9794808 29.654625,26.7209808 29.5625,26.5766058 C30.07125,26.4886058 30.608875,26.5216058 31.09425,26.3263558 C31.420125,26.1544808 31.49575,25.7543558 31.552125,25.4229808 C31.728125,23.9709808 31.675875,22.5038558 31.68275,21.0449808 C31.68,17.7876058 31.689625,14.5288558 31.678625,11.2714808 C31.631875,10.6898558 31.695125,9.99823079 31.244125,9.55548079 C30.77525,9.21723079 30.160625,9.31210579 29.623,9.20348079 C29.607875,9.13060579 29.579,8.98210579 29.563875,8.90785579 Z" id="Shape" fill="#5F6062"></path>
                    <path d="M13.75,8.8188152 C14.806,8.7954402 15.862,8.8078152 16.916625,8.8531902 C18.634,8.9384402 20.362375,8.6524402 22.072875,8.9109402 C23.21275,9.0951902 24.398,9.5723152 25.0745,10.5568152 C25.719375,11.4725652 25.7675,12.6894402 25.447125,13.7344402 C25.089625,14.9279402 24.17525,15.8381902 23.227875,16.5944402 C25.003,17.2475652 26.72725,18.4836902 27.341875,20.3468152 C27.874,21.9871902 27.440875,23.9011902 26.24325,25.1428152 C25.35225,26.1025652 24.102375,26.6621902 22.829125,26.8890652 C21.278125,27.1736902 19.701,26.9426902 18.140375,26.9014402 C16.900125,26.8381902 15.6585,26.9894402 14.41825,26.9468152 C14.19275,26.9701902 14.13225,26.7089402 14.01675,26.5755652 C14.47325,26.5040652 14.94075,26.5013152 15.389,26.3844402 C15.778125,26.2936902 15.89775,25.8578152 15.97475,25.5195652 C16.141125,24.5873152 16.141125,23.6358152 16.157625,22.6911902 C16.15075,18.8906902 16.1645,15.0888152 16.15075,11.2883152 C16.105375,10.7383152 16.17275,10.0948152 15.78225,9.6520652 C15.2185,9.1804402 14.425125,9.3179402 13.75,9.1928152 L13.75,8.8188152 Z M19.12625,9.8968152 C19.02725,10.9514402 19.09875,12.0129402 19.078125,13.0703152 C19.107,14.1675652 19.017625,15.2703152 19.122125,16.3620652 C19.80825,16.5738152 20.554875,16.5215652 21.2575,16.4253152 C22.16225,16.2795652 22.768625,15.4298152 22.957,14.5814402 C23.288375,13.1266902 22.91575,11.4271902 21.7635,10.4193152 C21.0485,9.7923152 20.0255,9.7043152 19.12625,9.8968152 Z M19.1015,17.5046902 C19.052,19.5534402 19.085,21.6035652 19.08225,23.6523152 C19.130375,24.2270652 19.045125,24.9021902 19.4645,25.3641902 C19.941625,25.7546902 20.58375,25.8495652 21.179125,25.9128152 C22.1815,26.0076902 23.296625,25.7244402 23.94425,24.9063152 C24.6125,24.0593152 24.652375,22.9001902 24.48875,21.8771902 C24.27425,20.3481902 23.43825,18.8741902 22.119625,18.0395652 C21.225875,17.4675652 20.117625,17.5253152 19.1015,17.5046902 Z" id="Shape" fill="#5F6062"></path>
                </g>
            </g>
        </g>
    </g>
</svg>