<?xml version="1.0" encoding="UTF-8"?>
<svg width="80px" height="80px" viewBox="0 0 80 80" version="1.1" xmlns="http://www.w3.org/2000/svg" xmlns:xlink="http://www.w3.org/1999/xlink">
    <!-- Generator: Sketch 51.3 (57544) - http://www.bohemiancoding.com/sketch -->
    <title>Group 8 Copy 5</title>
    <desc>Created with Sketch.</desc>
    <defs></defs>
    <g id="Page-1" stroke="none" stroke-width="1" fill="none" fill-rule="evenodd">
        <g id="m7-withdraw-balance-0-1366-copy" transform="translate(-303.000000, -307.000000)">
            <g id="Group-8-Copy-5" transform="translate(303.000000, 307.000000)">
                <rect id="Mask" fill="#F0F2F5" x="0" y="0" width="80" height="80" rx="40"></rect>
                <g id="Group-14" transform="translate(22.000000, 22.000000)" fill="#F15A23">
                    <polygon id="path3242" points="0.47896154 13.2955611 11.2717083 26.9101881 0.47896154 35.8535268"></polygon>
                    <polygon id="path3244" points="4.82267467 35.8535268 12.9436802 29.059865 18.5567265 35.8535268"></polygon>
                    <path d="M0.47896154,6.0105437 L3.29546813,9.57330859 L14.8758762,24.0439494 L18.6283732,21.0557729 C18.6283732,21.0557729 15.5131296,17.388195 13.4213852,13.2955611 C9.33177875,5.29398572 12.22712,0.312190867 12.22712,0.312190867 L0.47896154,0.312190867 L0.47896154,6.0105437 Z" id="path3248"></path>
                    <path d="M16.526476,26.2778543 L20.348124,23.1212226 C20.348124,23.1212226 23.9980679,27.9258483 28.2302775,29.059865 C33.7763181,30.5459228 36.2318544,26.9101881 36.2318544,26.9101881 L36.2318544,35.8535268 L24.0503479,35.8535268 L26.7971585,33.4786452 C26.7971585,33.4786452 25.3640403,34.4340576 21.8590643,32.0062971 C19.7903715,30.5733915 16.526476,26.2778543 16.526476,26.2778543 Z" id="path3250"></path>
                    <path d="M16.8778178,0.286131756 C16.8778178,0.286131756 15.6586559,1.9469397 16.526476,6.0105437 C17.4540573,10.3539819 21.1430559,14.9510258 21.1344792,14.848108 C21.1344792,14.848108 21.3716489,10.2834494 24.0503479,7.60475042 C29.7600281,1.89506993 36.2318544,5.29398572 36.2318544,5.29398572 L36.2318544,0.312190867 L16.8778178,0.286131756 Z" id="path3262"></path>
                    <path d="M36.2318544,11.3131645 C36.2318544,11.3131645 32.6210686,8.22034118 29.4818209,8.22034118 C25.4660476,8.22034118 23.2740744,11.6873018 23.2740744,14.2022106 C23.2740744,17.8653579 25.0323521,19.9007878 26.7971585,21.6655942 C29.3332956,24.2017328 32.4186932,26.937033 36.2318544,24.7355037 C36.2318544,20.5688472 36.2318544,11.3131645 36.2318544,11.3131645 Z" id="path3298"></path>
                </g>
            </g>
        </g>
    </g>
</svg>