<?xml version="1.0" encoding="UTF-8"?>
<svg width="80px" height="80px" viewBox="0 0 80 80" version="1.1" xmlns="http://www.w3.org/2000/svg" xmlns:xlink="http://www.w3.org/1999/xlink">
    <!-- Generator: Sketch 52.2 (67145) - http://www.bohemiancoding.com/sketch -->
    <title>bri</title>
    <desc>Created with Sketch.</desc>
    <g id="Page-1" stroke="none" stroke-width="1" fill="none" fill-rule="evenodd">
        <g id="m7-withdraw-balance-0-1366-copy" transform="translate(-853.000000, -637.000000)">
            <g id="bri" transform="translate(853.000000, 637.000000)">
                <rect id="Mask" fill="#F0F2F5" x="0" y="0" width="80" height="80" rx="40"></rect>
                <g id="g246" transform="translate(40.312500, 40.312500) scale(-1, 1) rotate(-180.000000) translate(-40.312500, -40.312500) translate(20.000000, 20.000000)" fill="#00529C" fill-rule="nonzero">
                    <path d="M34.1927083,40.625 L6.31210937,40.625 C2.92669271,40.625 0.1828125,37.8134115 0.1828125,34.3450521 L0.1828125,34.2790365 L0.1828125,6.73359375 C0.1828125,3.29908854 2.87591146,0.506119792 6.21731771,0.455338542 L34.177474,0.455338542 C37.5628906,0.455338542 40.3084635,3.26523438 40.3084635,6.73359375 L40.3203125,34.3450521 C40.3203125,37.8134115 37.578125,40.625 34.1927083,40.625 Z M9.62473958,3.67317708 L8.1046875,3.65625 C6.26302083,3.65625 4.77005208,5.16953125 4.77005208,7.03658854 L4.76158854,7.30234375 L4.76158854,32.8013021 L4.77174479,34.1757812 C4.84114583,35.981901 6.21393229,37.4342448 8.00989583,37.4342448 L11.102474,37.4342448 C13.905599,37.4342448 16.1772135,34.9967448 16.1772135,32.1242187 C16.1772135,30.7023437 15.6203125,29.4125 14.718099,28.4747396 L6.82838542,20.4682292 L14.2238281,12.9373698 C15.1768229,11.9539063 15.7523437,10.6640625 15.7523437,9.25065104 C15.7523437,6.16992187 13.0101562,3.67317708 9.62473958,3.67317708 Z M32.3595052,3.69856771 L18.5723958,3.70364583 C18.5723958,3.70364583 20.1652344,7.14830729 20.1652344,9.28111979 C20.1652344,11.8828125 19.296875,14.2052083 17.9359375,15.7421875 L13.2200521,20.5494792 L18.0324219,25.5226563 C19.4661458,26.8683594 20.4174479,29.2584635 20.4174479,31.9820313 C20.4174479,34.1385417 19.8216146,36.0479167 18.861849,37.4342448 L22.2015625,37.4342448 C25.0046875,37.4342448 27.2779948,34.9967448 27.2779948,32.1242188 C27.2779948,30.7023438 26.7210937,29.4125 25.8188802,28.4747396 L18.0798177,20.5511719 L34.153776,4.16067708 C33.6442708,3.84075521 33.0027344,3.69856771 32.3595052,3.69856771 Z M35.7263021,8.815625 L24.2074219,20.55625 L29.6934896,26.1320313 C30.8089844,27.5285156 31.5182292,29.6308594 31.5182292,31.9820313 C31.5182292,34.1520833 30.9139323,36.1105469 29.9457031,37.496875 L32.4001302,37.4223958 C34.2417969,37.4223958 35.7347656,35.9091146 35.7347656,34.0420573 L35.7263021,8.815625 Z" id="path248"></path>
                </g>
            </g>
        </g>
    </g>
</svg>