<?xml version="1.0" encoding="UTF-8"?>
<svg width="80px" height="80px" viewBox="0 0 80 80" version="1.1" xmlns="http://www.w3.org/2000/svg" xmlns:xlink="http://www.w3.org/1999/xlink">
    <!-- Generator: Sketch 51.3 (57544) - http://www.bohemiancoding.com/sketch -->
    <title>Group 8 Copy 15</title>
    <desc>Created with Sketch.</desc>
    <defs></defs>
    <g id="Page-1" stroke="none" stroke-width="1" fill="none" fill-rule="evenodd">
        <g id="m7-withdraw-balance-0-1366-copy" transform="translate(-413.000000, -417.000000)">
            <g id="Group-8-Copy-15" transform="translate(413.000000, 417.000000)">
                <rect id="Mask" fill="#F0F2F5" x="0" y="0" width="80" height="80" rx="40"></rect>
                <path d="M34.8133098,22.9373849 C34.8856025,21.7853656 36.0772662,20.8712126 37.2082972,21.0589405 C38.309012,21.1813717 39.1998447,22.3042407 39.0331051,23.4049554 C38.9736385,23.7780791 38.7474323,24.0975662 38.6681435,24.4648598 C38.7742506,24.89745 39.0564253,25.2612456 39.3129478,25.6168791 C39.3642523,25.6856738 39.4167228,25.7544684 39.4691934,25.8244291 C39.4761894,25.9060499 39.4890155,26.0692915 39.4948456,26.1520783 C39.5962886,26.1544103 39.7980086,26.1614064 39.8982855,26.1649044 C39.9542541,26.0319791 40.0078906,25.8990538 40.0615271,25.7661285 C40.1244918,25.604053 40.1792943,25.4384793 40.2352628,25.2729057 C40.4498089,25.1353164 40.4824573,24.8717978 40.559414,24.6490896 L40.6900073,24.6350975 C40.664355,24.282962 40.4148286,23.9972892 40.4101646,23.6451538 C40.3856783,23.2160616 40.3926744,22.7846374 40.4358168,22.3567112 C40.5057775,22.23428 40.5477539,22.1025207 40.5629121,21.9602673 C40.6188806,21.9602673 40.7319837,21.9602673 40.7879523,21.9602673 C40.7786242,21.9031327 40.757636,21.7888636 40.7471419,21.7305631 L40.8987233,21.6967487 C40.8917273,21.6396142 40.8765691,21.523013 40.8695731,21.4658785 C40.9185455,21.4752066 41.0176565,21.4950287 41.067795,21.5055228 C41.2391987,21.3399492 41.4222625,21.1813717 41.6438046,21.0869248 C42.1405255,20.9586635 42.6605666,21.005304 43.1677815,21.0227941 C43.3566754,21.0018059 43.4872687,21.1510554 43.622526,21.2548304 C43.6656684,21.2466683 43.7507872,21.2326762 43.7927637,21.2256801 L43.7927637,21.3959178 C43.8417361,21.3889217 43.9420131,21.3737636 43.9909856,21.3667675 C44.130907,21.6582703 44.3990896,21.8646544 44.5763233,22.137501 C44.8165217,22.7065146 44.7838734,23.3909633 44.5938135,23.969305 C44.3011446,24.4940101 43.8708864,24.996561 43.2762206,25.1714627 C42.6757247,25.3183802 42.0472446,25.2309293 41.4560768,25.0840119 C41.3453057,25.2379254 41.2345346,25.3941709 41.1634079,25.5725706 C40.7774582,26.524036 40.5221017,27.5303038 40.4241567,28.5528958 C40.3996705,29.5171872 40.4055005,30.4838107 40.4323188,31.4492682 C40.663189,31.430612 40.8369247,31.2941886 40.9441978,31.0948007 C41.6554647,29.9206272 42.5929379,28.8700509 43.7391271,28.1063134 C43.8032578,28.0690011 43.932685,27.9932103 43.9968157,27.955898 C44.0399581,27.446351 44.1157488,26.940302 44.2055317,26.4365851 C44.2416781,26.3409722 44.2894845,26.2511893 44.3501171,26.1695685 C44.6719363,25.8932238 44.9412849,25.503776 45.3832032,25.4174911 C46.1166244,25.2379254 46.994631,25.2402574 47.5927948,25.7672946 C47.9274401,26.0576314 48.2585874,26.4400831 48.2480933,26.9111517 C48.2515913,27.4929914 48.3565323,28.1424598 48.0055629,28.6520068 C47.8341592,28.9341815 47.5601465,29.1300715 47.2907979,29.3108032 C46.7334444,29.3656058 46.1632649,29.5218513 45.6059114,29.3819299 C45.151167,29.2676608 44.8410079,28.877047 44.4165798,28.7021453 C44.0574483,28.5797141 43.8335741,28.9236874 43.6411822,29.1568897 C43.2354102,29.6804288 42.7165351,30.1643236 42.5777798,30.8394442 C42.4273643,31.230058 42.1731738,31.5728654 42.0402485,31.9704753 C41.8035482,32.7260506 41.4875591,33.4629699 41.3662939,34.2511936 C41.3149894,34.6861158 41.3208195,35.1268681 41.3173214,35.5652884 C41.8222044,35.4300311 42.1440235,35.009101 42.5439654,34.70827 C43.423138,34.0506396 44.3442871,33.4373176 45.3493889,32.9895692 C45.9592129,32.7248846 46.5573767,32.4018995 47.2266673,32.3144486 C47.505344,32.0194477 47.4936839,31.5926876 47.6487634,31.2370541 C47.913448,30.6447203 48.4544773,30.1736517 49.0911195,30.0255682 C49.7335918,29.9287893 50.4530208,29.9719317 50.97656,30.4010239 C52.0446264,31.2032397 52.0213062,33.0933442 50.878615,33.8197694 C50.4110444,34.192893 49.7779002,34.1101062 49.2217128,34.1054421 C48.5710784,34.1077742 48.0417092,33.6367056 47.7257201,33.1073364 C47.3619246,33.0933442 46.9888009,33.1224945 46.6821399,33.3382066 C45.1383408,34.1077742 43.7367951,35.2003269 42.700211,36.5855484 C42.604598,36.746458 42.5626216,36.9330198 42.503155,37.1090875 C42.4611786,37.1102536 42.3795578,37.1114196 42.3387474,37.1114196 C42.1381935,37.4472308 41.9574617,37.7970343 41.7580737,38.1340116 C41.2940012,39.0831449 40.8077744,40.0707565 40.7541379,41.144653 C40.9826762,41.1050086 41.2391987,41.0933485 41.3837841,40.8823005 C41.9562957,40.2456582 42.6698947,39.7710916 43.3380192,39.2463865 C43.4044819,39.2242322 43.5374072,39.1799238 43.6038698,39.1589356 C44.5366789,38.5491116 45.5942513,38.1678259 46.6506576,37.8343466 C47.5764707,37.8448407 48.4684694,37.5533379 49.3814563,37.4355707 C49.5656862,37.3854322 49.8198766,37.3656101 49.8851733,37.1487319 C50.0868933,36.7009835 50.1813402,36.1762784 50.569622,35.8381351 C51.1537937,35.2597934 52.0656146,35.2574614 52.816526,35.4311971 C53.6560542,35.7740045 54.2099096,36.7394619 54.042004,37.6419548 C53.9732093,38.2692689 53.5242949,38.7834799 53.0147479,39.1204572 C52.5868217,39.2767028 52.1204172,39.402632 51.6645067,39.297691 C51.3508496,39.2288963 51.0418566,39.1309513 50.7200374,39.1052991 C50.675729,39.100635 50.5882782,39.0913069 50.5439697,39.0854769 C50.5509658,39.0330064 50.5637919,38.9257333 50.570788,38.8720968 C50.4880012,38.8662667 50.3235936,38.8534406 50.2408068,38.8476106 C50.2174865,38.7065232 50.1906683,38.5666018 50.159186,38.4278464 C49.6846193,38.282095 49.1704083,38.4208504 48.6806835,38.3462256 C48.6865135,38.382372 48.6958416,38.4558307 48.7005057,38.4931431 C48.2609194,38.5176293 47.8318272,38.6202383 47.3945729,38.6528866 C47.403901,38.7006931 47.4237232,38.79514 47.4342173,38.8417805 C47.2499875,38.8639347 47.0669237,38.8860889 46.8850259,38.9140732 C46.6226734,39.0901409 46.3300045,39.2277303 46.0081853,39.2370584 C46.0128494,39.2860308 46.0245095,39.3839758 46.0303396,39.4329483 C45.8904182,39.4481064 45.7516628,39.4667626 45.6140735,39.4865848 C45.3936973,39.7722576 44.9681032,39.8072379 44.7932015,40.1337211 C44.743063,40.1302231 44.642786,40.123227 44.5914815,40.119729 L44.6346239,40.3016268 C44.5856514,40.2934647 44.4888725,40.2771405 44.4399,40.2689785 C44.2416781,40.5919636 43.8394041,40.7073988 43.6481782,41.040878 C43.4243041,41.2612542 43.1724456,41.4769663 43.0733346,41.7871253 C43.0243621,41.7836273 42.9240852,41.7754652 42.8751127,41.7719672 C42.8681166,41.86175 42.8552905,42.0401498 42.8494604,42.1299327 C42.7981559,42.1264346 42.6943809,42.1194386 42.6430764,42.1159405 C42.604598,42.2488658 42.5661197,42.3817911 42.5264753,42.5147164 C42.0740628,42.6581358 41.9959401,43.185173 41.7662358,43.5396405 C41.3103254,44.211263 41.0899492,45.0123129 40.968684,45.8063667 C40.9441978,46.0279088 40.9476958,46.4383448 41.270681,46.3987004 C41.5959982,46.2028105 41.8571847,45.9031456 41.9994381,45.5498441 C42.8343023,44.9668384 43.620194,44.2742277 44.5973115,43.9302543 C44.6008096,43.8836138 44.6066396,43.7891669 44.6101377,43.7413604 C44.6124697,43.7192062 44.6159677,43.6725658 44.6171337,43.6492455 C44.7698812,43.6585736 44.9039725,43.6200953 45.0205737,43.5314784 C45.0660481,43.5384745 45.159329,43.5524666 45.2059695,43.5582967 L45.1884793,43.4218733 C45.46599,43.3542447 45.7469988,43.2982761 46.0303396,43.2597977 C46.0245095,43.2119913 46.0140154,43.1152123 46.0081853,43.0662398 C46.1877511,43.0615758 46.3661508,43.0534137 46.5468826,43.0405876 C46.7334444,42.9239864 46.9573186,42.9438086 47.1683667,42.9274845 L47.1578726,42.8073853 L47.3082881,42.8470297 L47.29896,42.7187684 C47.712894,42.7490847 48.1175,42.6593019 48.524438,42.6044993 C49.2298749,42.5660209 49.9376438,42.567187 50.6454127,42.570685 C50.7002153,42.3841232 50.7561838,42.1987273 50.8098203,42.0121655 L50.9089313,42.0249916 C50.9567378,41.8792402 51.0068763,41.7358208 51.0593468,41.5924014 C51.2750589,41.4827963 51.3590117,41.2041196 51.6143682,41.1633092 C51.6120362,41.1190008 51.6050401,41.0315499 51.6027081,40.9872415 C51.7437955,40.9802454 51.8755548,40.940601 51.997986,40.8706404 C52.513363,40.5616473 53.1546693,40.7575372 53.7248489,40.7155608 L53.6933665,40.8881305 C53.7516671,40.8706404 53.8706003,40.834494 53.9300669,40.8158378 L53.947557,40.9662533 C54.0350079,40.9662533 54.2075776,40.9650873 54.2938624,40.9650873 C54.2891984,41.0257199 54.2798703,41.145819 54.2752062,41.2064516 C54.3241787,41.2052856 54.4232897,41.2041196 54.4722622,41.2029536 C54.6961364,41.4711362 54.9130145,41.749813 55.0482718,42.0751301 C55.0995763,42.2826802 55.1135684,42.4948942 55.1182325,42.7082743 L55.2394977,42.7164364 C55.1333906,43.1210424 55.064596,43.5349764 54.968983,43.9419144 C54.86754,44.0305313 54.766097,44.1191481 54.6669861,44.210097 C54.6110175,44.4024889 54.4687641,44.5459083 54.2775383,44.6042089 C54.2448899,44.6531814 54.1795933,44.7522923 54.146945,44.8024308 C53.9790393,44.8105929 53.8122997,44.815257 53.6455601,44.818755 C53.0870406,44.8035968 52.5040349,44.8688935 51.9746657,44.6531814 C51.3438536,44.31154 51.0640108,43.6119332 50.7025473,43.0335915 C49.1214358,43.1396986 47.5391583,43.4999961 46.1294505,44.2369153 C46.1236205,44.3500184 46.1189564,44.4631215 46.1154584,44.5773906 C46.5806969,44.7744466 47.0599276,44.9796646 47.5799687,44.9306921 C47.6522614,44.9563443 47.7980129,45.0088148 47.8714716,45.0344671 C47.8901278,45.0426292 47.9262741,45.0589533 47.9449303,45.0671154 C47.9974008,45.0869376 48.1046739,45.126582 48.1583104,45.1452382 C48.1723025,45.1534003 48.2026188,45.1673924 48.217777,45.1755545 C48.4917896,45.3597843 48.7821265,45.5218599 49.0514751,45.7154178 C49.0689653,45.7282439 49.1051116,45.7550621 49.1237678,45.7678883 L49.2018906,45.8238568 C49.2158827,45.8355169 49.245033,45.8576712 49.2590252,45.8693313 C49.3756263,45.9742723 49.4922274,46.0815453 49.6088286,46.1923164 C49.6193227,46.1993125 49.6403109,46.2144706 49.651971,46.2226327 C49.7475839,46.2389569 49.9399758,46.2704392 50.0355888,46.2867634 C50.4460248,46.1783243 50.8634569,46.0675532 51.2925491,46.0978695 C52.0154761,46.3625541 52.7512293,46.8254606 53.02874,47.578704 C53.1371791,48.2176782 53.2048078,49.007068 52.6754386,49.4886307 C52.1705556,50.132269 51.2610667,50.436598 50.4775071,50.1765774 C49.9807862,50.0704704 49.6076626,49.7113389 49.2648552,49.3627015 C48.9220479,49.007068 48.934874,48.4776988 48.939538,48.0171243 C48.9302099,47.6230124 49.1680763,47.2918652 49.2741833,46.9257376 C48.3716905,46.044233 47.0902439,45.5918206 45.8414457,45.537018 C45.0625501,45.5859905 44.233516,45.6664453 43.5653914,46.1083636 C42.8762787,46.6703811 42.39938,47.4422807 41.9527977,48.2001881 C41.8187063,48.39258 41.786058,48.6257822 41.7487457,48.8519885 C42.3690637,48.8508224 42.9928798,48.6840828 43.6096999,48.8263362 C44.1157488,48.9021269 44.5145247,49.2519304 44.9844273,49.4303301 C45.1243487,49.4524843 45.2689341,49.4501523 45.4135195,49.4501523 C45.8029673,49.4559824 46.1970792,49.4349942 46.586527,49.4897967 C47.1427144,49.5854096 47.5834668,49.9713594 47.9799106,50.3479811 C48.1466503,50.7141087 48.2574214,51.1105526 48.2294371,51.5163245 C48.225939,52.0293695 47.9402662,52.4736199 47.7385463,52.9283643 C47.3456004,53.1254203 47.0167852,53.5148681 46.5387205,53.4717257 C46.074648,53.4647296 45.5534409,53.5556785 45.1476689,53.2735037 C44.845672,53.0904399 44.5961455,52.8362494 44.3629432,52.5750629 C44.4025876,52.386169 44.336125,52.28356 44.1623893,52.2660699 C44.135571,51.9325906 44.0551162,51.6049414 44.0527842,51.2702961 C44.1192469,50.849366 44.2836545,50.4505901 44.3232989,50.0238299 C43.925689,49.8174459 43.4965968,49.627386 43.0360223,49.6775245 C42.4483525,49.6728605 41.9994381,50.1054507 41.6461367,50.5240488 C41.4828951,50.7269348 41.2333686,50.9018365 41.2100484,51.1805132 C41.1109374,52.2345876 41.4036063,53.2700057 41.4665709,54.3170839 C41.4957212,54.8592792 41.5481917,55.4003085 41.6438046,55.9355078 C41.7440816,56.4986913 41.7254254,57.0921911 41.9772839,57.6192282 C42.0763949,57.8792488 42.1533516,58.1474314 42.2139842,58.4202781 C41.9796159,58.5497054 41.7464136,58.6814646 41.5050493,58.7980658 C40.864909,58.6966228 40.2877334,59.0942327 39.6522571,59.028936 C38.8500413,58.9543113 38.0256712,58.7759116 37.3610447,58.2966809 C37.6653737,56.9091273 37.9428844,55.5040835 37.9778648,54.0803836 C38.0699797,53.1907169 38.2623715,52.2963862 38.1387743,51.4008894 C38.0979639,51.2423118 38.000019,51.1082205 37.9218962,50.9706312 C37.6105712,50.4342659 37.2001351,49.9025647 36.5856471,49.7043428 C36.0224636,49.4571484 35.452284,49.7917937 34.9310769,49.9876836 C35.0057017,50.645314 35.3321849,51.2959484 35.1292989,51.9652389 C35.0045357,52.5505766 34.5066488,52.9213683 34.1323591,53.3469624 C34.114869,53.3632866 34.0798886,53.3947689 34.0623984,53.4110931 L34.0379122,53.4309153 C33.506211,53.4600655 32.9686797,53.51137 32.4393106,53.4332473 C31.8213245,53.198879 31.2837933,52.7091542 31.0657491,52.074844 C30.545708,50.7933975 31.76419,49.213452 33.1319213,49.3650335 C33.5388593,49.3743616 33.9481293,49.5061209 34.3539013,49.4268321 C34.8459581,49.2321082 35.2820464,48.8869688 35.8184116,48.8181741 C36.3244606,48.7132331 36.8305095,48.8648146 37.3377245,48.8648146 C37.5779228,48.8543205 37.6420535,48.5616516 37.5137922,48.39258 C37.1021902,47.6090203 36.5996393,46.862773 35.9863173,46.2226327 C35.8452299,46.0523951 35.6353478,45.9847664 35.4231338,45.9661102 L35.348509,45.9532841 C35.3170267,45.8879874 35.2528961,45.7550621 35.2214138,45.6885995 C34.5696134,45.5743304 33.918979,45.3761084 33.2508545,45.4110888 C32.6468606,45.4787174 32.0556928,45.633797 31.4820152,45.8331849 C31.5729641,45.8518411 31.7560279,45.8879874 31.8469768,45.9066436 C31.2476469,46.0349049 30.74393,46.3963684 30.2308849,46.7111915 C30.2017347,47.3863121 30.4920715,48.0486066 30.3509841,48.7213952 C30.2658653,49.0618705 30.0851335,49.3708635 29.8787495,49.6507063 C29.4065149,49.832604 28.9820867,50.1870715 28.4573816,50.1952336 C27.9688228,50.2173878 27.4884261,50.1019527 27.0208555,49.9736914 C26.6197476,49.6355481 26.2886004,49.2216141 26.0740543,48.7412174 C26.0204177,48.2095162 26.146347,47.6964711 26.2827703,47.1892562 C26.4460119,47.0411727 26.6069215,46.8884252 26.763167,46.7321797 C27.2179115,46.4791552 27.681984,46.148008 28.2276773,46.1759923 C28.6859198,46.2039765 29.113846,46.3928704 29.5604284,46.4814873 C29.5650924,46.4185226 29.5720885,46.2914274 29.5755865,46.2284628 C29.5790846,46.1689962 29.5872466,46.048897 29.5907447,45.9894304 C29.6478792,45.9929285 29.7621484,45.9999245 29.8192829,46.0034226 C29.822781,45.94279 29.828611,45.8226908 29.832109,45.7632242 C29.9148959,45.7632242 30.0804695,45.7643902 30.1620903,45.7643902 L30.1550942,45.6209708 C30.2157268,45.6233029 30.335826,45.6268009 30.3964586,45.6291329 C30.3929605,45.5708323 30.3871305,45.4553972 30.3836324,45.3970966 C30.4745813,45.3970966 30.6564791,45.3947646 30.747428,45.3947646 C30.74976,45.3469582 30.7555901,45.2525112 30.7590881,45.2058708 C30.9584761,45.1545663 31.155532,45.0950997 31.3525879,45.0356331 C31.3479239,44.9878266 31.3374298,44.8910477 31.3315997,44.8432412 C31.6126085,44.823419 31.8936172,44.7931027 32.1664639,44.721976 L32.1349816,44.5808887 C32.3028872,44.5820547 32.4707929,44.5843867 32.6410305,44.5867187 C32.6340345,44.4759476 32.6223743,44.2555715 32.6153783,44.1448004 C32.280733,44.0515195 31.9414237,43.9640686 31.5904543,43.9629026 C31.5857902,43.9349183 31.5752961,43.8801158 31.569466,43.8532975 L31.5344857,43.6865579 C31.5158295,43.6748978 31.4761851,43.6527436 31.4563629,43.6410835 C30.6623092,43.1117143 29.6688674,43.2166553 28.7896948,42.9438086 C28.5355044,43.0953901 28.3174602,43.3029402 28.2160172,43.5874469 C28.0271234,44.0561835 27.6353435,44.3884968 27.3205205,44.7686165 C27.0453418,44.8630634 26.7724951,44.9691705 26.4856563,45.0169769 C26.1650032,45.0111469 25.8501801,44.9400202 25.530693,44.92253 C25.4035977,44.9143679 25.2776685,44.9085379 25.1517392,44.9062058 C25.1529053,44.8525693 25.1575693,44.7476283 25.1599013,44.6951578 C25.1062648,44.6939918 24.9966597,44.6904937 24.9430232,44.6893277 C24.9092089,44.4852757 24.7284771,44.3873308 24.5652355,44.2987139 C24.5640695,44.2485754 24.5605715,44.1494644 24.5582394,44.100492 C24.5034369,44.101658 24.3926658,44.106322 24.3366973,44.107488 C24.3331992,43.9489105 24.3297012,43.7903329 24.3273692,43.6329214 L24.1676256,43.6387514 C24.1862818,43.5827829 24.2247602,43.4708458 24.2434164,43.4148772 L24.0964989,43.4125452 C24.101163,43.0627418 24.101163,42.7141044 24.0941669,42.365467 L24.1909458,42.3514748 C24.2539105,42.1031144 24.3238711,41.854754 24.3670136,41.6028955 C24.3891678,41.5924014 24.4334762,41.5725792 24.4556304,41.5620851 L24.5978838,41.4932904 C25.0584583,41.0816884 25.6029857,40.6549282 26.2594501,40.7027347 C26.9380687,40.6234459 27.5735449,40.9779134 28.0236253,41.4606421 C28.2614917,41.7159986 28.3244563,42.0762961 28.5226782,42.3573049 C28.807185,42.6593019 29.2584314,42.5590249 29.628057,42.5823451 C31.2348208,42.5660209 32.7972761,43.0172674 34.2746125,43.6130992 C35.4756043,44.1343063 36.5949752,44.8514033 37.5394445,45.7608922 C37.6548796,46.1270198 38.004683,46.2424549 38.3544864,46.2447869 C38.305514,46.0279088 38.2577075,45.8121967 38.208735,45.5964846 C38.0967979,44.515592 37.6105712,43.5104902 37.0555497,42.5905072 C35.9979774,40.8286639 34.3119249,39.4795887 32.3985002,38.7473336 C31.4062244,38.4115223 30.3964586,38.0570548 29.3353882,38.0418967 C28.9972449,38.4651588 28.6625996,38.9268993 28.1612147,39.1694297 C27.6120233,39.4422764 26.9812111,39.2953589 26.3947074,39.3175132 C26.3632251,39.2906949 26.3014265,39.2382244 26.2699442,39.2125721 C26.0775523,39.0446665 25.8769983,38.8860889 25.6916025,38.7111872 C25.4840525,38.1386756 24.9791696,37.5416778 25.2601783,36.9120316 C25.3931036,36.5610622 25.5178668,36.1809425 25.8070377,35.925586 C25.9901014,35.7413562 26.2431259,35.6014348 26.3165846,35.3367502 L26.348067,35.2597934 C26.861112,35.0627375 27.4149674,35.1175401 27.9524987,35.1303662 L27.9396725,35.2947738 C27.9991391,35.2726196 28.1169063,35.2294771 28.1752068,35.2073229 L28.1740408,35.3717305 C28.2649897,35.3717305 28.4468875,35.3717305 28.5390024,35.3705645 C28.5331723,35.4288651 28.5226782,35.5454662 28.5180142,35.6049328 C28.603133,35.6060988 28.7733707,35.6095969 28.8584895,35.6107629 C28.8643196,35.6877196 28.8783117,35.8427991 28.8853078,35.9197559 C29.1709806,35.9127598 29.2012969,36.239243 29.3307241,36.4269709 C29.4135109,36.6030386 29.4636494,36.7896004 29.4834716,36.9843243 L29.5849146,36.9913204 L29.5604284,37.0846013 C29.6956857,37.1219137 29.7924647,37.2047005 29.8519312,37.3329617 C30.4337709,37.3073095 31.0062825,37.4134165 31.5822922,37.4775471 C31.5729641,37.5265196 31.5554739,37.6256306 31.5461458,37.6746031 C31.8446447,37.6815991 32.1431437,37.6979233 32.4416426,37.7165795 C32.6760109,37.8028643 32.9138772,37.8833191 33.1424154,37.9847621 C33.3196492,38.0139124 33.4980489,38.0395646 33.6764487,38.0675489 C33.6671206,38.1141894 33.6472984,38.2098023 33.6368043,38.2576088 C33.8525164,38.277431 34.0693945,38.2995852 34.2862726,38.3205734 L34.3678934,38.4173523 C34.4052058,38.4639928 34.4798305,38.5561077 34.5159769,38.6027482 C34.6454041,38.6120762 34.7748314,38.6237364 34.9042587,38.6353965 C34.9450691,38.6820369 35.0266899,38.7741518 35.0675003,38.8207923 C36.1845392,39.3326713 37.2257874,40.0777526 37.998853,41.039712 C38.1201181,41.2635862 38.3614825,41.3335469 38.5911868,41.4058396 C38.5760286,40.9289409 38.5445463,40.4462122 38.3976289,39.9879697 C37.9732007,38.7496656 37.385531,37.5580019 36.570489,36.5284139 C36.2475038,36.133136 35.9478389,35.7005458 35.5187467,35.413707 L35.5129166,35.5629564 C35.4849324,35.5816126 35.4312958,35.620091 35.4044776,35.6387472 C35.4021456,35.5851106 35.3974815,35.4790036 35.3951495,35.4253671 L35.2843784,35.3659005 L35.2832124,35.2026589 C35.2284099,35.216651 35.1188048,35.2458013 35.0640022,35.2609595 C35.0628362,35.1979948 35.0628362,35.0720656 35.0628362,35.010267 C34.9998716,35.011433 34.8751084,35.0160971 34.8121438,35.0184291 C34.8168078,34.9612945 34.8273019,34.8458594 34.831966,34.7887248 C34.7480132,34.7840608 34.5812735,34.7735667 34.4973207,34.7689026 C34.5066488,34.4237633 34.1661735,34.4097711 33.9084849,34.392281 C33.910817,34.3526366 33.915481,34.2721818 33.917813,34.2313714 C33.6204801,34.094948 33.4584045,33.7509747 33.0782848,33.8186033 C33.0794508,33.7672988 33.0817828,33.6635238 33.0829489,33.6110533 C33.0199842,33.6168834 32.896387,33.6285435 32.8334224,33.6343735 L32.8474146,33.4909541 C32.7716238,33.4909541 32.6200423,33.4921201 32.5442516,33.4921201 C32.3133813,33.1108344 31.8143284,33.2845701 31.4482009,33.268246 C31.4447028,33.3463687 31.4388728,33.5014482 31.4353747,33.579571 C31.2301567,33.6308755 31.0704132,33.7696309 30.8966775,33.8804019 C30.0874655,34.1299284 29.113846,34.2651857 28.3757608,33.7544727 C27.9280124,33.4932862 27.8417276,32.9242726 27.4534458,32.6071175 C27.4394536,32.1628671 27.4534458,31.7186168 27.4627739,31.2743664 L27.5922011,31.3116788 C27.6376756,31.1577653 27.685482,31.0061838 27.7321225,30.8546023 C27.7764309,30.8324481 27.8638818,30.7893057 27.9081902,30.7671515 C28.291808,30.5619335 28.6077971,30.2144621 29.0450513,30.1188491 C29.72367,30.0372283 30.5048976,30.0115761 31.0365988,30.5199571 C31.5543079,30.9070728 31.6242686,31.5810274 31.872629,32.1313848 C31.9565818,32.355259 32.2201004,32.3890734 32.4136583,32.4695281 C34.4425182,33.0770201 36.2521679,34.2733478 37.8087931,35.6888856 C37.8869159,35.6713955 38.0419954,35.6375811 38.1189521,35.621257 C38.2343873,34.9951089 37.9487145,34.4027751 37.8729237,33.7906191 C37.6164012,32.5919593 37.1395026,31.4422721 36.5215165,30.3846997 C36.3302906,30.0640466 36.1297367,29.7224053 35.7915934,29.5370094 C35.755447,29.5311794 35.6854863,29.5183533 35.650506,29.5113572 C35.6295178,29.3119692 35.4347939,29.2396765 35.2913745,29.1428976 C35.2925405,29.0939251 35.2948725,28.9959801 35.2960385,28.9470077 C34.8832705,28.8560588 34.4716684,28.9959801 34.3060948,29.4064162 C34.2291381,29.4064162 34.0740586,29.4040841 33.9971018,29.4040841 L34.013426,29.5241833 C33.5668436,29.6128002 33.1120991,29.6769308 32.6561887,29.6221283 C32.4999432,29.5824839 32.3436976,29.5475035 32.1886181,29.5101912 C32.1163254,29.3446176 31.9577478,29.3014751 31.7956723,29.2804869 L31.7746841,29.1592217 C31.7198815,29.1697158 31.6126085,29.189538 31.5589719,29.2000321 C31.5578059,29.1347355 31.5566399,29.0041422 31.5566399,28.9388456 C31.4983393,28.9423436 31.3829042,28.9505057 31.3257697,28.9540037 C31.3246036,28.8677189 31.3211056,28.6963152 31.3199396,28.6100304 C31.2406508,28.6030343 31.0809073,28.5902082 31.0016185,28.5832121 C30.9887924,28.3336857 30.9724682,28.0818272 30.8850173,27.8462929 C30.8605311,27.5722802 30.8593651,27.2971015 30.8838513,27.0230888 C30.9223297,26.9018237 30.956144,26.7793925 30.9864603,26.6557952 C31.0867373,26.421427 31.2371528,26.2150429 31.4178846,26.0366432 C31.4738531,25.9235401 31.5298217,25.811603 31.5857902,25.6996659 C31.665079,25.6961679 31.8224905,25.6903378 31.9017793,25.6868398 C31.9017793,25.6297052 31.9006133,25.5154361 31.9006133,25.4583015 C31.9880641,25.4594675 32.1652979,25.4606336 32.2527487,25.4617996 L32.2562468,25.3347043 C32.9406955,25.3207122 33.6496304,25.2379254 34.3037628,25.4979459 C34.4052058,25.6530254 34.5369651,25.7882828 34.7246929,25.8372552 C34.7165308,25.8827297 34.7025387,25.9748446 34.6943766,26.020319 C35.04418,25.9748446 35.0266899,26.3934427 35.0779944,26.631309 C35.1281329,26.625479 35.2295759,26.6114868 35.2808804,26.6056568 C35.2902085,26.9986026 35.2995365,27.3927145 35.2960385,27.7879923 L35.442956,27.7914904 C35.4289638,27.8404628 35.3986475,27.9372418 35.3834894,27.9862143 C35.7449529,28.0538429 35.9816532,28.3581719 36.262662,28.5668879 C36.4328996,28.7242995 36.5926432,28.8992012 36.8048573,29.0041422 C36.7990272,29.0426206 36.7885331,29.1207434 36.7838691,29.1603878 C36.9086323,29.2186883 37.0368935,29.2734909 37.1663208,29.3247954 C37.1569927,29.3807639 37.1383365,29.490369 37.1301745,29.5451715 C37.1943051,29.5440055 37.3248984,29.5393415 37.389029,29.5370094 C37.3831989,29.5871479 37.3715388,29.6850929 37.3657088,29.7352314 C37.5487726,29.7643817 37.6140692,29.9159632 37.6630417,30.0722087 C37.7563226,30.1421694 37.8507695,30.21213 37.9463824,30.2820907 C37.9592086,30.4056879 37.9732007,30.5304512 37.9883589,30.6563804 C38.0303353,30.6738706 38.1154541,30.7076849 38.1574305,30.7240091 C38.4314432,31.0050178 38.4512654,31.5075687 38.8372152,31.6661463 L39.0144489,31.7186168 C39.0412672,31.535553 39.0680854,31.3536552 39.0960697,31.1717574 C39.429549,30.3998579 39.4855175,29.4728788 39.0949037,28.7114734 C39.0657534,28.0141985 39.0051208,27.3134257 38.7007918,26.6756174 L38.6902977,26.5893326 C38.6424913,26.1287581 38.5317202,25.6576895 38.2763637,25.2659096 C38.1597625,25.1248223 38.007015,24.9254343 37.798299,25.0023911 C37.2735939,25.1154942 36.7115764,25.2414234 36.1915353,25.0362054 C35.656336,24.8496436 35.2890424,24.3972311 34.9555632,23.9646409 C34.8506222,23.6323277 34.7643373,23.2871883 34.8133098,22.9373849 Z M35.9105265,22.9000725 C35.7636091,23.2790262 36.056278,23.6078414 36.2300137,23.9180005 C36.466714,24.0089493 36.6987502,24.1348786 36.9564388,24.1593648 C37.3388905,24.1838511 37.6187332,23.8457077 37.8262833,23.569363 C37.9277263,23.2731961 37.8647617,22.953709 37.8519355,22.648214 C37.6070731,22.4558221 37.389029,22.2109598 37.0986922,22.0885286 C36.5588289,21.9765915 36.1262386,22.4628182 35.9105265,22.9000725 Z M42.0425805,22.4056837 C41.6496347,22.7041826 41.8000502,23.2358838 41.8093783,23.6591459 C41.9458016,23.7022883 42.0344185,23.7944032 42.0740628,23.9319926 C42.2396365,23.9588109 42.4063761,23.9867951 42.5731157,24.0171114 C42.7363573,23.9821311 42.9019309,23.9518148 43.0675046,23.9214985 C43.1841057,23.7209445 43.312367,23.5262206 43.4441262,23.3361608 C43.4429602,23.1461009 43.4417942,22.956041 43.4406282,22.7671472 C43.3916557,22.7706452 43.2948768,22.7753093 43.2470703,22.7776413 C43.2237501,22.6995185 43.1782756,22.543273 43.1549554,22.4651502 C42.806318,22.3333909 42.4098741,22.4126797 42.0425805,22.4056837 Z M32.1641319,26.9951046 C32.072017,27.2912715 32.1361476,27.6084266 32.1443097,27.9139216 C32.3390336,28.0993174 32.5185993,28.3103654 32.7599637,28.4397927 C33.0351424,28.5284096 33.3301433,28.470109 33.605322,28.4024803 C33.3464674,28.3418477 33.0864469,28.2917093 32.8264263,28.2415708 C32.7996081,28.2159185 32.7448055,28.16578 32.7179873,28.1401278 C32.9360314,28.3371837 33.2695107,28.2310767 33.5376933,28.267223 L33.5376933,28.1016494 C33.5913298,28.1109775 33.6986029,28.1296337 33.7522394,28.1389618 L33.7662315,28.057341 C34.013426,28.064337 34.1276951,27.8346328 34.1276951,27.6177547 C34.222142,27.0802234 33.8326942,26.4703994 33.2683447,26.421427 C32.8147662,26.2966637 32.382176,26.6196489 32.1641319,26.9951046 Z M45.4135195,26.9776144 C45.4368397,27.3903824 45.2409498,28.0375188 45.7866432,28.164614 L45.7784811,28.262559 C46.0536598,28.262559 46.3288385,28.262559 46.6051832,28.262559 L46.5946891,28.1086455 C46.6448276,28.1144755 46.7462706,28.1249696 46.7975751,28.1296337 C46.8453815,27.9465699 46.9468245,27.7868263 47.0680897,27.6434069 C47.1380504,27.2248088 46.896686,26.8738394 46.5970211,26.6138188 C46.3265065,26.6161509 46.0559918,26.6161509 45.7878092,26.6173169 C45.66188,26.73625 45.5371167,26.8575152 45.4135195,26.9776144 Z M48.9558622,31.5903555 C48.9138858,31.6031817 48.829933,31.6311659 48.7879565,31.6439921 C48.3437062,32.1756933 48.9278779,33.0583639 49.5726822,33.0327117 C50.0285927,33.1341546 50.3096014,32.7225526 50.5661239,32.4240537 C50.5591279,32.1721952 50.5567959,31.9215028 50.5602939,31.6696443 C50.3119335,31.3466592 49.9667941,31.122785 49.5691842,31.0306701 C49.3756263,31.2055718 48.8555852,31.2685364 48.9558622,31.5903555 Z M29.1499924,31.3151768 C29.1325022,31.3664813 29.0963558,31.4702564 29.0788657,31.5215609 C29.0275612,31.5227269 28.9272842,31.5238929 28.8771457,31.5250589 C28.8992999,31.8795264 28.7348923,32.3214447 28.9902488,32.6152796 C28.9890828,32.66192 28.9855848,32.7563669 28.9832527,32.8030074 C29.0438853,32.7948453 29.1639845,32.7773552 29.2246171,32.7691931 L29.215289,32.9231066 C29.4823056,32.9207746 29.7493222,32.9196085 30.0163388,32.9161105 C30.135272,32.8193316 30.2553712,32.7260506 30.3778024,32.6339357 C30.4197788,32.2596461 30.4139487,31.8818584 30.3871305,31.5064027 C30.3276639,31.5099007 30.2075647,31.5180628 30.1480981,31.5215609 C30.1527622,31.4632603 30.1609243,31.3466592 30.1655883,31.2883586 C29.827445,31.2743664 29.4834716,31.2440501 29.1499924,31.3151768 Z M26.763167,36.5295799 C26.765499,36.5913785 26.7701631,36.7126437 26.7736611,36.7744423 C26.7130285,36.7662802 26.5940954,36.749956 26.5346288,36.7417939 C26.5381268,36.8035926 26.5451229,36.9271898 26.5486209,36.9889884 L26.4156956,37.0053125 C26.4495099,37.2490089 26.349233,37.5545039 26.5439569,37.7492278 C26.5427909,37.7912042 26.5392928,37.875157 26.5381268,37.9159674 C26.9450648,38.1270155 27.4068053,38.080375 27.8475576,38.0407307 C27.8417276,37.9847621 27.8289014,37.873991 27.8230714,37.8180225 C27.8802059,37.8203545 27.9933091,37.8261846 28.0492776,37.8285166 C28.0632697,37.5136935 28.0667678,37.1988704 28.0632697,36.8840473 C27.9420045,36.7639482 27.8289014,36.6345209 27.6901461,36.5365759 C27.3823191,36.4934335 27.070994,36.5179198 26.763167,36.5295799 Z M51.3753359,36.6205288 C51.182944,37.0729412 51.1794459,37.5859862 51.3986561,38.0302366 C51.7822738,38.073379 52.1682236,38.080375 52.5541734,38.0488927 C52.5518414,37.9870941 52.5495094,37.8634969 52.5471773,37.8016983 C52.6019799,37.8133584 52.7115849,37.8366787 52.7652215,37.8471728 C52.8923167,37.5929823 52.8969808,37.3119735 52.8888187,37.0344628 C52.8503403,36.9645021 52.7733835,36.8234147 52.7349052,36.752288 C52.6847667,36.7604501 52.5856557,36.7744423 52.5366832,36.7814383 C52.5413473,36.7196397 52.5518414,36.5972085 52.5565054,36.5354099 C52.1623936,36.5225838 51.7496255,36.4596192 51.3753359,36.6205288 Z M52.1693896,42.5963372 L52.0656146,42.5951712 C52.0702787,42.780567 52.0772747,42.9671289 52.0877688,43.1536907 C52.1740537,43.2737899 52.2580065,43.3962211 52.3314652,43.5268143 C52.6777706,43.7425265 53.1010327,43.6294233 53.4858165,43.6375854 C53.4823185,43.5827829 53.4776544,43.4720118 53.4741564,43.4172093 C53.5301249,43.4183753 53.640896,43.4195413 53.6968646,43.4207073 C53.7131887,43.0347575 53.7924775,42.6231555 53.6094137,42.264024 C53.4753224,42.1835692 53.3435631,42.1042804 53.2141359,42.0203276 C53.0089178,42.0179956 52.8048659,42.0214936 52.6019799,42.0273237 C52.4235801,42.1870672 52.1798837,42.3269886 52.1693896,42.5963372 Z M25.8361879,42.1077785 L25.84435,42.2581939 C25.7895475,42.2511979 25.6799424,42.2372057 25.6251399,42.2313757 C25.5784994,42.6534718 25.5808314,43.079066 25.6251399,43.5034941 C25.9819394,43.6597396 26.3713872,43.6772298 26.7550049,43.6457475 C26.8739381,43.5489686 26.9940373,43.4545216 27.1164685,43.3624067 C27.1409547,43.0370896 27.1444527,42.7106064 27.1316266,42.3852892 C27.0406777,42.2955063 26.9520609,42.2057234 26.862278,42.1171065 C26.5206366,42.0984504 26.1778293,42.0972844 25.8361879,42.1077785 Z M50.4506888,47.4842571 C50.4483568,47.5483877 50.4436927,47.678981 50.4413607,47.7431116 C50.3842262,47.7349495 50.2711231,47.7186254 50.2139885,47.7104633 C50.1871702,48.0451086 50.1778421,48.3809198 50.2221506,48.7155651 C50.363238,48.7773637 50.474009,48.8846368 50.575452,49.0000719 C50.779504,49.0490444 50.9870541,49.0863567 51.1969361,49.110843 C51.3345255,49.0653685 51.4744468,49.0245581 51.6155342,48.9872458 C51.6132022,48.9347753 51.6097042,48.8298342 51.6085381,48.7773637 C51.6656727,48.7785297 51.7787758,48.7820278 51.8359104,48.7831938 C51.898875,48.5301693 51.9431834,48.2724808 51.9490135,48.0124602 C51.900041,47.8946931 51.8522345,47.779258 51.8055941,47.6638228 C51.6353564,47.5926961 51.4849409,47.4877551 51.3461856,47.369988 C51.1258094,47.3653239 50.9054333,47.3653239 50.6862231,47.3653239 L50.679227,47.5157394 C50.6220925,47.5075773 50.5078234,47.4912531 50.4506888,47.4842571 Z M27.7064702,47.6370046 C27.6505017,47.6276765 27.5385646,47.6078543 27.4825961,47.5985262 C27.378821,47.9751479 27.3286825,48.3704257 27.4639399,48.7482134 C27.7216284,48.9406053 28.0061352,49.110843 28.3396144,49.113175 C28.4655437,49.0711986 28.5903069,49.0292222 28.7150701,48.9860798 C28.801355,48.8893008 28.8864738,48.7948539 28.9727586,48.700407 C29.014735,48.3832519 29.013569,48.0625987 28.9949129,47.7442776 C28.9132921,47.6568268 28.8316713,47.5693759 28.7523825,47.4830911 C28.400247,47.4644349 28.0492776,47.4644349 27.6983082,47.476095 L27.7064702,47.6370046 Z M32.6433626,50.3852935 C32.6655168,50.443594 32.7098252,50.5601952 32.7319794,50.6173297 L32.6013861,50.6149977 C32.6025522,50.6779623 32.6025522,50.8027255 32.6037182,50.8656902 C32.5477496,50.8575281 32.4358125,50.8423699 32.379844,50.8342079 C32.3297055,50.8551961 32.2294285,50.8960065 32.180456,50.9169947 C32.0568588,51.3717391 32.1174914,51.8602979 32.4253184,52.2264255 C32.686505,52.3371966 32.9651817,52.4176513 33.2520205,52.387335 C33.5132071,52.3989952 33.8291962,52.2322555 33.8012119,51.9325906 C33.8455203,51.9244285 33.9341372,51.9092704 33.9784456,51.9011083 C34.2034858,51.5944473 34.2291381,50.9426469 33.7697296,50.845868 L33.9294731,50.749089 C33.6158161,50.343317 33.1086011,50.3328229 32.6433626,50.3852935 Z M45.4298437,50.9099986 C45.4065235,51.2702961 45.3703771,51.6387557 45.464824,51.9943892 C45.5172945,52.0095474 45.6222356,52.0421957 45.6747061,52.0573538 L45.6595479,52.175121 C46.0070193,52.1891131 46.3544907,52.1879471 46.7019621,52.173955 L46.7241163,52.0853381 C46.8488796,51.9559108 46.9631487,51.8183215 47.0715877,51.6760681 C47.0669237,51.4883403 47.0645917,51.3017784 47.0645917,51.1152166 C46.8710338,50.9181607 46.7019621,50.6884564 46.4640958,50.543871 C46.0653199,50.44476 45.7248446,50.6767963 45.4298437,50.9099986 Z" id="Shape" fill="#00A2B1" fill-rule="nonzero"></path>
            </g>
        </g>
    </g>
</svg>