<?xml version="1.0" encoding="UTF-8"?>
<svg width="80px" height="80px" viewBox="0 0 80 80" version="1.1" xmlns="http://www.w3.org/2000/svg" xmlns:xlink="http://www.w3.org/1999/xlink">
    <!-- Generator: Sketch 51.3 (57544) - http://www.bohemiancoding.com/sketch -->
    <title>Group 8 Copy 12</title>
    <desc>Created with Sketch.</desc>
    <defs></defs>
    <g id="Page-1" stroke="none" stroke-width="1" fill="none" fill-rule="evenodd">
        <g id="m7-withdraw-balance-0-1366-copy" transform="translate(-1073.000000, -307.000000)">
            <g id="Group-8-Copy-12" transform="translate(1073.000000, 307.000000)">
                <rect id="Mask" fill="#F0F2F5" x="0" y="0" width="80" height="80" rx="40"></rect>
                <g id="Group-10" transform="translate(24.000000, 20.000000)">
                    <g id="Group-5-Copy" fill-rule="nonzero">
                        <g id="Group-4">
                            <polygon id="path544" fill="#790008" points="30.8442662 0.0457175397 0.567021673 0.0457175397 0.567021673 29.1159015 30.8442662 29.1159015"></polygon>
                            <g id="g546" transform="translate(3.955502, 14.214291)" fill="#FFFFFF">
                                <polygon id="path548" points="16.7989159 9.40826149 0.70135474 9.40826149 7.82549501 0.362890086 23.9230562 0.362890086"></polygon>
                            </g>
                            <g id="g550" transform="translate(4.079393, 5.169457)" fill="#ED1D24">
                                <polygon id="path552" points="23.7984642 9.40826149 7.70230296 9.40826149 0.57816269 0.368266236 16.674324 0.368266236"></polygon>
                            </g>
                        </g>
                    </g>
                    <path d="M1,32 L3.38085004,32 C3.68174886,32 3.98640435,32.03197 4.29482564,32.095911 C4.60324694,32.159852 4.87969358,32.2689262 5.12417388,32.4231369 C5.36865417,32.5773475 5.56799665,32.7860929 5.7222073,33.0493794 C5.87641794,33.3126659 5.95352211,33.6436496 5.95352211,34.0423406 C5.95352211,34.4635989 5.82564203,34.8303138 5.56987803,35.1424964 C5.31411403,35.4546789 4.97184675,35.6596632 4.54306593,35.7574553 L4.54306593,35.7800226 C5.0621164,35.8402023 5.49277138,36.0414254 5.83504379,36.3836978 C6.1773162,36.7259702 6.34844984,37.1904758 6.34844984,37.7772285 C6.34844984,38.1082172 6.27886803,38.4109921 6.13970233,38.6855623 C6.00053662,38.9601325 5.80307473,39.1933256 5.54731073,39.3851486 C5.29154673,39.5769716 4.97936888,39.7255381 4.61076783,39.8308527 C4.24216677,39.9361673 3.82843709,39.9888238 3.36956639,39.9888238 L1,39.9888238 L1,32 Z M1.81242276,35.4979313 L3.44855193,35.4979313 C3.64413617,35.4979313 3.84159806,35.4753643 4.04094353,35.4302294 C4.240289,35.3850946 4.42270617,35.3079904 4.58820053,35.1989146 C4.75369488,35.0898388 4.88721673,34.9450334 4.98877008,34.7644941 C5.09032344,34.5839548 5.14109935,34.3620453 5.14109935,34.0987588 C5.14109935,33.8429948 5.09032344,33.626727 4.98877008,33.449949 C4.88721673,33.2731709 4.7499337,33.1283655 4.57691688,33.0155285 C4.40390005,32.9026914 4.2007964,32.821826 3.96759981,32.77293 C3.73440322,32.7240339 3.48616541,32.6995863 3.22287894,32.6995863 L1.81242276,32.6995863 L1.81242276,35.4979313 Z M1.81242276,39.2892375 L3.32443179,39.2892375 C3.61780814,39.2892375 3.89801597,39.2610287 4.16506367,39.2046102 C4.43211138,39.1481916 4.66530447,39.0579234 4.86464994,38.9338026 C5.06399541,38.8096818 5.22384551,38.6479511 5.34420504,38.4486057 C5.46456457,38.2492602 5.52474343,38.0104253 5.52474343,37.7320939 C5.52474343,37.205521 5.34608744,36.8124778 4.98877008,36.5529526 C4.63145273,36.2934273 4.12557417,36.1636666 3.47111923,36.1636666 L1.81242276,36.1636666 L1.81242276,39.2892375 Z M8.2166998,39.9888238 L7.32529149,39.9888238 L10.7780882,32 L11.5679437,32 L14.9981731,39.9888238 L14.0954812,39.9888238 L13.2153565,37.890065 L9.08554081,37.890065 L8.2166998,39.9888238 Z M9.39019934,37.1453442 L12.910698,37.1453442 L11.1504487,32.902692 L9.39019934,37.1453442 Z M21.9327817,38.8040406 L21.955349,38.8040406 L21.955349,32 L22.7677717,32 L22.7677717,39.9888238 L21.7522433,39.9888238 L17.1033797,33.1170813 L17.0808124,33.1170813 L17.0808124,39.9888238 L16.2683897,39.9888238 L16.2683897,32 L17.2839181,32 L21.9327817,38.8040406 Z M25.7982376,35.5882005 L25.8095212,35.5882005 L29.6121111,32 L30.774327,32 L26.7460642,35.6220515 L31,39.9888238 L29.8039332,39.9888238 L25.8095212,35.734888 L25.7982376,35.734888 L25.7982376,39.9888238 L24.9858148,39.9888238 L24.9858148,32 L25.7982376,32 L25.7982376,35.5882005 Z" id="BANK" fill="#891F26"></path>
                </g>
            </g>
        </g>
    </g>
</svg>