<?xml version="1.0" encoding="UTF-8"?>
<svg width="80px" height="80px" viewBox="0 0 80 80" version="1.1" xmlns="http://www.w3.org/2000/svg" xmlns:xlink="http://www.w3.org/1999/xlink">
    <!-- Generator: Sketch 51.3 (57544) - http://www.bohemiancoding.com/sketch -->
    <title>Group 8 Copy 34</title>
    <desc>Created with Sketch.</desc>
    <defs></defs>
    <g id="Page-1" stroke="none" stroke-width="1" fill="none" fill-rule="evenodd">
        <g id="m7-withdraw-balance-0-1366-copy" transform="translate(-1073.000000, -527.000000)">
            <g id="Group-8-Copy-34" transform="translate(1073.000000, 527.000000)">
                <rect id="Mask" fill="#F0F2F5" x="0" y="0" width="80" height="80" rx="40"></rect>
                <g id="Group-26" transform="translate(21.000000, 21.000000)" fill-rule="nonzero">
                    <path d="M19.4796011,0.13965812 L19.5261538,0.141823362 C19.9905983,0.140740741 20.4658689,0.180797721 20.9194872,0.0595441595 C21.4521368,0.00108262108 22.0042735,0.171054131 22.4990313,0.348603989 C23.6292877,0.652820513 24.6090598,1.3045584 25.6407977,1.83071225 L25.5650142,1.89133903 C25.4242735,2.002849 25.2878632,2.11977208 25.151453,2.23561254 C24.9955556,2.16091168 24.8396581,2.08512821 24.6837607,2.00826211 C24.3643875,2.24319088 24.1305413,2.58096866 23.7754416,2.76934473 C23.5491738,2.89709402 23.3445584,3.05840456 23.1410256,3.21863248 C22.9439886,3.38752137 22.6614245,3.32364672 22.4275783,3.39293447 C22.2446154,3.51851852 22.1125356,3.70472934 21.9219943,3.82165242 C21.8148148,3.80974359 21.7108832,3.78159544 21.6069516,3.75777778 C21.0959544,4.11396011 20.511339,4.31965812 19.9299715,4.5242735 C19.2695726,4.52319088 18.6362393,4.27527066 17.9758405,4.26119658 C17.1920228,4.25037037 16.3822222,4.20273504 15.6395442,4.4982906 C15.7164103,4.09230769 16.0953276,3.84330484 16.2966952,3.50119658 C16.7752137,2.89492877 17.3111111,2.33846154 17.8231909,1.7614245 C18.3092877,1.27207977 18.8040456,0.791396011 19.3009687,0.311794872 C19.3280342,0.220854701 19.3875783,0.163475783 19.4796011,0.13965812 Z" id="Shape" fill="#E24E00"></path>
                    <path d="M18.4164672,0.552136752 C18.6892877,0.440626781 19.0119088,0.142905983 19.3009687,0.311794872 C18.8040456,0.791396011 18.3092877,1.27207977 17.8231909,1.7614245 C17.5622792,1.8794302 17.3121937,2.0180057 17.0740171,2.177151 C17.0209687,2.06239316 16.9679202,1.94763533 16.9148718,1.83287749 C17.0826781,1.69754986 17.251567,1.56330484 17.4215385,1.43122507 C17.108661,1.42472934 16.7795442,1.39008547 16.4948148,1.54598291 C15.7153276,1.83937322 14.9748148,2.22803419 14.1985755,2.52683761 C14.3263248,2.2442735 14.6814245,2.20962963 14.922849,2.06022792 C15.7088319,1.60985755 16.5565242,1.28290598 17.3717379,0.896410256 C17.6792023,0.659316239 18.1111681,0.792478632 18.4164672,0.552136752 Z" id="Shape" fill="#FBD890"></path>
                    <path d="M16.4948148,1.54598291 C16.7795442,1.39008547 17.108661,1.42472934 17.4215385,1.43122507 C17.251567,1.56330484 17.0826781,1.69754986 16.9148718,1.83287749 C16.9679202,1.94763533 17.0209687,2.06239316 17.0740171,2.177151 C17.3121937,2.0180057 17.5622792,1.8794302 17.8231909,1.7614245 C17.3111111,2.33846154 16.7752137,2.89492877 16.2966952,3.50119658 C16.0152137,3.49470085 15.7510541,3.59430199 15.485812,3.67441595 C15.1848433,3.66358974 15.1382906,3.30307692 15.0018803,3.09954416 C14.7193162,3.08655271 14.4508262,3.00535613 14.1845014,2.91766382 C13.965812,2.937151 13.814245,3.13527066 13.6345299,3.24786325 C13.4472365,3.23595442 13.259943,3.22079772 13.0726496,3.21430199 C13.1051282,3.17316239 13.1690028,3.08980057 13.2003989,3.04757835 C13.5490028,2.90358974 13.8445584,2.65566952 14.1985755,2.52683761 C14.9748148,2.22803419 15.7153276,1.83937322 16.4948148,1.54598291 Z" id="Shape" fill="#FDC771"></path>
                    <path d="M25.151453,2.23561254 C25.2878632,2.11977208 25.4242735,2.002849 25.5650142,1.89133903 C26.1333903,2.10245014 26.6010826,2.56905983 27.1131624,2.90467236 C27.5061538,3.26301994 27.9565242,3.55749288 28.3137892,3.95589744 C28.1264957,3.99162393 27.9586895,3.88985755 27.7908832,3.82706553 C27.8255271,4.02843305 27.9078063,4.21464387 28.0139031,4.38786325 C27.8958974,4.47447293 27.7562393,4.52102564 27.6133333,4.54592593 C27.0698575,4.60655271 26.6920228,5.07424501 26.1463818,5.1402849 C26.0998291,5.24854701 26.0554416,5.35680912 26.0099715,5.46507123 C25.5108832,5.61555556 25.0767521,5.90569801 24.6989174,6.2597151 C24.762792,6.40911681 24.8277493,6.55960114 24.8927066,6.71008547 C24.5939031,6.54877493 24.2810256,6.37988604 23.9335043,6.49789174 C22.7350427,5.67834758 21.414245,5.02552707 20.0090028,4.64444444 C19.9895157,4.61413105 19.9494587,4.55458689 19.9299715,4.5242735 C20.511339,4.31965812 21.0959544,4.11396011 21.6069516,3.75777778 C21.7108832,3.78159544 21.8148148,3.80974359 21.9219943,3.82165242 C22.1125356,3.70472934 22.2446154,3.51851852 22.4275783,3.39293447 C22.6614245,3.32364672 22.9439886,3.38752137 23.1410256,3.21863248 C23.3445584,3.05840456 23.5491738,2.89709402 23.7754416,2.76934473 C24.1305413,2.58096866 24.3643875,2.24319088 24.6837607,2.00826211 C24.8396581,2.08512821 24.9955556,2.16091168 25.151453,2.23561254 Z" id="Shape" fill="#ED6200"></path>
                    <path d="M13.6345299,3.24786325 C13.814245,3.13527066 13.965812,2.937151 14.1845014,2.91766382 C14.4508262,3.00535613 14.7193162,3.08655271 15.0018803,3.09954416 C15.1382906,3.30307692 15.1848433,3.66358974 15.485812,3.67441595 C15.7510541,3.59430199 16.0152137,3.49470085 16.2966952,3.50119658 C16.0953276,3.84330484 15.7164103,4.09230769 15.6395442,4.4982906 C15.302849,4.62603989 15.2573789,5.03202279 15.0040456,5.25287749 C14.7875214,5.43042735 14.8102564,5.74438746 14.6218803,5.93817664 C14.3176638,6.28569801 14.1325356,6.71333333 13.8683761,7.08900285 C13.9073504,6.74905983 14.0318519,6.42752137 14.0849003,6.08974359 C13.885698,6.19150997 13.6897436,6.2954416 13.4927066,6.39937322 C13.4894587,6.27920228 13.4883761,6.15794872 13.4862108,6.03777778 C13.4331624,6.00205128 13.3259829,5.93059829 13.2718519,5.89378917 C13.2783476,5.59282051 13.3963533,5.24529915 13.1852422,4.98763533 C13.0921368,5.15868946 13.0769801,5.45099715 12.8312251,5.47048433 C12.5161823,5.54843305 12.3548718,5.22472934 12.1415954,5.06450142 C11.9488889,5.01145299 11.7453561,5.02769231 11.5494017,4.99088319 C11.377265,4.87179487 11.377265,4.63145299 11.3112251,4.45065527 C11.3014815,4.26119658 11.5353276,4.2568661 11.6490028,4.16809117 C12.1264387,3.8562963 12.5670655,3.4762963 13.0726496,3.21430199 C13.259943,3.22079772 13.4472365,3.23595442 13.6345299,3.24786325 Z" id="Shape" fill="#FDB854"></path>
                    <path d="M27.7908832,3.82706553 C27.9586895,3.88985755 28.1264957,3.99162393 28.3137892,3.95589744 C28.3321937,3.95589744 28.3690028,3.95373219 28.38849,3.95264957 C28.477265,4.18974359 28.7533333,4.24712251 28.902735,4.4365812 C29.3639316,4.92700855 29.9052422,5.35680912 30.28849,5.91002849 C29.8348718,5.79418803 29.5035897,6.21641026 29.1290028,6.39396011 C28.871339,6.62022792 28.491339,6.46757835 28.2304274,6.67977208 C27.7865527,6.96666667 27.3838177,7.33259259 26.8717379,7.49823362 C26.4939031,7.59891738 26.4754986,8.0622792 26.354245,8.37082621 C26.5501994,8.21168091 26.71151,8.01031339 26.9356125,7.88689459 C26.9193732,8.02980057 27.0124786,8.2365812 26.8695726,8.33834758 C26.6985185,8.4422792 26.5079772,8.50507123 26.322849,8.57327635 C26.2860399,8.57219373 26.2135043,8.56894587 26.1766952,8.56678063 C25.554188,7.75373219 24.7433048,7.11498575 23.9335043,6.49789174 C24.2810256,6.37988604 24.5939031,6.54877493 24.8927066,6.71008547 C24.8277493,6.55960114 24.762792,6.40911681 24.6989174,6.2597151 C25.0767521,5.90569801 25.5108832,5.61555556 26.0099715,5.46507123 C26.0554416,5.35680912 26.0998291,5.24854701 26.1463818,5.1402849 C26.6920228,5.07424501 27.0698575,4.60655271 27.6133333,4.54592593 C27.7562393,4.52102564 27.8958974,4.47447293 28.0139031,4.38786325 C27.9078063,4.21464387 27.8255271,4.02843305 27.7908832,3.82706553 Z" id="Shape" fill="#F97300"></path>
                    <path d="M29.1907123,16.8802279 L29.2275214,16.9116239 C29.2383476,17.4507692 29.2069516,17.9931624 29.2816524,18.5301425 C29.37151,18.0592023 29.3238746,17.5731054 29.4494587,17.108661 C29.5079202,17.162792 29.6259259,17.2710541 29.6843875,17.3251852 C29.7709972,17.6921937 29.6010256,18.0418803 29.5750427,18.4045584 C29.5349858,19.2295157 29.3671795,20.0555556 29.4786895,20.8815954 C29.6010256,21.0894587 29.8164672,21.2691738 29.7774929,21.5365812 C29.7634188,23.1269516 29.7839886,24.7184046 29.7774929,26.3098575 C29.7699145,26.7678063 29.8521937,27.2517379 29.6367521,27.677208 C29.5111681,27.9478632 29.4483761,28.428547 29.8067236,28.5454701 C30.0135043,28.5541311 30.2192023,28.5162393 30.4249003,28.4935043 C29.9452991,29.1549858 29.4007407,29.7688319 28.8031339,30.3263818 C28.3917379,30.7864957 27.9002279,31.1632479 27.3935613,31.5107692 C27.2982906,31.5410826 27.2030199,31.5703134 27.1066667,31.5984615 C27.154302,31.4945299 27.2030199,31.3905983 27.2517379,31.2877493 C26.9767521,31.3754416 26.6974359,31.4512251 26.4137892,31.5031909 C26.5166382,31.3938462 26.608661,31.2682621 26.7364103,31.1870655 C26.86849,31.1729915 27.0016524,31.191396 27.1337322,31.1946439 C27.0817664,31.1069516 27.0298006,31.0192593 26.9789174,30.931567 C27.0796011,30.9109972 27.1802849,30.89151 27.2820513,30.8720228 C27.1499715,30.6251852 26.9301994,30.3978348 26.9529345,30.100114 C26.9745869,29.1225071 26.9648433,28.1449003 26.9626781,27.1683761 C26.948604,26.8609117 27.1900285,26.6151567 27.1846154,26.3098575 C27.185698,25.7858689 27.1727066,25.2607977 27.2495726,24.7411396 C27.3275214,24.5127066 27.0644444,24.4217664 26.9312821,24.3015954 C28.3928205,22.1276923 29.394245,19.5358974 29.1907123,16.8802279 Z" id="Shape" fill="#F97300"></path>
                    <path d="M9.58011396,5.89378917 C10.0824501,5.33623932 10.7168661,4.90319088 11.3112251,4.45065527 C11.377265,4.63145299 11.377265,4.87179487 11.5494017,4.99088319 C11.7453561,5.02769231 11.9488889,5.01145299 12.1415954,5.06450142 C12.3548718,5.22472934 12.5161823,5.54843305 12.8312251,5.47048433 C13.0769801,5.45099715 13.0921368,5.15868946 13.1852422,4.98763533 C13.3963533,5.24529915 13.2783476,5.59282051 13.2718519,5.89378917 C13.3259829,5.93059829 13.4331624,6.00205128 13.4862108,6.03777778 C13.4883761,6.15794872 13.4894587,6.27920228 13.4927066,6.39937322 C13.6897436,6.2954416 13.885698,6.19150997 14.0849003,6.08974359 C14.0318519,6.42752137 13.9073504,6.74905983 13.8683761,7.08900285 C13.5977208,7.48524217 13.5121937,7.99082621 13.1473504,8.32319088 C13.1386895,8.4780057 13.1300285,8.63173789 13.1202849,8.78655271 C12.9698006,8.7551567 12.8193162,8.72267806 12.6688319,8.68911681 C12.6309402,8.54079772 12.5995442,8.39139601 12.5410826,8.25065527 C12.3721937,8.1445584 12.168661,8.11641026 11.9900285,8.03088319 C11.8243875,7.87606838 11.7388604,7.64222222 11.5504843,7.51230769 C11.3523647,7.55669516 11.1033618,7.81219373 10.9442165,7.57076923 C10.4537892,7.05652422 9.93413105,6.2954416 9.11783476,6.43834758 C9.16222222,6.64188034 9.32136752,6.83891738 9.25099715,7.05219373 C9.04421652,6.94609687 8.83851852,6.83675214 8.63390313,6.72849003 C8.95002849,6.45133903 9.19903134,6.08866097 9.58011396,5.89378917 Z" id="Shape" fill="#FEA93D"></path>
                    <path d="M29.1290028,6.39396011 C29.5035897,6.21641026 29.8348718,5.79418803 30.28849,5.91002849 L30.408661,5.92951567 C30.480114,6.2034188 30.7421083,6.34849003 30.9099145,6.55851852 C31.6471795,7.4765812 32.4223362,8.38923077 33.0091168,9.40797721 C33.0026211,9.56495726 32.9766382,9.72193732 32.8965242,9.8594302 C32.6994872,9.61475783 32.5219373,9.35384615 32.3140741,9.11783476 C32.2610256,9.22501425 32.2079772,9.33219373 32.1549288,9.43937322 C32.205812,9.45669516 32.3075783,9.49242165 32.3584615,9.50974359 C32.2577778,9.75549858 32.1646724,10.0034188 32.0791453,10.2545869 C31.5389174,10.3292877 30.9932764,10.2556695 30.4519658,10.3043875 C30.4357265,10.5782906 30.4173219,10.8521937 30.3978348,11.1250142 C29.8402849,11.1867236 29.2794872,11.1174359 28.7208547,11.1694017 C28.7013675,11.4411396 28.6807977,11.7128775 28.6602279,11.985698 C28.0896866,11.9651282 27.5808547,12.27151 27.0135613,12.2747578 C26.9648433,12.5031909 26.9074644,12.7294587 26.8316809,12.9503134 C26.8522507,12.9849573 26.8912251,13.054245 26.9107123,13.0888889 C26.5859259,13.1062108 26.2091738,13.0358405 25.9471795,13.277265 C25.6905983,13.4905413 25.3982906,13.6637607 25.0550997,13.6680912 C25.1178917,13.5490028 25.1817664,13.4309972 25.2467236,13.3129915 C25.0550997,13.1376068 24.8158405,12.9275783 24.5408547,13.0585755 C24.6664387,13.1549288 24.7952707,13.2491168 24.9241026,13.3443875 C24.722735,13.6464387 24.4076923,13.3573789 24.1446154,13.3303134 C23.9291738,13.3768661 23.725641,13.4645584 23.519943,13.5403419 C22.8779487,13.2859259 22.2197151,13.0791453 21.5517379,12.9070085 C20.7451852,12.7413675 19.942963,12.508604 19.1147578,12.4966952 C19.4081481,12.2411966 19.8076353,12.2173789 20.1638177,12.1069516 C19.7610826,11.9802849 19.339943,11.9413105 18.9263818,11.8698575 C19.1494017,11.8016524 19.3778348,11.757265 19.6030199,11.6966382 C19.9472934,11.5992023 20.1941311,11.2700855 20.5654701,11.2527635 C20.9649573,11.2246154 21.3676923,11.2473504 21.7671795,11.2116239 C21.4748718,11.1813105 21.1814815,11.1596581 20.8891738,11.13151 C21.2431909,10.8781766 21.7076353,10.7569231 21.9003419,10.3260399 C22.5986325,10.3195442 23.0739031,9.7825641 23.6238746,9.44045584 C24.1727635,9.37225071 24.7454701,9.41014245 25.262963,9.17304843 C25.2607977,8.98792023 25.2597151,8.80279202 25.2597151,8.61874644 C25.7609687,8.80603989 26.1875214,9.12757835 26.6238177,9.42854701 C26.7277493,9.49675214 26.8381766,9.55413105 26.9475214,9.61259259 C26.9518519,9.17521368 26.5588604,8.89698006 26.322849,8.57327635 C26.5079772,8.50507123 26.6985185,8.4422792 26.8695726,8.33834758 C27.0124786,8.2365812 26.9193732,8.02980057 26.9356125,7.88689459 C26.71151,8.01031339 26.5501994,8.21168091 26.354245,8.37082621 C26.4754986,8.0622792 26.4939031,7.59891738 26.8717379,7.49823362 C27.3838177,7.33259259 27.7865527,6.96666667 28.2304274,6.67977208 C28.491339,6.46757835 28.871339,6.62022792 29.1290028,6.39396011 Z" id="Shape" fill="#FF7F00"></path>
                    <path d="M10.9106553,13.514359 C11.1033618,13.3811966 11.2939031,13.2469516 11.4844444,13.1116239 C11.4281481,13.3876923 11.3870085,13.6680912 11.3729345,13.9506553 C11.4249003,13.9679772 11.5309972,14.0047863 11.5840456,14.0231909 C11.4324786,14.1065527 11.3144729,14.2332194 11.217037,14.3739601 C11.1044444,15.0603419 11.1033618,15.7564672 11.0048433,16.4450142 C10.8359544,19.3031339 11.2430199,22.2240456 12.4035897,24.8548148 C12.2780057,24.8786325 12.1535043,24.9035328 12.0290028,24.928433 C12.0160114,24.8937892 11.9911111,24.8234188 11.9792023,24.7887749 C11.9499715,24.7129915 11.8925926,24.5603419 11.8644444,24.4845584 C11.6598291,24.5960684 11.6002849,24.8190883 11.5461538,25.0280342 C11.5017664,24.9078632 11.4606268,24.7855271 11.4184046,24.6653561 C11.1174359,24.6523647 10.8067236,24.6014815 10.5782906,24.3882051 C10.3660969,24.177094 10.0651282,24.1576068 9.79339031,24.0818234 C9.3614245,23.9042735 9.04638177,23.5340171 8.63282051,23.3261538 C8.34917379,23.2676923 8.0568661,23.2579487 7.77646724,23.1864957 C7.65196581,22.894188 7.64655271,22.4936182 7.33259259,22.3323077 C7.04136752,22.1764103 6.84324786,21.9122507 6.64945869,21.6535043 C6.62564103,21.8548718 6.60182336,22.0562393 6.57908832,22.2576068 C6.43509972,22.2651852 6.29111111,22.2738462 6.14712251,22.2814245 C6.06592593,21.4467236 6.11789174,20.6055271 6.09623932,19.768661 C6.08108262,19.7946439 6.04968661,19.8476923 6.03452991,19.8747578 C5.91760684,20.0642165 5.79310541,20.2525926 5.72490028,20.4658689 C5.60039886,20.8631909 5.48022792,21.2637607 5.31242165,21.6459259 C5.16193732,21.4488889 4.98980057,21.2659259 4.86529915,21.0494017 C4.83606838,20.8252991 4.85880342,20.591453 4.76136752,20.3814245 C4.57732194,20.8047293 4.09014245,20.7083761 3.72096866,20.6564103 C3.61811966,20.5080912 3.54450142,20.3283761 3.39618234,20.2179487 C3.12877493,20.1021083 2.84296296,20.0317379 2.57447293,19.9180627 C2.557151,19.7697436 2.54415954,19.6203419 2.50193732,19.4763533 C2.29082621,19.4038177 2.02774929,19.4373789 1.86319088,19.2619943 C1.79823362,19.1331624 1.76683761,18.991339 1.72245014,18.8560114 C1.3965812,18.8874074 1.41390313,19.2338462 1.37168091,19.4806838 C1.30131054,19.2955556 1.22877493,19.11151 1.15623932,18.9274644 L1.12809117,18.8538462 C1.44096866,18.1382336 1.59903134,17.3619943 1.96387464,16.6680342 C2.09162393,16.1245584 2.47378917,15.6806838 2.58205128,15.1339601 C2.61019943,15.1263818 2.66541311,15.1112251 2.69247863,15.1036467 C3.13851852,15.5107123 3.85737892,15.6676923 4.03059829,16.3215954 C4.73321937,16.3984615 5.44125356,16.2891168 6.14279202,16.3724786 C6.16011396,16.6095726 6.1774359,16.8466667 6.19367521,17.0848433 C6.4188604,17.2959544 6.63105413,17.5276353 6.8962963,17.6889459 C7.17452991,17.7777208 7.47549858,17.7430769 7.7645584,17.7712251 C8.03954416,18.2508262 8.63065527,18.0288889 9.08102564,18.0905983 C9.2380057,18.2215954 9.34410256,18.4760114 9.56603989,18.4922507 C9.61475783,18.3580057 9.6591453,18.2226781 9.70136752,18.0873504 C9.79122507,18.6557265 9.70678063,19.2338462 9.76307692,19.8054701 C9.80529915,19.7968091 9.88866097,19.7805698 9.93088319,19.7729915 C10.0066667,19.1006838 10.0727066,18.4262108 10.1690598,17.7560684 C10.1831339,17.2927066 10.2946439,16.7936182 10.0965242,16.3551567 C10.0835328,15.8138462 10.1744729,15.2779487 10.2394302,14.7420513 C10.2740741,14.4021083 10.4678632,14.1141311 10.6594872,13.8434758 C10.7287749,13.8380627 10.7980627,13.8337322 10.8673504,13.8294017 C10.8814245,13.7243875 10.8965812,13.6193732 10.9106553,13.514359 Z" id="Shape" fill="#FF7F00"></path>
                    <path d="M25.6689459,25.8898006 C26.1268946,25.3917949 26.5350427,24.8494017 26.9312821,24.3015954 C27.0644444,24.4217664 27.3275214,24.5127066 27.2495726,24.7411396 C27.1727066,25.2607977 27.185698,25.7858689 27.1846154,26.3098575 C27.1900285,26.6151567 26.948604,26.8609117 26.9626781,27.1683761 C26.9648433,28.1449003 26.9745869,29.1225071 26.9529345,30.100114 C26.9301994,30.3978348 27.1499715,30.6251852 27.2820513,30.8720228 C27.1802849,30.89151 27.0796011,30.9109972 26.9789174,30.931567 C27.0298006,31.0192593 27.0817664,31.1069516 27.1337322,31.1946439 C27.0016524,31.191396 26.86849,31.1729915 26.7364103,31.1870655 C26.608661,31.2682621 26.5166382,31.3938462 26.4137892,31.5031909 C26.6974359,31.4512251 26.9767521,31.3754416 27.2517379,31.2877493 C27.2030199,31.3905983 27.154302,31.4945299 27.1066667,31.5984615 C27.2030199,31.5703134 27.2982906,31.5410826 27.3935613,31.5107692 C27.011396,31.8160684 26.5978348,32.0791453 26.1561254,32.2870085 C25.8843875,32.4364103 25.6234758,32.6063818 25.3463248,32.7449573 C25.7869516,32.7893447 26.2189174,32.6854131 26.6508832,32.6161254 C26.6790313,32.8358974 26.6790313,33.0751567 26.8165242,33.2624501 C26.8695726,33.3209117 26.8154416,33.3956125 26.8165242,33.462735 C26.9107123,33.6641026 26.9583476,33.8806268 26.957265,34.1036467 C26.9442735,34.3775499 27.1196581,34.602735 27.1835328,34.8593162 C27.2430769,35.205755 26.9529345,35.4839886 26.9540171,35.8239316 C26.9464387,36.2905413 27.020057,36.7733903 26.8316809,37.217265 C26.854416,37.2692308 26.8988034,37.374245 26.9215385,37.4272934 C26.9291168,37.4478632 26.9453561,37.4879202 26.9540171,37.5074074 C26.117151,37.5950997 25.3008547,37.8516809 24.4520798,37.8581766 L24.3687179,37.9231339 C24.0363533,37.9566952 23.6964103,37.9307123 23.3759544,38.0346439 C22.7675214,38.0844444 22.1504274,38.0216524 21.5495726,38.1439886 C20.8621083,38.1234188 20.1670655,38.1992023 19.4871795,38.0790313 C18.9750997,38.0530484 18.4597721,38.0779487 17.9509402,38.0205698 C17.5124786,37.8874074 17.0556125,37.9588604 16.6095726,37.9675214 L16.5879202,37.8646724 C16.9776638,37.9188034 17.3717379,37.9220513 17.7647293,37.9480342 C18.1122507,38.0043305 18.3645014,37.6925356 18.691453,37.6373219 C19.0920228,37.5669516 19.5034188,37.6243305 19.9050712,37.5550427 C19.9505413,37.5095726 20.0436467,37.4186325 20.0901994,37.3731624 C20.6477493,37.1945299 21.2561823,37.3753276 21.8007407,37.1652991 C21.4045014,37.1025071 21.002849,37.1035897 20.6022792,37.0938462 C20.5708832,35.3962963 20.5871225,33.6954986 20.6011966,31.9968661 C20.765755,31.9633048 20.9303134,31.9308262 21.0948718,31.8994302 C21.1706553,31.4447293 21.114359,30.9846154 21.1295157,30.5277493 C21.1089459,30.3014815 21.3049003,30.1564103 21.4261538,29.9940171 C21.2269516,30.0145869 21.0288319,30.0329915 20.8296296,30.051396 C20.7690028,29.9961823 20.6499145,29.8879202 20.5903704,29.8327066 C21.4716239,29.4007407 22.2922507,28.8605128 23.0749858,28.2704843 C23.9822222,27.5278063 24.9316809,26.8121937 25.6689459,25.8898006 Z" id="Shape" fill="#FF7F00"></path>
                    <path d="M9.11783476,6.43834758 C9.93413105,6.2954416 10.4537892,7.05652422 10.9442165,7.57076923 C11.1033618,7.81219373 11.3523647,7.55669516 11.5504843,7.51230769 C11.7388604,7.64222222 11.8243875,7.87606838 11.9900285,8.03088319 C12.168661,8.11641026 12.3721937,8.1445584 12.5410826,8.25065527 C12.5995442,8.39139601 12.6309402,8.54079772 12.6688319,8.68911681 C12.8193162,8.72267806 12.9698006,8.7551567 13.1202849,8.78655271 C12.9968661,8.8785755 12.8701994,8.97817664 12.817151,9.12866097 C12.611453,9.60934473 12.4165812,10.0932764 12.2141311,10.5750427 C12.1264387,10.6432479 12.0376638,10.7092877 11.9488889,10.7753276 C11.9164103,10.6962963 11.8850142,10.6183476 11.8547009,10.5403989 C11.7810826,10.6768091 11.7096296,10.814302 11.637094,10.9517949 C11.6002849,10.805641 11.5623932,10.6594872 11.525584,10.514416 C11.4996011,10.6443305 11.4747009,10.774245 11.4487179,10.9052422 C11.1910541,10.5728775 10.90849,10.2394302 10.5360684,10.031567 C10.2545869,9.97202279 9.96660969,9.96336182 9.68296296,9.92980057 C9.64940171,9.77282051 9.61692308,9.61692308 9.58336182,9.45994302 C9.3614245,9.4382906 9.13623932,9.42638177 8.91754986,9.37766382 C8.71076923,9.1557265 8.66529915,8.77464387 8.33185185,8.67937322 C7.99732194,8.57002849 7.74723647,8.33401709 7.58159544,8.02871795 C7.44301994,8.12723647 7.30444444,8.22467236 7.16803419,8.32643875 C7.28062678,8.0157265 7.57076923,7.80245014 7.82410256,7.60541311 C8.03413105,7.26438746 8.37082621,7.02621083 8.63390313,6.72849003 C8.83851852,6.83675214 9.04421652,6.94609687 9.25099715,7.05219373 C9.32136752,6.83891738 9.16222222,6.64188034 9.11783476,6.43834758 Z" id="Shape" fill="#FD9D2B"></path>
                    <path d="M18.1566382,7.36615385 C18.7618234,7.20917379 19.4016524,7.32068376 20.0219943,7.29361823 C21.8278063,7.40729345 23.6325356,7.80569801 25.2597151,8.61874644 C25.2597151,8.80279202 25.2607977,8.98792023 25.262963,9.17304843 C24.7454701,9.41014245 24.1727635,9.37225071 23.6238746,9.44045584 C23.0739031,9.7825641 22.5986325,10.3195442 21.9003419,10.3260399 C21.7076353,10.7569231 21.2431909,10.8781766 20.8891738,11.13151 C21.1814815,11.1596581 21.4748718,11.1813105 21.7671795,11.2116239 C21.3676923,11.2473504 20.9649573,11.2246154 20.5654701,11.2527635 C20.1941311,11.2700855 19.9472934,11.5992023 19.6030199,11.6966382 C19.3778348,11.757265 19.1494017,11.8016524 18.9263818,11.8698575 C19.339943,11.9413105 19.7610826,11.9802849 20.1638177,12.1069516 C19.8076353,12.2173789 19.4081481,12.2411966 19.1147578,12.4966952 C18.374245,12.4912821 17.6348148,12.3386325 16.8953846,12.459886 C15.6308832,12.4826211 14.3988604,12.8193162 13.2047293,13.2068946 C12.6731624,13.497037 12.0961254,13.6973219 11.5840456,14.0231909 C11.5309972,14.0047863 11.4249003,13.9679772 11.3729345,13.9506553 C11.3870085,13.6680912 11.4281481,13.3876923 11.4844444,13.1116239 C11.6024501,12.4306553 11.8092308,11.7702564 12.0712251,11.13151 C12.1231909,11.3014815 12.1296866,11.5450712 12.3397151,11.6002849 C12.6753276,11.551567 12.9817094,11.3956695 13.2707692,11.2235328 C13.2426211,11.1823932 13.1863248,11.100114 13.157094,11.0589744 C13.7731054,10.7699145 14.4724786,10.5847863 14.9358405,10.0553846 C15.2357265,9.88324786 15.611396,9.84643875 15.8614815,9.58444444 C16.2165812,9.21418803 16.7676353,9.16005698 17.1281481,8.80062678 C17.399886,8.46609687 17.8643305,8.60683761 18.2378348,8.53321937 C18.2822222,8.41196581 18.3266097,8.29179487 18.3709972,8.17054131 C18.5723647,8.05470085 18.9523647,8.08393162 18.9750997,7.79487179 C18.8397721,7.58592593 18.50849,7.68660969 18.2908832,7.62706553 C18.73151,7.56319088 19.2327635,7.73207977 19.6290028,7.49173789 C19.1385755,7.43327635 18.6416524,7.46683761 18.1566382,7.36615385 Z" id="Shape" fill="#F67000"></path>
                    <path d="M13.1202849,8.78655271 C14.6435328,7.89663818 16.4060399,7.46575499 18.1566382,7.36615385 C18.6416524,7.46683761 19.1385755,7.43327635 19.6290028,7.49173789 C19.2327635,7.73207977 18.73151,7.56319088 18.2908832,7.62706553 C18.50849,7.68660969 18.8397721,7.58592593 18.9750997,7.79487179 C18.9523647,8.08393162 18.5723647,8.05470085 18.3709972,8.17054131 C18.3266097,8.29179487 18.2822222,8.41196581 18.2378348,8.53321937 C17.8643305,8.60683761 17.399886,8.46609687 17.1281481,8.80062678 C16.7676353,9.16005698 16.2165812,9.21418803 15.8614815,9.58444444 C15.611396,9.84643875 15.2357265,9.88324786 14.9358405,10.0553846 C14.4724786,10.5847863 13.7731054,10.7699145 13.157094,11.0589744 C13.1863248,11.100114 13.2426211,11.1823932 13.2707692,11.2235328 C12.9817094,11.3956695 12.6753276,11.551567 12.3397151,11.6002849 C12.1296866,11.5450712 12.1231909,11.3014815 12.0712251,11.13151 C12.119943,10.9463818 12.1643305,10.7590883 12.2141311,10.5750427 C12.4165812,10.0932764 12.611453,9.60934473 12.817151,9.12866097 C12.8701994,8.97817664 12.9968661,8.8785755 13.1202849,8.78655271 Z" id="Shape" fill="#ED6100"></path>
                    <path d="M7.16803419,8.32643875 C7.30444444,8.22467236 7.44301994,8.12723647 7.58159544,8.02871795 C7.74723647,8.33401709 7.99732194,8.57002849 8.33185185,8.67937322 C8.66529915,8.77464387 8.71076923,9.1557265 8.91754986,9.37766382 C9.13623932,9.42638177 9.3614245,9.4382906 9.58336182,9.45994302 C9.61692308,9.61692308 9.64940171,9.77282051 9.68296296,9.92980057 C9.96660969,9.96336182 10.2545869,9.97202279 10.5360684,10.031567 C10.90849,10.2394302 11.1910541,10.5728775 11.4487179,10.9052422 C11.4747009,10.774245 11.4996011,10.6443305 11.525584,10.514416 C11.5623932,10.6594872 11.6002849,10.805641 11.637094,10.9517949 C11.7096296,10.814302 11.7810826,10.6768091 11.8547009,10.5403989 C11.8850142,10.6183476 11.9164103,10.6962963 11.9488889,10.7753276 C12.0376638,10.7092877 12.1264387,10.6432479 12.2141311,10.5750427 C12.1643305,10.7590883 12.119943,10.9463818 12.0712251,11.13151 C11.8092308,11.7702564 11.6024501,12.4306553 11.4844444,13.1116239 C11.2939031,13.2469516 11.1033618,13.3811966 10.9106553,13.514359 C10.8965812,13.6193732 10.8814245,13.7243875 10.8673504,13.8294017 C10.7980627,13.8337322 10.7287749,13.8380627 10.6594872,13.8434758 C10.4678632,14.1141311 10.2740741,14.4021083 10.2394302,14.7420513 C10.1744729,15.2779487 10.0835328,15.8138462 10.0965242,16.3551567 C9.83452991,16.102906 9.95037037,15.7153276 9.9005698,15.3937892 C9.84752137,14.9174359 9.87891738,14.4378348 9.86592593,13.9603989 C9.88,13.8066667 9.73817664,13.7189744 9.64940171,13.6204558 C9.62125356,13.94849 9.60826211,14.2776068 9.59851852,14.605641 C9.35168091,14.6262108 9.11783476,14.5471795 8.89481481,14.4529915 C8.60034188,14.622963 8.26039886,14.6262108 7.93236467,14.5894017 C7.90746439,14.2180627 7.95293447,13.8369801 7.86524217,13.474302 C7.58267806,13.2112251 7.28062678,12.9698006 7.02296296,12.6818234 C6.85082621,12.4436467 6.5368661,12.5854701 6.2954416,12.5746439 C6.04210826,12.611453 5.80717949,12.459886 5.55709402,12.477208 C5.27669516,12.5789744 5.08507123,12.848547 4.7808547,12.9037607 C4.81766382,12.4696296 5.19766382,12.2422792 5.46290598,11.9499715 C5.68809117,11.7150427 5.47698006,11.4021652 5.44666667,11.1347578 C5.57441595,11.1185185 5.70324786,11.1022792 5.83099715,11.0860399 C5.81042735,10.7991453 5.76712251,10.4873504 5.50079772,10.3238746 C6.0182906,9.62883191 6.52495726,8.91213675 7.16803419,8.32643875 Z" id="Shape" fill="#FE9019"></path>
                    <path d="M26.1766952,8.56678063 C26.2135043,8.56894587 26.2860399,8.57219373 26.322849,8.57327635 C26.5588604,8.89698006 26.9518519,9.17521368 26.9475214,9.61259259 C26.8381766,9.55413105 26.7277493,9.49675214 26.6238177,9.42854701 C26.5577778,9.37008547 26.4939031,9.31054131 26.4300285,9.24991453 C26.4809117,9.21851852 26.5837607,9.15680912 26.6346439,9.12541311 C26.4711681,8.94786325 26.3174359,8.76273504 26.1766952,8.56678063 Z" id="Shape" fill="#F3B158"></path>
                    <path d="M32.1549288,9.43937322 C32.2079772,9.33219373 32.2610256,9.22501425 32.3140741,9.11783476 C32.5219373,9.35384615 32.6994872,9.61475783 32.8965242,9.8594302 C32.9766382,9.72193732 33.0026211,9.56495726 33.0091168,9.40797721 C33.2245584,9.49133903 33.2007407,9.77390313 33.3750427,9.9157265 C33.5807407,10.2978917 33.9250142,10.6410826 33.9639886,11.0849573 C34.002963,11.091453 34.0819943,11.1055271 34.1209687,11.1120228 C34.2443875,11.5483191 34.6265527,11.8860969 34.7109972,12.3321368 C34.6254701,12.634188 34.4046154,12.8539601 34.2194872,13.094302 C34.119886,13.4158405 34.1036467,13.7557835 34.0430199,14.0859829 C33.5666667,14.2061538 33.0838177,14.3079202 32.5901425,14.3090028 C32.4320798,14.3198291 32.1430199,14.3403989 32.1776638,14.5634188 C32.3476353,14.6088889 32.5219373,14.6413675 32.6951567,14.677094 C32.6009687,15.1231339 32.1192023,15.1101425 31.7619373,15.0722507 C31.6309402,15.1935043 31.5010256,15.3158405 31.3721937,15.437094 C31.3083191,15.3472365 31.2433618,15.2562963 31.1805698,15.1664387 C30.5223362,15.6059829 29.8218803,16.0260399 29.3433618,16.6723647 C29.134416,16.5099715 28.9265527,16.2804558 28.6309972,16.3616524 C28.3754986,16.2956125 28.2098575,16.0769231 28.0009117,15.9329345 C26.6173219,14.9499145 25.120057,14.1141311 23.519943,13.5403419 C23.725641,13.4645584 23.9291738,13.3768661 24.1446154,13.3303134 C24.4076923,13.3573789 24.722735,13.6464387 24.9241026,13.3443875 C24.7952707,13.2491168 24.6664387,13.1549288 24.5408547,13.0585755 C24.8158405,12.9275783 25.0550997,13.1376068 25.2467236,13.3129915 C25.1817664,13.4309972 25.1178917,13.5490028 25.0550997,13.6680912 C25.3982906,13.6637607 25.6905983,13.4905413 25.9471795,13.277265 C26.2091738,13.0358405 26.5859259,13.1062108 26.9107123,13.0888889 C26.8912251,13.054245 26.8522507,12.9849573 26.8316809,12.9503134 C26.9074644,12.7294587 26.9648433,12.5031909 27.0135613,12.2747578 C27.5808547,12.27151 28.0896866,11.9651282 28.6602279,11.985698 C28.6807977,11.7128775 28.7013675,11.4411396 28.7208547,11.1694017 C29.2794872,11.1174359 29.8402849,11.1867236 30.3978348,11.1250142 C30.4173219,10.8521937 30.4357265,10.5782906 30.4519658,10.3043875 C30.9932764,10.2556695 31.5389174,10.3292877 32.0791453,10.2545869 C32.1646724,10.0034188 32.2577778,9.75549858 32.3584615,9.50974359 C32.3075783,9.49242165 32.205812,9.45669516 32.1549288,9.43937322 Z" id="Shape" fill="#FF870A"></path>
                    <path d="M3.71122507,13.1148718 C4.2157265,12.1296866 4.88586895,11.2430199 5.50079772,10.3238746 C5.76712251,10.4873504 5.81042735,10.7991453 5.83099715,11.0860399 C5.70324786,11.1022792 5.57441595,11.1185185 5.44666667,11.1347578 C5.47698006,11.4021652 5.68809117,11.7150427 5.46290598,11.9499715 C5.19766382,12.2422792 4.81766382,12.4696296 4.7808547,12.9037607 C5.08507123,12.848547 5.27669516,12.5789744 5.55709402,12.477208 C5.80717949,12.459886 6.04210826,12.611453 6.2954416,12.5746439 C6.5368661,12.5854701 6.85082621,12.4436467 7.02296296,12.6818234 C7.28062678,12.9698006 7.58267806,13.2112251 7.86524217,13.474302 C7.95293447,13.8369801 7.90746439,14.2180627 7.93236467,14.5894017 C8.26039886,14.6262108 8.60034188,14.622963 8.89481481,14.4529915 C9.11783476,14.5471795 9.35168091,14.6262108 9.59851852,14.605641 C9.60826211,14.2776068 9.62125356,13.94849 9.64940171,13.6204558 C9.73817664,13.7189744 9.88,13.8066667 9.86592593,13.9603989 C9.87891738,14.4378348 9.84752137,14.9174359 9.9005698,15.3937892 C9.95037037,15.7153276 9.83452991,16.102906 10.0965242,16.3551567 C10.2946439,16.7936182 10.1831339,17.2927066 10.1690598,17.7560684 C10.0727066,18.4262108 10.0066667,19.1006838 9.93088319,19.7729915 C9.88866097,19.7805698 9.80529915,19.7968091 9.76307692,19.8054701 C9.70678063,19.2338462 9.79122507,18.6557265 9.70136752,18.0873504 C9.6591453,18.2226781 9.61475783,18.3580057 9.56603989,18.4922507 C9.34410256,18.4760114 9.2380057,18.2215954 9.08102564,18.0905983 C8.63065527,18.0288889 8.03954416,18.2508262 7.7645584,17.7712251 C7.47549858,17.7430769 7.17452991,17.7777208 6.8962963,17.6889459 C6.63105413,17.5276353 6.4188604,17.2959544 6.19367521,17.0848433 C6.1774359,16.8466667 6.16011396,16.6095726 6.14279202,16.3724786 C5.44125356,16.2891168 4.73321937,16.3984615 4.03059829,16.3215954 C3.85737892,15.6676923 3.13851852,15.5107123 2.69247863,15.1036467 C2.71846154,14.962906 2.74444444,14.8232479 2.76934473,14.6825071 C3.19264957,14.234302 3.31498575,13.5890598 3.71122507,13.1148718 Z" id="Shape" fill="#FF8508"></path>
                    <path d="M34.7109972,12.3321368 C34.8917949,12.5378348 35.0098006,12.785755 35.1072365,13.0390883 C35.299943,13.5316809 35.6355556,13.9788034 35.6896866,14.5179487 C35.7308262,14.5634188 35.8120228,14.6554416 35.8520798,14.7009117 C36.0307123,15.2422222 36.2407407,15.7727066 36.4139601,16.3150997 C36.3879772,16.7037607 36.3305983,17.1021652 36.1119088,17.4345299 C36.0924217,17.140057 36.0761823,16.845584 36.0523647,16.5521937 C35.9538462,16.6160684 35.760057,16.6312251 35.7784615,16.7903704 C35.7546439,17.0837607 35.7568091,17.3825641 35.6615385,17.6651282 C35.6193162,17.4139601 35.5868376,17.1606268 35.5576068,16.9083761 C35.2241595,17.0501994 34.8625641,17.0935043 34.5193732,17.202849 C34.2129915,17.3933903 33.9239316,17.6131624 33.6435328,17.8405128 C33.5168661,17.9433618 33.5255271,18.1241595 33.4822222,18.2681481 C33.0838177,18.3244444 32.5674074,18.159886 32.2859259,18.5301425 C32.0791453,18.8018803 31.7489459,18.9079772 31.4490598,19.0422222 C30.842792,18.4868376 30.3404558,17.8275214 29.6843875,17.3251852 C29.6259259,17.2710541 29.5079202,17.162792 29.4494587,17.108661 C29.3758405,17.0415385 29.3022222,16.9754986 29.2275214,16.9116239 L29.1907123,16.8802279 C28.9839316,16.7308262 28.7803989,16.5727635 28.6309972,16.3616524 C28.9265527,16.2804558 29.134416,16.5099715 29.3433618,16.6723647 C29.8218803,16.0260399 30.5223362,15.6059829 31.1805698,15.1664387 C31.2433618,15.2562963 31.3083191,15.3472365 31.3721937,15.437094 C31.5010256,15.3158405 31.6309402,15.1935043 31.7619373,15.0722507 C32.1192023,15.1101425 32.6009687,15.1231339 32.6951567,14.677094 C32.5219373,14.6413675 32.3476353,14.6088889 32.1776638,14.5634188 C32.1430199,14.3403989 32.4320798,14.3198291 32.5901425,14.3090028 C33.0838177,14.3079202 33.5666667,14.2061538 34.0430199,14.0859829 C34.1036467,13.7557835 34.119886,13.4158405 34.2194872,13.094302 C34.4046154,12.8539601 34.6254701,12.634188 34.7109972,12.3321368 Z" id="Shape" fill="#FE911A"></path>
                    <path d="M16.3410826,31.5064387 C16.8574929,31.4414815 17.3316809,31.2195442 17.7842165,30.9727066 C17.9292877,30.9867806 18.0754416,30.9921937 18.2226781,30.9986895 C18.1360684,31.1946439 17.891396,31.1849003 17.7214245,31.2639316 C17.4680912,31.3234758 17.2613105,31.4847863 17.0978348,31.6818234 C17.3425071,31.7078063 17.5882621,31.7305413 17.8350997,31.7532764 C17.6369801,32.9755556 17.8740741,34.2216524 17.6954416,35.4460969 C17.605584,35.9863248 17.6921937,36.5352137 17.6185755,37.0776068 C17.4464387,37.114416 17.274302,37.1512251 17.1021652,37.1923647 C18.0765242,37.4532764 19.0952707,37.3222792 20.0901994,37.3731624 C20.0436467,37.4186325 19.9505413,37.5095726 19.9050712,37.5550427 C19.5034188,37.6243305 19.0920228,37.5669516 18.691453,37.6373219 C18.3645014,37.6925356 18.1122507,38.0043305 17.7647293,37.9480342 C17.3717379,37.9220513 16.9776638,37.9188034 16.5879202,37.8646724 C15.9859829,37.7477493 15.382963,37.6394872 14.7766952,37.5463818 L14.7647863,37.4597721 L14.7853561,37.3731624 C14.8232479,37.3396011 14.900114,37.2703134 14.9380057,37.2367521 C15.2021652,37.2529915 15.4749858,37.342849 15.7369801,37.2843875 C15.9502564,37.2237607 15.888547,36.9704274 15.9091168,36.8047863 C15.8993732,35.2880342 15.8993732,33.7701994 15.9004558,32.2545299 C15.8582336,31.9698006 16.1613675,31.8658689 16.3421652,31.722963 C16.3096866,31.682906 16.245812,31.602792 16.214416,31.562735 C16.245812,31.548661 16.308604,31.5205128 16.3410826,31.5064387 Z" id="Shape" fill="#FE911A"></path>
                    <path d="M36.4139601,16.3150997 C36.5871795,16.6637037 36.6521368,17.0610256 36.7766382,17.4312821 C36.8329345,17.7549858 37.0158974,18.0537892 37.0007407,18.3872365 C36.9455271,18.8581766 37.011567,19.3291168 37.0927635,19.7935613 C37.0278063,19.7989744 36.8978917,19.8098006 36.8329345,19.8152137 C36.7625641,19.3496866 36.7311681,18.8776638 36.788547,18.4099715 C36.3046154,18.7639886 36.4615954,19.4178917 36.1508832,19.8704274 C35.8997151,19.3453561 36.0924217,18.7401709 36.0144729,18.1804558 C35.9018803,18.5864387 35.8282621,19.0010826 35.7254131,19.4103134 C35.6333903,19.3854131 35.5424501,19.3615954 35.4525926,19.3388604 C35.2923647,19.4936752 35.1397151,19.6636467 34.9426781,19.7740741 C34.5139601,19.9418803 34.4381766,20.5438177 33.9250142,20.5698006 C33.8979487,20.394416 33.8730484,20.2179487 33.8459829,20.0425641 C33.4962963,20.2764103 33.3003419,20.6618234 32.9874644,20.9368091 C32.4439886,20.3305413 32.0076923,19.6365812 31.4490598,19.0422222 C31.7489459,18.9079772 32.0791453,18.8018803 32.2859259,18.5301425 C32.5674074,18.159886 33.0838177,18.3244444 33.4822222,18.2681481 C33.5255271,18.1241595 33.5168661,17.9433618 33.6435328,17.8405128 C33.9239316,17.6131624 34.2129915,17.3933903 34.5193732,17.202849 C34.8625641,17.0935043 35.2241595,17.0501994 35.5576068,16.9083761 C35.5868376,17.1606268 35.6193162,17.4139601 35.6615385,17.6651282 C35.7568091,17.3825641 35.7546439,17.0837607 35.7784615,16.7903704 C35.760057,16.6312251 35.9538462,16.6160684 36.0523647,16.5521937 C36.0761823,16.845584 36.0924217,17.140057 36.1119088,17.4345299 C36.3305983,17.1021652 36.3879772,16.7037607 36.4139601,16.3150997 Z" id="Shape" fill="#FD9C29"></path>
                    <path d="M29.2275214,16.9116239 C29.3958141,16.9754986 29.5616677,17.0415385 29.7275214,17.108661 C29.4445945,17.5731054 29.5519116,18.0592023 29.3494726,18.5301425 C29.1811799,17.9931624 29.2519116,17.4507692 29.2275214,16.9116239 Z" id="Shape" fill="#DB7A21"></path>
                    <path d="M29.6843875,17.3251852 C30.3404558,17.8275214 30.842792,18.4868376 31.4490598,19.0422222 C32.0076923,19.6365812 32.4439886,20.3305413 32.9874644,20.9368091 C32.9376638,21.4326496 32.9419943,21.9317379 32.9333333,22.4297436 C32.5966382,24.6155556 31.7099715,26.6985185 30.4249003,28.4935043 C30.2192023,28.5162393 30.0135043,28.5541311 29.8067236,28.5454701 C29.4483761,28.428547 29.5111681,27.9478632 29.6367521,27.677208 C29.8521937,27.2517379 29.7699145,26.7678063 29.7774929,26.3098575 C29.7839886,24.7184046 29.7634188,23.1269516 29.7774929,21.5365812 C29.8164672,21.2691738 29.6010256,21.0894587 29.4786895,20.8815954 C29.3671795,20.0555556 29.5349858,19.2295157 29.5750427,18.4045584 C29.6010256,18.0418803 29.7709972,17.6921937 29.6843875,17.3251852 Z" id="Shape" fill="#EF6500"></path>
                    <path d="M35.7254131,19.4103134 C35.8282621,19.0010826 35.9018803,18.5864387 36.0144729,18.1804558 C36.0924217,18.7401709 35.8997151,19.3453561 36.1508832,19.8704274 C36.4615954,19.4178917 36.3046154,18.7639886 36.788547,18.4099715 C36.7311681,18.8776638 36.7625641,19.3496866 36.8329345,19.8152137 C36.8978917,19.8098006 37.0278063,19.7989744 37.0927635,19.7935613 C37.011567,19.3291168 36.9455271,18.8581766 37.0007407,18.3872365 C37.2573219,18.9188034 37.2962963,19.5478063 37.4121368,20.1291738 C37.4814245,20.5806268 37.6698006,21.0288319 37.6015954,21.4911111 C37.3623362,22.0941311 37.8116239,22.7967521 37.4262108,23.3423932 C37.3969801,23.1475214 37.3645014,22.9548148 37.3331054,22.7621083 C37.0418803,22.8303134 36.725755,22.8703704 36.4940741,23.0760684 C36.2006838,23.2687749 35.948433,23.622792 35.5597721,23.5708262 C35.4666667,23.4181766 35.371396,23.2666097 35.277208,23.1161254 C35.2003419,23.2005698 35.1245584,23.2860969 35.0487749,23.3727066 C35.2382336,23.6509402 35.6149858,23.9930484 35.3616524,24.3459829 C35.214416,24.2550427 35.0682621,24.1651852 34.9101994,24.0958974 L34.8679772,24.0764103 C34.4977208,23.3434758 34.0668376,22.6462678 33.6413675,21.945812 C33.6619373,21.7108832 33.6586895,21.4640456 33.5179487,21.2626781 C33.4205128,21.051567 33.1476923,21.0786325 32.9874644,20.9368091 C33.3003419,20.6618234 33.4962963,20.2764103 33.8459829,20.0425641 C33.8730484,20.2179487 33.8979487,20.394416 33.9250142,20.5698006 C34.4381766,20.5438177 34.5139601,19.9418803 34.9426781,19.7740741 C35.1397151,19.6636467 35.2923647,19.4936752 35.4525926,19.3388604 C35.5424501,19.3615954 35.6333903,19.3854131 35.7254131,19.4103134 Z" id="Shape" fill="#FDAA3F"></path>
                    <path d="M1.37168091,19.4806838 C1.41390313,19.2338462 1.3965812,18.8874074 1.72245014,18.8560114 C1.76683761,18.991339 1.79823362,19.1331624 1.86319088,19.2619943 C2.02774929,19.4373789 2.29082621,19.4038177 2.50193732,19.4763533 C2.54415954,19.6203419 2.557151,19.7697436 2.57447293,19.9180627 C2.84296296,20.0317379 3.12877493,20.1021083 3.39618234,20.2179487 C3.54450142,20.3283761 3.61811966,20.5080912 3.72096866,20.6564103 C4.09014245,20.7083761 4.57732194,20.8047293 4.76136752,20.3814245 C4.85880342,20.591453 4.83606838,20.8252991 4.86529915,21.0494017 C4.98980057,21.2659259 5.16193732,21.4488889 5.31242165,21.6459259 C5.23555556,22.182906 5.06991453,22.7036467 5.02011396,23.2449573 C4.9811396,23.2720228 4.90210826,23.3283191 4.8631339,23.3553846 C4.8425641,23.7050712 4.84797721,24.0547578 4.83282051,24.4044444 C4.77760684,24.3752137 4.66717949,24.3178348 4.61196581,24.288604 C4.51561254,23.9616524 4.54051282,23.6119658 4.50262108,23.2752707 C4.46689459,23.4582336 4.43225071,23.6411966 4.39760684,23.8252422 C3.9385755,23.8176638 3.55099715,23.5069516 3.45680912,23.0554986 C3.00210826,22.8606268 2.49435897,22.8476353 2.03965812,22.6549288 C1.8642735,22.5964672 1.8382906,22.3918519 1.75492877,22.2521937 C1.45504274,22.1374359 1.14108262,22.0378348 0.89965812,21.8180627 C0.881253561,21.8841026 0.844444444,22.017265 0.826039886,22.0843875 C0.709116809,21.8841026 0.595441595,21.6816524 0.495840456,21.4737892 C0.567293447,20.6694017 0.896410256,19.9137322 1.0577208,19.1288319 C1.08262108,19.0790313 1.13242165,18.9783476 1.15623932,18.9274644 C1.22877493,19.11151 1.30131054,19.2955556 1.37168091,19.4806838 Z" id="Shape" fill="#F87300"></path>
                    <path d="M6.14696056,19.8747578 C6.26354365,20.5470655 6.25173777,21.2334473 6.09530983,21.9025071 C5.87542528,21.4824501 6.0938341,21.0331624 5.98167822,20.6087749 C5.91674587,20.5730484 5.7883569,20.5015954 5.72490028,20.4658689 C5.81787161,20.2525926 5.98758116,20.0642165 6.14696056,19.8747578 Z" id="Shape" fill="#FFE4B3"></path>
                    <path d="M32.9874644,20.9368091 C33.1476923,21.0786325 33.4205128,21.051567 33.5179487,21.2626781 C33.6586895,21.4640456 33.6619373,21.7108832 33.6413675,21.945812 C33.4768091,21.6794872 33.2830199,21.4326496 33.0784046,21.1944729 C33.051339,21.6091168 33.0221083,22.0237607 32.9333333,22.4297436 C32.9419943,21.9317379 32.9376638,21.4326496 32.9874644,20.9368091 Z" id="Shape" fill="#EDA35D"></path>
                    <path d="M0.172136752,23.2676923 C0.244672365,22.6668376 0.355099715,22.0616524 0.495840456,21.4737892 C0.595441595,21.6816524 0.709116809,21.8841026 0.826039886,22.0843875 C0.844444444,22.017265 0.881253561,21.8841026 0.89965812,21.8180627 C1.14108262,22.0378348 1.45504274,22.1374359 1.75492877,22.2521937 C1.8382906,22.3918519 1.8642735,22.5964672 2.03965812,22.6549288 C2.49435897,22.8476353 3.00210826,22.8606268 3.45680912,23.0554986 C3.55099715,23.5069516 3.9385755,23.8176638 4.39760684,23.8252422 C4.43225071,23.6411966 4.46689459,23.4582336 4.50262108,23.2752707 C4.54051282,23.6119658 4.51561254,23.9616524 4.61196581,24.288604 C4.66717949,24.3178348 4.77760684,24.3752137 4.83282051,24.4044444 C4.82524217,25.0767521 4.83498575,25.7501425 4.85122507,26.4224501 C4.94433048,27.1727066 5.11430199,27.9110541 5.2994302,28.642906 C5.24638177,28.7944729 5.19441595,28.9460399 5.14136752,29.0986895 C4.99954416,29.0651282 4.86638177,29.0077493 4.74188034,28.9330484 C4.47122507,28.7728205 4.11937322,28.8128775 3.87145299,28.602849 C3.87145299,28.5075783 3.92233618,28.419886 3.94507123,28.3289459 C3.59430199,28.1817094 3.21321937,28.128661 2.86136752,27.985755 C2.2237037,27.6393162 1.77549858,27.0103134 1.10210826,26.7212536 C1.037151,26.8241026 0.971111111,26.9269516 0.906153846,27.0298006 C0.753504274,26.5848433 0.687464387,26.1193162 0.608433048,25.657037 C0.337777778,26.1626211 0.442792023,26.7526496 0.391908832,27.3015385 C0.319373219,27.1997721 0.231680912,27.0958405 0.245754986,26.9615954 C0.22951567,25.7306553 0.241424501,24.4975499 0.172136752,23.2676923 Z" id="Shape" fill="#EB5E00"></path>
                    <path d="M37.6015954,21.4911111 C37.8235328,21.5712251 37.6817094,21.9025071 37.7369231,22.0865527 C37.8516809,22.9104274 37.8289459,23.7451282 37.919886,24.5700855 C37.8939031,25.3051852 37.8733333,26.0359544 37.8473504,26.7732194 C37.8072934,26.6097436 37.7639886,26.4473504 37.7174359,26.2860399 C37.6340741,26.7602279 37.6708832,27.2441595 37.6254131,27.7215954 C37.5366382,27.5407977 37.4565242,27.3556695 37.3818234,27.1694587 C37.3590883,27.2452422 37.3147009,27.3978917 37.2919658,27.4747578 C37.1891168,27.3350997 37.0851852,27.1976068 36.9812536,27.060114 C36.7603989,27.4022222 36.6737892,27.8049573 36.5287179,28.1806268 C36.2234188,27.3047863 35.9159544,26.4300285 35.5608547,25.5725926 C35.5316239,25.5877493 35.474245,25.6180627 35.4450142,25.6332194 C35.4493447,25.451339 35.442849,25.2662108 35.3898006,25.0908262 C35.7254131,24.7043305 36.1725356,24.4423362 36.5178917,24.065584 C36.7203419,23.8403989 37.0267236,23.774359 37.2941311,23.6585185 C37.3374359,23.5524217 37.3818234,23.4463248 37.4262108,23.3423932 C37.8116239,22.7967521 37.3623362,22.0941311 37.6015954,21.4911111 Z" id="Shape" fill="#FCC164"></path>
                    <path d="M6.64945869,21.6535043 C6.84324786,21.9122507 7.04136752,22.1764103 7.33259259,22.3323077 C7.64655271,22.4936182 7.65196581,22.894188 7.77646724,23.1864957 C8.0568661,23.2579487 8.34917379,23.2676923 8.63282051,23.3261538 C9.04638177,23.5340171 9.3614245,23.9042735 9.79339031,24.0818234 C10.0651282,24.1576068 10.3660969,24.177094 10.5782906,24.3882051 C10.8067236,24.6014815 11.1174359,24.6523647 11.4184046,24.6653561 C11.4606268,24.7855271 11.5017664,24.9078632 11.5461538,25.0280342 C11.7626781,25.1103134 11.89151,24.96849 11.9792023,24.7887749 C11.9911111,24.8234188 12.0160114,24.8937892 12.0290028,24.928433 C12.1535043,24.9035328 12.2780057,24.8786325 12.4035897,24.8548148 C12.9968661,26.1864387 13.742792,27.4812536 14.7615385,28.5346439 C15.0635897,28.9893447 15.5150427,29.3108832 15.9091168,29.6778917 C16.4601709,30.2094587 17.1508832,30.5537322 17.7842165,30.9727066 C17.3316809,31.2195442 16.8574929,31.4414815 16.3410826,31.5064387 C16.5586895,31.3646154 16.7784615,31.2271225 16.9993162,31.0896296 C16.7297436,30.882849 16.3898006,30.8666097 16.07151,30.7984046 C15.7911111,30.7377778 15.7185755,30.4194872 15.5843305,30.2083761 C15.0408547,30.1499145 14.6067236,29.7709972 14.0719088,29.6822222 C13.7222222,29.6345869 13.4169231,29.4516239 13.18849,29.1874644 C13.2014815,29.1441595 13.228547,29.0553846 13.2426211,29.0120798 C12.7835897,28.8204558 12.3039886,28.6645584 11.8904274,28.3809117 C11.5277493,28.1297436 11.1109402,27.9825071 10.702792,27.8255271 C10.4927635,27.7562393 10.5111681,27.4455271 10.2968091,27.3816524 C9.92980057,27.2539031 9.54547009,27.1326496 9.29321937,26.8154416 C9.2380057,26.8338462 9.18279202,26.8522507 9.12757835,26.8717379 C8.78871795,26.4159544 8.23116809,26.2698006 7.73207977,26.0641026 C7.62165242,26.2373219 7.50797721,26.4083761 7.38888889,26.5761823 C6.73823362,25.2294017 6.28353276,23.7732764 6.14712251,22.2814245 C6.29111111,22.2738462 6.43509972,22.2651852 6.57908832,22.2576068 C6.60182336,22.0562393 6.62564103,21.8548718 6.64945869,21.6535043 Z" id="Shape" fill="#F77200"></path>
                    <path d="M36.4940741,23.0760684 C36.725755,22.8703704 37.0418803,22.8303134 37.3331054,22.7621083 C37.3645014,22.9548148 37.3969801,23.1475214 37.4262108,23.3423932 C37.3818234,23.4463248 37.3374359,23.5524217 37.2941311,23.6585185 C37.0267236,23.774359 36.7203419,23.8403989 36.5178917,24.065584 C36.1725356,24.4423362 35.7254131,24.7043305 35.3898006,25.0908262 C35.2079202,24.7703704 35.0108832,24.454245 34.9101994,24.0958974 C35.0682621,24.1651852 35.214416,24.2550427 35.3616524,24.3459829 C35.6149858,23.9930484 35.2382336,23.6509402 35.0487749,23.3727066 C35.1245584,23.2860969 35.2003419,23.2005698 35.277208,23.1161254 C35.371396,23.2666097 35.4666667,23.4181766 35.5597721,23.5708262 C35.948433,23.622792 36.2006838,23.2687749 36.4940741,23.0760684 Z" id="Shape" fill="#FEB754"></path>
                    <path d="M0.0714529915,26.948604 C0.0205698006,25.7219943 0.00974358974,24.4867236 0.172136752,23.2676923 C0.241424501,24.4975499 0.22951567,25.7306553 0.245754986,26.9615954 C0.231680912,27.0958405 0.319373219,27.1997721 0.391908832,27.3015385 C0.442792023,26.7526496 0.337777778,26.1626211 0.608433048,25.657037 C0.687464387,26.1193162 0.753504274,26.5848433 0.906153846,27.0298006 C0.971111111,26.9269516 1.037151,26.8241026 1.10210826,26.7212536 C1.77549858,27.0103134 2.2237037,27.6393162 2.86136752,27.985755 C3.21321937,28.128661 3.59430199,28.1817094 3.94507123,28.3289459 C3.92233618,28.419886 3.87145299,28.5075783 3.87145299,28.602849 C4.11937322,28.8128775 4.47122507,28.7728205 4.74188034,28.9330484 C4.86638177,29.0077493 4.99954416,29.0651282 5.14136752,29.0986895 C5.19441595,28.9460399 5.24638177,28.7944729 5.2994302,28.642906 C5.32757835,28.7511681 5.35789174,28.8583476 5.38820513,28.9666097 C5.4022792,28.9482051 5.43042735,28.911396 5.44450142,28.8929915 C5.83099715,30.0633048 6.35390313,31.2725926 7.31635328,32.0823932 C6.96991453,32.1765812 6.61048433,32.102963 6.26729345,32.0336752 C5.78119658,31.9232479 5.2842735,31.8777778 4.79817664,31.768433 C3.91692308,31.6136182 3.06598291,31.3321368 2.20096866,31.1123647 C1.94980057,31.04849 1.68780627,31.0116809 1.45504274,30.8925926 C0.535897436,29.7937322 0.251168091,28.3321937 0.0714529915,26.948604 Z" id="Shape" fill="#E04B00"></path>
                    <path d="M35.4450142,25.6332194 C35.474245,25.6180627 35.5316239,25.5877493 35.5608547,25.5725926 C35.9159544,26.4300285 36.2234188,27.3047863 36.5287179,28.1806268 C36.7950427,29.0672934 37.0451282,29.9593732 37.2324217,30.8666097 C37.2757265,31.0430769 37.2876353,31.2271225 37.2280912,31.4035897 C36.7463248,32.5338462 35.8076923,33.3945299 34.865812,34.1437037 C34.8419943,34.1491168 34.7954416,34.159943 34.7727066,34.1653561 C34.7066667,33.9564103 34.5345299,33.8254131 34.3623932,33.70849 C34.3147578,33.1704274 34.3937892,32.6377778 34.4663248,32.1062108 C34.46849,31.4707123 34.280114,30.8482051 34.2996011,30.2094587 C34.2747009,29.6053561 34.4933903,29.0131624 34.4046154,28.4090598 C34.3288319,28.3451852 34.1794302,28.2163533 34.1036467,28.151396 C34.7012536,27.4033048 35.197094,26.5642735 35.4450142,25.6332194 Z" id="Shape" fill="#E04B00"></path>
                    <path d="M4.8631339,23.3553846 C4.90210826,23.3283191 4.9811396,23.2720228 5.02011396,23.2449573 C4.80575499,24.7054131 4.84472934,26.1994302 5.17384615,27.6403989 C5.2637037,28.057208 5.33948718,28.4783476 5.44450142,28.8929915 C5.43042735,28.911396 5.4022792,28.9482051 5.38820513,28.9666097 C5.35789174,28.8583476 5.32757835,28.7511681 5.2994302,28.642906 C5.11430199,27.9110541 4.94433048,27.1727066 4.85122507,26.4224501 C4.83498575,25.7501425 4.82524217,25.0767521 4.83282051,24.4044444 C4.84797721,24.0547578 4.8425641,23.7050712 4.8631339,23.3553846 Z" id="Shape" fill="#F7A774"></path>
                    <path d="M11.5461538,25.0280342 C11.6086538,24.8190883 11.6774038,24.5960684 11.9136538,24.4845584 C11.9461538,24.5603419 12.0124038,24.7129915 12.0461538,24.7887749 C11.9449038,24.96849 11.7961538,25.1103134 11.5461538,25.0280342 Z" id="Shape" fill="#EB8116"></path>
                    <path d="M7.73207977,26.0641026 C8.23116809,26.2698006 8.78871795,26.4159544 9.12757835,26.8717379 C9.18279202,26.8522507 9.2380057,26.8338462 9.29321937,26.8154416 C9.54547009,27.1326496 9.92980057,27.2539031 10.2968091,27.3816524 C10.5111681,27.4455271 10.4927635,27.7562393 10.702792,27.8255271 C11.1109402,27.9825071 11.5277493,28.1297436 11.8904274,28.3809117 C12.3039886,28.6645584 12.7835897,28.8204558 13.2426211,29.0120798 C13.228547,29.0553846 13.2014815,29.1441595 13.18849,29.1874644 C13.4169231,29.4516239 13.7222222,29.6345869 14.0719088,29.6822222 C14.6067236,29.7709972 15.0408547,30.1499145 15.5843305,30.2083761 C15.7185755,30.4194872 15.7911111,30.7377778 16.07151,30.7984046 C16.3898006,30.8666097 16.7297436,30.882849 16.9993162,31.0896296 C16.7784615,31.2271225 16.5586895,31.3646154 16.3410826,31.5064387 C16.308604,31.5205128 16.245812,31.548661 16.214416,31.562735 C15.0094587,31.9026781 13.7666097,32.0748148 12.5291738,32.2512821 C12.4858689,32.2317949 12.3981766,32.1928205 12.3537892,32.1722507 C10.1290028,30.9283191 8.4985755,28.8345299 7.38888889,26.5761823 C7.50797721,26.4083761 7.62165242,26.2373219 7.73207977,26.0641026 Z" id="Shape" fill="#EF6400"></path>
                    <path d="M37.6254131,27.7215954 C37.6708832,27.2441595 37.6340741,26.7602279 37.7174359,26.2860399 C37.7639886,26.4473504 37.8072934,26.6097436 37.8473504,26.7732194 C37.865755,27.891567 37.6351567,28.9882621 37.4954986,30.0903704 C37.2356695,30.4790313 37.5074074,31.0582336 37.2280912,31.4035897 C37.2876353,31.2271225 37.2757265,31.0430769 37.2324217,30.8666097 C37.0451282,29.9593732 36.7950427,29.0672934 36.5287179,28.1806268 C36.6737892,27.8049573 36.7603989,27.4022222 36.9812536,27.060114 C37.0851852,27.1976068 37.1891168,27.3350997 37.2919658,27.4747578 C37.3147009,27.3978917 37.3590883,27.2452422 37.3818234,27.1694587 C37.4565242,27.3556695 37.5366382,27.5407977 37.6254131,27.7215954 Z" id="Shape" fill="#FCD485"></path>
                    <path d="M31.4750427,30.5613105 C32.4645584,29.8976638 33.3696296,29.0932764 34.1036467,28.151396 C34.1794302,28.2163533 34.3288319,28.3451852 34.4046154,28.4090598 C34.4933903,29.0131624 34.2747009,29.6053561 34.2996011,30.2094587 C34.280114,30.8482051 34.46849,31.4707123 34.4663248,32.1062108 C34.3937892,32.6377778 34.3147578,33.1704274 34.3623932,33.70849 C34.5345299,33.8254131 34.7066667,33.9564103 34.7727066,34.1653561 C34.5074644,34.4674074 34.0960684,34.6135613 33.7918519,34.8852991 C33.4280912,34.9881481 33.1671795,35.2880342 32.8131624,35.4147009 C32.6117949,35.4904843 32.4234188,35.5976638 32.2426211,35.7135043 L32.125698,35.6388034 C32.0131054,35.3962963 31.9135043,35.1386325 31.9178348,34.8668946 C31.9135043,34.1068946 31.9264957,33.345812 31.9124217,32.5847293 C31.8896866,32.2815954 32.0520798,32.000114 32.0196011,31.6980627 C32.0509972,31.4382336 32.2491168,31.1751567 32.0834758,30.9196581 C31.9903704,30.6663248 31.6904843,30.6479202 31.4750427,30.5613105 Z" id="Shape" fill="#E75700"></path>
                    <path d="M18.8625071,30.6619943 C19.4406268,30.3902564 20.0360684,30.1520798 20.5903704,29.8327066 C20.6499145,29.8879202 20.7690028,29.9961823 20.8296296,30.051396 C21.0288319,30.0329915 21.2269516,30.0145869 21.4261538,29.9940171 C21.3049003,30.1564103 21.1089459,30.3014815 21.1295157,30.5277493 C21.114359,30.9846154 21.1706553,31.4447293 21.0948718,31.8994302 C20.9303134,31.9308262 20.765755,31.9633048 20.6011966,31.9968661 C20.5871225,33.6954986 20.5708832,35.3962963 20.6022792,37.0938462 C21.002849,37.1035897 21.4045014,37.1025071 21.8007407,37.1652991 C21.2561823,37.3753276 20.6477493,37.1945299 20.0901994,37.3731624 C19.0952707,37.3222792 18.0765242,37.4532764 17.1021652,37.1923647 C17.274302,37.1512251 17.4464387,37.114416 17.6185755,37.0776068 C17.6921937,36.5352137 17.605584,35.9863248 17.6954416,35.4460969 C17.8740741,34.2216524 17.6369801,32.9755556 17.8350997,31.7532764 C17.5882621,31.7305413 17.3425071,31.7078063 17.0978348,31.6818234 C17.2613105,31.4847863 17.4680912,31.3234758 17.7214245,31.2639316 C17.891396,31.1849003 18.1360684,31.1946439 18.2226781,30.9986895 C18.3482621,30.7702564 18.6535613,30.7789174 18.8625071,30.6619943 Z" id="Shape" fill="#FE890E"></path>
                    <path d="M27.2041026,32.4862108 C28.728433,32.1159544 30.1834758,31.4490598 31.4750427,30.5613105 C31.6904843,30.6479202 31.9903704,30.6663248 32.0834758,30.9196581 C32.2491168,31.1751567 32.0509972,31.4382336 32.0196011,31.6980627 C32.0520798,32.000114 31.8896866,32.2815954 31.9124217,32.5847293 C31.9264957,33.345812 31.9135043,34.1068946 31.9178348,34.8668946 C31.9135043,35.1386325 32.0131054,35.3962963 32.125698,35.6388034 L32.1700855,35.742735 C30.9423932,36.2710541 29.6778917,36.7701425 28.3874074,37.1079202 C28.3365242,37.0841026 28.2347578,37.034302 28.1838746,37.0094017 C28.2704843,36.9498575 28.357094,36.891396 28.4447863,36.8340171 C28.3516809,36.7614815 28.2585755,36.6900285 28.1654701,36.6196581 C28.3397721,36.605584 28.5140741,36.5925926 28.6894587,36.5796011 C28.5898575,36.5211396 28.4902564,36.4626781 28.3906553,36.4052991 C28.6212536,36.3760684 28.8691738,36.3630769 29.0467236,36.1920228 C28.9482051,36.1184046 28.8507692,36.0447863 28.7533333,35.9733333 C28.6504843,35.1418803 28.7598291,34.3039316 28.6753846,33.4724786 C28.4588604,33.4464957 28.2434188,33.4194302 28.0290598,33.3880342 C28.1459829,33.2364672 28.3007977,33.1249573 28.459943,33.0242735 C28.4166382,32.9430769 28.3733333,32.8640456 28.3311111,32.7839316 C28.365755,32.711396 28.4003989,32.6388604 28.4350427,32.5663248 C28.0333903,32.4537322 27.614416,32.4948718 27.2041026,32.4862108 Z" id="Shape" fill="#F26800"></path>
                    <path d="M1.84803419,31.1978917 C1.93680912,31.1762393 2.11219373,31.1340171 2.20096866,31.1123647 C3.06598291,31.3321368 3.91692308,31.6136182 4.79817664,31.768433 C4.68774929,31.8561254 4.57732194,31.9459829 4.46689459,32.0358405 C4.77327635,32.2014815 5.08182336,32.371453 5.34165242,32.6074644 C5.07641026,32.7157265 4.78518519,32.711396 4.5037037,32.7373789 C4.48854701,32.7947578 4.45823362,32.9095157 4.44307692,32.9679772 C4.2568661,32.9073504 4.07065527,32.8467236 3.88552707,32.7839316 C3.5997151,32.7059829 3.46547009,32.3996011 3.19698006,32.2880912 C2.92957265,32.1776638 2.75635328,31.9503134 2.5982906,31.7197151 C2.34279202,31.5540741 2.10786325,31.3581197 1.84803419,31.1978917 Z" id="Shape" fill="#FDD485"></path>
                    <path d="M12.5291738,32.2512821 C13.7666097,32.0748148 15.0094587,31.9026781 16.214416,31.562735 C16.245812,31.602792 16.3096866,31.682906 16.3421652,31.722963 C16.1613675,31.8658689 15.8582336,31.9698006 15.9004558,32.2545299 C15.8993732,33.7701994 15.8993732,35.2880342 15.9091168,36.8047863 C15.888547,36.9704274 15.9502564,37.2237607 15.7369801,37.2843875 C15.4749858,37.342849 15.2021652,37.2529915 14.9380057,37.2367521 C14.900114,37.2703134 14.8232479,37.3396011 14.7853561,37.3731624 L14.7009117,37.4110541 C14.1390313,37.5247293 13.6301994,37.2010256 13.085641,37.1414815 C12.6688319,37.105755 12.3158974,36.8470085 11.8990883,36.8156125 C11.7247863,36.7863818 11.5299145,36.8015385 11.3794302,36.694359 C11.5862108,36.7030199 11.7951567,36.717094 12.0008547,36.6835328 C12.27151,36.542792 12.4988604,36.3360114 12.7337892,36.1443875 C12.468547,36.0556125 12.1968091,35.9863248 11.9261538,35.9181197 C11.9272365,35.8574929 11.9272365,35.7384046 11.9283191,35.6788604 C12.1545869,35.639886 12.3808547,35.5998291 12.6082051,35.5608547 C12.5984615,35.1104843 12.5616524,34.6611966 12.5638177,34.2108262 C12.5291738,33.748547 12.9297436,33.3696296 12.7630199,32.8965242 C12.4988604,32.9105983 12.254188,33.0134473 12.0030199,33.0838177 C11.8362963,33.0415954 11.7128775,32.9095157 11.5764672,32.814245 C11.9001709,32.6345299 12.2812536,32.545755 12.5291738,32.2512821 Z" id="Shape" fill="#FE9A26"></path>
                    <path d="M4.79817664,31.768433 C5.2842735,31.8777778 5.78119658,31.9232479 6.26729345,32.0336752 C6.61048433,32.102963 6.96991453,32.1765812 7.31635328,32.0823932 C7.83384615,32.3552137 8.45960114,32.1939031 9.02039886,32.3216524 C8.78655271,32.3768661 8.55270655,32.4407407 8.31128205,32.4558974 C7.8208547,32.4623932 7.31202279,32.4374929 6.84866097,32.6269516 C7.06843305,32.7871795 7.2762963,32.9636467 7.44951567,33.1747578 C7.12581197,33.2830199 6.74581197,33.431339 6.71766382,33.8275783 C6.99048433,33.891453 7.31310541,33.8719658 7.51663818,34.097151 C7.32717949,34.2064957 7.13339031,34.3104274 6.93851852,34.4121937 C7.04678063,34.5475214 7.15396011,34.6839316 7.26330484,34.8192593 C6.88763533,34.7965242 6.61589744,34.4619943 6.26079772,34.3526496 L6.2185755,34.2974359 C6.01287749,33.9488319 5.57333333,33.8730484 5.3048433,33.5904843 C5.2019943,33.4584046 5.13054131,33.3046724 5.0222792,33.1780057 C4.84039886,33.0794872 4.6368661,33.0329345 4.44307692,32.9679772 C4.45823362,32.9095157 4.48854701,32.7947578 4.5037037,32.7373789 C4.78518519,32.711396 5.07641026,32.7157265 5.34165242,32.6074644 C5.08182336,32.371453 4.77327635,32.2014815 4.46689459,32.0358405 C4.57732194,31.9459829 4.68774929,31.8561254 4.79817664,31.768433 Z" id="Shape" fill="#FCC56C"></path>
                    <path d="M12.3537892,32.1722507 C12.3981766,32.1928205 12.4858689,32.2317949 12.5291738,32.2512821 C12.2812536,32.545755 11.9001709,32.6345299 11.5764672,32.814245 C11.7128775,32.9095157 11.8362963,33.0415954 12.0030199,33.0838177 C12.254188,33.0134473 12.4988604,32.9105983 12.7630199,32.8965242 C12.9297436,33.3696296 12.5291738,33.748547 12.5638177,34.2108262 C12.5616524,34.6611966 12.5984615,35.1104843 12.6082051,35.5608547 C12.3808547,35.5998291 12.1545869,35.639886 11.9283191,35.6788604 C11.9272365,35.7384046 11.9272365,35.8574929 11.9261538,35.9181197 C12.1968091,35.9863248 12.468547,36.0556125 12.7337892,36.1443875 C12.4988604,36.3360114 12.27151,36.542792 12.0008547,36.6835328 C11.7951567,36.717094 11.5862108,36.7030199 11.3794302,36.694359 C11.248433,36.5211396 11.0091738,36.5568661 10.837037,36.4496866 C10.6259259,36.3349288 10.3974929,36.2569801 10.1679772,36.1876923 C10.2221083,36.1703704 10.3303704,36.1378917 10.3845014,36.1216524 C10.1950427,35.8358405 9.71977208,35.9527635 9.60609687,35.6366382 C9.87458689,35.6063248 10.1517379,35.585755 10.394245,35.4547578 C10.1874644,35.4147009 9.98068376,35.3789744 9.77390313,35.3475783 C9.75333333,35.1267236 9.67863248,34.8896296 9.79230769,34.682849 C9.97635328,34.3407407 9.95253561,33.9423362 10.0932764,33.5883191 C9.93413105,33.5363533 9.77498575,33.4843875 9.61475783,33.4345869 C9.80854701,33.3512251 10.1214245,33.3891168 10.1852991,33.1422792 C9.71002849,33.1108832 9.19903134,33.3577208 8.76598291,33.068661 C9.21418803,33.0296866 9.68079772,33.0156125 10.0824501,32.7860969 C9.52165242,32.5511681 8.91430199,32.4732194 8.31128205,32.4558974 C8.55270655,32.4407407 8.78655271,32.3768661 9.02039886,32.3216524 C9.55088319,32.3238177 10.0824501,32.3573789 10.6140171,32.3368091 C11.1953846,32.3097436 11.7973219,32.380114 12.3537892,32.1722507 Z" id="Shape" fill="#FEA83A"></path>
                    <path d="M26.1561254,32.2871429 C26.1691168,32.2871429 26.1950997,32.2859931 26.2080912,32.2848433 C26.2849573,32.6401254 26.751567,32.4320152 26.9919088,32.5377949 C26.8793162,32.5745879 26.7667236,32.6113809 26.6508832,32.636676 C26.2189174,32.710262 25.7869516,32.8206409 25.3463248,32.7734999 C25.6234758,32.626328 25.8843875,32.4458125 26.1561254,32.2871429 Z" id="Shape" fill="#FFF7CB"></path>
                    <path d="M6.84866097,32.6269516 C7.31202279,32.4374929 7.8208547,32.4623932 8.31128205,32.4558974 C8.91430199,32.4732194 9.52165242,32.5511681 10.0824501,32.7860969 C9.68079772,33.0156125 9.21418803,33.0296866 8.76598291,33.068661 C9.19903134,33.3577208 9.71002849,33.1108832 10.1852991,33.1422792 C10.1214245,33.3891168 9.80854701,33.3512251 9.61475783,33.4345869 C9.77498575,33.4843875 9.93413105,33.5363533 10.0932764,33.5883191 C9.95253561,33.9423362 9.97635328,34.3407407 9.79230769,34.682849 C9.67863248,34.8896296 9.75333333,35.1267236 9.77390313,35.3475783 C9.98068376,35.3789744 10.1874644,35.4147009 10.394245,35.4547578 C10.1517379,35.585755 9.87458689,35.6063248 9.60609687,35.6366382 C9.71977208,35.9527635 10.1950427,35.8358405 10.3845014,36.1216524 C10.3303704,36.1378917 10.2221083,36.1703704 10.1679772,36.1876923 C9.60826211,36.0263818 9.10267806,35.728661 8.56136752,35.5207977 C8.53863248,35.4991453 8.49316239,35.4547578 8.47042735,35.4331054 C8.33509972,35.259886 8.2008547,35.0845014 8.06119658,34.9145299 C7.87823362,34.9480912 7.69418803,34.9805698 7.51122507,35.0119658 C7.41487179,34.9675783 7.32934473,34.9015385 7.26330484,34.8192593 C7.15396011,34.6839316 7.04678063,34.5475214 6.93851852,34.4121937 C7.13339031,34.3104274 7.32717949,34.2064957 7.51663818,34.097151 C7.31310541,33.8719658 6.99048433,33.891453 6.71766382,33.8275783 C6.74581197,33.431339 7.12581197,33.2830199 7.44951567,33.1747578 C7.2762963,32.9636467 7.06843305,32.7871795 6.84866097,32.6269516 Z" id="Shape" fill="#FEB652"></path>
                    <path d="M26.9919088,32.5230199 C27.0449573,32.514359 27.1510541,32.4948718 27.2041026,32.4862108 C27.614416,32.4948718 28.0333903,32.4537322 28.4350427,32.5663248 C28.4003989,32.6388604 28.365755,32.711396 28.3311111,32.7839316 C28.3733333,32.8640456 28.4166382,32.9430769 28.459943,33.0242735 C28.3007977,33.1249573 28.1459829,33.2364672 28.0290598,33.3880342 C28.2434188,33.4194302 28.4588604,33.4464957 28.6753846,33.4724786 C28.7598291,34.3039316 28.6504843,35.1418803 28.7533333,35.9733333 C28.8507692,36.0447863 28.9482051,36.1184046 29.0467236,36.1920228 C28.8691738,36.3630769 28.6212536,36.3760684 28.3906553,36.4052991 C28.4902564,36.4626781 28.5898575,36.5211396 28.6894587,36.5796011 C28.5140741,36.5925926 28.3397721,36.605584 28.1654701,36.6196581 C28.2585755,36.6900285 28.3516809,36.7614815 28.4447863,36.8340171 C28.357094,36.891396 28.2704843,36.9498575 28.1838746,37.0094017 C28.2347578,37.034302 28.3365242,37.0841026 28.3874074,37.1079202 C27.9013105,37.2248433 27.4260399,37.405641 26.9215385,37.4272934 C26.8988034,37.374245 26.854416,37.2692308 26.8316809,37.217265 C27.020057,36.7733903 26.9464387,36.2905413 26.9540171,35.8239316 C26.9529345,35.4839886 27.2430769,35.205755 27.1835328,34.8593162 C27.1196581,34.602735 26.9442735,34.3775499 26.957265,34.1036467 C26.9583476,33.8806268 26.9107123,33.6641026 26.8165242,33.462735 C26.8154416,33.3956125 26.8695726,33.3209117 26.8165242,33.2624501 C26.6790313,33.0751567 26.6790313,32.8358974 26.6508832,32.6161254 C26.7667236,32.5923077 26.8793162,32.5576638 26.9919088,32.5230199 Z" id="Shape" fill="#FB7700"></path>
                    <path d="M3.88552707,32.7839316 C4.07065527,32.8467236 4.2568661,32.9073504 4.44307692,32.9679772 C4.6368661,33.0329345 4.84039886,33.0794872 5.0222792,33.1780057 C5.13054131,33.3046724 5.2019943,33.4584046 5.3048433,33.5904843 C5.57333333,33.8730484 6.01287749,33.9488319 6.2185755,34.2974359 C5.81908832,34.1339601 5.45207977,33.9044444 5.10239316,33.6532764 C4.69749288,33.3631339 4.24279202,33.1379487 3.88552707,32.7839316 Z" id="Shape" fill="#EFCD96"></path>
                    <path d="M7.51122507,35.0119658 C7.69418803,34.9805698 7.87823362,34.9480912 8.06119658,34.9145299 C8.2008547,35.0845014 8.33509972,35.259886 8.47042735,35.4331054 C8.30262108,35.4136182 8.13481481,35.3865527 7.97025641,35.348661 C7.85874644,35.1797721 7.65304843,35.1407977 7.51122507,35.0119658 Z" id="Shape" fill="#F7CB81"></path>
                </g>
            </g>
        </g>
    </g>
</svg>