<?xml version="1.0" encoding="UTF-8" standalone="no"?>
<svg width="80px" height="80px" viewBox="0 0 80 80" version="1.1" xmlns="http://www.w3.org/2000/svg" xmlns:xlink="http://www.w3.org/1999/xlink">
    <!-- Generator: Sketch 49.2 (51160) - http://www.bohemiancoding.com/sketch -->
    <title>euteller_r</title>
    <desc>Created with Sketch.</desc>
    <defs>
        <polygon id="path-1" points="0.00724137931 0.171296296 36.2917241 0.171296296 36.2917241 36.9794444 0.00724137931 36.9794444"></polygon>
    </defs>
    <g id="Page-1" stroke="none" stroke-width="1" fill="none" fill-rule="evenodd">
        <g id="m7-withdraw-balance-0-1366" transform="translate(-303.000000, -977.000000)">
            <g id="euteller_r" transform="translate(303.000000, 977.000000)">
                <g id="Group-8-Copy-14" fill="#F0F2F5">
                    <rect id="Mask" x="0" y="0" width="80" height="80" rx="40"></rect>
                </g>
                <g id="Group-5" transform="translate(20.000000, 22.000000)">
                    <path d="M17.0689655,1.62731481 C7.64206897,1.62731481 0,9.21985185 0,18.5856481 C0,20.5421944 0.337586207,22.4192593 0.951034483,24.1681944 C4.13827586,22.8906667 8.85206897,20.3787778 14.137931,15.5023148 C18.5527586,11.4292315 22.0272414,6.96525 24.5013793,3.3159537 C22.2544828,2.23438889 19.7334483,1.62731481 17.0689655,1.62731481" id="Fill-9" fill="#273870"></path>
                    <path d="M17.0689655,35.5439815 C25.5758621,35.5439815 32.6268966,29.3605278 33.9227586,21.2712315 C29.422069,24.3059167 23.6186207,27.1922593 17.0689655,28.0069444 C10.6627586,28.8038148 6.33206897,28.932287 3.45551724,28.81375 C6.57206897,32.9015648 11.5093103,35.5439815 17.0689655,35.5439815" id="Fill-10" fill="#273870"></path>
                    <path d="M3.45551724,27.0966759 C3.45551724,27.0966759 17.1541379,28.6493056 33.9927586,20.7669352 C34.0851724,20.052287 34.137931,19.3253056 34.137931,18.5856481 C34.137931,16.3183704 33.6865517,14.1566111 32.8741379,12.1798519 C30.27,14.7571759 26.4965517,17.9672685 21.8389655,20.4699074 C10.5748276,26.5224907 3.45551724,27.0966759 3.45551724,27.0966759" id="Fill-11" fill="#5AAE45"></path>
                    <g id="Group-15" transform="translate(3.448276, 0.000000)">
                        <mask id="mask-2" fill="white">
                            <use xlink:href="#path-1"></use>
                        </mask>
                        <g id="Clip-13"></g>
                        <path d="M0.00724137931,25.0949074 C0.00724137931,25.0949074 15.022069,23.5193241 29.0703448,11.3737315 C27.6162069,8.30444444 25.2644828,5.7397963 22.3496552,4.01278704 C20.1789655,6.77168519 17.4158621,10.1123056 14.367931,13.3895463 C5.97689655,22.4113796 0.00724137931,25.0949074 0.00724137931,25.0949074" id="Fill-12" fill="#166134" mask="url(#mask-2)"></path>
                        <path d="M33.0734483,18.5856481 C33.0734483,8.95468519 25.63,1.05552778 16.147931,0.244611111 C16.6789655,0.199388889 17.2144828,0.171296296 17.7572414,0.171296296 C27.9934483,0.171296296 36.2917241,8.41578704 36.2917241,18.5856481 C36.2917241,28.7555093 27.9934483,37 17.7572414,37 C17.2144828,37 16.6789655,36.9719074 16.147931,36.9266852 C25.63,36.1157685 33.0734483,28.2166111 33.0734483,18.5856481" id="Fill-14" fill="#DA2E2D" mask="url(#mask-2)"></path>
                    </g>
                </g>
            </g>
        </g>
    </g>
</svg>