<?xml version="1.0" encoding="UTF-8"?>
<svg width="80px" height="80px" viewBox="0 0 80 80" version="1.1" xmlns="http://www.w3.org/2000/svg" xmlns:xlink="http://www.w3.org/1999/xlink">
    <!-- Generator: Sketch 51.3 (57544) - http://www.bohemiancoding.com/sketch -->
    <title>Group 8 Copy 33</title>
    <desc>Created with Sketch.</desc>
    <defs></defs>
    <g id="Page-1" stroke="none" stroke-width="1" fill="none" fill-rule="evenodd">
        <g id="m7-withdraw-balance-0-1366-copy" transform="translate(-963.000000, -527.000000)">
            <g id="Group-8-Copy-33" transform="translate(963.000000, 527.000000)">
                <rect id="Mask" fill="#F0F2F5" x="0" y="0" width="80" height="80" rx="40"></rect>
                <g id="Group-25" transform="translate(19.000000, 19.000000)" fill="#008ED0" fill-rule="nonzero">
                    <path d="M19.6241023,0.193286141 C19.6116048,0.145739818 19.5876512,0.0485799392 19.5761952,0 C20.0375609,0.00413446291 20.4989265,0.0134370045 20.9613337,0.00723531009 L20.9509191,0.0754539481 C21.615369,0.0713194852 22.2808603,0.104395189 22.9453102,0.117832193 L22.8942788,0.21292484 C23.0504974,0.209823993 23.206716,0.206723146 23.3629347,0.203622298 L23.3441884,0.282177094 C23.6295478,0.289412404 23.9149071,0.30491664 24.2013079,0.313185566 L24.1669399,0.395874824 C24.3668997,0.403110134 24.5668595,0.412412675 24.7678608,0.422748833 C25.1969413,0.534379331 25.633312,0.63153921 26.0800973,0.63877452 L26.0259415,0.729732704 C26.245689,0.778312643 26.4685609,0.816556425 26.6935157,0.843430434 L26.6664378,0.906480993 C26.7934957,0.918884382 26.9205535,0.933355002 27.0496942,0.947825622 C27.1746691,0.988136636 27.3027684,1.0253468 27.4319091,1.05842251 L27.3933752,1.13387645 C27.4798161,1.13077561 27.6537396,1.12457391 27.7401805,1.12147306 L27.7308074,1.22380102 C27.8099582,1.22586825 27.9693012,1.22793548 28.0494934,1.23000272 L28.0328301,1.32716259 C28.1765512,1.3343979 28.3213138,1.34163321 28.4660764,1.34990214 L28.4577447,1.48117134 C28.5056518,1.46256625 28.6014659,1.42535609 28.6493729,1.40675101 L28.658746,1.53388574 C28.7431041,1.53595297 28.9107787,1.53905382 28.9951368,1.54008743 L28.9784735,1.6889281 C29.015966,1.67549109 29.0919924,1.64758347 29.1294848,1.63414647 C29.271123,1.7085668 29.4148442,1.78298713 29.5575239,1.85947469 C29.5929334,1.84913854 29.6627111,1.82846622 29.6981206,1.81813007 L29.7106181,1.90702102 C30.0188895,2.03518937 30.3219537,2.17472749 30.6281422,2.3070303 L30.6395982,2.37008086 C30.7197904,2.37318171 30.8791334,2.37938341 30.9593256,2.38145064 C30.9572427,2.42692973 30.9530769,2.5168543 30.9499525,2.56233339 C31.0332691,2.56646785 31.1978194,2.57370316 31.2800946,2.57680401 L31.2498923,2.65639242 C31.4633911,2.75251868 31.6758484,2.84967856 31.893513,2.9375359 C31.8955959,2.96234268 31.8997618,3.01092262 31.9018447,3.03572939 C32.1174264,3.1215195 32.3225935,3.23315 32.5090144,3.37372174 C32.5381752,3.37682258 32.5975383,3.38199066 32.6266991,3.38509151 L32.6277406,3.52566325 C32.6798134,3.51119263 32.7839592,3.48225139 32.8360321,3.46778077 L32.8193687,3.57010872 C32.8620685,3.60525166 32.947468,3.67760476 32.9901678,3.71378131 C33.0255773,3.70861323 33.0963964,3.69931069 33.131806,3.69517623 L33.1463864,3.82954627 C33.1953349,3.82437819 33.2942734,3.81300842 33.3442633,3.80784034 C33.3484291,3.86262197 33.3588437,3.97425247 33.3630095,4.02903411 C33.4129995,4.02283241 33.511938,4.00836179 33.5608865,4.0021601 L33.5660938,4.08174851 C33.8931114,4.29467335 34.1940926,4.54584197 34.5054884,4.78047274 C34.7179458,4.98719589 34.9408177,5.18565011 35.2001406,5.33449077 C35.214721,5.38410433 35.2438818,5.48333144 35.2584622,5.53294499 C35.3167838,5.55568454 35.4334271,5.60116363 35.4917487,5.62390318 C35.5938115,5.74070175 35.6958743,5.85646671 35.7968957,5.97429891 L35.8625075,5.97636614 L35.8510515,6.10040003 C35.9010415,6.10040003 36.0020628,6.10143364 36.0520528,6.10246726 C36.0530943,6.15208081 36.0541357,6.25130792 36.0541357,6.30092148 C36.1041257,6.30195509 36.2030641,6.30402232 36.2530541,6.30505594 C36.2530541,6.35466949 36.2530541,6.45286299 36.2520126,6.50247654 L36.378029,6.50040931 L36.3644901,6.62651043 L36.5061283,6.58103134 L36.4561383,6.67405675 C36.4936308,6.716435 36.5696572,6.8022251 36.6081911,6.84563697 L36.6342275,6.80946041 C36.7175441,6.96553639 36.842519,7.09267112 36.990406,7.19086462 C36.9872816,7.22600755 36.9810329,7.29525981 36.9779085,7.33040274 L37.124754,7.30869681 L37.0778884,7.44720132 L37.2174437,7.43376431 C37.2174437,7.48234425 37.2184852,7.58053775 37.2195267,7.6301513 C37.2507704,7.63531938 37.3142993,7.64565554 37.345543,7.65185723 C37.4788496,7.85651315 37.6236122,8.05393375 37.7631675,8.25652243 L37.8433597,8.26582498 C37.837111,8.3133713 37.8266964,8.40846395 37.8204476,8.45497665 C37.8746034,8.46117835 37.9818735,8.47358174 38.0349879,8.47978343 C38.032905,8.52836337 38.0266562,8.62552325 38.0235318,8.67306957 L38.1724603,8.67823765 C38.1599628,8.72578397 38.1360093,8.81984301 38.1245532,8.86635571 L38.251611,8.86842294 L38.2411965,8.99142322 L38.3724201,8.98625514 C38.363047,9.03690231 38.3432593,9.13819665 38.3338862,9.1878102 L38.4817731,9.17954128 C38.4796902,9.21468421 38.4765659,9.28703731 38.4744829,9.32218025 C38.5400948,9.39453335 38.6057066,9.46895368 38.670277,9.54440763 C38.7504692,9.70255084 38.8431589,9.85552596 38.950429,9.99919855 C38.9535534,10.0291734 38.9608436,10.0891231 38.9650094,10.119098 L39.0993574,10.1242661 C39.0920672,10.1625098 39.0774868,10.2379638 39.0701966,10.2762076 C39.1087306,10.3392581 39.1837155,10.4663929 39.2222494,10.530477 L39.3138977,10.5459813 C39.3003587,10.592494 39.2732808,10.686553 39.2607834,10.7330657 L39.4128361,10.7289313 C39.4045045,10.7847465 39.3899241,10.896377 39.3815924,10.9521923 L39.4951113,10.9284191 C39.5409354,11.0720917 39.5888425,11.2147306 39.6325837,11.3584032 L39.7294392,11.3677058 C39.7211076,11.4162857 39.7044442,11.512412 39.6961126,11.5609919 L39.8398337,11.5744289 C39.8242119,11.6230089 39.7919267,11.722236 39.7763048,11.7708159 L39.9346064,11.7718495 C39.9283576,11.8235303 39.9148187,11.9279255 39.9075285,11.9806399 L40.0397936,11.9868416 C40.0345863,12.0199173 40.0231302,12.0840015 40.017923,12.1160436 C40.0710373,12.2431783 40.1210272,12.370313 40.1689343,12.499515 L40.2605825,12.5015822 C40.2439192,12.5491286 40.2126755,12.6452548 40.1960122,12.6938348 L40.3553552,12.7124398 C40.3397333,12.763087 40.3074481,12.8643813 40.2907848,12.9150285 L40.3918062,12.9015915 C40.4376303,13.0328607 40.4865788,13.1630963 40.5386517,13.2933319 C40.5292786,13.325374 40.5105323,13.3915254 40.5011592,13.4246011 L40.6250927,13.4225338 C40.6334243,13.5662064 40.6438389,13.7088454 40.6542535,13.852518 L40.7886015,13.8494171 C40.7656894,13.8990307 40.7188238,13.9972242 40.6959118,14.0468377 L40.8469231,14.0282327 C40.8479646,14.1140228 40.8500475,14.2866366 40.8510889,14.3724267 L40.9198251,14.3589897 C40.946903,14.4788891 40.9771053,14.5998222 41.0104319,14.718688 C41.0750023,14.9801927 41.1531116,15.2396303 41.1999772,15.5052695 L41.3218277,15.5166393 C41.2822524,15.5662529 41.2010187,15.6644464 41.1614433,15.7140599 L41.3499471,15.6840851 C41.3603617,15.8629006 41.3718177,16.0417161 41.3843152,16.2205316 L41.4405539,16.2225988 C41.4936682,16.6060703 41.5905238,16.9843736 41.597814,17.3740468 L41.7581984,17.3709459 C41.707167,17.4236603 41.6040627,17.5280555 41.5530313,17.5807699 L41.7623643,17.5445934 C41.768613,17.8701823 41.7831934,18.1947377 41.7904836,18.5203266 L41.8769246,18.4779484 C41.8862977,18.8459156 41.8904635,19.2169836 41.9623241,19.5808163 C42.0050239,20.6144321 42.0175213,21.6511487 41.9675314,22.685798 C41.9040025,23.1447234 41.8790075,23.6088168 41.86651,24.0729103 L41.7738203,24.0470699 C41.7759032,24.200045 41.7790276,24.3530202 41.7831934,24.5070289 L41.6905037,24.4708524 C41.6852964,24.654836 41.6780062,24.8388196 41.6748818,25.0238368 L41.5811507,24.9824921 C41.5780263,25.1974842 41.572819,25.4135099 41.5738605,25.6295356 C41.5530313,25.6274684 41.5124145,25.6212667 41.4915853,25.6181658 C41.4686732,25.7804435 41.4311808,25.9396203 41.3968127,26.1008644 C41.3780664,26.2569403 41.3624446,26.4150835 41.3468227,26.5732267 L41.2489257,26.5236132 C41.2520501,26.6104369 41.2572574,26.7840844 41.2603817,26.8719417 L41.1281166,26.8729753 C41.1489458,26.9225889 41.1916456,27.0197487 41.2124747,27.0693623 L41.0760438,27.0662614 C41.0635463,27.2430097 41.0500073,27.4187244 41.0406342,27.5954727 L40.9916857,27.5830693 C40.9437787,27.7112377 40.8948302,27.839406 40.8448402,27.9675744 C40.8573377,28.0016837 40.8833741,28.0709359 40.8958716,28.1050453 L40.7521505,28.0916083 C40.751109,28.1742975 40.7490261,28.3386424 40.7469432,28.4213317 L40.6438389,28.4140964 C40.6427974,28.4916175 40.6396731,28.6466599 40.6386316,28.7231475 L40.5761442,28.7283155 C40.5313615,28.8554503 40.4855374,28.9805178 40.4365889,29.1055853 C40.4428376,29.138661 40.4563766,29.205846 40.4626253,29.2399553 L40.311614,29.2430562 C40.3178627,29.2792327 40.3293187,29.3526194 40.334526,29.388796 C40.2782873,29.5086954 40.2241315,29.6296285 40.1741416,29.7515951 L40.0897835,29.7629649 C40.1054054,29.8094776 40.1366491,29.9014694 40.152271,29.9479821 L40.004384,29.9800242 C40.0137571,30.0286041 40.0314619,30.125764 40.040835,30.1733103 L39.9033626,30.1764112 C39.9137772,30.2291256 39.9325234,30.3345544 39.942938,30.3872688 L39.7846365,30.3821007 C39.797134,30.4317143 39.8210875,30.5309414 39.8325435,30.5805549 L39.6888224,30.5970928 C39.7002784,30.6456727 39.7231905,30.7428326 39.7346465,30.7914125 L39.5898839,30.8017487 C39.599257,30.8513622 39.6169618,30.9505894 39.6252935,30.9991693 L39.4836553,31.0084718 C39.4930284,31.0580854 39.5117746,31.1573125 39.5211477,31.2069261 L39.3722193,31.2110605 C39.3847168,31.2606741 39.4097118,31.3599012 39.4211678,31.4105484 L39.2607834,31.4198509 C39.2711979,31.4663636 39.2909856,31.5614562 39.3014002,31.6090026 L39.2118348,31.6183051 C39.1785082,31.6813557 39.1118549,31.8064232 39.0774868,31.8694737 L39.0931087,31.9459613 L38.9608436,31.9366588 C38.9712582,31.9862723 38.9910459,32.0854994 39.0014604,32.135113 L38.8494076,32.135113 C38.8587808,32.1867938 38.877527,32.2901553 38.8879416,32.3408025 L38.7442204,32.3190966 L38.7702569,32.452433 L38.6348674,32.4565675 C38.6484063,32.5030802 38.6744428,32.5961056 38.6869403,32.6426183 L38.5432191,32.64882 C38.5453021,32.6994672 38.5484264,32.8028287 38.5505093,32.8534759 C38.5140583,32.8576104 38.4421978,32.8658793 38.4057467,32.8700138 C38.2932693,33.1232496 38.1318434,33.3496115 37.9527127,33.5594355 C37.9516713,33.5914775 37.9495884,33.6555617 37.9485469,33.6876038 L37.8089916,33.6814021 C37.8110745,33.7310157 37.8141989,33.83231 37.8152403,33.8829572 C37.7662918,33.886058 37.6683948,33.8943269 37.6194463,33.8984614 C37.6256951,33.9501422 37.6371511,34.0545374 37.6423584,34.1062182 L37.5038446,34.0855459 L37.5288395,34.2168151 L37.3872013,34.19821 C37.3934501,34.2467899 37.4059475,34.3439498 37.4121963,34.3925297 C37.381994,34.399765 37.320548,34.4152693 37.2903458,34.4225046 C37.1851586,34.5062275 37.0955932,34.6033873 37.0226912,34.7160515 C37.0185254,34.7449927 37.0101937,34.8018416 37.0060279,34.8297492 L36.8685555,34.8173458 C36.8737628,34.8659257 36.8841773,34.9630856 36.8893846,35.0116655 C36.8550165,35.0199345 36.7862803,35.0344051 36.7529537,35.0416404 C36.6186057,35.2028845 36.4769675,35.3568932 36.341578,35.51607 C36.2509712,35.583255 36.1603644,35.6494065 36.070799,35.7155579 C36.070799,35.7538016 36.070799,35.8292556 36.070799,35.8674994 L35.9229121,35.8292556 L35.9874824,35.9718946 L35.8843781,35.9450206 C35.6333869,36.1806849 35.3823956,36.4173829 35.1574408,36.6778541 C35.1209898,36.6737196 35.0470463,36.6654507 35.0105953,36.6613162 L35.0230928,36.7285013 L34.9960149,36.8711402 L34.8512523,36.8866445 L34.7991794,36.8701066 L34.7929307,36.9517623 C34.7023239,37.0272162 34.6138,37.1047374 34.5284005,37.1843258 C34.4940324,37.186393 34.4273791,37.1915611 34.393011,37.1936283 C34.3857208,37.2473764 34.3721819,37.3538388 34.3659331,37.4075868 C34.3190675,37.4034523 34.2274193,37.396217 34.1805537,37.3931162 L34.1774293,37.5212845 C34.1284808,37.5181837 34.0285009,37.5109484 33.9795524,37.5078475 L33.9837182,37.6380831 L33.8983187,37.6008729 C33.8618677,37.6401503 33.7879242,37.7187051 33.7514732,37.7579825 L33.7847998,37.8468735 L33.6369129,37.7951927 L33.6629493,37.8902854 C33.5400573,37.9471342 33.4192483,38.0070839 33.2984392,38.0639328 C33.1974178,38.1424876 33.0995208,38.222076 33.0047482,38.3057989 C32.849571,38.4153621 32.6746061,38.4928833 32.5048486,38.5766062 L32.5204704,38.6541274 C32.4663146,38.6520601 32.3580031,38.6489593 32.3038473,38.6479257 C32.3048887,38.6913375 32.3080131,38.7791949 32.310096,38.8236404 C32.1955357,38.8453463 32.0809754,38.8691194 31.968498,38.8928926 C31.9382957,38.9352709 31.8778912,39.021061 31.8476889,39.0644728 C31.8060306,39.0572375 31.722714,39.0427669 31.6810557,39.034498 L31.6779313,39.195742 C31.6279414,39.1802378 31.52692,39.1481957 31.47693,39.1326915 L31.4956763,39.284633 L31.3498722,39.2329522 L31.3759086,39.3259776 C31.1551197,39.4138349 30.9353721,39.499625 30.718749,39.5947177 L30.7437439,39.7022137 C30.6927125,39.6887767 30.5906497,39.6619027 30.5396183,39.6484657 L30.5292037,39.8024744 C30.4792137,39.7911047 30.3792338,39.7662979 30.3302853,39.7549281 L30.3365341,39.8593233 C30.1823984,39.8996343 30.0282626,39.9440798 29.8762098,39.9885253 L29.9314071,40.0836179 C29.8512149,40.0867188 29.6918719,40.0908532 29.6127211,40.0939541 C29.5377362,40.1611391 29.4637927,40.2293577 29.3908907,40.29861 C29.3127813,40.3006772 29.1544798,40.3037781 29.075329,40.3058453 L29.0774119,40.3864673 C28.9003642,40.4340137 28.7253993,40.4856944 28.549393,40.5322072 L28.5785538,40.6200645 C28.4931543,40.6190309 28.3213138,40.6169636 28.2359143,40.61593 L28.2432045,40.7513337 C28.1932145,40.731695 28.0921932,40.691384 28.0411617,40.6707117 L28.0609494,40.7823422 C27.8547408,40.8371238 27.6516566,40.8981071 27.4496139,40.9611577 C27.324639,40.9921661 27.2007055,41.0211074 27.0767721,41.0469478 L27.1194719,41.1327379 C27.0330309,41.1317043 26.8611904,41.129637 26.7757909,41.1286034 L26.785164,41.2516037 C26.7507959,41.2443684 26.6841426,41.2278305 26.6497745,41.2195616 C26.3217154,41.3435955 25.9780344,41.4231839 25.6301876,41.4645285 L25.6666386,41.5399825 C25.5114615,41.5399825 25.3562843,41.5399825 25.2031901,41.5399825 L25.2490142,41.6206045 C24.9261624,41.6826215 24.6053935,41.7570418 24.2762929,41.772546 L24.2939977,41.8417983 C24.0430064,41.8552353 23.7940981,41.8717731 23.5441483,41.8872774 C23.5493556,35.4323471 23.5733091,28.9763833 23.5681018,22.5224867 L23.7920152,22.4718395 L23.5712262,22.4201588 C23.5701847,22.3364359 23.5681018,22.1679565 23.5670603,22.0842336 L23.6597501,22.1400489 C23.6566257,21.9912082 23.6555842,21.8413339 23.6545428,21.6924933 C27.4246189,21.6955941 31.1936536,21.6924933 34.9626883,21.6945605 C35.4730024,21.7110984 35.9697777,21.5715602 36.4800918,21.5705266 C36.4790504,21.5343501 36.475926,21.461997 36.4738431,21.4247868 C36.5102941,21.4433919 36.5811132,21.4795684 36.6175642,21.4971399 C36.7977364,21.421686 36.9820743,21.3493329 37.1643294,21.2749125 C37.1986975,21.2821478 37.2684752,21.2966185 37.3028433,21.3048874 L37.2924287,21.163282 L37.4351084,21.2046267 L37.420528,21.0506179 C37.4705179,21.0671558 37.5704978,21.1002315 37.6204878,21.1178029 L37.6111147,21.0144414 C37.6538144,20.9772312 37.737131,20.9017772 37.7787893,20.8645671 C37.8162818,20.8738696 37.8912667,20.8935083 37.9298007,20.9028109 L37.9173032,20.7539702 L38.0641487,20.792214 L38.0276977,20.7126256 C38.0672731,20.6754154 38.1474653,20.6009951 38.1870407,20.5637849 L38.1943309,20.5317428 C38.2797304,20.4511208 38.3661714,20.3715324 38.4557367,20.2929776 C38.449488,20.2578346 38.4380319,20.1865152 38.4328246,20.1513722 L38.5775872,20.1451705 C38.5692556,20.095557 38.5525923,19.9952963 38.5442606,19.9456827 L38.6869403,19.9363802 C38.6827744,19.9012372 38.6744428,19.831985 38.670277,19.796842 C38.7161011,19.6707409 38.7608838,19.5446398 38.8035835,19.4175051 L38.8650295,19.4454127 C38.9243926,18.5017215 38.9066878,17.5559631 38.8598222,16.612272 L38.7952519,16.6443141 C38.7629667,16.4851372 38.7265157,16.3259604 38.6858988,16.1688508 C38.6661111,16.0138085 38.6504893,15.8587661 38.6359089,15.7037238 L38.5463435,15.7202616 C38.547385,15.6355051 38.5505093,15.4670258 38.5515508,15.3833029 L38.4119955,15.3843365 C38.435949,15.3336893 38.4838561,15.2334286 38.5067681,15.183815 L38.3859591,15.2024201 C38.3474251,14.9615877 38.2620256,14.7341922 38.1610042,14.514032 C38.1557969,14.4447798 38.1443409,14.3052417 38.1380922,14.2359894 L38.0058271,14.2473592 C38.0204075,14.1987793 38.0516512,14.1016194 38.0662316,14.0530394 L37.9370909,14.0530394 C37.935008,13.9703502 37.9298007,13.8049717 37.9266763,13.7222824 L37.8006599,13.7791313 L37.8339866,13.6726688 C37.762126,13.5362316 37.6923484,13.3997943 37.6194463,13.2654243 C37.6267365,13.2292477 37.6402755,13.1568946 37.6475657,13.120718 L37.4955129,13.1114155 C37.5069689,13.061802 37.5309224,12.9625748 37.5434199,12.9129613 L37.3903257,12.9119277 C37.4007403,12.8602469 37.4215694,12.7568853 37.431984,12.7052045 L37.3278382,12.7124398 C37.297636,12.6452548 37.2382729,12.5098512 37.2091121,12.4416325 C37.2122365,12.4075232 37.2184852,12.3372373 37.2216096,12.3020944 L37.076847,12.2886574 C37.0851786,12.2369766 37.1028834,12.1325814 37.1112151,12.079867 L36.9664525,12.0974385 L37.0143595,11.9485978 L36.8591824,11.9816735 C36.8695969,11.9465306 36.8914675,11.8762447 36.9018821,11.8411018 C36.769617,11.6478156 36.6425592,11.4524623 36.5030039,11.2653778 C36.5030039,11.2333357 36.5040454,11.1702852 36.5040454,11.1392767 L36.4165629,11.1661507 C36.3259561,10.985268 36.2311835,10.8074861 36.1405767,10.6276369 L36.0437211,10.6369395 C36.0426797,10.6048974 36.0426797,10.5418468 36.0416382,10.5108383 C35.8833367,10.315485 35.7333668,10.1128963 35.6000603,9.90100506 C35.5740238,9.90100506 35.5219509,9.90100506 35.4959145,9.89997144 C35.4021833,9.726324 35.3042863,9.55474379 35.2074308,9.38212996 L35.0970363,9.40176866 C35.103285,9.35008787 35.1157825,9.2467263 35.1209898,9.19504551 C35.0834973,9.1940119 35.0085124,9.19091105 34.9710199,9.18884382 C34.8429207,9.0234653 34.6981581,8.87152379 34.5700588,8.70717889 C34.5461053,8.66686788 34.5002811,8.58521224 34.4773691,8.54490122 L34.4388351,8.56764077 C34.1597245,8.21000973 33.8150021,7.91026116 33.5015234,7.58260498 C33.414041,7.51748719 33.3276,7.45340301 33.241159,7.39035245 C33.2401176,7.35004144 33.2390761,7.26941941 33.2390761,7.2291084 C33.1870032,7.23324286 33.0849404,7.23944456 33.0328675,7.24357902 L33.0349504,7.16709146 C32.9412193,7.08853666 32.8485295,7.00998187 32.7558398,6.93142707 C32.7214717,6.92625899 32.6527355,6.91695645 32.617326,6.91178837 C32.6162845,6.86217482 32.6142016,6.76294771 32.6131602,6.71230054 C32.5787921,6.71230054 32.5079729,6.71230054 32.4725634,6.71230054 C32.3132204,6.58930026 32.1528359,6.46733361 31.9903686,6.3484678 L32.0195294,6.32572825 C31.9789125,6.30092148 31.8955959,6.25027431 31.8549791,6.22546753 C31.7456261,6.14381189 31.636273,6.06112263 31.5290029,5.97843337 C31.4925519,5.98256783 31.4196499,5.99187037 31.3831988,5.99600484 C31.3779916,5.94018959 31.3686184,5.82752547 31.3634112,5.77171022 C31.3134212,5.78101277 31.2123998,5.80065146 31.1613684,5.80995401 L31.1613684,5.7045252 C31.0457666,5.66111334 30.9301648,5.61666786 30.816646,5.57222239 L30.8562214,5.52260883 C30.7020856,5.47299528 30.5656547,5.39237325 30.4604675,5.2704066 C30.4281823,5.2704066 30.363612,5.26833936 30.3313268,5.26833936 L30.3261195,5.17944841 C30.1876056,5.1329357 30.0501333,5.08435577 29.9126609,5.03887667 L29.9261998,4.98099419 C29.860588,4.94791849 29.7293643,4.88176708 29.6637525,4.84869138 L29.5710628,4.86419562 L29.6075138,4.78253997 C29.2898693,4.66264055 28.9784735,4.5282705 28.672285,4.3835643 L28.6556217,4.2977742 C28.6066732,4.31534566 28.5087762,4.34842137 28.4598277,4.36599283 L28.4775324,4.25332872 C28.3192309,4.20991686 28.1619708,4.16237054 28.0067936,4.11585783 L28.0619909,4.03110134 C27.9880474,4.02800049 27.8412019,4.01973157 27.7682999,4.0155971 C27.5600084,3.89569768 27.336095,3.80680673 27.0965598,3.78406718 C27.1007256,3.77063018 27.1111402,3.74478978 27.1163475,3.73135278 C26.9830409,3.69414261 26.8528587,3.65589883 26.7226765,3.61558782 C26.6851841,3.62385674 26.6091577,3.64039459 26.5716652,3.64866352 L26.6018675,3.51325986 C26.4508561,3.5091254 26.3008863,3.50395732 26.1509164,3.49982285 L26.172787,3.3974949 C26.086346,3.40059574 25.9145055,3.40576382 25.8280646,3.40886467 L25.8728472,3.3055031 C25.6926751,3.29826779 25.5125029,3.28896525 25.3344137,3.28172994 L25.3354552,3.22384746 C25.1761122,3.19180537 25.0188521,3.15562882 24.8636749,3.11428419 C24.6980832,3.1018808 24.5335329,3.08844379 24.3700241,3.07810764 L24.4210555,2.98818307 C24.2346346,2.98508222 24.0482137,2.97991414 23.8628343,2.97784691 L23.8836634,2.90549381 C23.6837036,2.89412404 23.4858266,2.88068703 23.2879497,2.86208195 C22.9661394,2.76285484 22.6255828,2.77112377 22.2933578,2.76078761 C22.2933578,15.8318921 22.2923164,28.9029966 22.2933578,41.9741011 C21.0675623,42.009244 19.8303108,42.0299163 18.6107641,41.8903782 C18.3389437,41.8635042 18.0650404,41.839731 17.8015516,41.7673779 C17.597426,41.7539409 17.3933003,41.7415376 17.1902161,41.7343022 L17.2235427,41.6495458 C17.0714899,41.6464449 16.9194371,41.6443777 16.7684258,41.6433441 L16.8142499,41.5472178 C16.6267876,41.5430833 16.4393252,41.5368816 16.2529043,41.5337808 L16.2935212,41.4603941 C16.0321153,41.4190494 15.7748753,41.3622006 15.514511,41.3218896 L15.5520034,41.2474692 C15.3728727,41.2392003 15.1927006,41.2278305 15.0156528,41.2195616 L15.0333576,41.1255026 C14.9469166,41.1265362 14.7729932,41.1286034 14.6865523,41.129637 L14.7365422,41.0180065 C14.6625987,41.0169729 14.5167947,41.0159393 14.4428512,41.0149057 C14.3095446,40.9528888 14.1762381,40.892939 14.043973,40.8319557 C13.9169152,40.8195523 13.7908988,40.8081825 13.6648825,40.7968128 L13.6992506,40.6655436 L13.5555294,40.7430648 L13.5763586,40.6138628 C13.4888761,40.61593 13.3149527,40.6190309 13.2274703,40.6200645 L13.2649628,40.5280727 C13.0847906,40.48156 12.9056599,40.4298792 12.7265292,40.3844001 L12.7369438,40.3068789 C12.5900983,40.29861 12.4453357,40.2903411 12.3005731,40.2831058 C12.3068219,40.2396939 12.3203608,40.1518366 12.327651,40.1073911 C12.2422515,40.1032566 12.0714525,40.0949877 11.986053,40.0908532 L12.0037577,40.0226346 C11.7704713,39.9440798 11.544475,39.8479535 11.3257689,39.7383903 C11.1872551,39.6629363 11.0539485,39.5781798 10.9248078,39.4913561 C10.7623404,39.4365745 10.6009145,39.3807592 10.4384471,39.3301121 C10.4384471,39.289801 10.4374057,39.2102126 10.4374057,39.1709352 C10.3822084,39.1750697 10.2738968,39.182305 10.2186996,39.1864395 L10.2291142,39.039666 C10.1905802,39.0448341 10.1155953,39.0562039 10.0770614,39.0624056 C10.0145739,39.0293299 9.88855757,38.9621449 9.82502866,38.9290692 L9.82711158,38.8794556 C9.7115098,38.8277748 9.59694947,38.7771276 9.48238915,38.7264805 L9.52092308,38.6675644 C9.34283384,38.5766062 9.16370315,38.4877152 8.98248955,38.4060596 L8.98144809,38.316135 C8.93354105,38.3213031 8.8366855,38.3326729 8.78877845,38.3388746 C8.78252971,38.2830593 8.77211513,38.1724624 8.76690785,38.1166472 C8.71795935,38.1228489 8.62006234,38.1352523 8.57111384,38.141454 L8.55861635,38.0680673 C8.46071934,37.9915797 8.3638638,37.9130249 8.26909116,37.8344701 C8.23680598,37.8365373 8.17431853,37.8417054 8.14203335,37.8448063 L8.15869667,37.7528145 C7.97435869,37.6267133 7.79418655,37.4954441 7.60880711,37.3724439 L7.63276063,37.3445362 C7.45675432,37.2163679 7.2880382,37.0809642 7.11203189,36.9538295 L7.11307334,36.8742411 C7.06204193,36.8752747 6.96102055,36.8794092 6.91103059,36.8814764 C6.9131135,36.8297956 6.91623788,36.726434 6.91832079,36.6747533 L6.78918006,36.694392 L6.77147528,36.6292742 C6.65483204,36.5300471 6.54131318,36.4287527 6.43091868,36.3253911 C6.11848143,36.0122056 5.81229293,35.6938519 5.48631673,35.395137 C5.46444613,35.33312 5.42070491,35.2090862 5.3988343,35.1481028 C5.35509309,35.1481028 5.26761066,35.1491364 5.2249109,35.1491364 L5.24574005,35.0095983 L5.1072262,35.0395732 C5.10930912,34.9971949 5.11451641,34.9134721 5.11659932,34.8710938 C4.98537568,34.7635978 4.85623495,34.6540345 4.72396985,34.5496393 C4.72605276,34.5134628 4.73126005,34.4431769 4.73334296,34.408034 L4.6344045,34.413202 C4.58233163,34.3026052 4.53130021,34.1930419 4.47922733,34.0845122 L4.43861049,34.1041509 C4.29072353,33.907764 4.13346344,33.7186123 3.97724482,33.5304942 C3.98557648,33.493284 4.00119834,33.4178301 4.00953,33.3806199 L3.85435284,33.3826872 C3.85956012,33.33204 3.86893324,33.2328129 3.87414053,33.1831993 C3.83248223,33.1780312 3.75124854,33.1697623 3.7106317,33.1645942 C3.61794198,32.9826779 3.52212789,32.8028287 3.43152109,32.6209124 L3.3211266,32.6529545 C3.33883137,32.6012737 3.37528239,32.4989457 3.39402862,32.4472649 L3.23781,32.4720717 L3.27738538,32.3273655 L3.18261275,32.3325336 C3.10137907,32.121676 3.01181372,31.911852 2.85871947,31.742339 C2.8555951,31.7102969 2.85038781,31.6441455 2.84726344,31.6121034 L2.70770813,31.6193387 C2.71499833,31.5821286 2.72749582,31.5066746 2.73478603,31.4694644 C2.62439153,31.2389681 2.49941663,31.0157071 2.34736384,30.8110512 C2.33590781,30.7521351 2.31299574,30.6332693 2.30153971,30.5743532 L2.21718165,30.59916 C2.17760627,30.4544538 2.13386505,30.3118148 2.09533112,30.1681422 L2.01097307,30.1733103 C2.00889015,30.0926883 2.00368286,29.9304106 2.00159995,29.8497886 L1.85371298,29.8849315 L1.94431979,29.7391917 L1.80164011,29.7702002 C1.79955719,29.6864773 1.79643282,29.5169643 1.79434991,29.4332415 L1.69853582,29.4621827 C1.6547946,29.2792327 1.60792901,29.09835 1.56627072,28.9154 L1.47878829,28.9526102 C1.47878829,28.86682 1.4808712,28.6962735 1.48191266,28.611517 L1.3413159,28.6197859 C1.35797922,28.5701723 1.3902644,28.4709452 1.40588626,28.4202981 L1.26841387,28.4389031 C1.26841387,28.3551803 1.26841387,28.1887681 1.26841387,28.1060789 L1.1819729,28.1050453 C1.13510731,27.8910868 1.08407589,27.678162 1.04241759,27.4631699 L0.954935164,27.5138171 C0.957018079,27.4259597 0.960142452,27.2492114 0.962225367,27.1603205 L0.822670062,27.1654886 C0.84454067,27.115875 0.888281885,27.0145807 0.910152492,26.9639335 L0.784136135,26.981505 C0.7237316,26.5153443 0.562305688,26.0688223 0.515440101,25.6005943 L0.428999129,25.6543424 C0.431082044,25.5675186 0.434206416,25.3928376 0.436289331,25.3060139 L0.314438804,25.3132492 C0.322770464,25.2770726 0.339433784,25.2057531 0.347765444,25.1695766 C0.205085767,24.7106512 0.150929977,24.2300199 0.10406439,23.753523 L0.0280379924,23.7845315 C-0.018827595,22.0821664 -8.136006e-05,20.3798013 0.0342867373,18.6774362 L0.113437507,18.7218817 C0.118644795,18.1864687 0.231122204,17.6603583 0.247785524,17.125979 L0.334226496,17.1724917 C0.336309411,16.9885081 0.341516699,16.8045245 0.344641071,16.6215745 L0.436289331,16.6412132 C0.436289331,16.4892717 0.436289331,16.3383638 0.437330789,16.1864223 L0.539393623,16.2412039 C0.545642368,16.0603212 0.551891113,15.8794384 0.559181316,15.6985557 L0.625834595,15.7037238 C0.679990385,15.388471 0.747685123,15.0752854 0.78205322,14.7569317 L0.912235407,14.8065453 L0.81121403,14.6515029 L0.947644962,14.6814778 C0.951810792,14.5305699 0.957018079,14.3806956 0.963266824,14.2308213 L1.06741257,14.2731996 C1.0715784,14.2039473 1.08095152,14.0644092 1.08615881,13.995157 C1.12469274,13.8742239 1.16114375,13.7522573 1.19759476,13.6302906 L1.27049679,13.6416604 C1.27049679,13.5569039 1.26945533,13.3873909 1.26945533,13.3026344 L1.42046667,13.3212395 C1.39963752,13.2705923 1.35797922,13.169298 1.33715007,13.1186508 L1.47878829,13.1310542 C1.47982974,13.0452641 1.48191266,12.8736839 1.48295412,12.7878938 L1.56002197,12.8189023 C1.62563379,12.61528 1.69332853,12.410624 1.79539136,12.2214724 C1.78914262,12.1883967 1.77664513,12.1222453 1.77039638,12.0891696 L1.92244918,12.0809006 C1.90995169,12.0302535 1.88599817,11.9279255 1.87350068,11.8772783 L2.03492659,11.8783119 C2.02138764,11.8276648 1.99430975,11.7284377 1.98181226,11.6788241 L2.07970926,11.6653871 C2.12449193,11.5217145 2.17135752,11.3801092 2.21718165,11.2374702 L2.29841534,11.2736467 C2.31091283,11.2116298 2.33590781,11.0875959 2.3484053,11.0266126 C2.52545307,10.8074861 2.64001339,10.5490821 2.75353226,10.2948126 L2.87329987,10.3258211 C2.85247072,10.2741403 2.81289534,10.1718124 2.79310765,10.1201316 L2.9118338,10.1480392 C2.99619186,9.96198838 3.08888158,9.78007202 3.18052983,9.59712203 L3.26801226,9.61055904 C3.26280498,9.55991187 3.2523904,9.45861753 3.24718311,9.40797035 C3.28779996,9.40383589 3.36799218,9.39556697 3.40756757,9.3914325 C3.51379623,9.13406219 3.66584903,8.89943142 3.86164304,8.69890997 C3.86060158,8.66583426 3.85956012,8.59864924 3.85851867,8.56453992 L3.94391818,8.57901054 C4.07410037,8.37952271 4.21678004,8.1883038 4.35945972,7.99605127 L4.39695219,7.93610156 L4.53338312,7.94643772 C4.52088563,7.89889139 4.49693211,7.80586598 4.48443462,7.75831965 L4.62503138,7.75418519 L4.59482912,7.67459678 C4.63232159,7.63531938 4.70626507,7.55469735 4.74375754,7.51438634 L4.78229146,7.56089905 C4.80520353,7.51645357 4.85206912,7.42756262 4.87498118,7.38415076 C5.13013827,7.10817536 5.39779285,6.84460335 5.6560743,6.57276241 L5.64982556,6.49110677 C5.69981552,6.49214039 5.79875398,6.49524123 5.84874394,6.49627485 C5.84770248,6.44459406 5.84457811,6.34019887 5.84353665,6.28851809 L5.98413342,6.32469464 L5.93935074,6.21409776 C6.04662087,6.15208081 6.15493245,6.09109748 6.26428548,6.03114777 C6.26740986,5.99393761 6.27157569,5.92055089 6.27470006,5.88334072 C6.3080267,5.88023988 6.37676289,5.87197095 6.41008953,5.86783649 C6.51840111,5.73863452 6.63296144,5.61460063 6.74543885,5.48849951 C6.766268,5.4812642 6.8079263,5.46472635 6.82875545,5.45749104 C7.00372031,5.28280998 7.19534848,5.12776763 7.38489375,4.9685908 C7.41822039,4.96342272 7.48487367,4.95101934 7.51715885,4.94481764 C7.52132468,4.90967471 7.52965634,4.83732161 7.53382217,4.80217867 C7.72128452,4.72155664 7.89104209,4.60785891 8.02122428,4.44868209 C8.052468,4.44971571 8.11599691,4.44971571 8.14828209,4.44971571 L8.14411626,4.31431205 C8.1774429,4.31431205 8.24513764,4.31637928 8.27846428,4.3174129 C8.36802963,4.23782448 8.46071934,4.15926969 8.55445052,4.08381574 L8.5721553,4.00422733 C8.62214526,4.01249626 8.72108372,4.02903411 8.77107368,4.03730303 C8.77419805,3.98355501 8.78148825,3.87399175 8.78565408,3.81921011 C8.83356113,3.82334458 8.93041667,3.83264712 8.97936518,3.83678158 L8.9960285,3.70137792 C9.04289408,3.70861323 9.1355838,3.72411747 9.18244939,3.73238639 L9.1845323,3.60008358 L9.31367303,3.63522651 C9.31263158,3.59388189 9.30846575,3.51119263 9.30742429,3.469848 L9.49176227,3.54426833 L9.49488664,3.44504122 C9.62506882,3.36441919 9.75212664,3.28172994 9.88126737,3.19904068 C9.91459401,3.20214152 9.98020583,3.2073096 10.0135325,3.20937683 L10.0343616,3.06673786 C10.0843516,3.0822421 10.18329,3.11221696 10.23328,3.12772119 L10.2030777,2.97991414 L10.344716,2.99955284 L10.3415916,2.86208195 C10.3894986,2.87448534 10.4873956,2.8982585 10.5353027,2.90962827 L10.5436343,2.76388846 C10.5821683,2.7669893 10.6592361,2.77422461 10.69777,2.77732546 C10.7623404,2.74321614 10.8904397,2.67293027 10.9539686,2.63778734 L10.9695905,2.53752661 C11.018539,2.55613169 11.1174774,2.59127463 11.1664259,2.6088461 L11.1383066,2.46103905 L11.2820277,2.48171136 L11.2799448,2.34217324 C11.3288933,2.35664386 11.4247074,2.3855851 11.4726144,2.3990221 L11.483029,2.30186223 C11.6267501,2.25534952 11.7694298,2.20573596 11.9131509,2.15715602 L11.8839901,2.05999615 C11.9673067,2.05792891 12.1339399,2.05379445 12.218298,2.05172722 L12.1839299,1.91839079 L12.3182779,1.98247497 L12.3120292,1.89771848 C12.439087,1.84603769 12.5682277,1.79849137 12.6994514,1.75611312 C12.7150732,1.74991143 12.7473584,1.73647442 12.7629803,1.72923911 C12.8931624,1.68686087 13.0243861,1.64551624 13.1566512,1.60727246 L13.1399879,1.49564196 C13.1910193,1.51114619 13.2920407,1.54318828 13.3430721,1.55972613 L13.3649427,1.4129527 C13.4138912,1.4263897 13.5097053,1.45326371 13.5586538,1.46670072 L13.5607367,1.33956598 C13.6419704,1.33853237 13.8065207,1.33646514 13.8877544,1.33543152 L13.8742154,1.25791034 C14.0887557,1.20209509 14.3022544,1.13904453 14.5199191,1.09149821 L14.4938826,0.986069404 C14.5292922,0.993304714 14.6011527,1.00777533 14.6365623,1.01501064 C14.900051,0.917850766 15.1677056,0.831027045 15.4447333,0.780379874 L15.4488991,0.681152765 C15.4988891,0.702858695 15.5999105,0.74523694 15.6499004,0.765909254 L15.6249055,0.641875367 C15.9133892,0.605698816 16.1966656,0.534379331 16.4830664,0.479597698 L16.4757762,0.416547138 C16.6569898,0.41137906 16.8402864,0.40414375 17.0235829,0.398975671 C17.0121268,0.375202509 16.9881733,0.328689801 16.9756758,0.30491664 C17.1600138,0.300782177 17.3433103,0.293546867 17.5286898,0.288378788 L17.5099435,0.211891224 C17.7994687,0.201555067 18.0889939,0.1839836 18.3785191,0.168479364 C18.3816435,6.01771077 18.3795605,11.8669422 18.380602,17.71514 C18.3701874,18.5534023 18.4014311,19.3926983 18.3608143,20.229927 C14.4282708,20.2330279 10.4967687,20.2578346 6.56422524,20.2578346 L6.61109083,20.3425911 C6.41008953,20.3508601 6.21012969,20.3622298 6.01121131,20.3756668 C5.85603414,20.4201123 5.6977326,20.453188 5.54151398,20.4862637 L5.53943107,20.5451798 C5.39570993,20.5544824 5.25303025,20.5627513 5.11035058,20.5730874 L5.16138199,20.7074575 L5.01349503,20.6309699 L5.01557794,20.7198609 C4.79999624,20.8077182 4.58649746,20.9028109 4.37195721,20.993769 L4.3917449,21.109534 C4.34071349,21.0919625 4.23969211,21.055786 4.18970215,21.0371809 L4.21573859,21.1818871 L4.13554636,21.1963577 C4.04910539,21.2738789 3.96266441,21.3503665 3.87518199,21.4258204 L3.87414053,21.5002408 C3.83977243,21.5002408 3.76999478,21.5002408 3.73562668,21.4992071 C3.6273151,21.6697537 3.51692061,21.8413339 3.36799218,21.9798385 C3.36903364,22.0118805 3.37111656,22.0769983 3.37215801,22.110074 L3.22218813,22.110074 C3.23572708,22.1596876 3.26280498,22.2589147 3.27634392,22.3085283 L3.15657631,22.3043938 C3.13783008,22.368478 3.09929615,22.4976799 3.07950846,22.5617641 C2.81289534,23.1416225 2.79831493,23.7814307 2.84205615,24.4067682 L2.92745566,24.3633563 C2.93474587,24.6165922 2.94724336,24.869828 2.95453356,25.1230639 L3.0368087,25.0713831 C3.07638409,25.4228124 3.13783008,25.7742418 3.2523904,26.1101669 C3.24405874,26.1442762 3.22635396,26.2114612 3.2180223,26.2455706 L3.35132886,26.2342008 C3.35028741,26.3199909 3.34924595,26.4905375 3.34820449,26.5763276 L3.45651607,26.5432519 C3.45964044,26.6900253 3.46276482,26.838866 3.46693065,26.986673 L3.54608142,26.9587654 C3.59502992,27.1727239 3.64814425,27.3856487 3.69396838,27.6006408 L3.78145081,27.5654978 C3.78040935,27.6492207 3.7793679,27.8187337 3.77832644,27.9034902 L3.92204757,27.9024566 L3.85226992,28.0874738 C3.87934782,28.0874738 3.93454506,28.0874738 3.96266441,28.0874738 C4.04910539,28.3717181 4.15220968,28.6497607 4.23552628,28.9350387 C4.27301875,28.9319378 4.34592077,28.9267698 4.38341324,28.9236689 C4.38757907,29.0063582 4.39591073,29.1727703 4.40007656,29.2564932 L4.48339316,29.2347872 C4.52713438,29.3774262 4.57712434,29.5190316 4.62398993,29.6616705 L4.70834798,29.6409982 C4.71251381,29.7205866 4.72084547,29.8787298 4.72396985,29.9583183 C4.7593794,29.9593519 4.82915705,29.9614191 4.86352515,29.9624527 C4.93955155,30.1288649 5.02078523,30.2932098 5.11035058,30.4544538 C5.11035058,30.4864959 5.10930912,30.5516137 5.10930912,30.5836558 L5.26136191,30.5898575 C5.24782297,30.6405046 5.21970361,30.7407654 5.20512321,30.7914125 L5.30926896,30.7655721 C5.3353054,30.808984 5.38841973,30.8947741 5.41549762,30.938186 C5.51547754,31.0952956 5.61233309,31.255506 5.72897633,31.4012458 C5.73001779,31.4301871 5.7321007,31.4880695 5.73314216,31.5170108 L5.8081271,31.5252797 C5.94455803,31.728902 6.09348645,31.9232218 6.25178799,32.1123734 C6.25387091,32.1444155 6.25803674,32.2095333 6.26116111,32.242609 L6.38926038,32.2250375 L6.36218249,32.3542395 L6.49548905,32.344937 C6.49236467,32.3955841 6.48715739,32.4979121 6.48507447,32.5495929 C6.53402297,32.5506265 6.63296144,32.5537273 6.68190994,32.554761 C6.68399285,32.5919711 6.68815868,32.6663915 6.68920014,32.7036016 C6.98393261,33.0322914 7.29636986,33.345477 7.57339756,33.689671 C7.60984857,33.6938055 7.68379205,33.7010408 7.72128452,33.7051753 C7.72336744,33.751688 7.72857472,33.845747 7.73065764,33.8932933 C7.77856468,33.8953606 7.87229586,33.9015623 7.9202029,33.9036295 C7.92436873,33.939806 7.93374185,34.0100919 7.93790768,34.0452348 C8.15973813,34.2064789 8.35344922,34.4018323 8.52320679,34.6157907 C8.55549198,34.6147571 8.62006234,34.6126899 8.65234752,34.6116563 L8.66484501,34.7356901 C8.71379352,34.7346565 8.81064906,34.7325893 8.85959756,34.7315557 C8.85959756,34.7822029 8.86168048,34.8855644 8.86272194,34.9372452 L8.99915287,34.908304 L8.97415789,35.0406068 C9.00956744,35.0437076 9.08142801,35.0499093 9.11683757,35.0530102 C9.20327854,35.1294977 9.29284388,35.2049517 9.38345069,35.279372 L9.38345069,35.3641285 L9.52092308,35.319683 L9.49280372,35.4695573 C9.5448766,35.4612884 9.64798089,35.4468178 9.69901231,35.4395825 C9.70317814,35.489196 9.7115098,35.5873895 9.71567563,35.6370031 C9.76566559,35.6349358 9.86772842,35.6297678 9.91875984,35.6277005 L9.91667692,35.766205 C9.96979126,35.7620706 10.0760199,35.7548353 10.1280928,35.7517344 C10.1312172,35.7910118 10.135383,35.8695666 10.1374659,35.908844 C10.196829,35.9419197 10.3134722,36.0070375 10.3717938,36.0390796 C10.4957273,36.0948948 10.6196607,36.1507101 10.7467185,36.2054917 C10.7508844,36.24787 10.759216,36.3346937 10.7633819,36.3781055 C10.8144133,36.3729375 10.9143932,36.3636349 10.9643832,36.3584668 L10.9518857,36.4401225 C11.0903995,36.5093747 11.2289134,36.5837951 11.3445152,36.6912911 C11.3757589,36.6788877 11.4382463,36.6540809 11.4705315,36.6416776 L11.4788632,36.8049888 C11.530936,36.7977535 11.6361233,36.7832829 11.6881961,36.7760476 L11.6704913,36.9155857 L11.813171,36.8752747 L11.7923419,36.9755354 C11.9318972,37.0189473 12.0714525,37.0664936 12.2120492,37.1119727 L12.2110078,37.2308385 C12.2609977,37.2174015 12.3620191,37.1915611 12.4120091,37.1781241 L12.4172164,37.3279984 C12.4692892,37.3176622 12.573435,37.2980235 12.6255079,37.2876874 L12.621342,37.4437634 C12.671332,37.43136 12.7723534,37.4055196 12.8233848,37.3931162 L12.8337994,37.4933769 C12.9733547,37.5378224 13.11291,37.5864023 13.2545482,37.6318814 L13.2482995,37.7517808 C13.2993309,37.7383438 13.4013937,37.7104362 13.4513837,37.6969992 L13.4628397,37.8499743 C13.5149126,37.8344701 13.6169754,37.8044952 13.6680068,37.7900246 L13.6430118,37.9068232 C13.823184,37.9492014 14.0023147,37.9977814 14.1824868,38.0432605 L14.1970672,38.1507565 C14.2470572,38.1373195 14.34912,38.1114791 14.4001514,38.0990757 L14.3970271,38.2541181 C14.4490999,38.2406811 14.5532457,38.2158743 14.6053186,38.2024373 L14.5959455,38.3409418 C14.6803035,38.3388746 14.8511025,38.3357737 14.9365021,38.3347401 L14.8979681,38.4132949 C15.2270687,38.4773791 15.5499205,38.5735053 15.8675651,38.6799678 L15.8550676,38.784363 C15.9092234,38.7647243 16.0185764,38.7264805 16.0727322,38.7068418 L16.040447,38.8236404 C16.4809835,38.8763548 16.9006909,39.0313971 17.3412274,39.0841115 L17.2891545,39.1585318 C17.4734925,39.1636999 17.658872,39.1699016 17.8452928,39.1761033 L17.852583,39.3280448 C17.902573,39.2856666 18.0025529,39.1998765 18.0525429,39.1574982 L18.0285894,39.3456163 C18.3274877,39.3642214 18.626386,39.3848937 18.9263257,39.4045324 C19.1169124,39.4417426 19.3095821,39.4696502 19.5043346,39.4975578 C19.5262052,26.392344 19.5147492,13.2860966 19.5095419,0.180882752 L19.6241023,0.193286141 Z" id="Shape"></path>
                </g>
            </g>
        </g>
    </g>
</svg>