<?xml version="1.0" encoding="UTF-8" standalone="no"?>
<svg width="80px" height="80px" viewBox="0 0 80 80" version="1.1" xmlns="http://www.w3.org/2000/svg" xmlns:xlink="http://www.w3.org/1999/xlink">
    <!-- Generator: Sketch 49.2 (51160) - http://www.bohemiancoding.com/sketch -->
    <title>giropay_r</title>
    <desc>Created with Sketch.</desc>
    <defs></defs>
    <g id="Page-1" stroke="none" stroke-width="1" fill="none" fill-rule="evenodd">
        <g id="m7-withdraw-balance-0-1366" transform="translate(-853.000000, -977.000000)">
            <g id="giropay_r" transform="translate(853.000000, 977.000000)">
                <g id="Group-8-Copy-19" fill="#F0F2F5">
                    <rect id="Mask" x="0" y="0" width="80" height="80" rx="40"></rect>
                </g>
                <g id="Group-10" transform="translate(15.000000, 26.000000)">
                    <path d="M0.050949463,5.41361276 C0.050949463,2.76543561 1.75425567,0.618319286 3.85429285,0.618319286 L45.3042294,0.618319286 C47.405169,0.618319286 49.1075532,2.76543561 49.1075532,5.41361276 L49.1075532,22.5502693 C49.1075532,25.1969055 47.405169,27.3444189 45.3042294,27.3444189 L3.85429285,27.3444189 C1.75425567,27.3444189 0.050949463,25.1969055 0.050949463,22.5502693 L0.050949463,5.41361276 L0.050949463,5.41361276 L0.050949463,5.41361276 Z" id="_92653320" fill="#000268"></path>
                    <path d="M2.05370076,5.57769128 L2.05370076,22.387757 C2.05370076,24.0422897 3.05418647,25.384203 4.28830385,25.384203 L24.6952102,25.384203 L24.6952102,2.581245 L4.28830385,2.581245 C3.05418647,2.581245 2.05370076,3.9231337 2.05370076,5.57769128 L2.05370076,5.57769128 L2.05370076,5.57769128 Z M38.2785982,13.8987583 C38.2785982,14.9690224 37.7425258,15.7045915 36.854996,15.7045915 C36.0709142,15.7045915 35.4172949,14.9690224 35.4172949,13.9889018 C35.4172949,12.9828769 35.9921385,12.2349278 36.854996,12.2349278 C37.7699676,12.2349278 38.2785982,13.0088065 38.2785982,13.8987583 L38.2785982,13.8987583 Z M33.0673919,20.0371085 L35.4172949,20.0371085 L35.4172949,16.3871332 L35.4435537,16.3871332 C35.8886906,17.1869408 36.7774034,17.4833262 37.5999039,17.4833262 C39.6238027,17.4833262 40.7076549,15.8330446 40.7076549,13.8468991 C40.7076549,12.2225471 39.6763203,10.4546264 37.7950427,10.4546264 C36.7249114,10.4546264 35.7323479,10.8806584 35.2609522,11.8224441 L35.2346934,11.8224441 L35.2346934,10.6105751 L33.0673919,10.6105751 L33.0673919,20.0371085 L33.0673919,20.0371085 Z" id="_92186184" fill="#FFFFFF"></path>
                    <path d="M11.862641,13.7243474 C11.862641,12.8084661 12.3203157,12.0469681 13.1953083,12.0469681 C14.2529266,12.0469681 14.6965031,12.8850607 14.6965031,13.6330105 C14.6965031,14.6649895 14.030346,15.3610801 13.1953083,15.3610801 C12.4903801,15.3610801 11.862641,14.7686819 11.862641,13.7243474 L11.862641,13.7243474 Z M16.9692164,10.4226154 L14.840308,10.4226154 L14.840308,11.6344843 L14.8156102,11.6344843 C14.3179565,10.8087717 13.5076165,10.2666667 12.5029173,10.2666667 C10.3877049,10.2666667 9.43396226,11.7641063 9.43396226,13.7626325 C9.43396226,15.7487779 10.5965652,17.1409837 12.4625603,17.1409837 C13.4041679,17.1409837 14.1878718,16.7791903 14.7489952,15.9929561 L14.7752532,15.9929561 L14.7752532,16.3547243 C14.7752532,17.6695399 14.0440669,18.3014166 12.6867025,18.3014166 C11.7066762,18.3014166 11.1051959,18.0951747 10.3877049,17.7473287 L10.2701581,19.5790662 C10.8175855,19.7729273 11.7450942,20.0050981 12.8693041,20.0050981 C15.611852,20.0050981 16.9692164,19.1147485 16.9692164,16.3547243 L16.9692164,10.4226154 L16.9692164,10.4226154 Z" id="_47303032" fill="#FF0007"></path>
                </g>
            </g>
        </g>
    </g>
</svg>