<?xml version="1.0" encoding="UTF-8" standalone="no"?>
<svg width="80px" height="80px" viewBox="0 0 80 80" version="1.1" xmlns="http://www.w3.org/2000/svg" xmlns:xlink="http://www.w3.org/1999/xlink">
    <!-- Generator: Sketch 49.2 (51160) - http://www.bohemiancoding.com/sketch -->
    <title>ideal_r</title>
    <desc>Created with Sketch.</desc>
    <defs></defs>
    <g id="Page-1" stroke="none" stroke-width="1" fill="none" fill-rule="evenodd">
        <g id="m7-withdraw-balance-0-1366" transform="translate(-963.000000, -977.000000)">
            <g id="ideal_r" transform="translate(963.000000, 977.000000)">
                <g id="Group-8-Copy-20" fill="#F0F2F5">
                    <rect id="Mask" x="0" y="0" width="80" height="80" rx="40"></rect>
                </g>
                <g id="ideal-copy-2" transform="translate(20.000000, 22.000000)">
                    <path d="M39.9979026,16.1557394 C39.9979026,16.726802 39.9979026,17.2977169 39.9979026,17.8687794 C39.9716854,17.89861 39.9824719,17.9346429 39.9830712,17.9677223 C40.0085393,19.3535126 39.8049438,20.7121305 39.4873408,22.0576053 C39.1884644,23.3236305 38.7510112,24.541218 38.1507116,25.6982584 C37.6007491,26.7584234 36.9255431,27.7355946 36.1158052,28.6231265 C35.3201498,29.4951525 34.4269663,30.2536157 33.4407491,30.9061954 C32.5763296,31.478144 31.6582772,31.9541033 30.6990262,32.3519421 C28.9253933,33.0875155 27.0756554,33.5425049 25.1734831,33.8019714 C24.3435206,33.9152387 23.5125094,34.0128525 22.6729588,34.0279154 C22.448839,34.0319027 22.2244195,34.0341178 22.0001498,34.0388434 C21.8371536,34.048147 21.6731086,34.0197933 21.5110112,34.0540541 C14.3413783,34.0540541 7.17173034,34.0540541 0,34.0540541 C0,22.7061977 0,11.3584447 0,0 C7.1689588,0 14.34,0 21.5110112,0 C21.6820974,0.0328578796 21.8549813,0.0065863435 22.0266667,0.0152253815 C23.225618,0.0215311409 24.4151311,0.138682403 25.5995506,0.31601158 C26.9400749,0.516717845 28.25603,0.819290921 29.5387266,1.25366471 C31.3913109,1.88102131 33.106367,2.76106608 34.6166292,4.00149903 C35.708764,4.89846745 36.6425468,5.93591993 37.4122846,7.11741544 C38.6097378,8.95538923 39.3216479,10.9721985 39.7134082,13.1098657 C39.828764,13.7393341 39.9185019,14.3723171 39.9631461,15.0102178 C39.986367,15.3430792 39.9896629,15.6781557 39.9835206,16.0124938 C39.9826217,16.0600455 39.9673408,16.1106983 39.9979026,16.1557394" id="Fill-1" fill="#000105"></path>
                    <path d="M22.0503371,0 C22.0506367,0.129764714 22.0509363,0.259313871 22.0515356,0.388863029 C21.8708614,0.405460841 21.6891386,0.724483725 21.5110112,0 C21.6907865,0 21.8705618,0 22.0503371,0" id="Fill-5" fill="#ABADA9"></path>
                    <path d="M22.0250187,34.1296921 C22.0206742,34.2433582 22.019176,34.365444 22.0203745,34.4938446 C21.8506367,34.4938446 21.6808989,34.4938446 21.5110112,34.4938446 C21.5409738,33.9528782 21.58397,34.1191675 21.6220225,34.1317971 C21.7564045,34.1823153 21.8906367,33.8602614 22.0250187,34.1296921" id="Fill-6" fill="#4B4E4C"></path>
                    <path d="M1.64497378,17.026141 C1.64497378,11.9513781 1.64497378,6.87657087 1.64497378,1.80176367 C1.64497378,1.60536954 1.64498876,1.60534001 1.84113858,1.60534001 C8.06299625,1.60534001 14.2848689,1.60510372 20.5066667,1.60566489 C21.2058427,1.60572396 21.9050187,1.61874897 22.6028464,1.66024589 C24.2999251,1.76118234 25.9779775,1.98718549 27.623221,2.42121962 C29.1680899,2.82879023 30.6428464,3.40341178 32.0110861,4.22754647 C34.2996255,5.60592344 35.9854682,7.50346968 37.0534831,9.93036005 C37.5662921,11.0954488 37.9030712,12.3106291 38.1143071,13.5620639 C38.3553558,14.9902815 38.4209738,16.4284968 38.3706367,17.8724713 C38.3246442,19.1928412 38.1632959,20.4997726 37.8438951,21.785291 C37.4465918,23.3844729 36.8212734,24.8861888 35.8817978,26.2539626 C34.9919101,27.5496707 33.8825468,28.6281475 32.5701873,29.5054898 C31.1824719,30.4336326 29.6638202,31.0803052 28.0581273,31.5381004 C26.9974532,31.8405405 25.9174532,32.0520124 24.8235206,32.1977685 C23.41603,32.3851691 22.0017978,32.4597454 20.5823221,32.4597454 C14.3255581,32.4591547 8.06873408,32.4595978 1.81192509,32.4591547 C1.62349064,32.4591547 1.64531835,32.484555 1.64530337,32.2949392 C1.6448839,27.2054382 1.64497378,22.1157896 1.64497378,17.026141" id="Fill-7" fill="#FFFFFE"></path>
                    <path d="M13.3495431,23.657821 C13.3495431,21.6200417 13.3492734,19.5824102 13.3499476,17.5446309 C13.3500075,17.3312393 13.3242097,17.3606268 13.5429813,17.3579686 C13.9622322,17.3528 14.3820524,17.3740653 14.8006142,17.337737 C15.5577528,17.2723166 16.2262172,17.0121118 16.7540075,16.4546354 C17.1201498,16.06802 17.3531086,15.607862 17.4764045,15.0971988 C17.7057678,14.1477464 17.7102622,13.2006125 17.3474157,12.281094 C16.9214981,11.2015391 16.0981273,10.6071881 14.9407191,10.4524976 C14.5032959,10.3940327 14.0631011,10.4316901 13.6242846,10.4205996 C13.5403296,10.4184731 13.4367341,10.4547866 13.3773333,10.4036169 C13.3089288,10.3446794 13.3509663,10.236625 13.3508914,10.1507367 C13.3491386,8.20163686 13.3493633,6.25252221 13.3498127,4.30340756 C13.3498577,4.10809147 13.3291236,4.12754038 13.5235206,4.12758468 C16.0401498,4.12814585 18.5567041,4.12841166 21.0732584,4.13071541 C21.997603,4.13155716 22.9192509,4.18737864 23.837603,4.28788683 C25.2194757,4.43913645 26.5785768,4.70055226 27.8982772,5.14115797 C29.1979026,5.57502965 30.4145318,6.166693 31.5084644,6.99073908 C32.8561798,8.0058925 33.8774532,9.27800192 34.5884644,10.793998 C35.0880899,11.8592283 35.4079401,12.977238 35.5997004,14.1334219 C35.6722097,14.5706015 35.7228464,15.0100701 35.7667416,15.4505872 C35.7701873,15.484848 35.7701873,15.5194041 35.773633,15.5536649 C35.778427,15.6015119 35.7626966,15.6291273 35.7089139,15.6266168 C35.6791011,15.6252877 35.6491386,15.6269122 35.619176,15.6269122 C34.8551311,15.6270598 34.091236,15.6270598 33.327191,15.6270598 C33.3023221,15.6270598 33.2773034,15.6258784 33.2522846,15.6270598 C33.2029963,15.6294227 33.1779775,15.6086004 33.1790262,15.5583906 C33.1799251,15.5140878 33.1785768,15.469785 33.1785768,15.4254823 C33.1785768,13.8159926 33.1788764,12.2065029 33.1782772,10.5970132 C33.1781273,10.3946973 33.1989513,10.4185912 32.9923596,10.4181039 C32.5229963,10.4169963 32.053633,10.4176018 31.5842697,10.4178676 C31.4121348,10.417971 31.4289139,10.408564 31.4289139,10.5673894 C31.4284644,11.4631912 31.4286142,12.358993 31.4286142,13.2547948 C31.4286142,14.5640447 31.4284644,15.8732355 31.4289139,17.1825297 C31.4289139,17.3749514 31.4082397,17.3576733 31.6038951,17.3576733 C32.9520599,17.3579686 34.3002247,17.3576733 35.6483895,17.3581163 C35.8516854,17.3581163 35.8329588,17.3378847 35.8266667,17.5421204 C35.7835206,18.9381004 35.621573,20.3176883 35.2338577,21.6655259 C34.889588,22.8627341 34.3827715,23.9852183 33.6531835,25.0056586 C32.8172285,26.174956 31.7602996,27.1050186 30.5131086,27.8295164 C29.3381273,28.5120743 28.0743071,28.9738567 26.755206,29.2974145 C25.9214981,29.5017979 25.0767041,29.6462249 24.2238202,29.7482689 C23.0277154,29.8912191 21.8271161,29.948222 20.6230712,29.9485174 C18.2563296,29.9489604 15.889588,29.9486651 13.5227416,29.9486651 C13.5077603,29.9486651 13.492779,29.9488127 13.4777978,29.9486651 C13.3513558,29.9465976 13.3512659,29.9465976 13.349618,29.8151661 C13.3491835,29.7807576 13.3495431,29.7462014 13.3495431,29.711793 C13.3495431,27.6938023 13.3495431,25.6758116 13.3495431,23.657821" id="Fill-8" fill="#C61C6E"></path>
                    <path d="M10.2799401,24.611364 C10.2799401,26.3335599 10.2801948,28.0559035 10.2795955,29.7780994 C10.2795206,29.9740653 10.3017978,29.9452685 10.1165993,29.9452685 C8.19970037,29.9460069 6.2828015,29.9457115 4.36590262,29.9457115 C4.34094382,29.9457115 4.31573034,29.9434964 4.29107116,29.9461546 C4.22338577,29.9535384 4.18528839,29.9336021 4.19420225,29.8581398 C4.19821723,29.8241743 4.19478652,29.7893228 4.19478652,29.7549143 C4.19477154,26.3201214 4.19457678,22.8854762 4.19523596,19.450831 C4.1952809,19.2293172 4.16599251,19.2615105 4.38196255,19.2615105 C6.28886891,19.2606245 8.19579026,19.2606245 10.1026966,19.2615105 C10.3028764,19.2615105 10.2794757,19.2293172 10.2795506,19.429861 C10.2802247,21.1570779 10.2799401,22.8841471 10.2799401,24.611364" id="Fill-9" fill="#000105"></path>
                    <path d="M3.45469663,13.8621856 C3.47734831,11.7237357 5.26142322,10.1210834 7.30026966,10.1535426 C9.37682397,10.1866072 11.0514007,11.875074 11.0197004,13.9394053 C10.9872659,16.051628 9.20826966,17.6466749 7.16945318,17.6109374 C5.18906367,17.5762336 3.45421723,15.9860599 3.45469663,13.8621856" id="Fill-10" fill="#000105"></path>
                    <path d="M13.3441498,13.8801135 C13.3441498,13.3638682 13.3441498,12.8476229 13.3441648,12.3313776 C13.3441648,12.2969691 13.3457678,12.262472 13.3440599,12.2281522 C13.3409738,12.1659068 13.3680749,12.1415551 13.4325243,12.1423673 C13.6369888,12.1449516 13.8415281,12.1415994 14.0459925,12.1436077 C14.275176,12.1458524 14.5042247,12.1369033 14.7333483,12.1632634 C15.2537828,12.2231312 15.5956554,12.4950763 15.7553558,12.9855374 C15.8807491,13.3707794 15.8930337,13.7680422 15.8651685,14.1674907 C15.8515356,14.3635599 15.8248689,14.5580786 15.7677903,14.7478568 C15.6005993,15.303502 15.2521348,15.5899932 14.6639551,15.6173132 C14.2558052,15.6362157 13.8462022,15.6257308 13.4372434,15.6261738 C13.3470112,15.6263215 13.3448689,15.6218912 13.3445843,15.5025691 C13.3435955,15.0748998 13.3441648,14.6471124 13.3441498,14.2193692 C13.3441498,14.106279 13.3441498,13.9932036 13.3441498,13.8801135" id="Fill-11" fill="#C61C6E"></path>
                    <path d="M30.5234457,17.3451208 C30.4817978,17.3714071 30.4359551,17.3594454 30.3925094,17.3594454 C29.8834457,17.3604791 29.3742322,17.3603315 28.8650187,17.3600361 C28.7222472,17.3598884 28.7216479,17.3595931 28.6822472,17.2266848 C28.5748315,16.8634022 28.4683146,16.4996765 28.3605993,16.1363939 C28.3241948,16.0135276 28.3229963,16.0123462 28.2017978,16.0123462 C27.5179026,16.0117555 26.8340075,16.0117555 26.1501124,16.0121985 C26.0329588,16.0123462 26.0314607,16.0132322 25.9982022,16.1242845 C25.8880899,16.4921451 25.7812734,16.860744 25.668764,17.2278662 C25.628015,17.3604791 25.661573,17.3603315 25.4856929,17.3601838 C24.9764794,17.3600361 24.4672659,17.3604791 23.9582022,17.3594454 C23.9149064,17.3594454 23.8690637,17.3712595 23.8269663,17.3454162 C23.8116854,17.2882656 23.8434457,17.2393849 23.8587266,17.1894705 C24.5315356,14.9867373 25.2059925,12.7844915 25.8801498,10.5822161 C25.8903371,10.5492696 25.9030712,10.5168843 25.9099625,10.4833175 C25.9195506,10.4370655 25.9453184,10.4157263 25.9929588,10.4177347 C26.0178277,10.4187832 26.0428464,10.417528 26.0678652,10.417528 C26.8065918,10.4175132 27.5453184,10.4171735 28.2841948,10.4178381 C28.4320599,10.4179562 28.4181273,10.3990685 28.4650187,10.5526071 C29.1417228,12.7646586 29.8185768,14.9766953 30.4939326,17.1891751 C30.5090637,17.2389419 30.5429213,17.2876749 30.5234457,17.3451208" id="Fill-12" fill="#FFFFFE"></path>
                    <path d="M18.6298127,13.8837167 C18.6298127,12.7961431 18.6298127,11.7085694 18.6298127,10.6209958 C18.6298127,10.5914754 18.6292135,10.5619402 18.6299625,10.5324198 C18.6322097,10.4227261 18.6323596,10.4206734 18.7469663,10.4206291 C20.0650187,10.420127 21.3829213,10.420127 22.7009738,10.4205701 C22.8230712,10.4206144 22.8248689,10.4224603 22.8250187,10.5417529 C22.8257678,11.0338679 22.8257678,11.525983 22.8250187,12.018098 C22.8248689,12.1412006 22.823221,12.1423673 22.6894382,12.1424411 C21.9805243,12.1428694 21.2716105,12.1422491 20.5626966,12.1428989 C20.3537079,12.1431056 20.3785768,12.1225935 20.3775281,12.3225318 C20.3764794,12.4947662 20.3761798,12.6670301 20.3778277,12.8392497 C20.3787266,12.9439962 20.3805243,12.946802 20.4864419,12.9472893 C20.8059925,12.9487809 21.1255431,12.9478357 21.4449438,12.9478505 C21.8194757,12.9478653 22.1938577,12.9472303 22.5682397,12.9482935 C22.6852434,12.9486184 22.6879401,12.9507302 22.6882397,13.0602761 C22.6892884,13.5622264 22.6892884,14.0641914 22.6882397,14.5661417 C22.6879401,14.6742699 22.6852434,14.6761454 22.5674906,14.6762636 C21.893633,14.6769133 21.2196255,14.6763374 20.545618,14.6767509 C20.3579026,14.676869 20.3782772,14.6612892 20.3775281,14.8431964 C20.3766292,15.0598369 20.376779,15.2763297 20.3775281,15.4928225 C20.3778277,15.6257308 20.3787266,15.6267645 20.5188015,15.6267645 C21.2726592,15.6272075 22.0265169,15.6266168 22.7803745,15.6273552 C22.9769288,15.6275029 22.9617978,15.6026933 22.9619476,15.8118023 C22.9625468,16.2694498 22.9620974,16.7270973 22.9620974,17.1848925 C22.9620974,17.219301 22.9613483,17.2537095 22.9614981,17.288118 C22.9617978,17.337737 22.9355805,17.358707 22.8870412,17.3576733 C22.8570787,17.3569349 22.8271161,17.3579686 22.7971536,17.3579686 C21.4642697,17.3579686 20.131236,17.3581163 18.7983521,17.3576733 C18.6139326,17.3576733 18.6299625,17.3755421 18.6299625,17.1907996 C18.6296629,16.0883992 18.6298127,14.9859989 18.6298127,13.8837167" id="Fill-13" fill="#FFFEFE"></path>
                    <path d="M27.7890637,14.2862516 C27.3772285,14.2862516 26.9694382,14.2862516 26.5626966,14.2862516 C26.5430712,14.2356874 26.5697378,14.1952685 26.581573,14.1548201 C26.7493633,13.5847617 26.9192509,13.0152645 27.0886891,12.445664 C27.0942322,12.4268353 27.1017228,12.4085382 27.1066667,12.3895619 C27.1158052,12.3542674 27.1289888,12.3262089 27.1733333,12.3229453 C27.2275655,12.3189581 27.2408989,12.3555521 27.2522846,12.3939774 C27.2997753,12.5540433 27.3460674,12.7144636 27.3934082,12.8745885 C27.5240449,13.3172912 27.6551311,13.7599201 27.7862172,14.2025342 C27.7931086,14.2259703 27.8035955,14.2487715 27.7890637,14.2862516" id="Fill-14" fill="#C61C6E"></path>
                </g>
            </g>
        </g>
    </g>
</svg>