<?xml version="1.0" encoding="UTF-8"?>
<svg width="80px" height="80px" viewBox="0 0 80 80" version="1.1" xmlns="http://www.w3.org/2000/svg" xmlns:xlink="http://www.w3.org/1999/xlink">
    <!-- Generator: Sketch 51.3 (57544) - http://www.bohemiancoding.com/sketch -->
    <title>Group 9 Copy</title>
    <desc>Created with Sketch.</desc>
    <defs></defs>
    <g id="Page-1" stroke="none" stroke-width="1" fill="none" fill-rule="evenodd">
        <g id="m7-withdraw-balance-0-1366-copy" transform="translate(-193.000000, -527.000000)">
            <g id="Group-9-Copy" transform="translate(193.000000, 527.000000)">
                <g id="Group-8-Copy-4">
                    <rect id="Mask" fill="#F0F2F5" x="0" y="0" width="80" height="80" rx="40"></rect>
                    <g id="Group-35" transform="translate(20.000000, 20.000000)" fill-rule="nonzero">
                        <path d="M7.16024,31.39288 C9.49888,31.2256 11.43408,29.6184 13.76944,29.51672 C16.1212,29.3888 17.9908,31.26496 20.31304,31.28136 C22.98296,31.34696 25.13792,28.94272 27.87016,29.56264 C29.8644,30.06448 31.61592,31.39616 33.76104,31.33384 C33.67904,31.46504 33.51176,31.72744 33.42648,31.85864 L33.32808,31.84552 C31.29448,31.81272 29.63808,30.51384 27.716,30.08416 C25.06904,29.60528 22.96,31.92424 20.3524,31.81928 C17.89568,31.88488 15.94736,29.766 13.46112,30.04152 C11.4308,30.30392 9.72192,31.65856 7.6588,31.816 C7.872,31.97344 8.09176,32.1276 8.31152,32.27848 C10.20736,31.59952 12.02448,30.42856 14.10072,30.48104 C16.42624,30.51712 18.29256,32.41296 20.6476,32.23256 C22.87144,32.1604 24.6492,30.42528 26.88944,30.44168 C29.0608,30.42856 30.79264,32.0292 32.91152,32.31128 C32.78688,32.41624 32.53432,32.62288 32.40968,32.72456 C30.40232,32.37032 28.70656,30.8156 26.59424,30.99928 C24.40648,31.20592 22.5992,32.86888 20.34912,32.7836 C17.89568,32.83936 15.9408,30.74344 13.45784,31.00584 C11.64728,31.21248 10.11224,32.36048 8.32136,32.65896 C7.61616,32.67536 7.42264,31.89144 7.16024,31.39288 Z" id="Shape" fill="#98867D"></path>
                        <path d="M8.98392,32.81312 C10.742,32.51464 12.29344,31.32728 14.13024,31.47816 C16.44264,31.5208 18.3024,33.41336 20.65088,33.2264 C22.87144,33.15424 24.6492,31.41912 26.88944,31.43552 C28.77544,31.41912 30.38592,32.54088 32.062,33.25264 C31.87832,33.31824 31.50768,33.456 31.32072,33.5216 C29.75616,32.76392 28.11944,31.77008 26.30888,32.01608 C24.2392,32.33424 22.49096,33.84632 20.336,33.77416 C18.08592,33.83976 16.29832,32.09808 14.08432,31.98656 C12.48696,31.90128 11.06016,32.74424 9.6268,33.31496 C9.41032,33.14768 9.19712,32.9804 8.98392,32.81312 Z" id="Shape" fill="#98867D"></path>
                        <path d="M9.512,33.79384 C11.06016,33.0952 12.68048,32.25552 14.43528,32.45888 C16.61976,32.64256 18.41064,34.3744 20.66072,34.18744 C22.87472,34.10872 24.6492,32.38672 26.87632,32.39328 C28.4376,32.34408 29.78896,33.20672 31.20264,33.72824 C31.04848,33.95456 30.8976,34.18416 30.75328,34.41704 C29.28712,33.16408 27.16496,32.54744 25.30848,33.22312 C23.66848,33.79056 22.12032,34.81392 20.3196,34.73848 C18.08264,34.77456 16.29832,33.046 14.0876,32.9476 C12.61488,32.85904 11.30288,33.62656 9.97776,34.1448 C9.85968,34.05624 9.63008,33.87912 9.512,33.79384 Z" id="Shape" fill="#98867D"></path>
                        <path d="M10.42056,34.28912 C11.63416,33.95128 12.8084,33.3248 14.10728,33.42648 C16.4328,33.44616 18.28928,35.3748 20.6476,35.18456 C22.87144,35.10584 24.65248,33.374 26.88944,33.3904 C28.16208,33.32808 29.28056,34.00704 30.4548,34.37112 C30.33344,34.47608 30.09072,34.686 29.96608,34.79096 C28.80496,34.34488 27.59792,33.79056 26.322,34.00048 C24.25888,34.33176 22.49096,35.81104 20.336,35.73232 C18.27288,35.7684 16.5968,34.31208 14.6124,33.99064 C13.47424,33.81024 12.3492,34.17432 11.25696,34.43672 C11.45704,34.5712 11.6604,34.7024 11.86704,34.83688 C14.12368,33.6856 16.482,34.9812 18.5812,35.83728 C20.67056,36.68024 22.80256,35.67 24.70168,34.82704 C26.2564,34.0956 28.00136,34.40064 29.56592,34.92872 C29.45768,35.00744 29.24448,35.16488 29.13624,35.2436 C28.07352,35.08944 26.99112,34.72208 25.91856,35.00088 C24.01616,35.45352 22.34664,36.77536 20.3196,36.69336 C18.3024,36.73272 16.66896,35.31904 14.74032,34.96808 C13.75304,34.77456 12.76576,35.05336 11.79816,35.21408 C11.68336,35.23376 11.45376,35.26656 11.33568,35.28624 C11.1356,34.86312 10.80432,34.54496 10.42056,34.28912 Z" id="Shape" fill="#98867D"></path>
                        <path d="M17.55128,0.246 C21.64472,-0.33456 25.92512,0.33456 29.60856,2.2304 C34.14808,4.51656 37.76592,8.55424 39.53056,13.32008 C41.16728,17.59392 41.25256,22.42536 39.852,26.77464 C38.38584,31.30104 35.29608,35.27968 31.26168,37.80528 C26.732,40.7048 21.01824,41.63632 15.78992,40.4096 C11.0372,39.32392 6.75024,36.4244 3.89664,32.48184 C1.41368,29.07064 0.01312,24.88536 0.00328,20.66072 C-0.07216,15.62264 1.85648,10.60096 5.22832,6.86504 C8.39352,3.3128 12.83464,0.90856 17.55128,0.246 Z M9.89248,6.94704 C5.89088,10.03024 3.38824,14.9568 3.28984,20.008 C3.13896,24.11456 4.58216,28.208 7.16024,31.39288 C7.42264,31.89144 7.61616,32.67536 8.32136,32.65896 C8.7084,33.046 9.10528,33.42648 9.512,33.79384 C9.63008,33.87912 9.85968,34.05624 9.97776,34.1448 C10.08928,34.18088 10.30904,34.25304 10.42056,34.28912 C10.80432,34.54496 11.1356,34.86312 11.33568,35.28624 C11.45376,35.26656 11.68336,35.23376 11.79816,35.21408 C16.91168,38.5236 23.98008,38.43176 29.13624,35.2436 C29.24448,35.16488 29.45768,35.00744 29.56592,34.92872 C29.6676,34.89264 29.86768,34.82376 29.96608,34.79096 C30.09072,34.686 30.33344,34.47608 30.4548,34.37112 L30.75328,34.41704 C30.8976,34.18416 31.04848,33.95456 31.20264,33.72824 L31.6028,33.87256 L31.32072,33.5216 C31.50768,33.456 31.87832,33.31824 32.062,33.25264 C32.1768,33.07552 32.2916,32.90168 32.40968,32.72456 C32.53432,32.62288 32.78688,32.41624 32.91152,32.31128 C33.01648,32.19648 33.2264,31.9636 33.32808,31.84552 L33.42648,31.85864 C33.51176,31.72744 33.67904,31.46504 33.76104,31.33384 C37.7856,26.41384 38.7532,19.2372 36.08984,13.45784 C33.90536,8.51816 29.2576,4.74616 23.95712,3.68672 C19.0896,2.6404 13.80224,3.86056 9.89248,6.94704 Z" id="Shape" fill="#EC1B2E"></path>
                        <path d="M9.89248,6.94704 C13.80224,3.86056 19.0896,2.6404 23.95712,3.68672 C29.2576,4.74616 33.90536,8.51816 36.08984,13.45784 C38.7532,19.2372 37.7856,26.41384 33.76104,31.33384 C31.61592,31.39616 29.8644,30.06448 27.87016,29.56264 C25.13792,28.94272 22.98296,31.34696 20.31304,31.28136 C17.9908,31.26496 16.1212,29.3888 13.76944,29.51672 C11.43408,29.6184 9.49888,31.2256 7.16024,31.39288 C4.58216,28.208 3.13896,24.11456 3.28984,20.008 C3.38824,14.9568 5.89088,10.03024 9.89248,6.94704 Z M28.05056,10.06632 C26.18096,11.50952 24.05552,12.5788 22.14328,13.96296 C20.94608,14.82232 20.02768,16.18024 20.06048,17.69888 C20.0408,21.96616 20.04736,26.23344 20.06048,30.504 C20.26056,30.49416 20.66072,30.47448 20.85752,30.46464 C20.85096,28.18176 20.8444,25.89888 20.85096,23.616 C20.85096,22.62872 21.02808,21.50368 21.90384,20.90016 C23.52088,19.65376 25.27568,18.60416 26.96816,17.46928 C28.22768,16.64272 29.71024,15.67184 29.96936,14.06464 C30.10056,11.7752 29.93,9.4792 30.05464,7.18648 C29.5856,8.26232 28.99848,9.33816 28.05056,10.06632 Z M10.56816,7.3144 C10.70592,9.5776 10.44352,11.86048 10.71248,14.11056 C11.12576,16.3836 13.32992,17.49552 14.97648,18.80096 C16.40656,19.88008 18.07936,21.03136 18.37128,22.95016 C18.66976,25.44624 18.46312,27.9784 18.49592,30.49088 C18.69928,30.51056 19.11256,30.54992 19.3192,30.57288 C19.30608,26.28264 19.32248,21.99568 19.31264,17.70872 C19.34872,16.67224 19.06664,15.58656 18.27288,14.8748 C16.32456,13.09048 14.09416,11.63416 12.19176,9.79408 C11.47016,9.102 10.99784,8.20656 10.56816,7.3144 Z M28.4704,17.302 C26.54176,18.6468 24.49832,19.83416 22.61888,21.25112 C21.74968,21.8448 21.51024,22.93704 21.47744,23.92104 C21.4184,26.1088 21.50368,28.29656 21.43808,30.48104 C21.648,30.504 22.07112,30.54992 22.28432,30.57288 C22.26792,29.35928 22.19904,27.98824 23.11416,27.0436 C24.73448,25.33144 26.95504,24.36384 28.75248,22.86816 C29.52984,22.24168 29.8972,21.24784 29.9464,20.27368 C30.0284,18.75832 29.94312,17.23968 30.00872,15.72104 C29.54952,16.29504 29.09032,16.88872 28.4704,17.302 Z" id="Shape" fill="#FFFFFF"></path>
                        <path d="M20.3524,31.81928 C22.96,31.92424 25.06904,29.60528 27.716,30.08416 C29.63808,30.51384 31.29448,31.81272 33.32808,31.84552 C33.2264,31.9636 33.01648,32.19648 32.91152,32.31128 C30.79264,32.0292 29.0608,30.42856 26.88944,30.44168 C24.6492,30.42528 22.87144,32.1604 20.6476,32.23256 C18.29256,32.41296 16.42624,30.51712 14.10072,30.48104 C12.02448,30.42856 10.20736,31.59952 8.31152,32.27848 C8.09176,32.1276 7.872,31.97344 7.6588,31.816 C9.72192,31.65856 11.4308,30.30392 13.46112,30.04152 C15.94736,29.766 17.89568,31.88488 20.3524,31.81928 Z" id="Shape" fill="#FFFFFF"></path>
                        <path d="M8.32136,32.65896 C10.11224,32.36048 11.64728,31.21248 13.45784,31.00584 C15.9408,30.74344 17.89568,32.83936 20.34912,32.7836 C22.5992,32.86888 24.40648,31.20592 26.59424,30.99928 C28.70656,30.8156 30.40232,32.37032 32.40968,32.72456 C32.2916,32.90168 32.1768,33.07552 32.062,33.25264 C30.38592,32.54088 28.77544,31.41912 26.88944,31.43552 C24.6492,31.41912 22.87144,33.15424 20.65088,33.2264 C18.3024,33.41336 16.44264,31.5208 14.13024,31.47816 C12.29344,31.32728 10.742,32.51464 8.98392,32.81312 C9.19712,32.9804 9.41032,33.14768 9.6268,33.31496 C11.06016,32.74424 12.48696,31.90128 14.08432,31.98656 C16.29832,32.09808 18.08592,33.83976 20.336,33.77416 C22.49096,33.84632 24.2392,32.33424 26.30888,32.01608 C28.11944,31.77008 29.75616,32.76392 31.32072,33.5216 L31.6028,33.87256 L31.20264,33.72824 C29.78896,33.20672 28.4376,32.34408 26.87632,32.39328 C24.6492,32.38672 22.87472,34.10872 20.66072,34.18744 C18.41064,34.3744 16.61976,32.64256 14.43528,32.45888 C12.68048,32.25552 11.06016,33.0952 9.512,33.79384 C9.10528,33.42648 8.7084,33.046 8.32136,32.65896 Z" id="Shape" fill="#FFFFFF"></path>
                        <path d="M9.97776,34.1448 C11.30288,33.62656 12.61488,32.85904 14.0876,32.9476 C16.29832,33.046 18.08264,34.77456 20.3196,34.73848 C22.12032,34.81392 23.66848,33.79056 25.30848,33.22312 C27.16496,32.54744 29.28712,33.16408 30.75328,34.41704 L30.4548,34.37112 C29.28056,34.00704 28.16208,33.32808 26.88944,33.3904 C24.65248,33.374 22.87144,35.10584 20.6476,35.18456 C18.28928,35.3748 16.4328,33.44616 14.10728,33.42648 C12.8084,33.3248 11.63416,33.95128 10.42056,34.28912 C10.30904,34.25304 10.08928,34.18088 9.97776,34.1448 Z" id="Shape" fill="#FFFFFF"></path>
                        <path d="M11.25696,34.43672 C12.3492,34.17432 13.47424,33.81024 14.6124,33.99064 C16.5968,34.31208 18.27288,35.7684 20.336,35.73232 C22.49096,35.81104 24.25888,34.33176 26.322,34.00048 C27.59792,33.79056 28.80496,34.34488 29.96608,34.79096 C29.86768,34.82376 29.6676,34.89264 29.56592,34.92872 C28.00136,34.40064 26.2564,34.0956 24.70168,34.82704 C22.80256,35.67 20.67056,36.68024 18.5812,35.83728 C16.482,34.9812 14.12368,33.6856 11.86704,34.83688 C11.6604,34.7024 11.45704,34.5712 11.25696,34.43672 Z" id="Shape" fill="#FFFFFF"></path>
                        <path d="M11.79816,35.21408 C12.76576,35.05336 13.75304,34.77456 14.74032,34.96808 C16.66896,35.31904 18.3024,36.73272 20.3196,36.69336 C22.34664,36.77536 24.01616,35.45352 25.91856,35.00088 C26.99112,34.72208 28.07352,35.08944 29.13624,35.2436 C23.98008,38.43176 16.91168,38.5236 11.79816,35.21408 Z" id="Shape" fill="#FFFFFF"></path>
                        <path d="M28.05056,10.06632 C28.99848,9.33816 29.5856,8.26232 30.05464,7.18648 C29.93,9.4792 30.10056,11.7752 29.96936,14.06464 C29.71024,15.67184 28.22768,16.64272 26.96816,17.46928 C25.27568,18.60416 23.52088,19.65376 21.90384,20.90016 C21.02808,21.50368 20.85096,22.62872 20.85096,23.616 C20.8444,25.89888 20.85096,28.18176 20.85752,30.46464 C20.66072,30.47448 20.26056,30.49416 20.06048,30.504 C20.04736,26.23344 20.0408,21.96616 20.06048,17.69888 C20.02768,16.18024 20.94608,14.82232 22.14328,13.96296 C24.05552,12.5788 26.18096,11.50952 28.05056,10.06632 Z" id="Shape" fill="#00A84F"></path>
                        <path d="M10.56816,7.3144 C10.99784,8.20656 11.47016,9.102 12.19176,9.79408 C14.09416,11.63416 16.32456,13.09048 18.27288,14.8748 C19.06664,15.58656 19.34872,16.67224 19.31264,17.70872 C19.32248,21.99568 19.30608,26.28264 19.3192,30.57288 C19.11256,30.54992 18.69928,30.51056 18.49592,30.49088 C18.46312,27.9784 18.66976,25.44624 18.37128,22.95016 C18.07936,21.03136 16.40656,19.88008 14.97648,18.80096 C13.32992,17.49552 11.12576,16.3836 10.71248,14.11056 C10.44352,11.86048 10.70592,9.5776 10.56816,7.3144 Z" id="Shape" fill="#00A84F"></path>
                        <path d="M28.4704,17.302 C29.09032,16.88872 29.54952,16.29504 30.00872,15.72104 C29.94312,17.23968 30.0284,18.75832 29.9464,20.27368 C29.8972,21.24784 29.52984,22.24168 28.75248,22.86816 C26.95504,24.36384 24.73448,25.33144 23.11416,27.0436 C22.19904,27.98824 22.26792,29.35928 22.28432,30.57288 C22.07112,30.54992 21.648,30.504 21.43808,30.48104 C21.50368,28.29656 21.4184,26.1088 21.47744,23.92104 C21.51024,22.93704 21.74968,21.8448 22.61888,21.25112 C24.49832,19.83416 26.54176,18.6468 28.4704,17.302 Z" id="Shape" fill="#00A84F"></path>
                    </g>
                </g>
            </g>
        </g>
    </g>
</svg>