<?xml version="1.0" encoding="UTF-8"?>
<svg width="80px" height="80px" viewBox="0 0 80 80" version="1.1" xmlns="http://www.w3.org/2000/svg" xmlns:xlink="http://www.w3.org/1999/xlink">
    <!-- Generator: Sketch 51.3 (57544) - http://www.bohemiancoding.com/sketch -->
    <title>Group 8 Copy 30</title>
    <desc>Created with Sketch.</desc>
    <defs></defs>
    <g id="Page-1" stroke="none" stroke-width="1" fill="none" fill-rule="evenodd">
        <g id="m7-withdraw-balance-0-1366-copy" transform="translate(-413.000000, -527.000000)">
            <g id="Group-8-Copy-30" transform="translate(413.000000, 527.000000)">
                <rect id="Mask" fill="#F0F2F5" x="0" y="0" width="80" height="80" rx="40"></rect>
                <g id="Group-33" transform="translate(16.000000, 16.000000)" fill-rule="nonzero">
                    <path d="M22.9888013,0.115378549 C23.1311514,0.100394322 23.4128549,0.0674290221 23.555205,0.0509463722 L23.5342271,0.158832808 C23.4907729,0.379100946 23.4038644,0.822634069 23.3604101,1.04290221 C23.2974763,1.29014196 23.3574132,1.54187697 23.4263407,1.78162461 C23.3993691,2.02886435 23.3738959,2.27760252 23.3484227,2.52484227 C23.1716088,2.75410095 23.1431388,3.05378549 23.24653,3.32050473 C23.2345426,3.5033123 23.2240536,3.68611987 23.2150631,3.86892744 C23.0352524,4.03974763 22.9932965,4.2944795 23.0861987,4.52074132 C23.0757098,4.71104101 23.0637224,4.90283912 23.0547319,5.09463722 C22.9153785,5.26395899 22.8464511,5.49471609 22.9483438,5.70299685 C22.9333596,5.80488959 22.9033912,6.00717666 22.8884069,6.1090694 C22.9183754,6.33533123 22.9468454,6.56159306 22.9753155,6.78785489 C22.7685331,6.82082019 22.6876183,6.94069401 22.7340694,7.15047319 C22.7550473,7.28383281 22.7955047,7.55055205 22.8164826,7.68391167 C22.6126972,7.72137224 22.5362776,7.84274448 22.5857256,8.04952681 C22.6067035,8.18438486 22.6501577,8.45410095 22.6711356,8.58895899 C22.4688486,8.62192429 22.3879338,8.74329653 22.4283912,8.95007886 C22.4403785,9.06545741 22.4643533,9.29771293 22.4763407,9.41458991 C22.2830442,9.63785489 22.2530757,9.94353312 22.3669558,10.2117508 C21.6357256,14.5946372 20.6512618,18.9925079 18.7602524,23.0367508 C18.6793375,23.012776 18.5190063,22.9663249 18.4395899,22.9423502 C18.4500789,22.6846215 18.2492902,22.4973186 18.0230284,22.4164038 C17.8462145,22.3235016 17.6738959,22.2246057 17.5030757,22.1242114 C17.4671136,21.8799685 17.3562303,21.5967666 17.0775237,21.559306 L17.0655363,21.4544164 C17.0565457,21.2161672 16.9396688,21.1142744 16.7149054,21.1502366 C15.2973975,18.4051262 14.1211356,15.4981861 13.6221609,12.4354101 C13.6850946,12.2136435 13.6176656,12.0667981 13.4213722,11.9978707 C13.4483438,11.8720032 13.5007886,11.6202681 13.5262618,11.4944006 C13.580205,11.2891167 13.5067823,11.1662461 13.3029968,11.1227918 C13.3209779,11.0298896 13.3554416,10.8440852 13.3719243,10.7526814 C13.4273659,10.5473975 13.3539432,10.42153 13.1531546,10.3765773 C13.1696372,10.2836751 13.2055994,10.0978707 13.2235804,10.0049685 C13.2760252,9.79818612 13.2011041,9.67531546 12.9958202,9.63485804 C13.0167981,9.5 13.0572555,9.23028391 13.0782334,9.09542587 C13.1216877,8.88864353 13.0422713,8.76727129 12.8384858,8.73430599 C12.8594637,8.60244479 12.8999211,8.34022082 12.9208991,8.20835962 C12.9089117,8.1079653 12.8864353,7.90567823 12.8744479,7.80378549 C12.9403785,7.6194795 12.8939274,7.46664038 12.7350946,7.34526814 C12.7350946,7.23888013 12.7365931,7.02760252 12.7365931,6.92121451 C12.8220032,6.69195584 12.7740536,6.4387224 12.5912461,6.27239748 C12.5882492,6.03714511 12.5837539,5.80339117 12.5807571,5.56963722 C12.6706625,5.34337539 12.6272082,5.09014196 12.4488959,4.92082019 C12.4339117,4.6376183 12.4189274,4.35591483 12.4054416,4.07421136 C12.3874606,3.82996845 12.3529968,3.34298107 12.3365142,3.09873817 L12.2121451,3.03580442 C14.501735,1.80559937 16.9741325,0.785173502 19.5619085,0.451025237 C19.7177445,0.467507886 19.8585962,0.427050473 19.9829653,0.329652997 C20.0713722,0.328154574 20.2466877,0.326656151 20.3335962,0.325157729 C20.4894322,0.347634069 20.6317823,0.311671924 20.7591483,0.220268139 C21.0198738,0.158832808 21.2835962,0.133359621 21.5533123,0.142350158 C21.8035489,0.149842271 22.0552839,0.155835962 22.3085174,0.154337539 C22.5347792,0.169321767 22.7640379,0.155835962 22.9888013,0.115378549 Z" id="Shape" fill="#FEC529"></path>
                    <path d="M23.8833596,0.041955836 C24.3448738,0.0689274448 24.8153785,0.0944006309 25.281388,0.131861199 C25.5076498,0.154337539 25.7369085,0.157334385 25.9646688,0.154337539 C26.2149054,0.149842271 26.4636435,0.169321767 26.7123817,0.212776025 C26.8337539,0.307176656 26.9731073,0.344637224 27.1274448,0.325157729 C27.2113565,0.329652997 27.3776814,0.33714511 27.4615931,0.341640379 C30.0658517,0.755205047 32.6701104,1.55536278 34.9327287,2.92791798 C35.0121451,2.98485804 35.1709779,3.09873817 35.2503943,3.15717666 C35.0226341,3.325 35.0211356,3.62618297 35.0585962,3.8794164 C35.0541009,4.12665615 35.0496057,4.3738959 35.0466088,4.62263407 C34.8623028,4.84739748 34.830836,5.14708202 34.9297319,5.41679811 C34.9207413,5.65055205 34.9132492,5.88430599 34.9057571,6.11955836 C34.7229495,6.2873817 34.6779968,6.54061514 34.7679022,6.76837539 C34.7634069,6.95867508 34.7589117,7.14897476 34.7559148,7.33927445 C34.5955836,7.46214511 34.5491325,7.61648265 34.6180599,7.80078864 C34.6150631,7.91167192 34.6090694,8.13493691 34.6060726,8.24582019 C34.6240536,8.35970032 34.6630126,8.58746057 34.6809937,8.70134069 C34.4832019,8.76577287 34.4112776,8.90962145 34.4682177,9.13288644 C34.3663249,10.0379338 34.2014984,10.9339905 34.054653,11.8330442 C33.870347,11.9469243 33.8119085,12.1072555 33.880836,12.3155363 C33.2230284,15.6045741 32.2310726,18.9370662 30.2741325,21.7031546 C29.8500789,22.0927445 29.4290221,22.4853312 29.0259464,22.8973975 C28.9195584,22.9828076 28.8146688,23.0667192 28.7112776,23.1521293 C27.7298107,20.8595426 26.8712145,18.5055205 26.3302839,16.0675868 C26.4216877,15.869795 26.3842271,15.7019716 26.2179022,15.5641167 C25.9032334,14.3324132 25.62153,13.0917192 25.4597003,11.8300473 C25.5241325,11.6112776 25.4597003,11.4644322 25.2694006,11.3880126 C25.2903785,11.3041009 25.3338328,11.137776 25.3563091,11.0538644 C25.4192429,10.8500789 25.3503155,10.7227129 25.14653,10.673265 C25.1630126,10.5803628 25.1989748,10.3975552 25.2154574,10.3061514 C25.2664038,10.0963722 25.1869874,9.975 24.9787066,9.94053628 C25.0101735,9.65733438 25.0386435,9.37413249 25.0716088,9.09242902 C25.1105678,8.88564669 25.029653,8.76577287 24.8303628,8.73280757 C24.8513407,8.59944795 24.8932965,8.33272871 24.9157729,8.20086751 C24.962224,7.99258675 24.884306,7.87121451 24.6790221,7.83675079 C24.710489,7.60599369 24.7404574,7.37373817 24.7719243,7.14298107 C24.8138801,6.93470032 24.7329653,6.8148265 24.5291798,6.78335962 C24.5426656,6.66648265 24.5696372,6.43123028 24.583123,6.31435331 C24.6685331,6.08359621 24.6115931,5.8318612 24.4287855,5.6670347 C24.4212934,5.56364353 24.4078076,5.3568612 24.4003155,5.25347003 C24.4647476,5.05268139 24.4662461,4.85189274 24.4033123,4.65410095 C24.5067035,4.44582019 24.4452681,4.21056782 24.302918,4.03974763 C24.2849369,3.84944795 24.2684543,3.66064669 24.2519716,3.47184543 C24.3553628,3.20362776 24.3253943,2.90394322 24.147082,2.67618297 C24.1320978,2.45141956 24.118612,2.229653 24.1051262,2.00638801 C24.0766562,1.75315457 24.0197161,1.24818612 23.9912461,0.996451104 C23.9582808,0.713249211 23.9223186,0.430047319 23.8923502,0.148343849 L23.8833596,0.041955836 Z" id="Shape" fill="#FEC529"></path>
                    <path d="M23.5342271,0.158832808 C23.6241325,0.155835962 23.8024448,0.151340694 23.8923502,0.148343849 C23.9223186,0.430047319 23.9582808,0.713249211 23.9912461,0.996451104 C24.0197161,1.24818612 24.0766562,1.75315457 24.1051262,2.00638801 C24.118612,2.229653 24.1320978,2.45141956 24.147082,2.67618297 C24.0421924,2.94290221 24.0721609,3.24258675 24.2519716,3.47184543 C24.2684543,3.66064669 24.2849369,3.84944795 24.302918,4.03974763 C24.2339905,4.23903785 24.2309937,4.43832808 24.2954259,4.6376183 C24.1905363,4.84589905 24.2549685,5.08264984 24.4003155,5.25347003 C24.4078076,5.3568612 24.4212934,5.56364353 24.4287855,5.6670347 C24.3463722,5.8977918 24.3973186,6.14952681 24.583123,6.31435331 C24.5696372,6.43123028 24.5426656,6.66648265 24.5291798,6.78335962 C24.487224,6.99014196 24.5681388,7.11001577 24.7719243,7.14298107 C24.7404574,7.37373817 24.710489,7.60599369 24.6790221,7.83675079 C24.6340694,8.0420347 24.7119874,8.16340694 24.9157729,8.20086751 C24.8932965,8.33272871 24.8513407,8.59944795 24.8303628,8.73280757 C24.7824132,8.93958991 24.8633281,9.05946372 25.0716088,9.09242902 C25.0386435,9.37413249 25.0101735,9.65733438 24.9787066,9.94053628 C24.9382492,10.1458202 25.0161672,10.2671924 25.2154574,10.3061514 C25.1989748,10.3975552 25.1630126,10.5803628 25.14653,10.673265 C25.0880915,10.8740536 25.1585174,11.0014196 25.3563091,11.0538644 C25.3338328,11.137776 25.2903785,11.3041009 25.2694006,11.3880126 C25.2079653,11.5798107 25.2723975,11.7281546 25.4597003,11.8300473 C25.62153,13.0917192 25.9032334,14.3324132 26.2179022,15.5641167 C26.1309937,15.7604101 26.1684543,15.9282334 26.3302839,16.0675868 C26.8712145,18.5055205 27.7298107,20.8595426 28.7112776,23.1521293 C28.8146688,23.0667192 28.9195584,22.9828076 29.0259464,22.8973975 C29.4844637,22.5467666 29.9264984,22.1676656 30.2741325,21.7031546 C32.2310726,18.9370662 33.2230284,15.6045741 33.880836,12.3155363 C34.0561514,12.1986593 34.1145899,12.0368297 34.054653,11.8330442 C34.2014984,10.9339905 34.3663249,10.0379338 34.4682177,9.13288644 C34.6555205,9.03998423 34.7259464,8.89613565 34.6809937,8.70134069 C34.6630126,8.58746057 34.6240536,8.35970032 34.6060726,8.24582019 C34.7619085,8.1214511 34.8068612,7.96861199 34.7409306,7.78430599 C34.7439274,7.67342271 34.752918,7.45165615 34.7559148,7.33927445 C34.7589117,7.14897476 34.7634069,6.95867508 34.7679022,6.76837539 C34.9492114,6.59905363 34.994164,6.34582019 34.9057571,6.11955836 C34.9132492,5.88430599 34.9207413,5.65055205 34.9297319,5.41679811 C35.1140379,5.19053628 35.1455047,4.89085174 35.0466088,4.62263407 C35.0496057,4.3738959 35.0541009,4.12665615 35.0585962,3.8794164 C35.2159306,3.66664038 35.3253155,3.42089905 35.3432965,3.15417981 L35.3672713,3.0612776 C35.4002366,3.14518927 35.4676656,3.3115142 35.5006309,3.39542587 C35.5410883,3.87342271 35.586041,4.35591483 35.6205047,4.83541009 C35.6399842,5.20252366 35.6624606,5.57113565 35.6849369,5.94124606 C35.7134069,6.1944795 35.7718454,6.69794953 35.8003155,6.95118297 C35.8048107,7.17294953 35.8123028,7.39621451 35.8182965,7.61798107 C35.7283912,7.84574132 35.7748423,8.09897476 35.9591483,8.26679811 C35.9621451,8.46159306 35.965142,8.65488959 35.9711356,8.85118297 C35.9756309,8.96356467 35.9861199,9.1898265 35.9906151,9.30370662 C35.9022082,9.49250789 35.9426656,9.63335962 36.1119874,9.72626183 C35.9756309,9.98249211 36.0970032,10.2641956 36.2438486,10.4859621 C36.2468454,10.5518927 36.2543375,10.6852524 36.2588328,10.751183 C36.1749211,10.9489748 36.2138801,11.1167981 36.3772082,11.2576498 C37.07847,14.870347 38.3910883,18.4201104 40.587776,21.4004732 C40.6087539,21.6132492 40.7166404,21.7226341 40.9144322,21.7301262 L40.9114353,21.8425079 C40.8559937,22.1272082 41.1451893,22.2770505 41.363959,22.3729495 C41.8464511,22.8554416 42.3319401,23.3334385 42.8249211,23.8069401 C42.923817,24.0272082 43.069164,24.2759464 43.341877,24.2939274 C43.4167981,24.3104101 43.5666404,24.3448738 43.6415615,24.3613565 C43.6026025,24.5576498 43.6880126,24.6880126 43.894795,24.7539432 C44.9571767,25.3907729 46.0510252,25.9721609 47.1448738,26.5520505 L47.198817,26.5955047 C47.2317823,28.4520505 46.5619874,30.2246845 45.9910883,31.9673502 C44.8942429,31.1387224 43.7149842,30.4314669 42.5611987,29.6897476 C42.5776814,29.4679811 42.4847792,29.3421136 42.2824921,29.3121451 C42.2030757,29.3001577 42.0442429,29.2746845 41.9663249,29.2626972 C41.984306,28.975 41.7070978,28.8236593 41.470347,28.7577287 C40.8769716,28.1823344 40.2895899,27.6024448 39.7216877,27.0030757 C39.637776,26.6854101 39.4309937,26.3572555 39.0608833,26.376735 C38.9874606,26.2119085 38.9155363,26.0485804 38.8451104,25.8837539 C38.7806782,25.688959 38.6533123,25.6230284 38.464511,25.6859621 C38.4435331,25.6035489 38.3985804,25.437224 38.3761041,25.3548107 C38.3611199,25.136041 38.2547319,25.0266562 38.0539432,25.0251577 L38.0524448,24.9142744 C38.0689274,24.6940063 37.9685331,24.5621451 37.7497634,24.5186909 C36.7787855,22.8869085 35.6894322,21.1876972 35.5246057,19.2487382 C35.5305994,19.1588328 35.5425868,18.9790221 35.5485804,18.8876183 C35.6594637,18.6223975 35.217429,18.4950315 35.2234227,18.805205 C35.2084385,18.8921136 35.17847,19.0644322 35.1634858,19.1513407 C34.8847792,22.0328076 33.3054416,24.5246845 31.9763407,27.0180599 C31.7620662,26.9596215 31.630205,27.0435331 31.5807571,27.269795 C31.5552839,27.3507098 31.5028391,27.5095426 31.4773659,27.588959 C31.2526025,27.6129338 30.9289432,27.8152208 31.0623028,28.0744479 C31.7051262,29.5938486 32.668612,30.9409306 33.5287066,32.338959 C33.540694,32.5547319 33.6530757,32.6805994 33.8673502,32.7180599 C33.9063091,32.7690063 33.9842271,32.8708991 34.0231861,32.920347 C34.0246845,33.1361199 34.1235804,33.2544953 34.3213722,33.2769716 L34.3093849,33.3878549 C34.2329653,33.6725552 34.5161672,33.8448738 34.7364353,33.9407729 C34.7828864,33.9917192 34.8772871,34.0966088 34.9237382,34.1475552 C35.1589905,34.4157729 35.4032334,34.675 35.6459779,34.937224 C35.9037066,35.2234227 36.1569401,35.5171136 36.4206625,35.8033123 C36.7563091,36.1629338 37.1009464,36.5210568 37.4665615,36.8537066 C37.5205047,36.9031546 37.6283912,37.0005521 37.680836,37.05 C37.8007098,37.2612776 37.9595426,37.4890379 38.2277603,37.5070189 C38.301183,37.525 38.44653,37.5609621 38.5199527,37.5789432 C38.5109621,37.8291798 38.6952681,38.0464511 38.9455047,38.077918 C39.0234227,38.1018927 39.1792587,38.1498423 39.2571767,38.173817 C39.2496845,38.3701104 39.3395899,38.4989748 39.5253943,38.5589117 C40.1247634,38.8316246 40.6851735,39.1807571 41.2515773,39.5179022 L41.3444795,39.5733438 C40.9503943,39.9074921 40.5638013,40.2491325 40.1757098,40.587776 C39.8790221,40.7001577 39.6182965,40.888959 39.4624606,41.1706625 C39.3201104,41.3085174 39.1867508,41.4568612 39.0683754,41.6171924 C38.9964511,41.6561514 38.8511041,41.732571 38.7791798,41.7700315 C38.630836,41.8149842 38.5244479,41.9078864 38.4615142,42.0487382 C38.3221609,42.1131703 38.2292587,42.2195584 38.1813091,42.3649054 C37.390142,43.2205047 36.2858044,43.7254732 35.3088328,44.3458202 L35.2159306,44.2454259 C34.7888801,43.7524448 34.3438486,43.2789432 33.8838328,42.8189274 C33.7759464,42.6975552 33.6710568,42.576183 33.5676656,42.4548107 C33.5212145,42.2015773 33.3578864,41.9198738 33.0641956,41.9498423 C33.0417192,41.8809148 32.998265,41.7415615 32.9757886,41.6726341 C32.9383281,41.4508675 32.8154574,41.3564669 32.6086751,41.3879338 C32.5936909,41.3175079 32.5652208,41.1766562 32.5502366,41.1062303 C32.5367508,40.8979495 32.4288644,40.7735804 32.2265773,40.733123 L32.2145899,40.6327287 C32.2130915,40.4154574 32.105205,40.2895899 31.8894322,40.2551262 C29.847082,37.273265 28.209306,34.0351735 26.8457413,30.6921924 C25.4806782,27.443612 24.476735,24.0436909 23.923817,20.5613565 C24.0391956,20.3440852 24.0197161,20.0863565 23.8578864,19.9005521 C23.8309148,19.6473186 23.8039432,19.3955836 23.7769716,19.145347 C23.7290221,19.3461356 23.6810726,19.5484227 23.6346215,19.7507098 C23.469795,19.9335174 23.4383281,20.1852524 23.537224,20.4085174 C23.5342271,20.5059148 23.5282334,20.7007098 23.5252366,20.7981073 C23.3574132,20.9359621 23.3214511,21.1052839 23.4158517,21.3030757 C22.8419558,25.0251577 21.5667981,28.606388 20.0488959,32.0422713 C18.9055994,34.7574132 17.4641167,37.3287066 15.9072555,39.8265773 C15.7004732,39.8700315 15.5895899,39.9988959 15.5776025,40.2116719 C15.4337539,40.4349369 15.2914038,40.6582019 15.1475552,40.8814669 C14.9257886,40.8949527 14.8149054,41.0043375 14.8164038,41.2111199 L14.8134069,41.3414826 C14.5721609,41.3684543 14.3803628,41.5617508 14.3608833,41.8044953 C14.3429022,41.877918 14.3054416,42.023265 14.2874606,42.0951893 C13.9952681,42.0727129 13.8364353,42.352918 13.785489,42.6016562 C13.6761041,42.7260252 13.5667192,42.8503943 13.455836,42.973265 C13.0632492,43.3898265 12.6631703,43.8003943 12.2795741,44.2244479 L12.1926656,44.320347 C11.4269716,43.8228707 10.5608833,43.4497634 9.91206625,42.7919558 C9.84463722,42.6570978 9.74274448,42.5567035 9.60638801,42.4952681 C9.58541009,42.3124606 9.35015773,42.1461356 9.23777603,42.3649054 L9.12988959,42.4817823 L9.11041009,42.2510252 C9.1044164,42.090694 9.03249211,41.9648265 8.89613565,41.8734227 C8.77776025,41.7011041 8.62192429,41.4688486 8.38067823,41.5212934 L8.26979495,41.5332808 C8.19487382,41.3369874 8.04353312,41.1886435 7.89069401,41.0537855 C7.35126183,40.5188486 6.81332808,39.9839117 6.24992114,39.4774448 L6.31285489,39.4369874 C6.89873817,39.0788644 7.49061514,38.7312303 8.08548896,38.3880915 C8.29976341,38.3326498 8.39116719,38.2052839 8.35670347,38.0059937 C8.43911672,37.9850158 8.60244479,37.9415615 8.68485804,37.9205836 C8.91411672,37.8801262 9.00102524,37.7527603 8.9455836,37.5369874 C9.10591483,37.4650631 9.26324921,37.390142 9.4205836,37.3152208 C9.69929022,37.205836 9.90007886,36.9795741 10.0828864,36.7533123 C10.6492902,36.1374606 11.2426656,35.547082 11.8255521,34.9477129 C12.1192429,34.8338328 12.4488959,34.664511 12.4758675,34.3093849 C12.4968454,34.2344637 12.5358044,34.083123 12.5552839,34.0082019 C12.8055205,34.0097003 13.0227918,33.8283912 13.0617508,33.579653 C13.0887224,33.5032334 13.1411672,33.3488959 13.1666404,33.2724763 C13.367429,33.2829653 13.4977918,33.1945584 13.5562303,33.0102524 C13.6611199,32.7375394 13.775,32.4693218 13.8873817,32.2011041 C14.0866719,32.2235804 14.22153,32.144164 14.2934543,31.9628549 C14.9707413,30.6337539 15.8263407,29.3990536 16.4451893,28.0399842 C16.5830442,27.7822555 16.2518927,27.5904574 16.0346215,27.5709779 C16.0136435,27.4870662 15.9731861,27.3177445 15.9522082,27.2338328 C15.9072555,27.0330442 15.7753943,26.9476341 15.558123,26.9761041 C14.0462145,24.6565457 12.8729495,22.1152208 12.2406151,19.4120662 C12.1911672,19.1243691 12.1492114,18.8381703 12.1057571,18.5504732 C12.087776,18.7272871 12.0682965,18.9055994 12.048817,19.0839117 C11.7131703,21.3150631 10.4874606,23.285489 9.31269716,25.1675079 C9.0909306,25.1480284 8.96506309,25.2409306 8.93659306,25.4462145 C8.92460568,25.5226341 8.90212934,25.67847 8.89014196,25.756388 C8.68036278,25.8028391 8.57547319,25.9347003 8.57547319,26.1519716 C8.52602524,26.2044164 8.42712934,26.3108044 8.37768139,26.3647476 C8.13194006,26.6194795 7.88470032,26.8727129 7.64195584,27.1319401 C7.29731861,27.4795741 6.95717666,27.8317035 6.59455836,28.1613565 C6.32634069,28.3966088 6.05962145,28.634858 5.79739748,28.8761041 C5.67452681,28.9839905 5.55165615,29.091877 5.42878549,29.1997634 C5.20851735,29.2162461 5.08564669,29.333123 5.06167192,29.5518927 C3.90488959,30.3280757 2.73162461,31.087776 1.47894322,31.7006309 C1.0294164,30.2906151 0.518454259,28.8716088 0.409069401,27.3851735 C0.449526814,27.0390379 0.516955836,26.6973975 0.585883281,26.3572555 C1.65425868,25.979653 2.6192429,25.3802839 3.55276025,24.7479495 C3.75954259,24.7374606 3.89440063,24.632571 3.95433754,24.4332808 C4.00678233,24.3853312 4.11466877,24.2879338 4.16711356,24.2399842 C4.43233438,24.0032334 4.69006309,23.7589905 4.94329653,23.5132492 C5.24148265,23.2285489 5.53667192,22.9438486 5.8318612,22.6576498 C6.12555205,22.5497634 6.4716877,22.3849369 6.47468454,22.0208202 C6.48966877,21.9414038 6.52113565,21.7810726 6.53611987,21.7016562 C6.73391167,21.7286278 6.85977918,21.637224 6.91671924,21.4259464 C9.21230284,18.1369085 10.6537855,14.3114353 11.2906151,10.3615931 C11.4524448,10.120347 11.4689274,9.82066246 11.3550473,9.55843849 C11.3670347,9.5 11.389511,9.38312303 11.4014984,9.32318612 C11.5768139,9.14936909 11.6187697,8.89613565 11.5288644,8.66987382 C11.5318612,8.48556782 11.5363565,8.30126183 11.5423502,8.11695584 C11.7251577,7.94913249 11.7731073,7.69739748 11.6876972,7.46963722 C11.7026814,7.22539432 11.719164,6.98264984 11.7341483,6.73990536 C11.7521293,6.51664038 11.7895899,6.06861199 11.8090694,5.845347 C12.0293375,5.58012618 11.9858833,5.22050473 11.8045741,4.95078864 C11.8135647,4.8488959 11.8300473,4.64511041 11.8375394,4.54321767 C11.8675079,4.14164038 11.9094637,3.74605678 11.9349369,3.34597792 C12.0353312,3.28454259 12.2361199,3.1601735 12.3365142,3.09873817 L12.2136435,3.19463722 C12.2615931,3.41490536 12.3574921,3.85394322 12.4054416,4.07421136 C12.4189274,4.35591483 12.4339117,4.6376183 12.4488959,4.92082019 C12.3559937,5.14708202 12.3994479,5.40031546 12.5807571,5.56963722 C12.5837539,5.80339117 12.5882492,6.03714511 12.5912461,6.27239748 C12.5043375,6.50015773 12.5522871,6.75339117 12.7365931,6.92121451 C12.7365931,7.02760252 12.7350946,7.23888013 12.7350946,7.34526814 C12.7395899,7.45764984 12.7500789,7.68391167 12.7545741,7.7977918 C12.679653,7.99858044 12.7365931,8.13493691 12.9208991,8.20835962 C12.8999211,8.34022082 12.8594637,8.60244479 12.8384858,8.73430599 C12.7920347,8.93958991 12.8714511,9.05946372 13.0782334,9.09542587 C13.0572555,9.23028391 13.0167981,9.5 12.9958202,9.63485804 C12.9463722,9.83864353 13.0227918,9.96301262 13.2235804,10.0049685 C13.2055994,10.0978707 13.1696372,10.2836751 13.1531546,10.3765773 C13.0962145,10.5803628 13.1696372,10.7062303 13.3719243,10.7526814 C13.3554416,10.8440852 13.3209779,11.0298896 13.3029968,11.1227918 C13.2490536,11.3265773 13.3239748,11.4494479 13.5262618,11.4944006 C13.5007886,11.6202681 13.4483438,11.8720032 13.4213722,11.9978707 C13.3689274,12.1911672 13.4363565,12.3365142 13.6221609,12.4354101 C14.1211356,15.4981861 15.2973975,18.4051262 16.7149054,21.1502366 C16.759858,21.3315457 16.876735,21.4334385 17.0655363,21.4544164 L17.0775237,21.559306 C17.0535489,21.8335174 17.2618297,22.0358044 17.5030757,22.1242114 C17.6738959,22.2246057 17.8462145,22.3235016 18.0230284,22.4164038 C17.9855678,22.6771293 18.1788644,22.9123817 18.4395899,22.9423502 C18.5190063,22.9663249 18.6793375,23.012776 18.7602524,23.0367508 C20.6512618,18.9925079 21.6357256,14.5946372 22.3669558,10.2117508 C22.5332808,9.97799685 22.5692429,9.68280757 22.4763407,9.41458991 C22.4643533,9.29771293 22.4403785,9.06545741 22.4283912,8.95007886 C22.6351735,8.91711356 22.7160883,8.79574132 22.6711356,8.58895899 C22.6501577,8.45410095 22.6067035,8.18438486 22.5857256,8.04952681 C22.7880126,8.01206625 22.8644322,7.88919558 22.8164826,7.68391167 C22.7955047,7.55055205 22.7550473,7.28383281 22.7340694,7.15047319 C22.934858,7.11451104 23.0157729,6.9931388 22.9753155,6.78785489 C22.9468454,6.56159306 22.9183754,6.33533123 22.8884069,6.1090694 C23.0772082,6.04014196 23.1356467,5.90378549 23.0607256,5.69850158 C23.1221609,5.49621451 23.1206625,5.29542587 23.0547319,5.09463722 C23.0637224,4.90283912 23.0757098,4.71104101 23.0861987,4.52074132 C23.264511,4.34842271 23.3064669,4.09518927 23.2150631,3.86892744 C23.2240536,3.68611987 23.2345426,3.5033123 23.24653,3.32050473 C23.4263407,3.09274448 23.4548107,2.79156151 23.3484227,2.52484227 C23.3738959,2.27760252 23.3993691,2.02886435 23.4263407,1.78162461 C23.5357256,1.55236593 23.6451104,1.25567823 23.4473186,1.03690852 C23.7035489,0.815141956 23.7005521,0.431545741 23.5342271,0.158832808 Z" id="Shape" fill="#FEFEFD"></path>
                    <path d="M10.6942429,4.03375394 C11.0478707,3.67712934 11.5048896,3.45536278 11.9439274,3.22310726 C11.9079653,3.66214511 11.8720032,4.10268139 11.8375394,4.54321767 C11.8300473,4.64511041 11.8135647,4.8488959 11.8045741,4.95078864 C11.7805994,5.17405363 11.7341483,5.6205836 11.7116719,5.84384858 C11.4958991,6.11206625 11.5483438,6.4716877 11.7341483,6.73990536 C11.719164,6.98264984 11.7026814,7.22539432 11.6876972,7.46963722 C11.5033912,7.63596215 11.4539432,7.88769716 11.5423502,8.11695584 C11.5363565,8.30126183 11.5318612,8.48556782 11.5288644,8.66987382 C11.3475552,8.84069401 11.3055994,9.09692429 11.4014984,9.32318612 C11.389511,9.38312303 11.3670347,9.5 11.3550473,9.55843849 C11.1842271,9.79518927 11.1677445,10.0978707 11.2906151,10.3615931 C10.6537855,14.3114353 9.21230284,18.1369085 6.91671924,21.4259464 C6.6964511,21.4064669 6.56908517,21.4978707 6.53611987,21.7016562 C6.52113565,21.7810726 6.48966877,21.9414038 6.47468454,22.0208202 C6.14053628,22.0747634 5.95323344,22.3699527 5.8318612,22.6576498 C5.53667192,22.9438486 5.24148265,23.2285489 4.94329653,23.5132492 C4.68257098,23.7514984 4.42484227,23.9957413 4.16711356,24.2399842 C4.11466877,24.2879338 4.00678233,24.3853312 3.95433754,24.4332808 C3.73257098,24.4257886 3.59771293,24.5306782 3.55276025,24.7479495 C2.6192429,25.3802839 1.65425868,25.979653 0.585883281,26.3572555 C0.5079653,26.387224 0.352129338,26.4471609 0.275709779,26.4771293 C0.340141956,26.2718454 0.305678233,26.0560726 0.262223975,25.8522871 C0.221766562,25.5780757 0.14384858,25.0326498 0.103391167,24.7584385 C0.0839116719,24.0811514 0.0674290221,23.4083596 0.0764195584,22.7340694 C0.116876972,22.459858 0.196293375,21.9099369 0.236750789,21.6357256 C0.295189274,21.4574132 0.325157729,21.2701104 0.313170347,21.084306 C0.325157729,20.9224763 0.332649842,20.7621451 0.335646688,20.6003155 C0.430047319,20.4729495 0.470504732,20.3305994 0.452523659,20.1747634 C0.902050473,16.6025237 2.34503155,13.1456625 4.38288644,10.1892744 C4.50126183,10.0679022 4.59266562,9.92405363 4.66458991,9.77121451 C4.7634858,9.60039432 4.89984227,9.4535489 5.05567823,9.33217666 C5.2055205,9.25425868 5.27444795,9.13438486 5.25946372,8.97405363 L5.25646688,8.79124606 C5.44077287,8.79873817 5.5351735,8.70883281 5.53966877,8.52602524 C5.70299685,8.56048896 5.82886435,8.50055205 5.91727129,8.34321767 C6.05812303,8.19037855 6.175,8.01805994 6.26490536,7.83225552 L6.32783912,7.72436909 C6.95867508,7.02011041 7.60449527,6.32184543 8.33123028,5.7134858 L8.41364353,5.65504732 C8.5829653,5.55015773 8.73430599,5.42129338 8.87665615,5.28194006 C8.94258675,5.23099369 9.07444795,5.13059937 9.14187697,5.079653 C9.18233438,5.05118297 9.26624606,4.99574132 9.30820189,4.96727129 C9.44755521,4.91932177 9.55694006,4.83091483 9.63485804,4.70504732 C9.71577287,4.6511041 9.87910095,4.54171924 9.96001577,4.48777603 C10.1248423,4.41735016 10.1832808,4.30197161 10.1368297,4.13864353 L10.3136435,4.17910095 C10.4709779,4.22405363 10.5968454,4.1761041 10.6942429,4.03375394 Z" id="Shape" fill="#FEC428"></path>
                    <path d="M12.048817,19.0839117 C12.0967666,19.1663249 12.1926656,19.329653 12.2406151,19.4120662 C12.8729495,22.1152208 14.0462145,24.6565457 15.558123,26.9761041 C15.6225552,27.1843849 15.7544164,27.2712934 15.9522082,27.2338328 C15.9731861,27.3177445 16.0136435,27.4870662 16.0346215,27.5709779 C16.0555994,27.7957413 16.2129338,28.0010252 16.4451893,28.0399842 C15.8263407,29.3990536 14.9707413,30.6337539 14.2934543,31.9628549 C14.0836751,31.8984227 13.948817,31.9778391 13.8873817,32.2011041 C13.775,32.4693218 13.6611199,32.7375394 13.5562303,33.0102524 C13.3434543,32.9578076 13.2145899,33.0462145 13.1666404,33.2724763 C13.1411672,33.3488959 13.0887224,33.5032334 13.0617508,33.579653 C12.8115142,33.5721609 12.5762618,33.7489748 12.5552839,34.0082019 C12.5358044,34.083123 12.4968454,34.2344637 12.4758675,34.3093849 C12.1327287,34.3498423 11.942429,34.6525237 11.8255521,34.9477129 C11.2426656,35.547082 10.6492902,36.1374606 10.0828864,36.7533123 C9.72626183,36.6843849 9.41009464,36.9511041 9.4205836,37.3152208 C9.26324921,37.390142 9.10591483,37.4650631 8.9455836,37.5369874 C8.76277603,37.5969243 8.67586751,37.7242902 8.68485804,37.9205836 C8.60244479,37.9415615 8.43911672,37.9850158 8.35670347,38.0059937 C8.15741325,38.0464511 8.06750789,38.173817 8.08548896,38.3880915 C7.49061514,38.7312303 6.89873817,39.0788644 6.31285489,39.4369874 C6.20496845,39.2751577 6.06711356,39.1373028 5.92776025,39.0054416 C5.82436909,38.8555994 5.69100946,38.8016562 5.52618297,38.8451104 C5.50670347,38.7611987 5.46474763,38.5933754 5.44376972,38.5094637 C5.40031546,38.3521293 5.30141956,38.2442429 5.14858044,38.1858044 C5.08564669,38.0494479 4.98675079,37.9475552 4.85189274,37.8816246 C3.35646688,36.07153 2.19968454,33.9407729 1.47894322,31.7006309 C2.73162461,31.087776 3.90488959,30.3280757 5.06167192,29.5518927 C5.26845426,29.5219243 5.39132492,29.4050473 5.42878549,29.1997634 C5.55165615,29.091877 5.67452681,28.9839905 5.79739748,28.8761041 C6.06711356,28.6423502 6.33383281,28.4055994 6.59455836,28.1613565 C6.95717666,27.8317035 7.29731861,27.4795741 7.64195584,27.1319401 C7.89219243,26.8817035 8.13943218,26.6269716 8.37768139,26.3647476 C8.42712934,26.3108044 8.52602524,26.2044164 8.57547319,26.1519716 C8.78375394,26.0995268 8.88714511,25.9676656 8.89014196,25.756388 C8.90212934,25.67847 8.92460568,25.5226341 8.93659306,25.4462145 C9.13288644,25.4686909 9.25875394,25.3757886 9.31269716,25.1675079 C10.4874606,23.285489 11.7131703,21.3150631 12.048817,19.0839117 Z" id="Shape" fill="#FEC428"></path>
                    <path d="M23.6346215,19.7507098 C23.6810726,19.5484227 23.7290221,19.3461356 23.7769716,19.145347 C23.8039432,19.3955836 23.8309148,19.6473186 23.8578864,19.9005521 C23.7455047,20.1163249 23.7634858,20.3710568 23.923817,20.5613565 C24.476735,24.0436909 25.4806782,27.443612 26.8457413,30.6921924 C28.209306,34.0351735 29.847082,37.273265 31.8894322,40.2551262 C31.9014196,40.4634069 32.0108044,40.5892744 32.2145899,40.6327287 L32.2265773,40.733123 C32.2250789,40.9488959 32.3329653,41.073265 32.5502366,41.1062303 C32.5652208,41.1766562 32.5936909,41.3175079 32.6086751,41.3879338 C32.6416404,41.5827287 32.764511,41.6786278 32.9757886,41.6726341 C32.998265,41.7415615 33.0417192,41.8809148 33.0641956,41.9498423 C33.0971609,42.2180599 33.3399054,42.3589117 33.5676656,42.4548107 C33.6710568,42.576183 33.7759464,42.6975552 33.8838328,42.8189274 C34.3033912,43.3149054 34.7679022,43.7734227 35.2159306,44.2454259 L35.3088328,44.3458202 C33.0012618,45.5865142 30.506388,46.6234227 27.8886435,46.9051262 C27.8002366,46.9036278 27.6234227,46.9021293 27.5350158,46.9006309 C27.3731861,46.8826498 27.2248423,46.9201104 27.0914826,47.014511 C26.997082,47.0175079 26.8097792,47.025 26.7153785,47.0279968 C26.5280757,47.0190063 26.3422713,47.05347 26.1669558,47.1194006 C25.8552839,47.2063091 25.5361199,47.2797319 25.2124606,47.2902208 C24.186041,47.2752366 23.1626183,47.2707413 22.1376972,47.2422713 C21.8649842,47.2242902 21.5952681,47.180836 21.3330442,47.1134069 C21.1547319,47.0519716 20.9704259,47.0190063 20.783123,47.0279968 C20.6887224,47.025 20.5014196,47.0190063 20.4085174,47.0160095 C20.2736593,46.9216088 20.1253155,46.8841483 19.9649842,46.9006309 C19.8765773,46.9021293 19.6997634,46.9021293 19.6113565,46.9021293 C16.9921136,46.6144322 14.4822555,45.5940063 12.1926656,44.320347 L12.2795741,44.2244479 C12.6736593,43.8093849 13.0692429,43.3958202 13.455836,42.973265 C13.5667192,42.8503943 13.6761041,42.7260252 13.785489,42.6016562 C14.0102524,42.5072555 14.2679811,42.3708991 14.2874606,42.0951893 C14.3054416,42.023265 14.3429022,41.877918 14.3608833,41.8044953 C14.6051262,41.7985016 14.8523659,41.6067035 14.8134069,41.3414826 L14.8164038,41.2111199 C15.0141956,41.2066246 15.1250789,41.0972397 15.1475552,40.8814669 C15.2914038,40.6582019 15.4337539,40.4349369 15.5776025,40.2116719 C15.7888801,40.1712145 15.8997634,40.0423502 15.9072555,39.8265773 C17.4641167,37.3287066 18.9055994,34.7574132 20.0488959,32.0422713 C21.5667981,28.606388 22.8419558,25.0251577 23.4158517,21.3030757 C23.5746845,21.162224 23.6106467,20.9944006 23.5252366,20.7981073 C23.5282334,20.7007098 23.5342271,20.5059148 23.537224,20.4085174 C23.7125394,20.230205 23.7425079,19.9724763 23.6346215,19.7507098 Z" id="Shape" fill="#FEC428"></path>
                    <path d="M35.4871451,3.22910095 C36.0026025,3.46735016 36.5615142,3.68611987 36.9511041,4.11616719 C37.0230284,4.25252366 37.1339117,4.33793375 37.2852524,4.37089905 C37.3616719,4.40086751 37.5115142,4.46080442 37.5879338,4.49077287 C37.6613565,4.53722397 37.8082019,4.63012618 37.8816246,4.67807571 C37.9475552,4.81143533 38.0494479,4.90733438 38.1888013,4.96577287 C38.2682177,5.02870662 38.4255521,5.15457413 38.5049685,5.21750789 C38.6053628,5.35835962 38.7327287,5.4033123 38.8870662,5.35386435 C38.8346215,5.51269716 38.8810726,5.64455836 39.027918,5.74944795 C39.2107256,5.94873817 39.414511,6.13154574 39.6362776,6.29037855 C40.123265,6.67996845 40.6192429,7.06656151 41.0642744,7.50559937 C41.1002366,7.58501577 41.1721609,7.745347 41.2066246,7.82476341 C41.2350946,7.9761041 41.3160095,8.09148265 41.4508675,8.16940063 C41.5857256,8.30875394 41.7295741,8.43911672 41.8809148,8.5634858 C41.9378549,8.65339117 42.0532334,8.83619874 42.1101735,8.92760252 C42.1731073,9.09842271 42.2899842,9.15985804 42.4578076,9.11190852 C42.4682965,9.19582019 42.4892744,9.36214511 42.5012618,9.44605678 C42.526735,9.60339117 42.6136435,9.71727129 42.760489,9.78769716 C45.0395899,12.718612 46.4840694,16.3388013 47.0339905,20.0054416 C47.035489,20.212224 47.0654574,20.4190063 47.1149054,20.6212934 C47.159858,20.8640379 47.1868297,21.1082808 47.1958202,21.3570189 C47.1853312,21.5383281 47.2212934,21.7181388 47.2857256,21.888959 L47.3336751,22.1062303 C47.3366719,22.1961356 47.3426656,22.3759464 47.3471609,22.4658517 C47.3411672,22.6186909 47.3426656,22.7730284 47.3531546,22.9273659 C47.3621451,23.4578076 47.3891167,23.9972397 47.3771293,24.5306782 C47.3576498,24.7704259 47.3396688,25.0101735 47.3306782,25.2514196 C47.315694,25.3727918 47.2857256,25.6155363 47.2707413,25.7354101 C47.2392744,25.9391956 47.1763407,26.348265 47.1448738,26.5520505 C46.0510252,25.9721609 44.9571767,25.3907729 43.894795,24.7539432 C43.9262618,24.5351735 43.8408517,24.4033123 43.6415615,24.3613565 C43.5666404,24.3448738 43.4167981,24.3104101 43.341877,24.2939274 C43.3658517,23.9972397 43.0706625,23.8518927 42.8249211,23.8069401 C42.3319401,23.3334385 41.8464511,22.8554416 41.363959,22.3729495 C41.3070189,22.1391956 41.1916404,21.8544953 40.9114353,21.8425079 L40.9144322,21.7301262 C40.9204259,21.5218454 40.811041,21.4124606 40.587776,21.4004732 C38.3910883,18.4201104 37.07847,14.870347 36.3772082,11.2576498 C36.4656151,11.0568612 36.4266562,10.8875394 36.2588328,10.751183 C36.2543375,10.6852524 36.2468454,10.5518927 36.2438486,10.4859621 C36.3052839,10.2297319 36.3502366,9.90757098 36.1119874,9.72626183 C36.1119874,9.62436909 36.110489,9.41908517 36.1089905,9.31719243 C36.1734227,9.12988959 36.12847,8.97555205 35.9711356,8.85118297 C35.965142,8.65488959 35.9621451,8.46159306 35.9591483,8.26679811 C36.0445584,8.03753943 35.9996057,7.78580442 35.8182965,7.61798107 C35.8123028,7.39621451 35.8048107,7.17294953 35.8003155,6.95118297 C35.7718454,6.69794953 35.7134069,6.1944795 35.6849369,5.94124606 C35.6624606,5.57113565 35.6399842,5.20252366 35.6205047,4.83541009 C35.5890379,4.29897476 35.5320978,3.76104101 35.4871451,3.22910095 Z" id="Shape" fill="#FEC429"></path>
                    <path d="M35.1634858,19.1513407 C35.2533912,19.1768139 35.4347003,19.2247634 35.5246057,19.2487382 C35.6894322,21.1876972 36.7787855,22.8869085 37.7497634,24.5186909 C37.7542587,24.7239748 37.8561514,24.855836 38.0524448,24.9142744 L38.0539432,25.0251577 C38.0509464,25.2274448 38.1573344,25.3383281 38.3761041,25.3548107 C38.3985804,25.437224 38.4435331,25.6035489 38.464511,25.6859621 C38.5154574,25.8957413 38.6413249,25.9616719 38.8451104,25.8837539 C38.9155363,26.0485804 38.9874606,26.2119085 39.0608833,26.376735 C39.1492902,26.6958991 39.4474763,26.8607256 39.7216877,27.0030757 C40.2895899,27.6024448 40.8769716,28.1823344 41.470347,28.7577287 C41.5542587,28.9809937 41.6816246,29.2641956 41.9663249,29.2626972 C42.0442429,29.2746845 42.2030757,29.3001577 42.2824921,29.3121451 C42.2570189,29.5099369 42.3499211,29.634306 42.5611987,29.6897476 C43.7149842,30.4314669 44.8942429,31.1387224 45.9910883,31.9673502 C45.1834385,33.8014196 44.4132492,35.7343849 43.1066246,37.2777603 C42.9777603,37.3586751 42.8968454,37.4725552 42.8593849,37.6194006 C42.8159306,37.6883281 42.7260252,37.8276814 42.6810726,37.8966088 C42.5417192,37.9520505 42.4383281,38.0479495 42.3723975,38.1828076 C42.2255521,38.2367508 42.1251577,38.3371451 42.0727129,38.4839905 C42.0307571,38.5544164 41.9468454,38.6967666 41.9048896,38.7671924 C41.7355678,38.8915615 41.576735,39.027918 41.4343849,39.1822555 C41.3894322,39.2661672 41.2980284,39.4339905 41.2515773,39.5179022 C40.6851735,39.1807571 40.1247634,38.8316246 39.5253943,38.5589117 C39.5748423,38.3431388 39.4849369,38.2157729 39.2571767,38.173817 C39.1792587,38.1498423 39.0234227,38.1018927 38.9455047,38.077918 C38.9485016,37.8291798 38.7746845,37.5969243 38.5199527,37.5789432 C38.44653,37.5609621 38.301183,37.525 38.2277603,37.5070189 C38.2382492,37.2073344 37.9370662,37.0664826 37.680836,37.05 C37.6283912,37.0005521 37.5205047,36.9031546 37.4665615,36.8537066 C37.1114353,36.507571 36.7608044,36.1614353 36.4206625,35.8033123 C36.1569401,35.5171136 35.9037066,35.2234227 35.6459779,34.937224 C35.412224,34.6675079 35.1679811,34.4067823 34.9237382,34.1475552 C34.8772871,34.0966088 34.7828864,33.9917192 34.7364353,33.9407729 C34.6794953,33.7085174 34.5850946,33.4208202 34.3093849,33.3878549 L34.3213722,33.2769716 C34.3423502,33.0716877 34.2434543,32.9533123 34.0231861,32.920347 C33.9842271,32.8708991 33.9063091,32.7690063 33.8673502,32.7180599 C33.8493691,32.5037855 33.735489,32.377918 33.5287066,32.338959 C32.668612,30.9409306 31.7051262,29.5938486 31.0623028,28.0744479 C31.3020505,28.0339905 31.4324132,27.8077287 31.4773659,27.588959 C31.5028391,27.5095426 31.5552839,27.3507098 31.5807571,27.269795 C31.7770505,27.2832808 31.9089117,27.1993691 31.9763407,27.0180599 C33.3054416,24.5246845 34.8847792,22.0328076 35.1634858,19.1513407 Z" id="Shape" fill="#FEC429"></path>
                </g>
            </g>
        </g>
    </g>
</svg>