<?xml version="1.0" encoding="UTF-8"?>
<svg width="80px" height="80px" viewBox="0 0 80 80" version="1.1" xmlns="http://www.w3.org/2000/svg" xmlns:xlink="http://www.w3.org/1999/xlink">
    <!-- Generator: Sketch 52.2 (67145) - http://www.bohemiancoding.com/sketch -->
    <title>krungthai</title>
    <desc>Created with Sketch.</desc>
    <g id="Page-1" stroke="none" stroke-width="1" fill="none" fill-rule="evenodd">
        <g id="m7-withdraw-balance-0-1366-copy" transform="translate(-743.000000, -637.000000)">
            <g id="krungthai" transform="translate(743.000000, 637.000000)">
                <rect id="Mask" fill="#F0F2F5" x="0" y="0" width="80" height="80" rx="40"></rect>
                <g id="Shape-2" transform="translate(19.000000, 18.000000)" fill="#00A2E7" fill-rule="nonzero">
                    <path d="M21.8514783,0.136648221 C22.6754466,-0.0254940711 23.5606008,0.0448695652 24.3050277,0.454814229 C24.7873755,0.642450593 25.1504111,1.18190514 25.722498,1.04729644 C26.001913,1.00854545 26.2354387,1.21657708 26.3843241,1.43072727 C26.4383715,1.51740711 26.492419,1.60510672 26.5464664,1.69280632 C27.1093755,1.80498024 27.7304111,1.83149407 28.220917,2.15781818 C28.6155652,2.54736759 28.4381265,3.21429249 28.0557154,3.55081423 C27.8670593,3.37643478 27.7334704,3.06948617 27.4438577,3.06234783 C26.2211621,2.96954941 24.9617549,3.36113834 24.015415,4.14533597 C23.0843715,4.80104348 22.4041897,5.7912332 22.0972411,6.88543874 C21.9116443,7.15669565 21.8881897,7.48403953 22.0248379,7.78181028 C22.1257945,8.11629249 22.2726403,8.44873518 22.5418577,8.68226087 C22.8335099,9.01674308 23.1965455,9.26454545 23.5820158,9.47869565 C24.191834,9.72853755 24.8526403,9.66327273 25.4950909,9.65715415 C26.2211621,9.56741502 26.8666719,9.10852174 27.2480632,8.49156522 L27.2715178,8.46199209 C27.2970119,8.43139921 27.3469802,8.36919368 27.3724743,8.33860079 C27.4336601,8.14484585 27.4826087,7.94701186 27.5305375,7.74917787 C27.6314941,7.48709881 27.5376759,7.22298024 27.4387589,6.97721739 C27.4377391,6.94152569 27.4336601,6.86912253 27.4326403,6.83241107 C27.6804427,6.78448221 27.6712648,6.50710672 27.5835652,6.32456917 C27.6529091,5.50977866 28.3891779,4.94279051 29.1356443,4.75821344 C29.4160791,4.70926482 29.6944743,4.63788142 29.9800079,4.62054545 C30.3083715,4.62972332 30.6275573,4.71742292 30.9528617,4.75617391 C31.2812253,4.80614229 31.6085692,4.8744664 31.9124585,5.01417391 C33.0392964,5.50773913 34.1457391,6.05433202 35.1736601,6.73349407 C36.4616206,7.48709881 37.586419,8.47524901 38.7224348,9.43280632 C39.1894862,10.0130514 39.912498,10.5045771 39.9532885,11.3152885 C39.9736838,11.5936838 39.4240316,11.7507273 39.6748933,12.0219842 C40.7741976,13.1814545 41.6675099,14.5713913 42.114166,16.1153123 C42.3446324,16.8424032 42.3599289,17.6102846 42.4649644,18.36083 C42.5577628,19.0777233 42.4812806,19.7997154 42.4241739,20.5155889 C42.3589091,20.6298024 42.3038419,20.756253 42.3323953,20.8908617 C42.3558498,21.2824506 42.294664,21.672 42.2049249,22.0523715 C42.0438024,22.983415 41.8918577,23.9236364 41.5757312,24.8179684 C41.4829328,25.0616917 41.3911542,25.3186719 41.2075968,25.5103874 C40.9771304,25.7316759 40.506,25.5389407 40.3571146,25.8469091 C40.1694783,27.1338498 39.6055494,28.3177945 39.1293202,29.514996 C38.8488854,30.207415 38.4165059,30.8417075 38.240087,31.5738972 L38.2288696,31.5902134 C37.9015257,32.0368696 37.706751,32.5600079 37.4691462,33.0556126 C36.7593913,34.4792016 35.9955889,35.8987115 35.5672885,37.4375336 C35.5356759,38.0238972 35.3561976,38.760166 35.8263083,39.2231383 C36.0312806,39.4005771 36.3066166,39.5606798 36.5880711,39.4994941 C37.0326877,39.4097549 37.3794071,39.0977075 37.7699763,38.8896759 C37.8158656,39.3822213 37.2825296,39.7003874 37.0092332,40.0532253 C36.5452411,40.3071462 35.9966087,40.3142846 35.487747,40.230664 C34.8758893,40.046087 34.4496285,39.4515652 34.4057787,38.8223715 C34.4404506,38.3369644 34.4384111,37.8515573 34.4149565,37.3661502 C34.4424901,37.10917 34.4639051,36.85117 34.4639051,36.5921502 C34.6892727,36.4932332 34.6760158,36.2301344 34.6607194,36.0241423 C34.6668379,35.8966719 34.6770356,35.7712411 34.692332,35.6458103 C34.8830277,35.1665217 34.967668,34.6556206 35.1012569,34.1600158 C35.6417312,32.3540158 36.3637233,30.6081818 37.091834,28.8735652 C36.7859051,28.6369802 36.4249091,28.4676996 36.1750672,28.16483 C35.5428142,27.4387589 35.2022134,26.5056759 35.0196759,25.5725929 C34.7433202,24.4661502 34.8228617,23.3138182 34.8106245,22.1839209 C34.253834,22.3695178 33.6654308,22.4103083 33.0984427,22.5500158 L33.0892648,22.5510356 C32.5844822,22.5500158 32.0847984,22.4714941 31.5810356,22.4500791 L31.5239289,22.4205059 C31.5218893,22.4062292 31.5178103,22.3766561 31.5167905,22.3623794 C30.8029565,22.4592569 30.2390277,21.9167431 29.5588458,21.8259842 C30.0197787,22.3542213 30.4103478,22.9324269 30.7968379,23.5157312 L30.8202925,23.5473439 C30.9192095,23.7818893 31.0334229,24.0103162 31.1027668,24.2570988 C31.2445138,24.5171383 31.3250751,24.8036917 31.3760632,25.0943241 C31.4148142,25.5358814 31.4821186,25.9774387 31.6513992,26.3904427 C31.6881107,26.6494625 31.6636364,26.913581 31.6626166,27.1746403 C31.6442609,27.9945296 31.6666957,28.818498 31.5861344,29.6363478 C31.536166,29.8698735 31.4912964,30.1054387 31.4607036,30.3430435 C31.4076759,30.645913 31.3311937,30.9436838 31.2557312,31.2414545 C31.1170435,31.77683 31.4137945,32.2948696 31.4086957,32.8302451 C31.4168538,33.681747 31.4423478,34.5352885 31.394419,35.3867905 C31.2761265,36.1169407 31.1058261,36.8419921 30.8539447,37.5395099 C30.6683478,38.0799842 30.345083,38.5572332 30.1248142,39.0824111 C29.7240474,39.7646324 29.1499209,40.3214229 28.5788538,40.8588379 C27.9588379,41.2381897 27.3877708,41.697083 26.7392016,42.0295257 C25.8010198,42.5016759 24.7975731,42.8524743 23.7584348,43.0186957 C22.9976917,43.2420237 22.1992174,43.1441265 21.4190988,43.163502 C21.0366877,43.1757391 20.661415,43.0961976 20.2943004,43.0003399 C19.3561186,42.8259605 18.4413913,42.5077945 17.6143636,42.0295257 C17.3696206,41.8918577 17.1167194,41.7501107 16.8311858,41.7266561 C15.3372332,41.5583953 13.9228221,40.9873281 12.6226245,40.2530988 L12.6042688,40.2439209 L12.5665375,40.20517 C11.9475415,39.5994308 11.2836759,38.9855336 10.9889644,38.1462688 C11.0593281,37.9800474 11.0297549,37.7271462 10.8043874,37.7230672 C10.7992885,37.6649407 10.7880711,37.5497075 10.7829723,37.4926008 C10.8054071,37.053083 10.6697787,36.6309012 10.6330672,36.197502 C10.698332,35.7743004 10.814585,35.3541581 10.7615573,34.9207589 C11.0532095,33.4828933 12.1698498,32.2214466 13.5985375,31.8410751 C14.0533518,31.7431779 14.5091858,31.6085692 14.9772569,31.6075494 C15.617668,31.69117 16.2876522,31.8267984 16.8056917,32.2408221 C17.0983636,32.4488538 17.2727431,32.7710988 17.4369249,33.0831462 C16.925004,33.006664 16.4293992,32.8159684 15.9062609,32.8373834 C15.4575652,32.8465613 15.0047905,32.8108696 14.5591542,32.8720553 L14.4898103,33.0474545 L14.2491462,32.8587984 L14.3613202,33.0331779 C13.8514387,33.1300553 13.3925455,33.3707194 12.9611858,33.6511542 C12.2493913,34.0896522 11.8883953,34.911581 11.765004,35.7110751 C11.6008221,36.2933597 11.7762213,36.8899209 11.9607984,37.4446719 C12.2045217,38.1585059 12.7215415,38.7530277 13.2915889,39.2323162 C13.8473597,39.7044664 14.5306008,39.9808221 15.204664,40.2347431 C15.299502,40.2745138 15.3923004,40.3183636 15.4850988,40.3622134 C15.4534862,40.2031304 15.4249328,40.0450672 15.3821028,39.8900632 C15.2770672,39.6198261 15.1414387,39.3608063 15.0771937,39.0762925 C15.0098893,38.4991067 15.0527194,37.9188617 15.0425217,37.3396364 C15.0435415,37.2539763 15.045581,37.0816364 15.0466008,36.9959763 C15.2658498,36.5748142 15.4759209,36.1383557 15.8032648,35.7875573 C16.0072174,35.5642292 16.275415,35.4184032 16.5191383,35.2450435 C16.6211146,35.2277075 16.7230909,35.2103715 16.826087,35.1920158 C16.8791146,35.1746798 16.98517,35.1400079 17.0381976,35.1226719 C17.165668,35.13083 17.4216285,35.1471462 17.5501186,35.1553043 C16.8566798,35.7834783 16.2947905,36.5788933 16.1071542,37.508917 C15.978664,37.9494545 15.9470514,38.4267036 16.1071542,38.8641818 C16.3580158,39.6871304 17.0800079,40.2378024 17.8101581,40.6253123 C18.2282609,40.8527194 18.7218261,40.7680791 19.1746008,40.742585 C19.3418419,40.7792964 19.5784269,40.8190672 19.6691858,40.6273518 C19.9832727,40.6324506 20.2973597,40.6038972 20.6114466,40.604917 C20.7756285,40.6293913 20.9734625,40.5753439 21.0111937,40.3907668 C21.7127905,40.2724743 22.3603399,39.9441107 22.9742372,39.5953518 C23.5707984,39.2629091 24.0358103,38.7550672 24.5018419,38.2666008 C24.707834,38.0514308 24.8628379,37.7964901 24.9964269,37.5323715 C25.1891621,37.208087 25.3523241,36.8685059 25.5073281,36.5248458 C25.5725929,36.2474704 25.8010198,36.0241423 25.7592095,35.724332 C25.7581897,35.685581 25.7581897,35.6101186 25.7581897,35.5723874 C24.8526403,35.664166 23.9063004,35.7324901 23.0344032,35.4173834 C22.7029802,35.2837945 22.4082688,35.0798419 22.1115178,34.8840474 L22.0605296,34.8371383 C21.8596364,34.6189091 21.5435099,34.6127905 21.2742925,34.5444664 C20.5930909,34.4190356 19.9169881,34.0978103 19.4999051,33.5287826 C19.1052569,32.9719921 19.1338103,32.1592411 19.6161581,31.6626166 C19.7956364,32.048087 19.926166,32.4753676 20.2382134,32.7792569 C20.4523636,33.0097233 20.7409565,33.1473913 21.0254704,33.2718024 C21.0519842,33.303415 21.1070514,33.3666403 21.1335652,33.398253 C21.1539605,33.3656206 21.194751,33.3013755 21.2151462,33.2687431 C21.3252806,32.8302451 21.2192253,32.3111858 21.5384111,31.9461107 C21.6964743,31.7666324 21.9381581,31.5657391 22.1920791,31.6248854 C22.0258577,32.0715415 21.7872332,32.5773439 22.0034229,33.0556126 C22.1523083,33.3921344 22.5286008,33.5022688 22.8600237,33.5624348 C23.2516126,33.6368775 23.6411621,33.4930909 23.9950198,33.338087 C24.191834,33.2442688 24.3825296,33.1351542 24.5640474,33.0138024 C24.7761581,32.8638972 24.9913281,32.7190909 25.1963004,32.5600079 C25.8295731,32.0705217 26.2333992,31.3393518 26.5250514,30.6081818 C27.0910198,29.171336 26.6820949,27.4734308 25.6878261,26.3261976 C25.2789012,25.8571067 24.7159921,25.5562767 24.1520632,25.3135731 C23.9450514,25.2391304 23.6727747,25.1524506 23.4851383,25.3145929 C23.2047036,25.5460791 22.9752569,25.8316126 22.7101186,26.0783953 C22.304253,26.471004 21.8066087,26.7443004 21.3201818,27.0206561 C21.5373913,27.3163874 21.852498,27.5703083 21.9350988,27.9425217 C21.9789486,28.3687826 21.594498,28.6583953 21.2957075,28.8898814 C21.315083,28.5268458 21.1702767,28.2025613 20.9316522,27.9374229 C20.7195415,27.9404822 20.5084506,27.9435415 20.2963399,27.9486403 C19.7589249,28.4105929 19.0461107,28.5452016 18.3761265,28.6961265 C17.8682846,28.7807668 17.3492253,28.7624111 16.8373043,28.7379368 C16.4202213,28.7277391 16.1244901,28.3208538 15.7135257,28.3259526 C15.5666798,28.4544427 15.3800632,28.6257628 15.4137154,28.8409328 C15.5238498,29.1336047 15.7573755,29.3569328 15.9470514,29.5996364 C15.3351937,29.6822372 14.762087,29.2661739 14.6427747,28.6645138 C14.7192569,28.4911542 14.7151779,28.298419 14.6305375,28.1301581 C14.7253755,27.8599209 14.8059368,27.5560316 15.0466008,27.3745138 C15.4667431,27.0604269 15.9684664,26.8615731 16.4885455,26.7912095 C17.0514545,26.7646957 17.6153834,26.7697945 18.1782925,26.8065059 C18.4056996,26.8391383 18.632087,26.870751 18.8594941,26.9044032 C18.993083,27.0767431 19.2245692,27.0818419 19.3805929,26.9380553 C20.4136126,26.5638024 21.2569565,25.7877628 21.831083,24.8628379 C21.8086482,24.5008221 21.3426166,24.6507273 21.1019526,24.566087 C20.3952569,24.3366403 19.7038577,24.0480474 19.0716047,23.6554387 C18.9216996,23.5748775 18.7697549,23.4667826 18.5923162,23.4718814 C18.3526719,23.6635968 18.1844111,23.9256759 18.0253281,24.1836759 L18.0018735,24.2203874 L17.9590435,24.2418024 C17.780585,24.3356206 17.5786719,24.411083 17.4491621,24.5742451 C17.4858735,24.9015889 17.6847273,25.2360711 17.5338024,25.5623953 C17.4613992,25.743913 17.3808379,25.9468458 17.204419,26.0508617 C16.9841502,26.1548775 16.7383874,26.1773123 16.5018024,26.2211621 C16.5833834,26.0447431 16.6792411,25.8734229 16.731249,25.6857866 C16.7006561,25.4706166 16.5058814,25.2748221 16.2978498,25.2268933 C16.0316917,25.3166324 15.8256996,25.5277233 15.5605613,25.619502 C15.2842055,25.7092411 14.9986719,25.7663478 14.7151779,25.8254941 C14.2195731,25.7969407 13.7239684,25.7969407 13.2283636,25.8285534 C12.85717,25.7561502 12.5175889,25.5685138 12.143336,25.5134466 C11.9404032,25.5358814 11.7874387,25.7306561 11.7578656,25.9233913 C11.7660237,26.1589565 11.8669802,26.3771858 11.9363241,26.5994941 C11.7282925,26.5872569 11.5212806,26.5699209 11.3142688,26.5505455 L11.2112727,26.5281107 C10.8931067,26.2038261 10.6850751,25.7500316 10.8166245,25.2931779 C11.0277154,24.5966798 11.7762213,24.2989091 12.4145929,24.1163715 C13.0101344,23.9012016 13.6495257,23.9542292 14.2695415,23.9532095 C14.7304743,23.9440316 15.1567352,24.153083 15.6135889,24.174498 C15.6146087,24.4386166 15.9939605,24.4437154 16.0153755,24.1846957 C16.7516443,23.9889012 17.2890593,23.3260553 17.5327826,22.6295573 C17.660253,22.3674783 17.4144901,22.1737233 17.2523478,22.0085217 C16.5925613,21.4027826 16.0684032,20.64 15.7930672,19.784419 C15.4381897,20.0403794 15.2342372,20.4370672 14.92117,20.7348379 C14.3225692,21.3252806 13.514917,21.6964743 12.6776917,21.7688775 C12.2116601,21.728087 11.7435889,21.7240079 11.2765375,21.7454229 C11.1062372,21.7525613 10.9257391,21.7240079 10.7646166,21.7913123 C10.6758972,21.8759526 10.6646798,22.0095415 10.6157312,22.1166166 C10.2526957,23.1904269 9.52152569,24.191834 8.4701502,24.6731621 C8.07346245,24.8781344 7.61150988,24.8852727 7.20666403,25.0657708 C7.09449012,25.3298893 7.13018182,25.6276601 7.14139921,25.9070751 C6.92011067,25.9692806 6.92826877,26.2191225 6.95274308,26.4016601 C6.82527273,27.3898103 6.31233202,28.500332 5.30582609,28.8439921 C5.41086166,29.7954308 5.73718577,30.6999605 6.0135415,31.6106087 C6.49792885,33.1218972 7.125083,34.5832174 7.58397628,36.1036838 C7.80118577,36.7553123 7.84401581,37.4569091 7.77467194,38.1370909 C7.74305929,38.4919684 7.52992885,38.7897391 7.33311462,39.0732332 C7.16995257,39.254751 6.95682213,39.3812016 6.74267194,39.4923557 C6.37555731,39.5331462 6.00436364,39.5117312 5.63622925,39.4923557 C5.04986561,39.1925455 4.47777866,38.6408538 4.53284585,37.9310988 C4.70926482,38.0106403 4.88058498,38.1075178 5.02335178,38.2411067 C5.17733597,38.2900553 5.319083,38.364498 5.42921739,38.4868696 C5.67396047,38.5042055 5.91972332,38.5062451 6.16548617,38.5123636 C6.35924111,38.2931146 6.61928063,38.0524506 6.57950988,37.7322451 C6.46121739,37.1275257 6.34598419,36.5044506 6.01558103,35.9731542 C5.98804743,35.7865375 5.94725692,35.5989012 5.7993913,35.4683715 C5.78511462,35.4122846 5.75758103,35.3021502 5.74330435,35.247083 C5.52405534,34.9309565 5.3904664,34.5669012 5.18243478,34.2436364 C5.17325692,34.1885692 5.15592095,34.077415 5.14674308,34.0223478 C5.10085375,33.9825771 5.01009486,33.9040553 4.96420553,33.8642846 C4.95808696,33.8092174 4.94483004,33.7001028 4.93871146,33.6460553 C4.78778656,33.5848696 4.75413439,33.4339447 4.71232411,33.2952569 C4.55528063,33.0423557 4.41251383,32.7802767 4.30339921,32.5039209 C4.27280632,32.4610909 4.21264032,32.3744111 4.18306719,32.331581 C4.04132016,31.9685455 3.82105138,31.6401818 3.69460079,31.2710277 C3.63749407,31.1925059 3.58038735,31.1160237 3.52328063,31.0395415 C3.51410277,30.981415 3.49574704,30.8641423 3.48554941,30.8060158 C3.34788142,30.5775889 3.255083,30.3257075 3.16126482,30.0768854 C3.07050593,29.7852332 2.91142292,29.5129565 2.88796838,29.2029486 C2.82882213,29.1305455 2.76865613,29.0581423 2.70950988,28.9867589 C2.70543083,28.8643874 2.70135178,28.7430356 2.69727273,28.6216838 C2.63404743,28.5523399 2.57082213,28.4840158 2.50759684,28.4146719 C2.49433992,28.2290751 2.48720158,28.040419 2.40867984,27.8680791 L2.39542292,27.7467273 C2.32811858,26.9176601 1.93449012,26.156917 1.87840316,25.3247905 C1.60306719,25.3125534 1.32365217,25.3247905 1.05341502,25.266664 C0.887193676,25.1116601 0.819889328,24.884253 0.756664032,24.6731621 C0.63429249,24.1989723 0.498664032,23.7217233 0.490505929,23.2291779 C0.512940711,23.0242055 0.533335968,22.7631462 0.312047431,22.6570909 C0.324284585,22.2889565 0.306948617,21.9208221 0.285533597,21.5537075 C0.301849802,21.1978103 0.297770751,20.8368142 0.197833992,20.4921344 C0.0173359684,19.5580316 0.0724031621,18.5861976 0.251881423,17.6561739 C0.285533597,16.7557233 0.484387352,15.8695494 0.769920949,15.0170277 C1.11460079,14.1379921 1.56227668,13.2253043 2.39032411,12.7062451 C2.20472727,12.4747589 1.87636364,12.2748854 1.9293913,11.9353043 C1.93652964,11.6609881 2.09357312,11.4264427 2.22716206,11.1980158 C2.54940711,10.676917 2.85227668,10.143581 3.22449012,9.65613439 C3.51410277,9.25536759 3.88121739,8.90966798 4.11270356,8.46709091 L4.14023715,8.41916206 L4.17490909,8.38958893 C4.69090909,7.94803162 5.1161502,7.40653755 5.66988142,7.00475099 C6.63559684,6.1644664 7.68493281,5.42411858 8.82298814,4.8387747 C9.5735336,4.51347036 10.4107589,4.4492253 11.214332,4.55935968 C11.7639842,4.64807905 12.2687668,5.1243083 12.2483715,5.70557312 C12.2014625,6.15834783 12.1188617,6.61520158 12.207581,7.06899605 C12.2402134,6.71411858 12.2626482,6.35924111 12.2973202,6.00436364 C12.3136364,6.34802372 12.323834,6.69168379 12.3105771,7.03534387 C12.2687668,7.38818182 12.59917,7.6247668 12.8408538,7.82260079 C13.1926719,7.85421344 13.5495889,7.84095652 13.9014071,7.80220553 C14.0931225,7.6604585 14.3225692,7.59009486 14.5387589,7.49627668 C15.2372964,7.22807905 15.7522767,6.64069565 16.1051146,5.99926482 C16.4202213,5.47510672 16.7547036,4.96216601 17.1034625,4.45942292 C17.3553439,4.08313043 17.7214387,3.77414229 17.8458498,3.32238735 C17.3910356,3.27037945 16.9362213,3.19287747 16.5079209,3.02257708 C16.3447589,2.89204743 16.2162688,2.72480632 16.0796206,2.56878261 C16.0714625,2.51167589 16.056166,2.39746245 16.0490277,2.34035573 C15.6615178,1.94162846 15.9633676,1.38279842 16.2856126,1.05341502 C16.4324585,1.05239526 16.5782846,1.05137549 16.7261502,1.05035573 C16.8403636,1.14621344 16.9566166,1.24105138 17.0738893,1.33283004 C17.0769486,1.50313043 17.0779684,1.67343083 17.0769486,1.84271146 C16.9107273,1.95794466 16.7404269,2.07317787 16.6129565,2.23328063 C16.7159526,2.31078261 16.8189486,2.38828458 16.9219447,2.46680632 C17.268664,2.69727273 17.6745296,2.73602372 18.0803953,2.71154941 C18.2170435,2.7227668 18.3863241,2.69421344 18.438332,2.54532806 C18.4933992,2.45354941 18.5443874,2.35871146 18.597415,2.26489328 C18.3159605,2.21084585 17.9213123,2.30772332 17.7561107,2.00587352 C17.6388379,1.74379447 17.6500553,1.41543083 17.7867036,1.16252964 C17.9814783,1.06259289 18.2455968,1.00140711 18.4352727,1.1472332 C18.6463636,1.39605534 18.3424743,1.67445059 18.2435573,1.91103557 C18.5392885,1.91409486 18.851336,1.9406087 19.1276917,1.80905929 C19.56517,1.63264032 19.8639605,1.25226877 20.2025217,0.940221344 C20.7154625,0.60573913 21.2559368,0.295731225 21.8514783,0.136648221 Z M23.0017708,1.2267747 C23.0537787,1.3695415 22.9069328,1.68464822 23.1465771,1.68362846 C23.3729644,1.69178656 23.3005613,1.39911462 23.3433913,1.25634783 C23.2577312,1.24920949 23.0864111,1.23493281 23.0017708,1.2267747 Z M22.3654387,1.52862451 C22.5122846,1.76928854 22.7437708,1.93754941 22.9518024,2.12110672 C22.9976917,2.09867194 23.0894704,2.05380237 23.1353597,2.03238735 C23.0038103,1.86412648 22.8773597,1.6907668 22.7325534,1.53372332 C22.647913,1.39095652 22.4001107,1.26858498 22.3654387,1.52862451 Z M23.4474071,1.62958103 C23.4433281,1.70810277 23.43517,1.86412648 23.4310909,1.94162846 C23.5860949,1.88758103 23.8991621,1.99363636 23.8889644,1.74175494 C23.8216601,1.57349407 23.5891542,1.62346245 23.4474071,1.62958103 Z M29.4701265,33.6073043 C29.1060711,34.4404506 28.2790435,34.9595099 27.4407984,35.2266877 C27.1664822,35.6437708 27.1736206,36.1730277 26.9778261,36.6247826 C26.5841976,37.7587589 25.9437866,38.8213518 25.0504743,39.6300237 C23.8236996,40.8037708 22.2043162,41.4594783 20.5594387,41.7909012 C20.558419,41.8327115 20.5553597,41.9183715 20.5533202,41.9601818 C20.9938577,42.1151858 21.4670277,42.0387036 21.9238814,42.0560395 C22.2848775,42.0417628 22.6581107,42.0988696 23.0099289,41.9917945 C23.3209565,41.9968933 23.6279051,41.9285692 23.9032411,41.7807036 C25.2493281,41.4645771 26.4699842,40.7405455 27.5335968,39.8717075 C27.90683,39.5392648 28.3055573,39.2200791 28.5808933,38.7968775 C29.1652174,37.9382372 29.5986166,36.9511067 29.7189486,35.9150277 C29.9025059,35.6672253 29.8708933,35.3521186 29.8586561,35.0625059 C29.9300395,34.5995336 29.9422767,34.1171858 29.8637549,33.6552332 C29.8280632,33.462498 29.5894387,33.5685534 29.4701265,33.6073043 Z" id="Shape"></path>
                </g>
            </g>
        </g>
    </g>
</svg>