<?xml version="1.0" encoding="UTF-8" standalone="no"?>
<svg width="80px" height="80px" viewBox="0 0 80 80" version="1.1" xmlns="http://www.w3.org/2000/svg" xmlns:xlink="http://www.w3.org/1999/xlink">
    <!-- Generator: Sketch 49.2 (51160) - http://www.bohemiancoding.com/sketch -->
    <title>lobanet_r</title>
    <desc>Created with Sketch.</desc>
    <defs>
        <path d="M39.0364706,19.4611765 C39.0364706,30.1588235 30.3635294,38.8317647 19.6658824,38.8317647 C8.96705882,38.8317647 0.295294118,30.1588235 0.295294118,19.4611765 C0.295294118,8.76352941 8.96705882,0.0905882353 19.6658824,0.0905882353 C30.3635294,0.0905882353 39.0364706,8.76352941 39.0364706,19.4611765" id="path-1"></path>
    </defs>
    <g id="Page-1" stroke="none" stroke-width="1" fill="none" fill-rule="evenodd">
        <g id="m7-withdraw-balance-0-1366" transform="translate(-413.000000, -977.000000)">
            <g id="lobanet_r" transform="translate(413.000000, 977.000000)">
                <g id="Group-8-Copy-15" fill="#F0F2F5">
                    <rect id="Mask" x="0" y="0" width="80" height="80" rx="40"></rect>
                </g>
                <g id="Group-21" transform="translate(20.000000, 20.000000)">
                    <mask id="mask-2" fill="white">
                        <use xlink:href="#path-1"></use>
                    </mask>
                    <g id="Clip-2"></g>
                    <path d="M5.55294118,33.2988235 C2.17882353,29.9247059 -0.108235294,26.0588235 0.0376470588,21.0941176 C0.785882353,20.3847059 1.66352941,20.3541176 2.47529412,20.8423529 C6.33411765,23.1576471 10.5470588,23.9141176 14.98,23.9188235 C17,23.9211765 19.0129412,24.1835294 20.7835294,25.3247059 C21.7776471,26.2235294 22.1352941,27.4094118 22.2541176,28.4894118 C22.2023529,25.6 24.1282353,23.3364706 25.4964706,20.84 C26.1117647,20.1094118 26.8058824,19.4764706 27.6682353,19.0470588 C29.2623529,18.5988235 30.5364706,17.7588235 31.5823529,16.4105882 C32.8152941,14.8223529 34.34,13.5411765 36.5717647,13.6282353 C39.3458824,14.9023529 39.0294118,17.4894118 39.0211765,19.8011765 C39.0105882,22.4882353 38.0964706,24.9882353 36.6976471,27.2917647 C30.9847059,32.5505882 24.2564706,35.2070588 16.4717647,35.3894118 C12.6458824,35.4788235 8.83058824,35.9070588 5.55294118,33.2988235" id="Fill-1" fill="#287CAB" mask="url(#mask-2)"></path>
                    <path d="M20.5670588,25.7188235 C17.2564706,25.3635294 13.9117647,25.0882353 10.6352941,24.8776471 C8.58588235,24.7447059 5.01176471,24.7282353 3.08705882,22.2682353 C2.30941176,21.2752941 1.23764706,21.0094118 0.0376470588,21.0941176 C-0.229411765,18.0788235 -0.545882353,15.0564706 1.50588235,12.4341176 C5.02117647,12.52 8.35411765,14.5705882 11.9858824,13.3988235 C12.9117647,13.5470588 13.7894118,13.8505882 14.6294118,14.2635294 C16.6588235,15.5552941 15.4023529,18.9023529 18.0941176,19.7835294 C19.1529412,20.5329412 20.1988235,21.2976471 20.7164706,22.5588235 C21.0105882,23.6270588 21.6858824,24.7176471 20.5670588,25.7188235" id="Fill-3" fill="#248FBC" mask="url(#mask-2)"></path>
                    <path d="M14.5047059,14.9776471 C13.76,14.7152941 13.0164706,14.4529412 12.2717647,14.1905882 C11.2258824,13.6247059 9.84,13.4388235 9.67882353,11.8788235 C9.63882353,10.7223529 10.4270588,9.93058824 10.9305882,9.01294118 C11.9541176,7.01294118 12.3411765,4.63764706 14.2576471,3.15764706 C16.0447059,1.77882353 12.3376471,1.10235294 13.8541176,-0.216470588 C17.7282353,0.462352941 21.72,-1.53882353 25.5423529,0.301176471 C26.4764706,5.74470588 24.0435294,9.54117647 19.6411765,12.38 C18.0070588,13.3988235 16.1823529,14.0435294 14.5047059,14.9776471" id="Fill-4" fill="#12B5DA" mask="url(#mask-2)"></path>
                    <path d="M19.1752941,11.9705882 C21.7788235,9.68705882 24.0470588,7.31176471 25.0423529,3.71411765 C25.3694118,2.52823529 23.1988235,0.987058824 25.5411765,0.302352941 C27.8952941,0.644705882 29.8623529,1.72941176 31.5152941,3.41647059 C31.8117647,4.24235294 32.6635294,4.87294118 32.3823529,5.90117647 C30.5541176,9.14235294 29.4329412,12.8482353 26.2847059,15.2317647 C25.9423529,15.38 25.5847059,15.4541176 25.2117647,15.4529412 C23.1647059,14.3541176 20.7094118,13.96 19.1752941,11.9705882" id="Fill-5" fill="#24A1CB" mask="url(#mask-2)"></path>
                    <path d="M5.55294118,33.2988235 C16.7482353,36.4458824 26.7788235,33.7694118 36.0329412,27.2047059 C36.7611765,26.5964706 37.4364706,25.8094118 38.5423529,26.4458824 C38.0470588,28.1670588 37.3552941,29.78 36.0141176,31.0352941 C29.1211765,36.1223529 21.4494118,38.6258824 12.8423529,38.0317647 C9.83764706,37.34 7.47529412,35.6588235 5.55294118,33.2988235" id="Fill-6" fill="#2288B9" mask="url(#mask-2)"></path>
                    <path d="M13.8541176,-0.216470588 C16.7917647,1.63411765 16.6352941,3.11529412 13.7329412,5.10117647 C12.5188235,5.93176471 12.2211765,8.10235294 11.5070588,9.66352941 C10.2435294,10.2494118 9.05647059,11.0047059 7.70470588,11.4058824 C5.64470588,10.7517647 4.59411765,9.15058824 3.83529412,7.27647059 C5.63411765,5.13411765 7.10823529,2.60823529 10.5247059,2.71176471 C11.5811765,2.74352941 12.2564706,1.80588235 12.2411765,0.62 C12.4564706,-0.241176471 12.9305882,-0.682352941 13.8635294,-0.375294118 L13.8541176,-0.216470588" id="Fill-7" fill="#BCE2E9" mask="url(#mask-2)"></path>
                    <path d="M12.8423529,38.0317647 C15.1705882,36.0341176 18.1752941,36.9152941 20.7411765,36.6482353 C25.1152941,36.1929412 28.6905882,34.4117647 32.1458824,32.1517647 C33.4223529,31.3164706 34.6094118,31.0105882 36.0141176,31.0364706 C33.6223529,35.2070588 29.7,37.2776471 25.3741176,38.7952941 C21.7564706,41.1411765 18.1247059,41.4070588 14.4729412,38.8741176 C13.9294118,38.5929412 13.3858824,38.3129412 12.8423529,38.0317647" id="Fill-8" fill="#2097C8" mask="url(#mask-2)"></path>
                    <path d="M32.1823529,5.77294118 C31.96,4.98823529 31.7376471,4.20235294 31.5152941,3.41764706 C35.7047059,5.49764706 37.7847059,9.14470588 38.9694118,13.4564706 C37.8,14.0823529 36.5141176,13.6576471 35.2941176,13.8588235 C31.0329412,11.9788235 30.0717647,9.47647059 32.1823529,5.77294118" id="Fill-9" fill="#70C7E0" mask="url(#mask-2)"></path>
                    <path d="M3.83529412,7.27647059 C5.51647059,8.11294118 6.44470588,9.67529412 7.51176471,11.1023529 C8.35764706,11.3411765 9.06235294,11.9964706 10.0058824,11.9470588 C10.7611765,12.6952941 11.5164706,13.4423529 12.2717647,14.1905882 C8.42235294,15.2070588 4.77411765,14.9870588 1.50588235,12.4341176 C1.70941176,10.4564706 2.25411765,8.63176471 3.83529412,7.27647059" id="Fill-10" fill="#99D4E4" mask="url(#mask-2)"></path>
                    <path d="M13.8635294,-0.375294118 C13.3235294,-0.0435294118 12.7823529,0.288235294 12.2411765,0.62 C8.87882353,-0.183529412 6.30941176,2.68352941 3.10117647,2.59294118 C2.88705882,1.33529412 4.09058824,1.26588235 4.69176471,0.688235294 C7.04117647,-1.17529412 10.0494118,-1.68235294 12.5894118,-3.15764706 C15.5529412,-4.06235294 18.4,-5.31058824 21.3741176,-6.15882353 C22.6082353,-6.51058824 23.8647059,-7.49294118 25.2541176,-6.53176471 C25.5294118,-6.03176471 25.8058824,-5.53294118 26.0811765,-5.03294118 C24.7341176,-3.64352941 22.6705882,-4.51882353 21.2105882,-3.48941176 C19.2223529,-3.04352941 17.2235294,-2.62588235 15.3564706,-1.76588235 C14.8588235,-1.30235294 14.3611765,-0.838823529 13.8635294,-0.375294118" id="Fill-11" fill="#70A4AE" mask="url(#mask-2)"></path>
                    <path d="M35.9717647,13.5341176 C36.9694118,13.4447059 37.9494118,12.6635294 38.9705882,13.4564706 C40.3235294,17.8352941 40.5929412,22.18 38.5423529,26.4458824 C37.7058824,26.6988235 36.8694118,26.9529412 36.0329412,27.2047059 C37.0670588,23.5152941 39.1976471,20.0094118 37.6964706,15.9082353 C37.3623529,14.9964706 37.1341176,14.26 36.0635294,14.16 C35.7917647,14.0576471 35.6882353,13.9317647 35.7505882,13.78 C35.8188235,13.6164706 35.8917647,13.5341176 35.9717647,13.5341176" id="Fill-12" fill="#44BEE2" mask="url(#mask-2)"></path>
                    <path d="M14.4729412,38.8741176 C18.1129412,39.7364706 21.7447059,39.4 25.3741176,38.7952941 C26.9211765,40.2847059 29.2141176,38.7211765 30.7847059,40.1141176 C30.3494118,40.7682353 29.6882353,41.0435294 28.9588235,41.2035294 C23.2670588,41.4976471 17.5670588,41.1988235 11.8705882,41.3411765 C10.4658824,41.2164706 8.96823529,41.4670588 7.80470588,40.3517647 C9.70470588,38.4 12.4811765,40.4105882 14.4729412,38.8741176" id="Fill-13" fill="#9FD6E2" mask="url(#mask-2)"></path>
                    <path d="M4.64352941,1.17882353 C4.12941176,1.65058824 3.61411765,2.12235294 3.10117647,2.59294118 C0.403529412,3.91529412 -1.90588235,5.73764706 -3.88470588,7.98941176 C-4.54470588,8.09647059 -5.08352941,8.09529412 -4.58941176,7.18705882 C-2.47647059,4.05294118 0.490588235,1.99176471 3.87294118,0.451764706 C4.22235294,0.595294118 4.48,0.837647059 4.64352941,1.17882353" id="Fill-14" fill="#287D9B" mask="url(#mask-2)"></path>
                    <path d="M4.64352941,1.17882353 C4.38588235,0.936470588 4.12941176,0.694117647 3.87294118,0.451764706 C6.26,-1.18 8.81647059,-2.46352941 11.5882353,-3.30588235 C11.9058824,-3.01882353 12.2235294,-2.73176471 12.5411765,-2.44352941 C9.90941176,-1.23529412 7.27647059,-0.0282352941 4.64352941,1.17882353" id="Fill-15" fill="#1F5061" mask="url(#mask-2)"></path>
                    <path d="M35.9717647,13.5341176 C36.0047059,13.7423529 36.0352941,13.9517647 36.0635294,14.16 C34.1329412,15.0917647 32.2611765,16.1129412 31.4529412,18.2764706 C30.6835294,20.3364706 28.9282353,19.28 27.5976471,19.5658824 C26.5847059,18.1529412 27.0682353,16.2623529 26.0882353,14.8388235 C28.5729412,12.1223529 29.2776471,8.20823529 32.1823529,5.77411765 C31.3717647,9.37294118 32.1164706,12.2129412 35.9717647,13.5341176" id="Fill-16" fill="#248FBC" mask="url(#mask-2)"></path>
                    <path d="M26.0882353,14.8388235 C29.7364706,15.4094118 27.2564706,17.9388235 27.5976471,19.5658824 C27.1470588,20.1023529 26.6976471,20.64 26.2470588,21.1764706 C24.2341176,21.9011765 22.3364706,23.1376471 20.0329412,22.5870588 C19.2282353,21.8388235 18.4235294,21.0905882 17.6176471,20.3435294 C19.1541176,17.0894118 23.14,17.3670588 25.3011765,15.0141176 C25.5635294,14.9552941 25.8258824,14.8976471 26.0882353,14.8388235" id="Fill-17" fill="#7DCBE1" mask="url(#mask-2)"></path>
                    <path d="M20.0329412,22.5870588 C21.9470588,21.4270588 23.9729412,20.7576471 26.2470588,21.1764706 C25.0752941,24.2894118 22.2988235,26.7517647 22.16,30.5564706 C21.6305882,28.9435294 21.1,27.3317647 20.5682353,25.7188235 C20.3894118,24.6752941 20.2105882,23.6305882 20.0329412,22.5870588" id="Fill-18" fill="#6CC7E1" mask="url(#mask-2)"></path>
                    <path d="M25.3011765,15.0141176 C25.1647059,17.3305882 23.0552941,17.4741176 21.6105882,18.3117647 C20.3211765,19.0611765 18.9517647,19.6717647 17.6176471,20.3435294 C14.7376471,19.6247059 15.0811765,17.0341176 14.5047059,14.9788235 C15.0929412,12.4729412 17.4729412,12.7470588 19.1752941,11.9694118 C21.3211765,12.7764706 23.5847059,13.3435294 25.3011765,15.0141176" id="Fill-19" fill="#91D2E2" mask="url(#mask-2)"></path>
                    <path d="M10.0058824,11.9470588 C9.63764706,12.5894118 9.29529412,13.4811765 8.44235294,13.3070588 C7.27647059,13.0694118 7.83294118,11.8458824 7.51294118,11.1023529 C8.45294118,9.53647059 9.88470588,9.33294118 11.5070588,9.66352941 C11.0070588,10.4247059 10.5058824,11.1858824 10.0058824,11.9470588" id="Fill-20" fill="#1EA8D0" mask="url(#mask-2)"></path>
                </g>
            </g>
        </g>
    </g>
</svg>