<?xml version="1.0" encoding="UTF-8"?>
<svg width="80px" height="80px" viewBox="0 0 80 80" version="1.1" xmlns="http://www.w3.org/2000/svg" xmlns:xlink="http://www.w3.org/1999/xlink">
    <!-- Generator: Sketch 51.3 (57544) - http://www.bohemiancoding.com/sketch -->
    <title>Group 8 Copy 11</title>
    <desc>Created with Sketch.</desc>
    <defs></defs>
    <g id="Page-1" stroke="none" stroke-width="1" fill="none" fill-rule="evenodd">
        <g id="m7-withdraw-balance-0-1366-copy" transform="translate(-963.000000, -307.000000)">
            <g id="Group-8-Copy-11" transform="translate(963.000000, 307.000000)">
                <rect id="Mask" fill="#F0F2F5" x="0" y="0" width="80" height="80" rx="40"></rect>
                <g id="Group-18" transform="translate(19.000000, 19.000000)" fill="#000000" fill-rule="nonzero">
                    <path d="M20.2870588,38.9392872 C9.98472627,38.9392872 1.63203806,30.5852247 1.63203806,20.2815164 C1.63203806,9.98055655 9.98472627,1.60862284 20.2870588,1.60862284 C30.5962664,1.60862284 38.9448266,9.98055655 38.9448266,20.2815164 C38.9448266,30.5852247 30.5962664,38.9392872 20.2870588,38.9392872 M20.2870588,-4.47212933e-05 C9.08277129,-4.47212933e-05 0,9.07585505 0,20.2815164 C0,31.4885546 9.08277129,40.5685765 20.2870588,40.5685765 C31.4927206,40.5685765 40.5727425,31.4885546 40.5727425,20.2815164 C40.5727425,9.07585505 31.4927206,-4.47212933e-05 20.2870588,-4.47212933e-05" id="path4093"></path>
                    <path d="M12.1946487,19.3533025 C10.7427284,18.980696 9.46541878,20.6801049 8.75595469,21.9629127 C9.00344348,20.2071335 11.160705,17.3321599 12.1946487,19.3533025" id="path4097"></path>
                    <path d="M9.0030304,19.3733784 C9.48975574,17.7069616 10.6433185,17.0951211 11.2606636,17.5873432 C10.4219567,17.847203 9.81423848,18.3435565 9.0030304,19.3733784" id="path4101"></path>
                    <path d="M12.7088725,22.0500857 C13.456831,21.4203708 13.3798381,20.488169 12.2207724,20.1815575 C11.3641948,19.9643212 9.51491617,21.5138621 9.31417782,23.2201487 C10.0566369,22.2714508 12.1946487,20.5239165 12.7088725,22.0500857" id="path4105"></path>
                    <path d="M21.9438519,21.0223272 C21.543745,18.7701965 25.2739257,15.1720114 22.9186769,11.487204 C27.3679414,15.0757661 23.8824976,17.2041544 26.1291323,20.186374 C25.2574254,19.9223858 24.3967207,19.1510541 24.1354856,18.7454471 C22.8856763,20.3912346 27.2015732,22.6543676 24.3540996,26.4931664 C24.4874651,24.297404 22.3535773,23.2717088 21.9438519,21.0223272 Z" id="path4109"></path>
                    <path d="M17.1920987,8.78684475 C17.7173198,8.79096931 18.6247757,9.1622 18.2549208,9.58430258 C17.0216085,10.7323683 15.3538188,10.2593926 14.0311406,11.4267078 C14.5742369,9.98165802 16.9899873,9.77541813 17.1920987,8.78684475" id="path4113"></path>
                    <path d="M15.6722515,13.6360786 C15.5113854,13.6360786 15.3642678,13.4119645 15.3216446,13.1177305 C15.5333823,13.6539528 16.0654813,13.3982153 15.7629953,12.6227577 C15.9527359,12.6268822 16.2538464,12.6530059 16.8134422,12.6198761 C16.2277229,12.9237333 15.9692376,13.6414478 15.6722515,13.635947 M21.1939614,10.4131164 C21.7095622,9.8301463 21.2365846,9.03543894 19.1164449,8.77557565 C21.3259534,9.84664557 17.773143,10.0845085 17.6507736,11.942035 C16.4917078,12.3943858 15.5636327,11.6409249 14.9861619,12.1606483 C14.4306905,12.6638723 13.7885996,12.3160147 13.9755893,11.7371706 C13.3060017,12.0795271 13.4407417,12.9911047 14.0924589,13.2743402 C14.2203306,13.3307109 14.3344447,13.4503318 14.2368278,13.5438265 C13.5232391,14.2189163 13.1877564,14.8101346 13.9343417,15.4728506 C14.344071,14.7235154 14.5503113,14.4526538 15.0054124,14.0869219 C15.4302634,14.3674072 16.1809754,14.1680436 17.1915456,13.0722261 C17.2396687,13.0089791 17.3084177,13.0323542 17.2822894,13.101099 C16.4807081,15.8633293 14.4306905,16.3088064 13.7748489,16.1781884 C14.1667055,16.7762828 16.7763212,17.1392603 17.1062994,15.9760748 C17.8473873,13.3472102 20.3758787,12.2032703 18.189743,12.2541434 C18.7823378,11.5598068 20.7677336,10.9122148 21.1939614,10.4131164" id="path4117"></path>
                    <path d="M22.2970682,8.99899741 C23.3543905,9.68508597 23.8534848,10.1346893 24.5437008,10.9568948 C24.6743173,9.8349547 24.0391023,7.61581926 23.0945248,7.10572252 C22.6889219,6.88573362 22.1032036,8.43802733 22.2970682,8.99899741" id="path4121"></path>
                    <path d="M5.40731942,18.0079364 C6.08928238,16.2067819 7.75019635,14.0632699 10.4450551,12.4711013 C11.0665238,10.8624369 10.8616592,9.77624262 17.3884405,7.24225139 C17.5534332,6.28255095 17.5245609,5.12073952 17.7967943,5.12073952 C18.0772789,5.12073952 19.0397286,5.55796603 19.7285668,6.54241423 C20.0145534,6.52041942 20.2661677,6.4915411 20.4407776,6.4557921 C20.559025,5.89619736 20.9495042,4.3549022 21.4609742,3.55744458 C21.9284517,2.82460848 22.8359061,2.74623732 24.0087182,3.71556118 C25.2227778,4.70413476 26.0793621,5.11386367 27.7443948,7.24225139 C29.152319,7.87334433 31.3535836,8.68317583 33.2592307,11.023304 C32.4301491,10.469207 31.4938268,10.2657178 30.7224911,10.1832213 C32.2775342,11.5430274 33.301856,13.7937834 32.5250201,17.0812366 C32.2170373,14.0082709 29.9580309,12.7172156 28.5776031,11.7465166 C29.3255608,14.3355035 26.0793621,13.4363027 25.0880347,11.4880287 C25.4152669,11.5925223 25.7548768,11.5787733 25.9597416,11.4509075 C25.8469947,7.48699054 23.9880933,5.20873388 23.1590116,4.52951848 C22.0906932,3.64269116 21.5228488,5.76970354 21.1612425,7.35912179 C21.0484977,7.89121851 20.5920217,8.27207158 20.0145534,8.25557232 C20.1437937,8.06308454 20.286787,7.54886201 20.3087862,7.38111888 C18.6698712,7.51998617 16.8192207,8.48656246 15.6835299,8.99803453 C12.7975542,10.3028419 12.0743413,10.9545564 11.436377,13.1420687 C9.14987335,14.1141428 6.51138724,16.7471271 5.40731942,18.0079364" id="path4125"></path>
                    <path d="M19.8050113,17.4520523 C20.1267457,17.8205311 22.0282697,20.6941296 19.8242731,24.3486927 C20.4264896,21.6607055 18.7504535,16.5102265 16.9011741,19.1473398 C18.1564858,19.6876837 18.5662151,20.7120076 18.2293591,21.7102023 C17.7165084,20.7463796 16.4117028,19.7083107 15.1178948,20.1359119 C14.4730528,20.3668975 13.6164732,20.3723996 12.9771334,19.414075 C12.1439241,18.2055133 13.5422266,16.6903431 11.1608545,16.811337 C14.0413264,15.3525363 13.2067461,18.1862619 14.5954223,18.534121 C16.2109603,18.9108499 16.400701,17.9222799 16.9575502,17.2815623 C17.4043983,16.7357174 18.2293591,16.3273611 19.096936,16.9075807 C19.5107897,15.6495225 18.9071952,13.650378 20.0868848,12.5985578 C20.5227355,12.2080787 21.9086637,12.2630745 22.6263761,12.8254193 C21.6061789,12.8130539 20.405868,14.0312311 19.8050225,17.4520523" id="path4129"></path>
                    <path d="M13.2284579,29.0609801 C13.089589,28.9482353 12.708732,28.451888 12.744482,27.9197931 C13.2284579,28.2318984 13.8856705,28.3886399 13.8856705,28.3886399 C13.8856705,28.3886399 13.574938,28.9166123 13.2284579,29.0609801 M16.1240554,25.8945235 C16.411413,25.9371446 16.6575252,26.1681322 16.9173906,25.9770167 C17.1717467,25.7872767 16.9063779,25.0214431 16.7056483,24.7643305 C16.9572602,24.7217094 17.9595819,24.8220784 17.9087103,25.179558 C17.7904674,26.1351358 17.1964994,26.4348674 15.7638222,27.1223303 C16.0085637,26.8968448 15.968687,26.3936177 16.1240554,25.8945235 M10.3892314,25.1231877 C10.5115988,24.8275764 11.0615697,24.4480985 11.3063091,24.4233491 C11.2086892,25.2496817 11.5111743,26.3771216 11.5111743,26.3771216 C11.5111743,26.3771216 10.3988582,25.6731563 10.3892314,25.1231877 M6.73192367,21.459002 C6.20807503,21.0932774 5.38587006,20.2366932 5.29924917,19.9259593 C5.40236995,19.8090899 5.84097242,19.3388676 6.4005655,19.1779995 C6.80479389,19.0721324 7.07015459,19.2962423 7.01103524,19.4186097 C6.95328791,19.5657286 6.59305638,19.5657286 6.48718639,19.8737114 C6.32357155,20.3425624 6.84466662,20.4910527 6.95328791,20.702791 C7.01515917,20.8389118 7.15815019,21.1881443 6.73192367,21.459002 M34.538463,12.4271045 C36.0068862,17.5445841 35.5957812,22.4723256 34.0819857,25.4215438 C34.2717278,23.5763916 32.6506876,20.8774083 33.3024029,17.7247007 C30.2335663,20.702791 35.0293102,28.011911 28.0708024,32.8117856 C29.1088693,31.134373 29.5818489,26.976589 29.210618,25.4600466 C29.5818489,25.6126614 29.9585758,26.0650142 30.1964391,26.4582413 C30.7711592,24.5429654 30.8454095,21.8398596 29.7495865,19.0955042 C30.1318176,19.1505031 30.9114024,19.4928579 31.2702576,19.8255902 C31.4435014,15.599061 28.3485358,15.2828265 27.7669442,14.1347645 C27.7669442,15.3708238 29.210618,16.4088956 29.4759777,18.0258081 C28.4612806,17.5445841 27.724321,17.4964612 27.2018487,17.5445841 C27.9855561,18.1193036 29.7248412,21.4933782 29.210618,24.1909859 C28.4612806,23.561271 27.7669442,23.2711619 27.0162312,23.2037872 C27.9374328,24.6089645 28.3127882,28.2635235 27.1633521,29.9464341 C27.1317271,29.564203 26.9942349,28.4670106 26.5611315,28.011911 C26.0166609,30.0633035 24.417617,30.9226326 23.3176776,31.1852432 C24.6829787,29.7594431 24.417617,27.2268281 22.4198478,26.5544858 C20.6255692,25.9412691 18.3390634,27.1608289 17.410986,31.4354802 C16.1158047,31.8190848 12.220634,30.9886297 14.5497652,28.4697617 C15.968687,28.9509863 19.5778756,26.5407387 19.3358876,24.8427012 C18.9852832,22.4847014 16.8403929,21.6569953 15.1341044,21.6707424 C13.0277175,21.709239 11.6046669,23.6740137 9.88325946,24.5223447 C8.44645896,24.3064776 7.95560967,24.1029884 7.22552197,22.1808431 C7.13065113,21.0149046 8.37771246,20.191321 8.35846335,18.9800083 C7.33551569,19.1917507 7.08252846,17.6545808 5.09025861,19.2536212 C4.93489164,18.9621366 5.1975056,18.2732961 5.1975056,18.2732961 C4.46054453,18.9428872 4.32167724,19.7293457 4.30654979,19.8943342 C4.66815603,20.6079262 5.17137877,21.2486413 6.15170449,21.8852318 C7.32726803,25.0296901 8.53307964,25.3789248 9.77876397,25.4957941 C9.99050376,25.7941523 10.9117054,26.8982183 12.0845184,27.0755867 C11.883778,26.4829907 11.8549057,24.8220784 11.9731463,24.4068509 C14.5222637,21.8508598 16.4169129,23.4045274 16.6630274,24.0864943 C14.3971432,24.5429654 15.9989349,29.3868367 12.2426334,27.2323282 C12.0913939,27.7286755 12.299005,28.9647356 12.7761077,29.687948 C13.159709,32.9960255 17.331242,32.1958158 18.62505,32.7691603 C18.4806834,29.5504538 20.2653383,27.1993296 21.7983841,27.3931921 C23.3369249,27.5856832 23.7329052,30.0908019 21.1136703,32.4611775 C21.7557609,32.8117856 24.5661114,32.3346855 25.9987871,31.2966125 C26.1294037,32.1201961 25.0720834,34.5276927 23.7562791,36.2436039 C34.7777018,33.7096092 39.6999397,21.7628624 34.538463,12.4271045" id="path4133"></path>
                </g>
            </g>
        </g>
    </g>
</svg>