<?xml version="1.0" encoding="UTF-8"?>
<svg width="80px" height="80px" viewBox="0 0 80 80" version="1.1" xmlns="http://www.w3.org/2000/svg" xmlns:xlink="http://www.w3.org/1999/xlink">
    <!-- Generator: Sketch 51.3 (57544) - http://www.bohemiancoding.com/sketch -->
    <title>Group 8 Copy 10</title>
    <desc>Created with Sketch.</desc>
    <defs></defs>
    <g id="Page-1" stroke="none" stroke-width="1" fill="none" fill-rule="evenodd">
        <g id="m7-withdraw-balance-0-1366-copy" transform="translate(-853.000000, -307.000000)">
            <g id="Group-8-Copy-10" transform="translate(853.000000, 307.000000)">
                <rect id="Mask" fill="#F0F2F5" x="0" y="0" width="80" height="80" rx="40"></rect>
                <path d="M54.6181803,29.5221329 L54.6174554,29.5221329 L54.6174554,38.731769 L53.3619583,39.8480885 L54.6174554,40.9644081 L54.6174554,50.1740442 L46.1058814,58.5457157 L33.2696566,58.5457157 L24.6181803,50.0334169 L24.6181803,41.1035856 L26.0135797,39.8480885 L24.6181803,38.5925915 L24.6181803,29.6620353 L33.4088341,21.0105589 L45.9674288,21.0105589 L54.6181803,29.5221329 Z M39.687769,55.8940944 L50.153627,45.5695886 L48.89813,44.3133666 L46.1058814,47.1041655 L33.2696566,47.1041655 L30.4781329,44.453269 L29.3618134,45.5695886 L39.687769,55.8940944 Z M35.0833134,39.8480885 L39.6884939,44.453269 L44.4328519,39.8480885 L39.6884939,35.242908 L35.0833134,39.8480885 Z M48.89813,35.2436329 L50.153627,34.1265885 L39.687769,23.8013578 L29.3618134,34.1265885 L30.4781329,35.3828104 L33.4088341,32.4528341 L45.9674288,32.4528341 L48.89813,35.2436329 Z" id="Combined-Shape" fill="#C32C2C" fill-rule="nonzero"></path>
            </g>
        </g>
    </g>
</svg>