<?xml version="1.0" encoding="UTF-8" standalone="no"?>
<svg width="80px" height="80px" viewBox="0 0 80 80" version="1.1" xmlns="http://www.w3.org/2000/svg" xmlns:xlink="http://www.w3.org/1999/xlink">
    <!-- Generator: Sketch 49.2 (51160) - http://www.bohemiancoding.com/sketch -->
    <title>qiwi_r</title>
    <desc>Created with Sketch.</desc>
    <defs></defs>
    <g id="Page-1" stroke="none" stroke-width="1" fill="none" fill-rule="evenodd">
        <g id="m7-withdraw-balance-0-1366" transform="translate(-633.000000, -867.000000)">
            <g id="qiwi_r" transform="translate(633.000000, 867.000000)">
                <g id="Group-8-Copy-8" fill="#F0F2F5">
                    <rect id="Mask" x="0" y="0" width="80" height="80" rx="40"></rect>
                </g>
                <path d="M50.3229736,50.6122519 C51.1207092,51.2815271 51.3636119,52.0770316 50.9416105,52.6382159 C50.7069165,52.9458307 50.3267048,53.1153705 49.8707493,53.1153705 C49.4230024,53.1153705 48.9670469,52.9510131 48.6506391,52.6770842 C47.9252892,52.048158 47.7122363,51.028698 48.1857286,50.4493753 C48.3707973,50.2228286 48.6715339,50.0980799 49.0319702,50.0980799 C49.4696427,50.0980799 49.9282101,50.280946 50.3229736,50.6122519 Z M54.0038259,48.9131519 C54.1209863,49.692739 53.8724868,50.015531 53.623241,50.015531 C53.3512348,50.015531 53.0098279,49.6994021 52.6068557,49.0760286 C52.2094803,48.4604288 52.0639626,47.7541362 52.2609712,47.3972882 C52.3911909,47.161117 52.6635703,47.0585787 53.007216,47.1873994 C53.6724932,47.4368968 53.9336789,48.4474727 54.0038259,48.9131519 Z M48.9883148,57.071053 C45.1634373,57.071053 42.5571775,57.5778217 39.9300228,57.5778217 C30.027728,57.5778217 22,49.6127814 22,39.7883556 C22,29.9643 30.027728,22 39.9300228,22 C49.8326908,22 57.8600457,29.9643 57.8600457,39.7883556 C57.8600457,43.1265874 56.9339559,46.2504882 55.3216941,48.9194449 C55.2690839,49.0064359 55.1366254,48.9764517 55.1224468,48.8757643 C54.507168,44.5043761 51.81509,42.0952818 47.8969319,41.3930611 C47.5570174,41.3319824 47.4939597,41.1243146 47.9435722,41.0858165 C49.1386832,40.9832782 50.8419868,41.0006764 51.7080039,41.1554092 C51.760241,40.7071282 51.7830015,40.2503331 51.7830015,39.7883556 C51.7830015,33.2940177 46.4760819,28.0293989 39.9300228,28.0293989 C33.3839638,28.0293989 28.0774173,33.2940177 28.0774173,39.7883556 C28.0774173,46.2826934 33.3839638,51.5473122 39.9300228,51.5473122 C40.116584,51.5473122 40.302399,51.5499034 40.4870945,51.5413894 C40.2889666,50.3994017 40.2281476,49.2385351 40.2639674,48.3612221 C40.293444,47.6441945 40.439708,47.5457281 40.7661901,48.1039509 C42.4064361,50.9083914 44.760092,53.462594 49.3356918,54.462805 C53.0766168,55.28052 56.827616,56.2481556 60.8830832,61.3280574 C61.2435194,61.7792999 60.6931639,62.2309125 60.2797443,61.8674014 C56.1530108,58.2396933 52.424772,57.071053 48.9883148,57.071053 Z" id="Combined-Shape-Copy" fill="#FF8B00"></path>
            </g>
        </g>
    </g>
</svg>