<?xml version="1.0" encoding="UTF-8"?>
<svg width="80px" height="80px" viewBox="0 0 80 80" version="1.1" xmlns="http://www.w3.org/2000/svg" xmlns:xlink="http://www.w3.org/1999/xlink">
    <!-- Generator: Sketch 51.3 (57544) - http://www.bohemiancoding.com/sketch -->
    <title>Group 8 Copy 32</title>
    <desc>Created with Sketch.</desc>
    <defs></defs>
    <g id="Page-1" stroke="none" stroke-width="1" fill="none" fill-rule="evenodd">
        <g id="m7-withdraw-balance-0-1366-copy" transform="translate(-853.000000, -527.000000)">
            <g id="Group-8-Copy-32" transform="translate(853.000000, 527.000000)">
                <rect id="Mask" fill="#F0F2F5" x="0" y="0" width="80" height="80" rx="40"></rect>
                <g id="Group-17" transform="translate(25.000000, 20.000000)" fill-rule="nonzero">
                    <path d="M1.34943182,37.5 C10.5860834,37.5 19.8230075,37.5 29.0596591,37.5 C29.0593865,38.1654545 29.0593865,38.8327273 29.0596591,39.5 C19.8230075,39.5 10.5860834,39.5 1.34943182,39.5 C1.34943182,38.8327273 1.34943182,38.1654545 1.34943182,37.5 Z" id="Shape" fill="#FFE000"></path>
                    <path d="M7.99151062,3.26112941 C10.6775031,1.31967518 13.9873998,0.386646203 17.2784475,0.307480108 C20.6901292,0.139723384 24.4297847,0.60341051 27.121432,2.89922726 C29.2155637,4.74078142 29.7471074,7.68123637 29.7056395,10.3427251 C26.5559598,10.34461 23.4062802,10.3427251 20.2566006,10.3427251 C20.2547157,9.42289045 19.8645399,8.43142936 18.9560147,8.06764231 C17.6309251,7.50970983 16.0890712,7.50028529 14.7168589,7.88103651 C13.781945,8.12984424 13.0449463,9.10245626 13.3239126,10.0826079 C13.6349222,11.1438106 14.7828306,11.5697995 15.7177445,11.926047 C18.6280409,12.9024288 21.747562,13.3265329 24.4561734,14.843883 C26.4296711,15.8315743 28.1637855,17.6165813 28.4220178,19.891664 C28.8046539,23.6350894 27.3513906,27.6273224 24.4128206,30.0362336 C21.6420072,32.2076465 18.1492745,33.3216265 14.6716211,33.6288664 C11.6501151,33.8852137 8.46085247,33.6835287 5.73339201,32.2415748 C3.70523206,31.1351344 1.90514585,29.3972501 1.15872267,27.1636353 C0.689380826,25.8404306 0.636603429,24.4116711 0.774201642,23.0262644 C3.9578096,23.0074153 7.14330246,23.0243795 10.3269104,23.0187248 C10.375918,23.8707028 10.6303804,24.7641487 11.3183715,25.325851 C12.8376066,26.583084 15.018444,26.6377463 16.8298396,26.0666194 C17.8401498,25.7612645 18.7901429,24.8093864 18.6619693,23.6878668 C18.6186164,22.9508681 18.0625688,22.3495828 17.410391,22.0668467 C13.9742055,20.5966193 10.1403046,20.176285 6.89637964,18.2367157 C5.22258221,17.3696584 3.90126239,15.776912 3.60344708,13.8863503 C3.29243742,12.6479664 3.58648291,11.3926183 3.67884336,10.1504646 C4.02566625,7.36457199 5.70888822,4.85199093 7.99151062,3.26112941 Z" id="Shape" fill="#0072BC"></path>
                </g>
            </g>
        </g>
    </g>
</svg>