<?xml version="1.0" encoding="UTF-8"?>
<svg width="80px" height="80px" viewBox="0 0 80 80" version="1.1" xmlns="http://www.w3.org/2000/svg" xmlns:xlink="http://www.w3.org/1999/xlink">
    <!-- Generator: Sketch 51.3 (57544) - http://www.bohemiancoding.com/sketch -->
    <title>Group 8 Copy 19</title>
    <desc>Created with Sketch.</desc>
    <defs></defs>
    <g id="Page-1" stroke="none" stroke-width="1" fill="none" fill-rule="evenodd">
        <g id="m7-withdraw-balance-0-1366-copy" transform="translate(-853.000000, -417.000000)">
            <g id="Group-8-Copy-19" transform="translate(853.000000, 417.000000)">
                <rect id="Mask" fill="#F0F2F5" x="0" y="0" width="80" height="80" rx="40"></rect>
                <g id="Group-3" transform="translate(24.000000, 24.000000)" fill-rule="nonzero">
                    <g id="Group-31">
                        <path d="M0.427826282,0.0440625 L0.441113736,0.1096875 L0.449972038,0.19125 C0.640425542,10.906875 0.622708937,21.624375 0.458830341,32.3409375 L0.445542887,32.4253125 L0.436684584,32.49 C-0.0859552646,30.755625 0.13993145,29.0175 0.117785694,27.28125 C0.117785694,19.9378125 0.117785694,12.5934375 0.117785694,5.25 C0.144360601,3.5146875 -0.0903844158,1.7775 0.427826282,0.0440625 Z" id="Shape" fill="#1D0F36" opacity="0.41"></path>
                        <path d="M0.1621875,0.187937286 C11.053125,0.0493780318 21.945,0.0678525991 32.836875,0.178700003 L32.8340625,0.585140483 C21.9440625,0.562047274 11.0540625,0.557428632 0.1640625,0.589759125 L0.1621875,0.187937286 Z" id="Shape" fill="#452479" opacity="0.91"></path>
                        <path d="M32.9454213,0.1078125 L32.9545227,0.043125 C33.4505453,1.62 33.27762,3.2015625 33.2867213,4.78125 C33.2321133,13.9771875 33.3731839,23.1740625 33.2184613,32.37 L32.813452,32.3671875 C32.9135667,21.6421875 32.676932,10.91625 32.9317693,0.1903125 L32.9454213,0.1078125 Z" id="Shape" fill="#3A1F67" opacity="0.78"></path>
                        <path d="M32.8340625,0.1903125 C32.7815625,10.91625 32.8303125,21.6421875 32.8096875,32.3671875 C21.9290625,32.31 11.0475,32.3634375 0.1659375,32.3409375 C0.200625,21.624375 0.204375,10.906875 0.1640625,0.19125 C11.0130419,0.243068284 21.9440625,0.185625 32.8340625,0.1903125 Z M16.475625,3.7246875 C16.4278125,3.860625 16.335,3.945 16.245,4.0321875 C16.00125,4.17 15.8090625,4.3734375 15.64125,4.5928125 C15.5296875,4.6865625 15.4171875,4.7784375 15.3103125,4.8759375 C15.05625,5.000625 14.8565625,5.2040625 14.6971875,5.43375 C14.5546875,5.5575 14.4121875,5.68125 14.2771875,5.8115625 C14.0325,5.949375 13.8403125,6.1546875 13.674375,6.3759375 C13.53,6.49875 13.3846875,6.620625 13.246875,6.7509375 C13.0021875,6.8878125 12.8090625,7.09125 12.64125,7.310625 C12.5296875,7.404375 12.418125,7.498125 12.3121875,7.5975 C12.06375,7.7296875 11.8715625,7.935 11.7046875,8.1571875 C11.5603125,8.28 11.415,8.401875 11.278125,8.5321875 C11.034375,8.6690625 10.8403125,8.8725 10.6725,9.091875 C10.5609375,9.185625 10.4503125,9.2784375 10.34625,9.3778125 C10.0425,9.5109375 9.825,9.7640625 9.6440625,10.0321875 C9.530625,10.125 9.418125,10.216875 9.31125,10.314375 C9.05625,10.438125 8.8565625,10.640625 8.6971875,10.87125 C8.5528125,10.9940625 8.409375,11.116875 8.2725,11.2471875 C8.0315625,11.38875 7.8403125,11.5940625 7.6753125,11.81625 C7.3003125,12.13875 7.280625,12.6890625 7.111875,13.12125 C6.0075,17.244375 5.0728125,21.41625 3.8840625,25.5159375 C3.7246875,25.6275 4.0265625,25.79625 4.0640625,25.6153125 C4.479375,25.9303125 4.9753125,26.11125 5.443125,26.334375 C7.108125,27.0628125 8.71875,27.928125 10.39125,28.63125 C12.1434375,28.725 13.8984375,28.68375 15.6525,28.685625 C15.654375,27.1415625 15.7284375,25.5909375 15.5475,24.054375 L15.5475,24.1434375 C14.5021875,24.6346875 13.3875,24.93375 12.27375,25.216875 C12.2184375,25.1953125 12.10875,25.153125 12.0534375,25.1315625 C11.705625,25.1334375 11.349375,25.1325 11.0053125,25.13625 C10.95,25.155 10.839375,25.1925 10.783125,25.21125 C10.35,25.03125 9.8915625,24.8971875 9.4875,24.6571875 C9.3103125,24.38625 9.0778125,24.1565625 8.8040625,23.985 C8.3896875,23.3596875 8.1571875,22.62375 8.1290625,21.8746875 C8.14875,21.3553125 8.1375,20.835 8.139375,20.315625 C8.1421875,20.1890625 8.1440625,20.0625 8.143125,19.936875 C8.315625,19.959375 8.3475,19.6603125 8.19375,19.614375 C8.233125,19.479375 8.25,19.3425 8.244375,19.2028125 C8.4009375,19.1465625 8.4178125,19.059375 8.295,18.94125 C8.4075,18.6684375 8.454375,18.369375 8.43,18.0759375 C8.585625,18.0215625 8.604375,17.9353125 8.484375,17.8153125 C8.75625,17.2040625 8.8790625,16.5346875 9.1903125,15.9384375 C9.6065625,14.938125 10.2365625,14.0540625 10.775625,13.1221875 C10.9425,13.1465625 10.996875,13.0790625 10.9396875,12.9178125 C11.1140625,12.7725 11.248125,12.5803125 11.341875,12.3740625 C11.510625,12.39375 11.563125,12.3234375 11.499375,12.1640625 C11.535,12.1209375 11.604375,12.035625 11.64,11.9925 C11.8021875,12.1125 12.0103125,11.8275 11.855625,11.701875 C11.895,11.65125 11.9746875,11.548125 12.0140625,11.4975 C12.1996875,11.62125 12.4621875,11.32125 12.313125,11.150625 C12.395625,11.064375 12.4771875,10.97625 12.55875,10.88625 C12.7809375,10.72125 12.98625,10.53 13.1296875,10.29 C13.4615625,9.9525 13.7953125,9.6159375 14.131875,9.2821875 C14.3615625,9.125625 14.5546875,8.923125 14.73,8.7084375 C14.7675,8.67375 14.8434375,8.6034375 14.881875,8.56875 C15.013125,8.7159375 15.2821875,8.4928125 15.1603125,8.338125 C15.2025,8.3025 15.28875,8.2303125 15.3309375,8.1946875 C15.485625,8.26125 15.556875,8.210625 15.545625,8.04375 C15.8915625,7.918125 16.18875,7.695 16.5065625,7.513125 C16.850625,7.693125 17.180625,7.9096875 17.5490625,8.0409375 C17.535,8.20875 17.60625,8.2584375 17.76375,8.1928125 C17.8059375,8.229375 17.89125,8.3015625 17.9334375,8.338125 C17.80875,8.4909375 18.07125,8.7196875 18.208125,8.5753125 C18.2859375,8.656875 18.3703125,8.73375 18.4565625,8.8096875 C18.6225,9.0309375 18.81375,9.23625 19.0528125,9.3815625 C19.355625,9.6834375 19.6584375,9.98625 19.9621875,10.2909375 C20.1065625,10.5290625 20.311875,10.7203125 20.535,10.88625 C20.61375,10.97625 20.694375,11.0653125 20.7796875,11.1515625 C20.62875,11.323125 20.8959375,11.62125 21.0825,11.4946875 C21.1228125,11.5434375 21.2034375,11.6428125 21.24375,11.6915625 C21.091875,11.8190625 21.3046875,12.0965625 21.465,11.9803125 C21.49875,12.0253125 21.56625,12.11625 21.6,12.1621875 C21.5240625,12.3178125 21.5728125,12.3909375 21.7453125,12.3815625 C21.774375,12.42375 21.8325,12.5071875 21.8615625,12.549375 C21.8025,12.7115625 21.85875,12.7790625 22.0284375,12.7528125 C22.063125,12.7903125 22.1315625,12.86625 22.1653125,12.90375 C22.1090625,13.063125 22.164375,13.130625 22.33125,13.1071875 C22.9340625,14.25375 23.7159375,15.3196875 24.1284375,16.5609375 C24.3065625,17.06625 24.3796875,17.6090625 24.6075,18.0975 C24.4865625,18.2175 24.5053125,18.3046875 24.66375,18.3571875 C24.646875,18.6196875 24.6975,18.885 24.7978125,19.12875 C24.673125,19.246875 24.6909375,19.3340625 24.849375,19.3903125 C24.8409375,19.5365625 24.856875,19.68 24.8953125,19.8225 C24.766875,19.921875 24.76125,20.030625 24.879375,20.14875 C24.7696875,20.270625 24.789375,20.3465625 24.9384375,20.3746875 C24.9065625,20.825625 24.9140625,21.2784375 24.9346875,21.73125 C24.77625,21.699375 24.744375,21.9778125 24.88875,22.0190625 C24.89625,22.08375 24.9103125,22.2140625 24.9178125,22.2796875 C24.7425,22.906875 24.564375,23.5490625 24.1978125,24.095625 C24.03,24.2465625 23.8715625,24.406875 23.7215625,24.57375 C23.3990625,24.7921875 23.019375,24.9065625 22.68,25.09125 C22.550625,24.9759375 22.464375,24.999375 22.419375,25.1615625 L22.3209375,25.190625 C22.2628125,25.175625 22.1465625,25.1446875 22.0884375,25.12875 C21.7078125,25.12875 21.3196875,25.125 20.9428125,25.1240625 C20.8846875,25.14 20.769375,25.1709375 20.71125,25.1859375 L20.5746044,25.2143183 C20.5024253,25.3214494 20.3124164,25.1657005 20.3102294,25.1618183 C19.3408544,24.9068183 18.4284375,24.534375 17.4975,24.1621875 L17.49375,24.0571875 C17.4,25.576875 17.4234375,27.10125 17.4590625,28.6228125 C19.160625,28.7203125 20.93625,28.74 22.7034375,28.606875 C23.4628125,28.415625 24.118125,27.9421875 24.84,27.646875 C26.19375,26.949375 27.6384375,26.4178125 28.95375,25.6546875 C29.0896875,25.794375 29.233125,25.464375 29.0353125,25.4653125 C29.038125,25.0584375 28.8684375,24.67125 28.794375,24.2775 C27.70875,20.229375 26.745,16.1475 25.640625,12.105 C25.7896875,11.964375 25.5440625,11.7028125 25.396875,11.84625 C25.2590625,11.6953125 25.1053125,11.5621875 24.9515625,11.43 C24.7959375,11.265 24.6309375,11.1084375 24.448125,10.9753125 C24.3046875,10.845 24.1565625,10.72125 24.009375,10.5984375 C23.8340625,10.3846875 23.64,10.185 23.40375,10.040625 C23.296875,9.939375 23.184375,9.845625 23.0728125,9.751875 C22.895625,9.5409375 22.7025,9.3421875 22.47,9.1940625 C22.33125,9.0609375 22.185,8.9390625 22.0396875,8.81625 C21.864375,8.604375 21.67125,8.4046875 21.43875,8.255625 C21.301875,8.1234375 21.1565625,7.9996875 21.013125,7.8759375 C20.84625,7.65375 20.653125,7.449375 20.409375,7.3134375 C20.270625,7.183125 20.1253125,7.06125 19.981875,6.9384375 C19.815,6.7171875 19.621875,6.511875 19.378125,6.375 C19.2403125,6.2428125 19.0940625,6.12 18.950625,5.9953125 C18.795,5.829375 18.6309375,5.6709375 18.448125,5.536875 C18.305625,5.4046875 18.159375,5.278125 18.013125,5.1515625 C17.8575,4.985625 17.6934375,4.82625 17.50875,4.6940625 C17.3325,4.53375 17.1525,4.3790625 16.9771875,4.2215625 C16.8234375,4.0425 16.659375,3.871875 16.475625,3.7246875 Z" id="Shape" fill="#4B2884"></path>
                        <rect id="Rectangle" fill="#4B2884" x="2.53846154" y="3.80769231" width="27.9230769" height="26.6538462"></rect>
                        <path d="M16.475625,3.7246875 C16.659375,3.87280071 16.8234375,4.04449882 16.9771875,4.2246875 C16.816875,4.08412146 16.6659375,3.93317807 16.5225,3.77657429 L16.475625,3.7246875 Z" id="Shape" fill="#A36B4E"></path>
                        <path d="M16.245,4.0321875 C16.335,3.945 16.4278125,3.860625 16.5225,3.77625 C16.6659375,3.931875 16.816875,4.081875 16.9771875,4.2215625 C17.1525,4.3790625 17.3325,4.53375 17.50875,4.6940625 C17.67375,4.84875 17.83875,5.0053125 18.013125,5.1515625 C18.159375,5.278125 18.305625,5.4046875 18.448125,5.536875 C18.6121875,5.6934375 18.77625,5.8490625 18.950625,5.9953125 C19.0940625,6.12 19.2403125,6.2428125 19.378125,6.375 C19.5740625,6.568125 19.7690625,6.7621875 19.981875,6.9384375 C20.1253125,7.06125 20.270625,7.183125 20.409375,7.3134375 C20.6053125,7.505625 20.80125,7.6996875 21.013125,7.8759375 C21.1565625,7.9996875 21.301875,8.1234375 21.43875,8.255625 C21.631875,8.4496875 21.826875,8.6428125 22.0396875,8.81625 C22.185,8.9390625 22.33125,9.0609375 22.47,9.1940625 C22.6640625,9.38625 22.8590625,9.579375 23.0728125,9.751875 C23.184375,9.845625 23.296875,9.939375 23.40375,10.040625 C23.5996875,10.231875 23.7946875,10.425 24.009375,10.5984375 C24.1565625,10.72125 24.3046875,10.845 24.448125,10.9753125 C24.6121875,11.13 24.778125,11.28375 24.9515625,11.43 C25.1053125,11.5621875 25.2590625,11.6953125 25.396875,11.84625 C25.4709375,11.938125 25.5534375,12.0234375 25.640625,12.105 C26.745,16.1475 27.70875,20.229375 28.794375,24.2775 C28.8684375,24.67125 29.038125,25.0584375 29.0353125,25.4653125 C29.0146875,25.5121875 28.974375,25.606875 28.95375,25.6546875 C27.6384375,26.4178125 26.19375,26.949375 24.84,27.646875 C24.118125,27.9421875 23.4628125,28.415625 22.7034375,28.606875 C20.98125,28.6190625 19.258125,28.558125 17.5378125,28.618125 C17.53125,27.133125 17.5453125,25.6471875 17.4975,24.1621875 C18.4284375,24.534375 19.381875,24.8484375 20.35125,25.1034375 C20.431875,25.1521875 20.52,25.17 20.615625,25.1559375 L20.71125,25.1859375 C20.803125,25.2309375 20.8978125,25.2309375 20.9934375,25.186875 C21.335625,25.1896875 21.6909375,25.1971875 22.0378125,25.1925 C22.1315625,25.2346875 22.22625,25.23375 22.3209375,25.190625 L22.419375,25.1615625 C22.5140625,25.171875 22.60125,25.1484375 22.68,25.09125 C23.019375,24.9065625 23.3990625,24.7921875 23.7215625,24.57375 C23.9053125,24.4425 24.065625,24.2803125 24.1978125,24.095625 C24.564375,23.5490625 24.7425,22.906875 24.9178125,22.2796875 C24.965625,22.1934375 24.9778125,22.1025 24.9553125,22.006875 C24.9496875,21.9140625 24.943125,21.8221875 24.9346875,21.73125 C24.9140625,21.2784375 24.9065625,20.825625 24.9384375,20.3746875 C24.9403125,20.319375 24.9440625,20.2096875 24.9459375,20.154375 C24.9525,20.0409375 24.9309375,19.9284375 24.8953125,19.8225 C24.856875,19.68 24.8409375,19.5365625 24.849375,19.3903125 C24.8671875,19.295625 24.8503125,19.2084375 24.7978125,19.12875 C24.6975,18.885 24.646875,18.6196875 24.66375,18.3571875 C24.6825,18.2615625 24.6628125,18.1753125 24.6075,18.0975 C24.3796875,17.6090625 24.3065625,17.06625 24.1284375,16.5609375 C23.7159375,15.3196875 22.9340625,14.25375 22.33125,13.1071875 C22.3059375,13.014375 22.250625,12.9459375 22.1653125,12.90375 C22.1315625,12.86625 22.063125,12.7903125 22.0284375,12.7528125 C21.9984375,12.6628125 21.9421875,12.5953125 21.8615625,12.549375 C21.8325,12.5071875 21.774375,12.42375 21.7453125,12.3815625 C21.7228125,12.2896875 21.6740625,12.2165625 21.6,12.1621875 C21.56625,12.11625 21.49875,12.0253125 21.465,11.9803125 C21.4040625,11.874375 21.328125,11.77875 21.24375,11.6915625 C21.2034375,11.6428125 21.1228125,11.5434375 21.0825,11.4946875 C20.9915625,11.3709375 20.8884375,11.2575 20.7796875,11.1515625 C20.694375,11.0653125 20.61375,10.97625 20.535,10.88625 C20.3540625,10.6771875 20.1590625,10.4821875 19.9621875,10.2909375 C19.6584375,9.98625 19.355625,9.6834375 19.0528125,9.3815625 C18.860625,9.18375 18.66375,8.990625 18.4565625,8.8096875 C18.3703125,8.73375 18.2859375,8.656875 18.208125,8.5753125 C18.1265625,8.484375 18.03375,8.4046875 17.9334375,8.338125 C17.89125,8.3015625 17.8059375,8.229375 17.76375,8.1928125 C17.713125,8.109375 17.641875,8.0596875 17.5490625,8.0409375 C17.180625,7.9096875 16.850625,7.693125 16.5065625,7.513125 C16.18875,7.695 15.8915625,7.918125 15.545625,8.04375 C15.45,8.0615625 15.37875,8.1121875 15.3309375,8.1946875 C15.28875,8.2303125 15.2025,8.3025 15.1603125,8.338125 C15.05625,8.401875 14.9634375,8.4796875 14.881875,8.56875 C14.8434375,8.6034375 14.7675,8.67375 14.73,8.7084375 C14.5190625,8.8884375 14.323125,9.0825 14.131875,9.2821875 C13.7953125,9.6159375 13.4615625,9.9525 13.1296875,10.29 C12.931875,10.4821875 12.7378125,10.6771875 12.55875,10.88625 C12.4771875,10.97625 12.395625,11.064375 12.313125,11.150625 C12.2025,11.2575 12.1003125,11.3709375 12.0140625,11.4975 C11.9746875,11.548125 11.895,11.65125 11.855625,11.701875 C11.773125,11.791875 11.701875,11.889375 11.64,11.9925 C11.604375,12.035625 11.535,12.1209375 11.499375,12.1640625 C11.4178125,12.2128125 11.3653125,12.283125 11.341875,12.3740625 C11.248125,12.5803125 11.1140625,12.7725 10.9396875,12.9178125 C10.8553125,12.9628125 10.8,13.03125 10.775625,13.1221875 C10.2365625,14.0540625 9.6065625,14.938125 9.1903125,15.9384375 C8.8790625,16.5346875 8.75625,17.2040625 8.484375,17.8153125 C8.42625,17.8940625 8.4084375,17.9803125 8.43,18.0759375 C8.454375,18.369375 8.4075,18.6684375 8.295,18.94125 C8.240625,19.0209375 8.22375,19.108125 8.244375,19.2028125 C8.25,19.3425 8.233125,19.479375 8.19375,19.614375 C8.1515625,19.7165625 8.128125,19.8253125 8.143125,19.936875 C8.1440625,20.0625 8.1421875,20.1890625 8.139375,20.315625 C8.1253125,20.835 8.1103125,21.354375 8.1290625,21.8746875 C8.1571875,22.62375 8.3896875,23.3596875 8.8040625,23.985 C8.98875,24.2465625 9.2203125,24.4771875 9.4875,24.6571875 C9.8915625,24.8971875 10.35,25.03125 10.783125,25.21125 C10.8759375,25.2571875 10.9678125,25.2515625 11.0596875,25.1925 C11.3653125,25.1896875 11.6859375,25.1925 11.9971875,25.1878125 C12.084375,25.2459375 12.17625,25.2553125 12.27375,25.216875 C13.3875,24.93375 14.5021875,24.6346875 15.5475,24.1434375 C15.5578125,25.625625 15.56625,27.1078125 15.5625,28.59 C13.8375,28.584375 12.114375,28.610625 10.39125,28.63125 C8.71875,27.928125 7.108125,27.0628125 5.443125,26.334375 C4.9753125,26.11125 4.479375,25.9303125 4.0640625,25.6153125 C4.0190625,25.5909375 3.9290625,25.54125 3.8840625,25.5159375 C5.0728125,21.41625 6.0075,17.244375 7.111875,13.12125 C7.280625,12.6890625 7.3003125,12.13875 7.6753125,11.81625 C7.8778125,11.630625 8.075625,11.439375 8.2725,11.2471875 C8.409375,11.116875 8.5528125,10.9940625 8.6971875,10.87125 C8.908125,10.693125 9.10875,10.5028125 9.31125,10.314375 C9.418125,10.216875 9.530625,10.125 9.6440625,10.0321875 C9.8934375,9.830625 10.1175,9.601875 10.34625,9.3778125 C10.4503125,9.2784375 10.5609375,9.185625 10.6725,9.091875 C10.884375,8.9165625 11.0803125,8.7234375 11.278125,8.5321875 C11.415,8.401875 11.5603125,8.28 11.7046875,8.1571875 C11.9165625,7.9809375 12.1134375,7.7878125 12.3121875,7.5975 C12.418125,7.498125 12.5296875,7.404375 12.64125,7.310625 C12.853125,7.13625 13.0490625,6.943125 13.246875,6.7509375 C13.3846875,6.620625 13.53,6.49875 13.674375,6.3759375 C13.8853125,6.1996875 14.0803125,6.005625 14.2771875,5.8115625 C14.4121875,5.68125 14.5546875,5.5575 14.6971875,5.43375 C14.908125,5.255625 15.1078125,5.064375 15.3103125,4.8759375 C15.4171875,4.7784375 15.5296875,4.6865625 15.64125,4.5928125 C15.853125,4.4184375 16.0490625,4.2253125 16.245,4.0321875 Z" id="Shape" fill="#FBAE17"></path>
                        <path d="M15.64125,4.5928125 C15.8090625,4.3734375 16.00125,4.17 16.245,4.0321875 C16.0490625,4.2253125 15.853125,4.4184375 15.64125,4.5928125 Z" id="Shape" fill="#976255"></path>
                        <path d="M12.64125,7.310625 C12.8090625,7.09125 13.0021875,6.8878125 13.246875,6.7509375 C13.0490625,6.943125 12.853125,7.13625 12.64125,7.310625 Z" id="Shape" fill="#976255"></path>
                        <path d="M17.50875,4.6940625 C17.6934375,4.83852971 17.8575,5.01271004 18.013125,5.1940625 C17.83875,5.03422643 17.67375,4.86311988 17.50875,4.6940625 Z" id="Shape" fill="#A66D4C"></path>
                        <path d="M14.6971875,5.43375 C14.8565625,5.2040625 15.05625,5.000625 15.3103125,4.8759375 C15.1078125,5.064375 14.908125,5.255625 14.6971875,5.43375 Z" id="Shape" fill="#825262"></path>
                        <path d="M18.448125,5.536875 C18.6309375,5.68309177 18.795,5.8558934 18.950625,6.036875 C18.77625,5.8773658 18.6121875,5.70763165 18.448125,5.536875 Z" id="Shape" fill="#A1694F"></path>
                        <path d="M13.674375,6.3759375 C13.8403125,6.1546875 14.0325,5.949375 14.2771875,5.8115625 C14.0803125,6.005625 13.8853125,6.1996875 13.674375,6.3759375 Z" id="Shape" fill="#956056"></path>
                        <path d="M19.378125,6.375 C19.621875,6.511875 19.815,6.7171875 19.981875,6.9384375 C19.7690625,6.7621875 19.5740625,6.568125 19.378125,6.375 Z" id="Shape" fill="#986255"></path>
                        <path d="M20.409375,7.3134375 C20.653125,7.449375 20.84625,7.65375 21.013125,7.8759375 C20.80125,7.6996875 20.6053125,7.505625 20.409375,7.3134375 Z" id="Shape" fill="#9A6453"></path>
                        <path d="M11.7046875,8.1571875 C11.8715625,7.935 12.06375,7.7296875 12.3121875,7.5975 C12.1134375,7.7878125 11.9165625,7.9809375 11.7046875,8.1571875 Z" id="Shape" fill="#935F57"></path>
                        <path d="M21.43875,8.255625 C21.67125,8.4046875 21.864375,8.604375 22.0396875,8.81625 C21.826875,8.6428125 21.631875,8.4496875 21.43875,8.255625 Z" id="Shape" fill="#AD7248"></path>
                        <path d="M10.6725,9.091875 C10.8403125,8.8725 11.034375,8.6690625 11.278125,8.5321875 C11.0803125,8.7234375 10.884375,8.9165625 10.6725,9.091875 Z" id="Shape" fill="#966156"></path>
                        <path d="M7.6753125,11.81625 C7.8403125,11.5940625 8.0315625,11.38875 8.2725,11.2471875 C8.075625,11.439375 7.8778125,11.630625 7.6753125,11.81625 Z" id="Shape" fill="#966156"></path>
                        <path d="M22.47,9.1940625 C22.7025,9.3421875 22.895625,9.5409375 23.0728125,9.751875 C22.8590625,9.579375 22.6640625,9.38625 22.47,9.1940625 Z" id="Shape" fill="#B07545"></path>
                        <path d="M9.6440625,10.0321875 C9.825,9.7640625 10.0425,9.5109375 10.34625,9.3778125 C10.1175,9.601875 9.8934375,9.830625 9.6440625,10.0321875 Z" id="Shape" fill="#8F5C5A"></path>
                        <path d="M23.40375,10.040625 C23.64,10.185 23.8340625,10.3846875 24.009375,10.5984375 C23.7946875,10.425 23.5996875,10.231875 23.40375,10.040625 Z" id="Shape" fill="#AA7149"></path>
                        <path d="M8.6971875,10.87125 C8.8565625,10.640625 9.05625,10.438125 9.31125,10.314375 C9.10875,10.5028125 8.908125,10.693125 8.6971875,10.87125 Z" id="Shape" fill="#835361"></path>
                        <path d="M24.448125,10.9753125 C24.6309375,11.1217043 24.7959375,11.2938692 24.9515625,11.4753125 C24.778125,11.3144878 24.6121875,11.1454156 24.448125,10.9753125 Z" id="Shape" fill="#A16A4F"></path>
                        <path d="M8.8040625,23.985 C9.0778125,24.1565625 9.3103125,24.38625 9.4875,24.6571875 C9.2203125,24.4771875 8.98875,24.2465625 8.8040625,23.985 Z" id="Shape" fill="#8D5B5B"></path>
                        <path d="M15.5475,24.054375 C15.7284375,25.5909375 15.654375,27.1415625 15.6525,28.685625 C13.8984375,28.68375 12.1434375,28.725 10.39125,28.63125 C12.114375,28.610625 13.8375,28.584375 15.5625,28.59 C15.56625,27.1078125 15.5578125,25.625625 15.5475,24.1434375 L15.5475,24.054375 Z" id="Shape" fill="#DF9929"></path>
                        <path d="M23.7215625,24.595625 C23.8790428,24.4211152 24.0453814,24.2534681 24.2215625,24.095625 C24.082783,24.2887623 23.9144759,24.4583701 23.7215625,24.595625 Z" id="Shape" fill="#E19A27"></path>
                    </g>
                    <path d="M16.3700011,24.1648648 C13.306591,25.3723281 11.3944613,25.6025842 10.633612,24.855633 C9.49233817,23.7352063 6.99840098,22.0693154 11.3652406,13.7046296 C12.5185326,11.4954977 14.5460787,9.46574935 17.4478791,7.61538462 C20.3018452,9.62399184 22.290985,11.6537402 23.4152986,13.7046296 C25.1017689,16.7809638 28.2061438,23.5626067 23.0098446,25.2540505 C22.3143681,25.4804346 20.8142044,25.1173727 18.5093536,24.1648648 L18.5093536,28.5732307 L16.3700011,28.5732307 L16.3700011,24.1648648 Z" id="Path-2" fill="#4B2884"></path>
                </g>
            </g>
        </g>
    </g>
</svg>