<?xml version="1.0" encoding="UTF-8" standalone="no"?>
<svg width="80px" height="80px" viewBox="0 0 80 80" version="1.1" xmlns="http://www.w3.org/2000/svg" xmlns:xlink="http://www.w3.org/1999/xlink">
    <!-- Generator: Sketch 49.2 (51160) - http://www.bohemiancoding.com/sketch -->
    <title>skril_r</title>
    <desc>Created with Sketch.</desc>
    <defs></defs>
    <g id="Page-1" stroke="none" stroke-width="1" fill="none" fill-rule="evenodd">
        <g id="m7-withdraw-balance-0-1366" transform="translate(-193.000000, -867.000000)">
            <g id="skril_r" transform="translate(193.000000, 867.000000)">
                <g id="Group-8-Copy-4" fill="#F0F2F5">
                    <rect id="Mask" x="0" y="0" width="80" height="80" rx="40"></rect>
                </g>
                <path d="M40.1921949,35.2500227 C39.0120855,35.173584 36.2806186,34.9978404 36.2806186,32.5524563 C36.2806186,29.6020543 40.2132213,29.6020543 41.688358,29.6020543 C44.2818389,29.6020543 47.6408138,30.3631744 50.0398001,31.0772553 C50.0398001,31.0772553 51.3782648,31.5463405 52.5169784,32.0265321 L52.6227677,32.0552783 L52.6227677,31.9481335 L52.6227677,23.974339 L52.4775538,23.931873 C49.6462113,22.9473168 46.3542581,22 40.2513318,22 C29.7282519,22 26,28.0948406 26,33.3161897 C26,36.326044 27.297069,43.4106673 39.3491657,44.2279731 C40.3702626,44.2900387 43.0813601,44.4455293 43.0813601,46.9719253 C43.0813601,49.0586356 40.8617558,50.2881876 37.1289043,50.2881876 C33.0379462,50.2881876 29.0678901,49.2513656 26.6577336,48.2674628 L26.6577336,56.5894779 C30.2670547,57.5296082 34.3343581,58 39.1027621,58 C49.3919227,58 54,52.2331271 54,46.5178665 C54,40.037566 48.8432638,35.8262527 40.1921949,35.2500227 L40.1921949,35.2500227 Z" id="Path-Copy" fill="#972772"></path>
            </g>
        </g>
    </g>
</svg>