<?xml version="1.0" encoding="UTF-8"?>
<svg width="80px" height="80px" viewBox="0 0 80 80" version="1.1" xmlns="http://www.w3.org/2000/svg" xmlns:xlink="http://www.w3.org/1999/xlink">
    <!-- Generator: Sketch 51.3 (57544) - http://www.bohemiancoding.com/sketch -->
    <title>Group 8 Copy 17</title>
    <desc>Created with Sketch.</desc>
    <defs></defs>
    <g id="Page-1" stroke="none" stroke-width="1" fill="none" fill-rule="evenodd">
        <g id="m7-withdraw-balance-0-1366-copy" transform="translate(-633.000000, -417.000000)">
            <g id="Group-8-Copy-17" transform="translate(633.000000, 417.000000)">
                <rect id="Mask" fill="#F0F2F5" x="0" y="0" width="80" height="80" rx="40"></rect>
                <g id="TMB_Bank_Logo" transform="translate(15.000000, 28.000000)" fill-rule="nonzero">
                    <path d="M18.5905708,0 C17.1590581,0 16,1.17152543 16,2.62146887 C16,4.07367221 17.1590581,5.25423712 18.5905708,5.25423712 C20.0229777,5.25423712 21.1811416,4.07367221 21.1811416,2.62146887 C21.1811416,1.17152543 20.0229777,2.35710053e-16 18.5905708,0 Z M31.4094292,0 C29.9765764,0 28.8188598,1.17152543 28.8188598,2.62146887 C28.8188598,4.07367221 29.9765764,5.25423712 31.4094292,5.25423712 C32.8440706,5.25423712 34,4.07367221 34,2.62146887 C34,1.17152543 32.8440706,2.35710053e-16 31.4094292,0 Z M16.0781647,7.44632753 L16.0781647,24 L19.6625317,24 L19.6625317,12.3841801 L19.7183625,12.3841801 L23.6153856,24 L26.3846157,24 L30.3263026,12.3728813 L30.3263026,24 L33.9218366,24 L33.9218366,7.44632753 L28.7406951,7.44632753 L25.1228298,18.824859 L25.0781647,18.824859 L21.2593062,7.44632753 L16.0781647,7.44632753 Z" id="path3186" fill="#0F6DB6"></path>
                    <polygon id="path3194" fill="#C7303A" points="0 10.6332453 0 7.67466742 14 7.67466742 14 10.6332453 8.8593205 10.6332453 8.8593205 23.6746674 5.14160304 23.6746674 5.14160304 10.6332453"></polygon>
                    <path d="M46.3261342,7.76426375 C46.9369898,7.90275973 47.4596447,8.12120768 47.8958449,8.42659781 C48.328116,8.72980359 48.6643259,9.13873805 48.9044771,9.64684799 C49.1428811,10.1540841 49.2642662,10.7845248 49.2642662,11.5272477 C49.2642662,12.3346319 49.0883007,13.0070138 48.7324419,13.5426484 C48.3822594,14.0774094 47.853054,14.5226053 47.160984,14.8633844 C48.1150371,15.1508615 48.8267559,15.6463015 49.2909014,16.3536358 C49.762469,17.0635918 50,17.9242762 50,18.9212732 C50,19.7321522 49.8454306,20.4311851 49.5410937,21.0218685 C49.237631,21.6103675 48.8267559,22.0944471 48.3145805,22.4653723 C47.8006579,22.838918 47.2142544,23.1172203 46.5514385,23.2963479 C45.8969191,23.4772225 45.2188218,23.5672237 44.5180196,23.5672237 L37,23.5672237 L37,7.56722366 L44.3088697,7.56722366 C45.0432934,7.56722366 45.7178988,7.62969975 46.3261342,7.76426375 Z M45.3795046,13.5907068 C45.7742252,13.2923066 45.9711484,12.8073523 45.9711484,12.1314751 C45.9711484,11.7583656 45.9047797,11.4569074 45.7742252,11.2148671 C45.6423607,10.9763221 45.4694512,10.7902044 45.2498231,10.6560774 C45.0336882,10.5180183 44.7782555,10.4262702 44.4979336,10.3751534 C44.2114996,10.3235997 43.9176435,10.2978227 43.6163639,10.2978227 L40.4035862,10.2978227 L40.4035862,14.0354666 L43.8752897,14.0354666 C44.4874541,14.0354666 44.9865311,13.8895431 45.3795046,13.5907068 Z M45.0249546,20.733954 C45.3292915,20.6631772 45.5991327,20.5530794 45.8292415,20.3957967 C46.0654612,20.236767 46.2471029,20.0226871 46.3881368,19.7553079 C46.5239304,19.4848682 46.5902991,19.1405953 46.5902991,18.7168055 C46.5902991,17.8971891 46.3663049,17.3078166 45.9178781,16.9561157 C45.4694512,16.6026667 44.8721324,16.4270343 44.1337784,16.4270343 L40.4035862,16.4270343 L40.4035862,20.834877 L44.0652266,20.834877 C44.3988176,20.834877 44.717563,20.8007994 45.0249546,20.733954 Z" id="path3198" fill="#C7303A"></path>
                </g>
            </g>
        </g>
    </g>
</svg>