<?xml version="1.0" encoding="UTF-8"?>
<svg width="80px" height="80px" viewBox="0 0 80 80" version="1.1" xmlns="http://www.w3.org/2000/svg" xmlns:xlink="http://www.w3.org/1999/xlink">
    <!-- Generator: Sketch 51.3 (57544) - http://www.bohemiancoding.com/sketch -->
    <title>Group 8 Copy 35</title>
    <desc>Created with Sketch.</desc>
    <defs>
        <linearGradient x1="50%" y1="100%" x2="50%" y2="1.29606214%" id="linearGradient-1">
            <stop stop-color="#1C7255" offset="0%"></stop>
            <stop stop-color="#86C23F" offset="100%"></stop>
        </linearGradient>
        <linearGradient x1="11.6903108%" y1="50%" x2="85.9960168%" y2="50%" id="linearGradient-2">
            <stop stop-color="#13754C" offset="0%"></stop>
            <stop stop-color="#7DBE42" offset="100%"></stop>
        </linearGradient>
    </defs>
    <g id="Page-1" stroke="none" stroke-width="1" fill="none" fill-rule="evenodd">
        <g id="m7-withdraw-balance-0-1366-copy" transform="translate(-523.000000, -527.000000)">
            <g id="Group-8-Copy-35" transform="translate(523.000000, 527.000000)">
                <rect id="Mask" fill="#F0F2F5" x="0" y="0" width="80" height="80" rx="40"></rect>
                <g id="Group-4" transform="translate(18.000000, 19.000000)">
                    <path d="M15.9394074,0.811555556 C12.936,1.42103704 11.836,2.78177778 11.9435556,4.74059259 C12.0918519,7.49303704 15.1213333,12.7420741 16.5684444,15.0805926 C19.0943704,19.170963 22.0847407,22.8604444 25.4108148,26.2565926 C28.1078519,28.9177778 29.7912593,29.4946667 32.6708148,25.564 C35.1266667,22.3275556 37.3983704,19.1041481 39.3441481,15.0903704 C40.1980741,13.3254815 40.9868148,11.4008889 41.6924444,9.24162963 C42.4502222,6.72059259 42.1748148,4.48962963 39.7124444,2.84696296 C42.0982222,4.004 43.1265185,6.1437037 43.2797037,8.49851852 C43.4263704,10.7751111 42.7435556,13.2554074 42.2237037,15.0805926 C40.9281481,19.6272593 39.2708148,24.213037 37.1718519,28.3327407 C35.5862222,31.4437037 33.5654815,35.1902222 31.5512593,37.9605926 C27.0925926,44.0977778 22.8099259,42.1145185 17.7922963,37.9622222 C14.6128889,35.3303704 11.5540741,31.9945185 8.932,28.3555556 C6.28222222,24.6807407 3.35377778,19.2426667 1.628,15.0626667 C-0.739851852,9.33940741 1.1,6.4077037 4.02355556,4.5482963 C7.23555556,2.50637037 12.0462222,1.34933333 15.9394074,0.811555556" id="Fill-1" fill="url(#linearGradient-1)"></path>
                    <path d="M15.8351111,13.8681481 C20.4811852,13.1739259 32.5534815,12.4226667 36.7888889,14.6177778 C38.205037,15.3511111 38.2441481,16.3451852 38.104,17.4712593 C38.5293333,16.706963 38.9432593,15.914963 39.3441481,15.0903704 C40.1980741,13.3254815 40.9868148,11.4008889 41.6924444,9.24162963 C42.4502222,6.72059259 42.1748148,4.48962963 39.7124444,2.84696296 L39.701037,2.84044444 C38.7819259,2.36133333 37.7259259,2.01259259 36.7791111,1.73718519 C33.9842963,0.928888889 30.8896296,0.596444444 27.777037,0.373185185 C26.4912593,0.278666667 25.1468148,0.288444444 23.7844444,0.293333333 C21.3253333,0.301481481 18.625037,0.451407407 15.9377778,0.811555556 C12.936,1.42103704 11.836,2.78177778 11.9435556,4.74059259 C12.0706667,7.08562963 14.2885926,11.2428148 15.8351111,13.8681481" id="Fill-3" fill="url(#linearGradient-2)"></path>
                </g>
            </g>
        </g>
    </g>
</svg>