<?xml version="1.0" encoding="UTF-8"?>
<svg width="80px" height="80px" viewBox="0 0 80 80" version="1.1" xmlns="http://www.w3.org/2000/svg" xmlns:xlink="http://www.w3.org/1999/xlink">
    <!-- Generator: Sketch 51.3 (57544) - http://www.bohemiancoding.com/sketch -->
    <title>Group 7 Copy 2</title>
    <desc>Created with Sketch.</desc>
    <defs>
        <path d="M27.7571278,26.291273 C33.0126127,26.6404117 40.8099452,30.5359542 40.8456408,30.4796222 C41.664127,29.3088786 42.8506944,25.5051744 42.8506944,21.4253472 C42.8506944,9.59245469 33.2582398,0 21.4253472,0 C9.59245469,0 -5.68434189e-14,9.59245469 -5.68434189e-14,21.4253472 C-5.68434189e-14,24.5771639 1.00539196,28.9156088 1.98244232,30.2329634 C1.97266321,30.2393134 8.3138894,27.3363508 15.1872751,25.9849608 C15.175849,25.9846476 15.175849,22.4030064 15.1872751,15.2400371 L27.7571278,15.2401136 C27.7473844,22.6218977 27.7473844,26.3056175 27.7571278,26.291273 Z" id="path-1"></path>
        <radialGradient cx="50%" cy="50%" fx="50%" fy="50%" r="50%" id="radialGradient-3">
            <stop stop-color="#FFFFFF" offset="0%"></stop>
            <stop stop-color="#3F88D2" offset="100%"></stop>
        </radialGradient>
    </defs>
    <g id="Page-1" stroke="none" stroke-width="1" fill="none" fill-rule="evenodd">
        <g id="m7-withdraw-balance-0-1366-copy" transform="translate(-633.000000, -527.000000)">
            <g id="Group-7-Copy-2" transform="translate(633.000000, 527.000000)">
                <g id="Group-8-Copy-8">
                    <rect id="Mask" fill="#F0F2F5" x="0" y="0" width="80" height="80" rx="40"></rect>
                    <g id="Group-23" transform="translate(19.000000, 19.000000)">
                        <g id="#2b81ceff">
                            <path d="M13.7435764,1.50947917 C19.2395139,-0.619618056 25.6193403,-0.380729167 30.9107292,2.23211806 C35.6377431,4.51947917 39.4539931,8.61642361 41.4024306,13.4927431 C43.6166319,18.9394097 43.4135764,25.2878819 40.8903125,30.5942014 C40.5931944,30.449375 40.2945833,30.3060417 39.9989583,30.1656944 C39.9646181,29.6371528 40.4140278,29.2818056 40.5528819,28.8070139 C40.8246181,27.5692708 41.2725347,26.3673611 41.2590972,25.0818403 C41.3277778,25.2834028 41.3964583,25.4834722 41.4711111,25.6865278 C41.5159028,24.5801736 41.7383681,23.4962153 41.8742361,22.4003125 C42.0175694,21.3059028 41.5577083,20.2562847 41.5875694,19.1648611 C41.6114583,17.8494792 40.9724306,16.6625 40.6782986,15.4098264 C40.3811806,14.1138542 39.694375,12.9627083 39.0717708,11.8040972 C38.6940278,11.1561111 38.3655556,10.4737847 37.8982292,9.88253472 C37.0128472,8.82993056 36.200625,7.70416667 35.1435417,6.80833333 C34.1626042,5.99163194 33.2115278,5.12118056 32.1051736,4.47319444 C31.2362153,3.90135417 30.2149653,3.62364583 29.3504861,3.04583333 C28.5845486,2.53819444 27.6349653,2.52027778 26.7958681,2.20225694 C25.9269097,1.87826389 24.9803125,1.94097222 24.0994097,1.68267361 C23.5902778,1.53784722 23.0781597,1.37958333 22.5466319,1.37659722 C21.2028819,1.36017361 19.8546528,1.35569444 18.5228472,1.54979167 C18.7169444,1.6125 18.9125347,1.67371528 19.1111111,1.7334375 C17.5732639,1.76479167 16.0324306,2.00965278 14.5841667,2.53371528 C13.2628125,3.10854167 11.8906944,3.59527778 10.6992361,4.42541667 C9.37489583,5.1465625 8.22822917,6.12899306 7.0546875,7.06364583 C6.35892361,7.65041667 5.71989583,8.30288194 5.11819444,8.98371528 C4.08201389,10.2050347 3.58184028,11.7518403 2.83083333,13.1403819 C1.97232639,14.5886458 1.63190972,16.2653472 1.28253472,17.8897917 C1.209375,17.6986806 1.13621528,17.5075694 1.06753472,17.3164583 C1.23326389,19.1603819 0.945104167,21.0013194 0.880902778,22.84375 C0.852534722,24.3786111 1.14069444,25.8985417 1.58711806,27.3632292 C1.83496528,28.1515625 2.0425,28.9607986 2.42322917,29.6983681 C2.553125,29.9835417 2.92788194,29.9327778 3.1846875,29.9984722 C2.84576389,30.1836111 2.50684028,30.3672569 2.17090278,30.5523958 C-0.538993056,24.8011458 -0.571840278,17.818125 2.23211806,12.09375 C4.53739583,7.27118056 8.75378472,3.41461806 13.7435764,1.50947917 Z" id="Shape" fill="#2B81CE" fill-rule="nonzero"></path>
                            <g id="Oval">
                                <mask id="mask-2" fill="white">
                                    <use xlink:href="#path-1"></use>
                                </mask>
                                <use id="Mask" fill="#D0D0D0" fill-rule="nonzero" xlink:href="#path-1"></use>
                                <circle fill="url(#radialGradient-3)" fill-rule="nonzero" mask="url(#mask-2)" cx="21.4253472" cy="21.4253472" r="21.4253472"></circle>
                            </g>
                        </g>
                        <path d="M3.61170139,33.1697222 C9.62274306,29.9939931 16.4922917,28.4949653 23.2782292,28.7965625 C28.8936111,29.0817361 34.4373264,30.6225694 39.4166667,33.2279514 C36.49625,37.6608333 31.9021181,40.9769097 26.7376389,42.2415278 C20.8311111,43.7480208 14.3019792,42.5714931 9.31965278,39.0523611 C7.06513889,37.4786806 5.11819444,35.4690278 3.61170139,33.1697222 Z" id="Shape" fill="#BC010C" fill-rule="nonzero"></path>
                    </g>
                </g>
            </g>
        </g>
    </g>
</svg>