<?xml version="1.0" encoding="UTF-8"?>
<svg width="80px" height="80px" viewBox="0 0 80 80" version="1.1" xmlns="http://www.w3.org/2000/svg" xmlns:xlink="http://www.w3.org/1999/xlink">
    <!-- Generator: Sketch 49.2 (51160) - http://www.bohemiancoding.com/sketch -->
    <title>_Group_</title>
    <desc>Created with Sketch.</desc>
    <defs></defs>
    <g id="Page-1" stroke="none" stroke-width="1" fill="none" fill-rule="evenodd">
        <g id="m7-withdraw-balance-0-1366-" transform="translate(-741.000000, -402.000000)">
            <g id="_Group_" transform="translate(741.000000, 402.000000)">
                <rect id="Mask" fill="#F0F2F5" x="0" y="0" width="80" height="80" rx="40"></rect>
                <rect id="Rectangle-path" fill="#FF5F00" fill-rule="nonzero" x="32.0854188" y="28.3169533" width="14.18335" height="23.1777232"></rect>
                <path d="M33.5568902,39.9058149 C33.5581259,35.388607 35.6207879,31.1198745 39.1566567,28.3169533 C34.0893003,24.3253314 27.018648,24.1027039 21.7111077,27.7676605 C16.4035675,31.4326171 14.0948989,38.1318425 16.0148878,44.2967809 C17.9348767,50.4617193 23.6364903,54.6569824 30.0825826,54.6478296 C33.375334,54.6501515 36.5725187,53.5391607 39.1566567,51.4946765 C35.6207879,48.6917553 33.5581259,44.4230228 33.5568902,39.9058149 Z" id="_Path_" fill="#EB001B" fill-rule="nonzero"></path>
                <path d="M61.5557224,49.1461916 L61.5557224,48.5617761 L61.7600934,48.5617761 L61.7600934,48.4643735 L61.2696029,48.4643735 L61.2696029,48.5617761 L61.473974,48.5617761 L61.473974,49.1461916 L61.5557224,49.1461916 Z M62.5367034,49.1461916 L62.5367034,48.4643735 L62.3732065,48.4643735 L62.2097097,48.9513865 L62.0462129,48.4643735 L61.882716,48.4643735 L61.882716,49.1461916 L62.0053387,49.1461916 L62.0053387,48.6104774 L62.1688355,49.048789 L62.2914581,49.048789 L62.454955,48.6104774 L62.454955,49.1461916 L62.5367034,49.1461916 Z" id="Shape" fill="#F79E1B" fill-rule="nonzero"></path>
                <path d="M62.9863197,39.9058149 C62.9800588,45.5425211 59.7661153,50.6822425 54.7063126,53.1471579 C49.6465099,55.6120734 43.6266661,54.970651 39.1975309,51.4946765 C42.7343261,48.6925111 44.7971877,44.4232821 44.7971877,39.9058149 C44.7971877,35.3883477 42.7343261,31.1191187 39.1975309,28.3169533 C43.6266661,24.8409789 49.6465099,24.1995565 54.7063126,26.6644719 C59.7661153,29.1293873 62.9800588,34.2691087 62.9863197,39.9058149 Z" id="Shape" fill="#F79E1B" fill-rule="nonzero"></path>
            </g>
        </g>
    </g>
</svg>