<?xml version="1.0" encoding="UTF-8" standalone="no"?>
<svg width="80px" height="80px" viewBox="0 0 80 80" version="1.1" xmlns="http://www.w3.org/2000/svg" xmlns:xlink="http://www.w3.org/1999/xlink">
    <!-- Generator: Sketch 49.2 (51160) - http://www.bohemiancoding.com/sketch -->
    <title>webmoney_r</title>
    <desc>Created with Sketch.</desc>
    <defs></defs>
    <g id="Page-1" stroke="none" stroke-width="1" fill="none" fill-rule="evenodd">
        <g id="m7-withdraw-balance-0-1366" transform="translate(-413.000000, -867.000000)">
            <g id="webmoney_r" transform="translate(413.000000, 867.000000)">
                <g id="Group-8-Copy-6" fill="#F0F2F5">
                    <rect id="Mask" x="0" y="0" width="80" height="80" rx="40"></rect>
                </g>
                <g id="Group-6" transform="translate(20.000000, 20.000000)" fill="#0072B7">
                    <path d="M20.2358025,0.0968508168 C23.3844368,0.0968508168 26.3663525,0.822031313 29.0221148,2.10950684 C29.4393159,2.30520952 29.8553031,2.5205225 30.2725042,2.75824723 L28.4264601,4.3923046 L25.6529426,1.55601643 L20.9718731,5.68538307 L18.1914765,2.68420838 L9.4715279,10.4578872 L15.0618611,16.5510842 L12.8649795,18.4620869 L18.3711441,24.5644888 L16.1872116,26.4710892 L24.0553577,35.1328339 L28.7259061,30.8802026 L32.7639759,35.4373937 C31.9607322,36.0549177 31.0858643,36.6360226 30.1219719,37.1731044 C27.2019687,38.8199685 23.8271313,39.7628632 20.2358025,39.7628632 C9.19110076,39.7628632 0.183036532,30.8525881 0.183036532,19.9304573 C0.183036532,9.00592533 9.19110076,0.0968508168 20.2358025,0.0968508168" id="Fill-2"></path>
                    <polyline id="Fill-3" points="16.5813473 18.6765995 21.3498226 14.4295711 25.6436355 19.1468462 20.8755648 23.3922737 16.5813473 18.6765995"></polyline>
                    <polyline id="Fill-4" points="19.9719663 26.8256752 24.7408462 22.5798475 29.0350638 27.2959219 24.2665885 31.5429503 19.9719663 26.8256752"></polyline>
                    <polyline id="Fill-5" points="13.1692814 10.6227737 17.9377567 6.37694593 22.2303557 11.0930204 17.4618804 15.3388482 13.1692814 10.6227737"></polyline>
                    <polyline id="Fill-6" points="21.9195793 8.33717444 25.4959358 5.15310379 28.7157896 8.69015965 25.1394332 11.8754309 21.9195793 8.33717444"></polyline>
                    <polyline id="Fill-7" points="28.2739045 22.9244282 31.8514749 19.739157 35.0713288 23.2770132 31.4949723 26.4614841 28.2739045 22.9244282"></polyline>
                    <polyline id="Fill-8" points="31.4205155 30.0689769 34.995658 26.8833054 38.2163212 30.4203613 34.6399647 33.6048322 31.4205155 30.0689769"></polyline>
                    <polyline id="Fill-9" points="32.8606889 13.6943853 35.2449265 11.5712713 37.391226 13.9293086 35.0082023 16.0520224 32.8606889 13.6943853"></polyline>
                    <polyline id="Fill-10" points="29.8144328 6.68790909 32.1986704 4.56519532 34.3453745 6.92323256 31.9607322 9.04594633 29.8144328 6.68790909"></polyline>
                    <polyline id="Fill-11" points="35.9089683 20.7004614 38.2932059 18.5773474 40.4399101 20.9349844 38.0556724 23.0580984 35.9089683 20.7004614"></polyline>
                    <polyline id="Fill-12" points="25.2163179 15.4505067 28.7922698 12.2652355 32.0121236 15.8018911 28.4369811 18.986362 25.2163179 15.4505067"></polyline>
                </g>
            </g>
        </g>
    </g>
</svg>
