<?xml version="1.0" encoding="UTF-8"?>
<svg width="50px" height="50px" viewBox="0 0 50 50" version="1.1" xmlns="http://www.w3.org/2000/svg" xmlns:xlink="http://www.w3.org/1999/xlink">
    <desc>Created with Sketch.</desc>
    <defs>
        <path d="M25,50 C11.1928813,50 0,38.8071187 0,25 C0,11.1928813 11.1928813,0 25,0 C38.8071187,0 50,11.1928813 50,25 C50,38.8071187 38.8071187,50 25,50 Z M25.0017832,45.5472383 C36.3487247,45.5472383 45.5472383,36.3487247 45.5472383,25.0017832 C45.5472383,13.6548416 36.3487247,4.45632799 25.0017832,4.45632799 C13.6548416,4.45632799 4.45632799,13.6548416 4.45632799,25.0017832 C4.45632799,36.3487247 13.6548416,45.5472383 25.0017832,45.5472383 Z" id="path-1"></path>
    </defs>
    <g id="Page-1" stroke="none" stroke-width="1" fill="none" fill-rule="evenodd">
        <g id="popup_buy_success_update-copy-2" transform="translate(-488.000000, -1099.000000)">
            <g id="load-copy-2" transform="translate(488.000000, 1099.000000)">
                <mask id="mask-2" fill="white">
                    <use xlink:href="#path-1"></use>
                </mask>
                <use id="Combined-Shape" fill="#D8D8D8" opacity="0.75" xlink:href="#path-1"></use>
                <polygon id="Oval-20" fill="#4982FF" mask="url(#mask-2)" points="3.78787879 28.7878788 25.7575758 6.43274854 25.7575758 -15.1515152 -18.1818182 28.7878788"></polygon>
            </g>
        </g>
    </g>
</svg>