<svg width="19px" height="24px" viewBox="0 0 19 24" version="1.1" xmlns="http://www.w3.org/2000/svg" xmlns:xlink="http://www.w3.org/1999/xlink">
    <desc>Created with Sketch.</desc>
    <defs></defs>
    <g stroke="none" stroke-width="1" fill="none" fill-rule="evenodd">
        <g id="≤1200-(1140)-Process---Card" transform="translate(-631.000000, -610.000000)">
            <g id="Group" transform="translate(631.000000, 610.000000)">
                <g id="Page-1">
                    <path d="M9.10344828,0 C9.10344828,0 6.34468966,3.31034483 0,3.31034483 L0,11.2075862 C0,15.3314483 1.79089655,19.3084138 5.03337931,21.8565517 C6.18082759,22.7586207 7.53434483,23.5344828 9.10344828,24 C10.6725517,23.5344828 12.0256552,22.7586207 13.1735172,21.8565517 C16.416,19.3084138 18.2068966,15.3314483 18.2068966,11.2075862 L18.2068966,3.31034483 C11.8622069,3.31034483 9.10344828,0 9.10344828,0" id="Fill-1" fill="#556080"></path>
                    <path d="M9.10344828,21.3770069 C8.22496552,21.0323172 7.37462069,20.5390759 6.56772414,19.9043172 C4.00965517,17.8945241 2.48275862,14.6433517 2.48275862,11.2076276 L2.48275862,5.63921379 C5.54110345,5.2490069 7.71268966,4.18514483 9.10344828,3.24004138 C10.4942069,4.18514483 12.6657931,5.2490069 15.7241379,5.63921379 L15.7241379,11.2076276 C15.7241379,14.6433517 14.1972414,17.8945241 11.6395862,19.9043172 C10.8322759,20.5390759 9.98193103,21.0323172 9.10344828,21.3770069" id="Fill-3" fill="#1BCA58"></path>
                    <path d="M14.3417379,8.37848276 C14.1696,8.22786207 13.9084966,8.24565517 13.7578759,8.41737931 L8.25566897,14.7049655 L5.25815172,11.7074483 C5.09635862,11.5456552 4.83484138,11.5456552 4.67304828,11.7074483 C4.51125517,11.8692414 4.51125517,12.1307586 4.67304828,12.2925517 L7.9833931,15.6028966 C8.06118621,15.6802759 8.16628966,15.7241379 8.27594483,15.7241379 L8.2896,15.7241379 C8.40422069,15.7204138 8.5118069,15.6691034 8.58711724,15.5830345 L14.3802207,8.96234483 C14.5308414,8.7902069 14.5134621,8.52868966 14.3417379,8.37848276" id="Fill-5" fill="#FFFFFF"></path>
                </g>
            </g>
        </g>
    </g>
</svg>