<?xml version="1.0" encoding="UTF-8"?>
<svg width="52px" height="52px" viewBox="0 0 52 52" version="1.1" xmlns="http://www.w3.org/2000/svg" xmlns:xlink="http://www.w3.org/1999/xlink">
    <!-- Generator: Sketch 51.3 (57544) - http://www.bohemiancoding.com/sketch -->
    <title>acb</title>
    <desc>Created with Sketch.</desc>
    <defs></defs>
    <g id="acb" stroke="none" stroke-width="1" fill="none" fill-rule="evenodd">
        <rect id="Rectangle" fill="#0071BC" fill-rule="nonzero" x="0" y="0" width="52" height="52" rx="4"></rect>
        <g id="Asia_Commercial_Bank_logo" transform="translate(10.000000, 13.000000)" fill="#FFFFFF">
            <g id="Group-27">
                <path d="M25.4944578,9.30049388 L25.4944578,4.5843493 L27.4838554,4.60555412 C28.3204819,4.61085533 28.4380684,5.98049388 28.3609639,7.87013243 C28.3431325,8.32410834 28.1551807,8.80748183 27.8395181,9.30049388 L30.7272251,9.30049388 C31.0424096,7.98965051 31.1084337,6.46868665 31.0424096,4.75591557 C30.9759036,3.13374705 30.1146988,0.303867547 28.5012048,0.309168752 L22.6457831,0.287000077 L22.6457831,9.30049388 L25.4944578,9.30049388 Z" id="path3579"></path>
                <path d="M28.1942169,15.1231445 C28.5792771,15.6590481 28.8105986,16.5115782 28.7850602,17.7289276 C28.7715663,18.3838674 28.066988,19.7713373 27.4024096,19.7713373 L25.4506024,19.7713373 L25.4506024,15.1231445 L22.6457831,15.1231445 L22.6457831,14.8638674 L22.6457831,23.9472409 L28.0795181,23.9472409 C30.6086747,23.9472409 32.3763855,20.9149517 31.1595181,15.1231445 L28.1942169,15.1231445 Z" id="path3581"></path>
                <path d="M31.0896386,14.9032574 C31.0785542,14.8476324 31.0655422,14.7663824 31.0453012,14.6701324 L22.6289118,14.6701324 L22.6289118,14.9032574 L31.0896386,14.9032574 Z" id="path3583"></path>
                <path d="M30.9633735,14.44514 C30.9445783,14.38889 30.9185542,14.30889 30.9012048,14.213265 L22.6163855,14.213265 L22.6163855,14.44514 L30.9633735,14.44514 Z" id="path3585"></path>
                <path d="M30.8144578,13.9910586 C30.7971084,13.9148086 30.7648193,13.8360586 30.7537349,13.7554336 L22.6313253,13.7554336 L22.6313253,13.9910586 L30.8144578,13.9910586 Z" id="path3587"></path>
                <path d="M30.6746988,13.5318493 C30.6438554,13.4574743 30.6303614,13.3762243 30.6,13.3043493 L22.6559036,13.3043493 L22.6559036,13.5318493 L30.6746988,13.5318493 Z" id="path3589"></path>
                <path d="M30.4645783,13.080268 C30.4506024,12.999018 30.420241,12.920893 30.3903614,12.846518 L22.6419239,12.846518 L22.6419239,13.080268 L30.4645783,13.080268 Z" id="path3591"></path>
                <path d="M30.2462651,12.588649 C30.2019277,12.508649 30.1706024,12.433024 30.1412048,12.353024 L22.6289118,12.353024 L22.6289118,12.588649 L30.2462651,12.588649 Z" id="path3593"></path>
                <path d="M29.9518072,12.1308704 C29.9093976,12.0508704 29.8486747,11.9771204 29.8028916,11.8971204 L22.620241,11.8971204 L22.620241,12.1308704 L29.9518072,12.1308704 Z" id="path3595"></path>
                <path d="M29.9431325,11.6742891 C29.9749398,11.6167891 30.0014458,11.5374141 30.0303614,11.4392891 L22.6371084,11.4392891 L22.6371084,11.6742891 L29.9431325,11.6742891 Z" id="path3597"></path>
                <path d="M30.1363855,11.2150797 C30.1677108,11.1582047 30.1937349,11.0832047 30.2106024,10.9882047 L22.6255422,10.9882047 L22.6255422,11.2150797 L30.1363855,11.2150797 Z" id="path3599"></path>
                <path d="M30.3498795,10.7630165 C30.3778313,10.6848915 30.3942169,10.6055165 30.4077108,10.5298915 L22.6419239,10.5298915 L22.6419239,10.7630165 L30.3498795,10.7630165 Z" id="path3601"></path>
                <path d="M30.5050602,10.306774 C30.5306024,10.226774 30.546506,10.151774 30.5604819,10.073024 L22.6313253,10.073024 L22.6313253,10.306774 L30.5050602,10.306774 Z" id="path3603"></path>
                <path d="M30.6568675,9.81395773 C30.6703614,9.73458273 30.686747,9.66145773 30.7007229,9.58145773 L22.6371084,9.58145773 L22.6371084,9.81395773 L30.6568675,9.81395773 Z" id="path3605"></path>
                <path d="M15.3681928,15.1616987 C16.1677108,18.7236264 17.5551807,19.9963975 20.8457793,18.346277 L20.8457793,23.4701324 C19.4216867,24.9274818 16.7546988,24.3896505 15.5768675,23.1771204 C13.7281928,21.273024 12.9363855,18.6272409 12.4978313,15.1616987 L15.3681928,15.1616987 Z" id="path3607"></path>
                <path d="M15.293494,9.63543363 L12.4414458,9.63543363 C12.4414458,9.53471074 12.4414458,9.42145773 12.4631325,9.36507219 L15.3503614,9.36507219 C16.1677108,5.31736134 18.1638554,4.16218062 20.8457793,5.8643493 L20.8891566,0.805072341 L20.7489157,0.697120534 C17.466988,-0.864325249 15.3412048,0.236397662 13.9060241,3.60651812 C13.2159036,5.23495171 12.6679518,7.15928905 12.4414458,9.36507219 L12.4414458,9.63543363 L15.293494,9.63543363 Z" id="path3609"></path>
                <path d="M15.3021687,14.9437394 C15.3021687,14.8643644 15.2833735,14.7912394 15.2833735,14.7106144 L12.4462651,14.7106144 C12.4573494,14.8068644 12.4573494,14.8874894 12.4751807,14.9437394 L15.3021687,14.9437394 Z" id="path3611"></path>
                <path d="M15.2428916,14.4887996 C15.2318072,14.4087996 15.2318072,14.3356746 15.2318072,14.2556746 L12.4072289,14.2556746 C12.419759,14.3525496 12.419759,14.4319246 12.419759,14.4887996 L15.2428916,14.4887996 Z" id="path3613"></path>
                <path d="M15.2,14.0338598 C15.2,13.9582348 15.1836145,13.8807348 15.1836145,13.8007348 L12.3575904,13.8007348 C12.3754217,13.8976098 12.3754217,13.9776098 12.3754217,14.0338598 L15.2,14.0338598 Z" id="path3615"></path>
                <path d="M15.1918072,13.5767213 C15.1918072,13.5042213 15.180241,13.4235963 15.180241,13.3510963 L12.366747,13.3510963 C12.366747,13.4479713 12.3840964,13.5204713 12.3840964,13.5767213 L15.1918072,13.5767213 Z" id="path3617"></path>
                <polygon id="path3619" points="15.1484337 12.8951927 12.340241 12.8951927 12.340241 13.1276927 15.1484337 13.1276927"></polygon>
                <polygon id="path3621" points="15.153253 12.4041083 12.326747 12.4041083 12.326747 12.6391083 15.153253 12.6391083"></polygon>
                <polygon id="path3623" points="15.1436145 11.9506144 12.3190361 11.9506144 12.3190361 12.1831144 15.1436145 12.1831144"></polygon>
                <path d="M15.1484337,11.7284607 C15.1624096,11.6553357 15.1624096,11.5747107 15.1624096,11.4947107 L12.3209639,11.4947107 L12.3209639,11.7284607 L15.1484337,11.7284607 Z" id="path3625"></path>
                <path d="M15.1624096,11.2719472 C15.1624096,11.1975722 15.1624096,11.1188222 15.1749398,11.0450722 L12.3209639,11.0450722 C12.3209639,11.1188222 12.3209639,11.1975722 12.3050602,11.2719472 L15.1624096,11.2719472 Z" id="path3627"></path>
                <path d="M15.2106024,10.8211867 C15.2106024,10.7436867 15.226506,10.6636867 15.226506,10.5886867 L12.3575904,10.5886867 C12.340241,10.6636867 12.340241,10.7436867 12.340241,10.8211867 L15.2106024,10.8211867 Z" id="path3629"></path>
                <path d="M15.2428916,10.3674969 C15.2428916,10.2862469 15.2631325,10.2137469 15.2631325,10.1337469 L12.3754217,10.1337469 C12.3754217,10.2137469 12.3754217,10.2862469 12.3614458,10.3674969 L15.2428916,10.3674969 Z" id="path3631"></path>
                <path d="M15.306506,9.87646527 C15.3185542,9.79709027 15.3185542,9.72396527 15.3185542,9.64459027 L12.4221687,9.64459027 C12.4221687,9.72396527 12.4221687,9.79709027 12.4091566,9.87646527 L15.306506,9.87646527 Z" id="path3633"></path>
                <polygon id="path3635" points="1.50168675 15.1616987 4.46795181 15.1616987 3.02216867 23.9472409 0 23.9472409"></polygon>
                <polygon id="path3637" points="4.50698795 14.9033854 1.55710843 14.9033854 4.52337349 14.9033854"></polygon>
                <polygon id="path3639" points="7.70072289 15.1616987 10.5484337 15.1616987 12.220241 23.9472409 9.43325301 23.9472409"></polygon>
                <path d="M10.4925301,14.9033854 L7.68337349,14.9033854 L10.4925301,14.9033854 Z" id="path3641"></path>
                <polygon id="path3643" points="9.60481928 9.36507219 6.76433735 9.36507219 6.11614458 5.69326496 5.47710843 9.36507219 2.6260241 9.36507219 4.25783133 0.272060318 8.00144578 0.272060318"></polygon>
                <polygon id="path3645" points="10.5142169 14.9437394 10.4824096 14.7106144 1.55710843 14.7106144 1.52819277 14.9437394"></polygon>
                <polygon id="path3647" points="10.4443373 14.4887996 10.4144578 14.2556746 1.64963855 14.2556746 1.61783133 14.4887996"></polygon>
                <polygon id="path3649" points="10.339759 14.0338598 10.3084337 13.8007348 1.73783133 13.8007348 1.69349398 14.0338598"></polygon>
                <polygon id="path3651" points="10.3016867 13.5767213 10.2742169 13.3510963 1.85108434 13.3510963 1.82457831 13.5767213"></polygon>
                <polygon id="path3653" points="10.1980723 13.1276927 10.1681928 12.8951927 1.91228916 12.8951927 1.88144578 13.1276927"></polygon>
                <polygon id="path3655" points="10.1286747 12.6391083 10.0978313 12.4041083 2.00289157 12.4041083 1.9773494 12.6391083"></polygon>
                <polygon id="path3657" points="10.0592771 12.1831144 10.0279518 11.9506144 2.10024096 11.9506144 2.06843373 12.1831144"></polygon>
                <polygon id="path3659" points="9.98843373 11.7284607 9.95807229 11.4947107 2.17975904 11.4947107 2.13445783 11.7284607"></polygon>
                <polygon id="path3661" points="9.88289157 11.2719472 9.85204819 11.0450722 2.23662651 11.0450722 2.2053012 11.2719472"></polygon>
                <polygon id="path3663" points="9.81445783 10.8211867 9.78313253 10.5886867 2.36289157 10.5886867 2.33108434 10.8211867"></polygon>
                <polygon id="path3665" points="9.74457831 10.3674969 9.71373494 10.1337469 2.45349398 10.1337469 2.42361446 10.3674969"></polygon>
                <polygon id="path3667" points="9.70698795 9.87646527 9.67759036 9.64459027 2.56385542 9.64459027 2.53156627 9.86021527 5.41638554 9.86021527 5.41638554 9.87646527 6.85590361 9.87646527 6.84192771 9.86021527 6.85590361 9.87646527 9.70698795 9.87646527 9.69590361 9.86021527 6.84192771 9.86021527 9.69590361 9.86021527"></polygon>
                <polygon id="path3669" points="2.53156627 9.82710533 5.41638554 9.82710533 5.41638554 9.81085533 2.53156627 9.81085533"></polygon>
                <path d="M2.52048193,9.82338545 L2.53485693,9.82338545 L2.52048193,9.82338545 Z" id="path3671"></path>
            </g>
        </g>
    </g>
</svg>