<?xml version="1.0" encoding="UTF-8"?>
<svg width="52px" height="52px" viewBox="0 0 52 52" version="1.1" xmlns="http://www.w3.org/2000/svg" xmlns:xlink="http://www.w3.org/1999/xlink">
    <!-- Generator: Sketch 51.3 (57544) - http://www.bohemiancoding.com/sketch -->
    <title>ambankgroup</title>
    <desc>Created with Sketch.</desc>
    <defs></defs>
    <g id="ambankgroup" stroke="none" stroke-width="1" fill="none" fill-rule="evenodd">
        <rect id="Rectangle" fill="#ED1C24" fill-rule="nonzero" x="0" y="0" width="52" height="52" rx="4"></rect>
        <g id="Group-40" transform="translate(26.000000, 25.852941) scale(1, -1) translate(-26.000000, -25.852941) translate(7.000000, 14.352941)">
            <path d="M14.6153846,8.40384615 C13.8206731,7.48307692 12.6496154,6.90120192 11.3369712,6.90120192 C8.95100962,6.90120192 7.018125,8.83317308 7.018125,11.2191346 C7.018125,13.6041827 8.95100962,15.5370673 11.3369712,15.5370673 C13.7229327,15.5370673 15.6576442,13.6041827 15.6576442,11.2191346 L15.6576442,0.217403846 L22.3469231,0.217403846 L22.3414423,11.1734615 C22.3414423,17.2525481 17.4151442,22.1779327 11.3369712,22.1779327 C5.26153846,22.1779327 0.335240385,17.2525481 0.335240385,11.1734615 C0.335240385,5.09620192 5.26153846,0.170817308 11.3369712,0.170817308 C12.4760577,0.170817308 13.5758654,0.343461538 14.6099038,0.666826923 L14.6153846,8.40384615 Z" id="path204" fill="#FFFFFF" fill-rule="nonzero"></path>
            <path d="M25.4324135,0.263442308 C25.9092404,0.200413462 26.3979423,0.167528846 26.8893846,0.167528846 C32.9666442,0.167528846 37.8920288,5.09382692 37.8920288,11.1692596 C37.8920288,17.2474327 32.9666442,22.1746442 26.8893846,22.1746442 C24.232125,22.1746442 21.7895288,21.2292115 19.885875,19.6571442 L19.8986635,19.6324808 C21.5556827,17.9480577 22.7176058,15.7776731 23.1515,13.3560865 L23.1679423,13.3624808 C23.9197212,14.6376731 25.3054423,15.4890192 26.8893846,15.4890192 C29.2771731,15.4890192 31.2100577,13.5561346 31.2100577,11.1692596 C31.2100577,8.78695192 29.2771731,6.85041346 26.8893846,6.85041346 C26.3769327,6.85041346 25.8845769,6.94084615 25.4241923,7.10709615 L25.4324135,0.263442308 Z" id="path212" fill="#FFFFFF" fill-rule="nonzero"></path>
            <path d="M14.6153846,8.40384615 C13.8206731,7.48307692 12.6496154,6.90120192 11.3369712,6.90120192 C8.95100962,6.90120192 7.018125,8.83317308 7.018125,11.2191346 C7.018125,13.6041827 8.95100962,15.5370673 11.3369712,15.5370673 C13.7229327,15.5370673 15.6576442,13.6041827 15.6576442,11.2191346 L15.6576442,0.217403846 L22.3469231,0.217403846 L22.3414423,11.1734615 C22.3414423,17.2525481 17.4151442,22.1779327 11.3369712,22.1779327 C5.26153846,22.1779327 0.335240385,17.2525481 0.335240385,11.1734615 C0.335240385,5.09620192 5.26153846,0.170817308 11.3369712,0.170817308 C12.4760577,0.170817308 13.5758654,0.343461538 14.6099038,0.666826923 L14.6153846,8.40384615 Z" id="path208" stroke="#FFFFFF" stroke-width="0.5"></path>
            <path d="M25.4324135,0.263442308 C25.9092404,0.200413462 26.3979423,0.167528846 26.8893846,0.167528846 C32.9666442,0.167528846 37.8920288,5.09382692 37.8920288,11.1692596 C37.8920288,17.2474327 32.9666442,22.1746442 26.8893846,22.1746442 C24.232125,22.1746442 21.7895288,21.2292115 19.885875,19.6571442 L19.8986635,19.6324808 C21.5556827,17.9480577 22.7176058,15.7776731 23.1515,13.3560865 L23.1679423,13.3624808 C23.9197212,14.6376731 25.3054423,15.4890192 26.8893846,15.4890192 C29.2771731,15.4890192 31.2100577,13.5561346 31.2100577,11.1692596 C31.2100577,8.78695192 29.2771731,6.85041346 26.8893846,6.85041346 C26.3769327,6.85041346 25.8845769,6.94084615 25.4241923,7.10709615 L25.4324135,0.263442308 Z" id="path216" stroke="#FFFFFF" stroke-width="0.5"></path>
        </g>
    </g>
</svg>