<?xml version="1.0" encoding="UTF-8"?>
<svg width="52px" height="52px" viewBox="0 0 52 52" version="1.1" xmlns="http://www.w3.org/2000/svg" xmlns:xlink="http://www.w3.org/1999/xlink">
    <!-- Generator: Sketch 51.3 (57544) - http://www.bohemiancoding.com/sketch -->
    <title>Artboard Copy 25</title>
    <desc>Created with Sketch.</desc>
    <defs></defs>
    <g id="Artboard-Copy-25" stroke="none" stroke-width="1" fill="none" fill-rule="evenodd">
        <rect id="Rectangle" fill="#1F4396" fill-rule="nonzero" x="0" y="0" width="52" height="52" rx="4"></rect>
        <g id="Group-28" transform="translate(13.000000, 9.000000)" fill="#FFFFFF" fill-rule="nonzero">
            <path d="M24.8843763,17.9207837 C24.5769646,16.7583485 24.1323744,15.8978159 23.4150803,14.5833276 C23.1809405,14.2103567 22.878487,13.7938634 22.6085376,13.3520278 C19.4897957,8.72762935 13.3366022,0.657244149 12.7735648,0.13883112 C12.7735648,0.13883112 12.7350006,0.109081594 12.7035984,0.109081594 C12.6683397,0.109081594 12.6292245,0.13883112 12.6292245,0.13883112 C12.0694927,0.656693232 5.91464643,8.72762935 2.79480266,13.3520278 C2.52540417,13.7944143 2.22295066,14.2109077 1.98660721,14.5833276 C1.27041493,15.8978159 0.827477546,16.7583485 0.51841303,17.9207837 C0.136076534,19.5994282 0.116794434,21.6868533 0.46442315,23.4029602 C0.77844592,24.9091676 2.20972865,26.4478792 3.64927514,27.5970923 L5.85239279,29.3468052 C5.85239279,29.3468052 12.0099937,33.7866464 12.5818457,34.0670633 C12.5818457,34.0670633 12.6385901,34.1045256 12.7030474,34.1045256 C12.765852,34.1045256 12.8203928,34.0670633 12.8203928,34.0670633 C13.3944485,33.7860955 19.5481929,29.3468052 19.5481929,29.3468052 L21.7513106,27.5970923 C23.1925098,26.4478792 24.6221398,24.9091676 24.9356116,23.4029602 C25.2837913,21.6868533 25.2678147,19.5994282 24.8843763,17.9207837 M10.7731847,29.501062 C10.7296622,29.567172 10.6299462,29.5462372 10.558327,29.5396262 C10.1985781,29.2867552 9.30664326,28.6410803 9.30664326,28.6410803 C7.77344086,27.5045383 6.22701645,26.455592 4.75716951,25.2870968 C2.50171474,22.8046641 2.73034535,20.3277407 3.42174636,17.838697 C3.44653763,17.6783801 3.52091145,17.4354257 3.73301455,17.3919032 C4.36877293,18.3301151 5.71741809,20.2627324 5.71741809,20.2627324 C7.02970272,22.1490727 8.62350601,23.849203 10.1302644,25.6204016 C11.1648868,26.5707337 10.7467407,28.1667407 10.7731847,29.501062 M12.7052511,24.5791682 C12.6743997,24.5780664 12.6248172,24.5571316 12.5779892,24.5086509 C10.6260898,22.1970025 8.41195383,19.5834516 6.46941999,17.2624377 C6.11793485,16.6740582 5.75983871,16.1088172 5.71962176,15.3507552 C5.69648324,14.7590702 5.65957179,14.2142132 6.14933713,13.4726787 C6.14933713,13.4726787 6.47272549,13.0027464 6.56527957,12.8644662 C6.56527957,12.8644662 10.545105,7.26769892 12.6407938,4.61558381 C12.6407938,4.61558381 12.6683397,4.57922328 12.7035984,4.57922328 C12.7333479,4.57922328 12.7597919,4.61558381 12.7597919,4.61558381 C14.8554807,7.26714801 18.8342043,12.8644662 18.8342043,12.8644662 C18.9284111,13.0027464 19.2523504,13.4726787 19.2523504,13.4726787 C19.740463,14.2147641 19.7035515,14.7590702 19.6776584,15.3507552 C19.6390942,16.1088172 19.2793454,16.6735073 18.9300639,17.2624377 C16.9864282,19.5834516 14.7733941,22.1970025 12.8231474,24.5086509 C12.7763194,24.5571316 12.7294915,24.5780664 12.7052511,24.5791682 M20.6334997,25.2870968 C19.1636528,26.455592 17.6150247,27.5039873 16.0812713,28.6410803 C16.0812713,28.6410803 15.1909892,29.2867552 14.8301385,29.5396262 C14.7585193,29.5462372 14.6588033,29.567172 14.6169336,29.501062 C14.6439285,28.1667407 14.2246806,26.5712846 15.2604048,25.6209526 C16.7671632,23.849754 18.3598646,22.1496237 19.6715984,20.2632834 C19.6715984,20.2632834 21.0202435,18.330666 21.6565528,17.3924541 C21.8653504,17.4354257 21.941377,17.6789311 21.9667192,17.8392479 C22.6614257,20.3277407 22.8878526,22.8052151 20.6334997,25.2870968" id="Shape"></path>
        </g>
    </g>
</svg>