<?xml version="1.0" encoding="UTF-8"?>
<svg width="52px" height="52px" viewBox="0 0 52 52" version="1.1" xmlns="http://www.w3.org/2000/svg" xmlns:xlink="http://www.w3.org/1999/xlink">
    <!-- Generator: Sketch 52.2 (67145) - http://www.bohemiancoding.com/sketch -->
    <title>BCA</title>
    <desc>Created with Sketch.</desc>
    <g id="BCA" stroke="none" stroke-width="1" fill="none" fill-rule="evenodd">
        <rect id="Rectangle" fill="#0060AF" fill-rule="nonzero" x="0" y="0" width="52" height="52" rx="4"></rect>
        <g id="Group-12" transform="translate(5.000000, 5.000000)" fill="#FFFFFF" fill-rule="nonzero">
            <path d="M19.6990346,41.4871955 C19.6990346,39.0805859 19.7251639,32.6479323 19.6658421,31.8553701 C19.7175575,22.2833944 12.7579702,15.5312332 8.36121131,16.057612 C5.31880791,16.3216376 2.76904768,17.5621982 1.39999485,21.1310208 C0.131101926,24.4570054 1.26553618,28.8809836 5.48429486,29.9190831 C9.99536824,31.0339369 12.6295044,31.9615194 14.5358376,33.2701277 C16.8716656,34.8721836 18.7785441,37.9330675 18.829169,41.4909911" id="path20"></path>
            <path d="M17.8139293,41.4909911 C17.8286297,38.4061395 16.10683,35.678375 13.8564647,34.2124183 C11.8603145,32.9168554 9.18045159,32.0654646 4.85718088,30.9691453 C3.52078512,30.6273039 2.12288,29.8679264 1.69011721,28.9000498 C0.545337376,30.0535254 0.337394945,32.6468341 0.53880523,34.1623252 C0.77288087,35.9162404 2.82237954,38.8067691 5.90832872,38.9200181 C7.7928878,38.9956588 10.1755323,38.514437 11.3181352,38.2716972 C13.2892485,37.8459825 16.407859,39.0805859 16.904311,41.4871955" id="path24"></path>
            <path d="M21.292908,1.13954446 C16.0605613,1.13954446 11.5407761,4.59021471 11.5571065,10.5612407 C11.5734445,15.5823899 15.6114685,18.270417 17.0523767,20.1903737 C19.2297967,23.0835958 20.4083285,26.5081367 20.5308082,31.7481187 C20.6260699,35.9184368 20.6211704,40.0364595 20.6424003,41.4958848 L21.7975251,41.4958848 C21.7773973,39.9689686 21.7251232,35.5972626 21.7849826,31.6191058 C21.8633687,26.3774919 23.0843603,23.0835958 25.2628707,20.1903737 C26.7163003,18.270417 30.7510624,15.5823899 30.7597747,10.5612407 C30.7793708,4.59021471 26.262308,1.13954446 21.0343136,1.13954446" id="path26"></path>
            <path d="M22.6211335,41.4871955 C22.6211335,39.0805859 22.5939021,32.6479323 22.6521624,31.8553701 C22.6009941,22.2833944 29.5562252,15.5312332 33.9567945,16.057612 C36.9991979,16.3216376 39.5462379,17.5621982 40.9191041,21.1310208 C42.1869077,24.4570054 41.0459361,28.8809836 36.8320814,29.9190831 C32.3188276,31.0339369 29.6879567,31.9615194 27.7767259,33.2701277 C25.4436164,34.8721836 23.6701052,37.9330675 23.6156713,41.4909911" id="path28"></path>
            <path d="M24.5051502,41.4909911 C24.4888122,38.4061395 26.2100724,35.678375 28.4539063,34.2124183 C30.4582217,32.9168554 33.1413513,32.0654646 37.460812,30.9691453 C38.7999271,30.6273039 40.1961984,29.8679264 40.6213389,28.9000498 C41.7715662,30.0535254 41.9789653,32.6468341 41.7775504,34.1623252 C41.5385791,35.9162404 39.4945225,38.8067691 36.4140155,38.9200181 C34.5300007,38.9956588 32.1348374,38.514437 30.9971334,38.2716972 C29.0336439,37.8459825 25.9063211,39.0805859 25.40769,41.4871955" id="path30"></path>
        </g>
    </g>
</svg>