<?xml version="1.0" encoding="UTF-8"?>
<svg width="52px" height="52px" viewBox="0 0 52 52" version="1.1" xmlns="http://www.w3.org/2000/svg" xmlns:xlink="http://www.w3.org/1999/xlink">
    <!-- Generator: Sketch 51.3 (57544) - http://www.bohemiancoding.com/sketch -->
    <title>BNI</title>
    <desc>Created with Sketch.</desc>
    <defs>
        <rect id="path-1" x="0" y="0" width="52" height="52" rx="4"></rect>
    </defs>
    <g id="BNI" stroke="none" stroke-width="1" fill="none" fill-rule="evenodd">
        <g id="Group-14">
            <mask id="mask-2" fill="white">
                <use xlink:href="#path-1"></use>
            </mask>
            <use id="Mask" fill="#FFFFFF" fill-rule="nonzero" xlink:href="#path-1"></use>
            <g mask="url(#mask-2)" fill="#F15A23">
                <polygon id="path3242" points="0.702865727 19.5109491 16.5409888 39.4901204 0.702865727 52.6142771"></polygon>
                <polygon id="path3244" points="7.07717104 52.6142771 18.9945714 42.6447249 27.2315958 52.6142771"></polygon>
                <path d="M0.702865727,8.8203432 L4.83602838,14.0486238 L21.8300274,35.2839771 L27.3367358,30.8988925 C27.3367358,30.8988925 22.765183,25.516801 19.6955933,19.5109491 C13.694184,7.76880984 17.9430348,0.458133363 17.9430348,0.458133363 L0.702865727,0.458133363 L0.702865727,8.8203432 Z" id="path3248"></path>
                <path d="M24.252247,38.5621843 L29.8604331,33.9298953 C29.8604331,33.9298953 35.2166469,40.9805799 41.4273232,42.6447249 C49.5660181,44.8254827 53.1694646,39.4901204 53.1694646,39.4901204 L53.1694646,52.6142771 L35.2933666,52.6142771 L39.324252,49.1291896 C39.324252,49.1291896 37.221182,50.5312367 32.0777052,46.9685504 C29.0419433,44.8657925 24.252247,38.5621843 24.252247,38.5621843 Z" id="path3250"></path>
                <path d="M24.7678336,0.41989218 C24.7678336,0.41989218 22.9787398,2.85709201 24.252247,8.8203432 C25.6134525,15.1942451 31.0269784,21.9403078 31.0143923,21.7892782 C31.0143923,21.7892782 31.3624336,15.0907402 35.2933666,11.1598072 C43.6721992,2.78097424 53.1694646,7.76880984 53.1694646,7.76880984 L53.1694646,0.458133363 L24.7678336,0.41989218 Z" id="path3262"></path>
                <path d="M53.1694646,16.6018248 C53.1694646,16.6018248 47.8707145,12.0631733 43.2639362,12.0631733 C37.3708755,12.0631733 34.1542021,17.1508632 34.1542021,20.8414377 C34.1542021,26.2170273 36.7344367,29.2039767 39.324252,31.7937921 C43.0459785,35.5155207 47.5737328,39.5295148 53.1694646,36.2988181 C53.1694646,30.1843395 53.1694646,16.6018248 53.1694646,16.6018248 Z" id="path3298"></path>
            </g>
        </g>
    </g>
</svg>