<?xml version="1.0" encoding="UTF-8"?>
<svg width="52px" height="52px" viewBox="0 0 52 52" version="1.1" xmlns="http://www.w3.org/2000/svg" xmlns:xlink="http://www.w3.org/1999/xlink">
    <!-- Generator: Sketch 51.3 (57544) - http://www.bohemiancoding.com/sketch -->
    <title>dongabank</title>
    <desc>Created with Sketch.</desc>
    <defs></defs>
    <g id="dongabank" stroke="none" stroke-width="1" fill="none" fill-rule="evenodd">
        <rect id="Rectangle" fill="#024582" fill-rule="nonzero" x="0" y="0" width="52" height="52" rx="4"></rect>
        <g id="Group-44" transform="translate(10.500000, 10.000000)" fill-rule="nonzero">
            <path d="M15.9129027,0.474551953 L15.9509317,0.476320741 C16.3303367,0.475436347 16.7185857,0.508158928 17.0891469,0.409106791 C17.5242687,0.36134951 17.9753097,0.500199381 18.3794778,0.645240011 C19.3027852,0.893754748 20.1031619,1.42615999 20.9459895,1.85597551 L20.8840819,1.90550158 C20.7691106,1.99659417 20.657677,2.09210873 20.5462433,2.1867389 C20.4188906,2.12571571 20.2915378,2.06380812 20.1641851,2.00101614 C19.9032888,2.19292966 19.7122597,2.46886061 19.4221784,2.62274518 C19.2373401,2.72710368 19.0701896,2.8588784 18.9039235,2.98976872 C18.7429638,3.1277342 18.5121369,3.07555495 18.3211078,3.13215617 C18.1716452,3.23474588 18.0637491,3.38686167 17.9080958,3.48237623 C17.8205408,3.47264789 17.7356389,3.44965365 17.6507371,3.43019698 C17.2333031,3.72116263 16.7557303,3.88919751 16.2808107,4.05634799 C15.7413303,4.05546359 15.2239597,3.85293735 14.6844793,3.84144023 C14.044178,3.83259628 13.3826513,3.79368295 12.7759569,4.03512253 C12.8387489,3.70347475 13.1482868,3.50006411 13.3127841,3.22059558 C13.7036863,2.72533489 14.1414614,2.27075633 14.5597798,1.79937429 C14.9568727,1.39962816 15.3610408,1.00695719 15.7669777,0.615170612 C15.7890876,0.540881509 15.8377292,0.494008623 15.9129027,0.474551953 Z" id="Shape" fill="#E24E00"></path>
            <path d="M15.0444277,0.811506098 C15.267295,0.720413508 15.5308445,0.477205135 15.7669777,0.615170612 C15.3610408,1.00695719 14.9568727,1.39962816 14.5597798,1.79937429 C14.3466408,1.89577324 14.1423458,2.00897569 13.9477791,2.13898162 C13.9044438,2.04523584 13.8611085,1.95149007 13.8177731,1.8577443 C13.9548542,1.74719504 14.0928197,1.63753017 14.2316696,1.52963409 C13.9760797,1.52432773 13.7072239,1.49602712 13.4746282,1.62337987 C12.8378645,1.86305066 12.232939,2.18054814 11.5988284,2.42464091 C11.7031869,2.19381405 11.9932682,2.16551344 12.190488,2.04346706 C12.8325581,1.67555912 13.5250387,1.4084721 14.1909875,1.09274342 C14.4421554,0.899061113 14.7950286,1.00784158 15.0444277,0.811506098 Z" id="Shape" fill="#FBD890"></path>
            <path d="M13.4746282,1.62337987 C13.7072239,1.49602712 13.9760797,1.52432773 14.2316696,1.52963409 C14.0928197,1.63753017 13.9548542,1.74719504 13.8177731,1.8577443 C13.8611085,1.95149007 13.9044438,2.04523584 13.9477791,2.13898162 C14.1423458,2.00897569 14.3466408,1.89577324 14.5597798,1.79937429 C14.1414614,2.27075633 13.7036863,2.72533489 13.3127841,3.22059558 C13.0828417,3.21528922 12.8670495,3.29665347 12.650373,3.36209863 C12.4045114,3.35325469 12.3664825,3.05875146 12.2550488,2.89248537 C12.0242219,2.88187265 11.8048922,2.81554309 11.5873313,2.74390717 C11.4086837,2.75982626 11.2848685,2.92167038 11.1380591,3.01364736 C10.9850589,3.00391903 10.8320587,2.99153751 10.6790585,2.98623115 C10.7055904,2.95262417 10.7577696,2.88452583 10.783417,2.85003446 C11.0681919,2.73241005 11.3096315,2.5298838 11.5988284,2.42464091 C12.232939,2.18054814 12.8378645,1.86305066 13.4746282,1.62337987 Z" id="Shape" fill="#FDC771"></path>
            <path d="M20.5462433,2.1867389 C20.657677,2.09210873 20.7691106,1.99659417 20.8840819,1.90550158 C21.3483888,2.07795842 21.730447,2.45913227 22.1487654,2.73329444 C22.4698005,3.02602888 22.8377084,3.26658407 23.1295584,3.59204109 C22.9765583,3.6212261 22.8394772,3.53809306 22.7023961,3.4867982 C22.7306967,3.6512955 22.7979107,3.80341128 22.8845813,3.94491433 C22.7881823,4.01566586 22.6740955,4.05369481 22.5573555,4.07403587 C22.1133896,4.12356194 21.8047361,4.50562018 21.3590015,4.55956822 C21.3209725,4.64800763 21.2847124,4.73644704 21.2475678,4.82488645 C20.8398622,4.94781722 20.4852201,5.18483484 20.1765666,5.4740317 C20.2287459,5.59607809 20.2818095,5.71900886 20.3348731,5.84193964 C20.0907804,5.71016492 19.8351905,5.57219945 19.5513,5.6685984 C18.5722757,4.99911208 17.493315,4.46582245 16.3453714,4.15451573 C16.3294523,4.1297527 16.2967298,4.08111102 16.2808107,4.05634799 C16.7557303,3.88919751 17.2333031,3.72116263 17.6507371,3.43019698 C17.7356389,3.44965365 17.8205408,3.47264789 17.9080958,3.48237623 C18.0637491,3.38686167 18.1716452,3.23474588 18.3211078,3.13215617 C18.5121369,3.07555495 18.7429638,3.1277342 18.9039235,2.98976872 C19.0701896,2.8588784 19.2373401,2.72710368 19.4221784,2.62274518 C19.7122597,2.46886061 19.9032888,2.19292966 20.1641851,2.00101614 C20.2915378,2.06380812 20.4188906,2.12571571 20.5462433,2.1867389 Z" id="Shape" fill="#ED6200"></path>
            <path d="M11.1380591,3.01364736 C11.2848685,2.92167038 11.4086837,2.75982626 11.5873313,2.74390717 C11.8048922,2.81554309 12.0242219,2.88187265 12.2550488,2.89248537 C12.3664825,3.05875146 12.4045114,3.35325469 12.650373,3.36209863 C12.8670495,3.29665347 13.0828417,3.21528922 13.3127841,3.22059558 C13.1482868,3.50006411 12.8387489,3.70347475 12.7759569,4.03512253 C12.5009104,4.13948103 12.4637658,4.47112881 12.2568176,4.65154521 C12.0799388,4.79658583 12.0985111,5.05306012 11.9446265,5.21136666 C11.6961117,5.49525716 11.5448804,5.84459282 11.3290882,6.15147757 C11.3609264,5.87377783 11.4626317,5.61111279 11.505967,5.33518183 C11.3432385,5.41831488 11.1831632,5.50321671 11.0222035,5.58811854 C11.0195503,5.4899508 11.0186659,5.39089866 11.0168971,5.29273092 C10.9735618,5.26354591 10.8860068,5.2051759 10.8417871,5.1751065 C10.8470934,4.92924495 10.9434924,4.64535445 10.7710355,4.43486866 C10.6949776,4.57460292 10.6825961,4.81338932 10.4818387,4.82930842 C10.22448,4.89298479 10.0927053,4.62855096 9.91847964,4.49766064 C9.76105749,4.45432532 9.5947914,4.46759124 9.43471607,4.43752184 C9.29409741,4.34023849 9.29409741,4.143903 9.24014938,3.99620919 C9.23218983,3.84144023 9.42321895,3.83790265 9.51608033,3.76538233 C9.90609812,3.51067684 10.2660465,3.20025452 10.6790585,2.98623115 C10.8320587,2.99153751 10.9850589,3.00391903 11.1380591,3.01364736 Z" id="Shape" fill="#FDB854"></path>
            <path d="M22.7023961,3.4867982 C22.8394772,3.53809306 22.9765583,3.6212261 23.1295584,3.59204109 C23.1445931,3.59204109 23.1746625,3.59027231 23.1905816,3.58938791 C23.263102,3.78307022 23.4886224,3.8299431 23.6106688,3.98471207 C23.9874207,4.38534259 24.4296177,4.73644704 24.7426933,5.18837241 C24.3721321,5.09374225 24.1015075,5.43865594 23.7955072,5.58369657 C23.5850214,5.76853493 23.2745991,5.64383537 23.0614601,5.81717661 C22.6988585,6.05154104 22.3698639,6.35046624 21.9515455,6.48577853 C21.642892,6.56802718 21.6278573,6.94654785 21.5288052,7.19860016 C21.6888805,7.06859423 21.8206552,6.90409693 22.0037248,6.80327601 C21.9904589,6.92001603 22.0665168,7.0889353 21.9497767,7.17206834 C21.8100425,7.25697017 21.6543891,7.30826503 21.5031577,7.36398186 C21.4730883,7.36309746 21.4138339,7.36044428 21.3837645,7.35867549 C20.8752379,6.69449554 20.2128268,6.17270303 19.5513,5.6685984 C19.8351905,5.57219945 20.0907804,5.71016492 20.3348731,5.84193964 C20.2818095,5.71900886 20.2287459,5.59607809 20.1765666,5.4740317 C20.4852201,5.18483484 20.8398622,4.94781722 21.2475678,4.82488645 C21.2847124,4.73644704 21.3209725,4.64800763 21.3590015,4.55956822 C21.8047361,4.50562018 22.1133896,4.12356194 22.5573555,4.07403587 C22.6740955,4.05369481 22.7881823,4.01566586 22.8845813,3.94491433 C22.7979107,3.80341128 22.7306967,3.6512955 22.7023961,3.4867982 Z" id="Shape" fill="#F97300"></path>
            <path d="M23.8459177,14.1499377 L23.875987,14.1755851 C23.884831,14.6160133 23.8591836,15.0590948 23.9202068,15.4977542 C23.9936115,15.1130428 23.9546981,14.7159499 24.0572878,14.3365448 C24.1050451,14.3807645 24.2014441,14.4692039 24.2492014,14.5134236 C24.3199529,14.8132332 24.181103,15.0988925 24.1598776,15.3951645 C24.127155,16.0690728 23.9900739,16.7438655 24.0811665,17.4186582 C24.181103,17.5884618 24.3570974,17.7352713 24.3252592,17.9537166 C24.3137621,19.2528915 24.3305656,20.5529508 24.3252592,21.8530101 C24.3190685,22.2271088 24.3862824,22.622433 24.210288,22.9699998 C24.1076983,23.1910984 24.0564034,23.5837693 24.3491379,23.6792839 C24.5180572,23.686359 24.686092,23.6554053 24.8541269,23.636833 C24.4623403,24.1771978 24.0174901,24.6786492 23.5293046,25.1341122 C23.1932348,25.5099796 22.7917199,25.8177488 22.3778235,26.1016393 C22.2999968,26.1264023 22.2221701,26.150281 22.143459,26.1732752 C22.1823724,26.0883734 22.2221701,26.0034715 22.2619678,25.9194541 C22.0373318,25.99109 21.8091581,26.0529976 21.5774468,26.0954485 C21.6614643,26.0061247 21.7366378,25.903535 21.8409963,25.8372055 C21.9488923,25.8257083 22.0576728,25.840743 22.1655689,25.8433962 C22.123118,25.7717603 22.0806671,25.7001244 22.0391005,25.6284885 C22.1213492,25.611685 22.2035978,25.5957659 22.2867309,25.5798468 C22.1788348,25.3782049 21.9993028,25.1924822 22.0178751,24.9492738 C22.035563,24.1506659 22.0276034,23.3520581 22.0258346,22.5543346 C22.0143375,22.3031667 22.2115574,22.1024092 22.2071354,21.8530101 C22.2080198,21.4249634 22.1974071,20.9960322 22.2601991,20.5715231 C22.3238754,20.3849159 22.1089677,20.3106268 22.0001872,20.2124591 C23.1941192,18.4365958 24.0121837,16.3193563 23.8459177,14.1499377 Z" id="Shape" fill="#F97300"></path>
            <path d="M7.82600324,5.1751065 C8.23636209,4.71964355 8.75461702,4.36588592 9.24014938,3.99620919 C9.29409741,4.143903 9.29409741,4.34023849 9.43471607,4.43752184 C9.5947914,4.46759124 9.76105749,4.45432532 9.91847964,4.49766064 C10.0927053,4.62855096 10.22448,4.89298479 10.4818387,4.82930842 C10.6825961,4.81338932 10.6949776,4.57460292 10.7710355,4.43486866 C10.9434924,4.64535445 10.8470934,4.92924495 10.8417871,5.1751065 C10.8860068,5.2051759 10.9735618,5.26354591 11.0168971,5.29273092 C11.0186659,5.39089866 11.0195503,5.4899508 11.0222035,5.58811854 C11.1831632,5.50321671 11.3432385,5.41831488 11.505967,5.33518183 C11.4626317,5.61111279 11.3609264,5.87377783 11.3290882,6.15147757 C11.1079897,6.4751658 11.0381225,6.88817784 10.7400817,7.15968682 C10.7330066,7.28615518 10.7259314,7.41173914 10.7179719,7.53820749 C10.5950411,7.51256006 10.4721103,7.48602824 10.3491796,7.45861202 C10.3182258,7.33745003 10.2925783,7.21540365 10.2448211,7.10043242 C10.1068556,7.0137618 9.94058949,6.99076755 9.79466447,6.92090042 C9.65935217,6.79443207 9.58948504,6.60340295 9.43560047,6.49727566 C9.27375635,6.53353581 9.07034571,6.74225282 8.94033978,6.54503294 C8.53970926,6.12494575 8.1152001,5.50321671 7.44836696,5.61995673 C7.48462712,5.78622281 7.61463305,5.94718254 7.55714744,6.12140817 C7.38822817,6.03473755 7.22019329,5.94541375 7.05304281,5.85697434 C7.31128588,5.63056945 7.51469652,5.33429744 7.82600324,5.1751065 Z" id="Shape" fill="#FEA93D"></path>
            <path d="M23.7955072,5.58369657 C24.1015075,5.43865594 24.3721321,5.09374225 24.7426933,5.18837241 L24.840861,5.20429151 C24.899231,5.42804321 25.1132544,5.54655202 25.2503355,5.71812447 C25.8526078,6.46809065 26.485834,7.21363486 26.9651756,8.04584969 C26.9598692,8.17408684 26.9386438,8.30232398 26.8731986,8.41464203 C26.7122389,8.21476896 26.5671982,8.00162999 26.3973946,7.80883208 C26.3540593,7.89638709 26.310724,7.98394211 26.2673886,8.07149712 C26.3089552,8.08564743 26.3920882,8.11483243 26.4336547,8.12898274 C26.3514061,8.3297402 26.2753482,8.53226644 26.2054811,8.73744587 C25.7641684,8.79846906 25.3184338,8.73833026 24.8762368,8.778128 C24.8629708,9.0018797 24.8479361,9.2256314 24.8320171,9.44849871 C24.3765541,9.49890917 23.918438,9.44230795 23.4620906,9.48475887 C23.4461715,9.70674178 23.429368,9.9287247 23.4125646,10.151592 C22.9464889,10.1347885 22.5308237,10.385072 22.0674012,10.3877252 C22.0276034,10.5743324 21.9807305,10.7591707 21.9188229,10.9395871 C21.9356264,10.9678877 21.9674646,11.024489 21.9833837,11.0527896 C21.7180655,11.0669399 21.4102963,11.0094543 21.196273,11.2066741 C20.9866716,11.3808998 20.7478852,11.5224028 20.4675323,11.5259404 C20.5188271,11.4286571 20.5710064,11.3322581 20.62407,11.2358592 C20.4675323,11.0925873 20.2720812,10.9210149 20.0474451,11.0280265 C20.1500348,11.1067376 20.2552777,11.1836799 20.3605206,11.2615066 C20.1960233,11.5082525 19.9386646,11.2721193 19.7237568,11.2500095 C19.5477624,11.2880384 19.3814963,11.3596743 19.2134614,11.4215819 C18.6890158,11.2137493 18.1513042,11.04483 17.605633,10.9042114 C16.9467594,10.7688991 16.2914234,10.5787543 15.6148619,10.569026 C15.8545327,10.360309 16.1808741,10.3408523 16.4718398,10.2506441 C16.1428452,10.14717 15.7988159,10.1153318 15.4609774,10.0569618 C15.6431625,10.001245 15.8297697,9.96498485 16.0137237,9.91545879 C16.294961,9.83586332 16.4966028,9.56700752 16.79995,9.55285721 C17.1262914,9.52986297 17.455286,9.54843524 17.7816274,9.51925024 C17.542841,9.4944872 17.3031702,9.47679932 17.0643838,9.45380507 C17.3535807,9.24685686 17.7329858,9.14780472 17.8904079,8.79581588 C18.4608421,8.79050951 18.8490911,8.35185005 19.2983633,8.07238152 C19.7467511,8.01666469 20.2145955,8.04761848 20.6373359,7.85393618 C20.6355671,7.70270479 20.6346827,7.5514734 20.6346827,7.40112641 C21.0441572,7.55412658 21.3926085,7.81679163 21.7490193,8.06265318 C21.8339211,8.11837001 21.9241293,8.1652429 22.0134531,8.21300018 C22.0169907,7.85570497 21.6959556,7.62841569 21.5031577,7.36398186 C21.6543891,7.30826503 21.8100425,7.25697017 21.9497767,7.17206834 C22.0665168,7.0889353 21.9904589,6.92001603 22.0037248,6.80327601 C21.8206552,6.90409693 21.6888805,7.06859423 21.5288052,7.19860016 C21.6278573,6.94654785 21.642892,6.56802718 21.9515455,6.48577853 C22.3698639,6.35046624 22.6988585,6.05154104 23.0614601,5.81717661 C23.2745991,5.64383537 23.5850214,5.76853493 23.7955072,5.58369657 Z" id="Shape" fill="#FF7F00"></path>
            <path d="M8.91292357,11.4003565 C9.07034571,11.291576 9.22599907,11.1819111 9.38165243,11.0713619 C9.33566394,11.2968823 9.30205696,11.5259404 9.29055984,11.7567673 C9.33301075,11.7709176 9.41968137,11.800987 9.46301668,11.8160217 C9.33920151,11.88412 9.24280256,11.9875941 9.16320709,12.1025654 C9.07123011,12.6632712 9.07034571,13.2319366 8.98986585,13.7944112 C8.85190037,16.1292116 9.18443255,18.5153068 10.132503,20.6643845 C10.0299133,20.6838411 9.92820797,20.7041822 9.82650265,20.7245233 C9.81588992,20.6962227 9.79554886,20.638737 9.78582052,20.6104364 C9.76194188,20.5485288 9.715069,20.4238293 9.69207475,20.3619217 C9.52492427,20.4530143 9.4762826,20.6351995 9.43206289,20.8058875 C9.39580273,20.7077198 9.36219576,20.6077832 9.32770439,20.5096155 C9.08184283,20.4990028 8.82802173,20.4574363 8.64141458,20.2832106 C8.46807334,20.1107538 8.22221179,20.0948347 8.00022887,20.0329271 C7.64735563,19.8878865 7.38999695,19.5854237 7.05215842,19.41562 C6.82044717,19.3678627 6.58166076,19.3599032 6.3526027,19.3015332 C6.25089738,19.0627468 6.24647541,18.735521 5.99000112,18.6037463 C5.75209911,18.4763935 5.590255,18.2606013 5.43194846,18.0492312 C5.41249179,18.2137285 5.39303512,18.3782258 5.37446284,18.5427231 C5.25683843,18.5489138 5.13921401,18.555989 5.0215896,18.5621797 C4.95526005,17.8803119 4.99771096,17.1931377 4.98002308,16.5095011 C4.96764156,16.5307265 4.94199413,16.5740618 4.92961262,16.5961717 C4.83409806,16.7509407 4.73239274,16.9048252 4.67667591,17.0790509 C4.57497059,17.4036235 4.47680285,17.7308493 4.33972176,18.0430404 C4.21679099,17.8820807 4.07617233,17.7326181 3.97446701,17.5557393 C3.95058837,17.3726697 3.96916064,17.1816406 3.88956518,17.0100681 C3.73921818,17.3558662 3.34124084,17.2771551 3.03966246,17.2347042 C2.95564502,17.1135422 2.89550623,16.9667328 2.77434424,16.8765246 C2.5558989,16.7818944 2.32241886,16.7244088 2.10308913,16.6315474 C2.08893882,16.5103855 2.07832609,16.3883391 2.04383473,16.2707147 C1.87137788,16.2114603 1.65647012,16.2388765 1.52204222,16.0956046 C1.46897857,15.9903617 1.44333114,15.8745061 1.40707099,15.7639569 C1.14086837,15.7896043 1.15501867,16.0726104 1.1205273,16.2742522 C1.06304169,16.1230209 1.00378728,15.9726739 0.94453288,15.8223269 L0.921538634,15.7621881 C1.17712852,15.1776036 1.30625006,14.543493 1.60429087,13.9765964 C1.70864937,13.5326306 2.02084048,13.170029 2.10927989,12.72341 C2.13227413,12.7172192 2.17737823,12.7048377 2.19948808,12.698647 C2.56385845,13.0311791 3.15109612,13.1594163 3.29259917,13.6935903 C3.86657093,13.7563823 4.44496466,13.6670585 5.01805203,13.7351568 C5.03220233,13.9288391 5.04635264,14.1225214 5.05961855,14.3170881 C5.24357252,14.489545 5.41691376,14.6788053 5.63359031,14.81058 C5.86087959,14.8831003 6.10674114,14.8547997 6.34287436,14.877794 C6.56751046,15.2695806 7.05038963,15.0882798 7.41829757,15.1386902 C7.54653471,15.2457019 7.63320533,15.4535345 7.81450611,15.4668004 C7.85430385,15.3571356 7.89056401,15.2465863 7.92505537,15.1360371 C7.99846008,15.6003439 7.92947735,16.0726104 7.97546584,16.5395705 C8.00995721,16.5324953 8.07805555,16.5192294 8.11254692,16.5130386 C8.17445451,15.9638299 8.22840255,15.4128524 8.30711362,14.8654125 C8.31861074,14.4868918 8.40970333,14.0791861 8.24785921,13.7210065 C8.23724649,13.2788095 8.31153559,12.8410344 8.36459923,12.4032593 C8.39289984,12.1255596 8.55120639,11.8903108 8.70774414,11.6692123 C8.76434536,11.6647903 8.82094658,11.6612527 8.8775478,11.6577151 C8.88904492,11.5719289 8.90142644,11.4861427 8.91292357,11.4003565 Z" id="Shape" fill="#FF7F00"></path>
            <path d="M20.9689837,21.5098652 C21.3430824,21.1030439 21.676499,20.6599625 22.0001872,20.2124591 C22.1089677,20.3106268 22.3238754,20.3849159 22.2601991,20.5715231 C22.1974071,20.9960322 22.2080198,21.4249634 22.2071354,21.8530101 C22.2115574,22.1024092 22.0143375,22.3031667 22.0258346,22.5543346 C22.0276034,23.3520581 22.035563,24.1506659 22.0178751,24.9492738 C21.9993028,25.1924822 22.1788348,25.3782049 22.2867309,25.5798468 C22.2035978,25.5957659 22.1213492,25.611685 22.0391005,25.6284885 C22.0806671,25.7001244 22.123118,25.7717603 22.1655689,25.8433962 C22.0576728,25.840743 21.9488923,25.8257083 21.8409963,25.8372055 C21.7366378,25.903535 21.6614643,26.0061247 21.5774468,26.0954485 C21.8091581,26.0529976 22.0373318,25.99109 22.2619678,25.9194541 C22.2221701,26.0034715 22.1823724,26.0883734 22.143459,26.1732752 C22.2221701,26.150281 22.2999968,26.1264023 22.3778235,26.1016393 C22.0656324,26.3510384 21.7277938,26.5659462 21.366961,26.7357498 C21.1449781,26.8577962 20.9318391,26.9966461 20.7054343,27.1098485 C21.0653827,27.1461087 21.4182559,27.0612069 21.7711291,27.0046056 C21.7941234,27.1841376 21.7941234,27.3795887 21.9064414,27.5325889 C21.9497767,27.5803462 21.905557,27.6413694 21.9064414,27.6962018 C21.9833837,27.8606991 22.0222971,28.0375779 22.0214127,28.2197631 C22.0107999,28.4435148 22.1540718,28.6274688 22.206251,28.8370702 C22.2548927,29.1200763 22.0178751,29.3473656 22.0187595,29.6250653 C22.0125687,30.0062392 22.0727075,30.4006789 21.9188229,30.7632805 C21.9373952,30.8057314 21.9736554,30.8915176 21.9922277,30.9348529 C21.9984184,30.9516564 22.0116843,30.984379 22.0187595,31.0002981 C21.3351229,31.071934 20.6682897,31.2815354 19.9749248,31.2868418 L19.9068264,31.3399054 C19.6353174,31.3673217 19.3576177,31.3460962 19.095837,31.430998 C18.5988076,31.4716802 18.0947029,31.4203853 17.6038642,31.5203218 C17.042274,31.5035183 16.474493,31.5654259 15.9190935,31.4672582 C15.5007751,31.4460327 15.0798035,31.4663738 14.6641383,31.4195009 C14.3059587,31.3107204 13.9327444,31.3690904 13.568374,31.3761656 L13.5506861,31.2921482 C13.869068,31.3363679 14.1909875,31.339021 14.5120225,31.3602465 C14.795913,31.406235 15.0019768,31.1515295 15.2690638,31.1064254 C15.5962896,31.0489398 15.9323594,31.0958127 16.2604696,31.0392115 C16.2976142,31.0020669 16.373672,30.9277778 16.411701,30.8906332 C16.8671639,30.7447082 17.3641934,30.892402 17.8090436,30.7208296 C17.4853554,30.6695347 17.1572452,30.6704191 16.8300194,30.6624596 C16.804372,29.2757296 16.8176379,27.8863465 16.829135,26.4987322 C16.9635629,26.471316 17.0979908,26.4447842 17.2324187,26.4191368 C17.2943263,26.0476912 17.2483378,25.6718238 17.2607193,25.2986095 C17.2439158,25.1137711 17.4039912,24.9952623 17.5030433,24.8626032 C17.3403148,24.8794067 17.1784707,24.8944414 17.0157422,24.9094761 C16.9662161,24.864372 16.8689327,24.7759326 16.8202911,24.7308285 C17.5401878,24.3779552 18.2105586,23.9366426 18.8499755,23.4546478 C19.5910977,22.8479535 20.3667113,22.263369 20.9689837,21.5098652 Z" id="Shape" fill="#FF7F00"></path>
            <path d="M7.44836696,5.61995673 C8.1152001,5.50321671 8.53970926,6.12494575 8.94033978,6.54503294 C9.07034571,6.74225282 9.27375635,6.53353581 9.43560047,6.49727566 C9.58948504,6.60340295 9.65935217,6.79443207 9.79466447,6.92090042 C9.94058949,6.99076755 10.1068556,7.0137618 10.2448211,7.10043242 C10.2925783,7.21540365 10.3182258,7.33745003 10.3491796,7.45861202 C10.4721103,7.48602824 10.5950411,7.51256006 10.7179719,7.53820749 C10.617151,7.61338099 10.5136769,7.69474524 10.4703415,7.81767602 C10.3023067,8.21034699 10.1431157,8.60567115 9.97773404,8.99922652 C9.90609812,9.05494334 9.83357781,9.10889138 9.76105749,9.16283942 C9.73452567,9.09827865 9.70887824,9.03460228 9.68411521,8.97092591 C9.62397641,9.08235956 9.5656064,9.19467761 9.50635199,9.30699566 C9.4762826,9.18760246 9.4453288,9.06820925 9.4152594,8.94970045 C9.39403395,9.05582774 9.37369288,9.16195503 9.35246742,9.26896671 C9.14198163,8.99745773 8.91115478,8.72506435 8.60692321,8.55526069 C8.37698075,8.50661901 8.14173193,8.49954386 7.91002068,8.47212764 C7.88260446,8.3438905 7.85607264,8.21653775 7.82865642,8.08830061 C7.64735563,8.07061273 7.46340166,8.06088439 7.28475406,8.02108666 C7.11583479,7.83978587 7.07869024,7.52847916 6.80629686,7.45065248 C6.53301909,7.36132867 6.32872406,7.16853076 6.19341176,6.91913163 C6.08020932,6.99961149 5.96700688,7.07920696 5.85557322,7.16234001 C5.94755021,6.9085189 6.18456782,6.73429327 6.39151604,6.57333355 C6.56308849,6.29474941 6.83813505,6.10018271 7.05304281,5.85697434 C7.22019329,5.94541375 7.38822817,6.03473755 7.55714744,6.12140817 C7.61463305,5.94718254 7.48462712,5.78622281 7.44836696,5.61995673 Z" id="Shape" fill="#FD9D2B"></path>
            <path d="M14.8321732,6.37788245 C15.3265495,6.24964531 15.8492264,6.3407379 16.3559842,6.31862805 C17.8311535,6.41148943 19.3054384,6.73694645 20.6346827,7.40112641 C20.6346827,7.5514734 20.6355671,7.70270479 20.6373359,7.85393618 C20.2145955,8.04761848 19.7467511,8.01666469 19.2983633,8.07238152 C18.8490911,8.35185005 18.4608421,8.79050951 17.8904079,8.79581588 C17.7329858,9.14780472 17.3535807,9.24685686 17.0643838,9.45380507 C17.3031702,9.47679932 17.542841,9.4944872 17.7816274,9.51925024 C17.455286,9.54843524 17.1262914,9.52986297 16.79995,9.55285721 C16.4966028,9.56700752 16.294961,9.83586332 16.0137237,9.91545879 C15.8297697,9.96498485 15.6431625,10.001245 15.4609774,10.0569618 C15.7988159,10.1153318 16.1428452,10.14717 16.4718398,10.2506441 C16.1808741,10.3408523 15.8545327,10.360309 15.6148619,10.569026 C15.0099364,10.564604 14.4058952,10.4399045 13.8018541,10.5389566 C12.7688818,10.5575289 11.7624413,10.8325754 10.7869546,11.1491885 C10.3527171,11.3862061 9.88133509,11.5498191 9.46301668,11.8160217 C9.41968137,11.800987 9.33301075,11.7709176 9.29055984,11.7567673 C9.30205696,11.5259404 9.33566394,11.2968823 9.38165243,11.0713619 C9.47805138,10.515078 9.64697065,9.97559758 9.86099402,9.45380507 C9.90344494,9.59265495 9.9087513,9.79164361 10.0803238,9.83674771 C10.3544859,9.79694998 10.6047694,9.66959723 10.8409027,9.52897857 C10.8179084,9.4953716 10.7719199,9.42815765 10.7480413,9.39455067 C11.2512615,9.15841745 11.8225801,9.00718606 12.2011008,8.57471736 C12.4460779,8.4340987 12.7529627,8.4040293 12.9572577,8.19000593 C13.247339,7.88754315 13.6974956,7.84332345 13.9919988,7.54970461 C14.2139817,7.27642684 14.5933868,7.39139807 14.8985027,7.33125928 C14.9347629,7.23220714 14.971023,7.1340394 15.0072832,7.03498726 C15.1717805,6.94035709 15.4822028,6.96423573 15.5007751,6.72810251 C15.3902258,6.55741445 15.1196012,6.6396631 14.941838,6.59102143 C15.3017864,6.53884218 15.7112609,6.67680765 16.0349491,6.48047217 C15.6343186,6.43271489 15.2283817,6.4601311 14.8321732,6.37788245 Z" id="Shape" fill="#F67000"></path>
            <path d="M10.7179719,7.53820749 C11.9623144,6.81123556 13.4021079,6.45924671 14.8321732,6.37788245 C15.2283817,6.4601311 15.6343186,6.43271489 16.0349491,6.48047217 C15.7112609,6.67680765 15.3017864,6.53884218 14.941838,6.59102143 C15.1196012,6.6396631 15.3902258,6.55741445 15.5007751,6.72810251 C15.4822028,6.96423573 15.1717805,6.94035709 15.0072832,7.03498726 C14.971023,7.1340394 14.9347629,7.23220714 14.8985027,7.33125928 C14.5933868,7.39139807 14.2139817,7.27642684 13.9919988,7.54970461 C13.6974956,7.84332345 13.247339,7.88754315 12.9572577,8.19000593 C12.7529627,8.4040293 12.4460779,8.4340987 12.2011008,8.57471736 C11.8225801,9.00718606 11.2512615,9.15841745 10.7480413,9.39455067 C10.7719199,9.42815765 10.8179084,9.4953716 10.8409027,9.52897857 C10.6047694,9.66959723 10.3544859,9.79694998 10.0803238,9.83674771 C9.9087513,9.79164361 9.90344494,9.59265495 9.86099402,9.45380507 C9.90079176,9.30257369 9.93705191,9.14957351 9.97773404,8.99922652 C10.1431157,8.60567115 10.3023067,8.21034699 10.4703415,7.81767602 C10.5136769,7.69474524 10.617151,7.61338099 10.7179719,7.53820749 Z" id="Shape" fill="#ED6100"></path>
            <path d="M5.85557322,7.16234001 C5.96700688,7.07920696 6.08020932,6.99961149 6.19341176,6.91913163 C6.32872406,7.16853076 6.53301909,7.36132867 6.80629686,7.45065248 C7.07869024,7.52847916 7.11583479,7.83978587 7.28475406,8.02108666 C7.46340166,8.06088439 7.64735563,8.07061273 7.82865642,8.08830061 C7.85607264,8.21653775 7.88260446,8.3438905 7.91002068,8.47212764 C8.14173193,8.49954386 8.37698075,8.50661901 8.60692321,8.55526069 C8.91115478,8.72506435 9.14198163,8.99745773 9.35246742,9.26896671 C9.37369288,9.16195503 9.39403395,9.05582774 9.4152594,8.94970045 C9.4453288,9.06820925 9.4762826,9.18760246 9.50635199,9.30699566 C9.5656064,9.19467761 9.62397641,9.08235956 9.68411521,8.97092591 C9.70887824,9.03460228 9.73452567,9.09827865 9.76105749,9.16283942 C9.83357781,9.10889138 9.90609812,9.05494334 9.97773404,8.99922652 C9.93705191,9.14957351 9.90079176,9.30257369 9.86099402,9.45380507 C9.64697065,9.97559758 9.47805138,10.515078 9.38165243,11.0713619 C9.22599907,11.1819111 9.07034571,11.291576 8.91292357,11.4003565 C8.90142644,11.4861427 8.88904492,11.5719289 8.8775478,11.6577151 C8.82094658,11.6612527 8.76434536,11.6647903 8.70774414,11.6692123 C8.55120639,11.8903108 8.39289984,12.1255596 8.36459923,12.4032593 C8.31153559,12.8410344 8.23724649,13.2788095 8.24785921,13.7210065 C8.03383585,13.5149427 8.12846601,13.1983296 8.08778389,12.9356646 C8.04444858,12.5465312 8.070096,12.1547446 8.05948328,11.7647268 C8.0709804,11.6391429 7.95512477,11.5675069 7.88260446,11.4870271 C7.85961021,11.7549985 7.84899748,12.0238543 7.84103794,12.2918257 C7.63939609,12.3086292 7.44836696,12.2440684 7.26618178,12.1671261 C7.02562659,12.305976 6.74792685,12.3086292 6.47995544,12.2785598 C6.45961438,11.9752126 6.49675893,11.6639059 6.42512301,11.3676339 C6.19429616,11.1527261 5.94755021,10.9555062 5.73706441,10.7202574 C5.59644576,10.5256907 5.33997147,10.6415463 5.14275159,10.6327024 C4.93580338,10.6627718 4.74388986,10.5389566 4.53959483,10.5531069 C4.31053676,10.63624 4.15399901,10.8564541 3.90548427,10.9015582 C3.93555367,10.5469162 4.24597599,10.3611934 4.46265254,10.122407 C4.64660651,9.93049348 4.47414966,9.67490359 4.44938663,9.45645826 C4.55374513,9.44319235 4.65898803,9.42992643 4.76334653,9.41666052 C4.74654304,9.18229609 4.71116728,8.9275906 4.49360633,8.79404709 C4.91634671,8.22626609 5.33024314,7.6407972 5.85557322,7.16234001 Z" id="Shape" fill="#FE9019"></path>
            <path d="M21.3837645,7.35867549 C21.4138339,7.36044428 21.4730883,7.36309746 21.5031577,7.36398186 C21.6959556,7.62841569 22.0169907,7.85570497 22.0134531,8.21300018 C21.9241293,8.1652429 21.8339211,8.11837001 21.7490193,8.06265318 C21.6950712,8.0148959 21.642892,7.96625423 21.5907127,7.91672816 C21.6322793,7.89108073 21.7162967,7.84067027 21.7578632,7.81502284 C21.6243197,7.66998221 21.4987358,7.51875082 21.3837645,7.35867549 Z" id="Shape" fill="#F3B158"></path>
            <path d="M26.2673886,8.07149712 C26.310724,7.98394211 26.3540593,7.89638709 26.3973946,7.80883208 C26.5671982,8.00162999 26.7122389,8.21476896 26.8731986,8.41464203 C26.9386438,8.30232398 26.9598692,8.17408684 26.9651756,8.04584969 C27.14117,8.11394804 27.1217133,8.34477489 27.2641008,8.46063052 C27.4321357,8.77282163 27.713373,9.05317455 27.7452112,9.41577613 C27.7770493,9.42108249 27.8416101,9.43257962 27.8734483,9.43788598 C27.9742692,9.7942968 28.2864603,10.0702277 28.3554431,10.4345981 C28.2855759,10.6813441 28.1051596,10.8608761 27.9539282,11.0572115 C27.8725639,11.3198766 27.859298,11.5975763 27.8097719,11.8673165 C27.4206385,11.9654843 27.0261988,12.0486173 26.6229151,12.0495017 C26.4937935,12.0583456 26.2576603,12.0751491 26.2859609,12.2573343 C26.4248108,12.2944789 26.5671982,12.3210107 26.7087013,12.3501957 C26.631759,12.7145661 26.2382036,12.7039533 25.9463536,12.6729995 C25.8393419,12.7720517 25.7332146,12.8719882 25.6279717,12.9710403 C25.5757925,12.8976356 25.5227288,12.8233465 25.471434,12.7499418 C24.9337224,13.1090058 24.3615194,13.4521507 23.9706172,13.980134 C23.7999292,13.8474749 23.6301255,13.6599833 23.3886859,13.7263129 C23.1799689,13.6723648 23.0446566,13.4937172 22.8739686,13.3760928 C21.7437129,12.573063 20.5205959,11.8903108 19.2134614,11.4215819 C19.3814963,11.3596743 19.5477624,11.2880384 19.7237568,11.2500095 C19.9386646,11.2721193 20.1960233,11.5082525 20.3605206,11.2615066 C20.2552777,11.1836799 20.1500348,11.1067376 20.0474451,11.0280265 C20.2720812,10.9210149 20.4675323,11.0925873 20.62407,11.2358592 C20.5710064,11.3322581 20.5188271,11.4286571 20.4675323,11.5259404 C20.7478852,11.5224028 20.9866716,11.3808998 21.196273,11.2066741 C21.4102963,11.0094543 21.7180655,11.0669399 21.9833837,11.0527896 C21.9674646,11.024489 21.9356264,10.9678877 21.9188229,10.9395871 C21.9807305,10.7591707 22.0276034,10.5743324 22.0674012,10.3877252 C22.5308237,10.385072 22.9464889,10.1347885 23.4125646,10.151592 C23.429368,9.9287247 23.4461715,9.70674178 23.4620906,9.48475887 C23.918438,9.44230795 24.3765541,9.49890917 24.8320171,9.44849871 C24.8479361,9.2256314 24.8629708,9.0018797 24.8762368,8.778128 C25.3184338,8.73833026 25.7641684,8.79846906 26.2054811,8.73744587 C26.2753482,8.53226644 26.3514061,8.3297402 26.4336547,8.12898274 C26.3920882,8.11483243 26.3089552,8.08564743 26.2673886,8.07149712 Z" id="Shape" fill="#FF870A"></path>
            <path d="M3.03170292,11.074015 C3.44383056,10.2692164 3.9912705,9.54489766 4.49360633,8.79404709 C4.71116728,8.9275906 4.74654304,9.18229609 4.76334653,9.41666052 C4.65898803,9.42992643 4.55374513,9.44319235 4.44938663,9.45645826 C4.47414966,9.67490359 4.64660651,9.93049348 4.46265254,10.122407 C4.24597599,10.3611934 3.93555367,10.5469162 3.90548427,10.9015582 C4.15399901,10.8564541 4.31053676,10.63624 4.53959483,10.5531069 C4.74388986,10.5389566 4.93580338,10.6627718 5.14275159,10.6327024 C5.33997147,10.6415463 5.59644576,10.5256907 5.73706441,10.7202574 C5.94755021,10.9555062 6.19429616,11.1527261 6.42512301,11.3676339 C6.49675893,11.6639059 6.45961438,11.9752126 6.47995544,12.2785598 C6.74792685,12.3086292 7.02562659,12.305976 7.26618178,12.1671261 C7.44836696,12.2440684 7.63939609,12.3086292 7.84103794,12.2918257 C7.84899748,12.0238543 7.85961021,11.7549985 7.88260446,11.4870271 C7.95512477,11.5675069 8.0709804,11.6391429 8.05948328,11.7647268 C8.070096,12.1547446 8.04444858,12.5465312 8.08778389,12.9356646 C8.12846601,13.1983296 8.03383585,13.5149427 8.24785921,13.7210065 C8.40970333,14.0791861 8.31861074,14.4868918 8.30711362,14.8654125 C8.22840255,15.4128524 8.17445451,15.9638299 8.11254692,16.5130386 C8.07805555,16.5192294 8.00995721,16.5324953 7.97546584,16.5395705 C7.92947735,16.0726104 7.99846008,15.6003439 7.92505537,15.1360371 C7.89056401,15.2465863 7.85430385,15.3571356 7.81450611,15.4668004 C7.63320533,15.4535345 7.54653471,15.2457019 7.41829757,15.1386902 C7.05038963,15.0882798 6.56751046,15.2695806 6.34287436,14.877794 C6.10674114,14.8547997 5.86087959,14.8831003 5.63359031,14.81058 C5.41691376,14.6788053 5.24357252,14.489545 5.05961855,14.3170881 C5.04635264,14.1225214 5.03220233,13.9288391 5.01805203,13.7351568 C4.44496466,13.6670585 3.86657093,13.7563823 3.29259917,13.6935903 C3.15109612,13.1594163 2.56385845,13.0311791 2.19948808,12.698647 C2.22071354,12.5836757 2.241939,12.4695889 2.26228006,12.3546177 C2.60807815,11.9884785 2.70801468,11.4613796 3.03170292,11.074015 Z" id="Shape" fill="#FF8508"></path>
            <path d="M28.3554431,10.4345981 C28.5031369,10.602633 28.5995358,10.8051592 28.6791313,11.0121074 C28.8365535,11.4145068 29.1107156,11.7797615 29.1549353,12.2201898 C29.1885423,12.2573343 29.2548719,12.3325078 29.2875944,12.3696524 C29.4335195,12.8118494 29.6050919,13.2452025 29.746595,13.6882839 C29.7253695,14.0057814 29.6784966,14.3312384 29.499849,14.6027474 C29.4839299,14.3621922 29.470664,14.121637 29.4512073,13.8819662 C29.3707275,13.9341455 29.2124209,13.946527 29.2274556,14.0765329 C29.207999,14.3162037 29.2097678,14.5602965 29.1319411,14.7911234 C29.0974497,14.5859439 29.0709179,14.3789957 29.0470393,14.1729319 C28.7746459,14.2887875 28.4792583,14.3241633 28.1989053,14.4134871 C27.9486218,14.5691404 27.7124886,14.7486724 27.4834305,14.9343952 C27.3799564,15.0184126 27.3870316,15.1661065 27.3516558,15.2837309 C27.0261988,15.3297194 26.6043428,15.1952915 26.3744003,15.4977542 C26.2054811,15.7197372 25.9357409,15.8064078 25.6907637,15.9160726 C25.195503,15.4623785 24.7851442,14.9237825 24.2492014,14.5134236 C24.2014441,14.4692039 24.1050451,14.3807645 24.0572878,14.3365448 C23.997149,14.2817124 23.9370102,14.2277643 23.875987,14.1755851 L23.8459177,14.1499377 C23.6769984,14.0278913 23.5107323,13.8987697 23.3886859,13.7263129 C23.6301255,13.6599833 23.7999292,13.8474749 23.9706172,13.980134 C24.3615194,13.4521507 24.9337224,13.1090058 25.471434,12.7499418 C25.5227288,12.8233465 25.5757925,12.8976356 25.6279717,12.9710403 C25.7332146,12.8719882 25.8393419,12.7720517 25.9463536,12.6729995 C26.2382036,12.7039533 26.631759,12.7145661 26.7087013,12.3501957 C26.5671982,12.3210107 26.4248108,12.2944789 26.2859609,12.2573343 C26.2576603,12.0751491 26.4937935,12.0583456 26.6229151,12.0495017 C27.0261988,12.0486173 27.4206385,11.9654843 27.8097719,11.8673165 C27.859298,11.5975763 27.8725639,11.3198766 27.9539282,11.0572115 C28.1051596,10.8608761 28.2855759,10.6813441 28.3554431,10.4345981 Z" id="Shape" fill="#FE911A"></path>
            <path d="M13.3490443,26.0981017 C13.7709003,26.0450381 14.1582649,25.8637373 14.5279416,25.6620954 C14.6464504,25.6735926 14.7658436,25.6780145 14.8861212,25.6833209 C14.8153697,25.8433962 14.6154966,25.8354367 14.4766467,25.8999974 C14.2696985,25.9486391 14.1007793,26.0804138 13.9672357,26.2413736 C14.1671088,26.262599 14.3678663,26.2811713 14.5695081,26.2997436 C14.407664,27.2982245 14.6013463,28.3161621 14.4554213,29.3164118 C14.3820166,29.7577244 14.4527681,30.2061122 14.3926293,30.6491937 C14.2520106,30.6792631 14.111392,30.7093325 13.9707733,30.7429394 C14.766728,30.9560784 15.5989428,30.8490667 16.411701,30.8906332 C16.373672,30.9277778 16.2976142,31.0020669 16.2604696,31.0392115 C15.9323594,31.0958127 15.5962896,31.0489398 15.2690638,31.1064254 C15.0019768,31.1515295 14.795913,31.406235 14.5120225,31.3602465 C14.1909875,31.339021 13.869068,31.3363679 13.5506861,31.2921482 C13.058963,31.1966336 12.5663555,31.1081942 12.0710948,31.0321363 L12.0613665,30.9613848 L12.07817,30.8906332 C12.1091238,30.863217 12.1719158,30.8066158 12.2028696,30.7791996 C12.4186617,30.7924655 12.641529,30.8658702 12.8555524,30.8181129 C13.029778,30.7685869 12.9793676,30.5616386 12.996171,30.4263264 C12.9882115,29.1872902 12.9882115,27.9473697 12.9890959,26.709218 C12.9546045,26.4766224 13.2022349,26.3917205 13.3499287,26.2749805 C13.3233969,26.2422579 13.2712176,26.1768128 13.2455702,26.1440902 C13.2712176,26.1325931 13.3225125,26.1095988 13.3490443,26.0981017 Z" id="Shape" fill="#FE911A"></path>
            <path d="M29.746595,13.6882839 C29.888098,13.9730588 29.9411617,14.2976315 30.042867,14.6000942 C30.0888555,14.8645281 30.2383181,15.1086208 30.2259366,15.3810142 C30.1808325,15.7657256 30.2347805,16.1504371 30.3011101,16.5298421 C30.2480464,16.5342641 30.1419191,16.543108 30.0888555,16.54753 C30.0313699,16.1672406 30.0057224,15.7816447 30.0525953,15.3995865 C29.6572712,15.6887834 29.7855083,16.2229574 29.5316872,16.5926341 C29.3265078,16.163703 29.4839299,15.6693267 29.4202536,15.2120949 C29.3282766,15.5437427 29.2681378,15.8824657 29.1841203,16.2167666 C29.1089468,16.1964256 29.0346577,16.1769689 28.961253,16.1583966 C28.8303627,16.284865 28.7056631,16.4237148 28.5447034,16.513923 C28.1944834,16.6510041 28.1325758,17.1427272 27.713373,17.1639527 C27.6912631,17.0206808 27.6709221,16.8765246 27.6488122,16.7332528 C27.3631529,16.9242819 27.2030776,17.2391262 26.9474877,17.4637623 C26.5035219,16.9685016 26.1471111,16.401605 25.6907637,15.9160726 C25.9357409,15.8064078 26.2054811,15.7197372 26.3744003,15.4977542 C26.6043428,15.1952915 27.0261988,15.3297194 27.3516558,15.2837309 C27.3870316,15.1661065 27.3799564,15.0184126 27.4834305,14.9343952 C27.7124886,14.7486724 27.9486218,14.5691404 28.1989053,14.4134871 C28.4792583,14.3241633 28.7746459,14.2887875 29.0470393,14.1729319 C29.0709179,14.3789957 29.0974497,14.5859439 29.1319411,14.7911234 C29.2097678,14.5602965 29.207999,14.3162037 29.2274556,14.0765329 C29.2124209,13.946527 29.3707275,13.9341455 29.4512073,13.8819662 C29.470664,14.121637 29.4839299,14.3621922 29.499849,14.6027474 C29.6784966,14.3312384 29.7253695,14.0057814 29.746595,13.6882839 Z" id="Shape" fill="#FD9C29"></path>
            <path d="M23.875987,14.1755851 C24.0442797,14.2277643 24.2101334,14.2817124 24.375987,14.3365448 C24.0930602,14.7159499 24.2003773,15.1130428 23.9979383,15.4977542 C23.8296456,15.0590948 23.9003773,14.6160133 23.875987,14.1755851 Z" id="Shape" fill="#DB7A21"></path>
            <path d="M24.2492014,14.5134236 C24.7851442,14.9237825 25.195503,15.4623785 25.6907637,15.9160726 C26.1471111,16.401605 26.5035219,16.9685016 26.9474877,17.4637623 C26.9068056,17.8688148 26.9103431,18.2765204 26.903268,18.6833417 C26.6282214,20.4689334 25.9039027,22.1705076 24.8541269,23.636833 C24.686092,23.6554053 24.5180572,23.686359 24.3491379,23.6792839 C24.0564034,23.5837693 24.1076983,23.1910984 24.210288,22.9699998 C24.3862824,22.622433 24.3190685,22.2271088 24.3252592,21.8530101 C24.3305656,20.5529508 24.3137621,19.2528915 24.3252592,17.9537166 C24.3570974,17.7352713 24.181103,17.5884618 24.0811665,17.4186582 C23.9900739,16.7438655 24.127155,16.0690728 24.1598776,15.3951645 C24.181103,15.0988925 24.3199529,14.8132332 24.2492014,14.5134236 Z" id="Shape" fill="#EF6500"></path>
            <path d="M29.1841203,16.2167666 C29.2681378,15.8824657 29.3282766,15.5437427 29.4202536,15.2120949 C29.4839299,15.6693267 29.3265078,16.163703 29.5316872,16.5926341 C29.7855083,16.2229574 29.6572712,15.6887834 30.0525953,15.3995865 C30.0057224,15.7816447 30.0313699,16.1672406 30.0888555,16.54753 C30.1419191,16.543108 30.2480464,16.5342641 30.3011101,16.5298421 C30.2347805,16.1504371 30.1808325,15.7657256 30.2259366,15.3810142 C30.435538,15.8152517 30.4673761,16.3290847 30.5620063,16.8040043 C30.6186075,17.1727966 30.7724921,17.5389358 30.7167753,17.9165721 C30.5213242,18.4091796 30.8883477,18.9831513 30.5735034,19.4288859 C30.5496248,19.269695 30.523093,19.1122729 30.4974455,18.9548507 C30.2595435,19.0105675 30.0013005,19.0432901 29.8120401,19.211325 C29.5723693,19.3687471 29.3663055,19.657944 29.048808,19.6154931 C28.9727501,19.4907935 28.8949235,19.3669783 28.8179812,19.2440476 C28.7551892,19.3130303 28.6932816,19.3828974 28.631374,19.453649 C28.786143,19.6809382 29.0939121,19.9604068 28.8869639,20.2487192 C28.7666863,20.1744301 28.6472931,20.1010254 28.5181716,20.0444242 L28.4836802,20.0285051 C28.1812174,19.4297703 27.8292286,18.8602205 27.4816617,18.2880176 C27.4984652,18.0961041 27.495812,17.8944622 27.3808408,17.7299649 C27.3012453,17.5575081 27.078378,17.5796179 26.9474877,17.4637623 C27.2030776,17.2391262 27.3631529,16.9242819 27.6488122,16.7332528 C27.6709221,16.8765246 27.6912631,17.0206808 27.713373,17.1639527 C28.1325758,17.1427272 28.1944834,16.6510041 28.5447034,16.513923 C28.7056631,16.4237148 28.8303627,16.284865 28.961253,16.1583966 C29.0346577,16.1769689 29.1089468,16.1964256 29.1841203,16.2167666 Z" id="Shape" fill="#FDAA3F"></path>
            <path d="M1.1205273,16.2742522 C1.15501867,16.0726104 1.14086837,15.7896043 1.40707099,15.7639569 C1.44333114,15.8745061 1.46897857,15.9903617 1.52204222,16.0956046 C1.65647012,16.2388765 1.87137788,16.2114603 2.04383473,16.2707147 C2.07832609,16.3883391 2.08893882,16.5103855 2.10308913,16.6315474 C2.32241886,16.7244088 2.5558989,16.7818944 2.77434424,16.8765246 C2.89550623,16.9667328 2.95564502,17.1135422 3.03966246,17.2347042 C3.34124084,17.2771551 3.73921818,17.3558662 3.88956518,17.0100681 C3.96916064,17.1816406 3.95058837,17.3726697 3.97446701,17.5557393 C4.07617233,17.7326181 4.21679099,17.8820807 4.33972176,18.0430404 C4.27692978,18.4816999 4.14161749,18.9070934 4.10093536,19.3492905 C4.06909717,19.3714003 4.00453641,19.4173888 3.97269822,19.4394987 C3.95589473,19.725158 3.9603167,20.0108172 3.94793519,20.2964765 C3.90283109,20.2725979 3.81262289,20.225725 3.76751879,20.2018464 C3.68880772,19.9347593 3.70914878,19.6491001 3.67819499,19.3740535 C3.64900999,19.5235161 3.62070937,19.6729787 3.59240876,19.8233257 C3.21742567,19.8171349 2.90081259,19.5633138 2.82387031,19.1945215 C2.45242479,19.0353306 2.03764397,19.0247178 1.66619845,18.8672957 C1.52292661,18.8195384 1.50170115,18.6523879 1.43360281,18.5383011 C1.18862565,18.4445553 0.932151363,18.3631911 0.734931483,18.1836591 C0.719896783,18.2376071 0.689827384,18.3463876 0.674792685,18.40122 C0.579278124,18.2376071 0.486416745,18.0722254 0.40505249,17.9024217 C0.463422499,17.2453169 0.7322783,16.6280099 0.864053019,15.9868242 C0.884394083,15.946142 0.92507621,15.8638934 0.94453288,15.8223269 C1.00378728,15.9726739 1.06304169,16.1230209 1.1205273,16.2742522 Z" id="Shape" fill="#F87300"></path>
            <path d="M26.9474877,17.4637623 C27.078378,17.5796179 27.3012453,17.5575081 27.3808408,17.7299649 C27.495812,17.8944622 27.4984652,18.0961041 27.4816617,18.2880176 C27.3472338,18.0704566 27.1889273,17.8688148 27.0217768,17.6742481 C26.9996669,18.012971 26.9757883,18.3516939 26.903268,18.6833417 C26.9103431,18.2765204 26.9068056,17.8688148 26.9474877,17.4637623 Z" id="Shape" fill="#EDA35D"></path>
            <path d="M0.140618659,19.3678627 C0.199873063,18.877024 0.290081259,18.3826477 0.40505249,17.9024217 C0.486416745,18.0722254 0.579278124,18.2376071 0.674792685,18.40122 C0.689827384,18.3463876 0.719896783,18.2376071 0.734931483,18.1836591 C0.932151363,18.3631911 1.18862565,18.4445553 1.43360281,18.5383011 C1.50170115,18.6523879 1.52292661,18.8195384 1.66619845,18.8672957 C2.03764397,19.0247178 2.45242479,19.0353306 2.82387031,19.1945215 C2.90081259,19.5633138 3.21742567,19.8171349 3.59240876,19.8233257 C3.62070937,19.6729787 3.64900999,19.5235161 3.67819499,19.3740535 C3.70914878,19.6491001 3.68880772,19.9347593 3.76751879,20.2018464 C3.81262289,20.225725 3.90283109,20.2725979 3.94793519,20.2964765 C3.94174443,20.8456853 3.94970397,21.3957784 3.96296988,21.9449871 C4.03902778,22.5578722 4.17787765,23.161029 4.32910903,23.7588794 C4.28577372,23.8826945 4.24332281,24.0065097 4.1999875,24.1312093 C4.08413187,24.1037931 3.9753514,24.0569202 3.87364608,23.995897 C3.65254756,23.8650067 3.36511948,23.8977292 3.16259324,23.7261568 C3.16259324,23.6483301 3.20415976,23.5766942 3.22273204,23.5024051 C2.93618835,23.3821275 2.62488164,23.3387922 2.33745356,23.2220522 C1.81654545,22.939046 1.4504063,22.4252131 0.900313176,22.1890799 C0.847249531,22.2730973 0.793301492,22.3571147 0.740237847,22.4411322 C0.615538282,22.0776462 0.561590242,21.6973568 0.497029474,21.3197205 C0.275930954,21.7327325 0.36171718,22.2147273 0.320150658,22.6631151 C0.260896254,22.579982 0.189260334,22.4950802 0.200757457,22.3854154 C0.187491546,21.3798593 0.19721988,20.3725344 0.140618659,19.3678627 Z" id="Shape" fill="#EB5E00"></path>
            <path d="M30.7167753,17.9165721 C30.8980761,17.9820172 30.7822204,18.2526418 30.8273245,18.4029888 C30.9210703,19.0760127 30.902498,19.7578805 30.9767871,20.4317888 C30.9555617,21.0322924 30.9387582,21.6292584 30.9175327,22.2315308 C30.8848102,22.0979873 30.8494344,21.9653282 30.8114054,21.8335534 C30.7433071,22.2209181 30.7733765,22.6162422 30.7362319,23.00626 C30.6637116,22.8585662 30.5982665,22.7073348 30.5372433,22.555219 C30.518671,22.6171266 30.4824108,22.7418262 30.4638386,22.8046181 C30.3798211,22.6905313 30.2949193,22.5782133 30.2100175,22.4658952 C30.0296011,22.7453637 29.9588496,23.0743583 29.8403407,23.3812431 C29.5909416,22.6657683 29.3397737,21.9511779 29.0496924,21.2507377 C29.0258138,21.2631193 28.9789409,21.2878823 28.9550623,21.3002638 C28.9585998,21.1516856 28.9532935,21.0004542 28.9099582,20.8571824 C29.1841203,20.5414537 29.5493751,20.3274303 29.8314968,20.0196612 C29.9968785,19.8357072 30.247162,19.7817592 30.4656074,19.687129 C30.5009831,19.6004584 30.5372433,19.5137878 30.5735034,19.4288859 C30.8883477,18.9831513 30.5213242,18.4091796 30.7167753,17.9165721 Z" id="Shape" fill="#FCC164"></path>
            <path d="M5.43194846,18.0492312 C5.590255,18.2606013 5.75209911,18.4763935 5.99000112,18.6037463 C6.24647541,18.735521 6.25089738,19.0627468 6.3526027,19.3015332 C6.58166076,19.3599032 6.82044717,19.3678627 7.05215842,19.41562 C7.38999695,19.5854237 7.64735563,19.8878865 8.00022887,20.0329271 C8.22221179,20.0948347 8.46807334,20.1107538 8.64141458,20.2832106 C8.82802173,20.4574363 9.08184283,20.4990028 9.32770439,20.5096155 C9.36219576,20.6077832 9.39580273,20.7077198 9.43206289,20.8058875 C9.60894171,20.8731015 9.7141846,20.7572458 9.78582052,20.6104364 C9.79554886,20.638737 9.81588992,20.6962227 9.82650265,20.7245233 C9.92820797,20.7041822 10.0299133,20.6838411 10.132503,20.6643845 C10.617151,21.7521892 11.2264985,22.8099245 12.0587133,23.67044 C12.3054593,24.0418855 12.6742516,24.3045505 12.996171,24.6043601 C13.4463276,25.0385976 14.0105711,25.3198349 14.5279416,25.6620954 C14.1582649,25.8637373 13.7709003,26.0450381 13.3490443,26.0981017 C13.5268075,25.9822461 13.7063395,25.869928 13.8867559,25.75761 C13.6665418,25.5886907 13.388842,25.5754248 13.1288302,25.519708 C12.8997721,25.4701819 12.8405177,25.2101701 12.7308528,25.0377132 C12.286887,24.9899559 11.932245,24.680418 11.4953543,24.6078977 C11.209695,24.5689843 10.9602959,24.4195217 10.7736887,24.2037296 C10.7843014,24.1683538 10.8064113,24.0958335 10.8179084,24.0604577 C10.4429253,23.90392 10.0511387,23.7765672 9.71330021,23.544856 C9.41702819,23.3396766 9.07653647,23.219399 8.7431199,23.0911618 C8.57154745,23.0345606 8.58658215,22.7807395 8.41147212,22.7285603 C8.11166253,22.6242018 7.79770263,22.5251496 7.59163881,22.2660221 C7.54653471,22.2810568 7.50143061,22.2960915 7.45632651,22.3120106 C7.17951116,21.9396807 6.72404821,21.8202875 6.31634254,21.6522527 C6.22613434,21.7937557 6.13327296,21.93349 6.03598961,22.0705711 C5.50446877,20.9703848 5.13302326,19.7808748 5.0215896,18.5621797 C5.13921401,18.555989 5.25683843,18.5489138 5.37446284,18.5427231 C5.39303512,18.3782258 5.41249179,18.2137285 5.43194846,18.0492312 Z" id="Shape" fill="#F77200"></path>
            <path d="M29.8120401,19.211325 C30.0013005,19.0432901 30.2595435,19.0105675 30.4974455,18.9548507 C30.523093,19.1122729 30.5496248,19.269695 30.5735034,19.4288859 C30.5372433,19.5137878 30.5009831,19.6004584 30.4656074,19.687129 C30.247162,19.7817592 29.9968785,19.8357072 29.8314968,20.0196612 C29.5493751,20.3274303 29.1841203,20.5414537 28.9099582,20.8571824 C28.76138,20.5954017 28.6004202,20.3371587 28.5181716,20.0444242 C28.6472931,20.1010254 28.7666863,20.1744301 28.8869639,20.2487192 C29.0939121,19.9604068 28.786143,19.6809382 28.631374,19.453649 C28.6932816,19.3828974 28.7551892,19.3130303 28.8179812,19.2440476 C28.8949235,19.3669783 28.9727501,19.4907935 29.048808,19.6154931 C29.3663055,19.657944 29.5723693,19.3687471 29.8120401,19.211325 Z" id="Shape" fill="#FEB754"></path>
            <path d="M0.0583700095,22.3748026 C0.0168034876,21.3727841 0.00795954674,20.3636905 0.140618659,19.3678627 C0.19721988,20.3725344 0.187491546,21.3798593 0.200757457,22.3854154 C0.189260334,22.4950802 0.260896254,22.579982 0.320150658,22.6631151 C0.36171718,22.2147273 0.275930954,21.7327325 0.497029474,21.3197205 C0.561590242,21.6973568 0.615538282,22.0776462 0.740237847,22.4411322 C0.793301492,22.3571147 0.847249531,22.2730973 0.900313176,22.1890799 C1.4504063,22.4252131 1.81654545,22.939046 2.33745356,23.2220522 C2.62488164,23.3387922 2.93618835,23.3821275 3.22273204,23.5024051 C3.20415976,23.5766942 3.16259324,23.6483301 3.16259324,23.7261568 C3.36511948,23.8977292 3.65254756,23.8650067 3.87364608,23.995897 C3.9753514,24.0569202 4.08413187,24.1037931 4.1999875,24.1312093 C4.24332281,24.0065097 4.28577372,23.8826945 4.32910903,23.7588794 C4.35210328,23.8473188 4.37686632,23.9348738 4.40162935,24.0233132 C4.41312647,24.0082785 4.43612072,23.9782091 4.44761784,23.9631744 C4.76334653,24.9192044 5.19050887,25.9070726 5.97673521,26.5685994 C5.6937291,26.6455416 5.40011027,26.5854028 5.11975734,26.5288016 C4.7226644,26.4385934 4.31672752,26.4014489 3.91963457,26.3121251 C3.19973779,26.1856567 2.50460404,25.9557143 1.79797317,25.7761823 C1.59279374,25.724003 1.37877037,25.6939336 1.18862565,25.5966503 C0.437775071,24.6989903 0.205179427,23.5050583 0.0583700095,22.3748026 Z" id="Shape" fill="#E04B00"></path>
            <path d="M28.9550623,21.3002638 C28.9789409,21.2878823 29.0258138,21.2631193 29.0496924,21.2507377 C29.3397737,21.9511779 29.5909416,22.6657683 29.8403407,23.3812431 C30.0579017,24.1055618 30.2621967,24.8343026 30.4151969,25.5754248 C30.4505727,25.719581 30.460301,25.869928 30.4116593,26.0140843 C30.018104,26.9373917 29.2513343,27.640485 28.4819114,28.2524857 C28.4624548,28.2569077 28.4244258,28.2657516 28.4058535,28.2701736 C28.3519055,28.0994855 28.2112868,27.9924738 28.0706682,27.8969593 C28.0317548,27.4574154 28.0963156,27.0222935 28.15557,26.588056 C28.1573388,26.0689167 28.0034542,25.5603901 28.0193733,25.0385976 C27.9990323,24.5451057 28.1776799,24.0613421 28.1051596,23.5678502 C28.043252,23.515671 27.9212056,23.4104281 27.859298,23.3573644 C28.3474835,22.7462481 28.752536,22.0608427 28.9550623,21.3002638 Z" id="Shape" fill="#E04B00"></path>
            <path d="M3.97269822,19.4394987 C4.00453641,19.4173888 4.06909717,19.3714003 4.10093536,19.3492905 C3.92582533,20.5423381 3.95766352,21.7628019 4.22651932,22.9399304 C4.29992403,23.2804222 4.36183162,23.6244515 4.44761784,23.9631744 C4.43612072,23.9782091 4.41312647,24.0082785 4.40162935,24.0233132 C4.37686632,23.9348738 4.35210328,23.8473188 4.32910903,23.7588794 C4.17787765,23.161029 4.03902778,22.5578722 3.96296988,21.9449871 C3.94970397,21.3957784 3.94174443,20.8456853 3.94793519,20.2964765 C3.9603167,20.0108172 3.95589473,19.725158 3.97269822,19.4394987 Z" id="Shape" fill="#F7A774"></path>
            <path d="M9.43206289,20.840805 C9.49456289,20.6566925 9.56331289,20.4601786 9.79956289,20.3619217 C9.83206289,20.4286982 9.89831289,20.5632053 9.93206289,20.6299819 C9.83081289,20.7883377 9.68206289,20.9133053 9.43206289,20.840805 Z" id="Shape" fill="#EB8116"></path>
            <path d="M6.31634254,21.6522527 C6.72404821,21.8202875 7.17951116,21.9396807 7.45632651,22.3120106 C7.50143061,22.2960915 7.54653471,22.2810568 7.59163881,22.2660221 C7.79770263,22.5251496 8.11166253,22.6242018 8.41147212,22.7285603 C8.58658215,22.7807395 8.57154745,23.0345606 8.7431199,23.0911618 C9.07653647,23.219399 9.41702819,23.3396766 9.71330021,23.544856 C10.0511387,23.7765672 10.4429253,23.90392 10.8179084,24.0604577 C10.8064113,24.0958335 10.7843014,24.1683538 10.7736887,24.2037296 C10.9602959,24.4195217 11.209695,24.5689843 11.4953543,24.6078977 C11.932245,24.680418 12.286887,24.9899559 12.7308528,25.0377132 C12.8405177,25.2101701 12.8997721,25.4701819 13.1288302,25.519708 C13.388842,25.5754248 13.6665418,25.5886907 13.8867559,25.75761 C13.7063395,25.869928 13.5268075,25.9822461 13.3490443,26.0981017 C13.3225125,26.1095988 13.2712176,26.1325931 13.2455702,26.1440902 C12.2612396,26.4217899 11.2459552,26.5624086 10.2350927,26.7065648 C10.199717,26.6906457 10.128081,26.6588076 10.0918209,26.6420041 C8.27439104,25.6258353 6.94249355,23.9154171 6.03598961,22.0705711 C6.13327296,21.93349 6.22613434,21.7937557 6.31634254,21.6522527 Z" id="Shape" fill="#EF6400"></path>
            <path d="M30.7362319,23.00626 C30.7733765,22.6162422 30.7433071,22.2209181 30.8114054,21.8335534 C30.8494344,21.9653282 30.8848102,22.0979873 30.9175327,22.2315308 C30.9325674,23.1451099 30.7441915,24.0410011 30.6301047,24.9413142 C30.4178501,25.2588117 30.639833,25.7319626 30.4116593,26.0140843 C30.460301,25.869928 30.4505727,25.719581 30.4151969,25.5754248 C30.2621967,24.8343026 30.0579017,24.1055618 29.8403407,23.3812431 C29.9588496,23.0743583 30.0296011,22.7453637 30.2100175,22.4658952 C30.2949193,22.5782133 30.3798211,22.6905313 30.4638386,22.8046181 C30.4824108,22.7418262 30.518671,22.6171266 30.5372433,22.555219 C30.5982665,22.7073348 30.6637116,22.8585662 30.7362319,23.00626 Z" id="Shape" fill="#FCD485"></path>
            <path d="M25.7119892,25.3260257 C26.5203254,24.7838921 27.2596788,24.1267873 27.859298,23.3573644 C27.9212056,23.4104281 28.043252,23.515671 28.1051596,23.5678502 C28.1776799,24.0613421 27.9990323,24.5451057 28.0193733,25.0385976 C28.0034542,25.5603901 28.1573388,26.0689167 28.15557,26.588056 C28.0963156,27.0222935 28.0317548,27.4574154 28.0706682,27.8969593 C28.2112868,27.9924738 28.3519055,28.0994855 28.4058535,28.2701736 C28.189177,28.5169195 27.8531072,28.6363127 27.6045925,28.8582956 C27.3074361,28.9423131 27.0942971,29.1872902 26.8051003,29.2907643 C26.640603,29.3526719 26.4867184,29.4402269 26.3390246,29.5348571 L26.24351,29.4738339 C26.151533,29.2757296 26.0701688,29.0652439 26.0737063,28.8432609 C26.0701688,28.2224163 26.0807815,27.6006873 26.0692844,26.9789582 C26.0507121,26.7313279 26.1833712,26.5013854 26.1568394,26.2546395 C26.1824868,26.0423849 26.3443309,25.8274771 26.2090186,25.6187601 C26.1329607,25.4118119 25.8879836,25.3967772 25.7119892,25.3260257 Z" id="Shape" fill="#E75700"></path>
            <path d="M15.4087981,25.4082743 C15.8810645,25.1862914 16.3674813,24.9917247 16.8202911,24.7308285 C16.8689327,24.7759326 16.9662161,24.864372 17.0157422,24.9094761 C17.1784707,24.8944414 17.3403148,24.8794067 17.5030433,24.8626032 C17.4039912,24.9952623 17.2439158,25.1137711 17.2607193,25.2986095 C17.2483378,25.6718238 17.2943263,26.0476912 17.2324187,26.4191368 C17.0979908,26.4447842 16.9635629,26.471316 16.829135,26.4987322 C16.8176379,27.8863465 16.804372,29.2757296 16.8300194,30.6624596 C17.1572452,30.6704191 17.4853554,30.6695347 17.8090436,30.7208296 C17.3641934,30.892402 16.8671639,30.7447082 16.411701,30.8906332 C15.5989428,30.8490667 14.766728,30.9560784 13.9707733,30.7429394 C14.111392,30.7093325 14.2520106,30.6792631 14.3926293,30.6491937 C14.4527681,30.2061122 14.3820166,29.7577244 14.4554213,29.3164118 C14.6013463,28.3161621 14.407664,27.2982245 14.5695081,26.2997436 C14.3678663,26.2811713 14.1671088,26.262599 13.9672357,26.2413736 C14.1007793,26.0804138 14.2696985,25.9486391 14.4766467,25.8999974 C14.6154966,25.8354367 14.8153697,25.8433962 14.8861212,25.6833209 C14.9887109,25.4967137 15.23811,25.5037889 15.4087981,25.4082743 Z" id="Shape" fill="#FE890E"></path>
            <path d="M22.2230545,26.8984784 C23.4682814,26.5960156 24.656907,26.0512288 25.7119892,25.3260257 C25.8879836,25.3967772 26.1329607,25.4118119 26.2090186,25.6187601 C26.3443309,25.8274771 26.1824868,26.0423849 26.1568394,26.2546395 C26.1833712,26.5013854 26.0507121,26.7313279 26.0692844,26.9789582 C26.0807815,27.6006873 26.0701688,28.2224163 26.0737063,28.8432609 C26.0701688,29.0652439 26.151533,29.2757296 26.24351,29.4738339 L26.2797702,29.5587358 C25.2768673,29.9903201 24.243895,30.3980257 23.1896972,30.6739567 C23.1481307,30.6545 23.0649977,30.6138179 23.0234312,30.5934768 C23.0941827,30.5448352 23.1649342,30.4970779 23.2365701,30.450205 C23.1605122,30.3909506 23.0844543,30.3325806 23.0083965,30.275095 C23.1507839,30.2635978 23.2931713,30.2529851 23.4364432,30.2423724 C23.3550789,30.1946151 23.2737147,30.1468578 23.1923504,30.0999849 C23.3807264,30.0761063 23.5832526,30.0654936 23.7282932,29.9257593 C23.6478134,29.8656205 23.5682179,29.8054817 23.4886224,29.7471117 C23.404605,29.067897 23.4939288,28.383376 23.4249461,27.7041614 C23.2480673,27.6829359 23.0720728,27.6608261 22.8969628,27.6351786 C22.9924774,27.5113635 23.1189457,27.4202709 23.2489516,27.3380222 C23.2135759,27.2716927 23.1782001,27.2071319 23.1437087,27.1416867 C23.1720094,27.0824323 23.20031,27.0231779 23.2286106,26.9639235 C22.9005004,26.8719465 22.5582399,26.9055535 22.2230545,26.8984784 Z" id="Shape" fill="#F26800"></path>
            <path d="M1.5096607,25.8460494 C1.58218101,25.8283615 1.72545286,25.7938701 1.79797317,25.7761823 C2.50460404,25.9557143 3.19973779,26.1856567 3.91963457,26.3121251 C3.82942638,26.383761 3.73921818,26.4571657 3.64900999,26.5305704 C3.89929351,26.6658827 4.15134582,26.8047326 4.3636004,26.9975305 C4.14692385,27.0859699 3.90902185,27.0824323 3.67907938,27.1036578 C3.66669787,27.1505307 3.64193483,27.2442764 3.62955332,27.2920337 C3.47743753,27.2425077 3.32532175,27.1929816 3.17409036,27.1416867 C2.94061032,27.0780104 2.83094546,26.8277268 2.61161573,26.7366342 C2.39317039,26.646426 2.25166733,26.4607033 2.1225458,26.2723273 C1.91382879,26.137015 1.72191528,25.9769397 1.5096607,25.8460494 Z" id="Shape" fill="#FDD485"></path>
            <path d="M10.2350927,26.7065648 C11.2459552,26.5624086 12.2612396,26.4217899 13.2455702,26.1440902 C13.2712176,26.1768128 13.3233969,26.2422579 13.3499287,26.2749805 C13.2022349,26.3917205 12.9546045,26.4766224 12.9890959,26.709218 C12.9882115,27.9473697 12.9882115,29.1872902 12.996171,30.4263264 C12.9793676,30.5616386 13.029778,30.7685869 12.8555524,30.8181129 C12.641529,30.8658702 12.4186617,30.7924655 12.2028696,30.7791996 C12.1719158,30.8066158 12.1091238,30.863217 12.07817,30.8906332 L12.0091872,30.921587 C11.5501867,31.0144484 11.1345215,30.7500146 10.6896713,30.7013729 C10.3491796,30.6721879 10.0608671,30.4608177 9.72037536,30.4351703 C9.57798792,30.4112917 9.41879698,30.4236732 9.2958662,30.3361182 C9.46478547,30.3431933 9.63547353,30.3546904 9.80350841,30.3272742 C10.0246069,30.212303 10.2103297,30.0433837 10.4022432,29.886846 C10.1855667,29.8143256 9.96358374,29.7577244 9.74248521,29.7020076 C9.74336961,29.6524815 9.74336961,29.5551982 9.744254,29.5065565 C9.92909237,29.4747183 10.1139307,29.4419957 10.2996535,29.4101575 C10.2916939,29.0422496 10.2616245,28.6752261 10.2633933,28.3073181 C10.2350927,27.9296819 10.5623185,27.6201439 10.4261218,27.2336637 C10.2103297,27.2451608 10.0104566,27.3291783 9.80527719,27.3866639 C9.66908051,27.3521725 9.56825958,27.2442764 9.45682593,27.1664498 C9.72125976,27.0196403 10.0325665,26.94712 10.2350927,26.7065648 Z" id="Shape" fill="#FE9A26"></path>
            <path d="M3.91963457,26.3121251 C4.31672752,26.4014489 4.7226644,26.4385934 5.11975734,26.5288016 C5.40011027,26.5854028 5.6937291,26.6455416 5.97673521,26.5685994 C6.39947558,26.7914667 6.91065536,26.659692 7.3687715,26.7640505 C7.17774237,26.8091546 6.98671325,26.8613338 6.78949337,26.8737153 C6.38886285,26.8790217 5.97319763,26.8586806 5.59467697,27.0134496 C5.77420897,27.1443399 5.94401263,27.2884961 6.08551568,27.460953 C5.82108185,27.5493924 5.51065953,27.6705544 5.48766528,27.9942426 C5.71053259,28.0464219 5.97408203,28.0305028 6.14034812,28.2144567 C5.98557915,28.3037806 5.82727261,28.3886824 5.66808168,28.4718154 C5.75652108,28.5823647 5.8440761,28.6937983 5.9333999,28.8043476 C5.62651515,28.7857753 5.40453224,28.5124976 5.11445098,28.4231738 L5.07995961,28.3780697 C4.91192474,28.0932948 4.55286074,28.0313872 4.33353101,27.8005603 C4.24951357,27.6926642 4.19114356,27.5670803 4.10270415,27.4636062 C3.95412594,27.3831263 3.78785986,27.3450974 3.62955332,27.2920337 C3.64193483,27.2442764 3.66669787,27.1505307 3.67907938,27.1036578 C3.90902185,27.0824323 4.14692385,27.0859699 4.3636004,26.9975305 C4.15134582,26.8047326 3.89929351,26.6658827 3.64900999,26.5305704 C3.73921818,26.4571657 3.82942638,26.383761 3.91963457,26.3121251 Z" id="Shape" fill="#FCC56C"></path>
            <path d="M10.0918209,26.6420041 C10.128081,26.6588076 10.199717,26.6906457 10.2350927,26.7065648 C10.0325665,26.94712 9.72125976,27.0196403 9.45682593,27.1664498 C9.56825958,27.2442764 9.66908051,27.3521725 9.80527719,27.3866639 C10.0104566,27.3291783 10.2103297,27.2451608 10.4261218,27.2336637 C10.5623185,27.6201439 10.2350927,27.9296819 10.2633933,28.3073181 C10.2616245,28.6752261 10.2916939,29.0422496 10.2996535,29.4101575 C10.1139307,29.4419957 9.92909237,29.4747183 9.744254,29.5065565 C9.74336961,29.5551982 9.74336961,29.6524815 9.74248521,29.7020076 C9.96358374,29.7577244 10.1855667,29.8143256 10.4022432,29.886846 C10.2103297,30.0433837 10.0246069,30.212303 9.80350841,30.3272742 C9.63547353,30.3546904 9.46478547,30.3431933 9.2958662,30.3361182 C9.18885452,30.1946151 8.99340343,30.2238001 8.85278477,30.1362451 C8.68032792,30.0424993 8.49372077,29.9788229 8.30622922,29.9222217 C8.35044893,29.9080714 8.43888834,29.8815396 8.48310804,29.8682737 C8.32833908,29.6347936 7.94009007,29.7303082 7.8472287,29.4720651 C8.06655843,29.4473021 8.29296331,29.4304986 8.49106759,29.3234869 C8.32214832,29.2907643 8.15322905,29.2615793 7.98430978,29.2359319 C7.96750629,29.0555155 7.9064831,28.8618332 7.99934448,28.6929139 C8.14969147,28.4134454 8.1302348,28.0879884 8.24520603,27.7987915 C8.1152001,27.7563406 7.98519417,27.7138897 7.85430385,27.6732076 C8.01261039,27.6051092 8.26820028,27.636063 8.32037953,27.4344212 C7.93213053,27.4087737 7.51469652,27.6104156 7.16093889,27.3742824 C7.52707804,27.3424442 7.90825189,27.3309471 8.23636209,27.1434555 C7.77824596,26.951542 7.28210088,26.8878656 6.78949337,26.8737153 C6.98671325,26.8613338 7.17774237,26.8091546 7.3687715,26.7640505 C7.8021246,26.7658192 8.23636209,26.7932355 8.67059959,26.776432 C9.14551921,26.7543221 9.63724232,26.8118077 10.0918209,26.6420041 Z" id="Shape" fill="#FEA83A"></path>
            <path d="M5.59467697,27.0134496 C5.97319763,26.8586806 6.38886285,26.8790217 6.78949337,26.8737153 C7.28210088,26.8878656 7.77824596,26.951542 8.23636209,27.1434555 C7.90825189,27.3309471 7.52707804,27.3424442 7.16093889,27.3742824 C7.51469652,27.6104156 7.93213053,27.4087737 8.32037953,27.4344212 C8.26820028,27.636063 8.01261039,27.6051092 7.85430385,27.6732076 C7.98519417,27.7138897 8.1152001,27.7563406 8.24520603,27.7987915 C8.1302348,28.0879884 8.14969147,28.4134454 7.99934448,28.6929139 C7.9064831,28.8618332 7.96750629,29.0555155 7.98430978,29.2359319 C8.15322905,29.2615793 8.32214832,29.2907643 8.49106759,29.3234869 C8.29296331,29.4304986 8.06655843,29.4473021 7.8472287,29.4720651 C7.94009007,29.7303082 8.32833908,29.6347936 8.48310804,29.8682737 C8.43888834,29.8815396 8.35044893,29.9080714 8.30622922,29.9222217 C7.84899748,29.790447 7.43598545,29.5472386 6.99378841,29.377435 C6.97521613,29.3597471 6.93807158,29.3234869 6.9194993,29.305799 C6.80895004,29.164296 6.69928518,29.0210242 6.58519834,28.8821743 C6.43573574,28.9095905 6.28538875,28.9361223 6.13592615,28.9617697 C6.05721507,28.9255096 5.98734794,28.8715616 5.9333999,28.8043476 C5.8440761,28.6937983 5.75652108,28.5823647 5.66808168,28.4718154 C5.82727261,28.3886824 5.98557915,28.3037806 6.14034812,28.2144567 C5.97408203,28.0305028 5.71053259,28.0464219 5.48766528,27.9942426 C5.51065953,27.6705544 5.82108185,27.5493924 6.08551568,27.460953 C5.94401263,27.2884961 5.77420897,27.1443399 5.59467697,27.0134496 Z" id="Shape" fill="#FEB652"></path>
            <path d="M22.0497133,26.9285478 C22.0930486,26.9214726 22.1797192,26.9055535 22.2230545,26.8984784 C22.5582399,26.9055535 22.9005004,26.8719465 23.2286106,26.9639235 C23.20031,27.0231779 23.1720094,27.0824323 23.1437087,27.1416867 C23.1782001,27.2071319 23.2135759,27.2716927 23.2489516,27.3380222 C23.1189457,27.4202709 22.9924774,27.5113635 22.8969628,27.6351786 C23.0720728,27.6608261 23.2480673,27.6829359 23.4249461,27.7041614 C23.4939288,28.383376 23.404605,29.067897 23.4886224,29.7471117 C23.5682179,29.8054817 23.6478134,29.8656205 23.7282932,29.9257593 C23.5832526,30.0654936 23.3807264,30.0761063 23.1923504,30.0999849 C23.2737147,30.1468578 23.3550789,30.1946151 23.4364432,30.2423724 C23.2931713,30.2529851 23.1507839,30.2635978 23.0083965,30.275095 C23.0844543,30.3325806 23.1605122,30.3909506 23.2365701,30.450205 C23.1649342,30.4970779 23.0941827,30.5448352 23.0234312,30.5934768 C23.0649977,30.6138179 23.1481307,30.6545 23.1896972,30.6739567 C22.7926043,30.7694713 22.4043553,30.9171651 21.9922277,30.9348529 C21.9736554,30.8915176 21.9373952,30.8057314 21.9188229,30.7632805 C22.0727075,30.4006789 22.0125687,30.0062392 22.0187595,29.6250653 C22.0178751,29.3473656 22.2548927,29.1200763 22.206251,28.8370702 C22.1540718,28.6274688 22.0107999,28.4435148 22.0214127,28.2197631 C22.0222971,28.0375779 21.9833837,27.8606991 21.9064414,27.6962018 C21.905557,27.6413694 21.9497767,27.5803462 21.9064414,27.5325889 C21.7941234,27.3795887 21.7941234,27.1841376 21.7711291,27.0046056 C21.8657593,26.985149 21.9577363,26.9568484 22.0497133,26.9285478 Z" id="Shape" fill="#FB7700"></path>
            <path d="M3.17409036,27.1416867 C3.32532175,27.1929816 3.47743753,27.2425077 3.62955332,27.2920337 C3.78785986,27.3450974 3.95412594,27.3831263 4.10270415,27.4636062 C4.19114356,27.5670803 4.24951357,27.6926642 4.33353101,27.8005603 C4.55286074,28.0313872 4.91192474,28.0932948 5.07995961,28.3780697 C4.75361819,28.2445261 4.4538086,28.0570346 4.16814931,27.8518552 C3.83738592,27.6148376 3.46594041,27.4308836 3.17409036,27.1416867 Z" id="Shape" fill="#EFCD96"></path>
            <path d="M6.13592615,28.97612 C6.28538875,28.9458486 6.43573574,28.9145334 6.58519834,28.8821743 C6.69928518,29.0460574 6.80895004,29.2151597 6.9194993,29.3821743 C6.78241822,29.3633851 6.64533714,29.3372891 6.51090924,29.3007547 C6.41981665,29.1379154 6.25178177,29.1003371 6.13592615,28.97612 Z" id="Shape" fill="#F7CB81"></path>
            <path d="M15.9880762,0.572067157 C16.3674813,0.211929905 16.7636898,0.382521234 17.1501701,0.373043938 L17.0891469,0.584703552 C16.7185857,0.938522606 16.3303367,0.821635954 15.9509317,0.824795053 L15.9880762,0.572067157 Z" id="Shape" fill="#B95D3D"></path>
        </g>
    </g>
</svg>