<?xml version="1.0" encoding="UTF-8" standalone="no"?>
<svg width="34px" height="34px" viewBox="0 0 34 34" version="1.1" xmlns="http://www.w3.org/2000/svg" xmlns:xlink="http://www.w3.org/1999/xlink">
    <!-- Generator: Sketch 50.2 (55047) - http://www.bohemiancoding.com/sketch -->
    <title>entercash</title>
    <desc>Created with Sketch.</desc>
    <defs></defs>
    <g id="Page-1" stroke="none" stroke-width="1" fill="none" fill-rule="evenodd">
        <g id="deposit" transform="translate(-102.000000, -1933.000000)">
            <g id="entercash" transform="translate(103.000000, 1934.000000)">
                <rect id="Rectangle-6-Copy-26" stroke="#D0D5DF" fill="#FFFFFF" x="0" y="0" width="32" height="32" rx="2"></rect>
                <path d="M4,22.3374868 C4.74594612,22.5506143 5.33204664,23.0301511 5.91814716,23.4031241 C7.94285804,24.7351708 10.1274145,25.3212713 12.5250985,25.2679894 C13.3243265,25.2679894 14.0702726,25.0015801 14.709655,24.4154796 C15.2424736,23.9359428 15.5621648,23.3498423 15.3490373,22.6038961 C15.1359099,21.85795 14.4965275,21.6448226 13.8038632,21.5382588 C13.0046353,21.4316951 12.2054073,21.5915407 11.4061793,21.5382588 C8.52895856,21.3251314 5.75830156,18.9807293 5.11891917,16.1567904 C4.79922798,14.7181801 5.43861037,14.0787977 6.87722073,14.5583345 C8.36911297,15.0911531 9.75444147,15.8903811 11.1930518,16.5830453 C11.7791524,16.8494547 12.4185347,16.9560184 13.0579171,16.7428909 C13.8038632,16.4764816 14.2301182,15.8903811 14.2834,15.0911531 C14.3366819,14.2386433 13.910427,13.6525427 13.2177627,13.2795697 C12.0988435,12.6934692 10.9266425,12.1606505 9.75444147,11.6278319 C9.32818654,11.4147044 8.90193162,11.2548588 8.52895856,10.9884495 C7.56988499,10.3490671 7.56988499,9.65640284 8.52895856,9.01702045 C10.4471057,7.79153755 12.4718166,7.63169195 14.5498094,8.3243562 C16.1482653,8.85717485 17.4270301,9.8695303 18.3328218,11.3081407 C18.8656405,12.1606505 19.824714,12.4803417 20.7305058,12.0540868 C21.5297337,11.6811137 21.8494249,10.8818857 21.5830156,9.8695303 C21.2100425,8.59076553 20.3575327,7.63169195 19.3984591,6.83246397 C18.2795399,5.92667225 17.054057,5.234008 15.6687285,4.80775308 C15.0293461,4.59462562 14.4432456,4.38149816 13.6440176,4.11508883 C14.3366819,3.95524323 14.8695006,4.0085251 15.4023192,4.0085251 C20.8370695,4.16837069 25.6857192,8.00466501 26.9112021,13.173006 C28.4030944,19.1938568 24.993055,25.3212713 19.0254861,27.2394184 C13.8038632,28.9444381 9.22162281,27.7722371 5.3853285,23.829379 C5.32182022,23.7774177 5.25893753,23.726082 5.1969516,23.6751007 C4.68688637,23.2555898 4.23754193,22.860079 4,22.3374868 Z" id="Shape" fill="#02AEEE" fill-rule="nonzero"></path>
            </g>
        </g>
    </g>
</svg>