<?xml version="1.0" encoding="UTF-8" standalone="no"?>
<svg width="34px" height="34px" viewBox="0 0 34 34" version="1.1" xmlns="http://www.w3.org/2000/svg" xmlns:xlink="http://www.w3.org/1999/xlink">
    <!-- Generator: Sketch 49.1 (51147) - http://www.bohemiancoding.com/sketch -->
    <title>fasapay</title>
    <desc>Created with Sketch.</desc>
    <defs></defs>
    <g id="Page-1" stroke="none" stroke-width="1" fill="none" fill-rule="evenodd">
        <g id="fasapay" transform="translate(1.000000, 1.000000)">
            <rect id="Rectangle-6-Copy-5" stroke="#D0D5DF" fill="#FFFFFF" x="0" y="0" width="32" height="32" rx="2"></rect>
            <path d="M14.7672805,21.9782167 C15.3127555,20.9485903 15.8366275,19.9073145 16.4118066,18.8947141 C16.7484529,18.3023877 16.5594269,18.1509457 15.9500431,18.0819455 C12.9328283,17.7423211 5.05404493,16.9358253 4,16.5263046 C8.27738814,16.5263046 12.3648502,16.5352657 16.4523122,16.5146552 C16.9194764,16.512863 17.6890822,16.7969288 17.7376889,16.0827319 C17.7691933,15.6104837 12.2991411,14.8622348 10.1568466,14.28335 C12.2217305,14.28335 14.2857143,14.2663239 16.3496981,14.2941032 C16.9545813,14.3021682 17.4433485,14.2421291 17.6413757,13.5736336 C17.7736939,13.1273725 18.1202415,13.0673334 18.537899,13.0664373 C18.8493418,13.0655412 19.2471965,13.2465547 19.5064321,12.6882804 C15.3793647,12.180188 11.2973034,11.6783683 7.2152421,11.1756525 C7.21794247,11.12099 7.22154296,11.0654314 7.22424333,11.0107689 C9.24772156,11.0107689 11.2720999,11.0107689 13.2955781,11.0107689 C15.4711773,11.0107689 17.6476766,11.011665 19.8232757,11.0098728 C20.2589356,11.0089767 20.7459026,11.0985874 20.9115253,10.4569751 C17.7205866,10.0644804 14.5548513,9.67467411 11.3882159,9.28576388 C16.8402655,9.10385426 22.2842141,8.807243 28,9.17643888 C27.3996174,10.018779 26.9243521,10.7043005 26.4265837,11.3745882 C26.1880509,11.6962904 25.8451037,11.4776404 25.5543637,11.4704716 C24.3580992,11.4409001 23.9008364,11.7590179 23.4201703,13.0574762 C23.9476428,13.0574762 24.4499119,13.0574762 25.0853992,13.0574762 C24.6416382,14.0530506 24.247384,14.9384038 23.8522297,15.8237571 L23.8657315,15.8049388 C23.8000225,15.8246532 23.7289127,15.8712507 23.6695046,15.8596013 C21.8890597,15.5146003 19.2300941,21.0292399 18.494693,22.5427638 C18.2651615,23.015908 18.0095263,23.1601812 17.4640513,23.1073109 C14.5800548,22.8250374 9.46645164,22.5983224 6.57885459,22.3527892 C11.1532836,22.1278665 13.0561452,22.2031394 14.7672805,21.9782167" id="Fill-1" fill="#FF9500"></path>
        </g>
    </g>
</svg>