<?xml version="1.0" encoding="UTF-8"?>
<svg width="750px" height="524px" viewBox="0 0 750 524" version="1.1" xmlns="http://www.w3.org/2000/svg" xmlns:xlink="http://www.w3.org/1999/xlink">
    <!-- Generator: Sketch 51.3 (57544) - http://www.bohemiancoding.com/sketch -->
    <title>Artboard 3</title>
    <desc>Created with Sketch.</desc>
    <defs></defs>
    <g id="Artboard-3" stroke="none" stroke-width="1" fill="none" fill-rule="evenodd">
        <g id="Group" transform="translate(34.000000, 22.000000)">
            <path d="M36.9996371,166.809005 C46.6181706,156.549274 56.9326888,150.393853 67.9431917,148.342744 C85.378458,145.094787 103.985417,146.970013 116.906647,161.188831 C125.520801,170.668044 129.118191,188.053974 127.698816,213.346621 L127.698816,289.666174 L91.0249144,289.666174 L91.0249144,195.851742 C90.3687994,180.202849 82.1088467,173.084605 66.2450563,174.497008 C58.1258899,175.219883 48.3774171,181.592406 36.999638,193.614575 L36.999638,290 L0,290 L0,0 L36.999638,0 L36.999638,166.808978 Z" id="Combined-Shape" fill="#333333" fill-rule="nonzero"></path>
            <polygon id="Path-3-Copy" fill="#333333" fill-rule="nonzero" points="319 0 319 290 356 290 356 0"></polygon>
            <path d="M426.949289,280.075448 L426.949289,438 L390,438 L390,148.284989 L426.949289,148.284989 L426.949289,165.947507 C436.58418,155.267451 449.134249,147.65468 464.050016,147.062335 C500.645048,145.60905 523,169.572869 523,218.353384 C523,267.133899 499.487257,293.298375 464.050016,293.298375 C449.358256,293.298375 436.71609,288.750763 426.949289,280.075448 Z M426.949289,253.17513 C433.909232,260.950617 443.712791,265.259145 452.253482,266.26493 C467.845001,267.683265 485.979707,259.890798 485.979707,219.135933 C485.979707,178.381067 467.899595,170.482202 450.787197,174.540326 C441.577237,176.724424 432.951696,184.743355 426.949289,194.361007 L426.949289,253.17513 Z" id="Combined-Shape" fill="#333333" fill-rule="nonzero"></path>
            <path d="M156.48943,195.111383 C163.271347,168.170987 180.59471,152.276569 208.45952,147.428129 C250.256734,140.15547 274.699547,162.652574 279.067691,170.097271 C283.435834,177.541967 296.391825,190.597208 293.613266,227.88939 C293.614796,227.868861 259.581824,227.868861 191.514351,227.88939 C193.627273,255.342721 204.870728,269.069386 225.244715,269.069386 C245.510661,269.069386 256.50729,254.366787 256.50729,247.796313 C256.50729,247.834326 267.845131,247.834326 290.520813,247.796313 C284.140994,277.932104 262.382294,293 225.244715,293 C169.538346,293 157.488176,249.758009 155.722689,239.871197 C153.957201,229.984384 153.676894,214.030337 154.305379,208.425196 C154.724369,204.688435 155.452386,200.250498 156.48943,195.111383 Z M256.187672,205.240722 C256.187672,189.004402 244.857624,169.354081 224.242376,169.354081 C203.627128,169.354081 192.29708,188.644917 192.29708,205.240722 C192.29708,205.352137 256.187672,205.356605 256.187672,205.240722 Z" id="Combined-Shape" fill="#333333" fill-rule="nonzero"></path>
            <path d="M582,323 L613.596791,323 L638.728808,408.890026 L639.181667,408.890026 L665.248865,323 L696,323 L650.98687,445.768374 C648.873517,451.072005 646.797935,456.148261 644.760059,460.997294 C642.722184,465.846328 640.231484,470.127052 637.287886,473.839593 C634.344288,477.552135 630.683715,480.50697 626.306057,482.704189 C621.928398,484.901407 616.343193,486 609.550275,486 C603.512126,486 596.5973,485.08668 590.710104,484.177486 L590.710104,458.935821 C592.823457,459.238886 595.813544,460.038558 597.775942,460.417389 C599.738341,460.79622 601.776186,460.985633 603.889538,460.985633 C606.908613,460.985633 609.999888,460.172498 612.533433,458.307592 C615.066979,456.442685 618.790577,452.216949 619.696299,450.247029 C620.300114,448.933749 622.010858,445.040795 624.828531,438.568167 L582,323 Z" id="у" fill="#333333"></path>
            <rect id="Rectangle" fill="#A8C12A" fill-rule="nonzero" x="0" y="367" width="357" height="27" rx="5"></rect>
            <path d="M534,56.087212 L556.862045,78.7519435 C568.259972,63.4559682 579.661209,53.8728417 591.065755,50.002564 C608.172574,44.1971473 628.210659,44.6883808 640.468058,50.002564 C652.725456,55.3167471 659.125668,70.4743163 659.125668,78.7519435 C659.125668,87.0295707 661.416531,101.142791 641.961186,118.983427 C629.568883,130.347223 614.680856,139.937627 606.585505,146.222436 C598.490153,152.507244 576.135237,166.661338 558.776763,190.99229 C541.418288,215.323243 538.133936,250.64961 538.133936,256.72056 C538.133936,260.76786 538.133936,271.527673 538.133936,289 L693.680486,289 L693.680486,254.58525 L575.22196,254.58525 C575.311941,227.864673 586.457641,205.647035 608.659059,187.932336 C641.961186,161.360288 660.925853,152.94129 671.680766,140.573423 C682.435679,128.205556 702.886891,107.662651 693.680486,65.5232094 C684.474081,23.3837678 641.900941,10.0257728 613.306172,11.0545321 C584.711403,12.0832914 560.344216,25.4125313 548.350813,37.7075476 C540.355211,45.9042252 535.571607,52.03078 534,56.087212 Z" id="Path-6" fill="#A8C12A" fill-rule="nonzero"></path>
            <path d="M536.609096,366.621687 L536.609096,363.461013 C536.709071,355.143276 535.93445,349.612152 534.285232,346.86764 C530.194699,340.060464 521.097733,338.240255 515.049396,338.240255 C509.001058,338.240255 499.07601,339.196162 494.584562,343.427015 C491.590263,346.247584 489.787734,350.270254 489.176974,355.495025 L461.630252,355.495025 C461.357642,353.964211 462.387114,349.390467 464.718666,341.773794 C468.215994,330.348784 483.249405,323.904145 490.257537,322.022644 C497.265669,320.141143 518.440179,315.620084 543.598048,323.404181 C560.369962,328.593579 568.126695,341.945856 566.868248,363.461013 L566.868248,438.52047 L536.609096,438.52047 L536.609096,427.684878 C527.504198,435.713939 514.619428,441 502.849082,441 C477.527333,441 457,432.549206 457,404.609087 C457,380.869564 481.449544,370.247798 505.489519,367.89061 C520.125234,366.732087 530.003854,365.859307 536.609107,366.621688 Z M536.609096,384.384904 C533.851023,384.263381 529.191585,384.501683 521.629385,384.501683 C502.243948,385.590856 487.983939,388.942987 487.983939,404.278758 C487.983939,423.094388 510.254095,422.741785 516.542254,420.607398 C528.186844,416.941512 534.912014,410.919188 536.609096,408.388517 L536.609096,384.384904 Z" id="Combined-Shape" fill="#333333" fill-rule="nonzero"></path>
        </g>
    </g>
</svg>