<?xml version="1.0" encoding="UTF-8"?>
<svg width="52px" height="52px" viewBox="0 0 52 52" version="1.1" xmlns="http://www.w3.org/2000/svg" xmlns:xlink="http://www.w3.org/1999/xlink">
    <!-- Generator: Sketch 51.3 (57544) - http://www.bohemiancoding.com/sketch -->
    <title>kasikornbank</title>
    <desc>Created with Sketch.</desc>
    <defs></defs>
    <g id="kasikornbank" stroke="none" stroke-width="1" fill="none" fill-rule="evenodd">
        <g id="Bank_Mandiri_logo" transform="translate(10.000000, 23.000000)">
            <g id="g19740" transform="translate(3.751664, 6.755390) scale(-1, 1) rotate(-180.000000) translate(-3.751664, -6.755390) translate(0.751664, 3.255390)"></g>
            <g id="g19748" transform="translate(17.331859, 5.318021) scale(-1, 1) rotate(-180.000000) translate(-17.331859, -5.318021) translate(13.831859, 0.318021)"></g>
        </g>
        <g id="RHB_Logo" transform="translate(11.000000, 16.000000)">
            <g id="g148" transform="translate(6.974713, 9.227083) scale(-1, 1) rotate(-180.000000) translate(-6.974713, -9.227083) translate(0.336416, 0.652615)"></g>
            <g id="g152" transform="translate(18.844644, 9.057566) scale(-1, 1) rotate(-180.000000) translate(-18.844644, -9.057566) translate(12.759537, 0.483098)"></g>
        </g>
        <rect id="Rectangle" fill="#EC1B2E" fill-rule="nonzero" x="0" y="0" width="52" height="52" rx="4"></rect>
        <g id="Group-35" transform="translate(7.500000, 7.000000)" fill-rule="nonzero">
            <path d="M6.77721687,28.0955615 C8.84711072,27.9475046 10.5599261,26.5249969 12.6269169,26.4350015 C14.708423,26.3217815 16.3631769,27.9823415 18.4185553,27.9968569 C20.7816599,28.0549185 22.6889815,25.9269631 25.1072446,26.4756446 C26.8723153,26.9198154 28.4225584,28.0984646 30.3211707,28.0433062 C30.2485938,28.1594292 30.1005369,28.3916754 30.0250569,28.5077985 L29.9379646,28.4961862 C28.1380569,28.4671554 26.672003,27.3175369 24.9707999,26.9372338 C22.6280169,26.5133846 20.7613384,28.56586 18.4533923,28.4729615 C16.2789876,28.5310231 14.5545599,26.6556354 12.3540276,26.8994938 C10.557023,27.13174 9.04451995,28.3307108 7.21848456,28.4700585 C7.40718456,28.6094062 7.60169072,28.7458508 7.79619687,28.8793923 C9.47417533,28.2784554 11.0824799,27.2420569 12.9201276,27.2885062 C14.9784092,27.32044 16.6302599,28.9984185 18.7146692,28.8387492 C20.6829553,28.7748815 22.256423,27.2391538 24.2392246,27.2536692 C26.1610615,27.2420569 27.6938861,28.6587585 29.5692738,28.9084231 C29.4589569,29.0013215 29.2354199,29.1842154 29.125103,29.2742108 C27.3484199,28.9606785 25.8475292,27.58462 23.9779476,27.7471923 C22.0415953,27.9300862 20.4419999,29.4019462 18.4504892,29.3264662 C16.2789876,29.3758185 14.5487538,27.5207523 12.3511246,27.7529985 C10.7486261,27.9358923 9.3899861,28.9519692 7.8049061,29.2161492 C7.18074456,29.2306646 7.00946303,28.5368292 6.77721687,28.0955615 Z" id="Shape" fill="#98867D"></path>
            <path d="M8.39132764,29.3525938 C9.94737687,29.0884138 11.3205323,28.0375 12.9462553,28.1710415 C14.9929246,28.2087815 16.6389692,29.8838569 18.7175723,29.7183815 C20.6829553,29.6545138 22.256423,28.1187862 24.2392246,28.1333015 C25.9084938,28.1187862 27.3339046,29.1116385 28.8173769,29.7416062 C28.6548046,29.7996677 28.3267569,29.9215969 28.1612815,29.9796585 C26.7765138,29.3090477 25.3278784,28.4294154 23.7253799,28.6471462 C21.8935384,28.9287446 20.3461984,30.2670631 18.4388769,30.2031954 C16.4473661,30.2612569 14.8651892,28.7197231 12.9056123,28.6210185 C11.4918138,28.5455385 10.2289753,29.2916292 8.96033072,29.7967646 C8.76872764,29.6487077 8.58002764,29.5006508 8.39132764,29.3525938 Z" id="Shape" fill="#98867D"></path>
            <path d="M8.85872303,30.2206138 C10.2289753,29.6022585 11.6630953,28.8590708 13.2162415,29.0390615 C15.1496907,29.2016338 16.7347707,30.7344585 18.7262815,30.5689831 C20.6858584,30.4993092 22.256423,28.9751938 24.2276123,28.981 C25.6094769,28.9374538 26.8055446,29.7009631 28.0567707,30.1625523 C27.9203261,30.3628646 27.7867846,30.56608 27.6590492,30.7721985 C26.3613738,29.6632231 24.483083,29.1174446 22.8399415,29.7154785 C21.388403,30.2177108 20.0181507,31.1234708 18.4243615,31.0567 C16.444463,31.0886338 14.8651892,29.5587123 12.9085153,29.47162 C11.6050338,29.3932369 10.443803,30.0725569 9.27095995,30.5312431 C9.16644918,30.45286 8.96323379,30.2960938 8.85872303,30.2206138 Z" id="Shape" fill="#98867D"></path>
            <path d="M9.66287533,30.6589785 C10.7370138,30.3599615 11.7763153,29.8054738 12.9259338,29.8954692 C14.9842153,29.9128877 16.6273569,31.6198969 18.7146692,31.4515185 C20.6829553,31.3818446 22.2593261,29.84902 24.2392246,29.8635354 C25.3656184,29.8083769 26.3555676,30.4093138 27.3948692,30.7315554 C27.2874553,30.8244538 27.0726276,31.0102508 26.9623107,31.1031492 C25.9346215,30.7083308 24.8662892,30.2177108 23.7369923,30.4035077 C21.9109569,30.6967185 20.3461984,32.0060062 18.4388769,31.9363323 C16.6128415,31.9682662 15.1293692,30.6793 13.3730076,30.3947985 C12.3656399,30.2351292 11.3698846,30.5573708 10.4031599,30.7896169 C10.5802476,30.9086431 10.7602384,31.0247662 10.9431323,31.1437923 C12.9404492,30.1248123 15.0277615,31.2715277 16.8857307,32.0292308 C18.7349907,32.7753215 20.6219907,31.8811738 22.3028723,31.1350831 C23.6789307,30.4876969 25.2233676,30.7576831 26.6081353,31.2250785 C26.5123338,31.2947523 26.3236338,31.4341 26.2278323,31.5037738 C25.2872353,31.3673292 24.3292199,31.0421846 23.3799138,31.2889462 C21.6961292,31.6895708 20.218463,32.8595108 18.4243615,32.7869338 C16.6389692,32.8217708 15.1932369,31.5705446 13.4862276,31.2599154 C12.6124015,31.0886338 11.7385753,31.3353954 10.8821676,31.4776462 C10.7805599,31.4950646 10.5773446,31.5240954 10.4728338,31.5415138 C10.2957461,31.1670169 10.0025353,30.8854185 9.66287533,30.6589785 Z" id="Shape" fill="#98867D"></path>
            <path d="M26.6458753,2.28430462 C30.6637338,4.30774923 33.8658276,7.88143692 35.427683,12.0996077 C36.8763184,15.8823169 36.9517984,20.1585492 35.7121846,24.0080292 C34.4145092,28.0142754 31.6798107,31.5357077 28.1090261,33.7710769 C24.0998769,36.3373969 19.0427169,37.1618708 14.4152123,36.07612 C10.2086538,35.1152015 6.41433226,32.5488815 3.88865533,29.0593831 C1.6910261,26.0401831 0.451412256,22.3358569 0.442703025,18.5966938 C0.375932256,14.1375677 2.08294149,9.69295692 5.06730456,6.38635231 C7.86877379,3.24232 11.7995399,1.11436462 15.9741646,0.527943078 C19.5972046,0.0140984624 23.3857199,0.606326155 26.6458753,2.28430462 Z M9.19547995,6.45892923 C5.6537261,9.18782154 3.43867841,13.5482431 3.3515861,18.0189815 C3.21804456,21.6536338 4.49539841,25.2766738 6.77721687,28.0955615 C7.00946303,28.5368292 7.18074456,29.2306646 7.8049061,29.2161492 C8.14746918,29.5587123 8.49874149,29.8954692 8.85872303,30.2206138 C8.96323379,30.2960938 9.16644918,30.45286 9.27095995,30.5312431 C9.36966456,30.5631769 9.56417072,30.6270446 9.66287533,30.6589785 C10.0025353,30.8854185 10.2957461,31.1670169 10.4728338,31.5415138 C10.5773446,31.5240954 10.7805599,31.4950646 10.8821676,31.4776462 C15.4080646,34.4068508 21.6641953,34.3255646 26.2278323,31.5037738 C26.3236338,31.4341 26.5123338,31.2947523 26.6081353,31.2250785 C26.6981307,31.1931446 26.8752184,31.13218 26.9623107,31.1031492 C27.0726276,31.0102508 27.2874553,30.8244538 27.3948692,30.7315554 L27.6590492,30.7721985 C27.7867846,30.56608 27.9203261,30.3628646 28.0567707,30.1625523 L28.4109461,30.2902877 L28.1612815,29.9796585 C28.3267569,29.9215969 28.6548046,29.7996677 28.8173769,29.7416062 C28.9189846,29.58484 29.0205923,29.4309769 29.125103,29.2742108 C29.2354199,29.1842154 29.4589569,29.0013215 29.5692738,28.9084231 C29.6621723,28.8068154 29.8479692,28.6006969 29.9379646,28.4961862 C30.1005369,28.3916754 30.2485938,28.1594292 30.3211707,28.0433062 C33.8832461,23.6886908 34.7396538,17.3367585 32.3823553,12.2215369 C30.4489061,7.84950308 26.3352461,4.51096462 21.6438738,3.57327077 C17.3357076,2.64718923 12.6559476,3.72713385 9.19547995,6.45892923 Z" id="Shape" fill="#EC1B2E"></path>
            <path d="M21.6438738,3.57327077 C26.3352461,4.51096462 30.4489061,7.84950308 32.3823553,12.2215369 C34.7396538,17.3367585 33.8832461,23.6886908 30.3211707,28.0433062 C28.4225584,28.0984646 26.8723153,26.9198154 25.1072446,26.4756446 C22.6889815,25.9269631 20.7816599,28.0549185 18.4185553,27.9968569 C16.3631769,27.9823415 14.708423,26.3217815 12.6269169,26.4350015 C10.5599261,26.5249969 8.84711072,27.9475046 6.77721687,28.0955615 C4.49539841,25.2766738 3.21804456,21.6536338 3.3515861,18.0189815 C3.43867841,13.5482431 5.6537261,9.18782154 9.19547995,6.45892923 C12.6559476,3.72713385 17.3357076,2.64718923 21.6438738,3.57327077 Z M20.0384723,12.6686108 C18.9788492,13.4292169 18.1659876,14.6310908 18.1950184,15.9752154 C18.1775999,19.7521185 18.1834061,23.5290215 18.1950184,27.3088277 C18.3721061,27.3001185 18.7262815,27.2827 18.9004661,27.2739908 C18.8946599,25.2534492 18.8888538,23.2329077 18.8946599,21.2123662 C18.8946599,20.33854 19.0514261,19.3427846 19.8265476,18.8086185 C21.2577646,17.7054492 22.8109107,16.7764646 24.3088984,15.772 C25.4236799,15.0404246 26.7358707,14.1811138 26.9652138,12.7586062 C27.0813369,10.7322585 26.9303769,8.70010462 27.0406938,6.67085385 C26.6255538,7.62306308 26.105903,8.57527231 25.2669138,9.21975539 C23.6121599,10.4971092 21.7309661,11.4435123 20.0384723,12.6686108 Z M9.92124918,12.7992492 C10.2870369,14.8110815 12.2379046,15.7952246 13.6952492,16.9506492 C14.9609907,17.9057615 16.4415599,18.9247415 16.6999338,20.6230415 C16.9641138,22.8322831 16.7812199,25.0734585 16.8102507,27.2972154 C16.9902415,27.3146338 17.3560292,27.3494708 17.538923,27.3697923 C17.5273107,23.5725677 17.5418261,19.7782462 17.5331169,15.9839246 C17.5650507,15.0665523 17.3153861,14.1056338 16.6128415,13.4756662 C14.8884138,11.8963923 12.9143215,10.6074262 11.2305369,8.9788 C10.5918599,8.36625077 10.1738169,7.57371077 9.79351379,6.78407385 C9.91544303,8.78719692 9.68319687,10.8077385 9.92124918,12.7992492 Z M25.6385076,15.6239431 C23.9314984,16.8142046 22.1228815,17.8651185 20.4594184,19.1192477 C19.690103,19.6447046 19.4781784,20.6114292 19.4491476,21.4823523 C19.3968923,23.4187046 19.4723723,25.3550569 19.4143107,27.2885062 C19.6001076,27.3088277 19.9746046,27.3494708 20.1633046,27.3697923 C20.1487892,26.2956538 20.0878246,25.0821677 20.897783,24.2460815 C22.331903,22.7306754 24.2972861,21.8742677 25.8881723,20.5504646 C26.5762015,19.9959769 26.9013461,19.1163446 26.9448923,18.2541308 C27.0174692,16.9129092 26.9419892,15.5687846 27.0000507,14.22466 C26.5936199,14.7326985 26.1871892,15.2581554 25.6385076,15.6239431 Z" id="Shape" fill="#FFFFFF"></path>
            <path d="M18.4533923,28.4729615 C20.7613384,28.56586 22.6280169,26.5133846 24.9707999,26.9372338 C26.672003,27.3175369 28.1380569,28.4671554 29.9379646,28.4961862 C29.8479692,28.6006969 29.6621723,28.8068154 29.5692738,28.9084231 C27.6938861,28.6587585 26.1610615,27.2420569 24.2392246,27.2536692 C22.256423,27.2391538 20.6829553,28.7748815 18.7146692,28.8387492 C16.6302599,28.9984185 14.9784092,27.32044 12.9201276,27.2885062 C11.0824799,27.2420569 9.47417533,28.2784554 7.79619687,28.8793923 C7.60169072,28.7458508 7.40718456,28.6094062 7.21848456,28.4700585 C9.04451995,28.3307108 10.557023,27.13174 12.3540276,26.8994938 C14.5545599,26.6556354 16.2789876,28.5310231 18.4533923,28.4729615 Z" id="Shape" fill="#FFFFFF"></path>
            <path d="M7.8049061,29.2161492 C9.3899861,28.9519692 10.7486261,27.9358923 12.3511246,27.7529985 C14.5487538,27.5207523 16.2789876,29.3758185 18.4504892,29.3264662 C20.4419999,29.4019462 22.0415953,27.9300862 23.9779476,27.7471923 C25.8475292,27.58462 27.3484199,28.9606785 29.125103,29.2742108 C29.0205923,29.4309769 28.9189846,29.58484 28.8173769,29.7416062 C27.3339046,29.1116385 25.9084938,28.1187862 24.2392246,28.1333015 C22.256423,28.1187862 20.6829553,29.6545138 18.7175723,29.7183815 C16.6389692,29.8838569 14.9929246,28.2087815 12.9462553,28.1710415 C11.3205323,28.0375 9.94737687,29.0884138 8.39132764,29.3525938 C8.58002764,29.5006508 8.76872764,29.6487077 8.96033072,29.7967646 C10.2289753,29.2916292 11.4918138,28.5455385 12.9056123,28.6210185 C14.8651892,28.7197231 16.4473661,30.2612569 18.4388769,30.2031954 C20.3461984,30.2670631 21.8935384,28.9287446 23.7253799,28.6471462 C25.3278784,28.4294154 26.7765138,29.3090477 28.1612815,29.9796585 L28.4109461,30.2902877 L28.0567707,30.1625523 C26.8055446,29.7009631 25.6094769,28.9374538 24.2276123,28.981 C22.256423,28.9751938 20.6858584,30.4993092 18.7262815,30.5689831 C16.7347707,30.7344585 15.1496907,29.2016338 13.2162415,29.0390615 C11.6630953,28.8590708 10.2289753,29.6022585 8.85872303,30.2206138 C8.49874149,29.8954692 8.14746918,29.5587123 7.8049061,29.2161492 Z" id="Shape" fill="#FFFFFF"></path>
            <path d="M9.27095995,30.5312431 C10.443803,30.0725569 11.6050338,29.3932369 12.9085153,29.47162 C14.8651892,29.5587123 16.444463,31.0886338 18.4243615,31.0567 C20.0181507,31.1234708 21.388403,30.2177108 22.8399415,29.7154785 C24.483083,29.1174446 26.3613738,29.6632231 27.6590492,30.7721985 L27.3948692,30.7315554 C26.3555676,30.4093138 25.3656184,29.8083769 24.2392246,29.8635354 C22.2593261,29.84902 20.6829553,31.3818446 18.7146692,31.4515185 C16.6273569,31.6198969 14.9842153,29.9128877 12.9259338,29.8954692 C11.7763153,29.8054738 10.7370138,30.3599615 9.66287533,30.6589785 C9.56417072,30.6270446 9.36966456,30.5631769 9.27095995,30.5312431 Z" id="Shape" fill="#FFFFFF"></path>
            <path d="M10.4031599,30.7896169 C11.3698846,30.5573708 12.3656399,30.2351292 13.3730076,30.3947985 C15.1293692,30.6793 16.6128415,31.9682662 18.4388769,31.9363323 C20.3461984,32.0060062 21.9109569,30.6967185 23.7369923,30.4035077 C24.8662892,30.2177108 25.9346215,30.7083308 26.9623107,31.1031492 C26.8752184,31.13218 26.6981307,31.1931446 26.6081353,31.2250785 C25.2233676,30.7576831 23.6789307,30.4876969 22.3028723,31.1350831 C20.6219907,31.8811738 18.7349907,32.7753215 16.8857307,32.0292308 C15.0277615,31.2715277 12.9404492,30.1248123 10.9431323,31.1437923 C10.7602384,31.0247662 10.5802476,30.9086431 10.4031599,30.7896169 Z" id="Shape" fill="#FFFFFF"></path>
            <path d="M10.8821676,31.4776462 C11.7385753,31.3353954 12.6124015,31.0886338 13.4862276,31.2599154 C15.1932369,31.5705446 16.6389692,32.8217708 18.4243615,32.7869338 C20.218463,32.8595108 21.6961292,31.6895708 23.3799138,31.2889462 C24.3292199,31.0421846 25.2872353,31.3673292 26.2278323,31.5037738 C21.6641953,34.3255646 15.4080646,34.4068508 10.8821676,31.4776462 Z" id="Shape" fill="#FFFFFF"></path>
            <path d="M25.2669138,9.21975539 C26.105903,8.57527231 26.6255538,7.62306308 27.0406938,6.67085385 C26.9303769,8.70010462 27.0813369,10.7322585 26.9652138,12.7586062 C26.7358707,14.1811138 25.4236799,15.0404246 24.3088984,15.772 C22.8109107,16.7764646 21.2577646,17.7054492 19.8265476,18.8086185 C19.0514261,19.3427846 18.8946599,20.33854 18.8946599,21.2123662 C18.8888538,23.2329077 18.8946599,25.2534492 18.9004661,27.2739908 C18.7262815,27.2827 18.3721061,27.3001185 18.1950184,27.3088277 C18.1834061,23.5290215 18.1775999,19.7521185 18.1950184,15.9752154 C18.1659876,14.6310908 18.9788492,13.4292169 20.0384723,12.6686108 C21.7309661,11.4435123 23.6121599,10.4971092 25.2669138,9.21975539 Z" id="Shape" fill="#00A84F"></path>
            <path d="M9.79351379,6.78407385 C10.1738169,7.57371077 10.5918599,8.36625077 11.2305369,8.9788 C12.9143215,10.6074262 14.8884138,11.8963923 16.6128415,13.4756662 C17.3153861,14.1056338 17.5650507,15.0665523 17.5331169,15.9839246 C17.5418261,19.7782462 17.5273107,23.5725677 17.538923,27.3697923 C17.3560292,27.3494708 16.9902415,27.3146338 16.8102507,27.2972154 C16.7812199,25.0734585 16.9641138,22.8322831 16.6999338,20.6230415 C16.4415599,18.9247415 14.9609907,17.9057615 13.6952492,16.9506492 C12.2379046,15.7952246 10.2870369,14.8110815 9.92124918,12.7992492 C9.68319687,10.8077385 9.91544303,8.78719692 9.79351379,6.78407385 Z" id="Shape" fill="#00A84F"></path>
            <path d="M25.6385076,15.6239431 C26.1871892,15.2581554 26.5936199,14.7326985 27.0000507,14.22466 C26.9419892,15.5687846 27.0174692,16.9129092 26.9448923,18.2541308 C26.9013461,19.1163446 26.5762015,19.9959769 25.8881723,20.5504646 C24.2972861,21.8742677 22.331903,22.7306754 20.897783,24.2460815 C20.0878246,25.0821677 20.1487892,26.2956538 20.1633046,27.3697923 C19.9746046,27.3494708 19.6001076,27.3088277 19.4143107,27.2885062 C19.4723723,25.3550569 19.3968923,23.4187046 19.4491476,21.4823523 C19.4781784,20.6114292 19.690103,19.6447046 20.4594184,19.1192477 C22.1228815,17.8651185 23.9314984,16.8142046 25.6385076,15.6239431 Z" id="Shape" fill="#00A84F"></path>
        </g>
    </g>
</svg>