<?xml version="1.0" encoding="UTF-8"?>
<svg width="52px" height="52px" viewBox="0 0 52 52" version="1.1" xmlns="http://www.w3.org/2000/svg" xmlns:xlink="http://www.w3.org/1999/xlink">
    <!-- Generator: Sketch 51.3 (57544) - http://www.bohemiancoding.com/sketch -->
    <title>krungthai_bank</title>
    <desc>Created with Sketch.</desc>
    <defs></defs>
    <g id="krungthai_bank" stroke="none" stroke-width="1" fill="none" fill-rule="evenodd">
        <rect id="Rectangle" fill="#00A2E6" fill-rule="nonzero" x="0" y="0" width="52" height="52" rx="4"></rect>
        <g id="Group-3" transform="translate(10.000000, 10.000000)" fill="#FFFFFF">
            <path d="M16.4474587,0.0888046048 C17.1582283,-0.10205769 18.2223565,0.0284256623 18.5680158,0.349366082 C18.6462248,0.422307086 18.906381,0.547522477 19.1462759,0.627757582 C19.3861707,0.707992687 19.6933334,0.861574024 19.8286795,0.968959392 C20.1354369,1.21169085 20.2955019,1.27247502 20.7906903,1.33325919 C21.2303625,1.38715448 21.3101923,1.48684052 21.3101923,1.9791923 C21.3101923,2.31917843 21.2084802,2.37347896 20.9803369,2.15506117 C20.7355793,1.92043427 20.0045484,1.90057811 19.5855428,2.11656453 C19.4384451,2.19274736 19.1774784,2.28554452 19.0060671,2.32282548 C18.8220936,2.36334826 18.6352836,2.45898202 18.550591,2.55623669 C18.4715716,2.64741295 18.3666176,2.72156964 18.317585,2.72156964 C18.2681472,2.72156964 18.1644089,2.79005314 18.0870104,2.87353006 C18.0092067,2.95700699 17.8694031,3.0781701 17.7766059,3.14260132 C17.568724,3.28605197 17.020856,3.99682153 16.953183,4.21078181 C16.9256275,4.29669011 16.8312094,4.50295106 16.7428698,4.66868923 C16.4944651,5.13632211 16.5317461,5.71985015 16.8295885,6.01728736 C16.8794315,6.06713038 16.9203596,6.14412366 16.9203596,6.18788826 C16.9207648,6.31472456 17.4491818,6.77708949 17.6846192,6.85610891 C17.8029457,6.89582123 17.9561218,6.97686679 18.0250105,7.03684051 C18.2859772,7.26295762 19.194498,7.22648712 19.7306144,6.96795178 C20.5653836,6.5659658 20.8158144,6.15871186 20.8672784,5.11930255 C20.9025332,4.40772252 21.1456699,3.83513564 21.4734991,3.69330591 C21.6250543,3.62806423 21.8057859,3.52675728 21.8746747,3.46880971 C22.0801252,3.29537221 23.2893249,3.32495384 23.6402522,3.51176385 C23.7889708,3.59078327 24.0369702,3.67547589 24.191362,3.70019478 C24.346159,3.72450845 24.525675,3.80312264 24.5905114,3.87484796 C24.6557531,3.94657329 24.8320272,4.03856 24.9831771,4.07908278 C25.1339219,4.12001078 25.3442351,4.22618047 25.4504048,4.31533059 C25.5565745,4.4044807 25.6971885,4.47742171 25.7632407,4.47742171 C25.8292928,4.47742171 25.9593709,4.54793134 26.0521681,4.63424487 C26.1449653,4.72015316 26.3208341,4.83199603 26.4424025,4.88224428 C26.5639708,4.93289776 26.7341665,5.04474063 26.82048,5.13105415 C26.9067935,5.21736767 27.0157998,5.28787731 27.062401,5.28787731 C27.1094074,5.28787731 27.2094987,5.34947194 27.2848711,5.42484431 C27.4177858,5.5573538 27.9016278,5.9261111 28.1245031,6.06469901 C28.2878099,6.16641119 29.3486963,7.19163753 29.741362,7.62766264 C29.9658582,7.87728297 30.0015182,8.18647178 29.8276755,8.38624909 C29.6886824,8.54631407 29.6886824,8.54712453 29.8220023,8.71610452 C29.8953486,8.80930692 29.9553223,8.92641775 29.9553223,8.97626077 C29.9553223,9.02610379 30.0327208,9.11768527 30.1271389,9.17968513 C30.2219622,9.24168498 30.3435305,9.38675653 30.397831,9.50224646 C30.5121053,9.74457268 30.7645622,10.122245 30.9477252,10.3248589 C31.0178296,10.4022574 31.1142738,10.5967668 31.1624959,10.7576422 C31.210718,10.9185176 31.3083779,11.1288309 31.3792928,11.2252751 C31.4530442,11.3253663 31.5361159,11.6025422 31.5729917,11.8728291 C31.6082465,12.1329854 31.6844293,12.5584745 31.7419717,12.8186308 C31.8894746,13.4876619 31.8765073,14.640535 31.7119848,15.4599056 C31.6382333,15.8274472 31.5511094,16.3862564 31.5182859,16.7019288 C31.4854625,17.0176013 31.3950967,17.428097 31.3176982,17.6136914 C31.2398944,17.7992857 31.1584436,18.0655204 31.1365613,18.2049187 C31.1049536,18.4075326 31.0534896,18.4780423 30.8808626,18.5554408 C30.4229552,18.7596756 30.0825638,19.3067331 29.9861196,19.993189 C29.9614007,20.1702736 29.8710349,20.4215148 29.7855318,20.5515929 C29.7000288,20.6816711 29.6080421,20.8944157 29.581297,21.0244938 C29.554552,21.1541667 29.4451405,21.4244536 29.3385656,21.6246362 C29.2319907,21.8252239 29.1448667,22.0395894 29.1448667,22.1011841 C29.1448667,22.1631839 29.0690891,22.31636 28.9766971,22.4415754 C28.8843052,22.5667908 28.7898871,22.768189 28.7671944,22.8893521 C28.7445016,23.01011 28.6683188,23.1616652 28.5974039,23.2256912 C28.526489,23.2897172 28.4373389,23.4595077 28.3984371,23.6029583 C28.3599404,23.7464089 28.2537707,23.9737417 28.1625945,24.1082774 C28.0714182,24.2424078 27.9960459,24.4016623 27.9952354,24.4612308 C27.9948302,24.5212045 27.9036539,24.7039622 27.7926215,24.867269 C27.6819943,25.0305759 27.5912233,25.2315688 27.5912233,25.3134249 C27.5912233,25.3952809 27.5166614,25.5427838 27.4254851,25.6412541 C27.3343089,25.7393193 27.2386751,25.9313973 27.2131457,26.0671486 C27.1876164,26.2033051 27.1021133,26.4103765 27.0226887,26.5270821 C26.3107034,27.5766221 26.8216957,29.5326567 27.6763211,29.0281481 C28.0466993,28.8093251 28.1950127,28.9677692 27.88785,29.2546705 C27.5608312,29.5602122 26.7309247,29.623833 26.4407815,29.3652977 C25.9784166,28.9535862 25.7701295,27.9287651 26.0092139,27.2423092 C26.0663511,27.0773815 26.1449653,26.6822844 26.1838671,26.3641805 C26.222769,26.0428349 26.3228603,25.635581 26.4091738,25.4479605 C26.4946768,25.2623662 26.5854479,24.9584453 26.6109772,24.772851 C26.6365066,24.5868514 26.7159312,24.3400677 26.7868461,24.2241725 C26.8581662,24.1082774 26.9448849,23.8610884 26.980545,23.6746836 C27.0157998,23.4886841 27.1179172,23.2281226 27.2074725,23.0964235 C27.2970279,22.9643193 27.3898251,22.7341499 27.4137335,22.5846208 C27.4376419,22.4346865 27.528413,22.2073538 27.6155369,22.0788965 C27.8728566,21.6996033 27.902033,20.8891477 27.6584911,20.8891477 C27.560426,20.8891477 26.9833816,20.2894106 26.9833816,20.1876984 C26.9833816,20.1382606 26.9092249,19.9879211 26.8180486,19.8537907 C26.7268724,19.7196603 26.6202975,19.4323538 26.5809904,19.2151517 C26.5416833,18.9983548 26.4488861,18.6486432 26.3751346,18.43833 C26.2722068,18.1461607 26.240599,17.881547 26.240599,17.3146333 C26.240599,16.2197077 26.1376712,16.0697735 25.546849,16.305616 C25.0439613,16.5062038 24.2521462,16.5090404 23.6840168,16.3129101 C22.704176,15.9741397 22.1713014,16.1325838 22.6859407,16.6099421 C22.7836006,16.7007131 22.8638357,16.8170135 22.8638357,16.8684775 C22.8638357,16.9195362 22.9379924,17.0500195 23.0287635,17.1578101 C23.1191293,17.2656007 23.2293512,17.5034694 23.2731158,17.6862272 C23.3172856,17.8693901 23.4108933,18.1210366 23.4818081,18.2454415 C23.7460167,18.710643 23.8238204,21.650976 23.5964876,22.577732 C23.5000434,22.9720186 23.5016643,23.2986322 23.6041869,23.9623954 C23.7204873,24.7136877 23.6503829,26.1024034 23.4728931,26.5773304 C23.3995469,26.7734606 23.3087759,27.094401 23.2719001,27.2901261 C23.2346192,27.4858511 23.127639,27.7585694 23.0340314,27.8963469 C22.9404238,28.0345296 22.8626201,28.1933789 22.8609991,28.2497055 C22.8593782,28.3060322 22.768202,28.4575874 22.6583852,28.5860446 C22.5485685,28.7145018 22.4586079,28.8620047 22.4586079,28.9134687 C22.4586079,28.9649326 22.3747258,29.0921741 22.2726084,29.1963177 C22.170491,29.3004612 22.056622,29.4183825 22.019341,29.4580948 C21.7296031,29.7689045 21.147696,30.276655 21.0439577,30.3094784 C20.9742585,30.331766 20.8036576,30.4399618 20.6654749,30.5497785 C20.526887,30.6600005 20.3587175,30.7499611 20.2918549,30.7499611 C20.2245871,30.7499611 20.1281428,30.8091243 20.0774894,30.8816601 C20.025215,30.9566272 19.8404311,31.0457774 19.6515949,31.087921 C19.4680267,31.1288491 19.2163803,31.2220514 19.0923806,31.2949925 C18.3451405,31.7346646 15.0056582,31.7350698 14.446849,31.2958029 C14.3564832,31.2244828 14.1542746,31.1454634 13.9974514,31.119934 C13.8406283,31.0944047 13.6363934,31.002418 13.5435963,30.9156992 C13.4281064,30.8075034 13.233597,30.7349676 12.92765,30.6863403 C12.6816767,30.6470332 12.3473638,30.5574779 12.1848675,30.4873734 C12.0219659,30.4168638 11.7366855,30.3382496 11.5510912,30.312315 C11.3654968,30.2863805 11.1223602,30.2110081 11.0109225,30.1445507 C10.8994849,30.0780934 10.6486489,29.9719237 10.4537343,29.9083029 C10.2584145,29.8450874 10.09916,29.7648523 10.09916,29.7300027 C10.09916,29.6947479 10.0152778,29.629101 9.91316039,29.5833102 C9.67488645,29.4767353 8.91224772,28.7181489 8.85146355,28.5272866 C8.8259342,28.4470515 8.74691478,28.327104 8.67518946,28.2602414 C8.47338601,28.0722157 8.39355613,27.4505963 8.42232731,26.2916448 L8.44866711,25.2437257 L8.7327318,24.8056744 C8.9993717,24.393963 9.60397158,23.7934154 9.75187973,23.7934154 C9.78835023,23.7934154 9.91680744,23.7107489 10.0367549,23.6098472 C10.3880874,23.3144361 12.5305268,23.3030897 12.5305268,23.5968799 C12.5305268,23.6345661 12.635886,23.709128 12.7647484,23.7630233 C13.2469695,23.9644215 13.0082903,24.0422252 11.9234955,24.0369573 C10.99755,24.0324998 10.9019162,24.0434409 10.7219951,24.1767609 C10.6146097,24.2561855 10.4160481,24.3518193 10.2811072,24.3891002 C10.0468856,24.4535315 9.66191916,24.8008117 9.30612914,25.2688498 C8.98154168,25.6959599 8.9061693,27.3424005 9.19266536,27.7476283 C9.26398545,27.8481248 9.36772377,28.0158891 9.42364521,28.1200326 C9.51927897,28.2995485 9.88033694,28.6666849 10.3645842,29.0763702 C10.4837211,29.1776772 10.6851194,29.2891148 10.8123609,29.3239644 C10.9391972,29.3592192 11.0911576,29.4358073 11.1499156,29.4945653 C11.4663986,29.8114535 12.0312861,29.5407613 11.7755874,29.1946968 C11.5283984,28.8603838 11.5369082,27.2378517 11.787339,26.9108329 C12.2744228,26.2754357 12.3935598,26.1716973 12.6670885,26.1453575 C12.9766826,26.1161811 13.0062642,26.1834489 12.7667746,26.3718799 C12.6739774,26.4448209 12.5977946,26.5538272 12.5977946,26.6138009 C12.5977946,26.6737746 12.5374156,26.7868331 12.4636642,26.8654473 C12.2343052,27.1093945 12.096933,28.3327772 12.253351,28.7359789 C12.3339913,28.9438607 13.0585386,29.7368915 13.1679501,29.7368915 C13.2149565,29.7368915 13.3393615,29.8163162 13.4439102,29.9131656 C13.6927201,30.1437403 15.0810306,30.1303677 15.6710422,29.8912833 C15.8566366,29.8163162 16.1488058,29.7344602 16.319812,29.7093361 C16.4912233,29.6842119 16.7327391,29.5889834 16.8563336,29.4978071 C16.9803333,29.4062257 17.1355355,29.3316637 17.2011824,29.3316637 C17.2672346,29.3316637 17.4143322,29.2404875 17.5282013,29.1290498 C17.6420703,29.0176122 17.7648543,28.9264359 17.8005143,28.9264359 C17.8973638,28.9264359 18.6478457,28.1763593 18.7471265,27.9806343 C18.7941329,27.8878371 18.8889562,27.7723472 18.9570345,27.7237198 C19.025518,27.6750925 19.0814394,27.5960731 19.0814394,27.5482562 C19.0814394,27.5000341 19.1722105,27.3270018 19.2828376,27.163695 C19.7131896,26.5291083 19.5284057,25.9601684 18.9217797,26.0509395 C18.3832319,26.1311746 17.3195089,25.9739462 17.122163,25.7847048 C17.0257188,25.6923129 16.9163073,25.6169405 16.8790263,25.6169405 C16.8421506,25.6169405 16.7100463,25.5423786 16.5864518,25.4507971 C16.4624521,25.3596208 16.2209364,25.2660132 16.0499302,25.2433204 C15.6280881,25.187399 15.4092651,25.096628 15.2269126,24.9025239 C15.14222,24.8125633 15.0360503,24.7388118 14.9902595,24.7388118 C14.8731487,24.7388118 14.7592797,24.3704598 14.7592797,23.9915718 C14.7592797,23.4676122 14.9075931,23.2577042 14.9951223,23.6572588 C15.140599,24.3189958 16.0701916,24.6249428 16.2306618,24.0637023 C16.2780735,23.8963432 16.3396681,23.6835986 16.3672236,23.5908015 C16.4596155,23.2771551 16.5487657,23.4189849 16.5686218,23.9121471 C16.5945564,24.5451129 16.707615,24.6375049 17.4576916,24.6375049 C18.1344221,24.6375049 18.4513102,24.5633482 18.6247477,24.3635709 C18.7037671,24.2727999 18.8062897,24.1986432 18.8524857,24.1986432 C18.8986817,24.1986432 18.9926945,24.1273231 19.061178,24.0406043 C19.1296615,23.9534804 19.253256,23.846095 19.3359225,23.8019252 C19.4189942,23.7573501 19.4866672,23.6763045 19.4866672,23.6215988 C19.4866672,23.566893 19.5620396,23.4570763 19.6540263,23.3772464 C19.746013,23.2970113 19.8570454,23.1227634 19.90081,22.9890382 C19.9449799,22.8557182 20.0446659,22.6603984 20.1220644,22.5550392 C20.3356195,22.2661118 20.3356195,20.5929262 20.1220644,20.3039988 C20.0446659,20.1986395 19.943359,19.998457 19.8975682,19.8594639 C19.8513723,19.7200655 19.7918038,19.6061965 19.7642483,19.6061965 C19.737098,19.6061965 19.6151244,19.4732818 19.4939613,19.3115959 C19.372393,19.1495048 19.1580275,18.9521588 19.0174134,18.8731394 C18.8763942,18.79412 18.7256494,18.6859241 18.6818848,18.6332445 C18.4261861,18.3256766 17.7328413,18.4496763 17.3073521,18.8792178 C17.1501237,19.0376619 16.9150916,19.2471647 16.7854187,19.3448246 C16.1439431,19.8262352 16.0876164,19.934431 16.3506093,20.1783781 C16.8040592,20.5985994 16.4498901,21.0155788 15.985499,20.6079196 C15.711565,20.3672143 15.3156575,20.3878809 15.0283509,20.6573574 C14.7256458,20.9414221 13.1942899,21.0552911 12.457991,20.8486249 C11.8983714,20.6918018 11.6086335,20.9693828 11.8537963,21.4272902 C11.9044498,21.5221135 11.8931034,21.5614206 11.8047638,21.5954598 C11.6994045,21.6359825 11.5174573,21.4848326 11.5174573,21.3571858 C11.5174573,21.3312512 11.4566731,21.2943755 11.3821112,21.2749246 C11.2674317,21.2449377 11.2471703,21.1829379 11.2471703,20.8619974 C11.2471703,20.4669003 11.2390658,20.4806781 11.70913,20.0665353 C12.0272338,19.7865229 12.612788,19.729791 14.3313591,19.8124574 C14.8917892,19.8396077 14.9651354,19.8286665 15.1077756,19.6985884 C15.1948996,19.619569 15.3456443,19.5133993 15.4433042,19.4623406 C15.9397083,19.2038053 16.5613277,18.4679116 16.4539424,18.2669186 C16.355472,18.0833504 15.8517738,17.8009066 15.4700492,17.7154036 C15.2941804,17.6760965 15.0449653,17.5634431 14.9161028,17.4649728 C14.5420776,17.1796924 13.9901573,17.159431 13.8373864,17.4252605 C13.7745761,17.534672 13.6372039,17.6736651 13.5318447,17.734044 C13.3523288,17.8373771 13.3405771,17.871011 13.3381458,18.3029839 C13.3353092,18.7499501 13.3292308,18.765754 13.105545,18.907989 L12.8761861,19.0542762 L12.8324215,18.8549041 C12.7452975,18.4581861 12.2055341,18.3767353 11.8432604,18.7053751 C11.6114701,18.9152831 10.0711992,18.9262242 9.65948779,18.7207737 C9.30086118,18.5412578 9.22103131,18.5829963 9.06299246,19.0319887 C8.97870508,19.2722888 8.94669208,19.2998443 8.77365981,19.2807986 C8.49688922,19.2500012 8.46001349,19.1888118 8.46366054,18.7698063 C8.46811805,18.2632715 8.74407818,17.9698866 9.33044281,17.8491287 C9.5488606,17.8041484 9.8098273,17.725129 9.90991857,17.6736651 C10.1749376,17.5375086 10.938792,17.5589856 11.3821112,17.7149983 C12.1475865,17.9840696 12.9941074,17.6493514 13.2092833,16.9928824 C13.2558845,16.8514579 13.3381458,16.6670792 13.3928515,16.5836023 C13.4913219,16.4316419 13.2676361,16.086793 12.6144089,15.3849385 C12.545115,15.3107818 12.4357035,15.1081679 12.3712722,14.9351356 C12.1958086,14.4650714 11.7950383,14.4865484 11.4550522,14.9849786 C11.3650916,15.1166777 11.1977325,15.2718799 11.0834583,15.3294223 C10.969184,15.3873698 10.8147923,15.4898925 10.7406356,15.5575655 C10.5663876,15.7164148 9.89978788,15.8225845 9.07474407,15.8233949 L8.42192208,15.8238002 L8.18486382,16.147172 C8.05438046,16.3246617 7.92551802,16.5605043 7.89836776,16.6703211 C7.83069472,16.9450655 7.29295742,17.5618222 6.98336338,17.7194558 C6.84355979,17.7907759 6.70497188,17.8900567 6.67498502,17.9398998 C6.64540339,17.9897428 6.43873721,18.0663308 6.21667238,18.1100954 C5.65016391,18.2215331 5.57073926,18.3232453 5.49941917,19.0287469 C5.46294867,19.386563 5.40094881,19.6536081 5.33975941,19.7147975 C5.28505366,19.7699085 5.20603424,19.9425356 5.16510623,20.0989535 C5.09783842,20.3534366 4.99207396,20.5086388 4.70638836,20.7716316 C4.65654534,20.8178276 4.53821882,20.9268339 4.44380074,21.0139579 C4.21808886,21.2218397 4.25942209,22.1177984 4.52119925,22.6753919 C4.60913369,22.8630123 4.70233608,23.1535607 4.72867589,23.3205145 C4.75501569,23.4878736 4.84457104,23.7460037 4.92764274,23.8947223 C5.01071444,24.0434409 5.11566844,24.3372311 5.16105395,24.5479495 C5.20643947,24.758668 5.28586412,24.9661446 5.33773327,25.0090988 C5.38919721,25.0520529 5.46578526,25.2595296 5.50752372,25.470248 C5.54926219,25.6809665 5.63922276,25.9313973 5.7068958,26.0266258 C5.94962726,26.3682328 6.06430672,27.8858109 5.88479081,28.382215 C5.81590208,28.5726721 5.72756242,28.6476392 5.39568085,28.7955474 L4.99085828,28.9766842 L4.55645407,28.8332336 C4.09206301,28.6800574 3.90201117,28.3968032 4.29062463,28.437326 C4.77649277,28.4883847 4.83768217,28.4733913 5.07514566,28.245248 C5.37055673,27.9611833 5.39730176,27.218806 5.12539391,26.8508591 C5.04718494,26.7450947 4.96127665,26.5534219 4.93453161,26.4245595 C4.90778658,26.2961023 4.81620509,26.0845734 4.73070203,25.9544952 C4.64519896,25.8244171 4.54024496,25.6068098 4.49729081,25.470248 C4.45433667,25.3340915 4.37653293,25.187399 4.32466377,25.1440396 C4.27279461,25.1010855 4.19458564,24.954393 4.15082104,24.8178313 C4.10705644,24.6816747 4.01506973,24.507832 3.946181,24.4320544 C3.87729227,24.3562768 3.78530556,24.1889177 3.74235142,24.0604605 C3.69939727,23.9324085 3.61146284,23.7662651 3.54662639,23.6921084 C3.48219517,23.6179517 3.39142414,23.4355992 3.34522817,23.2868806 C3.2990322,23.138162 3.20623503,22.9558095 3.13896722,22.8816528 C3.07210463,22.8074961 2.97930746,22.5947515 2.93311149,22.408752 C2.88732075,22.2231576 2.79411836,21.9954196 2.72644532,21.9022172 C2.6591775,21.80942 2.57286398,21.5683095 2.53477256,21.3661008 C2.49708638,21.1638922 2.41887741,20.9268339 2.36133506,20.8388995 C2.30379272,20.750965 2.21342692,20.4523121 2.15993685,20.1743259 C2.106852,19.8967448 2.00230323,19.5352816 1.92774132,19.3711644 C1.85277417,19.2074523 1.79199,19.0011914 1.79199,18.9136622 C1.79199,18.6547216 1.63435639,18.5068135 1.31260551,18.4638593 L1.01678922,18.424147 L0.934527972,17.9711023 C0.889547686,17.7218872 0.805260303,17.4260709 0.747312727,17.314228 C0.478241467,16.7939155 0.470947366,12.0069595 0.738802944,11.6248297 C0.795940064,11.5433789 0.891979053,11.2544515 0.952357996,10.9825436 C1.01314217,10.7106358 1.09135113,10.4885709 1.12660595,10.4885709 C1.16186077,10.4885709 1.23844882,10.3747019 1.2963964,10.236114 C1.35434398,10.0971209 1.53507558,9.84628486 1.69797715,9.67892578 C1.99217254,9.37622061 2.05336194,9.22385496 1.93057791,9.10066571 C1.76402928,8.93411708 1.77618612,8.50092856 1.95286544,8.29588329 C2.04768875,8.18566133 2.14372773,8.01060292 2.16682572,7.9068646 C2.18951848,7.80312628 2.26448562,7.68804159 2.33296912,7.65116586 C2.40185785,7.61469535 2.47966158,7.516225 2.50600139,7.43234284 C2.5323412,7.34886592 2.65593568,7.16084021 2.78074584,7.01495821 C2.905556,6.8690762 3.00767341,6.71306349 3.00767341,6.66808321 C3.00767341,6.62350815 3.08101964,6.53841031 3.17138544,6.47965228 C3.26134601,6.42048902 3.35333273,6.31391411 3.37602548,6.24259401 C3.39871824,6.17127392 3.47652198,6.09752246 3.54946298,6.07847675 C3.62199876,6.05943105 3.71033842,5.96784956 3.74559324,5.87424194 C3.78125329,5.78103955 3.86797203,5.68621624 3.9388869,5.66392871 C4.00980177,5.64164118 4.1021937,5.54762833 4.14393217,5.45564162 C4.18607586,5.36324968 4.26469005,5.28787731 4.31939581,5.28787731 C4.37369633,5.28787731 4.46325168,5.22385132 4.51836266,5.14523712 C4.57306841,5.06662293 4.70395699,4.94627027 4.80891099,4.87778678 C4.91386499,4.80930328 5.16713237,4.61600961 5.37136718,4.44865053 C5.57560199,4.28088622 5.84143143,4.09893894 5.96218932,4.04382796 C6.0829472,3.9891222 6.18182279,3.91456029 6.18182279,3.87849501 C6.18182279,3.84242974 6.33418844,3.76259986 6.52059323,3.70060001 C6.70659279,3.63860016 6.90515441,3.54175071 6.96188631,3.48542405 C7.24027781,3.20703255 8.88388177,3.207843 9.02733242,3.48663973 C9.06907088,3.56728006 9.16389419,3.70019478 9.2384561,3.78245602 C9.35880876,3.91456029 9.36934468,3.99074312 9.33246895,4.45756554 C9.25669135,5.41106656 9.6027559,5.80535322 10.4367147,5.71660833 C10.8504523,5.6724385 11.2471703,5.5326349 11.2471703,5.43092273 C11.2471703,5.39445222 11.3156538,5.34420398 11.3991307,5.31907985 C11.5847251,5.26315842 12.0576259,4.82064966 12.0576259,4.70272836 C12.0576259,4.65572194 12.1151683,4.58642799 12.1856779,4.5487418 C12.2557823,4.51105561 12.3469586,4.38462454 12.3878866,4.2675137 C12.4284094,4.15040287 12.5349843,3.9818281 12.6245396,3.89227276 C12.714095,3.80271742 12.8056764,3.65602495 12.8283692,3.56565915 C12.8676763,3.40924122 13.0022119,3.23418281 13.3754267,2.85407913 C13.5788511,2.64700772 13.5877661,2.51247209 13.4086554,2.35038097 C13.2421068,2.19963623 13.3166687,2.0869829 13.6578705,1.97432957 C13.9212686,1.88761082 13.950445,1.56545472 13.7166285,1.33163828 C13.6039752,1.21898495 13.5776354,0.920332056 13.667596,0.778502325 C13.7064979,0.717312927 13.7470206,0.746489328 13.8094257,0.879809275 C13.8572426,0.982737137 13.9192424,1.11241003 13.9463927,1.16833147 C13.9759743,1.22830519 14.1117257,1.27814821 14.2798952,1.29030504 C14.5655808,1.31137689 14.6482473,1.26599137 15.1953048,0.783770286 C15.5438007,0.476607612 16.049525,0.196189973 16.4474587,0.0888046048 Z M22.6413657,25.6992017 C22.6782414,25.0001838 22.6733787,24.9637133 22.5185816,24.7902758 L22.357301,24.6095442 L21.8507662,25.0812293 C21.5719695,25.3409803 21.2656173,25.5703393 21.1695783,25.5914111 C20.8611999,25.6586789 20.5212138,26.0335147 20.4665081,26.3662067 C20.439763,26.5299187 20.3773579,26.7098399 20.3275149,26.7657613 C20.2780771,26.822088 20.1990577,27.0198391 20.1516461,27.2050282 C20.1042344,27.3902173 19.9980647,27.6252495 19.9158035,27.7269616 C19.8335422,27.8290791 19.7456078,27.9810395 19.7204837,28.0649216 C19.6673988,28.2411957 19.6118826,28.3064374 18.9148908,29.0107233 C18.6300157,29.2984351 18.358513,29.5342776 18.3119118,29.5342776 C18.2653106,29.5342776 18.1583305,29.6076239 18.0740431,29.6971792 C17.9897557,29.7871398 17.8398214,29.879937 17.7413511,29.9042506 C17.6424755,29.9281591 17.4556655,30.0181196 17.3255874,30.1044332 C17.1955092,30.1903415 16.8915884,30.2977268 16.6500726,30.3431123 C15.9401135,30.4764323 15.7804537,30.6458175 16.1739299,30.8492419 C16.5730793,31.0555028 18.2430231,30.9424443 18.6052968,30.6847194 C18.7025514,30.6154254 18.897466,30.5372165 19.0380801,30.5108767 C19.1786941,30.4845368 19.3796871,30.390524 19.4846411,30.3025896 C19.5891899,30.2142499 19.722915,30.1421194 19.7812678,30.1421194 C19.8396206,30.1421194 19.9871236,30.0558058 20.1090971,29.9500414 C20.2310707,29.8446821 20.3838416,29.7295974 20.448678,29.6943426 C20.6618279,29.5788527 21.5128062,28.7744755 21.5128062,28.6885672 C21.5128062,28.641966 21.5889891,28.5544368 21.6817862,28.4936527 C21.7745834,28.4328685 21.8507662,28.3420975 21.8507662,28.2926597 C21.8507662,28.2428166 21.9273543,28.0888301 22.0213671,27.9506474 C22.11538,27.8120595 22.2231706,27.5417725 22.261262,27.3500998 C22.2993534,27.158427 22.3917453,26.8723362 22.4667125,26.7147026 C22.5655881,26.5060103 22.613405,26.2284292 22.6413657,25.6992017 Z" id="Combined-Shape"></path>
        </g>
    </g>
</svg>