<?xml version="1.0" encoding="UTF-8" standalone="no"?>
<svg width="34px" height="34px" viewBox="0 0 34 34" version="1.1" xmlns="http://www.w3.org/2000/svg" xmlns:xlink="http://www.w3.org/1999/xlink">
    <!-- Generator: Sketch 49.1 (51147) - http://www.bohemiancoding.com/sketch -->
    <title>lobanet</title>
    <desc>Created with Sketch.</desc>
    <defs>
        <path d="M23.4218824,11.6767059 C23.4218824,18.0952941 18.2181176,23.2990588 11.7995294,23.2990588 C5.38023529,23.2990588 0.177176471,18.0952941 0.177176471,11.6767059 C0.177176471,5.25811765 5.38023529,0.0543529412 11.7995294,0.0543529412 C18.2181176,0.0543529412 23.4218824,5.25811765 23.4218824,11.6767059" id="path-1"></path>
    </defs>
    <g id="Page-1" stroke="none" stroke-width="1" fill="none" fill-rule="evenodd">
        <g id="lobanet" transform="translate(1.000000, 1.000000)">
            <rect id="Rectangle-6-Copy-12" stroke="#D0D5DF" fill="#FFFFFF" x="0" y="0" width="32" height="32" rx="2"></rect>
            <g id="Group-21" transform="translate(4.000000, 4.000000)">
                <mask id="mask-2" fill="white">
                    <use xlink:href="#path-1"></use>
                </mask>
                <g id="Clip-2"></g>
                <path d="M3.33176471,19.9792941 C1.30729412,17.9548235 -0.0649411765,15.6352941 0.0225882353,12.6564706 C0.471529412,12.2308235 0.998117647,12.2124706 1.48517647,12.5054118 C3.80047059,13.8945882 6.32823529,14.3484706 8.988,14.3512941 C10.2,14.3527059 11.4077647,14.5101176 12.4701176,15.1948235 C13.0665882,15.7341176 13.2811765,16.4456471 13.3524706,17.0936471 C13.3214118,15.36 14.4769412,14.0018824 15.2978824,12.504 C15.6670588,12.0656471 16.0835294,11.6858824 16.6009412,11.4282353 C17.5574118,11.1592941 18.3218824,10.6552941 18.9494118,9.84635294 C19.6891765,8.89341176 20.604,8.12470588 21.9430588,8.17694118 C23.6075294,8.94141176 23.4176471,10.4936471 23.4127059,11.8807059 C23.4063529,13.4929412 22.8578824,14.9929412 22.0185882,16.3750588 C18.5908235,19.5303529 14.5538824,21.1242353 9.88305882,21.2336471 C7.58752941,21.2872941 5.29835294,21.5442353 3.33176471,19.9792941" id="Fill-1" fill="#287CAB" mask="url(#mask-2)"></path>
                <path d="M12.3402353,15.4312941 C10.3538824,15.2181176 8.34705882,15.0529412 6.38117647,14.9265882 C5.15152941,14.8468235 3.00705882,14.8369412 1.85223529,13.3609412 C1.38564706,12.7651765 0.742588235,12.6056471 0.0225882353,12.6564706 C-0.137647059,10.8472941 -0.327529412,9.03388235 0.903529412,7.46047059 C3.01270588,7.512 5.01247059,8.74235294 7.19152941,8.03929412 C7.74705882,8.12823529 8.27364706,8.31035294 8.77764706,8.55811765 C9.99529412,9.33317647 9.24141176,11.3414118 10.8564706,11.8701176 C11.4917647,12.3197647 12.1192941,12.7785882 12.4298824,13.5352941 C12.6063529,14.1762353 13.0115294,14.8305882 12.3402353,15.4312941" id="Fill-3" fill="#248FBC" mask="url(#mask-2)"></path>
                <path d="M8.70282353,8.98658824 C8.256,8.82917647 7.80988235,8.67176471 7.36305882,8.51435294 C6.73552941,8.17482353 5.904,8.06329412 5.80729412,7.12729412 C5.78329412,6.43341176 6.25623529,5.95835294 6.55835294,5.40776471 C7.17247059,4.20776471 7.40470588,2.78258824 8.55458824,1.89458824 C9.62682353,1.06729412 7.40258824,0.661411765 8.31247059,-0.129882353 C10.6369412,0.277411765 13.032,-0.923294118 15.3254118,0.180705882 C15.8858824,3.44682353 14.4261176,5.72470588 11.7847059,7.428 C10.8042353,8.03929412 9.70941176,8.42611765 8.70282353,8.98658824" id="Fill-4" fill="#12B5DA" mask="url(#mask-2)"></path>
                <path d="M11.5051765,7.18235294 C13.0672941,5.81223529 14.4282353,4.38705882 15.0254118,2.22847059 C15.2216471,1.51694118 13.9192941,0.592235294 15.3247059,0.181411765 C16.7371765,0.386823529 17.9174118,1.03764706 18.9091765,2.04988235 C19.0870588,2.54541176 19.5981176,2.92376471 19.4294118,3.54070588 C18.3324706,5.48541176 17.6597647,7.70894118 15.7708235,9.13905882 C15.5654118,9.228 15.3508235,9.27247059 15.1270588,9.27176471 C13.8988235,8.61247059 12.4256471,8.376 11.5051765,7.18235294" id="Fill-5" fill="#24A1CB" mask="url(#mask-2)"></path>
                <path d="M3.33176471,19.9792941 C10.0489412,21.8675294 16.0672941,20.2616471 21.6197647,16.3228235 C22.0567059,15.9578824 22.4618824,15.4856471 23.1254118,15.8675294 C22.8282353,16.9002353 22.4131765,17.868 21.6084706,18.6211765 C17.4727059,21.6734118 12.8696471,23.1755294 7.70541176,22.8190588 C5.90258824,22.404 4.48517647,21.3952941 3.33176471,19.9792941" id="Fill-6" fill="#2288B9" mask="url(#mask-2)"></path>
                <path d="M8.31247059,-0.129882353 C10.0750588,0.980470588 9.98117647,1.86917647 8.23976471,3.06070588 C7.51129412,3.55905882 7.33270588,4.86141176 6.90423529,5.79811765 C6.14611765,6.14964706 5.43388235,6.60282353 4.62282353,6.84352941 C3.38682353,6.45105882 2.75647059,5.49035294 2.30117647,4.36588235 C3.38047059,3.08047059 4.26494118,1.56494118 6.31482353,1.62705882 C6.94870588,1.64611765 7.35388235,1.08352941 7.34470588,0.372 C7.47388235,-0.144705882 7.75835294,-0.409411765 8.31811765,-0.225176471 L8.31247059,-0.129882353" id="Fill-7" fill="#BCE2E9" mask="url(#mask-2)"></path>
                <path d="M7.70541176,22.8190588 C9.10235294,21.6204706 10.9051765,22.1491765 12.4447059,21.9889412 C15.0691765,21.7157647 17.2143529,20.6470588 19.2875294,19.2910588 C20.0534118,18.7898824 20.7656471,18.6063529 21.6084706,18.6218824 C20.1734118,21.1242353 17.82,22.3665882 15.2244706,23.2771765 C13.0538824,24.6847059 10.8748235,24.8442353 8.68376471,23.3244706 C8.35764706,23.1557647 8.03152941,22.9877647 7.70541176,22.8190588" id="Fill-8" fill="#2097C8" mask="url(#mask-2)"></path>
                <path d="M19.3094118,3.46376471 C19.176,2.99294118 19.0425882,2.52141176 18.9091765,2.05058824 C21.4228235,3.29858824 22.6708235,5.48682353 23.3816471,8.07388235 C22.68,8.44941176 21.9084706,8.19458824 21.1764706,8.31529412 C18.6197647,7.18729412 18.0430588,5.68588235 19.3094118,3.46376471" id="Fill-9" fill="#70C7E0" mask="url(#mask-2)"></path>
                <path d="M2.30117647,4.36588235 C3.30988235,4.86776471 3.86682353,5.80517647 4.50705882,6.66141176 C5.01458824,6.80470588 5.43741176,7.19788235 6.00352941,7.16823529 C6.45670588,7.61717647 6.90988235,8.06541176 7.36305882,8.51435294 C5.05341176,9.12423529 2.86447059,8.99223529 0.903529412,7.46047059 C1.02564706,6.27388235 1.35247059,5.17905882 2.30117647,4.36588235" id="Fill-10" fill="#99D4E4" mask="url(#mask-2)"></path>
                <path d="M8.31811765,-0.225176471 C7.99411765,-0.0261176471 7.66941176,0.172941176 7.34470588,0.372 C5.32729412,-0.110117647 3.78564706,1.61011765 1.86070588,1.55576471 C1.73223529,0.801176471 2.45435294,0.759529412 2.81505882,0.412941176 C4.22470588,-0.705176471 6.02964706,-1.00941176 7.55364706,-1.89458824 C9.33176471,-2.43741176 11.04,-3.18635294 12.8244706,-3.69529412 C13.5649412,-3.90635294 14.3188235,-4.49576471 15.1524706,-3.91905882 C15.3176471,-3.61905882 15.4835294,-3.31976471 15.6487059,-3.01976471 C14.8404706,-2.18611765 13.6023529,-2.71129412 12.7263529,-2.09364706 C11.5334118,-1.82611765 10.3341176,-1.57552941 9.21388235,-1.05952941 C8.91529412,-0.781411765 8.61670588,-0.503294118 8.31811765,-0.225176471" id="Fill-11" fill="#70A4AE" mask="url(#mask-2)"></path>
                <path d="M21.5830588,8.12047059 C22.1816471,8.06682353 22.7696471,7.59811765 23.3823529,8.07388235 C24.1941176,10.7011765 24.3557647,13.308 23.1254118,15.8675294 C22.6235294,16.0192941 22.1216471,16.1717647 21.6197647,16.3228235 C22.2402353,14.1091765 23.5185882,12.0056471 22.6178824,9.54494118 C22.4174118,8.99788235 22.2804706,8.556 21.6381176,8.496 C21.4750588,8.43458824 21.4129412,8.35905882 21.4503529,8.268 C21.4912941,8.16988235 21.5350588,8.12047059 21.5830588,8.12047059" id="Fill-12" fill="#44BEE2" mask="url(#mask-2)"></path>
                <path d="M8.68376471,23.3244706 C10.8677647,23.8418824 13.0468235,23.64 15.2244706,23.2771765 C16.1527059,24.1708235 17.5284706,23.2327059 18.4708235,24.0684706 C18.2096471,24.4609412 17.8129412,24.6261176 17.3752941,24.7221176 C13.9602353,24.8985882 10.5402353,24.7192941 7.12235294,24.8047059 C6.27952941,24.7298824 5.38094118,24.8802353 4.68282353,24.2110588 C5.82282353,23.04 7.48870588,24.2463529 8.68376471,23.3244706" id="Fill-13" fill="#9FD6E2" mask="url(#mask-2)"></path>
                <path d="M2.78611765,0.707294118 C2.47764706,0.990352941 2.16847059,1.27341176 1.86070588,1.55576471 C0.242117647,2.34917647 -1.14352941,3.44258824 -2.33082353,4.79364706 C-2.72682353,4.85788235 -3.05011765,4.85717647 -2.75364706,4.31223529 C-1.48588235,2.43176471 0.294352941,1.19505882 2.32376471,0.271058824 C2.53341176,0.357176471 2.688,0.502588235 2.78611765,0.707294118" id="Fill-14" fill="#287D9B" mask="url(#mask-2)"></path>
                <path d="M2.78611765,0.707294118 C2.63152941,0.561882353 2.47764706,0.416470588 2.32376471,0.271058824 C3.756,-0.708 5.28988235,-1.47811765 6.95294118,-1.98352941 C7.14352941,-1.81129412 7.33411765,-1.63905882 7.52470588,-1.46611765 C5.94564706,-0.741176471 4.36588235,-0.0169411765 2.78611765,0.707294118" id="Fill-15" fill="#1F5061" mask="url(#mask-2)"></path>
                <path d="M21.5830588,8.12047059 C21.6028235,8.24541176 21.6211765,8.37105882 21.6381176,8.496 C20.4797647,9.05505882 19.3567059,9.66776471 18.8717647,10.9658824 C18.4101176,12.2018824 17.3569412,11.568 16.5585882,11.7395294 C15.9508235,10.8917647 16.2409412,9.75741176 15.6529412,8.90329412 C17.1437647,7.27341176 17.5665882,4.92494118 19.3094118,3.46447059 C18.8230588,5.62376471 19.2698824,7.32776471 21.5830588,8.12047059" id="Fill-16" fill="#248FBC" mask="url(#mask-2)"></path>
                <path d="M15.6529412,8.90329412 C17.8418824,9.24564706 16.3538824,10.7632941 16.5585882,11.7395294 C16.2882353,12.0614118 16.0185882,12.384 15.7482353,12.7058824 C14.5404706,13.1407059 13.4018824,13.8825882 12.0197647,13.5522353 C11.5369412,13.1032941 11.0541176,12.6543529 10.5705882,12.2061176 C11.4924706,10.2536471 13.884,10.4202353 15.1807059,9.00847059 C15.3381176,8.97317647 15.4955294,8.93858824 15.6529412,8.90329412" id="Fill-17" fill="#7DCBE1" mask="url(#mask-2)"></path>
                <path d="M12.0197647,13.5522353 C13.1682353,12.8562353 14.3837647,12.4545882 15.7482353,12.7058824 C15.0451765,14.5736471 13.3792941,16.0510588 13.296,18.3338824 C12.9783529,17.3661176 12.66,16.3990588 12.3409412,15.4312941 C12.2336471,14.8051765 12.1263529,14.1783529 12.0197647,13.5522353" id="Fill-18" fill="#6CC7E1" mask="url(#mask-2)"></path>
                <path d="M15.1807059,9.00847059 C15.0988235,10.3983529 13.8331765,10.4844706 12.9663529,10.9870588 C12.1927059,11.4367059 11.3710588,11.8030588 10.5705882,12.2061176 C8.84258824,11.7748235 9.04870588,10.2204706 8.70282353,8.98729412 C9.05576471,7.48376471 10.4837647,7.64823529 11.5051765,7.18164706 C12.7927059,7.66588235 14.1508235,8.00611765 15.1807059,9.00847059" id="Fill-19" fill="#91D2E2" mask="url(#mask-2)"></path>
                <path d="M6.00352941,7.16823529 C5.78258824,7.55364706 5.57717647,8.08870588 5.06541176,7.98423529 C4.36588235,7.84164706 4.69976471,7.10752941 4.50776471,6.66141176 C5.07176471,5.72188235 5.93082353,5.59976471 6.90423529,5.79811765 C6.60423529,6.25482353 6.30352941,6.71152941 6.00352941,7.16823529" id="Fill-20" fill="#1EA8D0" mask="url(#mask-2)"></path>
            </g>
        </g>
    </g>
</svg>