<?xml version="1.0" encoding="UTF-8"?>
<svg width="52px" height="52px" viewBox="0 0 52 52" version="1.1" xmlns="http://www.w3.org/2000/svg" xmlns:xlink="http://www.w3.org/1999/xlink">
    <!-- Generator: Sketch 51.3 (57544) - http://www.bohemiancoding.com/sketch -->
    <title>Artboard Copy 15</title>
    <desc>Created with Sketch.</desc>
    <defs>
        <linearGradient x1="-0.816508089%" y1="46.3978601%" x2="106.004264%" y2="284.058889%" id="linearGradient-1">
            <stop stop-color="#FDB913" offset="0%"></stop>
            <stop stop-color="#FFCB05" offset="22.4719%"></stop>
            <stop stop-color="#FAA61A" offset="39.3258%"></stop>
            <stop stop-color="#FFCB05" offset="52.809%"></stop>
            <stop stop-color="#FAA61A" offset="64.6067%"></stop>
            <stop stop-color="#FFCB05" offset="76.4045%"></stop>
            <stop stop-color="#FFCB05" offset="100%"></stop>
        </linearGradient>
    </defs>
    <g id="Artboard-Copy-15" stroke="none" stroke-width="1" fill="none" fill-rule="evenodd">
        <rect id="Rectangle" fill="#003D79" fill-rule="nonzero" x="0" y="0" width="52" height="52" rx="4"></rect>
        <g id="Group" transform="translate(8.000000, 11.000000)" fill-rule="nonzero">
            <path d="M20.3734982,6.81107049 C19.2506587,6.1602064 15.5910334,4.06932202 15.5910334,4.06932202 C14.2170237,3.50295144 13.1644853,4.19276176 12.8235408,4.69840262 C12.8083584,4.71754568 12.793176,4.74031933 12.7832744,4.75913234 L12.7383872,4.83603463 L12.5063601,5.21493523 C12.4073442,5.37138025 12.2971066,5.53244601 12.1706964,5.69780245 C12.0578184,5.84236557 11.9323983,5.98560848 11.7960865,6.1239006 C10.9141855,7.01537317 9.5025497,7.6414833 7.15092361,6.52293441 C5.72872617,5.71133462 2.42159727,3.82013217 2.42159727,3.82013217 C2.42126722,3.81914201 2.42126722,3.81914201 2.42093717,3.81914201 C1.06012954,3.0412076 0,2.43589079 0,2.43589079 L1.25255031,0.897844817 C1.77931456,0.395834533 2.77013301,-0.427647162 4.30289814,0.266783895 C4.30289814,0.266783895 8.53285462,2.7161056 8.54935726,2.72336676 C12.1657456,4.70797415 13.9506711,2.81149086 14.7391672,1.5473887 C14.7665615,1.50844247 14.7893352,1.46520555 14.813429,1.42691943 L14.8154094,1.42526917 C14.8246508,1.41008674 14.8315819,1.39556442 14.8391732,1.38104209 L14.9292776,1.23482871 C15.3127989,0.652285546 15.919766,0.276025373 16.6419215,0.293188117 C17.0406252,0.301109384 17.3112685,0.431150181 17.7046914,0.649975177 L21.797676,3.0237148 C21.8003164,3.02503501 21.8022967,3.02668527 21.8065874,3.02734538 C25.4675329,5.03604662 27.2821631,3.01579353 28.0574571,1.75202142 C28.1175267,1.6424439 28.1868378,1.53847727 28.2561489,1.44078165 C28.6396702,0.920618459 29.1694049,0.579673934 29.8413924,0.596506626 C30.2849833,0.605418051 30.783363,0.871770647 30.8566348,0.920618459 L35.7641896,3.75214129 C35.7641896,3.75214129 35.2621793,4.50928238 34.2297742,5.68988119 C33.3066166,6.74307962 32.3247095,6.2664834 31.5447948,5.87867138 C31.2170524,5.71694551 28.8479335,4.37396074 28.8479335,4.37396074 C27.550166,3.83861512 26.5392143,4.42280855 26.1424908,4.91425714 C26.1015643,4.96640548 26.0662487,5.01459319 26.0391843,5.06212079 L25.9477597,5.22219639 C25.805507,5.46214476 25.6358598,5.73278805 25.4269364,6.0001308 C25.3150485,6.14502397 25.1902886,6.28991715 25.0533167,6.42688905 C24.5077394,6.9780772 23.7614901,7.42727904 22.716873,7.42760909 C22.0610581,7.42760909 21.2884046,7.2507008 20.3734982,6.81107049" id="path19788" fill="url(#linearGradient-1)"></path>
            <g id="Group-16" transform="translate(2.600000, 8.200000)" fill="#FFFFFF">
                <g id="g19736" transform="translate(14.504344, 10.908456) scale(-1, 1) rotate(-180.000000) translate(-14.504344, -10.908456) translate(0.004344, 0.908456)">
                    <path d="M0.848979592,13.5836735 C0.848979592,15.7502694 0.81077551,17.5704816 0.693616327,19.1945796 L4.79673469,19.1945796 L4.99115102,16.4048327 L5.10576327,16.4048327 C6.03284898,17.8769633 7.73590204,19.6216163 10.9102367,19.6216163 C13.3884082,19.6216163 15.3215347,18.2250449 16.1331592,16.1382531 L16.2129633,16.1382531 C16.8700735,17.182498 17.6426449,17.9559184 18.5323755,18.4958694 C19.5774694,19.2310857 20.7796245,19.6216163 22.3256163,19.6216163 C25.460049,19.6216163 28.6318367,17.4932245 28.6318367,11.4518857 L28.6318367,0.348081633 L23.9896163,0.348081633 L23.9896163,10.7582694 C23.9896163,13.8901551 22.9063184,15.7502694 20.6225633,15.7502694 C18.9976163,15.7502694 17.7963102,14.5888653 17.2945633,13.2330449 C17.179102,12.772898 17.0627918,12.1888 17.0627918,11.6505469 L17.0627918,0.348081633 L12.4188735,0.348081633 L12.4188735,11.2642612 C12.4188735,13.8901551 11.3754776,15.7502694 9.16728163,15.7502694 C7.39036735,15.7502694 6.19075918,14.3570939 5.76117551,13.0420245 C5.56930612,12.5784816 5.4912,12.0351347 5.4912,11.4951837 L5.4912,0.348081633 L0.848979592,0.348081633 L0.848979592,13.5836735 Z" id="path19738"></path>
                </g>
            </g>
        </g>
    </g>
</svg>