<?xml version="1.0" encoding="UTF-8" standalone="no"?>
<svg width="32px" height="32px" viewBox="0 0 32 32" version="1.1" xmlns="http://www.w3.org/2000/svg" xmlns:xlink="http://www.w3.org/1999/xlink">
    <!-- Generator: Sketch 49.1 (51147) - http://www.bohemiancoding.com/sketch -->
    <title>mastercard</title>
    <desc>Created with Sketch.</desc>
    <defs>
        <rect id="path-1" x="0.41025641" y="0.41025641" width="31.1794872" height="31.1794872" rx="2"></rect>
    </defs>
    <g id="Page-1" stroke="none" stroke-width="1" fill="none" fill-rule="evenodd">
        <g id="mastercard" fill-rule="nonzero">
            <g id="Group-5">
                <g id="Rectangle-path">
                    <use fill="#FFFFFF" fill-rule="evenodd" xlink:href="#path-1"></use>
                    <rect stroke="#D0D5DF" stroke-width="1" x="0.91025641" y="0.91025641" width="30.1794872" height="30.1794872" rx="2"></rect>
                </g>
            </g>
            <g id="_Group_" transform="translate(4.666667, 9.333333)">
                <rect id="Rectangle-path" fill="#FF5F00" x="7.80341147" y="1.52715928" width="6.46249112" height="10.5411238"></rect>
                <path d="M8.45524775,6.79772121 C8.45581077,4.74331544 9.39564057,2.80191519 11.0067212,1.52715928 C8.6978347,-0.28821234 5.47616789,-0.389462304 3.05784417,1.27734341 C0.639520437,2.94414912 -0.412399613,5.99092657 0.462422722,8.79471272 C1.33724506,11.5984989 3.93512407,13.5064856 6.87221678,13.5023229 C8.37252362,13.5033789 9.8292865,12.9981053 11.0067212,12.0682831 C9.39564057,10.7935272 8.45581077,8.85212697 8.45524775,6.79772121 Z" id="_Path_" fill="#EB001B"></path>
                <path d="M21.8644512,6.79772121 C21.8615986,9.36126973 20.3971997,11.6987918 18.0917549,12.8198242 C15.7863102,13.9408566 13.043433,13.6491406 11.0253451,12.0682831 C12.6368478,10.793871 13.5767686,8.85224487 13.5767686,6.79772121 C13.5767686,4.74319754 12.6368478,2.80157144 11.0253451,1.52715928 C13.043433,-0.0536982029 15.7863102,-0.345414217 18.0917549,0.775618195 C20.3971997,1.89665061 21.8615986,4.23417269 21.8644512,6.79772121 Z" id="Shape" fill="#F79E1B"></path>
            </g>
        </g>
    </g>
</svg>