<?xml version="1.0" encoding="UTF-8"?>
<svg width="52px" height="52px" viewBox="0 0 52 52" version="1.1" xmlns="http://www.w3.org/2000/svg" xmlns:xlink="http://www.w3.org/1999/xlink">
    <!-- Generator: Sketch 51.3 (57544) - http://www.bohemiancoding.com/sketch -->
    <title>Maybank</title>
    <desc>Created with Sketch.</desc>
    <defs></defs>
    <g id="Maybank" stroke="none" stroke-width="1" fill="none" fill-rule="evenodd">
        <rect id="Rectangle" fill="#FFC20E" fill-rule="nonzero" x="0" y="0" width="52" height="52" rx="4"></rect>
        <g id="Group-18" transform="translate(10.000000, 10.000000)" fill="#000000" fill-rule="nonzero">
            <path d="M15.9398319,30.5951542 C7.84514207,30.5951542 1.28231562,24.031248 1.28231562,15.9354772 C1.28231562,7.84186586 7.84514207,1.26391795 15.9398319,1.26391795 C24.0399236,1.26391795 30.5995066,7.84186586 30.5995066,15.9354772 C30.5995066,24.031248 24.0399236,30.5951542 15.9398319,30.5951542 M15.9398319,-3.5138159e-05 C7.13646316,-3.5138159e-05 0,7.13102896 0,15.9354772 C0,24.7410072 7.13646316,31.8753101 15.9398319,31.8753101 C24.7442805,31.8753101 31.8785834,24.7410072 31.8785834,15.9354772 C31.8785834,7.13102896 24.7442805,-3.5138159e-05 15.9398319,-3.5138159e-05" id="path4093"></path>
            <path d="M9.58150968,15.2061662 C8.44071516,14.913404 7.43711476,16.2486538 6.87967869,17.2565743 C7.07413416,15.8770335 8.76912533,13.6181256 9.58150968,15.2061662" id="path4097"></path>
            <path d="M7.0738096,15.2219401 C7.45623666,13.9126127 8.36260737,13.4318809 8.84766429,13.8186268 C8.18868028,14.0228023 7.71118738,14.4127944 7.0738096,15.2219401" id="path4101"></path>
            <path d="M9.98554264,17.3250673 C10.5732244,16.8302913 10.51273,16.0978471 9.60203545,15.8569381 C8.9290102,15.6862524 7.47600556,16.9037488 7.31828258,18.2444026 C7.9016433,17.498997 9.58150968,16.1259344 9.98554264,17.3250673" id="path4105"></path>
            <path d="M17.241598,16.5175428 C16.9272282,14.7480115 19.8580845,11.9208661 18.0075319,9.02566027 C21.5033825,11.8452448 18.7648195,13.5175499 20.5300325,15.8607224 C19.8451199,15.6533031 19.168852,15.0472568 18.9635959,14.7285656 C17.9816028,16.0216844 21.3726646,17.7998602 19.135364,20.8160593 C19.2401512,19.0908175 17.563525,18.2849141 17.241598,16.5175428 Z" id="path4109"></path>
            <path d="M13.5080776,6.90394945 C13.9207513,6.90719017 14.6337523,7.19887143 14.343152,7.53052345 C13.3741209,8.4325751 12.0637148,8.06095132 11.0244676,8.9781276 C11.4511861,7.8427313 13.3492758,7.68068567 13.5080776,6.90394945" id="path4113"></path>
            <path d="M12.3139119,10.7140617 C12.1875171,10.7140617 12.0719247,10.5379721 12.038435,10.3067882 C12.2048004,10.7281058 12.6228782,10.5271692 12.3852106,9.91788102 C12.5342925,9.92112174 12.7708793,9.94164752 13.2105617,9.91561691 C12.7503537,10.1543619 12.5472581,10.7182804 12.3139119,10.7139584 M16.6523982,8.18173429 C17.0575131,7.72368638 16.6858879,7.09927345 15.0200639,6.89509516 C16.7561063,7.73665009 13.9646124,7.92354236 13.8684649,9.38302747 C12.9577704,9.738446 12.2285685,9.14644096 11.7748415,9.55479511 C11.3383996,9.95018539 10.8338997,9.67686866 10.9808202,9.22206262 C10.4547156,9.49105702 10.5605828,10.2072965 11.0726463,10.4298387 C11.1731169,10.47413 11.262778,10.5681178 11.1860789,10.6415779 C10.6254022,11.1720056 10.3618086,11.6365343 10.9484113,12.1572397 C11.2703415,11.5684764 11.4323875,11.3556565 11.7899669,11.0682958 C12.1237784,11.2886771 12.7136235,11.1320342 13.507643,10.2710348 C13.545454,10.2213407 13.599471,10.2397069 13.5789417,10.2937207 C12.9491278,12.4640445 11.3383996,12.8140622 10.8230956,12.7114338 C11.1309829,13.1813651 13.1813952,13.4665616 13.4406638,12.5526302 C14.0229472,10.4870937 16.009619,9.58828378 14.291941,9.62825553 C14.7575511,9.08270531 16.317505,8.57388303 16.6523982,8.18173429" id="path4117"></path>
            <path d="M17.519125,7.07064082 C18.3498783,7.6097104 18.7420238,7.96297013 19.2843364,8.60898881 C19.3869636,7.7274644 18.8878661,5.98385799 18.145698,5.5830677 C17.82701,5.41021927 17.3668029,6.62987862 17.519125,7.07064082" id="path4121"></path>
            <path d="M4.24860811,14.1490929 C4.78443616,12.7339001 6.08943999,11.049712 8.20682898,9.79872248 C8.69512581,8.53477184 8.5341608,7.68133349 13.6623461,5.69034038 C13.7919832,4.93629003 13.7692978,4.0234382 13.9831955,4.0234382 C14.2035763,4.0234382 14.9597867,4.36697331 15.5010168,5.14046833 C15.7257205,5.12318669 15.9234175,5.10049658 16.060611,5.07240808 C16.1535196,4.6327265 16.4603247,3.42170887 16.862194,2.79513502 C17.2294977,2.21933523 17.9424977,2.1577579 18.8639928,2.9193695 C19.8178969,3.69610589 20.4909273,4.01803574 21.7991673,5.69034038 C22.9053935,6.18619911 24.6349585,6.82249529 26.1322527,8.66116739 C25.4808314,8.22580553 24.7451497,8.06592114 24.1391001,8.00110243 C25.3609197,9.06952154 26.165744,10.8379726 25.5553729,13.4209716 C25.3133864,11.0064986 23.5384529,9.99209799 22.453831,9.22940593 C23.0415121,11.2636099 20.4909273,10.557095 19.7120273,9.02630825 C19.9691382,9.10841039 20.2359747,9.0976076 20.3969398,8.99714158 C20.308353,5.88263542 18.8477876,4.09257662 18.1963663,3.55890738 C17.3569733,2.86211449 16.9108097,4.5333385 16.6266905,5.78216712 C16.5381053,6.20024312 16.1794456,6.49948482 15.7257205,6.48652111 C15.8272665,6.33528071 15.9396184,5.93124872 15.9569034,5.79945055 C14.6691845,5.90856056 13.215102,6.66801336 12.3227735,7.06988427 C10.0552211,8.09509009 9.48698243,8.60715148 8.98572482,10.3259111 C7.1891862,11.0896836 5.11608998,13.158457 4.24860811,14.1490929" id="path4125"></path>
            <path d="M15.5610803,13.7123268 C15.8138716,14.0018459 17.3079262,16.2596733 15.5762146,19.1311157 C16.0493847,17.0191258 14.7324992,12.9723208 13.2794939,15.0443384 C14.2658102,15.4688944 14.5877404,16.2737202 14.3230679,17.0580161 C13.9201137,16.3007268 12.8949094,15.4851012 11.8783459,15.8210736 C11.3716844,16.0025623 10.6986575,16.0068854 10.1963191,15.253916 C9.54165463,14.3043319 10.6403209,13.113841 8.76924284,13.2089077 C11.0324708,12.0627071 10.3767291,14.2892058 11.4678318,14.5625236 C12.7371831,14.8585249 12.886265,14.0817913 13.3237894,13.5783704 C13.6748844,13.1494922 14.3230679,12.8286409 15.0047355,13.2845277 C15.3299062,12.2960534 14.8556534,10.725297 15.7825523,9.89886687 C16.1250065,9.5920618 17.2139501,9.63527281 17.7778669,10.0771151 C16.9762834,10.0673995 16.033182,11.0245387 15.5610891,13.7123268" id="path4129"></path>
            <path d="M10.3937884,22.8336272 C10.2846771,22.745042 9.98543229,22.3550548 10.0135216,21.9369803 C10.3937884,22.1822059 10.9101696,22.3053599 10.9101696,22.3053599 C10.9101696,22.3053599 10.6660227,22.7201954 10.3937884,22.8336272 M12.6689007,20.345697 C12.8946816,20.379185 13.0880555,20.5606753 13.2922354,20.4105131 C13.4920867,20.2614317 13.2835827,19.6597053 13.1258665,19.4576882 C13.3235616,19.4242002 14.1111001,19.5030616 14.0711295,19.7839385 C13.9782244,20.5347495 13.5115353,20.770253 12.3858603,21.3104024 C12.5781572,21.1332352 12.5468255,20.7378425 12.6689007,20.345697 M8.16296755,19.7396475 C8.25911336,19.5073815 8.69123336,19.2092203 8.88352857,19.1897743 C8.80682726,19.8390356 9.04449407,20.7248812 9.04449407,20.7248812 C9.04449407,20.7248812 8.17053141,20.1717657 8.16296755,19.7396475 M5.2893686,16.8606444 C4.87777324,16.5732894 4.23175505,15.900259 4.16369578,15.6561109 C4.24471925,15.5642849 4.58933547,15.1948245 5.02901575,15.0684281 C5.34662377,14.9852469 5.55512146,15.1613332 5.50867054,15.257479 C5.46329764,15.3730725 5.18025859,15.3730725 5.09707502,15.615059 C4.9685205,15.9834419 5.37795234,16.1001128 5.46329764,16.2664786 C5.51191078,16.3734307 5.62426086,16.6478277 5.2893686,16.8606444 M27.1373638,9.76415352 C28.2911249,13.7850304 27.9681138,17.6568273 26.778703,19.9740701 C26.9277861,18.5243077 25.6541117,16.403678 26.1661737,13.9265506 C23.754945,16.2664786 27.5230294,22.0093586 22.0556305,25.7806887 C22.8712544,24.4627216 23.2428813,21.1958914 22.9511999,20.0043223 C23.2428813,20.124234 23.538881,20.479654 23.7257736,20.7886182 C24.1773394,19.2837585 24.2356789,17.1598897 23.3746751,15.0036104 C23.6749995,15.0468239 24.2875305,15.315817 24.5694881,15.5772494 C24.7056083,12.2564051 22.2738495,12.0079351 21.8168847,11.1058864 C21.8168847,12.0770758 22.9511999,12.8927037 23.1596968,14.163135 C22.3624348,13.7850304 21.783395,13.7472196 21.3728811,13.7850304 C21.9886512,14.2365957 23.3552324,16.8876543 22.9511999,19.0072032 C22.3624348,18.5124272 21.8168847,18.2844844 21.2270388,18.2315471 C21.95084,19.335615 22.2457622,22.2070542 21.3426338,23.5293411 C21.3177856,23.2290167 21.209756,22.3669369 20.8694605,22.0093586 C20.4416621,23.621167 19.1852705,24.2963542 18.3210324,24.5026911 C19.393769,23.3824196 19.1852705,21.3925078 17.6155947,20.8642389 C16.2058044,20.3824258 14.4092641,21.3406513 13.6800604,24.6993059 C12.6624179,25.0007095 9.60192672,24.348209 11.4319584,22.3690985 C12.5468255,22.7472036 15.3826166,20.8534375 15.1924831,19.5192652 C14.9170082,17.6665511 13.2317373,17.0162106 11.8910821,17.0270119 C10.2360638,17.0572592 9.11795254,18.6010108 7.76541815,19.2675565 C6.63650346,19.0979467 6.25083617,18.9380623 5.67719583,17.4278053 C5.60265446,16.5117108 6.58248836,15.8646094 6.56736406,14.9128636 C5.76361947,15.0792327 5.56484379,13.8714563 3.99948891,15.1278452 C3.87741486,14.8988216 4.0837544,14.3575898 4.0837544,14.3575898 C3.50471356,14.8836971 3.39560354,15.5016288 3.38371769,15.6312626 C3.66783688,16.191942 4.06322618,16.695361 4.8334821,17.1955393 C5.75713916,19.6661851 6.70456257,19.9405837 7.68331455,20.0324097 C7.84968152,20.266834 8.57348278,21.1343144 9.49497877,21.2736753 C9.33725416,20.8080641 9.31456877,19.5030616 9.40747206,19.1768114 C11.4103501,17.1685327 12.899003,18.3892716 13.0923787,18.9251027 C11.312041,19.2837585 12.5705917,23.0896574 9.61921194,21.3968293 C9.5003809,21.7868164 9.66350389,22.7580065 10.0383703,23.3262449 C10.3397713,25.9254486 13.6174044,25.2967124 14.6339679,25.7471974 C14.520537,23.2182137 15.9227658,21.3709019 17.1273018,21.5232224 C18.3361553,21.6744654 18.6472827,23.6427729 16.5893124,25.5052109 C17.0938122,25.7806887 19.3019447,25.4058244 20.4276185,24.5901955 C20.5302457,25.237297 19.6994941,27.1289014 18.6656478,28.4771174 C27.3253371,26.4861215 31.1928098,17.0993919 27.1373638,9.76415352" id="path4133"></path>
        </g>
    </g>
</svg>