<?xml version="1.0" encoding="UTF-8" standalone="no"?>
<svg width="32px" height="32px" viewBox="0 0 32 32" version="1.1" xmlns="http://www.w3.org/2000/svg" xmlns:xlink="http://www.w3.org/1999/xlink">
    <!-- Generator: Sketch 49.1 (51147) - http://www.bohemiancoding.com/sketch -->
    <title>moestro</title>
    <desc>Created with Sketch.</desc>
    <defs>
        <rect id="path-1" x="0" y="0" width="31.1794872" height="31.1794872" rx="2"></rect>
    </defs>
    <g id="Page-1" stroke="none" stroke-width="1" fill="none" fill-rule="evenodd">
        <g id="moestro" fill-rule="nonzero">
            <g id="Group-11">
                <g id="Rectangle-path">
                    <use fill="#FFFFFF" fill-rule="evenodd" xlink:href="#path-1"></use>
                    <rect stroke="#D0D5DF" stroke-width="1" x="0.5" y="0.5" width="30.1794872" height="30.1794872" rx="2"></rect>
                </g>
                <rect id="Rectangle-path" fill="#7673C0" x="12.4700781" y="10.8604926" width="6.46249112" height="10.5411238"></rect>
                <path d="M13.1219144,16.1310545 C13.1224774,14.0766488 14.0623072,12.1352485 15.6733879,10.8604926 C13.3645014,9.04512099 10.1428346,8.94387103 7.72451083,10.6106767 C5.3061871,12.2774825 4.25426705,15.3242599 5.12908939,18.1280461 C6.00391172,20.9318322 8.60179073,22.8398189 11.5388834,22.8356563 C13.0391903,22.8367122 14.4959532,22.3314386 15.6733879,21.4016165 C14.0623072,20.1268606 13.1224774,18.1854603 13.1219144,16.1310545 Z" id="_Path_" fill="#EB001B"></path>
                <path d="M26.5311179,16.1310545 C26.5282652,18.6946031 25.0638663,21.0321251 22.7584216,22.1531576 C20.4529768,23.27419 17.7100996,22.982474 15.6920117,21.4016165 C17.3035145,20.1272043 18.2434353,18.1855782 18.2434353,16.1310545 C18.2434353,14.0765309 17.3035145,12.1349048 15.6920117,10.8604926 C17.7100996,9.27963513 20.4529768,8.98791912 22.7584216,10.1089515 C25.0638663,11.2299839 26.5282652,13.567506 26.5311179,16.1310545 Z" id="Shape" fill="#00A1DF"></path>
            </g>
        </g>
    </g>
</svg>