<?xml version="1.0" encoding="UTF-8" standalone="no"?>
<svg width="32px" height="32px" viewBox="0 0 32 32" version="1.1" xmlns="http://www.w3.org/2000/svg" xmlns:xlink="http://www.w3.org/1999/xlink">
    <!-- Generator: Sketch 49.1 (51147) - http://www.bohemiancoding.com/sketch -->
    <title>multibanco</title>
    <desc>Created with Sketch.</desc>
    <defs></defs>
    <g id="Page-1" stroke="none" stroke-width="1" fill="none" fill-rule="evenodd">
        <g id="multibanco">
            <rect id="Rectangle-6-Copy-7" fill="#2E2E2E" x="0" y="0" width="32" height="32" rx="2"></rect>
            <g id="Group-7-Copy" transform="translate(5.000000, 6.000000)">
                <g id="Group-5-Copy-2">
                    <path d="M10.422886,20 L19.0795018,20 C21.0563377,20 21.0759019,17.9119192 20.8745972,16.8810125 C20.7645918,16.18834 19.5799318,16.1939688 19.4495043,16.8810125 L19.4495043,17.6854063 C19.4495043,18.0528075 19.1469466,18.3536877 18.7769441,18.3536877 L2.18020609,18.3536877 C1.81037525,18.3536877 1.50781758,18.0528075 1.50781758,17.6854063 L1.50781758,16.8810125 C1.37739,16.1939688 0.192730014,16.18834 0.082724646,16.8810125 C-0.118408413,17.9119192 -0.099015891,20 1.87782004,20 L10.422886,20 Z M4.30291496,0 L17.6506333,0 C18.5885106,0 19.3556307,0.806952309 19.3556307,1.79334107 L19.3556307,2.65044006 C19.3556307,3.86214778 17.7040057,3.85771304 17.7040057,2.65862728 L17.7040057,2.19042096 C17.7040057,1.89261104 17.4589391,1.64904141 17.1592989,1.64904141 L3.7841221,1.64904141 C3.48448189,1.64904141 3.23924372,1.89261104 3.23924372,2.19042096 L3.23924372,2.64907553 C3.23924372,3.8543017 1.66518876,3.84560278 1.66518876,2.67517227 L1.66518876,1.79334107 C1.66518876,0.806952309 2.43248048,0 3.37018615,0 L4.30291496,0 Z" id="Fill-1" fill="#2B619E"></path>
                    <path d="M19.1108343,9.88438841 C20.039282,10.31891 20.6804228,11.2159038 20.6804228,12.2457919 C20.6804228,13.6978553 19.4060693,14.8858447 17.8483728,14.8858447 L13.4829277,14.8858447 C13.0746313,14.8858447 12.7406176,14.5744433 12.7406176,14.1937654 L12.7406176,5.9303108 C12.7406176,5.53162784 13.0687714,5.20547945 13.4698292,5.20547945 L17.1060628,5.20547945 C18.6367003,5.20547945 19.8888207,6.4500562 19.8888207,7.97139609 C19.8888207,8.71183181 19.5918622,9.38659201 19.1108343,9.88438841 Z M15.8525635,9.21134298 L17.2385997,9.21134298 L17.2385997,9.19625304 C17.8697442,9.09971175 18.3571491,8.55373044 18.3571491,7.89989038 C18.3571491,7.17866004 17.7639215,6.58843777 17.0390187,6.58843777 L14.2472986,6.58843777 L14.2472986,13.4457847 L17.7877058,13.4457847 C18.5362204,13.4457847 19.1487512,12.8363571 19.1487512,12.091463 C19.1487512,11.3465689 18.5362204,10.7371413 17.7877058,10.7371413 L17.2385997,10.7371413 L17.2385997,10.7338832 L15.8525635,10.7338832 C15.4318579,10.7338832 15.0875033,10.3914445 15.0875033,9.97269883 C15.0875033,9.55395311 15.4318579,9.21134298 15.8525635,9.21134298 Z" id="Fill-3" fill="#FFFFFF"></path>
                    <path d="M12.0893737,13.9269207 C12.1404739,14.4031597 11.7925794,14.8304268 11.312375,14.8809344 C10.8321705,14.931442 10.4013458,14.586591 10.3502455,14.1101814 L9.63363805,7.57081094 L7.09548827,13.9648014 L7.09307951,13.9709442 L7.0927354,13.9716268 L7.08585322,13.9886901 L7.08000336,14.0019996 L7.07260501,14.0185511 L7.06899186,14.0265709 L7.0627979,14.0390271 L7.05987297,14.0448287 L7.05316284,14.0577968 L7.05075407,14.0625746 C7.00395522,14.1499391 6.9437361,14.226895 6.87336576,14.2915652 L6.87078494,14.293954 L6.85770879,14.3057278 C6.81194226,14.3459974 6.7613582,14.3814892 6.70647278,14.411862 L6.70285963,14.4140803 L6.68617033,14.4229532 L6.68565417,14.4232945 L6.67016925,14.4311436 L6.66328707,14.4345563 L6.6533079,14.4393341 L6.64281257,14.4441118 L6.63369367,14.448207 L6.62285423,14.4529848 L6.61339123,14.4569093 L6.60444439,14.4606633 L6.59635782,14.4637347 L6.5918844,14.4656117 L6.58448605,14.4683418 L6.57278633,14.4726077 L6.5660762,14.4748259 C6.48142533,14.5041749 6.39522597,14.5197026 6.30971482,14.5229446 L6.29939154,14.5232859 L6.28700361,14.5234565 L6.26910993,14.5234565 L6.25689405,14.5232859 L6.24588255,14.5229446 C6.15039224,14.5193613 6.05369754,14.5002503 5.95958366,14.4637347 L5.94788395,14.4591276 L5.94495902,14.4577625 L5.93325931,14.4531554 L5.9219037,14.4480364 L5.91278481,14.4439412 L5.90297769,14.4395047 L5.89248236,14.4343857 L5.88646045,14.4314849 L5.87063143,14.4234651 L5.86891088,14.4224413 L5.85531856,14.4151041 L5.84757611,14.4110088 C5.79957287,14.3840487 5.75501072,14.3533346 5.71406172,14.3190372 L5.71062063,14.3161364 C5.70081351,14.3077754 5.69135051,14.2994143 5.68188751,14.2908826 L5.68119929,14.2902001 C5.67380094,14.2833748 5.66657465,14.2763788 5.65934835,14.2693828 C5.65229411,14.2622162 5.64523987,14.2550495 5.63818563,14.2477123 L5.63766947,14.2470297 C5.62889468,14.2376449 5.62046401,14.2280894 5.61203333,14.2183633 L5.60928046,14.2151212 C5.57452542,14.1743397 5.54355559,14.1301456 5.51654302,14.0825387 L5.51224165,14.0750309 L5.5048433,14.0613802 L5.50398303,14.0596738 L5.49572441,14.0439755 L5.49279948,14.0380033 L5.48780989,14.0277653 L5.48316442,14.0178685 L5.47903511,14.0088249 L5.47404552,13.9975631 L5.46922799,13.98596 L5.46802361,13.9832299 L5.46320608,13.9716268 L2.92230344,7.57081094 L2.20569594,14.1101814 C2.15476777,14.586591 1.723943,14.931442 1.24373855,14.8809344 C0.763362051,14.8304268 0.415639661,14.4031597 0.466567829,13.9269207 L1.31152807,6.21717285 L1.31221629,6.21171257 L1.31170013,6.21171257 C1.32185135,6.12178855 1.34112147,6.03254706 1.36847815,5.94484128 C1.39514662,5.859695 1.43076193,5.77574316 1.47480791,5.69383893 C1.6905644,5.29182565 2.08749442,5.00993858 2.56116079,4.94509773 L2.56288133,4.94475646 C2.57871036,4.94253822 2.59488349,4.94100252 2.61054046,4.93963745 C2.68486806,4.93195893 2.75850744,4.92974069 2.83111449,4.93298273 L2.83455558,4.933324 L2.83455558,4.93298273 C2.92918562,4.93758984 3.0176217,4.94919294 3.09900353,4.9681333 C3.55081897,5.07273183 3.93467283,5.38430918 4.11533018,5.83956021 L6.27805677,11.2873862 L8.4406113,5.83956021 C8.62126865,5.38447981 9.00512251,5.07273183 9.45693795,4.9681333 C9.53831979,4.94919294 9.62675586,4.93758984 9.7213859,4.93298273 L9.7213859,4.933324 L9.72482699,4.93298273 C9.7976061,4.92974069 9.87158959,4.93178829 9.94591718,4.93963745 C9.96174621,4.94100252 9.97723112,4.94253822 9.99306015,4.94475646 L9.9947807,4.94509773 C10.4684471,5.00993858 10.8655491,5.29182565 11.0813056,5.69383893 C11.1251796,5.77574316 11.1609669,5.859695 11.1874633,5.94484128 C11.2149921,6.03254706 11.2340901,6.12178855 11.2442414,6.21171257 L11.2438972,6.21171257 L11.2442414,6.21512525 L11.2445855,6.21717285 L12.0893737,13.9269207" id="Fill-6" fill="#FFFFFF"></path>
                </g>
            </g>
        </g>
    </g>
</svg>