<?xml version="1.0" encoding="UTF-8" standalone="no"?>
<svg width="34px" height="34px" viewBox="0 0 34 34" version="1.1" xmlns="http://www.w3.org/2000/svg" xmlns:xlink="http://www.w3.org/1999/xlink">
    <!-- Generator: Sketch 50.2 (55047) - http://www.bohemiancoding.com/sketch -->
    <title>mybank</title>
    <desc>Created with Sketch.</desc>
    <defs></defs>
    <g id="Page-1" stroke="none" stroke-width="1" fill="none" fill-rule="evenodd">
        <g id="deposit" transform="translate(-102.000000, -1765.000000)">
            <g id="mybank" transform="translate(103.000000, 1766.000000)">
                <rect id="Rectangle-6-Copy-26" stroke="#D0D5DF" fill="#FFFFFF" x="0" y="0" width="32" height="32" rx="2"></rect>
                <g id="Group-29" transform="translate(5.000000, 6.000000)" fill-rule="nonzero">
                    <path d="M13.1079595,13.7279305 C13.253835,13.483068 13.2798842,13.3163531 13.2798842,13.3163531 L11.847178,9.57047757 C11.847178,9.57047757 11.586686,8.8463097 12.1597685,8.63270622 C12.76411,8.40347323 12.9881331,8.9869754 13.0298119,9.10680174 C13.0714906,9.22662808 13.9363242,11.518958 13.9363242,11.518958 L14.7646889,9.11201158 C14.7646889,9.11201158 14.9991317,8.3617945 15.6659913,8.63270622 C16.2130246,8.85151954 15.9316932,9.58610709 15.9316932,9.58610709 C15.9316932,9.58610709 15.0824891,12.0920405 14.3739508,13.910275 C13.9519537,14.9939219 13.5872648,15.1033285 13.1756874,15.2075253 C12.6234443,15.3429812 11.5762663,15.2752533 11.5762663,14.5875543 C11.5762663,14.0457308 12.1337192,14.0092619 12.3837916,14.0196816 C12.3890014,14.0144718 12.9099855,14.0561505 13.1079595,13.7279305 Z" id="Shape" fill="#27BDED"></path>
                    <path d="M9.7788712,7.43444284 L8.47120116,11.0448625 L7.04370478,7.4552822 C7.04370478,7.4552822 6.8301013,6.77279305 6.23617945,6.77279305 C5.54848046,6.77279305 5.56931983,7.31982634 5.5536903,7.4552822 C5.53806078,7.59073806 5.5536903,13.0714906 5.5536903,13.0714906 C5.5536903,13.0714906 5.54848046,13.6445731 6.1788712,13.6445731 C6.82489146,13.6445731 6.79363242,13.0662808 6.79884226,13.0662808 C6.8040521,13.0662808 6.79884226,10.1748191 6.79884226,10.1748191 L7.8512301,13.0662808 C7.8512301,13.0662808 8.00752533,13.6341534 8.49204052,13.6237337 C8.97655572,13.613314 9.11722142,13.0662808 9.11722142,13.0662808 L9.99768452,10.1800289 L9.99768452,13.0662808 C9.99768452,13.0662808 9.99768452,13.6445731 10.6332851,13.6445731 C11.2480463,13.6445731 11.2480463,13.0662808 11.2480463,13.0662808 L11.2480463,7.46049204 C11.2480463,7.46049204 11.2480463,6.77279305 10.5811867,6.77800289 C10.0237337,6.77800289 9.81534009,7.30940666 9.7788712,7.43444284 C9.77366136,7.45007236 9.77366136,7.4552822 9.77366136,7.4552822" id="Shape" fill="#27BDED"></path>
                    <path d="M22,15.8587554 L16.8069465,15.8587554 C15.2075253,17.7499276 12.8266281,18.9429812 10.1591896,18.9429812 C5.32966715,18.9429812 1.41186686,15.0251809 1.41186686,10.1956585 C1.41186686,5.36613603 5.32966715,1.44833575 10.1591896,1.44833575 C12.8370478,1.44833575 15.2283647,2.65180897 16.8329957,4.54298119 L18.5991317,4.54298119 C16.7756874,1.82865412 13.681042,0.0416787265 10.1696093,0.0416787265 C4.56382055,0.0416787265 0.0156295224,4.58986975 0.0156295224,10.1956585 C0.0156295224,15.8014472 4.56382055,20.3496382 10.1696093,20.3496382 C13.1131693,20.3496382 15.7545586,19.0940666 17.6092619,17.0934877 L22,17.0778582 L22,15.8587554 Z" id="Shape" fill="#27BDED"></path>
                    <path d="M21.27178,9.96121563 C21.3030391,9.91432706 21.730246,9.57047757 21.6937771,8.66396527 C21.6260492,6.82489146 20.0266281,6.84573082 19.6723589,6.8301013 C19.1044863,6.81447178 18.7606368,6.81968162 17.7134588,6.8301013 C16.8277858,6.84052098 16.8382055,7.64283647 16.8382055,7.64283647 L16.8382027,13.6445731 C16.8382027,13.6445731 18.4272069,13.6445731 19.8182344,13.6445731 C21.4124457,13.6445731 22.0063676,12.7693198 22.0063676,11.5397974 C22.0063676,10.3050651 21.27178,9.96121563 21.27178,9.96121563 Z M18.1198263,8.10130246 L19.766136,8.10130246 C20.094356,8.11172214 20.4434153,8.28364689 20.4434153,8.77858177 C20.4434153,9.28914616 20.1412446,9.45586107 19.766136,9.45586107 L18.1198263,9.45586107 L18.1198263,8.10130246 Z M19.8807525,12.4202605 L18.1146165,12.4202605 L18.1146165,10.7374819 L19.8807525,10.7374819 C20.3079595,10.7583213 20.7247467,10.9771346 20.7247467,11.5814761 C20.7247467,12.1962373 20.3496382,12.4202605 19.8807525,12.4202605 Z" id="Shape" fill="#204866"></path>
                </g>
            </g>
        </g>
    </g>
</svg>