<?xml version="1.0" encoding="UTF-8" standalone="no"?>
<svg width="32px" height="32px" viewBox="0 0 32 32" version="1.1" xmlns="http://www.w3.org/2000/svg" xmlns:xlink="http://www.w3.org/1999/xlink">
    <!-- Generator: Sketch 49.1 (51147) - http://www.bohemiancoding.com/sketch -->
    <title>neosurf</title>
    <desc>Created with Sketch.</desc>
    <defs></defs>
    <g id="Page-1" stroke="none" stroke-width="1" fill="none" fill-rule="evenodd">
        <g id="neosurf">
            <g id="Group-7">
                <path d="M-5.41811455e-08,18.4888888 L0.00275767795,18.491953 C5.01706488,13.9790765 9.87831255,12.7637646 14.7543312,14.714172 C14.8802685,14.764547 19.1972062,16.5378345 20.3518689,16.9729248 C22.3759329,17.7356156 23.9614536,18.1921468 25.4414035,18.3894735 C27.940807,18.7227273 30.0915029,18.2705363 31.9999999,16.8998159 L31.9999999,28 C31.9999999,30.209139 30.2091389,32 27.9999999,32 L3.99999995,32 C1.79086095,32 -5.41811457e-08,30.209139 -5.4181146e-08,28 L-5.4181146e-08,18.4888888 Z M-5.4181146e-08,15.3661874 L-5.4181146e-08,4 C-5.41811462e-08,1.790861 1.79086095,4.05812251e-16 3.99999995,0 L27.9999999,0 C30.2091389,-4.05812251e-16 31.9999999,1.790861 31.9999999,4 L31.9999999,13.6679194 C30.2031126,15.6978273 28.2828367,16.3470919 25.7585965,16.0105265 C24.492741,15.8417458 23.0662625,15.4310088 21.1981311,14.7270752 C20.0825352,14.3067058 15.8009815,12.547953 15.6456688,12.485828 C10.4009982,10.3879597 5.14421075,11.380732 -5.4181146e-08,15.3661874 Z" id="Combined-Shape" fill="#7FCEF3"></path>
                <path d="M-3.03576608e-17,18.4587596 L0.00275767794,18.491953 C5.01706488,13.9790765 9.87831255,12.7637646 14.7543312,14.714172 C14.8802685,14.764547 19.1972062,16.5378345 20.3518689,16.9729248 C22.3759329,17.7356156 23.9614536,18.1921468 25.4414035,18.3894735 C27.940807,18.7227273 30.091503,18.2705363 32,16.8998159 L32,28 C32,30.209139 30.209139,32 28,32 L4,32 C1.790861,32 2.705415e-16,30.209139 0,28 L0,18.4587596 Z" id="Combined-Shape" fill="#ED008C"></path>
                <path d="M9.36773431,25.4791645 C10.4014114,25.4653347 11.4352919,25.4803847 12.4690707,25.4768256 C12.6870936,25.4761138 12.9127434,25.5112985 13.1126656,25.3815422 C13.2430319,25.1801964 13.1954411,24.9536314 13.1956445,24.7372355 C13.1982884,21.636611 13.1968647,18.5359864 13.1965597,15.4353619 C13.196458,15.1650704 13.1965597,14.8947788 13.2934701,14.5887941 C13.6805016,15.3242149 14.0679398,16.0594324 14.4545645,16.7950566 C15.6751475,19.1175506 16.8226155,21.4784833 18.116822,23.7621317 C18.2498323,23.9968319 18.4134512,24.2155667 18.5761549,24.4316576 C19.8271432,26.0927609 22.0180505,25.8427056 22.8786515,24.558058 C23.1626712,24.1339097 23.3272053,23.753183 23.3287307,23.3182556 C23.3481534,17.8678843 23.3421537,12.4175129 23.3414419,6.96714156 C23.3414419,6.89758572 23.3290358,6.83341944 23.2882581,6.77606638 C21.8655158,6.76630416 20.4426717,6.76315177 19.020031,6.74250874 C18.5938489,6.73630566 18.6804887,7.03008757 18.6802853,7.26529614 C18.6768278,10.0108198 18.6798785,12.7563434 18.6777431,15.5018671 C18.6775397,15.7542612 18.652829,16.0066554 18.6395077,16.2591512 C18.5053788,16.1739351 16.1590894,11.6854479 15.4435998,10.2856874 C15.0736522,9.5618592 14.7268899,8.82531978 14.3329435,8.11491464 C13.3983123,6.42971083 11.1425269,5.88444997 9.59002827,6.93938024 C9.32360092,7.12048982 8.83254074,7.61480407 8.84138776,8.12315152 C8.83081202,9.60812807 8.8,25.1053527 8.8,25.1053527 C8.8,25.1053527 8.8,25.4867912 9.36773431,25.4791645" id="Fill-10" fill="#FFFFFF"></path>
            </g>
        </g>
    </g>
</svg>