<?xml version="1.0" encoding="UTF-8" standalone="no"?>
<svg width="32px" height="32px" viewBox="0 0 32 32" version="1.1" xmlns="http://www.w3.org/2000/svg" xmlns:xlink="http://www.w3.org/1999/xlink">
    <!-- Generator: Sketch 50.2 (55047) - http://www.bohemiancoding.com/sketch -->
    <title>paysera</title>
    <desc>Created with Sketch.</desc>
    <defs></defs>
    <g id="Page-1" stroke="none" stroke-width="1" fill="none" fill-rule="evenodd">
        <g id="deposit" transform="translate(-103.000000, -1486.000000)">
            <g id="paysera" transform="translate(103.000000, 1486.000000)">
                <rect id="Rectangle-6-Copy-26" fill="#F37B28" x="0" y="0" width="32" height="32" rx="2"></rect>
                <path d="M28,7 C27.8417047,7.29223744 27.5616438,7.21917808 27.3181126,7.2435312 C24.1643836,7.51141553 21.0350076,7.97412481 18.0882801,9.21613394 C17.0410959,9.66666667 16.0547945,10.2511416 15.4824962,11.2983257 C14.9589041,12.2480974 15.0806697,12.8812785 15.8721461,13.6362253 C16.7732116,14.4885845 17.8082192,15.1704718 18.7945205,15.913242 C19.6347032,16.5464231 20.4748858,17.1796043 21.1689498,17.9954338 C22.2039574,19.2009132 22.1674277,20.6864536 21.0715373,21.8310502 C19.8417047,23.109589 18.2343988,23.608828 16.5905632,23.9863014 C14.4961948,24.4733638 12.3531202,24.6803653 10.1978691,24.7534247 C8.70015221,24.8021309 7.19025875,24.7656012 5.69254186,24.7656012 C5.15677321,24.7656012 4.60882801,24.7290715 4,24.5829528 C7.26331811,24.5098935 10.4170472,24.2663623 13.5342466,23.5601218 C14.8980213,23.2435312 16.2496195,22.8660578 17.3820396,22.0015221 C17.5890411,21.8432268 17.7838661,21.6605784 17.9543379,21.4535769 C18.6118721,20.6377473 18.6118721,20.1263318 17.8934551,19.3713851 C16.8828006,18.2998478 15.6286149,17.5449011 14.5083714,16.6073059 C13.9360731,16.1324201 13.3759513,15.6210046 12.8888889,15.0487062 C11.9391172,13.9162861 11.8660578,12.6377473 12.718417,11.2861492 C13.6438356,9.82496195 15.0928463,9.05783866 16.651446,8.47336377 C18.8554033,7.65753425 21.1689498,7.34094368 23.4824962,7.1217656 C23.6286149,7.1217656 26.6240487,7 28,7 Z" id="Shape" fill="#FFFFFF" fill-rule="nonzero"></path>
            </g>
        </g>
    </g>
</svg>