<?xml version="1.0" encoding="UTF-8" standalone="no"?>
<svg width="34px" height="34px" viewBox="0 0 34 34" version="1.1" xmlns="http://www.w3.org/2000/svg" xmlns:xlink="http://www.w3.org/1999/xlink">
    <!-- Generator: Sketch 50.2 (55047) - http://www.bohemiancoding.com/sketch -->
    <title>przelewy24</title>
    <desc>Created with Sketch.</desc>
    <defs></defs>
    <g id="Page-1" stroke="none" stroke-width="1" fill="none" fill-rule="evenodd">
        <g id="deposit" transform="translate(-102.000000, -1541.000000)">
            <g id="przelewy24" transform="translate(103.000000, 1542.000000)">
                <rect id="Rectangle-6-Copy-26" stroke="#D0D5DF" fill="#FFFFFF" x="0" y="0" width="32" height="32" rx="2"></rect>
                <g id="Group-28" transform="translate(4.000000, 11.000000)">
                    <path d="M1.84426738,5.36300719 L4.31298997,5.36300719 C5.34559232,5.36300719 6.02626007,5.25714023 6.35471767,5.04513077 C6.68317527,4.83323153 6.91507957,4.3462215 7.05048566,3.58415578 C7.20909321,2.69136834 7.21129762,2.12654252 7.05715401,1.88978851 C6.90312062,1.65308962 6.45854555,1.53471262 5.723539,1.53471262 L5.32569749,1.52793405 L2.52548623,1.52793405 L1.84426738,5.36300719 Z M0,9.88122804 L1.64002847,0.648648649 L5.86743209,0.648648649 C6.90901743,0.648648649 7.58362305,0.84936049 7.89113872,1.25061884 C8.19854417,1.65204253 8.25459138,2.40275552 8.05911502,3.50297825 C7.87168477,4.55812074 7.54664401,5.27742084 7.08404785,5.66065811 C6.62128637,6.04395049 5.8467106,6.23556913 4.7599899,6.23556913 L4.35294496,6.2423477 L1.68802958,6.2423477 L1.04164045,9.88122804 L0,9.88122804 Z" id="Fill-1" fill="#BE4244"></path>
                    <path d="M14.9486785,8.75670165 L14.7946451,9.62865737 L8.30297825,9.62865737 L8.60691175,7.90486119 C8.77731291,6.93905256 9.07375141,6.30638591 9.49639257,6.0066408 C9.91903373,5.70717123 10.8380537,5.47681003 12.2532871,5.31588785 C13.3846472,5.19073228 14.0849893,5.020772 14.3539829,4.80606214 C14.6229213,4.59146249 14.8366392,4.03473788 14.9949712,3.13599853 C15.1338492,2.34896783 15.095272,1.83809502 14.8791844,1.60332499 C14.6629314,1.36861007 14.1211417,1.25122506 13.2539255,1.25122506 C12.170842,1.25122506 11.4704999,1.34623528 11.1531195,1.53625571 C10.8355737,1.72638637 10.6129831,2.18358171 10.4852373,2.90795196 L10.3778824,3.59209167 L9.38066086,3.59209167 L9.47115204,3.11582815 C9.66436887,2.0203449 10.0208776,1.29040851 10.5408436,0.925908746 C11.0607546,0.561519208 12.0053457,0.379214218 13.3746171,0.379214218 C14.5897449,0.379214218 15.3719259,0.576068337 15.7207743,0.969501022 C16.0696227,1.36309904 16.1434706,2.12990425 15.9423178,3.27013709 C15.7488806,4.36573056 15.4253829,5.09787136 14.9707226,5.46672484 C14.515897,5.83568853 13.6254242,6.08500769 12.2994145,6.2146272 C11.1342166,6.33096512 10.4234035,6.49194241 10.1670854,6.69755907 C9.91065696,6.90328595 9.69771062,7.48679419 9.52813612,8.44813888 L9.47379733,8.75670165 L14.9486785,8.75670165" id="Fill-11" fill="#AAADB0"></path>
                    <path d="M21.387219,6.6438816 L22.3582631,1.13714666 L22.3384234,1.13714666 L17.180096,6.6438816 L21.387219,6.6438816 Z M23.4924338,0.47317734 L22.4040047,6.6438816 L23.7514524,6.6438816 L23.5976946,7.51583733 L22.2502468,7.51583733 L21.877701,9.62865737 L20.8609153,9.62865737 L21.2334612,7.51583733 L16.1881099,7.51583733 L16.401938,6.30181175 L21.920687,0.47317734 L23.4924338,0.47317734 Z" id="Fill-12" fill="#AAADB0"></path>
                </g>
            </g>
        </g>
    </g>
</svg>