<?xml version="1.0" encoding="UTF-8"?>
<svg width="52px" height="52px" viewBox="0 0 52 52" version="1.1" xmlns="http://www.w3.org/2000/svg" xmlns:xlink="http://www.w3.org/1999/xlink">
    <!-- Generator: Sketch 51.3 (57544) - http://www.bohemiancoding.com/sketch -->
    <title>sacombank</title>
    <desc>Created with Sketch.</desc>
    <defs></defs>
    <g id="sacombank" stroke="none" stroke-width="1" fill="none" fill-rule="evenodd">
        <rect id="Rectangle" fill="#0072BC" fill-rule="nonzero" x="0" y="0" width="52" height="52" rx="4"></rect>
        <g id="Group-17" transform="translate(14.000000, 10.000000)" fill-rule="nonzero">
            <path d="M1.07954545,30 C8.4688667,30 15.858406,30 23.2477273,30 C23.2475092,30.5323636 23.2475092,31.0661818 23.2477273,31.6 C15.858406,31.6 8.4688667,31.6 1.07954545,31.6 C1.07954545,31.0661818 1.07954545,30.5323636 1.07954545,30 Z" id="Shape" fill="#FFE000"></path>
            <path d="M6.39320849,2.60890353 C8.5420025,1.05574014 11.1899199,0.309316963 13.822758,0.245984087 C16.5521034,0.111778707 19.5438278,0.482728408 21.6971456,2.31938181 C23.3724509,3.79262513 23.7976859,6.14498909 23.7645116,8.27418006 C21.2447679,8.27568799 18.7250242,8.27418006 16.2052805,8.27418006 C16.2037725,7.53831236 15.8916319,6.74514349 15.1648118,6.45411384 C14.1047401,6.00776786 12.8712569,6.00022823 11.7734871,6.30482921 C11.025556,6.50387539 10.4359571,7.28196501 10.6591301,8.06608633 C10.9079378,8.91504845 11.8262645,9.25583964 12.5741956,9.54083758 C14.9024327,10.321943 17.3980496,10.6612263 19.5649387,11.8751064 C21.1437369,12.6652595 22.5310284,14.093265 22.7376142,15.9133312 C23.0437231,18.9080715 21.8811125,22.101858 19.5302565,24.0289869 C17.3136058,25.7661172 14.5194196,26.6573012 11.7372969,26.9030931 C9.32009211,27.108171 6.76868197,26.946823 4.58671361,25.7932599 C2.96418565,24.9081075 1.52411668,23.5178001 0.926978139,21.7309083 C0.551504661,20.6723445 0.509282743,19.5293369 0.619361313,18.4210115 C3.16624768,18.4059323 5.71464197,18.4195036 8.26152833,18.4149798 C8.3007344,19.0965622 8.50430436,19.8113189 9.05469721,20.2606808 C10.2700853,21.2664672 12.0147552,21.310197 13.4638717,20.8532955 C14.2721198,20.6090116 15.0321143,19.8475092 14.9295754,18.9502934 C14.8948931,18.3606945 14.4500551,17.8796662 13.9283128,17.6534774 C11.1793644,16.4772954 8.1122437,16.141028 5.51710371,14.5893725 C4.17806577,13.8957268 3.12100991,12.6215296 2.88275766,11.1090802 C2.63394994,10.1183731 2.86918633,9.11409463 2.94307469,8.12037165 C3.220533,5.89165759 4.56711057,3.88159275 6.39320849,2.60890353 Z" id="Shape" fill="#FFFFFF"></path>
        </g>
    </g>
</svg>