<?xml version="1.0" encoding="UTF-8"?>
<svg width="52px" height="52px" viewBox="0 0 52 52" version="1.1" xmlns="http://www.w3.org/2000/svg" xmlns:xlink="http://www.w3.org/1999/xlink">
    <!-- Generator: Sketch 51.3 (57544) - http://www.bohemiancoding.com/sketch -->
    <title>techcombank</title>
    <desc>Created with Sketch.</desc>
    <defs></defs>
    <g id="techcombank" stroke="none" stroke-width="1" fill="none" fill-rule="evenodd">
        <rect id="Rectangle" fill="#D8262C" fill-rule="nonzero" x="0" y="0" width="52" height="52" rx="4"></rect>
        <g id="Group-42" transform="translate(8.000000, 14.000000)" fill="#FFFFFF">
            <path d="M35.8905763,12.1167458 L23.9601356,0.145830508 L17.9737627,6.13179661 L23.9601356,12.1167458 L17.9737627,18.100678 L23.9601356,24.0475932 L35.8905763,12.1167458 Z M17.9737627,6.13179661 L12.028678,12.1167458 L17.9737627,18.100678 L12.028678,24.0475932 L0.0585762712,12.1167458 L12.028678,0.145830508 L17.9737627,6.13179661 Z" id="Fill-15"></path>
            <path d="M34.8862373,23.0048136 C34.9635254,23.0048136 35.0021695,22.9661695 35.0410169,22.9661695 C35.0808814,22.9275254 35.1183051,22.851661 35.1183051,22.7739661 C35.1183051,22.6968814 35.0808814,22.6195932 35.0410169,22.5807458 C35.0021695,22.5807458 34.9635254,22.5421017 34.8862373,22.5421017 L34.8862373,22.4261695 C35.0021695,22.4261695 35.0808814,22.4648136 35.1183051,22.5032542 C35.1957966,22.5807458 35.2342373,22.6580339 35.2342373,22.7739661 C35.2342373,22.8888814 35.1957966,22.9661695 35.1183051,23.0048136 C35.0808814,23.0823051 35.0021695,23.1207458 34.8862373,23.1207458 L34.8862373,23.0048136 Z M34.8862373,24.0475932 C35.427661,24.0475932 35.8905763,23.6223051 35.8905763,23.0432542 C35.8905763,22.5032542 35.427661,22.0781695 34.8862373,22.0781695 L34.8862373,22.1552542 C35.3892203,22.1552542 35.8128814,22.5421017 35.8128814,23.0432542 C35.8128814,23.5848814 35.3892203,23.9703051 34.8862373,23.9703051 L34.8862373,24.0475932 Z M34.8862373,23.2755254 L34.8862373,23.1207458 L35.3501695,23.7384407 L35.1957966,23.7384407 L34.8862373,23.2755254 Z M34.6942373,22.5421017 L34.6942373,23.0048136 L34.8101695,23.0048136 C34.8477966,23.0048136 34.8477966,23.0048136 34.8862373,23.0048136 L34.8862373,23.2755254 L34.7717288,23.1207458 L34.6942373,23.1207458 L34.6942373,23.7384407 L34.5783051,23.7384407 L34.5783051,22.4261695 L34.8101695,22.4261695 C34.8477966,22.4261695 34.8477966,22.4261695 34.8862373,22.4261695 L34.8862373,22.5421017 C34.8477966,22.5421017 34.8477966,22.5421017 34.8101695,22.5421017 L34.6942373,22.5421017 Z M34.8862373,22.0781695 C34.3462373,22.0781695 33.8835254,22.5032542 33.8835254,23.0432542 C33.8835254,23.6223051 34.3462373,24.0475932 34.8862373,24.0475932 L34.8862373,23.9703051 C34.3850847,23.9703051 33.9591864,23.5848814 33.9591864,23.0432542 C33.9591864,22.5421017 34.3850847,22.1552542 34.8862373,22.1552542 L34.8862373,22.0781695 Z" id="Fill-20"></path>
        </g>
    </g>
</svg>