<?xml version="1.0" encoding="UTF-8" standalone="no"?>
<svg width="34px" height="34px" viewBox="0 0 34 34" version="1.1" xmlns="http://www.w3.org/2000/svg" xmlns:xlink="http://www.w3.org/1999/xlink">
    <!-- Generator: Sketch 49.1 (51147) - http://www.bohemiancoding.com/sketch -->
    <title>teleingreso</title>
    <desc>Created with Sketch.</desc>
    <defs></defs>
    <g id="Page-1" stroke="none" stroke-width="1" fill="none" fill-rule="evenodd">
        <g id="teleingreso" transform="translate(1.000000, 1.000000)">
            <rect id="Rectangle-6-Copy-9" stroke="#D0D5DF" fill="#FFFFFF" x="0" y="0" width="32" height="32" rx="2"></rect>
            <path d="M26.0770109,9 C26.4432392,9.0945992 26.7967146,9.21518673 27.083111,9.48091101 C27.8951059,10.2343608 27.812715,11.4564894 26.8963471,12.0782199 C26.2629777,12.5079161 25.5782608,12.564591 24.8859928,12.2510803 C24.2908403,11.9815044 23.9171029,11.5183704 23.8831649,10.8367482 C23.8472552,10.1151701 24.1898653,9.60403811 24.7922333,9.24604257 C24.9853317,9.1313384 25.2063692,9.09455687 25.4058021,9 C25.6295244,9 25.8532886,9 26.0770109,9 Z M27.999934,14.9989646 C28.0081351,15.9898612 27.2520396,16.9774692 26.0205705,16.9893851 C24.9390652,16.9998061 24.0595341,16.0897153 24.0597015,15.0007584 C24.0599107,13.8955291 24.9572249,12.9817227 26.0294411,12.9948771 C27.1319514,13.0084159 27.9976745,13.8889092 27.999934,14.9989646 Z M25.6798224,21.1657891 C24.5837262,21.1651279 23.7057423,20.3186182 23.7015075,19.258384 C23.6973147,18.2070342 24.5742503,17.3521772 25.6565101,17.3526318 C26.763382,17.353045 27.6444266,18.2067863 27.6417851,19.2763183 C27.6391856,20.3361807 26.7770507,21.1664503 25.6798224,21.1657891 Z M20.1194049,16.5460066 C20.1207834,15.4964418 20.9301359,14.6339069 21.9182093,14.6289699 C22.9208382,14.6239094 23.7042826,15.4729087 23.7014851,16.5614347 C23.6988091,17.5938847 22.8828884,18.4439536 21.8963963,18.4421022 C20.9013087,18.4402509 20.1179858,17.6044581 20.1194049,16.5460066 Z M21.932024,22.4368421 C20.6058483,22.4082501 19.6882752,21.1971756 20.0021065,19.9918694 C20.2213738,19.1497942 21.0884106,18.6482507 21.9767149,18.8496815 C23.2066269,19.1286303 23.8914176,20.5227104 23.3157009,21.5950159 C23.0059738,22.1719196 22.4982885,22.429746 21.932024,22.4368421 Z M18.2918053,16.4447352 C17.6120223,16.4439747 17.0626486,15.9513012 16.9319149,15.1595421 C16.7967206,14.3404475 17.0360883,13.6349201 17.6853775,13.1300786 C18.5338492,12.4703499 19.6105373,12.8859177 19.8780872,13.9573274 C20.117171,14.914832 19.6462619,15.9769467 18.8236207,16.3356465 C18.6398068,16.4157942 18.4974352,16.4449887 18.2918053,16.4447352 Z M19.5820667,21.3779946 C19.5785452,22.1282377 19.1812461,22.6665726 18.5176976,22.7803338 C18.0479985,22.8608463 17.6415603,22.6868165 17.28065,22.3922916 C16.6524001,21.8795455 16.3712263,20.9262327 16.6376015,20.2135312 C16.9148766,19.4717056 17.646591,19.1581574 18.3735682,19.4696854 C19.0908194,19.7770048 19.5859655,20.5588552 19.5820667,21.3779946 Z M16.7135518,13.2478962 C16.7104049,13.8614736 16.5054022,14.3981811 16.0593733,14.8152111 C15.3598962,15.4691691 14.4727657,15.1964216 14.2661067,14.2568696 C14.0927798,13.468923 14.3153802,12.7802752 14.9109688,12.2375001 C15.237085,11.9402731 15.6325569,11.8080839 16.0574272,11.984922 C16.4996467,12.1689994 16.662415,12.5654416 16.7123924,13.0184586 C16.7207151,13.094073 16.7135518,13.1714031 16.7135518,13.2478962 Z M14.0296897,12.6116527 C13.9913408,13.2380152 13.8158455,13.808649 13.3264493,14.2301665 C12.8862892,14.6093023 12.3876308,14.4788717 12.1642399,13.9419954 C12.1356407,13.8731662 12.1077727,13.8015854 12.0956667,13.7285673 C11.9734294,12.9926365 12.1611525,12.3519824 12.6838197,11.8194182 C12.7447149,11.7573651 12.8195442,11.7057432 12.895389,11.6627455 C13.3423738,11.409605 13.7560877,11.5626638 13.9372297,12.048411 C14.0044217,12.2286565 14.032249,12.4174441 14.0296897,12.6116527 Z M11.7005282,12.5019624 C11.6762614,13.0323436 11.5423201,13.5243403 11.2143678,13.9488478 C11.1453166,14.0382289 11.0638641,14.1123827 10.9693512,14.1713093 C10.6960302,14.3416353 10.4256756,14.2806419 10.2649543,13.9966386 C10.0447814,13.6077739 10.061385,13.1889609 10.1545794,12.7693886 C10.2429535,12.3715394 10.4067236,12.0107249 10.7130458,11.7362545 C11.0913445,11.3972475 11.4808084,11.5122745 11.6325481,12.0026262 C11.6827298,12.1648535 11.7067494,12.3306662 11.7005282,12.5019624 Z M8.47783021,13.6682192 C8.48204877,13.2554181 8.57437959,12.8687934 8.77468173,12.5139817 C8.83342323,12.4099167 8.90275094,12.3152035 8.98783855,12.2349663 C9.24887209,11.988746 9.5440521,12.0513046 9.64099945,12.4090627 C9.84285371,13.153659 9.70360134,13.8464577 9.25189672,14.4473615 C9.03535708,14.7354725 8.74029646,14.6684303 8.58592094,14.3333043 C8.51400638,14.1771427 8.47428821,13.9330576 8.47783021,13.6682192 Z M8.29850746,13.8788754 C8.29324167,14.2783247 8.21665963,14.6582332 8.03451297,15.0130177 C7.98517208,15.1091329 7.92351669,15.1941678 7.8441981,15.2642572 C7.68750968,15.4026321 7.52331646,15.3819747 7.39818133,15.2107024 C7.3214749,15.1057401 7.27677786,14.9835561 7.25803661,14.8570774 C7.1797546,14.3279714 7.22739551,13.8151851 7.49143147,13.3441433 C7.59160591,13.1654841 7.71346547,12.9614433 7.94561644,12.9993225 C8.19294283,13.0396497 8.22851803,13.2862938 8.27093461,13.4948441 C8.29626846,13.6193472 8.29038073,13.7506359 8.29850746,13.8788754 Z M7.04435338,14.8068847 C7.04250047,15.1721973 6.9943248,15.5272606 6.82035262,15.8505983 C6.7531242,15.9755871 6.67324765,16.0969185 6.51176248,16.0799925 C6.36143505,16.0642147 6.30032928,15.940757 6.25763178,15.8113028 C6.06795015,15.2366692 6.1355411,14.6818534 6.39567361,14.1503429 C6.4596393,14.0196554 6.55486278,13.8873519 6.71948985,13.9040652 C6.88802413,13.9211614 6.9345483,14.0792366 6.98195864,14.2186423 C7.04644798,14.4083156 7.04592433,14.6079829 7.04435338,14.8068847 Z M5.96889872,15.8700591 C5.97076868,16.2153629 5.9458726,16.5153367 5.81552568,16.7914222 C5.76866679,16.8906669 5.71458473,16.9857644 5.60095742,16.9893726 C5.48311353,16.9931051 5.42448492,16.892865 5.38844244,16.7925419 C5.18909048,16.23809 5.21097997,15.6905641 5.45422088,15.1585076 C5.49645989,15.0661059 5.56293498,14.9873902 5.66886248,14.9923255 C5.78567972,14.9977999 5.83459189,15.0998234 5.87430096,15.2006441 C5.96314219,15.4261326 5.97469192,15.6668831 5.96889872,15.8700591 Z M5.25372671,17.2830531 C5.25404717,17.545903 5.23794448,17.8059998 5.13836421,18.0507146 C5.09654531,18.1534511 5.04046631,18.2548329 4.92882906,18.2602953 C4.8168313,18.2658014 4.7482547,18.1720232 4.70623551,18.0700296 C4.48772772,17.5397851 4.48304112,17.0026799 4.6815207,16.465225 C4.71877317,16.3642802 4.77965894,16.2680111 4.89618307,16.2633353 C5.02716758,16.2580914 5.07619664,16.3700048 5.12222147,16.4757128 C5.23353828,16.731265 5.25196423,17.0057825 5.25372671,17.2830531 Z M4,18.4980259 C4.00284188,18.2899406 4.01186903,18.0824377 4.1045645,17.8902854 C4.14401649,17.808499 4.19174337,17.7249237 4.29471975,17.7164788 C4.39903349,17.7079091 4.46573411,17.7805435 4.50506072,17.8617891 C4.73767702,18.3423987 4.78306353,18.839815 4.6173986,19.3505017 C4.58935592,19.4370306 4.54083498,19.5209802 4.43647945,19.5307147 C4.33325231,19.540366 4.26993688,19.4676069 4.22049651,19.3911453 C4.04459245,19.1192034 4.0027583,18.8130659 4,18.4980259 Z" id="Combined-Shape" fill="#35AAE5"></path>
        </g>
    </g>
</svg>