<?xml version="1.0" encoding="UTF-8"?>
<svg width="52px" height="52px" viewBox="0 0 52 52" version="1.1" xmlns="http://www.w3.org/2000/svg" xmlns:xlink="http://www.w3.org/1999/xlink">
    <!-- Generator: Sketch 51.3 (57544) - http://www.bohemiancoding.com/sketch -->
    <title>tmb</title>
    <desc>Created with Sketch.</desc>
    <defs></defs>
    <g id="tmb" stroke="none" stroke-width="1" fill="none" fill-rule="evenodd">
        <rect id="Rectangle" fill="#0F6DB6" fill-rule="nonzero" x="0" y="0" width="52" height="52" rx="4"></rect>
        <g id="TMB_Bank_Logo" transform="translate(8.000000, 15.000000)" fill-rule="nonzero">
            <path d="M13.7769091,0 C12.7220313,0 11.8679245,0.851934768 11.8679245,1.90633546 C11.8679245,2.96237955 12.7220313,3.82088784 13.7769091,3.82088784 C14.8324459,3.82088784 15.6858936,2.96237955 15.6858936,1.90633546 C15.6858936,0.851934768 14.8324459,1.71408647e-16 13.7769091,0 Z M23.2230909,0 C22.1672256,0 21.3141073,0.851934768 21.3141073,1.90633546 C21.3141073,2.96237955 22.1672256,3.82088784 23.2230909,3.82088784 C24.2802743,3.82088784 25.1320755,2.96237955 25.1320755,1.90633546 C25.1320755,0.851934768 24.2802743,1.71408647e-16 23.2230909,0 Z M11.9255239,5.41497874 L11.9255239,17.4528302 L14.5668342,17.4528302 L14.5668342,9.00579133 L14.6079757,9.00579133 L17.4796814,17.4528302 L19.5203195,17.4528302 L22.4249379,8.99757482 L22.4249379,17.4528302 L25.0744771,17.4528302 L25.0744771,5.41497874 L21.256508,5.41497874 L18.590513,13.6894611 L18.5575993,13.6894611 L15.743493,5.41497874 L11.9255239,5.41497874 Z" id="path3186" fill="#FFFFFF"></path>
            <polygon id="path3194" fill="#C7303A" points="0 7.77941682 0 5.58490566 10.4716981 5.58490566 10.4716981 7.77941682 6.6265807 7.77941682 6.6265807 17.4528302 3.84580821 17.4528302 3.84580821 7.77941682"></polygon>
            <path d="M34.2379355,5.73105922 C34.6971854,5.83378795 35.0901248,5.99582069 35.4180662,6.22234238 C35.7430538,6.44724384 35.9958212,6.75056904 36.1763703,7.12745719 C36.3556058,7.50369716 36.4468649,7.97132362 36.4468649,8.52223484 C36.4468649,9.12110821 36.3145715,9.61984437 36.0470318,10.0171487 C35.7837596,10.4138052 35.3858954,10.7440272 34.8655874,10.9967985 C35.5828581,11.2100332 36.1179384,11.5775235 36.4668896,12.1021854 C36.8214208,12.6287919 37,13.2672005 37,14.0067183 C37,14.608184 36.8837925,15.1266884 36.6549877,15.564825 C36.4268401,16.0013414 36.1179384,16.3604051 35.7328777,16.6355372 C35.3465033,16.9126129 34.9056368,17.1190423 34.4073224,17.2519094 C33.9152454,17.3860722 33.4054422,17.4528302 32.8785691,17.4528302 L27.2264151,17.4528302 L27.2264151,5.58490566 L32.7213273,5.58490566 C33.2734775,5.58490566 33.7806554,5.63124701 34.2379355,5.73105922 Z M33.5262458,10.0527959 C33.8230024,9.83145893 33.9710521,9.47174633 33.9710521,8.9704176 C33.9710521,8.69366543 33.9211551,8.47006026 33.8230024,8.29052801 C33.7238648,8.11358833 33.593869,7.97553643 33.4287494,7.87604836 C33.2662561,7.77364367 33.0742182,7.70558991 32.8634682,7.66767427 C32.6481231,7.62943459 32.4271978,7.61031465 32.2006916,7.61031465 L29.7852796,7.61031465 L29.7852796,10.3826944 L32.3953557,10.3826944 C32.8555896,10.3826944 33.2308028,10.2744563 33.5262458,10.0527959 Z M33.2596901,15.3512658 C33.4884949,15.2987674 33.6913653,15.2171029 33.8643645,15.1004392 C34.0419577,14.9824797 34.1785186,14.8236869 34.2845499,14.6253596 C34.3866414,14.4247623 34.4365384,14.1693995 34.4365384,13.8550554 C34.4365384,13.2471088 34.2681364,12.8099445 33.9310027,12.5490721 C33.593869,12.2869029 33.1447962,12.1566284 32.5896912,12.1566284 L29.7852796,12.1566284 L29.7852796,15.4261249 L32.5381529,15.4261249 C32.7889514,15.4261249 33.0285887,15.4008481 33.2596901,15.3512658 Z" id="path3198" fill="#C7303A"></path>
        </g>
    </g>
</svg>