<?xml version="1.0" encoding="UTF-8" standalone="no"?>
<svg width="34px" height="34px" viewBox="0 0 34 34" version="1.1" xmlns="http://www.w3.org/2000/svg" xmlns:xlink="http://www.w3.org/1999/xlink">
    <!-- Generator: Sketch 50.2 (55047) - http://www.bohemiancoding.com/sketch -->
    <title>trustpay</title>
    <desc>Created with Sketch.</desc>
    <defs></defs>
    <g id="Page-1" stroke="none" stroke-width="1" fill="none" fill-rule="evenodd">
        <g id="deposit" transform="translate(-102.000000, -1877.000000)">
            <g id="trustpay" transform="translate(103.000000, 1878.000000)">
                <rect id="Rectangle-6-Copy-26" stroke="#D0D5DF" fill="#FFFFFF" x="0" y="0" width="32" height="32" rx="2"></rect>
                <g transform="translate(4.000000, 9.000000)" fill-rule="nonzero" id="Shape">
                    <polygon fill="#00A3E2" points="12.1714286 2.4 7.8 2.4 5.65714286 14.5714286 2.74285714 14.5714286 4.88571429 2.4 0.6 2.4 1.02857143 0 12.6 0"></polygon>
                    <path d="M15,9.51428571 L14.0571429,14.6571429 L11.1428571,14.6571429 L13.7142857,0 L18.8571429,0 C20.4,0 21.6857143,0.428571429 22.5428571,1.28571429 C23.4,2.14285714 23.8285714,3.34285714 23.7428571,4.71428571 C23.6571429,6.17142857 23.0571429,7.28571429 21.9428571,8.14285714 C20.8285714,9 19.4571429,9.42857143 17.7428571,9.42857143 L15,9.51428571 Z M15.4285714,7.02857143 L17.9142857,7.02857143 C18.6857143,7.02857143 19.3714286,6.85714286 19.8857143,6.42857143 C20.4,6 20.7428571,5.48571429 20.8285714,4.8 C20.9142857,4.11428571 20.8285714,3.51428571 20.4857143,3.17142857 C20.1428571,2.82857143 19.7142857,2.57142857 19.0285714,2.48571429 L16.2857143,2.48571429 L15.4285714,7.02857143 Z" fill="#151717"></path>
                </g>
            </g>
        </g>
    </g>
</svg>