<?xml version="1.0" encoding="UTF-8" standalone="no"?>
<svg width="34px" height="34px" viewBox="0 0 34 34" version="1.1" xmlns="http://www.w3.org/2000/svg" xmlns:xlink="http://www.w3.org/1999/xlink">
    <!-- Generator: Sketch 50.2 (55047) - http://www.bohemiancoding.com/sketch -->
    <title>trustly</title>
    <desc>Created with Sketch.</desc>
    <defs></defs>
    <g id="Page-1" stroke="none" stroke-width="1" fill="none" fill-rule="evenodd">
        <g id="deposit" transform="translate(-102.000000, -1429.000000)">
            <g id="trustly" transform="translate(103.000000, 1430.000000)">
                <rect id="Rectangle-6-Copy-26" stroke="#D0D5DF" fill="#FFFFFF" x="0" y="0" width="32" height="32" rx="2"></rect>
                <g transform="translate(6.000000, 4.000000)" fill-rule="nonzero">
                    <path d="M10.2455971,0.00289505428 C10.2774427,0.00289505428 10.3121834,0.00289505428 10.344029,0 C10.399035,0.00579010856 10.451146,0.0144752714 10.506152,0.00289505428 C11.6960193,0.112907117 12.7700844,0.521109771 13.6993969,1.27671894 C14.8661037,2.22050663 15.5811821,3.43932449 15.8301568,4.92159228 C15.8967431,5.31531966 15.9083233,5.70904704 15.8996381,6.10856454 C15.890953,6.53124246 15.8967431,6.95681544 15.893848,7.38238842 C15.893848,7.55030157 15.8822678,7.54451146 16.053076,7.54451146 C16.8405308,7.54451146 17.6308806,7.54451146 18.4183353,7.54451146 C18.6470446,7.54451146 18.8757539,7.55609168 19.0986731,7.61688782 C19.2665862,7.66320869 19.4316043,7.72400483 19.5763571,7.81954162 C19.9556092,8.06851628 20.1206273,8.42460796 20.0453559,8.87044632 C19.9787696,9.26706876 19.8832328,9.65790109 19.7934861,10.0487334 C19.3650181,11.9797346 18.933655,13.9136309 18.4993969,15.8504222 C18.3691194,16.4294331 18.241737,17.0055489 18.1114596,17.5845597 C17.9406514,18.3372738 17.4021713,18.7860072 16.6349819,18.8178528 C16.5799759,18.8207479 16.5249698,18.8207479 16.4728589,18.8207479 C12.1765983,18.8207479 7.8774427,18.8207479 3.58118215,18.8207479 C3.39589867,18.8207479 3.2106152,18.8120627 3.03112183,18.7628468 C2.43763571,18.5949337 2.09312425,18.1896261 1.95705669,17.6077201 C1.77177322,16.8260555 1.60386007,16.0386007 1.43015682,15.254041 C1.06537998,13.6270205 0.703498191,12 0.338721351,10.3729795 C0.234499397,9.91266586 0.133172497,9.44945718 0.0289505428,8.98914355 C0.04053076,8.91966224 0.0144752714,8.85597105 0,8.79227986 C0,8.72569361 0,8.66200241 0,8.59541616 C0.02026538,8.54330519 0.0376357057,8.48829916 0.0289505428,8.43039807 C0.165018094,7.96718938 0.512424608,7.74137515 0.949577805,7.61978287 C1.16960193,7.55898673 1.39831122,7.54451146 1.62702051,7.54451146 C2.40289505,7.54740651 3.18166466,7.54451146 3.9575392,7.54451146 C3.99517491,7.54451146 4.03281062,7.54161641 4.07044632,7.54451146 C4.1225573,7.54740651 4.15150784,7.52714113 4.15150784,7.46924005 C4.15150784,7.43160434 4.15150784,7.39396864 4.15150784,7.35633293 C4.15150784,6.86127865 4.14861279,6.36622437 4.15150784,5.87117008 C4.16308806,4.5278649 4.56260555,3.31483715 5.39638118,2.25814234 C6.34306393,1.05379976 7.57925211,0.321351025 9.0933655,0.0694813028 C9.226538,0.0463208685 9.36260555,0.0289505428 9.49577805,0.00868516285 C9.52762364,0.00868516285 9.55946924,0.00868516285 9.59420989,0.00579010856 C9.63763571,0.00579010856 9.68106152,0.00579010856 9.72448733,0.00289505428 C9.75633293,0.00289505428 9.79107358,0.00289505428 9.82291918,0.00289505428 C9.96188179,0.00289505428 10.1037394,0.00289505428 10.2455971,0.00289505428 Z" id="Shape" fill="#5ED000"></path>
                    <path d="M10.0342581,7.54161641 C8.83281062,7.54161641 7.63136309,7.54161641 6.42991556,7.54161641 C6.25331725,7.54161641 6.24752714,7.56767189 6.2504222,7.36791315 C6.2562123,6.76574186 6.24173703,6.16067551 6.25910736,5.55850422 C6.31700844,3.786731 7.62267793,2.28130277 9.37129071,1.97153197 C11.412304,1.60965018 13.3548854,2.95585042 13.7457177,4.99975875 C13.7862485,5.21399276 13.8094089,5.42822678 13.8094089,5.6482509 C13.8094089,6.23015682 13.8094089,6.81206273 13.8094089,7.39396864 C13.8094089,7.54161641 13.8094089,7.54161641 13.655971,7.54161641 C12.4487334,7.54161641 11.2414958,7.54161641 10.0342581,7.54161641 Z" id="Shape" fill="#FFFFFF"></path>
                    <path d="M10.0313631,9.94740651 C10.7319662,9.94740651 11.4354644,9.94740651 12.1360676,9.94740651 C12.211339,9.94740651 12.2895054,9.95030157 12.3647768,9.95898673 C12.5037394,9.97635706 12.5587455,10.0342581 12.5616405,10.1703257 C12.5645356,10.506152 12.5645356,10.8448733 12.5616405,11.1806996 C12.5616405,11.3254524 12.5240048,11.360193 12.3763571,11.3688782 C12.3068758,11.3746683 12.2344994,11.3717732 12.1650181,11.3717732 C11.8436671,11.3717732 11.522316,11.3717732 11.200965,11.3717732 C10.9896261,11.3717732 10.9664656,11.3978287 10.9664656,11.6033776 C10.9664656,12.8714113 10.9664656,14.1394451 10.9664656,15.4045838 C10.9664656,15.4364294 10.9664656,15.4711701 10.9664656,15.5030157 C10.9664656,15.7983112 10.9085645,15.8648975 10.6190591,15.8677925 C10.1732207,15.8735826 9.72738239,15.8677925 9.28154403,15.8677925 C9.23811821,15.8677925 9.1946924,15.8648975 9.15126659,15.8591074 C9.04125452,15.8359469 8.9920386,15.786731 8.97756333,15.6738239 C8.96887817,15.6101327 8.97177322,15.5435464 8.97177322,15.4769602 C8.97177322,14.1973462 8.97177322,12.9206273 8.97177322,11.6410133 C8.97177322,11.5975875 8.97177322,11.5541616 8.97177322,11.5107358 C8.97466828,11.4209891 8.9225573,11.3833534 8.84149578,11.3746683 C8.79806996,11.3688782 8.75464415,11.3717732 8.71121834,11.3717732 C8.40144753,11.3717732 8.09167672,11.3717732 7.78190591,11.3717732 C7.73268999,11.3717732 7.68347407,11.3717732 7.63425814,11.3659831 C7.50977081,11.3544029 7.4721351,11.3167672 7.46924005,11.1922799 C7.46634499,11.0562123 7.46924005,10.9201448 7.46924005,10.7840772 C7.46924005,10.5814234 7.46634499,10.3816647 7.46924005,10.1790109 C7.4721351,10.028468 7.52135103,9.973462 7.66899879,9.95319662 C7.74427021,9.94451146 7.81954162,9.94161641 7.89770808,9.94161641 C8.60699638,9.94740651 9.31917973,9.94740651 10.0313631,9.94740651 Z" id="Shape" fill="#FFFFFF"></path>
                    <circle id="Oval" fill="#5ED000" cx="6.10566948" cy="21.6202654" r="2.35367913"></circle>
                    <circle id="Oval" fill="#5ED000" cx="13.974427" cy="21.6202654" r="2.35367913"></circle>
                </g>
            </g>
        </g>
    </g>
</svg>