<?xml version="1.0" encoding="UTF-8"?>
<svg width="52px" height="52px" viewBox="0 0 52 52" version="1.1" xmlns="http://www.w3.org/2000/svg" xmlns:xlink="http://www.w3.org/1999/xlink">
    <!-- Generator: Sketch 51.3 (57544) - http://www.bohemiancoding.com/sketch -->
    <title>UOB</title>
    <desc>Created with Sketch.</desc>
    <defs></defs>
    <g id="UOB" stroke="none" stroke-width="1" fill="none" fill-rule="evenodd">
        <rect id="Rectangle" fill="#E1091D" fill-rule="nonzero" x="0" y="0" width="52" height="52" rx="4"></rect>
        <g id="Group" transform="translate(11.000000, 10.000000)" fill="#FFFFFF" fill-rule="nonzero">
            <g id="UOB_Logo_SVG">
                <path d="M22.2931815,29.1020946 C22.2931815,29.7919295 23.241584,29.8778294 23.7587513,29.8778294 L24.1899866,29.8778294 C25.4828886,29.7929583 25.4828886,29.2747944 25.4828886,29.1020946 L25.4828886,1.34917696 C25.5680812,0.65850614 24.620386,0.57344214 24.0173189,0.57344214 L23.7620626,0.57344214 C23.2414876,0.57344214 22.2930851,0.658634733 22.2930851,1.34917696 L22.2931815,29.1020946 Z" id="Path_1"></path>
                <path d="M4.96925174,29.1020946 C4.96925174,29.7919295 5.91768641,29.8778294 6.43482152,29.8778294 L6.86608893,29.8778294 C8.15895885,29.7929583 8.15895885,29.2747944 8.15895885,29.1020946 L8.15895885,1.34917696 C8.158123,0.65850614 7.29645619,0.57344214 6.69342122,0.57344214 L6.43816493,0.57344214 C5.83085426,0.57344214 4.96918745,0.658634733 4.96918745,1.34917696 L4.96925174,29.1020946 Z" id="Path_2"></path>
                <path d="M10.743895,29.1020946 C10.743895,29.7919295 11.6922975,29.8778294 12.2094648,29.8778294 L12.726632,29.8778294 C14.019502,29.7929583 14.019502,29.2747944 14.019502,29.1020946 L14.019502,1.34917696 C14.0186661,0.65850614 13.0710994,0.57344214 12.5539643,0.57344214 L12.2094648,0.57344214 C11.6922975,0.57344214 10.743895,0.658634733 10.743895,1.34917696 L10.743895,29.1020946 Z" id="Path_3"></path>
                <path d="M16.5185383,29.1020946 C16.5185383,29.7919295 17.4669408,29.8778294 17.984108,29.8778294 L18.4153433,29.8778294 C19.7082454,29.7929583 19.7082454,29.2747944 19.7082454,29.1020946 L19.7082454,1.34917696 C19.7073774,0.65850614 18.7598429,0.57344214 18.2426756,0.57344214 L17.9874193,0.57344214 C17.4668443,0.57344214 16.5184418,0.658634733 16.5184418,1.34917696 L16.5185383,29.1020946 Z" id="Path_4"></path>
                <path d="M1.34917737,13.5882663 C0.658506558,13.5882663 0.573442558,14.5366688 0.573442558,15.0538361 L0.573442558,15.5709712 C0.658635151,16.8638733 1.17650967,16.8638733 1.34917737,16.8638733 L29.102095,16.8638733 C29.79193,16.8638733 29.8778298,15.9154707 29.8778298,15.3983035 L29.8778298,15.0538361 C29.8778298,14.5366688 29.7929587,13.5882663 29.102095,13.5882663 L1.34917737,13.5882663 Z" id="Path_5"></path>
            </g>
        </g>
    </g>
</svg>