<?xml version="1.0" encoding="UTF-8" standalone="no"?>
<svg width="34px" height="34px" viewBox="0 0 34 34" version="1.1" xmlns="http://www.w3.org/2000/svg" xmlns:xlink="http://www.w3.org/1999/xlink">
    <!-- Generator: Sketch 49.1 (51147) - http://www.bohemiancoding.com/sketch -->
    <title>visa</title>
    <desc>Created with Sketch.</desc>
    <defs></defs>
    <g id="Page-1" stroke="none" stroke-width="1" fill="none" fill-rule="evenodd">
        <g id="visa" transform="translate(1.000000, 1.000000)" fill-rule="nonzero">
            <rect id="Rectangle-path" stroke="#D0D5DF" fill="#FFFFFF" x="0.41025641" y="0.41025641" width="31.1794872" height="31.1794872" rx="2"></rect>
            <path d="M1.23076923,25.3333333 L30.7692308,25.3333333 L30.7692308,29.7692308 C30.7692308,30.3215155 30.3215155,30.7692308 29.7692308,30.7692308 L2.23076923,30.7692308 C1.67848448,30.7692308 1.23076923,30.3215155 1.23076923,29.7692308 L1.23076923,25.3333333 Z" id="Rectangle-path" fill="#F7B600"></path>
            <path d="M2.23076923,1.23076923 L29.7692308,1.23076923 C30.3215155,1.23076923 30.7692308,1.67848448 30.7692308,2.23076923 L30.7692308,6.66666667 L1.23076923,6.66666667 L1.23076923,2.23076923 C1.23076923,1.67848448 1.67848448,1.23076923 2.23076923,1.23076923 Z" id="Rectangle-path" fill="#1A1F71"></path>
            <path d="M12.7868544,12.5317748 L9.768153,19.7174427 L7.80507109,19.7174427 L6.32349984,13.9763541 C6.23090164,13.6244809 6.15682308,13.4948434 5.87902847,13.3466863 C5.29420268,13.0711732 4.67875256,12.8660231 4.04558405,12.7355382 L4.08262333,12.5318221 L7.24948187,12.5318221 C7.68009723,12.5273145 8.04605447,12.8455382 8.10138534,13.2726077 L8.87921025,17.4395269 L10.8052529,12.5503418 L12.7868544,12.5503418 L12.7868544,12.5317748 Z M20.4910249,17.3654483 C20.4910249,15.476445 17.8612359,15.3653271 17.8797556,14.5134237 C17.8797556,14.2541487 18.1390306,13.9763541 18.6761001,13.9022755 C19.3042658,13.8450492 19.9364536,13.9536067 20.5095446,14.2171094 L20.8428981,12.6984989 C20.2866548,12.4883291 19.6966726,12.3816302 19.1020519,12.383665 C17.2686074,12.383665 15.9722326,13.3652059 15.953713,14.754179 C15.9351933,15.7912789 16.879695,16.3653877 17.5834413,16.7172609 C18.2871877,17.0691341 18.5464627,17.2913698 18.5464627,17.6062036 C18.5464627,18.0877143 17.9723538,18.30995 17.4352842,18.30995 C16.7696241,18.3276213 16.1112527,18.1678224 15.5277612,17.846959 L15.1944077,19.4211284 C15.6203594,19.6248445 16.4352236,19.7915212 17.2686074,19.8100409 C19.1946501,19.8285605 20.4725053,18.8655392 20.4910249,17.3654483 Z M25.3431708,19.7174427 L27.0654973,19.7174427 L25.5654064,12.5318221 L23.9727174,12.5318221 C23.6267113,12.5273168 23.3122055,12.7321112 23.1763728,13.050372 L20.3799071,19.7174427 L22.3244693,19.7174427 L22.7133818,18.6433035 L25.1024154,18.6433035 L25.3431708,19.7174427 Z M23.268971,17.1617323 L24.250512,14.4578647 L24.8061012,17.1617323 L23.268971,17.1617323 Z M15.435163,12.5318221 L13.8980329,19.7174427 L12.0460688,19.7174427 L13.583199,12.5318221 L15.435163,12.5318221 Z" id="Shape" fill="#1A1F71"></path>
        </g>
    </g>
</svg>