<svg xmlns="http://www.w3.org/2000/svg" viewBox="0 0 105 25" enable-background="new 0 0 105 25"><path d="M11.2.5s-2.7 3.3-9 3.3v7.9c0 4.1 1.8 8.1 5 10.6 1.1.9 2.5 1.7 4 2.2 1.6-.5 2.9-1.2 4-2.2 3.2-2.5 5-6.5 5-10.6v-7.9c-6.3 0-9-3.3-9-3.3z" fill="#556080"/><path d="M11.2 21.9c-.9-.3-1.7-.8-2.5-1.5-2.5-2-4.1-5.3-4.1-8.7v-5.6c3-.4 5.2-1.4 6.5-2.4 1.4 1 3.5 2 6.5 2.4v5.6c0 3.4-1.5 6.7-4.1 8.7-.6.6-1.4 1.1-2.3 1.5z" fill="#4FBA6F"/><path d="M16.4 8.9c-.2-.2-.4-.1-.6 0l-5.4 6.3-2.9-3c-.2-.2-.5-.2-.6 0-.2.2-.2.4 0 .6l3.3 3.3c.1.1.2.1.3.1.1 0 .2 0 .3-.1l5.7-6.6c.1-.2.1-.5-.1-.6z" fill="#fff"/><path d="M27.5 13.6c.6.7 1.7 1.1 2.6 1.1 1.1 0 1.8-.5 1.8-1.2 0-.8-.6-1.1-1.9-1.1h-1.2v-1.7h1.2c1 0 1.7-.3 1.7-1s-.8-1.1-1.7-1.1c-.9 0-1.7.4-2.4 1l-1-1.2c.8-.9 1.9-1.5 3.6-1.5 2.2 0 3.5 1 3.5 2.5 0 1.2-1 1.9-2 2.1 1 .1 2.2.8 2.2 2.2 0 1.6-1.4 2.7-3.7 2.7-1.7 0-3-.7-3.7-1.5l1-1.3zM35.3 6.9h3.7c2.9 0 5 1.9 5 4.7s-2 4.7-5 4.7h-3.7v-9.4zm3.7 7.6c1.8 0 2.9-1.3 2.9-2.9 0-1.7-1-2.9-2.9-2.9h-1.7v5.8h1.7zM49.4 13.4c.7.7 1.7 1.3 3 1.3 1.1 0 1.6-.5 1.6-1.1 0-.7-.8-.9-1.9-1.2-1.5-.4-3.5-.8-3.5-2.9 0-1.6 1.3-2.8 3.5-2.8 1.5 0 2.7.4 3.6 1.3l-1.1 1.5c-.8-.7-1.8-1-2.7-1-.9 0-1.4.4-1.4 1s.8.8 1.9 1.1c1.5.4 3.5.8 3.5 2.9 0 1.7-1.2 3-3.7 3-1.8 0-3.1-.6-4-1.5l1.2-1.6zM57.4 6.9h6.6v1.7h-4.6v2h4.5v1.7h-4.5v2.2h4.6v1.7h-6.6v-9.3zM65.1 11.6c0-2.9 2.2-4.8 4.9-4.8 2.1 0 3.3 1.1 4 2.3l-1.7.8c-.5-.8-1.3-1.4-2.3-1.4-1.6 0-2.9 1.3-2.9 3.1s1.2 3.1 2.9 3.1c1 0 1.9-.6 2.3-1.4l1.7.8c-.7 1.2-1.8 2.3-4 2.3-2.8 0-4.9-2-4.9-4.8zM75.1 6.9h2v5.5c0 1.3.7 2.2 2.2 2.2 1.4 0 2.1-.9 2.1-2.2v-5.5h2v5.6c0 2.3-1.3 3.9-4.2 3.9-2.9 0-4.2-1.6-4.2-3.9v-5.6zM88.8 12.9h-1.5v3.3h-2v-9.3h4.4c1.9 0 3.1 1.3 3.1 3s-1 2.5-2 2.8l2.1 3.6h-2.3l-1.8-3.4zm.6-4.3h-2.1v2.6h2.1c.8 0 1.4-.5 1.4-1.3s-.6-1.3-1.4-1.3zM94.3 6.9h6.6v1.7h-4.6v2h4.5v1.7h-4.5v2.2h4.6v1.7h-6.6v-9.3z"/></svg>