
<svg width="50px" height="50px" viewBox="0 0 50 50" version="1.1" xmlns="http://www.w3.org/2000/svg" xmlns:xlink="http://www.w3.org/1999/xlink">
    <g id="Page-1" stroke="none" stroke-width="1" fill="none" fill-rule="evenodd">
        <g id="popup_buy_success_update-copy-2" transform="translate(-1367.000000, -1037.000000)" fill-rule="nonzero" fill="#E34828">
            <g id="Group-9" transform="translate(1367.000000, 1037.000000)">
                <path d="M25,49.6323529 C11.3959271,49.6323529 0.367647059,38.6040729 0.367647059,25 C0.367647059,11.3959271 11.3959271,0.367647059 25,0.367647059 C38.6040729,0.367647059 49.6323529,11.3959271 49.6323529,25 C49.6323529,38.6040729 38.6040729,49.6323529 25,49.6323529 Z M25,47.4264706 C37.3857977,47.4264706 47.4264706,37.3857977 47.4264706,25 C47.4264706,12.6142023 37.3857977,2.57352941 25,2.57352941 C12.6142023,2.57352941 2.57352941,12.6142023 2.57352941,25 C2.57352941,37.3857977 12.6142023,47.4264706 25,47.4264706 Z" id="Oval"></path>
                <g id="Group-11" transform="translate(16.176471, 16.176471)">
                    <polygon id="Path-2" transform="translate(8.767446, 8.865499) rotate(90.000000) translate(-8.767446, -8.865499) " points="2.09832144 17.2916594 17.0165973 1.97863515 15.4365704 0.439339176 0.518294586 15.7523634"></polygon>
                    <polygon id="Path-2-Copy" points="2.09824127 17.2916594 17.0165973 1.97855285 15.4365704 0.439256878 0.518214409 15.7523634"></polygon>
                </g>
            </g>
        </g>
    </g>
</svg>