<?xml version="1.0" encoding="UTF-8"?>
<svg width="35" height="27" viewBox="0 0 35 27" version="1.1" xmlns="http://www.w3.org/2000/svg" xmlns:xlink="http://www.w3.org/1999/xlink">
    <g stroke="none" fill="#ffffff" fill-rule="evenodd">
        <path id="b" d="M32.136 5.553c-1.216 0-2.203.996-2.203 2.22 0 .5.152.96.418 1.304l-2.886 2.106c-2.088 1.532-5.05.766-6.19-1.57l-2.658-5.4c.72-.383 1.215-1.11 1.215-1.992C19.83.997 18.845 0 17.63 0c-1.215 0-2.202.996-2.202 2.22 0 .882.493 1.61 1.215 1.993l-2.658 5.4c-1.14 2.336-4.1 3.064-6.19 1.57L4.83 9.038c.228-.344.38-.804.38-1.264 0-1.225-.988-2.22-2.203-2.22-1.215 0-2.24.995-2.24 2.22 0 1.226.987 2.222 2.202 2.222.303 0 .57-.077.835-.153l5.05 13.136h17.508l5.05-13.1c.23.077.457.116.723.116 1.215 0 2.202-.996 2.202-2.222 0-1.225-.987-2.22-2.202-2.22zM8.856 25.966C8.856 26.54 9.31 27 9.88 27H25.3c.57 0 1.025-.46 1.025-1.034V24.51H8.855v1.456z"/>
    </g>
</svg>