<?xml version="1.0" encoding="UTF-8"?>
<svg width="80px" height="80px" viewBox="0 0 80 80" version="1.1" xmlns="http://www.w3.org/2000/svg" xmlns:xlink="http://www.w3.org/1999/xlink">
    <!-- Generator: Sketch 49.2 (51160) - http://www.bohemiancoding.com/sketch -->
    <title>Group 8 Copy 2</title>
    <desc>Created with Sketch.</desc>
    <defs></defs>
    <g id="Page-1" stroke="none" stroke-width="1" fill="none" fill-rule="evenodd">
        <g id="m7-m3-request-popup" transform="translate(-643.000000, -273.000000)" fill="#DA4931">
            <g id="Group-8-Copy-2" transform="translate(643.000000, 273.000000)">
                <path d="M40,80 C17.90861,80 0,62.09139 0,40 C0,17.90861 17.90861,0 40,0 C62.09139,0 80,17.90861 80,40 C80,62.09139 62.09139,80 40,80 Z M40,77.2413793 C60.5678459,77.2413793 77.2413793,60.5678459 77.2413793,40 C77.2413793,19.4321541 60.5678459,2.75862069 40,2.75862069 C19.4321541,2.75862069 2.75862069,19.4321541 2.75862069,40 C2.75862069,60.5678459 19.4321541,77.2413793 40,77.2413793 Z" id="Combined-Shape-Copy"></path>
                <path d="M54.9329488,52.6704567 C55.5577157,53.2952247 55.5577157,54.3082269 54.9329488,54.9329949 C54.6291022,55.2368421 54.2229331,55.4015169 53.8015727,55.4015169 C53.3803094,55.4015169 52.9743656,55.2369049 52.6701966,54.9329949 L40.101524,42.3642996 L27.5327608,54.9330854 C27.2286823,55.2369049 26.8227385,55.4015169 26.4014752,55.4015169 C25.9801148,55.4015169 25.5739458,55.2368421 25.2700991,54.9329949 C24.6453322,54.3082269 24.6453322,53.2952247 25.2700991,52.6704567 L37.8388808,40.1016523 L25.2700538,27.5328026 C24.6453473,26.9078284 24.6453473,25.8951126 25.2700991,25.2700931 C25.8948738,24.6453173 26.9081266,24.6453173 27.5326347,25.2700931 L40.101524,37.8390051 L52.670368,25.2701384 C53.2949213,24.6453173 54.3081741,24.6453173 54.9329941,25.2701384 C55.5577006,25.8951126 55.5577006,26.9078284 54.9329488,27.5328479 L42.3641671,40.1016523 L54.9329488,52.6704567 Z" id="Combined-Shape" fill-rule="nonzero"></path>
            </g>
        </g>
    </g>
</svg>