<?xml version="1.0" encoding="UTF-8"?>
<svg width="80px" height="80px" viewBox="0 0 80 80" version="1.1" xmlns="http://www.w3.org/2000/svg" xmlns:xlink="http://www.w3.org/1999/xlink">
    <!-- Generator: Sketch 49.2 (51160) - http://www.bohemiancoding.com/sketch -->
    <title>Group 6 Copy</title>
    <desc>Created with Sketch.</desc>
    <defs></defs>
    <g id="Page-1" stroke="none" stroke-width="1" fill="none" fill-rule="evenodd">
        <g id="m7-m3-request-popup" transform="translate(-643.000000, -273.000000)" fill="#32AB51">
            <g id="Group-6-Copy" transform="translate(643.000000, 273.000000)">
                <path d="M40,80 C17.90861,80 0,62.09139 0,40 C0,17.90861 17.90861,0 40,0 C62.09139,0 80,17.90861 80,40 C80,62.09139 62.09139,80 40,80 Z M40,77.2413793 C60.5678459,77.2413793 77.2413793,60.5678459 77.2413793,40 C77.2413793,19.4321541 60.5678459,2.75862069 40,2.75862069 C19.4321541,2.75862069 2.75862069,19.4321541 2.75862069,40 C2.75862069,60.5678459 19.4321541,77.2413793 40,77.2413793 Z" id="Combined-Shape"></path>
                <path d="M56.516723,28.478623 C55.8723859,27.840459 54.8277309,27.840459 54.1832649,28.478623 L34.4152578,48.0554768 L26.8167593,40.5305281 C26.1724222,39.8923641 25.1277672,39.8924279 24.4833012,40.5305281 C23.8388996,41.1686284 23.8388996,42.2031716 24.4833012,42.8413356 L33.2485287,51.5215924 C33.8926725,52.1596926 34.9381009,52.1592458 35.5819868,51.5215924 L56.516723,30.7894944 C57.1611246,30.1513942 57.1610601,29.1167871 56.516723,28.478623 Z" id="Path"></path>
            </g>
        </g>
    </g>
</svg>