<?xml version="1.0" encoding="UTF-8"?>
<svg width="72px" height="27px" viewBox="0 0 72 27" version="1.1" xmlns="http://www.w3.org/2000/svg" xmlns:xlink="http://www.w3.org/1999/xlink">
    <!-- Generator: Sketch 49.3 (51167) - http://www.bohemiancoding.com/sketch -->
    <title>CERTIFIED-+-Rectangle-3-+-Letters-+-DSS Copy</title>
    <desc>Created with Sketch.</desc>
    <defs></defs>
    <g id="Page-1" stroke="none" stroke-width="1" fill="none" fill-rule="evenodd">
        <g id="m4-deposit-840" transform="translate(-444.000000, -845.000000)" fill="#ADB3C1">
            <g id="Group-2-Copy-2" transform="translate(100.000000, 843.000000)">
                <g id="CERTIFIED-+-Rectangle-3-+-Letters-+-DSS-Copy" transform="translate(344.500000, 2.000000)">
                    <g id="CERTIFIED" transform="translate(46.574284, 13.628743)">
                        <path d="M1.87102619,1.60560979 L2.57484651,1.81518641 C2.52757035,2.0096279 2.45311151,2.17204815 2.35146777,2.30245203 C2.24982403,2.43285591 2.12365767,2.5312395 1.9729649,2.59760576 C1.82227214,2.66397202 1.6305111,2.69715465 1.39767601,2.69715465 C1.11520095,2.69715465 0.884437655,2.65669513 0.705379198,2.57577486 C0.526320742,2.4948546 0.371789111,2.35251857 0.241779671,2.14876251 C0.11177023,1.94500645 0.046766485,1.68420261 0.046766485,1.36634316 C0.046766485,0.942530556 0.161113982,0.616816827 0.389812407,0.389192201 C0.618510832,0.161567575 0.9420522,0.0477569695 1.36044622,0.0477569695 C1.68783363,0.0477569695 1.94518936,0.11295793 2.13252115,0.243361808 C2.31985293,0.373765686 2.45902004,0.57402578 2.55002665,0.844148099 L1.84088779,0.999584086 C1.81606781,0.921574624 1.79006631,0.864523783 1.76288252,0.828429853 C1.71797017,0.767885195 1.66301245,0.72131308 1.59800773,0.688712111 C1.53300301,0.656111141 1.46031701,0.639810901 1.37994754,0.639810901 C1.19793432,0.639810901 1.05847174,0.711997679 0.96155561,0.856373401 C0.888277562,0.963490872 0.851639087,1.13173264 0.851639087,1.36110374 C0.851639087,1.64519791 0.89536888,1.83992756 0.982829776,1.94529855 C1.07029067,2.05066954 1.19320684,2.10335425 1.35158198,2.10335425 C1.5052295,2.10335425 1.62134983,2.06085719 1.69994644,1.97586181 C1.77854306,1.89086642 1.83556907,1.76745032 1.87102619,1.60560979 L1.87102619,1.60560979 Z M2.86382059,1.37332905 C2.86382059,0.955338045 2.98200922,0.629915392 3.21839002,0.397051324 C3.45477082,0.164187257 3.78392615,0.0477569695 4.20586588,0.0477569695 C4.63844275,0.0477569695 4.97173468,0.162149727 5.20575167,0.390938673 C5.43976866,0.61972762 5.5567754,0.940201985 5.5567754,1.35237138 C5.5567754,1.65160171 5.50565882,1.89697854 5.40342412,2.08850924 C5.30118943,2.28003993 5.15345364,2.4290707 4.96021234,2.53560601 C4.76697103,2.64214132 4.52616171,2.69540818 4.23777713,2.69540818 C3.94466494,2.69540818 3.70208278,2.64941822 3.51002338,2.55743691 C3.31796398,2.4654556 3.16225046,2.31991774 3.04287816,2.12081897 C2.92350585,1.92172019 2.86382059,1.67255937 2.86382059,1.37332905 L2.86382059,1.37332905 Z M3.66692035,1.37682199 C3.66692035,1.6353011 3.71567316,1.82100741 3.81318024,1.93394649 C3.91068732,2.04688556 4.04335405,2.10335425 4.21118442,2.10335425 C4.38374241,2.10335425 4.51729556,2.04804986 4.61184788,1.93743943 C4.7064002,1.826829 4.75367565,1.62831536 4.75367565,1.34189255 C4.75367565,1.10087824 4.7043319,0.924777435 4.60564291,0.813584843 C4.50695393,0.70239225 4.37310531,0.646796788 4.20409303,0.646796788 C4.04217218,0.646796788 3.91216469,0.703265477 3.81406666,0.81620455 C3.71596863,0.929143623 3.66692035,1.11601423 3.66692035,1.37682199 L3.66692035,1.37682199 Z M5.98048587,0.0914187639 L7.03710277,0.0914187639 L7.44485761,1.64927159 L7.8508396,0.0914187639 L8.90391081,0.0914187639 L8.90391081,2.65174638 L8.24795736,2.65174638 L8.24795736,0.699190941 L7.73915023,2.65174638 L7.14524644,2.65174638 L6.63821216,0.699190941 L6.63821216,2.65174638 L5.98048587,2.65174638 L5.98048587,0.0914187639 Z M9.41271794,0.0914187639 L10.7476718,0.0914187639 C11.0384202,0.0914187639 11.2561828,0.159530482 11.400966,0.295755961 C11.5457492,0.431981441 11.6181398,0.625837869 11.6181398,0.877331062 C11.6181398,1.13581018 11.5392489,1.33781673 11.3814647,1.48335677 C11.2236805,1.62889681 10.9828712,1.70166574 10.6590295,1.70166574 L10.2193634,1.70166574 L10.2193634,2.65174638 L9.41271794,2.65174638 L9.41271794,0.0914187639 Z M10.2193634,1.18296362 L10.4161494,1.18296362 C10.5709788,1.18296362 10.6797124,1.15647573 10.7423533,1.10349916 C10.8049942,1.05052258 10.8363142,0.982701939 10.8363142,0.900035195 C10.8363142,0.819697092 10.8091308,0.751585374 10.7547632,0.695697998 C10.7003956,0.639810622 10.5981625,0.611867353 10.4480607,0.611867353 L10.2193634,0.611867353 L10.2193634,1.18296362 Z M12.0383046,0.0914187639 L12.8414043,0.0914187639 L12.8414043,2.02127007 L14.0948072,2.02127007 L14.0948072,2.65174638 L12.0383046,2.65174638 L12.0383046,0.0914187639 Z M14.491925,0.0914187639 L15.2967976,0.0914187639 L15.2967976,2.65174638 L14.491925,2.65174638 L14.491925,0.0914187639 Z M17.472081,2.22910022 L16.5572919,2.22910022 L16.4314198,2.65174638 L15.6105915,2.65174638 L16.5874303,0.0914187639 L17.4632168,0.0914187639 L18.4400556,2.65174638 L17.599726,2.65174638 L17.472081,2.22910022 Z M17.3036606,1.67546866 L17.0164593,0.755078038 L16.7310309,1.67546866 L17.3036606,1.67546866 Z M18.702437,0.0914187639 L19.4523513,0.0914187639 L20.4309629,1.50780737 L20.4309629,0.0914187639 L21.1879687,0.0914187639 L21.1879687,2.65174638 L20.4309629,2.65174638 L19.4576698,1.24583661 L19.4576698,2.65174638 L18.702437,2.65174638 L18.702437,0.0914187639 Z M21.5389924,0.0914187639 L23.9802029,0.0914187639 L23.9802029,0.723641546 L23.1611475,0.723641546 L23.1611475,2.65174638 L22.3580478,2.65174638 L22.3580478,0.723641546 L21.5389924,0.723641546 L21.5389924,0.0914187639 Z" id="COMPLIANT"></path>
                    </g>
                    <g id="Rectangle-3-+-Letters" transform="translate(0.000000, 0.030834)">
                        <path d="M38.77523,17.5973842 L41.1013806,16.8751467 L40.3482376,15.2222233 C39.7882556,15.9033584 39.2366029,16.7838495 38.7752297,17.5973846 L38.77523,17.5973842 Z M26.0952113,19.0289672 C26.228423,19.7467313 26.5890111,20.5159574 27.0886869,21.2258942 L9.27939672,26.7554323 L0.0280633447,1.88777844 L33.4214207,0.0199339758 L37.9829443,10.0311126 C37.4656362,10.7327399 35.9155823,12.8434289 34.4555669,14.9150585 L34.4555669,8.2732417 L30.3139963,8.2732417 L30.3139963,17.1804945 C29.741323,16.7983782 29.139503,16.529985 28.5600835,16.4340434 L28.5600835,15.9908437 C28.5600835,15.9568196 28.5371633,15.9447462 28.5072863,15.9626669 C28.5072863,15.9626669 28.0602227,16.3167032 26.0940679,16.5056012 C25.5367041,16.5673457 25.2722781,16.5383953 25.0713394,16.5056012 C22.2837128,16.0437722 22.1509939,14.0316891 22.1509939,14.0316891 C22.1471556,13.9984027 22.1440442,13.9436948 22.1440442,13.9099971 L22.1440442,13.139228 C22.1440442,13.1053058 22.1472221,13.0505213 22.1520211,13.0171608 C22.1520211,13.0171608 22.3404947,10.861603 25.0714573,10.6342447 L26.0941968,10.6342447 C27.3005023,10.7947302 28.2693453,11.3823021 28.2693453,11.3823021 C28.29898,11.3994624 28.3230038,11.3854435 28.3230038,11.3518082 L28.3230038,8.65296491 C28.3230038,8.61896329 28.2993168,8.57778222 28.2683159,8.56151821 C28.2683159,8.56151821 27.7251715,8.21275736 26.0673959,8.11559018 C25.9788706,8.06734284 24.5361435,8.06024316 24.1358302,8.11559018 C18.112802,8.59139953 17.8893836,12.8840933 17.8893836,13.0801439 L17.8893836,14.1230161 C17.8893836,14.2510512 17.8893836,18.6398734 24.1355797,19.0290213 C24.7458134,19.0747643 25.9414764,19.0290213 26.0671598,19.0290213 C26.076529,19.0290213 26.0858796,19.0290032 26.0952113,19.0289672 Z M32.3847816,7.253253 C33.7825921,7.253253 34.9157415,6.20038762 34.9157415,4.90161237 C34.9157415,3.60283711 33.7825921,2.54997174 32.3847816,2.54997174 C30.9869711,2.54997174 29.8538218,3.60283711 29.8538218,4.90161237 C29.8538218,6.20038762 30.9869711,7.253253 32.3847816,7.253253 Z M6.40160387,18.8842054 C6.40160303,18.918101 6.42925764,18.9455789 6.46361581,18.9455789 L10.4981685,18.9455789 C10.5324176,18.9455789 10.560182,18.9177905 10.560182,18.8842379 L10.560182,15.792556 C10.560182,15.7586783 10.5877584,15.7329417 10.622451,15.7348306 C10.622451,15.7348306 17.0623388,16.1938018 17.0623393,11.9350727 C17.0623389,8.57462454 13.021944,8.20588692 11.6917288,8.26742997 C11.6649731,8.26866784 6.46464845,8.2674444 6.46464845,8.2674444 C6.42997556,8.26743643 6.40186694,8.29528519 6.4018661,8.32880347 L6.40160387,18.8842054 Z M10.4883235,13.373519 L10.4883235,10.5880276 L11.4756258,10.5880276 C11.4756258,10.5880276 12.9113077,10.6516961 13.0230825,11.6139106 C13.0491829,11.6890913 13.0428883,12.1600921 13.0229385,12.1860507 C12.8379778,13.3183204 11.5906456,13.3737504 11.5906456,13.3737504 L10.4883235,13.373519 Z" id="Combined-Shape"></path>
                        <path d="M32.4986156,24.0699147 C32.8351722,24.0699146 33.0929784,24.0699146 33.5185181,23.8839324 C34.9890127,23.1221733 39.9386467,11.2140828 45.1592495,7.55132983 C45.1910655,7.52784979 45.2337307,7.49365558 45.258405,7.45887244 C45.2926551,7.41059055 45.294042,7.36131438 45.294042,7.36131438 C45.294042,7.36131438 45.2940416,7.11566831 44.5200008,7.11566831 C39.8723702,6.99087139 35.0392991,16.5888972 32.4986157,20.3863752 C32.4668822,20.4282057 32.2921177,20.3863752 32.2921177,20.3863752 C32.2921177,20.3863752 30.5895914,18.4078867 29.1105026,17.6484927 C29.079664,17.6326596 28.9114029,17.5821362 28.736797,17.5948941 C28.6198422,17.5948941 27.9318544,17.7312825 27.6112888,18.0644936 C27.232419,18.4583089 27.2402582,18.6793268 27.2435885,19.1585618 C27.2438598,19.1975984 27.2692964,19.355423 27.3162161,19.4362484 C27.6778053,20.0591331 29.3296283,22.2965241 30.6830655,23.5308571 C30.8924969,23.6776699 31.2111446,24.0699147 32.4986156,24.0699147 L32.4986156,24.0699147 Z" id="Path-7"></path>
                    </g>
                    <g id="DSS" transform="translate(46.511684, 3.823448)">
                        <path d="M0.0200515125,0.149594341 L3.88742585,0.149594341 C4.64979469,0.149594341 5.26561857,0.251490917 5.73491597,0.455287125 C6.20421337,0.659083333 6.59209622,0.951564244 6.89857616,1.33273863 C7.20505609,1.71391302 7.42725071,2.15735182 7.56516668,2.66306834 C7.70308265,3.16878486 7.77203961,3.70468536 7.77203961,4.27078594 C7.77203961,5.15767685 7.66956191,5.84547873 7.46460346,6.33421223 C7.259645,6.82294573 6.97519758,7.23241901 6.61125266,7.56264434 C6.24730773,7.89286968 5.85655168,8.11270211 5.43897277,8.22214822 C4.86815389,8.37310837 4.35097676,8.44858732 3.88742585,8.44858732 L0.0200515125,8.44858732 L0.0200515125,0.149594341 Z M2.62320244,2.02903886 L2.62320244,6.56348182 L3.26106062,6.56348182 C3.8050625,6.56348182 4.19198762,6.50404215 4.42184757,6.38516103 C4.65170752,6.26627991 4.83176178,6.05871281 4.96201575,5.76245351 C5.09226973,5.4661942 5.15739573,4.98595942 5.15739573,4.32173474 C5.15739573,3.44239184 5.01181995,2.84044726 4.72066401,2.51588293 C4.42950807,2.19131859 3.94680942,2.02903886 3.27255356,2.02903886 L2.62320244,2.02903886 Z M8.68572834,5.70301324 L11.1624569,5.55016685 C11.2160909,5.94643726 11.3252728,6.24835304 11.4900057,6.45592325 C11.7581757,6.79180959 12.1412698,6.95975024 12.6392997,6.95975024 C13.0109067,6.95975024 13.2972695,6.87389294 13.498397,6.70217577 C13.6995245,6.53045859 13.8000867,6.33138288 13.8000867,6.10494264 C13.8000867,5.88982442 13.7043131,5.69735312 13.5127632,5.52752294 C13.3212132,5.35769277 12.876824,5.19730001 12.1795821,5.04633986 C11.0379444,4.7934816 10.2238693,4.45760029 9.73733236,4.03868587 C9.24696447,3.61977144 9.0017842,3.0857579 9.0017842,2.43662924 C9.0017842,2.01016681 9.12724754,1.60729794 9.37817798,1.22801055 C9.62910843,0.848723163 10.0064562,0.55058133 10.5102326,0.333576109 C11.014009,0.116570887 11.7045362,0.00806990406 12.581835,0.00806990406 C13.6583458,0.00806990406 14.4791251,0.205258648 15.0441974,0.59964205 C15.6092698,0.994025453 15.945435,1.62144418 16.0527029,2.48191706 L13.5989602,2.6234415 C13.5338332,2.24981512 13.3968771,1.97809091 13.1880876,1.80826074 C12.9792982,1.63843057 12.6910198,1.55351675 12.3232439,1.55351675 C12.0205949,1.55351675 11.7926539,1.61673037 11.6394139,1.7431595 C11.486174,1.86958863 11.4095551,2.02337698 11.4095551,2.20452916 C11.4095551,2.3366193 11.4727657,2.45549864 11.5991887,2.56117075 C11.7217806,2.67061686 12.0129322,2.77251343 12.4726521,2.86686353 C13.6104589,3.10839978 14.4254917,3.35276286 14.9177751,3.59996011 C15.4100585,3.84715736 15.7682516,4.15379058 15.992365,4.51986895 C16.2164785,4.88594733 16.3285335,5.2954206 16.3285335,5.74830106 C16.3285335,6.28043561 16.1791268,6.77104875 15.8803088,7.22015521 C15.5814909,7.66926167 15.1639183,8.0098604 14.6275784,8.24196164 C14.0912385,8.47406288 13.4150773,8.59011176 12.5990744,8.59011176 C11.1662807,8.59011176 10.1740668,8.31838755 9.62240296,7.774931 C9.07073908,7.23147444 8.75851733,6.5408421 8.68572834,5.70301324 L8.68572834,5.70301324 Z" id="DS"></path>
                        <path d="M16.7841185,5.70301324 L19.2608471,5.55016685 C19.3144811,5.94643726 19.423663,6.24835304 19.5883959,6.45592325 C19.8565659,6.79180959 20.23966,6.95975024 20.7376899,6.95975024 C21.1092969,6.95975024 21.3956597,6.87389294 21.5967872,6.70217577 C21.7979147,6.53045859 21.8984769,6.33138288 21.8984769,6.10494264 C21.8984769,5.88982442 21.8027033,5.69735312 21.6111534,5.52752294 C21.4196034,5.35769277 20.9752142,5.19730001 20.2779723,5.04633986 C19.1363346,4.7934816 18.3222595,4.45760029 17.8357226,4.03868587 C17.3453547,3.61977144 17.1001744,3.0857579 17.1001744,2.43662924 C17.1001744,2.01016681 17.2256377,1.60729794 17.4765682,1.22801055 C17.7274986,0.848723163 18.1048464,0.55058133 18.6086228,0.333576109 C19.1123992,0.116570887 19.8029264,0.00806990406 20.6802252,0.00806990406 C21.756736,0.00806990406 22.5775153,0.205258648 23.1425876,0.59964205 C23.70766,0.994025453 24.0438252,1.62144418 24.1510931,2.48191706 L21.6973504,2.6234415 C21.6322234,2.24981512 21.4952673,1.97809091 21.2864778,1.80826074 C21.0776884,1.63843057 20.78941,1.55351675 20.4216341,1.55351675 C20.1189851,1.55351675 19.8910441,1.61673037 19.7378041,1.7431595 C19.5845642,1.86958863 19.5079453,2.02337698 19.5079453,2.20452916 C19.5079453,2.3366193 19.5711559,2.45549864 19.6975789,2.56117075 C19.8201708,2.67061686 20.1113224,2.77251343 20.5710423,2.86686353 C21.7088491,3.10839978 22.5238819,3.35276286 23.0161653,3.59996011 C23.5084487,3.84715736 23.8666418,4.15379058 24.0907552,4.51986895 C24.3148687,4.88594733 24.4269237,5.2954206 24.4269237,5.74830106 C24.4269237,6.28043561 24.277517,6.77104875 23.978699,7.22015521 C23.6798811,7.66926167 23.2623085,8.0098604 22.7259686,8.24196164 C22.1896287,8.47406288 21.5134675,8.59011176 20.6974646,8.59011176 C19.2646709,8.59011176 18.272457,8.31838755 17.7207932,7.774931 C17.1691293,7.23147444 16.8569075,6.5408421 16.7841185,5.70301324 L16.7841185,5.70301324 Z" id="S"></path>
                    </g>
                </g>
            </g>
        </g>
    </g>
</svg>