<?xml version="1.0" encoding="UTF-8"?>
<svg width="66px" height="28px" viewBox="0 0 66 28" version="1.1" xmlns="http://www.w3.org/2000/svg" xmlns:xlink="http://www.w3.org/1999/xlink">
    <!-- Generator: Sketch 49.3 (51167) - http://www.bohemiancoding.com/sketch -->
    <title>Page 1 Copy</title>
    <desc>Created with Sketch.</desc>
    <defs>
        <polygon id="path-1" points="0 0.0180044346 65.2408533 0.0180044346 65.2408533 27.3400673 0 27.3400673"></polygon>
    </defs>
    <g id="Page-1" stroke="none" stroke-width="1" fill="none" fill-rule="evenodd">
        <g id="m4-deposit-840" transform="translate(-673.000000, -845.000000)">
            <g id="Group-2-Copy-2" transform="translate(100.000000, 843.000000)">
                <g id="Page-1-Copy" transform="translate(573.000000, 2.000000)">
                    <path d="M26.3844584,14.5999294 L23.1146919,23.1643722 L22.7659168,21.4242769 C21.9516505,19.290418 20.1885512,17.0522 18.1353781,16.1446432 L21.1270857,27.1420186 L24.6628963,27.1403515 L29.921642,14.5999294 L26.3844584,14.5999294 Z" id="Fill-1" fill="#ADB3C1"></path>
                    <polygon id="Fill-3" fill="#ADB3C1" points="29.187086 27.1544883 31.2776769 14.5877264 34.6181596 14.5877264 32.5265389 27.1544883"></polygon>
                    <g id="Group-7">
                        <mask id="mask-2" fill="white">
                            <use xlink:href="#path-1"></use>
                        </mask>
                        <g id="Clip-6"></g>
                        <path d="M44.6458212,14.8978361 C43.9856888,14.6441069 42.9441695,14.3687058 41.6520539,14.3687058 C38.3472725,14.3687058 36.0256525,16.0747926 36.0053988,18.5153938 C35.9841153,20.322839 37.6655133,21.3310873 38.9294798,21.9315685 C40.2339535,22.5460532 40.6695791,22.9401503 40.6654597,23.4902858 C40.6527583,24.3321598 39.6218807,24.7155876 38.6637791,24.7155876 C37.3284098,24.7155876 36.6167851,24.526541 35.5220569,24.0590926 L35.0881478,23.8587099 L34.6205969,26.6710692 C35.4022513,27.020822 36.8447247,27.3245635 38.3445263,27.340234 C41.8518443,27.340234 44.1336436,25.6534853 44.1607629,23.0488437 C44.1748375,21.6151573 43.2823028,20.52989 41.3530547,19.6336692 C40.1886402,19.0515258 39.4684334,18.6654307 39.4790752,18.0746185 C39.480105,17.5534902 40.0832525,16.9943525 41.3932188,16.9943525 C42.4872604,16.9770149 43.274064,17.2207416 43.8933458,17.4774715 L44.1913151,17.6218404 L44.6458212,14.8978361 Z" id="Fill-5" fill="#ADB3C1" mask="url(#mask-2)"></path>
                    </g>
                    <path d="M49.0941455,22.6986241 C49.3711745,21.9774465 50.425052,19.1860923 50.425052,19.1860923 C50.404455,19.2201007 50.6989915,18.4592466 50.8692596,17.9887974 L51.0917068,19.0720642 C51.0917068,19.0720642 51.7333019,22.0708028 51.8675254,22.6986241 L49.0941455,22.6986241 Z M53.2138796,14.600963 L50.6327379,14.600963 C49.8325463,14.600963 49.2331749,14.8223508 48.8799371,15.6438865 L43.9208771,27.1583893 L47.429225,27.1583893 C47.429225,27.1583893 48.0031934,25.6086742 48.1329542,25.2689239 C48.515371,25.2689239 51.9234804,25.2765924 52.4099118,25.2765924 C52.5132399,25.7147003 52.8167017,27.1583893 52.8167017,27.1583893 L55.9189463,27.1583893 L53.2138796,14.600963 Z" id="Fill-8" fill="#ADB3C1"></path>
                    <path d="M20.0813784,14.5937612 L14.6939016,14.5937612 L14.6623196,14.8098144 C18.8513969,15.850404 21.6155082,18.4060335 22.7658481,21.4277778 L21.5949112,15.6523553 C21.3937477,14.8578262 20.807421,14.6217681 20.0813784,14.5937612" id="Fill-10" fill="#ADB3C1"></path>
                    <polygon id="Fill-12" fill="#ADB3C1" points="4.58773131 11.5570466 2.45731965 11.5570466 0.000102984773 0.797729819 2.35467816 0.415635707 4.03573293 8.8353762 8.31852633 0.526996469 10.5800719 0.526996469"></polygon>
                    <path d="M12.6764643,4.98382754 C11.8896606,4.98382754 11.1550359,5.58830976 10.8079772,6.84595286 L13.954162,6.84595286 C14.0125201,5.65232553 13.6270137,4.98382754 12.6764643,4.98382754 M15.6664555,8.03958019 L10.5862167,8.03958019 C10.4471872,9.53594876 11.1629314,10.1884428 12.376092,10.1884428 C13.3922085,10.1884428 14.285773,9.82235263 15.2476508,9.23354094 L15.2400986,10.7292427 C14.2971013,11.3027173 13.2064926,11.6688074 11.9281083,11.6688074 C9.71599536,11.6688074 8.25532801,10.4431722 8.69404314,7.67349002 C9.08984795,5.17454118 10.8701114,3.66283551 12.9349561,3.66283551 C15.3108148,3.66283551 16.1013945,5.39759612 15.755709,7.5781332 C15.7306493,7.73717237 15.6839629,7.92821943 15.6664555,8.03958019" id="Fill-14" fill="#ADB3C1"></path>
                    <path d="M18.9775876,7.10071561 L18.2790075,11.5094682 L16.3123417,11.5094682 L17.5306515,3.82190802 L19.2020944,3.82190802 L19.2034675,5.36562158 C19.8690924,4.47440207 20.7739853,3.7265512 22.0132354,3.66286885 L22.0245637,5.55666864 C20.7829106,5.63635493 19.6658691,6.27317845 18.9775876,7.10071561" id="Fill-16" fill="#ADB3C1"></path>
                    <path d="M24.420985,2.53255712 C23.7656586,2.53255712 23.311839,2.08678065 23.4127641,1.45029055 C23.5160922,0.797796502 24.1134038,0.336349511 24.7690736,0.336349511 C25.4082657,0.336349511 25.859339,0.797796502 25.756011,1.45029055 C25.6550859,2.08678065 25.0601772,2.53255712 24.420985,2.53255712 L24.420985,2.53255712 Z M21.9987832,11.5094348 L23.217093,3.82187468 L25.1834156,3.82187468 L23.9654491,11.5094348 L21.9987832,11.5094348 Z" id="Fill-18" fill="#ADB3C1"></path>
                    <path d="M30.6294564,1.72095721 C29.9573091,1.72095721 29.5515491,2.00736109 29.4430718,2.69186302 L29.2638783,3.821808 L30.7715754,3.821808 L30.7702022,5.3815255 L29.0170581,5.3815255 L28.0459117,11.5093682 L26.0957234,11.5093682 L27.0668698,5.3815255 L25.9196194,5.3815255 L26.1667829,3.821808 L27.3140333,3.821808 L27.5230923,2.50081596 C27.7932557,0.797729819 29.008476,0.161239714 30.6304862,0.161239714 C30.9747986,0.161239714 31.2319173,0.193247598 31.4238122,0.224922066 L31.4385734,1.78463957 C31.2470217,1.7529651 30.9569479,1.72095721 30.6294564,1.72095721" id="Fill-20" fill="#ADB3C1"></path>
                    <path d="M33.0731477,2.53255712 C32.4178213,2.53255712 31.9640017,2.08678065 32.0649268,1.45029055 C32.1682548,0.797796502 32.7655665,0.336349511 33.4212362,0.336349511 C34.0604284,0.336349511 34.5115017,0.797796502 34.4081736,1.45029055 C34.3075918,2.08678065 33.7123399,2.53255712 33.0731477,2.53255712 L33.0731477,2.53255712 Z M30.6509459,11.5094348 L31.8692557,3.82187468 L33.8355783,3.82187468 L32.6172684,11.5094348 L30.6509459,11.5094348 Z" id="Fill-22" fill="#ADB3C1"></path>
                    <path d="M38.4697901,4.98382754 C37.6829864,4.98382754 36.9480184,5.58830976 36.6016463,6.84595286 L39.7478311,6.84595286 C39.8058458,5.65232553 39.4199962,4.98382754 38.4697901,4.98382754 M41.4597813,8.03958019 L36.3795425,8.03958019 C36.2408563,9.53594876 36.9566005,10.1884428 38.1694178,10.1884428 C39.1855342,10.1884428 40.0790988,9.82235263 41.0413198,9.23354094 L41.0334243,10.7292427 C40.0904271,11.3027173 38.9998184,11.6688074 37.7214341,11.6688074 C35.5093211,11.6688074 34.0486538,10.4431722 34.4873689,7.67349002 C34.883517,5.17454118 36.6634372,3.66283551 38.7282818,3.66283551 C41.1044838,3.66283551 41.8947203,5.39759612 41.549378,7.5781332 C41.5239751,7.73717237 41.4772887,7.92821943 41.4597813,8.03958019" id="Fill-24" fill="#ADB3C1"></path>
                    <g id="Group-28" transform="translate(42.084557, 0.000000)" fill="#ADB3C1">
                        <path d="M5.85701674,5.6045471 C5.4007942,5.38149216 5.04137735,5.2701314 4.36957335,5.2701314 C3.33697936,5.2701314 2.45474315,6.08199803 2.18732602,7.76908023 C1.95046105,9.26511538 2.49490721,9.96562125 3.36341212,9.96562125 C4.08464881,9.96562125 4.70702012,9.55185267 5.33248097,8.91502915 L5.85701674,5.6045471 Z M5.1999739,11.5093348 L5.20477985,10.4430722 C4.54430418,11.0955662 3.68335148,11.6687074 2.58553381,11.6687074 C0.929881952,11.6687074 -0.2077565,10.4747467 0.203152741,7.880441 C0.656972305,5.0157354 2.48117591,3.74208836 4.31670783,3.74208836 C5.07055637,3.74208836 5.656883,3.86978648 6.10692646,4.02849224 L6.69428294,0.320245545 L8.70866509,0.0178377269 L6.88789431,11.5093348 L5.1999739,11.5093348 Z" id="Fill-26"></path>
                    </g>
                    <path d="M56.0951533,6.84348559 C55.5987667,6.84348559 55.1003204,7.16923249 54.658859,7.60333941 L54.2407408,10.2436564 C54.5339041,10.3520164 54.7371274,10.4000282 55.159365,10.4000282 C56.1027055,10.4000282 56.761808,9.84555835 56.971897,8.51956508 C57.149374,7.39828891 56.7655841,6.84348559 56.0951533,6.84348559 M54.996649,11.581986 C54.0656667,11.581986 53.3066689,11.4369503 52.6001934,11.1962244 L53.8936821,3.03388059 L55.4192299,2.80482418 L54.8596793,6.33736093 C55.3056033,5.95159924 55.9252284,5.56583756 56.6825097,5.56583756 C57.9488792,5.56583756 58.7964438,6.48239665 58.4871462,8.43521097 C58.1469532,10.5810728 56.7841214,11.581986 54.996649,11.581986" id="Fill-29" fill="#ADB3C1"></path>
                    <path d="M61.9963524,11.8228787 C61.2352949,13.2575654 60.4821329,13.7036753 59.3276736,13.7036753 C59.0667789,13.7036753 58.9219136,13.679336 58.791123,13.6433271 L58.781511,12.4496998 C58.9723762,12.498045 59.1776591,12.5340539 59.4632702,12.5340539 C59.897866,12.5340539 60.2758201,12.3413397 60.5291626,11.9195692 L60.7265501,11.5334741 L59.4636135,5.79472727 L61.0461462,5.60201314 L61.7790545,9.74903457 L63.7635711,5.68636725 L65.240716,5.68636725 L61.9963524,11.8228787 Z" id="Fill-31" fill="#ADB3C1"></path>
                </g>
            </g>
        </g>
    </g>
</svg>