<?xml version="1.0" encoding="UTF-8" standalone="no"?>
<svg width="48px" height="48px" viewBox="0 0 48 48" version="1.1" xmlns="http://www.w3.org/2000/svg" xmlns:xlink="http://www.w3.org/1999/xlink">
    <!-- Generator: Sketch 46.2 (44496) - http://www.bohemiancoding.com/sketch -->
    <title>gbp</title>
    <desc>Created with Sketch.</desc>
    <defs>
        <path d="M48.0010499,23.999475 C48.0010499,37.254938 37.2538881,48 23.999475,48 C10.745062,48 0,37.254938 0,23.999475 C0,10.7461119 10.745062,0 23.999475,0 C37.2538881,0 48.0010499,10.7461119 48.0010499,23.999475 Z" id="path-1"></path>
    </defs>
    <g id="Page-1" stroke="none" stroke-width="1" fill="none" fill-rule="evenodd">
        <g id="gbp">
            <g>
                <mask id="mask-2" fill="white">
                    <use xlink:href="#path-1"></use>
                </mask>
                <g id="Clip-10214"></g>
                <path d="M-3.09239384,0 L18.0542464,0 L18.0542464,14.0972046 L-3.09239384,0 Z M29.9478535,0 L51.0944937,0 L29.9478535,14.0972046 L29.9478535,0 Z M60,5.9372676 L60,16.0710442 L44.8001633,16.0710442 L60,5.9372676 Z M60,31.9279059 L60,42.0627324 L44.8001633,31.9279059 L60,31.9279059 Z M51.0944937,48 L29.9478535,48 L29.9478535,33.9017455 L51.0944937,48 Z M18.0542464,48 L-3.09239384,48 L18.0542464,33.9017455 L18.0542464,48 Z M-12,42.0627324 L-12,31.9279059 L3.19878675,31.9279059 L-12,42.0627324 Z M-12,16.0710442 L-12,5.9372676 L3.19878675,16.0710442 L-12,16.0710442 L-12,16.0710442 Z" id="Fill-10213" fill="#0437A0" mask="url(#mask-2)"></path>
                <polyline id="Fill-10215" fill="#FFFFFF" mask="url(#mask-2)" points="60 42.0636525 44.8001633 31.9286042 60 31.9286042 60 16.0713958 44.8001633 16.0713958 60 5.93739747 60 0 51.0944937 0 29.9478535 14.097513 29.9478535 0 18.0531965 0 18.0531965 14.097513 -3.09239384 0 -12 0 -12 5.93739747 3.19878675 16.0713958 -12 16.0713958 -12 31.9286042 3.19878675 31.9286042 -12 42.0636525 -12 48 -3.09239384 48 18.0531965 33.902487 18.0531965 48 29.9478535 48 29.9478535 33.902487 51.0944937 48 60 48 60 42.0636525"></polyline>
                <path d="M27.7136024,0 L27.7136024,19.0496522 L60,19.0496522 L60,28.9492979 L27.7136024,28.9492979 L27.7136024,48 L20.2874475,48 L20.2874475,28.9492979 L-12,28.9492979 L-12,19.0496522 L20.2874475,19.0496522 L20.2874475,0 L27.7136024,0 Z M60,45.772081 L39.2344844,31.9279059 L32.5537797,31.9279059 L56.6601727,48 L60,48 L60,45.772081 Z M39.2344844,16.0710442 L60,2.22686907 L60,0 L56.6601727,0 L32.5537797,16.0710442 L39.2344844,16.0710442 Z M15.4451703,16.0710442 L-8.66122259,0 L-12,0 L-12,2.22686907 L8.76551563,16.0710442 L15.4451703,16.0710442 Z M8.76551563,31.9279059 L-12,45.772081 L-12,48 L-8.66122259,48 L15.4451703,31.9279059 L8.76551563,31.9279059 L8.76551563,31.9279059 Z" id="Fill-10216" fill="#FF1612" mask="url(#mask-2)"></path>
            </g>
        </g>
    </g>
</svg>