
<svg width="41px" height="32px" viewBox="0 0 41 32" version="1.1" xmlns="http://www.w3.org/2000/svg" xmlns:xlink="http://www.w3.org/1999/xlink">
    <!-- Generator: Sketch 49 (51002) - http://www.bohemiancoding.com/sketch -->
    <desc>Created with Sketch.</desc>
    <defs></defs>
    <g id="Page-1" stroke="none" stroke-width="1" fill="none" fill-rule="evenodd">
        <g id="m7-deposit-payment-1366" transform="translate(-814.000000, -352.000000)" fill-rule="nonzero">
            <g id="ms_vrt_rev-copy-2" transform="translate(814.000000, 352.000000)">
                <path d="M12.3411282,31.7327473 L12.3411282,29.6228571 C12.365804,29.2648251 12.236476,28.9134033 11.9861519,28.658283 C11.7358277,28.4031627 11.3887261,28.2690268 11.0334359,28.2901099 C10.5640037,28.2590762 10.1150277,28.4881455 9.86174359,28.8879121 C9.63082114,28.5000648 9.20799449,28.2706833 8.75979487,28.2901099 C8.36955067,28.2702161 7.99804198,28.4602073 7.78338462,28.7894505 L7.78338462,28.3745055 L7.05805128,28.3745055 L7.05805128,31.7327473 L7.79035897,31.7327473 L7.79035897,29.8725275 C7.75750171,29.6395028 7.83017841,29.4039186 7.98832525,29.2308124 C8.1464721,29.0577062 8.37336249,28.9653868 8.60635897,28.9793407 C9.08758974,28.9793407 9.33169231,29.2958242 9.33169231,29.8654945 L9.33169231,31.7327473 L10.064,31.7327473 L10.064,29.8725275 C10.0337555,29.6400327 10.1073356,29.4059863 10.26489,29.2335285 C10.4224444,29.0610708 10.647741,28.9679693 10.88,28.9793407 C11.3751795,28.9793407 11.6123077,29.2958242 11.6123077,29.8654945 L11.6123077,31.7327473 L12.3411282,31.7327473 Z M16.4211282,30.0553846 L16.4211282,28.378022 L15.6888205,28.378022 L15.6888205,28.7859341 C15.4393006,28.4612292 15.0497298,28.2779018 14.6426667,28.2936264 C13.6797086,28.2936264 12.8990769,29.080818 12.8990769,30.0518681 C12.8990769,31.0229182 13.6797086,31.8101099 14.6426667,31.8101099 C15.0497298,31.8258345 15.4393006,31.6425071 15.6888205,31.3178022 L15.6888205,31.7257143 L16.4141538,31.7257143 L16.4211282,30.0553846 Z M13.7255385,30.0553846 C13.7577931,29.5035318 14.2215695,29.0788953 14.7693875,29.0996299 C15.3172054,29.1203645 15.7481103,29.5788643 15.7392507,30.1316026 C15.730391,30.6843409 15.2850169,31.128558 14.7368205,31.1314286 C14.4561567,31.1380663 14.1857163,31.0251115 13.991903,30.820299 C13.7980896,30.6154865 13.6988547,30.3377863 13.7185641,30.0553846 L13.7255385,30.0553846 Z M31.9181538,28.2971429 C32.1569472,28.2965206 32.3936629,28.3418745 32.6155897,28.4307692 C32.8274223,28.5163142 33.0205432,28.6429573 33.184,28.8035165 C33.3453439,28.9626261 33.4734073,29.1527482 33.5606154,29.3626374 C33.7428059,29.8135043 33.7428059,30.3183638 33.5606154,30.7692308 C33.4734909,30.9791657 33.3454169,31.1693036 33.184,31.3283516 C33.0205432,31.4889108 32.8274223,31.615554 32.6155897,31.7010989 C32.1557561,31.8812795 31.6456798,31.8812795 31.1858462,31.7010989 C30.9750017,31.6156389 30.7830077,31.4889576 30.6209231,31.3283516 C30.4611209,31.1686803 30.3342996,30.9786426 30.2477949,30.7692308 C30.0659748,30.3182907 30.0659748,29.8135774 30.2477949,29.3626374 C30.3342996,29.1532256 30.4611209,28.9631878 30.6209231,28.8035165 C30.7830077,28.6429106 30.9750017,28.5162292 31.1858462,28.4307692 C31.4157479,28.3346735 31.6623119,28.2856635 31.9111795,28.2865934 L31.9181538,28.2971429 Z M31.9181538,29.0004396 C31.7761323,28.9984861 31.6351211,29.0247745 31.5031795,29.0778022 C31.3789024,29.1280492 31.2661556,29.2034465 31.1718974,29.2993407 C31.0757392,29.4002912 31.0009879,29.5199411 30.9522051,29.650989 C30.8456739,29.9317601 30.8456739,30.2423058 30.9522051,30.5230769 C31.0008997,30.6541689 31.0756617,30.7738359 31.1718974,30.8747253 C31.2660923,30.970697 31.3788561,31.0461056 31.5031795,31.0962637 C31.7688461,31.2011655 32.0639744,31.2011655 32.329641,31.0962637 C32.4599089,31.0477073 32.5786841,30.9722501 32.678359,30.8747253 C32.7747513,30.7739596 32.849535,30.6542579 32.8980513,30.5230769 C33.0045825,30.2423058 33.0045825,29.9317601 32.8980513,29.650989 C32.849535,29.519808 32.7747513,29.4001063 32.678359,29.2993407 C32.5786841,29.2018158 32.4599089,29.1263587 32.329641,29.0778022 C32.198093,29.017075 32.0557951,28.9835932 31.9111795,28.9793407 L31.9181538,29.0004396 Z M20.361641,30.0553846 C20.361641,29.0004396 19.7130256,28.2971429 18.7819487,28.2971429 C17.8189907,28.3107376 17.0492879,29.1089499 17.0627694,30.08 C17.0762508,31.0510501 17.8678113,31.827221 18.8307692,31.8136264 C19.3272266,31.8307313 19.8125647,31.6630028 20.1942564,31.3424176 L19.8455385,30.8008791 C19.5701775,31.0235705 19.2290406,31.1473128 18.8761026,31.1525275 C18.3775637,31.1957627 17.9354639,30.831005 17.8787692,30.3296703 L20.3511795,30.3296703 C20.361641,30.2417582 20.361641,30.1538462 20.361641,30.0553846 Z M17.8822564,29.76 C17.9102466,29.2960879 18.2967548,28.9373879 18.7575385,28.9476923 C18.9767436,28.9429796 19.1888223,29.0262962 19.3470946,29.1793033 C19.5053669,29.3323105 19.5968601,29.5424672 19.6014359,29.7635165 L17.8822564,29.76 Z M23.4129231,29.2325275 C23.0944631,29.0476151 22.7342266,28.9483231 22.3667692,28.9441758 C21.9692308,28.9441758 21.7321026,29.0918681 21.7321026,29.338022 C21.7321026,29.5841758 21.9831795,29.6263736 22.2970256,29.6685714 L22.6457436,29.7178022 C23.3710769,29.8232967 23.8104615,30.1327473 23.8104615,30.7235165 C23.8104615,31.3142857 23.2525128,31.8206593 22.2935385,31.8206593 C21.7795697,31.8344461 21.2747699,31.6816103 20.8533333,31.3846154 L21.2020513,30.8149451 C21.5220709,31.0543577 21.9126696,31.1782197 22.3109744,31.1665934 C22.8061538,31.1665934 23.0711795,31.0189011 23.0711795,30.7586813 C23.0711795,30.5687912 22.8828718,30.4632967 22.4853333,30.407033 L22.1366154,30.3578022 C21.390359,30.2523077 20.9858462,29.9147253 20.9858462,29.3661538 C20.9858462,28.698022 21.5298462,28.2901099 22.3807179,28.2901099 C22.8569415,28.2740201 23.3277427,28.3960658 23.7372308,28.6417582 L23.4129231,29.2325275 Z M26.9001026,29.0426374 L25.7179487,29.0426374 L25.7179487,30.5582418 C25.7179487,30.9098901 25.8365128,31.1208791 26.1991795,31.1208791 C26.4255431,31.1133196 26.6463068,31.0479858 26.8408205,30.930989 L27.0500513,31.5569231 C26.7781586,31.7280274 26.4638768,31.8182285 26.1433846,31.8171429 C25.2855385,31.8171429 24.985641,31.352967 24.985641,30.5723077 L24.985641,29.0426374 L24.3091282,29.0426374 L24.3091282,28.3745055 L24.985641,28.3745055 L24.985641,27.3547253 L25.7179487,27.3547253 L25.7179487,28.3745055 L26.9001026,28.3745055 L26.9001026,29.0426374 Z M29.4073846,28.2901099 C29.5833206,28.2907954 29.7578538,28.3217143 29.9234872,28.3815385 L29.7003077,29.0848352 C29.5561783,29.0268878 29.4021212,28.9982075 29.2469744,29.0004396 C28.7727179,29.0004396 28.5495385,29.3098901 28.5495385,29.8654945 L28.5495385,31.7468132 L27.8242051,31.7468132 L27.8242051,28.3885714 L28.5425641,28.3885714 L28.5425641,28.7964835 C28.7238915,28.4823923 29.0610789,28.2934918 29.4213333,28.3041758 L29.4073846,28.2901099 Z M34.4219487,31.243956 C34.4672866,31.2433959 34.5122976,31.2517571 34.5544615,31.2685714 C34.5945093,31.2850511 34.6311671,31.3089001 34.6625641,31.3389011 C34.6932057,31.3692207 34.7180321,31.4049851 34.7357949,31.4443956 C34.77149,31.5274012 34.77149,31.6216097 34.7357949,31.7046154 C34.7180321,31.7440259 34.6932057,31.7797903 34.6625641,31.8101099 C34.6311671,31.8401109 34.5945093,31.8639599 34.5544615,31.8804396 C34.5127138,31.8990155 34.4675799,31.9085972 34.4219487,31.9085714 C34.2870122,31.9075458 34.1647737,31.8281079 34.1081026,31.7046154 C34.0728207,31.6215238 34.0728207,31.5274872 34.1081026,31.4443956 C34.1258653,31.4049851 34.1506918,31.3692207 34.1813333,31.3389011 C34.2127303,31.3089001 34.2493882,31.2850511 34.2894359,31.2685714 C34.3261358,31.253854 34.3650483,31.2455305 34.4045128,31.243956 L34.4219487,31.243956 Z M34.4219487,31.8382418 C34.4567541,31.838455 34.4912129,31.8312656 34.5230769,31.8171429 C34.5530794,31.8036352 34.5802891,31.7845476 34.6032821,31.7608791 C34.6633284,31.6998958 34.6896446,31.6129498 34.6736024,31.5285479 C34.6575601,31.444146 34.6012285,31.3731739 34.5230769,31.3389011 C34.4911815,31.3248779 34.4567438,31.3176929 34.4219487,31.3178022 C34.3871837,31.3179875 34.3528043,31.3251602 34.3208205,31.3389011 C34.2894898,31.3518558 34.261037,31.3709837 34.2371282,31.3951648 C34.1467067,31.4946487 34.1467067,31.6473294 34.2371282,31.7468132 C34.2859082,31.7966194 34.3525307,31.8245063 34.4219487,31.8241758 L34.4219487,31.8382418 Z M34.4428718,31.4197802 C34.4754251,31.4181883 34.5075035,31.4281415 34.5335385,31.4479121 C34.5551947,31.4659854 34.5668799,31.49348 34.5649231,31.5217582 C34.5659354,31.5453733 34.5570806,31.5683341 34.5405128,31.5850549 C34.5203005,31.6035678 34.4945158,31.6147113 34.4672821,31.6167033 L34.5684103,31.7327473 L34.4882051,31.7327473 L34.3940513,31.6167033 L34.3626667,31.6167033 L34.3626667,31.7327473 L34.2964103,31.7327473 L34.2964103,31.4092308 L34.4428718,31.4197802 Z M34.3661538,31.4795604 L34.3661538,31.563956 L34.4428718,31.563956 C34.4565236,31.5680604 34.4710661,31.5680604 34.4847179,31.563956 C34.4896917,31.5540027 34.4896917,31.542261 34.4847179,31.5323077 C34.4896917,31.5223544 34.4896917,31.5106127 34.4847179,31.5006593 C34.4710661,31.496555 34.4565236,31.496555 34.4428718,31.5006593 L34.3661538,31.4795604 Z" id="Shape" fill="#FFFFFF"></path>
                <g id="_Group_">
                    <rect id="Rectangle-path" fill="#7673C0" x="14.8693333" y="2.75340659" width="10.9846154" height="19.9068132"></rect>
                    <path d="M15.5667692,12.7085714 C15.5626623,8.82338189 17.3308789,5.15219139 20.361641,2.75340659 C15.214491,-1.32569608 7.82297711,-0.731539498 3.3816567,4.11831905 C-1.05966371,8.96817761 -1.05966371,16.4454488 3.3816567,21.2953073 C7.82297711,26.1451659 15.214491,26.7393225 20.361641,22.6602198 C17.3318431,20.2621965 15.5637345,16.592527 15.5667692,12.7085714 Z" id="_Path_" fill="#EB001B"></path>
                    <path d="M39.4748718,20.5503297 L39.4748718,20.1564835 L39.6387692,20.1564835 L39.6387692,20.0720879 L39.2237949,20.0720879 L39.2237949,20.1564835 L39.3876923,20.1564835 L39.3876923,20.5643956 L39.4748718,20.5503297 Z M40.2804103,20.5503297 L40.2804103,20.058022 L40.1548718,20.058022 L40.0084103,20.4096703 L39.8619487,20.058022 L39.7329231,20.058022 L39.7329231,20.5503297 L39.8235897,20.5503297 L39.8235897,20.1810989 L39.9595897,20.5010989 L40.0537436,20.5010989 L40.1897436,20.1810989 L40.1897436,20.5538462 L40.2804103,20.5503297 Z" id="Shape" fill="#00A1DF"></path>
                    <path d="M40.6709744,12.7085714 C40.6698134,17.554169 37.9258185,21.9739836 33.603836,24.091771 C29.2818536,26.2095584 24.140237,25.6537225 20.361641,22.6602198 C23.390117,20.2601606 25.1583587,16.590979 25.1583587,12.7068132 C25.1583587,8.82264738 23.390117,5.15346573 20.361641,2.75340659 C24.1402057,-0.24224873 29.2832723,-0.799345028 33.6065608,1.31871863 C37.9298493,3.4367823 40.6743495,7.85815195 40.6744615,12.7050549 L40.6709744,12.7085714 Z" id="Shape" fill="#00A1DF"></path>
                </g>
            </g>
        </g>
    </g>
</svg>
