<?xml version="1.0" encoding="UTF-8"?>
<svg width="120px" height="30px" viewBox="0 0 120 30" version="1.1" xmlns="http://www.w3.org/2000/svg" xmlns:xlink="http://www.w3.org/1999/xlink">
    <!-- Generator: Sketch 49.3 (51167) - http://www.bohemiancoding.com/sketch -->
    <title>Shape</title>
    <desc>Created with Sketch.</desc>
    <defs></defs>
    <g id="Page-1" stroke="none" stroke-width="1" fill="none" fill-rule="evenodd">
        <g id="cards" transform="translate(-344.000000, -1000.000000)" fill="#FFFFFF" fill-rule="nonzero">
            <path d="M357.542974,1000 L344,1029.96147 L360.212837,1029.96147 L362.222755,1025.18436 L366.816987,1025.18436 L368.826905,1029.96147 L386.672683,1029.96147 L386.672683,1026.31543 L388.26285,1029.96147 L397.494089,1029.96147 L399.084256,1026.23837 L399.084256,1029.96147 L436.198642,1029.96147 L440.711556,1025.30842 L444.937272,1029.96147 L464,1030 L450.414252,1015.06438 L464,1000 L445.232931,1000 L440.839879,1004.56706 L436.747186,1000 L396.371619,1000 L392.904557,1007.73331 L389.356178,1000 L373.177184,1000 L373.177184,1003.52198 L371.377377,1000 C371.377377,1000 357.542974,1000 357.542974,1000 Z M360.680063,1004.25457 L368.582951,1004.25457 L377.566006,1024.5716 L377.566006,1004.25457 L386.223319,1004.25457 L393.161672,1018.82178 L399.556182,1004.25457 L408.170251,1004.25457 L408.170251,1025.75389 L402.928764,1025.75389 L402.88599,1008.90715 L395.244448,1025.75389 L390.555736,1025.75389 L382.871419,1008.90715 L382.871419,1025.75389 L372.088557,1025.75389 L370.044325,1020.93402 L359.000118,1020.93402 L356.960117,1025.74966 L351.182778,1025.74966 C351.182778,1025.74966 360.680063,1004.25457 360.680063,1004.25457 Z M412.965663,1004.25457 L434.278502,1004.25457 L440.797105,1011.29382 L447.525817,1004.25457 L454.044419,1004.25457 L444.140074,1015.06015 L454.044419,1025.7412 L447.230158,1025.7412 L440.711556,1018.62019 L433.94853,1025.7412 L412.965663,1025.7412 L412.965663,1004.25457 Z M364.524572,1007.89214 L360.885943,1016.47834 L368.15897,1016.47834 L364.524572,1007.89214 Z M418.228772,1008.70602 L418.228772,1012.63071 L429.855837,1012.63071 L429.855837,1017.00511 L418.228772,1017.00511 L418.228772,1021.28975 L431.270206,1021.28975 L437.330043,1014.97885 L431.527321,1008.70226 L418.228772,1008.70226 L418.228772,1008.70602 Z" id="Shape"></path>
        </g>
    </g>
</svg>
