<?xml version="1.0" encoding="UTF-8"?>
<svg width="116px" height="26px" viewBox="0 0 116 26" version="1.1" xmlns="http://www.w3.org/2000/svg" xmlns:xlink="http://www.w3.org/1999/xlink">
    <!-- Generator: Sketch 51.3 (57544) - http://www.bohemiancoding.com/sketch -->
    <title>Logo_Bangkok_Bank_Public_Company_Limited</title>
    <desc>Created with Sketch.</desc>
    <defs></defs>
    <g id="Page-1" stroke="none" stroke-width="1" fill="none" fill-rule="evenodd">
        <g id="m7-withdraw-balance-0-1366-copy" transform="translate(-749.000000, -985.000000)" fill="#1F4396" fill-rule="nonzero">
            <g id="Logo_Bangkok_Bank_Public_Company_Limited" transform="translate(749.000000, 985.000000)">
                <g id="Group-29" transform="translate(18.467662, 4.622222)">
                    <path d="M2.19588079,5.12994161 L2.87330563,5.12994161 C3.28916184,5.12994161 3.55755399,4.88135556 3.55755399,4.45439477 C3.55755399,4.03995817 3.33958014,3.76746231 2.87330563,3.76746231 L2.19588079,3.76746231 L2.19588079,5.12994161 Z M2.19588079,2.82587146 L2.81758014,2.82587146 C3.22775007,2.82587146 3.48780236,2.643322 3.48780236,2.25279521 C3.48780236,1.8694793 3.20765857,1.6603634 2.81758014,1.6603634 L2.19588079,1.6603634 L2.19588079,2.82587146 Z M0.105227197,6.32846797 L0.105227197,5.67227669 C0.339880792,5.58157124 0.47559321,5.40205795 0.484312165,5.20356863 L0.484312165,1.55257952 C0.47559321,1.35333115 0.339880792,1.17419739 0.105227197,1.0846305 L0.105227197,0.428417534 L3.04389386,0.428439216 C3.57082197,0.428439216 4.16029909,0.421228322 4.61595922,0.669814379 C5.11938406,0.938515033 5.28542328,1.43378954 5.28542328,1.92299172 C5.28542328,2.59664096 4.97760628,3.05927669 4.2232272,3.24372375 L4.2232272,3.25776601 C5.08829909,3.35454379 5.38663896,3.96063834 5.38663896,4.64946841 C5.38663896,5.13108017 5.26040367,5.66734292 4.82104419,5.97779085 C4.34150171,6.32125708 3.72738406,6.32922702 3.13866511,6.32922702 L0.105227197,6.32922702 L0.105227197,6.32846797 Z" id="Shape"></path>
                    <path d="M8.22105726,4.36103268 C7.89087426,4.4786841 7.20283504,4.62290196 7.20283504,5.00811547 C7.20283504,5.22254466 7.30670432,5.46885359 7.64181543,5.46885359 C7.9401553,5.46885359 8.00990694,5.43279913 8.22067818,5.30376209 M8.32909648,5.99790545 C7.93598537,6.2867207 7.43976315,6.41765534 6.92875661,6.41765534 C6.06330563,6.41765534 5.63266511,5.8832902 5.63266511,5.17965882 C5.63266511,4.31131547 6.11865203,4.05627756 6.95225988,3.81566144 L8.19603765,3.47826754 L8.19603765,3.08280697 C8.19603765,2.86913682 7.99929256,2.69379826 7.73999844,2.69379826 C7.44165857,2.69379826 7.23505726,2.86951634 7.23505726,3.08280697 L7.23505726,3.50559303 L5.8369919,3.50559303 L5.8369919,2.56058649 C6.47461282,2.16208976 7.16454746,1.90211808 7.93484811,1.90211808 C8.43031216,1.90211808 8.84427295,1.97043181 9.26126641,2.24634336 C9.78023373,2.60423137 9.78781543,3.05927669 9.78023373,3.56176209 L9.78023373,5.16333943 C9.78023373,5.39067233 9.75635138,5.5899207 10.0076847,5.74818083 L10.1195148,6.32922702 L8.44130563,6.32922702" id="Shape"></path>
                    <path d="M38.6085082,5.12994161 L39.2859331,5.12994161 C39.7025475,5.12994161 39.9701814,4.88135556 39.9701814,4.45439477 C39.9701814,4.03995817 39.7514494,3.76746231 39.2859331,3.76746231 L38.6085082,3.76746231 L38.6085082,5.12994161 Z M38.6085082,2.82587146 L39.2305867,2.82587146 C39.6411357,2.82587146 39.9004298,2.643322 39.9004298,2.25279521 C39.9004298,1.8694793 39.6206651,1.6603634 39.2305867,1.6603634 L38.6085082,1.6603634 L38.6085082,2.82587146 Z M36.5174756,6.32846797 L36.5174756,5.67227669 C36.7536455,5.58157124 36.8889788,5.40205795 36.8965605,5.20356863 L36.8965605,1.55257952 C36.8885997,1.35333115 36.7532664,1.17419739 36.5174756,1.0846305 L36.5174756,0.428417534 L39.4572795,0.428439216 C39.9842076,0.428439216 40.5740638,0.421228322 41.0297239,0.669814379 C41.5327697,0.938515033 41.6988089,1.43378954 41.6988089,1.92299172 C41.6988089,2.59664096 41.3917501,3.05927669 40.6366128,3.24372375 L40.6366128,3.25776601 C41.5013056,3.35454379 41.8000246,3.96063834 41.8000246,4.64946841 C41.8000246,5.13108017 41.6737893,5.66734292 41.2348089,5.97779085 C40.7545082,6.32125708 40.1403906,6.32922702 39.5516716,6.32922702 L36.5174756,6.32922702 L36.5174756,6.32846797 Z" id="Shape"></path>
                    <path d="M44.6086651,4.36103268 C44.2796194,4.4786841 43.5919592,4.62290196 43.5919592,5.00811547 C43.5919592,5.22254466 43.6946912,5.46885359 44.0294233,5.46885359 C44.3281422,5.46885359 44.3982729,5.43279913 44.608286,5.30376209 L44.6086651,4.36103268 Z M44.7170834,5.99790545 C44.3239723,6.2867207 43.827371,6.41765534 43.3156063,6.41765534 C42.4512926,6.41765534 42.0202729,5.8832902 42.0202729,5.17965882 C42.0202729,4.31131547 42.5058808,4.05627756 43.3398677,3.81566144 L44.5832664,3.47826754 L44.5832664,3.08280697 C44.5832664,2.86913682 44.3869004,2.69379826 44.1279854,2.69379826 C43.8288873,2.69379826 43.6219069,2.86951634 43.6219069,3.08280697 L43.6219069,3.50559303 L42.2249788,3.50559303 L42.2249788,2.56058649 C42.8610834,2.16208976 43.551018,1.90211808 44.322456,1.90211808 C44.8171618,1.90211808 45.2315017,1.97043181 45.6484952,2.24634336 C46.1670834,2.60423137 46.1750442,3.05927669 46.1670834,3.56176209 L46.1670834,5.16333943 C46.1670834,5.39067233 46.1432011,5.5899207 46.3949135,5.74818083 L46.5071226,6.32922702 L44.8277762,6.32922702 L44.7170834,5.99790545 Z" id="Shape"></path>
                    <path d="M12.2363252,2.25962658 C12.7477109,1.95904619 13.2636455,1.89225054 13.5161161,1.90173856 C13.9027828,1.91502179 14.1840638,2.02622135 14.3732272,2.19055381 C14.7106128,2.47329673 14.7500377,2.78905795 14.7500377,3.16136776 L14.7500377,5.12766449 C14.7500377,5.3405756 14.8376063,5.58119172 15.0813579,5.69846362 L15.0813579,6.32846797 L13.2200507,6.32846797 C13.109737,5.88746492 13.1176978,5.42634728 13.1176978,4.9792719 L13.1176978,3.46764096 C13.1176978,3.44069499 13.1404429,3.24144662 13.0623514,3.08242745 C12.9361161,2.91733595 12.6195801,2.79399172 12.3132795,2.91733595 L12.3132795,5.17662266 C12.3132795,5.38953377 12.2893971,5.63090893 12.5414886,5.74742179 L12.5414886,6.32846797 L10.3416586,6.32846797 L10.3416586,5.74742179 C10.5857893,5.62407756 10.6809396,5.42369063 10.6809396,5.20356863 L10.6809396,3.25397081 C10.6809396,3.02056558 10.5782076,2.86799826 10.3416586,2.71694902 L10.3416586,1.99092593 L12.2355671,1.99092593" id="Shape"></path>
                    <path d="M48.6933056,2.25962658 C49.2043122,1.95904619 49.7213841,1.89225054 49.9749919,1.90173856 C50.3601422,1.91502179 50.6421814,2.02622135 50.8317239,2.19055381 C51.1694886,2.47329673 51.2085344,2.78905795 51.2085344,3.16136776 L51.2085344,5.12766449 C51.2085344,5.3405756 51.296103,5.58119172 51.5394756,5.69846362 L51.5394756,6.32846797 L49.6774102,6.32846797 C49.5678546,5.88746492 49.5758154,5.42634728 49.5758154,4.9792719 L49.5758154,3.46764096 C49.5758154,3.44069499 49.5993187,3.24144662 49.5208481,3.08242745 C49.3946128,2.91733595 49.0780769,2.79399172 48.7713971,2.91733595 L48.7713971,5.17662266 C48.7713971,5.38953377 48.7482729,5.63090893 49.0003645,5.74742179 L49.0003645,6.32846797 L46.8001553,6.32846797 L46.8001553,5.74742179 C47.0435279,5.62407756 47.1390573,5.42369063 47.1390573,5.20356863 L47.1390573,3.25397081 C47.1390573,3.02056558 47.0355671,2.86799826 46.8001553,2.71694902 L46.8001553,1.99092593 L48.6929265,1.99092593" id="Shape"></path>
                    <path d="M18.0207828,2.98564967 C17.9358677,2.93441438 17.647005,2.90101656 17.5397239,2.90101656 C17.0025605,2.90101656 16.9301553,3.36137516 16.9301553,3.596678 L16.9301553,4.59861264 C16.9301553,4.82139129 17.0325082,5.36638301 17.5473056,5.36638301 C17.6398024,5.36638301 17.9358677,5.33981656 18.0211618,5.29427407 L18.0207828,2.98564967 Z M19.99392,2.57007451 C19.7501684,2.70176819 19.654639,2.88849237 19.654639,3.10785534 L19.654639,6.12808105 C19.654639,6.61728322 19.6785213,7.27764924 19.2459854,7.64274815 C18.8210311,8.0086061 18.2732533,8.06970893 17.7072795,8.06970893 C16.8816324,8.06970893 16.3152795,7.7884841 15.5919854,7.43780697 L15.5919854,6.61728322 L17.0916455,6.61728322 C17.0916455,6.66624139 17.0996063,6.93532157 17.1469919,7.03323791 C17.2012011,7.12887712 17.3994625,7.19643181 17.5492011,7.19643181 C17.9574756,7.19643181 18.0222991,6.6241146 18.0222991,6.37590806 L18.0222991,6.10075556 C17.691737,6.32087756 17.2269788,6.41765534 16.8740507,6.41765534 C15.6492272,6.41765534 15.3470965,5.62749325 15.3470965,4.67717342 L15.3470965,3.82704706 C15.3470965,2.88431765 15.4524821,1.90097952 16.7864821,1.90097952 C17.2273579,1.90097952 17.7152403,2.00534771 18.0696847,2.23875294 L18.0696847,1.99130545 L19.9942991,1.99130545 L19.9942991,2.57007451 L19.99392,2.57007451 Z" id="Shape"></path>
                    <path d="M22.0064821,3.43196601 L22.6027828,2.98906536 C22.8131749,2.78678083 22.862835,2.54198998 22.862835,2.16360784 L22.862835,1.99130545 L24.629371,1.99130545 L24.629371,2.57121307 C24.5672011,2.60005664 24.3939592,2.661539 24.2601422,2.80575686 L23.2483645,3.6976305 L24.2601422,5.15650806 C24.3863775,5.38232288 24.4807697,5.62445708 24.7798677,5.74856035 L24.7798677,6.32922702 L23.2028743,6.32922702 L22.0227828,4.44149107 L22.0068612,4.44149107 L22.0068612,5.17700218 C22.0068612,5.41040741 22.095188,5.58954118 22.3465213,5.74856035 L22.3465213,6.32922702 L20.1459331,6.32922702 L20.1459331,5.74856035 C20.382103,5.58954118 20.4855932,5.4377329 20.4855932,5.20432767 L20.4855932,1.58066405 C20.4855932,1.34612026 20.3972664,1.16774553 20.1459331,1.00910588 L20.1459331,0.428439216 L22.0068612,0.428439216" id="Shape"></path>
                    <path d="M53.643018,3.43196601 L54.2389396,2.98906536 C54.4500899,2.78678083 54.4989919,2.54198998 54.4989919,2.16360784 L54.4989919,1.99130545 L56.2655279,1.99130545 L56.2655279,2.57121307 C56.2029788,2.60005664 56.0301161,2.661539 55.89592,2.80575686 L54.8833841,3.6976305 L55.89592,5.15650806 C56.0225344,5.38232288 56.1173056,5.62445708 56.4164037,5.74856035 L56.4164037,6.32922702 L54.8390311,6.32922702 L53.6593187,4.44149107 L53.643018,4.44149107 L53.643018,5.17700218 C53.643018,5.41040741 53.7309658,5.58954118 53.9822991,5.74856035 L53.9822991,6.32922702 L51.782469,6.32922702 L51.782469,5.74856035 C52.0178808,5.58954118 52.1217501,5.4377329 52.1217501,5.20432767 L52.1217501,1.58066405 C52.1217501,1.34612026 52.0341814,1.16774553 51.782469,1.00910588 L51.782469,0.428439216 L53.643018,0.428439216" id="Shape"></path>
                    <path d="M31.2061161,3.43196601 L31.8020377,2.98906536 C32.013188,2.78678083 32.062469,2.54198998 32.062469,2.16360784 L32.062469,1.99130545 L33.8293841,1.99130545 L33.8293841,2.57121307 C33.7672141,2.60005664 33.592835,2.661539 33.4601553,2.80575686 L32.4468612,3.6976305 L33.4601553,5.15650806 C33.5867697,5.38232288 33.6811618,5.62445708 33.9787435,5.74856035 L33.9787435,6.32922702 L32.4028873,6.32922702 L31.2227958,4.44149107 L31.2061161,4.44149107 L31.2061161,5.17700218 C31.2061161,5.41040741 31.2944429,5.58954118 31.5457762,5.74856035 L31.5457762,6.32922702 L29.3455671,6.32922702 L29.3455671,5.74856035 C29.5809788,5.58954118 29.6848481,5.4377329 29.6848481,5.20432767 L29.6848481,1.58066405 C29.6848481,1.34612026 29.5965213,1.16774553 29.3455671,1.00910588 L29.3455671,0.428439216 L31.205737,0.428439216" id="Shape"></path>
                    <path d="M26.4626259,5.03316383 C26.4626259,5.2673281 26.641554,5.62521612 26.9906912,5.62521612 C27.3800115,5.62521612 27.5267174,5.2673281 27.5267174,5.03316383 L27.5267174,3.34126057 C27.5267174,3.1070963 27.395554,2.69341874 26.9975148,2.69341874 C26.5987174,2.69341874 26.4626259,3.10026492 26.4626259,3.34126057 L26.4626259,5.03316383 Z M29.2030311,4.67565534 C29.2030311,5.15840566 29.1874886,5.70149978 28.738652,6.0392732 C28.2905736,6.37590806 27.6309658,6.41765534 27.0649919,6.41765534 C26.552469,6.41765534 25.829554,6.38235991 25.3973971,6.12808105 C24.7916194,5.77778344 24.7916194,5.24721351 24.7916194,4.67565534 L24.7916194,3.54696078 C24.7916194,3.0778732 24.7999592,2.56931547 25.2643383,2.25279521 C25.7120377,1.9427268 26.3178154,1.90173856 26.8758285,1.90173856 C27.3788743,1.90173856 28.1336324,1.93513638 28.5661684,2.15639695 C29.1636063,2.47291721 29.2030311,2.99627625 29.2030311,3.54734031 L29.2030311,4.67565534 Z" id="Shape"></path>
                    <path d="M97.370469,16.4666044 C97.3795671,17.1315246 97.2783514,17.1451874 96.950822,17.2161577 L92.9571618,17.2161577 C92.6637501,17.2328566 92.3930834,17.0537229 92.3764037,16.7273351 L92.3843645,11.4383346 C92.3184037,11.3225808 92.2596455,11.1988571 92.1193841,11.1707725 C91.9950442,11.1620436 91.8676716,11.1901281 91.8020899,11.2758998 L91.7076978,11.4865338 L91.7016324,16.6203102 C91.7016324,16.9463185 91.5647828,17.2518327 91.0427828,17.2157782 L87.3546651,17.2157782 C87.1332795,17.2324771 86.5896716,17.2226096 86.573371,16.7110157 L86.6074886,11.4861542 C86.568822,11.3039843 86.6192403,11.124471 86.2647958,11.124471 L85.7784298,11.1005612 C85.5214102,11.124471 85.5005605,10.9612771 85.5005605,10.821234 L85.5005605,9.72176253 C85.5445344,9.51264662 85.6158024,9.47317647 86.154103,9.47317647 L88.4881292,9.47317647 C88.8611488,9.47317647 88.8122468,9.88609499 88.8122468,9.88609499 L88.8251357,15.1720593 C88.8543252,15.2847769 88.8721422,15.4464527 89.0044429,15.4946519 C89.1496324,15.580044 89.2789004,15.5568932 89.4411488,15.5197002 C89.4411488,15.5197002 89.6382729,15.4483503 89.6382729,15.1424566 L89.6257631,10.4652436 C89.6333448,10.124434 89.6454756,9.58475556 90.3759723,9.47962832 C90.9806128,9.47962832 92.9249396,9.47165839 93.6611226,9.47962832 C94.0398285,9.47962832 94.4052664,9.5562915 94.492835,9.9487159 L94.4951096,15.3333556 C94.5254363,15.4278562 94.6001161,15.533363 94.707018,15.579285 C94.8965605,15.6255865 95.0284821,15.5993996 95.1160507,15.4756758 L95.1831488,15.359163 L95.2293971,13.7401277 L95.2221945,9.87660697 C95.2221945,9.59690022 95.2002076,9.45685708 95.5739854,9.45685708 L97.0436978,9.45685708 C97.2866912,9.47279695 97.370469,9.5745085 97.3818416,9.80715468 L97.370469,16.4666044" id="Shape"></path>
                    <path d="M84.8530834,16.8738301 C84.8697631,17.1983203 84.673018,17.2161577 84.5464037,17.1983203 L82.9250573,17.1983203 C82.9250573,17.1983203 82.6191357,17.2328566 82.6191357,16.8362575 L82.6020769,11.4455455 C82.5732664,11.2747612 82.5107174,11.2542671 82.3666651,11.1404109 C82.1498285,11.0633682 82.0417893,11.0941094 81.8022076,11.1123264 C81.3939331,11.2443996 81.5755148,11.7594092 81.5277501,12.1127429 L81.5209265,16.4954479 C81.5209265,17.0172889 81.5755148,17.1986998 81.1247828,17.1986998 L76.9108743,17.1986998 C76.5966128,17.2036336 76.2596063,17.1808623 76.2618808,16.4586344 L76.2470965,11.4254309 C76.2057762,11.2443996 76.1731749,11.068302 75.9229788,11.0652658 C75.9229788,11.0652658 75.4862729,11.0834828 75.2883906,11.0660248 C75.0745867,11.050085 75.0745867,10.7977037 75.0745867,10.7977037 L75.0783775,9.69178039 C75.0783775,9.45761612 75.4297893,9.45761612 75.4297893,9.45761612 L77.9920246,9.46368845 C77.9920246,9.46368845 78.3529135,9.50088148 78.3881684,9.89634205 L78.3976455,15.2885721 C78.3881684,15.4221634 78.5094756,15.5375377 78.6061422,15.6043333 C78.7774886,15.679858 79.0352664,15.6601229 79.1971357,15.5857368 C79.3214756,15.5090736 79.3787174,15.4324105 79.3605213,15.25062 L79.3692403,10.1115303 C79.408286,9.87432985 79.4522599,9.48076688 79.9401422,9.48076688 L83.7927828,9.48076688 C84.6233579,9.45761612 84.8580115,9.62156906 84.8580115,10.2530915 L84.8530834,16.8738301" id="Shape"></path>
                    <path d="M75.219018,17.0711808 C75.219018,17.2328566 75.0946782,17.2161577 74.9642729,17.221471 L72.1950573,17.2157782 C71.9042991,17.2324771 71.8375801,17.1311451 71.7454625,16.9444209 L71.7352272,9.65382832 C71.7352272,9.65382832 71.7158939,9.47279695 71.908469,9.47279695 L73.7747043,9.47279695 L73.9824429,9.61587625 L73.9615932,15.1678845 C73.9813056,15.3853499 73.9615932,15.5823211 74.1727435,15.6578458 C74.1727435,15.6578458 74.8804952,15.6639181 75.0575279,15.6639181 C75.2394886,15.6639181 75.2307697,15.8768292 75.2307697,15.8768292 L75.219018,17.0711808" id="Shape"></path>
                    <path d="M70.8098808,16.4924118 C70.74392,16.8070344 70.5839462,17.1319041 70.2613448,17.2161577 C70.2613448,17.2161577 64.8699984,17.2047721 64.8802337,17.203254 C64.448456,17.2047721 64.4010703,17.0328492 64.2937893,16.7569377 C64.2937893,16.7569377 64.2990965,14.9090514 64.3108481,14.0156597 C64.3108481,13.9093939 64.4461814,13.7397481 64.5292011,13.7200131 C64.7581684,13.6991394 66.1983122,13.7116636 66.1983122,13.7116636 C66.4803514,13.7116636 66.4629135,13.874478 66.5023383,14.085112 L66.5023383,15.3455002 C66.5667828,15.3952174 66.5959723,15.6035743 66.9223645,15.6035743 L68.2123906,15.6073695 C68.464103,15.6267251 68.5270311,15.4441756 68.5656978,15.2635237 L68.5751749,11.4724915 C68.6032272,11.25199 68.4663775,11.0322475 68.0903252,11.0478078 L67.1486782,11.0622296 C66.9712664,11.0478078 66.7392664,11.1172601 66.7138677,10.7908723 C66.7138677,10.7908723 66.7138677,10.0652288 66.7096978,9.53959259 L66.8226651,9.47203791 L70.2177501,9.45571852 C70.5141945,9.52403224 70.7738677,9.59765926 70.7988873,10.041319 L70.8098808,16.4924118" id="Shape"></path>
                    <path d="M63.368822,16.6776179 C63.3968743,17.0825664 63.0481161,17.1467054 62.8001945,17.212742 L59.4801684,17.2017359 C59.3262599,17.2218505 59.2102599,17.2188144 59.1924429,17.0275359 C59.1818285,16.808173 59.1924429,16.3026514 59.1924429,15.8134492 C59.1924429,15.8134492 59.1461945,15.580044 59.4483252,15.580044 L60.8335017,15.5652427 C61.0905213,15.5652427 61.2087958,15.4251996 61.1845344,15.1682641 C61.1845344,15.1682641 61.1697501,14.1374858 61.1845344,13.8122366 C61.1451096,13.6312052 61.0253187,13.5052044 60.8335017,13.4380292 L57.6173448,13.4304388 C57.1829135,13.4304388 56.9960246,13.242576 56.966835,12.8372479 L56.9774494,10.2747242 C56.93992,9.6845695 57.2382599,9.48152593 57.7511618,9.48152593 L63.0996716,9.48152593 C63.1842076,9.50164052 63.4245475,9.46976078 63.4245475,9.90241438 L63.4245475,10.8356558 C63.4245475,11.1870919 63.0996716,11.1320614 62.8953448,11.1461037 L59.402835,11.1647002 C59.2303514,11.2223874 59.1651488,11.354081 59.1458154,11.5248654 C59.1185213,11.6983063 59.2220115,11.7931865 59.3364952,11.8990728 C59.554469,11.9909168 59.8497762,11.9169102 60.0893579,11.9643503 L62.9381814,11.9427176 C63.3415279,11.9696636 63.3684429,12.2125569 63.3684429,12.701 L63.3684429,16.6776179" id="Shape"></path>
                    <path d="M63.3430442,21.1749381 C63.1792795,21.319156 62.9552403,21.2622279 62.7626651,21.300939 L61.4032664,21.2793063 C61.3361684,21.2333843 61.2122076,21.2622279 61.2122076,21.1464741 C61.0696716,20.6519586 61.4586128,19.8329529 60.8763383,19.5741198 C60.3732926,19.4614022 59.7830573,19.5741198 59.2906259,19.4705107 C59.2322468,19.0131882 59.2519592,18.5069076 59.2720507,18.0419948 L59.3546912,17.9630545 C60.4892926,17.9368675 61.6219984,17.9368675 62.753188,17.9630545 C62.9632011,18.0605913 63.1910311,18.1456039 63.2880769,18.3744549 C63.3430442,18.5069076 63.3820899,18.660993 63.3908089,18.8124218 L63.3430442,21.1749381" id="Shape"></path>
                    <path d="M56.2033579,16.9489752 C56.2033579,16.9489752 56.2158677,17.2161577 55.9853841,17.2161577 L54.2772272,17.2161577 C53.995188,17.2161577 54.0641814,16.9793368 54.0440899,16.864342 L54.0452272,11.7408126 C54.0243775,11.4922266 53.8109527,11.225044 53.5622729,11.1491399 L52.0698154,11.1491399 C51.7430442,11.1491399 51.7320507,11.3206832 51.7047566,11.4227743 L51.6960377,17.0601747 C51.6960377,17.0601747 51.7544167,17.2161577 51.4530442,17.2161577 C51.4530442,17.2161577 49.7774886,17.2563869 49.6019723,17.2366519 C49.4200115,17.2161577 49.4522337,16.9660536 49.4522337,16.9660536 L49.4522337,9.76882309 C49.4291096,9.55932767 49.5712664,9.47355599 49.850652,9.47355599 L55.1267566,9.47355599 C55.9190442,9.47355599 56.2033579,9.65534641 56.2033579,10.638305 L56.2033579,16.9489752" id="Shape"></path>
                    <path d="M48.3252141,16.771739 C48.3252141,17.0761146 48.2550834,17.2161577 47.8816847,17.2161577 C47.8816847,17.2161577 44.4047174,17.2180553 44.3815932,17.2161577 C43.9134233,17.2161577 43.9683906,17.0893978 43.9683906,17.0138732 C43.9683906,17.0138732 43.9464037,16.2419281 43.9464037,15.9144017 C43.9464037,15.5899115 44.1768873,15.542851 44.1768873,15.542851 L45.5783645,15.5413329 C45.7254494,15.5466462 46.0681422,15.6350745 46.0681422,15.2365778 L46.0681422,14.1382449 C46.0681422,13.6718139 45.9983906,13.6255124 45.6503906,13.6023617 L42.4766912,13.6080545 C42.408835,13.5317708 42.2852533,13.5890784 42.2098154,13.5412588 C41.9797109,13.4456196 41.8663645,13.2353651 41.819737,13.0084118 L41.819737,10.2918026 C41.7985082,9.90886623 41.9145082,9.47355599 42.9410703,9.47355599 L47.5575671,9.48000784 C48.0829788,9.48000784 48.3108089,9.39537473 48.3108089,9.88647451 L48.3108089,10.9631747 C48.3108089,11.2888035 48.0769135,11.2656527 47.7273971,11.2421224 L44.5021422,11.2455381 C44.3709788,11.2838697 44.2273056,11.3210627 44.1511096,11.445166 C44.1044821,11.5878658 44.0832533,11.7988793 44.1605867,11.9404405 L44.3398939,12.0554353 L47.7509004,12.0360797 C48.1694102,12.0820017 48.3369658,12.664566 48.3282468,12.9412366 L48.3252141,16.771739" id="Shape"></path>
                    <path d="M41.0414756,16.8502998 C41.0414756,16.8502998 41.101371,17.2161577 40.7283514,17.2161577 L39.1407435,17.2161577 C38.8833448,17.2161577 38.8147305,16.9584632 38.8147305,16.9584632 L38.8200377,11.6933725 C38.8113187,11.5324558 38.8344429,11.2470562 38.5103252,11.2075861 L37.0497109,11.1954414 C36.559554,11.2189717 36.7456847,11.4747686 36.6990573,11.6387216 C36.6990573,11.6387216 36.8165736,12.0360797 36.3954102,11.9662479 L34.7153056,11.9662479 C34.7153056,11.9662479 34.4605605,11.9893987 34.4605605,11.7328427 L34.4605605,9.90886623 C34.4825475,9.34831416 34.855188,9.47355599 35.1353318,9.47355599 L40.4175017,9.48114641 C40.6923383,9.53010458 40.9793056,9.7597146 41.04792,10.0386623 L41.0414756,16.8502998" id="Shape"></path>
                    <path d="M24.5069265,16.8502998 C24.5069265,16.8502998 24.566822,17.2161577 24.1941814,17.2161577 L22.6073318,17.2161577 C22.3499331,17.2161577 22.2798024,16.9584632 22.2798024,16.9584632 L22.2854886,11.6933725 C22.2756324,11.5324558 22.300652,11.2470562 21.9753971,11.2075861 L20.5155409,11.1954414 C20.0253841,11.2189717 20.2118939,11.4747686 20.1652664,11.6387216 C20.1652664,11.6387216 20.2820246,12.0360797 19.8608612,11.9662479 L18.1811357,11.9662479 C18.1811357,11.9662479 17.9241161,11.9893987 17.9241161,11.7328427 L17.9241161,9.90886623 C17.9483775,9.34831416 18.3217762,9.47355599 18.6004037,9.47355599 L23.8825736,9.48114641 C24.1577893,9.53010458 24.4462729,9.7597146 24.513371,10.0386623 L24.5069265,16.8502998" id="Shape"></path>
                    <path d="M33.6902599,16.8738301 C33.6902599,16.8738301 33.7035279,17.2161577 33.4468873,17.2161577 C33.0025997,17.2161577 31.8592795,17.2229891 31.7209135,17.2161577 C31.4953579,17.203254 31.4722337,16.8977399 31.4722337,16.8977399 L31.4953579,11.7032401 C31.4726128,11.5510523 31.4074102,11.381027 31.2660115,11.3039843 L31.0571357,11.2371887 L27.7465867,11.2371887 C27.5729658,11.2853878 27.4588612,11.3996235 27.4016194,11.5506728 L27.4110965,15.1329686 C27.4289135,15.2969216 27.5631096,15.4206453 27.70792,15.4938928 C27.9164167,15.4680854 28.1067174,15.542851 28.2674494,15.4297538 L28.381554,15.2479634 L28.4008873,12.7123856 C28.4111226,12.5431194 28.3220377,12.1761229 28.8356978,12.104773 L30.5628089,12.104773 C30.9585736,12.104773 30.9585736,12.3165455 30.9585736,12.3165455 C30.9779069,12.7526148 30.9585736,13.4850898 30.9585736,13.4850898 C30.982456,13.6710549 30.6325605,13.6710549 30.4665213,13.6661211 C30.3440769,13.6854767 30.2125344,13.7906039 30.2356586,14.0923229 L30.2356586,16.8024802 C30.1890311,17.2028745 29.6757501,17.2051516 29.4084952,17.2157782 L26.1426782,17.2157782 C25.8754233,17.1569525 25.5205997,17.2028745 25.450469,16.7322688 L25.4607043,9.91342048 C25.4970965,9.58058083 25.7829265,9.47962832 26.0509396,9.47962832 L33.1087435,9.47962832 C33.3445344,9.55591198 33.454469,9.70392505 33.5776716,9.93998693 C33.6368089,10.0853434 33.6553841,10.2542301 33.6932926,10.4067974 L33.6902599,16.8738301" id="Shape"></path>
                    <path d="M19.5769265,17.203254 L15.8721292,17.2161577 C15.4513448,17.2161577 15.3724952,16.8897699 15.2872011,16.679895 C15.2576324,15.983854 15.2872011,15.2597285 15.2003906,14.5834227 C15.1727174,14.4600784 15.0783252,14.3925237 14.9627043,14.3636802 C14.8387435,14.3549512 14.7538285,14.4209878 14.6673971,14.4688074 L14.5627697,14.6809595 L14.5521553,16.6149969 C14.5756586,17.2036336 14.2382729,17.2036336 13.9687435,17.2036336 L10.3382468,17.2051516 C10.138469,17.1561935 9.96598537,17.0522048 9.86287426,16.8787638 C9.67219452,16.3178322 9.75710955,15.6335564 9.72943635,15.0422632 C9.73891347,13.8391826 9.71958014,12.6486261 9.66385465,11.4781843 C9.54027295,11.1350976 8.82873047,11.2015137 8.82873047,11.2015137 C8.69225988,11.2413634 8.55237752,11.1711521 8.55237752,10.9855664 L8.56867818,9.86256471 C8.57739713,9.66065969 8.60810301,9.50581525 8.66989386,9.45761612 L11.2370573,9.45761612 C11.5683775,9.50581525 11.784835,9.77147974 11.8803645,10.0963495 C11.8970442,10.3548031 11.9266128,10.9832893 11.9266128,10.9832893 C11.9455671,11.839488 12.0225213,15.2043185 12.0225213,15.2043185 C12.0592926,15.3083072 12.1453448,15.4047054 12.2412533,15.470742 C12.382652,15.4988266 12.5539984,15.4988266 12.6597631,15.4047054 L12.7643906,15.1750954 C12.7924429,14.4505904 12.6214756,13.6312052 12.8398285,12.9548993 C13.1067043,12.5829691 13.6480377,12.6486261 14.060103,12.6406562 C14.3626128,12.6406562 14.809554,12.6778492 15.1241945,12.545017 L15.1905344,12.3628471 C15.1905344,12.3628471 15.1924298,9.94985447 15.1806782,9.76920261 C15.1583122,9.39499521 15.344822,9.47431503 15.344822,9.47431503 L17.1420638,9.47431503 C17.3759592,9.47431503 17.4453318,9.53617691 17.4229658,9.76920261 L17.4388873,12.4710105 C17.4756586,12.526041 17.5143252,12.573481 17.5810442,12.6095355 L19.3942076,12.6778492 C19.6955801,12.7139037 19.904456,12.8072658 19.9749658,13.1116414 L19.9768612,16.6723046 C19.9738285,17.0355059 19.8559331,17.203254 19.5769265,17.203254 M18.2163906,15.2415115 C18.2364821,14.9747085 18.3032011,14.6301037 18.0738546,14.4498314 C17.9881814,14.3841743 17.8448873,14.3841743 17.7122076,14.3841743 C17.5503383,14.3921442 17.4836194,14.5458501 17.4567043,14.68058 C17.4567043,14.974329 17.4078024,15.3455002 17.6822599,15.469983 C17.7978808,15.5360196 17.950652,15.4771939 18.0738546,15.4502479 C18.1599069,15.4103983 18.1887174,15.3360122 18.2163906,15.2415115" id="Shape"></path>
                    <path d="M7.81126641,16.3702061 C7.78283504,16.6290392 7.64863896,16.8943242 7.42156707,17.028295 C7.2316455,17.1432898 7.08569779,17.2055312 6.84725334,17.2161577 L1.49419452,17.2161577 C1.02867818,17.156573 0.547619354,17.0992654 0.327750073,16.6316959 C0.262547459,15.9060523 0.204547459,15.1314505 0.262547459,14.3872105 L0.468769681,14.2851194 C1.11624681,14.2650048 1.94795922,14.2566553 2.46768471,14.2851194 C2.69551478,14.6452845 2.33386772,15.3231085 2.87595922,15.4646697 C3.60910955,15.5234954 4.43665203,15.5052784 5.19709648,15.4855434 C5.31347556,15.4760553 5.40976315,15.4373442 5.51211609,15.3990126 C5.75965857,15.0741429 5.5974102,14.5610309 5.64517491,14.1712632 C5.67398537,13.9792257 5.55002458,13.8073028 5.41658667,13.7317782 C4.86577622,13.636139 4.23801151,13.6843381 3.6659723,13.6934466 L0.926325237,13.7317782 C0.582874256,13.636139 0.345187982,13.3886915 0.288704322,13.0353577 C0.259135694,12.0945259 0.259135694,11.2246645 0.288704322,10.2826941 C0.335331773,9.82537168 0.449436348,9.57944227 0.850508243,9.47317647 L7.47805073,9.47317647 C7.58229909,9.501261 7.78245596,9.58058083 7.7585736,9.8386549 L7.7585736,11.0550187 C7.7585736,11.0550187 7.7585736,11.2652732 7.38517491,11.2652732 C7.08228602,11.2652732 2.85738406,11.2842492 2.85738406,11.2842492 C2.73418145,11.2922192 2.60112262,11.4072139 2.56283504,11.5301786 C2.56283504,11.674017 2.53402458,11.8258253 2.65684811,11.9214645 L2.82933177,12.0163447 C4.39040367,12.0816222 5.66033831,11.9689046 7.26879582,12.0550558 C7.57433831,12.1305804 7.77335792,12.3886545 7.80065203,12.6949277 L7.81126641,16.3702061" id="Shape"></path>
                </g>
                <g id="Group-28">
                    <path d="M17.1228889,12.3454288 C16.9113595,11.5446401 16.6054379,10.9518288 16.1118693,10.0462924 C15.9507582,9.78935686 15.7426405,9.50243922 15.5568889,9.19806362 C13.4108889,6.01236688 9.17688889,0.452768192 8.78946405,0.0956392157 C8.78946405,0.0956392157 8.7629281,0.075145098 8.74132026,0.075145098 C8.71705882,0.075145098 8.69014379,0.0956392157 8.69014379,0.0956392157 C8.30499346,0.452388671 4.06985621,6.01236688 1.92309804,9.19806362 C1.73772549,9.50281874 1.52960784,9.78973638 1.36698039,10.0462924 C0.874169935,10.9518288 0.569385621,11.5446401 0.356718954,12.3454288 C0.0936339869,13.5018283 0.0803660131,14.9398322 0.319568627,16.1220392 C0.535647059,17.1596488 1.5205098,18.2196501 2.51105882,19.0113303 L4.02701961,20.216688 C4.02701961,20.216688 8.26405229,23.2752453 8.65754248,23.4684214 C8.65754248,23.4684214 8.69658824,23.4942288 8.74094118,23.4942288 C8.78415686,23.4942288 8.82168627,23.4684214 8.82168627,23.4684214 C9.21669281,23.2748658 13.4510719,20.216688 13.4510719,20.216688 L14.9670327,19.0113303 C15.958719,18.2196501 16.9424444,17.1596488 17.1581438,16.1220392 C17.3977255,14.9398322 17.386732,13.5018283 17.1228889,12.3454288 M7.41300654,20.3229538 C7.38305882,20.3684963 7.31444444,20.3540745 7.2651634,20.3495203 C7.01762092,20.1753203 6.40388235,19.730522 6.40388235,19.730522 C5.34888889,18.9475708 4.28479739,18.2249634 3.27339869,17.42 C1.72142484,15.7098797 1.8787451,14.0035547 2.35449673,12.2888802 C2.37155556,12.1784397 2.42273203,12.011071 2.56867974,11.9810889 C3.00614379,12.6274126 3.93414379,13.9587712 3.93414379,13.9587712 C4.83712418,15.2582501 5.93381699,16.429451 6.97061438,17.64961 C7.68253595,18.3042832 7.39481046,19.4037547 7.41300654,20.3229538 M8.74245752,16.9323159 C8.72122876,16.9315569 8.68711111,16.9171351 8.65488889,16.8837373 C7.31179085,15.2912684 5.78824837,13.4908222 4.45159477,11.8919015 C4.20973856,11.4865734 3.96333333,11.0971852 3.93566013,10.5749647 C3.91973856,10.1673595 3.89433987,9.79201351 4.23134641,9.28117865 C4.23134641,9.28117865 4.45386928,8.95744749 4.51755556,8.8621878 C4.51755556,8.8621878 7.25606536,5.00663704 8.69810458,3.1796244 C8.69810458,3.1796244 8.71705882,3.15457603 8.74132026,3.15457603 C8.76179085,3.15457603 8.77998693,3.1796244 8.77998693,3.1796244 C10.2220261,5.00625752 12.9597778,8.8621878 12.9597778,8.8621878 C13.0246013,8.95744749 13.2475033,9.28117865 13.2475033,9.28117865 C13.5833725,9.79239303 13.5579739,10.1673595 13.5401569,10.5749647 C13.5136209,11.0971852 13.2660784,11.4861939 13.0257386,11.8919015 C11.6883268,13.4908222 10.1655425,15.2912684 8.8235817,16.8837373 C8.79135948,16.9171351 8.75913725,16.9315569 8.74245752,16.9323159 M14.1978693,17.42 C13.1864706,18.2249634 12.1208627,18.9471913 11.0654902,19.730522 C11.0654902,19.730522 10.4528889,20.1753203 10.2045882,20.3495203 C10.1553072,20.3540745 10.0866928,20.3684963 10.0578824,20.3229538 C10.0764575,19.4037547 9.78797386,18.3046627 10.5006536,17.6499895 C11.537451,16.4298305 12.6333856,15.2586296 13.5359869,13.9591508 C13.5359869,13.9591508 14.4639869,12.6277922 14.9018301,11.9814684 C15.0455033,12.011071 15.097817,12.1788192 15.1152549,12.2892597 C15.593281,14.0035547 15.749085,15.7102593 14.1978693,17.42" id="Shape"></path>
                </g>
            </g>
        </g>
    </g>
</svg>