<?xml version="1.0" encoding="UTF-8"?>
<svg width="116px" height="26px" viewBox="0 0 116 26" version="1.1" xmlns="http://www.w3.org/2000/svg" xmlns:xlink="http://www.w3.org/1999/xlink">
    <!-- Generator: Sketch 51.3 (57544) - http://www.bohemiancoding.com/sketch -->
    <title>Logo_Bangkok_Bank_Public_Company_Limited</title>
    <desc>Created with Sketch.</desc>
    <defs></defs>
    <g id="Page-1" stroke="none" stroke-width="1" fill="none" fill-rule="evenodd">
        <g id="m7-withdraw-balance-0-1366-copy" transform="translate(-945.000000, -985.000000)" fill="#FFFFFF" fill-rule="nonzero">
            <g id="Logo_Bangkok_Bank_Public_Company_Limited" transform="translate(945.000000, 985.000000)">
                <g id="Group-29" transform="translate(18.467662, 4.616915)">
                    <path d="M2.19588079,5.1240519 L2.87330563,5.1240519 C3.28916184,5.1240519 3.55755399,4.87575124 3.55755399,4.44928066 C3.55755399,4.03531987 3.33958014,3.76313686 2.87330563,3.76313686 L2.19588079,3.76313686 L2.19588079,5.1240519 Z M2.19588079,2.82262706 L2.81758014,2.82262706 C3.22775007,2.82262706 3.48780236,2.64028719 3.48780236,2.25020876 C3.48780236,1.86733294 3.20765857,1.65845713 2.81758014,1.65845713 L2.19588079,1.65845713 L2.19588079,2.82262706 Z M0.105227197,6.32120222 L0.105227197,5.66576432 C0.339880792,5.57516301 0.47559321,5.39585582 0.484312165,5.19759438 L0.484312165,1.550797 C0.47559321,1.35177739 0.339880792,1.17284928 0.105227197,1.08338523 L0.105227197,0.427925666 L3.04389386,0.427947322 C3.57082197,0.427947322 4.16029909,0.420744708 4.61595922,0.669045361 C5.11938406,0.937437518 5.28542328,1.4321434 5.28542328,1.92078392 C5.28542328,2.59365974 4.97760628,3.05576432 4.2232272,3.23999961 L4.2232272,3.25402575 C5.08829909,3.35069242 5.38663896,3.95609111 5.38663896,4.64413033 C5.38663896,5.12518915 5.26040367,5.66083621 4.82104419,5.97092771 C4.34150171,6.31399961 3.72738406,6.32196039 3.13866511,6.32196039 L0.105227197,6.32196039 L0.105227197,6.32120222 Z" id="Shape"></path>
                    <path d="M8.22105726,4.35602575 C7.89087426,4.47354209 7.20283504,4.61759438 7.20283504,5.00236562 C7.20283504,5.21654863 7.30670432,5.46257477 7.64181543,5.46257477 C7.9401553,5.46257477 8.00990694,5.4265617 8.22067818,5.29767281 M8.32909648,5.99101922 C7.93598537,6.27950288 7.43976315,6.41028719 6.92875661,6.41028719 C6.06330563,6.41028719 5.63266511,5.87653556 5.63266511,5.17371203 C5.63266511,4.30636562 6.11865203,4.05162052 6.95225988,3.81128066 L8.19603765,3.47427412 L8.19603765,3.07926758 C8.19603765,2.86584275 7.99929256,2.69070549 7.73999844,2.69070549 C7.44165857,2.69070549 7.23505726,2.86622183 7.23505726,3.07926758 L7.23505726,3.50156824 L5.8369919,3.50156824 L5.8369919,2.55764667 C6.47461282,2.15960745 7.16454746,1.89993425 7.93484811,1.89993425 C8.43031216,1.89993425 8.84427295,1.96816954 9.26126641,2.24376432 C9.78023373,2.60124144 9.78781543,3.05576432 9.78023373,3.55767281 L9.78023373,5.15741137 C9.78023373,5.38448327 9.75635138,5.58350288 10.0076847,5.74158131 L10.1195148,6.32196039 L8.44130563,6.32196039" id="Shape"></path>
                    <path d="M38.6085082,5.1240519 L39.2859331,5.1240519 C39.7025475,5.1240519 39.9701814,4.87575124 39.9701814,4.44928066 C39.9701814,4.03531987 39.7514494,3.76313686 39.2859331,3.76313686 L38.6085082,3.76313686 L38.6085082,5.1240519 Z M38.6085082,2.82262706 L39.2305867,2.82262706 C39.6411357,2.82262706 39.9004298,2.64028719 39.9004298,2.25020876 C39.9004298,1.86733294 39.6206651,1.65845713 39.2305867,1.65845713 L38.6085082,1.65845713 L38.6085082,2.82262706 Z M36.5174756,6.32120222 L36.5174756,5.66576432 C36.7536455,5.57516301 36.8889788,5.39585582 36.8965605,5.19759438 L36.8965605,1.550797 C36.8885997,1.35177739 36.7532664,1.17284928 36.5174756,1.08338523 L36.5174756,0.427925666 L39.4572795,0.427947322 C39.9842076,0.427947322 40.5740638,0.420744708 41.0297239,0.669045361 C41.5327697,0.937437518 41.6988089,1.4321434 41.6988089,1.92078392 C41.6988089,2.59365974 41.3917501,3.05576432 40.6366128,3.23999961 L40.6366128,3.25402575 C41.5013056,3.35069242 41.8000246,3.95609111 41.8000246,4.64413033 C41.8000246,5.12518915 41.6737893,5.66083621 41.2348089,5.97092771 C40.7545082,6.31399961 40.1403906,6.32196039 39.5516716,6.32196039 L36.5174756,6.32196039 L36.5174756,6.32120222 Z" id="Shape"></path>
                    <path d="M44.6086651,4.35602575 C44.2796194,4.47354209 43.5919592,4.61759438 43.5919592,5.00236562 C43.5919592,5.21654863 43.6946912,5.46257477 44.0294233,5.46257477 C44.3281422,5.46257477 44.3982729,5.4265617 44.608286,5.29767281 L44.6086651,4.35602575 Z M44.7170834,5.99101922 C44.3239723,6.27950288 43.827371,6.41028719 43.3156063,6.41028719 C42.4512926,6.41028719 42.0202729,5.87653556 42.0202729,5.17371203 C42.0202729,4.30636562 42.5058808,4.05162052 43.3398677,3.81128066 L44.5832664,3.47427412 L44.5832664,3.07926758 C44.5832664,2.86584275 44.3869004,2.69070549 44.1279854,2.69070549 C43.8288873,2.69070549 43.6219069,2.86622183 43.6219069,3.07926758 L43.6219069,3.50156824 L42.2249788,3.50156824 L42.2249788,2.55764667 C42.8610834,2.15960745 43.551018,1.89993425 44.322456,1.89993425 C44.8171618,1.89993425 45.2315017,1.96816954 45.6484952,2.24376432 C46.1670834,2.60124144 46.1750442,3.05576432 46.1670834,3.55767281 L46.1670834,5.15741137 C46.1670834,5.38448327 46.1432011,5.58350288 46.3949135,5.74158131 L46.5071226,6.32196039 L44.8277762,6.32196039 L44.7170834,5.99101922 Z" id="Shape"></path>
                    <path d="M12.2363252,2.25703229 C12.7477109,1.956797 13.2636455,1.89007804 13.5161161,1.89955517 C13.9027828,1.91282314 14.1840638,2.02389503 14.3732272,2.18803883 C14.7106128,2.47045713 14.7500377,2.78585582 14.7500377,3.15773817 L14.7500377,5.12177739 C14.7500377,5.33444405 14.8376063,5.57478392 15.0813579,5.69192118 L15.0813579,6.32120222 L13.2200507,6.32120222 C13.109737,5.88070549 13.1176978,5.42011726 13.1176978,4.97355517 L13.1176978,3.46365974 C13.1176978,3.43674471 13.1404429,3.2377251 13.0623514,3.0788885 C12.9361161,2.91398654 12.6195801,2.79078392 12.3132795,2.91398654 L12.3132795,5.17067935 C12.3132795,5.38334602 12.2893971,5.62444405 12.5414886,5.74082314 L12.5414886,6.32120222 L10.3416586,6.32120222 L10.3416586,5.74082314 C10.5857893,5.61762052 10.6809396,5.41746366 10.6809396,5.19759438 L10.6809396,3.2502349 C10.6809396,3.01709765 10.5782076,2.86470549 10.3416586,2.71382968 L10.3416586,1.98864013 L12.2355671,1.98864013" id="Shape"></path>
                    <path d="M48.6933056,2.25703229 C49.2043122,1.956797 49.7213841,1.89007804 49.9749919,1.89955517 C50.3601422,1.91282314 50.6421814,2.02389503 50.8317239,2.18803883 C51.1694886,2.47045713 51.2085344,2.78585582 51.2085344,3.15773817 L51.2085344,5.12177739 C51.2085344,5.33444405 51.296103,5.57478392 51.5394756,5.69192118 L51.5394756,6.32120222 L49.6774102,6.32120222 C49.5678546,5.88070549 49.5758154,5.42011726 49.5758154,4.97355517 L49.5758154,3.46365974 C49.5758154,3.43674471 49.5993187,3.2377251 49.5208481,3.0788885 C49.3946128,2.91398654 49.0780769,2.79078392 48.7713971,2.91398654 L48.7713971,5.17067935 C48.7713971,5.38334602 48.7482729,5.62444405 49.0003645,5.74082314 L49.0003645,6.32120222 L46.8001553,6.32120222 L46.8001553,5.74082314 C47.0435279,5.61762052 47.1390573,5.41746366 47.1390573,5.19759438 L47.1390573,3.2502349 C47.1390573,3.01709765 47.0355671,2.86470549 46.8001553,2.71382968 L46.8001553,1.98864013 L48.6929265,1.98864013" id="Shape"></path>
                    <path d="M18.0207828,2.98222183 C17.9358677,2.93104536 17.647005,2.89768588 17.5397239,2.89768588 C17.0025605,2.89768588 16.9301553,3.35751595 16.9301553,3.59254863 L16.9301553,4.59333294 C16.9301553,4.81585582 17.0325082,5.36022183 17.5473056,5.36022183 C17.6398024,5.36022183 17.9358677,5.33368588 18.0211618,5.28819569 L18.0207828,2.98222183 Z M19.99392,2.56712379 C19.7501684,2.69866628 19.654639,2.88517608 19.654639,3.10428719 L19.654639,6.12104536 C19.654639,6.60968588 19.6785213,7.26929373 19.2459854,7.63397347 C18.8210311,7.99941137 18.2732533,8.06044405 17.7072795,8.06044405 C16.8816324,8.06044405 16.3152795,7.77954209 15.5919854,7.42926758 L15.5919854,6.60968588 L17.0916455,6.60968588 C17.0916455,6.65858785 17.0996063,6.92735909 17.1469919,7.02516301 C17.2012011,7.12069242 17.3994625,7.18816954 17.5492011,7.18816954 C17.9574756,7.18816954 18.0222991,6.61650941 18.0222991,6.36858785 L18.0222991,6.09375124 C17.691737,6.31362052 17.2269788,6.41028719 16.8740507,6.41028719 C15.6492272,6.41028719 15.3470965,5.62103229 15.3470965,4.67180353 L15.3470965,3.8226532 C15.3470965,2.88100615 15.4524821,1.898797 16.7864821,1.898797 C17.2273579,1.898797 17.7152403,2.00304536 18.0696847,2.23618262 L18.0696847,1.98901922 L19.9942991,1.98901922 L19.9942991,2.56712379 L19.99392,2.56712379 Z" id="Shape"></path>
                    <path d="M22.0064821,3.42802575 L22.6027828,2.9856336 C22.8131749,2.78358131 22.862835,2.53907151 22.862835,2.16112379 L22.862835,1.98901922 L24.629371,1.98901922 L24.629371,2.56826105 C24.5672011,2.59707151 24.3939592,2.65848327 24.2601422,2.80253556 L23.2483645,3.69338523 L24.2601422,5.15058785 C24.3863775,5.3761434 24.4807697,5.61799961 24.7798677,5.74196039 L24.7798677,6.32196039 L23.2028743,6.32196039 L22.0227828,4.43639177 L22.0068612,4.43639177 L22.0068612,5.17105843 C22.0068612,5.40419569 22.095188,5.58312379 22.3465213,5.74196039 L22.3465213,6.32196039 L20.1459331,6.32196039 L20.1459331,5.74196039 C20.382103,5.58312379 20.4855932,5.43148981 20.4855932,5.19835255 L20.4855932,1.57884928 C20.4855932,1.34457477 20.3972664,1.16640484 20.1459331,1.00794732 L20.1459331,0.427947322 L22.0068612,0.427947322" id="Shape"></path>
                    <path d="M53.643018,3.42802575 L54.2389396,2.9856336 C54.4500899,2.78358131 54.4989919,2.53907151 54.4989919,2.16112379 L54.4989919,1.98901922 L56.2655279,1.98901922 L56.2655279,2.56826105 C56.2029788,2.59707151 56.0301161,2.65848327 55.89592,2.80253556 L54.8833841,3.69338523 L55.89592,5.15058785 C56.0225344,5.3761434 56.1173056,5.61799961 56.4164037,5.74196039 L56.4164037,6.32196039 L54.8390311,6.32196039 L53.6593187,4.43639177 L53.643018,4.43639177 L53.643018,5.17105843 C53.643018,5.40419569 53.7309658,5.58312379 53.9822991,5.74196039 L53.9822991,6.32196039 L51.782469,6.32196039 L51.782469,5.74196039 C52.0178808,5.58312379 52.1217501,5.43148981 52.1217501,5.19835255 L52.1217501,1.57884928 C52.1217501,1.34457477 52.0341814,1.16640484 51.782469,1.00794732 L51.782469,0.427947322 L53.643018,0.427947322" id="Shape"></path>
                    <path d="M31.2061161,3.42802575 L31.8020377,2.9856336 C32.013188,2.78358131 32.062469,2.53907151 32.062469,2.16112379 L32.062469,1.98901922 L33.8293841,1.98901922 L33.8293841,2.56826105 C33.7672141,2.59707151 33.592835,2.65848327 33.4601553,2.80253556 L32.4468612,3.69338523 L33.4601553,5.15058785 C33.5867697,5.3761434 33.6811618,5.61799961 33.9787435,5.74196039 L33.9787435,6.32196039 L32.4028873,6.32196039 L31.2227958,4.43639177 L31.2061161,4.43639177 L31.2061161,5.17105843 C31.2061161,5.40419569 31.2944429,5.58312379 31.5457762,5.74196039 L31.5457762,6.32196039 L29.3455671,6.32196039 L29.3455671,5.74196039 C29.5809788,5.58312379 29.6848481,5.43148981 29.6848481,5.19835255 L29.6848481,1.57884928 C29.6848481,1.34457477 29.5965213,1.16640484 29.3455671,1.00794732 L29.3455671,0.427947322 L31.205737,0.427947322" id="Shape"></path>
                    <path d="M26.4626259,5.02738523 C26.4626259,5.26128066 26.641554,5.61875778 26.9906912,5.61875778 C27.3800115,5.61875778 27.5267174,5.26128066 27.5267174,5.02738523 L27.5267174,3.33742445 C27.5267174,3.10352902 27.395554,2.69032641 26.9975148,2.69032641 C26.5987174,2.69032641 26.4626259,3.09670549 26.4626259,3.33742445 L26.4626259,5.02738523 Z M29.2030311,4.67028719 C29.2030311,5.15248327 29.1874886,5.69495386 28.738652,6.03233948 C28.2905736,6.36858785 27.6309658,6.41028719 27.0649919,6.41028719 C26.552469,6.41028719 25.829554,6.37503229 25.3973971,6.12104536 C24.7916194,5.77114994 24.7916194,5.24118915 24.7916194,4.67028719 L24.7916194,3.5428885 C24.7916194,3.07433948 24.7999592,2.56636562 25.2643383,2.25020876 C25.7120377,1.94049634 26.3178154,1.89955517 26.8758285,1.89955517 C27.3788743,1.89955517 28.1336324,1.93291464 28.5661684,2.15392118 C29.1636063,2.47007804 29.2030311,2.99283621 29.2030311,3.54326758 L29.2030311,4.67028719 Z" id="Shape"></path>
                    <path d="M97.370469,16.447699 C97.3795671,17.1118558 97.2783514,17.1255029 96.950822,17.1963918 L92.9571618,17.1963918 C92.6637501,17.2130715 92.3930834,17.0341434 92.3764037,16.7081303 L92.3843645,11.4252022 C92.3184037,11.3095813 92.2596455,11.1859996 92.1193841,11.1579473 C91.9950442,11.1492284 91.8676716,11.1772807 91.8020899,11.2629539 L91.7076978,11.473346 L91.7016324,16.6012284 C91.7016324,16.9268624 91.5647828,17.2320258 91.0427828,17.1960127 L87.3546651,17.1960127 C87.1332795,17.2126924 86.5896716,17.2028362 86.573371,16.6918297 L86.6074886,11.4729669 C86.568822,11.2910061 86.6192403,11.111699 86.2647958,11.111699 L85.7784298,11.0878166 C85.5214102,11.111699 85.5005605,10.9486924 85.5005605,10.8088101 L85.5005605,9.71060092 C85.5445344,9.5017251 85.6158024,9.46230026 86.154103,9.46230026 L88.4881292,9.46230026 C88.8611488,9.46230026 88.8122468,9.87474471 88.8122468,9.87474471 L88.8251357,15.1546401 C88.8543252,15.2672284 88.8721422,15.4287186 89.0044429,15.4768624 C89.1496324,15.5621565 89.2789004,15.5390323 89.4411488,15.501882 C89.4411488,15.501882 89.6382729,15.430614 89.6382729,15.1250715 L89.6257631,10.4532284 C89.6333448,10.1128101 89.6454756,9.57375124 90.3759723,9.46874471 C90.9806128,9.46874471 92.9249396,9.46078392 93.6611226,9.46874471 C94.0398285,9.46874471 94.4052664,9.54531987 94.492835,9.93729373 L94.4951096,15.3157512 C94.5254363,15.4101434 94.6001161,15.515529 94.707018,15.5613983 C94.8965605,15.6076467 95.0284821,15.5814898 95.1160507,15.4579081 L95.1831488,15.341529 L95.2293971,13.7243526 L95.2221945,9.86526758 C95.2221945,9.58588196 95.2002076,9.44599961 95.5739854,9.44599961 L97.0436978,9.44599961 C97.2866912,9.46192118 97.370469,9.56351595 97.3818416,9.79589503 L97.370469,16.447699" id="Shape"></path>
                    <path d="M84.8530834,16.8544571 C84.8697631,17.1785748 84.673018,17.1963918 84.5464037,17.1785748 L82.9250573,17.1785748 C82.9250573,17.1785748 82.6191357,17.2130715 82.6191357,16.8169277 L82.6020769,11.4324048 C82.5732664,11.2618166 82.5107174,11.241346 82.3666651,11.1276205 C82.1498285,11.0506663 82.0417893,11.0813722 81.8022076,11.0995682 C81.3939331,11.2314898 81.5755148,11.7459081 81.5277501,12.0988362 L81.5209265,16.4765094 C81.5209265,16.9977512 81.5755148,17.1789539 81.1247828,17.1789539 L76.9108743,17.1789539 C76.5966128,17.183882 76.2596063,17.1611369 76.2618808,16.4397382 L76.2470965,11.4123133 C76.2057762,11.2314898 76.1731749,11.0555944 75.9229788,11.0525617 C75.9229788,11.0525617 75.4862729,11.0707578 75.2883906,11.0533199 C75.0745867,11.0373983 75.0745867,10.7853068 75.0745867,10.7853068 L75.0783775,9.6806532 C75.0783775,9.44675778 75.4297893,9.44675778 75.4297893,9.44675778 L77.9920246,9.45282314 C77.9920246,9.45282314 78.3529135,9.48997347 78.3881684,9.88498 L78.3976455,15.2710192 C78.3881684,15.4044571 78.5094756,15.519699 78.6061422,15.5864179 C78.7774886,15.6618558 79.0352664,15.6421434 79.1971357,15.5678427 C79.3214756,15.4912676 79.3787174,15.4146924 79.3605213,15.2331107 L79.3692403,10.0999212 C79.408286,9.86299307 79.4522599,9.46988196 79.9401422,9.46988196 L83.7927828,9.46988196 C84.6233579,9.44675778 84.8580115,9.61052249 84.8580115,10.2413199 L84.8530834,16.8544571" id="Shape"></path>
                    <path d="M75.219018,17.0515813 C75.219018,17.2130715 75.0946782,17.1963918 74.9642729,17.201699 L72.1950573,17.1960127 C71.9042991,17.2126924 71.8375801,17.1114767 71.7454625,16.9249669 L71.7352272,9.64274471 C71.7352272,9.64274471 71.7158939,9.46192118 71.908469,9.46192118 L73.7747043,9.46192118 L73.9824429,9.60483621 L73.9615932,15.1504702 C73.9813056,15.3676859 73.9615932,15.564431 74.1727435,15.6398689 C74.1727435,15.6398689 74.8804952,15.6459343 75.0575279,15.6459343 C75.2394886,15.6459343 75.2307697,15.8586009 75.2307697,15.8586009 L75.219018,17.0515813" id="Shape"></path>
                    <path d="M70.8098808,16.4734767 C70.74392,16.7877382 70.5839462,17.1122349 70.2613448,17.1963918 C70.2613448,17.1963918 64.8699984,17.1850192 64.8802337,17.1835029 C64.448456,17.1850192 64.4010703,17.0132937 64.2937893,16.737699 C64.2937893,16.737699 64.2990965,14.8919343 64.3108481,13.9995682 C64.3108481,13.8934244 64.4461814,13.7239735 64.5292011,13.704261 C64.7581684,13.6834114 66.1983122,13.6959212 66.1983122,13.6959212 C66.4803514,13.6959212 66.4629135,13.8585486 66.5023383,14.0689408 L66.5023383,15.327882 C66.5667828,15.3775421 66.5959723,15.5856597 66.9223645,15.5856597 L68.2123906,15.5894506 C68.464103,15.6087839 68.5270311,15.4264441 68.5656978,15.2459996 L68.5751749,11.4593199 C68.6032272,11.2390715 68.4663775,11.0195813 68.0903252,11.0351238 L67.1486782,11.049529 C66.9712664,11.0351238 66.7392664,11.1044963 66.7138677,10.7784833 C66.7138677,10.7784833 66.7138677,10.0536728 66.7096978,9.52864013 L66.8226651,9.46116301 L70.2177501,9.44486235 C70.5141945,9.51309765 70.7738677,9.58664013 70.7988873,10.0297905 L70.8098808,16.4734767" id="Shape"></path>
                    <path d="M63.368822,16.6584702 C63.3968743,17.0629539 63.0481161,17.1270192 62.8001945,17.19298 L59.4801684,17.1819865 C59.3262599,17.202078 59.2102599,17.1990454 59.1924429,17.0079865 C59.1818285,16.7888754 59.1924429,16.2839343 59.1924429,15.7952937 C59.1924429,15.7952937 59.1461945,15.5621565 59.4483252,15.5621565 L60.8335017,15.5473722 C61.0905213,15.5473722 61.2087958,15.4074898 61.1845344,15.1508493 C61.1845344,15.1508493 61.1697501,14.1212545 61.1845344,13.7963787 C61.1451096,13.6155552 61.0253187,13.489699 60.8335017,13.4226009 L57.6173448,13.4150192 C57.1829135,13.4150192 56.9960246,13.2273722 56.966835,12.8225094 L56.9774494,10.2629277 C56.93992,9.67345059 57.2382599,9.47064013 57.7511618,9.47064013 L63.0996716,9.47064013 C63.1842076,9.49073164 63.4245475,9.4588885 63.4245475,9.89104536 L63.4245475,10.8232153 C63.4245475,11.174248 63.0996716,11.1192807 62.8953448,11.1333068 L59.402835,11.151882 C59.2303514,11.2095029 59.1651488,11.3410454 59.1458154,11.5116336 C59.1185213,11.6848754 59.2220115,11.7796467 59.3364952,11.8854114 C59.554469,11.9771499 59.8497762,11.9032284 60.0893579,11.950614 L62.9381814,11.9290061 C63.3415279,11.9559212 63.3684429,12.1985356 63.3684429,12.6864179 L63.3684429,16.6584702" id="Shape"></path>
                    <path d="M63.3430442,21.1506271 C63.1792795,21.2946793 62.9552403,21.2378166 62.7626651,21.2764833 L61.4032664,21.2548754 C61.3361684,21.2090061 61.2122076,21.2378166 61.2122076,21.1221957 C61.0696716,20.628248 61.4586128,19.8101826 60.8763383,19.5516467 C60.3732926,19.4390584 59.7830573,19.5516467 59.2906259,19.4481565 C59.2322468,18.9913591 59.2519592,18.4856597 59.2720507,18.0212807 L59.3546912,17.942431 C60.4892926,17.9162741 61.6219984,17.9162741 62.753188,17.942431 C62.9632011,18.0398558 63.1910311,18.1247709 63.2880769,18.3533591 C63.3430442,18.4856597 63.3820899,18.6395682 63.3908089,18.7908231 L63.3430442,21.1506271" id="Shape"></path>
                    <path d="M56.2033579,16.9295159 C56.2033579,16.9295159 56.2158677,17.1963918 55.9853841,17.1963918 L54.2772272,17.1963918 C53.995188,17.1963918 54.0641814,16.9598427 54.0440899,16.84498 L54.0452272,11.7273329 C54.0243775,11.4790323 53.8109527,11.2121565 53.5622729,11.1363395 L52.0698154,11.1363395 C51.7430442,11.1363395 51.7320507,11.3076859 51.7047566,11.4096597 L51.6960377,17.0405878 C51.6960377,17.0405878 51.7544167,17.1963918 51.4530442,17.1963918 C51.4530442,17.1963918 49.7774886,17.2365748 49.6019723,17.2168624 C49.4200115,17.1963918 49.4522337,16.9465748 49.4522337,16.9465748 L49.4522337,9.75760745 C49.4291096,9.54835255 49.5712664,9.46267935 49.850652,9.46267935 L55.1267566,9.46267935 C55.9190442,9.46267935 56.2033579,9.64426105 56.2033579,10.6260911 L56.2033579,16.9295159" id="Shape"></path>
                    <path d="M48.3252141,16.7524833 C48.3252141,17.0565094 48.2550834,17.1963918 47.8816847,17.1963918 C47.8816847,17.1963918 44.4047174,17.1982872 44.3815932,17.1963918 C43.9134233,17.1963918 43.9683906,17.0697774 43.9683906,16.9943395 C43.9683906,16.9943395 43.9464037,16.2232807 43.9464037,15.8961303 C43.9464037,15.5720127 44.1768873,15.5250061 44.1768873,15.5250061 L45.5783645,15.5234898 C45.7254494,15.528797 46.0681422,15.6171238 46.0681422,15.2190846 L46.0681422,14.1220127 C46.0681422,13.6561173 45.9983906,13.6098689 45.6503906,13.5867447 L42.4766912,13.592431 C42.408835,13.5162349 42.2852533,13.5734767 42.2098154,13.525712 C41.9797109,13.4301826 41.8663645,13.2201695 41.819737,12.9934767 L41.819737,10.2799865 C41.7985082,9.89748981 41.9145082,9.46267935 42.9410703,9.46267935 L47.5575671,9.46912379 C48.0829788,9.46912379 48.3108089,9.38458785 48.3108089,9.87512379 L48.3108089,10.9505878 C48.3108089,11.2758427 48.0769135,11.2527186 47.7273971,11.2292153 L44.5021422,11.2326271 C44.3709788,11.2709146 44.2273056,11.308065 44.1511096,11.4320258 C44.1044821,11.5745617 44.0832533,11.7853329 44.1605867,11.9267316 L44.3398939,12.0415944 L47.7509004,12.022261 C48.1694102,12.0681303 48.3369658,12.6500258 48.3282468,12.9263787 L48.3252141,16.7524833" id="Shape"></path>
                    <path d="M41.0414756,16.8309539 C41.0414756,16.8309539 41.101371,17.1963918 40.7283514,17.1963918 L39.1407435,17.1963918 C38.8833448,17.1963918 38.8147305,16.9389931 38.8147305,16.9389931 L38.8200377,11.6799473 C38.8113187,11.5192153 38.8344429,11.2341434 38.5103252,11.1947186 L37.0497109,11.1825878 C36.559554,11.2060911 36.7456847,11.4615944 36.6990573,11.6253591 C36.6990573,11.6253591 36.8165736,12.022261 36.3954102,11.9525094 L34.7153056,11.9525094 C34.7153056,11.9525094 34.4605605,11.9756336 34.4605605,11.7193722 L34.4605605,9.89748981 C34.4825475,9.33758131 34.855188,9.46267935 35.1353318,9.46267935 L40.4175017,9.47026105 C40.6923383,9.51916301 40.9793056,9.74850941 41.04792,10.0271369 L41.0414756,16.8309539" id="Shape"></path>
                    <path d="M24.5069265,16.8309539 C24.5069265,16.8309539 24.566822,17.1963918 24.1941814,17.1963918 L22.6073318,17.1963918 C22.3499331,17.1963918 22.2798024,16.9389931 22.2798024,16.9389931 L22.2854886,11.6799473 C22.2756324,11.5192153 22.300652,11.2341434 21.9753971,11.1947186 L20.5155409,11.1825878 C20.0253841,11.2060911 20.2118939,11.4615944 20.1652664,11.6253591 C20.1652664,11.6253591 20.2820246,12.022261 19.8608612,11.9525094 L18.1811357,11.9525094 C18.1811357,11.9525094 17.9241161,11.9756336 17.9241161,11.7193722 L17.9241161,9.89748981 C17.9483775,9.33758131 18.3217762,9.46267935 18.6004037,9.46267935 L23.8825736,9.47026105 C24.1577893,9.51916301 24.4462729,9.74850941 24.513371,10.0271369 L24.5069265,16.8309539" id="Shape"></path>
                    <path d="M33.6902599,16.8544571 C33.6902599,16.8544571 33.7035279,17.1963918 33.4468873,17.1963918 C33.0025997,17.1963918 31.8592795,17.2032153 31.7209135,17.1963918 C31.4953579,17.1835029 31.4722337,16.8783395 31.4722337,16.8783395 L31.4953579,11.6898035 C31.4726128,11.5377905 31.4074102,11.3679604 31.2660115,11.2910061 L31.0571357,11.2242872 L27.7465867,11.2242872 C27.5729658,11.272431 27.4588612,11.3865356 27.4016194,11.5374114 L27.4110965,15.1155944 C27.4289135,15.2793591 27.5631096,15.4029408 27.70792,15.4761042 C27.9164167,15.4503264 28.1067174,15.5250061 28.2674494,15.4120388 L28.381554,15.2304571 L28.4008873,12.6977905 C28.4111226,12.5287186 28.3220377,12.1621434 28.8356978,12.0908754 L30.5628089,12.0908754 C30.9585736,12.0908754 30.9585736,12.3024048 30.9585736,12.3024048 C30.9779069,12.7379735 30.9585736,13.4696075 30.9585736,13.4696075 C30.982456,13.6553591 30.6325605,13.6553591 30.4665213,13.650431 C30.3440769,13.6697643 30.2125344,13.7747709 30.2356586,14.0761434 L30.2356586,16.7831892 C30.1890311,17.1831238 29.6757501,17.1853983 29.4084952,17.1960127 L26.1426782,17.1960127 C25.8754233,17.1372545 25.5205997,17.1831238 25.450469,16.7130584 L25.4607043,9.90203883 C25.4970965,9.56958131 25.7829265,9.46874471 26.0509396,9.46874471 L33.1087435,9.46874471 C33.3445344,9.54494079 33.454469,9.69278392 33.5776716,9.92857477 C33.6368089,10.0737643 33.6553841,10.2424571 33.6932926,10.3948493 L33.6902599,16.8544571" id="Shape"></path>
                    <path d="M19.5769265,17.1835029 L15.8721292,17.1963918 C15.4513448,17.1963918 15.3724952,16.8703787 15.2872011,16.6607447 C15.2576324,15.9655029 15.2872011,15.2422088 15.2003906,14.5666793 C15.1727174,14.4434767 15.0783252,14.3759996 14.9627043,14.3471892 C14.8387435,14.3384702 14.7538285,14.404431 14.6673971,14.4521957 L14.5627697,14.6641042 L14.5521553,16.5959212 C14.5756586,17.183882 14.2382729,17.183882 13.9687435,17.183882 L10.3382468,17.1853983 C10.138469,17.1364963 9.96598537,17.0326271 9.86287426,16.8593852 C9.67219452,16.2990976 9.75710955,15.6156075 9.72943635,15.0249931 C9.73891347,13.8232937 9.71958014,12.6341042 9.66385465,11.4650061 C9.54027295,11.1223133 8.82873047,11.1886532 8.82873047,11.1886532 C8.69225988,11.2284571 8.55237752,11.1583264 8.55237752,10.9729539 L8.56867818,9.85124144 C8.57739713,9.64956824 8.60810301,9.49490157 8.66989386,9.44675778 L11.2370573,9.44675778 C11.5683775,9.49490157 11.784835,9.76026105 11.8803645,10.0847578 C11.8970442,10.3429146 11.9266128,10.9706793 11.9266128,10.9706793 C11.9455671,11.825895 12.0225213,15.1868624 12.0225213,15.1868624 C12.0592926,15.2907316 12.1453448,15.3870192 12.2412533,15.45298 C12.382652,15.4810323 12.5539984,15.4810323 12.6597631,15.3870192 L12.7643906,15.1576728 C12.7924429,14.4339996 12.6214756,13.6155552 12.8398285,12.9400258 C13.1067043,12.5685225 13.6480377,12.6341042 14.060103,12.6261434 C14.3626128,12.6261434 14.809554,12.6632937 15.1241945,12.530614 L15.1905344,12.3486532 C15.1905344,12.3486532 15.1924298,9.93843098 15.1806782,9.75798654 C15.1583122,9.38420876 15.344822,9.46343752 15.344822,9.46343752 L17.1420638,9.46343752 C17.3759592,9.46343752 17.4453318,9.52522837 17.4229658,9.75798654 L17.4388873,12.4566924 C17.4756586,12.5116597 17.5143252,12.5590454 17.5810442,12.5950584 L19.3942076,12.6632937 C19.6955801,12.6993068 19.904456,12.7925617 19.9749658,13.0965878 L19.9768612,16.653163 C19.9738285,17.0159473 19.8559331,17.1835029 19.5769265,17.1835029 M18.2163906,15.2240127 C18.2364821,14.9575159 18.3032011,14.6133068 18.0738546,14.4332414 C17.9881814,14.3676597 17.8448873,14.3676597 17.7122076,14.3676597 C17.5503383,14.3756205 17.4836194,14.5291499 17.4567043,14.6637251 C17.4567043,14.9571369 17.4078024,15.327882 17.6822599,15.4522218 C17.7978808,15.5181826 17.950652,15.4594244 18.0738546,15.4325094 C18.1599069,15.3927055 18.1887174,15.3184048 18.2163906,15.2240127" id="Shape"></path>
                    <path d="M7.81126641,16.3514114 C7.78283504,16.6099473 7.64863896,16.8749277 7.42156707,17.0087447 C7.2316455,17.1236075 7.08569779,17.1857774 6.84725334,17.1963918 L1.49419452,17.1963918 C1.02867818,17.1368754 0.547619354,17.0796336 0.327750073,16.6126009 C0.262547459,15.8877905 0.204547459,15.114078 0.262547459,14.3706924 L0.468769681,14.2687186 C1.11624681,14.2486271 1.94795922,14.2402872 2.46768471,14.2687186 C2.69551478,14.6284702 2.33386772,15.3055159 2.87595922,15.4469146 C3.60910955,15.5056728 4.43665203,15.4874767 5.19709648,15.4677643 C5.31347556,15.4582872 5.40976315,15.4196205 5.51211609,15.3813329 C5.75965857,15.0568362 5.5974102,14.5443133 5.64517491,14.1549931 C5.67398537,13.9631761 5.55002458,13.7914506 5.41658667,13.7160127 C4.86577622,13.6204833 4.23801151,13.6686271 3.6659723,13.6777251 L0.926325237,13.7160127 C0.582874256,13.6204833 0.345187982,13.3733199 0.288704322,13.0203918 C0.259135694,12.0806401 0.259135694,11.2117774 0.288704322,10.2708885 C0.335331773,9.81409111 0.449436348,9.56844405 0.850508243,9.46230026 L7.47805073,9.46230026 C7.58229909,9.49035255 7.78245596,9.56958131 7.7585736,9.82735909 L7.7585736,11.0423264 C7.7585736,11.0423264 7.7585736,11.2523395 7.38517491,11.2523395 C7.08228602,11.2523395 2.85738406,11.2712937 2.85738406,11.2712937 C2.73418145,11.2792545 2.60112262,11.3941173 2.56283504,11.5169408 C2.56283504,11.660614 2.53402458,11.812248 2.65684811,11.9077774 L2.82933177,12.0025486 C4.39040367,12.0677512 5.66033831,11.955163 7.26879582,12.0412153 C7.57433831,12.1166532 7.77335792,12.374431 7.80065203,12.6803526 L7.81126641,16.3514114" id="Shape"></path>
                </g>
                <g id="Group-28">
                    <path d="M17.1228889,12.3312549 C16.9113595,11.5313856 16.6054379,10.9392549 16.1118693,10.0347582 C15.9507582,9.77811765 15.7426405,9.49152941 15.5568889,9.18750327 C13.4108889,6.00546405 9.17688889,0.452248366 8.78946405,0.0955294118 C8.78946405,0.0955294118 8.7629281,0.0750588235 8.74132026,0.0750588235 C8.71705882,0.0750588235 8.69014379,0.0955294118 8.69014379,0.0955294118 C8.30499346,0.451869281 4.06985621,6.00546405 1.92309804,9.18750327 C1.73772549,9.4919085 1.52960784,9.77849673 1.36698039,10.0347582 C0.874169935,10.9392549 0.569385621,11.5313856 0.356718954,12.3312549 C0.0936339869,13.4863268 0.0803660131,14.9226797 0.319568627,16.1035294 C0.535647059,17.1399477 1.5205098,18.198732 2.51105882,18.9895033 L4.02701961,20.1934771 C4.02701961,20.1934771 8.26405229,23.2485229 8.65754248,23.4414771 C8.65754248,23.4414771 8.69658824,23.4672549 8.74094118,23.4672549 C8.78415686,23.4672549 8.82168627,23.4414771 8.82168627,23.4414771 C9.21669281,23.2481438 13.4510719,20.1934771 13.4510719,20.1934771 L14.9670327,18.9895033 C15.958719,18.198732 16.9424444,17.1399477 17.1581438,16.1035294 C17.3977255,14.9226797 17.386732,13.4863268 17.1228889,12.3312549 M7.41300654,20.2996209 C7.38305882,20.3451111 7.31444444,20.3307059 7.2651634,20.3261569 C7.01762092,20.1521569 6.40388235,19.7078693 6.40388235,19.7078693 C5.34888889,18.925817 4.28479739,18.2040392 3.27339869,17.4 C1.72142484,15.6918431 1.8787451,13.9874771 2.35449673,12.2747712 C2.37155556,12.1644575 2.42273203,11.997281 2.56867974,11.9673333 C3.00614379,12.612915 3.93414379,13.9427451 3.93414379,13.9427451 C4.83712418,15.240732 5.93381699,16.4105882 6.97061438,17.6293464 C7.68253595,18.283268 7.39481046,19.3814771 7.41300654,20.2996209 M8.74245752,16.9128758 C8.72122876,16.9121176 8.68711111,16.8977124 8.65488889,16.8643529 C7.31179085,15.2737124 5.78824837,13.4753333 4.45159477,11.8782484 C4.20973856,11.4733856 3.96333333,11.0844444 3.93566013,10.5628235 C3.91973856,10.1556863 3.89433987,9.78077124 4.23134641,9.27052288 C4.23134641,9.27052288 4.45386928,8.9471634 4.51755556,8.85201307 C4.51755556,8.85201307 7.25606536,5.00088889 8.69810458,3.17597386 C8.69810458,3.17597386 8.71705882,3.15095425 8.74132026,3.15095425 C8.76179085,3.15095425 8.77998693,3.17597386 8.77998693,3.17597386 C10.2220261,5.0005098 12.9597778,8.85201307 12.9597778,8.85201307 C13.0246013,8.9471634 13.2475033,9.27052288 13.2475033,9.27052288 C13.5833725,9.78115033 13.5579739,10.1556863 13.5401569,10.5628235 C13.5136209,11.0844444 13.2660784,11.4730065 13.0257386,11.8782484 C11.6883268,13.4753333 10.1655425,15.2737124 8.8235817,16.8643529 C8.79135948,16.8977124 8.75913725,16.9121176 8.74245752,16.9128758 M14.1978693,17.4 C13.1864706,18.2040392 12.1208627,18.9254379 11.0654902,19.7078693 C11.0654902,19.7078693 10.4528889,20.1521569 10.2045882,20.3261569 C10.1553072,20.3307059 10.0866928,20.3451111 10.0578824,20.2996209 C10.0764575,19.3814771 9.78797386,18.2836471 10.5006536,17.6297255 C11.537451,16.4109673 12.6333856,15.2411111 13.5359869,13.9431242 C13.5359869,13.9431242 14.4639869,12.6132941 14.9018301,11.9677124 C15.0455033,11.997281 15.097817,12.1648366 15.1152549,12.2751503 C15.593281,13.9874771 15.749085,15.6922222 14.1978693,17.4" id="Shape"></path>
                </g>
            </g>
        </g>
    </g>
</svg>