<?xml version="1.0" encoding="UTF-8"?>
<svg width="97px" height="22px" viewBox="0 0 97 22" version="1.1" xmlns="http://www.w3.org/2000/svg" xmlns:xlink="http://www.w3.org/1999/xlink">
    <!-- Generator: Sketch 51.3 (57544) - http://www.bohemiancoding.com/sketch -->
    <title>BANK_ISLAM_LOGO</title>
    <desc>Created with Sketch.</desc>
    <defs></defs>
    <g id="Page-1" stroke="none" stroke-width="1" fill="none" fill-rule="evenodd">
        <g id="m7-withdraw-balance-0-1366-copy" transform="translate(-759.000000, -843.000000)" fill-rule="nonzero">
            <g id="BANK_ISLAM_LOGO" transform="translate(759.000000, 843.000000)">
                <g id="#ffffffff" transform="translate(11.846018, 7.809160)" fill="#FFFFFF">
                    <path d="M0.00515044248,3.8978626 C0.496159292,2.61396947 0.980300885,1.32755725 1.48504425,0.0487022901 C1.97004425,1.33091603 2.45161062,2.61564885 2.93060177,3.90122137 C1.95545133,3.90458015 0.980300885,3.90961832 0.00515044248,3.8978626 Z" id="Shape"></path>
                    <path d="M64.2491947,0.0596183206 C64.7444956,1.33343511 65.2131858,2.61732824 65.687885,3.89954198 C64.7153097,3.90625954 63.7435929,3.90961832 62.7718761,3.8978626 C63.2603097,2.61732824 63.7418761,1.33343511 64.2491947,0.0596183206 Z" id="Shape"></path>
                </g>
                <g id="#c70b46ff" transform="translate(43.607080, 0.000000)" fill="#C70B46">
                    <path d="M10.4390885,0.794351145 C14.0169292,-0.0797709924 17.7819027,-0.129312977 21.4060973,0.497099237 C20.9914867,0.476946565 20.5811681,0.419007634 20.1682743,0.382900763 C17.7080796,0.154503817 15.2092566,0.273740458 12.7919823,0.785954198 C10.1721239,1.34687023 7.6029115,2.36793893 5.529,4.06160305 C4.26113274,5.10282443 3.19327434,6.4278626 2.66449558,7.97709924 C2.28507965,9.08129771 2.1940885,10.2787023 2.41984956,11.4232061 C2.72887611,13.0538931 3.62161947,14.5342748 4.77016814,15.7350382 C6.83463717,17.8930534 9.60815044,19.2827481 12.4735133,20.1291603 C16.1560796,21.1922137 20.0953097,21.400458 23.8740177,20.7337405 C26.5325044,20.2483969 29.1523628,19.3079389 31.3224159,17.699084 C32.5928584,16.7636641 33.6650088,15.5629008 34.3646106,14.1606107 C33.9319735,15.3269466 33.1748584,16.3547328 32.2975664,17.239771 C31.252885,18.2675573 30.0210708,19.1047328 28.7025575,19.7605344 C25.8140177,21.2081679 22.5683805,21.8622901 19.3424867,22 L17.2608496,22 C15.1998142,21.9034351 13.1430708,21.620458 11.155,21.0712977 C8.55831858,20.3541985 6.04404425,19.2298473 3.94438053,17.5529771 C2.68166372,16.5361069 1.56659292,15.309313 0.848964602,13.8625191 C0.0626637168,12.3191603 -0.191424779,10.5070992 0.231769912,8.82519084 C0.672132743,7.00221374 1.85330088,5.43114504 3.28340708,4.22114504 C5.32899115,2.51572519 7.84927434,1.43251908 10.4390885,0.794351145 Z" id="Shape"></path>
                    <path d="M10.4390885,0.794351145 C14.0169292,-0.0797709924 17.7819027,-0.129312977 21.4060973,0.497099237 C20.9914867,0.476946565 20.5811681,0.419007634 20.1682743,0.382900763 C17.7080796,0.154503817 15.2092566,0.273740458 12.7919823,0.785954198 C10.1721239,1.34687023 7.6029115,2.36793893 5.529,4.06160305 C4.26113274,5.10282443 3.19327434,6.4278626 2.66449558,7.97709924 C2.28507965,9.08129771 2.1940885,10.2787023 2.41984956,11.4232061 C2.72887611,13.0538931 3.62161947,14.5342748 4.77016814,15.7350382 C6.83463717,17.8930534 9.60815044,19.2827481 12.4735133,20.1291603 C16.1560796,21.1922137 20.0953097,21.400458 23.8740177,20.7337405 C26.5325044,20.2483969 29.1523628,19.3079389 31.3224159,17.699084 C32.5928584,16.7636641 33.6650088,15.5629008 34.3646106,14.1606107 C33.9319735,15.3269466 33.1748584,16.3547328 32.2975664,17.239771 C31.252885,18.2675573 30.0210708,19.1047328 28.7025575,19.7605344 C25.8140177,21.2081679 22.5683805,21.8622901 19.3424867,22 L17.2608496,22 C15.1998142,21.9034351 13.1430708,21.620458 11.155,21.0712977 C8.55831858,20.3541985 6.04404425,19.2298473 3.94438053,17.5529771 C2.68166372,16.5361069 1.56659292,15.309313 0.848964602,13.8625191 C0.0626637168,12.3191603 -0.191424779,10.5070992 0.231769912,8.82519084 C0.672132743,7.00221374 1.85330088,5.43114504 3.28340708,4.22114504 C5.32899115,2.51572519 7.84927434,1.43251908 10.4390885,0.794351145 Z" id="Shape-Copy"></path>
                </g>
                <g id="#5f6062ff" transform="translate(0.000000, 4.786260)" fill="#5F6062">
                    <path d="M13.3138938,0.59870229 C13.3980177,0.415648855 13.4701239,0.204885496 13.6486726,0.0881679389 C13.9182124,0.0604580153 14.0014779,0.375343511 14.1010531,0.560916031 C15.3483186,3.52671756 16.5277699,6.52022901 17.7887699,9.48015267 C18.0025133,9.96717557 18.2282743,10.4651145 18.6059735,10.8538931 C18.919292,11.1796947 19.4480708,11.3039695 19.8695487,11.1192366 C20.0755664,11.030229 20.1416637,10.7934351 20.1837257,10.5969466 C20.249823,10.2031298 20.2549735,9.80259542 20.2584071,9.40541985 C20.3030442,6.46396947 20.3536903,3.52251908 20.3940354,0.581068702 C20.4060531,0.438320611 20.4094867,0.274580153 20.5262301,0.170458015 C20.7382566,0.123435115 20.8687345,0.325801527 21.0060796,0.445877863 C22.4799646,1.99763359 23.986469,3.51916031 25.5170088,5.01717557 C26.7685664,6.21625954 27.9368584,7.4959542 29.1875575,8.69587786 C29.1351947,6.40267176 29.0888407,4.10946565 29.0296106,1.81709924 C29.0064336,1.45938931 28.9669469,1.01099237 28.6055575,0.81870229 C28.245885,0.655801527 27.8355664,0.718778626 27.455292,0.649083969 C27.5025044,0.570992366 27.5119469,0.429923664 27.6364159,0.432442748 C28.5523363,0.371145038 29.4708319,0.505496183 30.3867522,0.42740458 C30.7773274,0.436641221 31.1885044,0.354351145 31.5636283,0.487862595 C31.5490354,0.530687023 31.5189912,0.615496183 31.5043982,0.658320611 C31.1481593,0.726335878 30.6854779,0.649083969 30.4502743,0.987480916 C30.2296637,1.37374046 30.2751593,1.8389313 30.2588496,2.26633588 C30.2056283,5.26068702 30.1498319,8.25503817 30.0966106,11.2493893 C30.0708584,11.409771 30.1103451,11.690229 29.8734248,11.6969466 C29.5601062,11.6138168 29.3661062,11.3375573 29.1317611,11.1393893 C28.0072478,10.0570229 26.8999027,8.9570229 25.7805398,7.86877863 C24.226823,6.42366412 22.7778319,4.87778626 21.3271239,3.33526718 C21.4009469,5.50083969 21.4387168,7.66725191 21.5133982,9.83198473 C21.5520265,10.2417557 21.5631858,10.7119847 21.8636283,11.0310687 C22.2112832,11.2670229 22.6670973,11.1973282 23.0653982,11.2636641 C23.0636814,11.3148855 23.058531,11.4173282 23.0559558,11.4685496 C22.2962655,11.5592366 21.5314248,11.4651908 20.7700177,11.4677099 C19.6266195,11.5273282 18.4815044,11.4987786 17.3372478,11.5021374 C16.8634071,11.4761069 16.3835575,11.5096947 15.9148673,11.420687 C16.0213097,11.2703817 16.1912743,11.1914504 16.3372035,11.0864885 C16.3560885,10.9630534 16.2977168,10.8471756 16.2608053,10.7329771 C15.8650796,9.72366412 15.4710708,8.71267176 15.0839292,7.7 C13.9482566,7.66557252 12.8108673,7.68740458 11.6751947,7.68656489 C11.519823,7.65801527 11.4940708,7.84358779 11.441708,7.94099237 C11.159292,8.69167939 10.8502655,9.43229008 10.5798673,10.1871756 C10.5103363,10.4575573 10.3824336,10.7699237 10.5283628,11.0344275 C10.762708,11.3148855 11.178177,11.189771 11.4975044,11.2552672 C11.5567345,11.3870992 11.4949292,11.5054962 11.3429912,11.4987786 C10.7661416,11.5315267 10.189292,11.4559542 9.61244248,11.4643511 C8.98323009,11.481145 8.35315929,11.530687 7.7239469,11.4945802 C7.60720354,11.5038168 7.5299469,11.368626 7.58917699,11.2729008 C7.95571681,11.1763359 8.37032743,11.2460305 8.70424779,11.0361069 C9.12915929,10.7850382 9.32230088,10.3131298 9.50428319,9.8848855 C10.7764425,6.79061069 12.0408761,3.6929771 13.3138938,0.59870229 Z M11.8511681,6.92076336 C12.8263186,6.93251908 13.801469,6.92748092 14.7766195,6.92412214 C14.2976283,5.63854962 13.8160619,4.35381679 13.3310619,3.07160305 C12.8263186,4.35045802 12.342177,5.63687023 11.8511681,6.92076336 Z" id="Shape"></path>
                    <path d="M76.2849204,0.210763359 C76.3372832,0.116717557 76.4437257,0.0730534351 76.551885,0.0881679389 C76.7278584,0.237633588 76.8171327,0.455954198 76.9098407,0.66 C78.066115,3.4259542 79.175177,6.21122137 80.339177,8.97381679 C80.5657965,9.49862595 80.7700973,10.0385496 81.0945752,10.5154962 C81.262823,10.7590076 81.4654071,11.0033588 81.752115,11.1175573 C81.9340973,11.1880916 82.1667257,11.2384733 82.3332566,11.1024427 C82.620823,10.8748855 82.6817699,10.4919847 82.7470088,10.1569466 C83.2423097,6.96610687 83.7444779,3.77610687 84.2354867,0.584427481 C84.2672478,0.40221374 84.2998673,0.195648855 84.4655398,0.0797709924 C84.7007434,0.0722137405 84.8046106,0.316564885 84.9084779,0.483664122 C86.2845044,3.25129771 87.6553805,6.02061069 89.0322655,8.78740458 C90.3954159,5.99541985 91.7594248,3.20343511 93.1251504,0.413129771 C93.2024071,0.246870229 93.3861062,-0.0352671756 93.5946991,0.142748092 C93.6951327,0.293053435 93.7191681,0.476946565 93.7535044,0.650763359 C94.210177,3.71061069 94.6754336,6.77045802 95.1372566,9.83030534 C95.2145133,10.2207634 95.2668761,10.6708397 95.5904956,10.950458 C96.0059646,11.2124427 96.5235841,11.2082443 97,11.250229 L97,11.4559542 C96.3149912,11.5625954 95.6196814,11.4744275 94.9312389,11.4761069 C94.3183363,11.4391603 93.6916991,11.4920611 93.0933894,11.3358779 C93.235885,11.0999237 93.4504867,10.8690076 93.3620708,10.5700763 C93.0556195,8.3751145 92.7603274,6.17847328 92.4358496,3.98519084 C91.3525398,6.16 90.288115,8.34236641 89.2099558,10.518855 C89.022823,10.8849618 88.879469,11.2964122 88.537823,11.5567176 C88.1111947,11.0184733 87.8433717,10.3845038 87.5137434,9.78916031 C86.5042566,7.94099237 85.6441327,6.02145038 84.7110442,4.13633588 C84.4303451,6.11045802 84.1753982,8.08877863 83.909292,10.0654198 C83.9015664,10.3618321 83.7813894,10.7136641 83.9753894,10.9739695 C84.3239027,11.2687023 84.8337965,11.1578626 85.2415398,11.3165649 C85.1608496,11.4265649 85.0475398,11.5122137 84.9033274,11.4996183 C84.2432124,11.5374046 83.5839558,11.4408397 82.9238407,11.4735878 C82.0087788,11.5256489 81.0911416,11.4979389 80.1752212,11.5021374 C79.6842124,11.4761069 79.1846195,11.5231298 78.7039115,11.4139695 C78.8034867,11.2687023 78.9631504,11.1822137 79.0944867,11.0671756 C79.1030708,10.9193893 79.036115,10.7816794 78.9906195,10.6448092 C78.5983274,9.66320611 78.2292124,8.67320611 77.8394956,7.69076336 C76.6660531,7.67396947 75.4926106,7.68908397 74.3191681,7.68236641 C73.9843894,8.50778626 73.6564779,9.33740458 73.3474513,10.1729008 C73.2736283,10.4676336 73.1002301,10.8622901 73.3637611,11.11 C73.6470354,11.2838168 74.0058496,11.2132824 74.3234602,11.2519084 C74.2934159,11.3090076 74.2333274,11.4223664 74.2041416,11.4794656 C73.5371593,11.5592366 72.8650265,11.4316031 72.195469,11.4710687 C71.4520885,11.5164122 70.7061327,11.4828244 69.9636106,11.5382443 C68.4725575,11.5777099 66.9823628,11.489542 65.4921681,11.4609924 C64.7745398,11.4458779 64.0586283,11.5155725 63.3418584,11.500458 C63.1821947,11.5239695 63.1015044,11.3870992 63.031115,11.2754198 C63.3633186,11.2074046 63.7341504,11.2519084 64.0371681,11.0822901 C64.2655044,10.8614504 64.2723717,10.518855 64.3170088,10.2266412 C64.3839646,9.19717557 64.380531,8.16435115 64.380531,7.13236641 C64.3702301,5.34045802 64.4054248,3.54770992 64.3564956,1.75664122 C64.338469,1.45687023 64.3410442,1.09244275 64.0740796,0.888396947 C63.7547522,0.682671756 63.3504425,0.707862595 62.9856195,0.674274809 C62.9684513,0.621374046 62.9349735,0.515572519 62.9178053,0.462671756 C63.8586195,0.345954198 64.8063009,0.492900763 65.7496903,0.449236641 C66.324823,0.441679389 66.9008142,0.396335878 67.4759469,0.424885496 C67.6158673,0.419007634 67.7111504,0.536564885 67.8236018,0.597862595 C67.4459027,0.715419847 67.0373009,0.679312977 66.6638938,0.804427481 C66.3600177,0.936259542 66.3299735,1.3040458 66.3059381,1.58618321 C66.2716018,2.42923664 66.2638761,3.27312977 66.2690265,4.11618321 C66.2827611,5.88206107 66.232115,7.64877863 66.3145221,9.41381679 C66.3540088,9.81854962 66.366885,10.3668702 66.8295664,10.5356489 C67.4707965,10.769084 68.1729735,10.6935115 68.8433894,10.7069466 C69.4047876,10.7136641 70.0872212,10.5835115 70.3421681,10.0259542 C70.5344513,9.74633588 70.4348761,9.25931298 70.833177,9.15603053 C70.8623628,9.85717557 70.7516283,10.5558015 70.611708,11.2409924 C70.9336106,11.1906107 71.290708,11.1822137 71.5611062,10.9781679 C71.900177,10.7254198 72.0727168,10.3274046 72.237531,9.95541985 C73.4341504,7.04503817 74.6247611,4.1321374 75.8213805,1.22091603 C75.9673097,0.881679389 76.0746106,0.520610687 76.2849204,0.210763359 Z M76.0952124,3.08251908 C75.5878938,4.35633588 75.1063274,5.64022901 74.6178938,6.92076336 C75.5896106,6.93251908 76.5613274,6.92916031 77.5339027,6.92244275 C77.0592035,5.64022901 76.5905133,4.35633588 76.0952124,3.08251908 Z" id="Shape"></path>
                    <path d="M59.3605664,0.313206107 C60.2490177,0.132671756 61.1726637,0.19648855 62.0576814,0.36610687 C62.2491062,0.42740458 62.5066283,0.41648855 62.6328142,0.58778626 C62.6276637,1.20328244 62.5632832,1.81877863 62.5778761,2.4359542 C62.5787345,2.61396947 62.5761593,2.92129771 62.3066195,2.85748092 C62.2182035,2.59381679 62.2250708,2.30664122 62.1091858,2.04969466 C61.8808496,1.5248855 61.4018584,1.09664122 60.8267257,0.968167939 C60.2078142,0.828778626 59.5004867,0.885877863 58.9837257,1.2729771 C58.4249027,1.69366412 58.2866991,2.51908397 58.6197611,3.11526718 C58.9270708,3.66022901 59.4464071,4.04564885 59.9356991,4.42603053 C60.8310177,5.07679389 61.7649646,5.7359542 62.3804425,6.66549618 C62.8989204,7.43885496 63.0422743,8.4229771 62.8362566,9.3189313 C62.6405398,10.1451908 62.0448053,10.8547328 61.280823,11.2451908 C60.477354,11.670916 59.5356814,11.7523664 58.6377876,11.7036641 C58.0077168,11.6667176 57.3639115,11.5651145 56.7990796,11.2770992 C56.5930619,11.1847328 56.6179558,10.9345038 56.6093717,10.749771 C56.6239646,10.1292366 56.6471416,9.50870229 56.6909204,8.88900763 C56.7046549,8.71603053 56.7475752,8.4221374 56.9982301,8.5329771 C57.086646,9.11320611 57.1467345,9.73625954 57.5355929,10.2140458 C58.0188761,10.8471756 58.8910177,11.0579389 59.6610088,10.9638931 C60.2713363,10.9017557 60.8627788,10.5608397 61.1486283,10.0192366 C61.4387699,9.47763359 61.3537876,8.80839695 61.0713717,8.2819084 C60.6953894,7.60679389 60.047292,7.14328244 59.4386814,6.68312977 C58.6334956,6.0819084 57.8291681,5.42610687 57.3304336,4.54862595 C56.842,3.66778626 56.7578761,2.51992366 57.3012478,1.64496183 C57.738177,0.923664122 58.5399292,0.484503817 59.3605664,0.313206107 Z" id="Shape"></path>
                    <path d="M0,0.42740458 C0.659256637,0.413129771 1.31851327,0.420687023 1.9769115,0.448396947 C3.04906195,0.500458015 4.12807965,0.325801527 5.19593805,0.483664122 C5.90755752,0.596183206 6.64750442,0.887557252 7.06984071,1.48877863 C7.47243363,2.04801527 7.50247788,2.79114504 7.30246903,3.42931298 C7.07928319,4.15816794 6.50844248,4.7140458 5.917,5.17587786 C7.02520354,5.57473282 8.10164602,6.32961832 8.48535398,7.46740458 C8.81755752,8.46916031 8.54715929,9.63801527 7.79948673,10.3962595 C7.24323894,10.9823664 6.4629469,11.3241221 5.66806195,11.4626718 C4.69977876,11.6364885 3.71518584,11.4954198 2.74089381,11.470229 C1.96661062,11.4316031 1.19146903,11.5239695 0.417185841,11.4979389 C0.27640708,11.5122137 0.238637168,11.3526718 0.166530973,11.2712214 C0.451522124,11.2275573 0.743380531,11.2258779 1.02322124,11.1545038 C1.26615044,11.099084 1.34083186,10.8329008 1.38890265,10.6263359 C1.49276991,10.0570229 1.49276991,9.4759542 1.5030708,8.89908397 C1.49877876,6.57816794 1.50736283,4.25641221 1.49877876,1.93549618 C1.47045133,1.59961832 1.51251327,1.20664122 1.26872566,0.936259542 C0.916778761,0.648244275 0.421477876,0.73221374 0,0.655801527 L0,0.42740458 Z M3.35637168,1.08572519 C3.29456637,1.72977099 3.33920354,2.37801527 3.32632743,3.02374046 C3.34435398,3.69381679 3.28855752,4.36725191 3.35379646,5.03396947 C3.78214159,5.16328244 4.24825664,5.13137405 4.68690265,5.07259542 C5.25173451,4.98358779 5.63029204,4.46465649 5.74789381,3.94656489 C5.95476991,3.05816794 5.72214159,2.02030534 5.00279646,1.40480916 C4.55642478,1.0219084 3.91776991,0.968167939 3.35637168,1.08572519 Z M3.34092035,5.73175573 C3.3100177,6.98290076 3.33061947,8.2348855 3.32890265,9.48603053 C3.3589469,9.8370229 3.30572566,10.249313 3.56753982,10.5314504 C3.86540708,10.7699237 4.26628319,10.8278626 4.63797345,10.8664885 C5.26375221,10.9244275 5.95992035,10.7514504 6.36423009,10.2518321 C6.78141593,9.73458015 6.80630973,9.02671756 6.70415929,8.40198473 C6.57024779,7.46824427 6.04833628,6.5680916 5.22512389,6.05839695 C4.66715929,5.70908397 3.97528319,5.74435115 3.34092035,5.73175573 Z" id="Shape"></path>
                    <path d="M31.8297345,0.487022901 C32.0494867,0.390458015 32.296708,0.423206107 32.5310531,0.417328244 C33.3027611,0.412290076 34.0753274,0.485343511 34.8470354,0.443358779 C35.3577876,0.44 35.8736903,0.37870229 36.3818673,0.445038168 C36.3998938,0.50129771 36.4359469,0.613816794 36.453115,0.669236641 C36.0788496,0.725496183 35.5320442,0.656641221 35.3526372,1.07396947 C35.2101416,1.48541985 35.2453363,1.93045802 35.2367522,2.3578626 C35.2547788,3.35541985 35.1912566,4.3521374 35.2221593,5.34969466 C35.8934336,4.68045802 36.5544071,4.00198473 37.224823,3.3310687 C37.8119735,2.72732824 38.4205841,2.13870229 38.9364867,1.47366412 C39.072115,1.29312977 39.2120354,1.07900763 39.1579558,0.84389313 C39.0043009,0.718778626 38.7699558,0.662519084 38.7459204,0.434961832 C39.2523805,0.398015267 39.7596991,0.436641221 40.2670177,0.45259542 C41.007823,0.486183206 41.7494867,0.379541985 42.4894336,0.432442748 C42.6259204,0.410610687 42.6559646,0.712061069 42.486,0.67259542 C42.1246106,0.717938931 41.7546372,0.748167939 41.4164248,0.890916031 C40.6120973,1.21335878 39.9983363,1.83557252 39.386292,2.41748092 C38.4712301,3.31931298 37.5398584,4.20519084 36.6299469,5.11290076 C37.8540354,6.52274809 39.1613894,7.86206107 40.467885,9.19969466 C41.2224248,9.89580153 41.9520708,10.6876336 42.9512566,11.0461832 C43.2654336,11.1771756 43.6087965,11.1998473 43.9384248,11.2729008 C44.0723363,11.3585496 43.9023717,11.5340458 43.7821947,11.4962595 C43.1804513,11.5189313 42.5778496,11.4945802 41.9761062,11.5054962 C41.368354,11.5130534 40.721115,11.4819847 40.1949115,11.1494656 C39.4060354,10.6523664 38.795708,9.94198473 38.1725044,9.26770992 C37.1630177,8.16770992 36.1904425,7.03748092 35.2238761,5.90305344 C35.2127168,6.59328244 35.2049912,7.28435115 35.234177,7.97374046 C35.2530619,8.78908397 35.206708,9.60526718 35.2770973,10.4180916 C35.2985575,10.6851145 35.3826814,11.0058779 35.6590885,11.1217557 C36.0041681,11.2292366 36.3741416,11.189771 36.7260885,11.2645038 C36.7887522,11.3938168 36.7132124,11.4887023 36.5758673,11.4929008 C35.9706903,11.5298473 35.3637965,11.4870229 34.7586195,11.4752672 C33.9276814,11.4299237 33.0967434,11.5407634 32.2666637,11.4954198 C32.1559292,11.5172519 31.9756637,11.3577099 32.1121504,11.2703817 C32.4143097,11.1838931 32.767115,11.2544275 33.0400885,11.079771 C33.3036195,10.7850382 33.2804425,10.3567939 33.3267965,9.99068702 C33.4109204,8.11564885 33.3534071,6.2380916 33.3705752,4.36137405 C33.3619912,3.4419084 33.3937522,2.52076336 33.3396726,1.6021374 C33.3164956,1.35274809 33.3053363,1.05045802 33.072708,0.89259542 C32.7216195,0.650763359 32.2692389,0.741450382 31.8735133,0.653282443 C31.862354,0.61129771 31.8408938,0.528167939 31.8297345,0.487022901 Z" id="Shape"></path>
                    <path d="M51.705292,0.479465649 C51.9671062,0.380381679 52.2563894,0.42740458 52.5310796,0.418167939 C53.3354071,0.438320611 54.1405929,0.481145038 54.9449204,0.433282443 C55.3586726,0.42740458 55.779292,0.380381679 56.1887522,0.456793893 C56.2196549,0.535725191 56.2059204,0.604580153 56.1492655,0.664198473 C55.8591239,0.718778626 55.5492389,0.694427481 55.2762655,0.81870229 C54.9964248,0.965648855 54.9741062,1.31496183 54.9500708,1.58870229 C54.8959912,3.74587786 54.920885,5.90473282 54.9183097,8.06274809 C54.9680973,8.91587786 54.8882655,9.7748855 55.0101593,10.6238168 C55.0410619,10.8933588 55.2522301,11.1301527 55.5372212,11.1545038 C55.8917434,11.2561069 56.3175133,11.1301527 56.6273982,11.3375573 C56.5939204,11.3753435 56.5269646,11.450916 56.4934867,11.4887023 C55.8307965,11.5332061 55.1646726,11.4878626 54.5011239,11.4769466 C53.6435752,11.4257252 52.7860265,11.539084 51.9293363,11.4970992 C51.7851239,11.5155725 51.7619469,11.3577099 51.7044336,11.269542 C52.0220442,11.2158015 52.3576814,11.2359542 52.6606991,11.1167176 C52.8641416,11.0117557 52.911354,10.7674046 52.9465487,10.5650382 C53.0564248,9.67832061 53.0238053,8.78236641 53.0280973,7.89145038 C53.0263805,5.90221374 53.0323894,3.9121374 53.0255221,1.92290076 C52.9963363,1.56770992 53.035823,1.14534351 52.7542655,0.874961832 C52.4615487,0.668396947 52.0778407,0.726335878 51.7422035,0.66 C51.7327611,0.615496183 51.7147345,0.52480916 51.705292,0.479465649 Z" id="Shape"></path>
                </g>
            </g>
        </g>
    </g>
</svg>