<?xml version="1.0" encoding="UTF-8"?>
<svg width="51px" height="50px" viewBox="0 0 51 50" version="1.1" xmlns="http://www.w3.org/2000/svg" xmlns:xlink="http://www.w3.org/1999/xlink">
    <!-- Generator: Sketch 51.3 (57544) - http://www.bohemiancoding.com/sketch -->
    <title>bca1</title>
    <desc>Created with Sketch.</desc>
    <defs></defs>
    <g id="Page-1" stroke="none" stroke-width="1" fill="none" fill-rule="evenodd">
        <g id="m7-withdraw-balance-0-1366-copy" transform="translate(-414.000000, -828.000000)" fill-rule="nonzero">
            <g id="bca1" transform="translate(414.000000, 828.000000)">
                <g id="#e7cb00ff" transform="translate(31.213115, 0.000000)" fill="#E7CB00">
                    <path d="M0.40852459,4.59934426 C5.14098361,2.65770492 10.0111475,0.748196721 15.147541,0.284590164 C14.8859016,0.459016393 14.6059016,0.596721311 14.307541,0.68852459 C9.89639344,1.88196721 5.64590164,3.62622951 1.6157377,5.77442623 C1.3495082,5.51278689 0.81704918,4.99868852 0.550819672,4.73704918 L0.40852459,4.59934426 Z" id="Shape"></path>
                </g>
                <g id="#373e7fff" transform="translate(0.000000, 39.344262)" fill="#373E7F">
                    <path d="M3.05704918,2.6557377 C3.24065574,2.07737705 3.4242623,1.49901639 3.59409836,0.916065574 C3.63540984,2.19672131 3.95672131,3.43606557 4.36983607,4.64327869 C4.25967213,4.83147541 4.0347541,5.21245902 3.92459016,5.40065574 C2.82295082,5.21704918 1.72131148,5.0104918 0.628852459,4.77180328 L0.518688525,4.7442623 C0.403934426,4.06032787 0.28,3.38098361 0.156065574,2.69704918 C1.12,2.66032787 2.08852459,2.64655738 3.05704918,2.6557377 Z" id="Shape"></path>
                </g>
                <g id="#f79901ff" transform="translate(20.196721, 4.262295)">
                    <path d="M2.38688525,5.47344262 C3.01114754,5.03737705 3.66754098,4.64262295 4.31934426,4.24786885 C5.07213115,4.60590164 5.86163934,4.8904918 6.67868852,5.06491803 C5.3842623,5.87737705 4.17245902,6.80459016 2.95147541,7.71344262 C2.09770492,7.44721311 1.23934426,7.18098361 0.380983607,6.9147541 C1.06032787,6.45114754 1.72131148,5.96 2.38688525,5.47344262 Z" id="Shape" fill="#F79901"></path>
                    <g id="#f3c302ff" transform="translate(4.131148, 0.327869)" fill="#F3C302">
                        <path d="M1.45967213,3.13508197 C3.40131148,2.05639344 5.30622951,0.826229508 7.43606557,0.146885246 C7.70229508,0.40852459 8.2347541,0.922622951 8.50098361,1.1842623 C7.38557377,1.80393443 6.26557377,2.40983607 5.17770492,3.07540984 C4.35606557,3.58032787 3.56655738,4.13114754 2.75409836,4.6452459 C2.70360656,4.66819672 2.59803279,4.71409836 2.54754098,4.73704918 C1.7304918,4.56262295 0.940983607,4.27803279 0.188196721,3.92 C0.504918033,3.72262295 1.14295082,3.33245902 1.45967213,3.13508197 Z" id="Shape"></path>
                    </g>
                </g>
                <g id="#f47305ff" transform="translate(17.442623, 11.016393)" fill="#F47305">
                    <path d="M0.206557377,2.46032787 C1.16131148,1.66622951 2.16655738,0.940983607 3.13508197,0.160655738 C3.99344262,0.426885246 4.85180328,0.693114754 5.70557377,0.959344262 C4.89770492,1.57901639 4.10819672,2.21704918 3.32786885,2.87344262 C2.28590164,2.7357377 1.24393443,2.59803279 0.206557377,2.46032787 Z" id="Shape"></path>
                </g>
                <g id="#faf6f5ff" transform="translate(32.590164, 11.475410)" fill="#FFFFFF">
                    <path d="M5.77901639,1.57901639 C6.0957377,0.766557377 7.01836066,0.527868852 7.6747541,0.0918032787 L7.51868852,0.931803279 C7.18819672,1.0557377 6.52721311,1.29442623 6.20131148,1.41377049 L6.36196721,1.7304918 C6.47672131,1.90491803 6.71540984,2.25377049 6.83016393,2.42360656 C7.24786885,3.03409836 7.6747541,3.65377049 8.26229508,4.12196721 C8.41377049,4.11278689 8.72131148,4.09901639 8.87737705,4.09442623 L9.1757377,4.12655738 L9.47868852,4.21377049 C8.54688525,5.36131148 6.87147541,4.77836066 5.77901639,4.21836066 C5.98098361,3.94754098 6.17836066,3.67672131 6.38032787,3.40590164 L6.7704918,4.17704918 L8.13836066,4.55803279 C7.53245902,3.59868852 6.8347541,2.70819672 6.0957377,1.84983607 C6.29770492,2.61639344 6.07278689,3.15344262 5.43016393,3.47016393 C5.51737705,2.99737705 5.69180328,2.05180328 5.77901639,1.57901639 Z" id="Shape"></path>
                    <path d="M0.445245902,12.1088525 C1.12459016,8.96 1.55606557,5.76065574 2.25836066,2.62098361 C3.19934426,2.6347541 4.14032787,2.64393443 5.08590164,2.65311475 C4.51672131,5.76983607 3.88786885,8.88196721 3.55278689,12.0354098 C2.51540984,12.0721311 1.48262295,12.0996721 0.445245902,12.1088525 Z" id="Shape"></path>
                    <path d="M6.02688525,5.44393443 C6.9495082,5.45770492 7.87672131,5.46229508 8.80393443,5.46688525 C8.41836066,7.67016393 8.00065574,9.87344262 7.72065574,12.0904918 C6.80721311,12.095082 5.89836066,12.0996721 4.9895082,12.0996721 L4.79213115,12.0996721 C5.28786885,9.89639344 5.5357377,7.64721311 6.02688525,5.44393443 Z" id="Shape"></path>
                </g>
                <g id="#f9f6f6ff" transform="translate(40.393443, 11.475410)" fill="#FFFFFF">
                    <path d="M0.0963934426,0.0826229508 C1.79016393,0.518688525 3.02491803,2.43278689 1.87737705,4.07147541 C2.16655738,3.92 2.7495082,3.61245902 3.04327869,3.46098361 L2.55672131,2.68983607 C3.5757377,2.60721311 4.59934426,2.59344262 5.62295082,2.62098361 C5.27409836,4.36065574 5.00327869,6.11409836 4.6452459,7.84918033 C5.27409836,7.03672131 5.86163934,6.18754098 6.44,5.33836066 C7.54163934,5.36131148 8.64786885,5.35213115 9.75409836,5.32 C8.86819672,6.41245902 7.96393443,7.48196721 7.07344262,8.5652459 C7.59213115,9.7495082 8.16131148,10.9154098 8.7947541,12.0445902 C7.60590164,12.0078689 6.42163934,11.9757377 5.23278689,11.9298361 C5.04918033,11.0898361 4.74163934,10.2865574 4.28721311,9.55672131 C4.20918033,10.3645902 4.1495082,11.1770492 4.09442623,11.984918 C3.1442623,12.0078689 2.19409836,12.0308197 1.24852459,12.0583607 L1.34491803,11.4891803 C1.77180328,9.13901639 1.96918033,6.75213115 2.5842623,4.43868852 C2.35934426,4.38360656 1.90491803,4.26885246 1.67540984,4.21377049 L1.37245902,4.12655738 C1.76262295,3.40131148 2.1895082,2.46032787 1.67081967,1.68918033 C1.5652459,1.52852459 1.35868852,1.20262295 1.25770492,1.04196721 C0.96852459,0.803278689 0.38557377,0.321311475 0.0963934426,0.0826229508 Z" id="Shape"></path>
                </g>
                <g id="#1e0b0eff" transform="translate(1.836066, 12.393443)" fill="#1E0B0E">
                    <path d="M36.9554098,0.495737705 C37.2813115,0.376393443 37.9422951,0.137704918 38.2727869,0.0137704918 C38.0203279,0.481967213 37.6347541,0.748196721 37.1160656,0.812459016 L36.9554098,0.495737705 Z" id="Shape"></path>
                    <path d="M40.2281967,0.771147541 C40.7468852,1.54229508 40.32,2.48327869 39.9298361,3.20852459 L39.6314754,3.17639344 C39.397377,2.32721311 39.9206557,1.52852459 40.2281967,0.771147541 Z" id="Shape"></path>
                    <path d="M10.5436066,34.972459 C14.8996721,34.664918 19.1134426,33.3291803 23.1114754,31.6262295 C19.3245902,34.495082 14.9409836,36.8681967 10.1763934,37.5337705 C6.63737705,38.0203279 2.86885246,36.932459 0.371803279,34.3252459 C1.84065574,34.5409836 3.38754098,34.7383607 4.75540984,33.9947541 C6.56393443,34.8118033 8.5652459,35.1285246 10.5436066,34.972459 Z" id="Shape"></path>
                </g>
                <g id="#ebbe80ff" transform="translate(38.557377, 12.393443)" fill="#EBBE80">
                    <path d="M1.55147541,0.0137704918 C1.66163934,0.123934426 1.88655738,0.344262295 2.00131148,0.45442623 C1.71672131,0.720655738 1.14754098,1.24393443 0.86295082,1.50557377 C0.748196721,1.3357377 0.509508197,0.986885246 0.394754098,0.812459016 C0.913442623,0.748196721 1.29901639,0.481967213 1.55147541,0.0137704918 Z" id="Shape"></path>
                </g>
                <g id="#084890ff" transform="translate(34.426230, 12.852459)" fill="#1A4F8C">
                    <path d="M3.94295082,0.201967213 C3.8557377,0.674754098 3.68131148,1.62032787 3.59409836,2.09311475 C4.23672131,1.77639344 4.46163934,1.23934426 4.25967213,0.472786885 C4.99868852,1.33114754 5.69639344,2.22163934 6.30229508,3.18098361 L4.93442623,2.8 L4.5442623,2.02885246 C4.34229508,2.29967213 4.14491803,2.5704918 3.94295082,2.84131148 C5.03540984,3.40131148 8.32655738,3.00655738 8.55147541,3.06163934 C7.93639344,5.37508197 6.58229508,6.29311475 6.96786885,4.08983607 C6.04065574,4.0852459 5.11344262,4.08065574 4.19081967,4.06688525 C3.69967213,6.27016393 3.45180328,8.51934426 2.95606557,10.722623 C2.64393443,10.7042623 2.02885246,10.6767213 1.71672131,10.6583607 C2.05180328,7.50491803 2.68065574,4.39278689 3.24983607,1.27606557 C2.3042623,1.26688525 1.36327869,1.25770492 0.422295082,1.24393443 C0.330491803,1.07868852 2.6347541,0.211147541 3.94295082,0.201967213 Z" id="Shape"></path>
                </g>
                <g id="#555799ff" transform="translate(39.016393, 12.393443)" fill="#555799">
                    <path d="M1.54229508,0.45442623 C1.81311475,0.371803279 2.35934426,0.206557377 2.6347541,0.123934426 C2.7357377,0.284590164 2.94229508,0.610491803 3.04786885,0.771147541 C2.74032787,1.52852459 2.21704918,2.32721311 2.45114754,3.17639344 C2.29508197,3.18098361 1.98754098,3.1947541 1.83606557,3.20393443 C1.24852459,2.7357377 0.821639344,2.11606557 0.403934426,1.50557377 C0.68852459,1.24393443 1.25770492,0.720655738 1.54229508,0.45442623 Z" id="Shape"></path>
                </g>
                <g id="#e95406ff" transform="translate(15.606557, 13.311475)" fill="#E95406">
                    <path d="M0.270819672,1.65704918 C0.849180328,1.14754098 1.44131148,0.651803279 2.04262295,0.165245902 C3.08,0.30295082 4.12196721,0.440655738 5.16393443,0.578360656 C4.29180328,1.30819672 3.43344262,2.06098361 2.59803279,2.84131148 C1.82229508,2.44196721 1.04655738,2.04721311 0.270819672,1.65704918 Z" id="Shape"></path>
                </g>
                <g id="#f9f6f5ff" transform="translate(23.409836, 13.770492)" fill="#FFFFFF">
                    <path d="M1.25770492,2.46032787 C1.56983607,1.74885246 1.90491803,1.04655738 2.26754098,0.362622951 C3.24065574,0.371803279 4.21377049,0.362622951 5.18688525,0.339672131 C4.93442623,1.65245902 4.61770492,2.95147541 4.51672131,4.28262295 C5.43016393,3.05245902 6.26098361,1.75803279 7.05508197,0.449836066 C8.18885246,0.371803279 9.31803279,0.344262295 10.4518033,0.330491803 C9.30885246,1.87737705 8.14295082,3.40131148 6.99540984,4.94360656 C7.69311475,6.54098361 8.39081967,8.14295082 9.03344262,9.76786885 C7.88590164,9.7495082 6.73836066,9.7495082 5.59081967,9.76327869 C5.12262295,8.48262295 4.67737705,7.19278689 4.32393443,5.87540984 C3.93836066,7.13311475 3.69508197,8.43213115 3.54819672,9.7357377 C2.50622951,9.8 1.46885246,9.82295082 0.426885246,9.81377049 C0.973114754,7.57377049 1.25770492,5.2695082 1.63868852,2.99737705 C1.54229508,2.8642623 1.3495082,2.59344262 1.25770492,2.46032787 Z" id="Shape"></path>
                </g>
                <g id="#e63109ff" transform="translate(12.852459, 14.688525)" fill="#E63109">
                    <path d="M0.229508197,2.92852459 C1.14295082,2.0242623 2.06557377,1.13377049 3.02491803,0.28 C3.80065574,0.670163934 4.57639344,1.06491803 5.35213115,1.4642623 C4.53967213,2.22163934 3.73639344,2.98819672 2.96065574,3.78688525 C2.05180328,3.49770492 1.13836066,3.21311475 0.229508197,2.92852459 Z" id="Shape"></path>
                </g>
                <g id="#e2150dff" transform="translate(5.508197, 17.442623)" fill="#E2150D">
                    <path d="M4.10360656,3.86032787 C5.21442623,2.58885246 6.38032787,1.36786885 7.57377049,0.17442623 C8.48262295,0.459016393 9.39606557,0.743606557 10.304918,1.03278689 C7.69311475,3.70885246 5.15934426,6.49508197 3.06622951,9.60262295 L2.84131148,9.94229508 C1.86360656,9.91016393 0.927213115,9.61639344 0.0596721311,9.17114754 C0.325901639,8.7947541 0.592131148,8.41836066 0.858360656,8.04655738 C1.06032787,7.75737705 1.26688525,7.46819672 1.47803279,7.18360656 C2.05180328,6.41704918 2.6347541,5.65967213 3.23147541,4.91147541 C3.51606557,4.55803279 3.80983607,4.20459016 4.10360656,3.86032787 Z" id="Shape"></path>
                </g>
                <g id="#b11120ff" transform="translate(3.213115, 26.163934)" fill="#B11120">
                    <path d="M2.3547541,0.449836066 C3.22229508,0.895081967 4.15868852,1.18885246 5.13639344,1.22098361 C4.48459016,2.20786885 3.87409836,3.21770492 3.30491803,4.25967213 C2.25836066,4.40196721 1.17967213,4.53967213 0.142295082,4.22754098 C0.702295082,2.87344262 1.56065574,1.67081967 2.3547541,0.449836066 Z" id="Shape"></path>
                </g>
                <g id="#84163fff" transform="translate(0.918033, 30.295082)" fill="#84163F">
                    <path d="M2.24,0.0550819672 L2.43737705,0.0963934426 C3.4747541,0.40852459 4.55344262,0.270819672 5.6,0.12852459 L5.47606557,0.353442623 C4.58098361,1.8957377 3.91081967,3.55278689 3.38754098,5.2557377 C2.26754098,5.24655738 1.15213115,5.20983607 0.0367213115,5.14098361 C0.656393443,3.39672131 1.48262295,1.73967213 2.24,0.0550819672 Z" id="Shape"></path>
                </g>
                <g id="#52236eff" transform="translate(0.000000, 35.344262)" fill="#52236E">
                    <path d="M0.954754098,0.0918032787 C2.07016393,0.160655738 3.18557377,0.197377049 4.30557377,0.206557377 C4.00262295,1.6157377 3.51147541,3.0295082 3.71344262,4.49377049 C2.57967213,3.8695082 1.29442623,3.87868852 0.0413114754,3.99803279 C0.358032787,2.69901639 0.546229508,1.36786885 0.954754098,0.0918032787 Z" id="Shape"></path>
                </g>
                <g id="#4a4c94ff" transform="translate(0.000000, 39.016393)" fill="#4A4C94">
                    <path d="M0.0413114754,0.325901639 C1.29442623,0.206557377 2.57967213,0.197377049 3.71344262,0.821639344 L3.59409836,1.24393443 C3.4242623,1.82688525 3.24065574,2.4052459 3.05704918,2.98360656 C2.08852459,2.97442623 1.12,2.98819672 0.156065574,3.02491803 L0.0137704918,3.03409836 C0.0137704918,2.12983607 0.0183606557,1.23016393 0.0413114754,0.325901639 Z" id="Shape"></path>
                </g>
                <g id="#391a39ff" transform="translate(0.459016, 43.606557)" fill="#391A39">
                    <path d="M0.169836066,0.509508197 C1.26229508,0.748196721 2.36393443,0.954754098 3.46557377,1.13836066 C3.5757377,0.950163934 3.80065574,0.569180328 3.91081967,0.380983607 C4.45704918,1.3495082 5.26491803,2.10688525 6.13245902,2.78163934 C4.76459016,3.5252459 3.21770492,3.32786885 1.74885246,3.11213115 C1.05114754,2.35934426 0.463606557,1.50557377 0.169836066,0.509508197 Z" id="Shape"></path>
                </g>
                <g id="Bank_Central_Asia" transform="translate(11.016393, 25.704918)" fill="#FFFFFF">
                    <g id="Group-13">
                        <path d="M5.68130188,9.17215841 C5.68130188,8.69053435 5.68653103,7.40319607 5.67465922,7.24458413 C5.68500879,5.32898732 4.29221762,3.97770741 3.41231387,4.08304925 C2.80345125,4.13588751 2.2931791,4.38415538 2.01919667,5.09836794 C1.76525878,5.76398239 1.99228805,6.64933342 2.83656941,6.85708365 C3.73935041,7.08019437 4.26650834,7.26582732 4.6480143,7.52771326 C5.11547315,7.84832557 5.49708823,8.46088662 5.50721957,9.17291799" id="path20"></path>
                        <path d="M6.04167301,12.0839961 C4.44985021,12.0839961 2.8139062,11.6919293 1.18014114,10.9164941 L1.14005195,10.8967798 L1.12087834,10.8559282 C0.387716057,9.30832764 0,7.61562794 0,5.95953423 C0,4.30593942 0.371810641,2.68568036 1.10551789,1.1401588 L1.12567194,1.09908825 L1.16652425,1.07860734 C2.67784107,0.362657787 4.30365297,-1.72227972e-06 6.00027665,-1.72227972e-06 C7.58077014,-1.72227972e-06 9.26867754,0.403727548 10.8807642,1.16957229 L10.9221613,1.18798305 L10.9412256,1.2298155 C11.688441,2.80594969 12.0824754,4.49821504 12.0824754,6.12686515 C12.0824754,7.74919069 11.704128,9.37086385 10.9560409,10.9460137 L10.936323,10.9874127 L10.8947085,11.0065912 C9.40648624,11.7110961 7.72816536,12.0839961 6.04167301,12.0839961 M1.33134937,10.7042821 C2.91848807,11.4508416 4.50137828,11.8278864 6.04167301,11.8278864 C7.6748941,11.8278864 9.29918144,11.4708837 10.7450256,10.7941593 C11.4632632,9.26780383 11.8273385,7.69689918 11.8273385,6.12686515 C11.8273385,4.55050578 11.4473583,2.91075211 10.7285755,1.38102403 C9.16409567,0.645572911 7.53022219,0.255570071 6.00027665,0.255570071 C4.35768766,0.255570071 2.78329472,0.60395832 1.31762302,1.29125745 C0.614091738,2.78928172 0.256008267,4.35899013 0.256008267,5.95953423 C0.256008267,7.56311665 0.6281449,9.20353254 1.33134937,10.7042821" id="path22"></path>
                        <path d="M5.30406286,9.17291799 C5.3069861,8.5555604 4.96241,8.00966505 4.51205444,7.71628968 C4.11257379,7.45701446 3.57626478,7.28662941 2.71106789,7.06722791 C2.44362096,6.99881671 2.16386445,6.84684589 2.07725756,6.65314905 C1.84815788,6.88398899 1.80654328,7.40297629 1.84685063,7.70626477 C1.89369514,8.05726799 2.30385217,8.63573661 2.92142942,8.65840063 C3.29857782,8.67353826 3.77540584,8.5772335 4.00406986,8.52865506 C4.39853998,8.44345868 5.02265359,8.69053435 5.12200631,9.17215841" id="path24"></path>
                        <path d="M6.00027665,1.09756292 C4.95315044,1.09756292 4.048626,1.78813017 4.05189412,2.98308498 C4.05516378,3.98794517 4.86327551,4.52588805 5.15163804,4.91012041 C5.58739539,5.48912806 5.82324971,6.17446616 5.84776102,7.2231204 C5.86682533,8.05770755 5.86584482,8.88182907 5.87009345,9.17389734 L6.10126344,9.17389734 C6.09723535,8.86832242 6.08677396,7.9934324 6.09875335,7.19730161 C6.11444042,6.14832079 6.35879201,5.48912806 6.7947676,4.91012041 C7.08563597,4.52588805 7.89309492,3.98794517 7.89483849,2.98308498 C7.89876016,1.78813017 6.99478052,1.09756292 5.94852533,1.09756292" id="path26"></path>
                        <path d="M6.26608851,9.17215841 C6.26608851,8.69053435 6.26063881,7.40319607 6.27229818,7.24458413 C6.26205811,5.32898732 7.65397749,3.97770741 8.53464379,4.08304925 C9.14350642,4.13588751 9.65323417,4.38415538 9.92797977,5.09836794 C10.1816997,5.76398239 9.9533621,6.64933342 9.11006214,6.85708365 C8.20684478,7.08019437 7.68034033,7.26582732 7.29785423,7.52771326 C6.83093943,7.84832557 6.47601454,8.46088662 6.46512092,9.17291799" id="path28"></path>
                        <path d="M6.64310529,9.17291799 C6.63985871,8.5555604 6.98432685,8.00966505 7.43337532,7.71628968 C7.83449002,7.45701446 8.37145278,7.28662941 9.23588719,7.06722791 C9.50387832,6.99881671 9.78330787,6.84684589 9.86838935,6.65314905 C10.0985792,6.88398899 10.1400851,7.40297629 10.0997768,7.70626477 C10.0519525,8.05726799 9.6428846,8.63573661 9.02639648,8.65840063 C8.649357,8.67353826 8.17002364,8.5772335 7.94234002,8.52865506 C7.54939562,8.44345868 6.92353844,8.69053435 6.82374964,9.17215841" id="path30"></path>
                        <path d="M6.96613355,11.1659642 L6.83213818,10.1882378 L7.15557944,10.139216 C7.23434291,10.1284276 7.33020927,10.1421463 7.36855574,10.1915036 C7.41093338,10.2430279 7.42389753,10.2856299 7.43206783,10.353167 C7.44426893,10.4367247 7.4200842,10.5333572 7.32596063,10.5815077 L7.32596063,10.584438 C7.43108732,10.584438 7.49459903,10.6599334 7.51300941,10.7873925 C7.51573156,10.8142978 7.52368556,10.8793364 7.51573156,10.9335866 C7.49437887,11.0626806 7.41735935,11.1041876 7.28739439,11.1223828 L6.96613355,11.1659642 Z M7.17431678,10.9909022 C7.21266325,10.985427 7.25155453,10.9833873 7.28194893,10.9639891 C7.32846648,10.9335943 7.32421784,10.8685596 7.31779032,10.8203051 C7.30155805,10.7141952 7.27388774,10.6738911 7.16135302,10.6905556 L7.09065151,10.7014481 L7.1354255,10.9963465 L7.17431678,10.9909022 Z M7.10655682,10.5391254 C7.14937016,10.5321812 7.2074341,10.5270338 7.23161883,10.486402 C7.24425601,10.4592769 7.26048828,10.4377041 7.24981213,10.3773502 C7.23663052,10.3057761 7.21288148,10.2614429 7.12202604,10.278651 L7.03737987,10.2922733 L7.07071542,10.5428346 L7.10655682,10.5391254 Z" id="path32"></path>
                        <path d="M8.36720414,10.5779102 C8.36971037,10.5961055 8.37265384,10.6163674 8.37374039,10.6345549 C8.39988576,10.8128943 8.36720414,10.9605074 8.16675552,11.0011392 C7.87044015,11.0582272 7.81368215,10.8741157 7.76150091,10.6163674 L7.73372147,10.4769246 C7.69286916,10.2302808 7.67532941,10.0435628 7.96423675,9.98604294 C8.12710119,9.95630364 8.23473372,10.0211186 8.27950809,10.1832215 C8.28647733,10.2074047 8.29519516,10.2313758 8.29846328,10.255667 L8.12121849,10.2922733 C8.10073835,10.2313758 8.07361246,10.1225476 7.99386887,10.1316973 C7.85072229,10.1489054 7.89800135,10.3270213 7.91270829,10.4014293 L7.96597955,10.6690946 C7.98199358,10.7500381 8.01380457,10.8793441 8.13766861,10.8543975 C8.2382193,10.8342435 8.19442584,10.6775888 8.18549286,10.6134293" id="path34"></path>
                        <path d="M8.65164461,10.873788 L8.59031216,9.86195759 L8.82845332,9.78929622 L9.32772316,10.6693144 L9.14023791,10.7254115 L9.02193,10.5017633 L8.81374638,10.5642918 L8.84065519,10.8185545 L8.65164461,10.873788 Z M8.79631652,10.4008818 L8.94676162,10.3573081 L8.74696693,9.9479097 L8.79631652,10.4008818 Z" id="path36"></path>
                        <path d="M2.76978568,10.1088212 C2.84430028,9.87024357 2.91108073,9.69462629 3.19541189,9.77263172 C3.3476006,9.81511809 3.44194244,9.88221949 3.43747565,10.0590282 C3.43674036,10.0983606 3.42374926,10.1384448 3.41525198,10.1773377 L3.23822508,10.1284276 C3.26142922,10.0308158 3.27613604,9.95336171 3.15586687,9.91632349 C3.01686039,9.8781941 2.98298076,10.0467245 2.96380714,10.11949 L2.89179842,10.3847609 C2.86892113,10.4635259 2.8414684,10.5937033 2.96380714,10.6272598 C3.06490269,10.6544929 3.12623587,10.5552539 3.16283955,10.4103592 L3.03897536,10.37757 L3.08178858,10.2240731 L3.37298377,10.3177636 L3.23473957,10.8290152 L3.10074405,10.7926286 L3.13092001,10.68456 L3.12710438,10.68456 C3.06544515,10.7729142 2.99016828,10.7821718 2.92425964,10.7695327 C2.63306446,10.6907677 2.66345859,10.5004562 2.73296223,10.2461896" id="path38"></path>
                        <path d="M3.85362411,10.5406523 L3.76592809,10.9565861 L3.56852982,10.91388 L3.77889216,9.94268132 L4.11540545,10.0187242 C4.31236848,10.0612105 4.3718494,10.1489054 4.34396124,10.3294234 C4.32805555,10.4330232 4.27696355,10.5446815 4.15222735,10.5356437 L4.15092026,10.5339471 C4.25637391,10.5708774 4.2653065,10.6240364 4.24689613,10.7159881 C4.23894637,10.7550891 4.18414708,10.9924753 4.22194835,11.0308168 L4.22325544,11.0599045 L4.01899388,11.0066336 C4.01049661,10.9408393 4.03936606,10.8225298 4.05080449,10.7570517 C4.06235204,10.6990999 4.08076241,10.617393 4.02193504,10.5866743 C3.97585396,10.5621596 3.95875068,10.5633625 3.90667778,10.5513751 L3.85362411,10.5406523 Z M3.88728651,10.3902091 L4.02019263,10.4260482 C4.10091674,10.4377041 4.14579984,10.3958732 4.16170514,10.2983731 C4.17608512,10.2089316 4.15745651,10.1739639 4.08501144,10.1566401 L3.94251879,10.127776 L3.88728651,10.3902091 Z" id="path40"></path>
                        <path d="M5.11971831,10.1596899 L5.31493855,10.182354 L5.23083682,10.8650779 C5.18998451,11.081539 5.10631885,11.1762089 4.8681777,11.1465737 C4.62589586,11.1159592 4.56837597,11.005608 4.58308252,10.7874002 L4.66772869,10.1052238 L4.86447349,10.127776 L4.78004556,10.7946991 C4.77111258,10.8671446 4.7543355,10.9744459 4.8832116,10.9874127 C4.99748834,10.9961305 5.02341664,10.9204154 5.03627128,10.826293" id="path42"></path>
                        <path d="M5.53020246,11.1839397 L5.58892111,10.2076245 L5.96399994,10.223861 C6.14124397,10.2325711 6.1876524,10.3773502 6.18209628,10.5154897 C6.17697354,10.5994792 6.15072175,10.6932778 6.07751441,10.7441542 C6.01748867,10.7874002 5.94035926,10.7976372 5.86878636,10.7941593 L5.746556,10.7873771 L5.7221542,11.1965518 L5.53020246,11.1839397 Z M5.75211212,10.63848 L5.85146484,10.6440361 C5.93218895,10.6469665 5.98567844,10.6150603 5.99265039,10.4965349 C5.99657206,10.3826942 5.95354164,10.3634117 5.84895977,10.3588349 L5.77019669,10.3561359 L5.75211212,10.63848 Z" id="path44"></path>
                    </g>
                    <g id="Group-16" transform="translate(13.687869, 0.925377)">
                        <path d="M18.2963198,1.11581984 L16.8055918,3.82154657 C16.2429201,3.36465437 15.555838,3.02835847 14.6792025,3.02835847 C12.6046684,3.02835847 11.7620219,4.57475683 11.7620219,5.66404244 C11.7620219,6.47259064 12.2914676,7.66558288 14.137338,7.66558288 C14.9121157,7.66558288 16.013602,7.1265546 16.3306158,6.88133354 L14.8562295,10.0204246 C14.1534607,10.1606307 13.9226181,10.2475622 13.3277002,10.2659734 C10.0238932,10.3645646 8.68884014,8.33502377 8.68982066,6.26113967 C8.692003,3.51956634 11.1295198,0.185367868 15.1703021,0.185367868 C15.417921,0.185367868 15.720773,0.270994548 15.9797217,0.365880397 L16.2413944,0.0312185587" id="path46"></path>
                        <path d="M24.4473674,0.116082574 L24.8695082,9.95026555 L21.7279125,9.95026555 L21.7260579,8.26366178 L19.5838721,8.26366178 L18.8788161,9.95026555 L15.4717348,9.95026555 L19.0337281,2.92781298 L18.2305174,2.92258383 L19.7566504,0.116082574 L24.4473674,0.116082574 Z M21.7056892,3.12455758 L20.4945002,5.98497786 L21.7421833,5.98497786 L21.7056892,3.12455758 Z" id="path48"></path>
                        <path d="M6.70646851,0.116082574 C8.26223361,0.124797313 9.14137497,0.969296022 9.14137497,2.18920324 C9.14137497,3.31378524 8.21419112,4.30927386 7.19636929,4.82401292 C8.24425855,5.20921731 8.33489576,6.15481732 8.33489576,6.82381364 C8.33489576,8.44003864 6.71311426,9.95026555 4.6050263,9.95026555 L0.00756380066,9.95026555 L1.80092486,3.02563748 L1.06427614,3.02138884 L2.57014646,0.116082574 C2.57014646,0.116082574 5.4413547,0.107367065 6.70646851,0.116082574 Z M5.18011806,4.10326411 C5.50192564,4.10326411 6.07015303,4.02178004 6.21221036,3.39897044 C6.36788461,2.72289787 5.83462645,2.70470226 5.57883642,2.70470226 L4.66483419,2.70069884 L4.34607765,4.10329689 L5.18011806,4.10326411 Z M3.88787836,5.8410717 L3.46704464,7.45729593 L4.54325777,7.45729593 C4.96670568,7.45729593 5.54375808,7.24715051 5.68516109,6.72119319 C5.82482208,6.1937086 5.42141861,5.8410717 4.99949603,5.8410717 L3.88787836,5.8410717 Z" id="path50"></path>
                    </g>
                </g>
            </g>
        </g>
    </g>
</svg>