<?xml version="1.0" encoding="UTF-8"?>
<svg width="96px" height="31px" viewBox="0 0 96 31" version="1.1" xmlns="http://www.w3.org/2000/svg" xmlns:xlink="http://www.w3.org/1999/xlink">
    <!-- Generator: Sketch 51.3 (57544) - http://www.bohemiancoding.com/sketch -->
    <title>BIDV-logo</title>
    <desc>Created with Sketch.</desc>
    <defs>
        <polygon id="path-1" points="0.0967058824 0.119529412 30.8851765 0.119529412 30.8851765 30.8094118 0.0967058824 30.8094118"></polygon>
    </defs>
    <g id="Page-1" stroke="none" stroke-width="1" fill="none" fill-rule="evenodd">
        <g id="m7-withdraw-balance-0-1366-copy" transform="translate(-391.000000, -1932.000000)">
            <g id="Group-2" transform="translate(129.000000, 1692.000000)">
                <g id="BIDV-logo" transform="translate(262.000000, 240.000000)">
                    <polygon id="Fill-1" fill="#FFFFFF" points="20.5585882 26.5534118 25.3821176 26.5534118 25.3821176 4.82329412 20.5585882 4.82329412"></polygon>
                    <path d="M54.4223529,18.9150588 C53.8865882,17.5058824 48.9898824,4.82 48.9898824,4.82 L43.7529412,4.82352941 L43.8435294,5.05482353 L52.1451765,26.5536471 L56.6863529,26.5536471 L65.0437647,4.82352941 L59.7910588,4.82352941 C59.7910588,4.82352941 55.2767059,16.5771765 54.4223529,18.9150588" id="Fill-2" fill="#FFFFFF"></path>
                    <path d="M42.5230588,6.95952941 C40.4915294,5.41364706 38.0235294,4.82094118 33.6691765,4.82352941 L27.8204706,4.82352098 L27.8204706,26.5534118 L33.3581176,26.5534118 C37.6665882,26.5534118 39.9256471,26.1183529 41.8908235,24.8905882 C44.6936471,23.1216471 46.1508235,19.8967059 46.1482353,15.6588235 C46.1508235,11.7607059 44.9256471,8.79011765 42.5230588,6.95952941 M38.7016471,22.0082353 C37.5851765,22.7832941 35.8632941,23.1856471 33.4698824,23.1851765 L32.636,23.1851769 L32.636,8.18988235 L33.3150588,8.18988235 C36.4734118,8.19364706 37.5736471,8.43670588 38.7917647,9.30611765 C40.3901176,10.496 41.3164706,12.8185882 41.3164706,15.6882353 C41.3164706,18.5578824 40.3581176,20.8767059 38.7016471,22.0082353" id="Fill-3" fill="#FFFFFF"></path>
                    <path d="M13.544,15.3790588 C16.268,14.6284706 17.6287059,13.0103529 17.6112941,10.5727059 C17.6138824,8.45176471 16.4581176,6.62352941 14.4870588,5.75294118 C12.8244706,4.99364706 11.0743529,4.74611765 7.35458824,4.74682353 L0,4.74682202 L0,26.4769412 L8.224,26.4769412 C11.7018824,26.4769412 13.4496471,26.1962353 15.0371765,25.4021176 C17.0729412,24.3531765 18.1945882,22.5531765 18.1934118,20.4028235 C18.2101176,17.7661176 16.6174118,16.0771765 13.544,15.3790588 Z M4.83364706,8.16752941 L6.34258824,8.16752941 C8.81905882,8.16870588 10.4781176,8.08329412 11.4004706,8.55388235 C12.2524706,8.97764706 12.7745882,9.57105882 12.7745882,10.7367059 C12.7731765,11.8087059 12.2976471,12.4084706 11.4381176,12.8684706 C10.6830588,13.2722353 8.77270588,13.4628235 6.53741176,13.4604706 L4.83364706,13.4604921 L4.83364706,8.16752941 Z M11.6407059,22.8174118 C10.7585882,23.1995294 9.29788235,23.1527059 6.74305882,23.1527059 L4.828,23.1527059 L4.828,17.5418824 L6.78070588,17.5418824 C8.82729412,17.5425882 10.4962353,17.6204706 11.5,17.9296471 C12.7232941,18.3054118 13.3545882,19.0750588 13.3545882,20.356 C13.3545882,21.8437647 12.6451765,22.3861176 11.6407059,22.8174118 Z" id="Fill-4" fill="#FFFFFF"></path>
                    <g id="Group-30" transform="translate(64.941176, 0.000000)">
                        <polyline id="Fill-5" fill="#FFFFFE" points="15.4891765 1.10047059 1.07576471 15.4710588 15.4818824 29.8385882 15.488 29.8355294 29.9047059 15.476 15.4905882 1.10517647"></polyline>
                        <polyline id="Fill-6" fill="#D8262C" points="13.0814118 5.82611765 13.0788235 17.8298824 15.5941176 17.8310588 17.9014118 17.8317647 17.9032941 5.82705882 15.5950588 5.82611765"></polyline>
                        <g id="Group-10">
                            <mask id="mask-2" fill="white">
                                <use xlink:href="#path-1"></use>
                            </mask>
                            <g id="Clip-8"></g>
                            <path d="M19.4402353,15.4807059 L18.1388235,15.4835294 L18.14,8.21623529 L19.4428235,8.21623529 C20.7654118,8.21623529 21.7724706,9.84635294 21.7804706,11.848 C21.7955294,13.8044706 20.7672941,15.4807059 19.4402353,15.4807059 M10.4378824,8.21364706 L12.8482353,8.21364706 L12.8482353,15.4828235 L10.4378824,15.4821176 L10.4378824,8.21364706" id="Fill-7" fill="#243B80" mask="url(#mask-2)"></path>
                            <path d="M0.0967058824,15.4710588 L0.222823529,15.6002353 L15.4889412,30.8235294 L30.8851765,15.476 L15.4941176,0.119529412 M15.488,29.8355294 L15.4816471,29.8385882 L1.07552941,15.4710588 L15.4889412,1.10047059 L15.4903529,1.10517647 L29.9044706,15.476 L15.488,29.8355294" id="Fill-9" fill="#D8262C" mask="url(#mask-2)"></path>
                            <polyline id="Fill-11" fill="#D8262C" mask="url(#mask-2)" points="15.4872941 22.3997647 8.54141176 15.4710588 1.72329412 15.4710588 13.7272941 27.4451765 15.4861176 29.2002353 29.2592941 15.4710588 22.4388235 15.4710588"></polyline>
                        </g>
                    </g>
                </g>
            </g>
        </g>
    </g>
</svg>