<?xml version="1.0" encoding="UTF-8"?>
<svg width="88px" height="21px" viewBox="0 0 88 21" version="1.1" xmlns="http://www.w3.org/2000/svg" xmlns:xlink="http://www.w3.org/1999/xlink">
    <!-- Generator: Sketch 52.2 (67145) - http://www.bohemiancoding.com/sketch -->
    <title>bank_rakyat_indonesia_hover</title>
    <desc>Created with Sketch.</desc>
    <g id="Page-1" stroke="none" stroke-width="1" fill="none" fill-rule="evenodd">
        <g id="m7-withdraw-balance-0-1366-copy" transform="translate(-959.000000, -1872.000000)" fill="#FFFFFF" fill-rule="nonzero">
            <g id="bank_rakyat_indonesia_hover" transform="translate(959.000000, 1871.000000)">
                <g id="Group-10" transform="translate(23.375000, 4.437500)">
                    <g id="g196" transform="translate(5.337989, 6.041388) scale(-1, 1) rotate(-180.000000) translate(-5.337989, -6.041388) translate(0.337989, 0.041388)">
                        <g id="g198-Clipped">
                            <g id="g198">
                                <g id="g204" transform="translate(0.413024, 0.047867)">
                                    <path d="M0,10.3125 L4.668125,10.3125 C6.55875,10.3125 7.968125,9.4840625 7.968125,7.73867187 C7.968125,6.4590625 7.31414062,5.74664062 6.17976562,5.36851562 L6.17976562,5.33929687 C7.53242187,5.06257812 8.23023437,4.33554687 8.23023437,3.09976562 C8.23023437,0.671171875 6.09210937,0.162421875 4.27453125,0.162421875 L0,0.162421875 L0,10.3125 Z M2.70445312,6.29835937 L3.46070312,6.29835937 C4.34757812,6.29835937 5.26453125,6.51664062 5.26453125,7.37515625 C5.26453125,8.305 4.39140625,8.39265625 3.4890625,8.39265625 L2.70445312,8.39265625 L2.70445312,6.29835937 Z M2.70445312,2.08140625 L3.50453125,2.08140625 C4.49367187,2.08140625 5.52578125,2.2275 5.52578125,3.25960938 C5.52578125,4.36476563 4.46445312,4.46617188 3.53289062,4.46617188 L2.70445312,4.46617188 L2.70445312,2.08140625 Z" id="path206"></path>
                                </g>
                            </g>
                        </g>
                    </g>
                    <g id="g208" transform="translate(14.234442, 6.493520) scale(-1, 1) rotate(-180.000000) translate(-14.234442, -6.493520) translate(8.234442, 0.993520)">
                        <path d="M4.296875,10.3125 L7.61234375,10.3125 L11.5242187,0.162421875 L8.55765625,0.162421875 L7.80140625,2.32890625 L3.99179687,2.32890625 L3.19171875,0.162421875 L0.4434375,0.162421875 L4.296875,10.3125 Z M5.95460937,8.21820313 L5.92539062,8.21820313 L4.6165625,4.24789063 L7.16203125,4.24789063 L5.95460937,8.21820313 Z" id="path210"></path>
                    </g>
                    <g id="g212" transform="translate(25.134978, 6.493520) scale(-1, 1) rotate(-180.000000) translate(-25.134978, -6.493520) translate(20.134978, 0.993520)">
                        <polygon id="path214" points="-3.46944695e-16 10.3125 3.44609375 10.3125 6.8784375 3.41945312 6.90679687 3.41945312 6.86382812 10.3125 9.33625 10.3125 9.33625 0.162421875 5.97609375 0.162421875 2.42859375 7.09929687 2.40023437 7.09929687 2.48617187 0.162421875 -1.11022302e-15 0.162421875"></polygon>
                    </g>
                    <g id="g216" transform="translate(35.388957, 6.493520) scale(-1, 1) rotate(-180.000000) translate(-35.388957, -6.493520) translate(30.388957, 0.993520)">
                        <polygon id="path218" points="0 10.3125 2.70445313 10.3125 2.70445313 6.16773437 2.73367188 6.16773437 5.78703125 10.3125 9.0440625 10.3125 5.29289063 5.58679687 9.33539063 0.162421875 5.8884375 0.162421875 2.73367188 4.77210938 2.70445313 4.77210938 2.70445313 0.162421875 0 0.162421875"></polygon>
                    </g>
                </g>
                <g id="Group-11" transform="translate(65.312500, 4.437500)">
                    <g id="g220" transform="translate(10.337989, 6.041388) scale(-1, 1) rotate(-180.000000) translate(-10.337989, -6.041388) translate(0.337989, 0.041388)">
                        <g id="g222-Clipped">
                            <g id="g222" transform="translate(0.171875, -0.000000)">
                                <g id="g228" transform="translate(0.631039, 0.047867)">
                                    <path d="M0,10.3125 L4.668125,10.3125 C6.55789063,10.3125 7.96898437,9.4840625 7.96898437,7.73867187 C7.96898437,6.4590625 7.315,5.74664062 6.180625,5.36851562 L6.180625,5.33929687 C7.53328125,5.06257812 8.23023438,4.33554687 8.23023438,3.09976562 C8.23023438,0.671171875 6.09296875,0.162421875 4.27539062,0.162421875 L0,0.162421875 L0,10.3125 Z M2.70445313,6.29835938 L3.46070313,6.29835938 C4.3484375,6.29835938 5.26367188,6.51664063 5.26367188,7.37515625 C5.26367188,8.305 4.39226562,8.39265625 3.48992188,8.39265625 L2.70445313,8.39265625 L2.70445313,6.29835938 Z M2.70445313,2.08140625 L3.50453125,2.08140625 C4.4928125,2.08140625 5.52578125,2.2275 5.52578125,3.25960938 C5.52578125,4.36476563 4.46445312,4.46617188 3.53375,4.46617188 L2.70445313,4.46617188 L2.70445313,2.08140625 Z" id="path230"></path>
                                </g>
                                <g id="g232" transform="translate(9.461298, 0.047867)">
                                    <path d="M0,10.3125 L4.82796875,10.3125 C6.6309375,10.3125 8.09960938,9.4978125 8.09960938,7.75242188 C8.09960938,6.400625 7.46023438,5.49914062 6.15140625,5.1940625 L6.15140625,5.16484375 C7.0228125,4.93195312 7.08125,4.16109375 7.59085938,2.9253125 L8.57914063,0.162421875 L5.75867188,0.162421875 L5.176875,1.99375 C4.62429688,3.73914063 4.27453125,4.1765625 3.27164063,4.1765625 L2.70445313,4.1765625 L2.70445313,0.162421875 L0,0.162421875 L0,10.3125 Z M2.70445313,6.09554688 L3.416875,6.09554688 C4.29,6.09554688 5.39515625,6.12476563 5.39515625,7.27375 C5.39515625,8.21820313 4.44984375,8.39265625 3.416875,8.39265625 L2.70445313,8.39265625 L2.70445313,6.09554688 Z" id="path234"></path>
                                </g>
                            </g>
                        </g>
                    </g>
                    <polygon id="path236" points="19.2958013 1.68076535 22.0002544 1.68076535 22.0002544 11.8308435 19.2958013 11.8308435"></polygon>
                </g>
                <g id="g246" transform="translate(11.094687, 11.125000) scale(-1, 1) rotate(-180.000000) translate(-11.094687, -11.125000) translate(0.594687, 0.625000)">
                    <path d="M17.359375,20.625 L3.20460937,20.625 C1.48585937,20.625 0.0928125,19.1975781 0.0928125,17.4367187 L0.0928125,17.4032031 L0.0928125,3.41859375 C0.0928125,1.67492188 1.46007812,0.256953125 3.15648437,0.231171875 L17.3516406,0.231171875 C19.0703906,0.231171875 20.4642969,1.65773438 20.4642969,3.41859375 L20.4703125,17.4367187 C20.4703125,19.1975781 19.078125,20.625 17.359375,20.625 Z M4.88640625,1.86484375 L4.1146875,1.85625 C3.1796875,1.85625 2.42171875,2.62453125 2.42171875,3.57242187 L2.41742187,3.70734375 L2.41742187,16.6529687 L2.42257812,17.3507812 C2.4578125,18.2677344 3.15476562,19.0050781 4.0665625,19.0050781 L5.63664062,19.0050781 C7.05976562,19.0050781 8.21304687,17.7675781 8.21304687,16.3092187 C8.21304687,15.5873438 7.9303125,14.9325 7.47226562,14.4564062 L3.46671875,10.3915625 L7.22132812,6.56820313 C7.70515625,6.06890625 7.99734375,5.4140625 7.99734375,4.69648437 C7.99734375,3.13242187 6.60515625,1.86484375 4.88640625,1.86484375 Z M16.4286719,1.87773438 L9.4290625,1.8803125 C9.4290625,1.8803125 10.2377344,3.62914063 10.2377344,4.71195313 C10.2377344,6.0328125 9.796875,7.211875 9.1059375,7.9921875 L6.71171875,10.4328125 L9.15492187,12.9576563 C9.8828125,13.6408594 10.3657812,14.8542969 10.3657812,16.2370313 C10.3657812,17.331875 10.0632812,18.30125 9.57601562,19.0050781 L11.2715625,19.0050781 C12.6946875,19.0050781 13.8488281,17.7675781 13.8488281,16.3092188 C13.8488281,15.5873438 13.5660937,14.9325 13.1080469,14.4564063 L9.17898437,10.4336719 L17.3396094,2.11234375 C17.0809375,1.94992188 16.7552344,1.87773438 16.4286719,1.87773438 Z M18.1379688,4.475625 L12.2899219,10.43625 L15.0751563,13.2670313 C15.6414844,13.9760156 16.0015625,15.0433594 16.0015625,16.2370313 C16.0015625,17.33875 15.6947656,18.3330469 15.2032031,19.036875 L16.4492969,18.9990625 C17.3842969,18.9990625 18.1422656,18.2307813 18.1422656,17.2828906 L18.1379688,4.475625 Z" id="path248"></path>
                </g>
            </g>
        </g>
    </g>
</svg>