<?xml version="1.0" encoding="UTF-8"?>
<svg width="100px" height="32px" viewBox="0 0 100 32" version="1.1" xmlns="http://www.w3.org/2000/svg" xmlns:xlink="http://www.w3.org/1999/xlink">
    <!-- Generator: Sketch 49.1 (51147) - http://www.bohemiancoding.com/sketch -->
    <title>visa_mastercard</title>
    <desc>Created with Sketch.</desc>
    <defs></defs>
    <g id="Page-1" stroke="none" stroke-width="1" fill="none" fill-rule="evenodd">
        <g id="m7-withdraw-balance-0-1366" transform="translate(-193.000000, -1178.000000)" fill-rule="nonzero">
            <g id="visa_mastercard" transform="translate(193.000000, 1178.000000)">
                <rect id="Rectangle-path" fill="#000000" x="0" y="0" width="99.96997" height="31.951952"></rect>
                <rect id="Rectangle-path" fill="#FFFFFF" x="51.3513514" y="0.780780781" width="47.8078078" height="30.3603604"></rect>
                <rect id="Rectangle-path" fill="#F7B600" x="52.1321321" y="26.2162162" width="46.2162162" height="4.14414414"></rect>
                <rect id="Rectangle-path" fill="#1A1F71" x="52.1321321" y="1.59159159" width="46.2162162" height="4.14414414"></rect>
                <path d="M70.6306306,10.3003003 L65.8558559,21.6816817 L62.7327327,21.6816817 L60.3903904,12.5825826 C60.2402402,12.012012 60.1201201,11.8318318 59.6996997,11.5915916 C58.7745128,11.1462992 57.7953239,10.8232678 56.7867868,10.6306306 L56.8468468,10.3003003 L61.8618619,10.3003003 C62.5397424,10.3033599 63.1138362,10.8009079 63.2132132,11.4714715 L64.4444444,18.048048 L67.5075075,10.3003003 L70.6306306,10.3003003 Z M82.8528529,17.957958 C82.8528529,14.954955 78.7087087,14.7747748 78.7387387,13.4534535 C78.7387387,13.033033 79.1291291,12.6126126 80,12.4924925 C80.9991494,12.3991986 82.0050392,12.5754886 82.9129129,13.003003 L83.4234234,10.6006006 C82.5417175,10.2620345 81.6051347,10.0889703 80.6606607,10.0900901 C77.7477477,10.0900901 75.7057057,11.6516517 75.6756757,13.8438438 C75.6456456,15.4954955 77.1471471,16.3963964 78.2582583,16.9369369 C79.3693694,17.4774775 79.7897898,17.8678679 79.7897898,18.3483483 C79.7897898,19.0990991 78.8588589,19.4594595 78.018018,19.4594595 C76.9613683,19.4886694 75.9155448,19.2401569 74.984985,18.7387387 L74.4444444,21.2312312 C75.484308,21.6486045 76.5974163,21.8528445 77.7177177,21.8318318 C80.8108108,21.8618619 82.8228228,20.3303303 82.8528529,17.957958 Z M90.5405405,21.6816817 L93.2732733,21.6816817 L90.9009009,10.3003003 L88.3783784,10.3003003 C87.8247888,10.2936682 87.3239143,10.6275846 87.1171171,11.1411411 L82.6726727,21.6816817 L85.7657658,21.6816817 L86.3663664,19.96997 L90.1501502,19.96997 L90.5405405,21.6816817 Z M87.2372372,17.6576577 L88.7987988,13.3933934 L89.6996997,17.6576577 L87.2372372,17.6576577 Z M74.8348348,10.3003003 L72.4024024,21.6816817 L69.4594595,21.6816817 L71.8918919,10.3003003 L74.8348348,10.3003003 Z" id="Shape" fill="#1A1F71"></path>
                <path d="M14.0840841,29.2792793 L14.0840841,27.4774775 C14.1119241,27.1724585 14.0049415,26.8705247 13.7912707,26.651079 C13.5775999,26.4316333 13.2786258,26.3166386 12.972973,26.3363363 C12.5676195,26.3202169 12.1822685,26.5128924 11.951952,26.8468468 C11.751503,26.5112027 11.3813267,26.3145465 10.990991,26.3363363 C10.6485321,26.3214041 10.3214325,26.4793142 10.1201201,26.7567568 L10.1201201,26.3963964 L9.54954955,26.3963964 L9.54954955,29.2792793 L10.1201201,29.2792793 L10.1201201,27.6276276 C10.0960961,27.4274554 10.1631219,27.2270617 10.3027424,27.0816237 C10.4423629,26.9361857 10.6398551,26.8610398 10.8408408,26.8768769 C11.2612613,26.8768769 11.5015015,27.1471471 11.5015015,27.6276276 L11.5015015,29.2792793 L12.0720721,29.2792793 L12.0720721,27.6276276 C12.0480481,27.4274554 12.1150739,27.2270617 12.2546943,27.0816237 C12.3943148,26.9361857 12.591807,26.8610398 12.7927928,26.8768769 C13.2132132,26.8768769 13.4534535,27.1471471 13.4534535,27.6276276 L13.4534535,29.2792793 L14.0840841,29.2792793 Z M23.4534535,26.4264264 L22.4024024,26.4264264 L22.4024024,25.5555556 L21.8318318,25.5555556 L21.8318318,26.4264264 L21.2312312,26.4264264 L21.2312312,26.9369369 L21.8318318,26.9369369 L21.8318318,28.2882883 C21.8318318,28.9489489 22.0720721,29.3393393 22.7927928,29.3393393 C23.0662932,29.3339331 23.3343286,29.2617697 23.5735736,29.1291291 L23.3933934,28.6186186 C23.2315067,28.7198476 23.0437563,28.7720005 22.8528529,28.7687688 C22.7250005,28.7793113 22.5993309,28.7309028 22.5115906,28.6373132 C22.4238504,28.5437236 22.3836419,28.4151954 22.4024024,28.2882883 L22.4024024,26.9069069 L23.4534535,26.9069069 L23.4534535,26.4264264 Z M28.7987988,26.3363363 C28.48281,26.3298169 28.186514,26.489361 28.018018,26.7567568 L28.018018,26.3963964 L27.4474474,26.3963964 L27.4474474,29.2792793 L28.018018,29.2792793 L28.018018,27.6576577 C28.018018,27.1771772 28.2582583,26.8768769 28.6486486,26.8768769 C28.7806228,26.8821577 28.9115804,26.902305 29.039039,26.9369369 L29.2192192,26.3963964 C29.0815687,26.3617105 28.9406554,26.34158 28.7987988,26.3363363 Z M20.7207207,26.6366366 C20.3691533,26.4216501 19.9611886,26.3170438 19.5495495,26.3363363 C18.8288288,26.3363363 18.3783784,26.6666667 18.3783784,27.2372372 C18.3783784,27.7177177 18.7087087,27.987988 19.3393393,28.0780781 L19.6396396,28.1081081 C19.96997,28.1681682 20.1801802,28.2882883 20.1801802,28.4384384 C20.1801802,28.6486486 19.9399399,28.7987988 19.4894895,28.7987988 C19.1450201,28.8059729 18.8076195,28.7005352 18.5285285,28.4984985 L18.2282282,28.9489489 C18.5930513,29.1901734 19.0221455,29.315762 19.4594595,29.3093093 C20.3003003,29.3093093 20.7507508,28.9189189 20.7507508,28.3783784 C20.7507508,27.8378378 20.3903904,27.6276276 19.7597598,27.5375375 L19.4594595,27.5075075 C19.1891892,27.4774775 18.9489489,27.3873874 18.9489489,27.2072072 C18.9489489,27.027027 19.1891892,26.8468468 19.5195195,26.8468468 C19.8337032,26.8605503 20.1411307,26.942531 20.4204204,27.0870871 L20.7207207,26.6366366 Z M29.4594595,27.8378378 C29.4346081,28.2431698 29.5848037,28.6396928 29.8719548,28.926844 C30.159106,29.2139951 30.555629,29.3641907 30.960961,29.3393393 C31.3303728,29.3587621 31.693953,29.2411332 31.981982,29.009009 L31.6816817,28.5585586 C31.469538,28.7315614 31.2046667,28.826915 30.9309309,28.8288288 C30.4296002,28.7891642 30.0429969,28.3707653 30.0429969,27.8678679 C30.0429969,27.3649704 30.4296002,26.9465715 30.9309309,26.9069069 C31.2046667,26.9088207 31.469538,27.0041744 31.6816817,27.1771772 L31.981982,26.7267267 C31.693953,26.4946025 31.3303728,26.3769736 30.960961,26.3963964 C30.5606165,26.3483484 30.159829,26.4824 29.8689531,26.7616409 C29.5780771,27.0408819 29.4277852,27.4358663 29.4594595,27.8378378 Z M25.4054054,26.3363363 C24.5645646,26.3363363 23.993994,26.9369369 23.993994,27.8378378 C23.9679857,28.2381866 24.1135821,28.6306862 24.3943883,28.9172232 C24.6751946,29.2037601 25.064673,29.3572553 25.4654655,29.3393393 C25.8891912,29.3481416 26.3029374,29.2102262 26.6366366,28.9489489 L26.3363363,28.5285285 C26.0951058,28.7154686 25.8005725,28.8206591 25.4954955,28.8288288 C25.0532483,28.8456695 24.6731283,28.5179798 24.6246246,28.0780781 L26.7567568,28.0780781 L26.7567568,27.8378378 C26.7567568,26.9369369 26.2162162,26.3363363 25.4054054,26.3363363 Z M25.4054054,26.8768769 C25.6019348,26.8678193 25.7935663,26.9398337 25.9354907,27.0760811 C26.077415,27.2123285 26.1571879,27.4008623 26.156166,27.5975976 L24.5945946,27.5975976 C24.6219616,27.1758884 24.983396,26.8546134 25.4054054,26.8768769 Z M17.6276276,27.8378378 L17.6276276,26.3963964 L17.0570571,26.3963964 L17.0570571,26.7567568 C16.8340167,26.4730085 16.4864713,26.3160525 16.1261261,26.3363363 C15.2968697,26.3363363 14.6246246,27.0085815 14.6246246,27.8378378 C14.6246246,28.6670942 15.2968697,29.3393393 16.1261261,29.3393393 C16.4864713,29.3596232 16.8340167,29.2026672 17.0570571,28.9189189 L17.0570571,29.2792793 L17.6276276,29.2792793 L17.6276276,27.8378378 Z M15.2852853,27.8378378 C15.317919,27.3494393 15.7345529,26.9764587 16.2235724,26.9978608 C16.7125919,27.0192629 17.0950479,27.427216 17.0848886,27.9165982 C17.0747294,28.4059803 16.6756726,28.7977098 16.1861862,28.7987988 C15.9347389,28.804924 15.6926159,28.7035122 15.5205898,28.5200177 C15.3485636,28.3365231 15.2629673,28.0883676 15.2852853,27.8378378 Z M37.4774775,26.3363363 C37.1614887,26.3298169 36.8651926,26.489361 36.6966967,26.7567568 L36.6966967,26.3963964 L36.1261261,26.3963964 L36.1261261,29.2792793 L36.6966967,29.2792793 L36.6966967,27.6576577 C36.6966967,27.1771772 36.9369369,26.8768769 37.3273273,26.8768769 C37.4593015,26.8821577 37.5902591,26.902305 37.7177177,26.9369369 L37.8978979,26.3963964 C37.7602474,26.3617105 37.619334,26.34158 37.4774775,26.3363363 Z M42.1021021,28.8588589 C42.1444324,28.8543652 42.1869866,28.8650038 42.2222222,28.8888889 C42.2522523,28.8888889 42.2822823,28.9189189 42.3123123,28.9489489 C42.3423423,28.978979 42.3723724,29.009009 42.3723724,29.039039 C42.3723724,29.0690691 42.4024024,29.0990991 42.4024024,29.1591592 C42.406896,29.2014894 42.3962575,29.2440437 42.3723724,29.2792793 C42.3423423,29.3093093 42.3423423,29.3393393 42.3123123,29.3693694 C42.2822823,29.3993994 42.2522523,29.4294294 42.2222222,29.4294294 C42.1921922,29.4294294 42.1621622,29.4594595 42.1021021,29.4594595 C42.0597718,29.4639531 42.0172176,29.4533145 41.981982,29.4294294 C41.951952,29.3993994 41.9219219,29.3993994 41.8918919,29.3693694 C41.8618619,29.3393393 41.8318318,29.3093093 41.8318318,29.2792793 C41.8318318,29.2492492 41.8018018,29.2192192 41.8018018,29.1591592 C41.7973082,29.1168289 41.8079467,29.0742746 41.8318318,29.039039 C41.8618619,29.009009 41.8618619,28.978979 41.8918919,28.9489489 C41.9219219,28.9189189 41.951952,28.8888889 41.981982,28.8888889 C42.012012,28.8888889 42.0720721,28.8588589 42.1021021,28.8588589 Z M42.1021021,29.3693694 C42.1351126,29.3733428 42.1681678,29.3623244 42.1921922,29.3393393 C42.2241341,29.3365463 42.2494592,29.3112212 42.2522523,29.2792793 L42.3123123,29.2192192 C42.3123123,29.1891892 42.3423423,29.1591592 42.3423423,29.1291291 C42.3463158,29.0961186 42.3352974,29.0630634 42.3123123,29.039039 C42.3095193,29.0070971 42.2841942,28.981772 42.2522523,28.978979 L42.1921922,28.9189189 C42.1621622,28.9189189 42.1321321,28.8888889 42.1021021,28.8888889 C42.0690916,28.8849155 42.0360364,28.8959338 42.012012,28.9189189 C41.9800701,28.9217119 41.954745,28.947037 41.951952,28.978979 L41.8918919,29.039039 C41.8918919,29.0690691 41.8618619,29.0990991 41.8618619,29.1291291 C41.8578884,29.1621397 41.8689068,29.1951948 41.8918919,29.2192192 C41.8946849,29.2511612 41.92001,29.2764863 41.951952,29.2792793 L42.012012,29.3393393 C42.0360364,29.3623244 42.0690916,29.3733428 42.1021021,29.3693694 Z M42.1321321,29.039039 C42.1651427,29.0350656 42.1981978,29.046084 42.2222222,29.0690691 C42.2522523,29.0990991 42.2522523,29.0990991 42.2522523,29.1291291 C42.2522523,29.1591592 42.2522523,29.1591592 42.2222222,29.1891892 C42.2060244,29.2054971 42.1849272,29.2160457 42.1621622,29.2192192 L42.2522523,29.3093093 L42.1621622,29.3093093 L42.0720721,29.2192192 L42.042042,29.2192192 L42.042042,29.3093093 L41.981982,29.3093093 L41.981982,29.039039 L42.1321321,29.039039 Z M42.0720721,29.0690691 L42.0720721,29.1291291 L42.1621622,29.1291291 L42.1621622,29.0690691 L42.0720721,29.0690691 Z M35.2552553,27.8378378 L35.2552553,26.3963964 L34.6846847,26.3963964 L34.6846847,26.7567568 C34.4616444,26.4730085 34.1140989,26.3160525 33.7537538,26.3363363 C32.9244974,26.3363363 32.2522523,27.0085815 32.2522523,27.8378378 C32.2522523,28.6670942 32.9244974,29.3393393 33.7537538,29.3393393 C34.1140989,29.3596232 34.4616444,29.2026672 34.6846847,28.9189189 L34.6846847,29.2792793 L35.2552553,29.2792793 L35.2552553,27.8378378 Z M32.9429429,27.8378378 C32.9755767,27.3494393 33.3922105,26.9764587 33.88123,26.9978608 C34.3702495,27.0192629 34.7527055,27.427216 34.7425463,27.9165982 C34.7323871,28.4059803 34.3333303,28.7977098 33.8438438,28.7987988 C33.2732733,28.8288288 32.9429429,28.3783784 32.9429429,27.8378378 Z M41.0810811,27.8378378 L41.0810811,25.2552553 L40.5105105,25.2552553 L40.5105105,26.7567568 C40.2874702,26.4730085 39.9399248,26.3160525 39.5795796,26.3363363 C38.7503232,26.3363363 38.0780781,27.0085815 38.0780781,27.8378378 C38.0780781,28.6670942 38.7503232,29.3393393 39.5795796,29.3393393 C39.9399248,29.3596232 40.2874702,29.2026672 40.5105105,28.9189189 L40.5105105,29.2792793 L41.0810811,29.2792793 L41.0810811,27.8378378 Z M38.7387387,27.8378378 C38.7713725,27.3494393 39.1880063,26.9764587 39.6770258,26.9978608 C40.1660453,27.0192629 40.5485013,27.427216 40.5383421,27.9165982 C40.5281829,28.4059803 40.129126,28.7977098 39.6396396,28.7987988 C39.3881924,28.804924 39.1460693,28.7035122 38.9740432,28.5200177 C38.8020171,28.3365231 38.7164207,28.0883676 38.7387387,27.8378378 Z" id="_Compound_Path_" fill="#FFFFFF"></path>
                <g id="_Group_" transform="translate(7.507508, 2.102102)">
                    <rect id="Rectangle-path" fill="#FF5F00" x="12.5525526" y="2.43243243" width="10.4204204" height="16.996997"></rect>
                    <path d="M13.6336336,10.9309309 C13.6345415,7.61831179 15.1499666,4.48790797 17.7477477,2.43243243 C14.0247921,-0.494756974 8.8300271,-0.658017113 4.93060976,2.02961773 C1.03119241,4.71725257 -0.664972264,9.63001783 0.745631845,14.1509727 C2.15623595,18.6719275 6.34517656,21.7484538 11.0810811,21.7417417 C13.5002454,21.7434444 15.8491974,20.9287178 17.7477477,19.4294294 C15.1499666,17.3739539 13.6345415,14.2435501 13.6336336,10.9309309 Z" id="_Path_" fill="#EB001B"></path>
                    <path d="M34.2042042,17.7072072 L34.2042042,17.2786358 L34.3543544,17.2786358 L34.3543544,17.2072072 L33.993994,17.2072072 L33.993994,17.2786358 L34.1441441,17.2786358 L34.1441441,17.7072072 L34.2042042,17.7072072 Z M34.9249249,17.7072072 L34.9249249,17.2072072 L34.8048048,17.2072072 L34.6846847,17.5643501 L34.5645646,17.2072072 L34.4444444,17.2072072 L34.4444444,17.7072072 L34.5345345,17.7072072 L34.5345345,17.3143501 L34.6546547,17.6357786 L34.7447447,17.6357786 L34.8648649,17.3143501 L34.8648649,17.7072072 L34.9249249,17.7072072 Z" id="Shape" fill="#F79E1B"></path>
                    <path d="M35.2552553,10.9309309 C35.2506555,15.0645155 32.8893908,18.8336445 29.1719848,20.6412491 C25.4545787,22.4488538 21.0318363,21.9784774 17.7777778,19.4294294 C20.3762396,17.3745082 21.8918114,14.2437402 21.8918114,10.9309309 C21.8918114,7.61812168 20.3762396,4.4873537 17.7777778,2.43243243 C21.0318363,-0.116615503 25.4545787,-0.586991935 29.1719848,1.22061272 C32.8893908,3.02821738 35.2506555,6.79734639 35.2552553,10.9309309 Z" id="Shape" fill="#F79E1B"></path>
                </g>
            </g>
        </g>
    </g>
</svg>
