<?xml version="1.0" encoding="UTF-8"?>
<svg width="101px" height="14px" viewBox="0 0 101 14" version="1.1" xmlns="http://www.w3.org/2000/svg" xmlns:xlink="http://www.w3.org/1999/xlink">
    <!-- Generator: Sketch 51.3 (57544) - http://www.bohemiancoding.com/sketch -->
    <title>CIMB_Group_Logo</title>
    <desc>Created with Sketch.</desc>
    <defs></defs>
    <g id="Page-1" stroke="none" stroke-width="1" fill="none" fill-rule="evenodd">
        <g id="m7-withdraw-balance-0-1366-copy" transform="translate(-388.000000, -1066.000000)">
            <g id="CIMB_Group_Logo" transform="translate(388.000000, 1065.000000)">
                <g id="g10" transform="translate(51.500000, 7.872093) scale(-1, 1) rotate(-180.000000) translate(-51.500000, -7.872093) translate(0.000000, 0.872093)">
                    <g id="Group-4" transform="translate(0.000000, -0.000000)" fill-rule="nonzero">
                        <polygon id="path544" fill="#790008" points="14.584956 0.167524797 0.0244355311 0.167524797 0.0244355311 13.5405536 14.584956 13.5405536"></polygon>
                        <g id="g546" transform="translate(0.902226, 5.998963)" fill="#FFFFFF">
                            <polygon id="path548" points="8.83045724 5.0145091 1.08903716 5.0145091 4.51508176 0.853406688 12.2565018 0.853406688"></polygon>
                        </g>
                        <g id="g550" transform="translate(0.961806, 1.838108)" fill="#ED1D24">
                            <polygon id="path552" points="12.1965848 5.0145091 4.45583791 5.0145091 1.02979332 0.855879854 8.77054017 0.855879854"></polygon>
                        </g>
                    </g>
                    <g id="g554" transform="translate(17.506599, 0.835115)" fill="#FFFFFF">
                        <g id="g556-Clipped" transform="translate(0.000000, 0.000000)">
                            <g id="g556" transform="translate(0.131106, 0.247317)">
                                <g id="g562" transform="translate(0.129010, 0.435401)" fill-rule="nonzero">
                                    <path d="M29.9858478,2.54134273 L29.9858478,4.60396349 L31.876265,4.60396349 C32.7554975,4.60396349 33.0698938,4.07408759 33.0698938,3.57883603 C33.0698938,3.07616496 32.7554975,2.54134273 31.876265,2.54134273 L29.9858478,2.54134273 Z M29.9858478,8.12946214 L31.7544112,8.12946214 C32.4969789,8.12946214 32.9379416,7.76899815 32.9379416,7.16616384 C32.9379416,6.56332954 32.4969789,6.20101067 31.7544112,6.20101067 L29.9858478,6.20101067 L29.9858478,8.12946214 Z M34.8613469,7.24035883 C34.8613469,8.76815736 33.7316745,9.71908983 31.9038672,9.71908983 L28.0637889,9.71908983 L28.0637889,0.954806509 L32.0634217,0.954806509 C33.8723786,0.954806509 34.995992,1.92799747 34.995992,3.49351179 C34.995992,4.67073898 34.2413062,5.21421729 33.745139,5.44607663 C34.1699443,5.66000552 34.8613469,6.26036666 34.8613469,7.24035883 Z M17.1925435,9.7357837 L15.3169372,9.7357837 L15.3169372,0.972118673 L17.2342835,0.972118673 L17.2342835,6.20657529 C17.3817199,5.9778074 20.5660765,0.900396849 20.5660765,0.900396849 C20.5660765,0.900396849 23.7302364,5.97657082 23.872287,6.20472042 L23.872287,0.972118673 L25.8037709,0.972118673 L25.8037709,9.7357837 L23.9153734,9.7357837 C23.9153734,9.7357837 20.6347455,4.23422511 20.5660765,4.11922288 C20.4947146,4.23422511 17.1925435,9.7357837 17.1925435,9.7357837 Z M11.0210853,0.954806509 L12.9512228,0.954806509 L12.9512228,9.71908983 L11.0210853,9.71908983 L11.0210853,0.954806509 Z M7.83201608,3.06503571 C7.26852633,2.6538718 6.58991502,2.43561487 5.87023696,2.43561487 C4.13264193,2.43561487 2.77743899,3.71115043 2.77743899,5.33478415 C2.77743899,6.96460078 4.13264193,8.23519001 5.87023696,8.23519001 C6.58991502,8.23519001 7.26852633,8.01816966 7.83066963,7.60515087 L7.85557897,7.58536554 L9.20539611,8.81947556 L9.16836871,8.84544381 C8.25076234,9.57502789 7.07665706,9.97506255 5.87023696,9.97506255 C3.0575008,9.97506255 0.761801829,7.89265646 0.761801829,5.33478415 C0.761801829,2.77691183 3.0575008,0.697597206 5.87023696,0.697597206 C7.07665706,0.697597206 8.25076234,1.09825016 9.16836871,1.82845253 L9.20539611,1.85380248 L7.85557897,3.08482104 L7.83201608,3.06503571 Z" id="path564"></path>
                                </g>
                                <g id="g566" transform="translate(38.170617, 0.498467)">
                                    <path d="M6.81859343,8.75067916 L6.84575914,8.75067916 L6.84575914,0.560217323 L7.82372474,0.560217323 L7.82372474,10.176879 L6.60126775,10.176879 L1.0051313,1.90492001 L0.977965592,1.90492001 L0.977965592,10.176879 L0,10.176879 L0,0.560217323 L1.22245699,0.560217323 L6.81859343,8.75067916 Z M12.1430727,10.176879 L11.1651072,10.176879 L11.1651072,0.560217323 L12.1430727,0.560217323 L12.1430727,10.176879 Z M15.4165409,10.176879 L14.3434953,10.176879 L18.4998491,0.560217323 L19.450649,0.560217323 L23.579837,10.176879 L22.4932086,10.176879 L21.4337458,7.65046787 L16.4624208,7.65046787 L15.4165409,10.176879 Z M16.8291579,6.75399941 L21.0670088,6.75399941 L18.9480833,1.64684576 L16.8291579,6.75399941 Z M32.8297615,2.28523996 C32.4947161,1.93208396 32.0962897,1.65816578 31.6344703,1.46347721 C31.1726509,1.26878864 30.6429248,1.17144582 30.0452762,1.17144582 C29.429517,1.17144582 28.8748893,1.28463515 28.3813764,1.5110172 C27.8878635,1.73739926 27.469063,2.04301045 27.1249623,2.42785995 C26.7808615,2.81270944 26.5159985,3.2586754 26.3303652,3.76577121 C26.1447319,4.27286701 26.0519167,4.80712065 26.0519167,5.36854815 C26.0519167,5.92997565 26.1447319,6.46422929 26.3303652,6.97132509 C26.5159985,7.4784209 26.7808615,7.92212307 27.1249623,8.30244493 C27.469063,8.68276678 27.8878635,8.98611419 28.3813764,9.21249624 C28.8748893,9.4388783 29.429517,9.55206763 30.0452762,9.55206763 C30.5885931,9.55206763 31.0866262,9.49320918 31.5393903,9.37549051 C31.9921544,9.25777184 32.3588878,9.10836192 32.6396016,8.92725628 L32.6396016,6.00694236 L30.3984304,6.00694236 L30.3984304,5.15122246 L33.6175672,5.15122246 L33.6175672,9.48415335 C33.0923608,9.80108823 32.5264141,10.036522 31.9197102,10.1904618 C31.3130063,10.3444016 30.6836736,10.4213704 30.0316933,10.4213704 C29.3072707,10.4213704 28.6371899,10.2945983 28.0214307,10.0410504 C27.4056715,9.78750252 26.8759455,9.4366156 26.4322366,8.98837913 C25.9885278,8.54014266 25.6421684,8.0081528 25.3931482,7.39239361 C25.1441279,6.77663442 25.0196197,6.10202601 25.0196197,5.36854815 C25.0196197,4.63507029 25.1463917,3.96046188 25.3999396,3.34470269 C25.6534875,2.7289435 26.0043744,2.19695365 26.4526109,1.74871717 C26.9008474,1.3004807 27.4305734,0.94959378 28.041805,0.696045877 C28.6530366,0.442497975 29.316326,0.315725925 30.0316933,0.315725925 C30.8013923,0.315725925 31.4714731,0.428915255 32.0419559,0.655297311 C32.6124387,0.881679367 33.1014166,1.19860949 33.5089043,1.60609719 L32.8297615,2.28523996 Z M36.8367039,10.176879 L35.7636583,10.176879 L39.9200121,0.560217323 L40.8708119,0.560217323 L45,10.176879 L43.9133716,10.176879 L42.8539088,7.65046787 L37.8825837,7.65046787 L36.8367039,10.176879 Z M38.2493208,6.75399941 L42.4871717,6.75399941 L40.3682463,1.64684576 L38.2493208,6.75399941 Z" id="NIAGA" transform="translate(22.500000, 5.368548) scale(1, -1) translate(-22.500000, -5.368548) "></path>
                                </g>
                            </g>
                        </g>
                    </g>
                </g>
            </g>
        </g>
    </g>
</svg>