<?xml version="1.0" encoding="UTF-8"?>
<svg width="86px" height="14px" viewBox="0 0 86 14" version="1.1" xmlns="http://www.w3.org/2000/svg" xmlns:xlink="http://www.w3.org/1999/xlink">
    <!-- Generator: Sketch 51.3 (57544) - http://www.bohemiancoding.com/sketch -->
    <title>CIMB_Group_Logo Copy</title>
    <desc>Created with Sketch.</desc>
    <defs></defs>
    <g id="Page-1" stroke="none" stroke-width="1" fill="none" fill-rule="evenodd">
        <g id="m7-withdraw-balance-0-1366-copy" transform="translate(-763.000000, -1283.000000)">
            <g id="CIMB_Group_Logo-Copy" transform="translate(762.000000, 1282.000000)">
                <g id="g10" transform="translate(45.000000, 8.372093) scale(-1, 1) rotate(-180.000000) translate(-45.000000, -8.372093) translate(0.000000, 0.872093)">
                    <g id="Group-4" fill-rule="nonzero">
                        <polygon id="path544" fill="#790008" points="15.584956 1.1675248 1.02443553 1.1675248 1.02443553 14.5405536 15.584956 14.5405536"></polygon>
                        <g id="g546" transform="translate(1.902226, 6.998963)" fill="#FFFFFF">
                            <polygon id="path548" points="8.83045724 5.0145091 1.08903716 5.0145091 4.51508176 0.853406688 12.2565018 0.853406688"></polygon>
                        </g>
                        <g id="g550" transform="translate(1.961806, 2.838108)" fill="#ED1D24">
                            <polygon id="path552" points="12.1965848 5.0145091 4.45583791 5.0145091 1.02979332 0.855879854 8.77054017 0.855879854"></polygon>
                        </g>
                    </g>
                    <g id="g554" transform="translate(19.506599, 1.835115)">
                        <g id="g556-Clipped" transform="translate(0.000000, -0.000000)">
                            <g id="g556" transform="translate(0.131106, 0.247317)">
                                <g id="g562" transform="translate(0.129010, 1.435401)" fill="#790008" fill-rule="nonzero">
                                    <path d="M29.2240459,1.84374553 L29.2240459,3.90636628 L31.1144632,3.90636628 C31.9936957,3.90636628 32.308092,3.37649038 32.308092,2.88123882 C32.308092,2.37856775 31.9936957,1.84374553 31.1144632,1.84374553 L29.2240459,1.84374553 Z M29.2240459,7.43186494 L30.9926093,7.43186494 C31.7351771,7.43186494 32.1761398,7.07140094 32.1761398,6.46856664 C32.1761398,5.86573233 31.7351771,5.50341346 30.9926093,5.50341346 L29.2240459,5.50341346 L29.2240459,7.43186494 Z M34.099545,6.54276163 C34.099545,8.07056015 32.9698726,9.02149262 31.1420654,9.02149262 L27.3019871,9.02149262 L27.3019871,0.257209302 L31.3016198,0.257209302 C33.1105768,0.257209302 34.2341901,1.23040027 34.2341901,2.79591458 C34.2341901,3.97314177 33.4795044,4.51662008 32.9833372,4.74847943 C33.4081424,4.96240832 34.099545,5.56276945 34.099545,6.54276163 Z M16.4307417,9.03818649 L14.5551354,9.03818649 L14.5551354,0.274521467 L16.4724816,0.274521467 L16.4724816,5.50897809 C16.619918,5.2802102 19.8042747,0.202799642 19.8042747,0.202799642 C19.8042747,0.202799642 22.9684345,5.27897361 23.1104851,5.50712321 L23.1104851,0.274521467 L25.0419691,0.274521467 L25.0419691,9.03818649 L23.1535716,9.03818649 C23.1535716,9.03818649 19.8729437,3.53662791 19.8042747,3.42162567 C19.7329128,3.53662791 16.4307417,9.03818649 16.4307417,9.03818649 Z M10.2592835,0.257209302 L12.189421,0.257209302 L12.189421,9.02149262 L10.2592835,9.02149262 L10.2592835,0.257209302 Z M7.07021425,2.36743851 C6.5067245,1.9562746 5.82811319,1.73801767 5.10843513,1.73801767 C3.3708401,1.73801767 2.01563716,3.01355322 2.01563716,4.63718694 C2.01563716,6.26700358 3.3708401,7.5375928 5.10843513,7.5375928 C5.82811319,7.5375928 6.5067245,7.32057245 7.0688678,6.90755367 L7.09377714,6.88776834 L8.44359428,8.12187835 L8.40656688,8.1478466 C7.48896051,8.87743068 6.31485523,9.27746534 5.10843513,9.27746534 C2.29569897,9.27746534 0,7.19505926 0,4.63718694 C0,2.07931462 2.29569897,-3.41060513e-13 5.10843513,-3.41060513e-13 C6.31485523,-3.41060513e-13 7.48896051,0.400652952 8.40656688,1.13085532 L8.44359428,1.15620528 L7.09377714,2.38722384 L7.07021425,2.36743851 Z" id="path564"></path>
                                </g>
                                <g id="g566" transform="translate(37.170617, 0.498467)" fill="#891F26">
                                    <path d="M4.46807177,10.2911943 L3.47163049,10.2911943 L3.47163049,1.37858061 L0.191677942,1.37858061 L0.191677942,0.492855027 L7.74802432,0.492855027 L7.74802432,1.37858061 L4.46807177,1.37858061 L4.46807177,10.2911943 Z M9.33363128,0.492855027 L10.3300726,0.492855027 L10.3300726,4.74156993 L15.672105,4.74156993 L15.672105,0.492855027 L16.6685463,0.492855027 L16.6685463,10.2911943 L15.672105,10.2911943 L15.672105,5.65497444 L10.3300726,5.65497444 L10.3300726,10.2911943 L9.33363128,10.2911943 L9.33363128,0.492855027 Z M19.3197918,10.2911943 L18.2264743,10.2911943 L22.4613497,0.492855027 L23.4301121,0.492855027 L27.6373086,10.2911943 L26.5301516,10.2911943 L25.4506736,7.71705431 L20.3854304,7.71705431 L19.3197918,10.2911943 Z M20.7590959,6.80364981 L25.0770081,6.80364981 L22.918052,1.60001201 L20.7590959,6.80364981 Z M30.1916779,10.2911943 L29.1952367,10.2911943 L29.1952367,0.492855027 L30.1916779,0.492855027 L30.1916779,10.2911943 Z" id="THAI" transform="translate(15.191678, 5.392025) scale(1, -1) translate(-15.191678, -5.392025) "></path>
                                </g>
                            </g>
                        </g>
                    </g>
                </g>
            </g>
        </g>
    </g>
</svg>