<?xml version="1.0" encoding="UTF-8"?>
<svg width="94px" height="42px" viewBox="0 0 94 42" version="1.1" xmlns="http://www.w3.org/2000/svg" xmlns:xlink="http://www.w3.org/1999/xlink">
    <!-- Generator: Sketch 51.3 (57544) - http://www.bohemiancoding.com/sketch -->
    <title>donga</title>
    <desc>Created with Sketch.</desc>
    <defs></defs>
    <g id="Page-1" stroke="none" stroke-width="1" fill="none" fill-rule="evenodd">
        <g id="m7-withdraw-balance-0-1366-copy" transform="translate(-196.000000, -1779.000000)">
            <g id="Group-2" transform="translate(129.000000, 1692.000000)">
                <g id="donga" transform="translate(67.000000, 87.000000)">
                    <g id="#ffffffff" transform="translate(0.000000, 0.064783)" fill-rule="nonzero">
                        <g id="Group-26">
                            <path d="M11.6563887,0.0835699518 L11.6842453,0.0848656099 C11.962164,0.0842177808 12.246561,0.108187457 12.5180014,0.0356305996 C12.8367333,0.000647829083 13.1671261,0.102356995 13.463184,0.208600965 C14.1395176,0.390640937 14.7258029,0.780634045 15.343184,1.09547898 L15.297836,1.13175741 C15.2136182,1.1984838 15.1319917,1.26844935 15.0503653,1.33776706 C14.9570779,1.29306685 14.8637905,1.24771881 14.7705031,1.20172295 C14.5793935,1.34230186 14.4394624,1.54442453 14.2269745,1.6571468 C14.0915782,1.73359063 13.9691385,1.83011716 13.8473467,1.92599586 C13.7294418,2.0270572 13.5603584,1.98883529 13.4204273,2.03029635 C13.3109442,2.10544452 13.231909,2.21687112 13.1178911,2.28683666 C13.053756,2.27971054 12.9915644,2.26286699 12.9293728,2.24861475 C12.6235975,2.46175052 12.2737698,2.58483804 11.9258856,2.70727774 C11.5307099,2.70662991 11.1517298,2.55827705 10.7565541,2.54985527 C10.2875258,2.54337698 9.80294969,2.5148725 9.35853894,2.69172984 C9.4045348,2.44879394 9.63127498,2.29979325 9.75177119,2.09507926 C10.0381116,1.73229497 10.358787,1.39931082 10.6652102,1.05401792 C10.9560855,0.761199173 11.2521433,0.47356306 11.5494969,0.186574776 C11.5656926,0.132157133 11.6013232,0.0978221916 11.6563887,0.0835699518 Z" id="Shape" fill="#E24E00"></path>
                            <path d="M11.0202205,0.330392833 C11.1834735,0.263666437 11.3765265,0.085513439 11.5494969,0.186574776 C11.2521433,0.47356306 10.9560855,0.761199173 10.6652102,1.05401792 C10.5090834,1.12463129 10.3594349,1.20755341 10.2169125,1.30278429 C10.1851688,1.2341144 10.1534252,1.16544452 10.1216816,1.09677464 C10.2220951,1.015796 10.3231564,0.935465196 10.4248656,0.856430048 C10.237643,0.852543074 10.040703,0.831812543 9.87032391,0.925099931 C9.40388697,1.10066161 8.96077188,1.33323225 8.49627843,1.51203308 C8.57272226,1.34294969 8.7852102,1.32221916 8.92967609,1.23281875 C9.4,0.963321847 9.90725017,0.767677464 10.3950655,0.536402481 C10.5790489,0.394527912 10.8375327,0.474210889 11.0202205,0.330392833 Z" id="Shape" fill="#FBD890"></path>
                            <path d="M9.87032391,0.925099931 C10.040703,0.831812543 10.237643,0.852543074 10.4248656,0.856430048 C10.3231564,0.935465196 10.2220951,1.015796 10.1216816,1.09677464 C10.1534252,1.16544452 10.1851688,1.2341144 10.2169125,1.30278429 C10.3594349,1.20755341 10.5090834,1.12463129 10.6652102,1.05401792 C10.358787,1.39931082 10.0381116,1.73229497 9.75177119,2.09507926 C9.58333563,2.09119228 9.42526533,2.15079256 9.26654721,2.19873191 C9.08645072,2.19225362 9.05859407,1.97652653 8.97696761,1.85473467 C8.80788422,1.84696072 8.64722261,1.79837354 8.48785665,1.74589938 C8.35699518,1.7575603 8.2662991,1.87611303 8.15875948,1.94348725 C8.04668504,1.93636113 7.93461061,1.92729152 7.82253618,1.92340455 C7.84197105,1.89878704 7.88019297,1.8489042 7.89898001,1.82363887 C8.10758098,1.7374776 8.28443832,1.58912474 8.49627843,1.51203308 C8.96077188,1.33323225 9.40388697,1.10066161 9.87032391,0.925099931 Z" id="Shape" fill="#FDC771"></path>
                            <path d="M15.0503653,1.33776706 C15.1319917,1.26844935 15.2136182,1.1984838 15.297836,1.13175741 C15.6379462,1.25808408 15.9178084,1.53729841 16.2242316,1.73812543 C16.4593935,1.95255686 16.7288904,2.12876637 16.942674,2.36716747 C16.8305996,2.38854583 16.7301861,2.3276499 16.6297726,2.29007581 C16.6505031,2.41057202 16.6997381,2.52199862 16.7632254,2.62565127 C16.692612,2.6774776 16.609042,2.70533425 16.5235286,2.72023432 C16.1983184,2.75651275 15.9722261,3.03637491 15.6457202,3.07589249 C15.6178635,3.1406754 15.5913025,3.2054583 15.5640937,3.27024121 C15.2654445,3.36028946 15.0056651,3.53390765 14.7795727,3.74574776 C14.8177946,3.83514817 14.8566644,3.92519642 14.8955341,4.01524466 C14.7167333,3.91871813 14.5295107,3.81765679 14.3215575,3.88827016 C13.6044108,3.39786354 12.8140593,3.00722261 11.9731771,2.77918677 C11.9615162,2.76104755 11.9375465,2.72541695 11.9258856,2.70727774 C12.2737698,2.58483804 12.6235975,2.46175052 12.9293728,2.24861475 C12.9915644,2.26286699 13.053756,2.27971054 13.1178911,2.28683666 C13.231909,2.21687112 13.3109442,2.10544452 13.4204273,2.03029635 C13.5603584,1.98883529 13.7294418,2.0270572 13.8473467,1.92599586 C13.9691385,1.83011716 14.0915782,1.73359063 14.2269745,1.6571468 C14.4394624,1.54442453 14.5793935,1.34230186 14.7705031,1.20172295 C14.8637905,1.24771881 14.9570779,1.29306685 15.0503653,1.33776706 Z" id="Shape" fill="#ED6200"></path>
                            <path d="M8.15875948,1.94348725 C8.2662991,1.87611303 8.35699518,1.7575603 8.48785665,1.74589938 C8.64722261,1.79837354 8.80788422,1.84696072 8.97696761,1.85473467 C9.05859407,1.97652653 9.08645072,2.19225362 9.26654721,2.19873191 C9.42526533,2.15079256 9.58333563,2.09119228 9.75177119,2.09507926 C9.63127498,2.29979325 9.4045348,2.44879394 9.35853894,2.69172984 C9.15706409,2.76817367 9.12985527,3.01110958 8.97826327,3.14326671 C8.84869745,3.24951068 8.86230186,3.43738112 8.7495796,3.55334252 C8.56753963,3.76129566 8.45676085,4.01718815 8.29869056,4.24198484 C8.32201241,4.03856651 8.39651275,3.84616127 8.42825637,3.64403859 C8.30905582,3.70493453 8.19179876,3.76712612 8.07389387,3.82931771 C8.07195038,3.75740868 8.07130255,3.68485183 8.07000689,3.6129428 C8.03826327,3.59156444 7.97412819,3.54880772 7.94173673,3.52678153 C7.94562371,3.34668504 8.01623708,3.13873191 7.88991041,2.98454859 C7.83419711,3.08690558 7.8251275,3.26181943 7.6780703,3.27348036 C7.48955203,3.32012405 7.3930255,3.12642316 7.26540317,3.03054445 C7.15008959,2.99880083 7.02829773,3.00851826 6.91104066,2.98649207 C6.80803584,2.91523088 6.80803584,2.77141282 6.76851826,2.66322536 C6.7626878,2.54985527 6.90261888,2.54726396 6.97064094,2.49414197 C7.25633356,2.3075672 7.52,2.08017919 7.82253618,1.92340455 C7.93461061,1.92729152 8.04668504,1.93636113 8.15875948,1.94348725 Z" id="Shape" fill="#FDB854"></path>
                            <path d="M16.6297726,2.29007581 C16.7301861,2.3276499 16.8305996,2.38854583 16.942674,2.36716747 C16.9536871,2.36716747 16.9757133,2.36587181 16.9873742,2.36522398 C17.0404962,2.50709855 17.2056926,2.54143349 17.295093,2.65480358 C17.5710682,2.94827016 17.8949828,3.2054583 18.1243143,3.53649897 C17.8528739,3.46718125 17.6546382,3.7198346 17.4304893,3.82607857 C17.276306,3.96147484 17.048918,3.87013094 16.8927912,3.99710544 C16.6271813,4.16878015 16.3861888,4.38774638 16.0797657,4.48686423 C15.8536733,4.54711234 15.8426602,4.82438318 15.7701034,5.00901447 C15.8873604,4.9137836 15.983887,4.79328739 16.1179876,4.71943487 C16.1082702,4.80494831 16.1639835,4.92868367 16.07847,4.9895796 C15.976113,5.05177119 15.8620951,5.08934528 15.7513163,5.13015851 C15.7292901,5.12951068 15.6858856,5.1275672 15.6638594,5.12627154 C15.2913577,4.6397519 14.8061337,4.25753274 14.3215575,3.88827016 C14.5295107,3.81765679 14.7167333,3.91871813 14.8955341,4.01524466 C14.8566644,3.92519642 14.8177946,3.83514817 14.7795727,3.74574776 C15.0056651,3.53390765 15.2654445,3.36028946 15.5640937,3.27024121 C15.5913025,3.2054583 15.6178635,3.1406754 15.6457202,3.07589249 C15.9722261,3.03637491 16.1983184,2.75651275 16.5235286,2.72023432 C16.609042,2.70533425 16.692612,2.6774776 16.7632254,2.62565127 C16.6997381,2.52199862 16.6505031,2.41057202 16.6297726,2.29007581 Z" id="Shape" fill="#F97300"></path>
                            <path d="M17.4674156,10.1009511 L17.4894418,10.1197381 C17.4959201,10.442357 17.477133,10.7669194 17.5218332,11.0882426 C17.575603,10.8064369 17.5470986,10.5155617 17.6222467,10.237643 C17.6572295,10.2700345 17.7278429,10.3348174 17.7628256,10.3672088 C17.814652,10.5868229 17.7129428,10.7960717 17.6973949,11.0130944 C17.6734252,11.5067402 17.5730117,12.0010338 17.6397381,12.4953274 C17.7129428,12.6197105 17.8418608,12.7272502 17.8185389,12.887264 C17.8101172,13.8389249 17.8224259,14.7912336 17.8185389,15.7435424 C17.8140041,16.0175741 17.8632391,16.3071537 17.7343212,16.5617505 C17.659173,16.7237078 17.6215989,17.0113439 17.8360303,17.0813094 C17.9597657,17.0864921 18.0828532,17.0638181 18.2059407,17.0502136 C17.9189524,17.4460372 17.5930944,17.8133563 17.2354928,18.1469883 C16.9893177,18.4223156 16.6952033,18.6477602 16.3920193,18.8557133 C16.3350103,18.8738525 16.2780014,18.8913439 16.2203446,18.9081875 C16.2488491,18.8459959 16.2780014,18.7838043 16.3071537,18.7222605 C16.1426051,18.7747347 15.9754652,18.8200827 15.805734,18.8511785 C15.8672777,18.7857478 15.9223432,18.7105996 15.998787,18.6620124 C16.0778222,18.6535906 16.1575052,18.6646037 16.2365403,18.6665472 C16.2054445,18.6140731 16.1743487,18.5615989 16.1439008,18.5091247 C16.2041489,18.496816 16.264397,18.4851551 16.3252929,18.4734941 C16.2462578,18.3257891 16.1147484,18.189745 16.1283529,18.011592 C16.1413094,17.4266023 16.135479,16.8416127 16.1341833,16.2572708 C16.1257615,16.0732874 16.2702274,15.9262302 16.2669883,15.7435424 C16.2676361,15.4299931 16.2598622,15.115796 16.305858,14.804838 C16.3525017,14.6681461 16.1950793,14.6137285 16.1153963,14.5418194 C16.9899655,13.2409786 17.5892074,11.6900758 17.4674156,10.1009511 Z" id="Shape" fill="#F97300"></path>
                            <path d="M5.73263956,3.52678153 C6.03323225,3.19314955 6.4128601,2.93401792 6.76851826,2.66322536 C6.80803584,2.77141282 6.80803584,2.91523088 6.91104066,2.98649207 C7.02829773,3.00851826 7.15008959,2.99880083 7.26540317,3.03054445 C7.3930255,3.12642316 7.48955203,3.32012405 7.6780703,3.27348036 C7.8251275,3.26181943 7.83419711,3.08690558 7.88991041,2.98454859 C8.01623708,3.13873191 7.94562371,3.34668504 7.94173673,3.52678153 C7.97412819,3.54880772 8.03826327,3.59156444 8.07000689,3.6129428 C8.07130255,3.68485183 8.07195038,3.75740868 8.07389387,3.82931771 C8.19179876,3.76712612 8.30905582,3.70493453 8.42825637,3.64403859 C8.39651275,3.84616127 8.32201241,4.03856651 8.29869056,4.24198484 C8.13673329,4.47909028 8.08555479,4.78162646 7.86723639,4.98050999 C7.86205376,5.07314955 7.85687112,5.16514128 7.85104066,5.25778084 C7.76099242,5.2389938 7.67094418,5.21955892 7.58089593,5.19947622 C7.55822192,5.11072364 7.53943487,5.02132323 7.5044521,4.93710544 C7.40339076,4.87361819 7.2815989,4.85677464 7.1747071,4.80559614 C7.07558925,4.71295658 7.02441075,4.5730255 6.91168849,4.49528601 C6.79313577,4.521847 6.64413508,4.67473467 6.5489042,4.53026878 C6.25543763,4.22254997 5.94447967,3.76712612 5.45601654,3.85263956 C5.48257753,3.97443143 5.57780841,4.09233632 5.53569952,4.21995865 C5.41196416,4.1564714 5.28887664,4.09104066 5.16643694,4.02625775 C5.35560303,3.86041351 5.50460372,3.64339076 5.73263956,3.52678153 Z" id="Shape" fill="#FEA93D"></path>
                            <path d="M17.4304893,3.82607857 C17.6546382,3.7198346 17.8528739,3.46718125 18.1243143,3.53649897 L18.1962233,3.54815989 C18.23898,3.71206065 18.3957547,3.79886975 18.4961682,3.92454859 C18.9373398,4.47390765 19.4011854,5.02002757 19.7523088,5.62963473 C19.7484218,5.72356995 19.7328739,5.81750517 19.6849345,5.89977946 C19.5670296,5.75337009 19.4607857,5.59724328 19.3364025,5.45601654 C19.3046589,5.52015162 19.2729152,5.5842867 19.2411716,5.64842178 C19.2716196,5.65878704 19.3325155,5.6801654 19.3629635,5.69053067 C19.3027154,5.83758787 19.2470021,5.98594073 19.1958236,6.13623708 C18.8725569,6.18093728 18.546051,6.13688491 18.2221365,6.16603722 C18.212419,6.32993797 18.2014059,6.49383873 18.189745,6.65709166 C17.856113,6.69401792 17.5205376,6.65255686 17.1862578,6.68365265 C17.1745968,6.84625775 17.1622881,7.00886285 17.1499793,7.17211578 C16.8085734,7.15980703 16.5040937,7.34314266 16.1646313,7.34508615 C16.135479,7.48177808 16.101144,7.61717436 16.055796,7.7493315 C16.0681048,7.77006203 16.0914266,7.81152309 16.1030875,7.83225362 C15.9087388,7.84261888 15.6832943,7.80050999 15.5265196,7.94497588 C15.3729841,8.07259821 15.1980703,8.17625086 14.9927085,8.17884218 C15.0302826,8.10758098 15.0685045,8.03696761 15.1073742,7.96635424 C14.9927085,7.86140593 14.8495382,7.73572708 14.6849897,7.8141144 C14.7601378,7.87177119 14.8372295,7.92813232 14.9143212,7.98514128 C14.7938249,8.1658856 14.6053067,7.99291523 14.4478842,7.9767195 C14.3189662,8.00457615 14.1971744,8.05705031 14.0740868,8.10239835 C13.6899242,7.95015851 13.2960441,7.82642316 12.8963336,7.72341833 C12.4137009,7.62430048 11.9336595,7.48501723 11.4380703,7.47789111 C11.613632,7.32500345 11.8526809,7.31075121 12.0658167,7.24467264 C11.8248243,7.16887664 11.5728187,7.14555479 11.325348,7.10279807 C11.4588008,7.06198484 11.5954928,7.03542385 11.7302412,6.99914542 C11.9362509,6.9408408 12.0839559,6.74390076 12.3061613,6.73353549 C12.5452102,6.71669194 12.7862026,6.73029635 13.0252516,6.70891799 C12.8503377,6.69077877 12.674776,6.67782219 12.4998622,6.66097864 C12.7117023,6.50938663 12.989621,6.43682977 13.1049345,6.1789938 C13.5227843,6.17510682 13.8071813,5.8537836 14.1362784,5.64906961 C14.4647278,5.60825637 14.8074294,5.63093039 15.1170917,5.48905582 C15.115796,5.37827705 15.1151482,5.26749828 15.1151482,5.15736733 C15.415093,5.26944176 15.6703377,5.461847 15.9314128,5.64194349 C15.9936044,5.68275672 16.059683,5.71709166 16.1251137,5.75207443 C16.127705,5.49035148 15.8925431,5.32385941 15.7513163,5.13015851 C15.8620951,5.08934528 15.976113,5.05177119 16.07847,4.9895796 C16.1639835,4.92868367 16.1082702,4.80494831 16.1179876,4.71943487 C15.983887,4.79328739 15.8873604,4.9137836 15.7701034,5.00901447 C15.8426602,4.82438318 15.8536733,4.54711234 16.0797657,4.48686423 C16.3861888,4.38774638 16.6271813,4.16878015 16.8927912,3.99710544 C17.048918,3.87013094 17.276306,3.96147484 17.4304893,3.82607857 Z" id="Shape" fill="#FF7F00"></path>
                            <path d="M6.5288215,8.08685045 C6.64413508,8.00716747 6.758153,7.92683666 6.87217092,7.84585803 C6.8384838,8.01105445 6.8138663,8.17884218 6.80544452,8.34792557 C6.83654032,8.35829083 6.90002757,8.38031702 6.93177119,8.39133012 C6.84107512,8.44121296 6.77046175,8.51700896 6.71215713,8.60122674 C6.64478291,9.01195038 6.64413508,9.42850448 6.58518263,9.84052378 C6.4841213,11.5507926 6.72770503,13.2986354 7.42217781,14.8728601 C7.34702963,14.8871123 7.27252929,14.9020124 7.19802895,14.9169125 C7.190255,14.8961819 7.17535493,14.8540731 7.16822881,14.8333425 C7.15073742,14.7879945 7.11640248,14.6966506 7.09955892,14.6513025 C6.97711923,14.7180289 6.94148863,14.8514817 6.90909717,14.9765127 C6.88253618,14.9046037 6.85791868,14.831399 6.83265334,14.75949 C6.65255686,14.7517161 6.46662991,14.7212681 6.32993797,14.5936458 C6.20296347,14.4673191 6.02286699,14.4556582 5.86026189,14.4103101 C5.60177808,14.3040662 5.41325982,14.0825086 5.16578911,13.9581254 C4.99605789,13.9231427 4.82114404,13.9173122 4.65335631,13.8745555 C4.57885596,13.6996416 4.57561682,13.4599449 4.38774638,13.3634183 C4.21348036,13.2701309 4.09492764,13.1120606 3.97896623,12.9572295 C3.96471399,13.0777257 3.95046175,13.1982219 3.93685734,13.3187181 C3.85069607,13.3232529 3.7645348,13.3284356 3.67837354,13.3329704 C3.62978635,12.8334941 3.66088215,12.3301309 3.64792557,11.8293591 C3.63885596,11.844907 3.62006892,11.8766506 3.61099931,11.8928463 C3.54103377,12.0062164 3.46653343,12.1189387 3.42572019,12.246561 C3.35121985,12.4843143 3.27931082,12.724011 3.17889731,12.9526947 C3.08884907,12.8347898 2.98584425,12.7253067 2.9113439,12.5957409 C2.89385252,12.4616402 2.90745693,12.3217092 2.84915231,12.1960303 C2.73902136,12.4493315 2.44749828,12.3916747 2.22658856,12.3605789 C2.1650448,12.2718263 2.12099242,12.1642867 2.03223983,12.0982081 C1.87222605,12.0288904 1.70119917,11.9867815 1.54053756,11.9187595 C1.53017229,11.8300069 1.52239835,11.7406065 1.49713301,11.6544452 C1.37080634,11.6110407 1.21338387,11.6311234 1.11491385,11.5261751 C1.07604411,11.4490834 1.05725706,11.3642178 1.03069607,11.2832391 C0.835699518,11.3020262 0.846064783,11.5093315 0.820799449,11.6570365 C0.778690558,11.5462578 0.73528601,11.4361268 0.691881461,11.3259959 L0.675037905,11.2819435 C0.86226051,10.8537285 0.956843556,10.389235 1.17516196,9.97397657 C1.25160579,9.64876637 1.48028946,9.38315644 1.54507236,9.05600276 C1.56191592,9.05146795 1.5949552,9.04239835 1.61115093,9.03786354 C1.87805651,9.28144728 2.30821502,9.37538249 2.41186768,9.76667126 C2.83230875,9.81266713 3.25598897,9.74723639 3.67578222,9.79711923 C3.68614748,9.9389938 3.69651275,10.0808684 3.70623019,10.2233908 C3.84097864,10.3497174 3.96795314,10.4883529 4.12667126,10.5848794 C4.29316334,10.6380014 4.47325982,10.6172708 4.64623019,10.6341144 C4.81077877,10.9211027 5.16449345,10.7882977 5.43399035,10.825224 C5.52792557,10.9036113 5.59141282,11.0558511 5.72421778,11.0655686 C5.75337009,10.9852378 5.77993108,10.9042591 5.80519642,10.8232805 C5.85896623,11.1633908 5.80843556,11.5093315 5.84212267,11.8513853 C5.86738801,11.8462026 5.91727085,11.8364852 5.94253618,11.8319504 C5.98788422,11.4296485 6.02740179,11.026051 6.08505858,10.6250448 C6.09348036,10.3477739 6.16020675,10.0491247 6.04165403,9.78675396 C6.03388008,9.46283942 6.08829773,9.14216402 6.12716747,8.82148863 C6.147898,8.6180703 6.26385941,8.44574776 6.37852516,8.28379049 C6.41998622,8.28055134 6.46144728,8.27796003 6.50290834,8.27536871 C6.51133012,8.21252929 6.52039972,8.14968987 6.5288215,8.08685045 Z" id="Shape" fill="#FF7F00"></path>
                            <path d="M15.3600276,15.4921847 C15.6340593,15.1941833 15.8782908,14.869621 16.1153963,14.5418194 C16.1950793,14.6137285 16.3525017,14.6681461 16.305858,14.804838 C16.2598622,15.115796 16.2676361,15.4299931 16.2669883,15.7435424 C16.2702274,15.9262302 16.1257615,16.0732874 16.1341833,16.2572708 C16.135479,16.8416127 16.1413094,17.4266023 16.1283529,18.011592 C16.1147484,18.189745 16.2462578,18.3257891 16.3252929,18.4734941 C16.264397,18.4851551 16.2041489,18.496816 16.1439008,18.5091247 C16.1743487,18.5615989 16.2054445,18.6140731 16.2365403,18.6665472 C16.1575052,18.6646037 16.0778222,18.6535906 15.998787,18.6620124 C15.9223432,18.7105996 15.8672777,18.7857478 15.805734,18.8511785 C15.9754652,18.8200827 16.1426051,18.7747347 16.3071537,18.7222605 C16.2780014,18.7838043 16.2488491,18.8459959 16.2203446,18.9081875 C16.2780014,18.8913439 16.3350103,18.8738525 16.3920193,18.8557133 C16.1633356,19.0384011 15.9158649,19.1958236 15.6515507,19.3202068 C15.4889456,19.4096072 15.3328187,19.5113163 15.1669745,19.5942385 C15.4306409,19.6207994 15.6891247,19.5586079 15.9476085,19.5171468 C15.9644521,19.6486561 15.9644521,19.7918263 16.0467264,19.9039008 C16.07847,19.9388835 16.0460786,19.9835837 16.0467264,20.0237491 C16.1030875,20.1442453 16.131592,20.2738112 16.1309442,20.407264 C16.1231702,20.5711647 16.2281185,20.7059132 16.2663405,20.8594487 C16.3019711,21.066754 16.1283529,21.233246 16.1290007,21.4366644 C16.1244659,21.7158787 16.1685183,22.0048105 16.055796,22.2704204 C16.0694004,22.3015162 16.0959614,22.3643556 16.1095658,22.3960992 C16.1141006,22.408408 16.1238181,22.4323777 16.1290007,22.4440386 C15.6282288,22.4965127 15.1397657,22.6500482 14.6318677,22.6539352 L14.5819848,22.692805 C14.3831013,22.7128877 14.179683,22.6973398 13.9879256,22.7595314 C13.6238456,22.7893315 13.254583,22.7517574 12.8950379,22.8249621 C12.4836664,22.8126533 12.0677602,22.8580014 11.6609235,22.7860924 C11.3545003,22.7705445 11.0461337,22.7854445 10.741654,22.7511096 C10.4792833,22.6714266 10.2058994,22.7141833 9.9389938,22.719366 L9.92603722,22.6578222 C10.1592557,22.6902136 10.3950655,22.6921571 10.6302274,22.707705 C10.8381806,22.7413921 10.9891247,22.5548174 11.1847691,22.5217781 C11.4244659,22.4796692 11.6706409,22.5140041 11.9109855,22.4725431 C11.9381943,22.4453343 11.9939076,22.3909166 12.0217643,22.3637078 C12.3553963,22.256816 12.7194762,22.3650034 13.0453343,22.2393246 C12.8082288,22.2017505 12.5678842,22.2023983 12.3281875,22.1965679 C12.3094004,21.1807719 12.3191178,20.1630324 12.3275396,19.1465886 C12.4260096,19.1265059 12.5244797,19.107071 12.6229497,19.0882839 C12.6682977,18.8161957 12.6346106,18.5408684 12.6436802,18.2674845 C12.6313715,18.1320882 12.7486285,18.0452791 12.8211854,17.9481048 C12.7019848,17.9604135 12.5834321,17.9714266 12.4642316,17.9824397 C12.4279531,17.9494004 12.3566919,17.8846175 12.3210613,17.8515782 C12.8483942,17.5930944 13.3394487,17.2698277 13.8078291,16.9167609 C14.3507099,16.4723501 14.918856,16.0441351 15.3600276,15.4921847 Z" id="Shape" fill="#FF7F00"></path>
                            <path d="M5.45601654,3.85263956 C5.94447967,3.76712612 6.25543763,4.22254997 6.5489042,4.53026878 C6.64413508,4.67473467 6.79313577,4.521847 6.91168849,4.49528601 C7.02441075,4.5730255 7.07558925,4.71295658 7.1747071,4.80559614 C7.2815989,4.85677464 7.40339076,4.87361819 7.5044521,4.93710544 C7.53943487,5.02132323 7.55822192,5.11072364 7.58089593,5.19947622 C7.67094418,5.21955892 7.76099242,5.2389938 7.85104066,5.25778084 C7.77718815,5.31284631 7.70139214,5.37244659 7.66964852,5.46249483 C7.54656099,5.75013094 7.42995176,6.03971054 7.30880772,6.32799449 C7.25633356,6.36880772 7.20321158,6.40832529 7.15008959,6.44784287 C7.13065472,6.40055134 7.11186768,6.35390765 7.09372846,6.30726396 C7.04967609,6.38889042 7.00691937,6.47116471 6.96351482,6.55343901 C6.94148863,6.46598208 6.91881461,6.37852516 6.89678842,6.29171606 C6.88124052,6.36945555 6.86634045,6.44719504 6.85079256,6.52558236 C6.69660924,6.32669883 6.52752584,6.12716747 6.30467264,6.00278429 C6.13623708,5.96715369 5.96391454,5.96197105 5.79418332,5.94188835 C5.77410062,5.84795314 5.75466575,5.75466575 5.73458305,5.66073053 C5.60177808,5.64777395 5.46702963,5.64064783 5.33616816,5.61149552 C5.2124328,5.47869056 5.18522398,5.25065472 4.98569263,5.19364576 C4.78551344,5.12821502 4.63586492,4.98698828 4.53674707,4.80430048 C4.45382495,4.86325293 4.37090283,4.92155755 4.28927636,4.98245348 C4.35665059,4.79652653 4.53026878,4.6689042 4.68186079,4.55099931 C4.80753963,4.34693315 5.00901447,4.20441075 5.16643694,4.02625775 C5.28887664,4.09104066 5.41196416,4.1564714 5.53569952,4.21995865 C5.57780841,4.09233632 5.48257753,3.97443143 5.45601654,3.85263956 Z" id="Shape" fill="#FD9D2B"></path>
                            <path d="M10.8647416,4.40782908 C11.226878,4.31389387 11.609745,4.38062026 11.9809511,4.36442453 C13.06153,4.43244659 14.1414611,4.67084769 15.1151482,5.15736733 C15.1151482,5.26749828 15.115796,5.37827705 15.1170917,5.48905582 C14.8074294,5.63093039 14.4647278,5.60825637 14.1362784,5.64906961 C13.8071813,5.8537836 13.5227843,6.17510682 13.1049345,6.1789938 C12.989621,6.43682977 12.7117023,6.50938663 12.4998622,6.66097864 C12.674776,6.67782219 12.8503377,6.69077877 13.0252516,6.70891799 C12.7862026,6.73029635 12.5452102,6.71669194 12.3061613,6.73353549 C12.0839559,6.74390076 11.9362509,6.9408408 11.7302412,6.99914542 C11.5954928,7.03542385 11.4588008,7.06198484 11.325348,7.10279807 C11.5728187,7.14555479 11.8248243,7.16887664 12.0658167,7.24467264 C11.8526809,7.31075121 11.613632,7.32500345 11.4380703,7.47789111 C10.9949552,7.47465196 10.5524879,7.38330806 10.1100207,7.45586492 C9.35335631,7.46946933 8.61612681,7.67094418 7.90157133,7.90286699 C7.58348725,8.07648518 7.23819435,8.19633356 6.93177119,8.39133012 C6.90002757,8.38031702 6.83654032,8.35829083 6.80544452,8.34792557 C6.8138663,8.17884218 6.8384838,8.01105445 6.87217092,7.84585803 C6.94278429,7.43837354 7.06651964,7.04319779 7.22329428,6.66097864 C7.25439008,6.7626878 7.25827705,6.90844935 7.38395589,6.94148863 C7.58478291,6.91233632 7.76811854,6.81904893 7.9410889,6.71604411 C7.92424535,6.6914266 7.89055824,6.64219159 7.87306685,6.61757409 C8.2416816,6.44460372 8.66017919,6.33382495 8.93745003,6.01703653 C9.11689869,5.9140317 9.34169538,5.89200551 9.4913439,5.73523088 C9.70383184,5.51367333 10.0335768,5.48128187 10.2493039,5.26620262 C10.411909,5.06602343 10.6898277,5.15024121 10.9133287,5.10618884 C10.9398897,5.03363198 10.9664507,4.96172295 10.9930117,4.88916609 C11.1135079,4.81984838 11.3408959,4.83733977 11.3545003,4.6643694 C11.2735217,4.53933839 11.075286,4.59958649 10.9450724,4.56395589 C11.2087388,4.52573398 11.5086837,4.62679531 11.7457891,4.48297726 C11.4523225,4.44799449 11.154969,4.46807719 10.8647416,4.40782908 Z" id="Shape" fill="#F67000"></path>
                            <path d="M7.85104066,5.25778084 C8.76253618,4.72526533 9.81720193,4.46742936 10.8647416,4.40782908 C11.154969,4.46807719 11.4523225,4.44799449 11.7457891,4.48297726 C11.5086837,4.62679531 11.2087388,4.52573398 10.9450724,4.56395589 C11.075286,4.59958649 11.2735217,4.53933839 11.3545003,4.6643694 C11.3408959,4.83733977 11.1135079,4.81984838 10.9930117,4.88916609 C10.9664507,4.96172295 10.9398897,5.03363198 10.9133287,5.10618884 C10.6898277,5.15024121 10.411909,5.06602343 10.2493039,5.26620262 C10.0335768,5.48128187 9.70383184,5.51367333 9.4913439,5.73523088 C9.34169538,5.89200551 9.11689869,5.9140317 8.93745003,6.01703653 C8.66017919,6.33382495 8.2416816,6.44460372 7.87306685,6.61757409 C7.89055824,6.64219159 7.92424535,6.6914266 7.9410889,6.71604411 C7.76811854,6.81904893 7.58478291,6.91233632 7.38395589,6.94148863 C7.25827705,6.90844935 7.25439008,6.7626878 7.22329428,6.66097864 C7.25244659,6.55019986 7.27900758,6.43812543 7.30880772,6.32799449 C7.42995176,6.03971054 7.54656099,5.75013094 7.66964852,5.46249483 C7.70139214,5.37244659 7.77718815,5.31284631 7.85104066,5.25778084 Z" id="Shape" fill="#ED6100"></path>
                            <path d="M4.28927636,4.98245348 C4.37090283,4.92155755 4.45382495,4.86325293 4.53674707,4.80430048 C4.63586492,4.98698828 4.78551344,5.12821502 4.98569263,5.19364576 C5.18522398,5.25065472 5.2124328,5.47869056 5.33616816,5.61149552 C5.46702963,5.64064783 5.60177808,5.64777395 5.73458305,5.66073053 C5.75466575,5.75466575 5.77410062,5.84795314 5.79418332,5.94188835 C5.96391454,5.96197105 6.13623708,5.96715369 6.30467264,6.00278429 C6.52752584,6.12716747 6.69660924,6.32669883 6.85079256,6.52558236 C6.86634045,6.44719504 6.88124052,6.36945555 6.89678842,6.29171606 C6.91881461,6.37852516 6.94148863,6.46598208 6.96351482,6.55343901 C7.00691937,6.47116471 7.04967609,6.38889042 7.09372846,6.30726396 C7.11186768,6.35390765 7.13065472,6.40055134 7.15008959,6.44784287 C7.20321158,6.40832529 7.25633356,6.36880772 7.30880772,6.32799449 C7.27900758,6.43812543 7.25244659,6.55019986 7.22329428,6.66097864 C7.06651964,7.04319779 6.94278429,7.43837354 6.87217092,7.84585803 C6.758153,7.92683666 6.64413508,8.00716747 6.5288215,8.08685045 C6.52039972,8.14968987 6.51133012,8.21252929 6.50290834,8.27536871 C6.46144728,8.27796003 6.41998622,8.28055134 6.37852516,8.28379049 C6.26385941,8.44574776 6.147898,8.6180703 6.12716747,8.82148863 C6.08829773,9.14216402 6.03388008,9.46283942 6.04165403,9.78675396 C5.88487939,9.63580979 5.95419711,9.40388697 5.92439697,9.21148174 C5.89265334,8.92643694 5.91144039,8.63944866 5.90366644,8.35375603 C5.91208822,8.2617643 5.82722261,8.20929014 5.77410062,8.1503377 C5.75725706,8.34662991 5.74948312,8.54356995 5.74365265,8.73986216 C5.59594762,8.75217092 5.45601654,8.70487939 5.32256375,8.64851826 C5.14635424,8.75022743 4.94293591,8.75217092 4.74664369,8.73014473 C4.73174363,8.50793935 4.75895245,8.27990351 4.70647829,8.06288077 C4.5373949,7.9054583 4.35665059,7.76099242 4.20246726,7.58866988 C4.09946244,7.44614748 3.91159201,7.53101309 3.76712612,7.5245348 C3.61553411,7.54656099 3.4749552,7.45586492 3.32530669,7.46623019 C3.15751895,7.52712612 3.0428532,7.68843556 2.86081323,7.72147484 C2.88283942,7.46169538 3.11022743,7.32565127 3.26894555,7.15073742 C3.403694,7.01015851 3.27736733,6.82293591 3.25922812,6.66292212 C3.33567195,6.65320469 3.41276361,6.64348725 3.48920744,6.63376981 C3.47689869,6.46209511 3.45098553,6.27552033 3.29161957,6.17769814 C3.60128187,5.76179187 3.90446589,5.33292901 4.28927636,4.98245348 Z" id="Shape" fill="#FE9019"></path>
                            <path d="M15.6638594,5.12627154 C15.6877347,5.1275672 15.7347831,5.12951068 15.7586584,5.13015851 C15.9117413,5.32385941 16.1666452,5.49035148 16.1638364,5.75207443 C16.0929127,5.71709166 16.0212868,5.68275672 15.9538741,5.64194349 C15.911039,5.60696072 15.8696084,5.57133012 15.8281777,5.53505169 C15.8611818,5.51626465 15.9278922,5.47933839 15.9608963,5.46055134 C15.8548618,5.35430737 15.7551473,5.2435286 15.6638594,5.12627154 Z" id="Shape" fill="#F3B158"></path>
                            <path d="M19.2411716,5.64842178 C19.2729152,5.5842867 19.3046589,5.52015162 19.3364025,5.45601654 C19.4607857,5.59724328 19.5670296,5.75337009 19.6849345,5.89977946 C19.7328739,5.81750517 19.7484218,5.72356995 19.7523088,5.62963473 C19.8812267,5.67951757 19.8669745,5.84860096 19.971275,5.93346657 C20.0943625,6.16215024 20.3003722,6.36751206 20.323694,6.63312198 C20.3470159,6.63700896 20.3943074,6.64543074 20.4176292,6.64931771 C20.4914817,6.91039283 20.7201654,7.11251551 20.7706961,7.37942109 C20.7195176,7.5601654 20.5873604,7.69167471 20.4765817,7.83549276 C20.4169814,8.027898 20.407264,8.23131633 20.3709855,8.4289042 C20.0859407,8.50081323 19.797009,8.56170917 19.5015989,8.562357 C19.4070159,8.56883529 19.2340455,8.58114404 19.254776,8.71459683 C19.3564852,8.74180565 19.4607857,8.76124052 19.5644383,8.78261888 C19.5080772,9.04952447 19.2197932,9.04175052 19.0060096,9.0190765 C18.9276223,9.09163336 18.8498828,9.16483804 18.7727912,9.2373949 C18.7345693,9.18362509 18.6956995,9.12920744 18.6581254,9.07543763 C18.2642453,9.33845624 17.8450999,9.58981392 17.5587595,9.97656788 C17.4337285,9.87939352 17.3093453,9.74205376 17.1324879,9.79064094 C16.9796003,9.75112336 16.8804824,9.62026189 16.7554514,9.53410062 C15.9275258,8.94587181 15.0315782,8.44574776 14.0740868,8.10239835 C14.1971744,8.05705031 14.3189662,8.00457615 14.4478842,7.9767195 C14.6053067,7.99291523 14.7938249,8.1658856 14.9143212,7.98514128 C14.8372295,7.92813232 14.7601378,7.87177119 14.6849897,7.8141144 C14.8495382,7.73572708 14.9927085,7.86140593 15.1073742,7.96635424 C15.0685045,8.03696761 15.0302826,8.10758098 14.9927085,8.17884218 C15.1980703,8.17625086 15.3729841,8.07259821 15.5265196,7.94497588 C15.6832943,7.80050999 15.9087388,7.84261888 16.1030875,7.83225362 C16.0914266,7.81152309 16.0681048,7.77006203 16.055796,7.7493315 C16.101144,7.61717436 16.135479,7.48177808 16.1646313,7.34508615 C16.5040937,7.34314266 16.8085734,7.15980703 17.1499793,7.17211578 C17.1622881,7.00886285 17.1745968,6.84625775 17.1862578,6.68365265 C17.5205376,6.65255686 17.856113,6.69401792 18.189745,6.65709166 C18.2014059,6.49383873 18.212419,6.32993797 18.2221365,6.16603722 C18.546051,6.13688491 18.8725569,6.18093728 19.1958236,6.13623708 C19.2470021,5.98594073 19.3027154,5.83758787 19.3629635,5.69053067 C19.3325155,5.6801654 19.2716196,5.65878704 19.2411716,5.64842178 Z" id="Shape" fill="#FF870A"></path>
                            <path d="M2.2207581,7.84780152 C2.52264645,7.25827705 2.92365265,6.72770503 3.29161957,6.17769814 C3.45098553,6.27552033 3.47689869,6.46209511 3.48920744,6.63376981 C3.41276361,6.64348725 3.33567195,6.65320469 3.25922812,6.66292212 C3.27736733,6.82293591 3.403694,7.01015851 3.26894555,7.15073742 C3.11022743,7.32565127 2.88283942,7.46169538 2.86081323,7.72147484 C3.0428532,7.68843556 3.15751895,7.52712612 3.32530669,7.46623019 C3.4749552,7.45586492 3.61553411,7.54656099 3.76712612,7.5245348 C3.91159201,7.53101309 4.09946244,7.44614748 4.20246726,7.58866988 C4.35665059,7.76099242 4.5373949,7.9054583 4.70647829,8.06288077 C4.75895245,8.27990351 4.73174363,8.50793935 4.74664369,8.73014473 C4.94293591,8.75217092 5.14635424,8.75022743 5.32256375,8.64851826 C5.45601654,8.70487939 5.59594762,8.75217092 5.74365265,8.73986216 C5.74948312,8.54356995 5.75725706,8.34662991 5.77410062,8.1503377 C5.82722261,8.20929014 5.91208822,8.2617643 5.90366644,8.35375603 C5.91144039,8.63944866 5.89265334,8.92643694 5.92439697,9.21148174 C5.95419711,9.40388697 5.88487939,9.63580979 6.04165403,9.78675396 C6.16020675,10.0491247 6.09348036,10.3477739 6.08505858,10.6250448 C6.02740179,11.026051 5.98788422,11.4296485 5.94253618,11.8319504 C5.91727085,11.8364852 5.86738801,11.8462026 5.84212267,11.8513853 C5.80843556,11.5093315 5.85896623,11.1633908 5.80519642,10.8232805 C5.77993108,10.9042591 5.75337009,10.9852378 5.72421778,11.0655686 C5.59141282,11.0558511 5.52792557,10.9036113 5.43399035,10.825224 C5.16449345,10.7882977 4.81077877,10.9211027 4.64623019,10.6341144 C4.47325982,10.6172708 4.29316334,10.6380014 4.12667126,10.5848794 C3.96795314,10.4883529 3.84097864,10.3497174 3.70623019,10.2233908 C3.69651275,10.0808684 3.68614748,9.9389938 3.67578222,9.79711923 C3.25598897,9.74723639 2.83230875,9.81266713 2.41186768,9.76667126 C2.30821502,9.37538249 1.87805651,9.28144728 1.61115093,9.03786354 C1.62669883,8.95364576 1.64224673,8.87007581 1.6571468,8.78585803 C1.91044797,8.51765679 1.98365265,8.13155065 2.2207581,7.84780152 Z" id="Shape" fill="#FF8508"></path>
                            <path d="M20.7706961,7.37942109 C20.8788835,7.50250861 20.9494969,7.65086147 21.0078015,7.80245348 C21.1231151,8.09721571 21.3239421,8.36476912 21.3563336,8.68738801 C21.3809511,8.71459683 21.4295382,8.7696623 21.4535079,8.79687112 C21.5603997,9.12078567 21.6860786,9.43822192 21.7897312,9.76278429 C21.7741833,9.99535493 21.7398484,10.233756 21.6089869,10.4326396 C21.597326,10.25643 21.5876085,10.0802205 21.5733563,9.90465886 C21.5144039,9.94288077 21.3984425,9.95195038 21.4094555,10.0471813 C21.3952033,10.2227429 21.396499,10.4015438 21.33949,10.5706272 C21.3142247,10.4203308 21.2947898,10.2687388 21.2772984,10.1177946 C21.0777671,10.2026602 20.8613921,10.2285734 20.6560303,10.2940041 C20.4726947,10.4080221 20.2997243,10.5395314 20.1319366,10.6755755 C20.0561406,10.7371192 20.0613232,10.8453067 20.0354101,10.931468 C19.797009,10.9651551 19.4879945,10.866685 19.3195589,11.0882426 C19.1958236,11.2508477 18.9982357,11.3143349 18.818787,11.3946657 C18.4560028,11.0623294 18.1554101,10.6678015 17.7628256,10.3672088 C17.7278429,10.3348174 17.6572295,10.2700345 17.6222467,10.237643 C17.5781943,10.1974776 17.534142,10.15796 17.4894418,10.1197381 L17.4674156,10.1009511 C17.3436802,10.0115507 17.2218884,9.91696761 17.1324879,9.79064094 C17.3093453,9.74205376 17.4337285,9.87939352 17.5587595,9.97656788 C17.8450999,9.58981392 18.2642453,9.33845624 18.6581254,9.07543763 C18.6956995,9.12920744 18.7345693,9.18362509 18.7727912,9.2373949 C18.8498828,9.16483804 18.9276223,9.09163336 19.0060096,9.0190765 C19.2197932,9.04175052 19.5080772,9.04952447 19.5644383,8.78261888 C19.4607857,8.76124052 19.3564852,8.74180565 19.254776,8.71459683 C19.2340455,8.58114404 19.4070159,8.56883529 19.5015989,8.562357 C19.797009,8.56170917 20.0859407,8.50081323 20.3709855,8.4289042 C20.407264,8.23131633 20.4169814,8.027898 20.4765817,7.83549276 C20.5873604,7.69167471 20.7195176,7.5601654 20.7706961,7.37942109 Z" id="Shape" fill="#FE911A"></path>
                            <path d="M9.77833218,18.853122 C10.0873467,18.8142522 10.3710958,18.6814473 10.6418884,18.5337422 C10.7286975,18.542164 10.8161544,18.5454032 10.9042591,18.5492901 C10.8524328,18.6665472 10.7060234,18.6607167 10.6043143,18.7080083 C10.4527223,18.7436389 10.3289869,18.8401654 10.2311647,18.9580703 C10.3775741,18.9736182 10.5246313,18.9872226 10.6723363,19.000827 C10.5537836,19.7322261 10.6956582,20.4778773 10.5887664,21.210572 C10.5349966,21.5338387 10.5868229,21.8622881 10.5427705,22.1868504 C10.4397657,22.2088766 10.3367609,22.2309028 10.233756,22.2555203 C10.8168022,22.4116471 11.4264094,22.3332598 12.0217643,22.3637078 C11.9939076,22.3909166 11.9381943,22.4453343 11.9109855,22.4725431 C11.6706409,22.5140041 11.4244659,22.4796692 11.1847691,22.5217781 C10.9891247,22.5548174 10.8381806,22.7413921 10.6302274,22.707705 C10.3950655,22.6921571 10.1592557,22.6902136 9.92603722,22.6578222 C9.56584425,22.5878567 9.20500345,22.5230737 8.84221916,22.4673604 L8.83509304,22.4155341 L8.84740179,22.3637078 C8.87007581,22.3436251 8.91607167,22.302164 8.93874569,22.2820813 C9.09681599,22.2917988 9.26006892,22.3455686 9.41684356,22.3105858 C9.54446589,22.2743074 9.50753963,22.1227154 9.51984838,22.0235975 C9.51401792,21.115989 9.51401792,20.2077326 9.51466575,19.3007719 C9.48940041,19.1303928 9.67079256,19.0682012 9.77898001,18.9826878 C9.75954514,18.9587181 9.72132323,18.9107788 9.70253618,18.8868091 C9.72132323,18.8783873 9.75889731,18.8615438 9.77833218,18.853122 Z" id="Shape" fill="#FE911A"></path>
                            <path d="M21.7897312,9.76278429 C21.8933839,9.97138525 21.9322536,10.2091385 22.006754,10.4306961 C22.0404411,10.624397 22.1499242,10.8031978 22.1408546,11.0027292 C22.1078153,11.2845348 22.1473329,11.5663405 22.1959201,11.8442591 C22.1570503,11.8474983 22.0793108,11.8539766 22.0404411,11.8572157 C21.9983322,11.5786492 21.9795451,11.2961957 22.0138801,11.0163336 C21.7243005,11.2281737 21.8182357,11.6194624 21.6323088,11.890255 C21.4820124,11.5760579 21.597326,11.2139214 21.5506823,10.8789938 C21.4833081,11.1219297 21.4392557,11.3700482 21.3777119,11.6149276 C21.3226465,11.6000276 21.2682288,11.5857753 21.214459,11.5721709 C21.1185803,11.6648105 21.0272364,11.7665196 20.9093315,11.8325982 C20.6527912,11.9330117 20.6074431,12.2932047 20.3003722,12.3087526 C20.2841764,12.2038043 20.2692764,12.0982081 20.2530806,11.9932598 C20.0438318,12.1331909 19.9265748,12.3638181 19.7393522,12.5283666 C19.414142,12.1655824 19.1530669,11.7503239 18.818787,11.3946657 C18.9982357,11.3143349 19.1958236,11.2508477 19.3195589,11.0882426 C19.4879945,10.866685 19.797009,10.9651551 20.0354101,10.931468 C20.0613232,10.8453067 20.0561406,10.7371192 20.1319366,10.6755755 C20.2997243,10.5395314 20.4726947,10.4080221 20.6560303,10.2940041 C20.8613921,10.2285734 21.0777671,10.2026602 21.2772984,10.1177946 C21.2947898,10.2687388 21.3142247,10.4203308 21.33949,10.5706272 C21.396499,10.4015438 21.3952033,10.2227429 21.4094555,10.0471813 C21.3984425,9.95195038 21.5144039,9.94288077 21.5733563,9.90465886 C21.5876085,10.0802205 21.597326,10.25643 21.6089869,10.4326396 C21.7398484,10.233756 21.7741833,9.99535493 21.7897312,9.76278429 Z" id="Shape" fill="#FD9C29"></path>
                            <path d="M17.4894418,10.1197381 C17.6577344,10.15796 17.8235881,10.1974776 17.9894418,10.237643 C17.7065149,10.5155617 17.813832,10.8064369 17.611393,11.0882426 C17.4431003,10.7669194 17.513832,10.442357 17.4894418,10.1197381 Z" id="Shape" fill="#DB7A21"></path>
                            <path d="M17.7628256,10.3672088 C18.1554101,10.6678015 18.4560028,11.0623294 18.818787,11.3946657 C19.1530669,11.7503239 19.414142,12.1655824 19.7393522,12.5283666 C19.709552,12.8250724 19.7121433,13.1237216 19.7069607,13.4217229 C19.5054859,14.7296899 18.9749139,15.976113 18.2059407,17.0502136 C18.0828532,17.0638181 17.9597657,17.0864921 17.8360303,17.0813094 C17.6215989,17.0113439 17.659173,16.7237078 17.7343212,16.5617505 C17.8632391,16.3071537 17.8140041,16.0175741 17.8185389,15.7435424 C17.8224259,14.7912336 17.8101172,13.8389249 17.8185389,12.887264 C17.8418608,12.7272502 17.7129428,12.6197105 17.6397381,12.4953274 C17.5730117,12.0010338 17.6734252,11.5067402 17.6973949,11.0130944 C17.7129428,10.7960717 17.814652,10.5868229 17.7628256,10.3672088 Z" id="Shape" fill="#EF6500"></path>
                            <path d="M21.3777119,11.6149276 C21.4392557,11.3700482 21.4833081,11.1219297 21.5506823,10.8789938 C21.597326,11.2139214 21.4820124,11.5760579 21.6323088,11.890255 C21.8182357,11.6194624 21.7243005,11.2281737 22.0138801,11.0163336 C21.9795451,11.2961957 21.9983322,11.5786492 22.0404411,11.8572157 C22.0793108,11.8539766 22.1570503,11.8474983 22.1959201,11.8442591 C22.1473329,11.5663405 22.1078153,11.2845348 22.1408546,11.0027292 C22.2943901,11.3208132 22.3177119,11.6972019 22.3870296,12.0450861 C22.4284907,12.3152309 22.541213,12.5834321 22.5003997,12.8600551 C22.3572295,13.2208959 22.6260786,13.641337 22.3954514,13.9678429 C22.37796,13.8512336 22.3585252,13.7359201 22.3397381,13.6206065 C22.1654721,13.6614197 21.976306,13.6853894 21.8376706,13.8084769 C21.6621089,13.9237905 21.5111647,14.1356306 21.2785941,14.1045348 C21.2228808,14.0131909 21.1658718,13.9224948 21.1095107,13.8324466 C21.0635148,13.8829773 21.0181668,13.9341558 20.9728187,13.9859821 C21.0861888,14.1524742 21.3116334,14.3571881 21.1600414,14.5683804 C21.0719366,14.5139628 20.9844797,14.460193 20.8898966,14.4187319 L20.8646313,14.407071 C20.6430737,13.9684907 20.3852378,13.5512888 20.1306409,13.1321433 C20.1429497,12.9915644 20.1410062,12.8438594 20.0567884,12.7233632 C19.9984838,12.5970365 19.8352309,12.6132323 19.7393522,12.5283666 C19.9265748,12.3638181 20.0438318,12.1331909 20.2530806,11.9932598 C20.2692764,12.0982081 20.2841764,12.2038043 20.3003722,12.3087526 C20.6074431,12.2932047 20.6527912,11.9330117 20.9093315,11.8325982 C21.0272364,11.7665196 21.1185803,11.6648105 21.214459,11.5721709 C21.2682288,11.5857753 21.3226465,11.6000276 21.3777119,11.6149276 Z" id="Shape" fill="#FDAA3F"></path>
                            <path d="M0.820799449,11.6570365 C0.846064783,11.5093315 0.835699518,11.3020262 1.03069607,11.2832391 C1.05725706,11.3642178 1.07604411,11.4490834 1.11491385,11.5261751 C1.21338387,11.6311234 1.37080634,11.6110407 1.49713301,11.6544452 C1.52239835,11.7406065 1.53017229,11.8300069 1.54053756,11.9187595 C1.70119917,11.9867815 1.87222605,12.0288904 2.03223983,12.0982081 C2.12099242,12.1642867 2.1650448,12.2718263 2.22658856,12.3605789 C2.44749828,12.3916747 2.73902136,12.4493315 2.84915231,12.1960303 C2.90745693,12.3217092 2.89385252,12.4616402 2.9113439,12.5957409 C2.98584425,12.7253067 3.08884907,12.8347898 3.17889731,12.9526947 C3.13290145,13.2740179 3.0337836,13.5856237 3.00398346,13.9095382 C2.98066161,13.925734 2.93337009,13.9594211 2.91004824,13.9756168 C2.89773949,14.1848656 2.90097864,14.3941144 2.89190903,14.6033632 C2.85886975,14.5858718 2.79279118,14.5515369 2.7597519,14.5340455 C2.70209511,14.3384011 2.71699518,14.1291523 2.69432116,13.9276775 C2.6729428,14.0371606 2.65221227,14.1466437 2.63148174,14.2567746 C2.35680221,14.2522398 2.12487939,14.0663129 2.06851826,13.7961682 C1.79643005,13.6795589 1.49259821,13.671785 1.22050999,13.5564714 C1.11556168,13.5214886 1.10001378,13.3990489 1.05013094,13.315479 C0.870682288,13.2468091 0.682811854,13.1872088 0.538345968,13.0556995 C0.527332874,13.0952171 0.505306685,13.1749001 0.494293591,13.2150655 C0.42432805,13.0952171 0.356305996,12.9740731 0.29670572,12.8496899 C0.33946244,12.3683529 0.536402481,11.9161682 0.632929014,11.4464921 C0.647829083,11.4166919 0.677629221,11.3564438 0.691881461,11.3259959 C0.73528601,11.4361268 0.778690558,11.5462578 0.820799449,11.6570365 Z" id="Shape" fill="#F87300"></path>
                            <path d="M3.84778047,11.8928463 C3.96436356,12.2951482 3.95255767,12.7058718 3.79612974,13.1062302 C3.57624519,12.8548725 3.794654,12.5860234 3.68249812,12.3320744 C3.61756577,12.3106961 3.48917681,12.2679394 3.42572019,12.246561 C3.51869151,12.1189387 3.68840107,12.0062164 3.84778047,11.8928463 Z" id="Shape" fill="#FFE4B3"></path>
                            <path d="M19.7446956,12.5283666 C19.856391,12.6132323 20.0465751,12.5970365 20.1144979,12.7233632 C20.2126088,12.8438594 20.2148729,12.9915644 20.2005336,13.1321433 C20.0858194,12.9727774 19.9507284,12.8250724 19.8080903,12.68255 C19.7892229,12.9306685 19.768846,13.178787 19.7069607,13.4217229 C19.7129983,13.1237216 19.7099795,12.8250724 19.7446956,12.5283666 Z" id="Shape" fill="#EDA35D"></path>
                            <path d="M0.103004824,13.9231427 C0.146409373,13.5635975 0.212487939,13.2014611 0.29670572,12.8496899 C0.356305996,12.9740731 0.42432805,13.0952171 0.494293591,13.2150655 C0.505306685,13.1749001 0.527332874,13.0952171 0.538345968,13.0556995 C0.682811854,13.1872088 0.870682288,13.2468091 1.05013094,13.315479 C1.10001378,13.3990489 1.11556168,13.5214886 1.22050999,13.5564714 C1.49259821,13.671785 1.79643005,13.6795589 2.06851826,13.7961682 C2.12487939,14.0663129 2.35680221,14.2522398 2.63148174,14.2567746 C2.65221227,14.1466437 2.6729428,14.0371606 2.69432116,13.9276775 C2.71699518,14.1291523 2.70209511,14.3384011 2.7597519,14.5340455 C2.79279118,14.5515369 2.85886975,14.5858718 2.89190903,14.6033632 C2.88737422,15.0056651 2.89320469,15.4086147 2.90292212,15.8109166 C2.95863542,16.2598622 3.06034459,16.7016816 3.17112336,17.1396141 C3.13937974,17.2303101 3.10828394,17.3210062 3.07654032,17.4123501 C2.99167471,17.3922674 2.91199173,17.3579325 2.83749139,17.3132323 C2.67553411,17.2173535 2.46498966,17.2413232 2.3166368,17.1156444 C2.3166368,17.0586354 2.34708477,17.0061613 2.36068918,16.9517436 C2.15079256,16.8636389 1.92275672,16.8318952 1.71221227,16.7463818 C1.33064094,16.5390765 1.0624397,16.1626878 0.659490007,15.9897174 C0.620620262,16.0512612 0.581102688,16.112805 0.542232943,16.1743487 C0.450889042,15.908091 0.411371468,15.6295245 0.364079945,15.3529014 C0.202122674,15.6554376 0.264962095,16.0085045 0.234514128,16.3369538 C0.19110958,16.2760579 0.138635424,16.2138663 0.147057202,16.1335355 C0.137339766,15.3969538 0.144465886,14.6590765 0.103004824,13.9231427 Z" id="Shape" fill="#EB5E00"></path>
                            <path d="M22.5003997,12.8600551 C22.6332047,12.9079945 22.5483391,13.1062302 22.5813784,13.2163611 C22.6500482,13.7093591 22.6364438,14.2088353 22.6908615,14.702481 C22.6753136,15.142357 22.6630048,15.5796416 22.6474569,16.0208132 C22.6234873,15.922991 22.5975741,15.8258167 22.5697174,15.7292901 C22.5198346,16.0130393 22.5418608,16.3026189 22.514652,16.5883115 C22.46153,16.4801241 22.4135906,16.3693453 22.3688904,16.2579187 C22.355286,16.3032667 22.328725,16.3946106 22.3151206,16.4406065 C22.2535768,16.3570365 22.1913853,16.2747622 22.1291937,16.1924879 C21.9970365,16.3972019 21.9452102,16.6381943 21.8584011,16.862991 C21.6757133,16.3388973 21.4917298,15.8154514 21.2792419,15.3023708 C21.2617505,15.3114404 21.2274156,15.3295796 21.2099242,15.3386492 C21.2125155,15.2298139 21.2086285,15.1190351 21.1768849,15.0140868 C21.3777119,14.7828119 21.6452653,14.6260372 21.8519228,14.4005927 C21.9730669,14.2658442 22.1564025,14.2263267 22.3164163,14.157009 C22.3423294,14.0935217 22.3688904,14.0300345 22.3954514,13.9678429 C22.6260786,13.641337 22.3572295,13.2208959 22.5003997,12.8600551 Z" id="Shape" fill="#FCC164"></path>
                            <path d="M3.97896623,12.9572295 C4.09492764,13.1120606 4.21348036,13.2701309 4.38774638,13.3634183 C4.57561682,13.4599449 4.57885596,13.6996416 4.65335631,13.8745555 C4.82114404,13.9173122 4.99605789,13.9231427 5.16578911,13.9581254 C5.41325982,14.0825086 5.60177808,14.3040662 5.86026189,14.4103101 C6.02286699,14.4556582 6.20296347,14.4673191 6.32993797,14.5936458 C6.46662991,14.7212681 6.65255686,14.7517161 6.83265334,14.75949 C6.85791868,14.831399 6.88253618,14.9046037 6.90909717,14.9765127 C7.03866299,15.0257478 7.11575465,14.9408822 7.16822881,14.8333425 C7.17535493,14.8540731 7.190255,14.8961819 7.19802895,14.9169125 C7.27252929,14.9020124 7.34702963,14.8871123 7.42217781,14.8728601 C7.77718815,15.6696899 8.22354238,16.4444935 8.83314955,17.0748312 C9.01389387,17.3469194 9.28403859,17.5393246 9.51984838,17.7589387 C9.84959338,18.0770227 10.2629083,18.2830324 10.6418884,18.5337422 C10.3710958,18.6814473 10.0873467,18.8142522 9.77833218,18.853122 C9.90854583,18.7682564 10.0400551,18.6859821 10.1722123,18.6037078 C10.0109028,18.4799724 9.80748449,18.470255 9.61702274,18.4294418 C9.44923501,18.3931633 9.40583046,18.2027016 9.32549966,18.0763749 C9.00028946,18.0413921 8.74050999,17.814652 8.42048243,17.76153 C8.21123363,17.7330255 8.02854583,17.6235424 7.89185389,17.4654721 C7.89962784,17.4395589 7.91582357,17.3864369 7.92424535,17.3605238 C7.64956582,17.245858 7.36257753,17.1525706 7.11510682,16.9828394 C6.89808408,16.8325431 6.64866988,16.7444383 6.40443832,16.6505031 C6.27875948,16.609042 6.28977257,16.4231151 6.16150241,16.3848932 C5.94188835,16.3084493 5.71190903,16.2358925 5.56096485,16.0460786 C5.52792557,16.0570917 5.49488629,16.0681048 5.461847,16.0797657 C5.2590765,15.8070296 4.92544452,15.7195727 4.62679531,15.5964852 C4.56071675,15.7001378 4.49269469,15.8024948 4.42143349,15.9029083 C4.03208822,15.097009 3.76,14.2256788 3.67837354,13.3329704 C3.7645348,13.3284356 3.85069607,13.3232529 3.93685734,13.3187181 C3.95046175,13.1982219 3.96471399,13.0777257 3.97896623,12.9572295 Z" id="Shape" fill="#F77200"></path>
                            <path d="M21.8376706,13.8084769 C21.976306,13.6853894 22.1654721,13.6614197 22.3397381,13.6206065 C22.3585252,13.7359201 22.37796,13.8512336 22.3954514,13.9678429 C22.3688904,14.0300345 22.3423294,14.0935217 22.3164163,14.157009 C22.1564025,14.2263267 21.9730669,14.2658442 21.8519228,14.4005927 C21.6452653,14.6260372 21.3777119,14.7828119 21.1768849,15.0140868 C21.0680496,14.8223294 20.9501447,14.6331633 20.8898966,14.4187319 C20.9844797,14.460193 21.0719366,14.5139628 21.1600414,14.5683804 C21.3116334,14.3571881 21.0861888,14.1524742 20.9728187,13.9859821 C21.0181668,13.9341558 21.0635148,13.8829773 21.1095107,13.8324466 C21.1658718,13.9224948 21.2228808,14.0131909 21.2785941,14.1045348 C21.5111647,14.1356306 21.6621089,13.9237905 21.8376706,13.8084769 Z" id="Shape" fill="#FEB754"></path>
                            <path d="M0.0427567195,16.1257615 C0.0123087526,15.3917712 0.00583046175,14.6525982 0.103004824,13.9231427 C0.144465886,14.6590765 0.137339766,15.3969538 0.147057202,16.1335355 C0.138635424,16.2138663 0.19110958,16.2760579 0.234514128,16.3369538 C0.264962095,16.0085045 0.202122674,15.6554376 0.364079945,15.3529014 C0.411371468,15.6295245 0.450889042,15.908091 0.542232943,16.1743487 C0.581102688,16.112805 0.620620262,16.0512612 0.659490007,15.9897174 C1.0624397,16.1626878 1.33064094,16.5390765 1.71221227,16.7463818 C1.92275672,16.8318952 2.15079256,16.8636389 2.36068918,16.9517436 C2.34708477,17.0061613 2.3166368,17.0586354 2.3166368,17.1156444 C2.46498966,17.2413232 2.67553411,17.2173535 2.83749139,17.3132323 C2.91199173,17.3579325 2.99167471,17.3922674 3.07654032,17.4123501 C3.10828394,17.3210062 3.13937974,17.2303101 3.17112336,17.1396141 C3.18796692,17.204397 3.20610613,17.268532 3.22424535,17.333315 C3.23266713,17.3223019 3.24951068,17.3002757 3.25793246,17.2892626 C3.48920744,17.9895658 3.80210889,18.7131909 4.37802895,19.1977671 C4.17072364,19.2541282 3.95564438,19.2100758 3.75028256,19.1686147 C3.45940731,19.1025362 3.16205376,19.0753274 2.8711785,19.0098966 C2.34384562,18.9172571 1.83465196,18.7488215 1.31703653,18.6173122 C1.16674018,18.5790903 1.00996554,18.5570641 0.870682288,18.4858029 C0.320675396,17.8282564 0.150296347,16.9536871 0.0427567195,16.1257615 Z" id="Shape" fill="#E04B00"></path>
                            <path d="M21.2099242,15.3386492 C21.2274156,15.3295796 21.2617505,15.3114404 21.2792419,15.3023708 C21.4917298,15.8154514 21.6757133,16.3388973 21.8584011,16.862991 C22.0177671,17.3935631 22.1674156,17.9273742 22.27949,18.470255 C22.3054032,18.5758511 22.3125293,18.6859821 22.2768987,18.7915782 C21.9886147,19.4679118 21.4269469,19.9829359 20.8633356,20.4312336 C20.8490834,20.4344728 20.8212267,20.4409511 20.8076223,20.4441902 C20.7681048,20.3191592 20.6650999,20.2407719 20.5620951,20.1708063 C20.5335906,19.8488353 20.5808822,19.5301034 20.6242867,19.2120193 C20.6255824,18.8317436 20.5128601,18.4592419 20.524521,18.0770227 C20.509621,17.7155341 20.6404824,17.3611716 20.5873604,16.999683 C20.5420124,16.9614611 20.452612,16.8843694 20.407264,16.8454997 C20.7648656,16.3978498 21.0615713,15.8957822 21.2099242,15.3386492 Z" id="Shape" fill="#E04B00"></path>
                            <path d="M2.91714571,13.9756168 C2.94886858,13.9594211 3.0131955,13.925734 3.04491837,13.9095382 C2.8704426,14.7834597 2.90216547,15.6774638 3.17004746,16.5397243 C3.24318629,16.7891385 3.30486964,17.041144 3.39034515,17.2892626 C3.37888967,17.3002757 3.35597871,17.3223019 3.34452323,17.333315 C3.31984989,17.268532 3.29517654,17.204397 3.27226559,17.1396141 C3.12158197,16.7016816 2.98323502,16.2598622 2.90745261,15.8109166 C2.89423475,15.4086147 2.88630404,15.0056651 2.89247237,14.6033632 C2.90480904,14.3941144 2.90040309,14.1848656 2.91714571,13.9756168 Z" id="Shape" fill="#F7A774"></path>
                            <path d="M6.90909717,15.1301859 C6.97159717,14.9460734 7.04034717,14.7495595 7.27659717,14.6513025 C7.30909717,14.7180791 7.37534717,14.8525862 7.40909717,14.9193627 C7.30784717,15.0777186 7.15909717,15.2026861 6.90909717,15.1301859 Z" id="Shape" fill="#EB8116"></path>
                            <path d="M4.62679531,15.5964852 C4.92544452,15.7195727 5.2590765,15.8070296 5.461847,16.0797657 C5.49488629,16.0681048 5.52792557,16.0570917 5.56096485,16.0460786 C5.71190903,16.2358925 5.94188835,16.3084493 6.16150241,16.3848932 C6.28977257,16.4231151 6.27875948,16.609042 6.40443832,16.6505031 C6.64866988,16.7444383 6.89808408,16.8325431 7.11510682,16.9828394 C7.36257753,17.1525706 7.64956582,17.245858 7.92424535,17.3605238 C7.91582357,17.3864369 7.89962784,17.4395589 7.89185389,17.4654721 C8.02854583,17.6235424 8.21123363,17.7330255 8.42048243,17.76153 C8.74050999,17.814652 9.00028946,18.0413921 9.32549966,18.0763749 C9.40583046,18.2027016 9.44923501,18.3931633 9.61702274,18.4294418 C9.80748449,18.470255 10.0109028,18.4799724 10.1722123,18.6037078 C10.0400551,18.6859821 9.90854583,18.7682564 9.77833218,18.853122 C9.75889731,18.8615438 9.72132323,18.8783873 9.70253618,18.8868091 C8.98150241,19.0902274 8.23779462,19.1932323 7.49732598,19.2988284 C7.47141282,19.2871675 7.41893866,19.2638456 7.39237767,19.2515369 C6.0610889,18.5071813 5.0854583,17.2542798 4.42143349,15.9029083 C4.49269469,15.8024948 4.56071675,15.7001378 4.62679531,15.5964852 Z" id="Shape" fill="#EF6400"></path>
                            <path d="M22.514652,16.5883115 C22.5418608,16.3026189 22.5198346,16.0130393 22.5697174,15.7292901 C22.5975741,15.8258167 22.6234873,15.922991 22.6474569,16.0208132 C22.65847,16.6900207 22.5204824,17.3462715 22.4369125,18.0057615 C22.2814335,18.2383322 22.4440386,18.5849207 22.2768987,18.7915782 C22.3125293,18.6859821 22.3054032,18.5758511 22.27949,18.470255 C22.1674156,17.9273742 22.0177671,17.3935631 21.8584011,16.862991 C21.9452102,16.6381943 21.9970365,16.3972019 22.1291937,16.1924879 C22.1913853,16.2747622 22.2535768,16.3570365 22.3151206,16.4406065 C22.328725,16.3946106 22.355286,16.3032667 22.3688904,16.2579187 C22.4135906,16.3693453 22.46153,16.4801241 22.514652,16.5883115 Z" id="Shape" fill="#FCD485"></path>
                            <path d="M18.8343349,18.2875672 C19.4264507,17.890448 19.9680358,17.409111 20.407264,16.8454997 C20.452612,16.8843694 20.5420124,16.9614611 20.5873604,16.999683 C20.6404824,17.3611716 20.509621,17.7155341 20.524521,18.0770227 C20.5128601,18.4592419 20.6255824,18.8317436 20.6242867,19.2120193 C20.5808822,19.5301034 20.5335906,19.8488353 20.5620951,20.1708063 C20.6650999,20.2407719 20.7681048,20.3191592 20.8076223,20.4441902 C20.6489042,20.6249345 20.4027292,20.7123915 20.2206892,20.8749966 C20.0030186,20.9365403 19.8468918,21.115989 19.6350517,21.191785 C19.5145555,21.237133 19.4018332,21.3012681 19.2936458,21.3705858 L19.2236802,21.3258856 C19.156306,21.1807719 19.0967057,21.0265886 19.099297,20.8639835 C19.0967057,20.4092074 19.1044797,19.9537836 19.0960579,19.4983598 C19.0824535,19.3169676 19.1796278,19.148532 19.160193,18.9677877 C19.17898,18.8123088 19.2975327,18.6548863 19.1984149,18.5019986 C19.1427016,18.3504066 18.9632529,18.3393935 18.8343349,18.2875672 Z" id="Shape" fill="#E75700"></path>
                            <path d="M11.2871261,18.3478153 C11.6330669,18.1852102 11.9893728,18.0426878 12.3210613,17.8515782 C12.3566919,17.8846175 12.4279531,17.9494004 12.4642316,17.9824397 C12.5834321,17.9714266 12.7019848,17.9604135 12.8211854,17.9481048 C12.7486285,18.0452791 12.6313715,18.1320882 12.6436802,18.2674845 C12.6346106,18.5408684 12.6682977,18.8161957 12.6229497,19.0882839 C12.5244797,19.107071 12.4260096,19.1265059 12.3275396,19.1465886 C12.3191178,20.1630324 12.3094004,21.1807719 12.3281875,22.1965679 C12.5678842,22.2023983 12.8082288,22.2017505 13.0453343,22.2393246 C12.7194762,22.3650034 12.3553963,22.256816 12.0217643,22.3637078 C11.4264094,22.3332598 10.8168022,22.4116471 10.233756,22.2555203 C10.3367609,22.2309028 10.4397657,22.2088766 10.5427705,22.1868504 C10.5868229,21.8622881 10.5349966,21.5338387 10.5887664,21.210572 C10.6956582,20.4778773 10.5537836,19.7322261 10.6723363,19.000827 C10.5246313,18.9872226 10.3775741,18.9736182 10.2311647,18.9580703 C10.3289869,18.8401654 10.4527223,18.7436389 10.6043143,18.7080083 C10.7060234,18.6607167 10.8524328,18.6665472 10.9042591,18.5492901 C10.9794073,18.4125982 11.1620951,18.4177808 11.2871261,18.3478153 Z" id="Shape" fill="#FE890E"></path>
                            <path d="M16.2786492,19.4394073 C17.1907926,19.2178498 18.0614748,18.818787 18.8343349,18.2875672 C18.9632529,18.3393935 19.1427016,18.3504066 19.1984149,18.5019986 C19.2975327,18.6548863 19.17898,18.8123088 19.160193,18.9677877 C19.1796278,19.148532 19.0824535,19.3169676 19.0960579,19.4983598 C19.1044797,19.9537836 19.0967057,20.4092074 19.099297,20.8639835 C19.0967057,21.0265886 19.156306,21.1807719 19.2236802,21.3258856 L19.2502412,21.3880772 C18.515603,21.7042178 17.7589387,22.002867 16.9867264,22.2049897 C16.9562784,22.1907374 16.8953825,22.1609373 16.8649345,22.1460372 C16.9167609,22.1104066 16.9685872,22.0754238 17.0210613,22.0410889 C16.965348,21.9976844 16.9096347,21.9549276 16.8539214,21.9128187 C16.9582219,21.904397 17.0625224,21.896623 17.1674707,21.8888491 C17.1078704,21.8538663 17.0482702,21.8188835 16.9886699,21.7845486 C17.1266575,21.7670572 17.2750103,21.7592833 17.3812543,21.6569263 C17.3223019,21.6128739 17.2639972,21.5688215 17.2056926,21.5260648 C17.1441489,21.028532 17.2095796,20.5271123 17.1590489,20.0295796 C17.0294831,20.0140317 16.9005651,19.997836 16.772295,19.9790489 C16.8422605,19.8883529 16.9349001,19.8216265 17.0301309,19.7613784 C17.0042178,19.7127912 16.9783046,19.6654997 16.9530393,19.6175603 C16.9737698,19.5741558 16.9945003,19.5307512 17.0152309,19.4873467 C16.7748863,19.4199724 16.5241764,19.4445899 16.2786492,19.4394073 Z" id="Shape" fill="#F26800"></path>
                            <path d="M1.10584425,18.6684907 C1.15896623,18.6555341 1.26391454,18.6302688 1.31703653,18.6173122 C1.83465196,18.7488215 2.34384562,18.9172571 2.8711785,19.0098966 C2.80509993,19.0623708 2.73902136,19.1161406 2.6729428,19.1699104 C2.85627843,19.2690283 3.04090972,19.3707374 3.1963887,19.5119642 C3.03767057,19.5767471 2.86340455,19.5741558 2.69496899,19.5897037 C2.68589938,19.6240386 2.66776017,19.6927085 2.65869056,19.7276912 C2.54726396,19.6914128 2.43583735,19.6551344 2.32505858,19.6175603 C2.1540317,19.5709166 2.0737009,19.387581 1.91303928,19.3208546 C1.7530255,19.254776 1.64937285,19.1187319 1.5547898,18.9807443 C1.40190214,18.8816265 1.26132323,18.7643694 1.10584425,18.6684907 Z" id="Shape" fill="#FDD485"></path>
                            <path d="M7.49732598,19.2988284 C8.23779462,19.1932323 8.98150241,19.0902274 9.70253618,18.8868091 C9.72132323,18.9107788 9.75954514,18.9587181 9.77898001,18.9826878 C9.67079256,19.0682012 9.48940041,19.1303928 9.51466575,19.3007719 C9.51401792,20.2077326 9.51401792,21.115989 9.51984838,22.0235975 C9.50753963,22.1227154 9.54446589,22.2743074 9.41684356,22.3105858 C9.26006892,22.3455686 9.09681599,22.2917988 8.93874569,22.2820813 C8.91607167,22.302164 8.87007581,22.3436251 8.84740179,22.3637078 L8.79687112,22.3863818 C8.46064783,22.4544039 8.15616816,22.260703 7.83031013,22.2250724 C7.58089593,22.203694 7.36970365,22.0488629 7.12028946,22.0300758 C7.01598897,22.0125844 6.89937974,22.021654 6.8093315,21.957519 C6.93306685,21.9627016 7.05809786,21.9711234 7.18118539,21.9510407 C7.34314266,21.8668229 7.47918677,21.7430875 7.61976568,21.6284218 C7.46104755,21.5752998 7.29844245,21.5338387 7.13648518,21.4930255 C7.13713301,21.4567471 7.13713301,21.3854859 7.13778084,21.3498553 C7.27317712,21.3265334 7.4085734,21.3025637 7.54461751,21.2792419 C7.53878704,21.009745 7.51676085,20.7408959 7.51805651,20.471399 C7.49732598,20.194776 7.73702274,19.9680358 7.63725706,19.6849345 C7.47918677,19.6933563 7.33277739,19.7549001 7.18248105,19.797009 C7.08271537,19.7717436 7.00886285,19.6927085 6.92723639,19.6356995 C7.12093728,19.5281599 7.34897312,19.4750379 7.49732598,19.2988284 Z" id="Shape" fill="#FE9A26"></path>
                            <path d="M2.8711785,19.0098966 C3.16205376,19.0753274 3.45940731,19.1025362 3.75028256,19.1686147 C3.95564438,19.2100758 4.17072364,19.2541282 4.37802895,19.1977671 C4.68769125,19.36102 5.06213646,19.2644935 5.39771192,19.3409373 C5.25778084,19.3739766 5.11784976,19.4121985 4.97338387,19.4212681 C4.6799173,19.4251551 4.37543763,19.410255 4.09816678,19.5236251 C4.22967609,19.6195038 4.35405927,19.7250999 4.45771192,19.8514266 C4.26401103,19.9162095 4.03662302,20.0049621 4.01977946,20.2420675 C4.18303239,20.2802895 4.37608546,20.2686285 4.49787733,20.403377 C4.38450724,20.4688077 4.26854583,20.5309993 4.1519366,20.5918952 C4.2167195,20.6728739 4.28085458,20.7545003 4.34628532,20.835479 C4.12148863,20.8218746 3.95888353,20.6216954 3.74639559,20.5562646 L3.72113025,20.5232254 C3.59804273,20.3146244 3.33502412,20.2692764 3.17436251,20.100193 C3.11281875,20.0211578 3.07006203,19.9291661 3.00527912,19.8533701 C2.89644383,19.7944176 2.77465196,19.766561 2.65869056,19.7276912 C2.66776017,19.6927085 2.68589938,19.6240386 2.69496899,19.5897037 C2.86340455,19.5741558 3.03767057,19.5767471 3.1963887,19.5119642 C3.04090972,19.3707374 2.85627843,19.2690283 2.6729428,19.1699104 C2.73902136,19.1161406 2.80509993,19.0623708 2.8711785,19.0098966 Z" id="Shape" fill="#FCC56C"></path>
                            <path d="M7.39237767,19.2515369 C7.41893866,19.2638456 7.47141282,19.2871675 7.49732598,19.2988284 C7.34897312,19.4750379 7.12093728,19.5281599 6.92723639,19.6356995 C7.00886285,19.6927085 7.08271537,19.7717436 7.18248105,19.797009 C7.33277739,19.7549001 7.47918677,19.6933563 7.63725706,19.6849345 C7.73702274,19.9680358 7.49732598,20.194776 7.51805651,20.471399 C7.51676085,20.7408959 7.53878704,21.009745 7.54461751,21.2792419 C7.4085734,21.3025637 7.27317712,21.3265334 7.13778084,21.3498553 C7.13713301,21.3854859 7.13713301,21.4567471 7.13648518,21.4930255 C7.29844245,21.5338387 7.46104755,21.5752998 7.61976568,21.6284218 C7.47918677,21.7430875 7.34314266,21.8668229 7.18118539,21.9510407 C7.05809786,21.9711234 6.93306685,21.9627016 6.8093315,21.957519 C6.73094418,21.8538663 6.58777395,21.8752447 6.48476912,21.8111096 C6.35844245,21.7424397 6.22175052,21.695796 6.08441075,21.6543349 C6.11680221,21.6439697 6.18158511,21.6245348 6.21397657,21.6148174 C6.10060648,21.4437905 5.81620951,21.513756 5.74818746,21.3245899 C5.90884907,21.3064507 6.07469331,21.294142 6.21980703,21.2157547 C6.09607167,21.191785 5.97233632,21.1704066 5.84860096,21.1516196 C5.83629221,21.0194624 5.79159201,20.8775879 5.85961406,20.7538525 C5.969745,20.5491385 5.95549276,20.3107374 6.03971054,20.0988973 C5.94447967,20.0678015 5.84924879,20.0367057 5.75337009,20.0069056 C5.8693315,19.9570227 6.0565541,19.9796968 6.09477602,19.8319917 C5.81037905,19.8132047 5.50460372,19.9609097 5.24547209,19.7879394 C5.51367333,19.7646175 5.79288766,19.7561957 6.03323225,19.618856 C5.69765679,19.4782771 5.33422467,19.4316334 4.97338387,19.4212681 C5.11784976,19.4121985 5.25778084,19.3739766 5.39771192,19.3409373 C5.71514817,19.3422329 6.03323225,19.3623156 6.35131633,19.3500069 C6.69920055,19.3338112 7.05939352,19.3759201 7.39237767,19.2515369 Z" id="Shape" fill="#FEA83A"></path>
                            <path d="M15.6515507,19.3212107 C15.6593246,19.3212107 15.6748725,19.3200609 15.6826465,19.3189111 C15.7286423,19.6741932 16.0078567,19.466083 16.1516747,19.5718627 C16.0843005,19.6086557 16.0169263,19.6454487 15.9476085,19.6707438 C15.6891247,19.7443297 15.4306409,19.8547086 15.1669745,19.8075677 C15.3328187,19.6603958 15.4889456,19.4798803 15.6515507,19.3212107 Z" id="Shape" fill="#FFF7CB"></path>
                            <path d="M4.09816678,19.5236251 C4.37543763,19.410255 4.6799173,19.4251551 4.97338387,19.4212681 C5.33422467,19.4316334 5.69765679,19.4782771 6.03323225,19.618856 C5.79288766,19.7561957 5.51367333,19.7646175 5.24547209,19.7879394 C5.50460372,19.9609097 5.81037905,19.8132047 6.09477602,19.8319917 C6.0565541,19.9796968 5.8693315,19.9570227 5.75337009,20.0069056 C5.84924879,20.0367057 5.94447967,20.0678015 6.03971054,20.0988973 C5.95549276,20.3107374 5.969745,20.5491385 5.85961406,20.7538525 C5.79159201,20.8775879 5.83629221,21.0194624 5.84860096,21.1516196 C5.97233632,21.1704066 6.09607167,21.191785 6.21980703,21.2157547 C6.07469331,21.294142 5.90884907,21.3064507 5.74818746,21.3245899 C5.81620951,21.513756 6.10060648,21.4437905 6.21397657,21.6148174 C6.18158511,21.6245348 6.11680221,21.6439697 6.08441075,21.6543349 C5.74948312,21.5578084 5.44694693,21.3796554 5.12303239,21.2552722 C5.10942798,21.2423156 5.08221916,21.2157547 5.06861475,21.2027981 C4.98763611,21.0991454 4.90730531,20.9941971 4.82373535,20.8924879 C4.71425224,20.9125706 4.6041213,20.9320055 4.49463818,20.9507926 C4.43698139,20.9242316 4.38580289,20.884714 4.34628532,20.835479 C4.28085458,20.7545003 4.2167195,20.6728739 4.1519366,20.5918952 C4.26854583,20.5309993 4.38450724,20.4688077 4.49787733,20.403377 C4.37608546,20.2686285 4.18303239,20.2802895 4.01977946,20.2420675 C4.03662302,20.0049621 4.26401103,19.9162095 4.45771192,19.8514266 C4.35405927,19.7250999 4.22967609,19.6195038 4.09816678,19.5236251 Z" id="Shape" fill="#FEB652"></path>
                            <path d="M16.1516747,19.4614335 C16.1834183,19.4562509 16.2469056,19.4445899 16.2786492,19.4394073 C16.5241764,19.4445899 16.7748863,19.4199724 17.0152309,19.4873467 C16.9945003,19.5307512 16.9737698,19.5741558 16.9530393,19.6175603 C16.9783046,19.6654997 17.0042178,19.7127912 17.0301309,19.7613784 C16.9349001,19.8216265 16.8422605,19.8883529 16.772295,19.9790489 C16.9005651,19.997836 17.0294831,20.0140317 17.1590489,20.0295796 C17.2095796,20.5271123 17.1441489,21.028532 17.2056926,21.5260648 C17.2639972,21.5688215 17.3223019,21.6128739 17.3812543,21.6569263 C17.2750103,21.7592833 17.1266575,21.7670572 16.9886699,21.7845486 C17.0482702,21.8188835 17.1078704,21.8538663 17.1674707,21.8888491 C17.0625224,21.896623 16.9582219,21.904397 16.8539214,21.9128187 C16.9096347,21.9549276 16.965348,21.9976844 17.0210613,22.0410889 C16.9685872,22.0754238 16.9167609,22.1104066 16.8649345,22.1460372 C16.8953825,22.1609373 16.9562784,22.1907374 16.9867264,22.2049897 C16.6958511,22.2749552 16.4114542,22.3831427 16.1095658,22.3960992 C16.0959614,22.3643556 16.0694004,22.3015162 16.055796,22.2704204 C16.1685183,22.0048105 16.1244659,21.7158787 16.1290007,21.4366644 C16.1283529,21.233246 16.3019711,21.066754 16.2663405,20.8594487 C16.2281185,20.7059132 16.1231702,20.5711647 16.1309442,20.407264 C16.131592,20.2738112 16.1030875,20.1442453 16.0467264,20.0237491 C16.0460786,19.9835837 16.07847,19.9388835 16.0467264,19.9039008 C15.9644521,19.7918263 15.9644521,19.6486561 15.9476085,19.5171468 C16.0169263,19.5028946 16.0843005,19.482164 16.1516747,19.4614335 Z" id="Shape" fill="#FB7700"></path>
                            <path d="M2.32505858,19.6175603 C2.43583735,19.6551344 2.54726396,19.6914128 2.65869056,19.7276912 C2.77465196,19.766561 2.89644383,19.7944176 3.00527912,19.8533701 C3.07006203,19.9291661 3.11281875,20.0211578 3.17436251,20.100193 C3.33502412,20.2692764 3.59804273,20.3146244 3.72113025,20.5232254 C3.48208132,20.4254032 3.26246726,20.2880634 3.05321847,20.1377671 C2.81093039,19.9641489 2.53884218,19.8294004 2.32505858,19.6175603 Z" id="Shape" fill="#EFCD96"></path>
                            <path d="M4.49463818,20.9864337 C4.6041213,20.9561623 4.71425224,20.924847 4.82373535,20.8924879 C4.90730531,21.056371 4.98763611,21.2254733 5.06861475,21.3924879 C4.96820124,21.3736988 4.86778773,21.3476028 4.76931771,21.3110683 C4.70259132,21.1482291 4.57950379,21.1106508 4.49463818,20.9864337 Z" id="Shape" fill="#F7CB81"></path>
                        </g>
                        <path d="M82.265224,14.6448243 C82.3760028,14.8475948 82.4368987,15.0717436 82.5178773,15.2874707 C83.1838456,17.1260096 83.8491661,18.9658442 84.520317,20.8030875 C83.0387319,20.8069745 81.5571468,20.801144 80.0755617,20.805031 C80.0924052,20.551082 80.2517712,20.3372984 80.3042453,20.0911234 C80.9630875,18.2765541 81.601847,16.4568022 82.265224,14.6448243 Z" id="Shape" fill="#FFFFFF"></path>
                        <path d="M91.3238181,25.7103928 C91.5343625,25.353439 91.8984425,25.0962509 92.3149966,25.054142 C92.7561682,25.0094418 93.2323225,25.2135079 93.4720193,25.5944314 C93.8633081,26.1489731 93.7395727,27.0183598 93.1753136,27.4102963 C92.7250724,27.7555892 92.0370779,27.7121847 91.6153411,27.339683 C91.1579738,26.9445072 91.073756,26.244204 91.3238181,25.7103928 Z M91.8336595,25.4538525 C91.8343074,26.0453205 91.8349552,26.6367884 91.8330117,27.2276085 C91.9288904,27.229552 92.0267126,27.2321433 92.1251826,27.2347347 C92.1271261,26.9807857 92.1219435,26.7268367 92.1303653,26.4735355 C92.2210613,26.4722398 92.3130531,26.4709442 92.4063405,26.4696485 C92.5799586,26.7138801 92.7419159,26.9665334 92.8863818,27.2301999 C92.9939214,27.2314955 93.1027567,27.2301999 93.2122398,27.2263129 C93.0444521,26.9768987 92.8805513,26.7235975 92.7192419,26.4702963 C92.8539904,26.4048656 93.0165955,26.3783046 93.1040524,26.2409649 C93.24204,25.9993246 93.185031,25.6294142 92.9148863,25.5056788 C92.5605238,25.4175741 92.1938525,25.4622743 91.8336595,25.4538525 Z" id="Shape" fill="#FFFFFF"></path>
                        <path d="M92.1245348,25.6799449 C92.3655272,25.7006754 92.6862026,25.5931358 92.855286,25.8224673 C92.8902688,25.9416678 92.8909166,26.1055686 92.7775465,26.1878429 C92.5682977,26.2642867 92.3415575,26.248091 92.1251826,26.2234735 C92.1258305,26.0420813 92.1251826,25.8606892 92.1245348,25.6799449 Z" id="Shape" fill="#FFFFFF"></path>
                    </g>
                    <g id="#b95d3dff" transform="translate(11.660924, 0.000000)" fill="#B95D3D" fill-rule="nonzero">
                        <path d="M0.0505306685,0.360905845 C0.328449345,0.000768592488 0.618676775,0.171359922 0.901778084,0.161882626 L0.857077877,0.373542239 C0.585637491,0.727361294 0.301240524,0.610474642 0.023321847,0.613633741 L0.0505306685,0.360905845 Z" id="Shape"></path>
                    </g>
                    <g id="#e24e00ff" transform="translate(9.328739, 0.064783)"></g>
                    <g id="#fbd890ff" transform="translate(8.486561, 0.194349)"></g>
                    <g id="#fdc771ff" transform="translate(7.773949, 0.906961)"></g>
                    <g id="#ed6200ff" transform="translate(11.920055, 1.166092)"></g>
                    <g id="#fdb854ff" transform="translate(6.737422, 1.749139)"></g>
                    <g id="#f97300ff" transform="translate(14.317023, 2.332185)"></g>
                    <g id="#feffffff" transform="translate(7.838732, 2.591316)"></g>
                    <g id="#fea93dff" transform="translate(5.117850, 2.720882)"></g>
                    <g id="#ff7f00ff" transform="translate(0.647829, 3.563060)"></g>
                    <g id="#fd9d2bff" transform="translate(4.275672, 3.886975)"></g>
                    <g id="#f67000ff" transform="translate(6.802205, 4.405238)"></g>
                    <g id="#ed6100ff" transform="translate(7.190903, 4.470021)"></g>
                    <g id="#fe9019ff" transform="translate(2.850448, 4.858718)"></g>
                    <g id="#f3b158ff" transform="translate(15.612681, 5.182633)"></g>
                    <g id="#ff870aff" transform="translate(14.057891, 5.506547)"></g>
                    <g id="#ff8508ff" transform="translate(1.554790, 6.219159)"></g>
                    <g id="#fe911aff" transform="translate(8.810476, 7.385252)"></g>
                    <g id="#fd9c29ff" transform="translate(18.787043, 9.782219)"></g>
                    <g id="#db7a21ff" transform="translate(17.426602, 10.170917)"></g>
                    <g id="#ef6500ff" transform="translate(17.556168, 10.430048)"></g>
                    <g id="#fdaa3fff" transform="translate(19.694004, 10.883529)"></g>
                    <g id="#f87300ff" transform="translate(0.259132, 11.337009)"></g>
                    <g id="#ffe4b3ff" transform="translate(3.368711, 11.920055)"></g>
                    <g id="#024582ff" transform="translate(25.783598, 12.049621)" fill="#024582" fill-rule="nonzero">
                        <path d="M56.2360992,0.146409373 C56.9636113,-0.0181392143 57.7137974,0.093287388 58.4516747,0.0498828394 C58.5203446,0.149648518 58.5611578,0.264314266 58.5948449,0.380923501 C60.0718952,4.31065472 61.5450586,8.2416816 63.0234045,12.1714128 C63.4645762,13.3776706 63.9413784,14.5709717 64.3657064,15.78306 C63.3220538,15.79796 62.2771054,15.7901861 61.2334528,15.7862991 C60.6776154,14.0818608 60.1023432,12.3826051 59.4344314,10.7196278 C57.4909442,10.7293453 55.5474569,10.7092626 53.6046175,10.7293453 C52.9762233,12.3851964 52.4190903,14.0701999 51.9895796,15.7895382 C51.1376844,15.7901861 50.2857891,15.7927774 49.4345417,15.7882426 C49.8523915,14.5204411 50.3291937,13.2727223 50.7671261,12.0107512 C51.8762095,8.89274983 52.9898277,5.77928325 54.0982633,2.66063405 C54.2569814,2.2252929 54.3917298,1.77699518 54.6230048,1.372102 C54.9831978,0.78452102 55.5513439,0.297353549 56.2360992,0.146409373 Z M56.4816265,2.65998622 C55.8182495,4.47196416 55.17949,6.29171606 54.5206478,8.10628532 C54.4681737,8.35246037 54.3088077,8.56624397 54.2919642,8.82019297 C55.7735493,8.816306 57.2551344,8.82213646 58.7367195,8.81824948 C58.0655686,6.9810062 57.4002481,5.14117161 56.7342798,3.30263267 C56.6533012,3.08690558 56.5924052,2.86275672 56.4816265,2.65998622 Z" id="Shape"></path>
                        <path d="M15.2330531,3.20481048 C16.0674569,2.94827016 16.9413784,2.80574776 17.8165955,2.83295658 C18.8952309,2.85303928 19.9920055,2.75133012 21.0518539,3.00981392 C21.9296623,3.16788422 22.787388,3.54232943 23.4196692,4.18432805 C23.7073053,4.53933839 23.9729152,4.92220538 24.1147898,5.36143349 C24.345417,6.05525844 24.4374087,6.78730531 24.4425913,7.51611303 C24.4432391,8.68155755 24.4419435,9.84700207 24.4432391,11.0124466 C24.4477739,11.4024397 24.4127912,11.791785 24.3674431,12.1785389 C24.2663818,12.68255 24.1905858,13.2014611 23.9482977,13.6627154 C23.5809786,14.5269194 22.8171881,15.172805 21.9665886,15.5349414 C21.0635148,15.904204 20.0781668,15.9903653 19.1122536,15.9923088 C18.7008822,16.0285872 18.2875672,16.0175741 17.8768436,15.9916609 C16.7198208,15.9864783 15.5070848,15.8536733 14.501654,15.23694 C14.1855134,15.017326 13.8577119,14.7964163 13.6257891,14.4841626 C13.0958649,13.9062991 12.8600551,13.1321433 12.7104066,12.379366 C12.549745,11.3486699 12.6190627,10.3030737 12.6041626,9.26525155 C12.6197105,8.18208132 12.5406754,7.08595451 12.7525155,6.01703653 C12.8509855,5.6957133 12.8846726,5.32839421 13.0874431,5.05436251 C13.102991,5.02456237 13.1353825,4.9649621 13.1515782,4.93516196 C13.1813784,4.75960028 13.3031702,4.61124742 13.4035837,4.46742936 C13.8518815,3.8558787 14.5230324,3.44709855 15.2330531,3.20481048 Z M17.700634,4.5574776 C17.3313715,4.66113025 16.9400827,4.73886975 16.6155203,4.953949 C16.2410751,5.18392833 16.0188697,5.58104755 15.8355341,5.96780152 C15.5064369,6.83006203 15.4306409,7.76293591 15.4384149,8.67896623 C15.4461888,9.52114404 15.4157409,10.3639697 15.4636802,11.2048518 C15.5485458,12.0204686 15.7007857,12.8956857 16.2663405,13.5273191 C16.6278291,13.9665472 17.2011578,14.1634873 17.7479256,14.2483529 C18.6108339,14.38051 19.5456513,14.3293315 20.3288766,13.9121296 C20.9333012,13.5506409 21.2669331,12.8749552 21.4243556,12.2109304 C21.6873742,11.1841213 21.5889042,10.116499 21.6083391,9.06895934 C21.6206478,8.05186768 21.6044521,7.00432805 21.2377808,6.04165403 C21.0330669,5.49618194 20.6501999,4.97338387 20.0807581,4.77903515 C19.3325155,4.46289456 18.4948725,4.4415162 17.700634,4.5574776 Z" id="Shape"></path>
                        <path d="M40.5243005,3.09727085 C41.6748449,2.79926947 42.8707374,2.82388697 44.0497864,2.83684356 C44.8634597,2.86599586 45.6842591,2.92883529 46.4687802,3.16011027 C47.2487664,3.40110269 47.9555479,3.92325293 48.3442453,4.64946933 C48.8132736,5.53634735 48.8430737,6.57352171 48.830765,7.55433494 C47.993122,7.5601654 47.155479,7.55368711 46.3184838,7.55692626 C46.2167746,7.00303239 46.1798484,6.42257753 45.9265472,5.91079256 C45.7049897,5.36855961 45.2437354,4.93127498 44.6943763,4.7310958 C43.7504893,4.38580289 42.6673191,4.41236389 41.746754,4.81984838 C41.1883253,5.07962784 40.8508063,5.64 40.6720055,6.20879394 C40.4225913,6.96221916 40.3837216,7.76228808 40.3487388,8.54940041 C40.3688215,9.71354928 40.2839559,10.8887112 40.495796,12.0405513 C40.61694,12.6112888 40.8235975,13.2034045 41.2680083,13.6050586 C41.8659545,14.2230875 42.781337,14.3584838 43.6047278,14.3241489 C44.5803584,14.3137836 45.5326671,13.9756168 46.3256099,13.4145968 C46.3554101,12.5218884 46.3346795,11.6272364 46.336623,10.7338801 C45.4516885,10.7293453 44.566754,10.7299931 43.6818194,10.7338801 C43.6818194,10.1003032 43.6746933,9.46737422 43.6844108,8.83379738 C45.3985665,8.82602343 47.1133701,8.83185389 48.8288215,8.83055824 C48.8417781,10.7746933 48.8372433,12.7201241 48.8301172,14.6642591 C47.6173811,15.4403584 46.2051137,15.8841213 44.7695245,15.9715782 C43.7958374,16.0467264 42.8163198,16.0234045 41.8432805,15.9566782 C40.8721847,15.8692212 39.8686975,15.619807 39.10102,14.9894693 C38.5432391,14.5677326 38.0904066,13.9885734 37.8733839,13.3180703 C37.5676085,12.5011578 37.5488215,11.6155755 37.5261475,10.7539628 C37.5339214,9.58851826 37.5073604,8.42242591 37.5475258,7.25698139 C37.5980565,6.32799449 37.7217919,5.35689869 38.2471813,4.56330806 C38.7790489,3.80210889 39.635479,3.32206754 40.5243005,3.09727085 Z" id="Shape"></path>
                        <path d="M0.712611992,3.30716747 C0.971095796,3.11735355 1.30472777,3.06682288 1.61827705,3.0538663 C2.65480358,3.05127498 3.69133012,3.0538663 4.72785665,3.05321847 C5.55189524,3.05775327 6.37982081,3.02471399 7.1993246,3.13419711 C7.7894969,3.18667126 8.36606478,3.33372846 8.93161957,3.50669883 C9.43044797,3.70687802 9.94093728,3.92519642 10.3296347,4.31000689 C10.9528463,4.88787043 11.3091523,5.70802205 11.439366,6.5398346 C11.5844797,7.15656788 11.5650448,7.79467953 11.6026189,8.42372157 C11.5851275,9.67856651 11.6596278,10.942481 11.47694,12.1882564 C11.3447829,13.0505169 11.0726947,13.9555341 10.3957133,14.5489456 C9.34363887,15.4695107 7.89574087,15.7111509 6.54501723,15.7856513 C4.72980014,15.7966644 2.91393522,15.7875948 1.09871813,15.7908339 C0.745003446,15.7837078 0.390640937,15.8044383 0.0375740868,15.779173 C0.0485871813,12.1189387 0.0356305996,8.45805651 0.0434045486,4.79717436 C0.046643694,4.24522398 0.213135768,3.6129428 0.712611992,3.30716747 Z M2.87376981,4.74858718 C2.87376981,7.87047553 2.86729152,10.9923639 2.87700896,14.1142522 C3.90511371,14.1155479 4.93321847,14.1207305 5.96132323,14.1077739 C6.42452102,14.0863956 6.89354928,14.0254997 7.32694693,13.8525293 C7.88602343,13.6024673 8.3174776,13.0887388 8.46194349,12.4920882 C8.6938663,11.6090972 8.73532736,10.6930669 8.76836664,9.7854583 C8.77873191,8.69904893 8.72107512,7.6068091 8.49433494,6.54242591 C8.38614748,5.97039283 8.0233632,5.47545141 7.55627843,5.14117161 C7.02441075,4.80559614 6.38241213,4.72656099 5.76567884,4.73627843 C4.80170917,4.74988284 3.83773949,4.7310958 2.87376981,4.74858718 Z M2.7871066,13.3388008 C2.7881066,13.6005238 2.7761066,13.8622467 2.7891066,14.1239697 L2.8661066,14.0980565 C2.9081066,13.849938 2.8401066,13.595989 2.8721066,13.3452791 L2.7871066,13.3388008 Z" id="Shape"></path>
                        <path d="M26.0854859,3.28514128 C26.4586354,3.06293591 26.9160028,3.07589249 27.3364438,3.06552722 C27.839807,3.06617505 28.3438181,3.0694142 28.8478291,3.06423156 C29.9899518,4.84511371 31.1437354,6.61822192 32.2929841,8.39392143 C32.9680221,9.46607857 33.7084907,10.5045486 34.2967195,11.6265886 L34.2941282,11.6738801 C34.3258718,11.6635148 34.3893591,11.6434321 34.4204549,11.6330669 C34.4755203,11.2132736 34.294776,10.7960717 34.4100896,10.3821089 C34.4651551,10.1203859 34.4450724,9.85088904 34.446368,9.58527912 C34.4457202,7.98902826 34.4476637,6.39342522 34.4450724,4.79717436 C34.4489593,4.4771468 34.4230462,4.15452791 34.4742247,3.83644383 C34.5130944,3.65699518 34.4223983,3.48013784 34.4457202,3.30198484 C34.5228119,3.15233632 34.7067953,3.20804962 34.8421916,3.1853756 C35.2438456,3.13290145 35.6558649,3.1095796 36.0562233,3.19185389 C36.1611716,3.21582357 36.2680634,3.18667126 36.3730117,3.16982771 C36.4760165,3.3479807 36.4228946,3.56111647 36.432612,3.75676085 C36.4332598,7.62300482 36.4306685,11.4892488 36.4345555,15.3554928 C36.4345555,15.4811716 36.4209511,15.6457202 36.28102,15.6943074 C36.1670021,15.6819986 36.0555755,15.6567333 35.9441489,15.6385941 C36.0290145,15.8575603 36.3218332,15.7247553 36.5019297,15.78306 C35.545734,15.7940731 34.5875948,15.7973122 33.6320469,15.7817643 C31.6574638,12.7324328 29.6725155,9.68763611 27.7018194,6.63441764 C27.6564714,6.57676085 27.6325017,6.49189524 27.5515231,6.48023432 C27.5521709,9.5826878 27.5528187,12.6857891 27.5508753,15.7882426 C26.8570503,15.7914817 26.1632254,15.7927774 25.4700482,15.7875948 C25.4687526,12.0586906 25.4674569,8.32978635 25.4700482,4.60088215 C25.4732874,4.10658856 25.6313577,3.54815989 26.0854859,3.28514128 Z" id="Shape"></path>
                    </g>
                    <g id="#eda35dff" transform="translate(19.694004, 12.567884)"></g>
                    <g id="#eb5e00ff" transform="translate(0.064783, 12.891799)"></g>
                    <g id="#fcc164ff" transform="translate(21.119228, 12.891799)"></g>
                    <g id="#f77200ff" transform="translate(3.627843, 13.021365)"></g>
                    <g id="#feb754ff" transform="translate(20.860096, 13.669194)"></g>
                    <g id="#e04b00ff" transform="translate(0.000000, 13.928325)"></g>
                    <g id="#f7a774ff" transform="translate(2.850448, 13.928325)"></g>
                    <g id="#eb8116ff" transform="translate(6.866988, 14.705720)"></g>
                    <g id="#193d61ff" transform="translate(60.053756, 15.094418)" fill="#193D61" fill-rule="nonzero">
                        <path d="M0.0868090972,0.0239696761 C0.802660234,0.0226740179 1.51851137,0.0142522398 2.23436251,0.0285044797 C2.23306685,4.26530669 2.23760165,8.50146106 2.23177119,12.7382633 C2.05167471,12.6799586 1.75885596,12.8127636 1.67399035,12.5937974 C1.78541695,12.6119366 1.89684356,12.6372019 2.01086147,12.6495107 C2.15079256,12.6009235 2.16439697,12.4363749 2.16439697,12.3106961 C2.16050999,8.4444521 2.16310131,4.57820813 2.16245348,0.711964163 C2.15273604,0.516319779 2.20585803,0.303184011 2.1028532,0.125031013 C1.99790489,0.141874569 1.89101309,0.171026878 1.78606478,0.147057202 C1.38570641,0.0647829083 0.973687112,0.0881047553 0.572033081,0.140578911 C0.436636802,0.163252929 0.252653343,0.107539628 0.175561682,0.257188146 C0.152239835,0.435341144 0.242935906,0.612198484 0.204066161,0.79164714 C0.152887664,1.10973122 0.178800827,1.4323501 0.174913853,1.75237767 C0.177505169,3.34862853 0.175561682,4.94423156 0.176209511,6.54048243 C0.174913853,6.80609235 0.194996554,7.07558925 0.139931082,7.3373122 C0.0246175052,7.75127498 0.205361819,8.16847691 0.150296347,8.58827016 C0.119200551,8.59863542 0.0557133012,8.61871813 0.0239696761,8.62908339 L0.0265609924,8.58179187 C0.0401654032,8.54486561 0.0673742247,8.47230875 0.0809786354,8.43603032 C0.0868090972,5.63222605 0.0751481737,2.82777395 0.0868090972,0.0239696761 Z" id="Shape"></path>
                    </g>
                    <g id="#ef6400ff" transform="translate(4.405238, 15.612681)"></g>
                    <g id="#fcd485ff" transform="translate(21.831840, 15.742247)"></g>
                    <g id="#e75700ff" transform="translate(18.787043, 16.908339)"></g>
                    <g id="#6c6b70ff" transform="translate(38.804962, 16.973122)" fill="#6C6B70" fill-rule="nonzero">
                        <path d="M0.280851064,0.0463043478 L0.6,0.03 C0.511347518,0.155 0.334042553,0.405 0.24893617,0.53 L0.1,0.30173913 L0.280851064,0.0463043478 Z" id="Shape"></path>
                    </g>
                    <g id="#fe890eff" transform="translate(10.170917, 17.880083)"></g>
                    <g id="#f26800ff" transform="translate(16.260510, 18.333563)"></g>
                    <g id="#fdd485ff" transform="translate(1.101309, 18.657478)"></g>
                    <g id="#fe9a26ff" transform="translate(6.802205, 18.916609)"></g>
                    <g id="#fcc56cff" transform="translate(2.656099, 19.046175)"></g>
                    <g id="#fea83aff" transform="translate(4.923501, 19.305307)"></g>
                    <g id="#fff7cbff" transform="translate(15.159201, 19.370090)"></g>
                    <g id="#feb652ff" transform="translate(4.016540, 19.434873)"></g>
                    <g id="#fb7700ff" transform="translate(15.936595, 19.499655)"></g>
                    <g id="#efcd96ff" transform="translate(2.267402, 19.629221)"></g>
                    <g id="#f7cb81ff" transform="translate(4.470021, 20.924879)"></g>
                    <g id="#000000ff" transform="translate(25.394900, 24.876637)" fill="#000000" fill-rule="nonzero">
                        <path d="M65.7319779,0.73528601 C66.1822192,-0.0751481737 67.4182771,-0.229331496 68.0842453,0.397767057 C68.2779462,0.535754652 68.3666988,0.761847002 68.491082,0.954900069 C68.6271261,1.31574087 68.6251826,1.72128187 68.5020951,2.08536182 C68.366051,2.32894555 68.2313025,2.59261199 67.9896623,2.75133012 C67.4875948,3.13549276 66.7458305,3.17047553 66.2165541,2.82323915 C65.51949,2.41834597 65.2746106,1.40449345 65.7319779,0.73528601 Z M65.928918,0.898538939 C65.678856,1.4323501 65.7630737,2.13265334 66.2204411,2.52782908 C66.6421778,2.90033081 67.3301723,2.94373535 67.7804135,2.59844245 C68.3446726,2.20650586 68.468408,1.33711923 68.0771192,0.782577533 C67.8374225,0.401654032 67.3612681,0.19758787 66.9200965,0.242288077 C66.5035424,0.284396968 66.1394624,0.541585114 65.928918,0.898538939 Z" id="Shape"></path>
                        <path d="M66.4387595,0.641998622 C66.7989524,0.6504204 67.1656237,0.605720193 67.5199862,0.693824948 C67.7901309,0.817560303 67.8471399,1.18747071 67.7091523,1.42911096 C67.6216954,1.56645072 67.4590903,1.59301172 67.3243418,1.65844245 C67.4856513,1.91174363 67.649552,2.1650448 67.8173398,2.41445899 C67.7078567,2.41834597 67.5990214,2.41964163 67.4914817,2.41834597 C67.3470159,2.15467953 67.1850586,1.90202619 67.0114404,1.65779462 C66.918153,1.65909028 66.8261613,1.66038594 66.7354652,1.6616816 C66.7270434,1.91498277 66.7322261,2.16893177 66.7302826,2.42288077 C66.6318125,2.42028946 66.5339904,2.41769814 66.4381116,2.41575465 C66.4400551,1.82493453 66.4394073,1.23346657 66.4387595,0.641998622 Z M66.7296347,0.868090972 C66.7302826,1.04883529 66.7309304,1.23022743 66.7302826,1.41161957 C66.9466575,1.43623708 67.1733977,1.4524328 67.3826465,1.37598897 C67.4960165,1.29371468 67.4953687,1.12981392 67.4603859,1.01061337 C67.2913025,0.781281875 66.9706272,0.888821502 66.7296347,0.868090972 Z" id="Shape"></path>
                        <path d="M23.7144314,7.27252929 C24.345417,7.0276499 24.966685,6.75750517 25.5944314,6.50355617 C25.7181668,6.4575603 25.8548587,6.4886561 25.9850724,6.48217781 C25.9909028,9.45960028 25.982481,12.4376706 25.9889593,15.4157409 C26.0077464,15.7163336 25.9766506,16.0694004 26.213756,16.2980841 C26.4353136,16.510572 26.7715369,16.4555065 27.0520469,16.4801241 C27.0526947,16.5455548 27.0526947,16.6751206 27.0526947,16.7405513 C25.9319504,16.7353687 24.8112061,16.7347209 23.6904618,16.7411992 C23.6904618,16.6543901 23.6904618,16.5682288 23.6917574,16.4827154 C23.9619021,16.4704066 24.2508339,16.4697588 24.493122,16.3337147 C24.7781668,16.1270572 24.7690972,15.7396554 24.7859407,15.4235148 C24.788532,13.1684218 24.7937147,10.9133287 24.7833494,8.6582357 C24.7541971,8.29674707 24.81898,7.8963887 24.6226878,7.57247416 C24.4186216,7.32889042 24.0681461,7.43902136 23.8200276,7.54396968 C23.7682012,7.46039972 23.7176706,7.3729428 23.7144314,7.27252929 Z" id="Shape"></path>
                        <path d="M0.0123087526,6.95574087 C1.11037905,6.95444521 2.20909717,6.95379738 3.30716747,6.95444521 C4.10399724,6.95833218 4.90471399,6.92982771 5.6957133,7.04254997 C6.44719504,7.15721571 7.22199862,7.42152998 7.74544452,7.99874569 C8.4444521,8.72172295 8.5714266,9.94288077 7.98578911,10.7714542 C7.66576154,11.2450172 7.15138525,11.5507926 6.61692626,11.7257064 C7.190255,11.8805376 7.79273604,12.0709993 8.20799449,12.5218884 C8.72237078,13.0453343 8.92319779,13.8343901 8.75735355,14.5450586 C8.58438318,15.2991316 8.0589938,15.9676912 7.36322536,16.3071537 C6.89095796,16.5462026 6.36103377,16.6349552 5.83888353,16.6861337 C5.12627154,16.7599862 4.40977257,16.7314817 3.69586492,16.7373122 C2.46822881,16.7411992 1.24059269,16.7295382 0.0129565817,16.7431427 C0.0116609235,16.6511509 0.0116609235,16.5604549 0.0116609235,16.4697588 C0.2895796,16.4587457 0.577863542,16.4963198 0.844121296,16.3946106 C1.06762233,16.3129841 1.27492764,16.1413094 1.33452791,15.9022605 C1.46733287,15.4073191 1.4077326,14.8890558 1.42522398,14.3831013 C1.42133701,12.6112888 1.42651964,10.8401241 1.4232805,9.06831151 C1.42198484,8.63880083 1.44465886,8.19957271 1.33258442,7.78042729 C1.27816678,7.55303928 1.08511371,7.38071675 0.86938663,7.3062164 C0.595354928,7.20126809 0.297353549,7.22847691 0.0103652653,7.22523777 C0.0103652653,7.1345417 0.0110130944,7.04514128 0.0123087526,6.95574087 Z M2.81093039,7.59838732 C2.80963473,8.84221916 2.81287388,10.086051 2.80963473,11.329235 C3.54945555,11.46204 4.31195038,11.46204 5.05824948,11.3836527 C5.55966919,11.3285872 6.06886285,11.1381254 6.40379049,10.7461888 C6.84237078,10.2253343 6.97323225,9.46154376 6.72381806,8.82731909 C6.47440386,8.20022054 5.88811854,7.74803584 5.2435286,7.58154376 C4.4505858,7.3774776 3.60387319,7.40727774 2.81093039,7.59838732 Z M2.81222605,12.0101034 C2.80769125,13.3498139 2.81416954,14.6895245 2.80963473,16.0298828 C3.66995176,16.2171054 4.57367333,16.309745 5.44241213,16.1218746 C6.07534114,15.9851826 6.67004824,15.5880634 6.95703653,14.9965955 C7.39367333,14.0896347 7.00821502,12.8814335 6.11874569,12.4052791 C5.11914542,11.8377808 3.91547898,11.9194073 2.81222605,12.0101034 Z" id="Shape"></path>
                        <path d="M11.4309442,10.2007167 C12.0269469,9.92538939 12.7058718,9.89623708 13.3498139,9.96296347 C13.8784425,10.0296899 14.456306,10.2117298 14.7568987,10.6859407 C15.0004824,11.0286423 14.986878,11.4665748 15.0101999,11.8682288 C15.0244521,12.9643556 15.0024259,14.0604824 15.0231564,15.1566092 C15.0380565,15.3982495 15.0114955,15.6670986 15.1566092,15.8769952 C15.2842316,15.9877739 15.4824673,15.9728739 15.6107374,15.8711647 C15.8011992,15.7189249 15.9767609,15.547898 16.1458442,15.3723363 C16.1270572,15.5427154 16.2060924,15.7539076 16.0674569,15.8905996 C15.7726947,16.2592143 15.4325844,16.6200551 14.9842867,16.7975603 C14.6940593,16.9038043 14.3338663,16.9057478 14.0967609,16.6822467 C13.8570641,16.4568022 13.8376292,16.1069745 13.8201378,15.7999035 C13.3407443,16.131592 12.909938,16.5572157 12.3612267,16.7729428 C11.795672,16.9711785 11.1024948,16.9089869 10.6580841,16.4788284 C10.1754514,16.0383046 10.0549552,15.3140317 10.2026602,14.6992419 C10.3445348,14.2004135 10.7481323,13.8317988 11.1659821,13.5519366 C11.9906685,13.031082 12.9157684,12.7000414 13.8253205,12.3605789 C13.8168987,11.8338939 13.8434597,11.261213 13.5558236,10.7960717 C13.1276085,10.2220951 12.064521,10.1974776 11.6920193,10.8453067 C11.488601,11.1983735 11.7289456,11.6350103 11.5326533,11.9919642 C11.3655134,12.3430875 10.8239283,12.4039835 10.5725706,12.113756 C10.343887,11.863694 10.3685045,11.4827705 10.4702136,11.1828256 C10.6457753,10.7468367 11.0150379,10.4080221 11.4309442,10.2007167 Z M12.6903239,13.2785527 C12.1727085,13.5169538 11.628532,13.8551206 11.4257615,14.4180841 C11.1899518,15.0568436 11.5430186,15.9165127 12.2543349,16.0350655 C12.8581116,16.0836527 13.360827,15.6670986 13.8181943,15.3295796 C13.8317988,14.4854583 13.823377,13.641337 13.8220813,12.7972157 C13.4418057,12.951399 13.0595865,13.1003997 12.6903239,13.2785527 Z" id="Shape"></path>
                        <path d="M18.1515231,9.97656788 C18.2804411,9.90919366 18.4294418,9.93834597 18.5693728,9.93251551 C18.5719642,10.3957133 18.5680772,10.8582633 18.5713163,11.3214611 C18.9982357,10.8090283 19.4970641,10.3238043 20.1215713,10.0653205 C20.7052653,9.82821502 21.4470296,9.89947622 21.9018057,10.3620262 C22.3300207,10.8109717 22.47643,11.4471399 22.4867953,12.0509166 C22.5094693,13.2105307 22.4835562,14.3707926 22.5003997,15.5304066 C22.5165955,15.8044383 22.5276085,16.1290007 22.7588835,16.317519 C22.9661888,16.4859545 23.249938,16.4697588 23.5019435,16.4820675 C23.5032391,16.567581 23.5045348,16.6537422 23.5071261,16.7399035 C22.4174776,16.7353687 21.3278291,16.7353687 20.2388284,16.7405513 C20.2388284,16.6757684 20.2381806,16.5468504 20.2381806,16.4820675 C20.479173,16.4729979 20.7402481,16.4943763 20.9618057,16.3777671 C21.2047416,16.2384838 21.3045072,15.9430737 21.2986768,15.6755203 C21.3109855,14.683694 21.3006203,13.6912198 21.3045072,12.6987457 C21.3012681,12.2102826 21.3058029,11.6952584 21.0848932,11.2463129 C20.9520882,10.9645072 20.6424259,10.8103239 20.3398897,10.8077326 C19.6331082,10.7889456 18.9943487,11.2417781 18.572612,11.7710544 C18.5667815,12.7907374 18.5719642,13.8117161 18.5700207,14.8320469 C18.5739076,15.1825224 18.5564163,15.5349414 18.60306,15.8841213 C18.6199035,16.1374225 18.8103653,16.3738801 19.0597795,16.4328325 C19.250889,16.4768849 19.4491247,16.4729979 19.645417,16.4820675 C19.6441213,16.5669331 19.6441213,16.6524466 19.6447691,16.7386079 C18.5557684,16.7366644 17.4661199,16.7353687 16.3764714,16.7399035 C16.3764714,16.6757684 16.3764714,16.5468504 16.3764714,16.4827154 C16.6770641,16.4846589 17.0586354,16.4775327 17.2322536,16.1853618 C17.3553411,15.9275258 17.3715369,15.6340593 17.3793108,15.3529014 C17.3806065,14.3597795 17.3799586,13.3660096 17.3793108,12.3722398 C17.3695934,12.0288904 17.3767195,11.6829497 17.3261888,11.3428394 C17.2912061,11.1821778 17.2348449,10.9910682 17.0664094,10.9262853 C16.8351344,10.8433632 16.5909028,10.9288766 16.3680496,10.995603 C16.3369538,10.9087939 16.305858,10.8226327 16.2747622,10.7364714 C16.9031564,10.4902963 17.5250724,10.2272777 18.1515231,9.97656788 Z" id="Shape"></path>
                        <path d="M27.8307374,10.1301034 C28.7869331,10.1184425 29.7437767,10.1268642 30.7006203,10.1262164 C30.6999724,10.2020124 30.7006203,10.2784562 30.7019159,10.3555479 C30.3618057,10.3710958 30.0178084,10.4099655 29.7016678,10.5414748 C29.3926533,10.6852929 29.1140868,10.8887112 28.8640248,11.1199862 C28.2952309,11.6453756 27.7290283,12.1733563 27.1602343,12.6987457 C27.8773811,13.5946933 28.5712061,14.5087802 29.3039008,15.3917712 C29.5934804,15.7292901 29.8739904,16.0901309 30.2568573,16.328532 C30.4881323,16.4807719 30.7757684,16.4710544 31.0420262,16.4827154 C31.0420262,16.5462026 31.042674,16.6738249 31.042674,16.73796 C29.9731082,16.7366644 28.9035424,16.7366644 27.8339766,16.7386079 C27.8326809,16.6751206 27.8313853,16.5487939 27.8300896,16.4853067 C27.976499,16.4658718 28.1663129,16.4729979 28.2589524,16.3356582 C28.3800965,16.1335355 28.2019435,15.9242867 28.0963473,15.7584425 C27.4757271,14.9577257 26.8447416,14.1647829 26.2241213,13.3640662 C26.1535079,13.2539352 26.0336595,13.1671261 26.0038594,13.0369125 C26.6957409,12.3955617 27.4083529,11.7729979 28.0905169,11.1193384 C28.2168436,10.9884769 28.4027705,10.8317023 28.3276223,10.6269883 C28.2647829,10.4145003 28.0205513,10.3736871 27.8326809,10.3503653 C27.8320331,10.2952998 27.8313853,10.1851688 27.8307374,10.1301034 Z" id="Shape"></path>
                    </g>
                    <g id="#1f3e67ff" transform="translate(28.504480, 25.330117)" fill="#1F3E67" fill-rule="nonzero">
                        <path d="M0.260233253,0.0583046175 L0.685233253,0.0647829083 C0.525233253,0.315492764 0.865233253,0.569441764 0.655233253,0.817560303 L0.270233253,0.843473467 C0.205233253,0.581750517 0.265233253,0.320027567 0.260233253,0.0583046175 Z" id="Shape"></path>
                    </g>
                </g>
            </g>
        </g>
    </g>
</svg>