<?xml version="1.0" encoding="UTF-8" standalone="no"?>
<svg width="52px" height="36px" viewBox="0 0 52 36" version="1.1" xmlns="http://www.w3.org/2000/svg" xmlns:xlink="http://www.w3.org/1999/xlink">
    <!-- Generator: Sketch 50.2 (55047) - http://www.bohemiancoding.com/sketch -->
    <title>eps</title>
    <desc>Created with Sketch.</desc>
    <defs></defs>
    <g id="Page-1" stroke="none" stroke-width="1" fill="none" fill-rule="evenodd">
        <g id="withdraw-" transform="translate(-783.000000, -2521.000000)" fill-rule="nonzero">
            <g id="eps" transform="translate(783.000000, 2521.000000)">
                <path d="M6.43035714,22.1769231 C9.84285714,22.1769231 13.0464286,22.1538462 16.25,22.2 C17.0625,22.2 17.2482143,21.9923077 17.2946429,21.1846154 C17.5732143,15.5307692 12.6053571,12.1153846 8.00892857,13.2923077 C4.36428571,14.2384615 2.1125,17.5615385 2.53035714,21.3230769 C2.925,24.9230769 5.96607143,27.7846154 9.63392857,27.8769231 C12.6517857,27.9461538 15.6696429,27.9230769 18.6875,27.9 C19.6160714,27.9 19.6857143,28.2 19.2446429,28.8923077 C18.6875,29.7461538 17.8982143,30.2538462 16.8303571,30.2538462 C12.1875,30.2538462 7.54464286,30.2769231 2.90178571,30.2538462 C1.32321429,30.2538462 0.0696428571,29.0769231 0.0464285714,27.5076923 C-7.44196371e-16,22.8230769 -7.44196371e-16,18.1153846 0.0464285714,13.4307692 C0.0696428571,11.9538462 1.23035714,10.8 2.73928571,10.8 C7.45178571,10.7538462 12.1875,10.7538462 16.9,10.8 C18.5017857,10.8230769 19.6160714,12.0230769 19.6392857,13.6615385 C19.6857143,16.9384615 19.6392857,20.1923077 19.6625,23.4692308 C19.6625,24.1153846 19.4071429,24.2307692 18.8267857,24.2307692 C15.8089286,24.2076923 12.7910714,24.2538462 9.77321429,24.2076923 C8.42678571,24.1615385 7.26607143,23.6538462 6.43035714,22.1769231 Z" id="Shape" fill="#C90A72"></path>
                <path d="M21.5428571,35.8384615 C21.5428571,34.6153846 21.5428571,35.8384615 21.5428571,33.9923077 C21.5428571,29.5384615 21.5428571,25.0846154 21.5428571,20.6076923 C21.5428571,16.2923077 24.7232143,13.1076923 28.9482143,13.1076923 C33.0571429,13.1076923 36.2607143,16.3384615 36.2607143,20.4692308 C36.2607143,24.6692308 33.0107143,27.8769231 28.7625,27.9230769 C27.625,27.9461538 25.4428571,27.9461538 25.4428571,27.9461538 C25.4428571,27.9461538 25.2571429,30.3 25.2571429,31.4076923 C25.2339286,32.4923077 25.2571429,35.8615385 25.2571429,35.8615385 C25.2571429,35.8615385 21.775,35.8384615 21.5428571,35.8384615 Z M27.3,24.1846154 C28.1125,24.1615385 28.925,24.2307692 29.7142857,24.0461538 C31.6410714,23.5846154 32.7785714,21.9 32.5232143,19.8692308 C32.2910714,18.0461538 30.6892857,16.7307692 28.8089286,16.7538462 C26.9053571,16.8 25.3964286,18.2307692 25.2571429,20.1692308 C25.2107143,20.8153846 25.2339286,21.4846154 25.2339286,22.1307692 C25.2339286,24.1846154 25.2339286,24.1846154 27.3,24.1846154 Z" id="Shape" fill="#737271"></path>
                <path d="M16.1107143,6.85384615 C16.1107143,7.33846154 16.0642857,8.37692308 16.0642857,8.37692308 L13.0928571,8.4 C13.0928571,8.4 13,6.66923077 12.9767857,6.16153846 C12.8375,4.47692308 11.5142857,3.23076923 9.84285714,3.23076923 C8.17142857,3.23076923 6.84821429,4.5 6.73214286,6.18461538 C6.70892857,6.46153846 6.6625,8.4 6.6625,8.4 L3.55178571,8.4 C3.55178571,8.4 3.55178571,7.40769231 3.55178571,6.73846154 C3.55178571,2.97692308 6.22142857,0.0923076923 9.79642857,0.115384615 C13.0232143,0.138461538 16.1803571,2.60769231 16.1107143,6.85384615 Z" id="Shape" fill="#C90A72"></path>
                <path d="M6.56964286,18.5538462 C7.9625,15.9 11.4214286,15.8769231 13.2089286,18.5538462 C10.9803571,18.5538462 8.82142857,18.5538462 6.56964286,18.5538462 Z" id="Shape" fill="#C90A72"></path>
                <path d="M47.3571429,18.6461538 C45.8946429,18.6230769 44.4089286,18.6461538 42.9464286,18.6461538 C42.2267857,18.6461538 41.5535714,18.4846154 41.5767857,17.6076923 C41.6,16.8461538 42.2267857,16.6615385 42.9232143,16.6615385 C44.3625,16.6615385 47.1714286,16.6615385 48.6107143,16.6615385 C49.0517857,16.6615385 49.4232143,16.6615385 49.725,16.6384615 L49.725,13.1076923 C47.5196429,13.1307692 44.3160714,13.1076923 42.2964286,13.1307692 C41.8785714,13.1307692 41.4375,13.2 41.0428571,13.3384615 C38.9303571,14.0307692 37.6071429,16.1307692 37.8857143,18.2769231 C38.1875,20.5153846 40.0678571,22.2461538 42.3892857,22.3153846 C43.9446429,22.3846154 45.4767857,22.3384615 47.0321429,22.3384615 C47.6589286,22.3384615 48.1232143,22.5461538 48.1232143,23.2384615 C48.1232143,23.9307692 47.6357143,24.1384615 47.0321429,24.1846154 C46.7535714,24.2076923 46.4982143,24.1846154 46.2196429,24.1846154 C43.4803571,24.1846154 40.7178571,24.2076923 37.9785714,24.1846154 C37.3517857,24.1846154 36.9107143,24.3 36.6089286,24.9461538 C36.0517857,26.1 35.2160714,27.0692308 34.125,27.9230769 C38.6285714,27.9230769 43.1553571,27.9923077 47.6589286,27.9 C50.0732143,27.8538462 51.8839286,25.5692308 51.7910714,23.0538462 C51.7446429,20.6076923 49.8178571,18.6923077 47.3571429,18.6461538 Z" id="Shape" fill="#737271"></path>
            </g>
        </g>
    </g>
</svg>