<?xml version="1.0" encoding="UTF-8"?>
<svg width="100px" height="23px" viewBox="0 0 100 23" version="1.1" xmlns="http://www.w3.org/2000/svg" xmlns:xlink="http://www.w3.org/1999/xlink">
    <!-- Generator: Sketch 49.1 (51147) - http://www.bohemiancoding.com/sketch -->
    <title>fasapay</title>
    <desc>Created with Sketch.</desc>
    <defs></defs>
    <g id="Page-1" stroke="none" stroke-width="1" fill="none" fill-rule="evenodd">
        <g id="m7-withdraw-balance-0-1366" transform="translate(-193.000000, -1910.000000)">
            <g id="fasapay" transform="translate(193.000000, 1910.000000)">
                <path d="M12.484801,15.9944589 C13.1172864,14.7741645 13.7247228,13.5400635 14.3916504,12.3399481 C14.7819961,11.6379336 14.562818,11.4584473 13.8562296,11.3766696 C10.3577299,10.974153 1.22217873,10.0183088 0,9.53295238 C4.95968689,9.53295238 9.69915199,9.54357287 14.4386171,9.51914574 C14.9803001,9.51702165 15.872668,9.8536912 15.929028,9.0072381 C15.9655577,8.44753824 9.62296151,7.56072727 7.13894325,6.87464358 C9.53320287,6.87464358 11.9264188,6.85446465 14.3196347,6.88738817 C15.0210046,6.89694661 15.5877365,6.82578932 15.8173516,6.03350072 C15.9707763,5.50460029 16.3726027,5.433443 16.8568819,5.43238095 C17.2180039,5.4313189 17.6793216,5.64585281 17.9799087,4.98419625 C13.1945205,4.38201443 8.46131768,3.78726696 3.72811481,3.19145743 C3.73124592,3.12667244 3.73542074,3.0608254 3.73855186,2.9960404 C6.08480104,2.9960404 8.43209393,2.9960404 10.7783431,2.9960404 C13.3009785,2.9960404 15.8246575,2.99710245 18.3472929,2.99497835 C18.8524462,2.99391631 19.4170907,3.10012121 19.6091324,2.33969408 C15.9091977,1.87451659 12.2384866,1.41252525 8.5667319,0.95159596 C14.888454,0.736 21.2007828,0.38446176 27.8283105,0.822025974 C27.1321592,1.82035209 26.5810828,2.63281962 26.0039139,3.42723232 C25.727332,3.80850794 25.3296804,3.54936797 24.9925636,3.54087157 C23.6054795,3.50582395 23.0752772,3.88285137 22.5179387,5.42176046 C23.1295499,5.42176046 23.7119374,5.42176046 24.4487932,5.42176046 C23.9342466,6.60169697 23.4771037,7.65100144 23.0189172,8.70030592 L23.0345727,8.67800289 C22.9583823,8.70136797 22.8759295,8.75659452 22.807045,8.74278788 C20.7425962,8.33389899 17.6594912,14.8697489 16.8067841,16.6635498 C16.5406393,17.2243117 16.244227,17.3953016 15.6117417,17.3326407 C12.2677104,16.9980952 6.3384214,16.7293968 2.99021526,16.4383954 C8.29432485,16.1718211 10.5007175,16.2610332 12.484801,15.9944589" id="Fill-1" fill="#FF9500"></path>
                <path d="M47.033529,5.44300144 C48.6617091,6.17050505 48.6617091,7.99404329 48.6617091,7.99404329 L44.5975212,8.69499567 C44.5975212,8.69499567 44.1226354,8.13741991 43.9097195,8.03227706 C43.22818,7.69454545 41.2555773,7.63825685 40.9215917,8.55905339 C40.7128506,9.13255988 41.0885845,9.29611544 41.5060665,9.37576912 C42.4485323,9.55631746 43.3993477,9.68376335 44.3407697,9.87068398 C46.9489889,10.390026 47.6023483,12.0914286 46.003392,14.2718153 C44.3532942,16.5222973 42.0112198,17.4420317 39.3570776,17.6512554 C38.0816699,17.751088 37.5285062,17.838176 36.2593607,17.5822222 C35.0841487,17.3443232 34.1969993,16.8961385 33.6751468,15.9944589 C33.3943901,15.5101645 33.6751468,14.1974719 33.6751468,14.1974719 L38.3446836,13.723798 C38.3446836,13.723798 38.2632746,14.4566118 38.4741031,14.6286638 C38.8571429,14.9440924 39.6722766,15.2531486 40.3924331,15.0906551 C41.111546,14.9281616 41.8202218,14.6807042 42.0550554,13.876733 C42.2084801,13.3531429 41.7669928,13.1757807 41.3620352,13.0791342 C40.2734508,12.8189322 39.168167,12.6235152 38.092107,12.317645 C36.3365949,11.818482 35.7980431,10.6194286 36.6403131,8.97219048 C37.8864971,6.53372583 40.081409,5.57894372 42.6176125,5.25926696 C43.1686888,5.18917172 46.1756034,5.05960173 47.033529,5.44300144" id="Fill-3" fill="#FF9500"></path>
                <path d="M23.0189172,8.70030592 C23.0251794,8.69180952 23.0314416,8.68543723 23.0377038,8.67694084 C23.0377038,8.67694084 23.0366601,8.67694084 23.0356164,8.67694084 C23.0345727,8.67800289 23.0189172,8.70030592 23.0189172,8.70030592" id="Fill-4" fill="#EB8D38"></path>
                <path d="M25.9120678,15.0842828 C25.4392694,15.1448196 24.9007175,15.2265974 24.6418787,14.698759 C24.353816,14.1125079 24.7838226,13.6983088 25.1543379,13.3372121 C25.7868232,12.7201616 26.640574,12.5905916 27.4400522,12.3622511 C28.159165,12.1572756 28.8939335,12.0043405 29.7810828,11.7908687 C28.9962166,13.7259221 27.7959556,14.8400115 25.9120678,15.0842828 Z M33.681409,5.34210678 C29.6902805,4.89392208 25.8097847,5.02136797 23.0377038,8.67694084 C26.991259,9.11025685 26.9923027,9.11025685 26.9923027,9.11025685 C26.9923027,9.11025685 28.6267449,7.76357864 29.9908676,7.91969986 C30.4678408,7.97492641 31.1431181,7.72746898 31.2443575,8.4942684 C31.3330724,9.1697316 30.9124592,9.51914574 30.2716243,9.65296392 C28.3919113,10.04486 26.5163731,10.4505628 24.6418787,10.8647619 C22.8644488,11.2587821 21.3197652,12.03514 20.3073712,13.6632612 C19.7552511,14.5500722 19.3043705,15.4910476 19.8126549,16.5233593 C20.3125897,17.5386782 21.3249837,17.6193939 22.300848,17.6671861 C24.2765819,17.7648947 26.0738421,17.1520924 27.9055447,16.0539336 C27.5746902,17.2880346 27.5746902,17.2880346 27.5746902,17.2880346 L31.9530333,17.3443232 L31.8987606,16.4999942 C31.8987606,16.4999942 32.7650359,14.8368254 32.8746249,14.611671 C33.7659491,12.7891948 34.7240705,10.9985801 35.5402479,9.14318038 C36.5119374,6.93411833 35.886758,5.58956421 33.681409,5.34210678 Z" id="Fill-5" fill="#FF9500"></path>
                <path d="M72.5969993,8.74703608 C72.5990868,8.73853968 72.6022179,8.73216739 72.6043053,8.723671 C72.6043053,8.723671 72.6032616,8.723671 72.6022179,8.723671 C72.6022179,8.72473304 72.5969993,8.74703608 72.5969993,8.74703608" id="Fill-6" fill="#2B6EA0"></path>
                <path d="M78.6870189,15.131013 C78.2444879,15.1915498 77.7466406,15.2733276 77.2237443,14.7454892 C76.6413568,14.1592381 76.8647097,13.745039 77.0546641,13.3839423 C77.3782127,12.7668918 78.1672538,12.6373218 78.8519243,12.4089812 C79.4687541,12.2040058 80.1262883,12.0521328 80.9069798,11.8375988 C81.0906719,13.7726522 80.4487932,14.8867417 78.6870189,15.131013 Z M81.5780822,5.38883694 C77.3625571,4.94065224 73.546771,5.06809812 72.6043053,8.723671 C76.7749511,9.15698701 76.7749511,9.15698701 76.7749511,9.15698701 C76.7749511,9.15698701 76.8490541,7.89633478 79.1775603,7.96643001 C79.5877365,7.9791746 80.23379,7.77419913 80.7191129,8.54099856 C81.1459883,9.21646176 80.9017613,9.5658759 80.3266797,9.69969408 C78.644227,10.0915902 76.9701239,10.4972929 75.3033268,10.9114921 C73.7231572,11.3055123 72.5688193,12.0818701 72.3705153,13.7099913 C72.26197,14.5968023 72.2828441,15.5377778 73.3077626,16.5700895 C74.3159817,17.5854084 75.3690802,17.6661241 76.3689498,17.7139163 C78.3937378,17.8116248 79.8841487,17.1988225 81.1658187,16.1017258 C81.4538813,17.3347648 81.4538813,17.3347648 81.4538813,17.3347648 L85.8604044,17.3921154 L85.3823875,16.5467244 C85.3823875,16.5467244 85.415786,14.8835556 85.4126549,14.6584012 C85.3917808,12.836987 85.4533594,11.0453102 85.3406393,9.18991053 C85.2060013,6.98084848 83.9065884,5.63629437 81.5780822,5.38883694 Z" id="Fill-7" fill="#2575B0"></path>
                <path d="M55.4781474,12.251798 C55.3654273,12.6171429 55.139987,12.9315094 54.8811481,13.1481674 L54.7318982,16.6285022 L51.7834312,16.6285022 L53.7779517,13.1481674 C53.6537508,12.9315094 53.621396,12.6171429 53.7341161,12.251798 C53.9355512,11.5986378 54.4897586,11.0686753 54.9709067,11.0686753 C55.4530985,11.0686753 55.6795825,11.5986378 55.4781474,12.251798 Z M61.5316373,5.61930159 C58.9129811,4.97463781 56.2995434,5.01287157 53.6913242,5.67771429 C52.0516634,6.09616162 50.9568167,7.13378355 50.3765166,8.74278788 C50.2669276,9.04547186 50.0957599,9.32797691 50.4339204,9.61791631 C51.100848,10.1924848 52.6100457,9.92272439 53.0024788,9.11025685 C53.278017,8.53993651 53.596347,8.03652525 54.2288324,7.85703896 C55.7453359,7.42478499 57.2952381,7.23149206 58.8607958,7.4162886 C59.9994781,7.55116883 60.24788,8.19477056 59.6727984,9.22070996 C59.3461187,9.80271284 58.9077626,10.0841558 58.2262231,10.1064589 C56.4665362,10.1669957 54.7005871,10.2137258 52.952381,10.4059567 C50.7386823,10.6491659 48.5583823,11.1026609 47.1827789,13.1683463 C46.5356817,14.1390592 45.7727332,15.1660606 46.3384214,16.4245887 C46.9051533,17.685241 48.1763862,17.6310765 49.2660144,17.6703723 C52.6319635,17.7914459 55.1869537,17.7574603 58.1469015,17.642759 C59.6842792,14.7157518 61.1266797,11.7420144 62.2705806,8.63021068 C62.69015,7.48850794 62.6932811,6.38928716 61.5316373,5.61930159 Z" id="Fill-8" fill="#FF9500"></path>
                <g id="Group-12" transform="translate(57.045010, 4.945166)" fill="#2575B0">
                    <path d="M10.049576,8.83385859 C9.19060665,9.79501299 7.61565558,9.53799711 7.04996738,8.30177201 C6.51767776,7.13882828 6.55942596,5.9291544 7.08649706,4.76408658 C7.42152642,4.02596248 8.03731246,3.68716883 8.83157208,3.7254026 C9.58930202,3.76151227 10.1215917,4.19695238 10.3846053,4.87878788 C10.5849967,5.39812987 11.09015,7.42027128 10.049576,8.83385859 Z M14.0855838,2.48386724 C13.0345727,0.718741703 11.2362688,0.0347821068 9.23235486,0.43836075 C8.13228963,0.659266955 7.30567515,1.30924098 6.52289628,2.21410678 C6.42791911,1.33048196 6.48010437,0.649708514 6.48010437,0.649708514 C6.48010437,0.649708514 5.50632746,0.544565657 4.71415525,0.600854257 C4.63692107,0.606164502 4.5617743,0.648646465 4.48662753,0.674135642 C5.42909328,2.14719769 5.08049576,3.57352958 4.41252446,5.04021934 C3.47214612,7.10802886 2.55994781,9.18752092 1.54546641,11.2192208 C1.31585127,11.678026 0.967253751,12.1177143 1.10189172,12.6975931 L0.00808871494,17.3429957 L5.21930855,17.3578644 L6.66588389,11.3424185 C7.00821918,11.6376681 7.37873451,11.9679654 7.52276582,12.0624877 C10.0568819,13.7256566 13.4249185,12.783619 14.5917808,9.96600289 C15.6427919,7.42876768 15.5081539,4.87029149 14.0855838,2.48386724 Z" id="Fill-9"></path>
                    <path d="M37.2923679,0.32578355 C37.2015656,0.840877345 37.1347684,1.31879942 37.0711024,1.56094661 C36.481409,3.79868398 35.8176125,6.01518038 35.0995434,8.53436075 C34.6956295,7.23972294 33.164514,2.65485714 32.0811481,0.32578355 L27.7508154,0.32578355 C29.2057404,3.7838153 31.2514025,8.82005195 32.485062,11.7799827 C32.9860404,12.9843463 32.3796477,14.0623261 31.0875408,14.2258817 C30.6919765,14.2747359 30.2880626,14.2598672 29.8872798,14.2598672 C23.8692759,14.2619913 18.5975212,14.2619913 12.8060013,14.2609293 L6.67110241,14.2609293 L5.95825179,17.3429957 L7.78995434,17.3429957 C7.83274625,17.3461818 7.85675147,17.3578644 7.90580561,17.3578644 C16.3566862,17.3355613 23.7638617,17.3472439 32.2147423,17.3228167 C34.6131768,17.3153824 36.1724723,16.1046465 36.9886497,13.7883175 C37.8966732,11.2139105 40.9714286,3.76045022 42.0527071,0.32578355 L37.2923679,0.32578355" id="Fill-11"></path>
                </g>
            </g>
        </g>
    </g>
</svg>