<?xml version="1.0" encoding="UTF-8"?>
<svg width="72px" height="32px" viewBox="0 0 72 32" version="1.1" xmlns="http://www.w3.org/2000/svg" xmlns:xlink="http://www.w3.org/1999/xlink">
    <!-- Generator: Sketch 49.1 (51147) - http://www.bohemiancoding.com/sketch -->
    <title>Giropay</title>
    <desc>Created with Sketch.</desc>
    <defs></defs>
    <g id="Page-1" stroke="none" stroke-width="1" fill="none" fill-rule="evenodd">
        <g id="m7-withdraw-balance-0-1366" transform="translate(-207.000000, -1979.000000)">
            <g id="Giropay" transform="translate(207.000000, 1979.000000)">
                <g id="layer1" transform="translate(0.000000, 0.695652)">
                    <path d="M0.0576068595,5.49133384 C0.0576068595,2.46484566 2.52851254,0.0109984387 5.57493707,0.0109984387 L65.7043979,0.0109984387 C68.7521315,0.0109984387 71.2216997,2.46484566 71.2216997,5.49133384 L71.2216997,25.0760842 C71.2216997,28.1008112 68.7521315,30.5551123 65.7043979,30.5551123 L5.57493707,30.5551123 C2.52851254,30.5551123 0.0576068595,28.1008112 0.0576068595,25.0760842 L0.0576068595,5.49133384 L0.0576068595,5.49133384 L0.0576068595,5.49133384 Z" id="_92653320" fill="#000268"></path>
                    <path d="M2.32205099,5.67885215 L2.32205099,24.8903559 C2.32205099,26.7812504 3.86651293,28.3148656 5.77163492,28.3148656 L37.2740241,28.3148656 L37.2740241,2.25434212 L5.77163492,2.25434212 C3.86651293,2.25434212 2.32205099,3.78792919 2.32205099,5.67885215 L2.32205099,5.67885215 L2.32205099,5.67885215 Z M45.4136684,15.1886431 C45.4136684,16.411802 44.8075491,17.2524524 43.8040489,17.2524524 C42.9175136,17.2524524 42.1784882,16.411802 42.1784882,15.2916642 C42.1784882,14.1419215 42.8284446,13.2871225 43.8040489,13.2871225 C44.8385767,13.2871225 45.4136684,14.1715553 45.4136684,15.1886431 L45.4136684,15.1886431 Z M39.5215311,22.2039004 L42.1784882,22.2039004 L42.1784882,18.0325001 L42.2081781,18.0325001 C42.7114795,18.9465659 43.7163174,19.2852921 44.6462914,19.2852921 C46.9346463,19.2852921 48.1601218,17.399256 48.1601218,15.1293754 C48.1601218,13.2729731 46.9940262,11.2524923 44.8669282,11.2524923 C43.6569665,11.2524923 42.534708,11.739386 42.0017166,12.8157125 L41.9720267,12.8157125 L41.9720267,11.4307194 L39.5215311,11.4307194 L39.5215311,22.2039004 L39.5215311,22.2039004 Z M51.789125,16.6766854 C51.789125,15.940392 52.4971229,15.6613593 53.399172,15.6613593 C53.7974921,15.6613593 54.1820635,15.6892314 54.5214312,15.7051425 C54.5214312,16.6037238 53.886533,17.5177624 52.8816943,17.5177624 C52.2614278,17.5177624 51.789125,17.2086692 51.789125,16.6766854 L51.789125,16.6766854 Z M57.1487272,19.1088547 C57.0313059,18.5052444 57.0016167,17.8998451 57.0016167,17.2962348 L57.0016167,14.4368652 C57.0016167,12.0935966 55.3042939,11.2524923 53.339821,11.2524923 C52.2033864,11.2524923 51.2140614,11.4147803 50.2685745,11.7986247 L50.3137782,13.5975499 C51.0496722,13.1840725 51.9078551,13.0217837 52.7642738,13.0217837 C53.7225985,13.0217837 54.5054901,13.302607 54.5214312,14.3493285 C54.1820635,14.2900609 53.7084231,14.2449426 53.2804419,14.2449426 C51.8640179,14.2449426 49.3089395,14.5257659 49.3089395,16.868608 C49.3089395,18.5348782 50.6668947,19.2852921 52.1878726,19.2852921 C53.2804419,19.2852921 54.0194393,18.859455 54.6246475,17.8998451 L54.6543374,17.8998451 C54.6543374,18.2991732 54.6977472,18.6953765 54.7137165,19.1088547 L57.1487272,19.1088547 L57.1487272,19.1088547 Z M59.9979414,22.3821283 C62.4347452,22.3821283 63.0098088,20.5097869 63.7630105,18.5786325 L66.5843568,11.4307194 L63.9256066,11.4307194 L62.3456762,16.4414358 L62.3159863,16.4414358 L60.662074,11.4307194 L57.7986555,11.4307194 L60.9137392,19.2852921 C60.7214531,19.9636537 60.2199167,20.3474981 59.5695328,20.3474981 C59.1991376,20.3474981 58.8757111,20.3023798 58.5208296,20.1852093 L58.3444847,22.2039004 C58.8911959,22.3224348 59.437054,22.3821283 59.9979414,22.3821283 Z" id="_92186184" fill="#FFFFFF"></path>
                    <path d="M8.81319155,15.2041275 C8.81319155,14.1574059 9.33066916,13.2871225 10.3199941,13.2871225 C11.5158078,13.2871225 12.0173451,14.2449426 12.0173451,15.0997424 C12.0173451,16.279147 11.2641434,17.0746792 10.3199941,17.0746792 C9.52295526,17.0746792 8.81319155,16.3976526 8.81319155,15.2041275 L8.81319155,15.2041275 Z M14.5870262,11.4307194 L12.1799404,11.4307194 L12.1799404,12.8157125 L12.1520155,12.8157125 C11.5893349,11.872041 10.6731106,11.2524923 9.53713063,11.2524923 C7.14553053,11.2524923 6.0671655,12.9638519 6.0671655,15.2478818 C6.0671655,17.5177624 7.38168194,19.1088547 9.49150033,19.1088547 C10.5561447,19.1088547 11.4422525,18.6953765 12.076696,17.7968232 L12.1063852,17.7968232 L12.1063852,18.2102725 C12.1063852,19.7129189 11.2796572,20.4350637 9.7449305,20.4350637 C8.63684741,20.4350637 7.95677364,20.1993587 7.14553053,19.8018203 L7.01262431,21.8952346 C7.63158213,22.1167902 8.68028533,22.3821283 9.95139197,22.3821283 C13.0522995,22.3821283 14.5870262,21.3645858 14.5870262,18.2102725 L14.5870262,11.4307194 L14.5870262,11.4307194 Z M19.0791088,8.23262372 L16.4208133,8.23262372 L16.4208133,10.1779275 L19.0791088,10.1779275 L19.0791088,8.23262372 L19.0791088,8.23262372 Z M16.4221509,19.1088547 L19.0791088,19.1088547 L19.0791088,11.4307194 L16.4221509,11.4307194 L16.4221509,19.1088547 L16.4221509,19.1088547 Z M26.4798417,11.341393 C26.2140003,11.2980364 25.8888088,11.2524923 25.5795577,11.2524923 C24.4276374,11.2524923 23.7635048,11.872041 23.3053781,12.8453463 L23.2756882,12.8453463 L23.2756882,11.4307194 L20.8544271,11.4307194 L20.8544271,19.1088547 L23.5118396,19.1088547 L23.5118396,15.8674304 C23.5118396,14.3634771 24.2069997,13.4648949 25.4466514,13.4648949 C25.7576676,13.4648949 26.0514042,13.4648949 26.3469355,13.5520059 L26.4798417,11.341393 L26.4798417,11.341393 Z M31.0561538,17.4288898 C29.8306775,17.4288898 29.329141,16.411802 29.329141,15.2775148 C29.329141,14.1277721 29.8306775,13.1106843 31.0561538,13.1106843 C32.282967,13.1106843 32.7849308,14.1277721 32.7849308,15.2775148 C32.7849308,16.411802 32.282967,17.4288898 31.0561538,17.4288898 L31.0561538,17.4288898 Z M31.0561538,19.2852921 C33.596145,19.2852921 35.5309569,17.8127342 35.5309569,15.2775148 C35.5309569,12.7268407 33.596145,11.2524923 31.0561538,11.2524923 C28.5165884,11.2524923 26.583115,12.7268407 26.583115,15.2775148 C26.583115,17.8127342 28.5165884,19.2852921 31.0561538,19.2852921 L31.0561538,19.2852921 Z" id="_47303032" fill="#FF0007"></path>
                </g>
            </g>
        </g>
    </g>
</svg>