<?xml version="1.0" encoding="UTF-8"?>
<svg width="114px" height="22px" viewBox="0 0 114 22" version="1.1" xmlns="http://www.w3.org/2000/svg" xmlns:xlink="http://www.w3.org/1999/xlink">
    <!-- Generator: Sketch 51.3 (57544) - http://www.bohemiancoding.com/sketch -->
    <title>Hong_Leong_Bank</title>
    <desc>Created with Sketch.</desc>
    <defs></defs>
    <g id="Page-1" stroke="none" stroke-width="1" fill="none" fill-rule="evenodd">
        <g id="m7-withdraw-balance-0-1366-copy" transform="translate(-185.000000, -1498.000000)">
            <g id="Hong_Leong_Bank" transform="translate(185.000000, 1498.000000)">
                <g id="g10" transform="translate(57.500000, 11.500000) scale(-1, 1) rotate(-180.000000) translate(-57.500000, -11.500000) ">
                    <g id="g1622" transform="translate(0.328465, 0.626276)">
                        <g id="Group-20" transform="translate(0.000000, -0.000000)">
                            <path d="M7.39712157,11.1090167 C4.82970396,13.0038119 2.65248451,15.7537531 1.94544297,17.5551483 L0.345815433,16.3776958 C1.25751067,14.3443317 2.72707215,12.7029414 4.17814083,11.1090167 C7.35951953,7.68996406 12.6238044,5.72550164 14.9680755,5.81813607 L14.9680755,8.22050672 C13.6661821,8.10567065 10.3171353,8.93708381 7.39712157,11.1090167" id="path1624" fill="#00529B"></path>
                            <path d="M4.79210249,19.7041143 L3.15548934,18.5266617 C5.61071728,13.9515926 10.2246719,10.253871 14.9680761,9.97749889 L14.9680761,12.3331695 C11.0247938,12.5651384 6.98719831,15.4528829 4.79210249,19.7041143" id="path1628" fill="#00529B"></path>
                            <path d="M7.60115926,21.8760469 L5.94543689,20.6281616 C8.62442775,16.2842958 11.750328,14.5280694 14.9680759,14.0664284 L14.9680759,16.4932974 C12.9036626,16.5606679 9.49913737,18.4332615 7.60115926,21.8760469" id="path1632" fill="#00529B"></path>
                            <path d="M5.94543689,1.70547378 L7.60115927,0.480555663 C8.36367922,1.86700985 9.38818056,2.97556074 10.4478182,3.8307067 C12.028953,5.07859203 13.7222774,5.77220191 14.9680759,5.84033798 L14.9680759,8.24423977 C13.4245432,8.01303648 11.9173797,7.50392989 10.4478182,6.5561495 C8.86606706,5.54023304 7.34102716,3.97004114 5.94543689,1.70547378" id="path1636" fill="#CE1041" fill-rule="nonzero"></path>
                            <path d="M3.15487284,3.73883788 L4.79210241,2.6065542 C6.13159784,5.17046093 8.17813481,7.27425779 10.4478183,8.54434475 C11.898887,9.3765235 13.4430361,9.86113173 14.9686924,9.97749895 L14.9686924,12.3331696 C13.4245433,12.2413007 11.898887,11.7788941 10.4478183,11.062317 C7.45260047,9.53805957 4.81121164,6.8585512 3.15487284,3.73883788" id="path1640" fill="#CE1041" fill-rule="nonzero"></path>
                            <path d="M10.4478179,15.4069482 C8.28970773,14.4829006 5.92694382,13.0267792 4.17814099,11.1549512 C2.72768874,9.53805926 1.25751083,7.85073456 0.345815593,5.84033771 L1.98304517,4.6621196 C2.65248467,6.46581152 4.82970412,9.26015596 7.39712173,11.1779184 C8.40128098,11.9182283 9.44304227,12.4954709 10.4478179,12.9571119 C12.3827817,13.8114923 14.1124753,14.1598284 14.9686921,14.0664284 L14.9686921,16.4687991 C13.908438,16.5392318 12.2527156,16.1457269 10.4478179,15.4069482" id="path1644" fill="#CE1041" fill-rule="nonzero"></path>
                        </g>
                    </g>
                    <g id="g1630" transform="translate(6.080344, 14.081011)"></g>
                    <g id="g1634" transform="translate(6.273902, 0.800602)"></g>
                    <g id="g1646" transform="translate(19.003115, 2.892003)" fill="#00529B" fill-rule="nonzero">
                        <g id="Group-21">
                            <polyline id="path1648" points="0 3.59375 0 14.1571376 2.34427111 14.1571376 2.34427111 9.97021435 5.21065572 9.97021435 5.21065572 14.1571376 7.545064 14.1571376 7.545064 3.59375 5.21065572 3.59375 5.21065572 7.91847651 2.33687399 7.91847651 2.33687399 3.59375 0 3.59375"></polyline>
                            <path d="M11.5123867,11.150729 C9.66618839,11.150729 8.08751937,9.97021415 8.08751937,7.26620742 C8.08751937,4.55224823 9.66618839,3.37785799 11.5123867,3.37785799 C13.3462564,3.37785799 14.9280075,4.55224823 14.9280075,7.26620742 C14.9280075,9.97021415 13.3462564,11.150729 11.5123867,11.150729 M10.3707642,7.26620742 C10.3707642,8.3020288 10.5717194,9.54838298 11.5123867,9.54838298 C12.4456568,9.54838298 12.6404477,8.3020288 12.6404477,7.26620742 C12.6404477,6.22655817 12.4456568,4.98709416 11.5123867,4.98709416 C10.5717194,4.98709416 10.3707642,6.22655817 10.3707642,7.26620742" id="path1652"></path>
                            <path d="M17.7315166,10.123329 C18.2406852,10.8552176 18.831222,11.1507291 19.5832627,11.1507291 C20.8469377,11.1507291 21.7863721,10.123329 21.7863721,8.50031254 L21.7863721,3.59374993 L19.5598385,3.59374993 L19.5598385,7.90699283 C19.5314829,8.62127321 19.3866226,9.39756506 18.696841,9.39756506 C17.593437,9.39756506 17.7315166,7.89474365 17.7315166,7.80287479 L17.7315166,3.59374993 L15.5000516,3.59374993 L15.5000516,9.04310438 C15.5000516,9.70149787 15.4901888,10.1355782 15.4285461,10.9363684 L17.6982296,10.9363684 L17.7315166,10.123329" id="path1660"></path>
                            <path d="M29.1267825,10.9363682 L26.946481,10.9363682 L26.8842218,9.86609602 L26.8577155,9.86609602 C26.5149822,10.7243043 25.8819119,11.1507289 25.0595985,11.1507289 C23.3496306,11.1507289 22.3393071,9.63412715 22.3393071,7.49664505 C22.3393071,5.54213508 23.2423723,3.83490547 24.9406282,3.83490547 C25.6908196,3.83490547 26.4921744,4.19013172 26.8577155,5.00393669 L26.8842218,5.00393669 L26.8842218,4.17175795 C26.8842218,3.09076771 26.7060745,2.29686766 25.7191752,2.29686766 C25.4837002,2.29686766 25.2476087,2.36041029 25.0743928,2.48596439 C24.9079575,2.62836112 24.7914529,2.85190868 24.7791243,3.21325952 L22.6888211,3.21325952 C22.6888211,1.08649545 24.4228296,0.69758395 25.7284216,0.69758395 C26.4705995,0.69758395 27.6979052,1.00075118 28.2970721,1.72192172 C28.9862372,2.54185128 29.0860984,3.35948412 29.1267825,4.61272847 L29.1267825,10.9363682 Z M26.8842218,7.49664505 C26.8842218,6.58101876 26.6844996,5.44490721 25.7641744,5.44490721 C24.8506298,5.44490721 24.6422776,6.58101876 24.6422776,7.49664505 C24.6422776,8.40538117 24.8506298,9.54838289 25.7641744,9.54838289 C26.6844996,9.54838289 26.8842218,8.40538117 26.8842218,7.49664505 Z" id="path1672"></path>
                        </g>
                    </g>
                    <g id="g1650" transform="translate(26.816941, 5.621420)"></g>
                    <g id="g1654" transform="translate(50.836913, 3.465170)" fill="#00529B" fill-rule="nonzero">
                        <g id="Group-22">
                            <path d="M16.9372705,10.577562 C15.0910722,10.577562 13.5117867,9.39704719 13.5117867,6.69304046 C13.5117867,3.97908127 15.0910722,2.80469103 16.9372705,2.80469103 C18.7711402,2.80469103 20.3528913,3.97908127 20.3528913,6.69304046 C20.3528913,9.39704719 18.7711402,10.577562 16.9372705,10.577562 M15.7950316,6.69304046 C15.7950316,7.72886184 15.9959867,8.97521602 16.9372705,8.97521602 C17.8705406,8.97521602 18.0647151,7.72886184 18.0647151,6.69304046 C18.0647151,5.65339121 17.8705406,4.4139272 16.9372705,4.4139272 C15.9959867,4.4139272 15.7950316,5.65339121 15.7950316,6.69304046" id="path1656"></path>
                            <path d="M23.1181832,9.55016208 C23.6285846,10.2820507 24.218505,10.5775621 24.9711621,10.5775621 C26.2354535,10.5775621 27.1742715,9.55016208 27.1742715,7.92714558 L27.1742715,3.02058297 L24.9471215,3.02058297 L24.9471215,7.33382587 C24.9193823,8.04810625 24.774522,8.8243981 24.0835075,8.8243981 C22.98072,8.8243981 23.1181832,7.32157669 23.1181832,7.22970783 L23.1181832,3.02058297 L20.8885675,3.02058297 L20.8885675,8.46993742 C20.8885675,9.12833091 20.8780882,9.56241126 20.8158291,10.3632015 L23.0855126,10.3632015 L23.1181832,9.55016208" id="path1664"></path>
                            <path d="M34.4400932,10.3632013 L32.2597916,10.3632013 L32.1975325,9.29292906 L32.1716426,9.29292906 C31.8301421,10.1511373 31.1958389,10.5775619 30.3729092,10.5775619 C28.6635577,10.5775619 27.6520013,9.06096019 27.6520013,6.92347809 C27.6520013,4.96896812 28.5562994,3.2617385 30.2539388,3.2617385 C31.0053631,3.2617385 31.8061015,3.61696476 32.1716426,4.43076973 L32.1975325,4.43076973 L32.1975325,3.59859099 C32.1975325,2.51760075 32.0193851,1.7237007 31.0318694,1.7237007 C30.7970108,1.7237007 30.5609193,1.78724333 30.3877034,1.91279743 C30.2212682,2.05519416 30.1059964,2.27874172 30.0930514,2.64009256 L28.0027481,2.64009256 C28.0027481,0.51332849 29.7361403,0.124416989 31.0423487,0.124416989 C31.7845265,0.124416989 33.0118323,0.427584222 33.6097663,1.14875476 C34.3007807,1.96868432 34.4006419,2.78631716 34.4400932,4.03956151 L34.4400932,10.3632013 Z M32.1975325,6.92347809 C32.1975325,6.0078518 31.9978102,4.87174025 31.0781014,4.87174025 C30.1645569,4.87174025 29.9555882,6.0078518 29.9555882,6.92347809 C29.9555882,7.83221421 30.1645569,8.97521593 31.0781014,8.97521593 C31.9978102,8.97521593 32.1975325,7.83221421 32.1975325,6.92347809 Z" id="path1668"></path>
                            <polyline id="path1676" points="0.301764081 3.02058304 0.301764081 13.5839706 2.63370666 13.5839706 2.63370666 5.06619629 6.46356635 5.06619629 6.46356635 3.02058304 0.301764081 3.02058304"></polyline>
                            <path d="M13.0340592,6.1357028 C13.0340592,8.86497347 12.2653749,10.5775621 9.8674747,10.5775621 C8.09648051,10.5775621 6.70212309,9.26460301 6.70212309,6.93496187 C6.70212309,4.05027972 7.63909183,2.80545669 10.003705,2.80545669 C10.6959523,2.80545669 11.3592275,2.96546161 11.8671632,3.37427803 C12.4342759,3.7700797 12.9132395,4.47287647 12.9865943,5.41453227 L10.9184824,5.41453227 C10.8327991,4.73010927 10.4487652,4.369524 9.82309197,4.369524 C8.99584721,4.369524 8.79365922,5.18639127 8.80537133,6.1357028 L13.0340592,6.1357028 Z M8.8485212,7.62015044 C8.91016388,8.45845378 9.10187262,9.14670464 9.8674747,9.18957677 C10.2077423,9.21407514 10.4678744,9.0249784 10.6466382,8.72028002 C10.8241691,8.41940951 10.9184824,8.01212424 10.9184824,7.62015044 L8.8485212,7.62015044 Z" id="path1680"></path>
                        </g>
                    </g>
                    <g id="g1658" transform="translate(34.268925, 6.125168)"></g>
                    <g id="g1662" transform="translate(71.489389, 6.125168)"></g>
                    <g id="g1666" transform="translate(77.879885, 3.110338)"></g>
                    <g id="g1670" transform="translate(40.732776, 3.110338)"></g>
                    <g id="g1674" transform="translate(51.138677, 6.485753)"></g>
                    <g id="g1678" transform="translate(57.090277, 5.773004)"></g>
                    <g id="g1682" transform="translate(88.018259, 6.046313)" fill="#CE1041" fill-rule="nonzero">
                        <g id="Group-23">
                            <path d="M4.31498758,6.89016438 C4.13252525,6.81590372 3.80520262,6.77303159 3.34843036,6.77303159 L1.7321593,6.77303159 L1.7321593,9.7480599 L3.22083002,9.74805145 C3.78054555,9.74881703 4.17567513,9.69752358 4.38957522,9.60718587 C4.60470818,9.51378587 4.76436272,9.35224979 4.87963453,9.10573502 C4.99798847,8.8576891 5.05716545,8.57059892 5.05778187,8.23527759 C5.05716545,7.88234805 4.99305706,7.59832017 4.87038813,7.37400704 C4.74771919,7.15122506 4.56587329,6.99045455 4.31498758,6.89016438 Z M4.29834406,1.96446242 C4.17444227,1.9330739 3.93958366,1.9154657 3.60609676,1.91623127 L1.7321593,1.91620731 L1.7321593,5.32839379 L3.46740074,5.32839379 C3.9611586,5.32839379 4.3384118,5.26867903 4.58991393,5.15613968 C4.84018321,5.04666262 5.03127552,4.85909704 5.17243726,4.58884948 C5.31236614,4.3163052 5.38325522,3.99782649 5.38448808,3.62116417 C5.38448808,3.29962317 5.33394108,3.02095429 5.2377785,2.78056412 C5.13853378,2.53711164 5.01586485,2.35796737 4.86915527,2.23624113 C4.71874713,2.11068702 4.53012053,2.01958374 4.29834406,1.96446242 Z M6.22960921,5.27327247 C5.99351775,5.68897906 5.66064728,5.99061514 5.24825775,6.18889876 C5.5552383,6.42546107 5.79872688,6.72097257 5.96269641,7.08002669 C6.15132301,7.49037426 6.24686916,7.93440707 6.24686916,8.40064153 C6.24686916,8.90209238 6.14022733,9.38363832 5.92817651,9.83992031 C5.71550927,10.2992646 5.41592584,10.6437728 5.03867264,10.8657892 C4.65957016,11.0862745 4.16642872,11.1942204 3.55801547,11.1942204 L0.526428485,11.1942204 L0.526428485,0.468531178 L3.60609676,0.468531178 C4.11156674,0.468531178 4.54183264,0.528245936 4.89689448,0.648441026 C5.24949061,0.768636116 5.54784118,0.94778039 5.7876312,1.18893614 C6.02803765,1.4300919 6.22714351,1.77077225 6.38741447,2.20408703 C6.54768544,2.64122968 6.62782093,3.11588545 6.62782093,3.62116417 C6.62782093,4.25123142 6.49590559,4.80550687 6.22960921,5.27327247 Z" id="path1684"></path>
                            <path d="M11.3477777,4.27190196 L11.3477777,3.94882981 C11.3477777,3.39761666 11.2978471,2.9780822 11.2004517,2.70247563 C11.0728513,2.34571823 10.8706633,2.06245592 10.5994356,1.85651656 C10.3263585,1.65134277 10.0088987,1.54569359 9.65568613,1.54569359 C9.30802142,1.54569359 9.04049219,1.65210835 8.8635777,1.86187557 C8.68481393,2.07317395 8.5991306,2.32964118 8.5991306,2.64658874 C8.5991306,2.85405925 8.63858192,3.03703139 8.72056668,3.2062232 C8.80131859,3.37235272 8.91289184,3.49637568 9.06268355,3.58518224 C9.21802311,3.67551995 9.49110018,3.76049865 9.87636693,3.83399374 C10.5045058,3.95571997 10.9982637,4.10194457 11.3477777,4.27190196 M12.7692579,0.65456566 C12.6533696,0.934000104 12.5750834,1.23027717 12.5350157,1.5365067 C12.4955644,1.84579852 12.4752223,2.60524775 12.4752223,3.79188718 L12.4752223,5.50906925 C12.4752223,6.09320208 12.4585788,6.48670702 12.4265246,6.7156136 C12.3667312,7.08232346 12.2619386,7.39008413 12.1133798,7.63353661 C11.9629716,7.87852023 11.728113,8.08216286 11.4149682,8.24063665 C11.105522,8.39834485 10.6999131,8.47796453 10.2098538,8.47796453 C9.7148631,8.47796453 9.27411794,8.38609567 8.9005633,8.20312353 C8.51776226,8.01785466 8.22064455,7.74913825 8.01907298,7.40386446 C7.81750142,7.06088739 7.6720247,6.60996441 7.58449209,6.05798568 L7.56723214,5.95386764 L8.658924,5.75252173 L8.67618395,5.84285944 C8.77481224,6.3557939 8.92522038,6.71791032 9.12370981,6.91313164 C9.32219923,7.10988411 9.64150832,7.21093986 10.0711578,7.21093986 C10.5291629,7.21093986 10.8780605,7.07313657 11.1067548,6.80135786 C11.2701079,6.60766769 11.3533255,6.25856602 11.3533255,5.76630206 C11.3533255,5.7241955 11.3514763,5.63768566 11.3490105,5.50064794 C10.9896337,5.34217416 10.4385482,5.2036053 9.70993169,5.08647251 C9.32897993,5.02369545 9.03864291,4.9578561 8.84693417,4.88895446 C8.58433636,4.79096101 8.34516276,4.64397084 8.1343448,4.45334296 C7.92106112,4.25735606 7.74661234,3.99629539 7.61654629,3.67628553 C7.48524738,3.35474452 7.41805686,2.99722155 7.41805686,2.61060677 C7.41805686,1.95144771 7.59373849,1.40100013 7.94263606,0.975341091 C8.28906792,0.551213194 8.79022291,0.335321377 9.42699179,0.335321377 C9.81225854,0.335321377 10.1771832,0.421065645 10.5131358,0.593319754 C10.8127192,0.744903371 11.125864,0.996777158 11.4470224,1.3435821 C11.4821587,1.05419519 11.5419521,0.792368948 11.6257862,0.565759097 L11.6473611,0.506809913 L12.8309006,0.506809913 L12.7692579,0.65456566" id="path1688"></path>
                            <path d="M18.4687443,6.56862354 L18.4675115,6.57015469 C18.4095673,6.95141045 18.3053912,7.28443506 18.1555995,7.5669318 C18.0033421,7.85478756 17.7740313,8.08445971 17.4756808,8.25747939 C17.1760973,8.43049907 16.8481583,8.51624334 16.4930964,8.51624334 C15.7706442,8.51854006 15.1868881,8.16561053 14.7658685,7.47889082 L14.7658685,8.34322366 L13.7296551,8.34322366 L13.7296551,0.468531343 L14.8607983,0.468531343 L14.8607983,4.75880703 C14.8601818,5.73032021 15.0124393,6.37033992 15.2818178,6.68345962 C15.5672234,7.0203121 15.8976281,7.18261375 16.290292,7.18261375 C16.5356299,7.18261375 16.7402836,7.10988423 16.9171981,6.96519078 C17.094729,6.81973176 17.2143158,6.63063502 17.2852049,6.38794812 L17.2852049,6.38947927 C17.3542447,6.14755794 17.3924631,5.75864644 17.3924631,5.2365251 L17.3924631,0.468531343 L18.5236063,0.468531343 L18.5236063,5.28628739 C18.5229899,5.89109071 18.5063464,6.31368746 18.4687443,6.56862354" id="path1692"></path>
                            <polyline id="path1696" points="22.4237389 4.75880721 24.9295138 7.87239594 23.4186517 7.87239594 21.243898 5.08187937 21.243898 11.2133601 20.1016591 11.2133601 20.1016591 0.503747922 21.243898 0.503747922 21.243898 4.53066622 23.5974155 0.4692971 25.0688263 0.4692971 22.4237389 4.75880721"></polyline>
                        </g>
                    </g>
                    <g id="g1686" transform="translate(95.051049, 5.724773)"></g>
                    <g id="g1690" transform="translate(101.555589, 6.490346)"></g>
                    <g id="g1694" transform="translate(107.976291, 6.211678)"></g>
                </g>
            </g>
        </g>
    </g>
</svg>