<?xml version="1.0" encoding="UTF-8"?>
<svg width="42px" height="37px" viewBox="0 0 42 37" version="1.1" xmlns="http://www.w3.org/2000/svg" xmlns:xlink="http://www.w3.org/1999/xlink">
    <!-- Generator: Sketch 49.1 (51147) - http://www.bohemiancoding.com/sketch -->
    <title>ideal</title>
    <desc>Created with Sketch.</desc>
    <defs></defs>
    <g id="Page-1" stroke="none" stroke-width="1" fill="none" fill-rule="evenodd">
        <g id="m7-withdraw-balance-0-1366" transform="translate(-786.000000, -1466.000000)">
            <g id="ideal" transform="translate(786.000000, 1466.000000)">
                <path d="M41.9977978,17.0789245 C41.9977978,17.6826193 41.9977978,18.2861578 41.9977978,18.8898526 C41.9702697,18.9213877 41.9815955,18.9594796 41.9822247,18.9944493 C42.0089663,20.4594276 41.795191,21.8956808 41.4617079,23.3180399 C41.1478876,24.6564094 40.6885618,25.9435733 40.0582472,27.1667303 C39.4807865,28.2874761 38.7718202,29.3204857 37.9215955,30.2587337 C37.0861573,31.1805898 36.1483146,31.9823938 35.1127865,32.6722637 C34.2051461,33.2768951 33.241191,33.780052 32.2339775,34.2006245 C30.3716629,34.9782307 28.4294382,35.4592194 26.4321573,35.7335126 C25.5606966,35.8532524 24.6881348,35.9564441 23.8066067,35.9723677 C23.5712809,35.9765828 23.3356404,35.9789245 23.1001573,35.9839202 C22.9290112,35.9937554 22.756764,35.9637814 22.5865618,36 C15.0584472,36 7.53031685,36 0,36 C0,24.0036947 0,12.0074987 0,0 C7.52740674,0 15.057,0 22.5865618,0 C22.7662022,0.0347354727 22.9477303,0.00696270598 23.128,0.0160954033 C24.3868989,0.0227614918 25.6358876,0.146607112 26.8795281,0.334069384 C28.2870787,0.546244579 29.6688315,0.866107546 31.0156629,1.32530269 C32.9608764,1.98850824 34.7616854,2.91884128 36.3474607,4.23015611 C37.4942022,5.17837988 38.4746742,6.27511535 39.2828989,7.52412489 C40.5402247,9.46712576 41.2877303,11.5991813 41.6990787,13.8590009 C41.8202022,14.5244389 41.914427,15.1935924 41.9613034,15.8679445 C41.9856854,16.2198265 41.9891461,16.5740503 41.9826966,16.9274935 C41.9817528,16.9777624 41.9657079,17.0313096 41.9977978,17.0789245" id="Fill-1" fill="#000105"></path>
                <path d="M23.1528539,0 C23.1531685,0.13717984 23.1534831,0.274131807 23.1541124,0.411083773 C22.9644045,0.428630032 22.7735955,0.765882795 22.5865618,0 C22.7753258,0 22.9640899,0 23.1528539,0" id="Fill-5" fill="#ABADA9"></path>
                <path d="M23.1262697,36.0799603 C23.1217079,36.2001215 23.1201348,36.3291836 23.1213933,36.4649214 C22.9431685,36.4649214 22.7649438,36.4649214 22.5865618,36.4649214 C22.6180225,35.8930427 22.6631685,36.0688342 22.7031236,36.0821855 C22.8442247,36.1355905 22.9851685,35.7951335 23.1262697,36.0799603" id="Fill-6" fill="#4B4E4C"></path>
                <path d="M1.72722247,17.9990633 C1.72722247,12.634314 1.72722247,7.26951778 1.72722247,1.9047216 C1.72722247,1.69710494 1.7272382,1.69707372 1.93319551,1.69707372 C8.46614607,1.69707372 14.9991124,1.69682394 21.532,1.69741717 C22.2661348,1.69747962 23.0002697,1.71124892 23.7329888,1.75511709 C25.5149213,1.86182134 27.2768764,2.10073894 29.004382,2.55957502 C30.6264944,2.99043539 32.1749888,3.59789245 33.6116404,4.46912056 C36.0146067,5.92626193 37.7847416,7.93223938 38.9061573,10.4978092 C39.4446067,11.7294744 39.7982247,13.0140937 40.0200225,14.337039 C40.2731236,15.846869 40.3420225,17.367268 40.2891685,18.8937554 C40.2408764,20.289575 40.0714607,21.6711882 39.7360899,23.0301648 C39.3189213,24.7207285 38.6623371,26.3082567 37.6758876,27.7541891 C36.7415056,29.1239376 35.5766742,30.2640416 34.1986966,31.1915178 C32.7415955,32.1726973 31.1470112,32.8563226 29.4610337,33.3402775 C28.3473258,33.66 27.2133258,33.8835559 26.0646966,34.0376409 C24.5868315,34.2357502 23.1018876,34.314588 21.6114382,34.314588 C15.041836,34.3139636 8.47217079,34.3144319 1.90252135,34.3139636 C1.70466517,34.3139636 1.72758427,34.3408153 1.72756854,34.1403643 C1.72712809,28.7600347 1.72722247,23.379549 1.72722247,17.9990633" id="Fill-7" fill="#FFFFFE"></path>
                <path d="M14.0170202,25.0096964 C14.0170202,22.8554727 14.0167371,20.701405 14.0174449,18.5471813 C14.0175079,18.3215958 13.9904202,18.3526626 14.2201303,18.3498526 C14.6603438,18.3443886 15.1011551,18.366869 15.5406449,18.3284649 C16.3356404,18.2593062 17.0375281,17.9842324 17.5917079,17.3949003 C17.9761573,16.9861925 18.220764,16.4997398 18.3502247,15.9598959 C18.5910562,14.9561891 18.5957753,13.9549332 18.2147865,12.9828708 C17.767573,11.8416271 16.9030337,11.2133131 15.6877551,11.0497832 C15.2284607,10.9879775 14.7662562,11.0277866 14.3054989,11.0160624 C14.2173461,11.0138144 14.1085708,11.0522029 14.0462,10.9981093 C13.9743753,10.935804 14.0185146,10.821575 14.018436,10.7307788 C14.0165955,8.67030182 14.0168315,6.60980919 14.0173034,4.54931657 C14.0173506,4.34283955 13.9955798,4.36339983 14.1996966,4.36344666 C16.8421573,4.3640399 19.4845393,4.3643209 22.1269213,4.36675629 C23.0974831,4.36764614 24.0652135,4.42665742 25.0294831,4.53290893 C26.4804494,4.69280139 27.9075056,4.96915525 29.293191,5.43493842 C30.6577978,5.89360278 31.9352584,6.51907546 33.0838876,7.39020989 C34.4989888,8.46337207 35.5713258,9.80817346 36.3178876,11.4107979 C36.8424944,12.5368985 37.1783371,13.7187944 37.3796854,14.941046 C37.4558202,15.4032073 37.5089888,15.8677884 37.5550787,16.3334779 C37.5586966,16.3696964 37.5586966,16.4062272 37.5623146,16.4424458 C37.5673483,16.4930269 37.5508315,16.5222203 37.4943596,16.5195663 C37.4630562,16.5181613 37.4315955,16.5198786 37.4001348,16.5198786 C36.5978876,16.5200347 35.7957978,16.5200347 34.9935506,16.5200347 C34.9674382,16.5200347 34.9411685,16.5187858 34.9148989,16.5200347 C34.8631461,16.5225325 34.8368764,16.5005204 34.8379775,16.4474415 C34.8389213,16.4006071 34.8375056,16.3537728 34.8375056,16.3069384 C34.8375056,14.6054779 34.8378202,12.9040173 34.837191,11.2025568 C34.8370337,10.98868 34.8588989,11.0139393 34.6419775,11.0134241 C34.1491461,11.0122533 33.6563146,11.0128933 33.1634831,11.0131743 C32.9827416,11.0132836 33.0003596,11.0033391 33.0003596,11.1712402 C32.9998876,12.1182307 33.0000449,13.0652212 33.0000449,14.0122116 C33.0000449,15.3962758 32.9998876,16.7802775 33.0003596,18.1643886 C33.0003596,18.3678057 32.9786517,18.3495403 33.1840899,18.3495403 C34.5996629,18.3498526 36.015236,18.3495403 37.430809,18.3500087 C37.6442697,18.3500087 37.6246067,18.328621 37.618,18.5445273 C37.5726966,20.0202775 37.4026517,21.478699 36.9955506,22.9035559 C36.6340674,24.1691761 36.1019101,25.3558023 35.3358427,26.4345533 C34.4580899,27.6706678 33.3483146,28.6538768 32.038764,29.4197745 C30.8050337,30.1413356 29.4780225,30.6295056 28.0929663,30.9715525 C27.217573,31.1876149 26.3305393,31.3402949 25.4350112,31.44817 C24.1791011,31.5992888 22.9184719,31.659549 21.6542247,31.6598612 C19.1691461,31.6603296 16.6840674,31.6600173 14.1988787,31.6600173 C14.1831483,31.6600173 14.167418,31.6601735 14.1516876,31.6600173 C14.0189236,31.6578317 14.0188292,31.6578317 14.0170989,31.5188899 C14.0166427,31.4825152 14.0170202,31.4459844 14.0170202,31.4096097 C14.0170202,29.2763053 14.0170202,27.1430009 14.0170202,25.0096964" id="Fill-8" fill="#C61C6E"></path>
                <path d="M10.7939371,26.0177277 C10.7939371,27.8383348 10.7942045,29.659098 10.7935753,31.4797051 C10.7934966,31.686869 10.8168876,31.6564267 10.6224292,31.6564267 C8.60968539,31.6572073 6.59694157,31.6568951 4.58419775,31.6568951 C4.55799101,31.6568951 4.53151685,31.6545533 4.50562472,31.6573634 C4.43455506,31.6651691 4.39455281,31.6440937 4.40391236,31.5643192 C4.40812809,31.5284128 4.40452584,31.4915698 4.40452584,31.4551951 C4.40451011,27.8241284 4.40430562,24.1932177 4.40499775,20.562307 C4.40504494,20.3281353 4.37429213,20.3621683 4.60106067,20.3621683 C6.60331236,20.3612316 8.60557978,20.3612316 10.6078315,20.3621683 C10.8180202,20.3621683 10.7934494,20.3281353 10.7935281,20.5401388 C10.794236,22.3660538 10.7939371,24.1918127 10.7939371,26.0177277" id="Fill-9" fill="#000105"></path>
                <path d="M3.62743146,14.6543105 C3.65121573,12.3936635 5.52449438,10.699431 7.66528315,10.733745 C9.84566517,10.768699 11.6039708,12.5536496 11.5706854,14.7359428 C11.5366292,16.9688638 9.66868315,18.6550564 7.52792584,18.6172767 C5.44851685,18.5805898 3.62692809,16.899549 3.62743146,14.6543105" id="Fill-10" fill="#000105"></path>
                <path d="M14.0113573,14.6732628 C14.0113573,14.1275178 14.0113573,13.5817728 14.011373,13.0360278 C14.011373,12.9996531 14.0130562,12.9631847 14.0112629,12.9269037 C14.0080225,12.8611015 14.0364787,12.8353582 14.1041506,12.8362168 C14.3188382,12.8389488 14.5336045,12.835405 14.7482921,12.8375282 C14.9889348,12.8399011 15.229436,12.8304406 15.4700157,12.858307 C16.0164719,12.9215958 16.3754382,13.2090807 16.5431236,13.7275681 C16.6747865,14.1348239 16.6876854,14.5547875 16.658427,14.9770616 C16.6441124,15.1843348 16.6161124,15.3899688 16.5561798,15.5905915 C16.3806292,16.1779879 16.0147416,16.48085 15.3971528,16.5097311 C14.9685955,16.5297138 14.5385124,16.5186297 14.1091056,16.519098 C14.0143618,16.5192541 14.0121124,16.5145707 14.0118135,16.3884302 C14.0107753,15.9363226 14.011373,15.4840902 14.0113573,15.0319046 C14.0113573,14.9123521 14.0113573,14.7928153 14.0113573,14.6732628" id="Fill-11" fill="#C61C6E"></path>
                <path d="M32.049618,18.3362706 C32.0058876,18.364059 31.9577528,18.3514137 31.9121348,18.3514137 C31.377618,18.3525065 30.8429438,18.3523504 30.3082697,18.3520382 C30.1583596,18.351882 30.1577303,18.3515698 30.1163596,18.2110668 C30.003573,17.8270252 29.8917303,17.4425152 29.7786292,17.0584735 C29.7404045,16.9285863 29.7391461,16.9273374 29.6118876,16.9273374 C28.8937978,16.9267129 28.1757079,16.9267129 27.457618,16.9271813 C27.3346067,16.9273374 27.3330337,16.9282741 27.2981124,17.0456722 C27.1824944,17.4345533 27.0703371,17.8242151 26.9522022,18.2123157 C26.9094157,18.3525065 26.9446517,18.3523504 26.7599775,18.3521943 C26.2253034,18.3520382 25.6906292,18.3525065 25.1561124,18.3514137 C25.1106517,18.3514137 25.0625169,18.3639029 25.0183146,18.3365828 C25.0022697,18.2761665 25.035618,18.2244926 25.0516629,18.1717259 C25.7581124,15.8431223 26.4662921,13.5150338 27.1741573,11.1869141 C27.1848539,11.152085 27.1982247,11.1178491 27.2054607,11.0823643 C27.2155281,11.0334692 27.2425843,11.0109107 27.2926067,11.0130338 C27.3187191,11.0141422 27.3449888,11.0128153 27.3712584,11.0128153 C28.1469213,11.0127997 28.9225843,11.0124406 29.6984045,11.0131431 C29.8536629,11.013268 29.8390337,10.993301 29.8882697,11.1556132 C30.598809,13.4940676 31.3095056,15.8325065 32.0186292,18.1714137 C32.0345169,18.2240243 32.0700674,18.2755421 32.049618,18.3362706" id="Fill-12" fill="#FFFFFE"></path>
                <path d="M19.5613034,14.677072 C19.5613034,13.5273513 19.5613034,12.3776305 19.5613034,11.2279098 C19.5613034,11.1967025 19.5606742,11.1654796 19.5614607,11.1342723 C19.5638202,11.0183105 19.5639775,11.0161405 19.6843146,11.0160937 C21.0682697,11.0155629 22.4520674,11.0155629 23.8360225,11.0160312 C23.9642247,11.0160781 23.9661124,11.0180295 23.9662697,11.1441388 C23.9670562,11.6643747 23.9670562,12.1846106 23.9662697,12.7048465 C23.9661124,12.8349835 23.964382,12.8362168 23.8239101,12.8362949 C23.0795506,12.8367476 22.335191,12.8360919 21.5908315,12.8367788 C21.3713933,12.8369974 21.3975056,12.8153131 21.3964045,13.0266765 C21.3953034,13.2087528 21.3949888,13.3908604 21.3967191,13.5729211 C21.3976629,13.6836531 21.3995506,13.6866193 21.510764,13.6871344 C21.8462921,13.6887112 22.1818202,13.6877121 22.517191,13.6877277 C22.9104494,13.6877433 23.3035506,13.687072 23.6966517,13.688196 C23.8195056,13.6885395 23.8223371,13.6907719 23.8226517,13.8065776 C23.8237528,14.3372108 23.8237528,14.8678595 23.8226517,15.3984926 C23.8223371,15.5127997 23.8195056,15.5147823 23.6958652,15.5149072 C22.9883146,15.5155941 22.2806067,15.5149853 21.5728989,15.5154224 C21.3757978,15.5155473 21.397191,15.4990772 21.3964045,15.691379 C21.3954607,15.920399 21.395618,16.1492628 21.3964045,16.3781266 C21.3967191,16.5186297 21.3976629,16.5197225 21.5447416,16.5197225 C22.3362921,16.5201908 23.1278427,16.5195663 23.9193933,16.5203469 C24.1257753,16.520503 24.1098876,16.4942758 24.1100449,16.7153339 C24.1106742,17.1991327 24.1102022,17.6829315 24.1102022,18.1668864 C24.1102022,18.2032611 24.1094157,18.2396357 24.109573,18.2760104 C24.1098876,18.3284649 24.0823596,18.3506331 24.0313933,18.3495403 C23.9999326,18.3487598 23.9684719,18.3498526 23.9370112,18.3498526 C22.5374831,18.3498526 21.1377978,18.3500087 19.7382697,18.3495403 C19.5446292,18.3495403 19.5614607,18.3684302 19.5614607,18.173131 C19.5611461,17.0077363 19.5613034,15.8423417 19.5613034,14.677072" id="Fill-13" fill="#FFFEFE"></path>
                <path d="M29.1785169,15.1026088 C28.7460899,15.1026088 28.3179101,15.1026088 27.8908315,15.1026088 C27.8702247,15.0491552 27.8982247,15.0064267 27.9106517,14.963667 C28.0868315,14.3610338 28.2652135,13.7589939 28.4431236,13.1568448 C28.4489438,13.1369402 28.456809,13.1175976 28.462,13.0975369 C28.4715955,13.0602255 28.4854382,13.0305637 28.532,13.0271136 C28.5889438,13.0228985 28.6029438,13.0615837 28.6148989,13.1022047 C28.664764,13.2714172 28.7133708,13.4410043 28.7630787,13.6102793 C28.9002472,14.0782793 29.0378876,14.5462012 29.1755281,15.0141075 C29.182764,15.0388829 29.1937753,15.062987 29.1785169,15.1026088" id="Fill-14" fill="#C61C6E"></path>
            </g>
        </g>
    </g>
</svg>