<?xml version="1.0" encoding="UTF-8"?>
<svg width="109px" height="27px" viewBox="0 0 109 27" version="1.1" xmlns="http://www.w3.org/2000/svg" xmlns:xlink="http://www.w3.org/1999/xlink">
    <!-- Generator: Sketch 51.3 (57544) - http://www.bohemiancoding.com/sketch -->
    <title>KBANK_Logo</title>
    <desc>Created with Sketch.</desc>
    <defs></defs>
    <g id="Page-1" stroke="none" stroke-width="1" fill="none" fill-rule="evenodd">
        <g id="m7-withdraw-balance-0-1366-copy" transform="translate(-754.000000, -1203.000000)">
            <g id="KBANK_Logo" transform="translate(754.000000, 1203.000000)">
                <g id="#98867dff" fill-rule="nonzero">
                    <g id="Group-36">
                        <path d="M57.4321,0 C57.7373,0.06912 58.1842,-0.06264 58.34116,0.28944 C58.59404,0.79488 58.73356,1.34568 58.91886,1.87704 C59.29818,1.27008 59.6666,0.65664 60.02412,0.03456 C60.38164,0.03024 60.73916,0.03024 61.09886,0.02592 C61.11194,2.77344 61.07706,5.52096 61.1163,8.26848 C61.87712,8.21448 62.70988,8.694 62.77092,9.50184 C62.90608,10.43496 61.89892,11.20392 61.01166,10.96632 C60.42088,10.86048 59.92602,10.33344 59.92384,9.72864 C59.87152,7.25544 59.93256,4.78008 59.91076,2.30688 C59.62518,2.7864 59.34832,3.2724 59.0671,3.75408 C58.88834,3.75624 58.533,3.76056 58.35424,3.76272 C58.07302,2.49696 57.2795,1.33488 57.4321,0 Z M60.95934,10.02024 C61.1926,9.98568 61.4542,10.03752 61.66348,9.90144 C61.91418,9.61416 61.65476,9.07416 61.25364,9.20808 C60.81982,9.20808 60.96152,9.74592 60.95934,10.02024 Z" id="Shape" fill="#98867D"></path>
                        <path d="M41.34152,3.51216 C41.14096,1.92672 42.6953,0.50112 44.26708,0.6912 C45.78218,0.7128 47.10326,2.13192 46.87654,3.64608 C45.0497,3.33072 43.18144,3.2832 41.34152,3.51216 Z M42.6735,2.32416 C43.6545,2.3004 44.6355,2.31768 45.61214,2.43432 C44.8317,1.61784 43.51498,1.5876 42.6735,2.32416 Z" id="Shape" fill="#98867D"></path>
                        <path d="M47.14686,3.89232 C47.00734,4.56624 46.6411,5.15592 46.14624,5.63112 C46.30974,6.04152 46.48632,6.4584 46.4885,6.90552 C46.51248,8.2512 46.48414,9.59688 46.49504,10.94256 C46.0961,10.94256 45.69934,10.94256 45.30258,10.94256 C45.22628,10.05696 45.57944,8.97048 44.83606,8.27712 C44.33684,7.66368 43.18798,7.31376 42.78468,8.21232 C43.31006,8.31168 43.95534,8.3268 44.29106,8.81496 C44.83606,9.48672 44.49816,10.61424 43.66104,10.86912 C42.85008,11.1996 41.76444,10.65096 41.7252,9.7416 C41.68814,8.79768 41.54426,7.73064 42.23532,6.96168 C42.1721,6.88176 42.04784,6.72192 41.9868,6.642 C41.66852,6.52968 41.35024,6.41088 41.03632,6.28776 C41.83202,4.86648 43.65668,4.33512 45.16088,4.8816 C45.41376,4.5792 45.63612,4.25088 45.8018,3.89448 C46.25088,3.888 46.69778,3.888 47.14686,3.89232 Z M42.4552445,6.82369431 C42.5167761,6.78654249 42.5902506,6.76390612 42.6532077,6.7345193 C43.5895168,6.2974735 44.6669556,6.69986878 45.39414,7.36776 C45.3113,6.912 45.29168,6.35904 44.83606,6.09336 C44.0142,5.51448 42.93728,5.8644 42.21352,6.43464 C42.29418,6.56856 42.3680445,6.69193431 42.4552445,6.82369431 Z M43.0659,9.19512 C42.5209,9.21888 42.62772,10.12392 43.164,10.0224 C43.74824,10.04184 43.6327,9.06552 43.0659,9.19512 Z" id="Shape" fill="#98867D"></path>
                        <path d="M41.9847036,6.64223672 C42.1254649,6.5054269 42.2149776,6.42663015 42.2532419,6.4058465 C42.2915061,6.38506284 42.4261036,6.49388321 42.6570342,6.73230762 C42.4225308,6.83842017 42.2819187,6.91438843 42.2351981,6.9602124 C42.1884775,7.00603638 42.1049793,6.90004448 41.9847036,6.64223672 Z" id="Path-6" fill="#F2F2F2"></path>
                        <path d="M0.3706,7.2252 C0.2943,6.12792 1.07038,5.02632 2.16474,4.7844 C3.19806,4.53168 4.17034,5.17104 5.20802,5.09112 C5.28214,5.43024 5.36062,5.76936 5.43474,6.10848 C4.21394,6.40656 2.98224,5.36544 1.8203,6.11712 C2.74898,6.27264 3.8586,6.19488 4.54312,6.95304 C5.1012,7.59888 4.87012,8.51688 4.92462,9.29448 C4.93334,9.8604 4.93552,10.68984 4.23792,10.86048 C3.12394,10.98792 1.9947,10.8756 0.87418,10.92312 C0.86328,10.5408 0.8502,10.16064 0.84148,9.77832 C0.99844,9.77832 1.31018,9.78048 1.46714,9.78048 C1.46932,8.92944 1.46932,8.0784 1.46932,7.22736 C1.10308,7.22736 0.73684,7.22736 0.3706,7.2252 Z M2.65742,7.25976 C2.6596,8.11728 2.66178,8.97264 2.66614,9.828 C3.01494,9.80424 3.36592,9.77832 3.71472,9.74808 C3.73216,9.10656 3.8259,8.44992 3.66676,7.8192 C3.49672,7.41744 3.0193,7.38504 2.65742,7.25976 Z" id="Shape" fill="#98867D"></path>
                        <path d="M6.79942,4.81248 C7.61038,4.38696 8.7745,4.92912 8.81374,5.87304 C8.86824,7.01352 8.82028,8.15616 8.829,9.2988 C9.37836,8.77176 9.97132,8.2944 10.62314,7.89696 C10.62314,6.84936 10.62314,5.7996 10.62314,4.752 C11.01336,4.752 11.40358,4.752 11.7938,4.752 C11.7938,5.75208 11.79162,6.75432 11.79598,7.7544 C12.66144,7.92936 13.5487,8.53848 13.53344,9.504 C13.63154,10.75032 11.92024,11.46312 11.01336,10.67472 C10.56428,10.32264 10.65366,9.6984 10.58608,9.19944 C9.96696,9.73944 9.37618,10.30968 8.84208,10.93176 C8.45622,10.9404 8.07036,10.94256 7.68668,10.94904 C7.68668,9.77832 7.6845,8.6076 7.68668,7.43688 C7.20708,7.35264 6.65118,7.31376 6.33508,6.8904 C5.77482,6.25536 6.01244,5.14728 6.79942,4.81248 Z M7.27684,5.68296 C6.66644,5.81688 7.10244,6.77808 7.6191,6.42816 C8.07908,6.22944 7.74336,5.4972 7.27684,5.68296 Z M11.83304,9.13032 C11.37088,9.37872 11.68916,10.16064 12.208,9.97272 C12.84674,9.7956 12.42164,8.79552 11.83304,9.13032 Z" id="Shape" fill="#98867D"></path>
                        <path d="M13.0691,5.90112 C13.8648,4.41288 16.50914,4.15584 17.11954,5.91408 C17.39204,7.56 17.17404,9.25128 17.2438,10.91448 C16.84704,10.91448 16.4481,10.91448 16.05134,10.91448 C16.03826,9.504 16.0775,8.09136 16.04044,6.68088 C16.08186,6.1452 15.54558,5.71104 15.02238,5.80392 C14.5842,5.86872 14.30516,6.24024 13.99996,6.51888 C13.6904,6.31368 13.37866,6.10632 13.0691,5.90112 Z" id="Shape" fill="#98867D"></path>
                        <path d="M18.25096,6.71328 C18.56052,5.28336 20.18026,4.46904 21.5711,4.71312 C22.71342,4.83624 23.76418,5.73912 23.88408,6.89688 C23.98654,8.24256 23.90152,9.59472 23.92768,10.94472 C23.53092,10.94472 23.13416,10.94472 22.7374,10.94472 C22.69598,9.6012 22.82242,8.24904 22.672,6.912 C22.36898,5.63544 20.46584,5.3568 19.67668,6.33528 C19.21016,6.8904 19.2494,7.6788 19.48266,8.32248 C19.7181,7.68312 19.81184,6.82776 20.52688,6.51888 C21.44902,6.05016 22.6502,6.98328 22.3341,7.98552 C22.16406,8.80632 21.22448,8.98344 20.51162,8.8884 C20.33504,9.56232 20.21296,10.2492 20.13666,10.94256 C19.75952,10.94472 19.38456,10.94688 19.0096,10.9512 C18.99652,9.49104 17.89344,8.1972 18.25096,6.71328 Z M20.65332,7.71552 C20.68602,8.10864 21.15908,8.01144 21.43376,8.07192 C21.43812,7.82352 21.52314,7.55352 21.3967,7.32024 C21.08932,7.10208 20.56176,7.29432 20.65332,7.71552 Z" id="Shape" fill="#98867D"></path>
                        <path d="M24.44652,5.87952 C24.93484,5.28768 25.56486,4.7304 26.378,4.68936 C27.38516,4.52952 28.50132,5.22504 28.58852,6.27264 C28.65828,7.81272 28.58198,9.35712 28.61904,10.8972 C28.23754,10.91232 27.85604,10.92312 27.47672,10.93608 C27.38952,9.5148 27.48544,8.09136 27.42876,6.67008 C27.4571,6.20352 27.0538,5.80608 26.59164,5.79528 C26.06626,5.75856 25.72836,6.20568 25.3861,6.51888 C25.07218,6.3072 24.75826,6.09336 24.44652,5.87952 Z" id="Shape" fill="#98867D"></path>
                        <path d="M30.82302,4.87512 C31.86506,4.4928 32.92672,5.14296 33.98838,4.90968 C34.1061,5.238 34.23036,5.56416 34.34808,5.89248 C33.15998,6.47352 31.57076,5.15376 30.6508,6.35256 C31.47266,6.3936 32.30324,6.30504 33.12292,6.41736 C33.99928,6.67008 33.77256,7.73496 33.81398,8.42184 C33.76384,9.1908 34.01018,10.19304 33.27334,10.71792 C32.44058,11.38104 30.96908,10.82592 30.956,9.71784 C30.87098,8.79984 31.78222,8.22528 32.61716,8.2296 C32.6128,8.0352 32.60408,7.65072 32.59972,7.45848 C31.49664,7.32456 30.38266,7.4088 29.27522,7.3872 C29.14006,6.32016 29.79842,5.23368 30.82302,4.87512 Z M31.95662,9.65736 C31.96752,10.08504 32.47546,9.98352 32.76322,10.01376 C32.75886,9.76752 32.80028,9.50832 32.70218,9.27288 C32.39698,9.08928 31.8825,9.23832 31.95662,9.65736 Z" id="Shape" fill="#98867D"></path>
                        <path d="M35.03478,5.64408 C35.91986,4.98312 37.01422,4.536 38.14128,4.70232 C39.12882,4.77144 40.24716,5.38272 40.34962,6.45624 C40.43464,7.93368 40.36052,9.41976 40.3845,10.89936 C39.98774,10.89936 39.59098,10.89936 39.19422,10.89936 C39.15498,9.49968 39.27052,8.09352 39.13754,6.70032 C38.77784,5.6484 37.40662,5.66352 36.51936,5.94648 C36.8529,6.16032 37.22786,6.2964 37.59846,6.4368 C37.5941,6.61392 37.58974,6.97032 37.58756,7.14744 C37.30852,7.3764 36.85944,7.5492 36.85944,7.97472 C36.78532,8.96184 36.84854,9.95544 36.82892,10.94688 C36.42998,10.94472 36.0354,10.94256 35.63864,10.94256 C35.73456,9.63144 35.38358,8.23608 35.9482,6.99624 C35.63646,6.90768 35.32472,6.81912 35.01516,6.7284 C35.0217,6.36552 35.02388,6.0048 35.03478,5.64408 Z" id="Shape" fill="#98867D"></path>
                        <path d="M47.47604,5.6592 C48.34586,4.98528 49.43804,4.54464 50.56074,4.698 C51.57226,4.76064 52.71458,5.38272 52.82576,6.47784 C52.91296,7.9488 52.83448,9.42624 52.86064,10.89936 C52.4617,10.89936 52.06494,10.89936 51.66818,10.90152 C51.63112,9.49536 51.74884,8.08272 51.60932,6.6852 C51.22128,5.6376 49.81954,5.62248 48.941,6.0156 C49.3116,6.156 49.68874,6.2856 50.06806,6.41304 C50.06588,6.66576 50.06152,6.92064 50.05934,7.17552 C49.76068,7.38072 49.30724,7.5384 49.31378,7.9704 C49.23748,8.95968 49.30288,9.95328 49.28326,10.94256 C48.8865,10.94256 48.48974,10.94256 48.09298,10.94256 C48.17146,9.62712 47.86626,8.24472 48.38728,6.99192 C48.08208,6.90336 47.77688,6.81696 47.47386,6.73056 C47.47386,6.372 47.47604,6.0156 47.47604,5.6592 Z" id="Shape" fill="#98867D"></path>
                        <path d="M55.05372,4.88376 C56.09794,4.48632 57.16614,5.13864 58.22998,4.90968 C58.36296,5.23368 58.49376,5.55768 58.62456,5.88384 C57.4103,6.47352 55.82544,5.1624 54.85316,6.34824 C55.67938,6.39576 56.50996,6.31152 57.334,6.41088 C57.77218,6.48648 58.03814,6.92496 58.03378,7.34184 C58.06866,8.208 58.09482,9.08064 58.01198,9.94248 C57.8572,10.89288 56.5928,11.29248 55.83198,10.77192 C55.09732,10.35072 54.99486,9.22968 55.61834,8.67024 C55.94098,8.32896 56.43584,8.32032 56.86966,8.24256 C56.85222,7.9704 56.83478,7.69824 56.81516,7.42824 C55.71862,7.3548 54.6199,7.39584 53.52118,7.3872 C53.39256,6.32664 54.03566,5.2488 55.05372,4.88376 Z M56.57536,9.19728 C55.99112,9.18432 56.1132,10.16712 56.68,10.01808 C57.23372,10.02672 57.13126,9.06552 56.57536,9.19728 Z" id="Shape" fill="#98867D"></path>
                        <path d="M62.72078,6.0372 C62.65756,4.85352 64.2991,4.2336 65.1275,5.02416 C65.70084,5.49936 65.53298,6.30936 65.5962,6.9552 C66.14992,6.22944 66.6971,5.4972 67.21812,4.74552 C67.84814,4.7196 68.8117,4.77792 68.85966,5.59656 C68.93596,7.37856 68.87492,9.16488 68.88364,10.94904 C68.48688,10.94472 68.0923,10.94256 67.69772,10.93824 C67.6999,9.288 67.6999,7.63776 67.69772,5.98752 C67.0241,6.9552 66.28508,7.884 65.65506,8.87976 C65.47194,9.53424 65.60274,10.24056 65.57004,10.91664 C65.17982,10.91448 64.7896,10.91448 64.39938,10.91448 C64.40156,9.75672 64.3972,8.5968 64.40374,7.43904 C63.59714,7.42824 62.68372,6.94656 62.72078,6.0372 Z M63.93722,5.69592 C63.47942,5.94864 63.80424,6.6528 64.31,6.48216 C64.8441,6.2424 64.4626,5.4432 63.93722,5.69592 Z" id="Shape" fill="#98867D"></path>
                        <path d="M70.9263,4.82544 C71.89422,4.2876 73.29596,5.1408 73.03872,6.27048 C72.9428,7.0416 72.1253,7.32456 71.47784,7.4952 C71.97052,7.68528 72.49808,7.74576 73.02346,7.76088 C73.0191,8.09352 73.0191,8.42616 73.0191,8.76096 C72.59182,8.77392 72.158,8.74152 71.74162,8.84304 C71.26856,8.88624 71.45604,9.46512 71.40154,9.76752 C72.2561,9.7632 73.22402,10.00296 74.01318,9.67464 C74.13526,8.03952 74.02844,6.39144 74.0655,4.752 C74.4688,4.752 74.8721,4.752 75.27758,4.752 C75.26232,6.48216 75.3081,8.21448 75.26014,9.94464 C75.28848,10.44144 74.88736,10.91232 74.37724,10.91232 C73.34392,10.9728 72.30624,10.95336 71.27292,10.92744 C70.85872,10.9404 70.40964,10.72872 70.28974,10.31184 C70.09572,9.56232 70.16984,8.70912 70.74318,8.13456 C69.79052,7.3008 69.6946,5.44536 70.9263,4.82544 Z M71.41898,5.7348 C70.91322,6.00048 71.46476,6.75 71.90294,6.41952 C72.34548,6.11712 71.84626,5.4108 71.41898,5.7348 Z" id="Shape" fill="#98867D"></path>
                        <path d="M8.55868,17.14176 C8.84644,16.84584 9.33912,16.74864 9.59854,17.13528 C10.16752,17.15688 10.7365,17.15256 11.30766,17.14392 C11.31638,17.27136 11.33818,17.52408 11.3469,17.64936 C10.682,17.7228 9.9299,17.46792 9.3195,17.8092 C9.91464,17.87616 10.51414,17.86752 11.11146,17.86752 L11.118,18.2628 C10.56646,18.26496 10.01274,18.26496 9.4612,18.2628 C9.4612,18.3168 9.45902,18.42048 9.45684,18.47448 C10.08468,18.47448 10.71034,18.47664 11.336,18.4788 C11.336,18.60192 11.33382,18.846 11.33382,18.96912 C11.10274,18.98424 10.64494,19.01232 10.41386,19.02528 C10.71034,19.1592 11.01772,19.2564 11.336,19.31688 L11.33818,19.57608 C10.72778,19.63872 10.18932,19.40544 9.74678,19.00152 C9.24538,18.99288 8.74398,18.98424 8.24258,18.97128 C7.92648,19.28232 7.60602,19.58688 7.2703,19.87632 C7.6409,20.00808 8.27964,19.80072 8.40826,20.32992 C7.92648,20.33208 7.44252,20.28672 6.99344,20.10744 C7.00652,19.94112 7.03704,19.61064 7.05012,19.44432 L6.6817,19.48752 C6.97818,19.32768 7.27684,19.17432 7.57768,19.02096 C7.08718,19.10952 6.82776,18.93024 6.8016,18.48312 C7.43816,18.47232 8.0769,18.47448 8.71564,18.48096 C8.7091,18.4248 8.6982,18.31248 8.69384,18.25848 C8.15756,18.2628 7.62128,18.26496 7.085,18.26496 L7.09154,17.86752 C7.69322,17.86968 8.2949,17.87616 8.8944,17.8092 C8.26874,17.49168 7.53844,17.68608 6.867,17.6364 L6.8234,17.15472 C7.4011,17.15256 7.98098,17.15256 8.55868,17.14176 Z" id="Shape" fill="#98867D"></path>
                        <path d="M0.8284,17.1396 C2.2781,17.10504 3.72998,17.12016 5.17968,17.1288 C5.1775,17.24976 5.17096,17.49168 5.16878,17.61264 C4.86358,17.61048 4.56056,17.61048 4.25754,17.61048 C4.25754,18.03168 4.25754,18.45504 4.25754,18.87624 C4.6979,18.87624 5.13826,18.8784 5.57862,18.8784 C5.57862,18.99936 5.57862,19.24128 5.57862,19.36008 C5.13826,19.36224 4.6979,19.36224 4.25754,19.36224 C4.25536,20.02968 4.25536,20.69712 4.25972,21.36456 C4.03082,21.36456 3.8041,21.36672 3.5752,21.36888 C3.57738,20.69928 3.57738,20.03184 3.57738,19.36224 C3.22204,19.36224 2.8667,19.36224 2.51136,19.36224 C2.5724,20.12904 2.38928,20.9088 1.73092,21.384 C1.58486,21.22848 1.4388,21.07296 1.29492,20.91744 C1.78978,20.5416 1.82684,19.93248 1.83992,19.36656 C1.35814,19.36224 0.87636,19.36224 0.39458,19.36008 C0.38368,19.24344 0.3597,19.008 0.3488,18.8892 C0.83494,18.88056 1.32326,18.87624 1.8094,18.87408 C1.8094,18.45504 1.8094,18.03384 1.81158,17.6148 C1.44316,17.61048 1.07692,17.60832 0.7085,17.59968 C0.73902,17.48304 0.80006,17.25408 0.8284,17.1396 Z M2.48956,17.61048 C2.49174,18.03384 2.49174,18.45504 2.49174,18.8784 C2.85362,18.8784 3.2155,18.87624 3.57738,18.87624 C3.57738,18.45504 3.57738,18.03384 3.57738,17.61048 C3.2155,17.61048 2.85362,17.61048 2.48956,17.61048 Z" id="Shape" fill="#98867D"></path>
                        <path d="M13.39174,17.07048 C13.49856,17.07912 13.71002,17.09208 13.81466,17.10072 C14.11986,17.27136 14.47084,17.28864 14.80874,17.34048 C14.80438,17.43984 14.79784,17.64288 14.79348,17.7444 C14.34004,17.78544 13.80594,17.6472 13.43752,17.98848 C13.89096,18.02304 14.34658,18.03168 14.8022,18.03816 L14.79566,18.45936 C14.54714,18.45936 14.3008,18.45936 14.05446,18.46152 C14.05228,18.576 14.04792,18.8028 14.04574,18.91728 C14.29644,18.91944 14.54714,18.9216 14.79784,18.92592 C14.80438,19.04472 14.81528,19.28232 14.82182,19.40112 C14.55804,19.40976 14.29644,19.42056 14.03484,19.43136 C14.04574,19.89576 14.05664,20.36232 14.08062,20.82888 C14.2681,20.82456 14.64088,20.82024 14.82618,20.81808 C14.82836,20.94984 14.8349,21.21336 14.83708,21.34512 C14.3989,21.2976 13.90186,21.40992 13.51382,21.15504 C13.31762,20.6064 13.4397,20.00592 13.42226,19.43568 C13.14976,19.42272 12.87726,19.41192 12.60476,19.40112 C12.61784,19.27584 12.64618,19.02744 12.65926,18.90216 C12.84456,18.9108 13.2108,18.92376 13.39392,18.9324 L13.43752,18.51552 C13.23914,18.51768 12.84456,18.522 12.64618,18.52416 C12.66362,17.9928 13.21516,17.5824 13.39174,17.07048 Z" id="Shape" fill="#98867D"></path>
                        <path d="M15.13574,17.10936 C15.87258,17.1072 16.6116,17.1072 17.34844,17.1072 C17.33754,17.7876 17.43782,18.4788 17.30484,19.15056 C16.95168,19.5588 16.28678,19.31904 15.80064,19.38816 C15.8159,19.85472 15.83116,20.32128 15.84642,20.79 C15.99466,20.80296 16.29332,20.83104 16.44156,20.844 L16.43066,21.3516 C16.01864,21.27384 15.22294,21.47256 15.19678,20.85048 C15.12048,19.60632 15.16408,18.35568 15.13574,17.10936 Z M15.74396,17.56944 C15.7505,17.68176 15.7614,17.90424 15.76794,18.01656 C16.08622,18.0144 16.40668,18.01656 16.72496,18.01656 C16.72932,17.90424 16.73804,17.68176 16.7424,17.5716 C16.41104,17.56944 16.0775,17.56944 15.74396,17.56944 Z M15.76794,18.47232 C15.77012,18.5868 15.77012,18.81144 15.77012,18.92376 C16.07532,18.91944 16.37834,18.91728 16.68136,18.91296 C16.70098,18.80496 16.73804,18.5868 16.75548,18.4788 C16.4263,18.47664 16.09712,18.47448 15.76794,18.47232 Z" id="Shape" fill="#98867D"></path>
                        <path d="M19.69194,17.0964 C19.8598,17.0856 20.19552,17.06184 20.36556,17.04888 C19.99496,17.60832 19.9143,18.7488 19.00524,18.55224 C19.03358,18.4572 19.08808,18.26712 19.11424,18.17208 C19.35404,17.83944 19.53498,17.47224 19.69194,17.0964 Z" id="Shape" fill="#98867D"></path>
                        <path d="M20.93672,17.118 C21.68882,17.12232 22.43874,17.12016 23.19084,17.12664 C23.17776,17.32536 23.16904,17.52408 23.16032,17.7228 C22.41912,17.70984 21.67574,17.712 20.93454,17.70552 C20.93454,17.55864 20.93672,17.26488 20.93672,17.118 Z" id="Shape" fill="#98867D"></path>
                        <path d="M26.58728,17.1288 C26.89684,17.14176 27.2064,17.1612 27.51814,17.17632 C27.50724,17.7336 27.50288,18.29088 27.50288,18.84816 C27.96286,18.28872 28.41194,17.72064 28.86102,17.15256 C29.24906,17.1504 29.6371,17.14824 30.02732,17.14608 C29.48232,17.81136 28.78908,18.3708 28.34654,19.10736 C28.9068,19.87416 29.54554,20.57832 30.12324,21.33216 C29.74174,21.33 29.35806,21.3408 28.97656,21.30624 C28.41412,20.76624 28.00864,20.08584 27.50724,19.48968 C27.50506,20.10312 27.50506,20.7144 27.50506,21.32568 C27.19332,21.32568 26.88158,21.32568 26.56984,21.32568 C26.57856,19.926 26.54804,18.52632 26.58728,17.1288 Z" id="Shape" fill="#98867D"></path>
                        <path d="M32.09396,17.03592 C32.26618,17.02512 32.60844,17.00568 32.77848,16.99704 C33.3976,18.41832 33.95786,19.86552 34.54864,21.29976 C34.20856,21.29544 33.87066,21.29112 33.53276,21.28464 C33.42594,20.99952 33.31912,20.7144 33.2123,20.43144 C32.69564,20.43144 32.18116,20.4336 31.6645,20.44008 C31.5446,20.7252 31.4247,21.01032 31.3048,21.29544 C30.97562,21.29544 30.64644,21.2976 30.31944,21.2976 C30.91022,19.87632 31.50536,18.4572 32.09396,17.03592 Z M31.93046,19.77048 C32.27054,19.77048 32.60844,19.77264 32.94852,19.77264 C32.77848,19.2888 32.6019,18.80712 32.42314,18.3276 C32.25746,18.80712 32.09396,19.2888 31.93046,19.77048 Z" id="Shape" fill="#98867D"></path>
                        <path d="M35.26368,18.83088 C34.90398,18.20016 35.27894,17.30808 35.9809,17.11152 C36.60438,16.89768 37.22786,17.1936 37.7685,17.48088 C37.62898,17.67312 37.48946,17.86536 37.35212,18.0576 C36.97498,17.69904 35.95256,17.59968 36.11388,18.35784 C36.58258,18.75096 37.25838,18.8352 37.67258,19.2996 C38.19796,20.02536 37.74452,21.20256 36.84636,21.3732 C36.08554,21.60648 35.36178,21.168 34.90834,20.59128 C35.1089,20.4228 35.30946,20.25648 35.5122,20.088 C35.80214,20.68848 36.88124,20.9628 36.9401,20.05992 C36.6458,19.3644 35.64736,19.4616 35.26368,18.83088 Z" id="Shape" fill="#98867D"></path>
                        <path d="M38.87376,17.14608 C39.1855,17.14608 39.49724,17.14608 39.81116,17.14608 C39.81116,18.53928 39.81116,19.93248 39.81116,21.32568 C39.49724,21.32568 39.1855,21.32568 38.87376,21.32568 C38.87376,19.93248 38.87376,18.53928 38.87376,17.14608 Z" id="Shape" fill="#98867D"></path>
                        <path d="M40.97528,17.12016 C41.2674,17.16768 41.61184,17.08776 41.87998,17.23032 C41.91922,17.77032 41.89742,18.31464 41.89524,18.8568 C42.35522,18.29088 42.81738,17.72712 43.26864,17.15688 C43.65014,17.1504 44.03164,17.1504 44.41532,17.14608 C43.83544,17.79192 43.24248,18.42696 42.68876,19.0944 C43.31442,19.82664 43.9161,20.57832 44.5156,21.33216 C44.13192,21.33 43.74606,21.3408 43.36456,21.30624 C42.8043,20.76408 42.39882,20.08584 41.89742,19.48968 C41.89524,20.10096 41.89524,20.7144 41.89742,21.32568 C41.5835,21.32568 41.27176,21.32568 40.96002,21.32568 C40.96656,19.92384 40.94476,18.522 40.97528,17.12016 Z" id="Shape" fill="#98867D"></path>
                        <path d="M46.0307,17.10072 C47.63518,16.632 49.3116,18.27144 48.76442,19.86336 C48.35458,21.54816 45.85412,21.9672 44.82298,20.6172 C43.78966,19.45296 44.47418,17.37936 46.0307,17.10072 Z M46.05032,18.00144 C45.0497,18.45936 45.1151,19.97352 46.0634,20.45304 C47.05312,21.03624 48.20852,19.78344 47.85754,18.80712 C47.65698,18.0684 46.74792,17.61264 46.05032,18.00144 Z" id="Shape" fill="#98867D"></path>
                        <path d="M49.70618,17.14176 C50.52586,17.20872 51.55482,16.93656 52.18266,17.61264 C52.76472,18.28224 52.35706,19.32336 51.5788,19.63656 C52.00608,20.19384 52.42246,20.7576 52.83666,21.32352 C52.4617,21.32568 52.08892,21.32568 51.71396,21.32784 C51.35426,20.78784 50.99456,20.24784 50.62832,19.71432 C50.62396,20.25 50.62396,20.78784 50.62396,21.32568 C50.31222,21.32568 50.00048,21.32568 49.68874,21.32568 C49.69528,19.93032 49.6713,18.53712 49.70618,17.14176 Z M50.6414,17.78544 C50.62832,18.21744 50.6196,18.64944 50.61524,19.08144 C51.00328,19.02096 51.6006,18.94752 51.5134,18.414 C51.557,17.92584 50.98584,17.88048 50.6414,17.78544 Z" id="Shape" fill="#98867D"></path>
                        <path d="M53.49938,21.2976 C53.51028,19.84824 53.47758,18.40104 53.519,16.95384 C53.68686,16.99056 54.02476,17.064 54.19262,17.10072 C55.02538,17.98848 55.73824,18.98208 56.54266,19.89576 C56.54484,18.98208 56.54484,18.06624 56.54484,17.1504 C56.8544,17.1504 57.16614,17.1504 57.48006,17.1504 C57.48224,18.57384 57.47134,19.99944 57.48878,21.42288 C57.2032,21.37752 56.83042,21.49416 56.64512,21.20904 C55.89084,20.3364 55.1867,19.42272 54.43896,18.54576 C54.43242,19.4616 54.43678,20.3796 54.4346,21.2976 C54.12286,21.2976 53.81112,21.2976 53.49938,21.2976 Z" id="Shape" fill="#98867D"></path>
                        <path d="M58.6529,17.10288 C59.37884,17.15904 60.26392,16.9236 60.8547,17.46144 C61.29724,17.91936 61.12284,18.56952 60.8765,19.07496 C61.68092,19.44648 61.7594,20.7144 60.95498,21.12264 C60.23558,21.4596 59.40064,21.2868 58.63328,21.32568 C58.63546,19.91952 58.64418,18.5112 58.6529,17.10288 Z M59.5685,17.73576 C59.55542,18.13968 59.5576,18.5436 59.57504,18.94752 C59.84318,18.81576 60.26392,18.74232 60.25084,18.36432 C60.32932,17.94744 59.85408,17.86104 59.5685,17.73576 Z M59.59466,19.47024 C59.5903,19.872 59.58812,20.27376 59.59248,20.67552 C59.95872,20.5848 60.64978,20.64096 60.60182,20.088 C60.66722,19.51344 59.97398,19.55016 59.59466,19.47024 Z" id="Shape" fill="#98867D"></path>
                        <path d="M63.70396,17.01648 C63.86964,17.0208 64.201,17.0316 64.36668,17.03592 C65.073,18.40104 65.53952,19.8828 66.16082,21.28896 C65.836,21.29544 65.51118,21.30192 65.18854,21.31056 C65.0621,21.0168 64.93566,20.72304 64.8114,20.43144 C64.30128,20.43144 63.78898,20.4336 63.27886,20.44008 C63.15896,20.7252 63.03688,21.01032 62.91698,21.29544 C62.5878,21.2976 62.2608,21.2976 61.9338,21.2976 C62.52022,19.86984 63.13934,18.45288 63.70396,17.01648 Z M64.02442,18.33624 C63.86528,18.81144 63.7105,19.2888 63.56226,19.76832 C63.8958,19.77048 64.23152,19.77048 64.56724,19.77264 C64.39502,19.29096 64.21408,18.81144 64.02442,18.33624 Z" id="Shape" fill="#98867D"></path>
                        <path d="M66.7407,17.02296 C66.9042,17.02296 67.2312,17.01864 67.3947,17.01648 C68.19694,17.96904 68.97084,18.94104 69.77962,19.88928 C69.79052,18.9756 69.78398,18.06192 69.78616,17.14824 C70.0979,17.1504 70.40964,17.1504 70.72356,17.15256 C70.71266,18.58032 70.741,20.01024 70.70612,21.438 C70.53826,21.4272 70.20036,21.40776 70.0325,21.39912 C69.24988,20.4444 68.46508,19.49184 67.68028,18.53928 C67.67592,19.45728 67.67592,20.37744 67.6781,21.29544 C67.36636,21.29544 67.05462,21.2976 66.74288,21.29976 C66.7407,19.87416 66.74288,18.44856 66.7407,17.02296 Z" id="Shape" fill="#98867D"></path>
                        <path d="M71.7874,17.1504 C72.09696,17.1504 72.41088,17.1504 72.72262,17.1504 C72.72044,17.712 72.72044,18.27144 72.72698,18.83088 C73.19132,18.28872 73.6404,17.7336 74.07422,17.16552 C74.4579,17.15472 74.84376,17.14824 75.2318,17.14392 C74.665,17.78976 74.08948,18.42912 73.51178,19.06416 C74.11782,19.818 74.73476,20.56536 75.33644,21.32352 C74.94186,21.32568 74.54946,21.32784 74.15488,21.33 C73.6949,20.73816 73.2589,20.12472 72.7357,19.58472 C72.71826,20.17008 72.72044,20.75544 72.7139,21.33864 C72.40434,21.33216 72.09478,21.32568 71.78522,21.3192 C71.78958,19.93032 71.7874,18.53928 71.7874,17.1504 Z" id="Shape" fill="#98867D"></path>
                        <path d="M19.1295,19.26504 C19.80094,19.116 19.8162,18.1116 20.61844,18.28656 C19.98842,19.19592 20.04074,20.28888 20.09742,21.3408 C19.91648,21.3408 19.5546,21.3408 19.37366,21.3408 C19.3693,20.8224 19.36058,20.30616 19.3475,19.78776 C19.293,19.65816 19.184,19.3968 19.1295,19.26504 Z" id="Shape" fill="#98867D"></path>
                        <path d="M20.86478,18.34704 C21.6801,18.34272 22.4976,18.33624 23.3151,18.3708 C23.00118,19.27368 23.21918,20.23056 23.07966,21.15288 C22.48888,21.57192 21.68228,21.2976 21.0043,21.3624 C20.99994,21.20904 20.99558,20.90664 20.9934,20.75328 C21.4621,20.75112 21.93298,20.7468 22.40168,20.74248 C22.38424,20.13984 22.36462,19.5372 22.34282,18.93672 C21.85668,18.93672 21.37054,18.93456 20.8844,18.93456 C20.87786,18.78768 20.86914,18.49392 20.86478,18.34704 Z" id="Shape" fill="#98867D"></path>
                        <path d="M8.77014,19.16568 C8.94672,19.16784 9.29552,19.16784 9.4721,19.16784 C9.46338,19.85256 9.57674,20.55672 9.39798,21.23064 C9.05354,21.33216 8.6982,21.3732 8.33414,21.3516 C8.96634,20.77056 8.7745,19.91952 8.77014,19.16568 Z" id="Shape" fill="#98867D"></path>
                        <path d="M16.1429,19.5048 C16.63122,19.42488 16.85794,19.73808 17.00618,20.12904 C17.1893,19.83528 17.32446,19.45728 17.76264,19.49616 C17.67326,19.926 17.49886,20.32776 17.24816,20.68632 C17.44,20.89368 17.65146,21.08376 17.72558,21.36888 C17.44654,21.35592 17.16968,21.32568 16.89718,21.276 C16.54184,20.736 16.3718,20.10312 16.1429,19.5048 Z" id="Shape" fill="#98867D"></path>
                        <path d="M9.80564,20.04048 C10.32666,19.94328 10.8455,19.83744 11.37088,19.76832 C11.0744,20.2824 10.20022,20.60424 9.80564,20.04048 Z" id="Shape" fill="#98867D"></path>
                        <path d="M7.72374,20.60424 C7.8698,20.59776 8.15756,20.58912 8.30362,20.5848 C7.98098,21.15288 7.32916,21.54816 6.71222,21.1356 C6.88662,21.0924 7.23542,21.00816 7.40982,20.96496 C7.4883,20.87424 7.64526,20.6928 7.72374,20.60424 Z" id="Shape" fill="#98867D"></path>
                        <path d="M9.99966,20.50272 C10.52504,20.71008 11.0308,20.9736 11.4668,21.33432 C10.8128,21.47688 10.0934,21.23064 9.99966,20.50272 Z" id="Shape" fill="#98867D"></path>
                        <path d="M0.13298,13.55832 C25.2444,13.55616 50.358,13.55616 75.46942,13.55832 C75.46724,13.91688 75.46724,14.27544 75.46942,14.634 C50.35146,14.62536 25.2335,14.64912 0.11772,14.6232 C0.12208,14.2668 0.12862,13.91256 0.13298,13.55832 Z" id="Shape" fill="#EC1B2E"></path>
                    </g>
                    <g id="Group-35" transform="translate(81.750000, 0.000000)">
                        <path d="M4.75894,20.67336 C6.31328,20.5632 7.59948,19.5048 9.15164,19.43784 C10.7147,19.3536 11.9573,20.58912 13.50074,20.59992 C15.27526,20.64312 16.70752,19.05984 18.52346,19.46808 C19.8489,19.79856 21.01302,20.67552 22.43874,20.63448 C22.38424,20.72088 22.27306,20.89368 22.21638,20.98008 L22.15098,20.97144 C20.79938,20.94984 19.69848,20.09448 18.421,19.81152 C16.66174,19.49616 15.26,21.02328 13.5269,20.95416 C11.89408,20.99736 10.59916,19.602 8.94672,19.78344 C7.5973,19.95624 6.46152,20.84832 5.0903,20.952 C5.232,21.05568 5.37806,21.1572 5.52412,21.25656 C6.78416,20.80944 7.99188,20.03832 9.37182,20.07288 C10.91744,20.09664 12.15786,21.34512 13.7231,21.22632 C15.20114,21.1788 16.3827,20.03616 17.87164,20.04696 C19.3148,20.03832 20.46584,21.0924 21.87412,21.27816 C21.79128,21.34728 21.62342,21.48336 21.54058,21.55032 C20.20642,21.31704 19.07936,20.2932 17.67544,20.41416 C16.22138,20.55024 15.0202,21.64536 13.52472,21.5892 C11.89408,21.62592 10.5948,20.24568 8.94454,20.41848 C7.74118,20.55456 6.72094,21.31056 5.53066,21.50712 C5.06196,21.51792 4.93334,21.00168 4.75894,20.67336 Z" id="Shape" fill="#98867D"></path>
                        <path d="M5.97102,21.60864 C7.1395,21.41208 8.17064,20.63016 9.39144,20.72952 C10.92834,20.7576 12.1644,22.00392 13.72528,21.8808 C15.20114,21.83328 16.3827,20.69064 17.87164,20.70144 C19.12514,20.69064 20.19552,21.42936 21.3095,21.89808 C21.18742,21.94128 20.94108,22.032 20.81682,22.0752 C19.77696,21.57624 18.68914,20.92176 17.48578,21.08376 C16.1102,21.29328 14.94826,22.28904 13.516,22.24152 C12.02052,22.28472 10.83242,21.13776 9.36092,21.06432 C8.29926,21.00816 7.35096,21.56328 6.3983,21.93912 C6.25442,21.82896 6.11272,21.7188 5.97102,21.60864 Z" id="Shape" fill="#98867D"></path>
                        <path d="M6.322,22.25448 C7.35096,21.7944 8.42788,21.24144 9.59418,21.37536 C11.04606,21.49632 12.23634,22.6368 13.73182,22.51368 C15.20332,22.46184 16.3827,21.32784 17.86292,21.33216 C18.9006,21.29976 19.79876,21.86784 20.73834,22.21128 C20.63588,22.36032 20.5356,22.51152 20.43968,22.66488 C19.46522,21.83976 18.05476,21.43368 16.82088,21.87864 C15.73088,22.25232 14.70192,22.92624 13.5051,22.87656 C12.01834,22.90032 10.83242,21.762 9.3631,21.6972 C8.38428,21.63888 7.51228,22.14432 6.63156,22.4856 C6.55308,22.42728 6.40048,22.31064 6.322,22.25448 Z" id="Shape" fill="#98867D"></path>
                        <path d="M6.92586,22.58064 C7.73246,22.35816 8.5129,21.9456 9.37618,22.01256 C10.9218,22.02552 12.15568,23.2956 13.7231,23.17032 C15.20114,23.11848 16.38488,21.978 17.87164,21.9888 C18.71748,21.94776 19.46086,22.39488 20.2413,22.63464 C20.16064,22.70376 19.99932,22.842 19.91648,22.91112 C19.14476,22.61736 18.34252,22.25232 17.4945,22.39056 C16.12328,22.60872 14.94826,23.58288 13.516,23.53104 C12.14478,23.5548 11.0308,22.59576 9.7119,22.38408 C8.95544,22.26528 8.2077,22.50504 7.48176,22.67784 C7.61474,22.7664 7.7499,22.8528 7.88724,22.94136 C9.38708,22.1832 10.9545,23.0364 12.3497,23.60016 C13.73836,24.15528 15.15536,23.49 16.41758,22.93488 C17.4509,22.4532 18.61066,22.65408 19.65052,23.00184 C19.57858,23.05368 19.43688,23.15736 19.36494,23.2092 C18.65862,23.10768 17.93922,22.86576 17.22636,23.04936 C15.96196,23.34744 14.85234,24.21792 13.5051,24.16392 C12.1644,24.18984 11.07876,23.25888 9.79692,23.02776 C9.14074,22.90032 8.48456,23.08392 7.84146,23.18976 C7.76516,23.20272 7.61256,23.22432 7.53408,23.23728 C7.4011,22.95864 7.18092,22.74912 6.92586,22.58064 Z" id="Shape" fill="#98867D"></path>
                        <path d="M11.66518,0.162 C14.38582,-0.22032 17.23072,0.22032 19.67886,1.4688 C22.69598,2.97432 25.10052,5.63328 26.27336,8.77176 C27.36118,11.58624 27.41786,14.76792 26.487,17.63208 C25.51254,20.61288 23.45898,23.23296 20.77758,24.89616 C17.767,26.8056 13.96944,27.41904 10.49452,26.6112 C7.3357,25.89624 4.48644,23.9868 2.58984,21.39048 C0.93958,19.14408 0.00872,16.38792 0.00218,13.60584 C-0.04796,10.28808 1.23388,6.98112 3.47492,4.52088 C5.57862,2.1816 8.53034,0.59832 11.66518,0.162 Z M6.57488,4.57488 C3.91528,6.60528 2.25194,9.8496 2.18654,13.176 C2.08626,15.88032 3.04546,18.576 4.75894,20.67336 C4.93334,21.00168 5.06196,21.51792 5.53066,21.50712 C5.7879,21.762 6.05168,22.01256 6.322,22.25448 C6.40048,22.31064 6.55308,22.42728 6.63156,22.4856 C6.70568,22.50936 6.85174,22.55688 6.92586,22.58064 C7.18092,22.74912 7.4011,22.95864 7.53408,23.23728 C7.61256,23.22432 7.76516,23.20272 7.84146,23.18976 C11.24008,25.3692 15.93798,25.30872 19.36494,23.2092 C19.43688,23.15736 19.57858,23.05368 19.65052,23.00184 C19.7181,22.97808 19.85108,22.93272 19.91648,22.91112 C19.99932,22.842 20.16064,22.70376 20.2413,22.63464 L20.43968,22.66488 C20.5356,22.51152 20.63588,22.36032 20.73834,22.21128 L21.0043,22.30632 L20.81682,22.0752 C20.94108,22.032 21.18742,21.94128 21.3095,21.89808 C21.3858,21.78144 21.4621,21.66696 21.54058,21.55032 C21.62342,21.48336 21.79128,21.34728 21.87412,21.27816 C21.94388,21.20256 22.0834,21.0492 22.15098,20.97144 L22.21638,20.98008 C22.27306,20.89368 22.38424,20.72088 22.43874,20.63448 C25.1136,17.39448 25.7567,12.6684 23.98654,8.86248 C22.53466,5.60952 19.4456,3.12552 15.92272,2.42784 C12.6876,1.7388 9.17344,2.54232 6.57488,4.57488 Z" id="Shape" fill="#EC1B2E"></path>
                        <path d="M6.57488,4.57488 C9.17344,2.54232 12.6876,1.7388 15.92272,2.42784 C19.4456,3.12552 22.53466,5.60952 23.98654,8.86248 C25.7567,12.6684 25.1136,17.39448 22.43874,20.63448 C21.01302,20.67552 19.8489,19.79856 18.52346,19.46808 C16.70752,19.05984 15.27526,20.64312 13.50074,20.59992 C11.9573,20.58912 10.7147,19.3536 9.15164,19.43784 C7.59948,19.5048 6.31328,20.5632 4.75894,20.67336 C3.04546,18.576 2.08626,15.88032 2.18654,13.176 C2.25194,9.8496 3.91528,6.60528 6.57488,4.57488 Z M18.64336,6.62904 C17.40076,7.57944 15.98812,8.2836 14.71718,9.19512 C13.92148,9.76104 13.31108,10.65528 13.33288,11.65536 C13.3198,14.46552 13.32416,17.27568 13.33288,20.088 C13.46586,20.08152 13.73182,20.06856 13.86262,20.06208 C13.85826,18.55872 13.8539,17.05536 13.85826,15.552 C13.85826,14.90184 13.97598,14.16096 14.55804,13.76352 C15.63278,12.94272 16.79908,12.25152 17.92396,11.50416 C18.76108,10.95984 19.74644,10.32048 19.91866,9.26208 C20.00586,7.7544 19.8925,6.2424 19.97534,4.73256 C19.6636,5.44104 19.27338,6.14952 18.64336,6.62904 Z M7.02396,4.8168 C7.11552,6.3072 6.94112,7.81056 7.11988,9.29232 C7.39456,10.7892 8.85952,11.52144 9.95388,12.38112 C10.90436,13.09176 12.01616,13.84992 12.21018,15.11352 C12.40856,16.75728 12.27122,18.4248 12.29302,20.07936 C12.42818,20.09232 12.70286,20.11824 12.8402,20.13336 C12.83148,17.30808 12.84238,14.48496 12.83584,11.66184 C12.85982,10.97928 12.67234,10.26432 12.14478,9.7956 C10.84986,8.62056 9.36746,7.66152 8.10306,6.44976 C7.62346,5.994 7.30954,5.40432 7.02396,4.8168 Z M18.9224,11.394 C17.64056,12.2796 16.28242,13.06152 15.03328,13.99464 C14.45558,14.3856 14.29644,15.10488 14.27464,15.75288 C14.2354,17.1936 14.29208,18.63432 14.24848,20.07288 C14.388,20.088 14.66922,20.11824 14.81092,20.13336 C14.80002,19.33416 14.75424,18.43128 15.36246,17.8092 C16.43938,16.68168 17.91524,16.04448 19.10988,15.05952 C19.62654,14.64696 19.8707,13.99248 19.9034,13.35096 C19.9579,12.35304 19.90122,11.35296 19.94482,10.35288 C19.63962,10.73088 19.33442,11.12184 18.9224,11.394 Z" id="Shape" fill="#FFFFFF"></path>
                        <path d="M13.5269,20.95416 C15.26,21.02328 16.66174,19.49616 18.421,19.81152 C19.69848,20.09448 20.79938,20.94984 22.15098,20.97144 C22.0834,21.0492 21.94388,21.20256 21.87412,21.27816 C20.46584,21.0924 19.3148,20.03832 17.87164,20.04696 C16.3827,20.03616 15.20114,21.1788 13.7231,21.22632 C12.15786,21.34512 10.91744,20.09664 9.37182,20.07288 C7.99188,20.03832 6.78416,20.80944 5.52412,21.25656 C5.37806,21.1572 5.232,21.05568 5.0903,20.952 C6.46152,20.84832 7.5973,19.95624 8.94672,19.78344 C10.59916,19.602 11.89408,20.99736 13.5269,20.95416 Z" id="Shape" fill="#FFFFFF"></path>
                        <path d="M5.53066,21.50712 C6.72094,21.31056 7.74118,20.55456 8.94454,20.41848 C10.5948,20.24568 11.89408,21.62592 13.52472,21.5892 C15.0202,21.64536 16.22138,20.55024 17.67544,20.41416 C19.07936,20.2932 20.20642,21.31704 21.54058,21.55032 C21.4621,21.66696 21.3858,21.78144 21.3095,21.89808 C20.19552,21.42936 19.12514,20.69064 17.87164,20.70144 C16.3827,20.69064 15.20114,21.83328 13.72528,21.8808 C12.1644,22.00392 10.92834,20.7576 9.39144,20.72952 C8.17064,20.63016 7.1395,21.41208 5.97102,21.60864 C6.11272,21.7188 6.25442,21.82896 6.3983,21.93912 C7.35096,21.56328 8.29926,21.00816 9.36092,21.06432 C10.83242,21.13776 12.02052,22.28472 13.516,22.24152 C14.94826,22.28904 16.1102,21.29328 17.48578,21.08376 C18.68914,20.92176 19.77696,21.57624 20.81682,22.0752 L21.0043,22.30632 L20.73834,22.21128 C19.79876,21.86784 18.9006,21.29976 17.86292,21.33216 C16.3827,21.32784 15.20332,22.46184 13.73182,22.51368 C12.23634,22.6368 11.04606,21.49632 9.59418,21.37536 C8.42788,21.24144 7.35096,21.7944 6.322,22.25448 C6.05168,22.01256 5.7879,21.762 5.53066,21.50712 Z" id="Shape" fill="#FFFFFF"></path>
                        <path d="M6.63156,22.4856 C7.51228,22.14432 8.38428,21.63888 9.3631,21.6972 C10.83242,21.762 12.01834,22.90032 13.5051,22.87656 C14.70192,22.92624 15.73088,22.25232 16.82088,21.87864 C18.05476,21.43368 19.46522,21.83976 20.43968,22.66488 L20.2413,22.63464 C19.46086,22.39488 18.71748,21.94776 17.87164,21.9888 C16.38488,21.978 15.20114,23.11848 13.7231,23.17032 C12.15568,23.2956 10.9218,22.02552 9.37618,22.01256 C8.5129,21.9456 7.73246,22.35816 6.92586,22.58064 C6.85174,22.55688 6.70568,22.50936 6.63156,22.4856 Z" id="Shape" fill="#FFFFFF"></path>
                        <path d="M7.48176,22.67784 C8.2077,22.50504 8.95544,22.26528 9.7119,22.38408 C11.0308,22.59576 12.14478,23.5548 13.516,23.53104 C14.94826,23.58288 16.12328,22.60872 17.4945,22.39056 C18.34252,22.25232 19.14476,22.61736 19.91648,22.91112 C19.85108,22.93272 19.7181,22.97808 19.65052,23.00184 C18.61066,22.65408 17.4509,22.4532 16.41758,22.93488 C15.15536,23.49 13.73836,24.15528 12.3497,23.60016 C10.9545,23.0364 9.38708,22.1832 7.88724,22.94136 C7.7499,22.8528 7.61474,22.7664 7.48176,22.67784 Z" id="Shape" fill="#FFFFFF"></path>
                        <path d="M7.84146,23.18976 C8.48456,23.08392 9.14074,22.90032 9.79692,23.02776 C11.07876,23.25888 12.1644,24.18984 13.5051,24.16392 C14.85234,24.21792 15.96196,23.34744 17.22636,23.04936 C17.93922,22.86576 18.65862,23.10768 19.36494,23.2092 C15.93798,25.30872 11.24008,25.3692 7.84146,23.18976 Z" id="Shape" fill="#FFFFFF"></path>
                        <path d="M18.64336,6.62904 C19.27338,6.14952 19.6636,5.44104 19.97534,4.73256 C19.8925,6.2424 20.00586,7.7544 19.91866,9.26208 C19.74644,10.32048 18.76108,10.95984 17.92396,11.50416 C16.79908,12.25152 15.63278,12.94272 14.55804,13.76352 C13.97598,14.16096 13.85826,14.90184 13.85826,15.552 C13.8539,17.05536 13.85826,18.55872 13.86262,20.06208 C13.73182,20.06856 13.46586,20.08152 13.33288,20.088 C13.32416,17.27568 13.3198,14.46552 13.33288,11.65536 C13.31108,10.65528 13.92148,9.76104 14.71718,9.19512 C15.98812,8.2836 17.40076,7.57944 18.64336,6.62904 Z" id="Shape" fill="#00A84F"></path>
                        <path d="M7.02396,4.8168 C7.30954,5.40432 7.62346,5.994 8.10306,6.44976 C9.36746,7.66152 10.84986,8.62056 12.14478,9.7956 C12.67234,10.26432 12.85982,10.97928 12.83584,11.66184 C12.84238,14.48496 12.83148,17.30808 12.8402,20.13336 C12.70286,20.11824 12.42818,20.09232 12.29302,20.07936 C12.27122,18.4248 12.40856,16.75728 12.21018,15.11352 C12.01616,13.84992 10.90436,13.09176 9.95388,12.38112 C8.85952,11.52144 7.39456,10.7892 7.11988,9.29232 C6.94112,7.81056 7.11552,6.3072 7.02396,4.8168 Z" id="Shape" fill="#00A84F"></path>
                        <path d="M18.9224,11.394 C19.33442,11.12184 19.63962,10.73088 19.94482,10.35288 C19.90122,11.35296 19.9579,12.35304 19.9034,13.35096 C19.8707,13.99248 19.62654,14.64696 19.10988,15.05952 C17.91524,16.04448 16.43938,16.68168 15.36246,17.8092 C14.75424,18.43128 14.80002,19.33416 14.81092,20.13336 C14.66922,20.11824 14.388,20.088 14.24848,20.07288 C14.29208,18.63432 14.2354,17.1936 14.27464,15.75288 C14.29644,15.10488 14.45558,14.3856 15.03328,13.99464 C16.28242,13.06152 17.64056,12.2796 18.9224,11.394 Z" id="Shape" fill="#00A84F"></path>
                    </g>
                </g>
                <g id="#ec1b2eff" transform="translate(0.000000, 13.392000)"></g>
                <g id="#ffffffff" transform="translate(83.712000, 2.160000)"></g>
                <g id="#00a84fff" transform="translate(88.726000, 4.536000)"></g>
            </g>
        </g>
    </g>
</svg>