<?xml version="1.0" encoding="UTF-8"?>
<svg width="96px" height="30px" viewBox="0 0 96 30" version="1.1" xmlns="http://www.w3.org/2000/svg" xmlns:xlink="http://www.w3.org/1999/xlink">
    <!-- Generator: Sketch 51.3 (57544) - http://www.bohemiancoding.com/sketch -->
    <title>kiatnakin-bank</title>
    <desc>Created with Sketch.</desc>
    <defs></defs>
    <g id="Page-1" stroke="none" stroke-width="1" fill="none" fill-rule="evenodd">
        <g id="m7-withdraw-balance-0-1366-copy" transform="translate(-759.000000, -1129.000000)" fill-rule="nonzero">
            <g id="kiatnakin-bank" transform="translate(759.000000, 1129.000000)">
                <g id="#ffffffff" transform="translate(4.421053, 3.333333)" fill="#FFFFFF">
                    <path d="M5.66526316,0.604166667 C6.26947368,0.31875 6.90105263,0.0458333333 7.58105263,0.0291666667 C7.55578947,0.645833333 7.34315789,1.24166667 7.36631579,1.86458333 C7.36842105,6.74583333 7.36842105,11.6291667 7.36842105,16.5104167 C5.49052632,16.5104167 3.61473684,16.5104167 1.73684211,16.5104167 C1.73684211,12.5270833 1.73894737,8.54166667 1.73473684,4.55833333 C1.71578947,3.91458333 1.91578947,3.23958333 2.41263158,2.80208333 C3.37473684,1.91041667 4.48,1.17291667 5.66526316,0.604166667 Z" id="Shape"></path>
                    <path d="M15.7705263,1.65208333 C16.6421053,1.29166667 17.6357895,0.854166667 18.5789474,1.23125 C19.4842105,1.64791667 20.2252632,2.33333333 20.9515789,2.99583333 C21.5684211,3.61458333 22.2589474,4.21458333 22.6252632,5.02083333 C22.5494737,5.49791667 22.0147368,5.275 21.6821053,5.31666667 C21.1684211,5.27083333 20.6715789,5.425 20.2126316,5.63541667 C16.16,7.47083333 12.1136842,9.31458333 8.05473684,11.1375 C8.05052632,9.0875 8.05263158,7.03958333 8.05263158,4.99166667 C10.6168421,3.85625 13.1873684,2.73958333 15.7705263,1.65208333 Z" id="Shape"></path>
                    <path d="M12.8231579,9.76666667 C14.5726316,8.97291667 16.32,8.175 18.0715789,7.38333333 C19.3368421,9.64791667 20.6126316,11.90625 21.8736842,14.175 C22.5894737,15.1916667 21.6652632,16.6708333 20.4273684,16.5104167 C19.0947368,16.5229167 17.76,16.5020833 16.4273684,16.5104167 C15.2315789,14.2604167 14.0189474,12.0166667 12.8231579,9.76666667 Z" id="Shape"></path>
                    <path d="M0.0694736842,16.9375 C0.76,16.8520833 1.40631579,17.225 2.09894737,17.1875 C8.41684211,17.1895833 14.7347368,17.1833333 21.0526316,17.1895833 C21.7073684,17.2104167 22.3263158,16.9729167 22.9642105,16.86875 C23.4778947,17.3479167 22.8294737,17.9458333 22.5494737,18.3645833 C21.1494737,20.1 19.5052632,22.1208333 17.0884211,22.28125 C13.7768421,22.3125 10.4631579,22.275 7.14947368,22.2958333 C6.34315789,22.3020833 5.50526316,22.3083333 4.75368421,21.9770833 C3.08631579,21.3104167 1.91368421,19.8875 0.808421053,18.5458333 C0.467368421,18.0666667 -0.0757894737,17.5854167 0.0694736842,16.9375 Z" id="Shape"></path>
                    <path d="M75.1157895,20.61875 C75.1094737,20.4020833 75.1052632,20.1875 75.1010526,19.9729167 C75.4547368,20 75.8084211,20.0375 76.1642105,20.08125 C76.0568421,20.6041667 75.5621053,20.60625 75.1157895,20.61875 Z" id="Shape"></path>
                    <path d="M41.0378947,20.26875 C41.1431579,20.5604167 41.2484211,20.85 41.3578947,21.14375 C41.1368421,21.1458333 40.9157895,21.1458333 40.6947368,21.15 C40.8084211,20.85625 40.9221053,20.5604167 41.0378947,20.26875 Z" id="Shape"></path>
                    <path d="M54.5305263,21.14375 C54.6378947,20.85 54.7452632,20.5541667 54.8547368,20.2625 C54.9621053,20.55625 55.0736842,20.8520833 55.1810526,21.1479167 C55.0189474,21.1458333 54.6926316,21.14375 54.5305263,21.14375 Z" id="Shape"></path>
                    <path d="M79.9178947,21.1416667 C80.0336842,20.85 80.1494737,20.5604167 80.2694737,20.2708333 C80.3684211,20.5625 80.4715789,20.85625 80.5726316,21.1479167 C80.4105263,21.1458333 80.0821053,21.14375 79.9178947,21.1416667 Z" id="Shape"></path>
                    <path d="M75.1115789,21.81875 C75.1073684,21.5416667 75.1052632,21.2645833 75.1052632,20.9895833 C75.5578947,21.0729167 76.3810526,20.9416667 76.1915789,21.65625 C75.84,21.7520833 75.4736842,21.7770833 75.1115789,21.81875 Z" id="Shape"></path>
                </g>
                <g id="#0080c6ff" fill="#0080C6">
                    <path d="M13.5768421,0.364583333 C17.24,-0.152083333 21.0905263,0.539583333 24.2757895,2.425 C27.0694737,4.05833333 29.3536842,6.56666667 30.6021053,9.54166667 C32.0631579,12.9854167 32.0631579,17.0083333 30.6042105,20.4541667 C29.2778947,23.6208333 26.7768421,26.25625 23.7368421,27.8791667 C18.28,30.8333333 11.1178947,30.35 6.16210526,26.6083333 C3.15578947,24.3791667 0.997894737,21.0270833 0.395789474,17.34375 C-0.206315789,13.8270833 0.593684211,10.1020833 2.59578947,7.13333333 C5.04842105,3.45 9.17263158,0.960416667 13.5768421,0.364583333 Z M10.0863158,3.9375 C8.90105263,4.50625 7.79578947,5.24375 6.83368421,6.13541667 C6.33684211,6.57291667 6.13684211,7.24791667 6.15578947,7.89166667 C6.16,11.875 6.15789474,15.8604167 6.15789474,19.84375 C8.03578947,19.84375 9.91157895,19.84375 11.7894737,19.84375 C11.7894737,14.9625 11.7894737,10.0791667 11.7873684,5.19791667 C11.7642105,4.575 11.9768421,3.97916667 12.0021053,3.3625 C11.3221053,3.37916667 10.6905263,3.65208333 10.0863158,3.9375 Z M20.1915789,4.98541667 C17.6084211,6.07291667 15.0378947,7.18958333 12.4736842,8.325 C12.4736842,10.3729167 12.4715789,12.4208333 12.4757895,14.4708333 C16.5347368,12.6479167 20.5810526,10.8041667 24.6336842,8.96875 C25.0926316,8.75833333 25.5894737,8.60416667 26.1031579,8.65 C26.4357895,8.60833333 26.9705263,8.83125 27.0463158,8.35416667 C26.68,7.54791667 25.9894737,6.94791667 25.3726316,6.32916667 C24.6463158,5.66666667 23.9052632,4.98125 23,4.56458333 C22.0568421,4.1875 21.0631579,4.625 20.1915789,4.98541667 Z M17.2442105,13.1 C18.44,15.35 19.6526316,17.59375 20.8484211,19.84375 C22.1810526,19.8354167 23.5157895,19.85625 24.8484211,19.84375 C26.0863158,20.0041667 27.0105263,18.525 26.2947368,17.5083333 C25.0336842,15.2395833 23.7578947,12.98125 22.4926316,10.7166667 C20.7410526,11.5083333 18.9936842,12.30625 17.2442105,13.1 Z M4.49052632,20.2708333 C4.34526316,20.91875 4.88842105,21.4 5.22947368,21.8791667 C6.33473684,23.2208333 7.50736842,24.64375 9.17473684,25.3104167 C9.92631579,25.6416667 10.7642105,25.6354167 11.5705263,25.6291667 C14.8842105,25.6083333 18.1978947,25.6458333 21.5094737,25.6145833 C23.9263158,25.4541667 25.5705263,23.4333333 26.9705263,21.6979167 C27.2505263,21.2791667 27.8989474,20.68125 27.3852632,20.2020833 C26.7473684,20.30625 26.1284211,20.54375 25.4736842,20.5229167 C19.1557895,20.5166667 12.8378947,20.5229167 6.52,20.5208333 C5.82736842,20.5583333 5.18105263,20.1854167 4.49052632,20.2708333 Z" id="Shape"></path>
                </g>
                <g id="#004990ff" transform="translate(36.000000, 4.375000)" fill="#004990">
                    <path d="M0.644210526,0.839583333 C2.33263158,-0.485416667 5.51578947,-0.191666667 6.24631579,2.0625 C5.64421053,2.08333333 5.04421053,2.08541667 4.44421053,2.08333333 C3.75578947,1.3 2.51157895,1.20625 1.70736842,1.875 C2.86105263,2.4875 4.31368421,2.19166667 5.39578947,2.975 C6.51789474,3.72083333 6.46315789,5.65208333 5.22526316,6.26041667 C3.69894737,7.06666667 1.86947368,6.8 0.269473684,6.37291667 C0.261052632,5.58958333 0.263157895,4.80625 0.265263158,4.02291667 C0.858947368,3.88541667 1.45263158,3.74791667 2.04842105,3.61666667 C2.05263158,4.20625 2.05263158,4.79791667 2.05684211,5.3875 C2.81052632,5.4125 3.76,5.52291667 4.27789474,4.85 C4.57473684,4.44375 4.18315789,3.90416667 3.74105263,3.81666667 C2.65263158,3.51666667 1.39368421,3.64166667 0.473684211,2.8875 C-0.16,2.34375 0.00421052632,1.30625 0.644210526,0.839583333 Z" id="Shape"></path>
                    <path d="M14.1621053,0.389583333 C15.2168421,0.0145833333 16.4589474,-0.15625 17.4842105,0.389583333 C18.2589474,0.775 18.6631579,1.66041667 18.6336842,2.49375 C18.6378947,3.88541667 18.6273684,5.275 18.6315789,6.66666667 C18.0694737,6.66666667 17.5073684,6.66666667 16.9473684,6.66666667 C16.9010526,5.22083333 17.0421053,3.7625 16.88,2.32708333 C16.48,1.18958333 15.0105263,1.55416667 14.1515789,1.89166667 C14.1557895,1.38958333 14.1578947,0.889583333 14.1621053,0.389583333 Z" id="Shape"></path>
                    <path d="M21.5621053,0.308333333 C22.7557895,-0.116666667 24.1621053,-0.05 25.2610526,0.60625 C25.8442105,0.958333333 26.2947368,1.58125 26.3073684,2.275 C26.3347368,3.73958333 26.3052632,5.20208333 26.3157895,6.66666667 C25.7178947,6.66666667 25.1221053,6.66666667 24.5263158,6.66666667 C24.4905263,5.14791667 24.5978947,3.61875 24.4757895,2.10416667 C24.1010526,1.32291667 22.9852632,1.30416667 22.2652632,1.58333333 C21.7221053,1.74375 21.7073684,2.35 21.6105263,2.80416667 C22.3010526,2.81458333 22.9915789,2.8125 23.6842105,2.8125 C23.6842105,3.2625 23.6842105,3.71458333 23.6842105,4.16666667 C23.0168421,4.16666667 22.3515789,4.16666667 21.6842105,4.16666667 C21.6842105,5 21.6842105,5.83333333 21.6842105,6.66666667 C21.0863158,6.66666667 20.4905263,6.66666667 19.8947368,6.66666667 C19.9052632,5.20416667 19.8715789,3.74375 19.9031579,2.28125 C19.9263158,1.3375 20.7094737,0.60625 21.5621053,0.308333333 Z" id="Shape"></path>
                    <path d="M27.1073684,0.391666667 C28.1431579,0.0208333333 29.3515789,-0.15 30.3726316,0.358333333 C31.1621053,0.73125 31.6063158,1.60833333 31.5768421,2.45625 C31.5894737,3.85833333 31.5726316,5.2625 31.5789474,6.66666667 C31.0168421,6.66666667 30.4547368,6.66666667 29.8947368,6.66666667 C29.8884211,5.41041667 29.9052632,4.15416667 29.8947368,2.89791667 C29.9136842,2.41041667 29.7326316,1.84166667 29.2231579,1.66458333 C28.5242105,1.3875 27.7768421,1.675 27.1031579,1.88958333 C27.1031579,1.38958333 27.1052632,0.889583333 27.1073684,0.391666667 Z" id="Shape"></path>
                    <path d="M33.2484211,0.83125 C34.4463158,-0.141666667 36.24,-0.175 37.5978947,0.477083333 C38.2863158,0.78125 38.6336842,1.475 38.9052632,2.12916667 C38.3305263,2.13541667 37.7557895,2.13541667 37.1810526,2.1375 C36.4547368,1.31666667 34.9726316,1.08958333 34.2989474,2.08958333 C35.52,2.78333333 37.1052632,2.34166667 38.2505263,3.21666667 C39.12,3.91875 38.8968421,5.37291667 38.0589474,6.01458333 C36.9642105,6.91041667 35.3621053,6.95 34.0589474,6.54583333 C33.0947368,6.24583333 32.4568421,5.3625 32.3557895,4.38541667 C32.9368421,4.37291667 33.5178947,4.37291667 34.1010526,4.37291667 C34.5410526,5.66458333 36.4968421,5.68958333 37.1726316,4.58125 C36.0294737,3.60416667 34.2968421,4.19583333 33.1178947,3.26875 C32.3263158,2.68125 32.5305263,1.39791667 33.2484211,0.83125 Z" id="Shape"></path>
                    <path d="M7.05263158,0.15625 C7.66526316,0.15625 8.28,0.15625 8.89473684,0.15625 C8.92,1.69166667 8.84631579,3.22916667 8.92421053,4.7625 C9.36842105,5.96666667 11.5894737,5.44375 11.5242105,4.18333333 C11.5389474,2.84166667 11.5178947,1.49791667 11.5263158,0.15625 C12.1221053,0.15625 12.7178947,0.15625 13.3157895,0.15625 C13.3157895,2.32708333 13.3157895,4.49583333 13.3157895,6.66666667 C12.7136842,6.66666667 12.1115789,6.66666667 11.5094737,6.66458333 C11.5242105,6.49791667 11.5515789,6.16458333 11.5663158,5.99583333 C10.8863158,6.45208333 10.1136842,6.85833333 9.26526316,6.78125 C8.16,6.81458333 7.05894737,5.94375 7.06736842,4.80625 C7.02526316,3.25625 7.06736842,1.70625 7.05263158,0.15625 Z" id="Shape"></path>
                    <path d="M7.47368421,7.55208333 C8.06947368,7.55208333 8.66526316,7.55208333 9.26315789,7.55208333 C9.26315789,8.16041667 9.26315789,8.76666667 9.26315789,9.375 C7.28,9.375 5.29894737,9.375 3.31578947,9.375 C3.31368421,8.975 3.31578947,8.57708333 3.31578947,8.17708333 C4.70105263,8.17708333 6.08631579,8.17708333 7.47368421,8.17708333 C7.47368421,8.02083333 7.47368421,7.70833333 7.47368421,7.55208333 Z" id="Shape"></path>
                    <path d="M25.4736842,8.17708333 C27.4568421,8.17708333 29.4378947,8.17708333 31.4210526,8.17708333 C31.4210526,8.57708333 31.4210526,8.975 31.4210526,9.375 C29.4378947,9.375 27.4568421,9.375 25.4736842,9.375 C25.4715789,8.975 25.4736842,8.57708333 25.4736842,8.17708333 Z" id="Shape"></path>
                    <path d="M46.0526316,8.17708333 C48.0526316,8.17708333 50.0526316,8.17708333 52.0526316,8.17708333 C52.0526316,8.57708333 52.0526316,8.975 52.0526316,9.375 C50.0526316,9.375 48.0526316,9.375 46.0526316,9.375 C46.0505263,8.975 46.0505263,8.57708333 46.0526316,8.17708333 Z" id="Shape"></path>
                    <path d="M3.21052632,11.23125 C4.49894737,9.95 6.59157895,9.64166667 8.23157895,10.39375 C8.89894737,10.6854167 9.38315789,11.3479167 9.41052632,12.0770833 C9.44210526,13.5895833 9.40842105,15.1020833 9.42105263,16.6145833 C8.82315789,16.6145833 8.22736842,16.6145833 7.63157895,16.6145833 C7.60842105,15.1770833 7.67578947,13.7354167 7.60421053,12.3 C7.39157895,11.19375 5.71789474,11.1395833 5.02947368,11.825 C4.95368421,13.41875 5.02315789,15.01875 5,16.6145833 C4.40210526,16.6145833 3.80631579,16.6145833 3.21052632,16.6145833 C3.21052632,14.81875 3.21052632,13.025 3.21052632,11.23125 Z" id="Shape"></path>
                    <path d="M11.3873684,10.41875 C12.2821053,9.88541667 13.3789474,10.0229167 14.3578947,10.20625 C14.3642105,10.6583333 14.3705263,11.1125 14.3768421,11.5645833 C13.6568421,11.4270833 12.6989474,11.1479167 12.2063158,11.8875 C12.7242105,12.5520833 13.64,12.38125 14.3768421,12.3458333 C14.3705263,12.8083333 14.3684211,13.2729167 14.3684211,13.7375 C13.7389474,13.7791667 13.0378947,13.6458333 12.4757895,13.99375 C12.0842105,14.1958333 12.0168421,14.8020833 12.4210526,15.0270833 C13.1789474,15.55625 14.1768421,15.375 14.9957895,15.0895833 C15.0042105,13.4270833 14.9978947,11.7645833 15,10.1041667 C15.5957895,10.1041667 16.1915789,10.1041667 16.7894737,10.1041667 C16.7831579,11.9270833 16.8021053,13.7520833 16.7768421,15.575 C15.6168421,16.6333333 13.9410526,16.9479167 12.4273684,16.6020833 C11.3452632,16.4354167 10.2084211,15.5854167 10.3094737,14.4 C10.3073684,13.75625 10.8842105,13.3791667 11.3705263,13.0708333 C11.0126316,12.8104167 10.5410526,12.5833333 10.4610526,12.1020833 C10.3221053,11.4020833 10.7915789,10.74375 11.3873684,10.41875 Z" id="Shape"></path>
                    <path d="M18.9557895,10.4270833 C20.1557895,9.81875 21.6778947,9.85208333 22.8652632,10.4770833 C23.5221053,10.8 23.8378947,11.4895833 24.0968421,12.1291667 C23.5178947,12.1354167 22.9410526,12.1354167 22.3642105,12.1333333 C21.6526316,11.24375 20.16,11.0854167 19.4463158,12.0541667 C20.7157895,12.7083333 22.3326316,12.2958333 23.4863158,13.2166667 C24.2905263,13.9333333 24.0715789,15.2833333 23.2926316,15.9375 C22.0694737,16.9041667 20.2484211,16.96875 18.8610526,16.3270833 C18.0526316,15.975 17.6568421,15.1479167 17.5242105,14.3291667 C18.0905263,14.3229167 18.6589474,14.3229167 19.2252632,14.3166667 C19.7052632,15.5479167 21.6378947,15.6979167 22.3010526,14.55625 C21.5936842,13.79375 20.4821053,13.9854167 19.56,13.7479167 C18.9094737,13.5916667 18.1515789,13.3416667 17.8778947,12.675 C17.5431579,11.7895833 18.1494737,10.81875 18.9557895,10.4270833 Z" id="Shape"></path>
                    <path d="M24.9789474,12.3770833 C25.3747368,11.2625 26.3431579,10.3083333 27.5263158,10.0666667 C27.9094737,10.1375 28.2105263,10.4708333 28.5473684,10.6666667 C28.7936842,10.4645833 29.0442105,10.2645833 29.2947368,10.0645833 C30.3073684,10.1645833 31.4905263,10.6333333 31.6778947,11.7520833 C31.8189474,13.3666667 31.6968421,14.99375 31.7368421,16.6145833 C31.1389474,16.6145833 30.5431579,16.6145833 29.9473684,16.6145833 C29.8421053,14.91875 30.1873684,13.16875 29.7221053,11.5166667 C29.3242105,11.7958333 28.9473684,12.1020833 28.5726316,12.4104167 C28.2126316,12.1375 27.8505263,11.86875 27.4842105,11.60625 C27.0505263,12.16875 26.5810526,12.79375 26.6210526,13.5416667 C26.5915789,14.1541667 26.7705263,14.925 27.4231579,15.15625 C27.84,15.325 28.2378947,15.0208333 28.6147368,14.875 C28.9557895,15.2395833 29.2947368,15.6104167 29.6231579,15.9875 C28.6421053,16.7958333 27.1810526,16.9854167 26.08,16.3020833 C24.8105263,15.4833333 24.5326316,13.7208333 24.9789474,12.3770833 Z" id="Shape"></path>
                    <path d="M37.4210526,10.1041667 C38.0168421,10.1041667 38.6126316,10.1041667 39.2105263,10.1041667 C39.2105263,12.2729167 39.2105263,14.44375 39.2105263,16.6145833 C38.6084211,16.6145833 38.0084211,16.6145833 37.4084211,16.6125 C37.4189474,16.4479167 37.4357895,16.1145833 37.4442105,15.95 C36.7621053,16.4104167 35.9873684,16.81875 35.1326316,16.7270833 C34.0526316,16.7604167 32.9663158,15.9 32.9747368,14.7875 C32.9052632,13.2270833 32.9663158,11.6645833 32.9473684,10.1041667 C33.56,10.1041667 34.1747368,10.1041667 34.7894737,10.1041667 C34.8189474,11.65 34.7305263,13.2020833 34.8273684,14.7458333 C35.3136842,15.8958333 37.4273684,15.4020833 37.4147368,14.18125 C37.4378947,12.8229167 37.4105263,11.4625 37.4210526,10.1041667 Z" id="Shape"></path>
                    <path d="M40.0652632,10.3166667 C41.2147368,9.925 42.6231579,9.77291667 43.6505263,10.54375 C44.3284211,11.0354167 44.52,11.9104167 44.5242105,12.6979167 C44.5389474,14.0041667 44.52,15.3083333 44.5263158,16.6145833 C43.9473684,16.6145833 43.3684211,16.6145833 42.7894737,16.6145833 C42.7726316,15.24375 42.8252632,13.8708333 42.7705263,12.5 C42.7747368,12 42.3326316,11.6208333 41.8652632,11.5375 C41.2336842,11.4083333 40.6168421,11.6458333 40.0336842,11.85 C40.0484211,11.3375 40.0547368,10.8270833 40.0652632,10.3166667 Z" id="Shape"></path>
                    <path d="M47.2484211,10.31875 C48.3726316,9.86458333 49.6926316,9.88333333 50.8,10.3770833 C51.5389474,10.7166667 52.1831579,11.4291667 52.1557895,12.2791667 C52.1684211,13.7229167 52.1494737,15.16875 52.1578947,16.6145833 C51.56,16.6145833 50.9642105,16.6145833 50.3684211,16.6145833 C50.3557895,15.175 50.3915789,13.7354167 50.3578947,12.2958333 C50.3978947,11.7979167 49.8652632,11.5041667 49.4378947,11.425 C48.8526316,11.3625 48.1536842,11.3520833 47.7178947,11.8083333 C47.5747368,12.1041667 47.5789474,12.4416667 47.5178947,12.75625 C48.1852632,12.7625 48.8568421,12.7604167 49.5263158,12.7604167 C49.5263158,13.2125 49.5263158,13.6625 49.5263158,14.1145833 C48.8757895,14.1145833 48.2273684,14.1125 47.5789474,14.1145833 C47.5789474,14.9479167 47.5789474,15.78125 47.5789474,16.6145833 C46.9642105,16.6145833 46.3494737,16.6145833 45.7368421,16.6145833 C45.7515789,15.18125 45.7094737,13.7458333 45.7515789,12.3125 C45.7494737,11.40625 46.4357895,10.65 47.2484211,10.31875 Z" id="Shape"></path>
                    <path d="M53.4210526,10.1041667 C54.0168421,10.1041667 54.6126316,10.1041667 55.2105263,10.1041667 C55.2421053,11.6354167 55.1494737,13.1708333 55.2505263,14.6979167 C55.6526316,15.8 57.4231579,15.49375 57.8063158,14.5270833 C57.8989474,13.05625 57.8126316,11.5770833 57.8421053,10.1041667 C58.4547368,10.1041667 59.0694737,10.1041667 59.6842105,10.1041667 C59.6842105,12.275 59.6842105,14.44375 59.6842105,16.6145833 C59.0652632,16.6145833 58.4484211,16.6145833 57.8315789,16.6125 C57.84,16.4541667 57.8568421,16.1354167 57.8673684,15.9770833 C57.1894737,16.4208333 56.4210526,16.8125 55.5810526,16.7291667 C54.5115789,16.7625 53.3894737,15.9270833 53.4231579,14.8083333 C53.4084211,13.2395833 53.4273684,11.6708333 53.4210526,10.1041667 Z" id="Shape"></path>
                    <path d="M0.210526316,10.1041667 C0.806315789,10.1041667 1.40421053,10.1041667 2,10.1041667 C2,12.2729167 2,14.44375 2,16.6145833 C1.40421053,16.6145833 0.806315789,16.6145833 0.210526316,16.6145833 C0.210526316,14.44375 0.210526316,12.2729167 0.210526316,10.1041667 Z" id="Shape"></path>
                    <path d="M0.473684211,18.4375 C0.717894737,18.4354167 0.964210526,18.4354167 1.21052632,18.4375 C1.21052632,18.7916667 1.20842105,19.1479167 1.21052632,19.5041667 C1.57052632,19.1479167 1.93052632,18.79375 2.28842105,18.4375 C2.51368421,18.4375 2.96421053,18.4375 3.18947368,18.4395833 C2.80631579,18.8125 2.42105263,19.1875 2.02736842,19.5520833 C2.44842105,20.1208333 2.87368421,20.6854167 3.30105263,21.25 C2.99789474,21.25 2.69684211,21.25 2.39578947,21.25 C2.07789474,20.8 1.75157895,20.35625 1.42315789,19.9145833 C1.30947368,20.3541667 1.22315789,20.8020833 1.15368421,21.2520833 C0.926315789,21.25 0.701052632,21.25 0.473684211,21.25 C0.473684211,20.3125 0.473684211,19.375 0.473684211,18.4375 Z" id="Shape"></path>
                    <path d="M34.5789474,18.4375 C34.8063158,18.4354167 35.0357895,18.4354167 35.2673684,18.4333333 C35.6652632,19.0375 36.0715789,19.6375 36.4757895,20.2395833 C36.4736842,19.6375 36.4736842,19.0375 36.4736842,18.4375 C36.6315789,18.4375 36.9473684,18.4375 37.1052632,18.4375 C37.1052632,19.375 37.1052632,20.3125 37.1052632,21.25 C36.9347368,21.25 36.5915789,21.25 36.4210526,21.25 C36.0273684,20.6708333 35.6505263,20.0833333 35.2673684,19.5 C35.2631579,20.0833333 35.2631579,20.6666667 35.2631579,21.25 C35.0926316,21.25 34.7494737,21.25 34.5789474,21.25 C34.5789474,20.3125 34.5789474,19.375 34.5789474,18.4375 Z" id="Shape"></path>
                    <path d="M42.7894737,18.4375 C43.4778947,18.46875 44.1957895,18.3333333 44.8631579,18.5458333 C45.3957895,18.7604167 45.1178947,19.40625 44.9936842,19.7875 C45.0863158,19.86875 45.2715789,20.0333333 45.3663158,20.1145833 C45.2884211,20.4770833 45.3031579,20.9645833 44.8884211,21.1291667 C44.2168421,21.3541667 43.4863158,21.21875 42.7894737,21.2520833 C42.7894737,20.3125 42.7894737,19.375 42.7894737,18.4375 Z M43.5368421,19.5770833 C43.9831579,19.5645833 44.4778947,19.5625 44.5852632,19.0395833 C44.2294737,18.9958333 43.8757895,18.9583333 43.5221053,18.93125 C43.5263158,19.1458333 43.5305263,19.3604167 43.5368421,19.5770833 Z M43.5326316,20.7770833 C43.8947368,20.7354167 44.2610526,20.7104167 44.6126316,20.6145833 C44.8021053,19.9 43.9789474,20.03125 43.5263158,19.9479167 C43.5263158,20.2229167 43.5284211,20.5 43.5326316,20.7770833 Z" id="Shape"></path>
                    <path d="M52.1578947,18.4375 C52.3915789,18.4354167 52.6294737,18.4375 52.8652632,18.4375 C53.2589474,19.0395833 53.6526316,19.64375 54.0526316,20.2416667 C54.0505263,19.6395833 54.0505263,19.0395833 54.0526316,18.4375 C54.2105263,18.4375 54.5263158,18.4375 54.6842105,18.4375 C54.6842105,19.375 54.6842105,20.3125 54.6842105,21.25 C54.5115789,21.25 54.1684211,21.2479167 53.9957895,21.2479167 C53.6168421,20.6625 53.2336842,20.0833333 52.8442105,19.5083333 C52.8421053,20.0875 52.8421053,20.66875 52.8421053,21.25 C52.6715789,21.25 52.3284211,21.25 52.1578947,21.25 C52.1578947,20.3125 52.1557895,19.375 52.1578947,18.4375 Z" id="Shape"></path>
                    <path d="M58.8168421,18.4354167 C59.1136842,18.4354167 59.4105263,18.4375 59.7094737,18.4375 C59.3284211,18.8145833 58.9473684,19.1916667 58.5684211,19.56875 C58.9915789,20.1270833 59.4147368,20.6854167 59.8357895,21.2458333 C59.5347368,21.2458333 59.2357895,21.2479167 58.9368421,21.25 C58.6126316,20.7895833 58.2715789,20.3395833 57.8884211,19.9270833 C57.7936842,20.3625 57.7368421,20.80625 57.6947368,21.25 C57.52,21.25 57.1726316,21.25 57,21.25 C57,20.3125 57,19.375 57,18.4375 C57.1831579,18.4375 57.5536842,18.4375 57.7368421,18.4375 C57.7347368,18.7916667 57.7347368,19.1479167 57.7368421,19.5041667 C58.0968421,19.1479167 58.4568421,18.7916667 58.8168421,18.4354167 Z" id="Shape"></path>
                    <path d="M5.26315789,18.4375 C5.44842105,18.4375 5.81684211,18.4375 6,18.4375 C6,19.375 6,20.3125 6,21.25 C5.81684211,21.25 5.44842105,21.25 5.26315789,21.25 C5.26315789,20.3125 5.26315789,19.375 5.26315789,18.4375 Z" id="Shape"></path>
                    <path d="M9.10947368,18.4333333 C9.34736842,18.4354167 9.58526316,18.4375 9.82315789,18.4395833 C10.2,19.3770833 10.5768421,20.3166667 10.96,21.2520833 C10.7073684,21.25 10.4547368,21.2479167 10.2042105,21.2458333 C10.1494737,21.0916667 10.0378947,20.7854167 9.98315789,20.63125 C9.63157895,20.625 9.28421053,20.6229167 8.93473684,20.6208333 C8.87578947,20.7770833 8.76,21.0895833 8.70105263,21.2458333 C8.45684211,21.2479167 8.21263158,21.25 7.96842105,21.2520833 C8.34736842,20.3104167 8.72421053,19.3708333 9.10947368,18.4333333 Z M9.45894737,19.2270833 C9.34315789,19.51875 9.22947368,19.8145833 9.11578947,20.1083333 C9.33684211,20.1041667 9.55789474,20.1041667 9.77894737,20.1020833 C9.66947368,19.8083333 9.56421053,19.51875 9.45894737,19.2270833 Z" id="Shape"></path>
                    <path d="M12.6842105,18.4375 C13.5073684,18.4375 14.3326316,18.4375 15.1578947,18.4375 C15.1578947,18.58125 15.1578947,18.8666667 15.1578947,19.0104167 C14.8589474,19.0104167 14.56,19.0104167 14.2631579,19.0104167 C14.2610526,19.75625 14.2631579,20.5041667 14.2631579,21.25 C14.0926316,21.25 13.7494737,21.25 13.5789474,21.25 C13.5789474,20.5020833 13.5789474,19.75625 13.5789474,19.0104167 C13.28,19.0104167 12.9831579,19.0104167 12.6863158,19.0104167 C12.6842105,18.8666667 12.6842105,18.58125 12.6842105,18.4375 Z" id="Shape"></path>
                    <path d="M17.2631579,18.4375 C17.44,18.4375 17.7957895,18.4375 17.9726316,18.4375 C18.3684211,19.0375 18.7557895,19.6416667 19.1536842,20.2416667 C19.1557895,19.6395833 19.1578947,19.0375 19.1578947,18.4375 C19.3157895,18.4375 19.6315789,18.4375 19.7894737,18.4375 C19.7894737,19.375 19.7894737,20.3125 19.7894737,21.25 C19.6189474,21.25 19.2757895,21.25 19.1052632,21.25 C18.7157895,20.66875 18.3347368,20.0833333 17.9494737,19.5 C17.9473684,20.0833333 17.9473684,20.6666667 17.9473684,21.25 C17.7768421,21.25 17.4336842,21.25 17.2631579,21.25 C17.2631579,20.3125 17.2631579,19.375 17.2631579,18.4375 Z" id="Shape"></path>
                    <path d="M21.7894737,21.25 C22.1684211,20.3125 22.5473684,19.3770833 22.9242105,18.4375 C23.1073684,18.4375 23.4715789,18.4354167 23.6547368,18.4354167 C24.0273684,19.3708333 24.3978947,20.30625 24.7705263,21.24375 C24.5852632,21.2458333 24.2189474,21.25 24.0336842,21.2520833 C23.9536842,21.04375 23.8736842,20.8333333 23.7936842,20.625 C23.4463158,20.625 23.1010526,20.625 22.7578947,20.625 C22.6757895,20.8333333 22.5957895,21.0416667 22.5178947,21.25 C22.3347368,21.25 21.9705263,21.25 21.7894737,21.25 Z M22.9515789,20.1020833 C23.1136842,20.1020833 23.44,20.1041667 23.6021053,20.10625 C23.4947368,19.8104167 23.3831579,19.5145833 23.2757895,19.2208333 C23.1663158,19.5125 23.0589474,19.8083333 22.9515789,20.1020833 Z" id="Shape"></path>
                    <path d="M26.7894737,18.4375 C26.96,18.4375 27.3031579,18.4375 27.4736842,18.4375 C27.4736842,18.7916667 27.4736842,19.1479167 27.4736842,19.50625 C27.8336842,19.15 28.1936842,18.79375 28.5536842,18.4375 C28.7768421,18.4375 29.2252632,18.4375 29.4484211,18.4395833 C29.0652632,18.8145833 28.6842105,19.1916667 28.2968421,19.5645833 C28.7242105,20.1208333 29.1494737,20.68125 29.5705263,21.24375 C29.2694737,21.2458333 28.9705263,21.2479167 28.6715789,21.2520833 C28.3536842,20.80625 28.0315789,20.3625 27.6989474,19.9291667 C27.5536842,20.3583333 27.4757895,20.8020833 27.4189474,21.25 C27.2610526,21.25 26.9473684,21.25 26.7894737,21.25 C26.7894737,20.3125 26.7894737,19.375 26.7894737,18.4375 Z" id="Shape"></path>
                    <path d="M31.5263158,18.4375 C31.7094737,18.4375 32.08,18.4375 32.2631579,18.4375 C32.2631579,19.375 32.2631579,20.3125 32.2631579,21.25 C32.08,21.25 31.7094737,21.25 31.5263158,21.25 C31.5263158,20.3125 31.5263158,19.375 31.5263158,18.4375 Z" id="Shape"></path>
                    <path d="M47.1915789,21.2458333 C47.5684211,20.3104167 47.9494737,19.3770833 48.3242105,18.4416667 C48.5052632,18.4395833 48.8673684,18.4375 49.0463158,18.4354167 C49.4147368,19.375 49.8042105,20.3083333 50.1768421,21.2479167 C49.9894737,21.2479167 49.6168421,21.25 49.4294737,21.25 C49.3473684,21.0395833 49.2694737,20.8291667 49.1915789,20.6208333 C48.84,20.6229167 48.4926316,20.6270833 48.1431579,20.6333333 C48.0884211,20.7875 47.9768421,21.0958333 47.9221053,21.2520833 C47.6778947,21.2479167 47.4336842,21.2458333 47.1915789,21.2458333 Z M48.3389474,20.1 C48.5031579,20.1020833 48.8315789,20.1041667 48.9936842,20.10625 C48.8926316,19.8145833 48.7894737,19.5208333 48.6905263,19.2291667 C48.5705263,19.51875 48.4547368,19.8083333 48.3389474,20.1 Z" id="Shape"></path>
                </g>
            </g>
        </g>
    </g>
</svg>