<?xml version="1.0" encoding="UTF-8"?>
<svg width="94px" height="33px" viewBox="0 0 94 33" version="1.1" xmlns="http://www.w3.org/2000/svg" xmlns:xlink="http://www.w3.org/1999/xlink">
    <!-- Generator: Sketch 51.3 (57544) - http://www.bohemiancoding.com/sketch -->
    <title>Group 39</title>
    <desc>Created with Sketch.</desc>
    <defs></defs>
    <g id="Page-1" stroke="none" stroke-width="1" fill="none" fill-rule="evenodd">
        <g id="m7-withdraw-balance-0-1366-copy" transform="translate(-760.000000, -1346.000000)" fill-rule="nonzero">
            <g id="Group-39" transform="translate(760.000000, 1346.000000)">
                <g id="Group-33">
                    <path d="M15.6598668,0.0795768756 C15.7568351,0.0692422164 15.9487302,0.0465059663 16.0456985,0.0351378412 L16.0314085,0.109547387 C16.0018076,0.261466877 15.9426059,0.567372788 15.9130051,0.719292278 C15.8701349,0.889814154 15.9109637,1.06343643 15.9579167,1.22879098 C15.9395438,1.39931285 15.9221916,1.57086819 15.9048393,1.74139007 C15.7843945,1.89951036 15.7650009,2.10620354 15.8354305,2.29016047 C15.8272647,2.41624331 15.8201197,2.54232616 15.8139954,2.668409 C15.6915091,2.78622411 15.662929,2.96191332 15.7262136,3.11796667 C15.7190685,3.24921684 15.7109028,3.38150048 15.7047785,3.51378412 C15.6098516,3.63056577 15.5628986,3.78971952 15.6323074,3.93337128 C15.6221002,4.00364696 15.6016859,4.14316486 15.5914787,4.21344054 C15.6118931,4.3694939 15.6312867,4.52554725 15.6506804,4.6816006 C15.5098212,4.70433685 15.4547024,4.78701413 15.4863447,4.93169936 C15.5006347,5.02367782 15.5281941,5.20763476 15.5424842,5.29961322 C15.4036664,5.32544987 15.3516098,5.40916061 15.3852935,5.55177891 C15.3995836,5.64479084 15.4291844,5.8308147 15.4434745,5.92382664 C15.3056774,5.94656289 15.2505586,6.03027363 15.278118,6.17289192 C15.2862838,6.2524688 15.3026153,6.41265601 15.310781,6.49326636 C15.1791083,6.64725278 15.1586939,6.85807982 15.2362686,7.04307022 C14.7381578,10.065958 14.0675456,13.0991805 12.7793986,15.888505 C12.7242798,15.8719696 12.6150629,15.8399321 12.5609648,15.8233967 C12.5681098,15.6456405 12.4313335,15.5164573 12.277205,15.4606501 C12.1567601,15.3965752 12.0393775,15.3283665 11.9230156,15.2591243 C11.8985183,15.0906693 11.8229851,14.8953443 11.6331314,14.8695076 L11.6249657,14.797165 C11.6188414,14.6328439 11.5392253,14.5625682 11.3861175,14.5873714 C10.4205176,12.6940619 9.61925336,10.689138 9.27935403,8.57673364 C9.32222421,8.42378069 9.27629187,8.32250103 9.14257772,8.2749616 C9.16095065,8.18815046 9.19667581,8.01452819 9.21402803,7.92771705 C9.2507739,7.78613222 9.20075868,7.70138801 9.06194093,7.6714175 C9.07418956,7.60734261 9.09766609,7.47919284 9.108894,7.41615142 C9.14666059,7.27456659 9.09664537,7.18775545 8.95986906,7.15675147 C8.97109697,7.09267659 8.99559422,6.96452681 9.00784284,6.90045193 C9.043568,6.75783363 8.99253206,6.67308943 8.85269359,6.64518585 C8.86698366,6.55217391 8.89454306,6.36615005 8.90883312,6.27313812 C8.93843397,6.13051982 8.88433587,6.04680908 8.74551813,6.02407283 C8.75980819,5.93312783 8.7873676,5.75227129 8.80165766,5.66132629 C8.79349191,5.59208408 8.77818113,5.45256618 8.77001538,5.3822905 C8.814927,5.25517419 8.78328472,5.14976066 8.67508853,5.06604992 C8.67508853,4.99267384 8.67610925,4.84695515 8.67610925,4.77357907 C8.73429022,4.61545878 8.70162722,4.44080304 8.57709954,4.32608833 C8.5750581,4.16383418 8.57199594,4.0026135 8.5699545,3.84139281 C8.63119763,3.68533946 8.60159679,3.51068372 8.48013126,3.39390207 C8.46992407,3.19857701 8.45971688,3.00428542 8.45053041,2.80999383 C8.43828179,2.64153888 8.41480526,2.30566246 8.40357735,2.13720752 L8.3188577,2.09380195 C9.87851592,1.24532643 11.5627018,0.54153614 13.3254831,0.311073241 C13.4316378,0.322441366 13.5275854,0.294537786 13.6123051,0.227362502 C13.6725275,0.226329036 13.7919516,0.22529557 13.8511532,0.224262104 C13.957308,0.239764093 14.0542763,0.214960911 14.1410374,0.15191949 C14.3186424,0.109547387 14.4982889,0.0919784666 14.6820183,0.0981792621 C14.8524783,0.103346592 15.0239591,0.107480455 15.1964605,0.106446989 C15.3505891,0.116781649 15.506759,0.107480455 15.6598668,0.0795768756 Z" id="Shape" fill="#FEC529"></path>
                    <path d="M16.2692359,0.0289370457 C16.5836173,0.0475394322 16.904123,0.0651083528 17.2215665,0.0909450007 C17.375695,0.106446989 17.531865,0.108513921 17.6870143,0.106446989 C17.8574743,0.103346592 18.0269136,0.116781649 18.1963529,0.14675216 C18.2790311,0.211860513 18.373958,0.237697161 18.479092,0.224262104 C18.5362522,0.227362502 18.649552,0.232529831 18.7067123,0.235630229 C20.4807214,0.520866822 22.2547306,1.07273762 23.7960159,2.0193924 C23.850114,2.05866411 23.9583102,2.13720752 24.0124083,2.17751269 C23.857259,2.29326087 23.8562383,2.50098752 23.8817563,2.67564326 C23.8786941,2.84616514 23.8756319,3.01668701 23.8735905,3.18824235 C23.7480421,3.34326224 23.726607,3.54995542 23.7939744,3.73597929 C23.7878501,3.89719997 23.7827465,4.05842066 23.7776429,4.2206748 C23.6531153,4.33642299 23.6224937,4.51107873 23.6837368,4.66816555 C23.6806747,4.79941572 23.6776125,4.93066589 23.6755711,5.06191606 C23.5663542,5.14666027 23.5347119,5.25310726 23.5816649,5.38022356 C23.5796235,5.45670004 23.5755406,5.61068646 23.5734992,5.68716294 C23.5857478,5.76570635 23.6122865,5.92279317 23.6245351,6.00133658 C23.4898003,6.04577561 23.4408058,6.14498834 23.4795931,6.29897476 C23.4101842,6.92318818 23.2979051,7.5412008 23.1978747,8.16128035 C23.0723263,8.23982376 23.0325183,8.35040461 23.0794713,8.49405637 C22.6313758,10.7625141 21.95566,13.0609423 20.6226013,14.9687203 C20.3337379,15.2374215 20.046916,15.5081895 19.7723426,15.7923927 C19.6998716,15.8513002 19.6284213,15.9091743 19.5579917,15.9680819 C18.8894209,14.386879 18.3045491,12.7633041 17.9360696,11.081855 C17.9983335,10.9454375 17.9728155,10.8296893 17.8595157,10.7346105 C17.6451648,9.88510149 17.4532697,9.02939172 17.343032,8.15921341 C17.3869229,8.00832739 17.343032,7.90704773 17.2134008,7.85434097 C17.2276908,7.79646688 17.2572917,7.68175216 17.2726024,7.62387807 C17.3154726,7.4833267 17.2685196,7.3954821 17.1297018,7.36137773 C17.1409297,7.29730284 17.165427,7.17122 17.1766549,7.10817858 C17.2113593,6.96349335 17.1572612,6.87978261 17.0153813,6.85601289 C17.0368164,6.66068783 17.0562101,6.46536278 17.0786659,6.27107118 C17.1052046,6.12845289 17.0500858,6.04577561 16.9143302,6.02303936 C16.9286202,5.9310609 16.9572004,5.74710396 16.9725111,5.65615896 C17.0041534,5.5125072 16.951076,5.42879646 16.8112376,5.40502675 C16.8326727,5.24587299 16.853087,5.08568578 16.8745221,4.92653203 C16.9031023,4.78288026 16.8479835,4.70020299 16.7091657,4.67850021 C16.7183522,4.59788986 16.7367251,4.43563572 16.7459116,4.35502537 C16.8040925,4.19587162 16.7653052,4.02224935 16.6407775,3.9085681 C16.635674,3.83725895 16.6264875,3.69464065 16.6213839,3.6233315 C16.6652748,3.48484707 16.6662955,3.34636264 16.6234253,3.20994514 C16.6938549,3.06629338 16.6520055,2.90403923 16.5550372,2.78622411 C16.5427885,2.65497394 16.5315606,2.52475723 16.5203327,2.39454053 C16.5907623,2.20955013 16.570348,2.00285695 16.4488824,1.84577013 C16.4386752,1.69075024 16.4294888,1.53779728 16.4203023,1.38381086 C16.4009086,1.20915512 16.3621213,0.860877109 16.3427277,0.687254835 C16.3202719,0.491929776 16.2957746,0.296604718 16.2753602,0.102313126 L16.2692359,0.0289370457 Z" id="Shape" fill="#FEC529"></path>
                    <path d="M16.0314085,0.109547387 C16.0926516,0.107480455 16.2141171,0.104380058 16.2753602,0.102313126 C16.2957746,0.296604718 16.3202719,0.491929776 16.3427277,0.687254835 C16.3621213,0.860877109 16.4009086,1.20915512 16.4203023,1.38381086 C16.4294888,1.53779728 16.4386752,1.69075024 16.4488824,1.84577013 C16.3774321,2.02972706 16.3978465,2.23642024 16.5203327,2.39454053 C16.5315606,2.52475723 16.5427885,2.65497394 16.5550372,2.78622411 C16.5080841,2.92367508 16.5060427,3.06112605 16.5499336,3.19857701 C16.4784833,3.34222878 16.5223742,3.50551639 16.6213839,3.6233315 C16.6264875,3.69464065 16.635674,3.83725895 16.6407775,3.9085681 C16.584638,4.06772185 16.6193425,4.24134412 16.7459116,4.35502537 C16.7367251,4.43563572 16.7183522,4.59788986 16.7091657,4.67850021 C16.6805856,4.8211185 16.7357044,4.90379578 16.8745221,4.92653203 C16.853087,5.08568578 16.8326727,5.24587299 16.8112376,5.40502675 C16.780616,5.54661158 16.8336934,5.63032232 16.9725111,5.65615896 C16.9572004,5.74710396 16.9286202,5.9310609 16.9143302,6.02303936 C16.8816672,6.16565766 16.936786,6.24833493 17.0786659,6.27107118 C17.0562101,6.46536278 17.0368164,6.66068783 17.0153813,6.85601289 C16.9878219,6.99759772 17.0408993,7.08130846 17.1766549,7.10817858 C17.165427,7.17122 17.1409297,7.29730284 17.1297018,7.36137773 C17.0898938,7.49986216 17.1378676,7.58770676 17.2726024,7.62387807 C17.2572917,7.68175216 17.2276908,7.79646688 17.2134008,7.85434097 C17.1715513,7.98662461 17.2154422,8.08893773 17.343032,8.15921341 C17.4532697,9.02939172 17.6451648,9.88510149 17.8595157,10.7346105 C17.800314,10.8699945 17.825832,10.9857427 17.9360696,11.081855 C18.3045491,12.7633041 18.8894209,14.386879 19.5579917,15.9680819 C19.6284213,15.9091743 19.6998716,15.8513002 19.7723426,15.7923927 C20.0846826,15.5505617 20.3857946,15.2890948 20.6226013,14.9687203 C21.95566,13.0609423 22.6313758,10.7625141 23.0794713,8.49405637 C23.1988954,8.41344603 23.2387035,8.30183171 23.1978747,8.16128035 C23.2979051,7.5412008 23.4101842,6.92318818 23.4795931,6.29897476 C23.6071829,6.23489988 23.6551567,6.13568715 23.6245351,6.00133658 C23.6122865,5.92279317 23.5857478,5.76570635 23.5734992,5.68716294 C23.6796539,5.60138527 23.7102755,5.49597175 23.6653639,5.36885544 C23.6674053,5.29237896 23.6735296,5.139426 23.6755711,5.06191606 C23.6776125,4.93066589 23.6806747,4.79941572 23.6837368,4.66816555 C23.8072438,4.5513839 23.8378654,4.37672816 23.7776429,4.2206748 C23.7827465,4.05842066 23.7878501,3.89719997 23.7939744,3.73597929 C23.9195229,3.57992594 23.9409579,3.37323275 23.8735905,3.18824235 C23.8756319,3.01668701 23.8786941,2.84616514 23.8817563,2.67564326 C23.9889317,2.5288911 24.0634442,2.35940269 24.0756928,2.17544576 L24.0920243,2.11137087 C24.1144801,2.16924496 24.1604125,2.28395968 24.1828683,2.34183377 C24.2104277,2.6715094 24.2410493,3.00428542 24.2645258,3.33499451 C24.2777951,3.58819366 24.2931059,3.84242628 24.3084167,4.09769236 C24.3278103,4.2723481 24.3676184,4.61959265 24.387012,4.79424839 C24.3900742,4.94720134 24.3951778,5.10118777 24.3992607,5.25414072 C24.3380175,5.41122754 24.3696598,5.58588328 24.4952082,5.70163146 C24.4972497,5.83598203 24.4992911,5.96929914 24.503374,6.10468317 C24.5064361,6.18219311 24.5135812,6.33824647 24.5166433,6.41678988 C24.4564209,6.54700658 24.4839803,6.64415238 24.5993215,6.70822727 C24.5064361,6.88494994 24.5891143,7.07924153 24.6891448,7.23219449 C24.6911862,7.27766699 24.6962898,7.36964545 24.699352,7.41511795 C24.6421917,7.55153545 24.6687304,7.66728364 24.7799887,7.76442943 C25.2576851,10.2561158 26.1518347,12.7043965 27.6482084,14.7599602 C27.6624985,14.9067124 27.7359902,14.9821554 27.8707251,14.9873227 L27.8686836,15.0648327 C27.830917,15.2611912 28.0279158,15.3645378 28.1769407,15.4306796 C28.5056121,15.7634556 28.836325,16.0931313 29.1721415,16.4197065 C29.2395089,16.571626 29.3385186,16.7431813 29.5242894,16.7555829 C29.5753254,16.766951 29.6773972,16.7907208 29.7284332,16.8020889 C29.7018945,16.9374729 29.7600755,17.0273844 29.9009346,17.0728569 C30.6246242,17.51208 31.3697489,17.9130647 32.1148736,18.313016 L32.1516195,18.3429866 C32.1740753,19.6234508 31.717814,20.846041 31.3289202,22.0479619 C30.581754,21.4764552 29.7784484,20.9886593 28.992495,20.4770937 C29.0037229,20.3241407 28.9404383,20.2373296 28.8026413,20.2166603 C28.7485432,20.2083925 28.640347,20.1908236 28.5872696,20.1825559 C28.5995183,19.9841304 28.4106853,19.8797504 28.2494117,19.8342779 C27.8452071,19.437427 27.4450854,19.0374757 27.058233,18.6240893 C27.0010727,18.4049945 26.8602135,18.1786655 26.608096,18.1921005 C26.5580808,18.0784193 26.5090863,17.9657715 26.4611125,17.8520902 C26.4172216,17.7177397 26.3304605,17.6722672 26.2018499,17.7156727 C26.1875599,17.6588321 26.1569383,17.5441174 26.1416275,17.4872768 C26.1314204,17.3363908 26.0589493,17.2609477 25.922173,17.2599143 L25.9211523,17.1834378 C25.9323802,17.0315183 25.863992,16.9405733 25.7149671,16.9106028 C25.0535414,15.7851584 24.3114788,14.6132081 24.1991998,13.2759032 C24.2032827,13.2138952 24.2114484,13.0898793 24.2155313,13.0268379 C24.2910645,12.8439144 23.9899524,12.7560698 23.9940353,12.9699973 C23.9838281,13.0299383 23.9634138,13.1487869 23.9532066,13.2087279 C23.7633529,15.1960828 22.6875153,16.9147367 21.7821378,18.6344239 C21.636175,18.5941188 21.5463518,18.6519929 21.5126681,18.8080462 C21.4953159,18.8638534 21.4595907,18.9734008 21.4422385,19.0281745 C21.2891307,19.0447099 21.0686554,19.1842278 21.1594994,19.3630174 C21.5973877,20.4109519 22.2537099,21.3400377 22.8396024,22.3042614 C22.8477682,22.4530805 22.9243221,22.5398916 23.0702849,22.5657283 C23.0968235,22.6008661 23.1499009,22.6711418 23.1764396,22.7052462 C23.1774603,22.8540653 23.2448278,22.9357091 23.3795626,22.9512111 L23.3713969,23.0276876 C23.3193402,23.2240461 23.5122561,23.3428947 23.6623017,23.4090365 C23.693944,23.4441743 23.7582493,23.5165169 23.7898916,23.5516548 C23.9501444,23.7366452 24.1165216,23.9154348 24.281878,24.0962913 C24.4574416,24.2936833 24.6299431,24.4962426 24.8095896,24.6936346 C25.0382306,24.9416664 25.2729959,25.1886648 25.5220513,25.4180942 C25.5587971,25.4521986 25.6322889,25.5193739 25.668014,25.5534783 C25.7496715,25.699197 25.8578677,25.8562838 26.0405764,25.8686854 C26.0905916,25.881087 26.1896013,25.9058901 26.2396165,25.9182917 C26.2334922,26.0908805 26.3590406,26.2407331 26.5295007,26.2624359 C26.582578,26.2789713 26.6887328,26.3120422 26.7418102,26.3285777 C26.7367066,26.4639617 26.7979497,26.5528398 26.9245188,26.5941784 C27.3328063,26.7822692 27.7145551,27.0230668 28.1003868,27.2555966 L28.1636714,27.2938349 C27.8952223,27.5242978 27.6318769,27.759928 27.3675107,27.9934913 C27.1654084,28.0710012 26.9878034,28.2012179 26.8816486,28.3955095 C26.7846803,28.4905884 26.6938364,28.5929015 26.6131996,28.7034824 C26.5642051,28.7303525 26.4651954,28.7830593 26.4162009,28.8088959 C26.3151497,28.8398999 26.2426787,28.9039748 26.1998085,29.0011206 C26.1048817,29.0455596 26.0415971,29.1189357 26.0089341,29.2191819 C25.4699946,29.8092909 24.7177249,30.1575689 24.0522163,30.5854238 L23.9889317,30.5161816 C23.6980269,30.1761713 23.3948734,29.8495961 23.0815128,29.532322 C23.008021,29.4486113 22.9365707,29.3649006 22.8661411,29.2811898 C22.8344988,29.1065341 22.7232405,28.9122425 22.5231796,28.9329118 C22.5078688,28.8853724 22.478268,28.78926 22.4629572,28.7417206 C22.4374392,28.5887677 22.3537403,28.5236593 22.2128811,28.5453621 C22.2026739,28.4967892 22.1832803,28.3996434 22.1730731,28.3510705 C22.1638866,28.2074187 22.0903949,28.1216411 21.9525978,28.0937375 L21.9444321,28.0244953 C21.9434114,27.8746427 21.8699196,27.7878316 21.7229361,27.7640619 C20.3316965,25.7074647 19.2160509,23.4741448 18.2871969,21.1684824 C17.3573221,18.9279283 16.6734405,16.5829941 16.2967953,14.1812193 C16.3753907,14.0313668 16.3621213,13.8536106 16.2518837,13.7254608 C16.2335108,13.5508051 16.2151378,13.3771828 16.1967649,13.204594 C16.1641019,13.3430785 16.1314389,13.4825964 16.0997966,13.6221143 C15.9875176,13.7481971 15.9660825,13.9218194 16.0334499,14.0758058 C16.0314085,14.1429811 16.0273256,14.2773316 16.0252841,14.3445069 C15.9109637,14.4395858 15.8864664,14.5563674 15.9507717,14.6927849 C15.5598364,17.2599143 14.6912048,19.7298978 13.6572167,22.0996352 C12.8784083,23.9722754 11.8964769,25.7457029 10.8359501,27.4684906 C10.6950909,27.4984611 10.6195577,27.5873392 10.611392,27.7340913 C10.513403,27.8880778 10.4164347,28.0420642 10.3184457,28.1960506 C10.1673793,28.2053518 10.0918461,28.2807948 10.0928669,28.4234131 L10.0908254,28.5133246 C9.9264897,28.531927 9.79583771,28.6652441 9.78256836,28.8326656 C9.77031974,28.8833054 9.74480177,28.9835516 9.73255314,29.033158 C9.53351299,29.017656 9.4253168,29.2109141 9.39061237,29.3824695 C9.3160999,29.4682472 9.24158743,29.5540248 9.16605425,29.638769 C8.89862594,29.9260726 8.62609403,30.2092422 8.36479004,30.5017131 L8.30558835,30.5678549 C7.78400108,30.2247442 7.19402565,29.9674112 6.75205444,29.5137197 C6.70612209,29.4207077 6.63671322,29.3514655 6.54382781,29.3090934 C6.52953775,29.1830106 6.36928491,29.0682958 6.29273101,29.2191819 L6.21923926,29.2997922 L6.20596991,29.1406385 C6.20188704,29.0300576 6.15289254,28.9432465 6.06000713,28.880205 C5.97937035,28.7613565 5.8732156,28.6011692 5.70887989,28.6373406 L5.6333467,28.6456083 C5.58231077,28.5102242 5.47921817,28.4079111 5.37510486,28.3148992 C5.00764612,27.9459519 4.64120809,27.5770045 4.25741785,27.227693 L4.30028803,27.1997895 C4.69938906,26.9527911 5.10257296,26.713027 5.5077983,26.4763633 C5.65376108,26.4381251 5.71602492,26.3502805 5.69254839,26.2128295 C5.74868792,26.198361 5.85994626,26.1683905 5.91608579,26.153922 C6.07225576,26.1260184 6.13145744,26.0381738 6.09369085,25.8893547 C6.20290776,25.8397483 6.31008322,25.788075 6.41725869,25.7364017 C6.60711238,25.6609587 6.74388869,25.5049054 6.86841637,25.348852 C7.25424805,24.9240975 7.65845267,24.5169119 8.05551226,24.1035256 C8.25557313,24.0249822 8.48013126,23.9082005 8.49850419,23.6632691 C8.51279426,23.6115958 8.53933294,23.5072157 8.55260229,23.4555424 C8.72306231,23.4565759 8.87106653,23.3315265 8.89760522,23.1599712 C8.91597816,23.1072644 8.95170331,23.0008174 8.96905553,22.9481107 C9.10583184,22.9553449 9.19463437,22.8943705 9.2344424,22.7672541 C9.30589271,22.5791634 9.38346734,22.394173 9.46002124,22.2091826 C9.59577683,22.2246845 9.68764152,22.1699108 9.73663602,22.0448615 C10.1980009,21.1281772 10.7808313,20.2766013 11.2023881,19.3392477 C11.2962942,19.1614916 11.0707154,19.0292079 10.9227112,19.0157729 C10.9084211,18.9578988 10.8808617,18.8411171 10.8665717,18.783243 C10.8359501,18.6447586 10.7461268,18.585851 10.5981226,18.6054869 C9.56821743,17.0056817 8.76899466,15.2529235 8.33825135,13.388551 C8.30456763,13.1901255 8.27598751,12.9927335 8.24638667,12.7943081 C8.23413804,12.916257 8.2208687,13.0392395 8.20759935,13.1622219 C7.97895836,14.7010527 7.14401043,16.0600603 6.34376694,17.3580935 C6.19270057,17.3446585 6.1069602,17.4087334 6.08756654,17.5503182 C6.07940079,17.603025 6.06409001,17.7105054 6.05592426,17.7642456 C5.91302364,17.7962831 5.84157332,17.8872281 5.84157332,18.0370806 C5.80788961,18.073252 5.74052217,18.146628 5.70683845,18.1838328 C5.53944058,18.359522 5.37102199,18.5341778 5.20566555,18.7129674 C4.97090024,18.9527314 4.73919709,19.1955959 4.49218316,19.4229584 C4.3094745,19.5852126 4.12778657,19.7495337 3.94916079,19.9159217 C3.86546185,19.9903312 3.78176292,20.0647408 3.69806398,20.1391503 C3.54801833,20.1505184 3.46431939,20.2311288 3.44798789,20.3820148 C2.65999303,20.9173502 1.86077026,21.4413174 1.00744939,21.8640049 C0.701233771,20.8915135 0.353168683,19.9128213 0.278656215,18.8876231 C0.306215621,18.6488925 0.352147964,18.4132622 0.399101026,18.1786655 C1.12687348,17.9182321 1.78421635,17.5048457 2.42012412,17.0687231 C2.56098331,17.0614888 2.65284799,16.9891462 2.69367674,16.8516952 C2.7294019,16.8186243 2.80289365,16.751449 2.8386188,16.7183781 C3.01928602,16.5550905 3.19484964,16.3866356 3.36735111,16.2171472 C3.57047414,16.0207886 3.77155573,15.8244301 3.97263732,15.6270381 C4.17269819,15.5526286 4.40848422,15.4389473 4.41052566,15.1878151 C4.42073284,15.1330414 4.44216794,15.0224606 4.45237512,14.9676869 C4.58711,14.9862893 4.67285037,14.9232478 4.71163768,14.7775291 C6.27537879,12.5090715 7.25731021,9.87063297 7.69111567,7.14641682 C7.8013533,6.9800288 7.8125812,6.77333562 7.73500658,6.59247908 C7.74317233,6.55217391 7.75848311,6.47156357 7.76664886,6.43022493 C7.88607295,6.31034289 7.91465308,6.13568715 7.85340995,5.9796338 C7.85545139,5.85251749 7.85851355,5.72540118 7.86259642,5.59828487 C7.98712411,5.48253669 8.01978711,5.30891442 7.96160614,5.1518276 C7.97181333,4.98337265 7.98304123,4.81595117 7.99324842,4.64852969 C8.00549704,4.49454327 8.03101501,4.18553696 8.04428436,4.03155054 C8.19433001,3.84862707 8.16472917,3.60059525 8.0412222,3.41457139 C8.04734651,3.34429571 8.05857442,3.20374434 8.06367801,3.13346866 C8.08409239,2.85649979 8.11267251,2.58366479 8.13002473,2.30772939 C8.19841288,2.26535729 8.3351892,2.17957962 8.40357735,2.13720752 L8.31987841,2.20334933 C8.35254141,2.35526882 8.41786741,2.65807434 8.45053041,2.80999383 C8.45971688,3.00428542 8.46992407,3.19857701 8.48013126,3.39390207 C8.41684669,3.54995542 8.44644754,3.72461116 8.5699545,3.84139281 C8.57199594,4.0026135 8.5750581,4.16383418 8.57709954,4.32608833 C8.51789785,4.48317515 8.55056085,4.65783089 8.67610925,4.77357907 C8.67610925,4.84695515 8.67508853,4.99267384 8.67508853,5.06604992 C8.67815069,5.14355987 8.68529572,5.29961322 8.68835788,5.37815663 C8.63732194,5.51664106 8.67610925,5.61068646 8.80165766,5.66132629 C8.7873676,5.75227129 8.75980819,5.93312783 8.74551813,6.02407283 C8.71387585,6.16565766 8.76797394,6.24833493 8.90883312,6.27313812 C8.89454306,6.36615005 8.86698366,6.55217391 8.85269359,6.64518585 C8.81900988,6.78573721 8.87106653,6.87151488 9.00784284,6.90045193 C8.99559422,6.96452681 8.97109697,7.09267659 8.95986906,7.15675147 C8.92108175,7.29730284 8.97109697,7.38411398 9.108894,7.41615142 C9.09766609,7.47919284 9.07418956,7.60734261 9.06194093,7.6714175 C9.02519506,7.81196887 9.076231,7.89671307 9.21402803,7.92771705 C9.19667581,8.01452819 9.16095065,8.18815046 9.14257772,8.2749616 C9.10685256,8.4082787 9.1527849,8.50852489 9.27935403,8.57673364 C9.61925336,10.689138 10.4205176,12.6940619 11.3861175,14.5873714 C11.4167391,14.7124208 11.4963551,14.7826965 11.6249657,14.797165 L11.6331314,14.8695076 C11.6167999,15.0586319 11.7586798,15.1981498 11.9230156,15.2591243 C12.0393775,15.3283665 12.1567601,15.3965752 12.277205,15.4606501 C12.251687,15.6404732 12.3833597,15.8027273 12.5609648,15.8233967 C12.6150629,15.8399321 12.7242798,15.8719696 12.7793986,15.888505 C14.0675456,13.0991805 14.7381578,10.065958 15.2362686,7.04307022 C15.3495683,6.88184954 15.3740656,6.67825675 15.310781,6.49326636 C15.3026153,6.41265601 15.2862838,6.2524688 15.278118,6.17289192 C15.4189772,6.15015567 15.474096,6.06644493 15.4434745,5.92382664 C15.4291844,5.8308147 15.3995836,5.64479084 15.3852935,5.55177891 C15.5230905,5.52594226 15.5751472,5.44119805 15.5424842,5.29961322 C15.5281941,5.20763476 15.5006347,5.02367782 15.4863447,4.93169936 C15.623121,4.90689617 15.6782398,4.82318543 15.6506804,4.6816006 C15.6312867,4.52554725 15.6118931,4.3694939 15.5914787,4.21344054 C15.7200892,4.16590111 15.7598973,4.07185571 15.7088613,3.93027088 C15.7507108,3.79075298 15.7496901,3.65226855 15.7047785,3.51378412 C15.7109028,3.38150048 15.7190685,3.24921684 15.7262136,3.11796667 C15.8476791,2.99911809 15.8762592,2.82446235 15.8139954,2.668409 C15.8201197,2.54232616 15.8272647,2.41624331 15.8354305,2.29016047 C15.9579167,2.13307365 15.9773104,1.925347 15.9048393,1.74139007 C15.9221916,1.57086819 15.9395438,1.39931285 15.9579167,1.22879098 C16.0324292,1.07067069 16.1069416,0.866044438 15.9722068,0.715158414 C16.1467497,0.562205459 16.1447082,0.297638184 16.0314085,0.109547387 Z" id="Shape" fill="#FEFEFD"></path>
                    <path d="M7.28486962,2.78209025 C7.52575924,2.53612536 7.83707845,2.3831724 8.13614904,2.22298519 C8.11165179,2.5257907 8.08715454,2.82962968 8.06367801,3.13346866 C8.05857442,3.20374434 8.04734651,3.34429571 8.0412222,3.41457139 C8.0248907,3.56855781 7.99324842,3.87653065 7.97793764,4.03051708 C7.83095414,4.21550747 7.8666793,4.4635393 7.99324842,4.64852969 C7.98304123,4.81595117 7.97181333,4.98337265 7.96160614,5.1518276 C7.83605773,5.26654231 7.80237402,5.44016459 7.86259642,5.59828487 C7.85851355,5.72540118 7.85545139,5.85251749 7.85340995,5.9796338 C7.72990298,6.09744891 7.70132286,6.27417158 7.76664886,6.43022493 C7.75848311,6.47156357 7.74317233,6.55217391 7.73500658,6.59247908 C7.61864464,6.7557667 7.60741674,6.96452681 7.69111567,7.14641682 C7.25731021,9.87063297 6.27537879,12.5090715 4.71163768,14.7775291 C4.56159203,14.7640941 4.47483094,14.8271355 4.45237512,14.9676869 C4.44216794,15.0224606 4.42073284,15.1330414 4.41052566,15.1878151 C4.18290538,15.2250199 4.05531554,15.4286127 3.97263732,15.6270381 C3.77155573,15.8244301 3.57047414,16.0207886 3.36735111,16.2171472 C3.18974605,16.3814682 3.01418243,16.5499232 2.8386188,16.7183781 C2.80289365,16.751449 2.7294019,16.8186243 2.69367674,16.8516952 C2.54261037,16.8465279 2.45074568,16.9188705 2.42012412,17.0687231 C1.78421635,17.5048457 1.12687348,17.9182321 0.399101026,18.1786655 C0.346023651,18.1993348 0.239868903,18.2406734 0.187812247,18.2613428 C0.231703153,18.1197579 0.208226622,17.9709388 0.178625779,17.8303875 C0.151066373,17.6412632 0.0979889986,17.2650816 0.0704295928,17.0759573 C0.0571602492,16.6088308 0.0459323431,16.1448046 0.0520566555,15.6797449 C0.0796160614,15.4906206 0.133714154,15.1113386 0.16127356,14.9222144 C0.201081591,14.7992319 0.221495966,14.6700487 0.213330216,14.5418989 C0.221495966,14.4302846 0.226599559,14.3197037 0.228640997,14.2080894 C0.292946277,14.1202448 0.320505683,14.0220656 0.308257058,13.9145851 C0.614472679,11.4508024 1.59742482,9.06659649 2.9856023,7.02756823 C3.06623908,6.9438575 3.12850292,6.84464477 3.17749742,6.73923124 C3.24486486,6.62141613 3.33775027,6.52013647 3.44390501,6.43642573 C3.54597689,6.3826855 3.59292995,6.30000823 3.58272276,6.18942738 L3.58068132,6.06334453 C3.70622973,6.06851186 3.77053501,6.00650391 3.77359717,5.88042107 C3.88485551,5.90419078 3.97059588,5.86285215 4.03081829,5.75433823 C4.12676585,5.6489247 4.20638191,5.53007612 4.26762503,5.40192635 L4.31049522,5.3275168 C4.74021781,4.84178782 5.18014758,4.3601927 5.67519617,3.94060554 L5.7313357,3.90030037 C5.84667692,3.82795776 5.94976951,3.73907969 6.04673779,3.64296736 C6.09164941,3.60782952 6.18147266,3.5385873 6.22740501,3.50344946 C6.25496441,3.48381361 6.31212466,3.44557537 6.34070479,3.42593951 C6.43563163,3.39286861 6.5101441,3.33189412 6.56322147,3.24508298 C6.61834028,3.20787821 6.72959862,3.13243519 6.78471744,3.09523042 C6.8969965,3.04665752 6.93680453,2.96708065 6.90516225,2.85443286 L7.02560706,2.88233644 C7.13278252,2.91334042 7.2185229,2.88026951 7.28486962,2.78209025 Z" id="Shape" fill="#FEC428"></path>
                    <path d="M8.20759935,13.1622219 C8.24026235,13.2190625 8.30558835,13.3317103 8.33825135,13.388551 C8.76899466,15.2529235 9.56821743,17.0056817 10.5981226,18.6054869 C10.6420135,18.7491387 10.7318368,18.8090797 10.8665717,18.783243 C10.8808617,18.8411171 10.9084211,18.9578988 10.9227112,19.0157729 C10.9370013,19.1707928 11.0441767,19.3123776 11.2023881,19.3392477 C10.7808313,20.2766013 10.1980009,21.1281772 9.73663602,22.0448615 C9.5937354,22.0004224 9.50187071,22.0551961 9.46002124,22.2091826 C9.38346734,22.394173 9.30589271,22.5791634 9.2344424,22.7672541 C9.08950034,22.7310828 9.00171853,22.7920573 8.96905553,22.9481107 C8.95170331,23.0008174 8.91597816,23.1072644 8.89760522,23.1599712 C8.72714519,23.1548039 8.56689235,23.2767528 8.55260229,23.4555424 C8.53933294,23.5072157 8.51279426,23.6115958 8.49850419,23.6632691 C8.2647596,23.6911727 8.13512832,23.8999328 8.05551226,24.1035256 C7.65845267,24.5169119 7.25424805,24.9240975 6.86841637,25.348852 C6.62548531,25.3013126 6.41011366,25.4852695 6.41725869,25.7364017 C6.31008322,25.788075 6.20290776,25.8397483 6.09369085,25.8893547 C5.96916317,25.9306933 5.90996148,26.0185379 5.91608579,26.153922 C5.85994626,26.1683905 5.74868792,26.198361 5.69254839,26.2128295 C5.5567928,26.2407331 5.49554967,26.3285777 5.5077983,26.4763633 C5.10257296,26.713027 4.69938906,26.9527911 4.30028803,27.1997895 C4.22679628,27.0881751 4.13289016,26.9930963 4.03796332,26.9021513 C3.96753373,26.7988047 3.87668976,26.7615999 3.7644107,26.7915704 C3.75114135,26.7336963 3.72256123,26.6179482 3.70827117,26.5600741 C3.67867032,26.4515601 3.61130289,26.3771506 3.50718958,26.3368454 C3.46431939,26.2428 3.39695195,26.1725243 3.30508727,26.1270518 C2.28640997,24.878625 1.4984151,23.4090365 1.00744939,21.8640049 C1.86077026,21.4413174 2.65999303,20.9173502 3.44798789,20.3820148 C3.58884707,20.3613455 3.67254601,20.2807352 3.69806398,20.1391503 C3.78176292,20.0647408 3.86546185,19.9903312 3.94916079,19.9159217 C4.13289016,19.754701 4.3145781,19.5914134 4.49218316,19.4229584 C4.73919709,19.1955959 4.97090024,18.9527314 5.20566555,18.7129674 C5.37612558,18.5403785 5.54454417,18.3646893 5.70683845,18.1838328 C5.74052217,18.146628 5.80788961,18.073252 5.84157332,18.0370806 C5.98345323,18.0009093 6.05388282,17.9099643 6.05592426,17.7642456 C6.06409001,17.7105054 6.07940079,17.603025 6.08756654,17.5503182 C6.22128069,17.5658202 6.30702107,17.5017453 6.34376694,17.3580935 C7.14401043,16.0600603 7.97895836,14.7010527 8.20759935,13.1622219 Z" id="Shape" fill="#FEC428"></path>
                    <path d="M16.0997966,13.6221143 C16.1314389,13.4825964 16.1641019,13.3430785 16.1967649,13.204594 C16.2151378,13.3771828 16.2335108,13.5508051 16.2518837,13.7254608 C16.1753298,13.8742799 16.1875784,14.0499691 16.2967953,14.1812193 C16.6734405,16.5829941 17.3573221,18.9279283 18.2871969,21.1684824 C19.2160509,23.4741448 20.3316965,25.7074647 21.7229361,27.7640619 C21.7311019,27.9077136 21.8056143,27.9945248 21.9444321,28.0244953 L21.9525978,28.0937375 C21.9515771,28.2425566 22.0250689,28.3283342 22.1730731,28.3510705 C22.1832803,28.3996434 22.2026739,28.4967892 22.2128811,28.5453621 C22.2353369,28.6797127 22.3190359,28.7458545 22.4629572,28.7417206 C22.478268,28.78926 22.5078688,28.8853724 22.5231796,28.9329118 C22.5456354,29.1179022 22.7109919,29.215048 22.8661411,29.2811898 C22.9365707,29.3649006 23.008021,29.4486113 23.0815128,29.532322 C23.367314,29.8743993 23.6837368,30.1906398 23.9889317,30.5161816 L24.0522163,30.5854238 C22.4803094,31.4411336 20.7808127,32.156292 18.9976171,32.3505836 C18.9373947,32.3495501 18.8169499,32.3485167 18.7567275,32.3474832 C18.6464899,32.3350816 18.5454387,32.3609183 18.4545947,32.4260266 C18.3902895,32.4280935 18.2626996,32.4332609 18.1983943,32.4353278 C18.0708045,32.429127 17.9442354,32.4528967 17.8248113,32.4983692 C17.6125018,32.5583102 17.3950887,32.6089501 17.1746134,32.6161843 C16.4754211,32.6058497 15.7782702,32.6027493 15.0800986,32.5831134 C14.8943278,32.5707118 14.7105984,32.5407413 14.5319726,32.4942354 C14.4105071,32.4518633 14.2849587,32.429127 14.1573689,32.4353278 C14.0930636,32.4332609 13.9654737,32.429127 13.9021892,32.4270601 C13.8103245,32.3619517 13.7092733,32.3361151 13.6000564,32.3474832 C13.539834,32.3485167 13.4193892,32.3485167 13.3591668,32.3485167 C11.5749505,32.1500912 9.86524658,31.4463009 8.30558835,30.5678549 L8.36479004,30.5017131 C8.63323907,30.215443 8.90270881,29.9302064 9.16605425,29.638769 C9.24158743,29.5540248 9.3160999,29.4682472 9.39061237,29.3824695 C9.54372018,29.3173611 9.7192838,29.2233157 9.73255314,29.033158 C9.74480177,28.9835516 9.77031974,28.8833054 9.78256836,28.8326656 C9.94894552,28.8285318 10.1173641,28.6962481 10.0908254,28.5133246 L10.0928669,28.4234131 C10.2276017,28.4203127 10.3031349,28.3448697 10.3184457,28.1960506 C10.4164347,28.0420642 10.513403,27.8880778 10.611392,27.7340913 C10.7553133,27.7061878 10.8308465,27.6173097 10.8359501,27.4684906 C11.8964769,25.7457029 12.8784083,23.9722754 13.6572167,22.0996352 C14.6912048,19.7298978 15.5598364,17.2599143 15.9507717,14.6927849 C16.0589679,14.5956391 16.0834651,14.479891 16.0252841,14.3445069 C16.0273256,14.2773316 16.0314085,14.1429811 16.0334499,14.0758058 C16.152874,13.9528233 16.1732884,13.7750672 16.0997966,13.6221143 Z" id="Shape" fill="#FEC428"></path>
                    <path d="M24.1736818,2.22711905 C24.5248091,2.39144013 24.9055371,2.54232616 25.170924,2.83893087 C25.2199185,2.93297627 25.2954517,2.99188383 25.3985443,3.01462008 C25.450601,3.0352894 25.5526728,3.07662803 25.6047295,3.09729735 C25.6547447,3.1293348 25.7547751,3.19340968 25.8047904,3.22648059 C25.849702,3.31845906 25.9191109,3.38460088 26.0140377,3.42490605 C26.0681358,3.46831162 26.1753113,3.55512275 26.2294093,3.59852832 C26.2977975,3.69567412 26.3845586,3.7266781 26.4896926,3.69257372 C26.4539675,3.80212111 26.4856098,3.89306611 26.5856402,3.96540872 C26.7101679,4.10285969 26.8489856,4.22894253 27.000052,4.33848992 C27.3317856,4.60719106 27.6696435,4.87382526 27.972797,5.17663078 C27.9972942,5.23140447 28.0462887,5.34198532 28.0697652,5.39675902 C28.0891589,5.50113908 28.1442777,5.58071595 28.2361424,5.63445618 C28.3280071,5.73056851 28.4259961,5.82048004 28.5290887,5.90625771 C28.567876,5.96826567 28.6464713,6.09434851 28.6852586,6.15738993 C28.7281288,6.27520505 28.8077449,6.31757715 28.9220654,6.28450624 C28.9292104,6.34238033 28.9435005,6.45709505 28.9516662,6.51496914 C28.9690184,6.62348306 29.0282201,6.70202647 29.1282506,6.75059937 C30.6807638,8.7720587 31.6647366,11.2689124 32.0393404,13.7978035 C32.0403611,13.9404218 32.0607755,14.08304 32.0944592,14.2225579 C32.1250808,14.3899794 32.1434537,14.5584344 32.149578,14.7299897 C32.142433,14.8550391 32.1669302,14.979055 32.2108211,15.0968701 L32.2434841,15.2467227 C32.2455256,15.3087306 32.2496085,15.4327465 32.2526706,15.4947545 C32.2485877,15.600168 32.2496085,15.706615 32.2567535,15.813062 C32.2628778,16.1789089 32.2812507,16.5509567 32.273085,16.9188705 C32.2598156,17.0842251 32.247567,17.2495796 32.2414427,17.4159676 C32.2312355,17.4996784 32.2108211,17.6670998 32.200614,17.7497771 C32.1791789,17.8903285 32.1363087,18.1724647 32.1148736,18.313016 C31.3697489,17.9130647 30.6246242,17.51208 29.9009346,17.0728569 C29.9223697,16.9219709 29.8641888,16.8310259 29.7284332,16.8020889 C29.6773972,16.7907208 29.5753254,16.766951 29.5242894,16.7555829 C29.5406209,16.5509567 29.3395393,16.4507105 29.1721415,16.4197065 C28.836325,16.0931313 28.5056121,15.7634556 28.1769407,15.4306796 C28.1381534,15.2694589 28.059558,15.0731004 27.8686836,15.0648327 L27.8707251,14.9873227 C27.874808,14.843671 27.8002955,14.768228 27.6482084,14.7599602 C26.1518347,12.7043965 25.2576851,10.2561158 24.7799887,7.76442943 C24.8402112,7.625945 24.8136725,7.50916335 24.699352,7.41511795 C24.6962898,7.36964545 24.6911862,7.27766699 24.6891448,7.23219449 C24.7309942,7.05547181 24.7616158,6.83327664 24.5993215,6.70822727 C24.5993215,6.63795158 24.5983008,6.49636675 24.5972801,6.42609107 C24.641171,6.29690783 24.6105494,6.19046084 24.503374,6.10468317 C24.4992911,5.96929914 24.4972497,5.83598203 24.4952082,5.70163146 C24.5533892,5.54351118 24.5227676,5.3698889 24.3992607,5.25414072 C24.3951778,5.10118777 24.3900742,4.94720134 24.387012,4.79424839 C24.3676184,4.61959265 24.3278103,4.2723481 24.3084167,4.09769236 C24.2931059,3.84242628 24.2777951,3.58819366 24.2645258,3.33499451 C24.2430907,2.96501372 24.2043034,2.59399945 24.1736818,2.22711905 Z" id="Shape" fill="#FEC429"></path>
                    <path d="M23.9532066,13.2087279 C24.0144497,13.2262968 24.1379567,13.2593677 24.1991998,13.2759032 C24.3114788,14.6132081 25.0535414,15.7851584 25.7149671,16.9106028 C25.7180293,17.0521876 25.7874381,17.1431326 25.9211523,17.1834378 L25.922173,17.2599143 C25.9201316,17.3994322 25.9926026,17.4759087 26.1416275,17.4872768 C26.1569383,17.5441174 26.1875599,17.6588321 26.2018499,17.7156727 C26.2365544,17.860358 26.3222948,17.9058305 26.4611125,17.8520902 C26.5090863,17.9657715 26.5580808,18.0784193 26.608096,18.1921005 C26.6683184,18.4122288 26.8714414,18.52591 27.058233,18.6240893 C27.4450854,19.0374757 27.8452071,19.437427 28.2494117,19.8342779 C28.306572,19.9882643 28.3933331,20.1835894 28.5872696,20.1825559 C28.640347,20.1908236 28.7485432,20.2083925 28.8026413,20.2166603 C28.7852891,20.3530778 28.8485736,20.4388554 28.992495,20.4770937 C29.7784484,20.9886593 30.581754,21.4764552 31.3289202,22.0479619 C30.7787528,23.3129242 30.2541033,24.6460952 29.3640366,25.7105651 C29.2762548,25.7663722 29.221136,25.8449156 29.195618,25.9461953 C29.1660172,25.9937347 29.104774,26.0898471 29.0741525,26.1373865 C28.9792256,26.1756247 28.908796,26.2417666 28.8638844,26.3347785 C28.763854,26.3719833 28.6954658,26.4412255 28.6597407,26.5425051 C28.6311605,26.591078 28.5740003,26.6892573 28.5454202,26.7378302 C28.4300789,26.8236079 28.3218828,26.9176533 28.2249145,27.0241003 C28.1942929,27.0819744 28.1320291,27.1977225 28.1003868,27.2555966 C27.7145551,27.0230668 27.3328063,26.7822692 26.9245188,26.5941784 C26.9582025,26.4453593 26.8969594,26.3575147 26.7418102,26.3285777 C26.6887328,26.3120422 26.582578,26.2789713 26.5295007,26.2624359 C26.5315421,26.0908805 26.4131387,25.9306933 26.2396165,25.9182917 C26.1896013,25.9058901 26.0905916,25.881087 26.0405764,25.8686854 C26.0477214,25.6619922 25.8425569,25.5648464 25.668014,25.5534783 C25.6322889,25.5193739 25.5587971,25.4521986 25.5220513,25.4180942 C25.2801409,25.1793636 25.0412927,24.940633 24.8095896,24.6936346 C24.6299431,24.4962426 24.4574416,24.2936833 24.281878,24.0962913 C24.1226459,23.9102675 23.9562687,23.7304444 23.7898916,23.5516548 C23.7582493,23.5165169 23.693944,23.4441743 23.6623017,23.4090365 C23.6235144,23.2488493 23.5592091,23.0504238 23.3713969,23.0276876 L23.3795626,22.9512111 C23.3938527,22.8096263 23.3264853,22.7279824 23.1764396,22.7052462 C23.1499009,22.6711418 23.0968235,22.6008661 23.0702849,22.5657283 C23.0580362,22.4179427 22.9804616,22.3311315 22.8396024,22.3042614 C22.2537099,21.3400377 21.5973877,20.4109519 21.1594994,19.3630174 C21.3228144,19.3351138 21.4116169,19.1790605 21.4422385,19.0281745 C21.4595907,18.9734008 21.4953159,18.8638534 21.5126681,18.8080462 C21.6463822,18.8173474 21.7362055,18.7594733 21.7821378,18.6344239 C22.6875153,16.9147367 23.7633529,15.1960828 23.9532066,13.2087279 Z" id="Shape" fill="#FEC429"></path>
                </g>
                <g id="Group-34" transform="translate(35.899497, 3.347826)">
                    <path d="M0.06385821,11.1737767 C0.217746027,7.47780259 -0.0544365069,3.77016921 0.211464892,0.0784347826 C0.254385984,0.118712103 0.340228168,0.198206816 0.38314926,0.238484136 C0.432351487,0.33599765 0.508771968,0.401713278 0.613457558,0.436690952 L0.699299742,0.487567568 C0.803985332,0.580841363 0.915998913,0.668815511 1.0374342,0.741950646 L1.11594839,0.79706698 C1.22168084,0.882921269 1.33578813,0.960296122 1.45617656,1.02813161 L1.51480049,1.067349 C1.72835909,1.232698 1.93354285,1.40970623 2.14710145,1.57611516 L2.14082032,1.71178613 C2.0748684,3.18296827 2.08114953,4.6573302 2.13663289,6.12957227 C2.26644303,6.00450059 2.3952063,5.87836898 2.52292272,5.75011751 C2.84849491,5.42683901 3.16987967,5.10038073 3.5038267,4.7866416 L3.54988836,4.74424442 C3.92256906,4.41566627 4.28373435,4.07224912 4.64385278,3.72883196 L4.69514872,3.68749471 C4.9233633,3.52214571 5.15785902,3.36103643 5.41329186,3.24126439 C6.21937091,3.2486839 7.02544995,3.27942186 7.83257585,3.30486016 C7.63157952,3.46702938 7.43686432,3.63873796 7.24843026,3.81680611 C6.90296781,4.1146463 6.56588021,4.42096592 6.262292,4.76226322 C6.06967051,4.9519906 5.87390846,5.13747826 5.67919326,5.32296592 C5.419573,5.55191069 5.15681217,5.77555582 4.91080103,6.0193396 C4.58313514,6.34049824 4.26175037,6.66695652 3.95397474,7.00719389 C3.8859291,7.07820917 3.81893033,7.15028437 3.75193155,7.22129965 C3.99794269,7.47038308 4.25023496,7.71734665 4.50776151,7.95583079 C4.88148907,8.31620682 5.26359147,8.66704348 5.66558414,8.99668155 C5.70850523,9.03271915 5.79330056,9.10479436 5.83622165,9.14083196 C6.05606139,9.34115864 6.27590113,9.5446651 6.48945973,9.75559107 C6.84329703,10.1382256 7.20027489,10.5187403 7.5750493,10.8833561 C6.85899986,10.9564912 6.14504414,11.0423455 5.42690099,11.0487051 C5.2604509,10.9776898 5.09714138,10.9045546 4.93069129,10.8367192 L4.85008339,10.7964418 C4.80925601,10.6978684 4.74330409,10.6247333 4.65118077,10.5770364 C4.3559674,10.297215 4.07541002,10.0046745 3.76240011,9.74711163 C3.62526199,9.63157932 3.48917072,9.51392714 3.36668858,9.38355582 C3.27770583,9.28180259 3.18139508,9.18746886 3.07880321,9.10373443 C2.8464012,8.89386839 2.62237403,8.67446298 2.38159718,8.4773161 C2.33134809,8.49851469 2.23084993,8.5419718 2.1816477,8.56317039 C2.1198832,9.3432785 2.11569578,10.1276263 2.12407062,10.9109142 C1.58179927,10.9776898 1.04162162,11.0434054 0.502490833,11.1154806 C0.35488415,11.1324395 0.208324324,11.1525781 0.06385821,11.1737767 Z" id="Shape" fill="#776764"></path>
                    <path d="M56.0078376,0.110232667 C56.5909363,0.092213866 57.1750819,0.0720752056 57.7623681,0.0476968273 C57.82832,0.0466368978 57.9602238,0.0445170388 58.0261757,0.0434571093 L58.0230352,0.213045828 C58.0125666,0.779048179 57.9947701,1.34611046 58.0062855,1.91317274 C57.3499068,1.91741246 56.6977156,1.92377203 56.0465712,1.93543126 C56.0381964,1.32703173 56.0287747,0.717572268 56.0078376,0.110232667 Z" id="Shape" fill="#776764"></path>
                    <path d="M27.5501067,3.09711398 C27.6610735,3.08545476 27.7720402,3.07379553 27.8851006,3.06319624 C28.042129,3.06849589 28.2002043,3.07061575 28.3593264,3.06849589 C28.5351982,3.08227497 28.7121168,3.0939342 28.8911292,3.10665335 C29.2397322,3.16282961 29.589382,3.2486839 29.9086731,3.40767333 C30.1232786,3.62495887 30.330556,3.85178378 30.5305055,4.08496827 C30.701143,4.34253114 30.7964069,4.6467309 30.8602651,4.94987074 C30.8665462,5.07494242 30.8738742,5.2000141 30.8864365,5.32508578 C30.9063268,7.1873819 30.8696868,9.04967803 30.8916708,10.9130341 C30.8634057,10.9458919 30.8058286,11.0105476 30.7765166,11.0434054 C30.1829493,11.0317462 29.5904289,11.0222068 28.9989553,11.0137274 C28.9958147,9.32631962 29.0827038,7.62831257 28.862864,5.95150411 L28.8503018,5.88154877 C28.8105213,5.71196005 28.753991,5.54661105 28.7100231,5.37914219 C28.6880391,5.26254994 28.6189466,5.19789424 28.5016988,5.18729495 C28.2619688,5.12899882 28.0316605,5.03890482 27.8076333,4.94033137 C27.6956197,4.93927145 27.4705457,4.93715159 27.3574853,4.93503173 C27.0884433,5.03678496 26.8141671,5.11945946 26.5409377,5.20319389 C26.3462225,5.23181199 26.2373494,5.41094007 26.1860535,5.58476851 L26.1577884,5.65896357 L26.0970708,5.7999342 C26.0237908,5.90698707 25.9693543,6.02463925 25.9410892,6.15183079 C25.8824653,6.29280141 25.8458253,6.4433114 25.8604813,6.5980611 C25.8542002,8.04698472 25.8437316,9.4980282 25.9013087,10.9469518 C25.3883493,10.9999483 24.8764368,11.0561246 24.3655711,11.1017015 C24.1876056,11.1123008 24.0106869,11.12396 23.8348152,11.1377391 C23.8976265,8.52289307 23.8536586,5.90698707 23.8704083,3.29320094 C24.4273356,3.2847215 24.9842629,3.277302 25.543284,3.26988249 C25.6395947,3.32499882 25.7432335,3.36209636 25.8521065,3.38329495 L25.8374505,3.54546416 C25.753702,3.74897062 25.9306207,3.91219976 26.1012582,3.75003055 L26.1860535,3.70975323 C26.3179574,3.65675676 26.4331115,3.5719624 26.5430314,3.47974853 L26.625733,3.42251234 C26.7157626,3.38329495 26.8057922,3.34089777 26.8958218,3.29638073 C27.1030993,3.19886722 27.3239859,3.13315159 27.5501067,3.09711398 Z" id="Shape" fill="#776764"></path>
                    <path d="M55.9816662,3.2847215 C56.5752335,3.29320094 57.1698476,3.28790129 57.7676023,3.28790129 C57.82832,3.30168038 57.9497553,3.32923854 58.0104729,3.3419577 L58.0104729,3.46490952 C58.009426,5.96316334 57.937193,8.46353702 58.0523471,10.959671 C57.7801646,11.0179671 57.4954198,11.0783831 57.2316121,11.1377391 C56.818104,11.1589377 56.4066897,11.1780165 55.9984159,11.1949753 C55.9931816,8.55787074 56.0507587,5.91970623 55.9816662,3.2847215 Z" id="Shape" fill="#776764"></path>
                    <path d="M12.677425,3.11089307 C12.8124694,3.10453349 12.9485606,3.09711398 13.0846519,3.08439483 C13.1485101,3.06955582 13.2762265,3.03987779 13.3400847,3.02397885 C13.3756778,3.67053584 13.4102241,4.31709283 13.4489578,4.96364982 C13.2050403,5.00392714 12.9621698,5.04102468 12.7213929,5.07388249 L12.6418319,5.07706228 C12.5340057,5.06010341 12.4397887,5.0887215 12.3591808,5.16079671 C12.197965,5.26996945 12.0199995,5.34840423 11.8409871,5.41729965 C11.7813163,5.43849824 11.6640685,5.48301528 11.6043977,5.50421387 C11.427479,5.53389189 11.2934815,5.69712103 11.3280277,5.88154877 L11.2662632,5.90380729 C11.1542496,5.93348531 11.093532,6.00662045 11.0820166,6.12427262 C11.0411892,6.29916099 10.991987,6.47192949 10.955347,6.64787779 C10.9323162,6.75917039 10.9145196,6.87046298 10.9019574,6.98387544 C10.7491164,8.26956992 10.7711004,9.56692362 10.8297243,10.8589777 C10.8307712,10.9151539 10.831818,11.0275065 10.8328649,11.0836827 C10.6873519,11.0932221 10.5418389,11.1006416 10.3984197,11.1048813 C10.3628266,11.1038214 10.2926872,11.1027615 10.2570941,11.1027615 C9.8634763,11.0995817 9.47299905,11.095342 9.0825218,11.1080611 C9.03541328,11.110181 8.93910254,11.1154806 8.89199402,11.1186604 C8.90874372,8.50169448 8.90979057,5.88472855 8.89618145,3.26776263 C9.46253049,3.27836193 10.0341138,3.28048179 10.6036034,3.25716334 C10.6528056,3.25610341 10.7533038,3.25292362 10.8035529,3.25080376 C10.8077403,3.30592009 10.817162,3.41615276 10.8223963,3.4712691 C10.8360054,3.65887662 10.8642705,4.03409166 10.8789265,4.22275911 C11.0212989,4.04787074 11.1594839,3.87086251 11.2987157,3.69385429 C11.3227934,3.66311633 11.3730425,3.60164042 11.3971202,3.57090247 C11.5112275,3.59210106 11.6075382,3.56030317 11.6860524,3.47550881 C11.9603287,3.23914454 12.3288219,3.15647004 12.677425,3.11089307 Z" id="Shape" fill="#776764"></path>
                    <path d="M54.0533576,3.11619271 C54.2438854,3.10665335 54.4344131,3.10771328 54.6280815,3.11089307 C54.6730963,3.10453349 54.7610322,3.09181434 54.806047,3.08651469 C54.769407,3.71505288 54.7673133,4.34783079 54.7966253,4.97848884 C54.6207535,4.97636898 54.4490691,5.00710693 54.2815722,5.04738425 L54.1528089,5.07388249 C54.0952318,5.0887215 53.9811245,5.1173396 53.9235475,5.13217861 C53.8167682,5.16291657 53.7110357,5.19153467 53.6053033,5.21909283 C53.2284351,5.2826886 52.9175189,5.51905288 52.7039603,5.83279201 L52.6505707,5.89956757 C52.5427445,6.01509988 52.4694646,6.16031022 52.4527149,6.31929965 C52.4338715,6.41045358 52.394091,6.59276146 52.3742007,6.68391539 C52.3438419,6.77718919 52.3291859,6.87364277 52.3291859,6.97221622 C52.2590466,8.26109048 52.2370626,9.55102468 52.2046101,10.8420188 L52.1993758,10.9575511 L52.1240022,10.9321128 C51.9931452,10.854738 51.8172734,10.9872291 51.8601945,11.1366792 L51.754462,11.1292597 C51.3461882,11.1080611 50.9441956,11.094282 50.5411561,11.0900423 C50.4291425,11.0889824 50.3181757,11.0900423 50.2082559,11.094282 C50.2679267,8.47095652 50.2689735,5.84657109 50.2260524,3.22324559 C50.8342757,3.24232432 51.4445927,3.2486839 52.0570034,3.24550411 C52.1082993,3.24550411 52.2098444,3.24550411 52.2600934,3.24550411 L52.2611403,3.36633608 C52.263234,3.56878261 52.2663746,3.97261575 52.2674214,4.17506228 C52.3030145,4.13690482 52.3731539,4.05952996 52.4077001,4.0213725 C52.5825251,3.83058519 52.7583968,3.63873796 52.9436903,3.45749001 C53.2922934,3.2953208 53.6712552,3.18296827 54.0533576,3.11619271 Z" id="Shape" fill="#776764"></path>
                    <path d="M14.5251256,3.22642538 C15.1186929,3.24550411 15.7154008,3.26352291 16.3121087,3.28684136 C16.3728263,3.30062045 16.4942616,3.32711868 16.5549792,3.33983784 L16.5539324,3.46384959 C16.5403232,5.10886016 16.483793,6.75917039 16.621978,8.40100118 C16.6837425,8.63842538 16.8208806,8.8440517 16.9360348,9.05709753 C16.9820964,9.1567309 17.0616575,9.21502703 17.1747179,9.2319859 L17.2867315,9.27544301 C17.3715268,9.34433843 17.4699313,9.37613631 17.580898,9.3687168 L17.7232704,9.3793161 C17.9200793,9.39521504 18.1639967,9.47364982 18.3681336,9.38673561 C18.6089105,9.30724089 18.8465468,9.21608696 19.0873236,9.1312926 C19.1407133,9.10903408 19.2464457,9.06557697 19.2998354,9.04331845 C19.4087084,9.01364042 19.4788478,8.94474501 19.5081597,8.8366322 C19.614939,8.55257109 19.760452,8.28228907 19.8211696,7.98338895 C19.9614483,6.42211281 19.8797936,4.85023737 19.8923558,3.2847215 C20.4922043,3.27624207 21.0941464,3.26564277 21.6971354,3.25610341 C21.7494782,3.25504348 21.8531169,3.25398355 21.9054597,3.25398355 C21.9044129,3.30909988 21.9023192,3.41933255 21.9023192,3.47444888 C21.8740541,5.97376263 21.8541638,8.47413631 21.9012723,10.9723901 L21.9065066,11.0582444 L21.910694,11.1409189 L21.8206644,11.1345593 C21.184176,11.0900423 20.5497813,11.0434054 19.913293,11.0518848 C19.9185272,10.899255 19.9195741,10.7445053 19.8860747,10.5961152 C19.869325,10.358691 19.6086579,10.4583243 19.5489871,10.614134 C19.5018786,10.6628907 19.4066147,10.7614642 19.3584593,10.8102209 C19.2495863,10.8579177 19.1480413,10.9193937 19.0569648,10.9957086 C18.8434062,11.139859 18.5963482,11.2384324 18.3398685,11.2628108 C17.8007377,11.2712902 17.2657944,11.2850693 16.7287573,11.2638707 C16.3613109,11.2469119 15.989677,11.1356193 15.7059791,10.8928954 C15.685042,10.7540447 15.6054809,10.6946886 15.4652022,10.7158872 L15.408672,10.7084677 C15.1731294,10.4678637 14.9564303,10.208181 14.7606682,9.93471915 C14.6078272,9.65913749 14.5418753,9.34221857 14.5303599,9.02953937 C14.5355942,7.09516804 14.5816558,5.16079671 14.5251256,3.22642538 Z" id="Shape" fill="#776764"></path>
                    <path d="M35.5941475,3.07273561 C35.8024718,3.07061575 36.011843,3.06955582 36.222261,3.06955582 C36.3803363,3.08545476 36.5415521,3.10029377 36.7027679,3.111953 C36.8660774,3.17978848 37.0304338,3.24444418 37.2000244,3.29956052 C37.2712106,3.32923854 37.4114893,3.39071445 37.4826755,3.42145241 C37.5779394,3.48504818 37.682625,3.51366627 37.7977792,3.50942656 C37.798826,3.64933725 37.937011,3.84966392 38.089852,3.75109048 C38.2311775,3.6726557 38.2311775,3.47656874 38.2405992,3.33241833 C38.8823219,3.30168038 39.5271851,3.26564277 40.1720483,3.20734665 C40.2097352,5.92924559 40.1772826,8.65114454 40.2463751,11.3719835 C40.2421877,11.5108343 40.2359066,11.6496851 40.2275317,11.7885358 C40.1636735,12.0376193 40.0432851,12.2739835 39.8820693,12.4721904 C39.629777,12.7308132 39.3732973,12.9851962 39.1189113,13.2395793 C38.9985229,13.3466322 38.8456819,13.4049283 38.6970284,13.4526251 C38.5598903,13.485483 38.4332207,13.5458989 38.3212071,13.6296334 C38.1453353,13.7430458 37.9548076,13.8363196 37.7517175,13.8797767 C37.7098433,13.7324465 37.537112,13.7377462 37.4669727,13.8564583 L37.3507717,13.8829565 C37.2450393,13.8776569 37.1414005,13.8787168 37.0398555,13.8850764 C36.5844732,13.9009753 36.1311846,13.9158143 35.6810365,13.9306533 C35.5669292,13.8670576 35.4674779,13.8765969 35.3816357,13.9603314 L35.2727627,14.0578449 C35.2444976,14.0133278 35.1858737,13.9253537 35.1576086,13.8808367 C35.1000315,13.7812033 35.0131425,13.740926 34.8979883,13.7578848 C34.5556664,13.739866 34.2259068,13.6105546 33.9306935,13.4483854 C33.8898661,13.3487521 33.8239142,13.2766769 33.730744,13.23004 C33.4732174,12.989436 33.2198783,12.7498919 32.9738672,12.4986886 C32.7592617,12.2845828 32.6681853,11.9772033 32.6765601,11.6772432 C32.6723727,11.5394524 32.6671384,11.4016616 32.6399201,11.2670505 C33.3360793,11.380463 34.2468439,10.9469518 34.8288958,11.4917556 L34.8822855,11.590329 C34.9534717,11.7471986 35.0476887,11.9231469 35.2350759,11.9570646 C35.430838,12.0217203 35.6286937,12.0800165 35.8255026,12.1499718 C35.9364694,12.2029683 36.0599984,12.2209871 36.1835274,12.207208 C36.2829787,12.2093278 36.4808344,12.2125076 36.5802858,12.2146275 C36.6399565,12.207208 36.7582513,12.191309 36.817922,12.1838895 C37.0429961,12.102275 37.2670232,12.0185405 37.486863,11.922087 C37.6554068,11.8531915 37.7956855,11.7312996 37.9401516,11.6221269 C38.0479777,11.5701904 38.1003205,11.4864559 38.09718,11.3719835 L38.0982268,11.2797697 C38.1024142,10.8865358 38.1128828,10.4943619 38.1160234,10.1032479 C38.1097422,10.0629706 38.09718,9.98347591 38.0908988,9.94319859 C38.0427434,9.98029612 37.9464327,10.0534313 37.8982773,10.0905288 C37.6198137,10.4519647 37.1539628,10.6332127 36.7100959,10.6363925 C36.5760983,10.5727967 36.4222105,10.5738566 36.3049627,10.6692503 L36.164684,10.6925687 C35.9846247,10.6862092 35.8066592,10.6809095 35.6297406,10.6777297 C35.5051647,10.6713702 35.256013,10.6575911 35.1314372,10.6501716 C34.6195247,10.6194336 34.115987,10.4053278 33.7171349,10.0852291 C33.5339351,9.88702233 33.3622507,9.67821622 33.1916132,9.47047004 C33.1288018,9.36023737 33.0440065,9.32843948 32.9372272,9.37401645 L32.9382741,9.24894477 C32.9592112,9.12175323 32.8827907,9.01152056 32.8042765,8.92354642 C32.5718745,8.6426651 32.4483455,8.283349 32.4462518,7.91873325 C32.4514861,7.79260165 32.4169398,7.67070975 32.3666908,7.5572973 C32.3468005,7.11000705 32.3394725,6.66377673 32.3436599,6.21754642 C32.4075181,6.10943361 32.4504392,5.98860165 32.4514861,5.86141011 C32.4912666,5.48725499 32.5823431,5.09720094 32.8304479,4.80572033 C32.9204775,4.74742421 32.9791015,4.66580964 33.0052729,4.56087662 L33.0513345,4.48032197 C33.1685824,4.39340776 33.2648931,4.28105523 33.3287513,4.14750411 C33.3538759,4.10616686 33.4041249,4.02455229 33.4292495,3.98321504 C33.5433568,3.92597885 33.6459487,3.84542421 33.7296971,3.74579083 C33.7768056,3.70975323 33.8720695,3.63979788 33.9191781,3.60482021 C34.2112508,3.37693537 34.5713693,3.25080376 34.9335814,3.19568743 C35.0424544,3.19886722 35.1408589,3.1660094 35.2277479,3.09711398 C35.3491832,3.09287427 35.4706185,3.08439483 35.5941475,3.07273561 Z" id="Shape" fill="#766764"></path>
                    <path d="M44.337488,3.12361222 C44.5541872,3.10559342 44.9886324,3.06955582 45.2063784,3.05153702 C45.3885313,3.05789659 45.5727779,3.06425617 45.7580714,3.06425617 C45.9475524,3.07697532 46.1380801,3.08545476 46.3296548,3.09499412 C46.4134032,3.16494947 46.5107608,3.19780729 46.6217276,3.1946275 C46.7609594,3.21158637 46.8980975,3.24126439 47.0352356,3.28366157 C47.1462024,3.32075911 47.2613565,3.35467685 47.3775575,3.38647474 C47.4948054,3.42145241 47.606819,3.47020917 47.7135983,3.53274501 C47.7701285,3.62071915 47.8507364,3.67795535 47.9543751,3.70445358 C48.0580139,3.75109048 48.1532777,3.81574618 48.2380731,3.89736075 C48.3343838,3.99805405 48.4317414,4.10722679 48.5688795,4.15704348 C48.5877229,4.30649354 48.6275035,4.45276381 48.6840337,4.59479436 C48.499787,4.78134195 48.326009,4.97742891 48.1574652,5.17775558 C47.9774059,5.38020212 47.7942062,5.58052879 47.6078658,5.77661575 L47.5220236,5.7352785 L47.4508374,5.6960611 C47.4225723,5.64624442 47.3660421,5.54555112 47.337777,5.49573443 C47.1765612,5.29222797 47.0048768,5.09720094 46.8206302,4.91701293 C46.7243194,4.82161927 46.6489458,4.83645828 46.5924156,4.96152996 L46.5557756,5.03042538 C46.3977004,4.9233725 46.2396252,4.81843948 46.0888779,4.70608696 C46.000942,4.62765217 45.899397,4.59903408 45.7842428,4.61705288 L45.7203846,4.6106933 C45.4502958,4.55557697 45.2765177,4.5280188 45.0483031,4.6032738 L44.9739764,4.6212926 C44.8588222,4.60539365 44.7572772,4.63189189 44.6672476,4.70078731 C44.53325,4.77710223 44.3992525,4.84917744 44.2631612,4.91807286 C44.1228825,4.96682961 44.0265718,5.08766157 43.9930724,5.23075206 C43.9909787,5.29646769 43.9857444,5.42577908 43.9836507,5.49043478 C44.0119158,5.62822562 44.0715866,5.79251469 44.228615,5.82219271 C44.6735287,5.98118214 45.1383327,6.07869565 45.5916213,6.21542656 C45.7099161,6.26206345 45.8376325,6.27902233 45.9674426,6.27054289 C46.030254,6.27054289 46.1569235,6.27160282 46.2197349,6.27160282 L46.3652479,6.30022092 C46.480402,6.34897767 46.6028842,6.38077556 46.7306006,6.38607521 C47.1022344,6.44119154 47.4665403,6.55248414 47.8130496,6.70299412 L47.8831889,6.73585194 C48.034983,6.81322679 48.1899177,6.88636193 48.3479929,6.9573772 L48.4223197,6.99871445 C48.5940041,7.16724324 48.7520793,7.35167098 48.8934049,7.54881786 C48.9331854,7.712047 48.9844813,7.87103643 49.0399647,8.03002585 C49.0472927,8.10528085 49.0619487,8.25579083 49.0692767,8.33104583 C49.0420584,8.6606839 49.0326367,8.99668155 48.9876219,9.32631962 C48.9604036,9.51922679 48.8829363,9.71531375 48.7280016,9.83826557 C48.6327377,9.89444183 48.5762075,9.97711633 48.5573641,10.0862891 L48.5186304,10.1859224 C48.4034763,10.2855558 48.2830879,10.3798895 48.1647932,10.4752832 C48.0527796,10.4922421 47.970078,10.5515981 47.918782,10.6512315 C47.6727709,10.9215135 47.3095119,11.0455253 46.959862,11.1027615 C46.8352862,11.1080611 46.7169914,11.1409189 46.6091653,11.1981551 C46.5599631,11.2140541 46.4615586,11.2458519 46.4123564,11.2617509 C45.7381812,11.2659906 45.0660997,11.259631 44.3961119,11.2087544 C44.3615657,11.199215 44.2914263,11.1790764 44.2558332,11.1684771 C44.1490539,11.0540047 43.9082771,11.1557579 44.0600712,11.305208 C43.7543892,11.2066345 43.4382388,11.1207803 43.1660562,10.944832 C43.0686986,10.8674571 42.9545913,10.8197603 42.8342029,10.8134007 C42.5033964,10.7688837 42.17259,10.6098942 41.9872965,10.3194736 C41.93286,10.2039412 41.8491115,10.1636639 41.7350042,10.1975817 C41.6721929,10.0629706 41.6020535,9.93259929 41.5266799,9.80540776 C41.576929,9.76195065 41.678474,9.67503643 41.7297699,9.63263925 C41.8512052,9.53194595 41.9705468,9.42701293 42.0919821,9.32419976 C42.1495591,9.30088132 42.2626196,9.25530435 42.3191498,9.2319859 C42.4248822,9.20442773 42.5054902,9.14189189 42.5609735,9.04331845 C42.5902855,8.99032197 42.6499563,8.8832691 42.6803151,8.82921269 C42.9284199,8.96806345 43.1765248,9.1132738 43.4350982,9.23410576 L43.5052375,9.25848414 C43.8412783,9.38461575 44.1804596,9.50226792 44.5280158,9.59766157 C44.6766693,9.64323854 44.8326508,9.66655699 44.9896792,9.68351586 C45.1142551,9.6919953 45.3613131,9.70895417 45.4858889,9.71743361 C45.5644031,9.70365452 45.7203846,9.67715629 45.7988988,9.6633772 C45.9622083,9.64641833 46.1223773,9.59342186 46.2532343,9.48848884 C46.4238718,9.36765687 46.5955562,9.24364512 46.7693342,9.12387309 C46.872973,9.06345711 46.9138004,8.97124324 46.8928632,8.84723149 C46.8918164,8.81013396 46.8897227,8.73699882 46.8886758,8.69990129 C46.9117066,8.53773208 46.7881776,8.40418096 46.633243,8.3946416 C46.4646992,8.34588484 46.2951085,8.29924794 46.1412207,8.21763337 C46.0543317,8.15085781 45.9569741,8.12435958 45.8512416,8.13919859 C45.797852,8.00882726 45.6282613,7.98444888 45.5664968,8.12117979 C45.5183414,8.0999812 45.4209838,8.05758402 45.3717816,8.03638543 C45.2587212,7.96960987 45.1330985,7.93887192 45.0064289,7.94099177 C44.9436175,7.93781199 44.8179948,7.93251234 44.7551835,7.92933255 L44.6128111,7.91025382 C44.5217346,7.84665805 44.4233302,7.8233396 44.3165509,7.84029847 C44.2568801,7.83075911 44.1364916,7.81168038 44.0768209,7.80214101 C43.988885,7.73642538 43.8925742,7.70992714 43.7878886,7.72370623 C43.4099737,7.6940282 42.9954187,7.58697532 42.738939,7.28807521 C42.6719402,7.17042303 42.5724889,7.12696592 42.4405851,7.15770388 C42.3181029,7.01885311 42.194574,6.88212221 42.0783729,6.74009166 L42.049061,6.66695652 C42.0176553,6.54506463 41.9694999,6.43059224 41.9077354,6.32459929 L41.8794703,6.16772973 C41.8784235,6.10095417 41.8784235,5.96846298 41.8784235,5.90168743 C41.9056417,5.70348061 41.89622,5.50421387 41.8595801,5.30918684 C41.8752829,5.18093537 41.888892,5.05162397 41.8993606,4.9233725 C41.9621719,4.750604 42.0239364,4.57783549 42.0815135,4.40294712 C42.2982127,4.17082256 42.521193,3.94187779 42.7504544,3.72035253 C42.7912818,3.68431492 42.8729366,3.61223972 42.913764,3.57514219 C43.0634643,3.48504818 43.2320081,3.4320517 43.4026457,3.39071445 C43.5261747,3.36421622 43.6507505,3.33347826 43.7742795,3.29850059 C43.9648073,3.25504348 44.1511476,3.18932785 44.337488,3.12361222 Z" id="Shape" fill="#766764"></path>
                    <path d="M1.84979438,17.8375535 L1.94505826,17.7951563 C2.31983268,17.769718 2.69041967,17.7728978 3.0693815,17.7813772 L3.15312997,17.830134 C3.23269102,17.9022092 3.32690805,17.935067 3.43473421,17.9265875 C3.63049627,17.9382468 3.82521146,17.994423 3.99898954,18.0898167 C4.19893902,18.2869636 4.39784164,18.4862303 4.58836941,18.6939765 C4.63443107,18.7946698 4.67316474,18.9006627 4.70457042,19.0098355 C4.73388238,19.1465664 4.78831889,19.2758778 4.85531767,19.3998895 C4.87311422,19.4444066 4.90870732,19.5345006 4.92650387,19.5790176 C4.94325357,20.9092291 4.92441016,22.2415605 4.96733125,23.572832 L4.96942496,23.6767051 L4.81239658,23.6735253 C4.49519924,23.662926 4.1874236,23.6555065 3.87336683,23.6661058 C3.88488225,22.3189354 3.92780334,20.9622256 3.74146299,19.6245946 C3.70272932,19.4157885 3.63991797,19.213342 3.58548146,19.0098355 C3.56245063,18.8953631 3.49126443,18.8423666 3.37296971,18.8529659 C3.2190819,18.8391868 3.06728779,18.8169283 2.91654054,18.8010294 C2.6349363,18.7724113 2.35647263,18.7448531 2.07696211,18.7427333 C1.92621486,18.7671116 1.77965503,18.8148085 1.63518892,18.8603854 C1.48653538,18.881584 1.4195366,19.0310341 1.39127149,19.1624653 C1.34102241,19.3288743 1.29077333,19.4952832 1.22796197,19.6574524 C1.16619747,19.7857039 1.12955752,19.9256146 1.14630721,20.0708249 C1.15468206,21.2367474 1.15677577,22.4026698 1.17875974,23.5696522 L1.1798066,23.6851845 L1.03848105,23.6767051 C0.724424284,23.6523267 0.419789216,23.6364277 0.10991987,23.617349 C0.115154149,22.2553396 0.0649050659,20.8922703 0.0994513106,19.5313208 C0.137138123,19.2737579 0.213558604,19.0066557 0.395711531,18.8148085 C0.506678256,18.7194148 0.599848431,18.6017626 0.644863235,18.4597321 C0.689878039,18.3484395 0.736986554,18.2382068 0.785141926,18.1279741 C0.874124677,18.2011093 0.965201141,18.1968696 1.05941817,18.1163149 C1.16829119,18.0527192 1.28239848,18.0007826 1.40174005,17.9605053 C1.44047372,17.949906 1.51794106,17.9276475 1.55667472,17.9170482 C1.66450088,17.9318872 1.76185848,17.905389 1.84979438,17.8375535 Z" id="Shape" fill="#766764"></path>
                    <path d="M13.2793671,18.1163149 C13.6489072,18.1099553 14.0111194,18.0961763 14.3838001,18.0876968 L14.3806595,18.236087 C14.3283167,19.9563525 14.3450664,21.677678 14.3293636,23.3979436 C14.3168013,23.4615394 14.2916768,23.587671 14.2791145,23.6512667 C13.6771723,23.6003901 13.0438245,23.6608061 12.487944,23.3820447 L12.5298183,23.2135159 C12.5832079,23.090564 12.5183029,22.9644324 12.4439761,22.8700987 C12.3612745,22.745027 12.2859009,22.6146557 12.2346049,22.474745 C12.2000587,22.3581528 12.1456222,22.2510999 12.0786234,22.1535864 C11.9132202,21.844087 11.776082,21.5186886 11.6933804,21.1784512 C11.6734902,21.0798778 11.6504593,20.9823643 11.6232411,20.8869706 C11.6033508,20.7629589 11.5478674,20.6506063 11.4651658,20.5594524 C11.3217466,20.3676052 11.2065924,20.1577391 11.0882977,19.9521128 C11.4798218,19.8832174 11.8734396,19.814322 12.2660106,19.739067 L12.2513546,19.829161 C12.2283238,19.9393937 12.2649637,20.0294877 12.3633682,20.0983831 L12.4251327,20.1852973 C12.4732881,20.3209683 12.531912,20.4534595 12.5989108,20.5827709 L12.6345039,20.6824042 C12.6575347,20.8032362 12.7098775,20.9187685 12.7915323,21.0141622 C12.9255298,21.2144888 13.0448714,21.4275347 13.127573,21.6564794 L13.1265261,21.7359741 C13.0239343,22.0486533 13.4081304,22.0751516 13.2992574,21.7465734 C13.2647111,20.536134 13.2940231,19.3256945 13.2793671,18.1163149 Z" id="Shape" fill="#766764"></path>
                    <path d="M8.93700883,24.2988837 C9.24897189,24.3105429 9.5619818,24.323262 9.87708543,24.3370411 L9.99538014,24.3412808 L9.98909901,24.473772 C9.91686595,24.9369612 10.0246921,25.4467873 9.85824202,25.8940776 C9.65096455,26.1601199 9.35470433,26.3350082 9.08670922,26.5310952 L8.99982018,26.5904512 L8.99563276,26.4420611 C8.98307049,25.7276686 8.96108651,25.0122162 8.93700883,24.2988837 Z" id="Shape" fill="#766764"></path>
                    <path d="M35.6307875,14.0224289 C36.0547641,14.0074289 36.4724596,14.0224289 36.9006237,13.9974289 C36.4735065,14.0474289 36.0526704,14.0724289 35.6307875,14.0224289 Z" id="Shape" fill="#0C0C0C" opacity="0.05"></path>
                    <path d="M35.3816357,14.2024336 C35.5249924,13.8334424 35.6910763,13.7914054 35.8816357,14.0716519 L35.7977197,14.3892646 C35.6928246,14.3425568 35.4847826,14.2491413 35.3816357,14.2024336 Z" id="Shape" fill="#5D5755" opacity="0.58"></path>
                    <path d="M35.6810365,14.0787701 C36.1311846,14.015707 36.5844732,13.9526439 37.0398555,13.8850764 L36.9906533,14.0697611 L36.9006237,14.3625539 C36.4724596,14.3850764 36.0547641,14.3715629 35.6307875,14.3850764 L35.6810365,14.0787701 Z" id="Shape" fill="#746966" opacity="0.86"></path>
                    <path d="M37.0589672,13.8964269 C37.1999556,13.8769741 37.3438509,13.8737319 37.4906533,13.8899426 C37.4891998,14.4411051 37.0473393,14.5805168 36.9906533,14.0293543 L37.0589672,13.8964269 Z" id="Shape" fill="#474242" opacity="0.44"></path>
                    <path d="M25.6431156,14.941536 C25.3782349,14.5463815 26.0165237,14.1754201 26.079065,14.7022928 L26.0735466,14.8662685 C25.9668586,14.8850853 25.751643,14.9227191 25.6431156,14.941536 Z" id="Shape" fill="#534D4B" opacity="0.56"></path>
                    <path d="M25.3399267,14.9814408 C24.9638471,14.6855397 25.7011611,14.2826591 25.7333258,14.7561007 C25.6739448,14.8266618 25.5551828,14.9677838 25.4958018,15.0383448 L25.3399267,14.9814408 Z" id="Shape" fill="#252525" opacity="0.17"></path>
                    <path d="M25.4448795,14.6397462 L25.615517,14.6386863 C25.6772815,14.6312667 25.7997637,14.6164277 25.8604813,14.6090082 C25.8458253,15.2449659 25.8384974,15.8809236 25.8395442,16.5179412 C25.8604813,16.5719976 25.9013087,16.6811704 25.9222458,16.7352268 L25.790342,16.7373467 C24.5634269,16.7606651 23.3396523,16.7076686 22.1158778,16.6938895 C22.2268445,16.6748108 22.295937,16.6048555 22.3242021,16.4850834 L22.3807323,16.3727309 C22.499027,16.2391798 22.6215092,16.1088085 22.7199136,15.9572385 L22.7659753,15.8883431 C23.4663219,15.8841034 24.1719028,15.920141 24.8732962,15.8777438 L24.8921396,15.7791704 C24.9162173,15.6000423 24.9643727,15.2417861 24.9884504,15.062658 C25.1308228,15.0011821 25.2459769,14.8909495 25.3443814,14.7711774 C25.3695059,14.7383196 25.419755,14.672604 25.4448795,14.6397462 Z" id="Shape" fill="#766764"></path>
                    <path d="M24.9982663,15.2334714 C24.8350473,14.9774938 25.1507823,14.6555095 25.3688536,14.7504949 L25.4531388,14.7907429 C25.3273799,14.9726641 25.1802153,15.1400959 24.9982663,15.2334714 Z" id="Shape" fill="#665D5B" opacity="0.72"></path>
                    <path d="M19.8086074,17.754879 L19.8253571,17.6669048 C20.1844286,17.6987027 20.5361722,17.7188414 20.8994312,17.7368602 C20.6994817,17.9509659 20.5257037,18.1883901 20.3613473,18.4321739 C20.2357246,18.5413467 20.3100513,18.7045758 20.4220649,18.7883102 C20.5204694,18.8868837 20.5843276,19.002416 20.6136395,19.137027 C20.6073584,19.2461998 20.6377172,19.3447732 20.7068097,19.4316874 C20.7225126,19.6044559 20.7444965,19.7782844 20.7664805,19.9531727 C20.756012,21.1932902 20.7089034,22.4365875 20.7884645,23.6767051 L20.6429515,23.6745852 C20.3550661,23.6671657 20.0682276,23.6639859 19.7834828,23.6639859 C19.7845297,22.4567262 19.789764,21.2484066 19.7122966,20.0443267 C19.6829847,19.9266745 19.6233139,19.69349 19.5940019,19.5758378 C19.4966443,19.3490129 19.3940524,19.1264277 19.2893668,18.9049025 C19.2422583,18.7936099 19.1564161,18.7437932 19.0328871,18.7565123 C18.9910129,18.7512127 18.9062176,18.7427333 18.8643433,18.7384935 L18.7115024,18.7225946 C18.4780535,18.6844371 18.2791509,18.6494595 18.0624517,18.701396 C17.9724221,18.7172949 17.791316,18.7480329 17.7012864,18.7628719 C17.588226,18.7681716 17.5107587,18.8232879 17.4678376,18.9303408 C17.363152,19.1009894 17.2448573,19.2620987 17.1150471,19.4126087 C17.0250175,19.4868038 16.9957056,19.5800776 17.0271112,19.6913702 C17.0511889,19.8418801 17.0773603,19.9934501 17.1066723,20.14396 C17.1150471,20.1778778 17.13075,20.2457133 17.1391248,20.279631 C17.6803493,20.3771445 18.227855,20.4576992 18.7701263,20.5668719 C18.656019,20.5626322 18.5743643,20.6177485 18.5272557,20.7332808 C18.4916626,20.7830975 18.4215233,20.8837908 18.3859302,20.9336075 C18.2770572,20.9929636 18.2330892,21.0798778 18.2540263,21.1943502 C17.8394714,21.2176686 17.4270102,21.2431069 17.0155958,21.2706651 C16.9915181,22.0380541 16.9758153,22.8065029 16.9653467,23.5749518 C16.6272123,23.6162891 16.2932652,23.6502068 15.9582714,23.6883643 C16.0273638,22.3083361 15.9886302,20.9272479 16.0127079,19.5472197 C16.0493478,19.378691 16.0891283,19.2112221 16.1226277,19.0426933 C16.1487991,18.9165617 16.1854391,18.7946698 16.2335945,18.6770176 C16.4063257,18.4883502 16.585338,18.3060423 16.7716784,18.1311539 C16.9161445,18.04 17.0763135,17.9753443 17.2438104,17.9435464 C17.3034812,17.9382468 17.4207291,17.9276475 17.479353,17.9234078 C17.588226,17.9276475 17.6813962,17.8916099 17.7609572,17.8131751 C18.1430596,17.7887967 18.5209746,17.7940964 18.9072644,17.8015159 C19.1375727,17.8227145 19.3647405,17.8682914 19.5950488,17.905389 C19.7206715,17.9361269 19.7918577,17.8852503 19.8086074,17.754879 Z" id="Shape" fill="#776764"></path>
                    <path d="M8.08382127,17.8386134 L8.22200625,17.8152949 C8.39787804,17.8163549 8.57479669,17.8174148 8.75380905,17.8184747 L8.91293114,17.8481528 C9.03541328,17.8926698 9.16417656,17.9223478 9.29712726,17.9265875 C9.3578449,17.9318872 9.48032704,17.9414266 9.54209154,17.9467262 C9.67190167,17.9530858 9.80275866,17.9615652 9.9346625,17.9732244 C9.96502132,18.0876968 9.99747386,18.2032291 10.0299264,18.3187615 C9.95664648,18.5021293 9.88336656,18.6844371 9.81113351,18.8688649 C9.67608909,18.8052691 9.53476355,18.7543925 9.38611001,18.7480329 C9.32853293,18.7437932 9.21337879,18.7342538 9.15580171,18.7300141 C8.70670053,18.701396 8.2586462,18.6918566 7.8147793,18.7565123 C7.64100122,18.7565123 7.5488779,18.9356404 7.5394562,19.0903901 C7.49862882,19.2197015 7.51433166,19.3649119 7.59703327,19.4762045 L7.66507891,19.5970364 C7.7435931,19.7634454 7.87235638,19.9012362 8.03357219,19.9913302 C8.08800869,20.0273678 8.19897542,20.0983831 8.25445878,20.1344207 C8.34134782,20.1990764 8.43765856,20.2457133 8.54339101,20.2764512 C8.66273258,20.3209683 8.77998044,20.3750247 8.89304088,20.4407403 C8.94433682,20.4682985 9.0469287,20.5223549 9.09822464,20.549913 C9.1987228,20.6007897 9.29293983,20.6643854 9.37878202,20.7417603 C9.46985848,20.8413937 9.56930979,20.9346675 9.67608909,21.0205217 C9.84358604,21.181631 10.0027081,21.3533396 10.1471742,21.5377673 C10.1733456,21.6077227 10.2256884,21.7476334 10.2518598,21.8175887 C10.2550004,21.9606792 10.2623284,22.2458002 10.265469,22.3888907 C10.2612815,22.5563596 10.2529067,22.7312479 10.1848611,22.8870576 C10.0508635,23.0439271 9.90953796,23.1923173 9.76821241,23.3417673 C9.6143246,23.3438872 9.53790412,23.4159624 9.53895097,23.5590529 L9.53476355,23.6798848 C9.38192259,23.6979036 9.23012848,23.7212221 9.07728752,23.7275817 C9.01971044,23.7275817 8.90560315,23.7275817 8.84802608,23.7286416 C8.42404944,23.737121 8.0094945,23.7487803 7.58865843,23.737121 C7.5300345,23.7392409 7.41383349,23.7434806 7.35625642,23.7456005 C7.27878908,23.7318214 7.12594812,23.7042632 7.04952764,23.6904841 C6.98566943,23.6735253 6.86004672,23.6396075 6.79723537,23.6215887 C6.71558061,23.4382209 6.59100475,23.2760517 6.43502322,23.15098 C6.46119462,22.9941105 6.51249056,22.6793114 6.5376151,22.5213819 C6.54494309,22.4779248 6.55855222,22.3899506 6.56588021,22.3454336 C6.62241043,22.3751116 6.73442401,22.4344677 6.78990737,22.4641457 C6.87784327,22.5129025 6.96996659,22.5531798 7.06732419,22.5839177 C7.24110227,22.6443337 7.41488035,22.7068696 7.58865843,22.7704653 C7.64937607,22.7821246 7.7697645,22.805443 7.82943528,22.8171022 L7.96552655,22.8330012 C8.02729105,22.9612526 8.18641315,22.9623126 8.2659742,22.8489001 L8.39892489,22.8224019 C8.45754883,22.8033231 8.57374983,22.7651657 8.6313269,22.746087 C8.66168573,22.7291281 8.72240337,22.6941504 8.75276219,22.6761316 C8.88152547,22.5998167 9.0113356,22.5245617 9.14114573,22.4493067 C9.09508407,22.3051563 9.04797555,22.1620658 9.00191389,22.0200353 L8.97469564,21.9405405 C8.93910254,21.8006298 8.8427918,21.693577 8.75380905,21.5886439 C8.69832568,21.4911304 8.61667092,21.4349542 8.50884476,21.4179953 C8.16756974,21.3045828 7.82838843,21.1689119 7.53212821,20.9643455 C7.44000489,20.8848508 7.33322559,20.8286745 7.22016515,20.7947568 L7.15211952,20.7640188 C6.96682602,20.5817109 6.78990737,20.3930435 6.60775445,20.2096757 C6.57111449,20.1704583 6.49574087,20.0909636 6.45805405,20.0517462 L6.4570072,19.9478731 C6.4475855,19.5673584 6.4475855,19.1921434 6.43188266,18.8137485 L6.42874209,18.6992761 L6.42560152,18.6166016 C6.63706641,18.4618519 6.84015646,18.295443 7.05057449,18.1385734 C7.2735548,18.0029025 7.53317506,17.9382468 7.79070162,17.9212879 C7.89852777,17.9329471 7.99588537,17.905389 8.08382127,17.8386134 Z" id="Shape" fill="#766764" opacity="0.98"></path>
                    <path d="M23.8557523,17.8343737 L24.0263898,17.8099953 C24.1928399,17.8184747 24.5246932,17.8354336 24.6900964,17.843913 C24.8429374,17.8820705 24.9978721,17.9128085 25.1559473,17.9223478 C25.3852087,17.9435464 25.6134233,17.9827638 25.8426848,18.0198613 C25.8405911,18.3134618 25.8542002,18.6155417 25.8678093,18.9133819 L25.8730436,19.0236146 C25.6678598,18.9653184 25.4647698,18.9070223 25.2616798,18.8497861 C25.0292777,18.7840705 24.7979226,18.7194148 24.5676143,18.6526392 C24.4524601,18.5996428 24.3393997,18.5985828 24.2294798,18.6515793 C23.9342665,18.7649918 23.6578965,18.9239812 23.4056042,19.1158284 C23.2506696,19.1868437 23.2925438,19.3839906 23.3815266,19.4921034 L23.4516659,19.618235 C23.5291332,19.7825241 23.647428,19.9372738 23.8243466,20.0008696 C24.1017634,20.1365405 24.3917425,20.2531328 24.6597376,20.4142421 C24.7173147,20.5043361 24.7989694,20.5583925 24.9047019,20.5795911 C25.0083406,20.6145687 25.1056982,20.6654454 25.1967747,20.7322209 C25.2899449,20.821255 25.3883493,20.9060494 25.4961755,20.9823643 C25.7453272,21.1911704 25.9484172,21.4487333 26.1483667,21.7062961 C26.1284764,21.7698919 26.0886959,21.8981434 26.0688056,21.9617391 C26.0656651,22.0295746 26.0583371,22.1663055 26.0541497,22.2352009 C26.0510091,22.3009166 26.044728,22.4344677 26.0415874,22.5001833 L26.0059943,22.6634125 C25.9337612,22.7927239 25.8636219,22.9230952 25.7955763,23.0555864 C25.674141,23.1944371 25.5568931,23.3354078 25.4459264,23.482738 C25.3234442,23.6692855 25.1067451,23.7572597 24.8921396,23.75196 C24.8335157,23.7487803 24.7173147,23.7413608 24.6586908,23.738181 C24.2336673,23.7403008 23.8180655,23.7487803 23.3961825,23.737121 C23.3375586,23.7403008 23.2213576,23.7456005 23.1637805,23.7487803 C22.9167225,23.7424207 22.6853674,23.6268884 22.5011207,23.4678989 C22.4037631,23.3841645 22.3043118,23.3046698 22.1954388,23.241074 C22.3210615,22.9665523 22.4571528,22.6973302 22.5921972,22.429168 C22.6633834,22.5076028 22.7513193,22.5574195 22.8560049,22.580738 C23.0685166,22.6443337 23.2810284,22.7132291 23.4935401,22.7800047 C23.5898509,22.8149824 23.6893022,22.8298214 23.7939878,22.8245217 C23.9499693,22.8255817 24.1080445,22.8298214 24.2661198,22.8414806 C24.329978,22.835121 24.4566476,22.8224019 24.5205058,22.8160423 C24.6827684,22.7821246 24.8869053,22.6909706 24.8858585,22.4938237 L24.8921396,22.4122092 L24.8910928,22.3009166 C24.8178128,22.0910505 24.7235958,21.8907239 24.6157697,21.6999365 C24.5979731,21.6670787 24.56238,21.603483 24.5445835,21.5716851 C24.4964281,21.4709918 24.4158202,21.4158754 24.3048535,21.407396 C23.9646253,21.2971633 23.6202097,21.1795112 23.32709,20.971765 C23.3543083,20.8106557 23.2894032,20.7396404 23.1334217,20.7618989 L23.0601418,20.7693184 C22.9994241,20.731161 22.8758952,20.6548461 22.8141307,20.6166886 C22.6947891,20.4947967 22.5733538,20.3739647 22.4519185,20.2563126 C22.3629358,20.1683384 22.2980307,20.0665852 22.2572033,19.9510529 C22.2404536,19.6097556 22.2415005,19.2769377 22.2467348,18.9398801 C22.273953,18.8996028 22.3273427,18.8201081 22.3535141,18.7798308 C22.4519185,18.7225946 22.5084487,18.6367403 22.5231047,18.5222679 C22.615228,18.4194548 22.7115388,18.3198214 22.8109901,18.2244277 C22.9334722,18.1767309 23.0475795,18.1099553 23.1491245,18.025161 C23.284169,17.994423 23.4192134,17.9636851 23.5542578,17.9287074 C23.6662714,17.9371868 23.7667695,17.9064489 23.8557523,17.8343737 Z" id="Shape" fill="#766764" opacity="0.98"></path>
                    <path d="M36.3782426,8.90340776 C37.5056595,8.90340776 38.2102404,7.97804189 38.2102404,6.83654524 C38.2102404,5.69504859 37.5056595,4.76968273 36.3782426,4.76968273 C35.2508256,4.76968273 34.5462447,5.69504859 34.5462447,6.83654524 C34.5462447,7.97804189 35.2508256,8.90340776 36.3782426,8.90340776 Z" id="Oval" fill="#F2F2F2"></path>
                </g>
            </g>
        </g>
    </g>
</svg>