<?xml version="1.0" encoding="UTF-8"?>
<svg width="100px" height="32px" viewBox="0 0 100 32" version="1.1" xmlns="http://www.w3.org/2000/svg" xmlns:xlink="http://www.w3.org/1999/xlink">
    <!-- Generator: Sketch 49.1 (51147) - http://www.bohemiancoding.com/sketch -->
    <title>lobanet</title>
    <desc>Created with Sketch.</desc>
    <defs>
        <path d="M23.3669014,11.7632 C23.3669014,18.2293333 18.1753521,23.4716444 11.771831,23.4716444 C5.36760563,23.4716444 0.176760563,18.2293333 0.176760563,11.7632 C0.176760563,5.29706667 5.36760563,0.0547555556 11.771831,0.0547555556 C18.1753521,0.0547555556 23.3669014,5.29706667 23.3669014,11.7632" id="path-1"></path>
        <polygon id="path-3" points="0.0422535211 0.225422222 97.3676056 0.225422222 97.3676056 23.3784889 0.0422535211 23.3784889"></polygon>
    </defs>
    <g id="Page-1" stroke="none" stroke-width="1" fill="none" fill-rule="evenodd">
        <g id="m7-withdraw-balance-0-1366" transform="translate(-757.000000, -1541.000000)">
            <g id="lobanet" transform="translate(757.000000, 1541.000000)">
                <g id="Group-21" transform="translate(10.563380, 5.688889)">
                    <mask id="mask-2" fill="white">
                        <use xlink:href="#path-1"></use>
                    </mask>
                    <g id="Clip-2"></g>
                    <path d="M3.32394366,20.1272889 C1.30422535,18.0878222 -0.0647887324,15.7511111 0.0225352113,12.7502222 C0.470422535,12.3214222 0.995774648,12.3029333 1.48169014,12.5980444 C3.7915493,13.9975111 6.31338028,14.4547556 8.96690141,14.4576 C10.1760563,14.4590222 11.3809859,14.6176 12.4408451,15.3073778 C13.0359155,15.8506667 13.25,16.5674667 13.3211268,17.2202667 C13.2901408,15.4737778 14.4429577,14.1056 15.2619718,12.5966222 C15.6302817,12.1550222 16.0457746,11.7724444 16.5619718,11.5128889 C17.5161972,11.2419556 18.2788732,10.7342222 18.9049296,9.91928889 C19.6429577,8.95928889 20.5556338,8.18488889 21.8915493,8.23751111 C23.5521127,9.00764444 23.3626761,10.5713778 23.3577465,11.9687111 C23.3514085,13.5928889 22.8042254,15.104 21.9669014,16.4963556 C18.5471831,19.6750222 14.5197183,21.2807111 9.85985915,21.3909333 C7.56971831,21.4449778 5.28591549,21.7038222 3.32394366,20.1272889" id="Fill-1" fill="#287CAB" mask="url(#mask-2)"></path>
                    <path d="M12.3112676,15.5456 C10.3295775,15.3308444 8.32746479,15.1644444 6.36619718,15.0371556 C5.13943662,14.9568 3,14.9468444 1.84788732,13.4599111 C1.38239437,12.8597333 0.74084507,12.6990222 0.0225352113,12.7502222 C-0.137323944,10.9276444 -0.326760563,9.1008 0.901408451,7.51573333 C3.0056338,7.56764444 5.00070423,8.80711111 7.17464789,8.09884444 C7.72887324,8.18844444 8.25422535,8.37191111 8.75704225,8.62151111 C9.97183099,9.40231111 9.21971831,11.4254222 10.8309859,11.9580444 C11.4647887,12.4110222 12.0908451,12.8732444 12.4007042,13.6355556 C12.5767606,14.2812444 12.9809859,14.9404444 12.3112676,15.5456" id="Fill-3" fill="#248FBC" mask="url(#mask-2)"></path>
                    <path d="M8.68239437,9.05315556 C8.23661972,8.89457778 7.7915493,8.736 7.34577465,8.57742222 C6.71971831,8.23537778 5.89014085,8.12302222 5.79366197,7.18008889 C5.76971831,6.48106667 6.2415493,6.00248889 6.54295775,5.44782222 C7.1556338,4.23893333 7.38732394,2.8032 8.53450704,1.90862222 C9.60422535,1.0752 7.38521127,0.666311111 8.29295775,-0.130844444 C10.6119718,0.279466667 13.0014085,-0.930133333 15.2894366,0.182044444 C15.8485915,3.47235556 14.3922535,5.76711111 11.7570423,7.48302222 C10.7788732,8.09884444 9.68661972,8.48853333 8.68239437,9.05315556" id="Fill-4" fill="#12B5DA" mask="url(#mask-2)"></path>
                    <path d="M11.478169,7.23555556 C13.0366197,5.85528889 14.3943662,4.41955556 14.9901408,2.24497778 C15.1859155,1.52817778 13.8866197,0.596622222 15.2887324,0.182755556 C16.6978873,0.389688889 17.8753521,1.04533333 18.8647887,2.06506667 C19.0422535,2.56426667 19.5521127,2.94542222 19.3838028,3.56693333 C18.2894366,5.52604444 17.6183099,7.76604444 15.7338028,9.20675556 C15.5288732,9.29635556 15.3147887,9.34115556 15.0915493,9.34044444 C13.8661972,8.67626667 12.3964789,8.43804444 11.478169,7.23555556" id="Fill-5" fill="#24A1CB" mask="url(#mask-2)"></path>
                    <path d="M3.32394366,20.1272889 C10.0253521,22.0295111 16.0295775,20.4117333 21.5690141,16.4437333 C22.0049296,16.0760889 22.4091549,15.6003556 23.0711268,15.9850667 C22.7746479,17.0254222 22.3605634,18.0003556 21.5577465,18.7591111 C17.4316901,21.8339556 12.8394366,23.3472 7.68732394,22.9880889 C5.88873239,22.5699556 4.47464789,21.5537778 3.32394366,20.1272889" id="Fill-6" fill="#2288B9" mask="url(#mask-2)"></path>
                    <path d="M8.29295775,-0.130844444 C10.0514085,0.987733333 9.95774648,1.88302222 8.22042254,3.08337778 C7.49366197,3.58542222 7.31549296,4.89742222 6.88802817,5.84106667 C6.13169014,6.1952 5.42112676,6.65173333 4.61197183,6.89422222 C3.37887324,6.49884444 2.75,5.53102222 2.29577465,4.39822222 C3.37253521,3.10328889 4.25492958,1.57653333 6.3,1.63911111 C6.93239437,1.65831111 7.33661972,1.09155556 7.32746479,0.374755556 C7.45633803,-0.145777778 7.74014085,-0.412444444 8.29859155,-0.226844444 L8.29295775,-0.130844444" id="Fill-7" fill="#BCE2E9" mask="url(#mask-2)"></path>
                    <path d="M7.68732394,22.9880889 C9.08098592,21.7806222 10.8795775,22.3132444 12.415493,22.1518222 C15.0338028,21.8766222 17.1739437,20.8 19.2422535,19.4339556 C20.006338,18.9290667 20.7169014,18.7441778 21.5577465,18.7598222 C20.1260563,21.2807111 17.778169,22.5322667 15.1887324,23.4496 C13.0232394,24.8675556 10.8492958,25.0282667 8.66338028,23.4972444 C8.33802817,23.3272889 8.01267606,23.1580444 7.68732394,22.9880889" id="Fill-8" fill="#2097C8" mask="url(#mask-2)"></path>
                    <path d="M19.2640845,3.48942222 C19.1309859,3.01511111 18.9978873,2.54008889 18.8647887,2.06577778 C21.3725352,3.32302222 22.6176056,5.52746667 23.3267606,8.13368889 C22.6267606,8.512 21.8570423,8.25528889 21.1267606,8.37688889 C18.5760563,7.24053333 18.0007042,5.728 19.2640845,3.48942222" id="Fill-9" fill="#70C7E0" mask="url(#mask-2)"></path>
                    <path d="M2.29577465,4.39822222 C3.30211268,4.90382222 3.85774648,5.84817778 4.49647887,6.71075556 C5.0028169,6.85511111 5.42464789,7.2512 5.98943662,7.22133333 C6.4415493,7.6736 6.89366197,8.12515556 7.34577465,8.57742222 C5.0415493,9.19182222 2.85774648,9.05884444 0.901408451,7.51573333 C1.02323944,6.32035556 1.34929577,5.21742222 2.29577465,4.39822222" id="Fill-10" fill="#99D4E4" mask="url(#mask-2)"></path>
                    <path d="M8.29859155,-0.226844444 C7.97535211,-0.0263111111 7.65140845,0.174222222 7.32746479,0.374755556 C5.31478873,-0.110933333 3.77676056,1.62204444 1.85633803,1.56728889 C1.72816901,0.807111111 2.44859155,0.765155556 2.8084507,0.416 C4.21478873,-0.7104 6.01549296,-1.01688889 7.53591549,-1.90862222 C9.30985915,-2.45546667 11.0140845,-3.20995556 12.7943662,-3.72266667 C13.5330986,-3.93528889 14.2852113,-4.52906667 15.1169014,-3.94808889 C15.2816901,-3.64586667 15.4471831,-3.34435556 15.6119718,-3.04213333 C14.8056338,-2.20231111 13.5704225,-2.73137778 12.6964789,-2.10915556 C11.506338,-1.83964444 10.3098592,-1.5872 9.19225352,-1.06737778 C8.8943662,-0.7872 8.59647887,-0.507022222 8.29859155,-0.226844444" id="Fill-11" fill="#70A4AE" mask="url(#mask-2)"></path>
                    <path d="M21.5323944,8.18062222 C22.1295775,8.12657778 22.7161972,7.6544 23.3274648,8.13368889 C24.1373239,10.7804444 24.2985915,13.4065778 23.0711268,15.9850667 C22.5704225,16.1379556 22.0697183,16.2915556 21.5690141,16.4437333 C22.1880282,14.2136889 23.4633803,12.0945778 22.5647887,9.61564444 C22.3647887,9.06453333 22.228169,8.61937778 21.5873239,8.55893333 C21.4246479,8.49706667 21.3626761,8.42097778 21.4,8.32924444 C21.4408451,8.2304 21.484507,8.18062222 21.5323944,8.18062222" id="Fill-12" fill="#44BEE2" mask="url(#mask-2)"></path>
                    <path d="M8.66338028,23.4972444 C10.8422535,24.0184889 13.0161972,23.8151111 15.1887324,23.4496 C16.1147887,24.3498667 17.4873239,23.4048 18.4274648,24.2467556 C18.1669014,24.6421333 17.7711268,24.8085333 17.334507,24.9052444 C13.9274648,25.0830222 10.515493,24.9024 7.1056338,24.9884444 C6.26478873,24.9130667 5.36830986,25.0645333 4.67183099,24.3904 C5.80915493,23.2106667 7.47112676,24.4259556 8.66338028,23.4972444" id="Fill-13" fill="#9FD6E2" mask="url(#mask-2)"></path>
                    <path d="M2.77957746,0.712533333 C2.47183099,0.997688889 2.16338028,1.28284444 1.85633803,1.56728889 C0.241549296,2.36657778 -1.14084507,3.46808889 -2.32535211,4.82915556 C-2.72042254,4.89386667 -3.04295775,4.89315556 -2.7471831,4.34417778 C-1.48239437,2.44977778 0.293661972,1.20391111 2.31830986,0.273066667 C2.52746479,0.359822222 2.68169014,0.506311111 2.77957746,0.712533333" id="Fill-14" fill="#287D9B" mask="url(#mask-2)"></path>
                    <path d="M2.77957746,0.712533333 C2.62535211,0.566044444 2.47183099,0.419555556 2.31830986,0.273066667 C3.7471831,-0.713244444 5.27746479,-1.48906667 6.93661972,-1.99822222 C7.12676056,-1.82471111 7.31690141,-1.6512 7.50704225,-1.47697778 C5.93169014,-0.746666667 4.3556338,-0.0170666667 2.77957746,0.712533333" id="Fill-15" fill="#1F5061" mask="url(#mask-2)"></path>
                    <path d="M21.5323944,8.18062222 C21.5521127,8.30648889 21.5704225,8.43306667 21.5873239,8.55893333 C20.4316901,9.12213333 19.3112676,9.73937778 18.8274648,11.0471111 C18.3669014,12.2922667 17.3161972,11.6536889 16.5197183,11.8264889 C15.9133803,10.9724444 16.2028169,9.82968889 15.6161972,8.96924444 C17.1035211,7.32728889 17.5253521,4.96142222 19.2640845,3.49013333 C18.7788732,5.66542222 19.2246479,7.38204444 21.5323944,8.18062222" id="Fill-16" fill="#248FBC" mask="url(#mask-2)"></path>
                    <path d="M15.6161972,8.96924444 C17.8,9.31413333 16.315493,10.8430222 16.5197183,11.8264889 C16.25,12.1507556 15.9809859,12.4757333 15.7112676,12.8 C14.506338,13.2380444 13.3704225,13.9854222 11.9915493,13.6526222 C11.5098592,13.2003556 11.028169,12.7480889 10.5457746,12.2965333 C11.465493,10.3296 13.8514085,10.4974222 15.1450704,9.0752 C15.3021127,9.03964444 15.4591549,9.0048 15.6161972,8.96924444" id="Fill-17" fill="#7DCBE1" mask="url(#mask-2)"></path>
                    <path d="M11.9915493,13.6526222 C13.1373239,12.9514667 14.35,12.5468444 15.7112676,12.8 C15.0098592,14.6816 13.3478873,16.1699556 13.2647887,18.4696889 C12.9478873,17.4947556 12.6302817,16.5205333 12.3119718,15.5456 C12.2049296,14.9148444 12.0978873,14.2833778 11.9915493,13.6526222" id="Fill-18" fill="#6CC7E1" mask="url(#mask-2)"></path>
                    <path d="M15.1450704,9.0752 C15.0633803,10.4753778 13.8007042,10.5621333 12.9359155,11.0684444 C12.1640845,11.5214222 11.3443662,11.8904889 10.5457746,12.2965333 C8.82183099,11.8620444 9.02746479,10.2961778 8.68239437,9.05386667 C9.03450704,7.5392 10.4591549,7.70488889 11.478169,7.23484444 C12.7626761,7.72266667 14.1176056,8.06542222 15.1450704,9.0752" id="Fill-19" fill="#91D2E2" mask="url(#mask-2)"></path>
                    <path d="M5.98943662,7.22133333 C5.76901408,7.6096 5.56408451,8.14862222 5.05352113,8.04337778 C4.3556338,7.89973333 4.68873239,7.16017778 4.4971831,6.71075556 C5.05985915,5.76426667 5.91690141,5.64124444 6.88802817,5.84106667 C6.58873239,6.30115556 6.28873239,6.76124444 5.98943662,7.22133333" id="Fill-20" fill="#1EA8D0" mask="url(#mask-2)"></path>
                </g>
                <polyline id="Fill-22" fill="#24A1CB" points="35.4049296 28.4174222 36.0640845 28.4174222 36.0640845 31.2775111 37.0239437 31.2775111 37.0239437 31.9118222 35.4049296 31.9118222 35.4049296 28.4174222"></polyline>
                <path d="M39.1521127,28.9806222 C38.8316901,28.9806222 38.5619718,29.0929778 38.343662,29.3176889 C38.1260563,29.5424 38.0161972,29.8282667 38.0161972,30.1752889 C38.0161972,30.5621333 38.1542254,30.8672 38.4288732,31.0926222 C38.6422535,31.2682667 38.8873239,31.3564444 39.1633803,31.3564444 C39.4760563,31.3564444 39.7422535,31.2419556 39.9619718,31.0136889 C40.1816901,30.7854222 40.2915493,30.5052444 40.2915493,30.1703111 C40.2915493,29.8382222 40.1809859,29.5559111 39.9598592,29.3255111 C39.7380282,29.0958222 39.4690141,28.9806222 39.1521127,28.9806222 Z M39.1584507,28.3292444 C39.6485915,28.3292444 40.0690141,28.5084444 40.421831,28.8661333 C40.7739437,29.2245333 40.95,29.6604444 40.95,30.1752889 C40.95,30.6851556 40.7767606,31.1168 40.4288732,31.4702222 C40.0816901,31.8229333 39.6591549,32 39.1633803,32 C38.6443662,32 38.2126761,31.8179556 37.8683099,31.4552889 C37.5253521,31.0933333 37.3535211,30.6624 37.3535211,30.1632 C37.3535211,29.8289778 37.4330986,29.5224889 37.5929577,29.2416 C37.7535211,28.9614222 37.9732394,28.7388444 38.2535211,28.5752889 C38.5338028,28.4110222 38.8352113,28.3292444 39.1584507,28.3292444 Z" id="Fill-23" fill="#24A1CB"></path>
                <path d="M44.7521127,29.0311111 L44.2915493,29.4748444 C43.978169,29.1399111 43.6253521,28.9728 43.2338028,28.9728 C42.9028169,28.9728 42.6246479,29.0872889 42.3978873,29.3155556 C42.171831,29.5438222 42.0584507,29.8247111 42.0584507,30.1596444 C42.0584507,30.3928889 42.1084507,30.5998222 42.2091549,30.7804444 C42.3091549,30.9610667 42.4507042,31.1025778 42.634507,31.2064 C42.8176056,31.3088 43.0211268,31.3607111 43.2457746,31.3607111 C43.4366197,31.3607111 43.6112676,31.3244444 43.7697183,31.2526222 C43.9274648,31.1808 44.1014085,31.0492444 44.2915493,30.8586667 L44.7380282,31.3294222 C44.4823944,31.5811556 44.2408451,31.7560889 44.0133803,31.8535111 C43.7859155,31.9509333 43.5267606,32 43.2352113,32 C42.6964789,32 42.256338,31.8279111 41.9140845,31.4837333 C41.5711268,31.1381333 41.4,30.6972444 41.4,30.1582222 C41.4,29.8104889 41.4774648,29.5004444 41.6338028,29.2295111 C41.7901408,28.9592889 42.0133803,28.7409778 42.3042254,28.5767111 C42.5950704,28.4117333 42.9084507,28.3292444 43.2443662,28.3292444 C43.5295775,28.3292444 43.8042254,28.3904 44.0690141,28.512 C44.3330986,28.6343111 44.5605634,28.8071111 44.7521127,29.0311111" id="Fill-24" fill="#24A1CB"></path>
                <path d="M46.7225352,29.344 L46.2584507,30.5436444 L47.184507,30.5436444 L46.7225352,29.344 Z M46.384507,28.4174222 L47.0528169,28.4174222 L48.3838028,31.9118222 L47.6992958,31.9118222 L47.428169,31.1914667 L46.0161972,31.1914667 L45.734507,31.9118222 L45.05,31.9118222 L46.384507,28.4174222 Z" id="Fill-25" fill="#24A1CB"></path>
                <polyline id="Fill-26" fill="#24A1CB" points="48.8929577 28.4174222 49.5514085 28.4174222 49.5514085 31.2775111 50.5119718 31.2775111 50.5119718 31.9118222 48.8929577 31.9118222 48.8929577 28.4174222"></polyline>
                <path d="M53.0197183,30.3822222 L53.0197183,31.2775111 L53.184507,31.2775111 C53.4577465,31.2775111 53.6422535,31.2426667 53.7380282,31.1729778 C53.8330986,31.1032889 53.8802817,31.0023111 53.8802817,30.8686222 C53.8802817,30.7185778 53.8253521,30.5998222 53.7126761,30.5123556 C53.6007042,30.4256 53.4161972,30.3822222 53.156338,30.3822222 L53.0197183,30.3822222 Z M53.0197183,29.0510222 L53.0197183,29.7884444 L53.1633803,29.7884444 C53.3239437,29.7884444 53.443662,29.7543111 53.5211268,29.6860444 C53.5992958,29.6177778 53.6380282,29.5253333 53.6380282,29.4072889 C53.6380282,29.2984889 53.6007042,29.2117333 53.5274648,29.1477333 C53.4528169,29.0837333 53.3408451,29.0510222 53.1894366,29.0510222 L53.0197183,29.0510222 Z M52.3605634,31.9118222 L52.3605634,28.4174222 L52.9049296,28.4174222 C53.2204225,28.4174222 53.4507042,28.4380444 53.5971831,28.4792889 C53.8042254,28.5347556 53.9697183,28.6371556 54.0922535,28.7879111 C54.2140845,28.9379556 54.2753521,29.1157333 54.2753521,29.3205333 C54.2753521,29.4528 54.2478873,29.5736889 54.1922535,29.6817778 C54.1366197,29.7912889 54.0457746,29.8922667 53.9204225,29.9875556 C54.1302817,30.0878222 54.284507,30.2115556 54.3816901,30.3616 C54.4788732,30.5109333 54.5274648,30.688 54.5274648,30.8920889 C54.5274648,31.0890667 54.4767606,31.2682667 54.3767606,31.4296889 C54.2760563,31.5911111 54.1471831,31.712 53.9880282,31.7916444 C53.8288732,31.8712889 53.6105634,31.9118222 53.3309859,31.9118222 L52.3605634,31.9118222 Z" id="Fill-27" fill="#24A1CB"></path>
                <path d="M56.55,29.344 L56.0852113,30.5436444 L57.0112676,30.5436444 L56.55,29.344 Z M56.2112676,28.4174222 L56.8795775,28.4174222 L58.2105634,31.9118222 L57.5260563,31.9118222 L57.2556338,31.1914667 L55.8429577,31.1914667 L55.5612676,31.9118222 L54.8767606,31.9118222 L56.2112676,28.4174222 Z" id="Fill-28" fill="#24A1CB"></path>
                <polyline id="Fill-29" fill="#24A1CB" points="58.7225352 28.4174222 59.3542254 28.4174222 60.8352113 30.7164444 60.8352113 28.4174222 61.493662 28.4174222 61.493662 31.9118222 60.8598592 31.9118222 59.3809859 29.6192 59.3809859 31.9118222 58.7225352 31.9118222 58.7225352 28.4174222"></polyline>
                <polyline id="Fill-30" fill="#24A1CB" points="62.2887324 28.4174222 62.9549296 28.4174222 62.9549296 29.6220444 63.8943662 28.4174222 64.6852113 28.4174222 63.4767606 29.9768889 64.8028169 31.9118222 64.0211268 31.9118222 62.9549296 30.3587556 62.9549296 31.9118222 62.2887324 31.9118222 62.2887324 28.4174222"></polyline>
                <polygon id="Fill-31" fill="#24A1CB" points="65.2246479 31.9118222 65.8788732 31.9118222 65.8788732 28.4174222 65.2246479 28.4174222"></polygon>
                <polyline id="Fill-32" fill="#24A1CB" points="66.6225352 28.4174222 67.2542254 28.4174222 68.7352113 30.7164444 68.7352113 28.4174222 69.393662 28.4174222 69.393662 31.9118222 68.7598592 31.9118222 67.2809859 29.6192 67.2809859 31.9118222 66.6225352 31.9118222 66.6225352 28.4174222"></polyline>
                <path d="M73.3788732,28.9877333 L72.915493,29.4506667 C72.621831,29.1370667 72.2795775,28.9806222 71.8887324,28.9806222 C71.5485915,28.9806222 71.2626761,29.0944 71.0323944,29.3219556 C70.8028169,29.5509333 70.6880282,29.8275556 70.6880282,30.1539556 C70.6880282,30.4910222 70.8070423,30.7768889 71.0457746,31.0108444 C71.284507,31.2462222 71.5788732,31.3628444 71.9295775,31.3628444 C72.1570423,31.3628444 72.3485915,31.3144889 72.5049296,31.2177778 C72.6612676,31.1217778 72.7866197,30.9703111 72.8823944,30.7648 L71.8802817,30.7648 L71.8802817,30.1397333 L73.621831,30.1397333 L73.6260563,30.2869333 C73.6260563,30.592 73.5478873,30.8828444 73.3908451,31.1559111 C73.2338028,31.4304 73.0309859,31.6394667 72.7816901,31.7831111 C72.5323944,31.9281778 72.2394366,32 71.9042254,32 C71.5450704,32 71.2246479,31.9210667 70.9429577,31.7632 C70.6619718,31.6053333 70.4387324,31.3813333 70.2746479,31.0897778 C70.1112676,30.7989333 70.0288732,30.4839111 70.0288732,30.1468444 C70.0288732,29.6839111 70.1802817,29.2821333 70.4830986,28.9393778 C70.8422535,28.5326222 71.3098592,28.3292444 71.8852113,28.3292444 C72.1866197,28.3292444 72.4676056,28.3854222 72.7295775,28.4977778 C72.9514085,28.5930667 73.1669014,28.7559111 73.3788732,28.9877333" id="Fill-33" fill="#24A1CB"></path>
                <polyline id="Fill-34" fill="#24A1CB" points="75.5809859 28.4174222 76.2133803 28.4174222 77.693662 30.7164444 77.693662 28.4174222 78.3528169 28.4174222 78.3528169 31.9118222 77.7183099 31.9118222 76.2401408 29.6192 76.2401408 31.9118222 75.5809859 31.9118222 75.5809859 28.4174222"></polyline>
                <polyline id="Fill-35" fill="#24A1CB" points="79.1450704 28.4174222 81.0338028 28.4174222 81.0338028 29.0680889 79.7985915 29.0680889 79.7985915 29.7002667 81.0338028 29.7002667 81.0338028 30.3388444 79.7985915 30.3388444 79.7985915 31.2583111 81.0338028 31.2583111 81.0338028 31.9118222 79.1450704 31.9118222 79.1450704 28.4174222"></polyline>
                <polyline id="Fill-36" fill="#24A1CB" points="81.3077465 28.4174222 83.2204225 28.4174222 83.2204225 29.0730667 82.5894366 29.0730667 82.5894366 31.9118222 81.921831 31.9118222 81.921831 29.0730667 81.3077465 29.0730667 81.3077465 28.4174222"></polyline>
                <polyline id="Fill-37" fill="#24A1CB" points="83.4091549 28.4174222 84.0577465 28.4174222 84.5577465 30.6481778 85.1753521 28.4174222 85.7239437 28.4174222 86.35 30.6481778 86.8457746 28.4174222 87.493662 28.4174222 86.7140845 31.9118222 86.0816901 31.9118222 85.4443662 29.6526222 84.8183099 31.9118222 84.1929577 31.9118222 83.4091549 28.4174222"></polyline>
                <path d="M89.6338028,28.9806222 C89.3133803,28.9806222 89.0443662,29.0929778 88.8267606,29.3176889 C88.6077465,29.5424 88.4992958,29.8282667 88.4992958,30.1752889 C88.4992958,30.5621333 88.6359155,30.8672 88.9112676,31.0926222 C89.1246479,31.2682667 89.3697183,31.3564444 89.6457746,31.3564444 C89.9584507,31.3564444 90.2246479,31.2419556 90.4443662,31.0136889 C90.6640845,30.7854222 90.7739437,30.5052444 90.7739437,30.1703111 C90.7739437,29.8382222 90.6633803,29.5559111 90.4422535,29.3255111 C90.2204225,29.0958222 89.9507042,28.9806222 89.6338028,28.9806222 Z M89.6415493,28.3292444 C90.1302817,28.3292444 90.5521127,28.5084444 90.9042254,28.8661333 C91.256338,29.2245333 91.4330986,29.6604444 91.4330986,30.1752889 C91.4330986,30.6851556 91.2591549,31.1168 90.9112676,31.4702222 C90.5640845,31.8229333 90.1415493,32 89.6457746,32 C89.1267606,32 88.6943662,31.8179556 88.3514085,31.4552889 C88.0077465,31.0933333 87.8359155,30.6624 87.8359155,30.1632 C87.8359155,29.8289778 87.915493,29.5224889 88.0753521,29.2416 C88.2359155,28.9614222 88.4556338,28.7388444 88.7359155,28.5752889 C89.0161972,28.4110222 89.3176056,28.3292444 89.6415493,28.3292444 Z" id="Fill-38" fill="#24A1CB"></path>
                <path d="M92.7577465,29.7834667 L92.9640845,29.7834667 C93.1732394,29.7834667 93.3176056,29.7557333 93.3964789,29.7002667 C93.4753521,29.6440889 93.5147887,29.5523556 93.5147887,29.4236444 C93.5147887,29.3475556 93.4957746,29.2807111 93.456338,29.2245333 C93.4169014,29.1683556 93.3647887,29.1271111 93.2985915,29.1029333 C93.2338028,29.0787556 93.1133803,29.0659556 92.9380282,29.0659556 L92.7577465,29.0659556 L92.7577465,29.7834667 Z M92.0985915,28.4174222 L92.7964789,28.4174222 C93.178169,28.4174222 93.4507042,28.4515556 93.6133803,28.5212444 C93.7753521,28.5895111 93.9056338,28.704 94.0042254,28.864 C94.1028169,29.024 94.1521127,29.2131556 94.1521127,29.4321778 C94.1521127,29.6611556 94.0978873,29.8538667 93.9887324,30.0074667 C93.8802817,30.1624889 93.715493,30.2791111 93.4964789,30.3580444 L94.3161972,31.9118222 L93.5957746,31.9118222 L92.8176056,30.432 L92.7577465,30.432 L92.7577465,31.9118222 L92.0985915,31.9118222 L92.0985915,28.4174222 Z" id="Fill-39" fill="#24A1CB"></path>
                <g id="Group-43" transform="translate(0.000000, 8.533333)">
                    <mask id="mask-4" fill="white">
                        <use xlink:href="#path-3"></use>
                    </mask>
                    <g id="Clip-41"></g>
                    <polyline id="Fill-40" fill="#24A1CB" mask="url(#mask-4)" points="94.8535211 19.8840889 95.5197183 19.8840889 95.5197183 21.0887111 96.4591549 19.8840889 97.25 19.8840889 96.0415493 21.4435556 97.3676056 23.3784889 96.5859155 23.3784889 95.5197183 21.8254222 95.5197183 23.3784889 94.8535211 23.3784889 94.8535211 19.8840889"></polyline>
                    <polyline id="Fill-42" fill="#000105" mask="url(#mask-4)" points="0 0.225422222 3.52253521 0.225422222 3.52253521 15.5192889 8.65492958 15.5192889 8.65492958 18.9112889 0 18.9112889 0 0.225422222"></polyline>
                </g>
                <path d="M42.6746479,16.4693333 C41.5929577,16.4693333 40.6957746,16.8426667 39.9823944,17.5864889 C39.2697183,18.3324444 38.9133803,19.3059556 38.9133803,20.5091556 C38.9133803,21.7365333 39.2697183,22.7299556 39.9823944,23.4872889 C40.6957746,24.2460444 41.5929577,24.6243556 42.6746479,24.6243556 C43.7232394,24.6243556 44.6056338,24.2389333 45.3225352,23.4688 C46.0401408,22.6979556 46.3985915,21.7152 46.3985915,20.5212444 C46.3985915,19.3358222 46.0464789,18.3637333 45.3415493,17.6064 C44.6373239,16.8483556 43.7485915,16.4693333 42.6746479,16.4693333 Z M39.0647887,8.28871111 L39.0647887,15.1480889 C39.6852113,14.5216 40.3556338,14.0515556 41.0774648,13.7379556 C41.7985915,13.4250667 42.5697183,13.2679111 43.3922535,13.2679111 C45.178169,13.2679111 46.6964789,13.9498667 47.9457746,15.3130667 C49.1950704,16.6769778 49.8204225,18.4256 49.8204225,20.5596444 C49.8204225,22.6176 49.1746479,24.3392 47.8830986,25.7230222 C46.5915493,27.1075556 45.0605634,27.8001778 43.2915493,27.8001778 C42.5028169,27.8001778 41.7690141,27.6586667 41.0901408,27.3742222 C40.4105634,27.0912 39.7352113,26.6268444 39.0647887,25.9832889 L39.0647887,27.4446222 L35.6556338,27.4446222 L35.6556338,8.28871111 L39.0647887,8.28871111 Z" id="Fill-44" fill="#000105"></path>
                <path d="M57.1190141,16.4693333 C56.0577465,16.4693333 55.1760563,16.8483556 54.4739437,17.6064 C53.7711268,18.3637333 53.4204225,19.3358222 53.4204225,20.5212444 C53.4204225,21.7152 53.7774648,22.6979556 54.4922535,23.4688 C55.2077465,24.2389333 56.0873239,24.6243556 57.1316901,24.6243556 C58.2098592,24.6243556 59.1042254,24.2460444 59.8147887,23.4872889 C60.5246479,22.7299556 60.8802817,21.7365333 60.8802817,20.5091556 C60.8802817,19.3059556 60.5246479,18.3324444 59.8147887,17.5864889 C59.1042254,16.8426667 58.2056338,16.4693333 57.1190141,16.4693333 Z M60.7288732,13.6234667 L64.1633803,13.6234667 L64.1633803,27.4446222 L60.7288732,27.4446222 L60.7288732,25.9832889 C60.0591549,26.6268444 59.3866197,27.0912 58.7126761,27.3742222 C58.0380282,27.6586667 57.3077465,27.8001778 56.5204225,27.8001778 C54.7528169,27.8001778 53.2239437,27.1075556 51.9338028,25.7230222 C50.643662,24.3392 49.9985915,22.6176 49.9985915,20.5596444 C49.9985915,18.4256 50.6225352,16.6769778 51.8711268,15.3130667 C53.1190141,13.9498667 54.6352113,13.2679111 56.4197183,13.2679111 C57.2401408,13.2679111 58.0112676,13.4250667 58.7309859,13.7379556 C59.4521127,14.0515556 60.1176056,14.5216 60.7288732,15.1480889 L60.7288732,13.6234667 Z" id="Fill-45" fill="#000105"></path>
                <path d="M65.6007042,13.6234667 L69.034507,13.6234667 L69.034507,15.04 C69.8140845,14.3772444 70.5190141,13.9157333 71.1514085,13.6568889 C71.7838028,13.3980444 72.4309859,13.2679111 73.0922535,13.2679111 C74.4492958,13.2679111 75.6007042,13.7464889 76.5464789,14.7036444 C77.3422535,15.5164444 77.7401408,16.7196444 77.7401408,18.3111111 L77.7401408,27.4446222 L74.3429577,27.4446222 L74.3429577,21.3923556 C74.3429577,19.7432889 74.2704225,18.6481778 74.1239437,18.1063111 C73.9774648,17.5644444 73.7225352,17.1527111 73.3584507,16.8689778 C72.993662,16.5852444 72.5450704,16.4437333 72.0091549,16.4437333 C71.3147887,16.4437333 70.7183099,16.6784 70.2211268,17.1477333 C69.7232394,17.6177778 69.378169,18.2663111 69.1852113,19.0961778 C69.0852113,19.5271111 69.034507,20.4615111 69.034507,21.9000889 L69.034507,27.4446222 L65.6007042,27.4446222 L65.6007042,13.6234667" id="Fill-46" fill="#000105"></path>
                <path d="M89.3042254,18.8067556 C89.0767606,18.0359111 88.6295775,17.4094222 87.9605634,16.9265778 C87.2929577,16.4437333 86.5183099,16.2026667 85.6366197,16.2026667 C84.678169,16.2026667 83.8387324,16.4736 83.1161972,17.0154667 C82.6626761,17.3539556 82.2422535,17.9512889 81.8556338,18.8067556 L89.3042254,18.8067556 Z M92.7373239,21.5374222 L81.7049296,21.5374222 C81.8640845,22.5201778 82.2901408,23.3016889 82.9816901,23.8812444 C83.6732394,24.4615111 84.556338,24.7516444 85.6302817,24.7516444 C86.9133803,24.7516444 88.015493,24.2986667 88.9387324,23.3927111 L91.8316901,24.7637333 C91.1112676,25.7969778 90.2471831,26.5621333 89.2408451,27.0570667 C88.2338028,27.552 87.0387324,27.8001778 85.6549296,27.8001778 C83.5077465,27.8001778 81.7598592,27.1168 80.4098592,25.7486222 C79.0591549,24.3811556 78.384507,22.6680889 78.384507,20.6101333 C78.384507,18.5024 79.0570423,16.7509333 80.4028169,15.3578667 C81.7492958,13.9648 83.4366197,13.2679111 85.4661972,13.2679111 C87.621831,13.2679111 89.3739437,13.9648 90.7246479,15.3578667 C92.0753521,16.7509333 92.7507042,18.5912889 92.7507042,20.8768 L92.7373239,21.5374222 Z" id="Fill-47" fill="#000105"></path>
                <polyline id="Fill-48" fill="#000105" points="93.8978873 8.52977778 97.3323944 8.52977778 97.3323944 13.6234667 99.3697183 13.6234667 99.3697183 16.6094222 97.3323944 16.6094222 97.3323944 27.4446222 93.8978873 27.4446222 93.8978873 16.6094222 92.1366197 16.6094222 92.1366197 13.6234667 93.8978873 13.6234667 93.8978873 8.52977778"></polyline>
                <path d="M24.9697183,2.08782222 C24.9697183,2.08782222 23.4605634,2.54648889 21.2239437,3.33937778 C18.9922535,4.13866667 16.0288732,5.27075556 13.1957746,6.70506667 C12.4922535,7.07057778 11.7957746,7.45173333 11.1260563,7.85564444 C10.4591549,8.26453333 9.82535211,8.70115556 9.23661972,9.16053333 C8.65422535,9.62844444 8.13309859,10.1312 7.7443662,10.6979556 C7.35352113,11.2597333 7.13239437,11.8954667 7.10422535,12.5105778 C7.05915493,13.1221333 7.19788732,13.6881778 7.36760563,14.1582222 C7.54225352,14.6311111 7.76619718,15.0115556 7.96197183,15.3130667 C8.36338028,15.9125333 8.65492958,16.2026667 8.65492958,16.2026667 C8.65492958,16.2026667 8.34929577,15.9317333 7.91408451,15.3514667 C7.70070423,15.0599111 7.4528169,14.6887111 7.24788732,14.2136889 C7.04859155,13.7408 6.87112676,13.1605333 6.88450704,12.4992 C6.87887324,11.8456889 7.08591549,11.1260444 7.47535211,10.4995556 C7.85915493,9.8688 8.38521127,9.30346667 8.9584507,8.78791111 C9.54084507,8.27733333 10.1690141,7.78951111 10.8288732,7.33155556 C11.4908451,6.87786667 12.1788732,6.44835556 12.8753521,6.03377778 C15.6739437,4.40604444 18.6056338,3.08622222 20.8176056,2.14328889 C23.0316901,1.20888889 24.534507,0.653511111 24.534507,0.653511111 L24.9697183,2.08782222" id="Fill-49" fill="#287CAB"></path>
                <path d="M25.6197183,3.82933333 C25.6197183,3.82933333 25.3971831,3.8848 25.0091549,3.98151111 C24.6204225,4.07111111 24.0647887,4.1984 23.3985915,4.35128889 C22.078169,4.65066667 20.3267606,5.06168889 18.5943662,5.55591111 C16.8605634,6.0416 15.15,6.61688889 13.8859155,7.10542222 C13.256338,7.35431111 12.7302817,7.56337778 12.3690141,7.72551111 C12.0049296,7.88195556 11.7971831,7.97155556 11.7971831,7.97155556 C11.7971831,7.97155556 11.9957746,7.86204444 12.3429577,7.67004444 C12.6873239,7.47306667 13.1908451,7.21351111 13.7978873,6.90204444 C15.0140845,6.28906667 16.6746479,5.54168889 18.3711268,4.88177778 C20.0647887,4.21333333 21.7901408,3.62453333 23.0816901,3.19502222 C23.7204225,2.98026667 24.2528169,2.80177778 24.6253521,2.67733333 C24.9943662,2.54506667 25.2049296,2.4704 25.2049296,2.4704 L25.6197183,3.82933333" id="Fill-50" fill="#287CAB"></path>
                <path d="M32.1464789,30.4170667 C32.1464789,30.8984889 27.4697183,31.2888889 21.7007042,31.2888889 C15.9309859,31.2888889 11.2542254,30.8984889 11.2542254,30.4170667 C11.2542254,29.9356444 15.9309859,29.5452444 21.7007042,29.5452444 C27.4697183,29.5452444 32.1464789,29.9356444 32.1464789,30.4170667" id="Fill-51" fill="#7DCBE1"></path>
                <path d="M27.856338,30.4170667 C27.856338,30.7008 25.1,30.9312 21.7007042,30.9312 C18.3007042,30.9312 15.5443662,30.7008 15.5443662,30.4170667 C15.5443662,30.1333333 18.3007042,29.9036444 21.7007042,29.9036444 C25.1,29.9036444 27.856338,30.1333333 27.856338,30.4170667" id="Fill-52" fill="#24A1CB"></path>
                <path d="M24.9697183,30.4170667 C24.9697183,30.5678222 23.5056338,30.6901333 21.7007042,30.6901333 C19.8950704,30.6901333 18.4309859,30.5678222 18.4309859,30.4170667 C18.4309859,30.2663111 19.8950704,30.144 21.7007042,30.144 C23.5056338,30.144 24.9697183,30.2663111 24.9697183,30.4170667" id="Fill-53" fill="#287CAB"></path>
            </g>
        </g>
    </g>
</svg>