<?xml version="1.0" encoding="UTF-8"?>
<svg width="80px" height="19px" viewBox="0 0 80 19" version="1.1" xmlns="http://www.w3.org/2000/svg" xmlns:xlink="http://www.w3.org/1999/xlink">
    <!-- Generator: Sketch 49.1 (51147) - http://www.bohemiancoding.com/sketch -->
    <title>neoserf  copy</title>
    <desc>Created with Sketch.</desc>
    <defs></defs>
    <g id="Page-1" stroke="none" stroke-width="1" fill="none" fill-rule="evenodd">
        <g id="m7-withdraw-balance-0-1366" transform="translate(-963.000000, -1623.000000)" fill="#FFFFFF">
            <g id="neoserf--copy" transform="translate(963.000000, 1623.000000)">
                <path d="M79.9607477,0.0600934579 C79.9607477,0.0600934579 79.8451402,0.046635514 79.625514,0.043271028 C79.0357944,0.0343925234 78.4458879,0.0414018692 77.8560748,0.0382242991 C75.9375701,0.0280373832 74.461028,0.746728972 73.2286916,2.3064486 C72.698785,2.97719626 72.5795327,3.72719626 72.5757009,4.50953271 C72.5536449,9.00158879 72.5748598,13.4938318 72.5602804,17.9859813 C72.5594393,18.2252336 72.59,18.381215 72.8723364,18.3807477 C74.101028,18.3788785 75.3297196,18.3556075 76.5582243,18.3749533 C76.9252336,18.3807477 76.911028,17.8769159 76.9113084,17.7325234 C76.9162617,15.1537383 76.9136449,12.5748598 76.9173832,9.99607477 C76.9176636,9.79280374 76.9046729,9.42943925 76.8980374,9.35308411 C77.5004673,9.34280374 78.1963551,9.33327103 78.7986916,9.32158879 C78.9656075,9.31841121 79.1031776,9.31943925 79.3200935,9.32420561 C79.3200935,9.0788785 79.341028,5.43401869 79.341028,5.43401869 L76.9252336,5.43523364 C76.9252336,5.43523364 76.9285981,5.2788785 76.9275701,4.9564486 C76.9252336,4.19570093 77.3162617,3.95028037 77.7138318,3.91485981 C78.5370093,3.93663551 79.9607477,3.93869159 79.9607477,3.93869159 L79.9607477,0.0600934579" id="Fill-1"></path>
                <path d="M14.741215,10.6279439 C15.1593458,8.99168224 15.9806542,7.61 17.354486,6.60121495 C20.3947664,4.3688785 24.4125234,5.03971963 26.6156075,8.13672897 C26.8137383,8.41523364 26.9759813,8.71990654 27.1817757,8.99205607 C27.3876636,9.26439252 27.2926168,9.41168224 27.0431776,9.58196262 C25.1669159,10.8627103 23.2945794,12.1493458 21.4302804,13.4473832 C21.178785,13.6224299 21.0482243,13.617757 20.8859813,13.3465421 C20.5107477,12.7192523 20.1215888,12.0990654 19.7097196,11.4953271 C19.5323364,11.2353271 19.5706542,11.1158879 19.8292523,10.9506542 C20.8371963,10.3062617 21.8297196,9.63785047 22.8315888,8.97598131 C22.173271,8.31327103 20.7598131,8.3117757 19.9028037,8.95691589 C18.1505607,10.2760748 18.2618692,13.357757 20.1049533,14.541215 C20.8583178,15.0249533 21.6602804,15.0551402 22.4759813,14.7509346 C23.6057944,14.3295327 24.4209346,13.536729 24.9834579,12.4874766 C25.141215,12.1931776 25.2556075,12.1149533 25.5750467,12.293271 C26.3354206,12.7175701 27.118972,13.1014019 27.8998131,13.4880374 C28.1042056,13.5892523 28.1735514,13.6791589 28.0691589,13.9117757 C26.6288785,17.1194393 23.1585981,19.3333645 19.5023364,18.3619626 C17.0185047,17.7019626 15.0588785,15.4438318 14.711028,12.8778505 C14.6966355,12.7715888 14.5528972,11.2646729 14.741215,10.6279439" id="Fill-3"></path>
                <path d="M56.1157009,5.5811215 C56.318785,5.71 56.2449533,5.91579439 56.2453271,6.09158879 C56.2503738,8.14420561 56.2480374,10.1969159 56.2513084,12.2496262 C56.2515888,12.4342056 56.3379439,13.3982243 56.4716822,13.6952336 C56.7361682,14.2825234 57.176729,14.6003738 57.8120561,14.5470093 C58.3711215,14.5000935 58.8862617,14.0105607 58.9695327,13.437757 C59.0051402,13.1924299 59.0191589,12.9452336 59.0186916,12.6959813 C59.0152336,10.5830841 59.0157009,8.47028037 59.0184112,6.35738318 C59.0186916,6.15813084 58.9696262,5.57028037 59.2966355,5.58327103 C60.1152336,5.56850467 62.5103738,5.46345794 63.0268224,5.5871028 C63.1431776,5.69700935 63.1271028,5.84121495 63.1269159,5.98018692 C63.1242991,8.40803738 63.1535514,10.8364486 63.1063551,13.2634579 C63.0756075,14.8415888 62.5540187,16.2516822 61.3400935,17.34 C60.9062617,17.7288785 60.4162617,18.0254206 59.8694393,18.2211215 C57.8581308,18.9406542 54.9141121,18.7395327 53.3729907,16.6546729 C52.1445794,15.3288785 52.15,13.0099065 52.1499065,12.9048598 C52.1481308,10.6007477 52.1481308,8.29654206 52.1498131,5.99242991 C52.1499065,5.88700935 52.1185981,5.77224299 52.2076636,5.68186916 C52.2391589,5.6511215 52.2707477,5.62037383 52.3023364,5.58953271 C52.6590654,5.5364486 55.122243,5.52869159 56.1157009,5.5811215" id="Fill-4"></path>
                <path d="M51.0686916,15.7520561 C50.3846729,17.5848598 48.9318692,18.2353271 47.1165421,18.2738318 C45.6254206,18.3054206 44.1331776,18.2817757 42.6414953,18.281215 C42.4884112,18.2811215 42.3271963,18.3079439 42.2006542,18.1836449 C42.0851402,17.6959813 42.1678505,17.2013084 42.1519626,16.7100935 C42.1343925,16.1666355 42.1845794,15.6193458 42.1333645,15.0793458 C42.1004673,14.7337383 42.2354206,14.6853271 42.5205607,14.6876636 C43.5773832,14.6966355 44.634486,14.6873832 45.6914019,14.6940187 C45.9419626,14.6956075 46.1862617,14.6584112 46.4324299,14.6290654 C46.6262617,14.6059813 46.7939252,14.5469159 46.8452336,14.3209346 C46.8975701,14.0903738 46.8049533,13.9262617 46.626729,13.7998131 C46.3725234,13.6195327 46.088785,13.4956075 45.8,13.3820561 C45.7128037,13.347757 45.6383178,13.2899065 45.5639252,13.2334579 C44.975514,12.9273832 44.3428972,12.7091589 43.8057944,12.301028 C42.5565421,11.3517757 42.187757,10.0495327 42.4156075,8.58280374 C42.6403738,7.13635514 43.6046729,6.28588785 44.9596262,5.84158879 C45.1054206,5.79373832 45.6673832,5.52869159 46.241028,5.54280374 C47.5414019,5.51953271 48.8423364,5.53196262 50.1429907,5.53242991 C50.2066355,5.53242991 50.2654206,5.54364486 50.3183178,5.58 C50.5598131,5.67271028 50.491028,5.88336449 50.4917757,6.05925234 C50.4960748,7.03738318 50.4941121,7.94878505 50.4942991,8.92700935 C50.4883178,9.11392523 50.2129907,9.07242991 50.0729907,9.07672897 C48.9892523,9.10990654 47.9039252,9.02906542 46.8209346,9.12224299 C46.5748598,9.15429907 46.4245794,9.29401869 46.3913084,9.53747664 C46.3560748,9.79485981 46.522243,9.9464486 46.7220561,10.0501869 C47.0940187,10.2434579 47.4709346,10.4280374 47.8528972,10.6007477 C48.4914953,10.8895327 49.1271963,11.1817757 49.708785,11.5783178 C50.3707477,12.0295327 50.8371963,12.6369159 51.1468224,13.3704673 C51.4137383,14.1739252 51.3703738,14.9671963 51.0686916,15.7520561" id="Fill-6"></path>
                <path d="M68.6723364,12.4233645 C68.6688785,14.2288785 68.6621495,16.0343925 68.6754206,17.8398131 C68.6779439,18.1806542 68.5873832,18.2982243 68.2296262,18.2906542 C67.1406542,18.2675701 66.0506542,18.2728037 64.9613084,18.2885981 C64.6381308,18.2933645 64.4960748,18.234486 64.4972897,17.8603738 C64.51,13.9070093 64.5033645,9.9535514 64.5057009,6.00018692 C64.5057009,5.86308411 64.5433645,5.72607477 64.5634579,5.58906542 C65.0030841,5.46 65.4521495,5.54841121 65.8963551,5.53663551 C66.5321495,5.51981308 67.1688785,5.53897196 67.8049533,5.52962617 C68.1194393,5.52495327 68.2520561,5.6335514 68.2300935,5.97056075 C68.2066355,6.33186916 68.1863551,6.70149533 68.2600935,7.06775701 C68.4198131,7.04635514 68.4480374,6.90934579 68.5506542,6.87345794 C69.2868224,5.82214953 70.3897196,5.64401869 71.5542056,5.60943925 C71.7173832,5.6046729 71.8261682,5.64401869 71.8249533,5.83542056 C71.8176636,6.99953271 71.8135514,8.16373832 71.8039252,9.32794393 C71.8036449,9.3653271 71.7545794,9.40224299 71.7283178,9.43943925 C71.2042991,9.64158879 70.6380374,9.58009346 70.0962617,9.71598131 C69.1329907,9.95747664 68.7368224,10.6108411 68.6857009,11.4291589 C68.6774766,11.5609346 68.6727103,12.2230841 68.6723364,12.4233645" id="Fill-7"></path>
                <path d="M35.053271,14.63 C33.642243,14.6138318 32.5481308,13.4152336 32.5640187,11.9029907 C32.5796262,10.4239252 33.7017757,9.26224299 35.101028,9.27663551 C36.5142056,9.29121495 37.6204673,10.4564486 37.6150467,11.9246729 C37.6092523,13.4656075 36.4909346,14.6465421 35.053271,14.63 Z M35.0931776,5.30056075 C31.5484112,5.28878505 28.5598131,8.34121495 28.5540187,11.9792523 C28.5484112,15.5486916 31.5295327,18.5746729 35.0597196,18.5828037 C38.6239252,18.591028 41.6134579,15.5871028 41.6228972,11.9881308 C41.6323364,8.35392523 38.6626168,5.31233645 35.0931776,5.30056075 Z" id="Fill-8"></path>
                <path d="M0.521775701,18.3826168 C1.4717757,18.3699065 2.42196262,18.3837383 3.37205607,18.3804673 C3.57242991,18.3798131 3.77981308,18.4121495 3.9635514,18.2928972 C4.08336449,18.1078505 4.03962617,17.8996262 4.03981308,17.7007477 C4.04224299,14.8511215 4.04093458,12.0014953 4.04065421,9.15186916 C4.04056075,8.90345794 4.04065421,8.65504673 4.12971963,8.37383178 C4.48542056,9.04971963 4.84149533,9.72542056 5.19682243,10.4014953 C6.31859813,12.5359813 7.37317757,14.7057944 8.56261682,16.8045794 C8.68485981,17.0202804 8.83523364,17.2213084 8.98476636,17.4199065 C10.134486,18.9465421 12.1480374,18.716729 12.938972,17.5360748 C13.2,17.1462617 13.351215,16.7963551 13.3526168,16.3966355 C13.3704673,11.3874766 13.3649533,6.37831776 13.3642991,1.36915888 C13.3642991,1.30523364 13.3528972,1.24626168 13.3154206,1.1935514 C12.0078505,1.18457944 10.7001869,1.18168224 9.39271028,1.16271028 C9.00102804,1.15700935 9.08065421,1.42700935 9.08046729,1.64317757 C9.07728972,4.1664486 9.08009346,6.68971963 9.07813084,9.21299065 C9.07794393,9.44495327 9.05523364,9.67691589 9.04299065,9.90897196 C8.91971963,9.83065421 6.76336449,5.70551402 6.10579439,4.41906542 C5.76579439,3.75383178 5.4471028,3.07691589 5.08504673,2.42401869 C4.22607477,0.875233645 2.1528972,0.37411215 0.726074766,1.34364486 C0.481214953,1.51009346 0.0299065421,1.96439252 0.0380373832,2.43158879 C0.028317757,3.79635514 0,18.0390654 0,18.0390654 C0,18.0390654 0,18.3896262 0.521775701,18.3826168" id="Fill-10"></path>
            </g>
        </g>
    </g>
</svg>