<?xml version="1.0" encoding="UTF-8"?>
<svg width="81px" height="14px" viewBox="0 0 81 14" version="1.1" xmlns="http://www.w3.org/2000/svg" xmlns:xlink="http://www.w3.org/1999/xlink">
    <!-- Generator: Sketch 49.1 (51147) - http://www.bohemiancoding.com/sketch -->
    <title>neteller</title>
    <desc>Created with Sketch.</desc>
    <defs></defs>
    <g id="Page-1" stroke="none" stroke-width="1" fill="none" fill-rule="evenodd">
        <g id="m7-withdraw-balance-0-1366" transform="translate(-202.000000, -1331.000000)" fill="#7BB928">
            <path d="M277.737095,1337.10956 C277.276496,1337.43066 276.608013,1337.58941 275.693322,1337.58941 L275.296354,1337.58941 L274.786224,1337.58941 L275.481823,1333.83204 L275.834322,1333.83204 L276.14886,1333.83204 C276.908089,1333.83204 277.462688,1333.95426 277.844833,1334.20231 C278.143463,1334.39685 278.497409,1334.78196 278.497409,1335.51275 C278.497409,1336.39324 278.085617,1336.86693 277.737095,1337.10956 L277.737095,1337.10956 Z M223.625018,1341.82517 L216.60504,1341.82517 L217.05877,1339.36919 L221.461938,1339.36919 L221.962306,1336.60297 L217.601438,1336.60297 L218.022991,1334.1723 L225.030677,1334.1723 L223.625018,1341.82517 L223.625018,1341.82517 Z M281.51878,1332.06418 C280.486589,1331.35654 278.924746,1331 276.876997,1331 L271.513946,1331 L269.520427,1341.82553 L262.495025,1341.82553 L262.945501,1339.36955 L267.178024,1339.36955 L267.681284,1336.61092 L263.451293,1336.61851 L263.904299,1334.17302 L268.262998,1334.17302 L268.842905,1331.00036 L259.988846,1331.00036 L258.096557,1341.27011 L254.849948,1341.27011 L256.755975,1331.00036 L252.127208,1331.00036 L250.234919,1341.27011 L247.069295,1341.27011 L248.977129,1331.00036 L244.353062,1331.00036 L242.354481,1341.82589 L235.279187,1341.82589 L235.724963,1339.36992 L239.976647,1339.36992 L240.477377,1336.62719 L236.232201,1336.62321 L236.683038,1334.17302 L241.090183,1334.17302 L241.667198,1331.00036 L214.082953,1331.00036 L212.512794,1339.57928 L209.38477,1331 L204.58391,1331 L202,1345 L206.58466,1345 L208.148311,1336.18532 L211.184143,1345 L227.616757,1345 L229.614253,1334.17266 L232.185509,1334.17266 L230.186928,1345 L273.426119,1345 L274.678486,1338.16471 L276.70852,1345 L281.295711,1345 L279.194092,1339.41511 L279.673853,1339.31134 C280.730989,1339.08498 281.558549,1338.59718 282.132671,1337.86639 C282.707877,1337.12873 283,1336.1817 283,1335.04411 C283.000361,1333.71922 282.516624,1332.74507 281.51878,1332.06418 L281.51878,1332.06418 Z" id="neteller"></path>
        </g>
    </g>
</svg>