<?xml version="1.0" encoding="UTF-8"?>
<svg width="81px" height="14px" viewBox="0 0 81 14" version="1.1" xmlns="http://www.w3.org/2000/svg" xmlns:xlink="http://www.w3.org/1999/xlink">
    <!-- Generator: Sketch 49.1 (51147) - http://www.bohemiancoding.com/sketch -->
    <title>Shape Copy 9</title>
    <desc>Created with Sketch.</desc>
    <defs></defs>
    <g id="Page-1" stroke="none" stroke-width="1" fill="none" fill-rule="evenodd">
        <g id="m7-withdraw-balance-0-1366" transform="translate(-399.000000, -1333.000000)" fill="#FFFFFF">
            <path d="M474.737095,1339.10956 C474.276496,1339.43066 473.608013,1339.58941 472.693322,1339.58941 L472.296354,1339.58941 L471.786224,1339.58941 L472.481823,1335.83204 L472.834322,1335.83204 L473.14886,1335.83204 C473.908089,1335.83204 474.462688,1335.95426 474.844833,1336.20231 C475.143463,1336.39685 475.497409,1336.78196 475.497409,1337.51275 C475.497409,1338.39324 475.085617,1338.86693 474.737095,1339.10956 L474.737095,1339.10956 Z M420.625018,1343.82517 L413.60504,1343.82517 L414.05877,1341.36919 L418.461938,1341.36919 L418.962306,1338.60297 L414.601438,1338.60297 L415.022991,1336.1723 L422.030677,1336.1723 L420.625018,1343.82517 L420.625018,1343.82517 Z M478.51878,1334.06418 C477.486589,1333.35654 475.924746,1333 473.876997,1333 L468.513946,1333 L466.520427,1343.82553 L459.495025,1343.82553 L459.945501,1341.36955 L464.178024,1341.36955 L464.681284,1338.61092 L460.451293,1338.61851 L460.904299,1336.17302 L465.262998,1336.17302 L465.842905,1333.00036 L456.988846,1333.00036 L455.096557,1343.27011 L451.849948,1343.27011 L453.755975,1333.00036 L449.127208,1333.00036 L447.234919,1343.27011 L444.069295,1343.27011 L445.977129,1333.00036 L441.353062,1333.00036 L439.354481,1343.82589 L432.279187,1343.82589 L432.724963,1341.36992 L436.976647,1341.36992 L437.477377,1338.62719 L433.232201,1338.62321 L433.683038,1336.17302 L438.090183,1336.17302 L438.667198,1333.00036 L411.082953,1333.00036 L409.512794,1341.57928 L406.38477,1333 L401.58391,1333 L399,1347 L403.58466,1347 L405.148311,1338.18532 L408.184143,1347 L424.616757,1347 L426.614253,1336.17266 L429.185509,1336.17266 L427.186928,1347 L470.426119,1347 L471.678486,1340.16471 L473.70852,1347 L478.295711,1347 L476.194092,1341.41511 L476.673853,1341.31134 C477.730989,1341.08498 478.558549,1340.59718 479.132671,1339.86639 C479.707877,1339.12873 480,1338.1817 480,1337.04411 C480.000361,1335.71922 479.516624,1334.74507 478.51878,1334.06418 L478.51878,1334.06418 Z" id="Shape-Copy-9"></path>
        </g>
    </g>
</svg>