<?xml version="1.0" encoding="UTF-8" standalone="no"?>
<svg width="102px" height="31px" viewBox="0 0 102 31" version="1.1" xmlns="http://www.w3.org/2000/svg" xmlns:xlink="http://www.w3.org/1999/xlink">
    <!-- Generator: Sketch 50.2 (55047) - http://www.bohemiancoding.com/sketch -->
    <title>paypost</title>
    <desc>Created with Sketch.</desc>
    <defs></defs>
    <g id="Page-1" stroke="none" stroke-width="1" fill="none" fill-rule="evenodd">
        <g id="withdraw-" transform="translate(-756.000000, -2816.000000)" fill-rule="nonzero">
            <g id="paypost" transform="translate(757.000000, 2817.000000)">
                <path d="M47.9799427,29.6676218 C25.1507433,29.6676218 14.9973387,29.6700103 2.30659026,29.6819484 C0.724066803,29.6819484 -0.556344117,28.672961 -0.900448971,27.1544113 C-0.972294817,26.8567642 -0.990848276,26.5599089 -0.971321744,26.2363264 C-0.96035226,26.0545463 -0.944132684,25.9199707 -0.903369849,25.6300162 C-0.896691011,25.5825062 -0.896691011,25.5825062 -0.889299906,25.5294126 C-0.841745429,25.2024756 -0.803371,24.9368566 -0.718146843,24.3456141 C-0.631542937,23.7447995 -0.593298125,23.4800737 -0.544438524,23.144331 C-0.491349831,22.7963051 -0.450461373,22.5148266 -0.359577001,21.878636 C-0.267796617,21.2361733 -0.226306851,20.9505553 -0.172967528,20.6010458 L0.170872013,18.237149 C0.218710926,17.9082565 0.256957766,17.6471022 0.342980693,17.0610711 C0.428396654,16.4791701 0.468114647,16.2079325 0.514711555,15.8875788 C0.562550467,15.5586863 0.600797308,15.297532 0.686820235,14.7115009 C0.772382271,14.1285924 0.812993722,13.8512155 0.858551097,13.5380086 C0.90622432,13.2102552 0.944388295,12.9460889 1.03028694,12.3501671 C1.11630807,11.7533955 1.15455288,11.4886697 1.20239064,11.1597851 L1.54623018,8.79588823 C1.59406909,8.46699571 1.63231593,8.2058415 1.71833886,7.61981031 C1.8042357,7.03463807 1.84239765,6.77406353 1.89006972,6.44631803 C1.93790863,6.11742551 1.97615547,5.8562713 2.0621784,5.27024011 C2.14807524,4.68506787 2.18623719,4.42449332 2.23396272,4.09638079 C2.25628859,3.94328911 2.27201817,3.82043117 2.30748702,3.53025393 C2.40280774,2.7504175 2.46070154,2.38995324 2.59063481,1.92024801 C3.05518078,0.27498103 4.66344655,-0.928366762 6.37535817,-0.928366762 L97.6934097,-0.928366762 C99.2695863,-0.928366762 100.534098,0.0727051609 100.907627,1.63120528 C101.010132,2.12664732 100.991786,2.48134333 100.88865,3.22856968 C100.835005,3.58620195 100.792064,3.87426138 100.695419,4.52393198 C100.663181,4.74064455 100.663181,4.74064455 100.63093,4.95731272 C100.580738,5.2944033 100.540574,5.56340343 100.503826,5.80771611 C100.403253,6.54944457 100.293839,7.29345903 100.129988,8.36743555 C100.034309,9.02522869 99.9578128,9.54396575 99.7877895,10.690903 C99.6873201,11.4444237 99.5782297,12.1987058 99.4126334,13.3026605 C99.3595447,13.6506863 99.3186562,13.9321648 99.2277718,14.5683555 C99.1359915,15.2108181 99.0945017,15.4964361 99.0411624,15.8459456 C99.0067145,16.0827744 98.9837446,16.239895 98.9263815,16.6313449 C98.8977105,16.8267988 98.8977105,16.8267988 98.8690537,17.0220235 C98.7831568,17.6071957 98.7449949,17.8677703 98.6973228,18.1955158 C98.6494839,18.5244083 98.6112371,18.7855625 98.5252141,19.3715937 C98.4393173,19.9567659 98.4011554,20.2173405 98.3534833,20.545086 L98.0096437,22.9089828 C97.9781867,23.1252501 97.9536974,23.2990453 97.8990518,23.6910677 C97.7881251,24.4868464 97.7364251,24.8422836 97.6633232,25.289011 C97.6462676,25.3941873 97.6337226,25.4839643 97.6069759,25.6862999 C97.5998749,25.7400251 97.5998749,25.7400251 97.5925513,25.7949529 C97.5186869,26.3464733 97.4524199,26.6808204 97.3131069,27.0665121 C96.7374097,28.6208945 95.2303417,29.6676218 93.5673352,29.6676218 L47.9799427,29.6676218 Z" id="Shape" fill="#FFFFFF"></path>
                <path d="M47.9799427,28.6676218 C32.7507163,28.6676218 17.52149,28.6676218 2.30659026,28.6676218 C1.18911175,28.6676218 0.329512894,27.9799427 0.0716332378,26.9054441 C-0.0286532951,26.4899713 0.0429799427,26.0744986 0.100286533,25.6590258 C0.214899713,24.8710602 0.329512894,24.0687679 0.444126074,23.2808023 C0.573065903,22.4355301 0.687679083,21.5759312 0.816618911,20.730659 C0.931232092,19.9426934 1.04584527,19.1547278 1.16045845,18.3667622 C1.27507163,17.5787966 1.38968481,16.8051576 1.50429799,16.017192 C1.61891117,15.2292264 1.73352436,14.4555874 1.84813754,13.6676218 C1.96275072,12.8796562 2.0773639,12.0773639 2.19197708,11.2893983 C2.30659026,10.5014327 2.42120344,9.71346705 2.53581662,8.92550143 C2.6504298,8.13753582 2.76504298,7.36389685 2.87965616,6.57593123 C2.99426934,5.78796562 3.10888252,5.01432665 3.2234957,4.22636103 C3.32378223,3.53868195 3.36676218,2.85100287 3.5530086,2.17765043 C3.89684814,0.959885387 5.10028653,0.0573065903 6.37535817,0.0573065903 C36.8194842,0.0573065903 67.2492837,0.0573065903 97.6934097,0.0573065903 C98.8108883,0.0573065903 99.6704871,0.730659026 99.9283668,1.81948424 C100.028653,2.23495702 99.9713467,2.6504298 99.8997135,3.06590258 C99.7707736,3.92550143 99.6418338,4.79942693 99.512894,5.65902579 C99.3839542,6.50429799 99.2550143,7.36389685 99.1404011,8.20916905 C99.025788,8.98280802 98.9111748,9.75644699 98.7965616,10.5444126 C98.6676218,11.4040115 98.5386819,12.277937 98.4240688,13.1375358 C98.2951289,13.982808 98.1805158,14.8424069 98.0515759,15.6876791 C97.9369628,16.4756447 97.8223496,17.2492837 97.7077364,18.0372493 C97.5931232,18.8252149 97.47851,19.5988539 97.3638968,20.3868195 C97.2492837,21.1747851 97.1346705,21.9627507 97.0200573,22.7507163 C96.9054441,23.5386819 96.8051576,24.3266476 96.6762178,25.1146132 C96.5902579,25.6446991 96.5759312,26.1891117 96.3753582,26.7048711 C95.9455587,27.8653295 94.8137536,28.6532951 93.5673352,28.6532951 C78.3810888,28.6676218 63.1805158,28.6676218 47.9799427,28.6676218 Z M36.1461318,7.9226361 C36.1318052,7.90830946 36.1174785,7.89398281 36.1031519,7.86532951 C36.1031519,7.86532951 36.1031519,7.86532951 36.1031519,7.86532951 C36.0888252,7.83667622 36.0744986,7.80802292 36.0601719,7.77936963 C35.5873926,7.06303725 35.0143266,6.40401146 34.3409742,5.85959885 C32.3065903,4.19770774 29.9713467,3.56733524 27.3782235,4.02578797 C25.8166189,4.29799427 24.4412607,4.98567335 23.2808023,6.06017192 C21.0028653,8.16618911 20.0716332,10.8022923 20.3724928,13.8681948 C20.4727794,14.8280802 20.7449857,15.7449857 21.1461318,16.6189112 C21.504298,17.3638968 21.9340974,18.0659026 22.4928367,18.6819484 L22.5071633,18.6962751 C22.52149,18.7106017 22.5358166,18.7249284 22.5501433,18.739255 C22.5787966,18.7679083 22.6074499,18.8108883 22.6361032,18.8395415 C23.5530086,19.8280802 24.6561605,20.5730659 25.8452722,21.1891117 C27.5931232,22.1060172 29.4412607,22.6790831 31.4183381,22.8080229 C33.0659026,22.9226361 34.6704871,22.7363897 36.2464183,22.2636103 C36.4469914,22.2063037 36.6618911,22.1633238 36.8338109,22.0487106 C39.7994269,19.9426934 41.9484241,17.2063037 43.2808023,13.8395415 C43.8108883,12.5071633 44.1547278,11.1174785 44.3409742,9.6991404 C44.4269341,9.05444126 44.4842407,8.40974212 44.4842407,7.76504298 C44.512894,7.57879656 44.4985673,7.39255014 44.4985673,7.19197708 C44.4842407,6.87679083 44.3696275,6.71919771 44.0687679,6.61891117 C43.3810888,6.37535817 42.6790831,6.24641834 41.9340974,6.31805158 C41.6189112,6.34670487 41.504298,6.46131805 41.5186246,6.7765043 C41.5329513,7.13467049 41.5759312,7.47851003 41.5759312,7.83667622 C41.5759312,8.91117479 41.4756447,9.98567335 41.2320917,11.0458453 C40.530086,13.9971347 38.9971347,16.4183381 36.5759312,18.2664756 C35.2722063,19.2550143 33.8395415,19.9140401 32.1919771,20.0429799 C32.1203438,20.0429799 32.0487106,20.0573066 31.9770774,20.0573066 C31.3323782,20.0859599 30.6876791,20.0573066 30.0573066,19.9426934 C28.9971347,19.7421203 27.9512894,19.4269341 27.0200573,18.8681948 C25.0429799,17.7077364 24.0114613,15.9312321 23.8825215,13.6532951 C23.782235,11.8338109 24.3553009,10.2292264 25.6017192,8.88252149 C27.3209169,7.00573066 30.0573066,6.46131805 32.3352436,7.52148997 C33.5673352,8.09455587 34.4985673,8.99713467 35.1432665,10.1862464 C35.1432665,10.2005731 35.1575931,10.2148997 35.1575931,10.2292264 C35.5444126,10.9598854 35.7879656,11.747851 35.8882521,12.5644699 C35.974212,13.2808023 35.9312321,13.9971347 35.773639,14.6991404 C35.4154728,16.3037249 34.5845272,17.6074499 33.2378223,18.5673352 C32.6790831,18.9684814 32.0487106,19.2550143 31.3467049,19.4555874 C31.4183381,19.4555874 31.4613181,19.4555874 31.4899713,19.4555874 C31.9340974,19.3982808 32.3638968,19.3123209 32.8080229,19.226361 C33.782235,19.025788 34.6848138,18.6676218 35.4441261,18.008596 C35.9598854,17.5644699 36.4040115,17.0630372 36.7191977,16.4469914 C36.7191977,16.4326648 36.7335244,16.4326648 36.7335244,16.4183381 C36.8624642,16.2320917 36.9627507,16.017192 37.034384,15.8022923 C37.6361032,14.0544413 37.7077364,12.2922636 37.2636103,10.5014327 C37.034384,9.59885387 36.6762178,8.75358166 36.1747851,7.96561605 C36.1461318,7.9512894 36.1461318,7.93696275 36.1461318,7.9226361 Z M13.4670487,4.11174785 C13.4527221,4.11174785 13.4240688,4.11174785 13.4097421,4.11174785 C12.4498567,4.16905444 11.504298,4.26934097 10.5587393,4.44126074 C10.0143266,4.54154728 9.46991404,4.65616046 8.93982808,4.84240688 C8.68194842,4.92836676 8.5243553,5.10028653 8.49570201,5.35816619 C8.42406877,5.8739255 8.38108883,6.38968481 8.35243553,6.90544413 C8.29512894,8.63896848 8.49570201,10.3581662 8.96848138,12.034384 C9.9713467,15.6733524 11.9197708,18.7249284 14.8280802,21.1318052 C17.8653295,23.6676218 21.3896848,25.0429799 25.3295129,25.3008596 C26.6618911,25.3868195 27.9799427,25.3151862 29.2979943,25.1002865 C30.9885387,24.8280802 32.6074499,24.3266476 34.1547278,23.5959885 C34.1977077,23.5816619 34.2550143,23.5673352 34.2836676,23.495702 C34.1690544,23.5673352 34.0544413,23.5100287 33.9541547,23.5673352 C33.8968481,23.5673352 33.8395415,23.5673352 33.782235,23.5816619 C33.7535817,23.5816619 33.739255,23.5816619 33.7249284,23.5959885 C33.6389685,23.5959885 33.5386819,23.5959885 33.4527221,23.6103152 C32.5071633,23.7106017 31.5472779,23.6676218 30.6017192,23.5673352 C29.713467,23.4813754 28.8252149,23.3094556 27.965616,23.0659026 C25.1289398,22.2636103 22.7363897,20.7593123 20.8022923,18.5243553 C19.5415473,17.0773639 18.6389685,15.4154728 17.9369628,13.6246418 C17.5644699,12.6934097 17.3209169,11.7191977 17.1489971,10.730659 C17.034384,10.0573066 16.9484241,9.38395415 16.9054441,8.71060172 C16.8624642,8.06590258 16.8911175,7.43553009 16.9340974,6.80515759 C16.9770774,6.1747851 17.0630372,5.54441261 17.1919771,4.92836676 C17.2636103,4.57020057 17.1203438,4.32664756 16.7621777,4.25501433 C16.3610315,4.18338109 15.9598854,4.15472779 15.5587393,4.1260745 C14.8567335,4.08309456 14.1547278,4.06876791 13.4670487,4.11174785 Z M59.9570201,21.9054441 C60.0143266,21.9054441 60.0716332,21.9054441 60.1289398,21.9054441 C60.9025788,21.9054441 61.6762178,21.9054441 62.4498567,21.9054441 C62.6790831,21.9054441 62.8939828,21.8911175 63.1232092,21.8481375 C64.269341,21.5902579 65.0573066,20.9455587 65.3008596,19.7707736 C65.5587393,18.5100287 65.7593123,17.234957 65.9885387,15.974212 C66.2320917,14.5845272 66.4756447,13.2091691 66.7191977,11.8194842 C66.7335244,11.7048711 66.7335244,11.6618911 66.6045845,11.6618911 C66.0744986,11.6618911 65.5444126,11.6762178 65,11.6618911 C64.8710602,11.6618911 64.8424069,11.7048711 64.8280802,11.8194842 C64.512894,13.5959885 64.2120344,15.3581662 63.8968481,17.1346705 C63.8825215,17.2206304 63.8538682,17.2492837 63.7679083,17.2492837 C63.4670487,17.2492837 63.1661891,17.2492837 62.8510029,17.2492837 C62.3782235,17.2492837 62.2922636,17.1489971 62.3782235,16.6905444 C62.6647564,15.0573066 62.9512894,13.4240688 63.252149,11.8051576 C63.2664756,11.6905444 63.252149,11.6762178 63.1375358,11.6762178 C62.5931232,11.6762178 62.0487106,11.6762178 61.504298,11.6762178 C61.3896848,11.6762178 61.3610315,11.7191977 61.3467049,11.8194842 C61.1891117,12.7507163 61.017192,13.6819484 60.8595989,14.6275072 C60.7163324,15.4297994 60.5444126,16.2320917 60.4441261,17.034384 C60.3295129,18.008596 60.8309456,18.7535817 61.7621777,19.025788 C62.2206304,19.1690544 62.6790831,19.1260745 63.1375358,19.1404011 C63.2664756,19.1404011 63.4527221,19.0830946 63.5100287,19.1690544 C63.5673352,19.2406877 63.495702,19.4126074 63.4670487,19.5415473 C63.3954155,19.8710602 63.1948424,20.0429799 62.8510029,20.0429799 C62.0487106,20.0429799 61.260745,20.0429799 60.4584527,20.0429799 C60.3438395,20.0429799 60.3151862,20.0716332 60.286533,20.1862464 C60.1719198,20.730659 60.0716332,21.3037249 59.9570201,21.9054441 Z M70.2578797,9.58452722 C70.2578797,9.58452722 70.2578797,9.57020057 70.2578797,9.58452722 C69.756447,9.58452722 69.2406877,9.58452722 68.739255,9.58452722 C68.6676218,9.58452722 68.6103152,9.58452722 68.5959885,9.68481375 C68.3381089,11.1747851 68.0802292,12.6504298 67.8223496,14.1404011 C67.5358166,15.7593123 67.2492837,17.3782235 66.9627507,18.982808 C66.9340974,19.1260745 66.9770774,19.1404011 67.0916905,19.1404011 C67.6217765,19.1404011 68.1518625,19.1260745 68.6819484,19.1404011 C68.8108883,19.1404011 68.8395415,19.0974212 68.8538682,18.982808 C69.0401146,17.9226361 69.226361,16.8767908 69.3982808,15.8309456 C69.4269341,15.7020057 69.4555874,15.6590258 69.5988539,15.6590258 C70.1432665,15.6590258 70.6876791,15.7020057 71.2320917,15.5873926 C72.1633238,15.3868195 72.965616,14.9713467 73.5243553,14.1833811 C74.0114613,13.495702 74.2120344,12.722063 74.1977077,11.8911175 C74.1833811,11.2750716 73.982808,10.730659 73.5100287,10.3151862 C73.008596,9.85673352 72.4068768,9.65616046 71.7335244,9.62750716 C71.2320917,9.55587393 70.7449857,9.58452722 70.2578797,9.58452722 Z M50.0286533,15.6446991 C50.243553,15.6446991 50.530086,15.6446991 50.8309456,15.6017192 C51.5616046,15.4727794 52.2206304,15.2292264 52.7793696,14.7277937 C53.6819484,13.9255014 54.0114613,12.8796562 53.9541547,11.7048711 C53.9255014,11.1891117 53.7249284,10.730659 53.3524355,10.3581662 C52.7936963,9.79942693 52.0916905,9.58452722 51.3180516,9.58452722 C50.3868195,9.57020057 49.4555874,9.58452722 48.5243553,9.58452722 C48.3954155,9.58452722 48.3667622,9.62750716 48.3524355,9.74212034 C48.1661891,10.8452722 47.965616,11.9627507 47.7793696,13.0659026 C47.4355301,15.0573066 47.0773639,17.034384 46.7335244,19.025788 C46.7191977,19.1260745 46.747851,19.1404011 46.8338109,19.1404011 C47.3925501,19.1404011 47.9369628,19.1404011 48.495702,19.1404011 C48.5959885,19.1404011 48.6246418,19.0974212 48.6389685,19.0114613 C48.8252149,17.9226361 49.0114613,16.8481375 49.1977077,15.7593123 C49.2120344,15.6733524 49.2550143,15.6446991 49.3266476,15.6446991 C49.512894,15.6446991 49.7277937,15.6446991 50.0286533,15.6446991 Z M59.713467,17.234957 C59.6275072,17.234957 59.5558739,17.234957 59.4842407,17.234957 C59.1547278,17.234957 59.0401146,17.0916905 59.0974212,16.7765043 C59.3982808,15.1289398 59.6848138,13.4670487 59.9856734,11.8194842 C60,11.7048711 59.9856734,11.6618911 59.8567335,11.6618911 C58.8968481,11.6618911 57.9226361,11.6618911 56.9627507,11.6618911 C56.747851,11.6618911 56.5329513,11.6762178 56.3180516,11.7191977 C55.4011461,11.9197708 54.8137536,12.4928367 54.4269341,13.3094556 C54.2406877,13.6962751 54.1833811,14.1260745 54.1117479,14.5415473 C53.9684814,15.3581662 53.7965616,16.1747851 53.6962751,16.991404 C53.5959885,17.8510029 53.982808,18.6103152 54.8710602,18.9398281 C55.286533,19.0974212 55.7020057,19.0974212 56.1318052,19.1117479 C56.6905444,19.1404011 57.1633238,18.9541547 57.5501433,18.5530086 C57.6074499,18.495702 57.6361032,18.495702 57.6934097,18.5530086 C58.1375358,18.9684814 58.6962751,19.0974212 59.2836676,19.1117479 C59.3839542,19.1117479 59.3982808,19.0544413 59.4126074,18.982808 C59.512894,18.4097421 59.6131805,17.8366762 59.713467,17.234957 Z M77.4212034,11.6618911 C77.0487106,11.6618911 76.7191977,11.6618911 76.4183381,11.747851 C75.3151862,12.0630372 74.7277937,12.8653295 74.469914,13.9255014 C74.3123209,14.5845272 74.226361,15.2578797 74.1117479,15.9169054 C74.0401146,16.3610315 73.9255014,16.8051576 73.9255014,17.277937 C73.9398281,18.0659026 74.3553009,18.6676218 75.0859599,18.9541547 C75.6733524,19.1833811 76.2750716,19.1260745 76.8767908,19.1117479 C77.0487106,19.1117479 77.234957,19.0687679 77.4068768,19.025788 C78.495702,18.6962751 79.0544413,17.9083095 79.2979943,16.8624642 C79.469914,16.1461318 79.5702006,15.4154728 79.6848138,14.6848138 C79.756447,14.2836676 79.8567335,13.8825215 79.8424069,13.4527221 C79.8280802,12.6647564 79.4126074,12.0916905 78.6676218,11.8194842 C78.2664756,11.6618911 77.8080229,11.6475645 77.4212034,11.6618911 Z M81.6189112,19.1117479 C82.0200573,19.0974212 82.52149,19.1404011 83.008596,19.0830946 C84.025788,18.9684814 85.2292264,18.4097421 85.4584527,16.8481375 C85.5587393,16.0888252 85.3438395,15.4584527 84.6848138,15.0286533 C84.2836676,14.7707736 83.8538682,14.6275072 83.3954155,14.4842407 C83.1232092,14.3982808 82.8366762,14.3266476 82.5787966,14.1833811 C82.4641834,14.1260745 82.4355301,14.0401146 82.47851,13.9111748 C82.5787966,13.6676218 82.7936963,13.5243553 83.1088825,13.5243553 C83.8968481,13.5243553 84.6848138,13.5243553 85.4727794,13.5243553 C85.5730659,13.5243553 85.6160458,13.5100287 85.6303725,13.3954155 C85.7163324,12.8510029 85.8022923,12.3209169 85.9025788,11.7765043 C85.9312321,11.6475645 85.8882521,11.6332378 85.7879656,11.6332378 C85.0143266,11.6332378 84.2406877,11.6332378 83.4670487,11.6332378 C83.1948424,11.6332378 82.9369628,11.6475645 82.6790831,11.7191977 C81.6045845,11.9770774 80.8595989,12.5644699 80.6017192,13.6819484 C80.3724928,14.6704871 80.7163324,15.4154728 81.6045845,15.8882521 C81.9340974,16.0601719 82.277937,16.1604585 82.6217765,16.2750716 C82.8796562,16.3610315 83.1518625,16.4183381 83.3954155,16.5472779 C83.5673352,16.6332378 83.5816619,16.7048711 83.5100287,16.8767908 C83.3954155,17.1346705 83.1805158,17.234957 82.9226361,17.234957 C82.1203438,17.234957 81.3323782,17.234957 80.530086,17.234957 C80.4441261,17.234957 80.4011461,17.2492837 80.3868195,17.3495702 C80.3008596,17.9083095 80.2005731,18.4527221 80.1002865,19.0114613 C80.0859599,19.1260745 80.1146132,19.1260745 80.2005731,19.1260745 C80.6590258,19.1117479 81.0888252,19.1117479 81.6189112,19.1117479 Z M89.6991404,13.5386819 C89.8853868,13.5386819 90.0716332,13.5386819 90.2578797,13.5386819 C90.3581662,13.5386819 90.4154728,13.5243553 90.4297994,13.4097421 C90.5157593,12.8653295 90.6160458,12.3352436 90.7020057,11.7908309 C90.7163324,11.6905444 90.6876791,11.6475645 90.5873926,11.6618911 C90.2148997,11.6618911 89.8280802,11.6618911 89.4555874,11.6618911 C89.3696275,11.6618911 89.3409742,11.6475645 89.3553009,11.5472779 C89.4269341,11.1747851 89.4842407,10.7879656 89.5702006,10.4154728 C89.5988539,10.3008596 89.5702006,10.2578797 89.4412607,10.2722063 C89.2550143,10.286533 89.0687679,10.286533 88.8681948,10.2722063 C88.7679083,10.2722063 88.7106017,10.3008596 88.6532951,10.3724928 C87.9799427,11.1318052 87.3209169,11.9054441 86.6475645,12.6647564 C86.5759312,12.7507163 86.5472779,12.8366762 86.5329513,12.9226361 C86.504298,13.0945559 86.4899713,13.2664756 86.4469914,13.4383954 C86.4326648,13.5243553 86.4469914,13.5386819 86.5329513,13.5386819 C86.6762178,13.5386819 86.8338109,13.5386819 86.9770774,13.5386819 C87.0773639,13.5386819 87.1203438,13.5530086 87.0916905,13.6676218 C87.0200573,13.982808 86.9770774,14.2979943 86.9197708,14.6131805 C86.7908309,15.4011461 86.6045845,16.1891117 86.504298,16.991404 C86.3753582,17.9799427 86.8911175,18.7249284 87.8366762,19.0114613 C88.3381089,19.1690544 88.8395415,19.1117479 89.3553009,19.1260745 C89.4412607,19.1260745 89.4269341,19.0687679 89.4412607,19.025788 C89.5415473,18.4670487 89.6275072,17.9083095 89.7277937,17.3495702 C89.7421203,17.2492837 89.713467,17.234957 89.6275072,17.234957 C89.3553009,17.234957 89.0830946,17.234957 88.8108883,17.234957 C88.5100287,17.234957 88.3810888,17.0916905 88.4383954,16.7908309 C88.5243553,16.3180516 88.6103152,15.8452722 88.6819484,15.3868195 C88.782235,14.8137536 88.8825215,14.2406877 88.982808,13.6676218 C88.9971347,13.5816619 89.0401146,13.5386819 89.1404011,13.5386819 C89.3266476,13.5386819 89.512894,13.5386819 89.6991404,13.5386819 Z" id="Shape" fill="#FEDE00"></path>
                <path d="M33.7106017,23.5959885 C33.7249284,23.5816619 33.7535817,23.5816619 33.7679083,23.5816619 C33.8252149,23.6103152 33.8825215,23.6246418 33.9398281,23.5673352 C34.0401146,23.5100287 34.1547278,23.5673352 34.269341,23.495702 C34.226361,23.5673352 34.1833811,23.5816619 34.1404011,23.5959885 C32.5931232,24.3266476 30.974212,24.8280802 29.2836676,25.1002865 C27.965616,25.3151862 26.6332378,25.3868195 25.3151862,25.3008596 C21.3610315,25.0429799 17.8510029,23.6676218 14.8137536,21.1318052 C11.9197708,18.7106017 9.95702006,15.6733524 8.95415473,12.034384 C8.49570201,10.3581662 8.29512894,8.65329513 8.33810888,6.90544413 C8.35243553,6.38968481 8.40974212,5.8739255 8.48137536,5.35816619 C8.5243553,5.08595989 8.68194842,4.92836676 8.92550143,4.84240688 C9.45558739,4.65616046 10,4.54154728 10.5444126,4.44126074 C11.4899713,4.26934097 12.4355301,4.16905444 13.3954155,4.11174785 C13.4097421,4.11174785 13.4383954,4.11174785 13.4527221,4.11174785 C13.4240688,4.52722063 13.3810888,4.92836676 13.3667622,5.34383954 C13.3524355,6.06017192 13.3667622,6.7765043 13.4527221,7.49283668 C13.5100287,8.10888252 13.6103152,8.72492837 13.7249284,9.32664756 C13.9971347,10.6876791 14.4126074,11.991404 15,13.2378223 C15.4297994,14.1690544 15.9455587,15.0716332 16.5186246,15.9169054 C17.1346705,16.8051576 17.8223496,17.6361032 18.5673352,18.4097421 C18.8968481,18.7535817 19.2550143,19.0687679 19.6131805,19.3696275 C20.1146132,19.8137536 20.6446991,20.2148997 21.2034384,20.6017192 C22.1346705,21.2320917 23.1088825,21.7765043 24.1260745,22.234957 C25,22.6074499 25.8739255,22.9369628 26.7908309,23.1661891 C27.6361032,23.3810888 28.4813754,23.5530086 29.3409742,23.6389685 C29.8710602,23.6962751 30.4011461,23.7535817 30.9312321,23.7535817 C31.4756447,23.7535817 32.0200573,23.782235 32.5787966,23.7249284 C32.8653295,23.6962751 33.1375358,23.6962751 33.4240688,23.6532951 C33.5100287,23.6389685 33.6246418,23.6819484 33.7106017,23.5959885 Z" id="Shape" fill="#0076C1"></path>
                <path d="M44.469914,7.75071633 C44.4842407,8.39541547 44.4126074,9.04011461 44.3266476,9.68481375 C44.1404011,11.1174785 43.7965616,12.4928367 43.2664756,13.8252149 C41.9340974,17.2063037 39.7707736,19.9426934 36.8194842,22.034384 C36.6475645,22.1633238 36.4326648,22.1919771 36.2320917,22.2492837 C34.6561605,22.722063 33.0515759,22.9083095 31.4040115,22.7936963 C29.4269341,22.6504298 27.5787966,22.0916905 25.8309456,21.1747851 C24.6418338,20.5587393 23.5386819,19.8137536 22.6217765,18.8252149 C22.5931232,18.7965616 22.5644699,18.7535817 22.5358166,18.7249284 C22.5358166,18.6962751 22.5358166,18.6676218 22.4928367,18.6819484 C22.4928367,18.6819484 22.47851,18.6676218 22.47851,18.6676218 C22.5071633,18.6246418 22.4928367,18.5959885 22.4641834,18.5530086 C22.234957,18.1518625 22.0487106,17.7363897 21.8911175,17.3065903 C21.5186246,16.3180516 21.3467049,15.3008596 21.3037249,14.2550143 C21.2893983,14.0401146 21.3180516,13.8252149 21.3180516,13.5959885 C21.3323782,13.1948424 21.3753582,12.8080229 21.4469914,12.4212034 C21.6475645,11.3610315 22.0200573,10.3724928 22.5644699,9.44126074 C23.1088825,8.5243553 23.8108883,7.72206304 24.6418338,7.06303725 C25.1719198,6.64756447 25.730659,6.28939828 26.3467049,6.00286533 C27.3065903,5.54441261 28.3094556,5.28653295 29.3696275,5.22922636 C30.0286533,5.18624642 30.6733524,5.21489971 31.3323782,5.32951289 C32.47851,5.53008596 33.5243553,5.94555874 34.4985673,6.57593123 C35.0143266,6.90544413 35.5014327,7.29226361 35.9169054,7.75071633 C35.9598854,7.79369628 35.9885387,7.86532951 36.0744986,7.85100287 C36.0744986,7.85100287 36.0744986,7.85100287 36.0744986,7.85100287 C36.0744986,7.87965616 36.0744986,7.90830946 36.1174785,7.90830946 C36.1174785,7.90830946 36.1174785,7.90830946 36.1174785,7.90830946 C36.1174785,7.9226361 36.1318052,7.93696275 36.1318052,7.9512894 C36.6332378,8.73925501 36.991404,9.58452722 37.2206304,10.487106 C37.6647564,12.277937 37.6074499,14.0401146 36.991404,15.7879656 C36.9197708,16.0028653 36.8194842,16.217765 36.6905444,16.4040115 C36.6905444,16.3610315 36.6905444,16.3180516 36.6905444,16.2893983 C36.7765043,15.9455587 36.8338109,15.5873926 36.8767908,15.2292264 C36.9340974,14.5702006 36.9054441,13.9398281 36.7621777,13.2951289 C36.5472779,12.2922636 36.1174785,11.3896848 35.4727794,10.5873926 C35.3724928,10.4584527 35.3008596,10.286533 35.1146132,10.2292264 C35.1146132,10.2292264 35.1146132,10.2292264 35.1146132,10.2292264 C35.1289398,10.2148997 35.1146132,10.2005731 35.1002865,10.1862464 C34.4412607,8.99713467 33.5243553,8.09455587 32.2922636,7.52148997 C30,6.46131805 27.2636103,7.00573066 25.5587393,8.88252149 C24.3266476,10.2292264 23.739255,11.8338109 23.8395415,13.6532951 C23.9684814,15.9312321 25,17.7077364 26.9770774,18.8681948 C27.9083095,19.4126074 28.9398281,19.7277937 30.0143266,19.9426934 C30.6446991,20.0716332 31.2893983,20.0859599 31.9340974,20.0573066 C32.0057307,20.0573066 32.0773639,20.0429799 32.1489971,20.0429799 C32.1776504,20.0429799 32.1919771,20.0573066 32.2206304,20.0573066 C32.6647564,20.0716332 33.1088825,20.0573066 33.5386819,20 C34.3839542,19.8567335 35.2005731,19.6131805 35.974212,19.2406877 C37.2922636,18.6103152 38.4383954,17.7363897 39.469914,16.7191977 C39.7851003,16.4040115 40.0859599,16.0744986 40.3724928,15.730659 C40.773639,15.2578797 41.1604585,14.7707736 41.504298,14.2550143 C42.2636103,13.1661891 42.9083095,12.0200573 43.4383954,10.8166189 C43.7106017,10.1862464 43.9398281,9.55587393 44.1404011,8.89684814 C44.2836676,8.51002865 44.3696275,8.13753582 44.469914,7.75071633 Z" id="Shape" fill="#0076C1"></path>
                <path d="M33.7106017,23.5959885 C33.6246418,23.6676218 33.5243553,23.6389685 33.4240688,23.6532951 C33.1518625,23.6962751 32.8653295,23.6962751 32.5787966,23.7249284 C32.034384,23.782235 31.4899713,23.7535817 30.9312321,23.7535817 C30.4011461,23.7535817 29.8710602,23.6962751 29.3409742,23.6389685 C28.4813754,23.5386819 27.6217765,23.3810888 26.7908309,23.1661891 C25.8739255,22.9226361 24.9856734,22.6074499 24.1260745,22.234957 C23.0945559,21.7908309 22.1203438,21.2320917 21.2034384,20.6017192 C20.6446991,20.2292264 20.1146132,19.8137536 19.6131805,19.3696275 C19.2550143,19.0544413 18.8968481,18.739255 18.5673352,18.4097421 C17.8223496,17.6361032 17.1203438,16.8194842 16.5186246,15.9169054 C15.9312321,15.0716332 15.4297994,14.1690544 15,13.2378223 C14.4269341,11.991404 13.9971347,10.6733524 13.7249284,9.32664756 C13.6103152,8.72492837 13.5243553,8.10888252 13.4527221,7.49283668 C13.3810888,6.7765043 13.3524355,6.06017192 13.3667622,5.34383954 C13.3810888,4.92836676 13.4240688,4.52722063 13.4527221,4.11174785 C14.1547278,4.06876791 14.8424069,4.08309456 15.5444126,4.1260745 C15.9455587,4.15472779 16.3467049,4.18338109 16.747851,4.25501433 C17.1060172,4.32664756 17.2636103,4.57020057 17.1776504,4.92836676 C17.0487106,5.54441261 16.9627507,6.1747851 16.9197708,6.80515759 C16.8767908,7.43553009 16.8481375,8.08022923 16.8911175,8.71060172 C16.9340974,9.38395415 17.0057307,10.0716332 17.1346705,10.730659 C17.3065903,11.7191977 17.5501433,12.6934097 17.9226361,13.6246418 C18.6246418,15.4011461 19.5272206,17.0630372 20.7879656,18.5243553 C22.722063,20.7449857 25.1146132,22.2636103 27.9512894,23.0659026 C28.8108883,23.3094556 29.6991404,23.4813754 30.5873926,23.5673352 C31.5329513,23.6676218 32.47851,23.7106017 33.4383954,23.6103152 C33.5243553,23.5959885 33.6103152,23.6103152 33.7106017,23.5959885 Z" id="Shape" fill="#019CDD"></path>
                <path d="M59.9570201,21.9054441 C60.0573066,21.3180516 60.1719198,20.730659 60.2722063,20.1575931 C60.286533,20.0429799 60.3295129,20.0143266 60.4441261,20.0143266 C61.2464183,20.0143266 62.034384,20.0143266 62.8366762,20.0143266 C63.1805158,20.0143266 63.3954155,19.8424069 63.4527221,19.512894 C63.4813754,19.3839542 63.5530086,19.2120344 63.495702,19.1404011 C63.4383954,19.0544413 63.252149,19.1117479 63.1232092,19.1117479 C62.6647564,19.0974212 62.1919771,19.1404011 61.747851,18.9971347 C60.8166189,18.7106017 60.3151862,17.965616 60.4297994,17.0057307 C60.530086,16.1891117 60.7020057,15.4011461 60.8452722,14.5988539 C61.0028653,13.6676218 61.1747851,12.7363897 61.3323782,11.7908309 C61.3467049,11.6905444 61.3753582,11.6475645 61.4899713,11.6475645 C62.034384,11.6475645 62.5787966,11.6475645 63.1232092,11.6475645 C63.2234957,11.6475645 63.252149,11.6618911 63.2378223,11.7765043 C62.9512894,13.4097421 62.6647564,15.0286533 62.3638968,16.6618911 C62.277937,17.1203438 62.3638968,17.2206304 62.8366762,17.2206304 C63.1375358,17.2206304 63.4383954,17.2206304 63.7535817,17.2206304 C63.8395415,17.2206304 63.8681948,17.1919771 63.8825215,17.1060172 C64.1977077,15.3295129 64.4985673,13.5673352 64.8137536,11.7908309 C64.8280802,11.6905444 64.8567335,11.6332378 64.9856734,11.6332378 C65.5157593,11.6475645 66.0458453,11.6475645 66.5902579,11.6332378 C66.7191977,11.6332378 66.7335244,11.6618911 66.7048711,11.7908309 C66.4613181,13.1805158 66.217765,14.5558739 65.974212,15.9455587 C65.7449857,17.2063037 65.5444126,18.4813754 65.286533,19.7421203 C65.0429799,20.9169054 64.2550143,21.5759312 63.1088825,21.8194842 C62.8939828,21.8624642 62.6647564,21.8767908 62.4355301,21.8767908 C61.6618911,21.8767908 60.8882521,21.8767908 60.1146132,21.8767908 C60.0716332,21.9054441 60.0286533,21.9054441 59.9570201,21.9054441 Z" id="Shape" fill="#019CDD"></path>
                <path d="M70.2578797,9.58452722 C70.7449857,9.58452722 71.2464183,9.57020057 71.7335244,9.58452722 C72.3925501,9.61318052 73.008596,9.82808023 73.5100287,10.2722063 C73.982808,10.6876791 74.1833811,11.2464183 74.1977077,11.8481375 C74.2120344,12.6790831 74.0114613,13.4527221 73.5243553,14.1404011 C72.965616,14.9283668 72.1633238,15.3438395 71.2320917,15.5444126 C70.6876791,15.6590258 70.1432665,15.6160458 69.5988539,15.6160458 C69.4555874,15.6160458 69.4126074,15.6733524 69.3982808,15.7879656 C69.226361,16.8481375 69.0401146,17.8939828 68.8538682,18.9398281 C68.8395415,19.0544413 68.7965616,19.0974212 68.6819484,19.0974212 C68.1518625,19.0830946 67.6217765,19.0830946 67.0916905,19.0974212 C66.9627507,19.0974212 66.9340974,19.0830946 66.9627507,18.9398281 C67.2492837,17.3209169 67.5358166,15.7163324 67.8223496,14.0974212 C68.0802292,12.6074499 68.3381089,11.1318052 68.5959885,9.64183381 C68.6103152,9.54154728 68.6676218,9.54154728 68.739255,9.54154728 C69.2406877,9.57020057 69.7421203,9.57020057 70.2578797,9.58452722 C70.2578797,9.57020057 70.2578797,9.58452722 70.2578797,9.58452722 Z M70.3581662,13.7535817 C70.5014327,13.7535817 70.6590258,13.7535817 70.8022923,13.7535817 C71.6332378,13.739255 72.2063037,13.2091691 72.277937,12.3925501 C72.3209169,11.9627507 72.1203438,11.6618911 71.7048711,11.5186246 C71.5902579,11.4899713 71.4899713,11.4613181 71.3753582,11.4613181 C71.0028653,11.4613181 70.6303725,11.4613181 70.2578797,11.4613181 C70.1862464,11.4613181 70.1575931,11.4756447 70.1432665,11.5616046 C70.0286533,12.2492837 69.9140401,12.9226361 69.7851003,13.5959885 C69.756447,13.7535817 69.8137536,13.7679083 69.9426934,13.7679083 C70.0716332,13.7535817 70.2148997,13.7535817 70.3581662,13.7535817 Z" id="Shape" fill="#0176C0"></path>
                <path d="M50.0286533,15.6446991 C49.7421203,15.6446991 49.5272206,15.6446991 49.3123209,15.6446991 C49.226361,15.6446991 49.1977077,15.6590258 49.1833811,15.7593123 C48.9971347,16.8481375 48.8108883,17.9226361 48.6246418,19.0114613 C48.6103152,19.0974212 48.5816619,19.1404011 48.4813754,19.1404011 C47.9226361,19.1404011 47.3782235,19.1404011 46.8194842,19.1404011 C46.7335244,19.1404011 46.7048711,19.1260745 46.7191977,19.025788 C47.0773639,17.034384 47.4212034,15.0573066 47.765043,13.0659026 C47.965616,11.9627507 48.1518625,10.8595989 48.3381089,9.74212034 C48.3524355,9.62750716 48.3954155,9.58452722 48.5100287,9.58452722 C49.4412607,9.58452722 50.3724928,9.58452722 51.3037249,9.58452722 C52.0773639,9.59885387 52.7793696,9.81375358 53.3381089,10.3581662 C53.7106017,10.730659 53.9111748,11.1891117 53.9398281,11.7048711 C53.9971347,12.8796562 53.6676218,13.9255014 52.765043,14.7277937 C52.2063037,15.2148997 51.5472779,15.4727794 50.8166189,15.6017192 C50.530086,15.6446991 50.243553,15.6446991 50.0286533,15.6446991 Z M50.1146132,13.7535817 C50.2578797,13.7535817 50.4154728,13.7535817 50.5587393,13.7535817 C51.3323782,13.739255 51.8624642,13.2951289 52.0200573,12.5358166 C52.1346705,11.9770774 51.8911175,11.6045845 51.3323782,11.4756447 C51.2320917,11.4613181 51.1461318,11.4469914 51.0458453,11.4469914 C50.7163324,11.4469914 50.3724928,11.4469914 50.0429799,11.4469914 C49.9283668,11.4469914 49.8853868,11.4899713 49.8710602,11.5902579 C49.8424069,11.8051576 49.7994269,12.0200573 49.756447,12.234957 C49.6704871,12.6934097 49.5988539,13.1518625 49.512894,13.6103152 C49.4985673,13.7106017 49.512894,13.739255 49.6275072,13.739255 C49.7994269,13.7535817 49.9570201,13.7535817 50.1146132,13.7535817 Z" id="Shape" fill="#019CDD"></path>
                <path d="M59.713467,17.234957 C59.6131805,17.8366762 59.512894,18.4097421 59.4126074,18.9971347 C59.3982808,19.0687679 59.3839542,19.1260745 59.2836676,19.1260745 C58.6962751,19.1117479 58.1375358,18.9684814 57.6934097,18.5673352 C57.6361032,18.5100287 57.6074499,18.5243553 57.5501433,18.5673352 C57.1633238,18.9684814 56.6905444,19.1547278 56.1318052,19.1260745 C55.7020057,19.1117479 55.286533,19.1117479 54.8710602,18.9541547 C53.982808,18.6246418 53.5959885,17.8653295 53.6962751,17.0057307 C53.7965616,16.1747851 53.9684814,15.3724928 54.1117479,14.5558739 C54.1833811,14.1404011 54.2406877,13.7106017 54.4269341,13.3237822 C54.8137536,12.5071633 55.4011461,11.9340974 56.3180516,11.7335244 C56.5329513,11.6905444 56.747851,11.6762178 56.9627507,11.6762178 C57.9226361,11.6762178 58.8968481,11.6762178 59.8567335,11.6762178 C60,11.6762178 60.0143266,11.7191977 59.9856734,11.8338109 C59.6848138,13.4813754 59.3982808,15.1432665 59.0974212,16.7908309 C59.0401146,17.1060172 59.1547278,17.2492837 59.4842407,17.2492837 C59.5702006,17.234957 59.6418338,17.234957 59.713467,17.234957 Z M57.1776504,13.5386819 C57.0487106,13.5386819 56.9054441,13.5386819 56.7765043,13.5386819 C56.3610315,13.5386819 56.1461318,13.7249284 56.0744986,14.1404011 C55.9169054,15.0286533 55.773639,15.9025788 55.6160458,16.7908309 C55.5587393,17.0916905 55.6733524,17.234957 55.974212,17.2492837 C56.1604585,17.2492837 56.3467049,17.2492837 56.5472779,17.2492837 C56.9627507,17.2492837 57.1776504,17.0630372 57.2492837,16.6475645 C57.3209169,16.2320917 57.3925501,15.8309456 57.4641834,15.4154728 C57.5644699,14.8424069 57.6790831,14.2550143 57.7793696,13.6819484 C57.7936963,13.5816619 57.7793696,13.5386819 57.6647564,13.5386819 C57.5071633,13.5386819 57.3352436,13.5386819 57.1776504,13.5386819 Z" id="Shape" fill="#019CDD"></path>
                <path d="M77.4212034,11.6618911 C77.8080229,11.6475645 78.252149,11.6618911 78.6819484,11.8194842 C79.4126074,12.0916905 79.8280802,12.6647564 79.8567335,13.4527221 C79.8710602,13.8681948 79.7707736,14.269341 79.6991404,14.6848138 C79.5702006,15.4154728 79.469914,16.1461318 79.3123209,16.8624642 C79.0687679,17.9083095 78.495702,18.6962751 77.4212034,19.025788 C77.2492837,19.0830946 77.0773639,19.1117479 76.8911175,19.1117479 C76.2893983,19.1260745 75.6876791,19.1833811 75.1002865,18.9541547 C74.3553009,18.6676218 73.9398281,18.0802292 73.9398281,17.277937 C73.9398281,16.8194842 74.0544413,16.3753582 74.1260745,15.9169054 C74.2406877,15.243553 74.3266476,14.5845272 74.4842407,13.9255014 C74.7421203,12.8653295 75.3295129,12.0630372 76.4326648,11.747851 C76.7191977,11.6618911 77.0487106,11.6475645 77.4212034,11.6618911 Z M76.5186246,17.234957 C76.6045845,17.234957 76.6905444,17.234957 76.7765043,17.234957 C77.1919771,17.234957 77.3925501,17.0630372 77.4641834,16.6475645 C77.5644699,16.0458453 77.6790831,15.4584527 77.7793696,14.8567335 C77.8366762,14.5272206 77.8939828,14.1977077 77.9369628,13.8681948 C77.965616,13.6389685 77.8653295,13.5386819 77.6217765,13.5386819 C77.4068768,13.5386819 77.1776504,13.5386819 76.9627507,13.5386819 C76.5902579,13.5386819 76.3753582,13.739255 76.3180516,14.1117479 C76.217765,14.713467 76.1031519,15.3008596 76.0028653,15.9025788 C75.9455587,16.217765 75.8739255,16.5329513 75.8452722,16.8624642 C75.8166189,17.1346705 75.9312321,17.2492837 76.1891117,17.2492837 C76.3037249,17.234957 76.4183381,17.234957 76.5186246,17.234957 Z" id="Shape" fill="#0176C0"></path>
                <path d="M36.1031519,7.87965616 C36.0315186,7.87965616 35.9885387,7.82234957 35.9455587,7.77936963 C35.5157593,7.33524355 35.0429799,6.94842407 34.5272206,6.60458453 C33.5530086,5.97421203 32.5071633,5.55873926 31.3610315,5.35816619 C30.7163324,5.24355301 30.0573066,5.21489971 29.3982808,5.25787966 C28.3524355,5.31518625 27.3352436,5.58739255 26.3753582,6.03151862 C25.7593123,6.31805158 25.2005731,6.67621777 24.6704871,7.09169054 C23.8395415,7.76504298 23.1518625,8.5530086 22.5931232,9.46991404 C22.034384,10.4011461 21.6618911,11.3896848 21.4756447,12.4498567 C21.4040115,12.8366762 21.3610315,13.2378223 21.3467049,13.6246418 C21.3323782,13.8395415 21.3180516,14.0544413 21.3323782,14.2836676 C21.3753582,15.3295129 21.5329513,16.3467049 21.9197708,17.3352436 C22.0773639,17.765043 22.2636103,18.1805158 22.4928367,18.5816619 C22.5071633,18.6103152 22.5358166,18.6532951 22.5071633,18.6962751 C21.9484241,18.0802292 21.5186246,17.3782235 21.1604585,16.6332378 C20.7593123,15.7593123 20.487106,14.8424069 20.3868195,13.8825215 C20.0859599,10.8022923 21.017192,8.18051576 23.2951289,6.07449857 C24.4555874,5 25.8309456,4.31232092 27.3925501,4.04011461 C29.9856734,3.58166189 32.3065903,4.21203438 34.3553009,5.8739255 C35.0286533,6.41833811 35.5873926,7.0773639 36.0744986,7.79369628 C36.0744986,7.80802292 36.0888252,7.83667622 36.1031519,7.87965616 Z" id="Shape" fill="#019CDD"></path>
                <path d="M81.6189112,19.1117479 C81.0888252,19.1117479 80.6590258,19.1117479 80.2292264,19.1117479 C80.1432665,19.1117479 80.1146132,19.1117479 80.1289398,18.9971347 C80.2292264,18.4383954 80.3295129,17.8939828 80.4154728,17.3352436 C80.4297994,17.234957 80.487106,17.2206304 80.5587393,17.2206304 C81.3610315,17.2206304 82.1489971,17.2206304 82.9512894,17.2206304 C83.2091691,17.2206304 83.4240688,17.1203438 83.5386819,16.8624642 C83.6103152,16.6905444 83.5959885,16.6189112 83.4240688,16.5329513 C83.1805158,16.4040115 82.9083095,16.3323782 82.6504298,16.260745 C82.3065903,16.1604585 81.9627507,16.0458453 81.6332378,15.8739255 C80.730659,15.4011461 80.4011461,14.6704871 80.6303725,13.6676218 C80.8882521,12.5501433 81.6332378,11.9627507 82.7077364,11.7048711 C82.965616,11.6475645 83.2234957,11.6189112 83.495702,11.6189112 C84.269341,11.6189112 85.0429799,11.6189112 85.8166189,11.6189112 C85.9312321,11.6189112 85.9598854,11.6332378 85.9312321,11.7621777 C85.8309456,12.3065903 85.730659,12.8366762 85.6590258,13.3810888 C85.6446991,13.495702 85.6017192,13.5100287 85.5014327,13.5100287 C84.713467,13.5100287 83.9255014,13.5100287 83.1375358,13.5100287 C82.8223496,13.5100287 82.5931232,13.6532951 82.5071633,13.8968481 C82.4641834,14.025788 82.47851,14.1117479 82.6074499,14.1690544 C82.8653295,14.3123209 83.1375358,14.3839542 83.4240688,14.469914 C83.8681948,14.6131805 84.3123209,14.756447 84.713467,15.0143266 C85.3724928,15.4584527 85.5873926,16.0744986 85.487106,16.8338109 C85.2722063,18.3954155 84.0687679,18.9541547 83.0372493,19.0687679 C82.52149,19.1547278 82.0200573,19.0974212 81.6189112,19.1117479 Z" id="Shape" fill="#0176C0"></path>
                <path d="M44.469914,7.75071633 C44.3696275,8.12320917 44.2836676,8.51002865 44.1833811,8.88252149 C43.9971347,9.54154728 43.7535817,10.1719198 43.4813754,10.8022923 C42.9512894,12.0200573 42.3065903,13.1661891 41.5472779,14.2406877 C41.1891117,14.7421203 40.8166189,15.243553 40.4154728,15.7163324 C40.1289398,16.0601719 39.8280802,16.3896848 39.512894,16.7048711 C38.4670487,17.722063 37.3352436,18.5959885 36.017192,19.226361 C35.243553,19.5988539 34.4269341,19.8424069 33.5816619,19.9856734 C33.1375358,20.0573066 32.7077364,20.0573066 32.2636103,20.0429799 C32.234957,20.0429799 32.2206304,20.0286533 32.1919771,20.0286533 C33.8395415,19.8997135 35.2722063,19.2406877 36.5759312,18.252149 C38.9971347,16.4040115 40.530086,13.982808 41.2320917,11.0315186 C41.4899713,9.9713467 41.5902579,8.91117479 41.5759312,7.82234957 C41.5759312,7.46418338 41.5329513,7.12034384 41.5186246,6.76217765 C41.504298,6.4469914 41.6189112,6.34670487 41.9340974,6.30372493 C42.6647564,6.23209169 43.3810888,6.36103152 44.0687679,6.60458453 C44.3696275,6.70487106 44.4842407,6.86246418 44.4985673,7.17765043 C44.4842407,7.3782235 44.4985673,7.56446991 44.469914,7.75071633 Z" id="Shape" fill="#019CDD"></path>
                <path d="M89.6991404,13.5386819 C89.512894,13.5386819 89.3266476,13.5386819 89.1260745,13.5386819 C89.025788,13.5386819 88.982808,13.5673352 88.9684814,13.6676218 C88.8681948,14.2406877 88.7679083,14.8137536 88.6676218,15.3868195 C88.5816619,15.8595989 88.495702,16.3323782 88.4240688,16.7908309 C88.3667622,17.0916905 88.495702,17.234957 88.7965616,17.234957 C89.0687679,17.234957 89.3409742,17.234957 89.6131805,17.234957 C89.6991404,17.234957 89.7421203,17.2492837 89.713467,17.3495702 C89.6131805,17.9083095 89.5272206,18.4670487 89.4269341,19.025788 C89.4126074,19.0687679 89.4269341,19.1260745 89.3409742,19.1260745 C88.8395415,19.1117479 88.3237822,19.1690544 87.8223496,19.0114613 C86.8767908,18.7249284 86.3753582,17.9799427 86.4899713,16.991404 C86.5902579,16.1891117 86.7621777,15.4011461 86.9054441,14.6131805 C86.9627507,14.2979943 87.0057307,13.982808 87.0773639,13.6676218 C87.1060172,13.5530086 87.0630372,13.5386819 86.9627507,13.5386819 C86.8194842,13.5386819 86.6618911,13.5386819 86.5186246,13.5386819 C86.4326648,13.5386819 86.4183381,13.5243553 86.4326648,13.4383954 C86.4613181,13.2664756 86.4899713,13.0945559 86.5186246,12.9226361 C86.5329513,12.8223496 86.5616046,12.7363897 86.6332378,12.6647564 C87.3065903,11.9054441 87.9799427,11.1318052 88.6389685,10.3724928 C88.6962751,10.3008596 88.7535817,10.2722063 88.8538682,10.2722063 C89.0401146,10.286533 89.226361,10.286533 89.4269341,10.2722063 C89.5558739,10.2722063 89.5702006,10.3008596 89.5558739,10.4154728 C89.4842407,10.7879656 89.4269341,11.1747851 89.3409742,11.5472779 C89.3266476,11.6475645 89.3409742,11.6618911 89.4412607,11.6618911 C89.8137536,11.6618911 90.2005731,11.6618911 90.5730659,11.6618911 C90.6876791,11.6618911 90.7163324,11.6905444 90.6876791,11.7908309 C90.5873926,12.3352436 90.5014327,12.8653295 90.4154728,13.4097421 C90.4011461,13.5243553 90.3438395,13.5530086 90.243553,13.5386819 C90.0716332,13.5386819 89.8853868,13.5386819 89.6991404,13.5386819 Z" id="Shape" fill="#0176C0"></path>
                <path d="M35.1575931,10.2292264 C35.3438395,10.286533 35.4154728,10.4584527 35.5157593,10.5873926 C36.1604585,11.3896848 36.5902579,12.2922636 36.8051576,13.2951289 C36.9340974,13.9398281 36.9770774,14.5845272 36.9197708,15.2292264 C36.8911175,15.5873926 36.8338109,15.9455587 36.7335244,16.2893983 C36.7191977,16.3323782 36.7335244,16.3753582 36.7335244,16.4040115 C36.7335244,16.4040115 36.7335244,16.4040115 36.7335244,16.4040115 C36.7191977,16.4040115 36.7048711,16.4183381 36.7191977,16.4326648 C36.4040115,17.034384 35.9455587,17.5358166 35.4441261,17.9942693 C34.6848138,18.6532951 33.782235,19.0114613 32.8080229,19.2120344 C32.3782235,19.2979943 31.9340974,19.3839542 31.4899713,19.4412607 C31.4613181,19.4412607 31.4183381,19.4412607 31.3467049,19.4412607 C32.0487106,19.2406877 32.6790831,18.9684814 33.2378223,18.5530086 C34.5845272,17.5931232 35.4154728,16.3037249 35.773639,14.6848138 C35.9312321,13.982808 35.9598854,13.2664756 35.8882521,12.5501433 C35.7879656,11.747851 35.5444126,10.9598854 35.1575931,10.2292264 Z" id="Shape" fill="#019CDD"></path>
                <path d="M34.2679083,23.5816619 C34.1012416,23.7316619 33.934575,23.7316619 33.7679083,23.6316619 C33.934575,23.5816619 34.1012416,23.5816619 34.2679083,23.5816619 Z" id="Shape" fill="#019CDD"></path>
                <path d="M36.2531519,8.06532951 C36.1031519,8.06532951 36.1031519,7.96532951 36.1031519,7.86532951 C36.1531519,7.96532951 36.2031519,8.01532951 36.2531519,8.06532951 Z" id="Shape" fill="#019CDD"></path>
                <path d="M22.5071633,18.7057637 C22.6571633,18.6557637 22.6571633,18.7557637 22.6571633,18.8557637 C22.6071633,18.8057637 22.5571633,18.7557637 22.5071633,18.7057637 Z" id="Shape" fill="#019CDD"></path>
                <path d="M35.1432665,10.1862464 C35.1932665,10.2362464 35.2432665,10.2362464 35.1932665,10.3362464 C35.1432665,10.2362464 35.1432665,10.2362464 35.1432665,10.1862464 Z" id="Shape" fill="#019CDD"></path>
                <path d="M36.7426299,16.5040115 C36.6926299,16.4540115 36.6926299,16.4040115 36.7926299,16.4040115 C36.7426299,16.4040115 36.7426299,16.4540115 36.7426299,16.5040115 Z" id="Shape" fill="#0076C1"></path>
                <path d="M36.1961318,8.0726361 C36.1961318,8.0226361 36.1461318,7.9726361 36.1461318,7.9226361 C36.1461318,7.9726361 36.1461318,8.0226361 36.1961318,8.0726361 Z" id="Shape" fill="#019CDD"></path>
                <path d="M70.3581662,13.7535817 C70.2148997,13.7535817 70.0716332,13.7535817 69.9283668,13.7535817 C69.7994269,13.7679083 69.7421203,13.739255 69.7707736,13.5816619 C69.8997135,12.9083095 70.0143266,12.2206304 70.1289398,11.5472779 C70.1432665,11.4756447 70.1719198,11.4469914 70.243553,11.4469914 C70.6160458,11.4469914 70.9885387,11.4469914 71.3610315,11.4469914 C71.4756447,11.4469914 71.5902579,11.4756447 71.6905444,11.504298 C72.1060172,11.6332378 72.3065903,11.9484241 72.2636103,12.3782235 C72.1919771,13.1948424 71.6189112,13.7249284 70.7879656,13.739255 C70.6590258,13.7535817 70.5014327,13.7535817 70.3581662,13.7535817 Z" id="Shape" fill="#FEDE00"></path>
                <path d="M50.1146132,13.7535817 C49.9570201,13.7535817 49.7994269,13.7535817 49.6418338,13.7535817 C49.5415473,13.7535817 49.512894,13.7249284 49.5272206,13.6246418 C49.6131805,13.1661891 49.6848138,12.7077364 49.7707736,12.2492837 C49.8137536,12.034384 49.8567335,11.8194842 49.8853868,11.6045845 C49.8997135,11.504298 49.9283668,11.4469914 50.0573066,11.4613181 C50.3868195,11.4756447 50.730659,11.4613181 51.0601719,11.4613181 C51.1604585,11.4613181 51.2464183,11.4613181 51.3467049,11.4899713 C51.9054441,11.6189112 52.1489971,11.9770774 52.034384,12.5501433 C51.8911175,13.3094556 51.3467049,13.7535817 50.5730659,13.7679083 C50.4154728,13.7535817 50.2722063,13.7535817 50.1146132,13.7535817 Z" id="Shape" fill="#FEDE00"></path>
                <path d="M57.1776504,13.5386819 C57.3352436,13.5386819 57.4928367,13.5386819 57.6504298,13.5386819 C57.765043,13.5386819 57.7793696,13.5673352 57.765043,13.6819484 C57.6647564,14.2550143 57.5501433,14.8424069 57.4498567,15.4154728 C57.3782235,15.8309456 57.3065903,16.2320917 57.234957,16.6475645 C57.1633238,17.0630372 56.9627507,17.2492837 56.5329513,17.2492837 C56.3467049,17.2492837 56.1604585,17.2492837 55.9598854,17.2492837 C55.6590258,17.2492837 55.5444126,17.0916905 55.6017192,16.7908309 C55.7593123,15.9169054 55.9169054,15.0286533 56.0601719,14.1404011 C56.1318052,13.7249284 56.3467049,13.5386819 56.7621777,13.5386819 C56.9197708,13.5386819 57.0487106,13.5386819 57.1776504,13.5386819 Z" id="Shape" fill="#FEDE00"></path>
                <path d="M76.5186246,17.234957 C76.4040115,17.234957 76.3037249,17.234957 76.1891117,17.234957 C75.9312321,17.234957 75.8166189,17.1203438 75.8452722,16.8481375 C75.8882521,16.5329513 75.9455587,16.217765 76.0028653,15.8882521 C76.1031519,15.286533 76.217765,14.6991404 76.3180516,14.0974212 C76.3753582,13.7249284 76.5902579,13.5386819 76.9627507,13.5243553 C77.1776504,13.5243553 77.4068768,13.5243553 77.6217765,13.5243553 C77.8653295,13.5243553 77.9512894,13.6246418 77.9369628,13.8538682 C77.8939828,14.1833811 77.8366762,14.512894 77.7793696,14.8424069 C77.6790831,15.4441261 77.5644699,16.0315186 77.4641834,16.6332378 C77.3925501,17.0487106 77.1919771,17.2206304 76.7765043,17.2206304 C76.6905444,17.234957 76.6045845,17.234957 76.5186246,17.234957 Z" id="Shape" fill="#FEDE00"></path>
            </g>
        </g>
    </g>
</svg>