<?xml version="1.0" encoding="UTF-8"?>
<svg width="110px" height="28px" viewBox="0 0 110 28" version="1.1" xmlns="http://www.w3.org/2000/svg" xmlns:xlink="http://www.w3.org/1999/xlink">
    <!-- Generator: Sketch 52.2 (67145) - http://www.bohemiancoding.com/sketch -->
    <title>permata_hover</title>
    <desc>Created with Sketch.</desc>
    <defs>
        <polygon id="path-1" points="0.0753703704 13.2881019 0.0468518519 12.7319907 10.7275463 0.202175926 11.1110185 0.140046296 11.1593981 0.163981481 11.3468056 0.511296296 6.79199074 15.7569907 6.01893519 16.2784722 0.0753703704 13.2881019"></polygon>
        <polygon id="path-3" points="4.79824074 21.3384722 0.230694444 0.720092593 0.39212963 0.333055556 0.468518519 0.298425926 0.985925926 0.434398148 12.3194907 17.602037 12.3067593 18.4978241 5.40069444 21.6730556 4.79824074 21.3384722"></polygon>
        <polygon id="path-5" points="0.321342593 14.8647685 0.0458333333 14.3351389 4.93064815 0.25462963 5.22092593 0.0590740741 5.22958333 0.0585648148 5.49796296 0.214907407 9.73398148 14.3677315 9.16259259 14.9605093 0.321342593 14.8647685"></polygon>
    </defs>
    <g id="Page-1" stroke="none" stroke-width="1" fill="none" fill-rule="evenodd">
        <g id="m7-withdraw-balance-0-1366-copy" transform="translate(-954.000000, -1717.000000)">
            <g id="permata_hover" transform="translate(954.000000, 1716.000000)">
                <g id="Group-6">
                    <g id="g4304" transform="translate(44.987405, 22.599653) scale(-1, 1) rotate(-180.000000) translate(-44.987405, -22.599653) translate(0.172590, 16.284838)" fill="#3A3A3A">
                        <g id="g4306-Clipped">
                            <g id="g4306" transform="translate(0.203704, 0.203704)">
                                <g id="g4312" transform="translate(56.041843, 0.732366)">
                                    <path d="M1.12037037,1.12037037 C1.12953704,1.28842593 1.13921296,1.55782407 1.14787037,1.92703704 L1.14787037,9.00777778 L1.1249537,9.69476852 C1.11935185,9.84092593 1.11222222,9.94023148 1.10509259,9.99217593 C1.0974537,10.0471759 1.08574074,10.094537 1.06944444,10.1383333 C1.01648148,10.3130093 0.898842593,10.43625 0.72212963,10.5100926 C0.559166667,10.5788426 0.318287037,10.6119444 0.00560185185,10.6144907 L0.00560185185,10.8553704 L4.04912037,10.8553704 C4.63680556,10.8543519 5.16796296,10.8161574 5.64208333,10.7397685 C6.11569444,10.6638889 6.49712963,10.5589815 6.78893519,10.4255556 C7.63430556,10.0247685 8.05189815,9.35 8.04731481,8.3900463 C8.05699074,7.01810185 7.15458333,6.14166667 5.28662037,5.91606481 L4.97342593,5.86564815 C5.39356481,5.85037037 5.96189815,5.71032407 6.2262037,5.64921296 C6.48847222,5.58861111 6.74564815,5.49236111 6.99773148,5.36097222 C7.98925926,4.86291667 8.47763889,4.06643519 8.46796296,2.96490741 C8.47305556,1.62708333 7.82069444,0.757268519 6.49662037,0.346296296 C6.20736111,0.263796296 5.84476852,0.198611111 5.4062963,0.15125 C4.9662963,0.103888889 4.48861111,0.0794444444 3.97375,0.0784259259 L0.00560185185,0.0784259259 L0.00560185185,0.319814815 C0.472592593,0.325416667 0.793935185,0.396712963 0.936018519,0.564259259 C0.995601852,0.621296296 1.03787037,0.683935185 1.06587963,0.755740741 C1.09439815,0.828564815 1.1112037,0.952824074 1.12037037,1.12037037 Z M2.36601852,10.5243519 L2.36601852,6.03064815 L3.9437037,6.03064815 C5.77856481,6.04134259 6.72884259,6.8037037 6.73902778,8.3299537 C6.75175926,9.81138889 5.7500463,10.534537 3.80824074,10.5243519 L2.36601852,10.5243519 Z M7.05476852,3.08509259 C7.04458333,4.13263889 6.66569444,4.87310185 5.91046296,5.28712963 C5.6812963,5.40425926 5.39,5.49439815 5.04013889,5.55805556 C4.69078704,5.6212037 4.30527778,5.65328704 3.88361111,5.65481481 L2.36601852,5.65481481 L2.36601852,0.409953704 L3.88361111,0.409953704 C4.98310185,0.404861111 5.78671296,0.610092593 6.28171296,1.04041667 C6.53277778,1.24666667 6.72324074,1.52675926 6.85564815,1.87814815 C6.9875463,2.22953704 7.05324074,2.63287037 7.05476852,3.08509259 Z" id="path4314"></path>
                                </g>
                                <g id="g4316" transform="translate(65.204435, 0.609074)" fill-rule="nonzero">
                                    <path d="M5.09259259,0.509259259 C5.01060185,0.671712963 4.95305556,0.864722222 4.92810185,1.35819444 L4.92097222,1.50435185 L4.8237037,1.39486111 C4.70810185,1.26398148 4.59453704,1.15092593 4.48351852,1.05467593 C4.37199074,0.957407407 4.24263889,0.858101852 4.0975,0.757268519 C3.77819444,0.523009259 3.47060185,0.358009259 3.17574074,0.261759259 C2.88087963,0.166018519 2.54833333,0.119166667 2.17810185,0.122222222 C1.53337963,0.119675926 1.03837963,0.272453704 0.684444444,0.573425926 C0.486342593,0.751666667 0.331018519,0.975231481 0.217453704,1.24666667 C0.103888889,1.51759259 0.0458333333,1.80888889 0.043287037,2.12157407 C0.0509259259,3.27453704 0.758796296,4.01856481 2.20662037,4.34805556 C2.58958333,4.43666667 2.99444444,4.50949074 3.42018519,4.56652778 C3.8474537,4.62356481 4.33125,4.67041667 4.87259259,4.70708333 L4.92810185,5.71287037 C4.92912037,6.05662037 4.91231481,6.33518519 4.8787037,6.5475463 C4.84509259,6.7624537 4.78958333,6.94986111 4.71166667,7.10824074 C4.49675926,7.52685185 4.0587963,7.7275 3.42578704,7.7275 C2.41032407,7.73259259 1.85981481,7.24930556 1.80277778,6.28782407 C1.79666667,6.1350463 1.78240741,6.02759259 1.7625463,5.96240741 C1.74319444,5.9012963 1.71009259,5.85597222 1.66324074,5.82287037 C1.56240741,5.75513889 1.40148148,5.71592593 1.17027778,5.71337963 C0.672731481,5.70574074 0.486342593,5.85393519 0.494490741,6.10296296 C0.497546296,6.3637037 0.58412037,6.61578704 0.757777778,6.8587037 C0.931435185,7.10263889 1.17333333,7.31449074 1.48601852,7.49527778 C2.04824074,7.80694444 2.76833333,7.96583333 3.65138889,7.96837963 C4.6174537,7.96583333 5.26523148,7.74685185 5.61916667,7.32875 C5.76226852,7.1525463 5.8687037,6.93509259 5.93796296,6.67180556 C6.00671296,6.40851852 6.04185185,6.0749537 6.04134259,5.66907407 L6.03981481,5.58300926 L6.03217593,5.18986111 L6.0112963,4.15148148 L5.99601852,2.72351852 L5.98125,2.03194444 C5.98226852,1.70652778 5.99601852,1.45851852 6.01842593,1.18097222 C6.04083333,0.910555556 6.13759259,0.609074074 6.35402778,0.52912037 C6.57962963,0.445601852 6.79657407,0.4125 7.20958333,0.409953704 C7.51310185,0.416064815 7.74685185,0.450694444 7.90523148,0.517916667 C8.08601852,0.594814815 8.19703704,0.757777778 8.24490741,0.988981481 C8.29175926,1.21458333 8.31212963,1.55782407 8.30703704,2.01768519 L8.30703704,6.04796296 C8.31722222,6.59643519 8.25356481,6.9824537 8.09722222,7.18412037 C7.94444444,7.3812037 7.66027778,7.46625 7.26967593,7.46217593 L7.26967593,7.67606481 L9.41976852,7.83291667 L9.41976852,6.12027778 L9.53180556,6.31990741 C9.85009259,6.88671296 10.2111574,7.2875 10.612963,7.52837963 C11.0147685,7.76925926 11.5184259,7.88842593 12.1249537,7.88231481 C13.0365278,7.89453704 13.6715741,7.58898148 14.0433333,6.97837963 C14.1793056,6.77416667 14.2786111,6.52768519 14.3376852,6.23944444 C14.3967593,5.95069444 14.4262963,5.58148148 14.4247685,5.13180556 L14.4247685,2.01768519 C14.4191667,1.55324074 14.4385185,1.2074537 14.4833333,0.98287037 C14.5291667,0.751666667 14.6391667,0.589212963 14.820463,0.514351852 C14.9701852,0.452731481 15.319537,0.41912037 15.6174537,0.410972222 C15.8965278,0.41962963 16.1124537,0.45375 16.2601389,0.518425926 C16.4363426,0.595324074 16.5427778,0.758796296 16.5881019,0.99 C16.6318981,1.21458333 16.6507407,1.55833333 16.6451389,2.01768519 L16.6451389,9.33981481 C16.6507407,9.75944444 16.6334259,10.0706019 16.5911574,10.27125 C16.5473611,10.4805556 16.4393981,10.6246759 16.2626852,10.6868056 C16.1093981,10.740787 15.8797222,10.76625 15.5782407,10.7672685 L15.5782407,10.9816667 L17.8143981,11.0957407 C17.7863889,10.599213 17.765,10.0914815 17.7507407,9.5725463 C17.735463,9.03069444 17.7283333,8.55759259 17.7283333,8.15273148 L17.7283333,3.2337963 L20.1921296,5.93337963 C20.540463,6.31939815 20.7309259,6.6437963 20.7334722,6.90351852 C20.7512963,7.26509259 20.3861574,7.42856481 19.7867593,7.45861111 L19.7867593,7.67199074 L22.9884722,7.67199074 L22.9884722,7.4550463 C22.7959722,7.43263889 22.6284259,7.3975 22.4863426,7.34861111 C22.3315278,7.29615741 22.1726389,7.21976852 22.0106944,7.12199074 C21.8462037,7.02268519 21.7087037,6.93152778 21.5971759,6.84851852 C21.4836111,6.76347222 21.3496759,6.64277778 21.1953704,6.48592593 C21.0410648,6.32958333 20.8180093,6.09226852 20.5246759,5.77347222 L19.7113889,4.89805556 L21.8400926,1.54967593 C22.0830093,1.15296296 22.3065741,0.872361111 22.5118056,0.712962963 C22.7078704,0.561203704 22.9579167,0.463425926 23.2588889,0.417083333 L23.2588889,0.198101852 L21.3119907,0.198101852 C21.2585185,0.307083333 21.1851852,0.448148148 21.0914815,0.621296296 L20.7818519,1.18606481 L20.5450463,1.6112963 L18.9693981,4.17898148 L17.7313889,2.7937963 L17.7283333,2.01768519 C17.7227315,1.55833333 17.7415741,1.21458333 17.7858796,0.989490741 C17.831713,0.758287037 17.9396759,0.594814815 18.1184259,0.517916667 C18.2747685,0.451203704 18.5075,0.416064815 18.81,0.409953704 L18.81,0.198101852 L12.2298611,0.198101852 L12.2298611,0.410462963 C12.675463,0.422685185 12.9815278,0.495509259 13.1042593,0.657962963 C13.1536574,0.721111111 13.1908333,0.792916667 13.2168056,0.87337963 C13.243287,0.954351852 13.2590741,1.05875 13.266713,1.18606481 C13.2753704,1.28689815 13.284537,1.43203704 13.2947222,1.62300926 C13.3054167,1.81449074 13.3110185,1.94638889 13.312037,2.01666667 L13.312037,5.04115741 C13.3145833,5.78722222 13.2346296,6.33925926 13.0655556,6.69013889 C12.8093981,7.24217593 12.3459722,7.5187037 11.6890278,7.52125 C10.956713,7.5237963 10.3725926,7.1749537 9.93972222,6.48592593 C9.77675926,6.22569444 9.65046296,5.92930556 9.55930556,5.5987963 C9.46763889,5.26726852 9.4212963,4.94134259 9.41976852,4.62050926 L9.41976852,2.01768519 C9.41416667,1.55324074 9.43351852,1.2074537 9.47833333,0.98287037 C9.52416667,0.751666667 9.63365741,0.589212963 9.8149537,0.514351852 C9.97333333,0.449166667 10.2091204,0.415555556 10.516713,0.409953704 L10.516713,0.198101852 L7.28037037,0.198611111 C6.99314815,0.188935185 6.44671296,0.174166667 6.17578704,0.177731481 C5.89162037,0.181805556 5.75462963,0.211851852 5.49541667,0.231203704 C5.26523148,0.298425926 5.16847222,0.358518519 5.09259259,0.509259259 M1.27671296,2.16638889 C1.28231481,1.67648148 1.40148148,1.27824074 1.63930556,0.977777778 C1.87763889,0.675787037 2.20050926,0.520972222 2.59875,0.513333333 C3.00106481,0.518935185 3.38148148,0.623842593 3.7374537,0.827546296 C4.09240741,1.03125 4.37199074,1.30268519 4.57467593,1.64032407 C4.69842593,1.85574074 4.78856481,2.13277778 4.84509259,2.46837963 C4.90111111,2.8024537 4.92912037,3.21800926 4.92810185,3.71453704 L4.92812866,4.48606481 C4.2075,4.42393519 3.69212963,4.3562037 3.31731481,4.27675926 C2.9399537,4.19680556 2.60689815,4.08273148 2.31662037,3.93351852 C1.62759259,3.5912963 1.28180556,2.99800926 1.27671296,2.16638889" id="path4318"></path>
                                </g>
                                <g id="g4320" transform="translate(0.110560, 0.764245)">
                                    <path d="M3.05555556,4.58333333 L3.05555556,1.90208333 C3.0499537,1.47175926 3.07439815,1.1524537 3.12939815,0.944166667 C3.18490741,0.73537037 3.30407407,0.59787037 3.48791667,0.530648148 C3.67175926,0.462916667 3.95388889,0.425231481 4.33430556,0.417592593 L4.33430556,0.043287037 L0.124259259,0.043287037 L0.124259259,0.417592593 C0.483287037,0.425231481 0.748611111,0.462916667 0.920740741,0.530648148 C1.09287037,0.59787037 1.20439815,0.73537037 1.25532407,0.944166667 C1.30625,1.1524537 1.32865741,1.47175926 1.32305556,1.90208333 L1.32305556,8.95023148 C1.32865741,9.38055556 1.30625,9.70037037 1.25736111,9.90916667 C1.20796296,10.117963 1.10101852,10.2569907 0.936527778,10.32625 C0.771527778,10.3960185 0.518935185,10.4367593 0.177222222,10.4494907 L0.177222222,10.8243056 L4.18814815,10.8243056 C5.54023148,10.8299074 6.53023148,10.5910648 7.15967593,10.1087963 C7.78861111,9.62601852 8.09925926,8.86518519 8.09212963,7.8262963 C8.0962037,6.36574074 7.52787037,5.40986111 6.38662037,4.95814815 C6.0887037,4.84152778 5.7087963,4.75037037 5.24740741,4.68416667 C4.78601852,4.61847222 4.27319444,4.58486111 3.70842593,4.58333333 L3.05555556,4.58333333 Z M3.05555556,5.00143519 L3.74865741,5.00143519 C4.5812963,5.00398148 5.19393519,5.20106481 5.58708333,5.59217593 C5.80097222,5.8187963 5.96291667,6.11518519 6.07342593,6.48236111 C6.18393519,6.84902778 6.23944444,7.26814815 6.2399537,7.73972222 C6.23537037,9.515 5.45824074,10.4036574 3.90805556,10.4062037 L3.05555556,10.4062037 L3.05555556,5.00143519 Z" id="path4322"></path>
                                </g>
                                <g id="g4324" transform="translate(7.851454, 0.311565)">
                                    <path d="M7.12962963,4.58333333 L2.23055556,4.58333333 C2.23615741,4.06083333 2.26671296,3.62236111 2.32273148,3.26842593 C2.37824074,2.915 2.46787037,2.59162037 2.59111111,2.2987963 C2.99800926,1.35055556 3.62643519,0.876944444 4.47689815,0.876944444 C4.95865741,0.879490741 5.39560185,1.02106481 5.78722222,1.30217593 C6.17935185,1.58328704 6.50476852,1.98712963 6.765,2.51472222 L7.11180556,2.28453704 C6.77060185,1.60569444 6.35402778,1.10712963 5.86208333,0.788842593 C5.37013889,0.470555556 4.76972222,0.313194444 4.06083333,0.31625 C2.94555556,0.330509259 1.92041667,0.686990741 1.27773148,1.38467593 C0.635555556,2.08287037 0.308101852,3.03925926 0.29537037,4.25282407 C0.308101852,5.47555556 0.624861111,6.44263889 1.24513889,7.15509259 C1.86490741,7.86703704 2.85541667,8.23115741 3.92231481,8.24694444 C4.63222222,8.24490741 5.31717593,8.08347222 5.80351852,7.76212963 C6.28986111,7.44027778 6.64837963,6.96972222 6.88009259,6.35046296 C6.95546296,6.14472222 7.0125,5.90944444 7.05171296,5.64462963 C7.09041667,5.37981481 7.11638889,5.02587963 7.12962963,4.58333333 M2.24430556,4.99990741 L5.30902778,4.99990741 C5.29680556,5.44296296 5.27287037,5.7999537 5.23773148,6.07037037 C5.20310185,6.34078704 5.14810185,6.58268519 5.07324074,6.79555556 C4.81453704,7.55027778 4.41680556,7.92356481 3.88106481,7.91643519 C3.28013889,7.91134259 2.83148148,7.49018519 2.53560185,6.65194444 C2.46023148,6.435 2.39962963,6.19717593 2.3537963,5.93898148 C2.30796296,5.68078704 2.2712963,5.36759259 2.24430556,4.99990741" id="path4326"></path>
                                </g>
                                <g id="g4328" transform="translate(14.785120, 0.714032)" fill-rule="nonzero">
                                    <path d="M0.509259259,7.63888889 L3.22666667,7.82680556 C3.24092593,7.55587963 3.25212963,7.32773148 3.25925926,7.14388889 C3.26638889,6.95953704 3.2699537,6.79657407 3.2699537,6.65601852 L3.2699537,6.22212963 C3.86018519,7.30125 4.57314815,7.84615741 5.40935185,7.85583333 C5.77041667,7.8487037 6.06375,7.74328704 6.28935185,7.53958333 C6.51444444,7.33587963 6.63106481,7.07462963 6.63768519,6.75685185 C6.63259259,6.4925463 6.53481481,6.28069444 6.34486111,6.1212963 C6.15541667,5.96138889 5.90638889,5.87939815 5.59726852,5.87532407 C5.22601852,5.86361111 4.99990741,6.01740741 4.91791667,6.33773148 C4.86444444,6.53583333 4.80893519,6.67078704 4.75138889,6.74259259 C4.69435185,6.81439815 4.60981481,6.84800926 4.4987963,6.84393519 L4.46976852,6.84393519 C4.18560185,6.81949074 3.91569444,6.59337963 3.66055556,6.16458333 C3.5449537,5.95018519 3.45787037,5.71388889 3.39981481,5.45416667 C3.34226852,5.1949537 3.31324074,4.89703704 3.31324074,4.55990741 L3.31324074,1.88578704 C3.30763889,1.45902778 3.32851852,1.14430556 3.37537037,0.94212963 C3.42222222,0.739953704 3.52865741,0.607546296 3.69467593,0.544907407 C3.86018519,0.482777778 4.11888889,0.447638889 4.46976852,0.440509259 L4.46976852,0.0931944444 L0.451712963,0.0931944444 L0.451712963,0.440509259 C0.779166667,0.438981481 1.02157407,0.470555556 1.17944444,0.535740741 C1.33731481,0.600416667 1.43967593,0.73587963 1.48703704,0.94212963 C1.53388889,1.14888889 1.55476852,1.46310185 1.55018519,1.88578704 L1.55018519,5.89009259 C1.56342593,6.48592593 1.50384259,6.87296296 1.37092593,7.05171296 C1.23851852,7.23046296 0.950787037,7.31041667 0.509259259,7.29208333 L0.509259259,7.63888889 Z" id="path4330"></path>
                                </g>
                                <g id="g4332" transform="translate(21.595394, 0.392181)" fill-rule="nonzero">
                                    <path d="M3.05555556,8.14814815 L3.07032407,6.71712963 C3.65546296,7.68064815 4.4937037,8.1675 5.5850463,8.17717593 C6.69574074,8.18430556 7.37967593,7.67861111 7.63736111,6.65907407 C7.95157407,7.18412037 8.31009259,7.56912037 8.71240741,7.81407407 C9.11523148,8.05851852 9.58527778,8.17972222 10.1235648,8.17717593 C10.9740278,8.17208333 11.6004167,7.89300926 12.0027315,7.33893519 C12.1600926,7.12912037 12.2716204,6.8724537 12.3388426,6.56893519 C12.4055556,6.26541667 12.4381481,5.87175926 12.4361111,5.3874537 L12.4361111,2.20763889 C12.4315278,1.7849537 12.4524074,1.47074074 12.4992593,1.26449074 C12.5466204,1.05773148 12.6489815,0.922268519 12.8068519,0.857592593 C12.9647222,0.792407407 13.2071296,0.760833333 13.5350926,0.762361111 L13.5350926,0.415046296 L9.61787037,0.415046296 L9.61787037,0.762361111 C9.93106481,0.760833333 10.163287,0.792407407 10.3150463,0.857592593 C10.4668056,0.922268519 10.5656019,1.05773148 10.6114352,1.26449074 C10.6572685,1.47074074 10.6776389,1.7849537 10.6730556,2.20763889 L10.6730556,5.37319444 C10.6761111,6.1325 10.5829167,6.68046296 10.392963,7.01708333 C10.2025,7.3537037 9.89643519,7.5187037 9.47324074,7.51208333 C8.965,7.52175926 8.5362037,7.25694444 8.18685185,6.71712963 C7.88587963,6.26643519 7.73615741,5.78009259 7.7387037,5.25708333 L7.7387037,2.20763889 C7.73412037,1.7849537 7.75449074,1.47074074 7.80083333,1.26449074 C7.84666667,1.05773148 7.94699074,0.922268519 8.10078704,0.857592593 C8.25458333,0.792407407 8.49037037,0.760833333 8.80814815,0.762361111 L8.80814815,0.415046296 L4.93472222,0.415046296 L4.93472222,0.762361111 C5.24791667,0.760833333 5.48064815,0.792407407 5.63189815,0.857592593 C5.78365741,0.922268519 5.8824537,1.05773148 5.92828704,1.26449074 C5.97412037,1.47074074 5.99449074,1.7849537 5.98990741,2.20763889 L5.98990741,5.3874537 C5.99703704,6.81847222 5.60694444,7.52685185 4.81912037,7.51208333 C4.3287037,7.49476852 3.91773148,7.26203704 3.58671296,6.81490741 C3.25569444,6.36726852 3.08356481,5.80962963 3.07032407,5.14148148 L3.07032407,2.20763889 C3.06574074,1.78037037 3.08611111,1.46361111 3.13194444,1.25787037 C3.17726852,1.05162037 3.27606481,0.917175926 3.42782407,0.854027778 C3.57958333,0.79087963 3.81180556,0.760324074 4.125,0.762361111 L4.125,0.415046296 L0.207777778,0.415046296 L0.207777778,0.762361111 C0.535740741,0.760324074 0.778148148,0.79087963 0.936018519,0.854027778 C1.09388889,0.917175926 1.19675926,1.05162037 1.24361111,1.25787037 C1.29046296,1.46361111 1.31134259,1.78037037 1.30675926,2.20763889 L1.30675926,6.22569444 C1.32152778,6.81388889 1.26296296,7.19481481 1.12953704,7.36949074 C0.99662037,7.54365741 0.699212963,7.62513889 0.237314815,7.61342593 L0.237314815,7.96023148 L3.05555556,8.14814815 Z" id="path4334"></path>
                                </g>
                                <g id="g4336" transform="translate(42.351324, 0.240014)" fill-rule="nonzero">
                                    <path d="M3.05555556,7.63888889 L3.05555556,2.81111111 C3.0550463,2.49689815 3.06675926,2.23666667 3.08967593,2.03092593 C3.11310185,1.82518519 3.14976852,1.65152778 3.20018519,1.51046296 C3.2612963,1.34902778 3.35550926,1.22018519 3.48384259,1.12393519 C3.61166667,1.02768519 3.75324074,0.977777778 3.90805556,0.975740741 C4.21666667,0.980324074 4.5537963,1.12953704 4.9199537,1.42388889 L5.12212963,1.06231481 C4.54208333,0.575972222 3.88157407,0.335092593 3.14212963,0.339675926 C2.34462963,0.351898148 1.80023148,0.616712963 1.50893519,1.13462963 C1.45189815,1.24921296 1.40708333,1.38009259 1.37550926,1.52675926 C1.34393519,1.67342593 1.32203704,1.87152778 1.30981481,2.12055556 C1.29759259,2.37009259 1.29148148,2.70671296 1.29199074,3.12939815 L1.29199074,7.63888889 L0.468009259,7.63888889 L0.468009259,8.07226852 C0.782731481,8.08449074 1.04958333,8.15069444 1.26856481,8.27138889 C1.4875463,8.39208333 1.67851852,8.58101852 1.84148148,8.8387037 C1.96930556,9.03476852 2.07472222,9.25324074 2.15773148,9.49259259 C2.24023148,9.7324537 2.31305556,10.0298611 2.3762037,10.3853241 L3.09884259,10.4576389 C3.08916667,10.2661574 3.08101852,10.0721296 3.07490741,9.87555556 C3.06828704,9.67898148 3.0637037,9.44217593 3.06064815,9.16513889 C3.05708333,8.88861111 3.05555556,8.53365741 3.05555556,8.10180556 L4.80435185,8.10180556 L4.80435185,7.63888889 L3.05555556,7.63888889 Z" id="path4338"></path>
                                </g>
                                <g id="g4340" transform="translate(35.173417, 0.502384)">
                                    <path d="M7.63888889,0.611111111 L7.63888889,0.305555556 C7.21569444,0.277546296 7.04509259,0.278055556 6.60050926,0.277546296 C6.24759259,0.277037037 5.8824537,0.283148148 5.57944444,0.397222222 C5.39203704,0.4675 5.28712963,0.527592593 5.14759259,0.675277778 C5.04981481,0.830092593 4.98768519,0.838240741 4.95611111,1.26958333 C4.58333333,0.866759259 4.19476852,0.57037037 3.79143519,0.380925926 C3.38759259,0.190972222 2.95166667,0.0972685185 2.48467593,0.0987962963 C1.79106481,0.106435185 1.2487037,0.297916667 0.857083333,0.67375 C0.464953704,1.04958333 0.265833333,1.56597222 0.258703704,2.22393519 C0.256157407,3.46449074 1.02768519,4.23550926 2.57175926,4.53648148 C3.26791667,4.67143519 4.05777778,4.76259259 4.94185185,4.81097222 L4.94185185,5.75055556 C4.94949074,6.50324074 4.86953704,7.02523148 4.70351852,7.315 C4.5375,7.60527778 4.24111111,7.7437963 3.81435185,7.73055556 C3.36162037,7.74023148 3.03875,7.57675926 2.84625,7.23912037 C2.77597222,7.12351852 2.7250463,6.99009259 2.6924537,6.83986111 C2.66037037,6.68962963 2.63439815,6.48083333 2.6150463,6.21296296 C2.60333333,5.95578704 2.52847222,5.77296296 2.39097222,5.66398148 C2.25296296,5.555 2.03347222,5.50203704 1.73300926,5.50458333 C1.06333333,5.50967593 0.726203704,5.7312037 0.721111111,6.16967593 C0.723657407,6.42532407 0.802592593,6.66925926 0.958425926,6.90148148 C1.11375,7.1337037 1.33375,7.33791667 1.61791667,7.51412037 C2.21986111,7.88486111 3.00972222,8.06768519 3.98800926,8.06310185 C4.98310185,8.06768519 5.69606481,7.87060185 6.12740741,7.47032407 C6.32143519,7.2875 6.46402778,7.05375 6.55518519,6.76958333 C6.64685185,6.48541667 6.69166667,6.12180556 6.69115741,5.67824074 L6.67638889,4.42087963 L6.66212963,3.16351852 C6.64990741,2.75152778 6.64532407,2.4912963 6.64736111,2.38282407 C6.64226852,1.86185185 6.65907407,1.48092593 6.69675926,1.24106481 C6.73444444,1.00069444 6.7762037,0.895277778 6.93407407,0.764907407 C7.21009259,0.607037037 7.44638889,0.61162037 7.63888889,0.611111111 M4.94185185,3.36569444 L4.94185185,4.47842593 C3.90703704,4.40814815 3.17319444,4.21666667 2.73981481,3.90398148 C2.30643519,3.5912963 2.09611111,3.10342593 2.10884259,2.44037037 C2.11342593,1.92041667 2.22037037,1.50791667 2.42865741,1.20287037 C2.6374537,0.897824074 2.92111111,0.741990741 3.27962963,0.734861111 C3.57398148,0.737916667 3.84541667,0.822453704 4.09444444,0.99 C4.34347222,1.15652778 4.53953704,1.38976852 4.68162037,1.6887037 C4.77481481,1.87203704 4.84152778,2.09509259 4.88226852,2.35939815 C4.92300926,2.6237037 4.94287037,2.9587963 4.94185185,3.36569444" id="path4342"></path>
                                </g>
                                <g id="g4344" transform="translate(47.618593, 0.094977)">
                                    <path d="M7.63888889,1.01851852 L7.63888889,0.712962963 C7.21569444,0.684953704 7.04509259,0.684444444 6.60050926,0.683935185 C6.24759259,0.683425926 5.8824537,0.689537037 5.57944444,0.803611111 C5.39203704,0.873888889 5.28712963,0.933981481 5.14759259,1.08166667 C5.04981481,1.23648148 4.98768519,1.24462963 4.95611111,1.67597222 C4.58333333,1.27314815 4.19476852,0.976759259 3.79092593,0.787314815 C3.38759259,0.597361111 2.95166667,0.503657407 2.48467593,0.505185185 C1.79106481,0.512824074 1.2487037,0.704305556 0.857083333,1.08013889 C0.464953704,1.45597222 0.265833333,1.97236111 0.258703704,2.63032407 C0.256157407,3.87087963 1.02717593,4.64189815 2.57175926,4.94287037 C3.26791667,5.07782407 4.05777778,5.16898148 4.94185185,5.21736111 L4.94185185,6.15694444 C4.94949074,6.90962963 4.86953704,7.43162037 4.70351852,7.72138889 C4.53699074,8.01166667 4.24060185,8.15018519 3.81435185,8.13694444 C3.36162037,8.14662037 3.03875,7.98314815 2.84625,7.64550926 C2.77597222,7.52990741 2.72453704,7.39648148 2.6924537,7.24625 C2.66037037,7.09601852 2.63439815,6.88722222 2.6150463,6.61935185 C2.60333333,6.36217593 2.52847222,6.17935185 2.39097222,6.06986111 C2.25296296,5.96138889 2.03347222,5.90842593 1.73300926,5.91097222 C1.06333333,5.91606481 0.726203704,6.13759259 0.721111111,6.57606481 C0.723657407,6.83171296 0.802592593,7.07564815 0.958425926,7.30787037 C1.11375,7.54009259 1.33375,7.74430556 1.61740741,7.92050926 C2.21986111,8.29125 3.00972222,8.47407407 3.98800926,8.46949074 C4.98310185,8.47407407 5.69606481,8.27699074 6.12740741,7.87671296 C6.32143519,7.69388889 6.46402778,7.46013889 6.55518519,7.17597222 C6.64685185,6.89180556 6.69166667,6.52819444 6.69115741,6.08462963 L6.67638889,4.82726852 L6.66212963,3.56990741 C6.64990741,3.15791667 6.64532407,2.89768519 6.64736111,2.78921296 C6.64226852,2.26824074 6.65907407,1.88731481 6.69675926,1.64694444 C6.73444444,1.40708333 6.7762037,1.30166667 6.93407407,1.1712963 C7.21009259,1.01342593 7.44638889,1.01902778 7.63888889,1.01851852 M4.94185185,3.77208333 L4.94185185,4.88481481 C3.90703704,4.81453704 3.17268519,4.62305556 2.73981481,4.31037037 C2.30643519,3.99768519 2.09611111,3.50981481 2.10884259,2.84675926 C2.11342593,2.32680556 2.22037037,1.91430556 2.42865741,1.60925926 C2.6374537,1.30421296 2.92111111,1.14837963 3.27962963,1.14125 C3.57398148,1.14430556 3.84541667,1.22884259 4.09444444,1.39638889 C4.34347222,1.56342593 4.53902778,1.79615741 4.68162037,2.09560185 C4.77481481,2.27791667 4.84152778,2.50148148 4.88226852,2.76578704 C4.92300926,3.02958333 4.94287037,3.36518519 4.94185185,3.77208333" id="path4346"></path>
                                </g>
                            </g>
                        </g>
                    </g>
                    <g id="Group-9" transform="translate(85.148148, 0.000000)">
                        <g id="g4348" transform="translate(5.907407, 14.870370) scale(1, -1) translate(-5.907407, -14.870370) translate(0.000000, 6.518519)" fill="#0097B9" fill-rule="nonzero">
                            <polygon id="path4350" points="0.248706507 13.4008369 0.220187988 12.8442165 10.9008824 0.314910956 11.2843547 0.252272068 11.3327343 0.276207253 11.5201417 0.623522068 6.96532688 15.8697258 6.19227132 16.390698"></polygon>
                        </g>
                        <g id="Group-8">
                            <g id="Group-7">
                                <g id="g4376" transform="translate(18.098516, 17.303356) scale(-1, 1) rotate(-180.000000) translate(-18.098516, -17.303356) translate(11.579997, 6.099653)" fill="#80B13A" fill-rule="nonzero">
                                    <g id="g4378-Clipped">
                                        <g id="g4378" transform="translate(0.305556, 0.305556)">
                                            <g id="g4384" transform="translate(0.308102, 0.283963)">
                                                <polygon id="path4386" points="5.19444444 21.3888889 12.1005093 18.2136574 12.1132407 17.3178704 0.779675926 0.150231481 0.262268519 0.01375 0.18587963 0.0488888889 0.0244444444 0.435925926 4.5925 21.0543056"></polygon>
                                            </g>
                                        </g>
                                    </g>
                                </g>
                                <g id="g4412" transform="translate(11.987405, 8.340393) scale(-1, 1) rotate(-180.000000) translate(-11.987405, -8.340393) translate(6.691108, 0.395949)" fill="#D81936" fill-rule="nonzero">
                                    <g id="g4414-Clipped" transform="translate(0.000000, 0.000000)">
                                        <g id="g4414" transform="translate(0.101852, 0.203704)">
                                            <g id="g4420" transform="translate(0.045833, 0.076134)">
                                                <polygon id="path4422" points="0 14.3611111 0.275 14.8907407 9.11675926 14.9864815 9.68814815 14.3931944 5.45212963 0.24037037 5.18375 0.084537037 5.17509259 0.0850462963 4.88481481 0.280601852"></polygon>
                                            </g>
                                        </g>
                                    </g>
                                </g>
                                <g id="Group-5" transform="translate(0.000000, 0.814815)">
                                    <g id="g4352" transform="translate(5.876294, 14.145949) scale(-1, 1) rotate(-180.000000) translate(-5.876294, -14.145949) translate(0.172590, 5.997801)">
                                        <g id="g4354-Clipped">
                                            <mask id="mask-2" fill="white">
                                                <use xlink:href="#path-1"></use>
                                            </mask>
                                            <g id="path4358-8"></g>
                                            <g id="g4354" mask="url(#mask-2)">
                                                <g transform="translate(-0.407407, -0.509259)">
                                                    <g id="g4360" transform="translate(0.076542, 0.410005)">
                                                        <polygon id="path4362" fill="#005874" points="3.56481481 12.2222222 11.4634259 0.205740741 11.043287 0.274490741 0.348842593 12.8363889"></polygon>
                                                    </g>
                                                    <g id="g4364" transform="translate(3.381889, 12.726898)">
                                                        <polygon id="path4366" fill="#2FB8E7" fill-rule="nonzero" points="3.05555556 4.07407407 3.82606481 3.55106481 1.43305556 0.369212963 0.321851852 0.855046296"></polygon>
                                                    </g>
                                                    <g id="g4368" transform="translate(0.138468, 12.563833)">
                                                        <polygon id="path4370" fill="#007592" fill-rule="nonzero" points="3.56481481 1.01851852 3.50268519 0.0682407407 0.287222222 0.682407407 0.320833333 1.2349537"></polygon>
                                                    </g>
                                                    <g id="g4372" transform="translate(4.814792, 0.364222)">
                                                        <polygon id="path4374" fill="#007592" fill-rule="nonzero" points="0 12.7314815 2.39810185 15.9184259 7.01046296 0.659490741 6.77569444 0.264814815"></polygon>
                                                    </g>
                                                </g>
                                            </g>
                                        </g>
                                    </g>
                                    <g id="g4388" transform="translate(18.302219, 16.386690) scale(-1, 1) rotate(-180.000000) translate(-18.302219, -16.386690) translate(11.987405, 5.386690)">
                                        <g id="g4390-Clipped">
                                            <mask id="mask-4" fill="white">
                                                <use xlink:href="#path-3"></use>
                                            </mask>
                                            <g id="path4394-7"></g>
                                            <g id="g4390" mask="url(#mask-4)">
                                                <g transform="translate(-0.101852, -0.101852)">
                                                    <g id="g4396" transform="translate(0.222903, 0.289208)">
                                                        <polygon id="path4398" fill="#6E9123" fill-rule="nonzero" points="12.2222222 17.4166667 0.897824074 0.211851852 0.318796296 0.043287037 7.59763889 17.0230093"></polygon>
                                                    </g>
                                                    <g id="g4400" transform="translate(0.303417, 0.205333)">
                                                        <polygon id="path4402" fill="#3F7937" fill-rule="nonzero" points="6.21296296 17.8240741 0.173148148 0.180277778 0.00305555556 0.613148148 4.58893519 21.2524074"></polygon>
                                                    </g>
                                                    <g id="g4404" transform="translate(7.334250, 17.072000)">
                                                        <polygon id="path4406" fill="#A5C550" fill-rule="nonzero" points="5.09259259 1.52777778 5.11092593 0.634027778 0.486342593 0.239861111 0.225601852 1.46462963"></polygon>
                                                    </g>
                                                    <g id="g4408" transform="translate(4.504449, 18.027472)">
                                                        <polygon id="path4410" fill="#5D8B27" fill-rule="nonzero" points="3.05555556 0.509259259 2.01157407 0.00305555556 0.387037037 3.43189815 0.983888889 3.76851852"></polygon>
                                                    </g>
                                                </g>
                                            </g>
                                        </g>
                                    </g>
                                    <g id="g4424" transform="translate(11.681849, 7.627430) scale(-1, 1) rotate(-180.000000) translate(-11.681849, -7.627430) translate(6.792960, 0.090393)">
                                        <g id="g4426-Clipped">
                                            <mask id="mask-6" fill="white">
                                                <use xlink:href="#path-5"></use>
                                            </mask>
                                            <g id="path4430-4"></g>
                                            <g id="g4426" mask="url(#mask-6)">
                                                <g transform="translate(-0.101852, -0.509259)">
                                                    <g id="g4432" transform="translate(0.034324, 12.874227)">
                                                        <polygon id="path4434" fill="#AF2C35" fill-rule="nonzero" points="4.17592593 1.01851852 3.53884259 0.265833333 0.0835185185 1.98662037 0.362592593 2.51013889"></polygon>
                                                    </g>
                                                    <g id="g4436" transform="translate(0.117333, 0.499736)">
                                                        <polygon id="path4438" fill="#762624" fill-rule="nonzero" points="0 14.3611111 3.45583333 12.6403241 5.20768519 0.0397222222 4.90111111 0.248518519"></polygon>
                                                    </g>
                                                    <g id="g4440" transform="translate(5.235491, 0.406745)">
                                                        <polygon id="path4442" fill="#B22B37" fill-rule="nonzero" points="0 12.7314815 4.61592593 14.4762037 0.386018519 0.297916667 0.0957407407 0.132916667"></polygon>
                                                    </g>
                                                    <g id="g4444" transform="translate(4.210708, 12.874227)">
                                                        <polygon id="path4446" fill="#DC505E" fill-rule="nonzero" points="0 1.01851852 1.02462963 0.263796296 5.64106481 2.00851852 5.06305556 2.59875"></polygon>
                                                    </g>
                                                </g>
                                            </g>
                                        </g>
                                    </g>
                                </g>
                            </g>
                        </g>
                    </g>
                </g>
            </g>
        </g>
    </g>
</svg>