<?xml version="1.0" encoding="UTF-8" standalone="no"?>
<svg width="100px" height="34px" viewBox="0 0 100 34" version="1.1" xmlns="http://www.w3.org/2000/svg" xmlns:xlink="http://www.w3.org/1999/xlink">
    <!-- Generator: Sketch 50.2 (55047) - http://www.bohemiancoding.com/sketch -->
    <title>przelewy24</title>
    <desc>Created with Sketch.</desc>
    <defs>
        <polygon id="path-1" points="0.0190314359 0.00134987593 23.106627 0.00134987593 23.106627 14.3373697 0.0190314359 14.3373697"></polygon>
        <polygon id="path-3" points="0.0769753611 0.013751861 54.146729 0.013751861 54.146729 11.142804 0.0769753611 11.142804"></polygon>
    </defs>
    <g id="Page-1" stroke="none" stroke-width="1" fill="none" fill-rule="evenodd">
        <g id="withdraw-" transform="translate(-757.000000, -2448.000000)">
            <g id="przelewy24" transform="translate(757.000000, 2448.000000)">
                <path d="M2.84324554,22.6409628 L6.64919286,22.6409628 C8.2411215,22.6409628 9.29048428,22.4788933 9.79685641,22.1543325 C10.3032285,21.8299404 10.6607477,21.0843871 10.8694987,19.9177568 C11.1140187,18.5510074 11.1174172,17.6863275 10.8797791,17.3238859 C10.642311,16.9615285 9.95692438,16.7803077 8.82378929,16.7803077 L8.2104503,16.7699305 L3.89345794,16.7699305 L2.84324554,22.6409628 Z M0,29.5578114 L2.52837723,15.4238511 L9.04562447,15.4238511 C10.6514019,15.4238511 11.6914189,15.7311166 12.1655055,16.3453945 C12.6394223,16.9599256 12.7258284,18.1091762 12.424469,19.7934839 C12.135514,21.4087792 11.6344095,22.5099404 10.9212404,23.0966303 C10.2078165,23.6834045 9.01367884,23.9767494 7.33831776,23.9767494 L6.71079014,23.9871266 L2.60237893,23.9871266 L1.60586236,29.5578114 L0,29.5578114 Z" id="Fill-1" fill="#BE4244"></path>
                <path d="M13.8575191,19.6589181 L15.3174172,19.6589181 L14.9676296,20.7979603 L14.9934579,20.8289231 C15.7371283,19.8970868 16.7727273,19.4311266 18.1005947,19.4311266 C19.9358539,19.4311266 20.6856415,20.3698809 20.3497026,22.2475583 L20.2169924,22.930933 L18.7779099,22.930933 L18.8536958,22.6824715 C18.9214953,22.4201737 18.9634664,22.2441836 18.9795242,22.1543325 C19.1610025,21.1396476 18.695497,20.632263 17.5832625,20.632263 C15.9566695,20.632263 14.9647409,21.6298213 14.6079014,23.6246849 L13.546559,29.5578114 L12.086746,29.5578114 L13.8575191,19.6589181" id="Fill-2" fill="#BE4244"></path>
                <polyline id="Fill-3" fill="#BE4244" points="21.6256585 19.6589181 28.8102804 19.6589181 28.5583687 21.0670918 21.3105353 28.3568437 27.2542906 28.3568437 27.0395072 29.5578114 19.3543755 29.5578114 19.6007647 28.1807692 26.8746814 20.8600546 21.4107052 20.8600546 21.6256585 19.6589181"></polyline>
                <path d="M36.493288,23.7489578 L36.5661003,23.2829975 C36.7575191,22.2130521 36.7047579,21.5174442 36.4076466,21.1965112 C36.1106202,20.8755782 35.3745115,20.7151117 34.1998301,20.7151117 C33.017842,20.7151117 32.217757,20.9032506 31.7994902,21.2794442 C31.3809686,21.6557221 31.0583687,22.4788933 30.831181,23.7489578 L36.493288,23.7489578 Z M35.9894647,26.5653896 L37.4806287,26.5653896 L37.4261682,26.9278313 C37.2420561,27.9566055 36.7988105,28.6760893 36.0962617,29.0867047 C35.3935429,29.4975732 34.253356,29.7028387 32.6751912,29.7028387 C30.839932,29.7028387 29.6951572,29.3699256 29.2408666,28.7036774 C28.7864061,28.037598 28.7502124,26.6379454 29.1317757,24.5048883 C29.4849618,22.5306104 30.0104503,21.2052854 30.7084962,20.52866 C31.4063721,19.8522878 32.5966015,19.5139752 34.2790994,19.5139752 C36.1142736,19.5139752 37.264401,19.8074045 37.7294817,20.3940943 C38.1944775,20.9809529 38.2586236,22.2164268 37.9214953,24.1010223 L37.7825828,24.8775385 L30.6084112,24.8775385 C30.3293118,26.4378263 30.3198811,27.4317568 30.5806287,27.8596675 C30.8411215,28.2877469 31.5901444,28.5017022 32.8276975,28.5017022 C34.0023789,28.5017022 34.7836024,28.3999553 35.171113,28.1962084 C35.5583687,27.9926303 35.8129142,27.5525707 35.9338997,26.8760298 L35.9894647,26.5653896 Z" id="Fill-4" fill="#BE4244"></path>
                <polyline id="Fill-5" fill="#BE4244" points="42.6553101 15.4238511 40.1268479 29.5578114 38.6670348 29.5578114 41.195497 15.4238511 42.6553101 15.4238511"></polyline>
                <path d="M50.0829227,23.7489578 L50.1557349,23.2829975 C50.3471538,22.2130521 50.2943076,21.5174442 49.9971963,21.1965112 C49.7002549,20.8755782 48.9641461,20.7151117 47.7893798,20.7151117 C46.6073917,20.7151117 45.8073067,20.9032506 45.3891249,21.2794442 C44.9705183,21.6557221 44.6479184,22.4788933 44.4207307,23.7489578 L50.0829227,23.7489578 Z M49.5790994,26.5653896 L51.0702634,26.5653896 L51.0157179,26.9278313 C50.8316058,27.9566055 50.3883602,28.6760893 49.6858114,29.0867047 C48.9830926,29.4975732 47.8429057,29.7028387 46.2648258,29.7028387 C44.4295667,29.7028387 43.2847918,29.3699256 42.8305013,28.7036774 C42.3760408,28.037598 42.3397621,26.6379454 42.7213254,24.5048883 C43.0745115,22.5306104 43.6,21.2052854 44.2980459,20.52866 C44.9960068,19.8522878 46.1861512,19.5139752 47.8686491,19.5139752 C49.7039082,19.5139752 50.8539507,19.8074045 51.3189465,20.3940943 C51.7841121,20.9809529 51.8482583,22.2164268 51.51113,24.1010223 L51.3721325,24.8775385 L44.1979609,24.8775385 C43.9188615,26.4378263 43.9094308,27.4317568 44.1701784,27.8596675 C44.4307562,28.2877469 45.1797791,28.5017022 46.4172472,28.5017022 C47.5919286,28.5017022 48.373237,28.3999553 48.7606627,28.1962084 C49.1480034,27.9926303 49.4024639,27.5525707 49.5235344,26.8760298 L49.5790994,26.5653896 Z" id="Fill-6" fill="#BE4244"></path>
                <g id="Group-10" transform="translate(52.591334, 19.657568)">
                    <mask id="mask-2" fill="white">
                        <use xlink:href="#path-1"></use>
                    </mask>
                    <g id="Clip-8"></g>
                    <polyline id="Fill-7" fill="#BE4244" mask="url(#mask-2)" points="14.2005947 0.00134987593 9.63508921 9.90024318 7.46610025 9.90024318 7.00841121 2.72455583 6.97077315 1.88586104 6.92259983 1.04708189 6.89141886 1.04708189 6.19515718 2.72455583 5.48827528 4.40202978 3.1595582 9.90024318 0.94902294 9.90024318 0.0190314359 0.00134987593 1.5519966 0.00134987593 1.9797791 5.4788933 2.11019541 7.1977072 2.21979609 8.91652109 2.26151232 8.91652109 2.61325404 8.05715633 2.97570093 7.1977072 3.69847069 5.4891861 6.04604928 0.00134987593 8.17323704 0.00134987593 8.54519966 5.49956328 8.65700935 7.20816873 8.70297366 8.05715633 8.74749363 8.91652109 8.77884452 8.91652109 9.15131691 8.05715633 9.51384877 7.1977072 12.6362787 0.00134987593 14.2005947 0.00134987593"></polyline>
                    <path d="M21.5530161,0.00134987593 L19.6376381,4.41232258 L18.6819881,6.60747395 L18.2228547,7.71546898 L17.7553951,8.81308685 L17.7137638,8.81308685 L17.5242141,7.71546898 L17.3471538,6.60747395 L16.9683093,4.41232258 L16.224469,0.00134987593 L14.6708581,0.00134987593 L16.6727273,10.7583424 L16.44435,11.2463226 C15.8285472,12.551062 15.1316907,13.1826352 14.353441,13.1412953 C14.215548,13.1342928 14.0497876,13.1102481 13.855565,13.0688238 L13.6406117,14.2699603 C13.9169924,14.318134 14.1455395,14.3424318 14.3264231,14.3424318 C15.2231096,14.3424318 15.9623619,14.0662978 16.544435,13.5141141 C17.1263381,12.9616774 17.7476636,11.9469926 18.4081563,10.4698065 L23.106627,0.00134987593 L21.5530161,0.00134987593" id="Fill-9" fill="#BE4244" mask="url(#mask-2)"></path>
                </g>
                <path d="M85.0458794,28.3004864 L84.8084112,29.6353449 L74.8004248,29.6353449 L75.268989,26.9964218 C75.5316907,25.5178859 75.9887001,24.5493499 76.6402719,24.0904764 C77.2918437,23.6320248 78.7086661,23.2793697 80.8904843,23.0330174 C82.6346644,22.8414194 83.7143585,22.5812308 84.1290569,22.252536 C84.5436703,21.9240099 84.8731521,21.071732 85.1172472,19.695871 C85.3313509,18.4910223 85.2718777,17.708938 84.9387426,17.3495335 C84.6053526,16.9902134 83.7700935,16.8105112 82.4331351,16.8105112 C80.7633815,16.8105112 79.6836873,16.9559603 79.1943925,17.2468586 C78.7048428,17.5379256 78.3616822,18.2378362 78.1647409,19.3467593 L77.9992353,20.3940943 L76.4618522,20.3940943 L76.6013594,19.6649926 C76.8992353,17.9879404 77.448853,16.8704963 78.2504673,16.3124913 C79.0519966,15.7546551 80.5082413,15.4755682 82.6192014,15.4755682 C84.4925234,15.4755682 85.6983857,15.776928 86.2361937,16.3792258 C86.7740017,16.9817767 86.8878505,18.1556625 86.57774,19.9012208 C86.2795242,21.5784417 85.7807986,22.6992605 85.0798641,23.2639305 C84.3786746,23.8287692 83.0058624,24.2104467 80.9615973,24.4088784 C79.1652506,24.5869777 78.0694138,24.8334144 77.6742566,25.1481886 C77.2789295,25.4631315 76.9506372,26.3564119 76.6892099,27.8281141 L76.6054376,28.3004864 L85.0458794,28.3004864" id="Fill-11" fill="#AAADB0"></path>
                <path d="M94.9719626,25.0660149 L96.468989,16.635871 L96.4384027,16.635871 L88.4859813,25.0660149 L94.9719626,25.0660149 Z M98.2175021,15.6194144 L96.5395072,25.0660149 L98.6168224,25.0660149 L98.3797791,26.4008734 L96.3024639,26.4008734 L95.7281223,29.6353449 L94.1605777,29.6353449 L94.7349193,26.4008734 L86.9566695,26.4008734 L87.2863212,24.5423474 L95.7943925,15.6194144 L98.2175021,15.6194144 Z" id="Fill-12" fill="#AAADB0"></path>
                <g id="Group-16" transform="translate(29.566695, 0.000000)">
                    <mask id="mask-4" fill="white">
                        <use xlink:href="#path-3"></use>
                    </mask>
                    <g id="Clip-14"></g>
                    <path d="M3.4884452,11.142804 C6.89498726,9.19543921 10.1463891,7.7757072 13.2264231,6.78034243 L12.6012744,3.28931017 C7.69303314,4.81947891 3.50339847,6.71166749 0.0769753611,8.57913648 L3.4884452,11.142804" id="Fill-13" fill="#AAADB0" mask="url(#mask-4)"></path>
                    <path d="M42.1172472,9.23855087 L54.146729,2.72286849 C49.1627867,1.16899256 42.8279524,0.0555980149 34.8691589,0.013751861 C34.8431606,0.0136674938 34.8174172,0.0141736973 34.7912489,0.01408933 L32.0383178,5.48167742 C36.2082413,6.31851613 39.6061172,7.81325062 42.1172472,9.23855087" id="Fill-15" fill="#AAADB0" mask="url(#mask-4)"></path>
                </g>
                <path d="M26.5763806,10.3595385 C21.2907392,13.623201 18.5232795,16.3957618 18.5232795,16.3957618 L25.215633,16.3957618 C26.8491929,15.1404615 28.453271,14.0090968 30.0273577,12.9893499 L26.5763806,10.3595385" id="Fill-17" fill="#AAADB0"></path>
                <path d="M60.4718777,0.0952506203 C54.6971113,0.362526055 49.4697536,1.26432754 44.8210705,2.51701241 L45.2831776,6.0566402 C50.3301614,4.75341935 54.8740017,4.58215385 58.8367035,5.04372705 L60.4718777,0.0952506203" id="Fill-18" fill="#AAADB0"></path>
                <path d="M90.1214953,5.26190074 L74.5271878,11.0548933 C75.9719626,12.0935385 76.731181,12.841201 76.731181,12.841201 L99.9209856,12.841201 C99.9209856,12.841201 97.2965166,8.80608437 90.1214953,5.26190074" id="Fill-19" fill="#AAADB0"></path>
            </g>
        </g>
    </g>
</svg>