<?xml version="1.0" encoding="UTF-8"?>
<svg width="112px" height="25px" viewBox="0 0 112 25" version="1.1" xmlns="http://www.w3.org/2000/svg" xmlns:xlink="http://www.w3.org/1999/xlink">
    <!-- Generator: Sketch 51.3 (57544) - http://www.bohemiancoding.com/sketch -->
    <title>public-bank-logo-svg-vector</title>
    <desc>Created with Sketch.</desc>
    <defs></defs>
    <g id="Page-1" stroke="none" stroke-width="1" fill="none" fill-rule="evenodd">
        <g id="m7-withdraw-balance-0-1366-copy" transform="translate(-187.000000, -1277.000000)" fill="#C32C2C" fill-rule="nonzero">
            <g id="public-bank-logo-svg-vector" transform="translate(187.000000, 1277.000000)">
                <g id="Group-25" transform="translate(27.000000, 10.000000)">
                    <g id="Group-26">
                        <path d="M55.7802084,0.374259657 C56.1522794,0.749005365 56.1522794,1.02945708 56.1522794,1.49752468 C56.1522794,1.87178433 56.05902,2.33936588 55.9662439,2.52649571 C55.686949,2.90075536 55.314878,2.90075536 55.314878,2.9945633 C55.314878,3.08739914 55.7802084,3.08739914 55.9662439,3.27550107 C56.2445723,3.64976073 56.3383149,3.92972639 56.3383149,4.3044721 C56.3383149,4.86537554 56.2450555,5.33344313 55.8729845,5.70770279 C55.5009135,5.98864056 54.6639954,5.98864056 54.0126295,5.98864056 L48.8041187,5.98864056 L48.8041187,0.000486051502 L53.9193702,0.000486051502 C54.6635122,0.000486051502 55.5009135,0.000486051502 55.7802084,0.374259657 Z M54.4779599,1.87129828 C54.4779599,1.59036052 54.2919244,1.31039485 53.9193702,1.31039485 L50.4784382,1.31039485 L50.4784382,2.43268777 L53.9193702,2.43268777 C54.2919244,2.43268777 54.4779599,2.15223605 54.4779599,1.87129828 Z M54.6635122,4.11734227 C54.6635122,3.74259657 54.4774767,3.55546674 53.9188869,3.55546674 L50.477955,3.55546674 L50.477955,4.58443777 L54.0121463,4.58443777 C54.5702528,4.58443777 54.6635122,4.39779399 54.6635122,4.11734227 Z M56.8959382,5.98864056 L60.2445772,0.000486051502 L62.9418504,0.000486051502 L66.1044539,5.98864056 L64.151806,5.98864056 L63.5004401,4.7715676 L59.5009184,4.7715676 L58.8495526,5.98864056 L56.8959382,5.98864056 Z M60.244094,3.55546674 C60.244094,3.64927468 60.244094,3.64927468 60.3373534,3.64927468 L62.7553317,3.64927468 C62.848591,3.64927468 62.848591,3.64927468 62.848591,3.55546674 C62.940884,3.55546674 62.940884,3.4626309 62.940884,3.4626309 L61.9179303,1.40371674 C61.9179303,1.3108809 61.8256374,1.3108809 61.8256374,1.3108809 C61.8256374,1.21707296 61.732378,1.21707296 61.732378,1.21707296 L61.4540496,1.21707296 C61.4540496,1.21707296 61.3607902,1.21707296 61.3607902,1.3108809 L61.2684973,1.40371674 L60.2445772,3.36882296 C60.244094,3.4626309 60.1518011,3.4626309 60.244094,3.55546674 Z M69.2665742,1.68465451 C69.1742813,1.49752468 69.1742813,1.49752468 68.9882458,1.49752468 C68.8022103,1.49752468 68.8022103,1.49752468 68.8022103,1.68465451 L68.8022103,5.98864056 L67.1278908,5.98864056 L67.1278908,0.000486051502 L70.197235,0.000486051502 L73.173803,4.3044721 C73.2660959,4.49160193 73.3598385,4.49160193 73.545874,4.49160193 C73.6391333,4.49160193 73.6391333,4.49160193 73.6391333,4.3044721 L73.6391333,0.000486051502 L75.3134529,0.000486051502 L75.3134529,5.98864056 L72.2431423,5.98864056 L69.2665742,1.68465451 Z M78.5683493,3.83640451 L78.5683493,5.98864056 L76.8017369,5.98864056 L76.8017369,0.000486051502 L78.5683493,0.000486051502 L78.5683493,2.15223605 C78.6616087,2.24507189 78.7543848,2.24507189 78.7543848,2.24507189 L79.6850456,2.24507189 L82.0102477,0 L84.6142615,0 L81.1733296,2.90026931 L84.8935564,5.98864056 L82.2895426,5.98864056 L79.591303,3.64976073 L78.5683493,3.64976073 L78.5683493,3.83640451 Z" id="Shape"></path>
                        <g id="Group-27">
                            <path d="M7.25490136,2.15223605 C7.25490136,3.08739914 7.16212522,3.55546674 6.88283036,3.92924034 C6.41798321,4.39730794 5.95265285,4.49111588 4.92969919,4.49111588 L2.04639052,4.39730794 C1.95361437,4.39730794 1.95361437,4.49111588 1.86035502,4.49111588 L1.86035502,5.98815451 L0,5.98815451 L0,0 L4.92969919,0 C5.95313606,0 6.41846642,0 6.79005421,0.374259657 C7.16164201,0.842327253 7.25490136,1.12326502 7.25490136,2.15223605 Z M4.83643984,2.9945633 C5.02247534,2.9945633 5.20851084,2.9945633 5.39454634,2.80743348 C5.48732249,2.62030365 5.58058185,2.43268777 5.58058185,2.15223605 C5.58058185,1.96510622 5.58058185,1.77797639 5.39454634,1.59036052 C5.11525149,1.40323069 5.02247534,1.40323069 4.83643984,1.40323069 L1.95313116,1.40323069 C1.86035502,1.49703863 1.86035502,1.49703863 1.86035502,1.59036052 L1.86035502,2.80743348 C1.86035502,2.90026931 1.86035502,2.90026931 1.95313116,2.9945633 L4.83643984,2.9945633 Z M9.11525638,5.52057296 C8.74318538,5.1463133 8.55714988,4.7715676 8.55714988,4.21066416 L8.55714988,0.000486051502 L10.3247287,0.000486051502 L10.3247287,3.83689056 C10.3247287,4.58492382 11.8130128,4.58492382 12.4638954,4.58492382 C13.0220019,4.58492382 14.3242504,4.67873176 14.3242504,3.83689056 L14.3242504,0.000486051502 L16.1846055,0.000486051502 L16.1846055,4.21066416 C16.1846055,4.7715676 15.9985699,5.05250536 15.7197583,5.42676502 C15.1616518,6.08196245 13.3945561,5.98864056 12.4643786,5.98864056 C11.4404585,5.98864056 9.58010353,6.08147639 9.11525638,5.52057296 Z M24.4624605,0.374259657 C24.7412721,0.749005365 24.8345315,1.02945708 24.8345315,1.49752468 C24.8345315,1.87178433 24.7417553,2.33936588 24.648496,2.52649571 C24.3696843,2.90075536 23.9976133,2.90075536 23.9976133,2.9945633 C23.9976133,3.08739914 24.4624605,3.08739914 24.648496,3.27550107 C24.9273076,3.64976073 25.0210502,3.92972639 25.0210502,4.3044721 C25.0210502,4.86537554 24.9277908,5.33344313 24.5557198,5.70770279 C24.1836488,5.98864056 23.3467307,5.98864056 22.6953648,5.98864056 L17.3931114,5.98864056 L17.3931114,0.000486051502 L22.6021055,0.000486051502 C23.3462475,0.000486051502 24.1836488,0.000486051502 24.4624605,0.374259657 Z M23.160212,1.87129828 C23.160212,1.59036052 22.9741765,1.31039485 22.6021055,1.31039485 L19.1602071,1.31039485 L19.1602071,2.43268777 L22.6021055,2.43268777 C22.9741765,2.43268777 23.160212,2.15223605 23.160212,1.87129828 Z M23.3462475,4.11734227 C23.3462475,3.74259657 23.160212,3.55546674 22.6021055,3.55546674 L19.1602071,3.55546674 L19.1602071,4.58443777 L22.6948816,4.58443777 C23.2534713,4.58443777 23.3462475,4.39779399 23.3462475,4.11734227 Z M32.2759515,4.58443777 L32.2759515,5.98864056 L26.0440038,5.98864056 L26.0440038,0.000486051502 L27.9038756,0.000486051502 L27.9038756,4.58443777 L32.2759515,4.58443777 Z M33.4849407,0.000486051502 L35.3452957,0.000486051502 L35.3452957,5.98864056 L33.4849407,5.98864056 L33.4849407,0.000486051502 Z M43.9961882,3.74259657 C43.9961882,3.74259657 44.1822237,4.95966953 43.7168933,5.42676502 C43.2515629,5.89483262 41.6705028,5.98864056 40.3682543,5.98864056 C39.0660058,5.98864056 37.3916862,5.89483262 37.0196152,5.42676502 C36.5542849,4.67873176 36.5542849,3.83689056 36.5542849,2.9945633 C36.5542849,2.05842811 36.6475442,1.12326502 37.1123914,0.468553648 C37.4844624,0.0942939914 39.0655226,0.000486051502 40.3677711,0.000486051502 C41.7627957,0.000486051502 43.1583036,0.0942939914 43.5303746,0.468553648 C43.995705,1.02945708 43.9024456,2.05842811 43.9024456,2.05842811 L42.3213854,2.05842811 C42.3213854,2.05842811 42.3213854,1.87129828 42.1353499,1.59036052 C41.8565383,1.40323069 41.1119131,1.40323069 40.3682543,1.40323069 C39.5313361,1.40323069 38.7871941,1.40323069 38.5078993,1.68416845 C38.3218638,1.96510622 38.2290876,2.52600966 38.2290876,2.99407725 C38.2290876,3.46214485 38.2290876,3.92924034 38.5078993,4.30398605 C38.6939348,4.58395172 39.5313361,4.58395172 40.3682543,4.58395172 C41.1123963,4.58395172 41.8565383,4.58395172 42.1353499,4.39682189 C42.4146448,4.11685622 42.3213854,3.74162446 42.3213854,3.74162446 L43.9961882,3.74162446 L43.9961882,3.74259657 Z" id="Combined-Shape"></path>
                        </g>
                    </g>
                </g>
                <path d="M20,5.6690678 L19.9995167,5.6690678 L19.9995167,11.8030745 L19.1625187,12.5465904 L19.9995167,13.2901064 L19.9995167,19.4241131 L14.3251341,25 L5.7676509,25 L0,19.3304494 L0,13.3828045 L0.930266274,12.5465904 L0,11.7103764 L0,5.7622487 L5.8604359,0 L14.2328324,0 L20,5.6690678 Z M10.0463925,23.2339082 L17.0236312,16.3573512 L16.1866332,15.5206543 L14.3251341,17.3794442 L5.7676509,17.3794442 L3.90663509,15.6138352 L3.16242208,16.3573512 L10.0463925,23.2339082 Z M6.97675542,12.5465904 L10.0468758,15.6138352 L13.2097811,12.5465904 L10.0468758,9.47934571 L6.97675542,12.5465904 Z M16.1866332,9.47982851 L17.0236312,8.73582974 L10.0463925,1.8587899 L3.16242208,8.73582974 L3.90663509,9.5725266 L5.8604359,7.6210386 L14.2328324,7.6210386 L16.1866332,9.47982851 Z" id="Combined-Shape"></path>
            </g>
        </g>
    </g>
</svg>