<?xml version="1.0" encoding="UTF-8"?>
<svg width="88px" height="32px" viewBox="0 0 88 32" version="1.1" xmlns="http://www.w3.org/2000/svg" xmlns:xlink="http://www.w3.org/1999/xlink">
    <!-- Generator: Sketch 49.1 (51147) - http://www.bohemiancoding.com/sketch -->
    <title>Combined Shape Copy 2</title>
    <desc>Created with Sketch.</desc>
    <defs></defs>
    <g id="Page-1" stroke="none" stroke-width="1" fill="none" fill-rule="evenodd">
        <g id="m7-withdraw-balance-0-1366" transform="translate(-395.000000, -1687.000000)" fill="#FFFFFF">
            <path d="M440.355286,1705.25457 L438.706382,1703.28139 C438.533753,1703.07439 438.681678,1702.76078 438.951932,1702.76078 L442.401535,1702.76078 C442.56583,1702.27422 442.658692,1701.75449 442.658692,1701.21463 C442.658692,1698.74276 440.809479,1696.61144 438.271535,1696.61144 C435.733592,1696.61144 433.884378,1698.74276 433.884378,1701.21463 C433.884378,1703.68651 435.733592,1705.78762 438.271535,1705.78762 C439.040627,1705.78762 439.745132,1705.59217 440.355286,1705.25457 Z M447.816132,1708.58939 C447.995309,1708.78662 447.848277,1709.10408 447.578321,1709.10408 L443.813818,1709.10408 C443.660833,1709.10408 443.515289,1709.03627 443.417367,1708.919 L442.779235,1708.15555 C441.479756,1708.99392 439.932345,1709.48314 438.271535,1709.48314 C433.689129,1709.48314 429.961236,1705.77399 429.961236,1701.21463 C429.961236,1696.65527 433.689129,1692.94583 438.271535,1692.94583 C442.853942,1692.94583 446.581835,1696.65527 446.581835,1701.21463 C446.581835,1702.85821 446.095497,1704.38984 445.261223,1705.67834 L447.816132,1708.58939 Z M482.591346,1693.32637 L479.519145,1693.32637 C479.293537,1693.32637 479.110491,1693.50849 479.110491,1693.73326 L479.110491,1708.696 C479.110491,1708.92048 479.293537,1709.1026 479.519145,1709.1026 L482.591346,1709.1026 C482.816954,1709.1026 483,1708.92048 483,1708.696 L483,1693.73326 C483,1693.50849 482.816954,1693.32637 482.591346,1693.32637 Z M477.421703,1693.32637 L473.984303,1693.32637 C473.804531,1693.32637 473.645891,1693.44245 473.593507,1693.61214 L470.87341,1702.45457 L467.883952,1693.60237 C467.828294,1693.43771 467.672333,1693.32637 467.49643,1693.32637 L465.09778,1693.32637 C464.921877,1693.32637 464.765618,1693.43771 464.70996,1693.60237 L461.720503,1702.45457 L459.000406,1693.61214 C458.948022,1693.44245 458.789382,1693.32637 458.60961,1693.32637 L455.17221,1693.32637 C455.040952,1693.32637 454.917433,1693.38885 454.840643,1693.49398 C454.763853,1693.59911 454.743018,1693.73445 454.784687,1693.85734 L459.833192,1708.82838 C459.88885,1708.99303 460.045109,1709.10408 460.221012,1709.10408 L462.949145,1709.10408 C463.125048,1709.10408 463.281009,1708.99303 463.336965,1708.82867 L466.296956,1700.08219 L469.256948,1708.82867 C469.312904,1708.99303 469.468865,1709.10408 469.644768,1709.10408 L472.372901,1709.10408 C472.548804,1709.10408 472.705063,1708.99303 472.760721,1708.82838 L477.809225,1693.85734 C477.850894,1693.73445 477.83006,1693.59911 477.75327,1693.49398 C477.67648,1693.38885 477.552961,1693.32637 477.421703,1693.32637 Z M453.483422,1693.73326 L453.483422,1708.696 C453.483422,1708.92048 453.300376,1709.1026 453.074768,1709.1026 L450.002567,1709.1026 C449.776959,1709.1026 449.593913,1708.92048 449.593913,1708.696 L449.593913,1693.73326 C449.593913,1693.50849 449.776959,1693.32637 450.002567,1693.32637 L453.074768,1693.32637 C453.300376,1693.32637 453.483422,1693.50849 453.483422,1693.73326 Z M417.592966,1709.8898 C418.229312,1710.42522 418.423073,1711.06163 418.086446,1711.51057 C417.899233,1711.75666 417.595942,1711.8923 417.232231,1711.8923 C416.875067,1711.8923 416.511356,1711.76081 416.25896,1711.54167 C415.680356,1711.03853 415.510405,1710.22296 415.888106,1709.7595 C416.035733,1709.57826 416.275628,1709.47846 416.563145,1709.47846 C416.912272,1709.47846 417.278067,1709.62476 417.592966,1709.8898 Z M420.529146,1708.53052 C420.622604,1709.15419 420.424378,1709.41242 420.225557,1709.41242 C420.008581,1709.41242 419.736244,1709.15952 419.414797,1708.66082 C419.097814,1708.16834 418.981736,1707.60331 419.138888,1707.31783 C419.242763,1707.12889 419.460037,1707.04686 419.73416,1707.14992 C420.264845,1707.34952 420.473191,1708.15798 420.529146,1708.53052 Z M416.528321,1715.05684 C413.477253,1715.05684 411.398264,1715.46226 409.302608,1715.46226 C401.403642,1715.46226 395,1709.09023 395,1701.23068 C395,1693.37144 401.403642,1687 409.302608,1687 C417.201872,1687 423.605216,1693.37144 423.605216,1701.23068 C423.605216,1703.90127 422.866483,1706.40039 421.580397,1708.53556 C421.538431,1708.60515 421.43277,1708.58116 421.42146,1708.50061 C420.930658,1705.0035 418.783213,1703.07623 415.657735,1702.51445 C415.386589,1702.46559 415.336288,1702.29945 415.69494,1702.26865 C416.648268,1702.18662 418.006978,1702.20054 418.697791,1702.32433 C418.73946,1701.9657 418.757616,1701.60027 418.757616,1701.23068 C418.757616,1696.03521 414.524337,1691.82352 409.302608,1691.82352 C404.080879,1691.82352 399.847898,1696.03521 399.847898,1701.23068 C399.847898,1706.42615 404.080879,1710.63785 409.302608,1710.63785 C409.451426,1710.63785 409.599649,1710.63992 409.746979,1710.63311 C409.588934,1709.71952 409.540419,1708.79083 409.568992,1708.08898 C409.592506,1707.51536 409.709179,1707.43658 409.969611,1707.88316 C411.278019,1710.12671 413.155508,1712.17008 416.80542,1712.97024 C419.789521,1713.62442 422.781657,1714.39852 426.016664,1718.46245 C426.304181,1718.82344 425.865167,1719.18473 425.535387,1718.89392 C422.243531,1715.99175 419.26955,1715.05684 416.528321,1715.05684 Z" id="Combined-Shape-Copy-2"></path>
        </g>
    </g>
</svg>