<?xml version="1.0" encoding="UTF-8"?>
<svg width="107px" height="17px" viewBox="0 0 107 17" version="1.1" xmlns="http://www.w3.org/2000/svg" xmlns:xlink="http://www.w3.org/1999/xlink">
    <!-- Generator: Sketch 51.3 (57544) - http://www.bohemiancoding.com/sketch -->
    <title>logo-ngan-hang-sacombank</title>
    <desc>Created with Sketch.</desc>
    <defs></defs>
    <g id="Page-1" stroke="none" stroke-width="1" fill="none" fill-rule="evenodd">
        <g id="m7-withdraw-balance-0-1366-copy" transform="translate(-950.000000, -1655.000000)" fill-rule="nonzero">
            <g id="logo-ngan-hang-sacombank" transform="translate(950.000000, 1655.000000)">
                <g id="#0072bcff" fill="#FFFFFF">
                    <path d="M3.58174134,1.50867287 C4.87062553,0.577058326 6.45889265,0.129340659 8.03811496,0.0913524937 C9.67522401,0.0108537616 11.4697126,0.233355875 12.7613102,1.33501268 C13.7661877,2.21868977 14.0212511,3.62967878 14.0013525,4.90680473 C12.4899662,4.90770921 10.9785799,4.90680473 9.46719358,4.90680473 C9.4662891,4.46541843 9.27906171,3.98966188 8.84310228,3.81509721 C8.20725275,3.54737109 7.467388,3.54284869 6.80892646,3.72555368 C6.36030431,3.84494505 6.00665258,4.3116568 6.14051564,4.78198648 C6.28975486,5.29120879 6.84058326,5.4956213 7.28920541,5.66656805 C8.68572274,6.13508876 10.1826374,6.33859679 11.4823753,7.0667033 C12.429366,7.54065089 13.2614877,8.39719358 13.3854015,9.4889011 C13.569011,11.2851986 12.8716568,13.2008876 11.4615723,14.3568132 C10.1319865,15.3987743 8.45598478,15.9333221 6.78721893,16.0807523 C5.33733728,16.2037616 3.80695689,16.1069822 2.49817413,15.4150549 C1.52495351,14.8841251 0.661174979,14.0501944 0.303000845,12.9783855 C0.0777852916,12.3434404 0.0524598478,11.6578445 0.118486898,10.9930516 C1.64615385,10.9840068 3.17472527,10.9921471 4.70239222,10.9894336 C4.72590871,11.3982587 4.84801352,11.8269822 5.17814877,12.0965173 C5.90715976,12.6998056 6.95364328,12.7260355 7.82284869,12.451978 C8.30765004,12.3054522 8.76350803,11.8486898 8.70200338,11.3105241 C8.68120034,10.9568724 8.4143787,10.6683432 8.10142857,10.5326712 C6.45256128,9.82717667 4.61284869,9.6254776 3.05623838,8.69476754 C2.25306002,8.27870668 1.61901944,7.51442096 1.47611158,6.60722739 C1.32687236,6.01298394 1.46797126,5.41060017 1.51229079,4.81454776 C1.67871513,3.47772612 2.48641589,2.2720541 3.58174134,1.50867287 Z" id="Shape"></path>
                    <path d="M65.6978191,0.0904480135 C66.8356551,0.0904480135 67.9743956,0.0904480135 69.1122316,0.0904480135 C68.7576754,2.06673711 68.4013102,4.04212172 68.0395182,6.01660186 C68.4718597,5.67109045 68.9313356,5.33552832 69.459552,5.15372781 C70.120727,4.98459003 70.8280304,4.93484362 71.4964413,5.09765004 C72.5429248,5.3635672 73.396754,6.2698563 73.5767456,7.33804734 C73.762164,8.44422654 73.6111158,9.61100592 73.1453085,10.632164 C72.6550803,11.6686982 71.8799408,12.6238292 70.8216991,13.1140575 C69.9660609,13.5102198 68.9756551,13.6006678 68.0557988,13.4125359 C67.3982418,13.273246 66.8483178,12.8011074 66.5842096,12.1869653 C66.5064243,12.5415216 66.4268301,12.8951733 66.3517582,13.2497295 C65.3342181,13.2515385 64.3157735,13.250634 63.2973288,13.250634 C64.0968893,8.86390533 64.90459,4.47808115 65.6978191,0.0904480135 Z M68.5089434,7.56416737 C67.8369146,7.80385461 67.6433559,8.5690448 67.4507016,9.17775993 C67.2679966,9.69421809 67.2164413,10.3092646 67.5420541,10.7814032 C67.8975148,11.2752494 68.6446154,11.2625866 69.1348436,10.9930516 C69.843956,10.5426205 70.1849451,9.67431953 70.2283601,8.86300085 C70.2310735,8.4279459 70.1677599,7.91058326 69.7860693,7.63743026 C69.4107101,7.38869822 68.9186729,7.43482671 68.5089434,7.56416737 Z" id="Shape"></path>
                    <path d="M98.3377937,0.0904480135 C99.4692984,0.0904480135 100.601708,0.0904480135 101.733212,0.0904480135 C101.285495,2.49093829 100.837777,4.89142857 100.400913,7.29463229 C101.261074,6.49235841 102.129374,5.70003381 102.98049,4.88871513 C104.307363,4.87876585 105.635139,4.88600169 106.962916,4.88419273 C105.732823,5.93248521 104.485545,6.96268808 103.247312,8.0001268 C104.097523,9.7530093 104.959493,11.4995604 105.820558,13.2470161 C104.465647,13.2551564 103.109831,13.248825 101.754015,13.250634 C101.338859,12.2023415 100.924607,11.1531445 100.504928,10.106661 C100.266145,10.3056467 100.030076,10.5064413 99.7931023,10.7054269 C99.6321048,11.5547337 99.4674894,12.4031361 99.3055875,13.2515385 C98.1749873,13.248825 97.0443872,13.2515385 95.913787,13.2497295 C96.7205833,8.86300085 97.530093,4.47717667 98.3377937,0.0904480135 Z" id="Shape"></path>
                    <path d="M19.7728402,5.04880811 C20.7831445,4.97916314 21.8024937,4.9628825 22.8082756,5.09765004 C23.3681488,5.18448014 23.9632967,5.32919696 24.3739307,5.74797126 C24.7529079,6.10433643 24.8894844,6.64792899 24.8722992,7.15262891 C24.8442604,7.85450549 24.679645,8.53919696 24.5548267,9.22750634 C24.359459,10.2839391 24.1478107,11.338563 23.9632967,12.3977092 C23.9090279,12.7278445 24.2319273,12.9476331 24.3250888,13.2397802 C23.1438377,13.2651057 21.9616822,13.2433981 20.7804311,13.250634 C20.7804311,12.9666272 20.7795266,12.6835249 20.7813356,12.4004227 C19.828918,13.1167709 18.6503804,13.5346407 17.4528487,13.5020795 C16.6424345,13.5436855 15.8175486,13.2804818 15.1925528,12.7604057 C14.7783009,12.3959003 14.7023246,11.8016568 14.750262,11.2815807 C14.8461369,10.5697549 15.1645139,9.86245139 15.7379544,9.41021133 C16.1684869,9.0746492 16.6804227,8.85214708 17.2068301,8.71557058 C18.3202451,8.46774303 19.4598901,8.37639053 20.580541,8.17016906 C20.900727,8.10323753 21.2697549,8.00284024 21.4443195,7.69893491 C21.5899408,7.45743872 21.4425106,7.13001691 21.1892561,7.03323753 C20.4873795,6.76732037 19.4933559,6.9391716 19.1930685,7.70978867 C18.1022654,7.71069315 17.0123669,7.71340659 15.9215638,7.70797971 C16.0545224,7.04137785 16.3964159,6.41185968 16.9418174,5.99579882 C17.7477092,5.372612 18.779721,5.14649197 19.7728402,5.04880811 Z M18.6078698,10.4630262 C18.280448,10.7189941 18.1520118,11.3277092 18.5771175,11.5574472 C19.1632206,11.8070837 19.898563,11.6650803 20.3616568,11.2282164 C20.784049,10.8410989 20.968563,10.2721809 21.081623,9.72587489 C20.2784446,10.0569146 19.3549704,9.98907861 18.6078698,10.4630262 Z" id="Shape"></path>
                    <path d="M28.2432967,5.90263736 C29.5050465,5.07142012 31.0860778,4.90680473 32.5594759,5.04428571 C33.5797295,5.15282333 34.6949535,5.4956213 35.3018597,6.38472527 C35.6953085,6.9391716 35.7360101,7.64285714 35.7043533,8.29860524 C34.5610904,8.29679628 33.418732,8.30131868 32.2754691,8.29679628 C32.2953677,8.00645816 32.2682333,7.69079459 32.0592984,7.46829248 C31.6929839,7.01967033 31.0082925,7.08750634 30.528918,7.29463229 C29.8957819,7.58677937 29.6931784,8.31669484 29.5240406,8.9335503 C29.391082,9.52688926 29.1848605,10.1880642 29.4670583,10.7714539 C29.7537785,11.3313271 30.5108284,11.427202 31.052612,11.2273119 C31.5428402,11.0500338 31.8259425,10.5787997 32.033973,10.1301775 C33.1573373,10.131082 34.2816061,10.1283686 35.4049704,10.131082 C35.1173457,11.2354522 34.354869,12.1960101 33.3409467,12.7206086 C31.9787997,13.4496196 30.3615892,13.6106171 28.8502029,13.3718343 C28.0081319,13.2307354 27.1615385,12.8671344 26.6215638,12.1824429 C26.0553593,11.5122232 25.7831107,10.58694 25.975765,9.72225697 C26.1213863,8.19911243 26.9788335,6.76279797 28.2432967,5.90263736 Z" id="Shape"></path>
                    <path d="M41.5735249,5.05061708 C42.9845139,4.88057481 44.5176078,5.0949366 45.6708199,5.97861369 C46.2777261,6.44080304 46.5906762,7.1987574 46.6395182,7.94585799 C46.6847422,9.2157481 46.3609383,10.5362891 45.5414793,11.5321217 C44.6360947,12.6681488 43.2061116,13.248825 41.8023584,13.4586644 C40.4537785,13.6042857 38.9876162,13.4369569 37.8732967,12.6021217 C37.0239899,11.997929 36.651344,10.8790871 36.8042012,9.86968724 C36.8937447,8.5509552 37.4454776,7.2258918 38.4639222,6.35668639 C39.3367456,5.61953508 40.4438292,5.18448014 41.5735249,5.05061708 Z M41.6458833,7.20870668 C41.0064159,7.3760355 40.6563821,8.0001268 40.5071429,8.59889265 C40.3208199,9.33061708 39.9970161,10.1627388 40.4022232,10.8781826 C40.8644125,11.540262 41.9271767,11.4118259 42.4463483,10.8818005 C42.892257,10.3789096 43.1075232,9.70778529 43.1943533,9.05113271 C43.2287236,8.51477599 43.2703297,7.90515638 42.9221048,7.45472527 C42.6181995,7.07846154 42.0700845,7.09655114 41.6458833,7.20870668 Z" id="Shape"></path>
                    <path d="M51.4775824,6.34673711 C52.2744294,5.58245139 53.3236264,4.99092139 54.4533221,4.99634827 C55.1217329,5.00901099 55.8444125,5.12026205 56.3608707,5.58335587 C56.6258833,5.80676247 56.7742181,6.12513948 56.9107946,6.43537616 C57.7031192,5.600541 58.7975402,5.02890955 59.9616061,5.00267963 C60.7783516,4.99273035 61.7181065,5.06237532 62.3150634,5.69279797 C62.9373457,6.4154776 62.8496112,7.45562975 62.7374556,8.33749789 C62.4389772,9.97641589 62.1332629,11.6135249 61.8284531,13.250634 C60.6969484,13.2497295 59.5663483,13.2515385 58.4357481,13.250634 C58.6853846,11.8939138 58.9341167,10.5371936 59.1864666,9.18047337 C59.2479713,8.78340659 59.352891,8.36734573 59.2298817,7.97027895 C59.1756128,7.77762468 59.010093,7.62838546 58.8183432,7.58135249 C58.347109,7.45562975 57.8053254,7.54245985 57.4326796,7.86716822 C57.120634,8.19820795 57.0157143,8.66130178 56.9198394,9.0927388 C56.664776,10.4784024 56.4088081,11.8640659 56.1537447,13.250634 C55.0213356,13.2524429 53.8898309,13.2479205 52.7574218,13.2524429 C53.0061538,11.9083855 53.2575993,10.564328 53.5072358,9.2202705 C53.5488419,8.77345731 53.6908453,8.27961116 53.4701522,7.85993238 C53.1870499,7.45201183 52.588284,7.46467456 52.1758411,7.6491885 C51.6069231,7.89249366 51.3952747,8.5328656 51.2514624,9.08459848 C50.9774049,10.470262 50.7386221,11.8631615 50.472705,13.250634 C49.3484362,13.250634 48.2241674,13.250634 47.0989941,13.250634 C47.5901268,10.5670414 48.0848774,7.88344886 48.5769146,5.1998563 C49.6134489,5.20076078 50.6499831,5.20256974 51.6865173,5.19895182 C51.6186813,5.58154691 51.5626036,5.96685545 51.4775824,6.34673711 Z" id="Shape"></path>
                    <path d="M79.1293491,5.05061708 C80.182164,4.97735418 81.2467371,4.95745562 82.2923161,5.11935757 C82.9263567,5.22065934 83.5992899,5.46577346 83.9637954,6.02926458 C84.3436771,6.62260355 84.2378529,7.36518174 84.1446915,8.02545224 C83.8823922,9.4708115 83.5929586,10.9116484 83.3315638,12.3579121 C83.2393068,12.7088504 83.6110482,12.9286391 83.6825021,13.2433981 C82.4931107,13.2596788 81.3037194,13.2461116 80.114328,13.250634 C80.1134235,12.9711496 80.1134235,12.6925697 80.1134235,12.4130854 C79.1673373,13.1366695 77.9797549,13.5319273 76.7885545,13.5020795 C75.9781403,13.5400676 75.1532544,13.273246 74.5373035,12.7423161 C74.1510904,12.3805241 74.0642604,11.8143195 74.103153,11.3096196 C74.2062637,10.5977937 74.5083601,9.87963652 75.0845139,9.42287405 C75.5105241,9.0927388 76.0088926,8.85938292 76.5298732,8.72190194 C77.6306255,8.47769231 78.7557988,8.38000845 79.8655959,8.18464074 C80.2038715,8.11770921 80.5982249,8.02454776 80.794497,7.71069315 C80.9482587,7.4809552 80.8252494,7.15534235 80.5801352,7.04951817 C79.8728318,6.75646661 78.863432,6.93284024 78.5522908,7.71069315 C77.4623922,7.70978867 76.3715892,7.71340659 75.2816906,7.70888419 C75.4083178,7.07032122 75.7122232,6.44984784 76.2313948,6.04102282 C77.0445224,5.37984784 78.11,5.14920541 79.1293491,5.05061708 Z M77.9526205,10.47388 C77.6224852,10.7307523 77.5257058,11.3738377 77.9670921,11.5692054 C78.5034489,11.7862806 79.1492477,11.6686982 79.6087236,11.3231868 C80.114328,10.948732 80.3214539,10.3183094 80.4480811,9.72768385 C79.6367625,10.0560101 78.699721,9.98274725 77.9526205,10.47388 Z" id="Shape"></path>
                    <path d="M89.2622401,6.442612 C90.0229079,5.64938292 91.0431615,5.0587574 92.1601944,5.00720203 C93.0266864,4.97102282 94.0071429,5.10036348 94.6348521,5.7597295 C95.1920118,6.40552832 95.2064835,7.32809806 95.1087997,8.1321809 C94.7994675,9.83983939 94.4675232,11.5447844 94.1500507,13.2515385 C93.0248774,13.2479205 91.8997041,13.2551564 90.7745309,13.2479205 C91.0304987,11.8803466 91.2837532,10.5118681 91.5406255,9.14429417 C91.6048436,8.76531699 91.6401183,8.36101437 91.5053508,7.99379544 C91.3995266,7.71340659 91.1055706,7.55874049 90.8197549,7.53793745 C90.3684193,7.4990448 89.8501522,7.58768385 89.5462468,7.95399831 C89.2459594,8.34835165 89.1229501,8.8421978 89.0279797,9.32066779 C88.785579,10.630355 88.5449873,11.9400423 88.3034911,13.2497295 C87.1647506,13.2524429 86.0269146,13.2479205 84.8890786,13.2524429 C85.3892561,10.5679459 85.8849112,7.88254438 86.3896112,5.19804734 C87.4261454,5.20347422 88.4626796,5.1998563 89.4992139,5.1998563 C89.4178107,5.6141082 89.3409298,6.0283601 89.2622401,6.442612 Z" id="Shape"></path>
                </g>
                <g id="#ffe000ff" transform="translate(14.743026, 15.104818)" fill="#FFE000">
                    <path d="M0,0.0226120034 C30.6465004,0.0226120034 61.2939053,0.0226120034 91.9404057,0.0226120034 C91.9395013,0.353651733 91.9395013,0.685595943 91.9404057,1.01754015 C61.2939053,1.01754015 30.6465004,1.01754015 0,1.01754015 C0,0.685595943 0,0.353651733 0,0.0226120034 Z" id="Shape"></path>
                </g>
            </g>
        </g>
    </g>
</svg>