<?xml version="1.0" encoding="UTF-8"?>
<svg width="85px" height="46px" viewBox="0 0 85 46" version="1.1" xmlns="http://www.w3.org/2000/svg" xmlns:xlink="http://www.w3.org/1999/xlink">
    <!-- Generator: Sketch 51.3 (57544) - http://www.bohemiancoding.com/sketch -->
    <title>Group 4</title>
    <desc>Created with Sketch.</desc>
    <defs></defs>
    <g id="Page-1" stroke="none" stroke-width="1" fill="none" fill-rule="evenodd">
        <g id="m7-withdraw-balance-0-1366-copy" transform="translate(-765.000000, -1048.000000)" fill-rule="nonzero">
            <g id="Group-4" transform="translate(765.000000, 1048.000000)">
                <rect id="Rectangle-4" fill="#4B2884" x="0" y="0" width="85" height="45.2546296"></rect>
                <g id="Group-3" transform="translate(55.305556, 13.018519)">
                    <g id="Group-31">
                        <rect id="Rectangle" fill="#4B2884" x="0.967592593" y="0.951388889" width="21.6435185" height="20.6597222"></rect>
                        <path d="M11.7704585,0.887050847 C11.9536361,1.03516405 12.1171875,1.20686217 12.2704585,1.38705085 C12.1106454,1.24648481 11.9601781,1.09554141 11.8171875,0.938937639 L11.7704585,0.887050847 Z" id="Shape" fill="#A36B4E"></path>
                        <path d="M11.5916982,1.12539786 C11.6614583,1.05781776 11.7333984,0.992417666 11.8067919,0.927017572 C11.917972,1.04764441 12.0349655,1.16391125 12.1592257,1.27218474 C12.2951126,1.39426491 12.4346328,1.51416509 12.5712463,1.63842527 C12.6991398,1.75832544 12.8270334,1.87967895 12.9621936,1.99303912 C13.0755537,2.09113926 13.1889139,2.1892394 13.2993674,2.29169955 C13.4265342,2.41305306 13.5537011,2.5336799 13.6888613,2.64704006 C13.8000414,2.74368687 13.9134016,2.83888034 14.0202217,2.94134049 C14.1720953,3.09103404 14.3232422,3.24145426 14.4881958,3.37806779 C14.5993759,3.47326126 14.7120094,3.56772806 14.8195562,3.66873487 C14.9714298,3.81770176 15.1233033,3.96812197 15.2875303,4.10473551 C15.3987104,4.20065564 15.5113439,4.29657578 15.6174374,4.39903593 C15.7671309,4.54945615 15.9182778,4.6991497 16.0832314,4.83358323 C16.1958649,4.9287767 16.3092251,5.0232435 16.4167719,5.12643032 C16.5671921,5.2753972 16.718339,5.42509075 16.8840192,5.55879761 C16.9704927,5.63146438 17.0576928,5.70413116 17.1405329,5.78261127 C17.2924065,5.93085148 17.4435534,6.08054503 17.6099603,6.21497856 C17.7240471,6.31017203 17.8388606,6.40609217 17.9500408,6.50709898 C18.0772076,6.62699916 18.2058278,6.74617266 18.3402613,6.85953283 C18.4594348,6.96199298 18.5786083,7.06517979 18.6854285,7.1821733 C18.7428353,7.25338673 18.806782,7.31951349 18.8743621,7.38273359 C19.7303767,10.5161248 20.4773911,13.680036 21.3188723,16.8177872 C21.3762791,17.1229877 21.5078059,17.4231015 21.5056259,17.7384752 C21.4896392,17.7748086 21.4583925,17.8482021 21.4424058,17.8852621 C20.422891,18.4767696 19.3030961,18.8887902 18.2537879,19.429431 C17.6942537,19.6583314 17.186313,20.0252986 16.5977121,20.1735388 C15.2628235,20.1829855 13.9272083,20.1357521 12.593773,20.1822588 C12.5886863,19.0312171 12.5995864,17.8794488 12.5625263,16.7284071 C13.2841073,17.0168942 14.0231284,17.2603279 14.7745028,17.4579815 C14.8369963,17.4957682 14.905303,17.5095749 14.9794231,17.4986749 L15.0535432,17.5219283 C15.1247567,17.5568083 15.1981501,17.5568083 15.2722702,17.5226549 C15.5375039,17.5248349 15.812911,17.5306483 16.0817781,17.5270149 C16.1544448,17.559715 16.2278383,17.5589883 16.3012317,17.5255616 L16.3775318,17.5030349 C16.4509253,17.5110283 16.5185054,17.4928616 16.5795455,17.4485348 C16.8425992,17.3053813 17.1368996,17.2167278 17.3868733,17.0474142 C17.5293002,16.9456808 17.6535603,16.8199673 17.7560205,16.6768137 C18.0401476,16.2531664 18.1782144,15.755399 18.3141013,15.2692583 C18.3511614,15.2024049 18.360608,15.1319181 18.343168,15.057798 C18.338808,14.9858579 18.3337213,14.9146445 18.3271813,14.8441577 C18.3111946,14.4931772 18.3053813,14.1421967 18.330088,13.7926695 C18.3315413,13.7497961 18.334448,13.664776 18.3359013,13.6219026 C18.340988,13.5339758 18.3242746,13.4467757 18.2966613,13.3646622 C18.2668679,13.2542088 18.2545145,13.1430286 18.2610546,13.0296684 C18.2748612,12.956275 18.2617812,12.8886949 18.2210878,12.8269281 C18.1433344,12.6379945 18.1040943,12.4323476 18.1171743,12.2288806 C18.1317077,12.1547605 18.1164477,12.0879071 18.0735743,12.0275936 C17.896994,11.6489998 17.8403139,11.2282592 17.7022471,10.8365853 C17.3825133,9.87447719 16.7764724,9.048256 16.3092251,8.15954138 C16.289605,8.08760127 16.2467316,8.03455453 16.1806049,8.00185448 C16.1544448,7.97278777 16.1013981,7.91392769 16.0745114,7.88486098 C16.051258,7.81510088 16.007658,7.7627808 15.9451645,7.72717408 C15.9226378,7.69447404 15.8775844,7.62980061 15.8550577,7.59710056 C15.8376177,7.52588713 15.799831,7.46920704 15.7424242,7.42706032 C15.7162642,7.3914536 15.6639441,7.32096683 15.6377841,7.28608678 C15.5905507,7.20397333 15.5316906,7.12985322 15.4662905,7.06227312 C15.4350438,7.0244864 15.3725504,6.94745962 15.3413037,6.9096729 C15.2708169,6.81375276 15.1908834,6.72582597 15.10659,6.64371252 C15.0404632,6.57685909 14.9779698,6.50782565 14.9169297,6.43806555 C14.7766828,6.27601865 14.625536,6.12487176 14.4729357,5.97663155 C14.2374954,5.74046454 14.0027817,5.50575087 13.7680681,5.27176386 C13.6191012,5.11843697 13.4665009,4.96874342 13.3059074,4.82849655 C13.239054,4.76963647 13.1736539,4.71004972 13.1133404,4.64682962 C13.0501203,4.57634286 12.9781802,4.5145761 12.9004268,4.46298269 C12.8677267,4.43464265 12.8016,4.37868924 12.7688999,4.3503492 C12.7296599,4.28567577 12.6744331,4.24716238 12.602493,4.23262902 C12.3169126,4.13089554 12.0611256,3.9630353 11.7944385,3.8235151 C11.5480982,3.96448864 11.3177445,4.13743555 11.0496041,4.23480903 C10.975484,4.24861571 10.9202573,4.28785577 10.8831972,4.35180253 C10.8504972,4.3794159 10.7836437,4.43536932 10.7509437,4.46298269 C10.6702836,4.5123961 10.5983435,4.57270952 10.5351234,4.64174295 C10.50533,4.66862966 10.4464699,4.72312973 10.4174032,4.75001644 C10.253903,4.88953664 10.1020294,5.03995686 9.95378919,5.19473708 C9.69291548,5.45343079 9.43422178,5.7143045 9.1769814,5.97590488 C9.02365451,6.12487176 8.8732343,6.27601865 8.73444076,6.43806555 C8.67122067,6.50782565 8.60800058,6.57613242 8.54405382,6.64298585 C8.45830703,6.72582597 8.37910025,6.81375276 8.31224682,6.9118529 C8.28172677,6.95109296 8.21996002,7.03102641 8.18943997,7.07026647 C8.12549321,7.14002657 8.07026647,7.21560001 8.0223064,7.29553346 C7.99469302,7.32896017 7.94091961,7.39508694 7.91330624,7.42851365 C7.85008615,7.46630037 7.80939276,7.52080045 7.79122606,7.59128722 C7.71855929,7.75115412 7.61464581,7.900121 7.47948561,8.0127545 C7.41408552,8.04763455 7.37121212,8.10068129 7.35231876,8.17116806 C6.93448482,8.89347577 6.44616412,9.57872343 6.12352365,10.3540779 C5.88226997,10.8162386 5.78707649,11.3350793 5.57634286,11.8088667 C5.53128946,11.8699067 5.51748277,11.9367602 5.53419613,12.0108803 C5.55308949,12.2383273 5.5167561,12.4701343 5.42955598,12.6815946 C5.38740925,12.7433613 5.37432923,12.8109414 5.39031592,12.8843349 C5.39467593,12.9926084 5.38159591,13.0987019 5.35107586,13.203342 C5.31837582,13.2825488 5.30020912,13.3668423 5.31183581,13.4533157 C5.31256247,13.5506892 5.31110914,13.6487893 5.30892914,13.7468895 C5.29802912,14.1494634 5.28640244,14.5520373 5.30093579,14.9553379 C5.32273582,15.5359454 5.50294942,16.1063796 5.82413655,16.5910669 C5.96729009,16.7938072 6.14677701,16.9725675 6.35387731,17.1120877 C6.6670711,17.2981146 7.02241162,17.4020281 7.3581321,17.5415483 C7.43007221,17.577155 7.50128564,17.572795 7.57249908,17.5270149 C7.80939276,17.5248349 8.05791312,17.5270149 8.2991668,17.5233816 C8.3667469,17.568435 8.43796033,17.5757017 8.51353378,17.5459083 C9.37681503,17.3264547 10.2408229,17.0946476 11.0510574,16.7138738 C11.0590508,17.8627354 11.0655908,19.0115971 11.0626841,20.1604588 C9.72561553,20.1560987 8.39000026,20.1764454 7.054385,20.1924321 C5.75800979,19.6474313 4.50959464,18.976717 3.21903278,18.4120962 C2.85642558,18.2391493 2.47201836,18.0989024 2.15010456,17.8547421 C2.11522451,17.8358487 2.04546441,17.7973353 2.01058436,17.7777153 C2.93199903,14.5999974 3.65648674,11.366326 4.51250132,8.17044139 C4.6433015,7.83544757 4.65856153,7.40889362 4.94922861,7.15891993 C5.10618884,7.01503972 5.25951573,6.86679951 5.41211595,6.71783262 C5.51820944,6.61682581 5.6293896,6.52163234 5.74129643,6.42643887 C5.90479666,6.288372 6.06030356,6.14085845 6.21726378,5.99479824 C6.3001039,5.9192248 6.38730403,5.84801136 6.47523082,5.77607126 C6.66852444,5.6198377 6.84219802,5.44253078 7.01950495,5.26885719 C7.10016506,5.19183041 7.18591185,5.11989031 7.27238531,5.04722354 C7.43661222,4.91133667 7.58848577,4.76164312 7.74181266,4.61340291 C7.84790614,4.5123961 7.96053964,4.41792929 8.07244647,4.32273582 C8.23667337,4.18612229 8.3892736,4.03642874 8.54332715,3.88891519 C8.6254406,3.81188842 8.71191406,3.73922164 8.79838752,3.66655487 C8.96261443,3.53139468 9.11448798,3.38170113 9.26781487,3.23273424 C9.37463502,3.13172743 9.48726852,3.03726063 9.59917535,2.94206716 C9.76267558,2.80545362 9.91382247,2.65503341 10.0664227,2.50461319 C10.1710628,2.40360638 10.2815163,2.30768624 10.3919698,2.2117661 C10.5554701,2.07369923 10.7102503,1.92545902 10.8672105,1.77939881 C10.9500506,1.70382536 11.0372508,1.63261193 11.1237242,1.55994515 C11.2879511,1.42478496 11.4398247,1.27509141 11.5916982,1.12539786 Z" id="Shape" fill="#FBAE17"></path>
                        <path d="M11.1237242,1.62539786 C11.2626994,1.42974568 11.4218609,1.24830756 11.6237242,1.12539786 C11.4614571,1.29763866 11.2991901,1.46987946 11.1237242,1.62539786 Z" id="Shape" fill="#976255"></path>
                        <path d="M8.79838752,3.73273424 C8.93693241,3.53675434 9.09637514,3.3550123 9.29838752,3.23273424 C9.13507483,3.40442604 8.97331012,3.57695535 8.79838752,3.73273424 Z" id="Shape" fill="#976255"></path>
                        <path d="M12.5712463,1.63842527 C12.7543318,1.78289248 12.9169712,1.95707281 13.0712463,2.13842527 C12.8983839,1.9785892 12.7348151,1.80748265 12.5712463,1.63842527 Z" id="Shape" fill="#A66D4C"></path>
                        <path d="M10.3919698,2.27939881 C10.5219392,2.07351645 10.6847833,1.89116351 10.8919698,1.77939881 C10.7268322,1.94830637 10.5639882,2.11973494 10.3919698,2.27939881 Z" id="Shape" fill="#825262"></path>
                        <path d="M13.2993674,2.29169955 C13.4812704,2.43791632 13.6445166,2.61071795 13.7993674,2.79169955 C13.6258599,2.63219035 13.4626136,2.46245619 13.2993674,2.29169955 Z" id="Shape" fill="#A1694F"></path>
                        <path d="M9.59917535,3.00461319 C9.73681143,2.8085999 9.89622045,2.62670621 10.0991753,2.50461319 C9.9358783,2.6765401 9.77413647,2.84846701 9.59917535,3.00461319 Z" id="Shape" fill="#956056"></path>
                        <path d="M14.0202217,2.94134049 C14.2220851,3.06280471 14.382023,3.24500105 14.5202217,3.44134049 C14.3439795,3.2849345 14.1824888,3.11272152 14.0202217,2.94134049 Z" id="Shape" fill="#986255"></path>
                        <path d="M14.8195562,3.66873487 C15.0214196,3.78956821 15.1813575,3.97123487 15.3195562,4.16873487 C15.1440904,4.01206821 14.9818233,3.83956821 14.8195562,3.66873487 Z" id="Shape" fill="#9A6453"></path>
                        <path d="M8.07244647,4.38891519 C8.20979215,4.19042273 8.36797116,4.00700565 8.57244647,3.88891519 C8.40886622,4.05893194 8.24682919,4.23146126 8.07244647,4.38891519 Z" id="Shape" fill="#935F57"></path>
                        <path d="M15.6174374,4.39903593 C15.8108851,4.53197908 15.9715716,4.71007272 16.1174374,4.89903593 C15.9403703,4.74435366 15.7781238,4.57211286 15.6174374,4.39903593 Z" id="Shape" fill="#AD7248"></path>
                        <path d="M7.27238531,5.11340291 C7.4109302,4.91742301 7.57114692,4.73568097 7.77238531,4.61340291 C7.60907262,4.78425718 7.44730791,4.95678649 7.27238531,5.11340291 Z" id="Shape" fill="#966156"></path>
                        <path d="M4.94922861,7.21783262 C5.08737618,7.02261022 5.24750177,6.84221483 5.44922861,6.71783262 C5.28439345,6.88669589 5.11877336,7.05473542 4.94922861,7.21783262 Z" id="Shape" fill="#966156"></path>
                        <path d="M16.4167719,5.12643032 C16.6096179,5.25920343 16.7698045,5.43735469 16.9167719,5.62643032 C16.739478,5.47180847 16.5777361,5.29869923 16.4167719,5.12643032 Z" id="Shape" fill="#B07545"></path>
                        <path d="M6.47523082,5.77607126 C6.61547769,5.56824429 6.7840646,5.37204401 7.01950495,5.26885719 C6.84219802,5.44253078 6.66852444,5.6198377 6.47523082,5.77607126 Z" id="Shape" fill="#8F5C5A"></path>
                        <path d="M17.1405329,5.78261127 C17.3355794,5.91202303 17.4957961,6.09101463 17.6405329,6.28261127 C17.4632884,6.12714908 17.3022976,5.95403984 17.1405329,5.78261127 Z" id="Shape" fill="#AA7149"></path>
                        <path d="M5.74129643,6.49479824 C5.87106742,6.28772754 6.03366284,6.10590935 6.24129643,5.99479824 C6.07641093,6.16399016 5.91305215,6.33486558 5.74129643,6.49479824 Z" id="Shape" fill="#835361"></path>
                        <path d="M17.9500408,6.50709898 C18.131605,6.65349074 18.2954784,6.82565569 18.4500408,7.00709898 C18.2777875,6.84627424 18.112983,6.67720208 17.9500408,6.50709898 Z" id="Shape" fill="#A16A4F"></path>
                        <path d="M5.82413655,16.5910669 C6.03632352,16.7240471 6.21653712,16.9020807 6.35387731,17.1120877 C6.14677701,16.9725675 5.96729009,16.7938072 5.82413655,16.5910669 Z" id="Shape" fill="#8D5B5B"></path>
                        <path d="M11.0510574,16.6448403 C11.1913043,17.8358487 11.1338976,19.0377571 11.1324442,20.2345789 C9.77284893,20.2331255 8.41252696,20.2650989 7.054385,20.1924321 C8.39000026,20.1764454 9.72561553,20.1560987 11.0626841,20.1604588 C11.0655908,19.0115971 11.0590508,17.8627354 11.0510574,16.7138738 L11.0510574,16.6448403 Z" id="Shape" fill="#DF9929"></path>
                        <path d="M17.3868733,17.1768137 C17.5443536,17.0023039 17.7106922,16.8346568 17.8868733,16.6768137 C17.7480938,16.869951 17.5797867,17.0395588 17.3868733,17.1768137 Z" id="Shape" fill="#E19A27"></path>
                    </g>
                    <path d="M11.6885881,16.7304823 C9.31410144,17.6664019 7.83198632,17.8448762 7.24224277,17.2659052 C6.35762744,16.3974487 4.42454621,15.1061964 7.80933702,8.62262609 C8.70326774,6.91030089 10.2748436,5.33701812 12.5240645,3.90277778 C14.7362085,5.45967381 16.2780151,7.03295658 17.1494844,8.62262609 C18.4566882,11.0071304 20.8629271,16.2636647 16.8352121,17.5747235 C16.2961397,17.7501966 15.1333445,17.4687829 13.3468264,16.7304823 L13.3468264,20.1474607 L11.6885881,20.1474607 L11.6885881,16.7304823 Z" id="Path-2" fill="#4B2884"></path>
                </g>
                <g id="Group" transform="translate(7.083333, 14.560185)" fill="#FFFFFF">
                    <path d="M23.0699456,0.239519085 C23.1840023,0.21344898 23.4137451,0.158050008 23.5294312,0.131979904 C24.1534843,0.0912453657 24.7710199,0.0945041287 25.4015905,0.0993922733 C25.5156472,0.133609285 25.74539,0.198784547 25.8610761,0.231372177 C25.9946854,0.330764451 26.1445885,0.366610844 26.3107854,0.338911358 C27.4432056,0.350317029 28.5185974,0.808173239 29.610283,1.05420985 C29.541849,1.15686089 29.4066103,1.36216296 29.3398057,1.46318461 C29.2290077,1.59516452 29.1980495,1.74506762 29.2469309,1.91289392 C29.2844067,2.152413 29.2648541,2.38704394 29.191532,2.61678674 C29.0839928,2.74876664 29.0448876,2.89704036 29.0725871,3.06323728 C29.0823634,3.31579141 29.0856222,3.56834555 29.080734,3.82252907 C28.9894887,3.79808835 28.8069979,3.75083628 28.7157526,3.72802494 C28.345883,3.71498989 27.9613489,3.69869607 27.6305845,3.51620534 C27.4986046,3.41029554 27.3487015,3.369561 27.1857633,3.39400173 C26.6953195,3.40377802 26.2113931,3.32719708 25.7274668,3.27668626 C25.1066725,3.21314038 24.4875075,3.14796512 23.8716013,3.08116047 C23.7070337,3.04042594 23.5571306,3.0697548 23.4202626,3.16914708 C22.7326636,3.47058266 21.9782599,3.59441566 21.303696,3.93169763 C20.9745609,4.14188785 20.6910485,4.41562395 20.4564176,4.72683582 C19.8893928,5.70120597 19.591216,6.82222047 19.4657536,7.93671743 C19.4168722,8.65690407 19.3908021,9.38034947 19.3663613,10.1021655 C19.288151,10.266733 19.288151,10.4296712 19.3663613,10.5909799 C19.3891727,10.6805959 19.4347954,10.8581985 19.4559773,10.9461851 C19.4299072,11.112382 19.4641242,11.2622851 19.5635165,11.3991532 C19.8453995,11.9808424 20.0881774,12.5837136 20.3032557,13.1947316 C20.3358434,13.3576698 20.4270887,13.4766146 20.5802506,13.5531956 C20.7122305,13.6542172 20.8262872,13.7747915 20.9224207,13.9132889 C20.9827078,14.0697095 21.0918764,14.1739899 21.2515558,14.2261301 C22.7065935,15.1157725 24.4418848,14.9414286 26.0794132,15.0277859 C26.172288,15.0196389 26.3580375,15.0033451 26.4509122,14.9935688 C27.3568484,14.763826 28.2644139,14.5226776 29.1866438,14.3613688 L29.1296155,14.5406008 C29.0399995,14.7214621 29.0905103,14.9218761 29.1556856,15.1027374 C29.2290077,15.3422565 29.2648541,15.5866637 29.2648541,15.8375885 C29.2273784,16.0005266 29.2501897,16.1536885 29.3332882,16.3003328 C29.349582,16.3964663 29.383799,16.5919921 29.4000928,16.6881256 C29.4294217,16.7777416 29.4880794,16.9553442 29.5174083,17.0449602 C28.6375422,17.3594308 27.7316061,17.6657546 26.7995999,17.7521118 C26.633403,17.7227829 26.4834999,17.7537412 26.3450024,17.8482453 C26.0598607,17.9557845 25.7519076,17.9867427 25.450472,17.9883721 C25.1637008,17.9802252 24.8850766,17.9802252 24.6129699,17.9916309 L24.4923956,17.9916309 C23.9921755,17.9785958 23.511508,17.9720783 23.0194347,17.9394906 C22.9249306,17.9329731 22.7375517,17.9215675 22.644677,17.9150499 C22.5501729,17.8987561 22.3644234,17.8677979 22.2699192,17.8531334 C22.1314218,17.7569999 21.9798893,17.7227829 21.8153218,17.7521118 C20.6323908,17.693454 19.4771593,17.1606463 18.5467824,16.4469772 C18.0498211,15.9483864 17.562636,15.4416488 17.0721921,14.9381699 C16.290089,13.9621703 15.905555,12.7124347 15.7637988,11.4871398 C15.7556519,11.2606558 15.7214349,11.0358011 15.6611477,10.817464 C15.6041194,10.5926093 15.5666436,10.3661253 15.547091,10.1347531 C15.5161328,9.46018916 15.5014684,8.78562521 15.5014684,8.10943188 C15.5210209,7.89435351 15.5731611,7.68579268 15.657889,7.48537875 C15.7540225,7.35014008 15.7898689,7.20023698 15.7637988,7.03566945 C15.8191977,5.89673176 16.2200256,4.78060541 16.8033442,3.80786464 C16.9483591,3.72965432 17.0444927,3.61233885 17.0917447,3.45265946 C17.1471437,3.37770791 17.259571,3.22780481 17.31497,3.15122388 C17.4665025,3.00457954 17.6049999,2.84164139 17.7174272,2.66078004 C17.8591834,2.4522192 18.0335272,2.26646971 18.2371999,2.11656661 C18.4115438,1.99599237 18.5712232,1.85586556 18.7227556,1.70759184 L18.8237773,1.6407872 C18.9785685,1.59190575 19.0991428,1.49740163 19.1855,1.35727481 C20.2429686,0.824467054 21.4079764,0.311211872 22.6169775,0.332393832 C22.7782863,0.364981463 22.9298187,0.334023214 23.0699456,0.239519085 Z" id="Shape"></path>
                    <path d="M5.86777293,0.405716001 C6.06818686,0.332393832 6.2767477,0.293288675 6.49345544,0.283512386 C7.11587918,0.2558129 7.73341478,0.267218571 8.36072667,0.281883005 C8.48130091,0.311211872 8.72570814,0.371498989 8.84791175,0.400827856 C9.02225558,0.477408788 9.21289321,0.514884564 9.40678962,0.496961367 C10.6304551,0.537695905 11.8361975,0.850537159 12.9816527,1.27417636 L12.8692254,1.32468718 C12.6997697,1.39149183 12.6313357,1.52021297 12.6622939,1.70922123 C12.6492589,2.4440723 12.5840836,3.1756646 12.517279,3.90562753 C11.4875098,3.78342391 10.4365587,3.67588473 9.45892983,3.31579141 C9.3204324,3.2196579 9.16889991,3.18869965 9.00596176,3.22291667 C7.55092405,3.16262955 6.12847398,3.40703678 4.72068834,3.73617185 C4.54471513,3.74431876 4.4241409,3.83067598 4.35896564,3.99361413 C4.19928625,4.28201466 4.02494242,4.5606389 3.86363365,4.84578067 C3.72513622,5.12440491 3.72024808,5.39977039 3.84733984,5.66861834 L3.92229139,5.85436784 C3.98420788,6.06618744 4.12107593,6.25682508 4.33126615,6.34155292 C6.49345544,7.65646381 9.23081641,7.50493133 11.3424949,8.88827625 C11.4321109,9.02677368 11.5575732,9.1131309 11.7205114,9.14734791 C12.7665743,9.79584176 13.2342068,11.0325423 13.4378795,12.1910326 C13.4492852,12.6456301 13.452544,13.1002275 13.4476558,13.5564543 C13.3531517,14.2440533 13.1071151,14.9463168 12.6297063,15.4628307 C12.4569918,15.59644 12.2940537,15.741455 12.1441506,15.899505 C11.9355898,16.0868838 11.7368052,16.284039 11.5477969,16.4909705 C10.7868758,17.1606463 9.8320582,17.7732937 8.77947773,17.7504824 C8.61165143,17.7227829 8.46337771,17.7586293 8.32976842,17.8629097 C8.12283697,17.9769664 7.88494727,18.0616943 7.65683385,17.9541551 C7.48900756,17.8873504 7.32769878,17.8971267 7.17127816,17.9867427 C6.52278431,17.9851133 5.87754922,17.9851133 5.23231414,17.9883721 C5.07426413,17.8971267 4.91132597,17.8857211 4.74675844,17.9541551 C4.51538626,18.0633236 4.27260841,17.9785958 4.06404758,17.8645391 C3.92880891,17.7618881 3.77890581,17.7227829 3.61433828,17.7455942 C3.52798106,17.7325592 3.35689599,17.7064891 3.27053877,17.693454 C3.13204134,17.5989499 2.97887948,17.5647329 2.81594133,17.5956911 C1.9100052,17.5288865 1.09042629,17.0596246 0.256182943,16.7402658 C0.283882429,16.6506499 0.339281401,16.4730473 0.366980887,16.3850607 C0.417491714,15.8571411 0.435414911,15.3161864 0.608129353,14.8127075 C0.707521627,14.6709513 0.73196235,14.5194188 0.681451522,14.3597394 C0.653752036,14.2261301 0.596723683,13.9589116 0.569024197,13.8253023 C2.21795831,14.3727745 3.8147522,15.1793183 5.5793724,15.2558993 C6.03885799,15.259158 6.5146374,15.2705637 6.98064052,15.2477524 C7.83117768,15.2070178 8.64586844,14.8941766 9.37583137,14.468908 C9.60557416,14.3467044 9.85161077,14.1707312 9.89886284,13.8953657 C10.3322783,13.0448285 9.87442212,12.282278 9.3644257,11.6403017 C9.28621538,11.4871398 9.16075301,11.4040413 8.99129733,11.3877475 C7.52159519,10.9331501 6.03559923,10.5306928 4.55286204,10.1249768 C3.70232488,9.8186531 2.76868926,9.54165824 2.15278304,8.84265356 C1.96866293,8.62920458 1.77150777,8.42879066 1.56457631,8.2397824 C1.41304383,8.08173239 1.24847629,7.93834681 1.07576185,7.80473753 C0.691227811,7.43975607 0.479408213,6.91346583 0.453338108,6.3871756 C0.4451912,5.84296217 0.451708727,5.3020075 0.484296357,4.76105283 C0.57228296,4.14840538 0.722186061,3.5113172 1.09531443,3.00620892 C1.22566495,2.89866974 1.29084021,2.76017231 1.29084021,2.59234601 L1.31202217,2.45384858 C1.62486343,2.11819599 1.94585159,1.78580216 2.28150418,1.46970214 C3.26890939,1.01673407 4.30682543,0.53280776 5.41480487,0.505108274 C5.57774302,0.534437142 5.7292755,0.50022013 5.86777293,0.405716001 Z" id="Shape"></path>
                    <path d="M32.3011061,0.417959241 C35.0792017,0.562974198 37.8670735,0.400036045 40.6500571,0.393518519 C40.9123875,0.403294808 41.1812355,0.439141201 41.4321602,0.532015949 C41.5673989,0.624890696 41.7189314,0.657478326 41.8851283,0.631408222 C42.7959526,0.730800495 43.7035181,1.00942474 44.5035444,1.46565157 C44.5687197,1.61392528 44.6746295,1.72309385 44.826162,1.78989849 C44.8668965,1.83715055 44.9467362,1.9300253 44.9874707,1.97564798 C45.1047862,2.15325057 45.244913,2.31455934 45.4045924,2.4595743 C45.8266022,2.87343721 46.0237574,3.48445528 45.987911,4.06940325 C45.953694,4.23397079 45.9862816,4.38550327 46.0824151,4.52563008 C46.0840445,4.66086875 46.0856739,4.9297167 46.0873033,5.06495537 C45.9846522,5.2034528 45.9471765,5.35661466 45.9765053,5.52444096 C45.9797641,5.6173157 45.9862816,5.8030652 45.9895404,5.89593995 C46.0123517,6.42385956 45.7646857,6.92733845 45.4176275,7.31024311 C45.2286192,7.49436323 45.0444991,7.6817421 44.8636377,7.87237974 C44.557314,8.17218594 44.1483393,8.32860657 43.7523995,8.47036276 C43.4672578,8.47525091 43.5389506,8.85163804 43.7980222,8.81253288 C44.2591372,8.92658959 44.7349166,9.04716383 45.1341151,9.31601178 C45.2253604,9.44962106 45.3508228,9.53597828 45.5105022,9.57345406 C45.7288393,9.66795819 45.8868893,9.86837212 45.9699878,10.0883386 C46.0042048,10.2496474 46.0938208,10.371851 46.2388358,10.4565788 C46.6673631,10.922582 46.8661476,11.5580408 47.0225683,12.1609119 C47.0404915,12.61388 47.0502678,13.0684774 47.0518971,13.5230749 C46.9883513,14.3573182 46.6038172,15.1540858 46.077527,15.7928034 C45.8787424,15.9720353 45.6815873,16.1528967 45.4860615,16.3353874 L45.3508228,16.3940451 C45.1846259,16.4250034 45.0575341,16.5146194 44.9728063,16.6596343 C44.4693274,17.1712601 43.7230707,17.4124086 43.0159191,17.3961148 C42.8480928,17.3667859 42.6965603,17.3993735 42.5596923,17.4971364 C42.4537825,17.5134303 42.2419629,17.5492766 42.1360531,17.5671998 C42.0382902,17.5655705 41.8460232,17.5639411 41.7482603,17.5639411 C41.5820633,17.5541648 41.4191252,17.5525354 41.256187,17.5590529 C38.2597544,17.5883818 35.2633218,17.5574236 32.2685185,17.5590529 C32.3369525,11.8464413 32.3011061,6.13220027 32.3011061,0.417959241 Z M35.4898058,3.14065578 C35.3790079,4.66249813 35.4083367,6.19248738 35.5191347,7.71432973 L35.5240228,7.59538488 C37.2902724,7.62797251 39.0581514,7.62797251 40.8276597,7.58397921 C41.6733087,7.65730138 42.4211948,7.06094774 42.8220227,6.36031368 C42.8497222,5.90082809 42.8497222,5.4413425 42.8171345,4.98185691 C42.7747706,4.70812081 42.6721196,4.44090224 42.5042933,4.21930635 C42.755218,3.96349345 42.3055087,3.52844858 42.0594721,3.78752025 C41.6863438,3.54311302 41.2512989,3.38832177 40.8081071,3.34758723 C39.0402282,3.20257228 37.2658317,3.20420166 35.4963233,3.25797125 L35.4898058,3.14065578 Z M35.4914352,9.97754068 C35.3382733,11.6264748 35.3953017,13.2868146 35.4946939,14.9390074 L35.4979527,14.8314683 C37.3179719,15.0432879 39.159173,14.9830007 40.9824509,14.8282095 C41.0965076,14.8021394 41.3246211,14.7516286 41.4370484,14.7255585 C41.6472386,14.9357487 41.7987711,14.903161 41.8916458,14.6277956 C42.1295355,14.6359425 42.4016423,14.6229074 42.562951,14.4143466 C42.8155052,14.663642 43.25055,14.2204502 43.0012547,13.9695254 C43.2098155,13.7528177 43.3694949,13.4839697 43.4493346,13.1923104 C43.4802928,12.669279 43.4444464,12.1381006 43.4477052,11.6183279 L43.450964,11.7242377 C43.4069707,11.4830892 43.2994315,11.2566052 43.1576753,11.0610794 C43.4086,10.8036371 42.9588907,10.3702216 42.7112247,10.6276639 C42.4211948,10.4109562 42.0725072,10.2561649 41.7124139,10.2219479 C41.6032453,9.96124686 41.4582303,9.93843552 41.2757396,10.1551433 C39.3693632,9.87651902 37.4157348,10.1225556 35.4963233,10.1046324 L35.4914352,9.97754068 Z" id="Shape"></path>
                </g>
            </g>
        </g>
    </g>
</svg>