<?xml version="1.0" encoding="UTF-8"?>
<svg width="58px" height="20px" viewBox="0 0 58 20" version="1.1" xmlns="http://www.w3.org/2000/svg" xmlns:xlink="http://www.w3.org/1999/xlink">
    <!-- Generator: Sketch 49.1 (51147) - http://www.bohemiancoding.com/sketch -->
    <title>skrill</title>
    <desc>Created with Sketch.</desc>
    <defs></defs>
    <g id="Page-1" stroke="none" stroke-width="1" fill="none" fill-rule="evenodd">
        <g id="m7-withdraw-balance-0-1366" transform="translate(-214.000000, -1256.000000)" fill="#972772">
            <path d="M255.661321,1260.80494 C256.976544,1260.80494 258.041977,1259.72963 258.041977,1258.40316 C258.041977,1257.07634 256.976544,1256 255.661321,1256 C254.348476,1256 253.283043,1257.07634 253.283043,1258.40316 C253.283043,1259.72963 254.348476,1260.80494 255.661321,1260.80494 L255.661321,1260.80494 Z M237.428992,1262.10156 C237.321259,1262.37434 236.548438,1264.57917 234.678237,1266.8643 L234.678237,1257.0935 L229.696021,1258.08749 L229.696021,1275.79894 L234.678237,1275.79894 L234.678237,1270.32424 C236.121585,1272.50884 236.833912,1275.79894 236.833912,1275.79894 L242.801697,1275.79894 C242.211376,1273.32132 239.629187,1268.75279 239.629187,1268.75279 C241.946632,1265.78658 242.964486,1262.62584 243.126255,1262.10156 L237.428992,1262.10156 Z M250.526851,1261.91697 C246.064607,1262.06176 243.79882,1264.08303 243.79882,1268.10122 L243.79882,1275.79894 L248.667866,1275.79894 L248.667866,1269.52136 C248.667866,1267.1158 248.979849,1266.08406 251.80741,1265.98593 L251.80741,1261.98765 C251.331618,1261.8854 250.526851,1261.91697 250.526851,1261.91697 L250.526851,1261.91697 Z M221.340443,1264.05215 C220.73007,1264.01201 219.31731,1263.91971 219.31731,1262.63544 C219.31731,1261.08595 221.351318,1261.08595 222.114284,1261.08595 C223.455676,1261.08595 225.192994,1261.48568 226.433791,1261.8607 C226.433791,1261.8607 227.126067,1262.10705 227.715029,1262.35924 L227.769745,1262.37434 L227.769745,1262.31806 L227.769745,1258.13038 L227.694638,1258.10808 C226.23022,1257.59101 224.527566,1257.0935 221.371029,1257.0935 C215.928315,1257.0935 214,1260.29439 214,1263.03654 C214,1264.61726 214.670866,1268.33797 220.904414,1268.7672 C221.432542,1268.79979 222.834768,1268.88145 222.834768,1270.20827 C222.834768,1271.30417 221.686751,1271.94991 219.756057,1271.94991 C217.640145,1271.94991 215.586765,1271.40539 214.340191,1270.88866 L214.340191,1275.25922 C216.206993,1275.75296 218.310671,1276 220.77697,1276 C226.098697,1276 228.482073,1272.97135 228.482073,1269.96981 C228.482073,1266.56648 225.814922,1264.35478 221.340443,1264.05215 L221.340443,1264.05215 Z M253.248039,1275.79894 L258.076982,1275.79894 L258.076982,1262.11734 L253.248039,1262.11734 L253.248039,1275.79894 Z M267.170037,1257.96535 L267.170037,1275.79894 L272,1275.79894 L272,1257.0935 L267.170037,1257.96535 Z M260.122885,1257.96535 L264.947751,1257.0935 L264.947751,1275.79894 L260.122885,1275.79894 L260.122885,1257.96535 Z" id="skrill"></path>
        </g>
    </g>
</svg>