<?xml version="1.0" encoding="UTF-8"?>
<svg width="90px" height="16px" viewBox="0 0 90 16" version="1.1" xmlns="http://www.w3.org/2000/svg" xmlns:xlink="http://www.w3.org/1999/xlink">
    <!-- Generator: Sketch 49.1 (51147) - http://www.bohemiancoding.com/sketch -->
    <title>sofort</title>
    <desc>Created with Sketch.</desc>
    <defs></defs>
    <g id="Page-1" stroke="none" stroke-width="1" fill="none" fill-rule="evenodd">
        <g id="m7-withdraw-balance-0-1366" transform="translate(-762.000000, -1694.000000)" fill="#EE7F00">
            <path d="M791.765129,1694 C790.534137,1694 789.340424,1694.27769 788.219198,1694.79589 C786.618094,1695.54024 785.165612,1696.78147 783.979977,1698.42866 C783.209814,1699.49801 782.550398,1700.73753 782.034234,1702.12385 C781.060872,1704.74067 781.071762,1706.86326 782.066896,1708.26205 C782.631138,1709.0527 783.804096,1709.99733 786.188971,1710 L786.198113,1710 C790.542414,1710 793.785311,1707.2051 795.83908,1701.69278 C796.381549,1700.23434 797.097316,1697.5124 795.789217,1695.67555 C794.999097,1694.56525 793.647444,1694.00178 791.765126,1694 L791.765129,1694 Z M817.978013,1694 C816.747928,1694 815.553272,1694.27769 814.432953,1694.79589 C812.830941,1695.54024 811.379585,1696.78147 810.19395,1698.42866 C809.42288,1699.49801 808.764152,1700.73753 808.247989,1702.12385 C807.273719,1704.74067 807.28548,1706.86326 808.281521,1708.26205 C808.844855,1709.0527 810.016907,1709.99733 812.403597,1710 L812.411,1710 C816.756209,1710 820.000013,1707.2051 822.051968,1701.69278 C822.596251,1700.23434 823.310167,1697.5124 822.002975,1695.67555 C821.211948,1694.56525 819.860331,1694.00178 817.978013,1694 L817.978013,1694 Z M777.813303,1694.22163 C776.383648,1694.22163 774.994834,1694.22152 773.750236,1694.84119 C772.506544,1695.4609 771.407947,1696.70122 770.562491,1699.18181 C770.379249,1699.71514 770.282327,1700.17465 770.269628,1700.57354 C770.256932,1700.97332 770.327712,1701.3134 770.481926,1701.609 C770.672425,1701.96961 770.980859,1702.30886 771.366395,1702.59467 C771.752838,1702.88137 772.214455,1703.11385 772.712477,1703.26254 C772.731526,1703.26788 772.992896,1703.34084 773.310397,1703.42988 C773.626081,1703.51892 773.995226,1703.62566 774.229268,1703.6951 C774.366246,1703.73606 774.516704,1703.78954 774.652776,1703.87057 C774.789754,1703.94981 774.9123,1704.05659 774.989405,1704.20439 C775.040206,1704.30234 775.067466,1704.41011 775.070188,1704.52497 C775.073811,1704.64072 775.053743,1704.76549 775.007478,1704.89727 C774.891365,1705.23383 774.71537,1705.45106 774.379727,1705.58373 C774.045899,1705.7164 773.553373,1705.75898 772.805888,1705.76432 L763.474985,1705.76432 L762,1709.74161 L771.987613,1709.74161 C772.927411,1709.74161 774.645513,1709.74172 776.296511,1709.05259 C777.947509,1708.36433 779.531556,1706.98868 780.201934,1704.23474 C780.45412,1703.20012 780.376038,1702.35693 779.963289,1701.69449 C779.548725,1701.03294 778.799426,1700.55223 777.708134,1700.24505 C777.708134,1700.24505 777.464189,1700.17541 777.176625,1700.09438 C776.890875,1700.01336 776.559739,1699.92084 776.391012,1699.87276 C776.111612,1699.7944 775.896575,1699.6359 775.769576,1699.43378 C775.643483,1699.23256 775.605371,1698.98768 775.677035,1698.73749 C775.752327,1698.4775 775.933788,1698.27003 776.195044,1698.12668 C776.458115,1697.98422 776.802815,1697.90591 777.205585,1697.90591 L783.011242,1697.90591 C783.052063,1697.84804 783.089309,1697.7849 783.13013,1697.72703 C784.190578,1696.25434 785.474233,1695.06303 786.880302,1694.22163 L777.813303,1694.22163 L777.813303,1694.22163 Z M803.908171,1694.22163 C801.324631,1694.22163 799.401409,1695.50457 798.49336,1697.90591 L794.10455,1709.74161 L798.912513,1709.74161 L801.167668,1703.6577 L805.416688,1703.66048 L806.625809,1700.40171 L802.390508,1700.39893 L803.072694,1698.51223 C803.214207,1698.17389 803.55433,1697.90506 804.051445,1697.90506 C804.328123,1697.90506 807.447669,1697.90593 809.061473,1697.90676 C809.103203,1697.848 809.14041,1697.7849 809.181231,1697.72703 C810.241679,1696.25434 811.743077,1695.06303 813.149146,1694.22162 L803.908171,1694.22162 L803.908171,1694.22163 Z M826.21302,1694.23017 L820.455264,1709.75123 L825.345752,1709.75123 L827.438471,1704.28796 C827.540979,1704.51322 828.775626,1709.75123 828.775626,1709.75123 L833.917389,1709.75123 C833.917389,1709.75123 832.98217,1705.90218 832.294557,1704.34758 C832.117665,1703.9478 831.933362,1703.49996 831.68662,1703.12512 C833.138954,1702.59534 835.243515,1701.45832 836.115277,1699.15402 C836.65049,1697.73743 836.619781,1696.59232 836.024696,1695.7527 C835.303518,1694.73322 833.835764,1694.23284 831.53616,1694.23017 L826.21302,1694.23017 L826.21302,1694.23017 Z M836.243963,1694.23039 C836.553299,1694.47079 836.819955,1694.74492 837.042205,1695.05833 C837.610983,1695.86323 837.828637,1696.81969 837.698916,1697.91574 L840.610998,1697.91574 L836.222189,1709.75508 L840.607297,1709.75508 L844.99872,1697.91574 L850.633015,1697.91574 L852,1694.23039 L836.243963,1694.23039 L836.243963,1694.23039 Z M829.435167,1697.43466 L830.242555,1697.43466 C831.718472,1697.43565 832.26898,1697.85939 831.769145,1699.1816 C831.300152,1700.42278 830.456532,1701.18948 828.852707,1701.18948 L828.846397,1701.18948 L828.016364,1701.1886 L829.435171,1697.43464 L829.435167,1697.43466 Z M790.611314,1697.5116 L790.612205,1697.5116 C792.114431,1697.51339 792.458342,1698.36822 791.139358,1701.91013 L791.139135,1701.91013 C789.783865,1705.55088 788.800612,1706.46703 787.320157,1706.46703 L787.317325,1706.46703 C785.874971,1706.46615 785.368925,1705.5703 786.718752,1701.94647 C787.726587,1699.2415 789.031994,1697.5116 790.611328,1697.5116 L790.611314,1697.5116 Z M816.824197,1697.5116 L816.825936,1697.5116 C818.327255,1697.51339 818.671892,1698.36822 817.352001,1701.91013 C815.997638,1705.55088 815.013442,1706.46703 813.533894,1706.46703 L813.530416,1706.46703 C812.087153,1706.46615 811.583576,1705.5703 812.932496,1701.94647 C813.939423,1699.2415 815.245774,1697.5116 816.824201,1697.5116 L816.824197,1697.5116 Z" id="sofort"></path>
        </g>
    </g>
</svg>