<?xml version="1.0" encoding="UTF-8"?>
<svg width="83px" height="38px" viewBox="0 0 83 38" version="1.1" xmlns="http://www.w3.org/2000/svg" xmlns:xlink="http://www.w3.org/1999/xlink">
    <!-- Generator: Sketch 51.3 (57544) - http://www.bohemiancoding.com/sketch -->
    <title>Techcombank-logo</title>
    <desc>Created with Sketch.</desc>
    <defs>
        <polygon id="path-1" points="0.0114482759 0.137606061 58.283554 0.137606061 58.283554 37.9215051 0.0114482759 37.9215051"></polygon>
    </defs>
    <g id="Page-1" stroke="none" stroke-width="1" fill="none" fill-rule="evenodd">
        <g id="m7-withdraw-balance-0-1366-copy" transform="translate(-766.000000, -1564.000000)">
            <g id="Techcombank-logo" transform="translate(766.000000, 1564.000000)">
                <g id="Group-18">
                    <mask id="mask-2" fill="white">
                        <use xlink:href="#path-1"></use>
                    </mask>
                    <g id="Clip-16"></g>
                    <path d="M58.283554,11.4333939 L47.0913379,0.137606061 L41.4753862,5.7859798 L47.0913379,11.4333939 L41.4753862,17.0798485 L47.0913379,22.6913737 L58.283554,11.4333939 Z M41.4753862,5.7859798 L35.8981678,11.4333939 L41.4753862,17.0798485 L35.8981678,22.6913737 L24.6687448,11.4333939 L35.8981678,0.137606061 L41.4753862,5.7859798 Z" id="Fill-15" fill="#D8262C" mask="url(#mask-2)"></path>
                    <path d="M37.4921494,37.9215051 L37.4921494,36.2090101 C38.0714322,36.2090101 38.5053218,35.9900303 38.9044851,35.5896869 C39.2660598,35.1519192 39.4473241,34.6419899 39.4473241,33.9867778 C39.4473241,33.3674545 39.2660598,32.8579091 38.9044851,32.4199495 C38.5053218,31.9835253 38.0349885,31.7994747 37.4921494,31.7994747 L37.4921494,30.0516667 C38.0349885,30.0516667 38.5415747,30.1610606 39.0132437,30.3424242 C39.5200207,30.561596 39.954292,30.8533131 40.3168207,31.2168081 C40.7148391,31.5820303 40.9688,31.9835253 41.186508,32.4930707 C41.3677724,32.9663434 41.4753862,33.4403838 41.4753862,33.9867778 C41.4753862,34.5329798 41.3677724,35.0423333 41.186508,35.5167576 C41.0048621,35.9900303 40.7148391,36.4281818 40.3168207,36.7912929 C39.954292,37.1565152 39.5200207,37.4486162 39.0132437,37.629596 C38.5415747,37.8487677 38.0349885,37.9215051 37.4921494,37.9215051 Z M51.3289172,37.7389899 L49.4447218,37.7389899 L48.9741977,34.4963232 C48.9741977,34.2773434 48.9379448,33.9867778 48.901692,33.7313333 C48.8650575,33.4403838 48.8650575,33.1486667 48.8289954,32.8199091 C48.7927425,33.1120101 48.6853195,33.5121616 48.5401172,33.9867778 C48.5401172,34.0961717 48.5040552,34.169101 48.5040552,34.2057576 L47.4891655,37.7389899 L46.1132736,37.7389899 L45.0985747,34.2057576 C45.0985747,34.169101 45.0623218,34.0961717 45.0258782,33.9867778 C44.8806759,33.5121616 44.8083609,33.1120101 44.7730621,32.8199091 C44.737,33.1120101 44.6992207,33.3674545 44.6992207,33.658404 C44.6631586,33.9501212 44.6282414,34.2057576 44.5917977,34.4963232 L44.1565724,37.7389899 L42.272377,37.7389899 L43.3956437,30.2343737 L45.4250414,30.2343737 L46.5469724,34.0961717 C46.5469724,34.1324444 46.5834161,34.169101 46.5834161,34.2408788 C46.6925563,34.5692525 46.7650621,34.8611616 46.8013149,35.116798 C46.8013149,34.9707475 46.837377,34.824697 46.8738207,34.6788384 C46.9083563,34.4963232 46.9465172,34.3151515 47.019023,34.0961717 L48.1772069,30.2343737 L50.1690161,30.2343737 L51.3289172,37.7389899 Z M1.66629655,37.7389899 L1.66629655,31.9835253 L0,31.9835253 L0,30.2343737 L5.36065517,30.2343737 L5.36065517,31.9835253 L3.69435862,31.9835253 L3.69435862,37.7389899 L1.66629655,37.7389899 Z M37.4921494,30.0516667 L37.4921494,31.7994747 C36.9128667,31.7994747 36.4772598,31.9835253 36.0782874,32.4199495 C35.7167126,32.8199091 35.5350667,33.3674545 35.5350667,33.9867778 C35.5350667,34.6419899 35.7167126,35.1519192 36.0782874,35.5896869 C36.4411977,35.9900303 36.9128667,36.2090101 37.4921494,36.2090101 L37.4921494,37.9215051 C36.9477839,37.9215051 36.4411977,37.8487677 35.9693379,37.629596 C35.4627517,37.4486162 35.0284805,37.1565152 34.6657609,36.7912929 C34.2679333,36.4281818 33.9779103,35.9900303 33.7962644,35.5167576 C33.579892,35.0423333 33.5073862,34.5329798 33.5073862,33.9867778 C33.5073862,33.4403838 33.579892,32.9663434 33.7962644,32.4930707 C33.9779103,32.0186465 34.2679333,31.5820303 34.6657609,31.2168081 C35.0284805,30.8533131 35.4627517,30.561596 35.9693379,30.3424242 C36.4411977,30.1610606 36.9477839,30.0516667 37.4921494,30.0516667 Z M6.37554483,37.7389899 L6.37554483,30.2343737 L10.9405448,30.2343737 L10.9405448,31.872596 L8.36849885,31.872596 L8.36849885,33.1851313 L10.7943885,33.1851313 L10.7943885,34.7884242 L8.36849885,34.7884242 L8.36849885,36.0629596 L10.9405448,36.0629596 L10.9405448,37.7389899 L6.37554483,37.7389899 Z M17.714108,30.5260909 L17.714108,32.7471717 C17.4235126,32.4564141 17.1695517,32.2009697 16.8808644,32.0564545 C16.5891241,31.910404 16.3000552,31.8374747 15.9747333,31.8374747 C15.3958322,31.8374747 14.9239724,32.0564545 14.5610621,32.4564141 C14.1996782,32.8579091 14.018223,33.3674545 14.018223,34.0230505 C14.018223,34.6419899 14.1996782,35.116798 14.5610621,35.5167576 C14.9602253,35.9182525 15.4307494,36.1360808 15.9747333,36.1360808 C16.3000552,36.1360808 16.5891241,36.0629596 16.8808644,35.9182525 C17.1695517,35.7708586 17.4235126,35.5167576 17.714108,35.2250404 L17.714108,37.4486162 C17.3874506,37.629596 17.0607931,37.7389899 16.7354713,37.8121111 C16.4103402,37.8850404 16.1199356,37.9215051 15.793469,37.9215051 C15.3580529,37.9215051 14.996669,37.8850404 14.6337586,37.7756465 C14.3084368,37.7027172 13.9817793,37.5215455 13.6917563,37.3392222 C13.1498713,36.974 12.714646,36.5009192 12.424623,35.9182525 C12.1353632,35.3342424 11.9903517,34.715303 11.9903517,33.9867778 C11.9903517,33.4025758 12.0628575,32.8932222 12.2445034,32.4199495 C12.424623,31.9455253 12.714646,31.5089091 13.1124736,31.1438788 C13.439131,30.7803838 13.8369586,30.4882828 14.3084368,30.3071111 C14.742708,30.1247879 15.2128506,30.0516667 15.793469,30.0516667 C16.1199356,30.0516667 16.4103402,30.0883232 16.7354713,30.1610606 C17.0607931,30.2343737 17.3874506,30.3424242 17.714108,30.5260909 Z M18.872292,37.7389899 L18.872292,30.2343737 L20.9016897,30.2343737 L20.9016897,33.1486667 L23.6177931,33.1486667 L23.6177931,30.2343737 L25.6456644,30.2343737 L25.6456644,37.7389899 L23.6177931,37.7389899 L23.6177931,34.6788384 L20.9016897,34.6788384 L20.9016897,37.7389899 L18.872292,37.7389899 Z M32.6741425,30.5260909 L32.6741425,32.7471717 C32.3837379,32.4564141 32.0937149,32.2009697 31.8408989,32.0564545 C31.5506851,31.910404 31.2602805,31.8374747 30.933623,31.8374747 C30.3560575,31.8374747 29.8841977,32.0564545 29.5228138,32.4564141 C29.1599034,32.8579091 28.9784483,33.3674545 28.9784483,34.0230505 C28.9784483,34.6419899 29.1599034,35.116798 29.5228138,35.5167576 C29.8841977,35.9182525 30.3560575,36.1360808 30.933623,36.1360808 C31.2602805,36.1360808 31.5506851,36.0629596 31.8408989,35.9182525 C32.0937149,35.7708586 32.3837379,35.5167576 32.6741425,35.2250404 L32.6741425,37.4486162 C32.3476759,37.629596 32.0210184,37.7389899 31.6958874,37.8121111 C31.3692299,37.8850404 31.0440989,37.9215051 30.7174414,37.9215051 C30.3196138,37.9215051 29.9568943,37.8850404 29.5955103,37.7756465 C29.2686621,37.7027172 28.9420046,37.5215455 28.6533172,37.3392222 C28.0726989,36.974 27.6748713,36.5009192 27.3484046,35.9182525 C27.0595264,35.3342424 26.9143241,34.715303 26.9143241,33.9867778 C26.9143241,33.4025758 27.0230828,32.8932222 27.2032023,32.4199495 C27.3844667,31.9455253 27.6748713,31.5089091 28.0362552,31.1438788 C28.3993563,30.7803838 28.7968023,30.4882828 29.2324092,30.3071111 C29.704269,30.1247879 30.1744115,30.0516667 30.7174414,30.0516667 C31.0440989,30.0516667 31.3692299,30.0883232 31.6958874,30.1610606 C32.0210184,30.2343737 32.3476759,30.3424242 32.6741425,30.5260909 Z" id="Fill-17" fill="#D8262C" mask="url(#mask-2)"></path>
                </g>
                <path d="M62.4858345,36.3915253 L62.4858345,34.9340909 L63.5003425,34.9340909 L62.7397954,32.4564141 C62.7037333,32.3836768 62.6672897,32.2740909 62.6295103,32.0915758 C62.5945931,31.9455253 62.5220874,31.727697 62.4858345,31.4722525 L62.4858345,30.2343737 L63.7543034,30.2343737 L66.326731,37.7389899 L64.2973333,37.7389899 L63.8998874,36.3915253 L62.4858345,36.3915253 Z M67.0496897,37.7389899 L67.0496897,30.2343737 L69.0063908,30.2343737 L71.8314437,34.0961717 C71.8675057,34.169101 71.9762644,34.3502727 72.085023,34.5692525 C72.2302253,34.824697 72.374092,35.078798 72.5194851,35.4073636 C72.4841862,35.116798 72.4481241,34.824697 72.4118713,34.6057172 C72.4118713,34.3502727 72.374092,34.1324444 72.374092,33.9501212 L72.374092,30.2343737 L74.3307931,30.2343737 L74.3307931,37.7389899 L72.374092,37.7389899 L69.5494207,33.877 C69.512977,33.8042626 69.4053632,33.6215556 69.2954598,33.4025758 C69.1498759,33.1486667 69.0424529,32.8579091 68.8974414,32.566 C68.9340759,32.8579091 68.9701379,33.1486667 68.9701379,33.4025758 C69.0063908,33.6215556 69.0063908,33.8407273 69.0063908,34.0230505 L69.0063908,37.7389899 L67.0496897,37.7389899 Z M75.9610276,37.7389899 L75.9610276,30.2343737 L77.9539816,30.2343737 L77.9539816,33.658404 L80.3434276,30.2343737 L82.6977655,30.2343737 L79.9456,33.9136566 L82.9519172,37.7389899 L80.417269,37.7389899 L77.9539816,34.3880808 L77.9539816,37.7389899 L75.9610276,37.7389899 Z M55.1331793,33.221404 C55.3858046,33.1851313 55.6037034,33.1486667 55.7124621,33.0755455 C55.8925816,32.9663434 56.001531,32.7471717 56.001531,32.4930707 C56.001531,32.2009697 55.9290253,32.0186465 55.7475701,31.872596 C55.6037034,31.7994747 55.4224391,31.7645455 55.1331793,31.727697 L55.1331793,30.2343737 C55.6037034,30.2343737 55.9650874,30.2691111 56.2190483,30.3071111 C56.5458966,30.3788889 56.8347747,30.4518182 57.0885448,30.5978687 C57.3413609,30.7439192 57.559069,30.9627071 57.7040805,31.2168081 C57.8492828,31.4722525 57.9217885,31.7645455 57.9217885,32.0915758 C57.9217885,32.5295354 57.8132207,32.8932222 57.5953218,33.1120101 C57.3791402,33.3674545 57.0160391,33.5864343 56.5458966,33.6944848 C57.0885448,33.7313333 57.5239609,33.9136566 57.8132207,34.2773434 C58.1034345,34.6057172 58.2471103,35.0423333 58.2471103,35.5896869 C58.2471103,35.9900303 58.1757494,36.3550606 57.9931494,36.6469697 C57.8492828,36.974 57.5953218,37.1931717 57.27,37.3754949 C57.0160391,37.5215455 56.7273517,37.5933232 56.3279977,37.667596 C56.0753724,37.7027172 55.6764,37.7389899 55.1331793,37.7389899 L55.1331793,36.2090101 C55.5311977,36.2090101 55.8214115,36.1360808 56.001531,36.026303 C56.2190483,35.9182525 56.3279977,35.6994646 56.3279977,35.4073636 C56.3279977,35.116798 56.2190483,34.8978182 56.0375931,34.7517677 C55.8563287,34.6419899 55.5674506,34.5692525 55.1331793,34.5692525 L55.1331793,33.221404 Z M62.4858345,30.2343737 L62.4858345,31.4722525 C62.4858345,31.4359798 62.4858345,31.4359798 62.4858345,31.4359798 C62.4133287,31.618303 62.3768851,31.7994747 62.3406322,31.9835253 C62.3057149,32.1280404 62.2681264,32.3103636 62.1967655,32.4564141 L61.4711356,34.9340909 L62.4858345,34.9340909 L62.4858345,36.3915253 L61.0370552,36.3915253 L60.637892,37.7389899 L58.6098299,37.7389899 L61.1809218,30.2343737 L62.4858345,30.2343737 Z M54.2987908,33.221404 L54.7343977,33.221404 C54.8792184,33.221404 54.9883586,33.221404 55.1331793,33.221404 L55.1331793,34.5692525 C55.0957816,34.5692525 55.0593379,34.5692525 55.0246115,34.5692525 L54.2987908,34.5692525 L54.2987908,36.2090101 L54.9883586,36.2090101 C55.0246115,36.2090101 55.0957816,36.2090101 55.1331793,36.2090101 L55.1331793,37.7389899 C54.9505793,37.7389899 54.7689333,37.7389899 54.5164989,37.7389899 L52.415931,37.7389899 L52.415931,30.2343737 L54.480246,30.2343737 C54.7343977,30.2343737 54.9141356,30.2343737 55.1331793,30.2343737 L55.1331793,31.727697 C55.0246115,31.727697 54.8792184,31.727697 54.7343977,31.727697 L54.2987908,31.727697 L54.2987908,33.221404 Z" id="Fill-19" fill="#1B1A19"></path>
                <path d="M57.3413609,21.707404 C57.4138667,21.707404 57.4501195,21.6709394 57.4865632,21.6709394 C57.5239609,21.6344747 57.559069,21.5628889 57.559069,21.4895758 C57.559069,21.4168384 57.5239609,21.3439091 57.4865632,21.3072525 C57.4501195,21.3072525 57.4138667,21.2707879 57.3413609,21.2707879 L57.3413609,21.1613939 C57.4501195,21.1613939 57.5239609,21.1978586 57.559069,21.2341313 C57.6317655,21.3072525 57.6678276,21.3801818 57.6678276,21.4895758 C57.6678276,21.5980101 57.6317655,21.6709394 57.559069,21.707404 C57.5239609,21.7805253 57.4501195,21.816798 57.3413609,21.816798 L57.3413609,21.707404 Z M57.3413609,22.6913737 C57.8492828,22.6913737 58.283554,22.2900707 58.283554,21.7436768 C58.283554,21.2341313 57.8492828,20.8330202 57.3413609,20.8330202 L57.3413609,20.9057576 C57.8132207,20.9057576 58.2106667,21.2707879 58.2106667,21.7436768 C58.2106667,22.2547576 57.8132207,22.6184444 57.3413609,22.6184444 L57.3413609,22.6913737 Z M57.3413609,21.9628485 L57.3413609,21.816798 L57.7765862,22.3996566 L57.6317655,22.3996566 L57.3413609,21.9628485 Z M57.1612414,21.2707879 L57.1612414,21.707404 L57.27,21.707404 C57.3052989,21.707404 57.3052989,21.707404 57.3413609,21.707404 L57.3413609,21.9628485 L57.2339379,21.816798 L57.1612414,21.816798 L57.1612414,22.3996566 L57.0524828,22.3996566 L57.0524828,21.1613939 L57.27,21.1613939 C57.3052989,21.1613939 57.3052989,21.1613939 57.3413609,21.1613939 L57.3413609,21.2707879 C57.3052989,21.2707879 57.3052989,21.2707879 57.27,21.2707879 L57.1612414,21.2707879 Z M57.3413609,20.8330202 C56.8347747,20.8330202 56.4006943,21.2341313 56.4006943,21.7436768 C56.4006943,22.2900707 56.8347747,22.6913737 57.3413609,22.6913737 L57.3413609,22.6184444 C56.8712184,22.6184444 56.4716736,22.2547576 56.4716736,21.7436768 C56.4716736,21.2707879 56.8712184,20.9057576 57.3413609,20.9057576 L57.3413609,20.8330202 Z" id="Fill-20" fill="#D8262C"></path>
            </g>
        </g>
    </g>
</svg>