<?xml version="1.0" encoding="UTF-8"?>
<svg width="62px" height="29px" viewBox="0 0 62 29" version="1.1" xmlns="http://www.w3.org/2000/svg" xmlns:xlink="http://www.w3.org/1999/xlink">
    <!-- Generator: Sketch 51.3 (57544) - http://www.bohemiancoding.com/sketch -->
    <title>TMB_Bank_Logo</title>
    <desc>Created with Sketch.</desc>
    <defs></defs>
    <g id="Page-1" stroke="none" stroke-width="1" fill="none" fill-rule="evenodd">
        <g id="m7-withdraw-balance-0-1366-copy" transform="translate(-777.000000, -911.000000)" fill-rule="nonzero">
            <g id="TMB_Bank_Logo" transform="translate(777.000000, 911.000000)">
                <path d="M22.9645732,0.0901387401 C21.1834062,0.0901387401 19.7412422,1.49693252 19.7412422,3.23805682 C19.7412422,4.98189486 21.1834062,6.39954345 22.9645732,6.39954345 C24.7468529,6.39954345 26.1879043,4.98189486 26.1879043,3.23805682 C26.1879043,1.49693252 24.7468529,0.0901387401 22.9645732,0.0901387401 Z M38.9145039,0.0901387401 C37.1316695,0.0901387401 35.6911745,1.49693252 35.6911745,3.23805682 C35.6911745,4.98189486 37.1316695,6.39954345 38.9145039,6.39954345 C40.6995639,6.39954345 42.137835,4.98189486 42.137835,3.23805682 C42.137835,1.49693252 40.6995639,0.0901387401 38.9145039,0.0901387401 Z M19.8384989,9.03185433 L19.8384989,28.9098721 L24.2983662,28.9098721 L24.2983662,14.9613374 L24.3678339,14.9613374 L29.216725,28.9098721 L32.6623538,28.9098721 L37.5668181,14.9477696 L37.5668181,28.9098721 L42.0405798,28.9098721 L42.0405798,9.03185433 L35.5939177,9.03185433 L31.0923702,22.6954478 L31.0367954,22.6954478 L26.2851611,9.03185433 L19.8384989,9.03185433 Z" id="path3186" fill="#0F6DB6"></path>
                <polygon id="path3194" fill="#C7303A" points="1.95789474e-06 12.7084055 1.95789474e-06 9.03293976 16.8407957 9.03293976 16.8407957 12.7084055 10.6570012 12.7084055 10.6570012 28.9098721 6.18490741 28.9098721 6.18490741 12.7084055"></polygon>
                <path d="M54.7563981,9.03293976 C55.6911639,9.03293976 56.5497937,9.1105522 57.3239486,9.2777176 C58.1014384,9.44976759 58.7666674,9.72113987 59.3218578,10.1005182 C59.8720474,10.4771829 60.2999714,10.9851917 60.6056331,11.6164036 C60.9090708,12.24653 61.0635683,13.0297104 61.0635683,13.952376 C61.0635683,14.9553685 60.8396015,15.7906514 60.3866686,16.4560564 C59.9409604,17.1203763 59.2673941,17.6734318 58.3865356,18.0967728 C59.6008431,18.4538982 60.5067104,19.0693707 61.0974693,19.9480738 C61.6976749,20.830034 62.0000016,21.8992401 62.0000016,23.1377838 C62.0000016,24.145118 61.8032675,25.0135086 61.4159111,25.7472995 C61.0296674,26.4783767 60.5067104,27.0797363 59.8548196,27.5405272 C59.2007049,28.0045734 58.4543375,28.3503012 57.6107133,28.5728268 C56.7776486,28.7975226 55.9145744,28.9093288 55.0226016,28.9093288 L45.4537549,28.9093288 L45.4537549,9.03293976 L54.7563981,9.03293976 Z M54.2045426,17.0682719 C54.9836982,17.0682719 55.6189176,16.8869948 56.1190895,16.5157581 C56.6214853,16.1450632 56.8721268,15.5426169 56.8721268,14.702992 C56.8721268,14.2394877 56.7876535,13.864994 56.6214853,13.5643136 C56.4536497,13.2679752 56.2335725,13.036766 55.9540325,12.8701434 C55.6789385,12.6986362 55.3538268,12.5846598 54.9970364,12.5211587 C54.6324666,12.4571149 54.2584499,12.4250929 53.8749848,12.4250929 L49.7857993,12.4250929 L49.7857993,17.0682719 L54.2045426,17.0682719 Z M54.446292,25.5150047 C54.8708827,25.5150047 55.2765781,25.472671 55.6678225,25.3896307 C56.0551789,25.3017065 56.3986296,25.1649348 56.6915094,24.9695465 C56.992167,24.771988 57.2233585,24.5060421 57.4028648,24.1738837 C57.5757012,23.8379235 57.6601746,23.410242 57.6601746,22.8837789 C57.6601746,21.8655905 57.3750774,21.1334281 56.8043249,20.6965192 C56.2335725,20.2574385 55.4733122,20.0392549 54.5335439,20.0392549 L49.7857993,20.0392549 L49.7857993,25.5150047 L54.446292,25.5150047 Z" id="path3198" fill="#C7303A"></path>
            </g>
        </g>
    </g>
</svg>