<?xml version="1.0" encoding="UTF-8" standalone="no"?>
<svg width="100px" height="31px" viewBox="0 0 100 31" version="1.1" xmlns="http://www.w3.org/2000/svg" xmlns:xlink="http://www.w3.org/1999/xlink">
    <!-- Generator: Sketch 50.2 (55047) - http://www.bohemiancoding.com/sketch -->
    <title>trustly</title>
    <desc>Created with Sketch.</desc>
    <defs></defs>
    <g id="Page-1" stroke="none" stroke-width="1" fill="none" fill-rule="evenodd">
        <g id="withdraw-" transform="translate(-757.000000, -2304.000000)" fill-rule="nonzero">
            <g id="trustly" transform="translate(757.000000, 2304.000000)">
                <path d="M35.0898876,9.79794686 C36.8838951,9.79794686 38.6779026,9.79794686 40.4719101,9.79794686 C40.6329588,9.79794686 40.7940075,9.80169082 40.9550562,9.83913043 C41.2209738,9.89903382 41.340824,10.0375604 41.3483146,10.3108696 C41.3558052,10.6291063 41.3520599,10.943599 41.3520599,11.2618357 C41.3520599,11.7672705 41.3520599,12.2764493 41.3520599,12.7818841 C41.3520599,12.8530193 41.3520599,12.9241546 41.3445693,12.9915459 C41.3220974,13.175 41.2397004,13.2648551 41.0561798,13.3022947 C40.9400749,13.3285024 40.8202247,13.3322464 40.7003745,13.3322464 C39.7865169,13.3322464 38.8689139,13.3322464 37.9550562,13.3322464 C37.8651685,13.3322464 37.7715356,13.3322464 37.6816479,13.3472222 C37.5318352,13.369686 37.4606742,13.4445652 37.4419476,13.5980676 C37.4344569,13.6729469 37.4344569,13.75157 37.4344569,13.8301932 C37.4344569,17.0649758 37.4344569,20.3035024 37.4344569,23.538285 C37.4344569,23.6431159 37.4269663,23.7479469 37.4194757,23.8527778 C37.3970037,24.1111111 37.2509363,24.2571256 37.0074906,24.3245169 C36.8426966,24.3694444 36.6741573,24.3806763 36.505618,24.3806763 C35.4082397,24.3806763 34.3108614,24.3993961 33.2134831,24.3731884 C33.0861423,24.3694444 32.9588015,24.3619565 32.8389513,24.3207729 C32.6779026,24.2683575 32.5805243,24.1597826 32.5468165,23.9913043 C32.5243446,23.8714976 32.5205993,23.7554348 32.5205993,23.635628 C32.5205993,20.3933575 32.5205993,17.151087 32.5205993,13.9050725 C32.5205993,13.8189614 32.5205993,13.7365942 32.5168539,13.6504831 C32.5018727,13.4295894 32.423221,13.3547101 32.2022472,13.3359903 C32.1310861,13.3285024 32.0599251,13.3322464 31.9925094,13.3322464 C31.1535581,13.3322464 30.3183521,13.3322464 29.4794007,13.3322464 C29.3520599,13.3322464 29.2247191,13.3247585 29.1011236,13.2985507 C28.928839,13.2611111 28.8501873,13.1675121 28.8314607,12.9952899 C28.8202247,12.9054348 28.8164794,12.8118357 28.8164794,12.7219807 C28.8164794,11.9769324 28.8164794,11.2318841 28.8164794,10.4830918 C28.8164794,10.4756039 28.8164794,10.4681159 28.8164794,10.460628 C28.8089888,10.0487923 28.8838951,9.85410628 29.4382022,9.80169082 C29.5355805,9.7942029 29.6367041,9.7942029 29.7340824,9.7942029 C31.5131086,9.79794686 33.3033708,9.79794686 35.0898876,9.79794686 Z" id="Shape" fill="#000000"></path>
                <path d="M61.7303371,18.0908213 C61.7303371,19.2514493 61.7378277,20.4120773 61.7265918,21.5727053 C61.7228464,22.0743961 61.6142322,22.5648551 61.3970037,23.0216184 C60.9775281,23.9051932 60.2696629,24.3844203 59.2996255,24.3993961 C57.5205993,24.4218599 55.741573,24.4068841 53.9588015,24.4031401 C53.5468165,24.4031401 53.1498127,24.3207729 52.7677903,24.1560386 C51.9812734,23.8153382 51.5468165,23.1900966 51.3445693,22.3851449 C51.258427,22.0444444 51.2172285,21.6925121 51.2172285,21.3405797 C51.2172285,19.1391304 51.2172285,16.9376812 51.2172285,14.7362319 C51.2172285,14.5677536 51.2359551,14.3992754 51.2883895,14.238285 C51.4157303,13.8376812 51.6441948,13.6654589 52.0636704,13.6654589 C52.6966292,13.661715 53.329588,13.6654589 53.9625468,13.6654589 C54.2247191,13.6654589 54.4831461,13.6654589 54.7453184,13.6654589 C54.9138577,13.6654589 55.082397,13.6879227 55.2397004,13.7628019 C55.5842697,13.9237923 55.7715356,14.1821256 55.7715356,14.5714976 C55.7677903,16.2300725 55.7715356,17.8923913 55.7715356,19.5509662 C55.7715356,19.7419082 55.7715356,19.9291063 55.82397,20.1163043 C55.9213483,20.4644928 56.1423221,20.6591787 56.5018727,20.6741546 C56.8726592,20.6891304 57.1348315,20.5506039 57.2846442,20.2173913 C57.3595506,20.048913 57.3820225,19.8692029 57.3820225,19.6820048 C57.3820225,18.015942 57.3820225,16.3498792 57.3820225,14.6800725 C57.3820225,14.4966184 57.3782772,14.3131643 57.423221,14.1334541 C57.494382,13.856401 57.6479401,13.7103865 57.9325843,13.6766908 C58.0074906,13.6654589 58.0861423,13.661715 58.164794,13.661715 C59.0224719,13.661715 59.8801498,13.661715 60.741573,13.661715 C60.8876404,13.661715 61.0374532,13.6692029 61.1797753,13.7103865 C61.5093633,13.8039855 61.6853933,14.0286232 61.7340824,14.3543478 C61.7490637,14.4591787 61.7490637,14.5640097 61.7490637,14.6688406 C61.7490637,15.8070048 61.7490637,16.948913 61.7490637,18.0870773 C61.7340824,18.0908213 61.7340824,18.0908213 61.7303371,18.0908213 Z" id="Shape" fill="#000000"></path>
                <path d="M99.9925094,13.9312802 C99.9925094,14.0061594 99.988764,14.0772947 99.988764,14.1521739 C99.9850187,14.2457729 99.9475655,14.3281401 99.9101124,14.4142512 C98.0561798,18.7684783 96.2022472,23.1227053 94.3520599,27.4769324 C94.2509363,27.7128019 94.1273408,27.9299517 93.9363296,28.1059179 C93.7490637,28.2818841 93.5355805,28.3754831 93.2734082,28.3754831 C92.5617978,28.3679952 91.8539326,28.3717391 91.1423221,28.3754831 C90.9925094,28.3754831 90.8464419,28.3642512 90.7041199,28.3305556 C90.4569288,28.2706522 90.3707865,28.1208937 90.4344569,27.8775362 C90.4569288,27.7951691 90.4868914,27.7165459 90.5168539,27.6379227 C90.9812734,26.5297101 91.4456929,25.4252415 91.917603,24.3207729 C91.9737828,24.1897343 91.9812734,24.0811594 91.9250936,23.9426329 C90.6479401,20.7939614 89.3745318,17.6452899 88.1011236,14.4928744 C88.0524345,14.3768116 88,14.2607488 87.988764,14.1334541 C87.9737828,13.9163043 88.0449438,13.8039855 88.2434457,13.7253623 C88.3782772,13.6729469 88.5205993,13.6692029 88.659176,13.6654589 C89.7303371,13.661715 90.7977528,13.6654589 91.8689139,13.661715 C92.1086142,13.661715 92.3071161,13.75157 92.4794007,13.9050725 C92.6779026,14.0810386 92.8052434,14.3056763 92.8913858,14.5565217 C93.3258427,15.7957729 93.7640449,17.0312802 94.2022472,18.2705314 C94.2247191,18.3341787 94.2284644,18.409058 94.3033708,18.4689614 C94.329588,18.409058 94.3520599,18.3566425 94.3745318,18.3004831 C94.8801498,17.0425121 95.3857678,15.788285 95.8913858,14.530314 C95.9925094,14.2794686 96.1310861,14.0548309 96.340824,13.8788647 C96.5093633,13.7365942 96.6966292,13.661715 96.9213483,13.6654589 C97.7228464,13.6692029 98.5243446,13.6654589 99.3258427,13.6692029 C99.4794007,13.6692029 99.6367041,13.6729469 99.7827715,13.7291063 C99.8838951,13.759058 99.9775281,13.8039855 99.9925094,13.9312802 Z" id="Shape" fill="#000000"></path>
                <path d="M69.4681648,13.2611111 C70.1161049,13.2873188 70.8314607,13.3022947 71.5355805,13.467029 C71.6367041,13.4894928 71.7378277,13.5306763 71.8389513,13.5568841 C71.988764,13.5943237 72.0486891,13.6991546 72.0749064,13.8451691 C72.1198502,14.1072464 72.093633,14.3655797 72.0674157,14.623913 C72.0262172,14.9945652 71.9475655,15.3577295 71.8164794,15.7096618 C71.8052434,15.7433575 71.7902622,15.7733092 71.7752809,15.8070048 C71.6029963,16.2113527 71.5168539,16.2637681 71.0898876,16.2076087 C70.6104869,16.1439614 70.1310861,16.0690821 69.6479401,16.0241546 C69.2958801,15.9904589 68.9475655,15.9754831 68.5955056,16.0428744 C68.4981273,16.0615942 68.4044944,16.0915459 68.3258427,16.1514493 C68.1498127,16.2824879 68.1385768,16.4884058 68.2996255,16.6381643 C68.4157303,16.7429952 68.5468165,16.8216184 68.6853933,16.8927536 C69.0449438,17.0687198 69.4082397,17.2371981 69.7677903,17.4131643 C70.4644195,17.7576087 71.1273408,18.1469807 71.6779026,18.7085749 C72.411985,19.4611111 72.741573,20.3596618 72.6779026,21.407971 C72.659176,21.7262077 72.6179775,22.0369565 72.5205993,22.3402174 C72.2771536,23.1189614 71.7827715,23.6880435 71.0636704,24.0624396 C70.5355805,24.3394928 69.9662921,24.4892512 69.3782772,24.5678744 C68.3895131,24.702657 67.4007491,24.6727053 66.4082397,24.5828502 C65.6104869,24.511715 64.8164794,24.3956522 64.0411985,24.1934783 C63.9138577,24.1597826 63.7865169,24.1111111 63.659176,24.0774155 C63.5318352,24.0437198 63.4756554,23.9650966 63.4531835,23.8415459 C63.3520599,23.3136473 63.3220974,22.7820048 63.3520599,22.2466184 C63.3632959,22.0631643 63.3707865,21.8797101 63.411985,21.703744 C63.4307116,21.6213768 63.4494382,21.5390097 63.4794007,21.4603865 C63.5617978,21.2394928 63.6404494,21.1983092 63.8651685,21.2582126 C64.1985019,21.3443237 64.5318352,21.4266908 64.8726592,21.4753623 C65.6966292,21.5876812 66.5243446,21.6363527 67.3558052,21.5390097 C67.494382,21.5202899 67.6329588,21.4828502 67.752809,21.4042271 C68,21.2469807 68.0187266,20.9811594 67.7940075,20.7902174 C67.659176,20.6741546 67.4981273,20.5992754 67.340824,20.5243961 C66.8389513,20.2922705 66.3183521,20.0938406 65.82397,19.8429952 C65.4419476,19.6483092 65.0749064,19.4274155 64.741573,19.1503623 C63.9662921,18.502657 63.576779,17.6752415 63.5730337,16.660628 C63.5692884,15.7620773 63.9213483,15.0394928 64.6067416,14.4741546 C65.1273408,14.047343 65.7303371,13.7852657 66.3670412,13.5980676 C67.1498127,13.369686 67.9475655,13.272343 68.7602996,13.2611111 C68.9775281,13.2611111 69.1872659,13.2611111 69.4681648,13.2611111 Z" id="Shape" fill="#000000"></path>
                <path d="M74.7902622,19.3600242 C74.7902622,18.4727053 74.7865169,17.5891304 74.7940075,16.7018116 C74.7940075,16.5932367 74.7640449,16.567029 74.6666667,16.5707729 C74.4981273,16.5782609 74.329588,16.5745169 74.1610487,16.5707729 C73.7602996,16.563285 73.576779,16.4022947 73.5580524,15.9979469 C73.5393258,15.6535024 73.5505618,15.309058 73.5505618,14.9646135 C73.5505618,14.7399758 73.5468165,14.5153382 73.5543071,14.2907005 C73.5730337,13.8938406 73.7640449,13.6991546 74.1610487,13.6841787 C74.4007491,13.6729469 74.6404494,13.6766908 74.8801498,13.6841787 C74.988764,13.6879227 75.0262172,13.6542271 75.0262172,13.5419082 C75.0187266,13.1637681 75.0374532,12.7818841 75.0187266,12.403744 C75,11.9919082 75.2059925,11.7448068 75.5543071,11.5838164 C75.7677903,11.4827295 76,11.4527778 76.2247191,11.4153382 C76.8951311,11.3030193 77.5692884,11.1907005 78.2434457,11.0821256 C78.3970037,11.0596618 78.5505618,11.0371981 78.7041199,11.0559179 C78.9250936,11.0858696 79.0187266,11.1719807 79.0486891,11.3853865 C79.0674157,11.523913 79.0749064,11.6661836 79.0749064,11.8047101 C79.0786517,12.3663043 79.0749064,12.9316425 79.0749064,13.4932367 C79.0749064,13.7103865 79.071161,13.6804348 79.2696629,13.6841787 C79.6067416,13.6841787 79.9438202,13.6841787 80.2846442,13.6841787 C80.6067416,13.6841787 80.7977528,13.8227053 80.8951311,14.1297101 C80.9438202,14.2794686 80.9588015,14.432971 80.9588015,14.5864734 C80.9588015,15.0657005 80.9588015,15.5411836 80.9588015,16.0204106 C80.9588015,16.0690821 80.9550562,16.1177536 80.9513109,16.1664251 C80.928839,16.5033816 80.7977528,16.6269324 80.4531835,16.6306763 C80.1161049,16.6344203 79.7790262,16.6306763 79.4382022,16.6306763 C79.3970037,16.6306763 79.3520599,16.6344203 79.3108614,16.6306763 C79.2247191,16.6231884 79.1985019,16.664372 79.2059925,16.7429952 C79.2097378,16.7766908 79.2059925,16.8141304 79.2059925,16.8478261 C79.2059925,18.1844203 79.2059925,19.5210145 79.2059925,20.8576087 C79.2059925,20.9137681 79.2022472,20.9699275 79.2097378,21.026087 C79.2359551,21.2507246 79.3782772,21.3742754 79.5805243,21.4379227 C79.7565543,21.4940821 79.9400749,21.4903382 80.1235955,21.4828502 C80.3033708,21.4753623 80.3220974,21.4865942 80.3857678,21.6513285 C80.4569288,21.8422705 80.5018727,22.0407005 80.5355805,22.2428744 C80.6329588,22.7820048 80.6966292,23.3286232 80.6966292,23.8789855 C80.6966292,23.927657 80.6966292,23.9763285 80.6928839,24.025 C80.6816479,24.2758454 80.6779026,24.2908213 80.4269663,24.3544686 C79.4382022,24.609058 78.4382022,24.7438406 77.4194757,24.609058 C76.6067416,24.5004831 75.8913858,24.1859903 75.3745318,23.5158213 C75.0449438,23.0890097 74.8614232,22.5985507 74.8127341,22.0594203 C74.7565543,21.4416667 74.7827715,20.823913 74.7790262,20.2024155 C74.7752809,19.9216184 74.7790262,19.6408213 74.7790262,19.3600242 C74.7827715,19.3600242 74.7865169,19.3600242 74.7902622,19.3600242 Z" id="Shape" fill="#000000"></path>
                <path d="M82.5430712,17.0163043 C82.5430712,14.7886473 82.5430712,12.5572464 82.5430712,10.3295894 C82.5430712,10.2434783 82.5393258,10.1611111 82.5468165,10.075 C82.5730337,9.79794686 82.7640449,9.61449275 83.0411985,9.58454106 C83.1048689,9.57705314 83.1685393,9.57705314 83.2322097,9.57705314 C84.1460674,9.57705314 85.0599251,9.57705314 85.9737828,9.57705314 C86.1573034,9.57705314 86.340824,9.57705314 86.5168539,9.62572464 C86.7677903,9.69311594 86.8726592,9.81292271 86.8988764,10.0637681 C86.906367,10.1461353 86.9101124,10.2322464 86.9101124,10.3146135 C86.9101124,14.7324879 86.9101124,19.1466184 86.9101124,23.5644928 C86.9101124,23.6768116 86.906367,23.7891304 86.8913858,23.9014493 C86.8576779,24.1710145 86.7153558,24.317029 86.4456929,24.3544686 C86.3333333,24.3694444 86.2209738,24.3769324 86.1086142,24.3769324 C85.1797753,24.3769324 84.2509363,24.3806763 83.3220974,24.3769324 C83.1835206,24.3769324 83.0411985,24.3694444 82.9026217,24.3544686 C82.6928839,24.3282609 82.6104869,24.2421498 82.5655431,24.0362319 C82.5318352,23.8752415 82.5430712,23.7142512 82.5430712,23.5532609 C82.5430712,21.3780193 82.5430712,19.1952899 82.5430712,17.0163043 Z" id="Shape" fill="#000000"></path>
                <path d="M42.0599251,19.5285024 C42.0599251,18.3903382 42.0599251,17.24843 42.0599251,16.1102657 C42.0599251,15.7995169 42.0786517,15.4925121 42.1610487,15.1892512 C42.3071161,14.6463768 42.6367041,14.2570048 43.1385768,14.0136473 C43.5692884,13.8039855 44.0299625,13.7216184 44.5018727,13.6841787 C44.9737828,13.6467391 45.4456929,13.661715 45.9138577,13.657971 C47.0749064,13.6467391 48.2359551,13.6504831 49.3970037,13.6467391 C49.4307116,13.6467391 49.4681648,13.6467391 49.5018727,13.6467391 C49.7940075,13.657971 49.8951311,13.759058 49.8951311,14.047343 C49.8951311,14.7849034 49.8951311,15.5262077 49.8951311,16.2637681 C49.8951311,16.6119565 49.7453184,16.757971 49.3895131,16.761715 C48.9400749,16.7654589 48.4906367,16.7766908 48.0411985,16.8440821 C47.7228464,16.8927536 47.4307116,17.0050725 47.1535581,17.1585749 C46.6966292,17.4131643 46.4681648,17.8100242 46.4382022,18.3229469 C46.4307116,18.4352657 46.4307116,18.5475845 46.4307116,18.6599034 C46.4307116,20.2585749 46.4307116,21.8535024 46.4307116,23.4521739 C46.4307116,23.6094203 46.423221,23.7629227 46.3895131,23.9126812 C46.329588,24.1822464 46.1610487,24.3357488 45.8801498,24.3694444 C45.8052434,24.3806763 45.7265918,24.3844203 45.6479401,24.3844203 C44.7902622,24.3844203 43.9325843,24.3844203 43.071161,24.3844203 C42.917603,24.3844203 42.7640449,24.3731884 42.6142322,24.3282609 C42.3146067,24.2346618 42.1460674,24.0324879 42.0861423,23.7292271 C42.0599251,23.5907005 42.0524345,23.4521739 42.0524345,23.3099034 C42.0599251,22.0444444 42.0599251,20.7864734 42.0599251,19.5285024 Z" id="Shape" fill="#000000"></path>
                <path d="M25.3670412,10.1461353 C25.17603,10.0225845 24.9662921,9.94396135 24.7490637,9.88405797 C24.4606742,9.80543478 24.1685393,9.79045894 23.8689139,9.79045894 C22.8501873,9.79045894 21.8277154,9.79045894 20.8089888,9.79045894 C20.5917603,9.79045894 20.6029963,9.80169082 20.6029963,9.5807971 C20.6029963,9.03043478 20.5955056,8.48381643 20.6104869,7.93345411 C20.6217228,7.4205314 20.6067416,6.9076087 20.5205993,6.39842995 C20.1985019,4.47777778 19.2734082,2.90531401 17.7640449,1.68478261 C16.5617978,0.711352657 15.1722846,0.183454106 13.6329588,0.0374396135 C13.5617978,0.0524154589 13.494382,0.0411835749 13.423221,0.0336956522 C13.3820225,0.0336956522 13.3370787,0.0336956522 13.2958801,0.0374396135 C13.1123596,0.0374396135 12.9250936,0.0374396135 12.741573,0.0374396135 C12.7003745,0.0374396135 12.6554307,0.0374396135 12.6142322,0.0374396135 C12.5580524,0.0374396135 12.5018727,0.0374396135 12.4456929,0.0411835749 C12.4044944,0.0411835749 12.3632959,0.0411835749 12.3183521,0.0449275362 C12.1460674,0.0711352657 11.9700375,0.0935990338 11.7977528,0.123550725 C9.83895131,0.449275362 8.24344569,1.40024155 7.01498127,2.95398551 C5.94007491,4.3205314 5.41947566,5.89299517 5.40449438,7.62644928 C5.39700375,8.26666667 5.40449438,8.90688406 5.40449438,9.54710145 C5.40449438,9.59577295 5.40449438,9.64444444 5.40449438,9.69311594 C5.40449438,9.76425121 5.3670412,9.7942029 5.29962547,9.79045894 C5.25093633,9.78671498 5.20224719,9.79045894 5.15355805,9.79045894 C4.14981273,9.79045894 3.1423221,9.79045894 2.13857678,9.79045894 C1.84269663,9.79045894 1.54681648,9.80917874 1.26217228,9.88780193 C0.696629213,10.0450483 0.247191011,10.3370773 0.0711610487,10.9361111 C0.0823970037,11.0109903 0.0599250936,11.0783816 0.0337078652,11.1495169 C0.0337078652,11.2318841 0.0337078652,11.3179952 0.0337078652,11.4041063 C0.0524344569,11.4864734 0.0898876404,11.5688406 0.0711610487,11.6586957 C0.205992509,12.2539855 0.34082397,12.8530193 0.471910112,13.4483092 C0.943820225,15.5524155 1.41573034,17.6565217 1.88389513,19.760628 C2.11235955,20.7752415 2.32958801,21.793599 2.56554307,22.8044686 C2.74157303,23.5570048 3.18726592,24.0849034 3.95505618,24.2983092 C4.18726592,24.3619565 4.42696629,24.3731884 4.66666667,24.3731884 C10.2247191,24.3731884 15.7865169,24.3731884 21.3445693,24.3731884 C21.4157303,24.3731884 21.4868914,24.3731884 21.5543071,24.3694444 C22.5505618,24.3282609 23.2434457,23.7516908 23.4644195,22.7745169 C23.6329588,22.0294686 23.8014981,21.2806763 23.9662921,20.5318841 C24.5243446,18.0309179 25.0861423,15.5262077 25.6441948,13.0252415 C25.7565543,12.5160628 25.8838951,12.010628 25.9700375,11.5014493 C26.0674157,10.9286232 25.8539326,10.4681159 25.3670412,10.1461353 Z M17.8988764,9.59951691 C17.8988764,9.79045894 17.8988764,9.79045894 17.7003745,9.79045894 C16.1385768,9.79045894 14.576779,9.79045894 13.0149813,9.79045894 C11.4606742,9.79045894 9.90636704,9.79045894 8.35205993,9.79045894 C8.12359551,9.79045894 8.11610487,9.82415459 8.11985019,9.56582126 C8.12734082,8.78707729 8.10861423,8.00458937 8.13108614,7.22584541 C8.20599251,4.93454106 9.89513109,2.98768116 12.1573034,2.58707729 C14.7977528,2.11908213 17.3108614,3.86002415 17.8164794,6.50326087 C17.8689139,6.78031401 17.8988764,7.05736715 17.8988764,7.34190821 C17.8988764,8.09444444 17.9026217,8.84698068 17.8988764,9.59951691 Z" id="Shape" fill="#5ED000"></path>
                <path d="M13.0149813,12.9016908 C13.9213483,12.9016908 14.8314607,12.9016908 15.7378277,12.9016908 C15.835206,12.9016908 15.9363296,12.9054348 16.0337079,12.9166667 C16.2134831,12.9391304 16.2846442,13.0140097 16.2883895,13.1899758 C16.2921348,13.6242754 16.2921348,14.0623188 16.2883895,14.4966184 C16.2883895,14.6838164 16.2397004,14.728744 16.0486891,14.7399758 C15.9588015,14.7474638 15.8651685,14.7437198 15.7752809,14.7437198 C15.3595506,14.7437198 14.9438202,14.7437198 14.5280899,14.7437198 C14.2546816,14.7437198 14.2247191,14.7774155 14.2247191,15.0432367 C14.2247191,16.6830918 14.2247191,18.3229469 14.2247191,19.959058 C14.2247191,20.0002415 14.2247191,20.0451691 14.2247191,20.0863527 C14.2247191,20.4682367 14.1498127,20.5543478 13.7752809,20.5580918 C13.1985019,20.5655797 12.6217228,20.5580918 12.0449438,20.5580918 C11.988764,20.5580918 11.9325843,20.5543478 11.8764045,20.5468599 C11.7340824,20.5169082 11.670412,20.4532609 11.6516854,20.3072464 C11.6404494,20.2248792 11.6441948,20.1387681 11.6441948,20.052657 C11.6441948,18.3978261 11.6441948,16.7467391 11.6441948,15.0919082 C11.6441948,15.0357488 11.6441948,14.9795894 11.6441948,14.92343 C11.6479401,14.8073671 11.5805243,14.7586957 11.4756554,14.7474638 C11.4194757,14.7399758 11.3632959,14.7437198 11.3071161,14.7437198 C10.906367,14.7437198 10.505618,14.7437198 10.1048689,14.7437198 C10.0411985,14.7437198 9.97752809,14.7437198 9.91385768,14.7362319 C9.75280899,14.721256 9.70411985,14.6725845 9.70037453,14.5115942 C9.69662921,14.335628 9.70037453,14.1596618 9.70037453,13.9836957 C9.70037453,13.7216184 9.69662921,13.463285 9.70037453,13.2012077 C9.70411985,13.0065217 9.76779026,12.9353865 9.9588015,12.9091787 C10.0561798,12.8979469 10.1535581,12.8942029 10.2546816,12.8942029 C11.1722846,12.9016908 12.093633,12.9016908 13.0149813,12.9016908 Z" id="Shape" fill="#FFFFFF"></path>
                <ellipse id="Oval" fill="#5ED000" cx="7.90262172" cy="27.9673913" rx="3.01123596" ry="3.01014493"></ellipse>
                <ellipse id="Oval" fill="#5ED000" cx="18.1161049" cy="27.9673913" rx="3.01123596" ry="3.01014493"></ellipse>
            </g>
        </g>
    </g>
</svg>