<?xml version="1.0" encoding="UTF-8" standalone="no"?>
<svg width="100px" height="24px" viewBox="0 0 100 24" version="1.1" xmlns="http://www.w3.org/2000/svg" xmlns:xlink="http://www.w3.org/1999/xlink">
    <!-- Generator: Sketch 50.2 (55047) - http://www.bohemiancoding.com/sketch -->
    <title>trustpay</title>
    <desc>Created with Sketch.</desc>
    <defs></defs>
    <g id="Page-1" stroke="none" stroke-width="1" fill="none" fill-rule="evenodd">
        <g id="withdraw-" transform="translate(-757.000000, -2892.000000)" fill-rule="nonzero">
            <g id="trustpay" transform="translate(757.000000, 2892.000000)">
                <polygon id="Shape" fill="#00A3E2" points="14.9473684 3.8 9.57894737 3.8 6.94736842 18 3.36842105 18 6 3.8 0.736842105 3.8 1.26315789 1 15.4736842 1"></polygon>
                <path d="M22.6315789,8.5 C22.1052632,8.4 21.7894737,8.4 21.4736842,8.4 C20.2105263,8.4 19.2631579,8.8 18.5263158,9.7 L16.9473684,18 L13.4736842,18 L15.7894737,5.3 L19.0526316,5.3 L18.7368421,6.8 C19.5789474,5.6 20.6315789,5 21.8947368,5 C22.2105263,5 22.6315789,5.1 23.0526316,5.2 L22.6315789,8.5 Z" id="Shape" fill="#00A3E2"></path>
                <path d="M30.8421053,16.7 C29.8947368,17.8 28.6315789,18.3 27.1578947,18.2 C25.8947368,18.2 24.9473684,17.7 24.2105263,16.9 C23.4736842,16.1 23.2631579,14.9 23.4736842,13.5 L24.9473684,5.3 L28.4210526,5.3 L26.9473684,13.5 C26.9473684,13.8 26.9473684,14 26.9473684,14.2 C27.0526316,15 27.4736842,15.4 28.3157895,15.4 C29.3684211,15.4 30.3157895,15 30.9473684,14.2 L32.6315789,5.2 L36.1052632,5.2 L33.7894737,17.9 L30.5263158,17.9 L30.8421053,16.7 Z" id="Shape" fill="#00A3E2"></path>
                <path d="M44.1052632,14.4 C44.2105263,13.8 43.7894737,13.3 42.7368421,13 L41.5789474,12.7 C38.9473684,12 37.5789474,10.8 37.6842105,9 C37.6842105,7.8 38.3157895,6.8 39.3684211,6.1 C40.4210526,5.4 41.6842105,5 43.2631579,5 C44.7368421,5 46,5.4 46.9473684,6.1 C47.8947368,6.8 48.3157895,7.8 48.3157895,9.1 L44.8421053,9.1 C44.8421053,8 44.3157895,7.5 43.1578947,7.4 C42.6315789,7.4 42.1052632,7.5 41.7894737,7.8 C41.4736842,8.1 41.1578947,8.4 41.0526316,8.8 C40.9473684,9.4 41.4736842,9.9 42.5263158,10.1 L43.0526316,10.2 C44.2105263,10.5 45.0526316,10.8 45.6842105,11.1 C46.3157895,11.4 46.7368421,11.8 47.0526316,12.3 C47.3684211,12.8 47.5789474,13.4 47.4736842,14.1 C47.4736842,14.9 47.1578947,15.6 46.6315789,16.2 C46.1052632,16.8 45.3684211,17.3 44.5263158,17.6 C43.6842105,17.9 42.6315789,18.1 41.6842105,18.1 C40.2105263,18.1 38.9473684,17.7 38,16.9 C37.0526316,16.1 36.5263158,15.1 36.5263158,13.8 L39.7894737,13.8 C39.7894737,15 40.5263158,15.6 41.7894737,15.6 C42.4210526,15.6 42.9473684,15.5 43.3684211,15.2 C43.7894737,14.9 44,14.8 44.1052632,14.4 Z" id="Shape" fill="#00A3E2"></path>
                <path d="M56.1052632,2.2 L55.4736842,5.3 L57.6842105,5.3 L57.2631579,7.8 L55.0526316,7.8 L53.8947368,14.2 C53.8947368,14.6 53.8947368,14.9 54,15.1 C54.1052632,15.3 54.4210526,15.4 54.8421053,15.4 C54.9473684,15.4 55.3684211,15.4 55.8947368,15.3 L55.6842105,17.9 C55.0526316,18.1 54.4210526,18.2 53.6842105,18.2 C52.5263158,18.2 51.6842105,17.8 51.1578947,17.2 C50.6315789,16.6 50.3157895,15.6 50.4210526,14.5 L51.5789474,7.8 L49.6842105,7.8 L50.1052632,5.3 L52,5.3 L52.5263158,2.2 L56.1052632,2.2 Z" id="Shape" fill="#00A3E2"></path>
                <path d="M62.4210526,12 L61.2631579,18 L57.6842105,18 L60.8421053,0.9 L67.1578947,0.9 C69.0526316,0.9 70.6315789,1.4 71.6842105,2.4 C72.7368421,3.4 73.2631579,4.8 73.1578947,6.4 C73.0526316,8.1 72.3157895,9.4 70.9473684,10.4 C69.5789474,11.4 67.8947368,11.9 65.7894737,11.9 L62.4210526,12 Z M62.9473684,9.1 L66,9.1 C66.9473684,9.1 67.7894737,8.9 68.4210526,8.4 C69.0526316,7.9 69.4736842,7.3 69.5789474,6.5 C69.6842105,5.7 69.5789474,5 69.1578947,4.6 C68.7368421,4.2 68.2105263,3.9 67.3684211,3.8 L64,3.8 L62.9473684,9.1 Z" id="Shape" fill="#151717"></path>
                <path d="M81.0526316,18 C80.9473684,17.7 80.9473684,17.3 80.9473684,16.9 C79.8947368,17.9 78.8421053,18.3 77.5789474,18.3 C76.4210526,18.3 75.4736842,17.9 74.6315789,17.2 C73.7894737,16.5 73.4736842,15.6 73.5789474,14.6 C73.6842105,13.2 74.2105263,12.2 75.3684211,11.4 C76.5263158,10.6 78.1052632,10.3 80,10.3 L81.5789474,10.3 L81.7894737,9.5 C81.7894737,9.2 81.8947368,9 81.7894737,8.8 C81.7894737,8.4 81.5789474,8.1 81.3684211,7.9 C81.1578947,7.7 80.7368421,7.6 80.4210526,7.6 C79.8947368,7.6 79.3684211,7.7 79.0526316,8 C78.7368421,8.3 78.4210526,8.7 78.3157895,9.2 L74.8421053,9.2 C74.9473684,8 75.4736842,7 76.6315789,6.3 C77.7894737,5.6 79.1578947,5.2 80.7368421,5.2 C82.2105263,5.2 83.4736842,5.7 84.3157895,6.5 C85.1578947,7.3 85.5789474,8.4 85.3684211,9.7 L84.3157895,15.8 L84.2105263,16.6 C84.2105263,17.2 84.3157895,17.6 84.4210526,18 L84.4210526,18.2 L81.0526316,18.2 L81.0526316,18 Z M78.3157895,15.7 C79.3684211,15.7 80.2105263,15.3 80.9473684,14.5 L81.3684211,12.3 L80.2105263,12.3 C78.9473684,12.3 78,12.7 77.4736842,13.4 C77.2631579,13.7 77.1578947,14 77.0526316,14.3 C76.9473684,14.7 77.0526316,15.1 77.3684211,15.3 C77.6842105,15.5 77.8947368,15.7 78.3157895,15.7 Z" id="Shape" fill="#151717"></path>
                <path d="M92,13.2 L95.7894737,5.3 L99.6842105,5.3 L91.8947368,19.9 C91.3684211,21 90.6315789,21.8 89.8947368,22.4 C89.1578947,23 88.3157895,23.2 87.2631579,23.2 C86.8421053,23.2 86.3157895,23.1 85.5789474,23 L85.7894737,20.4 L86.3157895,20.4 C87.4736842,20.4 88.3157895,20 88.8421053,19.2 L89.5789474,17.9 L87.3684211,5.4 L90.9473684,5.4 L92,13.2 Z" id="Shape" fill="#151717"></path>
            </g>
        </g>
    </g>
</svg>