<?xml version="1.0" encoding="UTF-8"?>
<svg width="107px" height="27px" viewBox="0 0 107 27" version="1.1" xmlns="http://www.w3.org/2000/svg" xmlns:xlink="http://www.w3.org/1999/xlink">
    <!-- Generator: Sketch 51.3 (57544) - http://www.bohemiancoding.com/sketch -->
    <title>Group 40</title>
    <desc>Created with Sketch.</desc>
    <defs>
        <path d="M13.234982,12.6447884 C15.7408698,12.8127067 19.4587456,14.6862679 19.4757658,14.659175 C19.8660313,14.0961059 20.4318031,12.2667142 20.4318031,10.3045213 C20.4318031,4.61349132 15.8579882,0 10.2159015,0 C4.57381491,0 -5.68434189e-14,4.61349132 -5.68434189e-14,10.3045213 C-5.68434189e-14,11.8203876 0.479384773,13.9069628 0.945255883,14.5405445 C0.940593068,14.5435985 3.96417732,13.1474186 7.24150257,12.4974675 C7.23605447,12.4973169 7.23605447,10.7747265 7.24150257,7.32969621 L13.234982,7.329733 C13.2303362,10.8800022 13.2303362,12.6516874 13.234982,12.6447884 Z" id="path-1"></path>
        <radialGradient cx="50%" cy="50%" fx="50%" fy="50%" r="50.4337343%" gradientTransform="translate(0.500000,0.500000),scale(1.000000,0.991400),rotate(90.000000),translate(-0.500000,-0.500000)" id="radialGradient-3">
            <stop stop-color="#FFFFFF" offset="0%"></stop>
            <stop stop-color="#3F88D2" offset="100%"></stop>
        </radialGradient>
    </defs>
    <g id="Page-1" stroke="none" stroke-width="1" fill="none" fill-rule="evenodd">
        <g id="m7-withdraw-balance-0-1366-copy" transform="translate(-754.000000, -1491.000000)">
            <g id="Group-40" transform="translate(754.000000, 1491.000000)">
                <g id="Group-23" transform="translate(86.497006, 0.000000)">
                    <g id="#2b81ceff">
                        <path d="M6.55312708,0.725984043 C9.173666,-0.298005319 12.2156554,-0.183111702 14.7386627,1.07353723 C16.9925682,2.17364362 18.8122089,4.14406915 19.7412508,6.48933511 C20.7970126,9.10890957 20.7001929,12.1622074 19.4970659,14.7142819 C19.3553959,14.6446277 19.213014,14.5756915 19.0720559,14.5081915 C19.055682,14.2539894 19.2699667,14.0830851 19.3361743,13.854734 C19.4657418,13.2594415 19.6793147,12.681383 19.6729075,12.0631117 C19.7056554,12.1600532 19.7384032,12.2562766 19.7739987,12.3539362 C19.795356,11.8218351 19.9014305,11.3005053 19.9662142,10.7734309 C20.0345576,10.2470745 19.8152894,9.74226064 19.8295276,9.21734043 C19.8409182,8.58470745 19.5362209,8.01382979 19.3959747,7.41135638 C19.2543047,6.78805851 18.9268263,6.23441489 18.6299601,5.67718085 C18.449847,5.36553191 18.2932269,5.03736702 18.0703992,4.75300532 C17.6482369,4.24675532 17.2609581,3.70531915 16.7569261,3.27446809 C16.2892016,2.88167553 15.8357152,2.46303191 15.3081903,2.15138298 C14.8938589,1.87635638 14.4069128,1.74279255 13.9947172,1.46489362 C13.6295077,1.22074468 13.1767332,1.21212766 12.7766401,1.05917553 C12.3623087,0.903351064 11.9109581,0.933510638 11.4909315,0.809281915 C11.2481703,0.73962766 11.0039854,0.663510638 10.7505456,0.662074468 C10.109827,0.654175532 9.46697272,0.652021277 8.83194943,0.74537234 C8.92449767,0.775531915 9.01775782,0.804973404 9.11244178,0.833696809 C8.37917498,0.848776596 7.64448436,0.966542553 6.95393214,1.21859043 C6.32389222,1.49505319 5.66964737,1.72914894 5.10154358,2.12840426 C4.47007984,2.47523936 3.92333333,2.94773936 3.36377246,3.39726064 C3.03202262,3.67946809 2.72732535,3.99327128 2.44042582,4.32071809 C1.94636061,4.9081117 1.70787092,5.65204787 1.34978044,6.31986702 C0.940432468,7.01640957 0.778117099,7.82281915 0.611530273,8.60409574 C0.576646707,8.51218085 0.54176314,8.42026596 0.509015303,8.32835106 C0.588037259,9.21518617 0.450638723,10.1005851 0.420026613,10.9867021 C0.406500333,11.7248936 0.543898869,12.4559043 0.756759814,13.1603457 C0.874936793,13.5394947 0.973892216,13.9286968 1.15542914,14.2834309 C1.21736527,14.4205851 1.39605456,14.3961702 1.51850299,14.427766 C1.35689953,14.5168085 1.19529607,14.605133 1.03511643,14.6941755 C-0.256999335,11.9281117 -0.272661344,8.56962766 1.06430472,5.81648936 C2.16349301,3.49707447 4.17392548,1.64226064 6.55312708,0.725984043 Z" id="Shape" fill="#2B81CE" fill-rule="nonzero"></path>
                        <g id="Oval">
                            <mask id="mask-2" fill="white">
                                <use xlink:href="#path-1"></use>
                            </mask>
                            <use id="Mask" fill="#D0D0D0" fill-rule="nonzero" xlink:href="#path-1"></use>
                            <ellipse fill="url(#radialGradient-3)" fill-rule="nonzero" mask="url(#mask-2)" cx="10.2159015" cy="10.3045213" rx="10.2159015" ry="10.3045213"></ellipse>
                        </g>
                    </g>
                    <path d="M1.72210912,15.9529787 C4.58825682,14.4256117 7.8637525,13.7046543 11.0993812,13.8497074 C13.7768729,13.9868617 16.4201929,14.7279255 18.7944112,15.980984 C17.4019162,18.1129787 15.2113706,19.7078457 12.7488756,20.3160638 C9.93256154,21.0406117 6.81938124,20.4747606 4.44373919,18.782234 C3.36875582,18.0253723 2.44042582,17.0588298 1.72210912,15.9529787 Z" id="Shape" fill="#BC010C" fill-rule="nonzero"></path>
                </g>
                <g id="#bc010cff" transform="translate(0.000000, 13.428191)" fill="#BC010C" fill-rule="nonzero">
                    <path d="M0.0185096474,0.0215425532 C1.15329341,0.0222606383 2.28736527,0.0150797872 3.42143713,0.0244148936 C4.47363939,3.21989362 5.53580838,6.41321809 6.59797738,9.60510638 C7.75625416,6.41034574 8.92165003,3.21773936 10.0799268,0.0222606383 C10.9890353,0.0193882979 11.8988556,0.0172340426 12.808676,0.0244148936 C11.0531071,4.4499734 9.29753826,8.87553191 7.54624085,13.3025266 C6.6592016,13.2996543 5.77216234,13.2982181 4.88512309,13.3032447 C3.25698603,8.87840426 1.6459348,4.44710106 0.0185096474,0.0215425532 Z" id="Shape"></path>
                    <path d="M26.2459681,1.48930851 C27.1550765,1.41965426 28.064185,1.35789894 28.9732934,1.2875266 C28.976853,2.09968085 28.9732934,2.91183511 28.9754291,3.72470745 C29.7094079,3.72398936 30.4433866,3.72327128 31.1773653,3.72470745 C31.1901796,4.2474734 31.1809248,4.77023936 31.1787891,5.29300532 C30.4440985,5.29300532 29.7101198,5.29444149 28.9761411,5.2937234 C28.9732934,6.52021277 28.9754291,7.74742021 28.9747172,8.97462766 C28.9782768,9.66398936 28.9455289,10.3705851 29.1434398,11.0391223 C29.2352761,11.3615426 29.4773253,11.6753457 29.8268729,11.7184309 C30.3116833,11.8089096 30.7765602,11.6028191 31.1916035,11.37375 C31.3567665,11.871383 31.5418629,12.3625532 31.7169927,12.8565957 C30.6512641,13.3592553 29.4367465,13.6838298 28.2635196,13.4281915 C27.4298736,13.255133 26.6916234,12.6167553 26.4538456,11.7844947 C26.2708849,11.154016 26.2416966,10.4905053 26.24668,9.83704787 C26.2452562,8.32260638 26.2502395,6.80744681 26.2438323,5.29300532 C25.813839,5.29444149 25.3838456,5.29444149 24.9538523,5.29300532 C24.9524285,4.76952128 24.9502927,4.24675532 24.9545642,3.72398936 C25.3852695,3.72327128 25.8159747,3.72542553 26.24668,3.72183511 C26.24668,2.97789894 26.2481038,2.23324468 26.2459681,1.48930851 Z" id="Shape"></path>
                    <path d="M19.6487026,3.59114362 C20.6973453,3.42095745 21.8385363,3.48558511 22.7789687,4.02558511 C23.5051164,4.43920213 24.0176913,5.15513298 24.303167,5.93425532 C24.6043047,6.71912234 24.7296008,7.56287234 24.7473985,8.40087766 C24.7616367,8.55885638 24.7061078,8.7075 24.6498669,8.85111702 C24.5032136,8.88845745 24.3551364,8.92723404 24.2034997,8.92292553 C22.3781637,8.91861702 20.5528277,8.92364362 18.7274917,8.92077128 C18.7673586,9.56202128 18.9239787,10.2255319 19.3368862,10.7310638 C19.8010512,11.3170213 20.5464205,11.6380053 21.2846707,11.6308245 C22.1930672,11.668883 23.0665802,11.3170213 23.8268995,10.842367 C24.1031204,11.357234 24.3786294,11.8735372 24.6534265,12.3898404 C23.5051164,13.0662766 22.2001863,13.5222606 20.8596607,13.5186702 C19.7604724,13.525133 18.6370792,13.2142021 17.7657019,12.5205319 C16.8558816,11.8089096 16.1959415,10.7727128 15.970978,9.63023936 C15.7303526,8.42744681 15.8079508,7.12340426 16.3639521,6.01683511 C16.9975516,4.74582447 18.252648,3.81159574 19.6487026,3.59114362 Z M19.3333267,5.63912234 C18.9246906,6.11664894 18.8278709,6.7643617 18.7609514,7.36970745 C19.9106853,7.37904255 21.0604192,7.37114362 22.2094411,7.37329787 C22.2108649,6.83617021 22.1439454,6.27462766 21.8684365,5.80428191 C21.6698137,5.46175532 21.3145709,5.22406915 20.9272921,5.16375 C20.3663074,5.07255319 19.7206055,5.18816489 19.3333267,5.63912234 Z" id="Shape"></path>
                    <path d="M39.4575848,4.81404255 C40.1467132,4.14263298 41.0280572,3.63422872 41.9934065,3.53513298 C42.7387758,3.45973404 43.5211643,3.5387234 44.1996141,3.87694149 C44.9585096,4.26111702 45.4938656,5.03234043 45.6390951,5.87178191 C45.7907319,6.70404255 45.7871723,7.5549734 45.7850366,8.3987234 C45.7850366,10.0330851 45.7850366,11.6674468 45.7850366,13.3025266 C44.8745043,13.2996543 43.9639721,13.2989362 43.0541517,13.3025266 C43.0534398,11.4031915 43.0569993,9.50457447 43.052016,7.60523936 C43.0214039,7.01569149 42.9950632,6.34356383 42.5593746,5.89619681 C42.1607053,5.48329787 41.5399202,5.44021277 41.0052761,5.51345745 C40.5396873,5.57090426 40.0869128,5.8100266 39.8299135,6.21430851 C39.4839255,6.72773936 39.471823,7.37329787 39.4568729,7.97218085 C39.456161,9.74944149 39.4554491,11.5267021 39.4568729,13.3039628 C38.5506121,13.2975 37.6443513,13.3003723 36.7380905,13.3025266 C36.7295476,10.1099202 36.7288357,6.91659574 36.7380905,3.72327128 C37.6443513,3.72470745 38.5506121,3.72398936 39.4568729,3.72398936 C39.4554491,4.08734043 39.456161,4.45069149 39.4575848,4.81404255 Z" id="Shape"></path>
                    <path d="M12.2619295,3.72255319 C13.170326,3.72542553 14.0787226,3.72398936 14.9871191,3.72327128 C14.9864072,6.91731383 14.9871191,10.1106383 14.9864072,13.3039628 C14.0780106,13.2989362 13.1696141,13.2975 12.2619295,13.3046809 C12.2562342,10.1106383 12.2555223,6.91659574 12.2619295,3.72255319 Z" id="Shape"></path>
                    <path d="M32.485143,3.72398936 C33.3949634,3.72255319 34.3040719,3.72542553 35.2138922,3.72327128 C35.2117565,6.91587766 35.2117565,10.108484 35.2146041,13.3010904 C34.3047838,13.3010904 33.3949634,13.2982181 32.485143,13.3025266 C32.4822954,10.1099202 32.4830073,6.91659574 32.485143,3.72398936 Z" id="Shape"></path>
                </g>
                <g id="#027ad1ff" transform="translate(47.270792, 13.428191)" fill="#027AD1" fill-rule="nonzero">
                    <path d="M0.0270525615,0.0215425532 C1.06003327,0.020106383 2.09372588,0.0215425532 3.1274185,0.0208244681 C4.1753493,0.0229787234 5.23467066,-0.0122074468 6.26765136,0.201781915 C6.91976048,0.321702128 7.55834331,0.61037234 8.00969395,1.11231383 C8.48453759,1.61784574 8.69312708,2.32946809 8.67888889,3.01595745 C8.68173653,3.60406915 8.53935462,4.20367021 8.2083167,4.69340426 C7.77832335,5.35117021 7.08777112,5.78848404 6.36874251,6.06135638 C6.91477711,6.15398936 7.48003327,6.24662234 7.95701264,6.55180851 C8.67176979,6.95680851 9.20499002,7.66986702 9.37513639,8.48130319 C9.56948769,9.40260638 9.48121091,10.4151064 8.99853626,11.2358777 C8.50589488,12.0430053 7.6921823,12.6153191 6.81155023,12.9190691 C5.94729208,13.2012766 5.03320027,13.2881649 4.12907518,13.2996543 C2.76149701,13.2982181 1.39320692,13.3018085 0.026340652,13.2982181 C0.0284763806,8.87265957 0.0270525615,4.44710106 0.0270525615,0.0215425532 Z M2.86899534,5.43159574 C3.31607452,5.43231383 3.76813706,5.44452128 4.20738523,5.34614362 C4.78403194,5.23268617 5.34430472,4.92606383 5.67961411,4.42771277 C5.97220892,3.99829787 6.04055223,3.43962766 5.91596806,2.93912234 C5.79636727,2.46734043 5.38203593,2.10542553 4.91431138,2.01135638 C4.24298071,1.8756383 3.5545642,1.9287766 2.87540253,1.91800532 C2.8654358,3.08920213 2.87611444,4.26039894 2.86899534,5.43159574 Z M2.87113107,7.33164894 C2.8732668,8.69816489 2.8661477,10.0646809 2.87540253,11.4304787 C3.77596806,11.4125266 4.74843646,11.5223936 5.56998004,11.0707181 C6.26907518,10.6772074 6.58872255,9.81981383 6.47552894,9.04212766 C6.43779774,8.42457447 6.05550233,7.84507979 5.48668663,7.60021277 C4.66300732,7.2418883 3.74393214,7.35390957 2.87113107,7.33164894 Z" id="Shape"></path>
                    <path d="M30.4889488,0.0222606383 C31.3987691,0.0208244681 32.3093014,0.0186702128 33.2191218,0.0236968085 C33.2120027,2.22534574 33.2333599,4.42699468 33.2269528,6.62864362 C34.1481637,5.64343085 35.0878842,4.67617021 36.0354358,3.7175266 C37.072688,3.71896277 38.1099401,3.71321809 39.1471923,3.72039894 C37.8408383,4.99930851 36.5366201,6.28109043 35.238809,7.56933511 C36.66334,9.47728723 38.0850233,11.3873936 39.4995875,13.3032447 C38.409654,13.2975 37.3197206,13.2989362 36.2297871,13.3018085 C35.2380971,11.6566755 34.2456953,10.0122606 33.2276647,8.38292553 C33.2212575,10.02375 33.232648,11.6645745 33.2219694,13.3046809 C32.3142848,13.2960638 31.407312,13.2975 30.4996274,13.3032447 C30.4811178,8.87625 30.4967798,4.44925532 30.4889488,0.0222606383 Z" id="Shape"></path>
                    <path d="M10.7185096,4.88944149 C11.816986,3.97388298 13.2386693,3.4712234 14.6639122,3.50856383 C15.7602528,3.51430851 16.9576846,3.81590426 17.678849,4.70848404 C18.2312908,5.3468617 18.3985895,6.21718085 18.4042848,7.04154255 C18.4092681,8.18976064 18.3957418,9.33941489 18.4064205,10.487633 C18.4242182,11.4383777 18.4868663,12.4128191 18.8463806,13.3032447 C17.8724884,13.2953457 16.8985961,13.3018085 15.9247039,13.2996543 C15.8663273,12.9341489 15.7986959,12.5700798 15.7296407,12.2067287 C15.0341051,12.9233777 14.1171657,13.4777394 13.1019827,13.5129255 C12.2277578,13.5883245 11.3335995,13.2271277 10.7662076,12.5506915 C9.86065868,11.5331649 9.8841517,9.86074468 10.7363074,8.81808511 C11.3869927,8.02029255 12.344511,7.56287234 13.2956221,7.23757979 C14.0723154,6.97260638 14.8810446,6.82611702 15.6783832,6.63869681 C15.5516633,6.17265957 15.3188689,5.69800532 14.8902994,5.44667553 C14.4062009,5.16087766 13.8060612,5.19319149 13.2849434,5.34973404 C12.6833799,5.52710106 12.1629741,5.89619681 11.6881304,6.29832447 C11.3663473,5.82797872 11.038157,5.36194149 10.7185096,4.88944149 Z M13.374644,9.1749734 C12.9560413,9.46005319 12.6698536,9.96486702 12.7325017,10.4833245 C12.7638257,10.9766489 13.1197804,11.4563298 13.6166933,11.5425 C14.3200599,11.6545213 15.0326813,11.2365957 15.3879242,10.6341223 C15.7574052,9.93039894 15.7737791,9.11393617 15.7538456,8.33696809 C14.9344378,8.51577128 14.0765868,8.68452128 13.374644,9.1749734 Z" id="Shape"></path>
                    <path d="M22.6458417,4.8068617 C23.3442249,4.14047872 24.2234331,3.62632979 25.1951896,3.53154255 C26.0067665,3.45973404 26.8724484,3.55164894 27.5800865,3.98896277 C28.2649434,4.40617021 28.7162941,5.15441489 28.8423021,5.94430851 C28.9974983,6.87422872 28.9675981,7.82138298 28.9747172,8.7606383 C28.9740053,10.2736436 28.9761411,11.7866489 28.9732934,13.2996543 C28.0634731,13.2996543 27.1529408,13.2996543 26.2431204,13.3003723 C26.2509514,12.1456915 26.2445442,10.9910106 26.24668,9.83632979 C26.2381371,9.00119681 26.2666134,8.16462766 26.2260346,7.33021277 C26.1890153,6.81534574 26.1121291,6.24015957 25.7170193,5.86962766 C25.3219095,5.48401596 24.7260413,5.44093085 24.208483,5.51273936 C23.7250965,5.56587766 23.2502528,5.82367021 22.9953892,6.25021277 C22.6835729,6.73707447 22.6615037,7.33667553 22.6479774,7.89821809 C22.6479774,9.69917553 22.6444178,11.500133 22.6494012,13.3010904 C21.7374451,13.2982181 20.825489,13.3003723 19.9135329,13.2996543 C19.9192282,10.108484 19.9242116,6.91731383 19.9106853,3.72614362 C20.825489,3.72542553 21.7402927,3.72614362 22.6550965,3.72542553 C22.6415702,4.08590426 22.6486893,4.44638298 22.6458417,4.8068617 Z" id="Shape"></path>
                </g>
            </g>
        </g>
    </g>
</svg>