<?xml version="1.0" encoding="UTF-8"?>
<svg width="99px" height="26px" viewBox="0 0 99 26" version="1.1" xmlns="http://www.w3.org/2000/svg" xmlns:xlink="http://www.w3.org/1999/xlink">
    <!-- Generator: Sketch 49.2 (51160) - http://www.bohemiancoding.com/sketch -->
    <title>WebMoney_wmr</title>
    <desc>Created with Sketch.</desc>
    <defs></defs>
    <g id="Page-1" stroke="none" stroke-width="1" fill="none" fill-rule="evenodd">
        <g id="m7-withdraw-balance-0-1366" transform="translate(-193.000000, -1587.000000)" fill="#0072B7">
            <g id="WebMoney_wmr" transform="translate(193.000000, 1587.000000)">
                <g id="Group-6" transform="translate(72.000000, 0.000000)">
                    <path d="M13.6515873,0.0629530309 C15.6757094,0.0629530309 17.5926552,0.534320353 19.299931,1.37117945 C19.5681317,1.49838619 19.835552,1.63833962 20.1037527,1.7928607 L18.91701,2.85499799 L17.1340345,1.01141068 L14.1247756,3.695499 L12.3373778,1.74473545 L6.73169651,6.79762666 L10.3254821,10.7582047 L8.91320112,12.0003565 L12.4528784,15.9669177 L11.0489217,17.2062079 L16.1070157,22.836342 L19.109511,20.0721317 L21.7054131,23.0343059 C21.1890422,23.4356965 20.6266271,23.8134147 20.0069819,24.1625179 C18.129837,25.2329795 15.9602987,25.8458611 13.6515873,25.8458611 C6.55142192,25.8458611 0.760523485,20.0541823 0.760523485,12.9547973 C0.760523485,5.85385147 6.55142192,0.0629530309 13.6515873,0.0629530309" id="Fill-2"></path>
                    <polyline id="Fill-3" points="11.3022947 12.1397896 14.3677431 9.3792212 17.1280514 12.44545 14.0628631 15.2049779 11.3022947 12.1397896"></polyline>
                    <polyline id="Fill-4" points="13.4819783 17.4366889 16.5476869 14.6769008 19.3082553 17.7423493 16.2428069 20.5029177 13.4819783 17.4366889"></polyline>
                    <polyline id="Fill-5" points="9.10882377 6.90480289 12.1742722 4.14501485 14.9338001 7.21046327 11.8683517 9.9702513 9.10882377 6.90480289"></polyline>
                    <polyline id="Fill-6" points="14.7340153 5.41916339 17.0331016 3.34951746 19.1030076 5.64860377 16.8039213 7.71903011 14.7340153 5.41916339"></polyline>
                    <polyline id="Fill-7" points="18.8189386 14.9008784 21.1188053 12.830452 23.1887114 15.1300586 20.8896251 17.1999647 18.8189386 14.9008784"></polyline>
                    <polyline id="Fill-8" points="20.8417599 19.544835 23.1400658 17.4741485 25.2104922 19.7732348 22.9114059 21.8431409 20.8417599 19.544835"></polyline>
                    <polyline id="Fill-9" points="21.7675857 8.90135046 23.3003099 7.52132637 24.6800739 9.05405058 23.1481301 10.4338145 21.7675857 8.90135046"></polyline>
                    <polyline id="Fill-10" points="19.8092782 4.34714091 21.3420024 2.96737696 22.7220265 4.50010116 21.1890422 5.87986511 19.8092782 4.34714091"></polyline>
                    <polyline id="Fill-11" points="23.7271939 13.4552999 25.2599181 12.0752758 26.6399422 13.6077399 25.107218 14.987764 23.7271939 13.4552999"></polyline>
                    <polyline id="Fill-12" points="16.8533473 10.0428294 19.1521734 7.97240305 21.2220795 10.2712292 18.9237736 12.3411353 16.8533473 10.0428294"></polyline>
                </g>
                <path d="M27.8046875,19.4384766 L27.6875,19.8413086 C27.6093746,20.1098646 27.5084642,20.4549133 27.3847656,20.8764648 C27.2610671,21.2980164 27.1308601,21.7456031 26.9941406,22.2192383 C26.8574212,22.6928735 26.7272142,23.1404601 26.6035156,23.5620117 C26.4798171,23.9835633 26.3789066,24.3286119 26.3007812,24.597168 L26.1835938,25 L25.3535156,25 L23.4345703,17.9541016 L24.3525391,17.9541016 L25.7539062,23.6816406 L25.8125,23.6816406 L27.3896484,17.9541016 L28.2783203,17.9541016 L29.8554688,23.6816406 L29.9140625,23.6816406 L31.3154297,17.9541016 L32.2333984,17.9541016 L30.3144531,25 L29.484375,25 L27.8632812,19.4384766 L27.8046875,19.4384766 Z M40.6318359,25 L39.8115234,25 L39.8115234,19.6191406 L39.7529297,19.6191406 L37.53125,24.9511719 L36.7890625,24.9511719 L34.5673828,19.6191406 L34.5087891,19.6191406 L34.5087891,25 L33.6884766,25 L33.6884766,17.9541016 L34.7089844,17.9541016 L37.1210938,23.7841797 L37.1992188,23.7841797 L39.6113281,17.9541016 L40.6318359,17.9541016 L40.6318359,25 Z M43.4248047,18.7353516 L43.4248047,21.4306641 L45.1582031,21.4306641 C45.6106793,21.4306641 45.9597969,21.3142915 46.2055664,21.081543 C46.4513359,20.8487944 46.5742188,20.5159527 46.5742188,20.0830078 C46.5742188,19.6598286 46.4456393,19.3294283 46.1884766,19.0917969 C45.9313138,18.8541655 45.5748721,18.7353516 45.1191406,18.7353516 L43.4248047,18.7353516 Z M43.4248047,22.2119141 L43.4248047,25 L42.5458984,25 L42.5458984,17.9541016 L45.2363281,17.9541016 C45.9166701,17.9541016 46.4610982,18.1453431 46.8696289,18.527832 C47.2781596,18.9103209 47.4824219,19.4189421 47.4824219,20.0537109 C47.4824219,20.5452499 47.3570976,20.9700503 47.1064453,21.328125 C46.855793,21.6861997 46.5091168,21.9352207 46.0664062,22.0751953 L47.6972656,25 L46.6669922,25 L45.1582031,22.2119141 L43.4248047,22.2119141 Z" id="WMR"></path>
                <g id="Group-2">
                    <polyline id="Fill-13" points="6.14026174 4.73219109 6.03724769 4.73219109 4.09558892 12.0722023 2.50745564 12.0722023 0.124605379 1.64333039 1.77178964 1.64333039 3.41923404 9.42453312 3.52224809 9.42453312 5.4342513 1.64333039 6.74325813 1.64333039 8.78819109 9.42453312 8.89068487 9.42453312 10.390892 1.64333039 12.111955 1.64333039 9.72884464 12.0722023 8.14045122 12.0722023 6.14026174 4.73219109"></polyline>
                    <path d="M18.6296748,10.4538932 L18.6296748,11.5716997 C17.9678876,11.9546206 17.0855046,12.248835 16.0262288,12.248835 C13.5554524,12.248835 12.5403998,10.7192324 12.5403998,8.39465275 C12.5403998,6.15929988 13.6730341,4.5412509 15.8792517,4.5412509 C17.7176363,4.5412509 18.8502706,5.73293617 18.8502706,8.13009394 L18.8502706,8.67403934 L14.0556949,8.67403934 C14.0556949,10.4388053 14.776273,11.2186945 16.2913079,11.2186945 C17.0855046,11.2186945 17.8206503,10.9393079 18.6296748,10.4538932 L18.6296748,10.4538932 Z M14.0850903,7.68890245 L17.4528173,7.68890245 C17.379719,6.14421196 16.6294853,5.52690807 15.8352886,5.52690807 C14.9375576,5.52690807 14.2466351,6.21835086 14.0850903,7.68890245 L14.0850903,7.68890245 Z" id="Fill-14"></path>
                    <path d="M21.7180153,5.08571658 C22.1592067,4.85029305 22.9091802,4.5412509 23.7036371,4.5412509 C25.5271939,4.5412509 26.5128511,5.80629466 26.5128511,8.16026977 C26.5128511,10.9101726 25.1895367,12.248835 23.0566776,12.248835 C22.2767884,12.248835 21.0707957,11.9985837 20.1881525,11.5274765 L20.1881525,1.26145002 L21.7180153,0.893617021 L21.7180153,5.08571658 L21.7180153,5.08571658 Z M21.7034476,10.9835311 C22.1737744,11.1895592 22.6888446,11.2186945 23.0566776,11.2186945 C24.1450887,11.2186945 24.9686809,10.5423396 24.9686809,8.16026977 C24.9686809,6.29170935 24.2920658,5.68871297 23.3066688,5.68871297 C22.7179799,5.68871297 22.2918764,5.85051786 21.7034476,6.17412766 L21.7034476,10.9835311 L21.7034476,10.9835311 Z" id="Fill-15"></path>
                    <polyline id="Fill-16" points="33.2051224 9.86572461 33.2790012 9.86572461 36.4263926 1.64333039 38.2504697 1.64333039 38.2504697 12.0722023 36.6620763 12.0722023 36.6620763 4.51185548 36.5294067 4.51185548 33.5287322 12.0722023 32.5878185 12.0722023 29.586884 4.68848816 29.4547346 4.68848816 29.4547346 12.0722023 28.1309 12.0722023 28.1309 1.64333039 29.9104938 1.64333039 33.2051224 9.86572461"></polyline>
                    <path d="M39.8682585,8.39465275 C39.8682585,5.82060217 41.2802794,4.5412509 43.221678,4.5412509 C45.1633368,4.5412509 46.5756178,5.82060217 46.5756178,8.39465275 C46.5756178,10.9101726 45.2369554,12.248835 43.221678,12.248835 C41.2064006,12.248835 39.8682585,10.9101726 39.8682585,8.39465275 L39.8682585,8.39465275 Z M45.0306672,8.39465275 C45.0306672,6.40929105 44.2216427,5.57113127 43.221678,5.57113127 C42.2508487,5.57113127 41.4124287,6.40929105 41.4124287,8.39465275 C41.4124287,10.4104504 42.1777503,11.2186945 43.221678,11.2186945 C44.2658659,11.2186945 45.0306672,10.4104504 45.0306672,8.39465275 L45.0306672,8.39465275 Z" id="Fill-17"></path>
                    <path d="M47.9725508,5.62966198 C48.634338,5.23243356 50.0320514,4.5412509 51.7226784,4.5412509 C53.4884849,4.5412509 54.1497519,5.23243356 54.1497519,6.74720835 L54.1497519,12.0722023 L52.6201493,12.0722023 L52.6201493,7.08590606 C52.6201493,5.92387635 52.0470686,5.71784825 51.2970951,5.71784825 C50.7084063,5.71784825 49.9581726,5.98318747 49.5024135,6.24748615 L49.5024135,12.0722023 L47.9725508,12.0722023 L47.9725508,5.62966198" id="Fill-18"></path>
                    <path d="M61.6065644,10.4538932 L61.6065644,11.5716997 C60.9450373,11.9546206 60.0629145,12.248835 59.0033786,12.248835 C56.5328623,12.248835 55.5178097,10.7192324 55.5178097,8.39465275 C55.5178097,6.15929988 56.650444,4.5412509 58.8566616,4.5412509 C60.6955664,4.5412509 61.8284609,5.73293617 61.8284609,8.13009394 L61.8284609,8.67403934 L57.0333649,8.67403934 C57.0333649,10.4388053 57.753943,11.2186945 59.2687178,11.2186945 C60.0629145,11.2186945 60.7983204,10.9393079 61.6065644,10.4538932 L61.6065644,10.4538932 Z M57.0622401,7.68890245 L60.4304874,7.68890245 C60.357389,6.14421196 59.6066351,5.52690807 58.8124384,5.52690807 C57.9149675,5.52690807 57.2243051,6.21835086 57.0622401,7.68890245 L57.0622401,7.68890245 Z" id="Fill-19"></path>
                    <path d="M67.5496427,4.79124207 L69.1234685,4.79124207 L66.4609715,12.1455608 C65.7253055,14.175666 64.8278346,15.2341614 63.1372075,15.2341614 L63.1372075,14.0286889 C64.1374324,14.0286889 64.7544761,13.2339719 65.1080016,12.1455608 L62.2839599,4.79124207 L63.9020088,4.79124207 L65.7846166,10.2036419 L65.8722826,10.2036419 L67.5496427,4.79124207" id="Fill-20"></path>
                </g>
            </g>
        </g>
    </g>
</svg>