<?xml version="1.0" encoding="UTF-8"?>
<svg width="100px" height="22px" viewBox="0 0 100 22" version="1.1" xmlns="http://www.w3.org/2000/svg" xmlns:xlink="http://www.w3.org/1999/xlink">
    <!-- Generator: Sketch 49.1 (51147) - http://www.bohemiancoding.com/sketch -->
    <title>Yandex_Money_rgb_en</title>
    <desc>Created with Sketch.</desc>
    <defs></defs>
    <g id="Page-1" stroke="none" stroke-width="1" fill="none" fill-rule="evenodd">
        <g id="m7-withdraw-balance-0-1366" transform="translate(-193.000000, -1838.000000)">
            <g id="Yandex_Money_rgb_en" transform="translate(193.000000, 1838.000000)">
                <polyline id="Fill-1" fill="#FF0000" points="4.05862745 18.2908772 4.05862745 12.3560877 0.0307843137 1.71542105 2.05647059 1.71542105 5.02470588 9.922 8.43980392 0 10.3007843 0 5.91960784 12.4257544 5.91960784 18.2908772 4.05862745 18.2908772"></polyline>
                <path d="M50.6041176,6.60694737 L48.39,12.078 L50.8631373,18.2908772 L48.9554902,18.2908772 L47.1180392,13.4688246 L45.3278431,18.2908772 L43.5145098,18.2908772 L45.9876471,12.2401053 L43.75,6.60694737 L45.6578431,6.60694737 L47.1888235,10.8492807 L48.8139216,6.60694737 L50.6041176,6.60694737 Z M37.6964706,11.3824912 L40.735098,11.3824912 C40.735098,9.38878947 40.4052941,7.92829825 39.345098,7.92829825 C38.2147059,7.92829825 37.8141176,9.29596491 37.6964706,11.3824912 Z M39.7221569,18.4529825 C37.2723529,18.4529825 35.764902,16.5289474 35.764902,12.935807 C35.764902,9.18017544 36.824902,6.44464912 39.345098,6.44464912 C41.3237255,6.44464912 42.6192157,7.90514035 42.6192157,11.869386 L42.6192157,12.8661404 L37.6729412,12.8661404 C37.6729412,15.5088421 38.4266667,16.9000526 39.8870588,16.9000526 C40.9233333,16.9000526 41.6772549,16.4361228 42.1482353,16.1117193 L42.5721569,17.5025439 C41.8182353,18.0822632 40.8998039,18.4529825 39.7221569,18.4529825 Z M32.0905882,8.48485965 C31.7135294,8.11375439 31.3131373,7.92829825 30.7009804,7.92829825 C29.2168627,7.92829825 28.5101961,10.130614 28.5101961,12.518386 C28.5101961,15.2539123 29.0284314,16.9232105 30.3711765,16.9232105 C31.2896078,16.9232105 31.7843137,16.4824386 32.0905882,16.0188947 L32.0905882,8.48485965 Z M26.5552941,12.8894912 C26.5552941,8.55414035 28.2039216,6.44464912 30.5831373,6.44464912 C31.1484314,6.44464912 31.7370588,6.63010526 32.0905882,6.88503509 L32.0905882,1.71542105 L33.9278431,1.71542105 L33.9278431,18.2908772 L32.5615686,18.2908772 L32.4203922,17.3635965 L32.302549,17.3635965 C31.7843137,18.0125965 31.124902,18.4529825 30.1592157,18.4529825 C27.8272549,18.4529825 26.5552941,16.5057895 26.5552941,12.8894912 Z M19.9127451,18.2908772 L18.0758824,18.2908772 L18.0758824,6.58359649 L19.9127451,6.58359649 L19.9127451,7.60370175 L20.0307843,7.60370175 C20.3605882,7.16331579 21.2554902,6.44464912 22.3627451,6.44464912 C23.917451,6.44464912 24.7415686,7.30226316 24.7415686,9.08735088 L24.7415686,18.2908772 L22.8809804,18.2908772 L22.8809804,9.24984211 C22.8809804,8.36868421 22.4803922,8.06724561 21.7737255,8.06724561 C20.9964706,8.06724561 20.3370588,8.64696491 19.9127451,9.22668421 L19.9127451,18.2908772 Z M13.9772549,12.1939825 L13.7652941,12.1939825 C11.4805882,12.1939825 10.9858824,13.1909298 10.9858824,14.6977368 C10.9858824,16.0420526 11.4333333,16.9232105 12.3754902,16.9232105 C13.0115686,16.9232105 13.647451,16.5057895 13.9772549,15.9957368 L13.9772549,12.1939825 Z M16.0029412,18.2908772 L14.4484314,18.2908772 C14.3778431,18.0357544 14.3072549,17.6650351 14.2835294,17.3635965 L14.1656863,17.3635965 C13.647451,18.0125965 12.9880392,18.4529825 11.9515686,18.4529825 C10.2558824,18.4529825 9.10137255,17.2011053 9.10137255,14.9063509 C9.10137255,12.4025965 10.3970588,10.8261228 13.7182353,10.8261228 L13.9772549,10.8261228 L13.9772549,10.130614 C13.9772549,8.60064912 13.4590196,7.95164912 12.4227451,7.95164912 C11.4805882,7.95164912 10.6796078,8.43835088 10.067451,8.97175439 L9.71392157,7.37192982 C10.2558824,6.93154386 11.3394118,6.44464912 12.5405882,6.44464912 C14.6366667,6.44464912 15.7909804,7.32542105 15.7909804,10.1539649 L15.7909804,15.6481754 C15.7909804,16.7607193 15.9086275,17.7343158 16.0029412,18.2908772 Z" id="Fill-2" fill="#000000"></path>
                <path d="M57.2098039,6.95470175 L56.7152941,18.2908772 L55.7496078,18.2908772 L56.4796078,1.71542105 L57.774902,1.71542105 L60.295098,11.9390526 C60.507451,12.7501579 60.625098,13.5382982 60.6958824,14.233807 L60.7429412,14.233807 C60.8133333,13.5382982 60.954902,12.7501579 61.1668627,11.9390526 L63.7578431,1.71542105 L65.0766667,1.71542105 L65.8068627,18.2908772 L64.6760784,18.2908772 L64.1817647,6.86187719 C64.1113725,5.56349123 64.1347059,4.56673684 64.1347059,3.54701754 L64.0635294,3.54701754 C63.9227451,4.58989474 63.7578431,5.56349123 63.4988235,6.53766667 L61.1433333,15.6946842 L60.2247059,15.6946842 L57.8927451,6.53766667 C57.6572549,5.63315789 57.4690196,4.70607018 57.3509804,3.57017544 L57.2801961,3.57017544 C57.2801961,4.47429825 57.2570588,5.81861404 57.2098039,6.95470175" id="Fill-3" fill="#000000"></path>
                <path d="M73.794902,12.4491053 C73.794902,8.78591228 72.6641176,7.27949123 71.2743137,7.27949123 C69.8843137,7.27949123 68.7535294,8.90208772 68.7535294,12.4491053 C68.7535294,16.0885614 69.8843137,17.6418772 71.2743137,17.6418772 C72.6641176,17.6418772 73.794902,15.972386 73.794902,12.4491053 Z M67.6466667,12.518386 C67.6466667,8.62380702 69.2252941,6.37498246 71.2743137,6.37498246 C73.3231373,6.37498246 74.9009804,8.36868421 74.9009804,12.3794386 C74.9009804,16.2506667 73.3231373,18.5226491 71.2743137,18.5226491 C69.2252941,18.5226491 67.6466667,16.5057895 67.6466667,12.518386 Z" id="Fill-4" fill="#000000"></path>
                <path d="M78.0364706,9.75989474 L78.0364706,18.2908772 L76.9288235,18.2908772 L76.9288235,6.60694737 L77.9421569,6.60694737 L77.9892157,8.53098246 L78.0364706,8.53098246 C78.3658824,7.67336842 79.3080392,6.37498246 80.9098039,6.37498246 C82.4884314,6.37498246 83.4066667,7.34877193 83.4066667,9.20352632 L83.4066667,18.2908772 L82.2998039,18.2908772 L82.2998039,9.34247368 C82.2998039,7.95164912 81.7815686,7.30226316 80.6978431,7.30226316 C79.52,7.30226316 78.625098,8.27624561 78.0364706,9.75989474" id="Fill-5" fill="#000000"></path>
                <path d="M86.4468627,11.7765614 L90.7580392,11.7765614 C90.9460784,8.67012281 90.0041176,7.27949123 88.8027451,7.27949123 C87.5545098,7.27949123 86.5411765,8.85557895 86.4468627,11.7765614 Z M89.0380392,17.5722105 C90.6158824,17.5722105 91.4403922,16.3203333 91.4403922,16.3203333 L91.7937255,17.2011053 C91.7937255,17.2011053 90.8990196,18.5226491 89.0147059,18.5226491 C86.494902,18.5226491 85.34,16.2740175 85.34,12.4491053 C85.34,8.62380702 86.8003922,6.37498246 88.8027451,6.37498246 C90.8517647,6.37498246 92.1705882,8.48485965 91.7937255,12.6343684 L86.4237255,12.6343684 C86.4707843,15.8336316 87.3186275,17.5722105 89.0380392,17.5722105 Z" id="Fill-6" fill="#000000"></path>
                <path d="M93.5386275,21.9534912 L93.4209804,20.9335789 C93.6090196,20.9798947 93.844902,21.0264035 94.1511765,21.0264035 C94.9517647,21.0264035 95.5170588,20.2612281 95.8705882,18.9630351 L95.964902,18.6154737 L93.0203922,6.60694737 L94.1272549,6.60694737 L96.0113725,14.233807 C96.2233333,15.1149649 96.3888235,15.972386 96.5064706,16.8768947 L96.577451,16.8768947 C96.7415686,15.9492281 96.9301961,15.091614 97.1421569,14.233807 L98.9798039,6.60694737 L99.9692157,6.60694737 L96.9301961,18.8937544 C96.5296078,20.4698421 95.8233333,22 94.1511765,22 C93.8921569,22 93.7033333,21.9768421 93.5386275,21.9534912" id="Fill-7" fill="#000000"></path>
            </g>
        </g>
    </g>
</svg>