<?xml version="1.0" encoding="UTF-8"?>
<svg width="45px" height="40px" viewBox="0 0 45 40" version="1.1" xmlns="http://www.w3.org/2000/svg" xmlns:xlink="http://www.w3.org/1999/xlink">
    <!-- Generator: Sketch 51.3 (57544) - http://www.bohemiancoding.com/sketch -->
    <title>Asia_Commercial_Bank_logo</title>
    <desc>Created with Sketch.</desc>
    <defs></defs>
    <g id="Page-1" stroke="none" stroke-width="1" fill="none" fill-rule="evenodd">
        <g id="m7-withdraw-balance-0-1366-copy" transform="translate(-417.000000, -1854.000000)" fill="#FFFFFF">
            <g id="Group-2" transform="translate(129.000000, 1692.000000)">
                <g id="Asia_Commercial_Bank_logo" transform="translate(288.000000, 162.000000)">
                    <path d="M1.10263554,38.6359731 L0.958960843,39.2343918 L0.241942771,39.2343918 L0.992846386,36.6509581 L1.9125,36.6509581 L2.68373494,39.2343918 L1.93621988,39.2343918 L1.77085843,38.6359731 L1.10263554,38.6359731 Z M1.67462349,38.122946 L1.55737952,37.6580364 C1.51875,37.5123286 1.46656627,37.3015605 1.42996988,37.1490755 L1.42251506,37.1490755 C1.38320783,37.3015605 1.34457831,37.5170725 1.30730422,37.6621027 L1.19548193,38.122946 L1.67462349,38.122946 Z" id="path3543" fill-rule="nonzero"></path>
                    <path d="M3.05850904,38.5444822 C3.21573795,38.6237743 3.47394578,38.7050996 3.72944277,38.7050996 C3.96731928,38.7050996 4.08320783,38.6237743 4.08320783,38.4936539 C4.08320783,38.3675996 3.96731928,38.2957623 3.67590361,38.1954611 C3.23945783,38.0429761 2.95143072,37.8003557 2.95143072,37.4167713 C2.95143072,36.9606719 3.33501506,36.6082623 3.98697289,36.6082623 C4.29736446,36.6082623 4.51558735,36.6658677 4.6877259,36.7431267 L4.54269578,37.2941057 C4.43087349,37.2446328 4.23908133,37.1721177 3.97816265,37.1721177 C3.76875,37.1721177 3.65286145,37.248699 3.65286145,37.3625545 C3.65286145,37.4933527 3.79179217,37.5475695 4.11641566,37.6695575 C4.58200301,37.8389852 4.79141566,38.0883828 4.79141566,38.4482472 C4.79141566,38.8935033 4.44307229,39.2764099 3.68674699,39.2764099 C3.37771084,39.2764099 3.07409639,39.1923737 2.92906627,39.1157924 L3.05850904,38.5444822 Z" id="path3545" fill-rule="nonzero"></path>
                    <polygon id="path3547" fill-rule="nonzero" points="5.85677711 39.2343918 5.16212349 39.2343918 5.16212349 36.6502804 5.85677711 36.6502804"></polygon>
                    <path d="M7.01091867,38.6359731 L6.86521084,39.2343918 L6.14819277,39.2343918 L6.89909639,36.6509581 L7.82078313,36.6509581 L8.58998494,39.2343918 L7.84246988,39.2343918 L7.67710843,38.6359731 L7.01091867,38.6359731 Z M7.58290663,38.122946 L7.46362952,37.6580364 C7.42432229,37.5123286 7.3748494,37.3015605 7.33825301,37.1490755 L7.32876506,37.1490755 C7.29149096,37.3015605 7.25286145,37.5170725 7.21490964,37.6621027 L7.10376506,38.122946 L7.58290663,38.122946 Z" id="path3549" fill-rule="nonzero"></path>
                    <path d="M11.6159639,39.1686539 C11.5143072,39.2147382 11.2730422,39.2764099 10.9619729,39.2764099 C9.99759036,39.2764099 9.57131024,38.6705364 9.57131024,37.9840153 C9.57131024,37.0724942 10.2395331,36.6082623 11.0087349,36.6082623 C11.3089608,36.6082623 11.5495482,36.6658677 11.6566265,36.7221177 L11.5210843,37.2676749 C11.4079066,37.2215906 11.25,37.1755063 11.0439759,37.1755063 C10.6441265,37.1755063 10.3005271,37.4099942 10.3005271,37.9392864 C10.3005271,38.4096177 10.5783886,38.7017111 11.0548193,38.7017111 C11.2228916,38.7017111 11.4112952,38.6671478 11.5197289,38.6237743 L11.6159639,39.1686539 Z" id="path3551" fill-rule="nonzero"></path>
                    <path d="M14.2895331,37.9148888 C14.2895331,38.7477954 13.7927711,39.2764099 12.9951054,39.2764099 C12.1947289,39.2764099 11.7521837,38.6746027 11.7521837,37.9575846 C11.7521837,37.206681 12.2462349,36.6082623 13.0364458,36.6082623 C13.8686747,36.6082623 14.2895331,37.2249792 14.2895331,37.9148888 M12.4841114,37.9460635 C12.4841114,38.4292713 12.6948795,38.7274641 13.028991,38.7274641 C13.3610693,38.7274641 13.5582831,38.4021629 13.5582831,37.9392864 C13.5582831,37.4933527 13.3590361,37.1565304 13.024247,37.1565304 C12.6948795,37.1565304 12.4841114,37.4716659 12.4841114,37.9460635" id="path3553" fill-rule="nonzero"></path>
                    <path d="M16.8417922,38.3099942 C16.8350151,38.0158677 16.8268825,37.6695575 16.8309488,37.2676749 L16.8207831,37.2676749 C16.7387801,37.6085635 16.6323795,37.9962141 16.5490211,38.2794972 L16.2908133,39.1801749 L15.75,39.1801749 L15.5310994,38.2835635 C15.4673946,38.0036689 15.3860693,37.62144 15.3291416,37.2676749 L15.3223645,37.2676749 C15.3054217,37.6322834 15.2898343,38.0158677 15.278991,38.3099942 L15.2417169,39.2343918 L14.6046687,39.2343918 L14.7612199,36.6509581 L15.6930723,36.6509581 L15.8652108,37.344934 C15.9336596,37.6322834 16.010241,37.9765605 16.0637801,38.291696 L16.0800452,38.291696 C16.1518825,37.9765605 16.2379518,37.6126298 16.3152108,37.3415454 L16.5056476,36.6509581 L17.4178464,36.6509581 L17.5486446,39.2343918 L16.8736446,39.2343918 L16.8417922,38.3099942 Z" id="path3555" fill-rule="nonzero"></path>
                    <path d="M20.158509,38.3099942 C20.1524096,38.0158677 20.1429217,37.6695575 20.146988,37.2676749 L20.1361446,37.2676749 C20.055497,37.6085635 19.9470633,37.9962141 19.8637048,38.2794972 L19.6068524,39.1801749 L19.0667169,39.1801749 L18.8471386,38.2835635 C18.782756,38.0036689 18.700753,37.62144 18.644503,37.2676749 L18.6363705,37.2676749 C18.6228163,37.6322834 18.6051958,38.0158677 18.5943524,38.3099942 L18.5550452,39.2343918 L17.9193524,39.2343918 L18.077259,36.6509581 L19.0084337,36.6509581 L19.1819277,37.344934 C19.2496988,37.6322834 19.3276355,37.9765605 19.3811747,38.291696 L19.3954066,38.291696 C19.4679217,37.9765605 19.553991,37.6126298 19.6292169,37.3415454 L19.821009,36.6509581 L20.7345633,36.6509581 L20.864006,39.2343918 L20.189006,39.2343918 L20.158509,38.3099942 Z" id="path3557" fill-rule="nonzero"></path>
                    <polygon id="path3559" fill-rule="nonzero" points="22.9120482 38.1920725 21.9829066 38.1920725 21.9829066 38.6671478 23.0218373 38.6671478 23.0218373 39.2343918 21.2902861 39.2343918 21.2902861 36.6509581 22.9676205 36.6509581 22.9676205 37.2148135 21.9829066 37.2148135 21.9829066 37.6322834 22.9120482 37.6322834"></polygon>
                    <path d="M23.4054217,36.686199 C23.6006024,36.6543466 23.896762,36.6313045 24.2410392,36.6313045 C24.6354669,36.6313045 24.9201054,36.686199 25.1146084,36.8298737 C25.2799699,36.9572834 25.3728163,37.140943 25.3728163,37.3937292 C25.3728163,37.7169972 25.1288404,37.9460635 24.9268825,38.0192563 L24.9268825,38.0348436 C25.0990211,38.1073587 25.1911898,38.2713647 25.2576054,38.4936539 C25.3368976,38.7593165 25.4222892,39.1340906 25.471762,39.2343918 L24.7608434,39.2343918 C24.7228916,39.1571328 24.658509,38.9585635 24.5826054,38.6413948 C24.5128012,38.3296478 24.417244,38.2639099 24.2024096,38.2639099 L24.0899096,38.2639099 L24.0899096,39.2343918 L23.4054217,39.2343918 L23.4054217,36.686199 Z M24.0899096,37.769181 L24.2715361,37.769181 C24.5310994,37.769181 24.6815512,37.6397382 24.6815512,37.447946 C24.6815512,37.2520876 24.5561747,37.145687 24.3243976,37.140943 C24.1956325,37.140943 24.1258283,37.1490755 24.0899096,37.1565304 L24.0899096,37.769181 Z" id="path3561" fill-rule="nonzero"></path>
                    <path d="M27.6756777,39.1686539 C27.5767319,39.2147382 27.3341114,39.2764099 27.0237199,39.2764099 C26.0586596,39.2764099 25.6323795,38.6705364 25.6323795,37.9840153 C25.6323795,37.0724942 26.299247,36.6082623 27.0704819,36.6082623 C27.3686747,36.6082623 27.6106175,36.6658677 27.7183735,36.7221177 L27.583509,37.2676749 C27.4682982,37.2215906 27.311747,37.1755063 27.1043675,37.1755063 C26.7058735,37.1755063 26.360241,37.4099942 26.360241,37.9392864 C26.360241,38.4096177 26.6408133,38.7017111 27.1145277,38.7017111 C27.2853163,38.7017111 27.4716867,38.6671478 27.5801205,38.6237743 L27.6756777,39.1686539 Z" id="path3563" fill-rule="nonzero"></path>
                    <polygon id="path3565" fill-rule="nonzero" points="28.7417169 39.2343918 28.047741 39.2343918 28.047741 36.6502804 28.7417169 36.6502804"></polygon>
                    <path d="M29.8958584,38.6359731 L29.7501506,39.2343918 L29.0324548,39.2343918 L29.7840361,36.6509581 L30.703012,36.6509581 L31.474247,39.2343918 L30.7267319,39.2343918 L30.5613705,38.6359731 L29.8958584,38.6359731 Z M30.4651355,38.122946 L30.3465361,37.6580364 C30.309262,37.5123286 30.2597892,37.3015605 30.2204819,37.1490755 L30.2130271,37.1490755 C30.1750753,37.3015605 30.1364458,37.5170725 30.0978163,37.6621027 L29.9853163,38.122946 L30.4651355,38.122946 Z" id="path3567" fill-rule="nonzero"></path>
                    <polygon id="path3569" fill-rule="nonzero" points="31.8042922 36.6509581 32.4969127 36.6509581 32.4969127 38.6556267 33.4890813 38.6556267 33.4890813 39.2343918 31.8042922 39.2343918"></polygon>
                    <path d="M34.5876506,36.686199 C34.7428464,36.6577352 35.0844127,36.6313045 35.4042922,36.6313045 C35.7716114,36.6313045 35.9898289,36.6543466 36.194503,36.7580364 C36.3910392,36.8495273 36.5401355,37.037931 36.5401355,37.2866508 C36.5401355,37.5048737 36.4235693,37.7169972 36.1192771,37.8308527 L36.1192771,37.8389852 C36.4378012,37.9270876 36.6255271,38.1608978 36.6255271,38.4679008 C36.6255271,38.7098436 36.5096386,38.9002804 36.3381777,39.0297231 C36.1423193,39.1767864 35.821762,39.2642111 35.26875,39.2642111 C34.9549699,39.2642111 34.7292922,39.2411689 34.5876506,39.2194822 L34.5876506,36.686199 Z M35.2721386,37.6431267 L35.4110693,37.6431267 C35.7058735,37.6431267 35.8481928,37.5401147 35.8481928,37.3747533 C35.8481928,37.2215906 35.7323042,37.1267111 35.4978163,37.1267111 C35.3819277,37.1267111 35.3189006,37.1328105 35.2721386,37.140943 L35.2721386,37.6431267 Z M35.2721386,38.7477954 C35.3222892,38.7552502 35.3819277,38.7552502 35.4734187,38.7552502 C35.7024849,38.7552502 35.8976657,38.6624039 35.8976657,38.4360484 C35.8976657,38.2178255 35.6984187,38.1337894 35.4375,38.1337894 L35.2721386,38.1337894 L35.2721386,38.7477954 Z" id="path3571" fill-rule="nonzero"></path>
                    <path d="M37.6644578,38.6359731 L37.51875,39.2343918 L36.8010542,39.2343918 L37.5526355,36.6509581 L38.4743223,36.6509581 L39.2448795,39.2343918 L38.4953313,39.2343918 L38.3326807,38.6359731 L37.6644578,38.6359731 Z M38.2357681,38.122946 L38.1171687,37.6580364 C38.0785392,37.5123286 38.0290663,37.3015605 37.9911145,37.1490755 L37.9843373,37.1490755 C37.9450301,37.3015605 37.9064006,37.5170725 37.8684488,37.6621027 L37.7566265,38.122946 L38.2357681,38.122946 Z" id="path3573" fill-rule="nonzero"></path>
                    <path d="M39.574247,39.2343918 L39.574247,36.6509581 L40.3908886,36.6509581 L40.8002259,37.4438798 C40.9425452,37.7014099 41.0916416,38.045687 41.2048193,38.347946 L41.2183735,38.347946 C41.1810994,38.0070575 41.1628012,37.6478707 41.1628012,37.2595424 L41.1628012,36.6509581 L41.7964608,36.6509581 L41.7964608,39.2343918 L41.0685994,39.2343918 L40.6314759,38.3750545 C40.4864458,38.0999039 40.3176958,37.7542713 40.1950301,37.4404912 L40.1828313,37.4404912 C40.1990964,37.7881569 40.2058735,38.1805514 40.2058735,38.5980213 L40.2058735,39.2343918 L39.574247,39.2343918 Z" id="path3575" fill-rule="nonzero"></path>
                    <path d="M42.2762801,36.6509581 L42.9614458,36.6509581 L42.9614458,37.7474942 L42.9709337,37.7474942 C43.0237952,37.6512593 43.0807229,37.5550243 43.139006,37.4642111 L43.6330572,36.6509581 L44.4835843,36.6509581 L43.6628765,37.7508828 L44.5154367,39.2343918 L43.7130271,39.2343918 L43.1681476,38.1873286 L42.9614458,38.4529912 L42.9614458,39.2343918 L42.2762801,39.2343918 L42.2762801,36.6509581 Z" id="path3577" fill-rule="nonzero"></path>
                    <g id="Group-27">
                        <path d="M35.8515813,13.0788195 L35.8515813,6.4467412 L38.6491717,6.47656048 C39.8256777,6.4840153 39.9910337,8.41006952 39.8826054,11.0673737 C39.8575301,11.7057773 39.5932229,12.3855213 39.1493223,13.0788195 L43.2101602,13.0788195 C43.6533886,11.235446 43.7462349,9.0965906 43.6533886,6.68800627 C43.5598645,4.40683178 42.3487952,0.427313738 40.0798193,0.434768557 L31.8456325,0.403593858 L31.8456325,13.0788195 L35.8515813,13.0788195 Z" id="path3579"></path>
                        <path d="M39.6481175,21.2669219 C40.1896084,22.0205364 40.5149042,23.2194069 40.478991,24.9313045 C40.4600151,25.8523135 39.4692018,27.803443 38.5346386,27.803443 L35.7899096,27.803443 L35.7899096,21.2669219 L31.8456325,21.2669219 L31.8456325,20.9023135 L31.8456325,33.6758075 L39.4868223,33.6758075 C43.0434488,33.6758075 45.5292922,29.4116508 43.8180723,21.2669219 L39.6481175,21.2669219 Z" id="path3581"></path>
                        <path d="M43.7198042,20.8826599 C43.7042169,20.8223436 43.6859187,20.7342412 43.6574548,20.6298737 L31.8219072,20.6298737 L31.8219072,20.8826599 L43.7198042,20.8826599 Z" id="path3583"></path>
                        <path d="M43.542244,20.2388346 C43.5158133,20.1778406 43.4792169,20.0910936 43.4548193,19.9874039 L31.8042922,19.9874039 L31.8042922,20.2388346 L43.542244,20.2388346 Z" id="path3585"></path>
                        <path d="M43.3328313,19.5990755 C43.3084337,19.5163948 43.2630271,19.4310033 43.2474398,19.3435786 L31.8253012,19.3435786 L31.8253012,19.5990755 L43.3328313,19.5990755 Z" id="path3587"></path>
                        <path d="M43.1362952,18.955928 C43.0929217,18.8752804 43.0739458,18.787178 43.03125,18.7092412 L31.8598645,18.7092412 L31.8598645,18.955928 L43.1362952,18.955928 Z" id="path3589"></path>
                        <path d="M42.8408133,18.3188798 C42.8211596,18.2307773 42.7784639,18.1460635 42.7364458,18.0654159 L31.8402054,18.0654159 L31.8402054,18.3188798 L42.8408133,18.3188798 Z" id="path3591"></path>
                        <path d="M42.5338102,17.626937 C42.4714608,17.54019 42.4274096,17.458187 42.3860693,17.37144 L31.8219072,17.37144 L31.8219072,17.626937 L42.5338102,17.626937 Z" id="path3593"></path>
                        <path d="M42.1197289,16.9837894 C42.0600904,16.8970424 41.9746988,16.8170725 41.9103163,16.7303255 L31.8097139,16.7303255 L31.8097139,16.9837894 L42.1197289,16.9837894 Z" id="path3595"></path>
                        <path d="M42.1075301,16.3413195 C42.152259,16.2789701 42.1895331,16.1929008 42.2301958,16.0865002 L31.8334337,16.0865002 L31.8334337,16.3413195 L42.1075301,16.3413195 Z" id="path3597"></path>
                        <path d="M42.3792922,15.6981719 C42.4233434,15.6365002 42.4599398,15.5551749 42.4836596,15.4521629 L31.8171687,15.4521629 L31.8171687,15.6981719 L42.3792922,15.6981719 Z" id="path3599"></path>
                        <path d="M42.6795181,15.060446 C42.7188253,14.9757322 42.7418675,14.8896629 42.7608434,14.8076599 L31.8402054,14.8076599 L31.8402054,15.060446 L42.6795181,15.060446 Z" id="path3601"></path>
                        <path d="M42.897741,14.4186539 C42.9336596,14.3319069 42.9560241,14.2505816 42.9756777,14.16519 L31.8253012,14.16519 L31.8253012,14.4186539 L42.897741,14.4186539 Z" id="path3603"></path>
                        <path d="M43.1112199,13.7260334 C43.1301958,13.6399641 43.153238,13.5606719 43.1728916,13.4739249 L31.8334337,13.4739249 L31.8334337,13.7260334 L43.1112199,13.7260334 Z" id="path3605"></path>
                        <path d="M21.6115211,21.3211388 C22.7358434,26.3300996 24.6869729,28.119934 29.3143771,25.799452 L29.3143771,33.0048737 C27.311747,35.0542713 23.5612952,34.297946 21.9049699,32.5928255 C19.3052711,29.91519 18.1917922,26.1945575 17.5750753,21.3211388 L21.6115211,21.3211388 Z" id="path3607"></path>
                        <path d="M21.5064759,13.5498286 L17.4957831,13.5498286 C17.4957831,13.408187 17.4957831,13.2489249 17.5262801,13.1696328 L21.5864458,13.1696328 C22.7358434,7.47753941 25.5429217,5.85306652 29.3143771,8.24674121 L29.3753765,1.132133 L29.1781627,0.980325769 C24.5629518,-1.21545736 21.5735693,0.332434229 19.5553464,5.07166613 C18.5848645,7.36165085 17.8143072,10.0677503 17.4957831,13.1696328 L17.4957831,13.5498286 L21.5064759,13.5498286 Z" id="path3609"></path>
                        <path d="M21.5186747,20.9395876 C21.5186747,20.8535183 21.492244,20.7742261 21.492244,20.6868014 L17.5025602,20.6868014 C17.5181476,20.7911689 17.5181476,20.8785936 17.5432229,20.9395876 L21.5186747,20.9395876 Z" id="path3611"></path>
                        <path d="M21.4353163,20.2998286 C21.4197289,20.2130816 21.4197289,20.1337894 21.4197289,20.0470424 L17.4476657,20.0470424 C17.4652861,20.1520876 17.4652861,20.2381569 17.4652861,20.2998286 L21.4353163,20.2998286 Z" id="path3613"></path>
                        <path d="M21.375,19.6600695 C21.375,19.5780665 21.3519578,19.4940304 21.3519578,19.4072834 L17.3778614,19.4072834 C17.4029367,19.5123286 17.4029367,19.5990755 17.4029367,19.6600695 L21.375,19.6600695 Z" id="path3615"></path>
                        <path d="M21.3634789,19.0196328 C21.3634789,18.9410183 21.3472139,18.8535936 21.3472139,18.7749792 L17.390738,18.7749792 C17.390738,18.8800243 17.4151355,18.9586388 17.4151355,19.0196328 L21.3634789,19.0196328 Z" id="path3617"></path>
                        <polygon id="path3619" points="21.3024849 18.1338647 17.3534639 18.1338647 17.3534639 18.3859731 21.3024849 18.3859731"></polygon>
                        <polygon id="path3621" points="21.309262 17.4432773 17.334488 17.4432773 17.334488 17.6980966 21.309262 17.6980966"></polygon>
                        <polygon id="path3623" points="21.2957078 16.8055514 17.3236446 16.8055514 17.3236446 17.0576599 21.2957078 17.0576599"></polygon>
                        <path d="M21.3024849,16.4179008 C21.3221386,16.3386087 21.3221386,16.251184 21.3221386,16.164437 L17.3263554,16.164437 L17.3263554,16.4179008 L21.3024849,16.4179008 Z" id="path3625"></path>
                        <path d="M21.3221386,15.7781418 C21.3221386,15.6974942 21.3221386,15.6121027 21.339759,15.5321328 L17.3263554,15.5321328 C17.3263554,15.6121027 17.3263554,15.6974942 17.303991,15.7781418 L21.3221386,15.7781418 Z" id="path3627"></path>
                        <path d="M21.3899096,15.142449 C21.3899096,15.0584129 21.4122741,14.9716659 21.4122741,14.8903406 L17.3778614,14.8903406 C17.3534639,14.9716659 17.3534639,15.0584129 17.3534639,15.142449 L21.3899096,15.142449 Z" id="path3629"></path>
                        <path d="M21.4353163,14.5040454 C21.4353163,14.415943 21.4637801,14.3373286 21.4637801,14.2505816 L17.4029367,14.2505816 C17.4029367,14.3373286 17.4029367,14.415943 17.3832831,14.5040454 L21.4353163,14.5040454 Z" id="path3631"></path>
                        <path d="M21.5247741,13.8141358 C21.5417169,13.7280665 21.5417169,13.6487743 21.5417169,13.5627051 L17.4686747,13.5627051 C17.4686747,13.6487743 17.4686747,13.7280665 17.4503765,13.8141358 L21.5247741,13.8141358 Z" id="path3633"></path>
                        <polygon id="path3635" points="2.11174699 21.3211388 6.28305723 21.3211388 4.2499247 33.6758075 0 33.6758075"></polygon>
                        <polygon id="path3637" points="6.33795181 20.9578858 2.18968373 20.9578858 6.36099398 20.9578858"></polygon>
                        <polygon id="path3639" points="10.8291416 21.3211388 14.8337349 21.3211388 17.1847139 33.6758075 13.265512 33.6758075"></polygon>
                        <path d="M14.7551205,20.9578858 L10.804744,20.9578858 L14.7551205,20.9578858 Z" id="path3641"></path>
                        <polygon id="path3643" points="13.5067771 13.1696328 9.5123494 13.1696328 8.60082831 8.00615386 7.70218373 13.1696328 3.69284639 13.1696328 5.9875753 0.382584822 11.2520331 0.382584822"></polygon>
                        <polygon id="path3645" points="14.7856175 20.9395876 14.7408886 20.6868014 2.18968373 20.6868014 2.14902108 20.9395876"></polygon>
                        <polygon id="path3647" points="14.6873494 20.2998286 14.6453313 20.0470424 2.31980422 20.0470424 2.2750753 20.2998286"></polygon>
                        <polygon id="path3649" points="14.5402861 19.6600695 14.4962349 19.4072834 2.4438253 19.4072834 2.3814759 19.6600695"></polygon>
                        <polygon id="path3651" points="14.486747 19.0196328 14.4481175 18.7749792 2.60308735 18.7749792 2.56581325 19.0196328"></polygon>
                        <polygon id="path3653" points="14.3410392 18.3859731 14.2990211 18.1338647 2.68915663 18.1338647 2.64578313 18.3859731"></polygon>
                        <polygon id="path3655" points="14.2434488 17.6980966 14.2000753 17.4432773 2.81656627 17.4432773 2.78064759 17.6980966"></polygon>
                        <polygon id="path3657" points="14.1458584 17.0576599 14.1018072 16.8055514 2.95346386 16.8055514 2.90873494 17.0576599"></polygon>
                        <polygon id="path3659" points="14.0462349 16.4179008 14.0035392 16.164437 3.06528614 16.164437 3.00158133 16.4179008"></polygon>
                        <polygon id="path3661" points="13.8978163 15.7781418 13.8544428 15.5321328 3.14525602 15.5321328 3.10120482 15.7781418"></polygon>
                        <polygon id="path3663" points="13.8015813 15.142449 13.7575301 14.8903406 3.32281627 14.8903406 3.27808735 15.142449"></polygon>
                        <polygon id="path3665" points="13.7033133 14.5040454 13.6599398 14.2505816 3.4502259 14.2505816 3.40820783 14.5040454"></polygon>
                        <polygon id="path3667" points="13.6504518 13.8141358 13.6091114 13.5627051 3.60542169 13.5627051 3.56001506 13.7965153 7.61679217 13.7965153 7.61679217 13.8141358 9.64111446 13.8141358 9.62146084 13.7965153 9.64111446 13.8141358 13.6504518 13.8141358 13.6348645 13.7965153 9.62146084 13.7965153 13.6348645 13.7965153"></polygon>
                        <polygon id="path3669" points="3.56001506 13.8141358 7.61679217 13.8141358 7.61679217 13.7965153 3.56001506 13.7965153"></polygon>
                        <path d="M3.54442771,13.8141358 L3.56001506,13.8141358 L3.54442771,13.8141358 Z" id="path3671"></path>
                    </g>
                </g>
            </g>
        </g>
    </g>
</svg>