<?xml version="1.0" encoding="UTF-8"?>
<svg width="100px" height="19px" viewBox="0 0 100 19" version="1.1" xmlns="http://www.w3.org/2000/svg" xmlns:xlink="http://www.w3.org/1999/xlink">
    <!-- Generator: Sketch 49.2 (51160) - http://www.bohemiancoding.com/sketch -->
    <title>advcash</title>
    <desc>Created with Sketch.</desc>
    <defs></defs>
    <g id="Page-1" stroke="none" stroke-width="1" fill="none" fill-rule="evenodd">
        <g id="m7-withdraw-balance-0-1366" transform="translate(-753.000000, -2028.000000)" fill-rule="nonzero">
            <g id="advcash" transform="translate(753.000000, 2028.000000)">
                <path d="M57.8777589,18.811545 C56.1120543,18.6757216 54.3123939,17.8438031 54.3123939,17.8438031 L55.1103565,15.7555178 C55.1103565,15.7555178 56.0271647,16.196944 56.4006791,16.2818336 C57.0797963,16.434635 57.7419355,16.5025467 58.4210526,16.417657 C58.9983022,16.3497453 59.4397284,16.0271647 59.5755518,15.4499151 C59.7283531,14.8556876 59.4397284,14.4142615 58.9303905,14.1086587 C58.2342954,13.6672326 57.4193548,13.4804754 56.672326,13.1578947 C54.75382,12.2920204 53.9558574,10.6621392 54.5670628,8.84550085 C54.9405772,7.75891341 55.7385399,7.13073005 56.7741935,6.79117148 C58.5229202,6.23089983 60.2207131,6.4516129 61.901528,7.11375212 C61.9864177,7.14770798 62.1222411,7.23259762 62.1222411,7.23259762 L61.2733447,9.16808149 C61.2733447,9.16808149 59.3039049,8.70967742 58.6757216,8.76061121 C58.0475382,8.81154499 57.5891341,9.13412564 57.4533107,9.762309 C57.3344652,10.3735144 57.6740238,10.7979626 58.1663837,11.0865874 C58.5908319,11.3242784 59.049236,11.4770798 59.4906621,11.663837 C60.0339559,11.901528 60.5942275,12.0882852 61.1035654,12.3938879 C63.344652,13.7521222 63.2597623,16.9779287 60.9337861,18.2342954 C60,18.7436333 58.9643463,18.8964346 57.8777589,18.811545 Z" id="Shape" fill="#009A5F"></path>
                <path d="M39.6264856,18.7945671 C36.655348,18.8285229 34.4991511,16.7572156 34.295416,13.7860781 C34.2275042,12.6315789 34.1935484,11.4770798 34.516129,10.3565365 C35.5687606,6.65534805 39.1511036,5.72156197 42.0882852,6.94397284 C42.2071307,6.99490662 42.5806452,7.16468591 42.5806452,7.16468591 L41.5959253,9.23599321 C41.5959253,9.23599321 41.1544992,9.13412564 40.7300509,9.03225806 C39.1001698,8.59083192 37.7249576,9.60950764 37.4193548,11.5449915 C37.2835314,12.37691 37.2835314,13.2258065 37.5042445,14.0747029 C38.0135823,15.9932088 39.3548387,16.7402377 41.2393888,16.0780985 C41.4091681,16.0101868 41.6468591,16.0101868 41.6468591,16.0101868 L42.4448217,18.2512733 C42.4448217,18.2512733 40.9337861,18.8285229 39.6264856,18.7945671 Z" id="Shape" fill="#009A5F"></path>
                <path d="M20.8149406,1.42614601 C20.1528014,1.37521222 17.7928693,1.40916808 17.7928693,1.40916808 C17.7928693,1.40916808 17.7928693,4.44821732 17.7928693,5.75551783 C17.7928693,6.79117148 17.7928693,6.79117148 16.7572156,6.65534805 C14.0747029,6.28183362 11.7487267,7.64006791 10.9337861,10.1018676 C10.3904924,11.7147708 10.3735144,13.3786078 10.8319185,15.0254669 C11.3921902,16.9949066 12.6655348,18.2342954 14.6689304,18.6587436 C16.4516129,19.049236 18.2003396,18.8455008 19.9490662,18.3701188 C20.5772496,18.2003396 20.8488964,17.9117148 20.8319185,17.1986418 C20.7640068,14.6689304 20.8149406,3.56536503 20.8149406,1.42614601 Z M17.1307301,16.4516129 C15.3310696,16.7232598 14.1426146,16.0101868 13.7181664,14.2444822 C13.4125637,13.0220713 13.4125637,11.7826825 13.9219015,10.5942275 C14.516129,9.18505942 15.959253,8.5229202 17.4193548,8.96434635 C17.8268251,9.08319185 17.8268251,9.35483871 17.8268251,9.67741935 C17.8268251,10.6960951 17.8268251,11.7147708 17.8268251,12.7334465 C17.8268251,13.7011885 17.8098472,14.6519525 17.8438031,15.6196944 C17.8268251,16.1290323 17.6910017,16.3667233 17.1307301,16.4516129 Z" id="Shape" fill="#0E2D39"></path>
                <path d="M9.96604414,13.9219015 C9.96604414,13.9219015 9.96604414,13.9219015 9.96604414,13.9219015 C9.94906621,12.7674024 9.94906621,11.5959253 9.94906621,10.4414261 C9.94906621,10.2207131 9.91511036,9.98302207 9.8811545,9.762309 C9.67741935,8.09847199 8.81154499,7.09677419 7.18166384,6.6893039 C5.51782683,6.26485569 3.87096774,6.43463497 2.24108659,6.85908319 C1.49405772,7.04584041 1.01867572,7.36842105 1.01867572,7.36842105 L1.8336163,9.21901528 C1.8336163,9.21901528 2.03735144,9.18505942 2.1901528,9.13412564 C3.36162988,8.74363328 4.58404075,8.43803056 5.84040747,8.74363328 C6.67232598,8.94736842 7.06281834,9.47368421 7.13073005,10.3056027 C7.18166384,10.7979626 7.04584041,10.9847199 6.50254669,11.0016978 C5.14431239,11.0696095 3.80305603,11.2393888 2.52971138,11.7487267 C0.831918506,12.4278438 0.101867572,13.5314092 0.169779287,15.2631579 C0.220713073,16.8251273 1.05263158,17.9456706 2.71646859,18.4550085 C4.97453311,19.1511036 7.23259762,18.9303905 9.45670628,18.2342954 C9.83022071,18.1154499 9.98302207,17.8947368 9.96604414,17.4872666 C9.94906621,16.2988115 9.96604414,15.1103565 9.96604414,13.9219015 Z M7.13073005,16.7062818 C5.95925297,16.8590832 3.87096774,16.7062818 3.3106961,15.9932088 C2.6655348,15.1782683 2.97113752,13.8879457 3.95585739,13.4125637 C4.83870968,12.9881154 6.38370119,12.8862479 7.13073005,12.9202037 C7.13073005,13.3955857 7.18166384,15.4499151 7.13073005,16.7062818 Z" id="Shape" fill="#0E2D39"></path>
                <path d="M53.0220713,13.9219015 C53.0220713,13.9219015 53.0220713,13.9219015 53.0220713,13.9219015 C53.0050934,12.7674024 53.0050934,11.5959253 53.0050934,10.4414261 C53.0050934,10.2207131 52.9711375,9.98302207 52.9371817,9.762309 C52.7334465,8.09847199 51.8675722,7.09677419 50.237691,6.6893039 C48.573854,6.26485569 46.9269949,6.43463497 45.2971138,6.85908319 C44.5500849,7.04584041 44.0747029,7.36842105 44.0747029,7.36842105 L44.8896435,9.21901528 C44.8896435,9.21901528 45.0933786,9.18505942 45.24618,9.13412564 C46.417657,8.74363328 47.6400679,8.43803056 48.8964346,8.74363328 C49.7283531,8.94736842 50.1188455,9.47368421 50.1867572,10.3056027 C50.237691,10.7979626 50.1018676,10.9847199 49.5585739,11.0016978 C48.2003396,11.0696095 46.8590832,11.2393888 45.5857385,11.7487267 C43.8879457,12.4278438 43.1578947,13.5314092 43.2258065,15.2631579 C43.2767402,16.8251273 44.1086587,17.9456706 45.7724958,18.4550085 C48.0305603,19.1511036 50.2886248,18.9303905 52.5127334,18.2342954 C52.8862479,18.1154499 53.0390492,17.8947368 53.0220713,17.4872666 C53.0220713,16.2988115 53.0220713,15.1103565 53.0220713,13.9219015 Z M50.1867572,16.7062818 C48.9983022,16.8590832 46.9269949,16.7062818 46.3667233,15.9932088 C45.721562,15.1782683 46.0271647,13.8879457 47.0118846,13.4125637 C47.8947368,12.9881154 49.4397284,12.8862479 50.1867572,12.9202037 C50.1867572,13.3955857 50.237691,15.4499151 50.1867572,16.7062818 Z" id="Shape" fill="#009A5F"></path>
                <path d="M30.1867572,6.79117148 C30.1697793,6.84210526 30.1528014,6.89303905 30.1358234,6.96095076 C29.6095076,8.82852292 28.8964346,11.0696095 28.3531409,12.9371817 C28.098472,13.803056 27.8438031,14.6859083 27.5382003,15.7724958 C26.8760611,13.5144312 25.5348048,8.86247878 24.8896435,6.79117148 L21.663837,6.79117148 C21.6808149,6.87606112 21.7147708,6.97792869 21.7487267,7.07979626 C22.9032258,10.2037351 25.9932088,18.5908319 25.9932088,18.5908319 L29.1341256,18.5908319 C29.1341256,18.5908319 32.2580645,10.237691 33.4634975,7.02886248 C33.4974533,6.94397284 33.5144312,6.87606112 33.5314092,6.80814941 L30.1867572,6.80814941 L30.1867572,6.79117148 Z" id="Shape" fill="#0E2D39"></path>
                <path d="M73.3616299,9.96604414 C73.327674,8.62478778 72.6485569,7.60611205 71.4091681,7.01188455 C70.0339559,6.36672326 68.6078098,6.38370119 67.1986418,6.82512733 C66.5874363,7.01188455 66.5365025,6.82512733 66.5534805,6.31578947 C66.5704584,5.41595925 66.4855688,2.03735144 66.5195246,1.3582343 L63.5314092,1.3582343 C63.5314092,1.39219015 63.5314092,1.42614601 63.5314092,1.46010187 C63.5483871,6.77419355 63.5483871,13.1748727 63.5314092,18.4889643 C63.5314092,18.573854 63.5314092,18.6587436 63.5483871,18.7266553 L66.5704584,18.7266553 C66.5874363,18.6587436 66.5874363,18.5908319 66.5874363,18.4889643 C66.5704584,17.1646859 66.5704584,15.2631579 66.5874363,13.9388795 C66.5874363,12.614601 66.5874363,11.2733447 66.5874363,9.94906621 C66.5874363,9.67741935 66.5365025,9.38879457 66.8251273,9.18505942 C68.098472,8.25127334 70.2037351,9.04923599 70.3904924,10.6112054 C70.6112054,12.5466893 70.4923599,18.4040747 70.6112054,18.7096774 L73.4125637,18.7096774 C73.4295416,18.6417657 73.4295416,18.5568761 73.4295416,18.4719864 C73.3616299,15.8404075 73.4125637,12.614601 73.3616299,9.96604414 Z" id="Shape" fill="#009A5F"></path>
                <g id="Group" transform="translate(78.268251, 0.000000)">
                    <polygon id="Shape" fill="#0E2D39" points="19.9320883 9.49066214 15.008489 9.49066214 13.7351443 6.91001698 21.6129032 6.91001698"></polygon>
                    <polygon id="Shape" fill="#0E2D39" points="17.1307301 13.6672326 16.5704584 13.6672326 15.6876061 11.1035654 18.811545 11.1035654"></polygon>
                    <polygon id="Shape" fill="#009A5F" points="10.8828523 6.89303905 15.8064516 18.6078098 19.3378608 18.6078098 10.8828523 0.152801358 2.51273345 18.6417657 6.01018676 18.6247878"></polygon>
                    <polygon id="Shape" fill="#0E2D39" points="11.9694397 9.49066214 1.93548387 9.49066214 0.0339558574 6.91001698 10.8828523 6.91001698"></polygon>
                    <polygon id="Shape" fill="#0E2D39" points="13.7351443 13.6672326 4.78777589 13.6672326 2.90322581 11.1035654 12.6315789 11.1035654"></polygon>
                </g>
            </g>
        </g>
    </g>
</svg>