<?xml version="1.0" encoding="UTF-8"?>
<svg width="80px" height="20px" viewBox="0 0 80 20" version="1.1" xmlns="http://www.w3.org/2000/svg" xmlns:xlink="http://www.w3.org/1999/xlink">
    <!-- Generator: Sketch 51.1 (57501) - http://www.bohemiancoding.com/sketch -->
    <title>advcash-usd</title>
    <desc>Created with Sketch.</desc>
    <defs>
        <rect id="path-1" x="0" y="0" width="11" height="11" rx="5.5"></rect>
        <rect id="path-3" x="0" y="0" width="11" height="11" rx="5.5"></rect>
        <rect id="path-5" x="0" y="0" width="11" height="11" rx="5.5"></rect>
        <rect id="path-7" x="0" y="0" width="11" height="11" rx="5.5"></rect>
        <rect id="path-9" x="0" y="0" width="11" height="11" rx="5.5"></rect>
        <rect id="path-11" x="0" y="0" width="6.13953488" height="6.65116279"></rect>
    </defs>
    <g id="Page-1" stroke="none" stroke-width="1" fill="none" fill-rule="evenodd">
        <g id="withdraw_table-copy-3" transform="translate(-159.000000, -347.000000)">
            <g id="advcash-usd" transform="translate(159.000000, 346.000000)">
                <g id="Group-13" fill-rule="nonzero">
                    <path d="M8.21742764,14.8285005 C7.54260718,15.1827813 6.17609576,15.4864505 4.80958433,15.4864505 C2.07656148,15.4864505 0.710050054,14.4067378 0.710050054,12.5509815 C0.710050054,10.0710163 3.2912383,9.58177149 6.04113166,9.42993689 L6.04113166,8.95756257 C6.04113166,8.01281393 5.38318172,7.65853319 4.33721001,7.65853319 C3.47681393,7.65853319 2.43084222,7.92846137 1.78976279,8.19838955 L1.2161654,6.6463025 C1.97533841,6.32576279 3.27436779,5.98835256 4.59026768,5.98835256 C6.91839826,5.98835256 8.21742764,6.89936017 8.21742764,9.22749075 L8.21742764,14.8285005 Z M6.04113166,13.6644353 L6.04113166,10.8976714 C4.35408052,10.9820239 2.86947552,11.1338585 2.86947552,12.50037 C2.86947552,13.3607661 3.54429597,13.8500109 4.74210229,13.8500109 C5.23134712,13.8500109 5.8049445,13.7656583 6.04113166,13.6644353 Z M16.8901937,14.8285005 C16.2322437,15.1827813 14.9500849,15.4864505 13.5667029,15.4864505 C10.6312339,15.4864505 9.02853536,13.7487878 9.02853536,10.7964483 C9.02853536,7.99594342 10.4962699,6.10644614 13.2799042,6.10644614 C13.7691491,6.10644614 14.2921349,6.19079869 14.5789336,6.29202176 L14.5789336,2.04065288 L16.8901937,2.04065288 L16.8901937,14.8285005 Z M14.5789336,13.4957301 L14.5789336,8.01281393 C14.393358,7.92846137 13.9209837,7.84410881 13.5160914,7.84410881 C12.0820979,7.84410881 11.3229249,9.04191513 11.3229249,10.7627073 C11.3229249,12.601593 12.0989684,13.6813058 13.5160914,13.6813058 C13.9209837,13.6813058 14.393358,13.5969532 14.5789336,13.4957301 Z M26.4908379,6.19079869 L23.2179587,15.2840044 L20.5524178,15.2840044 L17.2626681,6.19079869 L19.8607269,6.19079869 L21.5309075,11.8592905 C21.7333536,12.5509815 21.8683177,13.327025 21.8683177,13.327025 L21.9020588,13.327025 C21.9020588,13.327025 22.0370229,12.5509815 22.239469,11.8592905 L23.9096496,6.19079869 L26.4908379,6.19079869 Z" id="advcash-copy" fill="#FFFFFF"></path>
                    <path d="M33.6694059,14.8622416 C33.078938,15.2502633 32.3366355,15.4864505 31.2569227,15.4864505 C29.1312383,15.4864505 27.1911295,13.9681045 27.1911295,10.7289663 C27.1911295,7.48982807 29.1312383,5.98835256 31.2569227,5.98835256 C32.3366355,5.98835256 33.0958085,6.22453972 33.6694059,6.61256148 L32.9439739,8.2658716 C32.6065637,8.01281393 32.1173188,7.87784984 31.594333,7.87784984 C30.4640087,7.87784984 29.5698716,8.82259848 29.5698716,10.7120958 C29.5698716,12.601593 30.4977497,13.5463417 31.594333,13.5463417 C32.1173188,13.5463417 32.6065637,13.3945071 32.9439739,13.1414494 L33.6694059,14.8622416 Z" id="Path" fill="#009D5B"></path>
                    <path d="M41.2320261,14.8285005 C40.5572057,15.1827813 39.1906942,15.4864505 37.8241828,15.4864505 C35.09116,15.4864505 33.7246485,14.4067378 33.7246485,12.5509815 C33.7246485,10.0710163 36.3058368,9.58177149 39.0557301,9.42993689 L39.0557301,8.95756257 C39.0557301,8.01281393 38.3977802,7.65853319 37.3518085,7.65853319 C36.4914124,7.65853319 35.4454407,7.92846137 34.8043613,8.19838955 L34.2307639,6.6463025 C34.9899369,6.32576279 36.2889663,5.98835256 37.6048662,5.98835256 C39.9329967,5.98835256 41.2320261,6.89936017 41.2320261,9.22749075 L41.2320261,14.8285005 Z M39.0557301,13.6644353 L39.0557301,10.8976714 C37.368679,10.9820239 35.884074,11.1338585 35.884074,12.50037 C35.884074,13.3607661 36.5588945,13.8500109 37.7567008,13.8500109 C38.2459456,13.8500109 38.819543,13.7656583 39.0557301,13.6644353 Z" id="Combined-Shape" fill="#009D5B"></path>
                    <path d="M46.0015814,15.3443506 C45.595421,15.4374758 45.1371259,15.4864505 44.62763,15.4864505 C43.4973058,15.4864505 42.3669815,15.1827813 41.692161,14.8285005 L42.4344635,13.0739674 C42.8899674,13.3607661 43.902198,13.6644353 44.560148,13.6644353 C45.386803,13.6644353 45.9266594,13.2764135 45.9266594,12.6690751 C45.9266594,11.9942546 45.3361915,11.7074559 44.526407,11.4206572 C43.3792122,10.9988945 41.9283482,10.4590381 41.9283482,8.67076387 C41.9283482,7.06806529 43.143025,5.98835256 45.2687095,5.98835256 C46.4327748,5.98835256 47.3775234,6.27515125 48.0692144,6.6463025 L47.3606529,8.21526007 C46.9726311,7.97907291 46.1628466,7.69227421 45.5555082,7.69227421 C44.7457236,7.69227421 44.2733493,8.09716649 44.2733493,8.63702285 C44.2733493,9.32871382 44.8638172,9.598642 45.6567312,9.8854407 C46.3157538,10.1267729 47.0564864,10.3885326 47.5895238,10.8814519 C46.623072,12.1166058 46.0357865,13.662508 46.0015814,15.3443506 Z" id="Combined-Shape" fill="#009D5B"></path>
                    <path d="M53.576021,8 C53.3362398,7.89625854 53.0456822,7.84410881 52.7099282,7.84410881 C52.2544244,7.84410881 51.748309,7.97907291 51.3940283,8.18151904 L51.3940283,8.29983629 C50.5596682,8.54330807 49.7857534,8.92762333 49.0996387,9.4252864 L49.0996387,2.04065288 L51.3940283,2.04065288 L51.3940283,6.46072688 C51.9338847,6.20766921 52.6255756,6.03896409 53.3003961,6.03896409 C55.0031005,6.03896409 56.1304489,6.7208674 56.5215609,8 L53.576021,8 Z" id="Combined-Shape" fill="#009D5B"></path>
                    <g id="Group-12" transform="translate(59.377584, 0.977149)">
                        <polygon id="Combined-Shape" fill="#009D5B" points="5.19675694 7.02285092 8.38031039 0.0327106794 10.143716 5.04372931 8.83875239 5.04372931 8.38031039 5.24337434 7.63027303 7.02285092"></polygon>
                        <polygon id="Combined-Shape" fill="#FFFFFF" points="16.6366812 5.1273123 15.2390347 7.19477693 1.46568213 7.19477693 0.0405123394 5.1273123"></polygon>
                        <polygon id="Combined-Shape" fill="#009D5B" points="11.5638638 7.02285092 9.11759004 7.02285092 8.38031039 5.24337434 8.00274754 4.22063686 7.55092572 2.47145871 8.38031039 0.0327106794"></polygon>
                    </g>
                </g>
                <g id="Group-2" transform="translate(48.000000, 10.000000)">
                    <rect id="Rectangle-540" fill="#2381E8" fill-rule="nonzero" x="0" y="0" width="32" height="11" rx="5.5"></rect>
                    <g id="Group-3">
                        <g id="Rectangle-112-Copy-6" fill="#D11242" fill-rule="nonzero">
                            <rect id="path-1" x="0" y="0" width="11" height="11" rx="5.5"></rect>
                        </g>
                        <g id="Rectangle-112-Copy-4-Clipped">
                            <mask id="mask-2" fill="white">
                                <use xlink:href="#path-1"></use>
                            </mask>
                            <g id="path-1"></g>
                            <rect id="Rectangle-112-Copy-4" fill="#FFFFFF" fill-rule="nonzero" mask="url(#mask-2)" x="-0.511627907" y="8.44186047" width="11.5116279" height="1.02325581"></rect>
                        </g>
                        <g id="Rectangle-112-Copy-Clipped">
                            <mask id="mask-4" fill="white">
                                <use xlink:href="#path-3"></use>
                            </mask>
                            <g id="path-1"></g>
                            <rect id="Rectangle-112-Copy" fill="#FFFFFF" fill-rule="nonzero" mask="url(#mask-4)" x="-0.511627907" y="1.53488372" width="11.5116279" height="1.02325581"></rect>
                        </g>
                        <g id="Rectangle-112-Copy-2-Clipped">
                            <mask id="mask-6" fill="white">
                                <use xlink:href="#path-5"></use>
                            </mask>
                            <g id="path-1"></g>
                            <rect id="Rectangle-112-Copy-2" fill="#FFFFFF" fill-rule="nonzero" mask="url(#mask-6)" x="-0.511627907" y="3.8372093" width="11.5116279" height="1.02325581"></rect>
                        </g>
                        <g id="Rectangle-112-Copy-3-Clipped">
                            <mask id="mask-8" fill="white">
                                <use xlink:href="#path-7"></use>
                            </mask>
                            <g id="path-1"></g>
                            <rect id="Rectangle-112-Copy-3" fill="#FFFFFF" fill-rule="nonzero" mask="url(#mask-8)" x="-0.511627907" y="6.13953488" width="11.5116279" height="1.02325581"></rect>
                        </g>
                        <g id="Group-9-Clipped">
                            <mask id="mask-10" fill="white">
                                <use xlink:href="#path-9"></use>
                            </mask>
                            <g id="path-1"></g>
                            <g id="Group-9" mask="url(#mask-10)">
                                <g transform="translate(0.000000, -1.000000)" id="Group-8">
                                    <g transform="translate(0.000000, 0.488372)">
                                        <g id="Group">
                                            <g id="Rectangle-112-Copy-10" fill="#2381E8" fill-rule="nonzero">
                                                <rect id="path-3" x="0" y="0" width="6.13953488" height="6.65116279"></rect>
                                            </g>
                                            <g id="Group-10-Clipped">
                                                <mask id="mask-12" fill="white">
                                                    <use xlink:href="#path-11"></use>
                                                </mask>
                                                <g id="path-3"></g>
                                                <g id="Group-10" opacity="0.7" mask="url(#mask-12)" fill="#FFFFFF" fill-rule="nonzero">
                                                    <g id="Group" transform="translate(0.000000, 0.511628)">
                                                        <rect id="Rectangle" x="5.11627907" y="5.11627907" width="1" height="1"></rect>
                                                        <rect id="Rectangle-Copy" x="4.09302326" y="5.11627907" width="1" height="1"></rect>
                                                        <rect id="Rectangle-Copy-2" x="3.06976744" y="5.11627907" width="1" height="1"></rect>
                                                        <rect id="Rectangle-Copy-3" x="2.04651163" y="5.11627907" width="1" height="1"></rect>
                                                        <rect id="Rectangle-Copy-4" x="1.02325581" y="5.11627907" width="1" height="1"></rect>
                                                        <rect id="Rectangle-Copy-8" x="4.60465116" y="4.60465116" width="1" height="1"></rect>
                                                        <rect id="Rectangle-Copy-7" x="3.58139535" y="4.60465116" width="1" height="1"></rect>
                                                        <rect id="Rectangle-Copy-6" x="2.55813953" y="4.60465116" width="1" height="1"></rect>
                                                        <rect id="Rectangle-Copy-5" x="1.53488372" y="4.60465116" width="1" height="1"></rect>
                                                        <rect id="Rectangle-Copy-10" x="0.511627907" y="4.60465116" width="1" height="1"></rect>
                                                        <rect id="Rectangle-Copy-16" x="6.13953488" y="4.09302326" width="1" height="1"></rect>
                                                        <rect id="Rectangle-Copy-15" x="5.11627907" y="4.09302326" width="1" height="1"></rect>
                                                        <rect id="Rectangle-Copy-14" x="4.09302326" y="4.09302326" width="1" height="1"></rect>
                                                        <rect id="Rectangle-Copy-13" x="3.06976744" y="4.09302326" width="1" height="1"></rect>
                                                        <rect id="Rectangle-Copy-12" x="2.04651163" y="4.09302326" width="1" height="1"></rect>
                                                        <rect id="Rectangle-Copy-11" x="1.02325581" y="4.09302326" width="1" height="1"></rect>
                                                        <rect id="Rectangle-Copy-21" x="4.60465116" y="3.58139535" width="1" height="1"></rect>
                                                        <rect id="Rectangle-Copy-20" x="3.58139535" y="3.58139535" width="1" height="1"></rect>
                                                        <rect id="Rectangle-Copy-19" x="2.55813953" y="3.58139535" width="1" height="1"></rect>
                                                        <rect id="Rectangle-Copy-18" x="1.53488372" y="3.58139535" width="1" height="1"></rect>
                                                        <rect id="Rectangle-Copy-17" x="0.511627907" y="3.58139535" width="1" height="1"></rect>
                                                        <rect id="Rectangle-Copy-28" x="6.13953488" y="3.06976744" width="1" height="1"></rect>
                                                        <rect id="Rectangle-Copy-27" x="5.11627907" y="3.06976744" width="1" height="1"></rect>
                                                        <rect id="Rectangle-Copy-26" x="4.09302326" y="3.06976744" width="1" height="1"></rect>
                                                        <rect id="Rectangle-Copy-25" x="3.06976744" y="3.06976744" width="1" height="1"></rect>
                                                        <rect id="Rectangle-Copy-24" x="2.04651163" y="3.06976744" width="1" height="1"></rect>
                                                        <rect id="Rectangle-Copy-23" x="1.02325581" y="3.06976744" width="1" height="1"></rect>
                                                        <rect id="Rectangle-Copy-33" x="4.60465116" y="2.55813953" width="1" height="1"></rect>
                                                        <rect id="Rectangle-Copy-32" x="3.58139535" y="2.55813953" width="1" height="1"></rect>
                                                        <rect id="Rectangle-Copy-31" x="2.55813953" y="2.55813953" width="1" height="1"></rect>
                                                        <rect id="Rectangle-Copy-30" x="1.53488372" y="2.55813953" width="1" height="1"></rect>
                                                        <rect id="Rectangle-Copy-29" x="0.511627907" y="2.55813953" width="1" height="1"></rect>
                                                        <rect id="Rectangle-Copy-40" x="5.11627907" y="2.04651163" width="1" height="1"></rect>
                                                        <rect id="Rectangle-Copy-39" x="4.09302326" y="2.04651163" width="1" height="1"></rect>
                                                        <rect id="Rectangle-Copy-38" x="3.06976744" y="2.04651163" width="1" height="1"></rect>
                                                        <rect id="Rectangle-Copy-37" x="2.04651163" y="2.04651163" width="1" height="1"></rect>
                                                        <rect id="Rectangle-Copy-36" x="1.02325581" y="2.04651163" width="1" height="1"></rect>
                                                        <rect id="Rectangle-Copy-35" x="0" y="2.04651163" width="1" height="1"></rect>
                                                        <rect id="Rectangle-Copy-45" x="4.60465116" y="1.53488372" width="1" height="1"></rect>
                                                        <rect id="Rectangle-Copy-44" x="3.58139535" y="1.53488372" width="1" height="1"></rect>
                                                        <rect id="Rectangle-Copy-43" x="2.55813953" y="1.53488372" width="1" height="1"></rect>
                                                        <rect id="Rectangle-Copy-42" x="1.53488372" y="1.53488372" width="1" height="1"></rect>
                                                        <rect id="Rectangle-Copy-41" x="0.511627907" y="1.53488372" width="1" height="1"></rect>
                                                        <rect id="Rectangle-Copy-52" x="5.11627907" y="1.02325581" width="1" height="1"></rect>
                                                        <rect id="Rectangle-Copy-51" x="4.09302326" y="1.02325581" width="1" height="1"></rect>
                                                        <rect id="Rectangle-Copy-50" x="3.06976744" y="1.02325581" width="1" height="1"></rect>
                                                        <rect id="Rectangle-Copy-49" x="2.04651163" y="1.02325581" width="1" height="1"></rect>
                                                        <rect id="Rectangle-Copy-48" x="1.02325581" y="1.02325581" width="1" height="1"></rect>
                                                        <rect id="Rectangle-Copy-47" x="0" y="1.02325581" width="1" height="1"></rect>
                                                        <rect id="Rectangle-Copy-57" x="4.60465116" y="0.511627907" width="1" height="1"></rect>
                                                        <rect id="Rectangle-Copy-56" x="3.58139535" y="0.511627907" width="1" height="1"></rect>
                                                        <rect id="Rectangle-Copy-55" x="2.55813953" y="0.511627907" width="1" height="1"></rect>
                                                        <rect id="Rectangle-Copy-54" x="1.53488372" y="0.511627907" width="1" height="1"></rect>
                                                        <rect id="Rectangle-Copy-53" x="0.511627907" y="0.511627907" width="1" height="1"></rect>
                                                        <rect id="Rectangle-Copy-62" x="3.06976744" y="0" width="1" height="1"></rect>
                                                        <rect id="Rectangle-Copy-61" x="2.04651163" y="0" width="1" height="1"></rect>
                                                        <rect id="Rectangle-Copy-60" x="1.02325581" y="0" width="1" height="1"></rect>
                                                        <rect id="Rectangle-Copy-59" x="0" y="0" width="1" height="1"></rect>
                                                    </g>
                                                </g>
                                            </g>
                                        </g>
                                    </g>
                                </g>
                            </g>
                        </g>
                    </g>
                    <path d="M13.8562508,2.64765644 L13.8562508,6.09296894 C13.8562508,6.68671894 14.1492195,7.01093769 14.6843758,7.01093769 C15.219532,7.01093769 15.5125008,6.68671894 15.5125008,6.09296894 L15.5125008,2.64765644 L17.1687508,2.64765644 L17.1687508,6.27656269 C17.1687508,7.56171894 16.172657,8.38203144 14.6843758,8.38203144 C13.1960945,8.38203144 12.2000008,7.56171894 12.2000008,6.27656269 L12.2000008,2.64765644 L13.8562508,2.64765644 Z M17.5937508,6.62421894 L19.160157,6.62421894 C19.207032,6.94453144 19.597657,7.15546894 20.0429695,7.15546894 C20.5390633,7.15546894 20.8437508,6.95625019 20.8437508,6.68281269 C20.8437508,6.42109394 20.6367195,6.30781269 20.0312508,6.19843769 L19.285157,6.06562519 C18.2500008,5.88593769 17.6875008,5.29218769 17.6875008,4.40937519 C17.6875008,3.26875019 18.6640633,2.55000019 20.0078133,2.55000019 C21.5078133,2.55000019 22.347657,3.23750019 22.3554695,4.33125019 L20.8437508,4.33125019 C20.832032,3.97968769 20.4843758,3.77265644 20.0390633,3.77265644 C19.6054695,3.77265644 19.332032,3.95234394 19.332032,4.23359394 C19.332032,4.50312519 19.5625008,4.64375019 20.097657,4.73750019 L20.8710945,4.87031269 C21.9648445,5.06171894 22.4765633,5.58125019 22.4765633,6.49531269 C22.4765633,7.64765644 21.5117195,8.38203144 20.0117195,8.38203144 C18.5000008,8.38203144 17.597657,7.74921894 17.5937508,6.62421894 Z M22.9015633,2.64765644 L25.3117195,2.64765644 C27.022657,2.64765644 28.0265633,3.62031269 28.0265633,5.42500019 C28.0265633,7.22968769 27.0187508,8.28437519 25.3117195,8.28437519 L22.9015633,8.28437519 L22.9015633,2.64765644 Z M24.5578133,3.96406269 L24.5578133,6.96796894 L25.0773445,6.96796894 C25.9054695,6.96796894 26.3390633,6.46406269 26.3390633,5.42500019 C26.3390633,4.47578144 25.8703133,3.96406269 25.0773445,3.96406269 L24.5578133,3.96406269 Z" id="USD" fill="#FFFFFF" fill-rule="nonzero"></path>
                </g>
            </g>
        </g>
    </g>
</svg>