<svg width="80" height="24" xmlns="http://www.w3.org/2000/svg" xmlns:xlink="http://www.w3.org/1999/xlink"><defs><path id="a" d="M0 0h80v24H0z"/><path d="M8.2 12.8c-.7.4-2 .7-3.4.7-2.7 0-4.1-1.1-4.1-2.9 0-2.5 2.6-3 5.3-3.1V7c0-1-.6-1.3-1.7-1.3-.9 0-1.9.3-2.5.5l-.6-1.6C2 4.3 3.3 4 4.6 4c2.3 0 3.6.9 3.6 3.2v5.6zM6 11.7V8.9c-1.7.1-3.2.2-3.2 1.6 0 .9.7 1.3 1.9 1.3.5.1 1.1 0 1.3-.1zm10.9 1.1c-.7.4-1.9.7-3.3.7-2.9 0-4.5-1.7-4.5-4.7 0-2.8 1.5-4.7 4.3-4.7.5 0 1 .1 1.3.2V0H17v12.8h-.1zm-2.3-1.3V6c-.2-.1-.7-.2-1.1-.2-1.4 0-2.2 1.2-2.2 2.9 0 1.8.8 2.9 2.2 2.9.4.1.9 0 1.1-.1zm11.9-7.3l-3.3 9.1h-2.7l-3.3-9.1h2.6l1.7 5.7c.2.7.3 1.5.3 1.5s.1-.8.3-1.5l1.7-5.7h2.7z" id="b"/><path id="d" d="M0 0h80v24H0z"/><path d="M6.7 8.9c-.6.4-1.3.6-2.4.6C2.2 9.5.2 8 .2 4.7.2 1.5 2.1 0 4.3 0c1.1 0 1.8.2 2.4.6L6 2.3c-.3-.3-.8-.4-1.3-.4-1.1 0-2 .9-2 2.8s.9 2.8 2 2.8c.5 0 1-.2 1.3-.4l.7 1.8z" id="e"/><path id="g" d="M0 0h80v24H0z"/><path d="M8.2 8.8c-.7.4-2 .7-3.4.7C2.1 9.5.7 8.4.7 6.6c0-2.5 2.6-3 5.3-3.1V3c0-.9-.7-1.3-1.7-1.3-.9 0-1.9.3-2.5.5L1.2.6C2 .3 3.3 0 4.6 0c2.3 0 3.6.9 3.6 3.2v5.6zM6.1 7.7V4.9c-1.7.1-3.2.2-3.2 1.6 0 .9.7 1.3 1.9 1.3.4.1 1 0 1.3-.1z" id="h"/><path id="j" d="M0 0h80v24H0z"/><path d="M5 10.3c-.4.1-.9.1-1.4.1-1.1 0-2.3-.3-2.9-.7l.7-1.8c.5.3 1.5.6 2.1.6.8 0 1.4-.4 1.4-1 0-.7-.6-1-1.4-1.2C2.4 5.9.9 5.3.9 3.6.9 2 2.1.9 4.2.9c1.2 0 2.1.3 2.8.7l-.7 1.6C6 3 5.2 2.7 4.6 2.7c-.8 0-1.3.4-1.3.9 0 .7.6 1 1.4 1.2.7.2 1.4.5 1.9 1C5.6 7.1 5 8.7 5 10.3z" id="k"/><path id="m" d="M0 0h80v24H0z"/><path d="M4.6 6c-.2-.1-.5-.2-.9-.2-.5 0-1 .1-1.3.3v.1c-.8.2-1.6.6-2.3 1.1V0h2.3v4.4c.5-.2 1.2-.4 1.9-.4 1.7 0 2.8.7 3.2 2H4.6z" id="n"/><path id="p" d="M0 0h80v24H0z"/><path id="q" d="M.6 7l3.2-7 1.7 5H4.2l-.4.2L3 7z"/><path id="s" d="M0 0h80v24H0z"/><path id="t" d="M17 .1l-1.4 2.1H1.8L.4.1z"/><path id="v" d="M0 0h80v24H0z"/><path id="w" d="M4.9 7H2.5l-.7-1.8-.4-1-.5-1.8.9-2.4z"/><path id="y" d="M0 0h80v24H0z"/><path d="M0 5.5C0 2.5 2.5 0 5.5 0h21c3 0 5.5 2.5 5.5 5.5S29.5 11 26.5 11h-21C2.5 11 0 8.5 0 5.5z" id="z"/><path id="B" d="M0 0h80v24H0z"/><path d="M3.5 6.3H.6V.7h2.8c1.2 0 1.8.5 1.8 1.4 0 .6-.5 1.1-1.1 1.2.8 0 1.4.6 1.4 1.3-.1 1-.8 1.7-2 1.7zM2.2 1.8v1.1h.6c.4 0 .7-.2.7-.6 0-.3-.3-.6-.7-.6h-.6v.1zm0 3.4H3c.5 0 .8-.2.8-.7 0-.4-.3-.6-.8-.6h-.7v1.3h-.1zm5.4-3.3v1.4h.7c.5 0 .8-.3.8-.7 0-.4-.3-.7-.7-.7h-.8zm0 2.5v1.9H6V.7h2.5c1.5 0 2.3.7 2.3 1.9 0 .7-.3 1.3-.9 1.6L11 6.3H9.1l-.9-1.9h-.6zm7.7.6v1.3h-3.9V.7h1.7V5h2.2z" id="C"/><circle id="E" cx="5.6" cy="5.5" r="5.5"/><path id="G" d="M.1 0h80v24H.1z"/><path id="I" d="M.1 0h11v11H.1z"/><path id="K" d="M.1 0h11v11H.1z"/><path id="M" d="M.1 0h11v11H.1z"/><path id="O" d="M0 3.5l4.6 3 4.6-3-4.6-3z"/><path id="Q" d="M.1 0h11v11H.1z"/><path id="S" d="M.1 0h11v11H.1z"/><ellipse id="U" cx="2.6" cy="2.5" rx="1.9" ry="2"/><path id="W" d="M.1 0h11v11H.1z"/><path id="Y" d="M.1 0h11v11H.1z"/><ellipse id="aa" cx="2.6" cy="2.5" rx="1.9" ry="2"/><path id="ac" d="M.1 0h11v11H.1z"/><path id="ae" d="M.1 0h5v4h-5z"/><path d="M.8 5.4C.8 2.8 2.9.6 5.5.6s4.7 2.1 4.7 4.8h-.3c0-2.5-2-4.5-4.4-4.5-2.4 0-4.4 2-4.4 4.5H.8z" id="ag"/><path id="ai" d="M.1 0h5v5h-5z"/></defs><g fill="none" fill-rule="evenodd"><g transform="translate(0 4)"><mask id="c" fill="#fff"><use xlink:href="#b"/></mask><path fill="#0C3449" fill-rule="nonzero" mask="url(#c)" d="M-4.3-5h35.8v23.4H-4.3z"/></g><g transform="translate(27 8)"><mask id="f" fill="#fff"><use xlink:href="#e"/></mask><path fill="#009B59" fill-rule="nonzero" mask="url(#f)" d="M-4.8-5h16.5v19.5H-4.8z"/></g><g transform="translate(33 8)"><mask id="i" fill="#fff"><use xlink:href="#h"/></mask><path fill="#009B59" fill-rule="nonzero" mask="url(#i)" d="M-4.3-5h17.5v19.5H-4.3z"/></g><g transform="translate(41 7)"><mask id="l" fill="#fff"><use xlink:href="#k"/></mask><path fill="#009B59" fill-rule="nonzero" mask="url(#l)" d="M-4.3-4h16.4v19.5H-4.3z"/></g><g transform="translate(49 4)"><mask id="o" fill="#fff"><use xlink:href="#n"/></mask><path fill="#009B59" fill-rule="nonzero" mask="url(#o)" d="M-4.9-5h17.4v17.4H-4.9z"/></g><g><g transform="translate(64 3)"><mask id="r" fill="#fff"><use xlink:href="#q"/></mask><path fill="#009B59" fill-rule="nonzero" mask="url(#r)" d="M-4.4-5h14.9v17H-4.4z"/></g></g><g><g transform="translate(59 8)"><mask id="u" fill="#fff"><use xlink:href="#t"/></mask><path fill="#0C3449" fill-rule="nonzero" mask="url(#u)" d="M-4.6-4.9H22V7.2H-4.6z"/></g></g><g><g transform="translate(66 3)"><mask id="x" fill="#fff"><use xlink:href="#w"/></mask><path fill="#009B59" fill-rule="nonzero" mask="url(#x)" d="M-4.1-5h14v17h-14z"/></g></g><g><g transform="translate(48 12)"><mask id="A" fill="#fff"><use xlink:href="#z"/></mask><path fill="#009A38" fill-rule="nonzero" mask="url(#A)" d="M-5-5h42v21H-5z"/></g></g><g><g transform="translate(60 14)"><mask id="D" fill="#fff"><use xlink:href="#C"/></mask><path fill="#FFF" fill-rule="nonzero" mask="url(#D)" d="M-4.4-4.3h24.7v15.6H-4.4z"/></g></g><g transform="translate(48 12)"><mask id="F" fill="#fff"><use xlink:href="#E"/></mask><g mask="url(#F)"><g transform="translate(-48 -12)"><mask id="H" fill="#fff"><use xlink:href="#G"/></mask><g mask="url(#H)"><g transform="translate(48 12)"><mask id="J" fill="#fff"><use xlink:href="#I"/></mask><g mask="url(#J)"><mask id="L" fill="#fff"><use xlink:href="#K"/></mask><path fill="#009B3A" fill-rule="nonzero" mask="url(#L)" d="M-4.9-5h21v21h-21z"/></g></g><g transform="translate(48 12)"><mask id="N" fill="#fff"><use xlink:href="#M"/></mask><g mask="url(#N)"><g transform="translate(1 2)"><mask id="P" fill="#fff"><use xlink:href="#O"/></mask><g mask="url(#P)"><g transform="translate(-1 -2)"><mask id="R" fill="#fff"><use xlink:href="#Q"/></mask><path fill="#FEDF00" fill-rule="nonzero" mask="url(#R)" d="M-4-2.5h19.1v15.9H-4z"/></g></g></g></g></g><g transform="translate(48 12)"><mask id="T" fill="#fff"><use xlink:href="#S"/></mask><g mask="url(#T)"><g transform="translate(3 3)"><mask id="V" fill="#fff"><use xlink:href="#U"/></mask><g mask="url(#V)"><g transform="translate(-3 -3)"><mask id="X" fill="#fff"><use xlink:href="#W"/></mask><path fill="#002776" fill-rule="nonzero" mask="url(#X)" d="M-1.3-1.5h13.9v13.9H-1.3z"/></g></g></g></g></g><g transform="translate(48 12)"><mask id="Z" fill="#fff"><use xlink:href="#Y"/></mask><g mask="url(#Z)"><g transform="translate(3 3)"><mask id="ab" fill="#fff"><use xlink:href="#aa"/></mask><g mask="url(#ab)"><g transform="translate(-3 -3)"><mask id="ad" fill="#fff"><use xlink:href="#ac"/></mask><g mask="url(#ad)"><g transform="translate(3 4)"><mask id="af" fill="#fff"><use xlink:href="#ae"/></mask><g mask="url(#af)"><g transform="translate(-4)"><mask id="ah" fill="#fff"><use xlink:href="#ag"/></mask><g mask="url(#ah)"><g transform="translate(4 -1)"><mask id="aj" fill="#fff"><use xlink:href="#ai"/></mask><path fill="#FFF" fill-rule="nonzero" mask="url(#aj)" d="M-8.2-3.4h19.4v14.8H-8.2z"/></g></g></g></g></g></g></g></g></g></g></g></g></g></g></g></g></svg>