<?xml version="1.0" encoding="UTF-8"?>
<svg width="100px" height="19px" viewBox="0 0 100 19" version="1.1" xmlns="http://www.w3.org/2000/svg" xmlns:xlink="http://www.w3.org/1999/xlink">
    <!-- Generator: Sketch 49.2 (51160) - http://www.bohemiancoding.com/sketch -->
    <title>advcash copy</title>
    <desc>Created with Sketch.</desc>
    <defs></defs>
    <g id="Page-1" stroke="none" stroke-width="1" fill="none" fill-rule="evenodd">
        <g id="m7-withdraw-balance-0-1366" transform="translate(-953.000000, -2031.000000)" fill-rule="nonzero">
            <g id="advcash-copy" transform="translate(953.000000, 2031.000000)">
                <path d="M57.8777589,18.7964286 C56.1120543,18.6607143 54.3123939,17.8294643 54.3123939,17.8294643 L55.1103565,15.7428571 C55.1103565,15.7428571 56.0271647,16.1839286 56.4006791,16.26875 C57.0797963,16.4214286 57.7419355,16.4892857 58.4210526,16.4044643 C58.9983022,16.3366071 59.4397284,16.0142857 59.5755518,15.4375 C59.7283531,14.84375 59.4397284,14.4026786 58.9303905,14.0973214 C58.2342954,13.65625 57.4193548,13.4696429 56.672326,13.1473214 C54.75382,12.2821429 53.9558574,10.6535714 54.5670628,8.83839286 C54.9405772,7.75267857 55.7385399,7.125 56.7741935,6.78571429 C58.5229202,6.22589286 60.2207131,6.44642857 61.901528,7.10803571 C61.9864177,7.14196429 62.1222411,7.22678571 62.1222411,7.22678571 L61.2733447,9.16071429 C61.2733447,9.16071429 59.3039049,8.70267857 58.6757216,8.75357143 C58.0475382,8.80446429 57.5891341,9.12678571 57.4533107,9.75446429 C57.3344652,10.3651786 57.6740238,10.7892857 58.1663837,11.0776786 C58.5908319,11.3151786 59.049236,11.4678571 59.4906621,11.6544643 C60.0339559,11.8919643 60.5942275,12.0785714 61.1035654,12.3839286 C63.344652,13.7410714 63.2597623,16.9642857 60.9337861,18.2196429 C60,18.7285714 58.9643463,18.88125 57.8777589,18.7964286 Z" id="Shape" fill="#009A5F"></path>
                <path d="M39.6264856,18.7794643 C36.655348,18.8133929 34.4991511,16.74375 34.295416,13.775 C34.2275042,12.6214286 34.1935484,11.4678571 34.516129,10.3482143 C35.5687606,6.65 39.1511036,5.71696429 42.0882852,6.93839286 C42.2071307,6.98928571 42.5806452,7.15892857 42.5806452,7.15892857 L41.5959253,9.22857143 C41.5959253,9.22857143 41.1544992,9.12678571 40.7300509,9.025 C39.1001698,8.58392857 37.7249576,9.60178571 37.4193548,11.5357143 C37.2835314,12.3669643 37.2835314,13.2151786 37.5042445,14.0633929 C38.0135823,15.9803571 39.3548387,16.7267857 41.2393888,16.0651786 C41.4091681,15.9973214 41.6468591,15.9973214 41.6468591,15.9973214 L42.4448217,18.2366071 C42.4448217,18.2366071 40.9337861,18.8133929 39.6264856,18.7794643 Z" id="Shape" fill="#009A5F"></path>
                <path d="M20.8149406,1.425 C20.1528014,1.37410714 17.7928693,1.40803571 17.7928693,1.40803571 C17.7928693,1.40803571 17.7928693,4.44464286 17.7928693,5.75089286 C17.7928693,6.78571429 17.7928693,6.78571429 16.7572156,6.65 C14.0747029,6.27678571 11.7487267,7.63392857 10.9337861,10.09375 C10.3904924,11.7053571 10.3735144,13.3678571 10.8319185,15.0133929 C11.3921902,16.98125 12.6655348,18.2196429 14.6689304,18.64375 C16.4516129,19.0339286 18.2003396,18.8303571 19.9490662,18.3553571 C20.5772496,18.1857143 20.8488964,17.8973214 20.8319185,17.1848214 C20.7640068,14.6571429 20.8149406,3.5625 20.8149406,1.425 Z M17.1307301,16.4383929 C15.3310696,16.7098214 14.1426146,15.9973214 13.7181664,14.2330357 C13.4125637,13.0116071 13.4125637,11.7732143 13.9219015,10.5857143 C14.516129,9.17767857 15.959253,8.51607143 17.4193548,8.95714286 C17.8268251,9.07589286 17.8268251,9.34732143 17.8268251,9.66964286 C17.8268251,10.6875 17.8268251,11.7053571 17.8268251,12.7232143 C17.8268251,13.6901786 17.8098472,14.6401786 17.8438031,15.6071429 C17.8268251,16.1160714 17.6910017,16.3535714 17.1307301,16.4383929 Z" id="Shape" fill="#FEFEFE"></path>
                <path d="M9.96604414,13.9107143 C9.96604414,13.9107143 9.96604414,13.9107143 9.96604414,13.9107143 C9.94906621,12.7571429 9.94906621,11.5866071 9.94906621,10.4330357 C9.94906621,10.2125 9.91511036,9.975 9.8811545,9.75446429 C9.67741935,8.09196429 8.81154499,7.09107143 7.18166384,6.68392857 C5.51782683,6.25982143 3.87096774,6.42946429 2.24108659,6.85357143 C1.49405772,7.04017857 1.01867572,7.3625 1.01867572,7.3625 L1.8336163,9.21160714 C1.8336163,9.21160714 2.03735144,9.17767857 2.1901528,9.12678571 C3.36162988,8.73660714 4.58404075,8.43125 5.84040747,8.73660714 C6.67232598,8.94017857 7.06281834,9.46607143 7.13073005,10.2973214 C7.18166384,10.7892857 7.04584041,10.9758929 6.50254669,10.9928571 C5.14431239,11.0607143 3.80305603,11.2303571 2.52971138,11.7392857 C0.831918506,12.4178571 0.101867572,13.5205357 0.169779287,15.2508929 C0.220713073,16.8116071 1.05263158,17.93125 2.71646859,18.4401786 C4.97453311,19.1357143 7.23259762,18.9151786 9.45670628,18.2196429 C9.83022071,18.1008929 9.98302207,17.8803571 9.96604414,17.4732143 C9.94906621,16.2857143 9.96604414,15.0982143 9.96604414,13.9107143 Z M7.13073005,16.6928571 C5.95925297,16.8455357 3.87096774,16.6928571 3.3106961,15.9803571 C2.6655348,15.1660714 2.97113752,13.8767857 3.95585739,13.4017857 C4.83870968,12.9776786 6.38370119,12.8758929 7.13073005,12.9098214 C7.13073005,13.3848214 7.18166384,15.4375 7.13073005,16.6928571 Z" id="Shape" fill="#FEFEFE"></path>
                <path d="M53.0220713,13.9107143 C53.0220713,13.9107143 53.0220713,13.9107143 53.0220713,13.9107143 C53.0050934,12.7571429 53.0050934,11.5866071 53.0050934,10.4330357 C53.0050934,10.2125 52.9711375,9.975 52.9371817,9.75446429 C52.7334465,8.09196429 51.8675722,7.09107143 50.237691,6.68392857 C48.573854,6.25982143 46.9269949,6.42946429 45.2971138,6.85357143 C44.5500849,7.04017857 44.0747029,7.3625 44.0747029,7.3625 L44.8896435,9.21160714 C44.8896435,9.21160714 45.0933786,9.17767857 45.24618,9.12678571 C46.417657,8.73660714 47.6400679,8.43125 48.8964346,8.73660714 C49.7283531,8.94017857 50.1188455,9.46607143 50.1867572,10.2973214 C50.237691,10.7892857 50.1018676,10.9758929 49.5585739,10.9928571 C48.2003396,11.0607143 46.8590832,11.2303571 45.5857385,11.7392857 C43.8879457,12.4178571 43.1578947,13.5205357 43.2258065,15.2508929 C43.2767402,16.8116071 44.1086587,17.93125 45.7724958,18.4401786 C48.0305603,19.1357143 50.2886248,18.9151786 52.5127334,18.2196429 C52.8862479,18.1008929 53.0390492,17.8803571 53.0220713,17.4732143 C53.0220713,16.2857143 53.0220713,15.0982143 53.0220713,13.9107143 Z M50.1867572,16.6928571 C48.9983022,16.8455357 46.9269949,16.6928571 46.3667233,15.9803571 C45.721562,15.1660714 46.0271647,13.8767857 47.0118846,13.4017857 C47.8947368,12.9776786 49.4397284,12.8758929 50.1867572,12.9098214 C50.1867572,13.3848214 50.237691,15.4375 50.1867572,16.6928571 Z" id="Shape" fill="#009A5F"></path>
                <path d="M30.1867572,6.78571429 C30.1697793,6.83660714 30.1528014,6.8875 30.1358234,6.95535714 C29.6095076,8.82142857 28.8964346,11.0607143 28.3531409,12.9267857 C28.098472,13.7919643 27.8438031,14.6741071 27.5382003,15.7598214 C26.8760611,13.5035714 25.5348048,8.85535714 24.8896435,6.78571429 L21.663837,6.78571429 C21.6808149,6.87053571 21.7147708,6.97232143 21.7487267,7.07410714 C22.9032258,10.1955357 25.9932088,18.5758929 25.9932088,18.5758929 L29.1341256,18.5758929 C29.1341256,18.5758929 32.2580645,10.2294643 33.4634975,7.02321429 C33.4974533,6.93839286 33.5144312,6.87053571 33.5314092,6.80267857 L30.1867572,6.80267857 L30.1867572,6.78571429 Z" id="Shape" fill="#FEFEFE"></path>
                <path d="M73.3616299,9.95803571 C73.327674,8.61785714 72.6485569,7.6 71.4091681,7.00625 C70.0339559,6.36160714 68.6078098,6.37857143 67.1986418,6.81964286 C66.5874363,7.00625 66.5365025,6.81964286 66.5534805,6.31071429 C66.5704584,5.41160714 66.4855688,2.03571429 66.5195246,1.35714286 L63.5314092,1.35714286 C63.5314092,1.39107143 63.5314092,1.425 63.5314092,1.45892857 C63.5483871,6.76875 63.5483871,13.1642857 63.5314092,18.4741071 C63.5314092,18.5589286 63.5314092,18.64375 63.5483871,18.7116071 L66.5704584,18.7116071 C66.5874363,18.64375 66.5874363,18.5758929 66.5874363,18.4741071 C66.5704584,17.1508929 66.5704584,15.2508929 66.5874363,13.9276786 C66.5874363,12.6044643 66.5874363,11.2642857 66.5874363,9.94107143 C66.5874363,9.66964286 66.5365025,9.38125 66.8251273,9.17767857 C68.098472,8.24464286 70.2037351,9.04196429 70.3904924,10.6026786 C70.6112054,12.5366071 70.4923599,18.3892857 70.6112054,18.6946429 L73.4125637,18.6946429 C73.4295416,18.6267857 73.4295416,18.5419643 73.4295416,18.4571429 C73.3616299,15.8276786 73.4125637,12.6044643 73.3616299,9.95803571 Z" id="Shape" fill="#009A5F"></path>
                <g id="Group" transform="translate(78.268251, 0.000000)">
                    <polygon id="Shape" fill="#009A5F" points="19.9320883 9.48303571 15.008489 9.48303571 13.7351443 6.90446429 21.6129032 6.90446429"></polygon>
                    <polygon id="Shape" fill="#009A5F" points="17.1307301 13.65625 16.5704584 13.65625 15.6876061 11.0946429 18.811545 11.0946429"></polygon>
                    <polygon id="Shape" fill="#FFFFFF" points="10.8828523 6.8875 15.8064516 18.5928571 19.3378608 18.5928571 10.8828523 0.152678571 2.51273345 18.6267857 6.01018676 18.6098214"></polygon>
                    <polygon id="Shape" fill="#009A5F" points="11.9694397 9.48303571 1.93548387 9.48303571 0.0339558574 6.90446429 10.8828523 6.90446429"></polygon>
                    <polygon id="Shape" fill="#009A5F" points="13.7351443 13.65625 4.78777589 13.65625 2.90322581 11.0946429 12.6315789 11.0946429"></polygon>
                </g>
            </g>
        </g>
    </g>
</svg>