<?xml version="1.0" encoding="UTF-8"?>
<svg width="93px" height="39px" viewBox="0 0 93 39" version="1.1" xmlns="http://www.w3.org/2000/svg" xmlns:xlink="http://www.w3.org/1999/xlink">
    <!-- Generator: Sketch 51.3 (57544) - http://www.bohemiancoding.com/sketch -->
    <title>AmBank_group</title>
    <desc>Created with Sketch.</desc>
    <defs></defs>
    <g id="Page-1" stroke="none" stroke-width="1" fill="none" fill-rule="evenodd">
        <g id="m7-withdraw-balance-0-1366-copy" transform="translate(-197.000000, -1562.000000)">
            <g id="AmBank_group" transform="translate(197.000000, 1562.000000)">
                <g id="g10" transform="translate(46.734564, 19.630886) scale(-1, 1) rotate(-180.000000) translate(-46.734564, -19.630886) translate(0.509712, 0.405534)">
                    <polygon id="path140" fill="#ED1C24" fill-rule="nonzero" points="92.2173899 0.320949401 0.165274482 0.320949401 0.165274482 17.0319001 92.2173899 17.0319001"></polygon>
                    <g id="g142" transform="translate(4.061232, 4.292838)" fill="#FFF200" fill-rule="nonzero">
                        <path d="M3.43934911,3.43309859 L4.40099112,6.22695423 L5.36263314,3.43309859 L3.43934911,3.43309859 Z M5.60132396,8.26209507 L3.26669379,8.26209507 L0.361819527,0.417464789 L2.40754438,0.417464789 L2.9564645,2.00698944 L5.84551775,2.00698944 L6.39512574,0.417464789 L8.50619822,0.417464789 L5.60132396,8.26209507 Z" id="path144"></path>
                    </g>
                    <g id="g146" transform="translate(11.961554, 3.335897)" fill="#FFF200" fill-rule="nonzero">
                        <g id="g148-Clipped" transform="translate(-0.000000, -0.000000)">
                            <g id="g148" transform="translate(0.412722, 0.137324)">
                                <g id="g154" transform="translate(0.205123, 0.640479)">
                                    <path d="M6.1908284,4.80633803 L6.1908284,0.596672535 L4.29299556,0.596672535 L4.29299556,3.56355634 C4.29299556,3.85262324 4.28542899,4.0984331 4.2716716,4.30098592 C4.2579142,4.50422535 4.21939349,4.66901408 4.15610947,4.79603873 C4.09282544,4.92237676 3.99721154,5.01507042 3.86926775,5.0734331 C3.74063609,5.13110915 3.56110207,5.1606338 3.32928994,5.1606338 C3.14356509,5.1606338 2.96196746,5.12286972 2.78656065,5.04734155 C2.61115385,4.97112676 2.45294379,4.89079225 2.31330621,4.80633803 L2.31330621,0.596672535 L0.414785503,0.596672535 L0.414785503,6.50572183 L2.31330621,6.50572183 L2.31330621,5.87059859 C2.63866864,6.12739437 2.95027367,6.32788732 3.2481213,6.47207746 C3.54596893,6.61626761 3.87545858,6.6890493 4.23590237,6.6890493 C4.62523669,6.6890493 4.96848373,6.60184859 5.26633136,6.42744718 C5.56417899,6.25304577 5.79736686,5.99693662 5.9652071,5.65911972 C6.3435355,5.97908451 6.71154586,6.23107394 7.0685503,6.41371479 C7.4262426,6.59704225 7.77636834,6.6890493 8.11961538,6.6890493 C8.75727071,6.6890493 9.24153107,6.49679577 9.57239645,6.11297535 C9.90326183,5.72984155 10.0690385,5.17711268 10.0690385,4.45616197 L10.0690385,0.596672535 L8.17120562,0.596672535 L8.17120562,3.56355634 C8.17120562,3.85605634 8.16432692,4.10255282 8.15194527,4.30441901 C8.14025148,4.50491197 8.10241864,4.66901408 8.03913462,4.79603873 C7.97928994,4.92237676 7.88505178,5.01507042 7.75504438,5.0734331 C7.62503698,5.13110915 7.44206361,5.1606338 7.2075,5.1606338 C7.04928994,5.1606338 6.89451923,5.13316901 6.74387574,5.07823944 C6.59323225,5.02399648 6.40819527,4.93336268 6.1908284,4.80633803" id="path156"></path>
                                </g>
                                <g id="g158" transform="translate(11.473393, 0.928928)">
                                    <path d="M4.12721893,5.49295775 C4.07081361,5.36318662 3.95181213,5.25882042 3.7702145,5.17711268 C3.6402071,5.11737676 3.46273669,5.08167254 3.23849112,5.07205986 C3.01424556,5.06038732 2.74322485,5.05558099 2.42474112,5.05558099 L2.10900888,5.05558099 L2.10900888,6.72612676 L2.29817308,6.72612676 C2.69438609,6.72612676 3.00186391,6.72338028 3.22060651,6.71788732 C3.43934911,6.71308099 3.62232249,6.68149648 3.7702145,6.62519366 C3.93392751,6.56133803 4.04880178,6.46452465 4.11346154,6.3340669 C4.17880917,6.20292254 4.21113905,6.07177817 4.21113905,5.94132042 C4.21113905,5.77172535 4.18362426,5.62272887 4.12721893,5.49295775 M6.35178994,3.97827465 C6.04981509,4.29823944 5.64259615,4.50903169 5.12806953,4.61133803 L5.12806953,4.65253521 C5.49195266,4.81389085 5.77397929,5.03910211 5.97346154,5.32816901 C6.17294379,5.61860915 6.27268491,5.95230634 6.27268491,6.33132042 C6.27268491,6.65746479 6.19977071,6.94790493 6.05463018,7.20264085 C5.90880178,7.45669014 5.68661982,7.65924296 5.38808432,7.8102993 C5.10055473,7.95448944 4.81027367,8.04649648 4.51724112,8.0890669 C4.22420858,8.1309507 3.76196006,8.15223592 3.13049556,8.15223592 L0.0887352071,8.15223592 L0.0887352071,0.308292254 L3.51432692,0.308292254 C4.08319527,0.308292254 4.55369822,0.357042254 4.92446006,0.455915493 C5.29453402,0.554102113 5.63502959,0.719577465 5.94388314,0.952341549 C6.2114645,1.14871479 6.42057692,1.39589789 6.57397189,1.69526408 C6.72667899,1.99325704 6.80372041,2.3331338 6.80372041,2.71352113 C6.80372041,3.23603873 6.65238905,3.65830986 6.35178994,3.97827465 M4.58327663,2.23288732 C4.5041716,2.08526408 4.35971893,1.96716549 4.14991864,1.87859155 C3.94355769,1.78933099 3.71793639,1.74332746 3.47305473,1.73989437 C3.22817308,1.73646127 2.82232988,1.73508803 2.25621302,1.73508803 L2.10900888,1.73508803 L2.10900888,3.71049296 L2.54993343,3.71049296 C2.85053254,3.71049296 3.13875,3.70911972 3.41596154,3.705 C3.69179734,3.70225352 3.90847633,3.67753521 4.06599852,3.63084507 C4.29712278,3.56355634 4.46014793,3.46125 4.5564497,3.32461268 C4.65275148,3.18797535 4.70090237,2.99366197 4.70090237,2.74167254 C4.70090237,2.54941901 4.66169379,2.37982394 4.58327663,2.23288732" id="path160"></path>
                                </g>
                                <g id="g162" transform="translate(18.020814, 0.394600)">
                                    <path d="M4.12721893,2.05985915 C3.93736686,1.98227113 3.75026627,1.9431338 3.56522929,1.9431338 C3.33341716,1.9431338 3.16213757,1.95961268 3.05276627,1.99394366 C2.94339497,2.02758803 2.8491568,2.07977113 2.77073964,2.15049296 C2.68888314,2.22121479 2.6372929,2.29536972 2.6166568,2.37364437 C2.59602071,2.45191901 2.58639053,2.55353873 2.58639053,2.67713028 C2.58639053,2.86526408 2.63454142,3.01700704 2.73221893,3.13167254 C2.82989645,3.24771127 2.97090976,3.33559859 3.15525888,3.39533451 C3.3052145,3.44545775 3.52602071,3.48802817 3.81698964,3.52579225 C4.10727071,3.56286972 4.37760355,3.59239437 4.6273003,3.61367958 L4.6273003,2.36883803 C4.4835355,2.24112676 4.31707101,2.13744718 4.12721893,2.05985915 Z M4.6273003,0.842482394 L6.52582101,0.842482394 L6.52582101,4.87225352 C6.52582101,5.58290493 6.28644231,6.1040493 5.80906065,6.43568662 C5.33167899,6.76869718 4.55576183,6.93485915 3.48199704,6.93485915 C3.03006657,6.93485915 2.5801997,6.89846831 2.13102071,6.82774648 C1.68115385,6.75565141 1.35647929,6.69385563 1.15768491,6.64167254 L1.15768491,5.2231162 L1.32965237,5.2231162 C1.4816716,5.28353873 1.73411982,5.37073944 2.08493343,5.48265845 C2.43574704,5.59457746 2.76523669,5.65088028 3.07477811,5.65088028 C3.58861686,5.65088028 3.97795118,5.58702465 4.2420932,5.45931338 C4.50623521,5.33160211 4.63761834,5.10089789 4.63761834,4.76651408 L4.63761834,4.73424296 C4.08525888,4.70265845 3.55215976,4.65253521 3.03832101,4.5859331 C2.52448225,4.51795775 2.09318787,4.40535211 1.74650148,4.24605634 C1.39568787,4.08744718 1.12466716,3.86910211 0.933439349,3.59376761 C0.742211538,3.31774648 0.647285503,2.96207746 0.647285503,2.52744718 C0.647285503,1.98227113 0.834386095,1.53528169 1.20996302,1.18441901 C1.58485207,0.834929577 2.04985207,0.65915493 2.60565089,0.65915493 C2.84227811,0.65915493 3.05964497,0.68318662 3.25706361,0.729876761 C3.45517012,0.777253521 3.64571006,0.843855634 3.83005917,0.932429577 C3.96213018,0.994911972 4.10245562,1.08142606 4.25172337,1.18991197 C4.40099112,1.29908451 4.52618343,1.39177817 4.6273003,1.4693662 L4.6273003,0.842482394 Z" id="path164"></path>
                                </g>
                                <g id="g166" transform="translate(25.469206, 1.237357)">
                                    <path d="M6.1908284,0 L4.29230769,0 L4.29230769,2.94559859 C4.29230769,3.18522887 4.28061391,3.42348592 4.25516272,3.66174296 C4.23039941,3.9 4.18843935,4.07577465 4.12859467,4.18838028 C4.05843195,4.31883803 3.95525148,4.41359155 3.81974112,4.47332746 C3.68423077,4.53375 3.49506657,4.56396127 3.25224852,4.56396127 C3.0795932,4.56396127 2.90487426,4.53580986 2.72740385,4.47882042 C2.54993343,4.42251761 2.35664201,4.33257042 2.1495932,4.20966549 L2.1495932,0 L0.251072485,0 L0.251072485,5.90836268 L2.1495932,5.90836268 L2.1495932,5.27323944 C2.48596154,5.53758803 2.80926036,5.74014085 3.12017751,5.88089789 C3.43109467,6.02165493 3.77571746,6.09169014 4.15473373,6.09169014 C4.79307692,6.09169014 5.29178254,5.9056162 5.65153846,5.53209507 C6.01060651,5.15926056 6.1908284,4.60172535 6.1908284,3.85880282 L6.1908284,0 Z" id="path168"></path>
                                </g>
                            </g>
                        </g>
                    </g>
                    <g id="g170" transform="translate(44.606480, 4.710578)" fill="#FFF200" fill-rule="nonzero">
                        <polygon id="path172" points="6.87869822 0 4.68370562 0 3.01149408 2.58443662 2.49008876 1.94794014 2.49008876 0 0.592255917 0 0.592255917 8.19068662 2.49008876 8.19068662 2.49008876 3.3252993 4.52411982 5.90836268 6.73630917 5.90836268 4.59497041 3.36169014"></polygon>
                    </g>
                    <g id="g182" transform="translate(54.428711, 4.472115)" fill="#FFF200" fill-rule="nonzero">
                        <path d="M7.56656805,0.686619718 C7.21575444,0.549982394 6.75075444,0.41334507 6.17225592,0.278080986 C5.59238166,0.143503521 5.01594675,0.075528169 4.44088757,0.075528169 C3.10710799,0.075528169 2.06360947,0.43806338 1.30901627,1.16450704 C0.554423077,1.89026408 0.177470414,2.89410211 0.177470414,4.17327465 C0.177470414,5.39408451 0.557862426,6.37732394 1.31864645,7.1243662 C2.0787426,7.87140845 3.13875,8.2456162 4.49798077,8.2456162 C5.01319527,8.2456162 5.50364645,8.19892606 5.97002219,8.10623239 C6.43639793,8.01285211 6.95436391,7.82883803 7.52598373,7.55213028 L7.52598373,5.71885563 L7.29967456,5.71885563 C7.20199704,5.7909507 7.05823225,5.89257042 6.86906805,6.02371479 C6.67990385,6.15485915 6.49830621,6.26609155 6.32358728,6.35878521 C6.12066568,6.46795775 5.88266272,6.56202465 5.61164201,6.6402993 C5.3406213,6.71857394 5.05240385,6.75839789 4.74767751,6.75839789 C4.39067308,6.75839789 4.06668639,6.70552817 3.7770932,6.59978873 C3.48612426,6.4940493 3.22473373,6.33269366 2.99429734,6.11503521 C2.77349112,5.90424296 2.59946006,5.63646127 2.47220414,5.31100352 C2.34357249,4.98554577 2.28028846,4.61065141 2.28028846,4.18494718 C2.28028846,3.31705986 2.50934911,2.65241197 2.96678254,2.19237676 C3.42490385,1.73234155 4.10107988,1.50163732 4.99599852,1.50163732 C5.07303994,1.50163732 5.1583358,1.50301056 5.25051036,1.50713028 C5.34268491,1.51056338 5.42798077,1.51536972 5.50502219,1.52292254 L5.50502219,3.07056338 L3.95387574,3.07056338 L3.95387574,4.55778169 L7.56656805,4.55778169 L7.56656805,0.686619718 Z" id="path184"></path>
                    </g>
                    <g id="g186" transform="translate(62.594620, 4.665536)" fill="#FFF200" fill-rule="nonzero">
                        <path d="M4.81508876,4.11971831 L4.64656065,4.11971831 C4.56607988,4.1471831 4.43607249,4.16778169 4.2579142,4.18082746 C4.07838018,4.19455986 3.9298003,4.20142606 3.81079882,4.20142606 C3.54046598,4.20142606 3.30177515,4.18426056 3.09472633,4.14924296 C2.88767751,4.11353873 2.66549556,4.05517606 2.42680473,3.97140845 L2.42680473,0.0453169014 L0.528971893,0.0453169014 L0.528971893,5.95367958 L2.42680473,5.95367958 L2.42680473,5.08510563 C2.84434172,5.44283451 3.20684911,5.67697183 3.51570266,5.78751761 C3.82455621,5.89806338 4.10795858,5.95367958 4.36797337,5.95367958 C4.43400888,5.95367958 4.50967456,5.95161972 4.59359467,5.94818662 C4.67820266,5.9440669 4.75180473,5.93926056 4.81508876,5.93239437 L4.81508876,4.11971831 Z" id="path188"></path>
                    </g>
                    <g id="g190" transform="translate(67.088198, 3.878395)" fill="#FFF200" fill-rule="nonzero">
                        <path d="M4.12721893,2.05985915 C3.97107249,2.00149648 3.80735947,1.97334507 3.63470414,1.97334507 C3.43384615,1.97334507 3.255,2.00492958 3.09954142,2.06741197 C2.9427071,2.13058099 2.80788462,2.23014085 2.69576183,2.36677817 C2.57951183,2.51028169 2.49215237,2.69978873 2.43230769,2.93598592 C2.37246302,3.1721831 2.34357249,3.45163732 2.34357249,3.77366197 C2.34357249,4.13413732 2.37727811,4.4328169 2.44606509,4.67038732 C2.5141642,4.90864437 2.60633876,5.09609155 2.72258876,5.23272887 C2.85259615,5.37897887 2.98879438,5.47716549 3.13118343,5.52660211 C3.27357249,5.57466549 3.43590976,5.60007042 3.61888314,5.60007042 C3.80116864,5.60007042 3.97176036,5.56985915 4.12997041,5.51012324 C4.28818047,5.45107394 4.42300296,5.34945423 4.53650148,5.2059507 C4.64862426,5.06588028 4.7366716,4.8784331 4.79926775,4.64429577 C4.86255178,4.41015845 4.89488166,4.11971831 4.89488166,3.77366197 C4.89488166,3.39945423 4.86323964,3.10558099 4.80201923,2.89410211 C4.74079882,2.68193662 4.64862426,2.50135563 4.52549556,2.35098592 C4.41612426,2.21434859 4.28405325,2.11753521 4.12721893,2.05985915 M6.00923077,6.08276408 C5.44655325,6.64304577 4.65,6.92387324 3.61888314,6.92387324 C2.60152367,6.92387324 1.80772189,6.64510563 1.23885355,6.08757042 C0.668609467,5.53003521 0.383831361,4.76239437 0.383831361,3.78396127 C0.383831361,2.81239437 0.667233728,2.04681338 1.23335059,1.48790493 C1.79946746,0.928309859 2.59464497,0.648855634 3.61888314,0.648855634 C4.6431213,0.648855634 5.43829882,0.928309859 6.00441568,1.48790493 C6.57122041,2.04681338 6.85393491,2.81239437 6.85393491,3.78396127 C6.85393491,4.75484155 6.57259615,5.52179577 6.00923077,6.08276408" id="path192"></path>
                    </g>
                    <g id="g194" transform="translate(74.432722, 4.023958)" fill="#FFF200" fill-rule="nonzero">
                        <path d="M6.1908284,0.686619718 L4.29299556,0.686619718 L4.29299556,1.32174296 C3.94218195,1.05396127 3.62094675,0.850721831 3.32997781,0.712024648 C3.03900888,0.572640845 2.69094675,0.503292254 2.28785503,0.503292254 C1.63575444,0.503292254 1.1329216,0.691426056 0.780044379,1.06769366 C0.42785503,1.44464789 0.251760355,2.00080986 0.251760355,2.73617958 L0.251760355,6.59498239 L2.1495932,6.59498239 L2.1495932,3.6493838 C2.1495932,3.34933099 2.15922337,3.10008803 2.17848373,2.90096831 C2.19774408,2.70184859 2.24245562,2.53705986 2.31330621,2.40660211 C2.38002959,2.27614437 2.48183432,2.18070423 2.6166568,2.12096831 C2.75216716,2.06123239 2.94133136,2.03102113 3.18414941,2.03102113 C3.34648669,2.03102113 3.52533284,2.06123239 3.72275148,2.12096831 C3.91948225,2.18070423 4.10933432,2.26927817 4.29299556,2.38600352 L4.29299556,6.59498239 L6.1908284,6.59498239 L6.1908284,0.686619718 Z" id="path196"></path>
                    </g>
                    <g id="g198" transform="translate(81.557402, 2.254882)" fill="#FFF200" fill-rule="nonzero">
                        <path d="M4.12721893,4.11971831 C3.88096154,3.82515845 3.50607249,3.67822183 3.00323964,3.67822183 C2.86222633,3.67822183 2.71983728,3.68508803 2.57607249,3.69950704 C2.43161982,3.71323944 2.29610947,3.74551056 2.16954142,3.79494718 L2.16954142,6.78380282 C2.34219675,6.88542254 2.52310651,6.9643838 2.71295858,7.01862676 C2.90281065,7.07355634 3.08784763,7.10033451 3.26738166,7.10033451 C3.69248521,7.10033451 4.00409024,6.97056338 4.20082101,6.70964789 C4.39823964,6.44873239 4.49660503,6.02852113 4.49660503,5.45038732 C4.49660503,4.85783451 4.37347633,4.41427817 4.12721893,4.11971831 M5.84070266,7.73408451 C5.43073225,8.27651408 4.85636095,8.54772887 4.11758876,8.54772887 C3.71931213,8.54772887 3.36849852,8.47151408 3.06377219,8.32183099 C2.75973373,8.17077465 2.46119822,7.97989437 2.16954142,7.74850352 L2.16954142,8.36440141 L0.27170858,8.36440141 L0.27170858,0.296619718 L2.16954142,0.296619718 L2.16954142,2.74373239 C2.41579882,2.61396127 2.65724112,2.51371479 2.8924926,2.44161972 C3.12843195,2.36952465 3.41527367,2.3331338 3.75370562,2.3331338 C4.11965237,2.3331338 4.46289941,2.40385563 4.78275888,2.54461268 C5.10261834,2.68605634 5.38946006,2.89341549 5.64259615,3.16875 C5.8854142,3.42897887 6.08214497,3.75992958 6.23141272,4.16228873 C6.38068047,4.56327465 6.45565828,5.00889085 6.45565828,5.4984507 C6.45565828,6.44598592 6.25067308,7.19096831 5.84070266,7.73408451" id="path200"></path>
                    </g>
                    <g id="g202" transform="translate(31.819943, 21.069224)">
                        <g id="Group-19">
                            <path d="M11.0059172,6.31690141 C10.4074704,5.62478873 9.5256213,5.18741197 8.53715237,5.18741197 C6.74043639,5.18741197 5.28490385,6.63961268 5.28490385,8.43306338 C5.28490385,10.2258275 6.74043639,11.6787148 8.53715237,11.6787148 C10.3338683,11.6787148 11.7907766,10.2258275 11.7907766,8.43306338 L11.7907766,0.163415493 L16.8280473,0.163415493 L16.8239201,8.39873239 C16.8239201,12.9681866 13.1142382,16.6704401 8.53715237,16.6704401 C3.96213018,16.6704401 0.252448225,12.9681866 0.252448225,8.39873239 C0.252448225,3.83065141 3.96213018,0.128397887 8.53715237,0.128397887 C9.39492604,0.128397887 10.2231213,0.258169014 11.0017899,0.501232394 L11.0059172,6.31690141 Z" id="path204" fill="#ED1C24" fill-rule="nonzero"></path>
                            <path d="M19.151534,0.198021127 C19.5106021,0.150644366 19.8786124,0.125926056 20.2486864,0.125926056 C24.8250843,0.125926056 28.5340784,3.8288662 28.5340784,8.39557394 C28.5340784,12.9643415 24.8250843,16.6679683 20.2486864,16.6679683 C18.2476731,16.6679683 16.4083092,15.9573169 14.9747885,14.7756444 L14.9844186,14.7571056 C16.2322145,13.4909789 17.1071849,11.8595704 17.4339231,10.0393415 L17.4463047,10.0441479 C18.0124216,11.002669 19.0559201,11.6425986 20.2486864,11.6425986 C22.0467781,11.6425986 23.5023107,10.1897113 23.5023107,8.39557394 C23.5023107,6.60486972 22.0467781,5.14923592 20.2486864,5.14923592 C19.8627914,5.14923592 19.4920296,5.21721127 19.1453432,5.34217606 L19.151534,0.198021127 Z" id="path212" fill="#ED1C24" fill-rule="nonzero"></path>
                            <path d="M11.0059172,6.31690141 C10.4074704,5.62478873 9.5256213,5.18741197 8.53715237,5.18741197 C6.74043639,5.18741197 5.28490385,6.63961268 5.28490385,8.43306338 C5.28490385,10.2258275 6.74043639,11.6787148 8.53715237,11.6787148 C10.3338683,11.6787148 11.7907766,10.2258275 11.7907766,8.43306338 L11.7907766,0.163415493 L16.8280473,0.163415493 L16.8239201,8.39873239 C16.8239201,12.9681866 13.1142382,16.6704401 8.53715237,16.6704401 C3.96213018,16.6704401 0.252448225,12.9681866 0.252448225,8.39873239 C0.252448225,3.83065141 3.96213018,0.128397887 8.53715237,0.128397887 C9.39492604,0.128397887 10.2231213,0.258169014 11.0017899,0.501232394 L11.0059172,6.31690141 Z" id="path208" stroke="#ED1C24" stroke-width="0.5"></path>
                            <path d="M19.151534,0.198021127 C19.5106021,0.150644366 19.8786124,0.125926056 20.2486864,0.125926056 C24.8250843,0.125926056 28.5340784,3.8288662 28.5340784,8.39557394 C28.5340784,12.9643415 24.8250843,16.6679683 20.2486864,16.6679683 C18.2476731,16.6679683 16.4083092,15.9573169 14.9747885,14.7756444 L14.9844186,14.7571056 C16.2322145,13.4909789 17.1071849,11.8595704 17.4339231,10.0393415 L17.4463047,10.0441479 C18.0124216,11.002669 19.0559201,11.6425986 20.2486864,11.6425986 C22.0467781,11.6425986 23.5023107,10.1897113 23.5023107,8.39557394 C23.5023107,6.60486972 22.0467781,5.14923592 20.2486864,5.14923592 C19.8627914,5.14923592 19.4920296,5.21721127 19.1453432,5.34217606 L19.151534,0.198021127 Z" id="path216" stroke="#ED1C24" stroke-width="0.5"></path>
                        </g>
                    </g>
                    <g id="g210" transform="translate(46.706684, 21.129921)"></g>
                    <g id="Group-17" transform="translate(31.366864, 20.873239)">
                        <g id="g206" transform="translate(0.453079, 0.195985)"></g>
                        <g id="g214" transform="translate(15.339820, 0.256682)"></g>
                    </g>
                </g>
            </g>
        </g>
    </g>
</svg>