<?xml version="1.0" encoding="UTF-8"?>
<svg width="100px" height="26px" viewBox="0 0 100 26" version="1.1" xmlns="http://www.w3.org/2000/svg" xmlns:xlink="http://www.w3.org/1999/xlink">
    <!-- Generator: Sketch 49.2 (51160) - http://www.bohemiancoding.com/sketch -->
    <title>astropay copy</title>
    <desc>Created with Sketch.</desc>
    <defs></defs>
    <g id="Page-1" stroke="none" stroke-width="1" fill="none" fill-rule="evenodd">
        <g id="m7-withdraw-balance-0-1366" transform="translate(-953.000000, -2101.000000)" fill-rule="nonzero">
            <g id="astropay-copy" transform="translate(953.000000, 2101.000000)">
                <g id="Group" transform="translate(0.000000, 0.423729)" fill="#FFFFFF">
                    <path d="M4.66101695,12.8813559 L2.71186441,18.7288136 L0.211864407,18.7288136 L6.52542373,0.169491525 L9.40677966,0.169491525 L15.7627119,18.7288136 L13.220339,18.7288136 L11.2288136,12.8813559 L4.66101695,12.8813559 Z M10.7627119,10.9745763 L8.94067797,5.63559322 C8.51694915,4.40677966 8.26271186,3.30508475 7.96610169,2.24576271 L7.92372881,2.24576271 C7.66949153,3.34745763 7.33050847,4.49152542 6.99152542,5.59322034 L5.16949153,10.9745763 L10.7627119,10.9745763 Z" id="Shape"></path>
                    <path d="M17.9661017,16.2288136 C18.6864407,16.6949153 19.9576271,17.2033898 21.1440678,17.2033898 C22.9237288,17.2033898 23.7288136,16.3135593 23.7288136,15.2118644 C23.7288136,14.0677966 23.0508475,13.4322034 21.2288136,12.7542373 C18.8135593,11.9067797 17.7118644,10.5932203 17.7118644,8.98305085 C17.7118644,6.8220339 19.4491525,5.08474576 22.3305085,5.08474576 C23.6864407,5.08474576 24.8728814,5.46610169 25.5932203,5.93220339 L25,7.71186441 C24.4915254,7.37288136 23.5169492,6.94915254 22.2881356,6.94915254 C20.8474576,6.94915254 20.0423729,7.79661017 20.0423729,8.77118644 C20.0423729,9.87288136 20.8474576,10.3813559 22.5847458,11.0169492 C24.9152542,11.9067797 26.1016949,13.0508475 26.1016949,15.0423729 C26.1016949,17.3728814 24.279661,19.0254237 21.1016949,19.0254237 C19.6610169,19.0254237 18.3050847,18.6864407 17.3728814,18.1355932 L17.9661017,16.2288136 Z" id="Shape"></path>
                    <path d="M32.1186441,1.52542373 L32.1186441,5.33898305 L35.5932203,5.33898305 L35.5932203,7.20338983 L32.1186441,7.20338983 L32.1186441,14.4067797 C32.1186441,16.059322 32.5847458,16.9915254 33.940678,16.9915254 C34.5762712,16.9915254 35.0423729,16.9067797 35.3389831,16.8220339 L35.4661017,18.6440678 C35,18.8559322 34.2372881,18.9830508 33.3050847,18.9830508 C32.1610169,18.9830508 31.2711864,18.6440678 30.6779661,17.9661017 C30,17.2457627 29.7457627,16.059322 29.7457627,14.4915254 L29.7457627,7.20338983 L27.6694915,7.20338983 L27.6694915,5.33898305 L29.7457627,5.33898305 L29.7457627,2.16101695 L32.1186441,1.52542373 Z" id="Shape"></path>
                    <path d="M38.3050847,9.53389831 C38.3050847,7.96610169 38.2627119,6.61016949 38.1779661,5.38135593 L40.2966102,5.38135593 L40.3813559,8.00847458 L40.5084746,8.00847458 C41.1016949,6.22881356 42.5847458,5.08474576 44.1949153,5.08474576 C44.4491525,5.08474576 44.6610169,5.12711864 44.8728814,5.16949153 L44.8728814,7.45762712 C44.6186441,7.41525424 44.3644068,7.37288136 44.0254237,7.37288136 C42.3305085,7.37288136 41.1016949,8.68644068 40.7627119,10.4661017 C40.720339,10.8050847 40.6355932,11.1864407 40.6355932,11.6101695 L40.6355932,18.7288136 L38.220339,18.7288136 L38.220339,9.53389831 L38.3050847,9.53389831 Z" id="Shape"></path>
                    <path d="M59.1101695,11.9067797 C59.1101695,16.8220339 55.6779661,18.9830508 52.4576271,18.9830508 C48.8559322,18.9830508 46.059322,16.3559322 46.059322,12.1186441 C46.059322,7.66949153 48.9830508,5.04237288 52.6694915,5.04237288 C56.5254237,5.08474576 59.1101695,7.83898305 59.1101695,11.9067797 Z M48.5169492,12.0762712 C48.5169492,15 50.2118644,17.2033898 52.5847458,17.2033898 C54.9152542,17.2033898 56.6525424,15.0423729 56.6525424,12.0338983 C56.6525424,9.78813559 55.5084746,6.90677966 52.6694915,6.90677966 C49.7457627,6.90677966 48.5169492,9.53389831 48.5169492,12.0762712 Z" id="Shape"></path>
                </g>
                <g id="Group" transform="translate(61.864407, 0.423729)" fill="#818285">
                    <path d="M0.169491525,0.338983051 C1.31355932,0.127118644 2.83898305,0 4.78813559,0 C7.16101695,0 8.89830508,0.550847458 10,1.52542373 C11.0169492,2.41525424 11.6101695,3.77118644 11.6101695,5.42372881 C11.6101695,7.11864407 11.1016949,8.43220339 10.1694915,9.40677966 C8.89830508,10.7627119 6.8220339,11.440678 4.49152542,11.440678 C3.77118644,11.440678 3.13559322,11.3983051 2.58474576,11.2711864 L2.58474576,18.7288136 L0.169491525,18.7288136 L0.169491525,0.338983051 Z M2.58474576,9.3220339 C3.09322034,9.44915254 3.77118644,9.53389831 4.57627119,9.53389831 C7.45762712,9.53389831 9.23728814,8.13559322 9.23728814,5.55084746 C9.23728814,3.09322034 7.5,1.90677966 4.87288136,1.90677966 C3.81355932,1.90677966 3.00847458,1.99152542 2.62711864,2.11864407 L2.62711864,9.3220339 L2.58474576,9.3220339 Z" id="Shape"></path>
                    <path d="M21.440678,18.6864407 L21.2288136,16.9915254 L21.1440678,16.9915254 C20.3813559,18.0508475 18.9830508,18.9830508 17.0762712,18.9830508 C14.3644068,18.9830508 13.0084746,17.0762712 13.0084746,15.1694915 C13.0084746,11.9491525 15.8898305,10.1694915 21.0169492,10.2118644 L21.0169492,9.91525424 C21.0169492,8.81355932 20.720339,6.8220339 17.9661017,6.8220339 C16.7372881,6.8220339 15.4237288,7.20338983 14.4915254,7.79661017 L13.940678,6.18644068 C15.0423729,5.46610169 16.6525424,5 18.3050847,5 C22.3728814,5 23.3898305,7.79661017 23.3898305,10.4661017 L23.3898305,15.4661017 C23.3898305,16.6101695 23.4322034,17.7542373 23.6016949,18.6440678 L21.440678,18.6440678 L21.440678,18.6864407 Z M21.059322,11.9067797 C18.4322034,11.8644068 15.4237288,12.3305085 15.4237288,14.9152542 C15.4237288,16.4830508 16.4830508,17.2457627 17.7118644,17.2457627 C19.4491525,17.2457627 20.5508475,16.1440678 20.9322034,15 C21.0169492,14.7457627 21.059322,14.4915254 21.059322,14.2372881 L21.059322,11.9067797 Z" id="Shape"></path>
                    <path d="M27.9661017,5.38135593 L30.8898305,13.2627119 C31.1864407,14.1525424 31.5254237,15.2118644 31.7372881,15.9745763 L31.779661,15.9745763 C32.0338983,15.1694915 32.2881356,14.1525424 32.6271186,13.1779661 L35.2542373,5.33898305 L37.7966102,5.33898305 L34.1525424,14.8305085 C32.4152542,19.4067797 31.2288136,21.7372881 29.5762712,23.1779661 C28.3898305,24.2372881 27.2033898,24.6186441 26.6101695,24.7457627 L26.0169492,22.7118644 C26.6101695,22.5 27.4152542,22.1186441 28.1355932,21.5254237 C28.8135593,21.0169492 29.6186441,20.0847458 30.1694915,18.8135593 C30.2966102,18.559322 30.3813559,18.3898305 30.3813559,18.220339 C30.3813559,18.0932203 30.3389831,17.8813559 30.2118644,17.5847458 L25.2966102,5.29661017 L27.9661017,5.29661017 L27.9661017,5.38135593 Z" id="Shape"></path>
                </g>
                <path d="M11.5677966,2.92372881 C11.5677966,2.92372881 14.1101695,1.22881356 17.7966102,0.677966102 C26.059322,-0.593220339 30.720339,1.56779661 30.720339,1.56779661 L29.4067797,1.90677966 C29.4067797,1.90677966 26.059322,0.889830508 22.3728814,1.3559322 C16.2288136,2.11864407 12.4576271,5.55084746 12.4576271,5.55084746 L11.5677966,2.92372881 Z" id="Shape" fill="#F02E24"></path>
            </g>
        </g>
    </g>
</svg>