<?xml version="1.0" encoding="UTF-8" standalone="no"?>
<svg width="58px" height="36px" viewBox="0 0 58 36" version="1.1" xmlns="http://www.w3.org/2000/svg" xmlns:xlink="http://www.w3.org/1999/xlink">
    <!-- Generator: Sketch 49.2 (51160) - http://www.bohemiancoding.com/sketch -->
    <title>bancontact</title>
    <desc>Created with Sketch.</desc>
    <defs></defs>
    <g id="Page-1" stroke="none" stroke-width="1" fill="none" fill-rule="evenodd">
        <g id="m7-withdraw-balance-0-1366" transform="translate(-778.000000, -1436.000000)">
            <g id="bancontact" transform="translate(778.000000, 1436.000000)">
                <path d="M51.0500585,6.15303578 L48.3714459,6.15303578 L35.9923836,6.15303578 L33.313771,6.15303578 L31.5099693,8.169978 L25.6565116,14.7145153 L25.6565116,14.7147405 L23.8527099,16.7314576 L21.1738706,16.7314576 L9.029663,16.7314576 L6.35082368,16.7314576 L8.12674204,14.6890756 L8.96732224,13.7223662 L10.7432406,11.6799843 L8.06440127,11.6799843 L4.61253648,11.6799843 L2.67883932,11.6799843 C1.20555704,11.6799843 0,12.9076197 0,14.4078879 L0,14.408113 L0,19.6761617 L0,20.1637939 C0,21.6642872 1.20555704,22.8919226 2.67883932,22.8919226 L3.43146236,22.8919226 L31.5378526,22.8919226 L33.5529328,22.8919226 C35.0262151,22.8919226 37.0388017,21.980145 38.0253726,20.8657501 L42.6954893,15.5904973 L51.0500585,6.15303578 Z" id="Fill-1" fill="#005596"></path>
                <path d="M54.6136153,2.25130283e-05 C56.0868975,2.25130283e-05 57.2924546,1.22765795 57.2924546,2.72815129 L57.2924546,8.48383213 C57.2924546,9.98410034 56.0868975,11.2119609 54.6136153,11.2119609 L53.160282,11.2119609 L49.2543498,11.2119609 L46.5755105,11.2119609 L48.3682041,9.18488783 L48.3684308,9.18488783 L49.2572968,8.17990624 L51.0499905,6.1530583 L33.3139297,6.1530583 L23.8528686,16.7391345 L6.24239609,16.7391345 L18.8717282,2.55750254 L19.3495985,2.02079194 C20.3395698,0.909323729 22.3548767,2.25130283e-05 23.828159,2.25130283e-05 L24.4502065,2.25130283e-05 L54.6136153,2.25130283e-05 Z" id="Fill-3" fill="#FFDC00"></path>
                <path d="M6.03714763,32.676535 C6.03714763,32.3007926 5.94783031,31.9754793 5.76964907,31.7008204 C5.59124114,31.4261614 5.35661317,31.2165651 5.06553848,31.0720315 C5.35661317,30.9274979 5.58217339,30.7140743 5.74244583,30.4322112 C5.90249157,30.1503481 5.98251445,29.8324642 5.98251445,29.4783342 L5.98251445,29.2831463 C5.98251445,28.8493202 5.89886448,28.4879861 5.73156453,28.1989188 C5.5640379,27.9098515 5.32918324,27.6784176 5.02722724,27.5050673 C4.72527125,27.3314918 4.36301474,27.2069948 3.94113778,27.1309008 C3.51880744,27.0550318 3.04955151,27.01721 2.5326899,27.01721 C2.35813576,27.01721 2.17610072,27.020812 1.98703819,27.0280162 C1.79752226,27.0352204 1.61390038,27.0442256 1.43571914,27.0550318 C1.2573112,27.0658381 1.09341167,27.0786705 0.944473914,27.0930789 C0.795082774,27.1077123 0.673121569,27.1221207 0.578590301,27.1363039 C0.367538477,27.172775 0.21837403,27.2376125 0.13109696,27.3314918 C0.04381989,27.4255963 6.80081061e-05,27.5955697 6.80081061e-05,27.8411868 L6.80081061e-05,34.4330015 C6.80081061e-05,34.6786186 0.0454067458,34.848592 0.136537609,34.9424713 C0.227441778,35.0365758 0.382046873,35.1014133 0.600579589,35.1376593 C0.709619253,35.1592718 0.840648205,35.1772822 0.993439751,35.1919157 C1.1462313,35.206324 1.31171769,35.2189313 1.49012562,35.2297376 C1.66853356,35.2405438 1.85215544,35.249549 2.04144467,35.2569783 C2.2307339,35.2639574 2.41616934,35.2677846 2.59820437,35.2677846 C3.0713141,35.2677846 3.51699389,35.2315386 3.93569713,35.1592718 C4.35394699,35.0872301 4.71779036,34.9586807 5.02722724,34.774299 C5.33666413,34.5901424 5.58217339,34.3406981 5.76420843,34.0264162 C5.94601676,33.7119092 6.03714763,33.3161302 6.03714763,32.8390791 L6.03714763,32.676535 Z M4.1812064,29.5650094 C4.1812064,29.6807263 4.1630709,29.7910402 4.12657322,29.8957258 C4.09007554,30.0004113 4.0302284,30.0906886 3.94657843,30.1667826 C3.86270177,30.2426515 3.750035,30.3041121 3.60812475,30.3509392 C3.4662145,30.3979914 3.28599302,30.421405 3.067687,30.421405 L1.84512794,30.421405 L1.84512794,28.5458446 C1.88139893,28.5458446 1.93784566,28.5440435 2.01424143,28.5404415 C2.0906372,28.5368394 2.17066008,28.5350383 2.25431005,28.5350383 L2.49460536,28.5350383 L2.67460014,28.5350383 C3.23498694,28.5350383 3.62626025,28.6055041 3.84819337,28.7464357 C4.07012649,28.8873672 4.1812064,29.1059687 4.1812064,29.4022402 L4.1812064,29.5650094 Z M4.22495828,32.7958541 C4.22495828,33.0993297 4.11750547,33.3343657 3.90282655,33.5005119 C3.68814763,33.6668831 3.30050142,33.7499562 2.74011462,33.7499562 L2.56011983,33.7499562 C2.47624317,33.7499562 2.3889661,33.7481552 2.29806193,33.7445531 C2.20693107,33.740951 2.119654,33.7389248 2.03600402,33.7389248 L1.84512794,33.7389248 L1.84512794,31.7116266 L3.067687,31.7116266 C3.50429904,31.7116266 3.80625504,31.8075321 3.97378167,31.9988929 C4.14108162,32.1904787 4.22495828,32.4162844 4.22495828,32.676535 L4.22495828,32.7958541 Z M12.0195941,31.0828378 C12.0195941,30.6854828 11.9595202,30.3473371 11.8393726,30.0690761 C11.7194516,29.7910402 11.5501114,29.5632083 11.3318054,29.3860308 C11.1134994,29.2090784 10.8460008,29.0789531 10.5293098,28.99588 C10.2128454,28.9128069 9.85806975,28.8711578 9.46498289,28.8711578 C9.10091283,28.8711578 8.7461372,28.8965976 8.40065602,28.9470268 C8.05472145,28.9976811 7.7799687,29.0483354 7.57639777,29.0987646 C7.43811462,29.1350105 7.36897305,29.2144815 7.36897305,29.3371775 L7.36897305,30.2154108 C7.36897305,30.2879027 7.38710854,30.338557 7.42360622,30.3671486 C7.45987721,30.3961904 7.5070295,30.4105987 7.56551647,30.4105987 L7.61992296,30.4105987 C7.70742672,30.4033946 7.81646639,30.3943893 7.94749534,30.3835831 C8.07852429,30.3727768 8.22587519,30.3637716 8.38977472,30.3563423 C8.55344757,30.3493633 8.72437461,30.3439602 8.90278254,30.3401329 C9.08096378,30.3365309 9.25755816,30.3347298 9.432339,30.3347298 C9.68691601,30.3347298 9.88708654,30.381782 10.0326239,30.4756614 C10.1781612,30.5697658 10.2509299,30.772158 10.2509299,31.0828378 L10.2509299,31.4732137 L9.66152632,31.4732137 C8.72256106,31.4732137 8.04021306,31.6195483 7.61448231,31.9122177 C7.18875156,32.2048871 6.97588619,32.6693309 6.97588619,33.3053239 L6.97588619,33.4030305 C6.97588619,33.7571604 7.02870582,34.0534318 7.13411838,34.2918448 C7.23953095,34.5304829 7.37985434,34.7220688 7.55440848,34.8666024 C7.72918932,35.0111361 7.9273196,35.1142457 8.14947942,35.1754812 C8.37141254,35.2369417 8.6026401,35.2677846 8.84270871,35.2677846 C9.17028109,35.2677846 9.45228804,35.2243345 9.68872956,35.1376593 C9.92517108,35.0509841 10.1489177,34.9316651 10.3601963,34.7799273 L10.3601963,34.9532776 C10.3601963,35.0111361 10.3819589,35.0617904 10.4257107,35.1050154 C10.4694626,35.1484655 10.520242,35.1700781 10.5785023,35.1700781 L11.801288,35.1700781 C11.8593216,35.1700781 11.9103277,35.1484655 11.9540796,35.1050154 C11.9978315,35.0617904 12.0195941,35.0111361 12.0195941,34.9532776 L12.0195941,31.0828378 Z M10.2838005,33.7065061 C10.1527715,33.7715687 10.0124481,33.8276262 9.86351039,33.8744533 C9.71411925,33.9217306 9.55588706,33.9449191 9.38858712,33.9449191 C9.155546,33.9449191 8.98280541,33.9125003 8.86991196,33.8474376 C8.7570185,33.782375 8.70079847,33.6342393 8.70079847,33.4030305 L8.70079847,33.3053239 C8.70079847,33.1751986 8.71530686,33.0597068 8.74455035,32.9583981 C8.77356714,32.8573146 8.82457322,32.7740164 8.89734189,32.7089538 C8.96988387,32.6441163 9.06826893,32.595263 9.19204369,32.5626191 C9.31581844,32.5302003 9.47223709,32.513991 9.66152632,32.513991 L10.2838005,32.513991 L10.2838005,33.7065061 Z M18.7007105,34.9424713 L18.7007105,31.332057 C18.7007105,30.9925605 18.6735072,30.6726504 18.618874,30.3727768 C18.5642409,30.0729033 18.4660825,29.8126527 18.3241722,29.592025 C18.182262,29.3716225 17.9857186,29.196246 17.734542,29.0663458 C17.483592,28.9362205 17.1614603,28.8711578 16.7683735,28.8711578 C16.4190385,28.8711578 16.1096016,28.9130321 15.8405162,28.9967805 C15.5712041,29.080529 15.2873836,29.2279893 14.9890547,29.4391616 L14.9890547,29.1764345 C14.9890547,29.1183509 14.9670654,29.0672463 14.9235402,29.023571 C14.8797883,28.9798958 14.8287823,28.957833 14.770522,28.957833 L13.5479629,28.957833 C13.4894759,28.957833 13.4386966,28.9794455 13.3951714,29.0228957 C13.3514195,29.0663458 13.3296569,29.1170001 13.3296569,29.1746335 L13.3296569,34.9424713 C13.3296569,35.0003298 13.3530063,35.0527852 13.400612,35.0996123 C13.4477643,35.1466645 13.5005839,35.1700781 13.5588442,35.1700781 L14.8797883,35.1700781 C14.9380486,35.1700781 14.9890547,35.1466645 15.0325799,35.0998374 C15.0763318,35.0530103 15.0980944,35.0007801 15.0980944,34.9429216 L15.0980944,30.6807551 C15.2873836,30.5798967 15.4655648,30.4970488 15.6330915,30.4322112 C15.8003914,30.3671486 15.9640642,30.3347298 16.1243367,30.3347298 C16.2916366,30.3347298 16.4281062,30.3509392 16.5337455,30.3835831 C16.639158,30.4160019 16.7209945,30.4718342 16.7792547,30.5513052 C16.837515,30.630551 16.8776398,30.7350115 16.8994024,30.8646865 C16.921165,30.9945867 16.932273,31.1533035 16.932273,31.3408371 L16.932273,34.9429216 C16.932273,35.0007801 16.9540356,35.0530103 16.9977875,35.0998374 C17.0413127,35.1466645 17.092092,35.1700781 17.150579,35.1700781 L18.4715231,35.1700781 C18.5295567,35.1700781 18.5823763,35.1466645 18.6297553,35.0996123 C18.6771343,35.0527852 18.7007105,35.0003298 18.7007105,34.9424713 L18.7007105,34.9424713 Z M24.0719907,34.8557962 L24.0719907,33.8908878 C24.0719907,33.8330293 24.051815,33.7877781 24.0119169,33.7553594 C23.9717921,33.7227155 23.9225996,33.7065061 23.864566,33.7065061 L23.8425767,33.7065061 C23.6387791,33.7281186 23.4442759,33.7463541 23.2586138,33.7607625 C23.0729516,33.7751708 22.8235886,33.782375 22.5107513,33.782375 C22.3869765,33.782375 22.2706827,33.7625635 22.1614163,33.7227155 C22.0521499,33.6830925 21.9576187,33.6144278 21.8775958,33.5167213 C21.7973462,33.4192398 21.733872,33.2891145 21.686493,33.1265705 C21.639114,32.9638013 21.6155379,32.7632102 21.6155379,32.5247972 L21.6155379,31.6141452 C21.6155379,31.3755071 21.639114,31.174916 21.686493,31.012372 C21.733872,30.8496028 21.7973462,30.7197026 21.8775958,30.6219961 C21.9576187,30.5245146 22.0521499,30.4558499 22.1614163,30.4160019 C22.2706827,30.3763789 22.3869765,30.3563423 22.5107513,30.3563423 C22.8235886,30.3563423 23.0729516,30.3637716 23.2586138,30.37818 C23.4442759,30.3925883 23.6387791,30.4105987 23.8425767,30.4322112 L23.864566,30.4322112 C23.9225996,30.4322112 23.9717921,30.4160019 24.0119169,30.3835831 C24.051815,30.3509392 24.0719907,30.3059131 24.0719907,30.2480547 L24.0719907,29.2831463 C24.0719907,29.2036753 24.0536285,29.1476178 24.0173575,29.1149739 C23.9808598,29.0825552 23.9225996,29.0553144 23.8425767,29.0337019 C23.6897851,28.9976811 23.4914282,28.9616602 23.2477325,28.9251891 C23.00381,28.8891683 22.718176,28.8711578 22.3906036,28.8711578 C21.619165,28.8711578 21.0023315,29.1059687 20.5403297,29.5758156 C20.0781013,30.0456625 19.8471004,30.7251057 19.8471004,31.6141452 L19.8471004,32.5247972 C19.8471004,33.4138367 20.0781013,34.0932799 20.5403297,34.5629017 C21.0023315,35.0329737 21.619165,35.2677846 22.3906036,35.2677846 C22.718176,35.2677846 23.00381,35.249549 23.2477325,35.2135282 C23.4914282,35.1772822 23.6897851,35.1412614 23.8425767,35.1050154 C23.9225996,35.0834029 23.9808598,35.0563873 24.0173575,35.0237434 C24.0536285,34.9913246 24.0719907,34.9352672 24.0719907,34.8557962 L24.0719907,34.8557962 Z M30.1310596,31.6900141 C30.1310596,31.2561881 30.0707591,30.8660373 29.9503847,30.5191115 C29.8300104,30.1721858 29.6550029,29.8777153 29.4253622,29.6354752 C29.1957215,29.3934601 28.9112209,29.2054763 28.5723138,29.0717489 C28.2331801,28.9380215 27.841,28.8711578 27.396227,28.8711578 C26.9514539,28.8711578 26.5595006,28.9380215 26.2203668,29.0717489 C25.881233,29.2054763 25.5949189,29.3934601 25.3616511,29.6354752 C25.1281566,29.8777153 24.9513355,30.1721858 24.8311879,30.5191115 C24.7105868,30.8660373 24.650513,31.2561881 24.650513,31.6900141 L24.650513,32.4489283 C24.650513,32.8825292 24.7105868,33.2729052 24.8311879,33.6198309 C24.9513355,33.9667567 25.1281566,34.2612271 25.3616511,34.5034673 C25.5949189,34.7457075 25.881233,34.9334661 26.2203668,35.0671935 C26.5595006,35.2006958 26.9514539,35.2677846 27.396227,35.2677846 C27.841,35.2677846 28.2331801,35.2006958 28.5723138,35.0671935 C28.9112209,34.9334661 29.1957215,34.7457075 29.4253622,34.5034673 C29.6550029,34.2612271 29.8300104,33.9667567 29.9503847,33.6198309 C30.0707591,33.2729052 30.1310596,32.8825292 30.1310596,32.4489283 L30.1310596,31.6900141 Z M28.3623955,32.4489283 C28.3623955,33.3379678 28.0402637,33.782375 27.396227,33.782375 C27.0777223,33.782375 26.8353868,33.6704852 26.6689936,33.4462555 C26.5023737,33.2222508 26.4191772,32.8897334 26.4191772,32.4489283 L26.4191772,31.6900141 C26.4191772,31.249209 26.5023737,30.9184926 26.6689936,30.697865 C26.8353868,30.4774624 27.0777223,30.3671486 27.396227,30.3671486 C28.0402637,30.3671486 28.3623955,30.8081788 28.3623955,31.6900141 L28.3623955,32.4489283 Z M36.6265139,34.9424713 L36.6265139,31.332057 C36.6265139,30.9925605 36.5990839,30.6726504 36.5446774,30.3727768 C36.4900443,30.0729033 36.3916592,29.8126527 36.249749,29.592025 C36.1078387,29.3716225 35.9112953,29.196246 35.6603454,29.0663458 C35.4091688,28.9362205 35.0872637,28.8711578 34.6941769,28.8711578 C34.3448419,28.8711578 34.035405,28.9130321 33.7660929,28.9967805 C33.4967808,29.080529 33.2129603,29.2279893 32.9146314,29.4391616 L32.9146314,29.1764345 C32.9146314,29.1183509 32.8928688,29.0672463 32.8491169,29.023571 C32.8055917,28.9798958 32.7545857,28.957833 32.6963254,28.957833 L31.4735396,28.957833 C31.4152794,28.957833 31.3645,28.9794455 31.3207481,29.0228957 C31.2772229,29.0663458 31.2552336,29.1170001 31.2552336,29.1746335 L31.2552336,34.9424713 C31.2552336,35.0003298 31.2788098,35.0527852 31.3261887,35.0996123 C31.3735677,35.1466645 31.4261607,35.1700781 31.4846476,35.1700781 L32.8055917,35.1700781 C32.8636253,35.1700781 32.9146314,35.1466645 32.9583833,35.0998374 C33.0019085,35.0530103 33.0238978,35.0007801 33.0238978,34.9429216 L33.0238978,30.6807551 C33.2129603,30.5798967 33.3913682,30.4970488 33.5586682,30.4322112 C33.7261948,30.3671486 33.8898677,30.3347298 34.0501401,30.3347298 C34.21744,30.3347298 34.3539096,30.3509392 34.4593222,30.3835831 C34.5647348,30.4160019 34.6467979,30.4718342 34.7050582,30.5513052 C34.7633184,30.630551 34.8032165,30.7350115 34.8252058,30.8646865 C34.8469684,30.9945867 34.8578497,31.1533035 34.8578497,31.3408371 L34.8578497,34.9429216 C34.8578497,35.0007801 34.879839,35.0530103 34.9233642,35.0998374 C34.9671161,35.1466645 35.0178955,35.1700781 35.0761557,35.1700781 L36.3970999,35.1700781 C36.4553601,35.1700781 36.5081798,35.1466645 36.5555587,35.0996123 C36.602711,35.0527852 36.6265139,35.0003298 36.6265139,34.9424713 L36.6265139,34.9424713 Z M41.3864012,34.9667854 L41.3864012,34.1277248 C41.3864012,34.0059294 41.3100055,33.9449191 41.1572139,33.9449191 L40.6222168,33.9449191 C40.4546902,33.9449191 40.3529047,33.9143013 40.3166337,33.8528408 C40.280136,33.7916053 40.2620006,33.6522497 40.2620006,33.4354492 L40.2620006,30.2804734 L41.1572139,30.2804734 C41.2152475,30.2804734 41.2662536,30.2586358 41.3100055,30.2149605 C41.3537574,30.1712852 41.3755199,30.1201807 41.3755199,30.0618719 L41.3755199,29.1764345 C41.3755199,29.1183509 41.3537574,29.0670212 41.3100055,29.0233459 C41.2662536,28.9796706 41.2152475,28.957833 41.1572139,28.957833 L40.2620006,28.957833 L40.2620006,27.8085429 C40.2620006,27.7509096 40.2438651,27.7056584 40.2078208,27.6730145 C40.1715498,27.6405957 40.1243975,27.6243863 40.0665906,27.6243863 L40.0341734,27.6243863 L38.7105089,27.8519931 C38.6524754,27.8666265 38.601696,27.8918411 38.5583975,27.927862 C38.515099,27.9641079 38.4933364,28.010935 38.4933364,28.0687935 L38.4933364,28.957833 L37.6201123,28.957833 C37.5616253,28.957833 37.5090324,28.9814717 37.4616534,29.0282988 C37.4142744,29.075351 37.3906983,29.1278064 37.3906983,29.1854397 L37.3906983,29.9011289 C37.3906983,29.9589874 37.4142744,30.0078406 37.4616534,30.0474636 C37.5090324,30.0873116 37.5616253,30.1143273 37.6201123,30.1287356 L38.4933364,30.2696672 L38.4933364,33.4138367 C38.4933364,33.7970085 38.5332345,34.1094893 38.6125773,34.3515043 C38.6921468,34.5937445 38.8079872,34.7835294 38.959872,34.9208588 C39.1117568,35.0581883 39.3017261,35.1502666 39.5295532,35.1973188 C39.7573804,35.2441459 40.019665,35.2677846 40.3166337,35.2677846 C40.4764528,35.2677846 40.6185897,35.2603553 40.7423645,35.2461721 C40.8659125,35.2317638 41.0114499,35.2103764 41.1789765,35.1815597 C41.3172597,35.1603975 41.3864012,35.0885809 41.3864012,34.9667854 L41.3864012,34.9667854 Z M47.2160561,31.0828378 C47.2160561,30.6854828 47.1559823,30.3473371 47.0358347,30.0690761 C46.915687,29.7910402 46.7465735,29.5632083 46.5282675,29.3860308 C46.3099615,29.2090784 46.0424629,29.0789531 45.7257718,28.99588 C45.4093074,28.9128069 45.0545318,28.8711578 44.661445,28.8711578 C44.2973749,28.8711578 43.9425993,28.8965976 43.5971181,28.9470268 C43.2511835,28.9976811 42.9764308,29.0483354 42.7728598,29.0987646 C42.63435,29.1350105 42.5654351,29.2144815 42.5654351,29.3371775 L42.5654351,30.2154108 C42.5654351,30.2879027 42.5833439,30.338557 42.6198416,30.3671486 C42.6563393,30.3961904 42.7034916,30.4105987 42.7617519,30.4105987 L42.816385,30.4105987 C42.9038888,30.4033946 43.0129285,30.3943893 43.1439574,30.3835831 C43.2749864,30.3727768 43.4223373,30.3637716 43.5860101,30.3563423 C43.7499096,30.3493633 43.9208367,30.3439602 44.0992446,30.3401329 C44.2774259,30.3365309 44.4540202,30.3347298 44.6285744,30.3347298 C44.8833781,30.3347298 45.0835486,30.381782 45.229086,30.4756614 C45.3746233,30.5697658 45.447392,30.772158 45.447392,31.0828378 L45.447392,31.4732137 L44.8579884,31.4732137 C43.9190231,31.4732137 43.2366751,31.6195483 42.8109444,31.9122177 C42.3852136,32.2048871 42.1723483,32.6693309 42.1723483,33.3053239 L42.1723483,33.4030305 C42.1723483,33.7571604 42.2249412,34.0534318 42.3305805,34.2918448 C42.435993,34.5304829 42.5763164,34.7220688 42.7508706,34.8666024 C42.9256514,35.0111361 43.1237817,35.1142457 43.3459415,35.1754812 C43.5678746,35.2369417 43.7988755,35.2677846 44.0391708,35.2677846 C44.3667432,35.2677846 44.6485234,35.2243345 44.8851916,35.1376593 C45.1216331,35.0509841 45.3453798,34.9316651 45.5566583,34.7799273 L45.5566583,34.9532776 C45.5566583,35.0111361 45.5784209,35.0617904 45.6221728,35.1050154 C45.665698,35.1484655 45.7167041,35.1700781 45.7749644,35.1700781 L46.9977501,35.1700781 C47.0557837,35.1700781 47.1067898,35.1484655 47.1505417,35.1050154 C47.1940669,35.0617904 47.2160561,35.0111361 47.2160561,34.9532776 L47.2160561,31.0828378 Z M45.4802626,33.7065061 C45.3492336,33.7715687 45.2089102,33.8276262 45.0599725,33.8744533 C44.9105813,33.9217306 44.7523491,33.9449191 44.5850492,33.9449191 C44.3520081,33.9449191 44.1792675,33.9125003 44.066374,33.8474376 C43.9534806,33.782375 43.8972605,33.6342393 43.8972605,33.4030305 L43.8972605,33.3053239 C43.8972605,33.1751986 43.9117689,33.0597068 43.9410124,32.9583981 C43.9698025,32.8573146 44.0208086,32.7740164 44.093804,32.7089538 C44.1663459,32.6441163 44.264731,32.595263 44.3885058,32.5626191 C44.5122805,32.5302003 44.6686992,32.513991 44.8579884,32.513991 L45.4802626,32.513991 L45.4802626,33.7065061 Z M52.5871097,34.8557962 L52.5871097,33.8908878 C52.5871097,33.8330293 52.566934,33.7877781 52.5270359,33.7553594 C52.4869111,33.7227155 52.4379453,33.7065061 52.379685,33.7065061 L52.3579224,33.7065061 C52.1541248,33.7281186 51.9593949,33.7463541 51.7737327,33.7607625 C51.5882973,33.7751708 51.3389343,33.782375 51.026097,33.782375 C50.9020955,33.782375 50.7858017,33.7625635 50.676762,33.7227155 C50.5674956,33.6830925 50.4727377,33.6144278 50.3927148,33.5167213 C50.3126919,33.4192398 50.248991,33.2891145 50.2018387,33.1265705 C50.154233,32.9638013 50.1308836,32.7632102 50.1308836,32.5247972 L50.1308836,31.6141452 C50.1308836,31.3755071 50.154233,31.174916 50.2018387,31.012372 C50.248991,30.8496028 50.3126919,30.7197026 50.3927148,30.6219961 C50.4727377,30.5245146 50.5674956,30.4558499 50.676762,30.4160019 C50.7858017,30.3763789 50.9020955,30.3563423 51.026097,30.3563423 C51.3389343,30.3563423 51.5882973,30.3637716 51.7737327,30.37818 C51.9593949,30.3925883 52.1541248,30.4105987 52.3579224,30.4322112 L52.379685,30.4322112 C52.4379453,30.4322112 52.4869111,30.4160019 52.5270359,30.3835831 C52.566934,30.3509392 52.5871097,30.3059131 52.5871097,30.2480547 L52.5871097,29.2831463 C52.5871097,29.2036753 52.5689742,29.1476178 52.5324765,29.1149739 C52.4959788,29.0825552 52.4379453,29.0553144 52.3579224,29.0337019 C52.2051308,28.9976811 52.0065472,28.9616602 51.7628514,28.9251891 C51.518929,28.8891683 51.2335217,28.8711578 50.9059493,28.8711578 C50.134284,28.8711578 49.5176772,29.1059687 49.0554487,29.5758156 C48.5932203,30.0456625 48.3622194,30.7251057 48.3622194,31.6141452 L48.3622194,32.5247972 C48.3622194,33.4138367 48.5932203,34.0932799 49.0554487,34.5629017 C49.5176772,35.0329737 50.134284,35.2677846 50.9059493,35.2677846 C51.2335217,35.2677846 51.518929,35.249549 51.7628514,35.2135282 C52.0065472,35.1772822 52.2051308,35.1412614 52.3579224,35.1050154 C52.4379453,35.0834029 52.4959788,35.0563873 52.5324765,35.0237434 C52.5689742,34.9913246 52.5871097,34.9352672 52.5871097,34.8557962 L52.5871097,34.8557962 Z M57.2923639,34.9667854 L57.2923639,34.1277248 C57.2923639,34.0059294 57.2159681,33.9449191 57.0631766,33.9449191 L56.5281795,33.9449191 C56.3606528,33.9449191 56.2588674,33.9143013 56.2225964,33.8528408 C56.1860987,33.7916053 56.1679632,33.6522497 56.1679632,33.4354492 L56.1679632,30.2804734 L57.0631766,30.2804734 C57.1212102,30.2804734 57.1722162,30.2586358 57.2159681,30.2149605 C57.2594933,30.1712852 57.2814826,30.1201807 57.2814826,30.0618719 L57.2814826,29.1764345 C57.2814826,29.1183509 57.2594933,29.0670212 57.2159681,29.0233459 C57.1722162,28.9796706 57.1212102,28.957833 57.0631766,28.957833 L56.1679632,28.957833 L56.1679632,27.8085429 C56.1679632,27.7509096 56.1498277,27.7056584 56.1135567,27.6730145 C56.0775124,27.6405957 56.0303601,27.6243863 55.9725532,27.6243863 L55.9399094,27.6243863 L54.6162449,27.8519931 C54.5582113,27.8666265 54.5076586,27.8918411 54.4643601,27.927862 C54.4210616,27.9641079 54.399299,28.010935 54.399299,28.0687935 L54.399299,28.957833 L53.526075,28.957833 C53.467588,28.957833 53.414995,28.9814717 53.3676161,29.0282988 C53.3202371,29.075351 53.2966609,29.1278064 53.2966609,29.1854397 L53.2966609,29.9011289 C53.2966609,29.9589874 53.3202371,30.0078406 53.3676161,30.0474636 C53.414995,30.0873116 53.467588,30.1143273 53.526075,30.1287356 L54.399299,30.2696672 L54.399299,33.4138367 C54.399299,33.7970085 54.4391971,34.1094893 54.5185399,34.3515043 C54.5981094,34.5937445 54.7139499,34.7835294 54.8658347,34.9208588 C55.0177194,35.0581883 55.207462,35.1502666 55.4355159,35.1973188 C55.6633431,35.2441459 55.9256276,35.2677846 56.2225964,35.2677846 C56.3824154,35.2677846 56.5243257,35.2603553 56.6483271,35.2461721 C56.7718752,35.2317638 56.9174125,35.2103764 57.0849392,35.1815597 C57.2229956,35.1603975 57.2923639,35.0885809 57.2923639,34.9667854 L57.2923639,34.9667854 Z" id="Fill-5" fill="#005596"></path>
            </g>
        </g>
    </g>
</svg>