<?xml version="1.0" encoding="UTF-8"?>
<svg width="57px" height="32px" viewBox="0 0 57 32" version="1.1" xmlns="http://www.w3.org/2000/svg" xmlns:xlink="http://www.w3.org/1999/xlink">
    <!-- Generator: Sketch 49.1 (51147) - http://www.bohemiancoding.com/sketch -->
    <title>wire_transfer</title>
    <desc>Created with Sketch.</desc>
    <defs></defs>
    <g id="Page-1" stroke="none" stroke-width="1" fill="none" fill-rule="evenodd">
        <g id="m7-withdraw-balance-0-1366" transform="translate(-214.000000, -1614.000000)" fill="#6B758E">
            <g id="wire_transfer" transform="translate(214.000000, 1614.000000)">
                <path d="M35.13024,13.4857143 L34.40064,6.66514286 L33.67104,13.4857143 L30.9168,13.4857143 L29.49408,0.685714286 L31.44576,0.685714286 L32.52192,10.7794286 L33.48864,0.685714286 L35.42208,0.685714286 L36.42528,10.8525714 L37.46496,0.685714286 L39.216,0.685714286 L37.79328,13.4857143 L35.13024,13.4857143 Z M40.2192,13.4857143 L40.2192,0.685714286 L42.2256,0.685714286 L42.2256,13.4857143 L40.2192,13.4857143 Z M49.92288,13.4857143 L47.88,13.4857143 C47.7583994,13.1199982 47.6976,12.5958129 47.6976,11.9131429 L47.6976,9.90171429 C47.6976,9.3165685 47.594241,8.89904887 47.38752,8.64914286 C47.180799,8.39923685 46.8464023,8.27428571 46.38432,8.27428571 L45.6912,8.27428571 L45.6912,13.4857143 L43.6848,13.4857143 L43.6848,0.685714286 L46.71264,0.685714286 C47.7462452,0.685714286 48.5001576,0.926473783 48.9744,1.408 C49.4486424,1.88952622 49.68576,2.63009024 49.68576,3.62971429 L49.68576,4.63542857 C49.68576,5.95200658 49.2480044,6.81752174 48.37248,7.232 C49.2601644,7.60990665 49.704,8.51808805 49.704,9.95657143 L49.704,11.9314286 C49.704,12.6262892 49.7769593,13.1443792 49.92288,13.4857143 Z M46.65792,2.51428571 L45.6912,2.51428571 L45.6912,6.44571429 L46.47552,6.44571429 C46.876802,6.44571429 47.177759,6.34209627 47.3784,6.13485714 C47.579041,5.92761801 47.67936,5.58019291 47.67936,5.09257143 L47.67936,3.83085714 C47.67936,2.95313847 47.3388834,2.51428571 46.65792,2.51428571 Z M53.02368,2.51428571 L53.02368,6.08 L55.77792,6.08 L55.77792,7.90857143 L53.02368,7.90857143 L53.02368,11.6571429 L56.48928,11.6571429 L56.48928,13.4857143 L51.01728,13.4857143 L51.01728,0.685714286 L56.48928,0.685714286 L56.48928,2.51428571 L53.02368,2.51428571 Z M0.96672,20.8 L0.96672,18.9714286 L7.16832,18.9714286 L7.16832,20.8 L5.07072,20.8 L5.07072,31.7714286 L3.06432,31.7714286 L3.06432,20.8 L0.96672,20.8 Z M14.28192,31.7714286 L12.23904,31.7714286 C12.1174394,31.4057125 12.05664,30.8815272 12.05664,30.1988571 L12.05664,28.1874286 C12.05664,27.6022828 11.953281,27.1847632 11.74656,26.9348571 C11.539839,26.6849511 11.2054423,26.56 10.74336,26.56 L10.05024,26.56 L10.05024,31.7714286 L8.04384,31.7714286 L8.04384,18.9714286 L11.07168,18.9714286 C12.1052852,18.9714286 12.8591976,19.2121881 13.33344,19.6937143 C13.8076824,20.1752405 14.0448,20.9158045 14.0448,21.9154286 L14.0448,22.9211429 C14.0448,24.2377209 13.6070444,25.103236 12.73152,25.5177143 C13.6192044,25.8956209 14.06304,26.8038023 14.06304,28.2422857 L14.06304,30.2171429 C14.06304,30.9120035 14.1359993,31.4300935 14.28192,31.7714286 Z M11.01696,20.8 L10.05024,20.8 L10.05024,24.7314286 L10.83456,24.7314286 C11.235842,24.7314286 11.536799,24.6278106 11.73744,24.4205714 C11.938081,24.2133323 12.0384,23.8659072 12.0384,23.3782857 L12.0384,22.1165714 C12.0384,21.2388528 11.6979234,20.8 11.01696,20.8 Z M19.82688,18.9714286 L21.86976,31.7714286 L19.84512,31.7714286 L19.49856,29.4491429 L17.03616,29.4491429 L16.6896,31.7714286 L14.84736,31.7714286 L16.89024,18.9714286 L19.82688,18.9714286 Z M18.25824,21.2388571 L17.29152,27.712 L19.22496,27.712 L18.25824,21.2388571 Z M27.0864,31.7714286 L24.58752,22.5005714 L24.58752,31.7714286 L22.78176,31.7714286 L22.78176,18.9714286 L25.29888,18.9714286 L27.36,26.6331429 L27.36,18.9714286 L29.14752,18.9714286 L29.14752,31.7714286 L27.0864,31.7714286 Z M30.33312,22.0434286 C30.33312,21.0072329 30.5823975,20.2118123 31.08096,19.6571429 C31.5795225,19.1024734 32.3151951,18.8251429 33.288,18.8251429 C34.2608049,18.8251429 34.9964775,19.1024734 35.49504,19.6571429 C35.9936025,20.2118123 36.24288,21.0072329 36.24288,22.0434286 L36.24288,22.4457143 L34.34592,22.4457143 L34.34592,21.9154286 C34.34592,21.0742815 34.0115233,20.6537143 33.34272,20.6537143 C32.6739167,20.6537143 32.33952,21.0742815 32.33952,21.9154286 C32.33952,22.3908595 32.4732787,22.838855 32.7408,23.2594286 C33.0083213,23.6800021 33.3335981,24.0609507 33.71664,24.4022857 C34.0996819,24.7436208 34.4857581,25.1001886 34.87488,25.472 C35.2640019,25.8438114 35.5923187,26.3070448 35.85984,26.8617143 C36.1273613,27.4163837 36.26112,28.028949 36.26112,28.6994286 C36.26112,29.7356242 36.0057626,30.5310448 35.49504,31.0857143 C34.9843174,31.6403837 34.2425649,31.9177143 33.26976,31.9177143 C32.2969551,31.9177143 31.5552026,31.6403837 31.04448,31.0857143 C30.5337574,30.5310448 30.2784,29.7356242 30.2784,28.6994286 L30.2784,27.9131429 L32.17536,27.9131429 L32.17536,28.8274286 C32.17536,29.6563851 32.5219165,30.0708571 33.21504,30.0708571 C33.9081635,30.0708571 34.25472,29.6563851 34.25472,28.8274286 C34.25472,28.3519976 34.1209613,27.9040021 33.85344,27.4834286 C33.5859187,27.062855 33.2606419,26.6819065 32.8776,26.3405714 C32.4945581,25.9992364 32.1084819,25.6426685 31.71936,25.2708571 C31.3302381,24.8990458 31.0019213,24.4358123 30.7344,23.8811429 C30.4668787,23.3264734 30.33312,22.7139081 30.33312,22.0434286 Z M39.41664,20.8 L39.41664,24.6582857 L42.00672,24.6582857 L42.00672,26.4868571 L39.41664,26.4868571 L39.41664,31.7714286 L37.41024,31.7714286 L37.41024,18.9714286 L42.71808,18.9714286 L42.71808,20.8 L39.41664,20.8 Z M45.6912,20.8 L45.6912,24.3657143 L48.44544,24.3657143 L48.44544,26.1942857 L45.6912,26.1942857 L45.6912,29.9428571 L49.1568,29.9428571 L49.1568,31.7714286 L43.6848,31.7714286 L43.6848,18.9714286 L49.1568,18.9714286 L49.1568,20.8 L45.6912,20.8 Z M56.6352,31.7714286 L54.59232,31.7714286 C54.4707194,31.4057125 54.40992,30.8815272 54.40992,30.1988571 L54.40992,28.1874286 C54.40992,27.6022828 54.306561,27.1847632 54.09984,26.9348571 C53.893119,26.6849511 53.5587223,26.56 53.09664,26.56 L52.40352,26.56 L52.40352,31.7714286 L50.39712,31.7714286 L50.39712,18.9714286 L53.42496,18.9714286 C54.4585652,18.9714286 55.2124776,19.2121881 55.68672,19.6937143 C56.1609624,20.1752405 56.39808,20.9158045 56.39808,21.9154286 L56.39808,22.9211429 C56.39808,24.2377209 55.9603244,25.103236 55.0848,25.5177143 C55.9724844,25.8956209 56.41632,26.8038023 56.41632,28.2422857 L56.41632,30.2171429 C56.41632,30.9120035 56.4892793,31.4300935 56.6352,31.7714286 Z M53.37024,20.8 L52.40352,20.8 L52.40352,24.7314286 L53.18784,24.7314286 C53.589122,24.7314286 53.890079,24.6278106 54.09072,24.4205714 C54.291361,24.2133323 54.39168,23.8659072 54.39168,23.3782857 L54.39168,22.1165714 C54.39168,21.2388528 54.0512034,20.8 53.37024,20.8 Z" id="WIRE-TRANSFER"></path>
                <g id="refresh-button" transform="translate(1.140000, 0.000000)" fill-rule="nonzero">
                    <path d="M15.8785714,3.18367347 L11.6442857,0 L11.6442857,2.12244898 L5.28968143,2.12244898 C2.36802429,2.12244898 0,4.50383673 0,7.42857143 C0,8.31787755 0.218065714,9.1562449 0.604444286,9.89167347 L2.33520857,8.59061224 C2.19441857,8.23085714 2.11714286,7.83926531 2.11714286,7.42857143 C2.11714286,5.67436735 3.53774571,4.24489796 5.28968143,4.24489796 L11.6442857,4.24489796 L11.6442857,6.36734694 L15.8785714,3.18367347 Z" id="Shape"></path>
                    <path d="M14.6019343,6.26546939 C14.7427243,6.62628571 14.82,7.01787755 14.82,7.42857143 C14.82,9.18277551 13.3993971,10.6122449 11.6474614,10.6122449 L5.29285714,10.6122449 L5.29285714,8.48979592 L1.05857143,11.6734694 L5.29285714,14.8571429 L5.29285714,12.7346939 L11.6474614,12.7346939 C14.5691186,12.7346939 16.9371429,10.3533061 16.9371429,7.42857143 C16.9371429,6.53926531 16.7190771,5.70089796 16.3326986,4.96546939 L14.6019343,6.26546939 Z" id="Shape"></path>
                </g>
            </g>
        </g>
    </g>
</svg>