<?xml version="1.0" encoding="UTF-8"?>
<svg width="97px" height="23px" viewBox="0 0 97 23" version="1.1" xmlns="http://www.w3.org/2000/svg" xmlns:xlink="http://www.w3.org/1999/xlink">
    <!-- Generator: Sketch 51.3 (57544) - http://www.bohemiancoding.com/sketch -->
    <title>BANK_ISLAM_LOGO</title>
    <desc>Created with Sketch.</desc>
    <defs></defs>
    <g id="Page-1" stroke="none" stroke-width="1" fill="none" fill-rule="evenodd">
        <g id="m7-withdraw-balance-0-1366-copy" transform="translate(-955.000000, -843.000000)" fill-rule="nonzero">
            <g id="BANK_ISLAM_LOGO" transform="translate(955.000000, 843.000000)">
                <g id="#c70b46ff" transform="translate(43.607080, 0.000000)">
                    <path d="M10.4390885,0.812053097 C14.0169292,-0.0815486726 17.7819027,-0.13219469 21.4060973,0.508176991 C20.9914867,0.487575221 20.5811681,0.428345133 20.1682743,0.391433628 C17.7080796,0.157946903 15.2092566,0.279840708 12.7919823,0.803469027 C10.1721239,1.37688496 7.6029115,2.42070796 5.529,4.15211504 C4.26113274,5.21653982 3.19327434,6.57110619 2.66449558,8.15486726 C2.28507965,9.28367257 2.1940885,10.5077611 2.41984956,11.6777699 C2.72887611,13.3447965 3.62161947,14.8581681 4.77016814,16.0856903 C6.83463717,18.2917965 9.60815044,19.7124602 12.4735133,20.5777345 C16.1560796,21.6644779 20.0953097,21.8773628 23.8740177,21.1957876 C26.5325044,20.6996283 29.1523628,19.7382124 31.3224159,18.0935044 C32.5928584,17.1372389 33.6650088,15.9097168 34.3646106,14.476177 C33.9319735,15.6685044 33.1748584,16.7191947 32.2975664,17.6239558 C31.252885,18.674646 30.0210708,19.5304779 28.7025575,20.2008938 C25.8140177,21.6807876 22.5683805,22.3494867 19.3424867,22.4902655 L17.2608496,22.4902655 C15.1998142,22.3915487 13.1430708,22.1022655 11.155,21.5408673 C8.55831858,20.8077876 6.04404425,19.6583805 3.94438053,17.9441416 C2.68166372,16.9046106 1.56659292,15.6504779 0.848964602,14.1714425 C0.0626637168,12.5936903 -0.191424779,10.7412478 0.231769912,9.02185841 C0.672132743,7.15825664 1.85330088,5.55217699 3.28340708,4.31521239 C5.32899115,2.57178761 7.84927434,1.46444248 10.4390885,0.812053097 Z" id="Shape" fill="#FFFFFF"></path>
                    <path d="M10.4390885,0.812053097 C14.0169292,-0.0815486726 17.7819027,-0.13219469 21.4060973,0.508176991 C20.9914867,0.487575221 20.5811681,0.428345133 20.1682743,0.391433628 C17.7080796,0.157946903 15.2092566,0.279840708 12.7919823,0.803469027 C10.1721239,1.37688496 7.6029115,2.42070796 5.529,4.15211504 C4.26113274,5.21653982 3.19327434,6.57110619 2.66449558,8.15486726 C2.28507965,9.28367257 2.1940885,10.5077611 2.41984956,11.6777699 C2.72887611,13.3447965 3.62161947,14.8581681 4.77016814,16.0856903 C6.83463717,18.2917965 9.60815044,19.7124602 12.4735133,20.5777345 C16.1560796,21.6644779 20.0953097,21.8773628 23.8740177,21.1957876 C26.5325044,20.6996283 29.1523628,19.7382124 31.3224159,18.0935044 C32.5928584,17.1372389 33.6650088,15.9097168 34.3646106,14.476177 C33.9319735,15.6685044 33.1748584,16.7191947 32.2975664,17.6239558 C31.252885,18.674646 30.0210708,19.5304779 28.7025575,20.2008938 C25.8140177,21.6807876 22.5683805,22.3494867 19.3424867,22.4902655 L17.2608496,22.4902655 C15.1998142,22.3915487 13.1430708,22.1022655 11.155,21.5408673 C8.55831858,20.8077876 6.04404425,19.6583805 3.94438053,17.9441416 C2.68166372,16.9046106 1.56659292,15.6504779 0.848964602,14.1714425 C0.0626637168,12.5936903 -0.191424779,10.7412478 0.231769912,9.02185841 C0.672132743,7.15825664 1.85330088,5.55217699 3.28340708,4.31521239 C5.32899115,2.57178761 7.84927434,1.46444248 10.4390885,0.812053097 Z" id="Shape-Copy" fill="#C70B46"></path>
                </g>
                <g id="#5f6062ff" transform="translate(0.000000, 4.892920)" fill="#FFFFFF">
                    <path d="M13.3138938,0.612044248 C13.3980177,0.424911504 13.4701239,0.209451327 13.6486726,0.0901327434 C13.9182124,0.0618053097 14.0014779,0.383707965 14.1010531,0.573415929 C15.3483186,3.60530973 16.5277699,6.66553097 17.7887699,9.69141593 C18.0025133,10.189292 18.2282743,10.6983274 18.6059735,11.0957699 C18.919292,11.4288319 19.4480708,11.5558761 19.8695487,11.3670265 C20.0755664,11.2760354 20.1416637,11.0339646 20.1837257,10.8330973 C20.249823,10.4305044 20.2549735,10.0210442 20.2584071,9.6150177 C20.3030442,6.6080177 20.3536903,3.6010177 20.3940354,0.594017699 C20.4060531,0.448088496 20.4094867,0.280699115 20.5262301,0.174256637 C20.7382566,0.126185841 20.8687345,0.333061947 21.0060796,0.455814159 C22.4799646,2.04215044 23.986469,3.59758407 25.5170088,5.1289823 C26.7685664,6.35478761 27.9368584,7.663 29.1875575,8.88966372 C29.1351947,6.54535398 29.0888407,4.20104425 29.0296106,1.85759292 C29.0064336,1.4919115 28.9669469,1.03352212 28.6055575,0.836946903 C28.245885,0.670415929 27.8355664,0.73479646 27.455292,0.663548673 C27.5025044,0.583716814 27.5119469,0.439504425 27.6364159,0.442079646 C28.5523363,0.379415929 29.4708319,0.516761062 30.3867522,0.436929204 C30.7773274,0.446371681 31.1885044,0.362247788 31.5636283,0.498734513 C31.5490354,0.542513274 31.5189912,0.629212389 31.5043982,0.67299115 C31.1481593,0.742522124 30.6854779,0.663548673 30.4502743,1.00948673 C30.2296637,1.40435398 30.2751593,1.8799115 30.2588496,2.31684071 C30.2056283,5.37792035 30.1498319,8.439 30.0966106,11.5000796 C30.0708584,11.6640354 30.1103451,11.9507434 29.8734248,11.9576106 C29.5601062,11.8726283 29.3661062,11.5902124 29.1317611,11.3876283 C28.0072478,10.2811416 26.8999027,9.15662832 25.7805398,8.04413274 C24.226823,6.56681416 22.7778319,4.98648673 21.3271239,3.40959292 C21.4009469,5.62342478 21.4387168,7.83811504 21.5133982,10.0510885 C21.5520265,10.4699912 21.5631858,10.9506991 21.8636283,11.2768938 C22.2112832,11.5181062 22.6670973,11.4468584 23.0653982,11.5146726 C23.0636814,11.5670354 23.058531,11.6717611 23.0559558,11.7241239 C22.2962655,11.8168319 21.5314248,11.7206903 20.7700177,11.7232655 C19.6266195,11.7842124 18.4815044,11.7550265 17.3372478,11.7584602 C16.8634071,11.7318496 16.3835575,11.7661858 15.9148673,11.6751947 C16.0213097,11.5215398 16.1912743,11.4408496 16.3372035,11.3335487 C16.3560885,11.2073628 16.2977168,11.0889027 16.2608053,10.9721593 C15.8650796,9.94035398 15.4710708,8.90683186 15.0839292,7.87159292 C13.9482566,7.83639823 12.8108673,7.85871681 11.6751947,7.85785841 C11.519823,7.82867257 11.4940708,8.01838053 11.441708,8.11795575 C11.159292,8.88537168 10.8502655,9.64248673 10.5798673,10.4141947 C10.5103363,10.6906018 10.3824336,11.0099292 10.5283628,11.2803274 C10.762708,11.5670354 11.178177,11.4391327 11.4975044,11.5060885 C11.5567345,11.6408584 11.4949292,11.7618938 11.3429912,11.7550265 C10.7661416,11.7885044 10.189292,11.7112478 9.61244248,11.7198319 C8.98323009,11.737 8.35315929,11.787646 7.7239469,11.7507345 C7.60720354,11.760177 7.5299469,11.6219735 7.58917699,11.524115 C7.95571681,11.4253982 8.37032743,11.496646 8.70424779,11.2820442 C9.12915929,11.0253805 9.32230088,10.5429558 9.50428319,10.1051681 C10.7764425,6.94193805 12.0408761,3.77527434 13.3138938,0.612044248 Z M11.8511681,7.07499115 C12.8263186,7.08700885 13.801469,7.08185841 14.7766195,7.07842478 C14.2976283,5.76420354 13.8160619,4.45084071 13.3310619,3.1400531 C12.8263186,4.44740708 12.342177,5.76248673 11.8511681,7.07499115 Z" id="Shape"></path>
                    <path d="M76.2849204,0.215460177 C76.3372832,0.119318584 76.4437257,0.0746814159 76.551885,0.0901327434 C76.7278584,0.242929204 76.8171327,0.466115044 76.9098407,0.674707965 C78.066115,3.50230088 79.175177,6.34963717 80.339177,9.17379646 C80.5657965,9.71030088 80.7700973,10.2622566 81.0945752,10.7498319 C81.262823,10.9987699 81.4654071,11.2485664 81.752115,11.3653097 C81.9340973,11.4374159 82.1667257,11.4889204 82.3332566,11.3498584 C82.620823,11.1172301 82.6817699,10.7257965 82.7470088,10.383292 C83.2423097,7.12134513 83.7444779,3.86025664 84.2354867,0.597451327 C84.2672478,0.411176991 84.2998673,0.20000885 84.4655398,0.0815486726 C84.7007434,0.0738230088 84.8046106,0.323619469 84.9084779,0.494442478 C86.2845044,3.32375221 87.6553805,6.15477876 89.0322655,8.98323009 C90.3954159,6.12902655 91.7594248,3.27482301 93.1251504,0.422336283 C93.2024071,0.252371681 93.3861062,-0.0360530973 93.5946991,0.145929204 C93.6951327,0.299584071 93.7191681,0.487575221 93.7535044,0.665265487 C94.210177,3.79330088 94.6754336,6.92133628 95.1372566,10.0493717 C95.2145133,10.448531 95.2668761,10.9086372 95.5904956,11.1944867 C96.0059646,11.4623097 96.5235841,11.4580177 97,11.5009381 L97,11.7112478 C96.3149912,11.8202655 95.6196814,11.7301327 94.9312389,11.7318496 C94.3183363,11.6940796 93.6916991,11.7481593 93.0933894,11.5884956 C93.235885,11.3472832 93.4504867,11.1112212 93.3620708,10.8056283 C93.0556195,8.56175221 92.7603274,6.31615929 92.4358496,4.074 C91.3525398,6.29727434 90.288115,8.52827434 89.2099558,10.7532655 C89.022823,11.127531 88.879469,11.5481504 88.537823,11.8142566 C88.1111947,11.2640177 87.8433717,10.6159204 87.5137434,10.0073097 C86.5042566,8.11795575 85.6441327,6.15563717 84.7110442,4.22851327 C84.4303451,6.24662832 84.1753982,8.2690354 83.909292,10.2897257 C83.9015664,10.5927434 83.7813894,10.9524159 83.9753894,11.2185221 C84.3239027,11.519823 84.8337965,11.4065133 85.2415398,11.5687522 C85.1608496,11.6812035 85.0475398,11.7687611 84.9033274,11.755885 C84.2432124,11.7945133 83.5839558,11.6957965 82.9238407,11.7292743 C82.0087788,11.7824956 81.0911416,11.7541681 80.1752212,11.7584602 C79.6842124,11.7318496 79.1846195,11.7799204 78.7039115,11.6683274 C78.8034867,11.519823 78.9631504,11.4314071 79.0944867,11.3138053 C79.1030708,11.1627257 79.036115,11.0219469 78.9906195,10.8820265 C78.5983274,9.87854867 78.2292124,8.86648673 77.8394956,7.86215044 C76.6660531,7.8449823 75.4926106,7.86043363 74.3191681,7.85356637 C73.9843894,8.69738053 73.6564779,9.54548673 73.3474513,10.3996018 C73.2736283,10.7009027 73.1002301,11.104354 73.3637611,11.3575841 C73.6470354,11.5352743 74.0058496,11.4631681 74.3234602,11.5026549 C74.2934159,11.5610265 74.2333274,11.6769115 74.2041416,11.7352832 C73.5371593,11.8168319 72.8650265,11.686354 72.195469,11.7266991 C71.4520885,11.7730531 70.7061327,11.7387168 69.9636106,11.7953717 C68.4725575,11.8357168 66.9823628,11.7455841 65.4921681,11.7163982 C64.7745398,11.7009469 64.0586283,11.7721947 63.3418584,11.7567434 C63.1821947,11.7807788 63.1015044,11.6408584 63.031115,11.5266903 C63.3633186,11.4571593 63.7341504,11.5026549 64.0371681,11.3292566 C64.2655044,11.1034956 64.2723717,10.7532655 64.3170088,10.4545398 C64.3839646,9.40213274 64.380531,8.34629204 64.380531,7.29130973 C64.3702301,5.45946903 64.4054248,3.62676991 64.3564956,1.79578761 C64.338469,1.48933628 64.3410442,1.11678761 64.0740796,0.90819469 C63.7547522,0.697884956 63.3504425,0.723637168 62.9856195,0.689300885 C62.9684513,0.635221239 62.9349735,0.527061947 62.9178053,0.472982301 C63.8586195,0.353663717 64.8063009,0.503884956 65.7496903,0.459247788 C66.324823,0.451522124 66.9008142,0.405168142 67.4759469,0.434353982 C67.6158673,0.428345133 67.7111504,0.548522124 67.8236018,0.611185841 C67.4459027,0.731362832 67.0373009,0.694451327 66.6638938,0.822353982 C66.3600177,0.957123894 66.3299735,1.33310619 66.3059381,1.62153097 C66.2716018,2.48337168 66.2638761,3.3460708 66.2690265,4.2079115 C66.2827611,6.01314159 66.232115,7.81923009 66.3145221,9.62360177 C66.3540088,10.037354 66.366885,10.5978938 66.8295664,10.7704336 C67.4707965,11.0090708 68.1729735,10.9318142 68.8433894,10.9455487 C69.4047876,10.9524159 70.0872212,10.8193628 70.3421681,10.2493805 C70.5344513,9.96353097 70.4348761,9.46565487 70.833177,9.3600708 C70.8623628,10.0768407 70.7516283,10.7910354 70.611708,11.4914956 C70.9336106,11.4399912 71.290708,11.4314071 71.5611062,11.2228142 C71.900177,10.9644336 72.0727168,10.5575487 72.237531,10.1772743 C73.4341504,7.2020354 74.6247611,4.22422124 75.8213805,1.24812389 C75.9673097,0.901327434 76.0746106,0.532212389 76.2849204,0.215460177 Z M76.0952124,3.15121239 C75.5878938,4.45341593 75.1063274,5.76592035 74.6178938,7.07499115 C75.5896106,7.08700885 76.5613274,7.08357522 77.5339027,7.07670796 C77.0592035,5.76592035 76.5905133,4.45341593 76.0952124,3.15121239 Z" id="Shape"></path>
                    <path d="M59.3605664,0.320185841 C60.2490177,0.135628319 61.1726637,0.200867257 62.0576814,0.374265487 C62.2491062,0.436929204 62.5066283,0.425769912 62.6328142,0.600884956 C62.6276637,1.23009735 62.5632832,1.85930973 62.5778761,2.49023894 C62.5787345,2.67222124 62.5761593,2.98639823 62.3066195,2.92115929 C62.2182035,2.65161947 62.2250708,2.35804425 62.1091858,2.09537168 C61.8808496,1.55886726 61.4018584,1.12107965 60.8267257,0.989743363 C60.2078142,0.847247788 59.5004867,0.905619469 58.9837257,1.30134513 C58.4249027,1.73140708 58.2866991,2.57522124 58.6197611,3.18469027 C58.9270708,3.74179646 59.4464071,4.13580531 59.9356991,4.52466372 C60.8310177,5.1899292 61.7649646,5.86377876 62.3804425,6.8140354 C62.8989204,7.60462832 63.0422743,8.61068142 62.8362566,9.52660177 C62.6405398,10.3712743 62.0448053,11.0966283 61.280823,11.4957876 C60.477354,11.931 59.5356814,12.0142655 58.6377876,11.9644779 C58.0077168,11.926708 57.3639115,11.8228407 56.7990796,11.5284071 C56.5930619,11.4339823 56.6179558,11.178177 56.6093717,10.9893274 C56.6239646,10.3549646 56.6471416,9.72060177 56.6909204,9.08709735 C56.7046549,8.91026549 56.7475752,8.60982301 56.9982301,8.72313274 C57.086646,9.31629204 57.1467345,9.95323009 57.5355929,10.4416637 C58.0188761,11.0889027 58.8910177,11.3043628 59.6610088,11.2082212 C60.2713363,11.1446991 60.8627788,10.7961858 61.1486283,10.2425133 C61.4387699,9.68884071 61.3537876,9.00469027 61.0713717,8.46646903 C60.6953894,7.77630973 60.047292,7.30246903 59.4386814,6.83206195 C58.6334956,6.21744248 57.8291681,5.54702655 57.3304336,4.64999115 C56.842,3.74952212 56.7578761,2.57607965 57.3012478,1.68161947 C57.738177,0.944247788 58.5399292,0.495300885 59.3605664,0.320185841 Z" id="Shape"></path>
                    <path d="M0,0.436929204 C0.659256637,0.422336283 1.31851327,0.430061947 1.9769115,0.458389381 C3.04906195,0.511610619 4.12807965,0.333061947 5.19593805,0.494442478 C5.90755752,0.609469027 6.64750442,0.907336283 7.06984071,1.52195575 C7.47243363,2.09365487 7.50247788,2.85334513 7.30246903,3.50573451 C7.07928319,4.25083186 6.50844248,4.81909735 5.917,5.29122124 C7.02520354,5.6989646 8.10164602,6.47067257 8.48535398,7.63381416 C8.81755752,8.65789381 8.54715929,9.85279646 7.79948673,10.6279381 C7.24323894,11.2271062 6.4629469,11.5764779 5.66806195,11.718115 C4.69977876,11.8958053 3.71518584,11.7515929 2.74089381,11.7258407 C1.96661062,11.686354 1.19146903,11.7807788 0.417185841,11.7541681 C0.27640708,11.7687611 0.238637168,11.6056637 0.166530973,11.5223982 C0.451522124,11.4777611 0.743380531,11.4760442 1.02322124,11.4030796 C1.26615044,11.3464248 1.34083186,11.0743097 1.38890265,10.8631416 C1.49276991,10.2811416 1.49276991,9.68712389 1.5030708,9.09739823 C1.49877876,6.72476106 1.50736283,4.35126549 1.49877876,1.97862832 C1.47045133,1.63526549 1.51251327,1.23353097 1.26872566,0.957123894 C0.916778761,0.662690265 0.421477876,0.748530973 0,0.670415929 L0,0.436929204 Z M3.35637168,1.10992035 C3.29456637,1.76831858 3.33920354,2.43100885 3.32632743,3.09112389 C3.34435398,3.77613274 3.28855752,4.46457522 3.35379646,5.14615044 C3.78214159,5.27834513 4.24825664,5.24572566 4.68690265,5.18563717 C5.25173451,5.09464602 5.63029204,4.56415044 5.74789381,4.03451327 C5.95476991,3.12631858 5.72214159,2.06532743 5.00279646,1.43611504 C4.55642478,1.04468142 3.91776991,0.989743363 3.35637168,1.10992035 Z M3.34092035,5.85948673 C3.3100177,7.13851327 3.33061947,8.41839823 3.32890265,9.69742478 C3.3589469,10.0562389 3.30572566,10.4777168 3.56753982,10.7661416 C3.86540708,11.0099292 4.26628319,11.0691593 4.63797345,11.108646 C5.26375221,11.1678761 5.95992035,10.9910442 6.36423009,10.480292 C6.78141593,9.95151327 6.80630973,9.22787611 6.70415929,8.58922124 C6.57024779,7.63467257 6.04833628,6.71446018 5.22512389,6.19340708 C4.66715929,5.83630973 3.97528319,5.87236283 3.34092035,5.85948673 Z" id="Shape"></path>
                    <path d="M31.8297345,0.497876106 C32.0494867,0.399159292 32.296708,0.432637168 32.5310531,0.426628319 C33.3027611,0.421477876 34.0753274,0.496159292 34.8470354,0.453238938 C35.3577876,0.44980531 35.8736903,0.387141593 36.3818673,0.454955752 C36.3998938,0.512469027 36.4359469,0.627495575 36.453115,0.684150442 C36.0788496,0.741663717 35.5320442,0.671274336 35.3526372,1.09790265 C35.2101416,1.51852212 35.2453363,1.97347788 35.2367522,2.41040708 C35.2547788,3.43019469 35.1912566,4.44912389 35.2221593,5.4689115 C35.8934336,4.78476106 36.5544071,4.09116814 37.224823,3.40530088 C37.8119735,2.78810619 38.4205841,2.18636283 38.9364867,1.50650442 C39.072115,1.3219469 39.2120354,1.1030531 39.1579558,0.862699115 C39.0043009,0.73479646 38.7699558,0.677283186 38.7459204,0.444654867 C39.2523805,0.406884956 39.7596991,0.446371681 40.2670177,0.462681416 C41.007823,0.497017699 41.7494867,0.388 42.4894336,0.442079646 C42.6259204,0.419761062 42.6559646,0.727929204 42.486,0.687584071 C42.1246106,0.733938053 41.7546372,0.764840708 41.4164248,0.910769912 C40.6120973,1.24039823 39.9983363,1.87647788 39.386292,2.47135398 C38.4712301,3.39328319 37.5398584,4.29890265 36.6299469,5.22684071 C37.8540354,6.66810619 39.1613894,8.03726549 40.467885,9.40470796 C41.2224248,10.1163274 41.9520708,10.9258053 42.9512566,11.2923451 C43.2654336,11.4262566 43.6087965,11.4494336 43.9384248,11.524115 C44.0723363,11.6116726 43.9023717,11.7910796 43.7821947,11.7524513 C43.1804513,11.7756283 42.5778496,11.7507345 41.9761062,11.7618938 C41.368354,11.7696195 40.721115,11.7378584 40.1949115,11.3979292 C39.4060354,10.8897522 38.795708,10.1635398 38.1725044,9.47423894 C37.1630177,8.34972566 36.1904425,7.19430973 35.2238761,6.03460177 C35.2127168,6.74021239 35.2049912,7.44668142 35.234177,8.15143363 C35.2530619,8.9849469 35.206708,9.81931858 35.2770973,10.6502566 C35.2985575,10.9232301 35.3826814,11.2511416 35.6590885,11.3696018 C36.0041681,11.4794779 36.3741416,11.4391327 36.7260885,11.515531 C36.7887522,11.6477257 36.7132124,11.7447257 36.5758673,11.7490177 C35.9706903,11.7867876 35.3637965,11.7430088 34.7586195,11.7309912 C33.9276814,11.6846372 33.0967434,11.7979469 32.2666637,11.7515929 C32.1559292,11.7739115 31.9756637,11.6108142 32.1121504,11.5215398 C32.4143097,11.4331239 32.767115,11.5052301 33.0400885,11.3266814 C33.3036195,11.0253805 33.2804425,10.5875929 33.3267965,10.2133274 C33.4109204,8.29650442 33.3534071,6.37710619 33.3705752,4.45856637 C33.3619912,3.51861062 33.3937522,2.57693805 33.3396726,1.63784071 C33.3164956,1.38289381 33.3053363,1.07386726 33.072708,0.912486726 C32.7216195,0.665265487 32.2692389,0.757973451 31.8735133,0.667840708 C31.862354,0.624920354 31.8408938,0.539938053 31.8297345,0.497876106 Z" id="Shape"></path>
                    <path d="M51.705292,0.490150442 C51.9671062,0.388858407 52.2563894,0.436929204 52.5310796,0.427486726 C53.3354071,0.448088496 54.1405929,0.491867257 54.9449204,0.442938053 C55.3586726,0.436929204 55.779292,0.388858407 56.1887522,0.466973451 C56.2196549,0.547663717 56.2059204,0.618053097 56.1492655,0.679 C55.8591239,0.73479646 55.5492389,0.709902655 55.2762655,0.836946903 C54.9964248,0.987168142 54.9741062,1.34426549 54.9500708,1.62410619 C54.8959912,3.82935398 54.920885,6.03631858 54.9183097,8.24242478 C54.9680973,9.11456637 54.8882655,9.99271681 55.0101593,10.8605664 C55.0410619,11.136115 55.2522301,11.3781858 55.5372212,11.4030796 C55.8917434,11.5069469 56.3175133,11.3781858 56.6273982,11.5902124 C56.5939204,11.6288407 56.5269646,11.7060973 56.4934867,11.7447257 C55.8307965,11.7902212 55.1646726,11.7438673 54.5011239,11.732708 C53.6435752,11.6803451 52.7860265,11.7962301 51.9293363,11.7533097 C51.7851239,11.7721947 51.7619469,11.6108142 51.7044336,11.5206814 C52.0220442,11.4657434 52.3576814,11.4863451 52.6606991,11.3644513 C52.8641416,11.2571504 52.911354,11.007354 52.9465487,10.8004779 C53.0564248,9.894 53.0238053,8.97807965 53.0280973,8.06730973 C53.0263805,6.03374336 53.0323894,3.99931858 53.0255221,1.96575221 C52.9963363,1.60264602 53.035823,1.17086726 52.7542655,0.894460177 C52.4615487,0.683292035 52.0778407,0.742522124 51.7422035,0.674707965 C51.7327611,0.629212389 51.7147345,0.536504425 51.705292,0.490150442 Z" id="Shape"></path>
                </g>
            </g>
        </g>
    </g>
</svg>