<?xml version="1.0" encoding="UTF-8"?>
<svg width="62px" height="19px" viewBox="0 0 62 19" version="1.1" xmlns="http://www.w3.org/2000/svg" xmlns:xlink="http://www.w3.org/1999/xlink">
    <!-- Generator: Sketch 51.3 (57544) - http://www.bohemiancoding.com/sketch -->
    <title>BankNegaraIndonesia46-logo</title>
    <desc>Created with Sketch.</desc>
    <defs></defs>
    <g id="Page-1" stroke="none" stroke-width="1" fill="none" fill-rule="evenodd">
        <g id="m7-withdraw-balance-0-1366-copy" transform="translate(-408.000000, -917.000000)" fill="#FFFFFF">
            <g id="BankNegaraIndonesia46-logo" transform="translate(408.000000, 917.000000)">
                <g id="Group-14">
                    <polygon id="path3242" points="0.229868036 6.38093933 5.40963156 12.9150079 0.229868036 17.207185"></polygon>
                    <polygon id="path3244" points="2.3145465 17.207185 6.21206109 13.9467025 8.9059307 17.207185"></polygon>
                    <path d="M0.229868036,2.88464054 L1.58159419,4.59451849 L7.13938004,11.5394139 L8.94031612,10.1052982 C8.94031612,10.1052982 7.44521707,8.34511731 6.44132611,6.38093933 C4.47860106,2.54074284 5.86816231,0.149829779 5.86816231,0.149829779 L0.229868036,0.149829779 L0.229868036,2.88464054 Z" id="path3248"></path>
                    <path d="M7.93155249,12.611532 L9.76567622,11.0965695 C9.76567622,11.0965695 11.517394,13.4024538 13.5485585,13.9467025 C16.2102701,14.6599063 17.3887557,12.9150079 17.3887557,12.9150079 L17.3887557,17.207185 L11.5424847,17.207185 L12.8607617,16.0674079 C12.8607617,16.0674079 12.1729652,16.525939 10.4908218,15.3607838 C9.49799403,14.6730894 7.93155249,12.611532 7.93155249,12.611532 Z" id="path3250"></path>
                    <path d="M8.10017198,0.137323229 C8.10017198,0.137323229 7.51505955,0.934394872 7.93155249,2.88464054 C8.37672661,4.96918709 10.1471879,7.17544659 10.1430717,7.12605324 C10.1430717,7.12605324 10.2568965,4.93533641 11.5424847,3.64974826 C14.2827318,0.909501009 17.3887557,2.54074284 17.3887557,2.54074284 L17.3887557,0.149829779 L8.10017198,0.137323229 Z" id="path3262"></path>
                    <path d="M17.3887557,5.42952762 C17.3887557,5.42952762 15.6558311,3.94518876 14.1492118,3.94518876 C12.2219215,3.94518876 11.1699277,5.60908735 11.1699277,6.81606767 C11.1699277,8.57412214 12.013778,9.5509861 12.8607617,10.3979697 C14.0779301,11.6151389 15.5587051,12.9278916 17.3887557,11.8713116 C17.3887557,9.87160789 17.3887557,5.42952762 17.3887557,5.42952762 Z" id="path3298"></path>
                </g>
                <g id="Group-15" transform="translate(21.444744, 0.000000)">
                    <path d="M15.6795126,0.316146219 L19.7688059,0.316146219 C19.7688059,0.316146219 23.3913985,5.80126773 25.1717262,8.06749032 C26.952054,10.3337133 28.8683954,12.9150079 28.8683954,12.9150079 C28.8683954,12.9150079 28.8683954,5.42952762 28.8683954,1.54453388 C28.8683954,1.05345232 27.5789825,0.316146219 27.5789825,0.316146219 L32.2945574,0.316146219 C32.2945574,0.316146219 30.7472547,0.951848053 30.7472547,1.54453388 C30.7472547,6.38093933 30.7472547,18.0858983 30.7472547,18.0858983 C30.7472547,18.0858983 29.2625827,17.2625967 27.5789825,15.3062464 C25.6873477,13.1081557 18.9583157,4.23388716 18.9583157,4.23388716 C18.9583157,4.23388716 18.9583157,12.611532 18.9583157,15.728108 C18.9583157,16.3167717 20.2477286,17.207185 20.2477286,17.207185 L15.6795126,17.207185 C15.6795126,17.207185 16.9320867,16.3095678 16.9320867,15.728108 C16.9320867,11.5394139 16.9320867,5.42952762 16.9320867,1.54453388 C16.9320867,1.02254791 15.6795126,0.316146219 15.6795126,0.316146219 Z" id="path3249"></path>
                    <path d="M34.9356222,0.316146219 L40.1839495,0.316146219 C40.1839495,0.316146219 38.7746802,0.983687819 38.7746802,1.54453388 C38.7746802,5.42952762 38.7746802,11.8713116 38.7746802,15.728108 C38.7746802,16.3409981 40.1839495,17.207185 40.1839495,17.207185 L34.9356222,17.207185 C34.9356222,17.207185 36.2477076,16.3212616 36.2477076,15.728108 C36.2477076,11.0965695 36.2477076,5.42952762 36.2477076,1.54453388 C36.2477076,1.00532645 34.9356222,0.316146219 34.9356222,0.316146219 Z" id="path3267"></path>
                    <path d="M0.238347188,0.316146219 C0.238347188,0.316146219 1.59902531,0.994594247 1.59902531,1.54453388 C1.59902531,5.42952762 1.59902531,11.0965695 1.59902531,15.728108 C1.59902531,16.3310347 0.238347188,17.207185 0.238347188,17.207185 C0.238347188,17.207185 7.03593722,17.207185 8.01364821,17.207185 C8.49960414,17.207185 13.9423163,16.3171922 13.9423163,12.1210933 C13.9423163,7.92499546 9.71449379,7.53208713 9.71449379,7.53208713 C9.71449379,7.53208713 12.2900619,6.81606767 12.2900619,3.94518876 C12.2900619,0.850697923 8.49960414,0.316146219 8.01364821,0.316146219 C7.00375652,0.316146219 0.238347188,0.316146219 0.238347188,0.316146219 Z M4.36897602,7.25401094 L4.36897602,1.97335409 C4.36897602,1.97335409 6.62275334,1.97335409 7.52769264,1.97335409 C8.01364821,1.97335409 9.71449379,2.54074284 9.71449379,4.64583015 C9.71449379,6.38093933 8.01364821,7.25401094 7.52769264,7.25401094 C6.42596047,7.25401094 4.36897602,7.25401094 4.36897602,7.25401094 Z M4.36897602,8.63900031 C4.36897602,8.63900031 7.52769264,8.63900031 8.01364821,8.63900031 C8.49960414,8.63900031 11.3667453,9.38373329 11.3667453,11.8713116 C11.3667453,14.4074843 8.49960414,15.3062464 8.01364821,15.3062464 C7.52769264,15.3062464 4.36897602,15.3062464 4.36897602,15.3062464 L4.36897602,8.63900031 Z" id="path3283"></path>
                </g>
            </g>
        </g>
    </g>
</svg>