<?xml version="1.0" encoding="UTF-8"?>
<svg width="62px" height="18px" viewBox="0 0 62 18" version="1.1" xmlns="http://www.w3.org/2000/svg" xmlns:xlink="http://www.w3.org/1999/xlink">
    <!-- Generator: Sketch 51.3 (57544) - http://www.bohemiancoding.com/sketch -->
    <title>BankNegaraIndonesia46-logo</title>
    <desc>Created with Sketch.</desc>
    <defs></defs>
    <g id="Page-1" stroke="none" stroke-width="1" fill="none" fill-rule="evenodd">
        <g id="m7-withdraw-balance-0-1366-copy" transform="translate(-211.000000, -916.000000)">
            <g id="BankNegaraIndonesia46-logo" transform="translate(211.000000, 916.000000)">
                <g id="Group-14" fill="#F15A23">
                    <polygon id="path3242" points="0.229868036 6.37460903 5.40963156 12.9021954 0.229868036 17.1901143"></polygon>
                    <polygon id="path3244" points="2.3145465 17.1901143 6.21206109 13.9328665 8.9059307 17.1901143"></polygon>
                    <path d="M0.229868036,2.8817788 L1.58159419,4.58996043 L7.13938004,11.527966 L8.94031612,10.0952731 C8.94031612,10.0952731 7.44521707,8.33683842 6.44132611,6.37460903 C4.47860106,2.53822226 5.86816231,0.149681138 5.86816231,0.149681138 L0.229868036,0.149681138 L0.229868036,2.8817788 Z" id="path3248"></path>
                    <path d="M7.93155249,12.5990205 L9.76567622,11.085561 C9.76567622,11.085561 11.517394,13.3891577 13.5485585,13.9328665 C16.2102701,14.6453627 17.3887557,12.9021954 17.3887557,12.9021954 L17.3887557,17.1901143 L11.5424847,17.1901143 L12.8607617,16.051468 C12.8607617,16.051468 12.1729652,16.5095443 10.4908218,15.3455449 C9.49799403,14.6585327 7.93155249,12.5990205 7.93155249,12.5990205 Z" id="path3250"></path>
                    <path d="M8.10017198,0.137186995 C8.10017198,0.137186995 7.51505955,0.933467893 7.93155249,2.8817788 C8.37672661,4.96425734 10.1471879,7.16832809 10.1430717,7.11898374 C10.1430717,7.11898374 10.2568965,4.93044024 11.5424847,3.64612748 C14.2827318,0.908598727 17.3887557,2.53822226 17.3887557,2.53822226 L17.3887557,0.149681138 L8.10017198,0.137186995 Z" id="path3262"></path>
                    <path d="M17.3887557,5.42414118 C17.3887557,5.42414118 15.6558311,3.94127489 14.1492118,3.94127489 C12.2219215,3.94127489 11.1699277,5.60352278 11.1699277,6.80930569 C11.1699277,8.56561607 12.013778,9.54151091 12.8607617,10.3876543 C14.0779301,11.6036159 15.5587051,12.9150664 17.3887557,11.8595345 C17.3887557,9.86181462 17.3887557,5.42414118 17.3887557,5.42414118 Z" id="path3298"></path>
                </g>
                <g id="Group-15" transform="translate(21.444744, 0.000000)" fill="#005E6A">
                    <path d="M15.6795126,0.315832581 L19.7688059,0.315832581 C19.7688059,0.315832581 23.3913985,5.7955125 25.1717262,8.05948686 C26.952054,10.3234616 28.8683954,12.9021954 28.8683954,12.9021954 C28.8683954,12.9021954 28.8683954,5.42414118 28.8683954,1.5430016 C28.8683954,1.05240722 27.5789825,0.315832581 27.5789825,0.315832581 L32.2945574,0.315832581 C32.2945574,0.315832581 30.7472547,0.950903759 30.7472547,1.5430016 C30.7472547,6.37460903 30.7472547,18.0679559 30.7472547,18.0679559 C30.7472547,18.0679559 29.2625827,17.2454711 27.5789825,15.2910617 C25.6873477,13.0951516 18.9583157,4.22968688 18.9583157,4.22968688 C18.9583157,4.22968688 18.9583157,12.5990205 18.9583157,15.7125047 C18.9583157,16.3005844 20.2477286,17.1901143 20.2477286,17.1901143 L15.6795126,17.1901143 C15.6795126,17.1901143 16.9320867,16.2933877 16.9320867,15.7125047 C16.9320867,11.527966 16.9320867,5.42414118 16.9320867,1.5430016 C16.9320867,1.02153348 15.6795126,0.315832581 15.6795126,0.315832581 Z" id="path3249"></path>
                    <path d="M34.9356222,0.315832581 L40.1839495,0.315832581 C40.1839495,0.315832581 38.7746802,0.982711938 38.7746802,1.5430016 C38.7746802,5.42414118 38.7746802,11.8595345 38.7746802,15.7125047 C38.7746802,16.3247868 40.1839495,17.1901143 40.1839495,17.1901143 L34.9356222,17.1901143 C34.9356222,17.1901143 36.2477076,16.3050699 36.2477076,15.7125047 C36.2477076,11.085561 36.2477076,5.42414118 36.2477076,1.5430016 C36.2477076,1.00432911 34.9356222,0.315832581 34.9356222,0.315832581 Z" id="path3267"></path>
                    <path d="M0.238347188,0.315832581 C0.238347188,0.315832581 1.59902531,0.993607546 1.59902531,1.5430016 C1.59902531,5.42414118 1.59902531,11.085561 1.59902531,15.7125047 C1.59902531,16.3148332 0.238347188,17.1901143 0.238347188,17.1901143 C0.238347188,17.1901143 7.03593722,17.1901143 8.01364821,17.1901143 C8.49960414,17.1901143 13.9423163,16.3010045 13.9423163,12.1090684 C13.9423163,7.91713336 9.71449379,7.52461482 9.71449379,7.52461482 C9.71449379,7.52461482 12.2900619,6.80930569 12.2900619,3.94127489 C12.2900619,0.849853977 8.49960414,0.315832581 8.01364821,0.315832581 C7.00375652,0.315832581 0.238347188,0.315832581 0.238347188,0.315832581 Z M4.36897602,7.2468145 L4.36897602,1.97139639 C4.36897602,1.97139639 6.62275334,1.97139639 7.52769264,1.97139639 C8.01364821,1.97139639 9.71449379,2.53822226 9.71449379,4.64122119 C9.71449379,6.37460903 8.01364821,7.2468145 7.52769264,7.2468145 C6.42596047,7.2468145 4.36897602,7.2468145 4.36897602,7.2468145 Z M4.36897602,8.63042987 C4.36897602,8.63042987 7.52769264,8.63042987 8.01364821,8.63042987 C8.49960414,8.63042987 11.3667453,9.37442403 11.3667453,11.8595345 C11.3667453,14.3931912 8.49960414,15.2910617 8.01364821,15.2910617 C7.52769264,15.2910617 4.36897602,15.2910617 4.36897602,15.2910617 L4.36897602,8.63042987 Z" id="path3283"></path>
                </g>
            </g>
        </g>
    </g>
</svg>