<?xml version="1.0" encoding="UTF-8"?>
<svg width="38px" height="36px" viewBox="0 0 38 36" version="1.1" xmlns="http://www.w3.org/2000/svg" xmlns:xlink="http://www.w3.org/1999/xlink">
    <!-- Generator: Sketch 49.1 (51147) - http://www.bohemiancoding.com/sketch -->
    <title>boleto</title>
    <desc>Created with Sketch.</desc>
    <defs></defs>
    <g id="Page-1" stroke="none" stroke-width="1" fill="none" fill-rule="evenodd">
        <g id="m7-withdraw-balance-0-1366" transform="translate(-787.000000, -1758.000000)" fill="#000105">
            <g id="boleto" transform="translate(787.000000, 1758.000000)">
                <path d="M6.29413734,22.3436147 C6.29413734,21.8442385 5.94137339,21.5947156 5.23633476,21.5947156 L4.89433476,21.5947156 L4.89433476,23.084422 L5.31592275,23.084422 C5.62334764,23.084422 5.86325322,23.0188624 6.03563948,22.8872477 C6.20786266,22.755633 6.29413734,22.5744771 6.29413734,22.3436147 Z M6.14295279,19.9841284 C6.14295279,19.7962018 6.07396567,19.6485688 5.93615451,19.5410642 C5.79834335,19.4338899 5.61013734,19.3798899 5.37153648,19.3798899 L4.89433476,19.3798899 L4.89433476,20.6927339 L5.33174249,20.6927339 C5.56512446,20.6927339 5.75854936,20.6255229 5.91234335,20.4914312 C6.06613734,20.3571743 6.14295279,20.1880734 6.14295279,19.9841284 Z M7.45517597,22.4402202 C7.45517597,22.9556147 7.26827468,23.3610275 6.8944721,23.6562936 C6.52066953,23.9515596 6.01052361,24.0991927 5.36354506,24.0991927 L3.60592275,24.0991927 L3.60592275,18.4298532 L5.37153648,18.4298532 C5.99193133,18.4298532 6.46913305,18.5545321 6.80314163,18.8042202 C7.13715021,19.0539083 7.30415451,19.4122569 7.30415451,19.8794312 C7.30415451,20.1692477 7.22456652,20.410844 7.06555365,20.6042202 C6.95938197,20.7330275 6.77133906,20.8861101 6.50093562,21.0631376 C6.79237768,21.2188624 6.99917597,21.3664954 7.12133047,21.5060367 C7.3439485,21.7585321 7.45517597,22.0698165 7.45517597,22.4402202 Z" id="Fill-1"></path>
                <path d="M12.4258369,21.2646055 C12.4258369,20.7437615 12.2960172,20.3236514 12.0362146,20.0042752 C11.776412,19.6847339 11.434412,19.5248807 11.0102146,19.5248807 C10.5860172,19.5248807 10.2440172,19.6847339 9.98437768,20.0042752 C9.72441202,20.3236514 9.59459227,20.7437615 9.59459227,21.2646055 C9.59459227,21.7852844 9.72441202,22.2053945 9.98437768,22.5247706 C10.2440172,22.8443119 10.5860172,23.004 11.0102146,23.004 C11.434412,23.004 11.776412,22.8443119 12.0362146,22.5247706 C12.2960172,22.2053945 12.4258369,21.7852844 12.4258369,21.2646055 Z M13.7938369,21.2646055 C13.7938369,22.1182018 13.5260429,22.8362202 12.990618,23.4186606 C12.45503,24.0012661 11.7948412,24.2924037 11.0102146,24.2924037 C10.225588,24.2924037 9.56539914,24.0012661 9.02997425,23.4186606 C8.49438627,22.8362202 8.22659227,22.1182018 8.22659227,21.2646055 C8.22659227,20.410844 8.49438627,19.6928257 9.02997425,19.1103853 C9.56539914,18.5277798 10.225588,18.2364771 11.0102146,18.2364771 C11.7948412,18.2364771 12.45503,18.5277798 12.990618,19.1103853 C13.5260429,19.6928257 13.7938369,20.410844 13.7938369,21.2646055 Z" id="Fill-2"></path>
                <polyline id="Fill-3" points="18.4306524 24.0991927 14.8754506 24.0991927 14.8754506 18.4298532 16.2116481 18.4298532 16.2116481 22.9072294 18.4306524 22.9072294 18.4306524 24.0991927"></polyline>
                <polyline id="Fill-4" points="22.7013305 24.0991927 19.408867 24.0991927 19.408867 18.4298532 22.7013305 18.4298532 22.7013305 19.5894495 20.7450644 19.5894495 20.7450644 20.636422 22.367485 20.636422 22.367485 21.7958532 20.7450644 21.7958532 20.7450644 22.9394312 22.7013305 22.9394312 22.7013305 24.0991927"></polyline>
                <polyline id="Fill-5" points="28.3879571 19.5410642 26.5985322 19.5410642 26.5985322 24.0991927 25.2623348 24.0991927 25.2623348 19.5410642 23.4729099 19.5410642 23.4729099 18.4298532 28.3879571 18.4298532 28.3879571 19.5410642"></polyline>
                <path d="M32.8895708,21.2646055 C32.8895708,20.7437615 32.759588,20.3236514 32.4997854,20.0042752 C32.2399828,19.6847339 31.8979828,19.5248807 31.4737854,19.5248807 C31.049588,19.5248807 30.707588,19.6847339 30.4477854,20.0042752 C30.1881459,20.3236514 30.0583262,20.7437615 30.0583262,21.2646055 C30.0583262,21.7852844 30.1881459,22.2053945 30.4477854,22.5247706 C30.707588,22.8443119 31.049588,23.004 31.4737854,23.004 C31.8979828,23.004 32.2399828,22.8443119 32.4997854,22.5247706 C32.759588,22.2053945 32.8895708,21.7852844 32.8895708,21.2646055 Z M34.2575708,21.2646055 C34.2575708,22.1182018 33.9896137,22.8362202 33.4541888,23.4186606 C32.9186009,24.0012661 32.2585751,24.2924037 31.4737854,24.2924037 C30.6891588,24.2924037 30.02897,24.0012661 29.4935451,23.4186606 C28.9579571,22.8362202 28.6903262,22.1182018 28.6903262,21.2646055 C28.6903262,20.410844 28.9579571,19.6928257 29.4935451,19.1103853 C30.02897,18.5277798 30.6891588,18.2364771 31.4737854,18.2364771 C32.2585751,18.2364771 32.9186009,18.5277798 33.4541888,19.1103853 C33.9896137,19.6928257 34.2575708,20.410844 34.2575708,21.2646055 Z" id="Fill-6"></path>
                <path d="M5.77404292,29.0052661 C5.77404292,28.6617798 5.5315279,28.4902018 5.04682403,28.4902018 L4.81164807,28.4902018 L4.81164807,29.5147156 L5.10145923,29.5147156 C5.31282403,29.5147156 5.47787124,29.4694679 5.59627468,29.3789725 C5.71467811,29.2884771 5.77404292,29.1639633 5.77404292,29.0052661 Z M5.67015451,27.382789 C5.67015451,27.2536514 5.62285837,27.1522569 5.528103,27.0782752 C5.43318455,27.0044587 5.30385408,26.967633 5.13978541,26.967633 L4.81164807,26.967633 L4.81164807,27.8701101 L5.11238627,27.8701101 C5.27286695,27.8701101 5.40578541,27.8238716 5.5116309,27.7317248 C5.6173133,27.6394128 5.67015451,27.523156 5.67015451,27.382789 Z M6.57253219,29.0716514 C6.57253219,29.4258716 6.44401717,29.704789 6.18698712,29.9077431 C5.92995708,30.1108624 5.57898712,30.2122569 5.13424034,30.2122569 L3.92574249,30.2122569 L3.92574249,26.3141835 L5.13978541,26.3141835 C5.56626609,26.3141835 5.89440343,26.3998899 6.12403433,26.571633 C6.35382833,26.743211 6.46864378,26.9897615 6.46864378,27.310789 C6.46864378,27.5102752 6.41384549,27.6764037 6.30457511,27.8091743 C6.23151073,27.8978532 6.10218026,28.0028807 5.91625751,28.1249174 C6.11669528,28.2319266 6.25890987,28.3333211 6.34290129,28.4292661 C6.49604292,28.6028257 6.57253219,28.8170092 6.57253219,29.0716514 Z" id="Fill-7"></path>
                <path d="M9.55822318,28.9831376 L9.02785408,27.7204954 L8.50286695,28.9831376 L9.55822318,28.9831376 Z M11.0292961,30.2122569 L10.0722833,30.2122569 L9.83172532,29.636422 L8.2295279,29.636422 L7.98880687,30.2122569 L7.08104721,30.2122569 L9.03323605,26.1812477 L9.10988841,26.1812477 L11.0292961,30.2122569 Z" id="Fill-8"></path>
                <polyline id="Fill-9" points="15.1140515 30.3451927 15.0157082 30.3451927 12.5657682 28.058367 12.5657682 30.2122569 11.7346609 30.2122569 11.7346609 26.1812477 11.8330043 26.1812477 14.2829442 28.4791376 14.2829442 26.3141835 15.1140515 26.3141835 15.1140515 30.3451927"></polyline>
                <path d="M19.3302575,29.0052661 L19.2537682,30.0241651 C18.8817597,30.2380183 18.480721,30.3451927 18.0506524,30.3451927 C17.73703,30.3451927 17.467279,30.2991193 17.2412361,30.2068073 C16.8803176,30.0590092 16.589691,29.8071743 16.36903,29.4509725 C16.1485322,29.0947706 16.0382833,28.6987706 16.0382833,28.2631376 C16.0382833,27.6689725 16.226,27.1733945 16.6014335,26.7764037 C16.976867,26.3797431 17.4454249,26.1812477 18.0069442,26.1812477 C18.2000429,26.1812477 18.3823777,26.2033761 18.5537854,26.247633 C18.7689013,26.3029541 18.9985322,26.3990642 19.2426781,26.535633 L19.1661888,27.5324037 C19.0968755,27.4622202 19.0331073,27.4014495 18.9748841,27.3495963 C18.712309,27.1170826 18.4096137,27.0008257 18.0669614,27.0008257 C17.7425751,27.0008257 17.48,27.1134495 17.2795622,27.3385321 C17.0791245,27.5637798 16.978824,27.8570642 16.978824,28.2188807 C16.978824,28.5991927 17.083691,28.9010642 17.2932618,29.1241651 C17.5028326,29.3475963 17.7844893,29.4592294 18.1380687,29.4592294 C18.4151588,29.4592294 18.6739828,29.4039083 18.9147039,29.2931009 C19.0531674,29.2303486 19.1916309,29.1344037 19.3302575,29.0052661" id="Fill-10"></path>
                <path d="M22.4144549,28.9831376 L21.8840858,27.7204954 L21.3589356,28.9831376 L22.4144549,28.9831376 Z M23.8853648,30.2122569 L22.928515,30.2122569 L22.6879571,29.636422 L21.0855966,29.636422 L20.8450386,30.2122569 L19.937279,30.2122569 L21.8894678,26.1812477 L21.9661202,26.1812477 L23.8853648,30.2122569 Z" id="Fill-11"></path>
                <path d="M26.428103,27.554367 C26.428103,27.358844 26.3661288,27.2194679 26.2421803,27.1364037 C26.1182318,27.0533394 25.9086609,27.0117248 25.6133047,27.0117248 L25.4931073,27.0117248 L25.4931073,28.2078165 C25.8210815,28.2041835 26.05903,28.1496881 26.2066266,28.0444954 C26.3543863,27.9393028 26.428103,27.7759817 26.428103,27.554367 Z M27.7186352,30.2122569 L26.6686609,30.2122569 L25.6188498,28.6730092 L25.4931073,28.6730092 L25.4931073,30.2122569 L24.6072017,30.2122569 L24.6072017,26.3141835 L25.6625579,26.3141835 C26.1547639,26.3141835 26.5383519,26.4165688 26.8136481,26.6215046 C27.0889442,26.8262752 27.2264292,27.1134495 27.2264292,27.4825321 C27.2264292,27.9364954 26.9894592,28.2852661 26.5156824,28.5290092 L27.7186352,30.2122569 Z" id="Fill-12"></path>
                <polygon id="Fill-13" points="28.3202747 30.2122569 29.2389614 30.2122569 29.2389614 26.3141835 28.3202747 26.3141835"></polygon>
                <path d="M33.0614678,28.2631376 C33.0614678,27.9051193 32.9720944,27.6162936 32.7935107,27.3966606 C32.6147639,27.1770275 32.379588,27.067211 32.0879828,27.067211 C31.7963777,27.067211 31.5612017,27.1770275 31.382618,27.3966606 C31.2038712,27.6162936 31.1146609,27.9051193 31.1146609,28.2631376 C31.1146609,28.6213211 31.2038712,28.9101468 31.382618,29.1297798 C31.5612017,29.349578 31.7963777,29.4592294 32.0879828,29.4592294 C32.379588,29.4592294 32.6147639,29.349578 32.7935107,29.1297798 C32.9720944,28.9101468 33.0614678,28.6213211 33.0614678,28.2631376 Z M34.0020086,28.2631376 C34.0020086,28.8502018 33.8177167,29.3437982 33.4497854,29.744422 C33.0813648,30.1450459 32.6276481,30.3451927 32.0879828,30.3451927 C31.5483176,30.3451927 31.0946009,30.1450459 30.7263433,29.744422 C30.3582489,29.3437982 30.1741202,28.8502018 30.1741202,28.2631376 C30.1741202,27.6764037 30.3582489,27.1824771 30.7263433,26.7820183 C31.0946009,26.3815596 31.5483176,26.1812477 32.0879828,26.1812477 C32.6276481,26.1812477 33.0813648,26.3815596 33.4497854,26.7820183 C33.8177167,27.1824771 34.0020086,27.6764037 34.0020086,28.2631376 Z" id="Fill-14"></path>
                <polygon id="Fill-15" points="0 36 1.54935622 36 1.54935622 0 0 0"></polygon>
                <polygon id="Fill-16" points="36.3141373 36 37.8634936 36 37.8634936 0 36.3141373 0"></polygon>
                <polygon id="Fill-17" points="3.60592275 17.0091743 5.15527897 17.0091743 5.15527897 0 3.60592275 0"></polygon>
                <polygon id="Fill-18" points="3.60592275 36 5.15527897 36 5.15527897 31.6179083 3.60592275 31.6179083"></polygon>
                <polygon id="Fill-19" points="32.5633906 17.0091743 34.1127468 17.0091743 34.1127468 0 32.5633906 0"></polygon>
                <polygon id="Fill-20" points="32.5633906 36 34.1127468 36 34.1127468 31.6179083 32.5633906 31.6179083"></polygon>
                <polygon id="Fill-21" points="14.5492704 17.0091743 16.0986266 17.0091743 16.0986266 0 14.5492704 0"></polygon>
                <polygon id="Fill-22" points="14.5492704 36 16.0986266 36 16.0986266 31.6179083 14.5492704 31.6179083"></polygon>
                <polygon id="Fill-23" points="21.0793991 17.0091743 22.0683777 17.0091743 22.0683777 0 21.0793991 0"></polygon>
                <polygon id="Fill-24" points="21.0793991 36 22.0683777 36 22.0683777 31.6179083 21.0793991 31.6179083"></polygon>
                <polygon id="Fill-25" points="9.55822318 17.0091743 12.5232017 17.0091743 12.5232017 0 9.55822318 0"></polygon>
                <polygon id="Fill-26" points="9.55822318 36 12.5232017 36 12.5232017 31.6179083 9.55822318 31.6179083"></polygon>
                <polygon id="Fill-27" points="24.4480258 17.0091743 27.4130043 17.0091743 27.4130043 0 24.4480258 0"></polygon>
                <polygon id="Fill-28" points="24.4480258 36 27.4130043 36 27.4130043 31.6179083 24.4480258 31.6179083"></polygon>
            </g>
        </g>
    </g>
</svg>