<?xml version="1.0" encoding="UTF-8"?>
<svg width="82px" height="30px" viewBox="0 0 82 30" version="1.1" xmlns="http://www.w3.org/2000/svg" xmlns:xlink="http://www.w3.org/1999/xlink">
    <!-- Generator: Sketch 51.3 (57544) - http://www.bohemiancoding.com/sketch -->
    <title>Group 38</title>
    <desc>Created with Sketch.</desc>
    <defs></defs>
    <g id="Page-1" stroke="none" stroke-width="1" fill="none" fill-rule="evenodd">
        <g id="m7-withdraw-balance-0-1366-copy" transform="translate(-398.000000, -1641.000000)" fill="#FFFFFF" fill-rule="nonzero">
            <g id="Group-38" transform="translate(398.000000, 1641.000000)">
                <path d="M8.37577901,1.5321768 C8.4319558,0.636972376 9.35796685,-0.0733922652 10.2368619,0.0724861878 C11.0921989,0.167624309 11.784442,1.0401768 11.6548729,1.89551381 C11.608663,2.18545856 11.432884,2.43372376 11.3712707,2.71913812 C11.4537238,3.05529282 11.6729945,3.33798895 11.8723315,3.61434254 C11.9121989,3.6678011 11.9529724,3.72125967 11.9937459,3.77562431 C11.9991823,3.83904972 12.0091492,3.96590055 12.0136796,4.03023204 C12.0925083,4.0320442 12.2492597,4.03748066 12.3271823,4.0401989 C12.370674,3.93690608 12.4123536,3.83361326 12.4540331,3.73032044 C12.5029613,3.60437569 12.545547,3.47571271 12.5890387,3.34704972 C12.7557569,3.2401326 12.7811271,3.03535912 12.8409282,2.86229834 L12.9424088,2.85142541 C12.9224751,2.57779006 12.7285746,2.3558011 12.7249503,2.08216575 C12.7059227,1.74872928 12.7113591,1.41348066 12.744884,1.08095028 C12.7992486,0.985812155 12.8318674,0.883425414 12.8436464,0.772883978 C12.8871381,0.772883978 12.9750276,0.772883978 13.0185193,0.772883978 C13.0112707,0.728486188 12.9949613,0.639690608 12.9868066,0.59438674 L13.1045967,0.568110497 C13.0991602,0.523712707 13.0873812,0.433104972 13.0819448,0.388707182 C13.12,0.395955801 13.1970166,0.411359116 13.2359779,0.419513812 C13.3691713,0.290850829 13.5114254,0.167624309 13.6835801,0.0942320442 C14.0695691,-0.00543646409 14.4736796,0.0308066298 14.8678232,0.0443977901 C15.0146077,0.0280883978 15.1160884,0.144066298 15.2211934,0.224707182 C15.2547182,0.218364641 15.3208619,0.207491713 15.3534807,0.202055249 L15.3534807,0.334342541 C15.3915359,0.328906077 15.4694586,0.317127072 15.5075138,0.311690608 C15.6162431,0.538209945 15.8246409,0.698585635 15.9623646,0.910607735 C16.1490166,1.35277348 16.1236464,1.88464088 15.9759558,2.33405525 C15.7485304,2.74179006 15.4141878,3.13230939 14.9520884,3.26822099 C14.4854586,3.38238674 13.9970829,3.31443094 13.5377017,3.20026519 C13.4516243,3.3198674 13.365547,3.44128177 13.3102762,3.5799116 C13.0103646,4.31927072 12.8119337,5.10121547 12.7358232,5.8958453 C12.7167956,6.64517127 12.721326,7.39630939 12.7421657,8.14654144 C12.9215691,8.1320442 13.0565746,8.02603315 13.1399337,7.87109392 C13.6926409,6.95867403 14.4211271,6.14229834 15.3118011,5.54881768 C15.3616354,5.5198232 15.4622099,5.46092818 15.5120442,5.4319337 C15.5455691,5.0359779 15.6044641,4.64274033 15.674232,4.25131492 C15.7023204,4.17701657 15.7394696,4.10724862 15.7865856,4.0438232 C16.036663,3.82908287 16.2459669,3.52645304 16.5893702,3.45940331 C17.1592928,3.3198674 17.8415691,3.32167956 18.3063867,3.73122652 C18.5664309,3.95683978 18.8237569,4.25403315 18.8156022,4.6200884 C18.8183204,5.07222099 18.8998674,5.57690608 18.6271381,5.97286188 C18.4939448,6.1921326 18.2810166,6.34435359 18.0717127,6.48479558 C17.6386077,6.52738122 17.1955359,6.64879558 16.7624309,6.5400663 C16.4090608,6.45127072 16.1680442,6.14773481 15.838232,6.0118232 C15.5591602,5.91668508 15.3851934,6.1839779 15.2356906,6.36519337 C14.9203757,6.7720221 14.5171713,7.1480442 14.4093481,7.67266298 C14.2924641,7.9761989 14.0949392,8.24258564 13.9916464,8.55155801 C13.8077127,9.13869613 13.5621657,9.71133702 13.4679337,10.3238453 C13.4280663,10.6618122 13.4325967,11.0043094 13.4298785,11.3449945 C13.8222099,11.2398895 14.0722873,10.9127956 14.3830718,10.6790276 C15.0662541,10.168 15.7820552,9.69140331 16.5630939,9.34346961 C17.0369724,9.13779006 17.5017901,8.88680663 18.0218785,8.81885083 C18.2384309,8.58961326 18.2293702,8.25798895 18.3498785,7.98163536 C18.555558,7.52134807 18.9759779,7.15529282 19.4706961,7.04022099 C19.9699448,6.96501657 20.5289945,6.99854144 20.9358232,7.3319779 C21.7657901,7.95535912 21.7476685,9.4241105 20.8597127,9.98859669 C20.4963757,10.2785414 20.0043757,10.2142099 19.5721768,10.2105856 C19.0665856,10.2123978 18.6552265,9.84634254 18.4096796,9.43498343 C18.1269834,9.4241105 17.8370387,9.44676243 17.5987403,9.61438674 C16.3990939,10.2123978 15.309989,11.0613923 14.5044862,12.1378122 C14.4301878,12.2628508 14.3975691,12.4078232 14.3513591,12.5446409 C14.3187403,12.545547 14.2553149,12.546453 14.2236022,12.546453 C14.0677569,12.8074033 13.9273149,13.0792265 13.7723757,13.3410829 C13.4117569,14.0786298 13.0339227,14.8460773 12.9922431,15.6805746 C13.1698343,15.649768 13.3691713,15.6407072 13.4815249,15.4767072 C13.9264088,14.981989 14.4809282,14.6132155 15.0001105,14.2054807 C15.0517569,14.1882652 15.1550497,14.1538343 15.2066961,14.1375249 C15.931558,13.6636464 16.7533702,13.3673591 17.5742762,13.108221 C18.2937017,13.1163757 18.9868508,12.8898564 19.6963094,12.7983425 C19.8394696,12.7593812 20.0369945,12.7439779 20.0877348,12.5754475 C20.2444862,12.2275138 20.3178785,11.819779 20.6196022,11.5570166 C21.073547,11.1076022 21.7820994,11.1057901 22.3656133,11.2407956 C23.017989,11.5071823 23.4483757,12.2574144 23.3179006,12.9587182 C23.264442,13.4461878 22.9156022,13.845768 22.5196464,14.1076243 C22.187116,14.2290387 21.8246851,14.326895 21.4704088,14.2453481 C21.226674,14.1918895 20.9865635,14.115779 20.7364862,14.0958453 C20.7020552,14.092221 20.6340994,14.0849724 20.5996685,14.080442 C20.605105,14.0396685 20.6150718,13.9563094 20.6205083,13.9146298 C20.5561768,13.9100994 20.4284199,13.9001326 20.3640884,13.8956022 C20.3459669,13.7859669 20.3251271,13.6772376 20.300663,13.5694144 C19.9318895,13.4561547 19.5323094,13.5639779 19.1517569,13.505989 C19.1562873,13.5340773 19.1635359,13.5911602 19.1671602,13.6201547 C18.8255691,13.6391823 18.4921326,13.7189171 18.1523536,13.7442873 C18.1596022,13.7814365 18.1750055,13.8548287 18.1831602,13.8910718 C18.04,13.9082873 17.8977459,13.9255028 17.7563978,13.9472486 C17.5525304,14.0840663 17.325105,14.1909834 17.0750276,14.198232 C17.0786519,14.2362873 17.0877127,14.3123978 17.0922431,14.350453 C16.9835138,14.362232 16.8756906,14.3767293 16.7687735,14.3921326 C16.5975249,14.6141215 16.2668066,14.6413039 16.130895,14.8950055 C16.0919337,14.8922873 16.014011,14.8868508 15.9741436,14.8841326 L16.0076685,15.0254807 C15.9696133,15.0191381 15.8944088,15.006453 15.8563536,15.0001105 C15.7023204,15.2510939 15.3897238,15.3407956 15.2411271,15.5999337 C15.0671602,15.7711823 14.8714475,15.9388066 14.7944309,16.1798232 C14.7563757,16.177105 14.678453,16.1707624 14.6403978,16.1680442 C14.6349613,16.2378122 14.6249945,16.376442 14.6204641,16.4462099 C14.5805967,16.4434917 14.4999558,16.4380552 14.4600884,16.435337 C14.4301878,16.5386298 14.4002873,16.6419227 14.3694807,16.7452155 C14.0179227,16.856663 13.9572155,17.2662099 13.7787182,17.5416575 C13.424442,18.063558 13.2531934,18.6860331 13.1589613,19.3030718 C13.1399337,19.4752265 13.1426519,19.7941657 13.3936354,19.7633591 C13.6464309,19.6111381 13.8493923,19.3782762 13.9599337,19.1037348 C14.6086851,18.6506961 15.2193812,18.1124862 15.978674,17.8451934 C15.9813923,17.8089503 15.9859227,17.735558 15.9886409,17.6984088 C15.990453,17.6811934 15.9931713,17.6449503 15.9940773,17.6268287 C16.1127735,17.6340773 16.2169724,17.6041768 16.3075801,17.5353149 C16.3429171,17.5407514 16.4154033,17.5516243 16.4516464,17.5561547 L16.4380552,17.4501436 C16.6537017,17.3975912 16.8720663,17.3540994 17.0922431,17.3241989 C17.0877127,17.2870497 17.079558,17.2118453 17.0750276,17.1737901 C17.2145635,17.1701657 17.3531934,17.1638232 17.4936354,17.1538564 C17.6386077,17.0632486 17.8125746,17.0786519 17.9765746,17.0659669 L17.9684199,16.9726409 L18.0853039,17.0034475 L18.0780552,16.903779 C18.3997127,16.927337 18.7141215,16.8575691 19.0303425,16.8149834 C19.5785193,16.7850829 20.1285083,16.785989 20.6784972,16.7887072 C20.7210829,16.6437348 20.7645746,16.4996685 20.8062541,16.3546961 L20.8832707,16.364663 C20.9204199,16.2514033 20.9593812,16.1399558 21.0001547,16.0285083 C21.167779,15.943337 21.2330166,15.7267845 21.4314475,15.6950718 C21.4296354,15.6606409 21.4241989,15.5926851 21.4223867,15.5582541 C21.5320221,15.5528177 21.6344088,15.522011 21.729547,15.4676464 C22.1300331,15.2275359 22.6283757,15.3797569 23.0714475,15.3471381 L23.0469834,15.4812376 C23.0922873,15.4676464 23.1847072,15.439558 23.2309171,15.4250608 L23.2445083,15.5419448 C23.3124641,15.5419448 23.4465635,15.5410387 23.5136133,15.5410387 C23.509989,15.5881547 23.5027403,15.6814807 23.499116,15.7285967 C23.5371713,15.7276906 23.6141878,15.7267845 23.6522431,15.7258785 C23.8262099,15.9342762 23.9947403,16.1508287 24.0998453,16.4036243 C24.1397127,16.5649061 24.1505856,16.7298122 24.1542099,16.8956243 L24.248442,16.9019669 C24.165989,17.2163757 24.1125304,17.5380331 24.038232,17.8542541 C23.9594033,17.923116 23.8805746,17.9919779 23.803558,18.0626519 C23.7600663,18.2121547 23.6495249,18.3236022 23.5009282,18.3689061 C23.475558,18.4069613 23.4248177,18.4839779 23.3994475,18.5229392 C23.2689724,18.5292818 23.1394033,18.5329061 23.0098343,18.5356243 C22.5758232,18.5238453 22.1227845,18.5745856 21.7114254,18.4069613 C21.2212376,18.1414807 21.003779,17.5978343 20.722895,17.1484199 C19.4942541,17.2308729 18.2647072,17.5108508 17.1692597,18.0834917 C17.1647293,18.1713812 17.161105,18.2592707 17.1583867,18.3480663 C17.5199116,18.5011934 17.8923094,18.660663 18.2964199,18.6226077 C18.3525967,18.6425414 18.4658564,18.6833149 18.5229392,18.7032486 C18.5374365,18.7095912 18.5655249,18.7222762 18.5800221,18.7286188 C18.6207956,18.7440221 18.7041547,18.7748287 18.7458343,18.789326 C18.7567072,18.7956685 18.7802652,18.8065414 18.7920442,18.812884 C19.0049724,18.9560442 19.2305856,19.081989 19.4398895,19.2323978 C19.4534807,19.2423646 19.4815691,19.2632044 19.4960663,19.2731713 L19.5567735,19.316663 C19.5676464,19.3257238 19.5902983,19.3429392 19.6011713,19.352 C19.691779,19.433547 19.7823867,19.5169061 19.8729945,19.6029834 C19.8811492,19.6084199 19.8974586,19.6201989 19.9065193,19.6265414 C19.9808177,19.6392265 20.1303204,19.6636906 20.2046188,19.6763757 C20.523558,19.5921105 20.8479337,19.5060331 21.1813702,19.5295912 C21.7431381,19.7352707 22.3148729,20.0949834 22.5305193,20.6803094 C22.6147845,21.1768398 22.667337,21.7902541 22.2559779,22.1644641 C21.8636464,22.6646188 21.1569061,22.901105 20.5480221,22.6990497 C20.1620331,22.6165967 19.8720884,22.3375249 19.6057017,22.0666077 C19.3393149,21.7902541 19.3492818,21.378895 19.3529061,21.0209945 C19.3456575,20.7147403 19.5304972,20.4574144 19.6129503,20.1729061 C18.9116464,19.4879116 17.9158674,19.1363536 16.9454586,19.093768 C16.3401989,19.1318232 15.6959779,19.1943425 15.1767956,19.5377459 C14.6413039,19.9744751 14.2707182,20.5742983 13.9236906,21.1632486 C13.8194917,21.3127514 13.7941215,21.4939669 13.7651271,21.6697459 C14.2471602,21.6688398 14.7319116,21.5392707 15.2112265,21.6498122 C15.6044641,21.7087072 15.9143425,21.9805304 16.2794917,22.1191602 C16.388221,22.1363757 16.5005746,22.1345635 16.6129282,22.1345635 C16.915558,22.1390939 17.2218122,22.1227845 17.524442,22.1653702 C17.9566409,22.2396685 18.2991381,22.5395801 18.6072044,22.8322431 C18.7367735,23.1167514 18.8228508,23.4248177 18.801105,23.7401326 C18.7983867,24.1388066 18.5763978,24.4840221 18.4196464,24.8373923 C18.1142983,24.9905193 17.8587845,25.2931492 17.4872928,25.2596243 C17.126674,25.2541878 16.7216575,25.3248619 16.4063425,25.1055912 C16.1716685,24.963337 15.977768,24.7658122 15.7965525,24.5628508 C15.8273591,24.4160663 15.7757127,24.3363315 15.6407072,24.3227403 C15.6198674,24.0636022 15.5573481,23.8089945 15.5555359,23.5489503 C15.6071823,23.2218564 15.7349392,22.9119779 15.7657459,22.5803536 C15.4567735,22.4199779 15.123337,22.2722873 14.7654365,22.3112486 C14.3087735,22.3076243 13.9599337,22.643779 13.6853923,22.9690608 C13.5585414,23.1267182 13.3646409,23.2626298 13.3465193,23.4791823 C13.2695028,24.2982762 13.4969282,25.1028729 13.5458564,25.9165304 C13.5685083,26.3378564 13.6092818,26.7582762 13.6835801,27.1741657 C13.7615028,27.6118011 13.7470055,28.0729945 13.9427182,28.4825414 C14.0197348,28.6845967 14.0795359,28.8929945 14.1266519,29.1050166 C13.9445304,29.2055912 13.7633149,29.3079779 13.5757569,29.3985856 C13.0783204,29.3197569 12.6298122,29.6287293 12.136,29.577989 C11.5126188,29.52 10.8720221,29.3813702 10.355558,29.0089724 C10.5920442,27.9307403 10.8076906,26.8389171 10.8348729,25.7325967 C10.906453,25.0412597 11.0559558,24.3462983 10.9599116,23.6504309 C10.9281989,23.5272044 10.8520884,23.4230055 10.7913812,23.3160884 C10.5494586,22.8992928 10.2305193,22.4861215 9.75301657,22.3320884 C9.31538122,22.14 8.87230939,22.4000442 8.46729282,22.5522652 C8.52528177,23.0632928 8.77898343,23.568884 8.62132597,24.0889724 C8.52437569,24.5438232 8.13748066,24.8319558 7.84662983,25.162674 C7.83303867,25.1753591 7.80585635,25.1998232 7.79226519,25.2125083 L7.77323757,25.2279116 C7.3600663,25.2505635 6.94236464,25.2904309 6.53100552,25.2297238 C6.05078453,25.0476022 5.63308287,24.6670497 5.46364641,24.1741436 C5.05953591,23.1783646 6.00638674,21.9506298 7.06921547,22.0684199 C7.38543646,22.0756685 7.70346961,22.1780552 8.01878453,22.116442 C8.40114917,21.9651271 8.7400221,21.6969282 9.15681768,21.6434696 C9.55005525,21.5619227 9.94329282,21.6797127 10.3374365,21.6797127 C10.5240884,21.671558 10.5739227,21.4441326 10.4742541,21.3127514 C10.1544088,20.7038674 9.7638895,20.1239779 9.28729282,19.6265414 C9.17765746,19.4942541 9.01456354,19.4417017 8.84965746,19.4272044 L8.79166851,19.4172376 C8.76720442,19.3664972 8.71737017,19.2632044 8.69290608,19.211558 C8.18640884,19.1227624 7.68081768,18.9687293 7.16163536,18.9959116 C6.69228729,19.0484641 6.23290608,19.1689724 5.78711602,19.3239116 C5.85779006,19.3384088 6.0000442,19.3664972 6.07071823,19.3809945 C5.60499448,19.480663 5.21356906,19.761547 4.81489503,20.0061878 C4.79224309,20.5308066 5.01785635,21.0454586 4.90822099,21.5682652 C4.84207735,21.8328398 4.70163536,22.0729503 4.54125967,22.2904088 C4.17429834,22.4317569 3.84448619,22.7072044 3.43675138,22.713547 C3.05710497,22.7307624 2.6838011,22.6410608 2.32046409,22.5413923 C2.00877348,22.2786298 1.75144751,21.9569724 1.58472928,21.5836685 C1.54304972,21.1704972 1.64090608,20.7718232 1.74691713,20.3776796 C1.87376796,20.2626077 1.99880663,20.1439116 2.12022099,20.0224972 C2.47359116,19.8258785 2.83420994,19.5685525 3.25825414,19.5902983 C3.61434254,19.6120442 3.94687293,19.7588287 4.29390055,19.8276906 C4.29752486,19.7787624 4.30296133,19.68 4.30567956,19.6310718 C4.30839779,19.5848619 4.31474033,19.4915359 4.31745856,19.445326 C4.36185635,19.4480442 4.45065193,19.4534807 4.49504972,19.4561989 C4.49776796,19.4090829 4.50229834,19.3157569 4.50501657,19.269547 C4.56934807,19.269547 4.69801105,19.270453 4.76143646,19.270453 L4.756,19.1590055 C4.80311602,19.1608177 4.89644199,19.1635359 4.94355801,19.1653481 C4.94083978,19.1200442 4.93630939,19.0303425 4.93359116,18.9850387 C5.00426519,18.9850387 5.14561326,18.9832265 5.21628729,18.9832265 C5.21809945,18.9460773 5.22262983,18.8726851 5.22534807,18.836442 C5.38028729,18.7965746 5.53341436,18.7503646 5.68654144,18.7041547 C5.68291713,18.6670055 5.67476243,18.5918011 5.67023204,18.5546519 C5.88859669,18.5392486 6.10696133,18.5156906 6.31898343,18.4604199 L6.29451934,18.3507845 C6.42499448,18.3516906 6.55546961,18.3535028 6.68775691,18.3553149 C6.68232044,18.2692376 6.67325967,18.097989 6.6678232,18.0119116 C6.40777901,17.9394254 6.1441105,17.8714696 5.87138122,17.8705635 C5.86775691,17.8488177 5.85960221,17.806232 5.85507182,17.7853923 L5.8278895,17.6558232 C5.81339227,17.6467624 5.78258564,17.629547 5.76718232,17.6204862 C5.15014365,17.2091271 4.37816575,17.290674 3.69498343,17.0786519 C3.49745856,17.196442 3.3280221,17.3577238 3.24919337,17.5788066 C3.10240884,17.9430497 2.79796685,18.2012818 2.55332597,18.496663 C2.33949171,18.5700552 2.12746961,18.6525083 1.90457459,18.6896575 C1.65540331,18.6851271 1.41076243,18.6298564 1.16249724,18.6162652 C1.06373481,18.6099227 0.965878453,18.6053923 0.868022099,18.6035801 C0.868928177,18.5619006 0.872552486,18.4803536 0.874364641,18.4395801 C0.832685083,18.438674 0.747513812,18.4359558 0.705834254,18.4350497 C0.679558011,18.2764862 0.539116022,18.2003757 0.412265193,18.1315138 C0.411359116,18.0925525 0.408640884,18.0155359 0.406828729,17.9774807 C0.364243094,17.9783867 0.278165746,17.982011 0.234674033,17.9829171 C0.231955801,17.8596906 0.229237569,17.7364641 0.227425414,17.6141436 L0.103292818,17.618674 C0.117790055,17.5751823 0.147690608,17.4881989 0.162187845,17.4447072 L0.0480220994,17.442895 C0.0516464088,17.1710718 0.0516464088,16.9001547 0.0462099448,16.6292376 L0.121414365,16.6183646 C0.170342541,16.4253702 0.224707182,16.2323757 0.258232044,16.036663 C0.275447514,16.0285083 0.309878453,16.013105 0.327093923,16.0049503 L0.437635359,15.9514917 C0.795535912,15.6316464 1.21867403,15.3000221 1.72879558,15.3371713 C2.2561326,15.275558 2.74994475,15.5510055 3.09969061,15.9261215 C3.28453039,16.1245525 3.33345856,16.4045304 3.48749171,16.622895 C3.70857459,16.8575691 4.05922652,16.7796464 4.34645304,16.797768 C5.59502762,16.7850829 6.80917127,17.1357348 7.95717127,17.5987403 C8.89043094,18.0037569 9.76026519,18.5609945 10.4941878,19.2677348 C10.5838895,19.5522431 10.8557127,19.6419448 11.1275359,19.6437569 C11.0894807,19.4752265 11.0523315,19.3076022 11.0142762,19.1399779 C10.9272928,18.3000442 10.5494586,17.5190055 10.1181657,16.8041105 C9.29635359,15.4350276 7.98616575,14.3866961 6.49929282,13.8176796 C5.72822099,13.5567293 4.94355801,13.2812818 4.11902762,13.2695028 C3.85626519,13.5984088 3.59622099,13.9572155 3.20660773,14.1456796 C2.7798453,14.3577017 2.28965746,14.2435359 1.83390055,14.2607514 C1.80943646,14.2399116 1.76141436,14.1991381 1.73695028,14.1792044 C1.58744751,14.0487293 1.43160221,13.9255028 1.28753591,13.7895912 C1.12625414,13.3447072 0.733922652,12.8807956 0.952287293,12.3915138 C1.05558011,12.1187845 1.15253039,11.8234033 1.37723757,11.6249724 C1.51949171,11.4818122 1.7161105,11.3730829 1.77319337,11.1674033 L1.79765746,11.1076022 C2.19633149,10.9544751 2.62671823,10.9970608 3.04441989,11.0070276 L3.03445304,11.1347845 C3.08066298,11.1175691 3.1721768,11.0840442 3.21748066,11.0668287 L3.21657459,11.1945856 C3.28724862,11.1945856 3.42859669,11.1945856 3.5001768,11.1936796 C3.49564641,11.2389834 3.48749171,11.3295912 3.4838674,11.3758011 C3.55001105,11.3767072 3.68229834,11.3794254 3.74844199,11.3803315 C3.75297238,11.4401326 3.7638453,11.5606409 3.76928177,11.620442 C3.99127072,11.6150055 4.01482873,11.8687072 4.11540331,12.0145856 C4.17973481,12.1514033 4.21869613,12.2963757 4.23409945,12.4476906 L4.31292818,12.4531271 L4.29390055,12.5256133 C4.39900552,12.5546077 4.47420994,12.6189392 4.52041989,12.7186077 C4.97255249,12.698674 5.41743646,12.7811271 5.86503867,12.8309613 C5.85779006,12.8690166 5.8441989,12.9460331 5.83695028,12.9840884 C6.06890608,12.9895249 6.30086188,13.0022099 6.53281768,13.0167072 C6.71493923,13.0837569 6.89977901,13.1462762 7.07737017,13.225105 C7.21509392,13.2477569 7.35372376,13.2676906 7.49235359,13.2894365 C7.48510497,13.3256796 7.46970166,13.3999779 7.46154696,13.4371271 C7.62917127,13.4525304 7.79770166,13.4697459 7.96623204,13.4860552 L8.02965746,13.5612597 C8.05865193,13.5975028 8.11664088,13.6690829 8.14472928,13.705326 C8.24530387,13.7125746 8.34587845,13.7216354 8.44645304,13.7306961 C8.47816575,13.7669392 8.54159116,13.8385193 8.57330387,13.8747624 C9.44132597,14.2725304 10.250453,14.8515138 10.8511823,15.5990276 C10.9454144,15.7729945 11.1329724,15.8273591 11.3114696,15.8835359 C11.2996906,15.5129503 11.2752265,15.1378343 11.1610608,14.7817459 C10.8312486,13.8194917 10.3745856,12.8934807 9.74123757,12.0934144 C9.49025414,11.7862541 9.25739227,11.4500994 8.9239558,11.2272044 L8.91942541,11.3431823 C8.89767956,11.3576796 8.856,11.3875801 8.83516022,11.4020773 C8.83334807,11.3603978 8.82972376,11.2779448 8.8279116,11.2362652 L8.74183425,11.1900552 L8.74092818,11.0632044 C8.69834254,11.0740773 8.61317127,11.0967293 8.57058564,11.1085083 C8.56967956,11.0595801 8.56967956,10.9617238 8.56967956,10.9137017 C8.52075138,10.9146077 8.4238011,10.918232 8.37487293,10.9200442 C8.37849724,10.8756464 8.38665193,10.7859448 8.39027624,10.741547 C8.32503867,10.7379227 8.19546961,10.729768 8.13023204,10.7261436 C8.13748066,10.4579448 7.87290608,10.4470718 7.67266298,10.4334807 C7.67447514,10.402674 7.67809945,10.3401547 7.6799116,10.308442 C7.44886188,10.2024309 7.32291713,9.93513812 7.02753591,9.98769061 C7.02844199,9.9478232 7.03025414,9.86718232 7.03116022,9.82640884 C6.98223204,9.83093923 6.88618785,9.84 6.83725967,9.84453039 L6.8481326,9.73308287 C6.78923757,9.73308287 6.67144751,9.73398895 6.61255249,9.73398895 C6.43314917,9.43770166 6.04534807,9.57270718 5.76083978,9.5600221 C5.75812155,9.62072928 5.75359116,9.74123757 5.75087293,9.80194475 C5.59140331,9.84181215 5.46727072,9.94963536 5.33226519,10.0357127 C4.70344751,10.2296133 3.94687293,10.3347182 3.37332597,9.93785635 C3.02539227,9.73489503 2.95834254,9.29272928 2.65661878,9.04627624 C2.64574586,8.70106077 2.65661878,8.3558453 2.6638674,8.01062983 L2.76444199,8.03962431 C2.79977901,7.9200221 2.83692818,7.80223204 2.87317127,7.68444199 C2.90760221,7.66722652 2.97555801,7.63370166 3.00998895,7.61648619 C3.3080884,7.45701657 3.55363536,7.18700552 3.89341436,7.11270718 C4.42075138,7.04928177 5.0278232,7.02934807 5.44099448,7.42439779 C5.84329282,7.72521547 5.89765746,8.24892818 6.09065193,8.67659669 C6.1558895,8.85056354 6.36066298,8.87683978 6.51107182,8.93935912 C8.08764641,9.41142541 9.49387845,10.3410608 10.7034917,11.4410387 C10.7641989,11.4274475 10.8847072,11.4011713 10.9445083,11.3884862 C11.0342099,10.9019227 10.812221,10.4416354 10.753326,9.96594475 C10.553989,9.03449724 10.1834033,8.14110497 9.70318232,7.31929282 C9.55458564,7.07012155 9.39874033,6.80464088 9.1359779,6.66057459 C9.1078895,6.6560442 9.05352486,6.64607735 9.02634254,6.64064088 C9.01003315,6.48570166 8.85871823,6.42952486 8.74727072,6.35432044 C8.7481768,6.31626519 8.74998895,6.2401547 8.75089503,6.20209945 C8.43014365,6.13142541 8.11029834,6.2401547 7.98163536,6.55909392 C7.92183425,6.55909392 7.80132597,6.55728177 7.74152486,6.55728177 L7.75420994,6.65060773 C7.40718232,6.71946961 7.05381215,6.76930387 6.69953591,6.72671823 C6.57812155,6.6959116 6.45670718,6.66872928 6.3361989,6.63973481 C6.2800221,6.51107182 6.15679558,6.47754696 6.03085083,6.46123757 L6.01454144,6.36700552 C5.9719558,6.37516022 5.88859669,6.39056354 5.84691713,6.39871823 C5.84601105,6.3479779 5.84510497,6.24649724 5.84510497,6.19575691 C5.7998011,6.19847514 5.71009945,6.20481768 5.66570166,6.20753591 C5.66479558,6.14048619 5.66207735,6.00729282 5.66117127,5.94024309 C5.59955801,5.93480663 5.47542541,5.92483978 5.41381215,5.91940331 C5.4038453,5.72550276 5.39116022,5.52979006 5.32320442,5.34676243 C5.3041768,5.13383425 5.30327072,4.92 5.32229834,4.70707182 C5.3521989,4.61283978 5.37847514,4.51770166 5.40203315,4.42165746 C5.4799558,4.23953591 5.59683978,4.07916022 5.73728177,3.94053039 C5.78077348,3.85264088 5.82426519,3.76565746 5.86775691,3.67867403 C5.92937017,3.6759558 6.05169061,3.67142541 6.11330387,3.66870718 C6.11330387,3.62430939 6.11239779,3.53551381 6.11239779,3.49111602 C6.18035359,3.4920221 6.31807735,3.49292818 6.38603315,3.49383425 L6.38875138,3.39507182 C6.92061878,3.3841989 7.47151381,3.3198674 7.9798232,3.52192265 C8.05865193,3.64243094 8.16103867,3.74753591 8.30691713,3.78559116 C8.30057459,3.82092818 8.28970166,3.89250829 8.28335912,3.9278453 C8.55518232,3.89250829 8.54159116,4.21779006 8.58145856,4.40262983 C8.62041989,4.39809945 8.69924862,4.38722652 8.73911602,4.38269613 C8.74636464,4.6880442 8.75361326,4.99429834 8.75089503,5.30145856 L8.86506077,5.3041768 C8.85418785,5.34223204 8.83062983,5.41743646 8.81885083,5.45549171 C9.09973481,5.5080442 9.28366851,5.74453039 9.50203315,5.90671823 C9.63432044,6.02903867 9.75845304,6.16495028 9.92335912,6.24649724 C9.91882873,6.27639779 9.91067403,6.33710497 9.90704972,6.3679116 C10.004,6.41321547 10.1036685,6.4558011 10.2042431,6.49566851 C10.1969945,6.53916022 10.1824972,6.62433149 10.1761547,6.66691713 C10.225989,6.66601105 10.3274696,6.66238674 10.3773039,6.66057459 C10.3727735,6.69953591 10.3637127,6.77564641 10.3591823,6.81460773 C10.5014365,6.83725967 10.5521768,6.95504972 10.590232,7.07646409 C10.6627182,7.13082873 10.7361105,7.18519337 10.8104088,7.23955801 C10.8203757,7.33560221 10.8312486,7.43255249 10.8430276,7.53040884 C10.8756464,7.544 10.9417901,7.57027624 10.9744088,7.58296133 C11.187337,7.80132597 11.2027403,8.1918453 11.5026519,8.31507182 L11.6403757,8.3558453 C11.6612155,8.21359116 11.6820552,8.07224309 11.7038011,7.93089503 C11.9629392,7.33107182 12.0064309,6.61074033 11.702895,6.01907182 C11.6802431,5.47723757 11.6331271,4.93268508 11.3966409,4.43706077 L11.3884862,4.37001105 C11.351337,4.0121105 11.2652597,3.64605525 11.0668287,3.34161326 C10.976221,3.2319779 10.8575249,3.07703867 10.695337,3.13683978 C10.2876022,3.22472928 9.85087293,3.32258564 9.44676243,3.16311602 C9.03087293,3.01814365 8.74545856,2.66658564 8.48632044,2.33043094 C8.40477348,2.0721989 8.33772376,1.804 8.37577901,1.5321768 Z M9.22839779,1.50318232 C9.11423204,1.79765746 9.34165746,2.05317127 9.47666298,2.29418785 C9.66059669,2.36486188 9.84090608,2.46271823 10.0411492,2.48174586 C10.3383425,2.50077348 10.5558011,2.23801105 10.7170829,2.02327072 C10.7959116,1.79312707 10.7469834,1.54486188 10.7370166,1.30746961 C10.5467403,1.15796685 10.3773039,0.967690608 10.1516906,0.872552486 C9.7321768,0.785569061 9.3960221,1.16340331 9.22839779,1.50318232 Z M13.9934586,1.11900552 C13.6881105,1.35096133 13.8049945,1.7641326 13.8122431,2.09303867 C13.9182541,2.12656354 13.987116,2.19814365 14.0179227,2.30506077 C14.1465856,2.32590055 14.2761547,2.34764641 14.4057238,2.37120442 C14.5325746,2.3440221 14.6612376,2.32046409 14.7899006,2.29690608 C14.8805083,2.14106077 14.9801768,1.98974586 15.0825635,1.84205525 C15.0816575,1.69436464 15.0807514,1.54667403 15.0798453,1.3998895 C15.0417901,1.40260773 14.9665856,1.40623204 14.9294365,1.4080442 C14.9113149,1.34733702 14.8759779,1.22592265 14.8578564,1.16521547 C14.5869392,1.06282873 14.2788729,1.12444199 13.9934586,1.11900552 Z M6.31717127,4.68532597 C6.24559116,4.91546961 6.29542541,5.16192265 6.30176796,5.39931492 C6.45308287,5.54338122 6.59261878,5.70738122 6.7801768,5.8079558 C6.99401105,5.87681768 7.22324862,5.83151381 7.43708287,5.77896133 C7.2359337,5.7318453 7.03387845,5.69288398 6.8318232,5.65392265 C6.81098343,5.63398895 6.76839779,5.59502762 6.74755801,5.57509392 C6.91699448,5.72822099 7.1761326,5.64576796 7.38453039,5.67385635 L7.38453039,5.54519337 C7.42620994,5.55244199 7.50956906,5.56693923 7.55124862,5.57418785 L7.56212155,5.51076243 C7.75420994,5.5161989 7.84300552,5.33770166 7.84300552,5.16917127 C7.91639779,4.75146961 7.61376796,4.27759116 7.17522652,4.23953591 C6.82276243,4.14258564 6.48660773,4.39356906 6.31717127,4.68532597 Z M16.6129282,4.67173481 C16.6310497,4.99248619 16.4788287,5.49535912 16.9028729,5.59412155 L16.8965304,5.67023204 C17.1103646,5.67023204 17.3241989,5.67023204 17.5389392,5.67023204 L17.5307845,5.55062983 C17.5697459,5.55516022 17.6485746,5.56331492 17.688442,5.56693923 C17.7255912,5.42468508 17.8044199,5.30055249 17.8986519,5.18910497 C17.9530166,4.8638232 17.7654586,4.59109392 17.5325967,4.38903867 C17.3223867,4.39085083 17.1121768,4.39085083 16.903779,4.39175691 C16.8059227,4.4841768 16.7089724,4.57840884 16.6129282,4.67173481 Z M19.3655912,8.2561768 C19.3329724,8.26614365 19.2677348,8.2878895 19.235116,8.29785635 C18.8899006,8.71102762 19.3438453,9.39692818 19.8449061,9.37699448 C20.1991823,9.4558232 20.417547,9.1359779 20.616884,8.9040221 C20.6114475,8.70830939 20.6096354,8.51350276 20.6123536,8.31779006 C20.4193591,8.06680663 20.1511602,7.89283978 19.8421878,7.82125967 C19.691779,7.95717127 19.2876685,8.00609945 19.3655912,8.2561768 Z M3.97496133,8.04234254 C3.96137017,8.08220994 3.93328177,8.16285083 3.91969061,8.20271823 C3.8798232,8.20362431 3.80190055,8.20453039 3.76293923,8.20543646 C3.7801547,8.48088398 3.65239779,8.82428729 3.85082873,9.05261878 C3.84992265,9.08886188 3.84720442,9.16225414 3.84539227,9.19849724 C3.89250829,9.1921547 3.98583425,9.17856354 4.03295028,9.17222099 L4.02570166,9.2918232 C4.23319337,9.29001105 4.44068508,9.28910497 4.6481768,9.28638674 C4.74059669,9.21118232 4.83392265,9.13869613 4.92906077,9.06711602 C4.96167956,8.77626519 4.95714917,8.48269613 4.93630939,8.19093923 C4.89009945,8.19365746 4.79677348,8.2 4.75056354,8.20271823 C4.75418785,8.15741436 4.76053039,8.06680663 4.7641547,8.02150276 C4.50139227,8.01062983 4.23409945,7.98707182 3.97496133,8.04234254 Z M2.12022099,12.0943204 C2.12203315,12.1423425 2.12565746,12.2365746 2.12837569,12.2845967 C2.08125967,12.2782541 1.98883978,12.2655691 1.94262983,12.2592265 C1.94534807,12.3072486 1.95078453,12.4032928 1.95350276,12.4513149 L1.85020994,12.464 C1.87648619,12.6533702 1.79856354,12.8907624 1.94987845,13.0420773 C1.94897238,13.0746961 1.94625414,13.1399337 1.94534807,13.1716464 C2.26156906,13.3356464 2.62037569,13.2994033 2.96287293,13.2685967 C2.95834254,13.225105 2.94837569,13.1390276 2.9438453,13.0955359 C2.98824309,13.0973481 3.0761326,13.1018785 3.11962431,13.1036906 C3.13049724,12.8590497 3.13321547,12.6144088 3.13049724,12.369768 C3.03626519,12.276442 2.94837569,12.1758674 2.84055249,12.0997569 C2.60134807,12.066232 2.35942541,12.0852597 2.12022099,12.0943204 Z M21.2457017,12.1649945 C21.0961989,12.5165525 21.0934807,12.9152265 21.2638232,13.260442 C21.5619227,13.2939669 21.8618343,13.2994033 22.1617459,13.2749392 C22.1599337,13.2269171 22.1581215,13.1308729 22.1563094,13.0828508 C22.198895,13.0919116 22.2840663,13.1100331 22.3257459,13.1181878 C22.4245083,12.920663 22.4281326,12.7022983 22.4217901,12.4866519 C22.3918895,12.4322873 22.3320884,12.3226519 22.3021878,12.2673812 C22.2632265,12.2737238 22.1862099,12.2845967 22.1481547,12.2900331 C22.151779,12.242011 22.1599337,12.1468729 22.163558,12.0988508 C21.8573039,12.088884 21.5365525,12.0399558 21.2457017,12.1649945 Z M21.8627403,16.8086409 L21.7820994,16.8077348 C21.7857238,16.9518011 21.7911602,17.0967735 21.7993149,17.2417459 C21.8663646,17.3350718 21.9316022,17.4302099 21.9886851,17.5316906 C22.2577901,17.6993149 22.5866961,17.6114254 22.8857017,17.617768 C22.8829834,17.5751823 22.8793591,17.489105 22.8766409,17.4465193 C22.9201326,17.4474254 23.0062099,17.4483315 23.0497017,17.4492376 C23.0623867,17.149326 23.124,16.8294807 22.9817459,16.5504088 C22.877547,16.4878895 22.7751602,16.4262762 22.6745856,16.3610387 C22.515116,16.3592265 22.3565525,16.3619448 22.198895,16.3664751 C22.0602652,16.4906077 21.870895,16.599337 21.8627403,16.8086409 Z M1.3998895,16.4289945 L1.40623204,16.5458785 C1.36364641,16.540442 1.27847514,16.5295691 1.2358895,16.5250387 C1.19964641,16.8530387 1.20145856,17.1837569 1.2358895,17.5135691 C1.51314917,17.6349834 1.81577901,17.6485746 2.11387845,17.6241105 C2.20629834,17.5489061 2.29962431,17.4755138 2.39476243,17.4039337 C2.41379006,17.1511381 2.41650829,16.8974365 2.40654144,16.6446409 C2.3358674,16.5748729 2.26700552,16.505105 2.19723757,16.4362431 C1.93175691,16.4217459 1.66537017,16.4208398 1.3998895,16.4289945 Z M20.5271823,20.6069171 C20.5253702,20.6567514 20.5217459,20.758232 20.5199337,20.8080663 C20.4755359,20.8017238 20.3876464,20.7890387 20.3432486,20.7826961 C20.3224088,21.0427403 20.3151602,21.3036906 20.3495912,21.5637348 C20.4592265,21.6117569 20.5453039,21.695116 20.6241326,21.7848177 C20.7826961,21.8228729 20.9439779,21.8518674 21.1070718,21.870895 C21.213989,21.835558 21.3227182,21.8038453 21.4323536,21.7748508 C21.4305414,21.7340773 21.4278232,21.6525304 21.4269171,21.6117569 C21.4713149,21.612663 21.5592044,21.6153812 21.6036022,21.6162873 C21.6525304,21.4196685 21.6869613,21.2194254 21.6914917,21.0173702 C21.6534365,20.9258564 21.6162873,20.8361547 21.5800442,20.746453 C21.4477569,20.6911823 21.3308729,20.6096354 21.2230497,20.5181215 C21.0518011,20.5144972 20.8805525,20.5144972 20.7102099,20.5144972 L20.7047735,20.6313812 C20.6603757,20.6250387 20.5715801,20.6123536 20.5271823,20.6069171 Z M2.85323757,20.7256133 C2.80974586,20.7183646 2.72276243,20.7029613 2.67927072,20.6957127 C2.59862983,20.9883757 2.55966851,21.2955359 2.66477348,21.589105 C2.86501657,21.7386077 3.08609945,21.870895 3.34523757,21.8727072 C3.44309392,21.8400884 3.5400442,21.8074696 3.63699448,21.7739448 C3.7040442,21.6987403 3.77018785,21.6253481 3.83723757,21.5519558 C3.86985635,21.3055028 3.86895028,21.0563315 3.85445304,20.8089724 C3.79102762,20.7410166 3.72760221,20.6730608 3.66598895,20.606011 C3.39235359,20.5915138 3.11962431,20.5915138 2.84689503,20.6005746 L2.85323757,20.7256133 Z M6.68956906,22.8612376 C6.70678453,22.9065414 6.74121547,22.9971492 6.75843094,23.041547 L6.65695028,23.0397348 C6.65785635,23.088663 6.65785635,23.1856133 6.65876243,23.2345414 C6.61527072,23.2281989 6.52828729,23.2164199 6.48479558,23.2100773 C6.44583425,23.2263867 6.3679116,23.2580994 6.32985635,23.2744088 C6.23381215,23.627779 6.28092818,24.0074254 6.5201326,24.2919337 C6.72309392,24.378011 6.93964641,24.4405304 7.16254144,24.4169724 C7.36550276,24.4260331 7.61104972,24.2964641 7.58930387,24.0636022 C7.62373481,24.0572597 7.69259669,24.0454807 7.72702762,24.0391381 C7.90190055,23.8008398 7.92183425,23.2943425 7.56483978,23.2191381 L7.68897238,23.1439337 C7.44523757,22.8286188 7.05109392,22.8204641 6.68956906,22.8612376 Z M16.6256133,23.2689724 C16.6074917,23.5489503 16.5794033,23.8352707 16.6527956,24.1116243 C16.6935691,24.1234033 16.775116,24.1487735 16.8158895,24.1605525 L16.8041105,24.2520663 C17.0741215,24.2629392 17.3441326,24.2620331 17.6141436,24.2511602 L17.6313591,24.1822983 C17.7283094,24.0817238 17.817105,23.9748066 17.9013702,23.8642652 C17.8977459,23.7183867 17.8959337,23.5734144 17.8959337,23.428442 C17.7455249,23.2753149 17.6141436,23.0968177 17.4293039,22.9844641 C17.1194254,22.9074475 16.8548508,23.0877569 16.6256133,23.2689724 Z" id="Shape"></path>
                <path d="M79.8770608,5.1039337 C79.8897459,5.10846409 79.9133039,5.11661878 79.925989,5.12024309 C79.8924641,5.24890608 79.9549834,5.41290608 80.113547,5.36307182 C80.640884,5.29420994 81.1827182,5.23259669 81.7109613,5.33407735 C81.929326,5.37032044 81.9537901,5.6158674 81.9519779,5.79527072 C81.9483536,10.9336354 81.9501657,16.0710939 81.9510718,21.2094586 C81.9365746,22.175337 81.9755359,23.1430276 81.9347624,24.108 C81.9474475,24.4160663 81.5922652,24.4169724 81.3720884,24.4215028 C80.3418785,24.4196906 79.3107624,24.4196906 78.2814586,24.4205967 C77.864663,24.4740552 77.6707624,24.0472928 77.3536354,23.873326 C77.3038011,23.8706077 77.2050387,23.8642652 77.1552044,23.861547 C77.1597348,23.8207735 77.1678895,23.7374144 77.1724199,23.6957348 L77.0818122,23.6794254 C77.0872486,23.5389834 77.0020773,23.4474696 76.8960663,23.3749834 C76.8915359,23.3179006 76.8842873,23.2037348 76.8797569,23.1466519 C76.833547,23.1511823 76.7393149,23.1584309 76.6921989,23.1620552 C76.6985414,23.1149392 76.7094144,23.0207072 76.7148508,22.9735912 L76.5807514,22.9654365 C76.5934365,22.9282873 76.6179006,22.853989 76.6305856,22.8168398 C76.3324862,22.7099227 76.329768,22.3030939 76.0742541,22.1273149 C75.8903204,21.7494807 75.5904088,21.4450387 75.4119116,21.0644862 L75.3267403,21.0653923 C75.3312707,21.0173702 75.3394254,20.922232 75.3430497,20.8742099 C75.3013702,20.8787403 75.218011,20.8896133 75.1763315,20.8950497 C75.1428066,20.7654807 75.1083757,20.6377238 75.0748508,20.5099669 L74.9851492,20.5335249 C74.9461878,20.430232 74.9081326,20.3269392 74.8709834,20.2245525 C74.8374586,20.2318011 74.7695028,20.2472044 74.7359779,20.2553591 C74.7106077,20.0533039 74.6163757,19.8757127 74.503116,19.7117127 L74.4233812,19.703558 C74.4270055,19.656442 74.4333481,19.5622099 74.4360663,19.5150939 C74.397105,19.5205304 74.3173702,19.5304972 74.2784088,19.5350276 C74.209547,19.3574365 74.2186077,19.0765525 73.9794033,19.047558 C73.9830276,19.0149392 73.9893702,18.9515138 73.9929945,18.918895 C73.7130166,18.8654365 73.8271823,18.4658564 73.5399558,18.3933702 C73.5372376,18.3390055 73.530895,18.2293702 73.5272707,18.1750055 L73.414011,18.1849724 L73.4575028,18.097989 C73.2663204,18.0726188 73.2826298,17.8460994 73.2309834,17.7101878 C73.1965525,17.7165304 73.1285967,17.7283094 73.0941657,17.7337459 C73.1023204,17.4637348 72.7824751,17.348663 72.7933481,17.0750276 L72.6954917,17.0958674 L72.7208619,16.9762652 L72.5976354,16.9889503 C72.6085083,16.9463646 72.6311602,16.8611934 72.6429392,16.8186077 L72.5496133,16.8140773 C72.4191381,16.5205083 72.136442,16.3130166 72.0576133,15.9967956 C72.019558,15.9940773 71.9434475,15.9877348 71.9053923,15.9850166 C71.9053923,15.9170608 71.9035801,15.7829613 71.9035801,15.7159116 C71.8573702,15.7177238 71.7658564,15.720442 71.7196464,15.7222541 C71.7187403,15.6561105 71.7178343,15.5229171 71.7169282,15.4558674 L71.610011,15.4522431 C71.6154475,15.4078453 71.6245083,15.3199558 71.6290387,15.275558 C71.5837348,15.2746519 71.4940331,15.2737459 71.4487293,15.2728398 C71.4478232,15.204884 71.445105,15.0671602 71.4432928,14.9992044 C71.3970829,15.0001105 71.304663,15.0010166 71.258453,15.0019227 C71.2638895,14.9566188 71.2747624,14.865105 71.2792928,14.818895 L71.1497238,14.807116 C71.1596906,14.7708729 71.1805304,14.6983867 71.1904972,14.6621436 C70.9204862,14.525326 70.8199116,14.1801105 70.6894365,13.9218785 C70.6522873,13.9182541 70.577989,13.9110055 70.5408398,13.9082873 C70.5408398,13.8394254 70.5399337,13.7035138 70.5399337,13.6346519 C70.4937238,13.6382762 70.4013039,13.6446188 70.356,13.6482431 C70.3569061,13.5947845 70.3596243,13.4887735 70.3614365,13.436221 C70.320663,13.4425635 70.2382099,13.4552486 70.1974365,13.4615912 C70.1883757,13.2885304 70.1276685,13.131779 70.0198453,12.9976796 C69.9410166,12.8880442 69.864,12.7784088 69.7869834,12.6687735 C69.7271823,12.5772597 69.6691934,12.4848398 69.6148287,12.3915138 C69.5215028,12.2610387 69.430895,12.1133481 69.2732376,12.054453 C69.150011,12.4023867 69.1935028,12.7738785 69.1889724,13.1344972 C69.1889724,16.9572376 69.1925967,20.7799779 69.1862541,24.6027182 C69.0295028,24.6 68.8727514,24.5981878 68.7178122,24.5954696 L68.727779,24.6833591 C68.5746519,24.6806409 68.423337,24.6806409 68.2729282,24.681547 L68.2801768,24.5945635 C68.129768,24.6 67.9802652,24.6054365 67.8316685,24.6108729 L67.8180773,24.682453 C67.6142099,24.6788287 67.4103425,24.6797348 67.2082873,24.6851713 C67.145768,24.6598011 67.0198232,24.6108729 66.9573039,24.5855028 L66.959116,24.5483536 C67.216442,24.6761105 67.5118232,24.6860773 67.7872707,24.6099669 C68.2258122,24.4976133 68.680663,24.5238895 69.1282652,24.5501657 C69.1282652,24.5093923 69.1273591,24.4269392 69.1273591,24.3861657 C68.5338785,24.4794917 67.9249945,24.5447293 67.3278895,24.4622762 C67.1439558,24.4523094 67.0660331,24.2665635 67.0850608,24.1061878 C67.0832486,17.8361326 67.0850608,11.5651713 67.0841547,5.29511602 C67.3088619,5.23712707 67.5399116,5.20179006 67.7745856,5.21266298 C68.5909613,5.23259669 69.4082431,5.20450829 70.2246188,5.22172376 C70.5326851,5.19635359 70.684,5.50351381 70.8371271,5.71553591 C71.8446851,7.32835359 72.9473812,8.87683978 73.9821215,10.4715359 C74.5511381,11.3051271 75.1228729,12.136 75.6565525,12.9931492 C76.1974807,13.7198232 76.646895,14.5099227 77.1977901,15.2302541 C77.2131934,15.1949171 77.244,15.1251492 77.2594033,15.0898122 L77.325547,14.9430276 C77.3300773,15.0082652 77.337326,15.1396464 77.3418564,15.2057901 C77.3780994,15.1994475 77.4523978,15.1885746 77.4886409,15.182232 C77.4931713,15.3725083 77.5375691,15.5709392 77.7677127,15.5790939 C77.7758674,15.6896354 77.7867403,15.8010829 77.7994254,15.9125304 C77.8556022,15.9152486 77.9679558,15.9206851 78.0241326,15.9234033 C78.0585635,16.0901215 78.0196022,16.3202652 78.2171271,16.3927514 C78.2615249,16.6156464 78.4789834,16.7307182 78.5532818,16.9400221 C78.7091271,17.0496575 78.7471823,17.2417459 78.8160442,17.4093702 C78.9945414,17.4220552 78.9646409,17.5969282 78.9845746,17.7292155 C79.0226298,17.7210608 79.0978343,17.7056575 79.1358895,17.6975028 C79.1721326,17.8243536 79.2110939,17.9512044 79.2491492,18.0789613 C79.2926409,18.0762431 79.3796243,18.0689945 79.423116,18.0653702 C79.4149613,18.1133923 79.4004641,18.2103425 79.3923094,18.2583646 L79.5300331,18.262895 C79.5173481,18.3109171 79.4919779,18.4069613 79.4792928,18.4540773 L79.6260773,18.4169282 C79.621547,18.4667624 79.6115801,18.5646188 79.6070497,18.613547 C79.6967514,18.6217017 79.7873591,18.6298564 79.879779,18.6389171 C79.8734365,14.127558 79.8770608,9.61529282 79.8770608,5.1039337 Z" id="Shape"></path>
                <path d="M53.8028729,5.29239779 C53.8653923,5.27699448 53.9886188,5.24618785 54.0511381,5.22987845 C55.408442,5.13564641 56.7720884,5.19091713 58.1330166,5.20722652 L58.1185193,5.30236464 C58.3649724,5.30236464 58.6123315,5.30870718 58.8605967,5.31142541 C58.8569724,5.35038674 58.8497238,5.42740331 58.8460994,5.46636464 C59.0146298,5.47361326 59.1858785,5.48358011 59.3471602,5.54428729 C59.5401547,5.56693923 59.7358674,5.58143646 59.9315801,5.59140331 C59.929768,5.6321768 59.9270497,5.71372376 59.9252376,5.75449724 C59.9841326,5.75812155 60.1037348,5.76627624 60.1626298,5.76990055 C60.2912928,5.83060773 60.434453,5.84691713 60.5767072,5.86141436 C60.5703646,5.89856354 60.5585856,5.97286188 60.5531492,6.01001105 C60.7117127,6.0199779 60.8739006,6.03085083 61.0360884,6.04081768 C61.0261215,6.07977901 61.0070939,6.15770166 60.9971271,6.19666298 C61.1538785,6.24649724 61.3151602,6.28908287 61.4782541,6.3198895 C61.4773481,6.36066298 61.4746298,6.44311602 61.4728177,6.4838895 C61.523558,6.47845304 61.6241326,6.46848619 61.6739669,6.46304972 L61.6331934,6.59261878 L61.7491713,6.56543646 C61.7500773,7.86928177 61.745547,9.17312707 61.7518895,10.4769724 C61.6594696,10.472442 61.5679558,10.4688177 61.4773481,10.4651934 C61.4864088,10.4162652 61.5045304,10.3184088 61.5135912,10.2694807 L61.4392928,10.320221 C61.3396243,9.97862983 61.0813923,9.72674033 60.8584972,9.46307182 C60.2885746,8.74998895 59.5745856,8.16103867 58.8189171,7.65363536 C58.8705635,7.64366851 58.9738564,7.62373481 59.0255028,7.61286188 C58.7391823,7.31566851 58.3586298,7.14985635 57.9943867,6.97317127 C57.2133481,6.56453039 56.3281105,6.37153591 55.4510276,6.35794475 C54.8203978,6.41412155 54.1716464,6.48479558 53.5908508,6.7520884 C53.3788287,6.83363536 53.2972818,7.05653039 53.1994254,7.24046409 C52.7889724,7.68716022 52.5207735,8.27429834 52.5089945,8.88318232 C52.5832928,9.24742541 52.6702762,9.62979006 52.890453,9.93785635 C52.924884,9.93695028 52.9928398,9.9360442 53.0272707,9.9360442 C53.0798232,10.1118232 53.0979448,10.3782099 53.3344309,10.3936133 C53.3317127,10.4217017 53.3271823,10.4787845 53.3244641,10.5068729 C53.5047735,10.6445967 53.6606188,10.8104088 53.8219006,10.9698785 C53.9242873,11.0287735 54.014895,11.1039779 54.0864751,11.2009282 C54.1245304,11.1973039 54.1988287,11.1909613 54.236884,11.1882431 C54.2350718,11.2290166 54.2323536,11.3123757 54.2314475,11.3540552 C54.4996464,11.4011713 54.6853923,11.6349392 54.9590276,11.6684641 C54.9581215,11.7065193 54.9554033,11.7835359 54.9544972,11.8215912 C55.010674,11.8243094 55.1239337,11.8297459 55.1801105,11.8333702 C55.2770608,11.8886409 55.3821657,11.9194475 55.4972376,11.9276022 L55.4836464,12.0109613 C55.6648619,12.0707624 55.853326,12.1015691 56.0445083,12.1187845 C56.0454144,12.1550276 56.0463204,12.2266077 56.0472265,12.2628508 C56.3616354,12.2637569 56.6488619,12.4005746 56.9496796,12.4748729 L56.9369945,12.5636685 C57.0067624,12.558232 57.1453923,12.5491713 57.2142541,12.5446409 L57.2287514,12.6588066 C57.2749613,12.6461215 57.3664751,12.6225635 57.4126851,12.6107845 L57.3891271,12.7385414 C57.5413481,12.7403536 57.6962873,12.7457901 57.8512265,12.7494144 C57.8512265,12.7956243 57.8503204,12.8880442 57.8503204,12.9351602 C57.8974365,12.9233812 57.9925746,12.9016354 58.0405967,12.8907624 L58.0279116,13.0158011 C58.0976796,13.0112707 58.2363094,13.0022099 58.3060773,12.9976796 L58.3205746,13.1109392 C58.3649724,13.1000663 58.454674,13.0783204 58.4999779,13.0683536 L58.4718895,13.1843315 C58.5978343,13.167116 58.7074696,13.1970166 58.8017017,13.2731271 C58.8279779,13.2740331 58.8805304,13.2767514 58.9059006,13.2776575 C58.9249282,13.4470939 59.0708066,13.4561547 59.2094365,13.4643094 L59.2284641,13.5204862 C59.3589392,13.5358895 59.4567956,13.6219669 59.5546519,13.7035138 C59.6008619,13.7107624 59.6923757,13.7252597 59.7385856,13.7325083 C59.9016796,13.8792928 60.081989,14.0061436 60.2668287,14.1248398 C60.3683094,14.1529282 60.4706961,14.1801105 60.5758011,14.2045746 C60.5721768,14.2380994 60.5649282,14.3042431 60.5613039,14.337768 C60.9355138,14.4111602 61.0832044,14.8497017 61.4537901,14.9258122 C61.4746298,15.0870939 61.6032928,15.193105 61.711116,15.3045525 C61.8080663,15.4024088 61.910453,15.4966409 62.0182762,15.5854365 C62.0146519,15.6216796 62.0055912,15.6950718 62.0019669,15.7313149 C62.0490829,15.7285967 62.144221,15.7240663 62.1922431,15.7222541 C62.1958674,15.7820552 62.203116,15.9025635 62.2076464,15.9632707 C62.4069834,15.978674 62.4495691,16.1979448 62.4667845,16.3601326 L62.5628287,16.3556022 L62.5673591,16.4779227 C62.6036022,16.4733923 62.6760884,16.4652376 62.7123315,16.4607072 C62.7241105,16.621989 62.7377017,16.7823646 62.7576354,16.9436464 C62.8872044,17.0487514 62.9297901,17.2000663 62.918011,17.3640663 L63.0040884,17.3640663 C63.0104309,17.5353149 62.9796243,17.7210608 63.0720442,17.8769061 C63.1381878,18.4513591 63.092884,19.0321547 63.0974144,19.609326 L63.0031823,19.6075138 C63.0077127,19.7352707 63.0140552,19.8648398 63.0213039,19.9944088 L62.9152928,19.9599779 C62.9143867,20.1511602 62.9134807,20.3432486 62.9116685,20.5344309 C62.869989,20.5289945 62.788442,20.5163094 62.7467624,20.5108729 C62.7449503,20.6331934 62.7440442,20.757326 62.7449503,20.8814586 L62.6516243,20.8932376 C62.6525304,20.9639116 62.6552486,21.1043536 62.6561547,21.1750276 C62.6153812,21.1695912 62.5356464,21.1587182 62.495779,21.1532818 C62.4649724,21.3390276 62.4205746,21.5220552 62.3752707,21.7050829 C62.3299669,21.7014586 62.2393591,21.6942099 62.1940552,21.6914917 C62.203116,21.7386077 62.2203315,21.8346519 62.2293923,21.882674 L62.0898564,21.8862983 C62.1007293,21.9234475 62.1224751,21.9977459 62.1333481,22.034895 C61.9702541,22.0946961 61.9421657,22.2985635 61.7854144,22.3683315 C61.7183646,22.4824972 61.6250387,22.5767293 61.5090608,22.6401547 C61.066895,22.8766409 60.7407072,23.2789392 60.2903867,23.5027403 C59.227558,24.1089061 58.0233812,24.4151602 56.8119558,24.5148287 C56.0254807,24.5148287 55.2399116,24.517547 54.4543425,24.5148287 C53.9360663,24.5266077 53.4331934,24.2439116 52.9167293,24.3961326 C52.4772818,24.3626077 52.082232,24.1469613 51.6445967,24.1116243 C51.6074475,24.0790055 51.5331492,24.014674 51.496,23.9820552 C51.2105856,23.9059448 50.9260773,23.8280221 50.6379448,23.7664088 C50.7158674,23.7437569 50.7946961,23.721105 50.8744309,23.6993591 C50.792884,23.6930166 50.6306961,23.6821436 50.5491492,23.6758011 C50.3788066,23.5670718 50.2030276,23.4683094 50.0263425,23.3731713 C49.9919116,23.3441768 49.9230497,23.2861878 49.8886188,23.2580994 C49.8605304,23.252663 49.8043536,23.2426961 49.7771713,23.2372597 C49.7717348,21.8763315 49.7699227,20.5144972 49.7780773,19.1535691 C49.8315359,19.1580994 49.9366409,19.1671602 49.9891934,19.1716906 C49.9792265,19.2179006 49.9583867,19.3103204 49.9475138,19.3565304 C49.9928177,19.3556243 50.0834254,19.352 50.1287293,19.3510939 C50.1577238,19.5132818 50.231116,19.6673149 50.3842431,19.7479558 C50.4331713,19.9599779 50.6859669,20.0369945 50.7122431,20.2562652 C50.7521105,20.253547 50.8336575,20.2472044 50.8735249,20.2435801 C50.8744309,20.2825414 50.8762431,20.3613702 50.8771492,20.4003315 C50.9913149,20.4746298 51.1462541,20.5280884 51.1643757,20.6857459 C51.2432044,20.7265193 51.3238453,20.7663867 51.4044862,20.8071602 L51.4189834,20.9530387 C51.4479779,21.2366409 51.7995359,21.3209061 51.9934365,21.4749392 C52.9312265,22.1028508 53.9360663,22.7497901 55.0940331,22.8268066 C55.8379227,22.9708729 56.5881547,22.8059669 57.3202652,22.6700552 C57.2079116,22.6492155 57.1000884,22.6301878 56.990453,22.6120663 C57.564,22.6664309 58.0433149,22.268663 58.3903425,21.8573039 C58.7926409,21.367116 58.6902541,20.6939006 58.6639779,20.1076685 C58.4501436,19.1100773 57.6999116,18.3299448 56.896221,17.7500552 C56.4123757,17.3622541 55.8379227,17.1112707 55.2743425,16.8648177 C54.2930608,16.5223204 53.3344309,16.1136796 52.422011,15.6162431 C52.2000221,15.4875801 52.0043094,15.2837127 51.7352044,15.2683094 C51.7062099,15.263779 51.648221,15.2547182 51.6201326,15.2501878 C51.6165083,15.0816575 51.4506961,15.0861878 51.3265635,15.0599116 C51.3292818,15.0254807 51.3338122,14.9566188 51.3356243,14.9221878 C51.1761547,14.8623867 51.0339006,14.7699669 50.8889282,14.6857017 C50.8825856,14.6467403 50.8717127,14.5679116 50.8662762,14.5280442 C50.8209724,14.5352928 50.7294586,14.548884 50.6841547,14.5552265 C50.6868729,14.5180773 50.6932155,14.443779 50.6968398,14.4066298 C50.569989,14.3205525 50.4286409,14.2380994 50.3842431,14.0813481 C50.3534365,14.0867845 50.2909171,14.0976575 50.2601105,14.1030939 C50.2238674,13.9726188 50.1849061,13.8430497 50.1495691,13.7125746 C50.1060773,13.717105 50.0209061,13.7252597 49.9774144,13.7297901 C49.9737901,13.6582099 49.9656354,13.5141436 49.962011,13.4425635 C49.9230497,13.448 49.8469392,13.4570608 49.8079779,13.4624972 C49.7717348,13.3184309 49.7327735,13.1761768 49.6929061,13.0348287 C49.4247072,12.9224751 49.5424972,12.5373923 49.3413481,12.3443978 C49.3304751,12.2927514 49.3096354,12.1912707 49.2996685,12.1405304 C49.1791602,11.0758895 49.1891271,9.98769061 49.3449724,8.92758011 L49.4410166,8.94298343 C49.5135028,8.73367956 49.5343425,8.51350276 49.5443094,8.29423204 C49.5841768,8.30057459 49.6639116,8.31416575 49.703779,8.32050829 C49.7409282,8.16194475 49.7789834,8.00247514 49.8134144,7.84300552 C49.8478453,7.84572376 49.9176133,7.85025414 49.9520442,7.8520663 C49.9837569,7.73065193 49.9756022,7.56212155 50.1386961,7.54853039 C50.2592044,7.32201105 50.453105,7.14713812 50.652442,6.9921989 C51.0773923,6.71856354 51.4506961,6.37153591 51.8928619,6.12598895 C52.2725083,5.89403315 52.6956464,5.75359116 53.0970387,5.56512707 C53.2102983,5.5560663 53.3271823,5.54609945 53.4431602,5.52888398 C53.5165525,5.4201547 53.6180331,5.34676243 53.7457901,5.31142541 C53.7602873,5.30689503 53.7892818,5.29692818 53.8028729,5.29239779 Z" id="Shape"></path>
                <path d="M30.2910718,5.29149171 C33.2131713,5.2679337 36.1352707,5.2878674 39.0573702,5.28333702 C39.6082652,5.27337017 40.1591602,5.34857459 40.7109613,5.29783425 C41.1413481,5.32320442 41.5545193,5.44733702 41.9649724,5.57328177 C42.6626519,5.92665193 43.4165083,6.20753591 43.9683094,6.78833149 C43.9828066,7.16979006 44.2781878,7.42892818 44.4594033,7.7360884 C44.6822983,8.11029834 44.8472044,8.52890608 44.8680442,8.96925967 C44.8925083,9.51018785 44.959558,10.0574586 44.8761989,10.5974807 C44.841768,10.8674917 44.772,11.1483757 44.8589834,11.4165746 L44.8870718,11.5316464 C44.7756243,11.7337017 44.7765304,12.0327072 44.5409503,12.1378122 C44.5364199,12.1967072 44.526453,12.3126851 44.5210166,12.3715801 C44.4820552,12.3670497 44.4032265,12.357989 44.3642652,12.3525525 C44.2845304,12.675116 43.9248177,12.8119337 43.7662541,13.0928177 C43.729105,13.0855691 43.6548066,13.0710718 43.6176575,13.0638232 L43.6466519,13.1843315 C43.5469834,13.2214807 43.4473149,13.2577238 43.3485525,13.2948729 C43.3521768,13.3293039 43.3603315,13.3981657 43.3639558,13.4325967 C43.2416354,13.4344088 43.1356243,13.4724641 43.0441105,13.5449503 L42.9181657,13.5250166 C42.9154475,13.5558232 42.9109171,13.6192486 42.9081989,13.6509613 C42.756884,13.6853923 42.604663,13.717105 42.452442,13.7470055 C42.4515359,13.7859669 42.4506298,13.8647956 42.4497238,13.904663 C42.3409945,13.9091934 42.2331713,13.9155359 42.1262541,13.9236906 C42.0247735,13.9789613 41.9151381,14.0043315 41.7982541,14.0016133 L41.8399337,14.0885967 C41.7393591,14.115779 41.6405967,14.1429613 41.5427403,14.1719558 C41.5382099,14.2163536 41.5282431,14.3042431 41.5237127,14.3477348 C41.4539448,14.3540773 41.3135028,14.3658564 41.2428287,14.3712928 C41.6342541,14.6621436 42.1443757,14.6730166 42.5847293,14.8560442 C43.1809282,15.099779 43.7680663,15.392442 44.2618785,15.8119558 C45.1770166,16.5431602 45.744221,17.6830055 45.8067403,18.848221 C45.8040221,19.539558 45.8592928,20.2444862 45.6690166,20.9177017 C45.5167956,21.6769945 45.0773481,22.3483978 44.5427624,22.8947624 C44.1721768,23.2816575 43.671116,23.4882431 43.2090166,23.7383204 C42.9870276,23.8597348 42.7478232,23.9421878 42.5004641,23.9874917 C41.9241989,24.0916906 41.3642431,24.2756243 40.7834475,24.3517348 C40.18,24.4514033 39.5665856,24.4196906 38.9577017,24.424221 C36.2720884,24.4260331 33.5864751,24.4215028 30.901768,24.4278453 C30.6380994,24.4369061 30.223116,24.378011 30.2910718,24.0173923 C30.2946961,18.2184972 30.2919779,12.4186961 30.2919779,6.6198011 C30.2738564,6.17763536 30.2430497,5.73365746 30.2910718,5.29149171 Z M34.9510276,6.9160884 C34.9229392,6.91790055 34.8658564,6.92243094 34.837768,6.92424309 C34.8087735,7.48601105 34.8160221,8.04777901 34.8205525,8.61045304 C34.8359558,9.09520442 34.7353812,9.57814365 34.8069613,10.061989 C34.8459227,11.1954917 34.7870276,12.3308066 34.8341436,13.4643094 L34.8812597,13.4679337 C34.9292818,13.635558 35.096,13.6627403 35.2473149,13.6545856 C36.2748066,13.6518674 37.3022983,13.6554917 38.3297901,13.659116 C38.7166851,13.6645525 39.1153591,13.6373702 39.4669171,13.4606851 C39.8864309,13.2477569 40.332221,13.0094586 40.5859227,12.5953812 C40.7852597,12.2755359 41.0398674,11.9801547 41.1331934,11.6068508 C41.3370608,10.871116 41.456663,10.0828287 41.2745414,9.32987845 C41.1775912,8.90220994 41.1041989,8.44735912 40.8332818,8.08855249 C40.5388066,7.6880663 40.1655028,7.34375691 39.7305856,7.10274033 C39.3572818,6.85356906 38.8897459,6.85719337 38.4675138,6.75027624 C37.6067403,6.68775691 36.7414365,6.76205525 35.8788508,6.73306077 C35.5635359,6.73849724 35.1983867,6.66963536 34.9510276,6.9160884 Z M34.873105,15.2184751 C34.9002873,15.2538122 34.9537459,15.3253923 34.9809282,15.3607293 L34.9347182,15.3607293 C34.9283757,17.8080442 34.9292818,20.2562652 34.9338122,22.7035801 C34.9691492,22.7035801 35.0398232,22.702674 35.0751602,22.701768 L34.9537459,22.8422099 C35.3315801,23.0062099 35.7483757,22.9445967 36.1479558,22.9518453 C37.0866519,22.9382541 38.0335028,22.9998674 38.9649503,22.8567072 C38.9866961,22.8141215 41.023558,22.2664561 41.1794033,21.6498122 C41.5237127,21.2629171 41.6949613,20.7555138 41.8689282,20.2761989 C41.9269171,19.6229171 41.8761768,18.9632928 41.8924862,18.3081989 C41.9232928,17.9040884 41.6714033,17.5643094 41.5907624,17.1819448 C41.5182762,16.8394475 41.3352486,16.5241326 41.0733923,16.2921768 L41.023558,16.4996685 C41.011779,16.470674 40.988221,16.4135912 40.976442,16.3845967 C40.9519779,16.364663 40.9039558,16.3257017 40.8794917,16.305768 L41.0670497,16.2822099 C41.0063425,16.1680442 40.9719116,16.036663 40.8613702,15.9605525 C40.3467182,15.5419448 39.7097459,15.275558 39.055558,15.181326 C38.1195801,15.1523315 37.1817901,15.1740773 36.2458122,15.1668287 C35.787337,15.1713591 35.3261436,15.1360221 34.873105,15.2184751 Z" id="Shape"></path>
            </g>
        </g>
    </g>
</svg>