<?xml version="1.0" encoding="UTF-8"?>
<svg width="90px" height="14px" viewBox="0 0 90 14" version="1.1" xmlns="http://www.w3.org/2000/svg" xmlns:xlink="http://www.w3.org/1999/xlink">
    <!-- Generator: Sketch 51.3 (57544) - http://www.bohemiancoding.com/sketch -->
    <title>CIMB_Group_Logo Copy</title>
    <desc>Created with Sketch.</desc>
    <defs></defs>
    <g id="Page-1" stroke="none" stroke-width="1" fill="none" fill-rule="evenodd">
        <g id="m7-withdraw-balance-0-1366-copy" transform="translate(-393.000000, -1428.000000)">
            <g id="CIMB_Group_Logo-Copy" transform="translate(392.000000, 1427.000000)">
                <g id="g10" transform="translate(46.500000, 8.372093) scale(-1, 1) rotate(-180.000000) translate(-46.500000, -8.372093) translate(0.000000, 0.872093)">
                    <g id="Group-4" fill-rule="nonzero">
                        <polygon id="path544" fill="#790008" points="15.584956 1.1675248 1.02443553 1.1675248 1.02443553 14.5405536 15.584956 14.5405536"></polygon>
                        <g id="g546" transform="translate(1.902226, 6.998963)" fill="#FFFFFF">
                            <polygon id="path548" points="8.83045724 5.0145091 1.08903716 5.0145091 4.51508176 0.853406688 12.2565018 0.853406688"></polygon>
                        </g>
                        <g id="g550" transform="translate(1.961806, 2.838108)" fill="#ED1D24">
                            <polygon id="path552" points="12.1965848 5.0145091 4.45583791 5.0145091 1.02979332 0.855879854 8.77054017 0.855879854"></polygon>
                        </g>
                    </g>
                    <g id="g554" transform="translate(19.506599, 2.835115)" fill="#FFFFFF">
                        <g id="g556-Clipped" transform="translate(0.000000, -0.000000)">
                            <g id="g556" transform="translate(0.131106, 0.247317)">
                                <g id="g562" transform="translate(0.129010, 0.435401)" fill-rule="nonzero">
                                    <path d="M29.2240459,1.84374553 L29.2240459,3.90636628 L31.1144632,3.90636628 C31.9936957,3.90636628 32.308092,3.37649038 32.308092,2.88123882 C32.308092,2.37856775 31.9936957,1.84374553 31.1144632,1.84374553 L29.2240459,1.84374553 Z M29.2240459,7.43186494 L30.9926093,7.43186494 C31.7351771,7.43186494 32.1761398,7.07140094 32.1761398,6.46856664 C32.1761398,5.86573233 31.7351771,5.50341346 30.9926093,5.50341346 L29.2240459,5.50341346 L29.2240459,7.43186494 Z M34.099545,6.54276163 C34.099545,8.07056015 32.9698726,9.02149262 31.1420654,9.02149262 L27.3019871,9.02149262 L27.3019871,0.257209302 L31.3016198,0.257209302 C33.1105768,0.257209302 34.2341901,1.23040027 34.2341901,2.79591458 C34.2341901,3.97314177 33.4795044,4.51662008 32.9833372,4.74847943 C33.4081424,4.96240832 34.099545,5.56276945 34.099545,6.54276163 Z M16.4307417,9.03818649 L14.5551354,9.03818649 L14.5551354,0.274521467 L16.4724816,0.274521467 L16.4724816,5.50897809 C16.619918,5.2802102 19.8042747,0.202799642 19.8042747,0.202799642 C19.8042747,0.202799642 22.9684345,5.27897361 23.1104851,5.50712321 L23.1104851,0.274521467 L25.0419691,0.274521467 L25.0419691,9.03818649 L23.1535716,9.03818649 C23.1535716,9.03818649 19.8729437,3.53662791 19.8042747,3.42162567 C19.7329128,3.53662791 16.4307417,9.03818649 16.4307417,9.03818649 Z M10.2592835,0.257209302 L12.189421,0.257209302 L12.189421,9.02149262 L10.2592835,9.02149262 L10.2592835,0.257209302 Z M7.07021425,2.36743851 C6.5067245,1.9562746 5.82811319,1.73801767 5.10843513,1.73801767 C3.3708401,1.73801767 2.01563716,3.01355322 2.01563716,4.63718694 C2.01563716,6.26700358 3.3708401,7.5375928 5.10843513,7.5375928 C5.82811319,7.5375928 6.5067245,7.32057245 7.0688678,6.90755367 L7.09377714,6.88776834 L8.44359428,8.12187835 L8.40656688,8.1478466 C7.48896051,8.87743068 6.31485523,9.27746534 5.10843513,9.27746534 C2.29569897,9.27746534 0,7.19505926 0,4.63718694 C0,2.07931462 2.29569897,-3.41060513e-13 5.10843513,-3.41060513e-13 C6.31485523,-3.41060513e-13 7.48896051,0.400652952 8.40656688,1.13085532 L8.44359428,1.15620528 L7.09377714,2.38722384 L7.07021425,2.36743851 Z" id="path564"></path>
                                </g>
                                <g id="g566" transform="translate(37.170617, 0.498467)">
                                    <path d="M0,0 L2.69829671,0 C3.03931537,0 3.38459159,0.0362326898 3.73413573,0.108699156 C4.08367986,0.181165623 4.39698606,0.304783035 4.67406373,0.479555102 C4.95114139,0.654327168 5.17706287,0.89090532 5.35183494,1.18929665 C5.526607,1.48768799 5.61399173,1.86280289 5.61399173,2.31465263 C5.61399173,2.79207876 5.46906097,3.20768902 5.1791951,3.56149589 C4.88932923,3.91530276 4.50142632,4.14761824 4.01547472,4.25844931 L4.01547472,4.28402558 C4.60373192,4.35222931 5.09180756,4.58028212 5.4797163,4.96819086 C5.86762503,5.35609959 6.06157649,5.88253926 6.06157649,6.54752566 C6.06157649,6.92264619 5.9827171,7.26579108 5.82499597,7.57697061 C5.66727484,7.88815014 5.4434847,8.15243565 5.15361883,8.36983505 C4.86375296,8.58723445 4.5099514,8.75560989 4.09220354,8.87496642 C3.67445567,8.99432295 3.20556204,9.05400032 2.68550857,9.05400032 L0,9.05400032 L0,0 Z M0.920745796,3.96432218 L2.77502552,3.96432218 C2.99668766,3.96432218 3.2204778,3.93874616 3.44640267,3.88759336 C3.67232753,3.83644056 3.879067,3.74905584 4.06662726,3.62543657 C4.25418753,3.5018173 4.40551229,3.33770453 4.52060609,3.13309333 C4.63569989,2.92848213 4.69324593,2.67698464 4.69324593,2.37859331 C4.69324593,2.08872744 4.63569989,1.84362395 4.52060609,1.64327548 C4.40551229,1.44292702 4.24992486,1.27881424 4.05383913,1.15093224 C3.8577534,1.02305024 3.62756925,0.931402853 3.36327978,0.87598732 C3.09899032,0.820571786 2.81765414,0.792864435 2.5192628,0.792864435 L0.920745796,0.792864435 L0.920745796,3.96432218 Z M0.920745796,8.26113589 L2.63435603,8.26113589 C2.96684923,8.26113589 3.2844181,8.22916587 3.58707216,8.16522487 C3.88972623,8.10128387 4.15401173,7.9989798 4.3799366,7.8583096 C4.60586146,7.7176394 4.78702491,7.53434462 4.92343238,7.30841975 C5.05983985,7.08249489 5.12804256,6.81181538 5.12804256,6.49637311 C5.12804256,5.89959045 4.92556576,5.4541415 4.52060609,5.1600129 C4.11564643,4.8658843 3.54231739,4.7188222 2.8006018,4.7188222 L0.920745796,4.7188222 L0.920745796,8.26113589 Z M8.17892644,9.05400032 L7.16866369,9.05400032 L11.0818333,0 L11.9770028,0 L15.8645962,9.05400032 L14.8415453,9.05400032 L13.8440707,6.67540702 L9.16361292,6.67540702 L8.17892644,9.05400032 Z M9.50889259,5.83139004 L13.498791,5.83139004 L11.5038418,1.02305088 L9.50889259,5.83139004 Z M23.7238192,7.71124604 L23.7493955,7.71124604 L23.7493955,0 L24.6701413,0 L24.6701413,9.05400032 L23.5192091,9.05400032 L18.250497,1.26602547 L18.2249207,1.26602547 L18.2249207,9.05400032 L17.3041749,9.05400032 L17.3041749,0 L18.4551072,0 L23.7238192,7.71124604 Z M28.1046693,4.06662726 L28.1174574,4.06662726 L32.4270593,0 L33.7442373,0 L29.1788727,4.10499167 L34,9.05400032 L32.6444576,9.05400032 L28.1174574,4.23287303 L28.1046693,4.23287303 L28.1046693,9.05400032 L27.1839235,9.05400032 L27.1839235,0 L28.1046693,0 L28.1046693,4.06662726 Z" id="BANK" transform="translate(17.000000, 4.527000) scale(1, -1) translate(-17.000000, -4.527000) "></path>
                                </g>
                            </g>
                        </g>
                    </g>
                </g>
            </g>
        </g>
    </g>
</svg>