<?xml version="1.0" encoding="UTF-8" standalone="no"?>
<svg width="100px" height="20px" viewBox="0 0 100 20" version="1.1" xmlns="http://www.w3.org/2000/svg" xmlns:xlink="http://www.w3.org/1999/xlink">
    <!-- Generator: Sketch 50.2 (55047) - http://www.bohemiancoding.com/sketch -->
    <title>entercash</title>
    <desc>Created with Sketch.</desc>
    <defs></defs>
    <g id="Page-1" stroke="none" stroke-width="1" fill="none" fill-rule="evenodd">
        <g id="withdraw-" transform="translate(-757.000000, -2967.000000)" fill-rule="nonzero">
            <g id="entercash" transform="translate(757.000000, 2967.000000)">
                <path d="M0.337552743,14.6413502 C0.928270042,14.8101266 1.39240506,15.1898734 1.85654008,15.4852321 C3.45991561,16.5400844 5.18987342,17.0042194 7.08860759,16.9620253 C7.72151899,16.9620253 8.31223629,16.7510549 8.8185654,16.2869198 C9.24050633,15.907173 9.49367089,15.443038 9.32489451,14.8523207 C9.15611814,14.2616034 8.64978903,14.092827 8.10126582,14.0084388 C7.46835443,13.9240506 6.83544304,14.0506329 6.20253165,14.0084388 C3.92405063,13.8396624 1.72995781,11.9831224 1.22362869,9.74683544 C0.970464135,8.60759494 1.47679325,8.10126582 2.61603376,8.48101266 C3.79746835,8.90295359 4.89451477,9.53586498 6.03375527,10.0843882 C6.4978903,10.2953586 7.00421941,10.3797468 7.51054852,10.2109705 C8.10126582,10 8.43881857,9.53586498 8.48101266,8.90295359 C8.52320675,8.2278481 8.18565401,7.76371308 7.6371308,7.46835443 C6.75105485,7.00421941 5.82278481,6.58227848 4.89451477,6.16033755 C4.55696203,5.99156118 4.21940928,5.8649789 3.92405063,5.65400844 C3.16455696,5.14767932 3.16455696,4.59915612 3.92405063,4.092827 C5.44303797,3.12236287 7.0464135,2.99578059 8.69198312,3.5443038 C9.95780591,3.96624473 10.9704641,4.76793249 11.6877637,5.907173 C12.1097046,6.58227848 12.8691983,6.83544304 13.5864979,6.4978903 C14.2194093,6.20253165 14.4725738,5.56962025 14.2616034,4.76793249 C13.9662447,3.75527426 13.2911392,2.99578059 12.5316456,2.3628692 C11.6455696,1.64556962 10.6751055,1.09704641 9.57805907,0.759493671 C9.07172996,0.5907173 8.60759494,0.421940928 7.97468354,0.210970464 C8.52320675,0.0843881857 8.94514768,0.126582278 9.36708861,0.126582278 C13.6708861,0.253164557 17.5105485,3.29113924 18.4810127,7.38396624 C19.6624473,12.1518987 16.9620253,17.0042194 12.2362869,18.5232068 C8.10126582,19.8734177 4.47257384,18.9451477 1.43459916,15.8227848 C0.970464135,15.443038 0.548523207,15.1054852 0.337552743,14.6413502 Z" id="Shape" fill="#02AEEE"></path>
                <path d="M94.0506329,7.93248945 C95.1476793,7.00421941 96.371308,6.83544304 97.6371308,7.13080169 C98.8607595,7.42616034 99.5780591,8.31223629 99.6202532,9.53586498 C99.6624473,11.3924051 99.6202532,13.2489451 99.6202532,15.1054852 C99.6202532,15.6118143 99.4092827,15.7805907 98.9029536,15.8227848 C97.4683544,15.907173 97.3839662,15.8227848 97.3839662,14.3881857 C97.3839662,13.1223629 97.3839662,11.8565401 97.3839662,10.5907173 C97.3839662,9.66244726 97.1308017,9.32489451 96.371308,9.15611814 C95.3586498,8.98734177 94.556962,9.36708861 94.2616034,10.1265823 C94.092827,10.5907173 94.092827,11.0548523 94.0506329,11.5189873 C94.0506329,12.6582278 94.0506329,13.7974684 94.0506329,14.978903 C94.0506329,15.6540084 93.8818565,15.8227848 93.2067511,15.8227848 C91.814346,15.8649789 91.7721519,15.8227848 91.7721519,14.4303797 C91.7721519,11.2236287 91.7721519,7.97468354 91.7721519,4.76793249 C91.7721519,3.92405063 91.9409283,3.75527426 92.7848101,3.75527426 C92.8691983,3.75527426 92.9957806,3.75527426 93.0801688,3.75527426 C93.8396624,3.75527426 94.0084388,3.92405063 94.0084388,4.6835443 C94.0506329,5.73839662 94.0506329,6.79324895 94.0506329,7.93248945 Z" id="Shape" fill="#02AEEE"></path>
                <path d="M31.6033755,16.0337553 C31.0548523,16.0337553 30.3797468,15.9915612 29.7046414,15.8227848 C28.3544304,15.4852321 27.5105485,14.6413502 27.3417722,13.2489451 C27.2151899,12.1097046 27.1729958,10.9704641 27.3417722,9.87341772 C27.5949367,8.2278481 28.5232068,7.38396624 30.1687764,7.08860759 C30.9704641,6.96202532 31.7299578,6.96202532 32.5316456,7.13080169 C33.6708861,7.38396624 34.4303797,8.05907173 34.8101266,9.19831224 C35.0632911,9.95780591 35.0632911,10.7594937 34.978903,11.5611814 C34.8945148,12.1940928 34.6835443,12.3628692 34.0506329,12.3628692 C32.7004219,12.3628692 31.350211,12.4050633 30,12.3628692 C29.535865,12.3628692 29.4936709,12.5316456 29.5780591,12.9113924 C29.7046414,13.5021097 30.1687764,13.7130802 30.6751055,13.7974684 C31.7299578,14.0084388 32.742616,13.8396624 33.7974684,13.6708861 C34.5147679,13.5443038 34.6835443,13.628692 34.7257384,14.3459916 C34.8101266,15.5274262 34.5991561,15.6118143 33.6708861,15.8649789 C33.0379747,16.0337553 32.3628692,16.0337553 31.6033755,16.0337553 Z M31.1814346,10.5485232 C31.6455696,10.5485232 32.1097046,10.5485232 32.6160338,10.5485232 C32.7848101,10.5485232 32.9113924,10.5063291 32.8691983,10.2953586 C32.8270042,9.87341772 32.742616,9.45147679 32.3206751,9.24050633 C31.6033755,8.86075949 30.8438819,8.86075949 30.0843882,9.24050633 C29.7046414,9.45147679 29.5780591,9.83122363 29.535865,10.2531646 C29.4936709,10.5063291 29.5780591,10.5907173 29.8312236,10.5907173 C30.2531646,10.5485232 30.7172996,10.5485232 31.1814346,10.5485232 Z" id="Shape" fill="#03AEEE"></path>
                <path d="M57.8059072,12.4050633 C57.1308017,12.4050633 56.4135021,12.4472574 55.7383966,12.4050633 C55.3164557,12.4050633 55.2742616,12.5738397 55.3586498,12.8691983 C55.443038,13.3755274 55.8227848,13.6708861 56.4556962,13.8396624 C57.3417722,14.0084388 58.185654,13.9240506 59.07173,13.7974684 C59.1983122,13.7974684 59.3248945,13.7552743 59.4514768,13.7130802 C60.3375527,13.5443038 60.5485232,13.6708861 60.5063291,14.5991561 C60.5063291,15.443038 60.3375527,15.6540084 59.535865,15.8227848 C58.185654,16.1181435 56.7932489,16.1603376 55.443038,15.8227848 C54.1350211,15.4852321 53.2911392,14.6413502 53.0801688,13.2911392 C52.9535865,12.1518987 52.9113924,11.0126582 53.0801688,9.91561181 C53.3333333,8.27004219 54.2616034,7.42616034 55.907173,7.13080169 C56.6666667,7.00421941 57.4261603,7.00421941 58.185654,7.13080169 C59.535865,7.38396624 60.3797468,8.27004219 60.6329114,9.62025316 C60.7594937,10.2953586 60.7594937,11.0126582 60.6751055,11.6877637 C60.5907173,12.1940928 60.2953586,12.4050633 59.8312236,12.4050633 C59.1983122,12.4050633 58.5232068,12.4050633 57.8059072,12.4050633 Z M57.0042194,10.5485232 C57.4261603,10.5485232 57.8902954,10.5485232 58.3122363,10.5485232 C58.6919831,10.5485232 58.7341772,10.4219409 58.6919831,10.0843882 C58.6075949,9.36708861 58.185654,9.02953586 57.257384,8.94514768 C56.371308,8.86075949 55.6540084,9.15611814 55.443038,9.74683544 C55.4008439,9.91561181 55.3586498,10.0843882 55.3586498,10.2531646 C55.3164557,10.464135 55.4008439,10.5485232 55.6540084,10.5485232 C56.0759494,10.5485232 56.5400844,10.5485232 57.0042194,10.5485232 Z" id="Shape" fill="#03AEEE"></path>
                <path d="M82.0675105,11.6455696 C82.0675105,12.2362869 82.0675105,12.8270042 82.0675105,13.4177215 C82.0675105,14.6413502 81.4767932,15.4852321 80.2953586,15.8227848 C78.9873418,16.2025316 77.6371308,16.2025316 76.3291139,15.8227848 C75.1054852,15.4852321 74.556962,14.6835443 74.556962,13.3333333 C74.556962,12.0675105 75.1476793,11.2658228 76.3291139,10.8860759 C77.2995781,10.5907173 78.3122363,10.6751055 79.2827004,10.6751055 C79.7046414,10.6751055 79.8312236,10.5907173 79.7890295,10.1687764 C79.7468354,9.45147679 79.535865,9.15611814 78.8185654,9.02953586 C78.1012658,8.90295359 77.3839662,8.94514768 76.6666667,9.02953586 C75.7383966,9.15611814 75.5696203,9.07172996 75.4852321,8.48101266 C75.3586498,7.59493671 75.6118143,7.25738397 76.4556962,7.13080169 C77.721519,6.96202532 78.9451477,6.96202532 80.1687764,7.34177215 C81.3924051,7.72151899 81.9831224,8.60759494 82.0253165,9.87341772 C82.0675105,10.464135 82.0675105,11.0548523 82.0675105,11.6455696 Z M78.649789,12.278481 C78.2700422,12.3206751 77.8059072,12.3206751 77.3839662,12.4472574 C77.0464135,12.5738397 76.835443,12.8270042 76.835443,13.2067511 C76.835443,13.5443038 76.9620253,13.8818565 77.2995781,13.9662447 C77.9746835,14.1772152 78.649789,14.1772152 79.3248945,13.9662447 C79.7468354,13.7974684 80.0421941,13.0379747 79.8312236,12.4894515 C79.7046414,12.2362869 78.8185654,12.278481 78.649789,12.278481 Z" id="Shape" fill="#03AEEE"></path>
                <path d="M44.4303797,12.5316456 C44.4303797,13.3755274 44.4303797,14.1772152 44.4303797,15.021097 C44.4303797,15.6540084 44.2616034,15.8227848 43.628692,15.8649789 C42.2362869,15.907173 42.1940928,15.8649789 42.1940928,14.4303797 C42.1940928,13.164557 42.1940928,11.9409283 42.1940928,10.6751055 C42.1940928,9.49367089 41.8565401,9.19831224 40.6751055,9.15611814 C40.5907173,9.15611814 40.5485232,9.15611814 40.464135,9.15611814 C39.2405063,9.15611814 38.8607595,9.53586498 38.8607595,10.7594937 C38.8607595,12.1518987 38.8607595,13.5443038 38.8607595,14.8945148 C38.8607595,15.6962025 38.6919831,15.8227848 37.8902954,15.8227848 C36.6666667,15.8227848 36.5822785,15.7805907 36.5822785,14.556962 C36.5822785,13.2067511 36.5822785,11.8987342 36.5822785,10.5485232 C36.5822785,8.48101266 37.4683544,7.38396624 39.535865,7.0464135 C40.4219409,6.91983122 41.2658228,6.91983122 42.1518987,7.17299578 C43.5864979,7.55274262 44.3459916,8.48101266 44.3881857,9.95780591 C44.4303797,10.8438819 44.4303797,11.6877637 44.4303797,12.5316456 C44.4303797,12.5316456 44.4303797,12.5316456 44.4303797,12.5316456 Z" id="Shape" fill="#02AEEE"></path>
                <path d="M86.4556962,16.0337553 C85.6118143,16.0337553 84.8101266,15.9915612 84.0506329,15.7383966 C83.4177215,15.5274262 83.0379747,14.2616034 83.5021097,13.7552743 C83.7130802,13.5021097 84.0084388,13.5864979 84.2616034,13.6708861 C85.2320675,13.9662447 86.2025316,13.9662447 87.1729958,13.9240506 C87.257384,13.9240506 87.3417722,13.9240506 87.4261603,13.9240506 C87.6371308,13.8818565 87.8902954,13.8396624 87.9324895,13.5864979 C87.9746835,13.2911392 87.8059072,13.1223629 87.5949367,13.0379747 C86.9620253,12.742616 86.371308,12.4894515 85.7383966,12.2362869 C85.5274262,12.1518987 85.2742616,12.0253165 85.021097,11.9409283 C83.5021097,11.3080169 83.2489451,10.0421941 83.628692,8.64978903 C83.8396624,7.93248945 84.3459916,7.51054852 85.021097,7.34177215 C86.371308,6.96202532 87.721519,7.00421941 89.07173,7.38396624 C89.7046414,7.55274262 90.0421941,8.73417722 89.6624473,9.28270042 C89.4514768,9.57805907 89.1139241,9.49367089 88.8607595,9.4092827 C88.1434599,9.24050633 87.5527426,9.24050633 86.6666667,9.19831224 C86.3291139,9.19831224 85.8649789,9.15611814 85.7805907,9.57805907 C85.6962025,10.0421941 86.2025316,10.0843882 86.4978903,10.2109705 C87.1729958,10.5063291 87.8902954,10.7594937 88.5654008,11.0548523 C89.9156118,11.6455696 90.4219409,12.6582278 90.1687764,14.1350211 C90,14.978903 89.535865,15.5274262 88.7341772,15.8227848 C87.9746835,15.9915612 87.2151899,16.0759494 86.4556962,16.0337553 Z" id="Shape" fill="#03AEEE"></path>
                <path d="M46.7510549,11.4767932 C46.7510549,10.8860759 46.7510549,10.2531646 46.7510549,9.66244726 C46.7510549,9.4092827 46.5822785,9.36708861 46.2869198,9.36708861 C45.2742616,9.36708861 45.0632911,9.07172996 45.2320675,8.05907173 C45.3164557,7.55274262 45.6962025,7.38396624 46.0759494,7.38396624 C46.6666667,7.34177215 46.7932489,7.0464135 46.835443,6.54008439 C46.835443,6.41350211 46.8776371,6.28691983 46.8776371,6.16033755 C46.9620253,5.02109705 47.2995781,5.02109705 48.3544304,5.06329114 C48.7341772,5.06329114 48.9451477,5.2742616 48.9451477,5.65400844 C48.9451477,6.07594937 48.9451477,6.4978903 48.9451477,6.91983122 C48.9451477,7.17299578 49.0295359,7.25738397 49.2827004,7.25738397 C49.8734177,7.25738397 50.5063291,7.25738397 51.0970464,7.25738397 C51.6877637,7.25738397 51.8565401,7.46835443 51.8565401,8.01687764 C51.8565401,8.18565401 51.8565401,8.31223629 51.8565401,8.48101266 C51.8565401,9.19831224 51.6455696,9.36708861 50.92827,9.36708861 C50.3797468,9.36708861 49.8312236,9.36708861 49.2405063,9.36708861 C48.9873418,9.36708861 48.8607595,9.4092827 48.8607595,9.70464135 C48.8607595,10.7594937 48.8607595,11.814346 48.8607595,12.8270042 C48.8607595,13.5864979 49.2405063,13.9240506 50,13.9240506 C50.4219409,13.9240506 50.8860759,13.8396624 51.3080169,13.7974684 C51.9409283,13.7130802 52.0675105,13.8396624 52.1097046,14.5147679 C52.1097046,14.6835443 52.1097046,14.8101266 52.1097046,14.978903 C52.1097046,15.4852321 51.8565401,15.8227848 51.3924051,15.9493671 C50.3797468,16.1603376 49.3670886,16.2025316 48.3544304,15.8227848 C47.1729958,15.3586498 46.7088608,14.3881857 46.6666667,13.2067511 C46.7088608,12.6160338 46.7510549,12.0253165 46.7510549,11.4767932 Z" id="Shape" fill="#02AEEE"></path>
                <path d="M67.6793249,11.5189873 C67.6793249,10.92827 67.6793249,10.3797468 67.721519,9.78902954 C67.8902954,8.14345992 69.2405063,7.17299578 71.0970464,7.00421941 C71.7299578,6.96202532 72.3628692,6.96202532 72.9957806,7.08860759 C73.5864979,7.25738397 73.7974684,7.42616034 73.8396624,8.05907173 C73.8396624,8.2278481 73.8396624,8.43881857 73.8396624,8.60759494 C73.7974684,9.19831224 73.5864979,9.36708861 72.9957806,9.24050633 C72.3206751,9.11392405 71.6877637,9.02953586 70.9704641,9.15611814 C70.3797468,9.28270042 70.0421941,9.62025316 69.9578059,10.1687764 C69.8734177,10.9704641 69.8734177,11.7721519 69.9578059,12.5738397 C70.0421941,13.2489451 70.3797468,13.5443038 71.0548523,13.7130802 C71.7299578,13.8818565 72.4472574,13.7974684 73.1223629,13.6708861 C73.7552743,13.5864979 73.9662447,13.7552743 73.9662447,14.3881857 C74.0084388,15.5274262 73.8396624,15.6962025 72.742616,15.8649789 C71.7721519,15.9915612 70.7594937,15.9493671 69.7890295,15.6118143 C68.4810127,15.1476793 67.8059072,14.2194093 67.6793249,12.8691983 C67.6793249,12.4894515 67.6793249,12.1097046 67.6793249,11.5189873 Z" id="Shape" fill="#03AEEE"></path>
                <path d="M62.3206751,12.4050633 C62.3206751,11.6877637 62.3206751,10.9704641 62.3206751,10.2531646 C62.3206751,8.35443038 63.2489451,7.29957806 65.1054852,7.08860759 C65.443038,7.0464135 65.8227848,7.0464135 66.1603376,7.0464135 C66.6666667,7.0464135 66.8776371,7.34177215 66.9620253,7.80590717 C67.0042194,7.97468354 66.9620253,8.18565401 66.9620253,8.35443038 C66.9620253,9.07172996 66.835443,9.19831224 66.1181435,9.19831224 C65.9493671,9.19831224 65.7805907,9.19831224 65.6118143,9.19831224 C64.8945148,9.24050633 64.5991561,9.49367089 64.5991561,10.2109705 C64.556962,11.7721519 64.556962,13.3333333 64.556962,14.8945148 C64.556962,15.1054852 64.5991561,15.3164557 64.5147679,15.4852321 C64.2616034,15.9915612 63.6708861,15.907173 63.164557,15.8649789 C62.8270042,15.8649789 62.4894515,15.8227848 62.4050633,15.443038 C62.3628692,15.2742616 62.3628692,15.1054852 62.3628692,14.9367089 C62.3206751,14.092827 62.3206751,13.2489451 62.3206751,12.4050633 Z" id="Shape" fill="#02AEEE"></path>
            </g>
        </g>
    </g>
</svg>