<?xml version="1.0" encoding="UTF-8"?>
<svg width="100px" height="25px" viewBox="0 0 100 25" version="1.1" xmlns="http://www.w3.org/2000/svg" xmlns:xlink="http://www.w3.org/1999/xlink">
    <!-- Generator: Sketch 49.1 (51147) - http://www.bohemiancoding.com/sketch -->
    <title>euteller</title>
    <desc>Created with Sketch.</desc>
    <defs>
        <polygon id="path-1" points="0.00479452055 0.115740741 24.0287671 0.115740741 24.0287671 24.9861111 0.00479452055 24.9861111"></polygon>
    </defs>
    <g id="Page-1" stroke="none" stroke-width="1" fill="none" fill-rule="evenodd">
        <g id="m7-withdraw-balance-0-1366" transform="translate(-757.000000, -1399.000000)">
            <g id="euteller" transform="translate(757.000000, 1399.000000)">
                <path d="M31.0821918,16.6268519 L31.0821918,8.4912037 C31.0821918,7.08032407 31.4538813,6.07175926 32.197032,5.4662037 C32.9406393,4.86064815 34.0486301,4.55763889 35.5219178,4.55763889 C35.8273973,4.55763889 36.1719178,4.56111111 36.5554795,4.56782407 C36.9390411,4.57476852 37.3175799,4.58194444 37.6908676,4.58865741 C38.0641553,4.59537037 38.4189498,4.60925926 38.7550228,4.62986111 C39.0910959,4.65046296 39.3675799,4.66782407 39.5849315,4.68148148 C39.6527397,4.69537037 39.7054795,4.73148148 39.7429224,4.78981481 C39.780137,4.84837963 39.7988584,4.91226852 39.7988584,4.98101852 L39.7988584,6.03402778 C39.7988584,6.20625 39.7207763,6.29212963 39.5646119,6.29212963 L35.5422374,6.29212963 C34.9856164,6.29212963 34.5408676,6.33009259 34.2084475,6.40601852 C33.8755708,6.48171296 33.6191781,6.60949074 33.4394977,6.78888889 C33.259589,6.96828704 33.1374429,7.19930556 33.0728311,7.48194444 C33.0084475,7.76481481 32.9762557,8.1025463 32.9762557,8.49560185 L32.9762557,11.4439815 L39.3812785,11.4439815 C39.489726,11.4439815 39.5865297,11.4851852 39.6714612,11.5671296 C39.7563927,11.6493056 39.7988584,11.7483796 39.7988584,11.8645833 L39.7988584,12.6546296 C39.7988584,12.7641204 39.7563927,12.8615741 39.6714612,12.9469907 C39.5865297,13.0326389 39.489726,13.0752315 39.3812785,13.0752315 L32.9762557,13.0752315 L32.9762557,16.6268519 C32.9762557,17.0331019 33.0084475,17.375463 33.0728311,17.6543981 C33.1374429,17.9331019 33.259589,18.1601852 33.4394977,18.3356481 C33.6191781,18.5111111 33.8755708,18.6368056 34.2084475,18.7125 C34.5408676,18.7881944 34.9856164,18.8259259 35.5422374,18.8259259 L39.5646119,18.8259259 C39.7207763,18.8259259 39.7988584,18.9122685 39.7988584,19.0840278 L39.7988584,20.1578704 C39.7988584,20.2268519 39.7817352,20.2905093 39.7479452,20.3488426 C39.7139269,20.4074074 39.659589,20.443287 39.5849315,20.4574074 C39.3881279,20.4847222 39.1232877,20.5018519 38.7906393,20.5090278 C38.4579909,20.5157407 38.1015982,20.5261574 37.7214612,20.5398148 C37.3413242,20.5537037 36.9559361,20.5604167 36.5657534,20.5604167 C36.1753425,20.5604167 35.8273973,20.5604167 35.5219178,20.5604167 C34.0486301,20.5604167 32.9406393,20.2578704 32.197032,19.6518519 C31.4538813,19.0462963 31.0821918,18.037963 31.0821918,16.6268519" id="Fill-1" fill="#000105"></path>
                <path d="M42.3547945,16.1622685 L42.3547945,9.21388889 C42.3547945,9.10393519 42.3972603,9.00578704 42.4821918,8.91967593 C42.566895,8.8337963 42.6636986,8.79074074 42.7723744,8.79074074 L43.7803653,8.79074074 C43.8890411,8.79074074 43.9840183,8.83194444 44.0655251,8.91412037 C44.147032,8.99652778 44.1876712,9.09606481 44.1876712,9.21273148 L44.1876712,16.1400463 C44.1876712,16.6752315 44.2335616,17.1231481 44.3253425,17.4831019 C44.416895,17.8435185 44.5559361,18.1280093 44.7426941,18.3375 C44.9294521,18.5467593 45.1652968,18.6976852 45.4504566,18.7905093 C45.7356164,18.8828704 46.0817352,18.9291667 46.4892694,18.9291667 C46.9372146,18.9291667 47.397032,18.8520833 47.8689498,18.6976852 C48.3406393,18.543287 48.8175799,18.3460648 49.2997717,18.1060185 L49.2997717,9.21273148 C49.2997717,9.10300926 49.3420091,9.00509259 49.4269406,8.91944444 C49.5116438,8.83356481 49.6084475,8.79074074 49.7171233,8.79074074 L50.7456621,8.79074074 C50.8541096,8.79074074 50.9458904,8.83194444 51.0205479,8.91458333 C51.0952055,8.99722222 51.1326484,9.09699074 51.1326484,9.21388889 L51.1326484,19.9925926 C51.1326484,20.1030093 51.0952055,20.2011574 51.0205479,20.287037 C50.9458904,20.3731481 50.8541096,20.4159722 50.7456621,20.4159722 L49.6968037,20.4159722 C49.5881279,20.4159722 49.4947489,20.3722222 49.4166667,20.2840278 C49.3388128,20.1960648 49.2997717,20.0956019 49.2997717,19.9831019 L49.2997717,19.5712963 C48.7157534,19.9011574 48.1744292,20.1483796 47.6753425,20.3131944 C47.176484,20.4782407 46.6146119,20.5604167 45.9901826,20.5604167 C44.7273973,20.5604167 43.8059361,20.1803241 43.2255708,19.4199074 C42.6449772,18.6592593 42.3547945,17.5733796 42.3547945,16.1622685" id="Fill-2" fill="#000105"></path>
                <path d="M53.0675799,9.74050926 L53.0675799,9.16226852 C53.0675799,8.90763889 53.1997717,8.7837963 53.4646119,8.79074074 L55.4910959,8.79074074 L55.4910959,6.71550926 C55.4910959,6.47453704 55.6164384,6.33333333 55.8678082,6.29212963 L56.947032,6.12685185 L57.0079909,6.12685185 C57.089726,6.12685185 57.1627854,6.15787037 57.2269406,6.21990741 C57.2917808,6.28171296 57.3237443,6.36782407 57.3237443,6.47800926 L57.3237443,8.79074074 L59.5744292,8.79074074 C59.683105,8.79074074 59.7794521,8.83194444 59.8646119,8.91458333 C59.9493151,8.99722222 59.9917808,9.09699074 59.9917808,9.21388889 L59.9917808,9.92638889 C59.9917808,10.0365741 59.9511416,10.1344907 59.8696347,10.2206019 C59.7883562,10.306713 59.689726,10.349537 59.5744292,10.349537 L57.3237443,10.349537 L57.3237443,17.7490741 C57.3237443,18.3287037 57.4070776,18.6962963 57.573516,18.8516204 C57.739726,19.0064815 58.0333333,19.0840278 58.4541096,19.0840278 L59.6152968,19.0840278 C59.9070776,19.0840278 60.0527397,19.1826389 60.0527397,19.3793981 L60.0527397,20.1025463 C60.0527397,20.2990741 59.9273973,20.4180556 59.676484,20.4587963 C59.4655251,20.4858796 59.236758,20.5097222 58.9888128,20.5300926 C58.7408676,20.5502315 58.5189498,20.5604167 58.3216895,20.5604167 C57.833105,20.5604167 57.4121005,20.5226852 57.0593607,20.4469907 C56.7061644,20.3712963 56.4159817,20.2268519 56.1883562,20.0134259 C55.9609589,19.8 55.7881279,19.5111111 55.6694064,19.1460648 C55.5504566,18.7814815 55.4910959,18.3099537 55.4910959,17.731713 L55.4910959,10.349537 L53.4646119,10.1224537 C53.1997717,10.0951389 53.0675799,9.96759259 53.0675799,9.74050926" id="Fill-3" fill="#000105"></path>
                <path d="M63.4440639,13.7773148 L68.973516,13.7773148 L68.973516,13.58125 C68.973516,12.3835648 68.747032,11.531713 68.2949772,11.0259259 C67.8424658,10.5199074 67.1570776,10.2671296 66.2392694,10.2671296 C65.3347032,10.2671296 64.6426941,10.5354167 64.1630137,11.0724537 C63.6835616,11.6092593 63.4440639,12.4456019 63.4440639,13.58125 L63.4440639,13.7773148 Z M61.6109589,15.4912037 L61.6109589,13.58125 C61.6109589,12.0601852 62.0077626,10.8555556 62.8011416,9.96759259 C63.5945205,9.07986111 64.740411,8.63587963 66.2392694,8.63587963 C67.0020548,8.63587963 67.6671233,8.75300926 68.2340183,8.98680556 C68.8013699,9.22083333 69.2737443,9.55300926 69.6518265,9.98310185 C70.0296804,10.4134259 70.316895,10.9347222 70.5125571,11.5472222 C70.7082192,12.1599537 70.8063927,12.8377315 70.8063927,13.58125 L70.8063927,14.7273148 C70.8063927,15.037037 70.6742009,15.1918981 70.4100457,15.1918981 L63.4440639,15.1918981 L63.4440639,15.4905093 C63.4440639,16.7395833 63.6869863,17.6252315 64.1732877,18.1467593 C64.659589,18.6685185 65.3821918,18.9291667 66.3413242,18.9291667 C66.95,18.9291667 67.5977169,18.9081019 68.2844749,18.8650463 C68.9712329,18.8224537 69.5579909,18.7680556 70.0452055,18.7020833 L70.1452055,18.7020833 C70.2253425,18.7020833 70.3004566,18.7229167 70.3707763,18.7638889 C70.4406393,18.8053241 70.4757991,18.8847222 70.4757991,19.0016204 L70.4757991,19.7138889 C70.4757991,19.8518519 70.447032,19.9601852 70.389726,20.0391204 C70.3321918,20.118287 70.2223744,20.1752315 70.060274,20.2097222 C69.4657534,20.3196759 68.8746575,20.4055556 68.2869863,20.4675926 C67.6990868,20.5293981 67.0506849,20.5604167 66.3413242,20.5604167 C65.7445205,20.5604167 65.1611872,20.4796296 64.5915525,20.3178241 C64.0219178,20.15625 63.5184932,19.8828704 63.0810502,19.4969907 C62.643379,19.1115741 62.2890411,18.59375 62.0178082,17.943287 C61.7465753,17.2928241 61.6109589,16.4756944 61.6109589,15.4912037 Z" id="Fill-4" fill="#000105"></path>
                <path d="M73.5456621,19.9925926 L73.5456621,4.91898148 C73.5456621,4.8087963 73.5794521,4.71435185 73.6472603,4.6349537 C73.7150685,4.55601852 73.806621,4.5162037 73.9221461,4.5162037 L75.0018265,4.5162037 C75.1100457,4.5162037 75.2002283,4.55416667 75.2714612,4.62986111 C75.3429224,4.70578704 75.3785388,4.80208333 75.3785388,4.91898148 L75.3785388,19.9925926 C75.3785388,20.1030093 75.3429224,20.2011574 75.2714612,20.287037 C75.2002283,20.3731481 75.1100457,20.4159722 75.0018265,20.4159722 L73.9221461,20.4159722 C73.8136986,20.4159722 73.7237443,20.3731481 73.6525114,20.287037 C73.5810502,20.2011574 73.5456621,20.1030093 73.5456621,19.9925926" id="Fill-5" fill="#000105"></path>
                <path d="M78.6269406,19.9925926 L78.6269406,4.91898148 C78.6269406,4.8087963 78.6607306,4.71435185 78.7285388,4.6349537 C78.796347,4.55601852 78.8878995,4.5162037 79.0034247,4.5162037 L80.083105,4.5162037 C80.1913242,4.5162037 80.2815068,4.55416667 80.3527397,4.62986111 C80.4242009,4.70578704 80.4598174,4.80208333 80.4598174,4.91898148 L80.4598174,19.9925926 C80.4598174,20.1030093 80.4242009,20.2011574 80.3527397,20.287037 C80.2815068,20.3731481 80.1913242,20.4159722 80.083105,20.4159722 L79.0034247,20.4159722 C78.8949772,20.4159722 78.8050228,20.3731481 78.73379,20.287037 C78.6623288,20.2011574 78.6269406,20.1030093 78.6269406,19.9925926" id="Fill-6" fill="#000105"></path>
                <path d="M84.9506849,13.7773148 L90.480137,13.7773148 L90.480137,13.58125 C90.480137,12.3835648 90.2538813,11.531713 89.8015982,11.0259259 C89.3493151,10.5199074 88.6639269,10.2671296 87.7458904,10.2671296 C86.8413242,10.2671296 86.1493151,10.5354167 85.6696347,11.0724537 C85.1901826,11.6092593 84.9506849,12.4456019 84.9506849,13.58125 L84.9506849,13.7773148 Z M83.1178082,15.4912037 L83.1178082,13.58125 C83.1178082,12.0601852 83.5143836,10.8555556 84.3079909,9.96759259 C85.1011416,9.07986111 86.2472603,8.63587963 87.7458904,8.63587963 C88.5086758,8.63587963 89.1737443,8.75300926 89.7406393,8.98680556 C90.3079909,9.22083333 90.7803653,9.55300926 91.1584475,9.98310185 C91.5365297,10.4134259 91.8237443,10.9347222 92.0191781,11.5472222 C92.2148402,12.1599537 92.3130137,12.8377315 92.3130137,13.58125 L92.3130137,14.7273148 C92.3130137,15.037037 92.1808219,15.1918981 91.916895,15.1918981 L84.9506849,15.1918981 L84.9506849,15.4905093 C84.9506849,16.7395833 85.1936073,17.6252315 85.6799087,18.1467593 C86.16621,18.6685185 86.8888128,18.9291667 87.8479452,18.9291667 C88.456621,18.9291667 89.1043379,18.9081019 89.7910959,18.8650463 C90.4778539,18.8224537 91.0646119,18.7680556 91.5518265,18.7020833 L91.6520548,18.7020833 C91.7319635,18.7020833 91.8070776,18.7229167 91.8773973,18.7638889 C91.9472603,18.8053241 91.9824201,18.8847222 91.9824201,19.0016204 L91.9824201,19.7138889 C91.9824201,19.8518519 91.953653,19.9601852 91.896347,20.0391204 C91.8388128,20.118287 91.7289954,20.1752315 91.566895,20.2097222 C90.9723744,20.3196759 90.3812785,20.4055556 89.7936073,20.4675926 C89.2059361,20.5293981 88.5573059,20.5604167 87.8479452,20.5604167 C87.2511416,20.5604167 86.6678082,20.4796296 86.0981735,20.3178241 C85.5285388,20.15625 85.0251142,19.8828704 84.5876712,19.4969907 C84.15,19.1115741 83.7956621,18.59375 83.5244292,17.943287 C83.2531963,17.2928241 83.1178082,16.4756944 83.1178082,15.4912037 Z" id="Fill-7" fill="#000105"></path>
                <path d="M94.8383562,19.9925926 L94.8383562,9.21388889 C94.8383562,9.10393519 94.8773973,9.00578704 94.9554795,8.91967593 C95.0333333,8.8337963 95.1267123,8.79074074 95.2356164,8.79074074 L96.2130137,8.79074074 C96.3216895,8.79074074 96.4150685,8.83263889 96.4931507,8.91643519 C96.5710046,9.00023148 96.6100457,9.10138889 96.6100457,9.21990741 L96.6100457,9.67013889 C97.139726,9.30115741 97.6438356,9.03634259 98.1223744,8.87615741 C98.6009132,8.71597222 99.0778539,8.63587963 99.5531963,8.63587963 C99.8449772,8.63587963 99.9910959,8.76481481 99.9910959,9.02268519 L99.9910959,9.90092593 C99.9910959,10.1451389 99.8449772,10.2671296 99.5531963,10.2671296 C99.0641553,10.2671296 98.5942922,10.3342593 98.1426941,10.4680556 C97.6913242,10.6018519 97.2006849,10.8303241 96.6712329,11.1532407 L96.6712329,19.9935185 C96.6712329,20.1037037 96.6305936,20.2013889 96.5490868,20.2875 C96.4675799,20.3731481 96.3723744,20.4159722 96.2641553,20.4159722 L95.2356164,20.4159722 C95.1267123,20.4159722 95.0333333,20.3731481 94.9554795,20.287037 C94.8773973,20.2011574 94.8383562,20.1030093 94.8383562,19.9925926" id="Fill-8" fill="#000105"></path>
                <path d="M11.3013699,1.09953704 C5.05981735,1.09953704 0,6.22962963 0,12.5578704 C0,13.8798611 0.223515982,15.1481481 0.629680365,16.3298611 C2.73995434,15.4666667 5.8609589,13.7694444 9.36073059,10.474537 C12.28379,7.7224537 14.5842466,4.70625 16.2223744,2.24050926 C14.7347032,1.50972222 13.0655251,1.09953704 11.3013699,1.09953704" id="Fill-9" fill="#273870"></path>
                <path d="M11.3013699,24.0162037 C16.93379,24.0162037 21.6022831,19.8381944 22.460274,14.3724537 C19.4803653,16.4229167 15.6378995,18.3731481 11.3013699,18.9236111 C7.05981735,19.462037 4.19246575,19.5488426 2.28789954,19.46875 C4.35136986,22.230787 7.62031963,24.0162037 11.3013699,24.0162037" id="Fill-10" fill="#273870"></path>
                <path d="M2.28789954,18.3085648 C2.28789954,18.3085648 11.3577626,19.3576389 22.506621,14.031713 C22.5678082,13.5488426 22.6027397,13.0576389 22.6027397,12.5578704 C22.6027397,11.0259259 22.3038813,9.56527778 21.7659817,8.22962963 C20.0417808,9.97106481 17.543379,12.1400463 14.459589,13.8310185 C7.00159817,17.9206019 2.28789954,18.3085648 2.28789954,18.3085648" id="Fill-11" fill="#5AAE45"></path>
                <g id="Group-15" transform="translate(2.283105, 0.000000)">
                    <mask id="mask-2" fill="white">
                        <use xlink:href="#path-1"></use>
                    </mask>
                    <g id="Clip-13"></g>
                    <path d="M0.00479452055,16.9560185 C0.00479452055,16.9560185 9.94611872,15.8914352 19.2474886,7.6849537 C18.2847032,5.61111111 16.7276256,3.87824074 14.7977169,2.71134259 C13.3605023,4.57546296 11.5310502,6.83263889 9.5130137,9.04699074 C3.95730594,15.1428241 0.00479452055,16.9560185 0.00479452055,16.9560185" id="Fill-12" fill="#166134" mask="url(#mask-2)"></path>
                    <path d="M21.8979452,12.5578704 C21.8979452,6.05046296 16.9696347,0.713194444 10.6915525,0.165277778 C11.0431507,0.134722222 11.3977169,0.115740741 11.7570776,0.115740741 C18.5344749,0.115740741 24.0287671,5.68634259 24.0287671,12.5578704 C24.0287671,19.4293981 18.5344749,25 11.7570776,25 C11.3977169,25 11.0431507,24.9810185 10.6915525,24.950463 C16.9696347,24.4025463 21.8979452,19.0652778 21.8979452,12.5578704" id="Fill-14" fill="#DA2E2D" mask="url(#mask-2)"></path>
                </g>
            </g>
        </g>
    </g>
</svg>