<?xml version="1.0" encoding="UTF-8"?>
<svg width="74px" height="34px" viewBox="0 0 74 34" version="1.1" xmlns="http://www.w3.org/2000/svg" xmlns:xlink="http://www.w3.org/1999/xlink">
    <!-- Generator: Sketch 49.1 (51147) - http://www.bohemiancoding.com/sketch -->
    <title>Giropay Copy</title>
    <desc>Created with Sketch.</desc>
    <defs>
        <path d="M0.0578851535,5.49133384 C0.0578851535,2.46484566 2.54072757,0.0109984387 5.60186913,0.0109984387 L66.0218104,0.0109984387 C69.0842674,0.0109984387 71.5657659,2.46484566 71.5657659,5.49133384 L71.5657659,25.0760842 C71.5657659,28.1008112 69.0842674,30.5551123 66.0218104,30.5551123 L5.60186913,30.5551123 C2.54072757,30.5551123 0.0578851535,28.1008112 0.0578851535,25.0760842 L0.0578851535,5.49133384 L0.0578851535,5.49133384 L0.0578851535,5.49133384 Z" id="path-1"></path>
    </defs>
    <g id="Page-1" stroke="none" stroke-width="1" fill="none" fill-rule="evenodd">
        <g id="m7-withdraw-balance-0-1366" transform="translate(-402.000000, -1979.000000)">
            <g id="Giropay-Copy" transform="translate(403.000000, 1980.000000)">
                <g id="layer1" transform="translate(0.000000, 0.695652)">
                    <g id="_92653320">
                        <use fill="#000268" fill-rule="evenodd" xlink:href="#path-1"></use>
                        <path stroke="#FFFFFF" stroke-width="1" d="M-0.442114846,5.49133384 C-0.442114846,2.18756504 2.26570478,-0.489001561 5.60186913,-0.489001561 L66.0218104,-0.489001561 C69.3588493,-0.489001561 72.0657659,2.18712995 72.0657659,5.49133384 L72.0657659,25.0760842 C72.0657659,28.378898 69.3584744,31.0551123 66.0218104,31.0551123 L5.60186913,31.0551123 C2.2660798,31.0551123 -0.442114846,28.378463 -0.442114846,25.0760842 L-0.442114846,5.49133384 Z"></path>
                    </g>
                    <path d="M2.33326863,5.67885215 L2.33326863,24.8903559 C2.33326863,26.7812504 3.88519173,28.3148656 5.79951722,28.3148656 L37.4540918,28.3148656 L37.4540918,2.25434212 L5.79951722,2.25434212 C3.88519173,2.25434212 2.33326863,3.78792919 2.33326863,5.67885215 L2.33326863,5.67885215 L2.33326863,5.67885215 Z M45.6330581,15.1886431 C45.6330581,16.411802 45.0240107,17.2524524 44.0156626,17.2524524 C43.1248446,17.2524524 42.382249,16.411802 42.382249,15.2916642 C42.382249,14.1419215 43.0353453,13.2871225 44.0156626,13.2871225 C45.0551882,13.2871225 45.6330581,14.1715553 45.6330581,15.1886431 L45.6330581,15.1886431 Z M39.7124564,22.2039004 L42.382249,22.2039004 L42.382249,18.0325001 L42.4120823,18.0325001 C42.9178152,18.9465659 43.9275074,19.2852921 44.861974,19.2852921 C47.1613837,19.2852921 48.3927794,17.399256 48.3927794,15.1293754 C48.3927794,13.2729731 47.2210505,11.2524923 45.0836767,11.2524923 C43.8678697,11.2524923 42.7401897,11.739386 42.2046235,12.8157125 L42.1747901,12.8157125 L42.1747901,11.4307194 L39.7124564,11.4307194 L39.7124564,22.2039004 L39.7124564,22.2039004 Z M52.039314,16.6766854 C52.039314,15.940392 52.7507322,15.6613593 53.657139,15.6613593 C54.0573834,15.6613593 54.4438126,15.6892314 54.7848198,15.7051425 C54.7848198,16.6037238 54.1468545,17.5177624 53.1371615,17.5177624 C52.5138985,17.5177624 52.039314,17.2086692 52.039314,16.6766854 L52.039314,16.6766854 Z M57.424808,19.1088547 C57.3068194,18.5052444 57.2769868,17.8998451 57.2769868,17.2962348 L57.2769868,14.4368652 C57.2769868,12.0935966 55.5714644,11.2524923 53.5975013,11.2524923 C52.4555766,11.2524923 51.4614724,11.4147803 50.5114179,11.7986247 L50.55684,13.5975499 C51.2962889,13.1840725 52.1586177,13.0217837 53.0191737,13.0217837 C53.9821279,13.0217837 54.7688016,13.302607 54.7848198,14.3493285 C54.4438126,14.2900609 53.9678841,14.2449426 53.5378354,14.2449426 C52.1145687,14.2449426 49.547147,14.5257659 49.547147,16.868608 C49.547147,18.5348782 50.9116623,19.2852921 52.4399879,19.2852921 C53.5378354,19.2852921 54.2804027,18.859455 54.8885347,17.8998451 L54.918368,17.8998451 C54.918368,18.2991732 54.9619876,18.6953765 54.978034,19.1088547 L57.424808,19.1088547 L57.424808,19.1088547 Z M60.2877866,22.3821283 C62.7363624,22.3821283 63.314204,20.5097869 64.0710443,18.5786325 L66.9060203,11.4307194 L64.234426,11.4307194 L62.6468631,16.4414358 L62.6170297,16.4414358 L60.9551275,11.4307194 L58.0778761,11.4307194 L61.2080085,19.2852921 C61.0147935,19.9636537 60.5108341,20.3474981 59.8573084,20.3474981 C59.4851238,20.3474981 59.1601348,20.3023798 58.803539,20.1852093 L58.6263421,22.2039004 C59.1756945,22.3224348 59.7241895,22.3821283 60.2877866,22.3821283 Z" id="_92186184" fill="#FFFFFF"></path>
                    <path d="M8.85576735,15.2041275 C8.85576735,14.1574059 9.37574486,13.2871225 10.3698491,13.2871225 C11.5714397,13.2871225 12.0753999,14.2449426 12.0753999,15.0997424 C12.0753999,16.279147 11.3185596,17.0746792 10.3698491,17.0746792 C9.56895988,17.0746792 8.85576735,16.3976526 8.85576735,15.2041275 L8.85576735,15.2041275 Z M14.6574949,11.4307194 L12.2387807,11.4307194 L12.2387807,12.8157125 L12.2107208,12.8157125 C11.6453221,11.872041 10.7246715,11.2524923 9.58320372,11.2524923 C7.18005,11.2524923 6.09647547,12.9638519 6.09647547,15.2478818 C6.09647547,17.5177624 7.41734224,19.1088547 9.53735299,19.1088547 C10.6071406,19.1088547 11.4975291,18.6953765 12.1350375,17.7968232 L12.1648701,17.7968232 L12.1648701,18.2102725 C12.1648701,19.7129189 11.3341483,20.4350637 9.79200746,20.4350637 C8.67857131,20.4350637 7.99521216,20.1993587 7.18005,19.8018203 L7.04650172,21.8952346 C7.66844967,22.1167902 8.72221908,22.3821283 9.99946633,22.3821283 C13.1153541,22.3821283 14.6574949,21.3645858 14.6574949,18.2102725 L14.6574949,11.4307194 L14.6574949,11.4307194 Z M19.1712784,8.23262372 L16.5001409,8.23262372 L16.5001409,10.1779275 L19.1712784,10.1779275 L19.1712784,8.23262372 L19.1712784,8.23262372 Z M16.501485,19.1088547 L19.1712784,19.1088547 L19.1712784,11.4307194 L16.501485,11.4307194 L16.501485,19.1088547 L16.501485,19.1088547 Z M26.6077636,11.341393 C26.340638,11.2980364 26.0138755,11.2524923 25.7031304,11.2524923 C24.5456453,11.2524923 23.8783043,11.872041 23.4179645,12.8453463 L23.3881311,12.8453463 L23.3881311,11.4307194 L20.9551731,11.4307194 L20.9551731,19.1088547 L23.6254234,19.1088547 L23.6254234,15.8674304 C23.6254234,14.3634771 24.3239418,13.4648949 25.5695821,13.4648949 C25.8821008,13.4648949 26.1772564,13.4648949 26.4742153,13.5520059 L26.6077636,11.341393 L26.6077636,11.341393 Z M31.2061836,17.4288898 C29.9747871,17.4288898 29.4708277,16.411802 29.4708277,15.2775148 C29.4708277,14.1277721 29.9747871,13.1106843 31.2061836,13.1106843 C32.4389233,13.1106843 32.9433121,14.1277721 32.9433121,15.2775148 C32.9433121,16.411802 32.4389233,17.4288898 31.2061836,17.4288898 L31.2061836,17.4288898 Z M31.2061836,19.2852921 C33.7584452,19.2852921 35.702604,17.8127342 35.702604,15.2775148 C35.702604,12.7268407 33.7584452,11.2524923 31.2061836,11.2524923 C28.6543497,11.2524923 26.7115358,12.7268407 26.7115358,15.2775148 C26.7115358,17.8127342 28.6543497,19.2852921 31.2061836,19.2852921 L31.2061836,19.2852921 Z" id="_47303032" fill="#FF0007"></path>
                </g>
            </g>
        </g>
    </g>
</svg>