<?xml version="1.0" encoding="UTF-8"?>
<svg width="102px" height="26px" viewBox="0 0 102 26" version="1.1" xmlns="http://www.w3.org/2000/svg" xmlns:xlink="http://www.w3.org/1999/xlink">
    <!-- Generator: Sketch 51.3 (57544) - http://www.bohemiancoding.com/sketch -->
    <title>Group 36</title>
    <desc>Created with Sketch.</desc>
    <defs></defs>
    <g id="Page-1" stroke="none" stroke-width="1" fill="none" fill-rule="evenodd">
        <g id="m7-withdraw-balance-0-1366-copy" transform="translate(-190.000000, -1131.000000)">
            <g id="Group-36" transform="translate(190.000000, 1129.000000)">
                <g id="Group-34">
                    <rect id="Rectangle-3" fill="#002D61" fill-rule="nonzero" x="0.497560976" y="3" width="101.004878" height="24"></rect>
                    <rect id="Rectangle-3" fill="#F07B2B" fill-rule="nonzero" transform="translate(51.000000, 2.750000) scale(1, -1) translate(-51.000000, -2.750000) " x="0.497560976" y="2.5" width="101.004878" height="1"></rect>
                    <rect id="Rectangle-3" fill="#FFFFFF" fill-rule="nonzero" transform="translate(51.248780, 27.250000) scale(1, -1) translate(-51.248780, -27.250000) " x="0.497560976" y="27" width="101.502439" height="1"></rect>
                    <rect id="Rectangle-3" fill="#F07B2B" fill-rule="nonzero" transform="translate(101.751220, 14.750000) scale(-1, -1) translate(-101.751220, -14.750000) " x="101.502439" y="2.5" width="1" height="24.5"></rect>
                    <rect id="Rectangle-3-Copy" fill="#FFFFFF" fill-rule="nonzero" transform="translate(0.248780, 15.000000) scale(-1, -1) translate(-0.248780, -15.000000) " x="0" y="2.5" width="1" height="25"></rect>
                    <path d="M6.34489756,15.5 L6.34489756,7.004 L8.39882927,7.004 L8.39882927,15.5 L6.34489756,15.5 Z M15.6701854,15.5 L12.2668683,9.944 L12.2310439,9.944 L12.2788098,15.5 L10.2965268,15.5 L10.2965268,7.004 L12.6251122,7.004 L16.0164878,12.548 L16.0523122,12.548 L16.0045463,7.004 L17.9868293,7.004 L17.9868293,15.5 L15.6701854,15.5 Z M23.5027902,8.756 L23.5027902,15.5 L21.4608,15.5 L21.4608,8.756 L19.0725073,8.756 L19.0725073,7.004 L25.8910829,7.004 L25.8910829,8.756 L23.5027902,8.756 Z M26.976761,15.5 L26.976761,7.004 L32.6608976,7.004 L32.6608976,8.744 L28.9471024,8.744 L28.9471024,10.34 L32.4578927,10.34 L32.4578927,11.984 L28.9471024,11.984 L28.9471024,13.748 L32.8758439,13.748 L32.8758439,15.5 L26.976761,15.5 Z M38.9052878,15.5 L37.0782439,12.128 L36.385639,12.128 L36.385639,15.5 L34.3794732,15.5 L34.3794732,7.004 L37.6036683,7.004 C38.0096801,7.004 38.4057347,7.04599958 38.7918439,7.13 C39.1779532,7.21400042 39.5242521,7.355999 39.8307512,7.556 C40.1372503,7.756001 40.3820479,8.01999836 40.5651512,8.348 C40.7482546,8.67600164 40.8398049,9.08399756 40.8398049,9.572 C40.8398049,10.1480029 40.6845674,10.631998 40.3740878,11.024 C40.0636082,11.416002 39.6337198,11.6959992 39.0844098,11.864 L41.2935805,15.5 L38.9052878,15.5 Z M38.8216976,9.608 C38.8216976,9.407999 38.7799029,9.24600062 38.6963122,9.122 C38.6127215,8.99799938 38.5052494,8.90200034 38.3738927,8.834 C38.2425359,8.76599966 38.0952594,8.72000012 37.9320585,8.696 C37.7688577,8.67199988 37.61163,8.66 37.4603707,8.66 L36.3736976,8.66 L36.3736976,10.64 L37.3409561,10.64 C37.5081374,10.64 37.6792967,10.6260001 37.854439,10.598 C38.0295814,10.5699999 38.1887993,10.5200004 38.3320976,10.448 C38.4753958,10.3759996 38.5928191,10.2720007 38.6843707,10.136 C38.7759224,9.99999932 38.8216976,9.82400108 38.8216976,9.608 Z M47.8245659,15.5 L44.4212488,9.944 L44.3854244,9.944 L44.4331902,15.5 L42.4509073,15.5 L42.4509073,7.004 L44.7794927,7.004 L48.1708683,12.548 L48.2066927,12.548 L48.1589268,7.004 L50.1412098,7.004 L50.1412098,15.5 L47.8245659,15.5 Z M52.0389073,15.5 L52.0389073,7.004 L57.7230439,7.004 L57.7230439,8.744 L54.0092488,8.744 L54.0092488,10.34 L57.520039,10.34 L57.520039,11.984 L54.0092488,11.984 L54.0092488,13.748 L57.9379903,13.748 L57.9379903,15.5 L52.0389073,15.5 Z M63.0598829,8.756 L63.0598829,15.5 L61.0178927,15.5 L61.0178927,8.756 L58.6296,8.756 L58.6296,7.004 L65.4481756,7.004 L65.4481756,8.756 L63.0598829,8.756 Z" id="INTERNET" fill="#F97C3C"></path>
                    <path d="M80.8536585,17.468 C80.8536585,18.3186709 80.6858163,19.0336638 80.3501268,19.613 C80.0144373,20.1923362 79.5692906,20.6579982 79.0146732,21.01 C78.4600558,21.3620018 77.8288231,21.6149992 77.1209561,21.769 C76.4130891,21.9230008 75.6869891,22 74.9426341,22 L68.7688976,22 L68.7688976,6.424 L74.9426341,6.424 C75.5410371,6.424 76.1540261,6.48633271 76.7816195,6.611 C77.4092129,6.73566729 77.978417,6.94833183 78.4892488,7.249 C79.0000806,7.54966817 79.4160374,7.9566641 79.7371317,8.47 C80.058226,8.9833359 80.2187707,9.63599604 80.2187707,10.428 C80.2187707,11.2933377 79.9852511,12.0083305 79.5182049,12.573 C79.0511586,13.1376695 78.4381696,13.5446654 77.6792195,13.794 L77.6792195,13.838 C78.1170754,13.9113337 78.5293834,14.046999 78.9161561,14.245 C79.3029288,14.443001 79.6386132,14.6959985 79.9232195,15.004 C80.2078258,15.3120015 80.4340479,15.6713313 80.6018927,16.082 C80.7697374,16.4926687 80.8536585,16.9546641 80.8536585,17.468 Z M76.606478,10.934 C76.606478,10.4059974 76.4057971,10.0210012 76.0044293,9.779 C75.6030614,9.53699879 75.0083161,9.416 74.2201756,9.416 L72.3811902,9.416 L72.3811902,12.628 L74.3953171,12.628 C75.0958864,12.628 75.6395493,12.4850014 76.026322,12.199 C76.4130946,11.9129986 76.606478,11.4913361 76.606478,10.934 Z M77.1100098,17.116 C77.1100098,16.4706634 76.8691927,16.0233346 76.3875512,15.774 C75.9059098,15.5246654 75.2637308,15.4 74.4609951,15.4 L72.3811902,15.4 L72.3811902,18.964 L74.4828878,18.964 C74.7747917,18.964 75.0776375,18.9383336 75.3914341,18.887 C75.7052308,18.8356664 75.9898329,18.7440007 76.2452488,18.612 C76.5006647,18.4799993 76.7086431,18.2930012 76.8691902,18.051 C77.0297374,17.8089988 77.1100098,17.4973352 77.1100098,17.116 Z M90.4157853,22 L87.0662048,15.818 L85.7964292,15.818 L85.7964292,22 L82.1184585,22 L82.1184585,6.424 L88.0294829,6.424 C88.7738378,6.424 89.4999379,6.50099923 90.2078048,6.655 C90.9156718,6.80900077 91.5505533,7.0693315 92.1124683,7.436 C92.6743833,7.8026685 93.1231788,8.28666366 93.4588683,8.888 C93.7945577,9.48933634 93.9624,10.2373289 93.9624,11.132 C93.9624,12.1880053 93.6777979,13.0753297 93.1085853,13.794 C92.5393727,14.5126703 91.751244,15.0259985 90.7441756,15.334 L94.7943219,22 L90.4157853,22 Z M90.2625366,11.198 C90.2625366,10.8313315 90.1859129,10.5343345 90.0326634,10.307 C89.8794138,10.0796655 89.6823817,9.90366729 89.4415609,9.779 C89.2007402,9.65433271 88.9307332,9.57000022 88.6315317,9.526 C88.3323302,9.48199978 88.0440794,9.46 87.7667707,9.46 L85.7745366,9.46 L85.7745366,13.09 L87.5478439,13.09 C87.854343,13.09 88.1681349,13.0643336 88.4892292,13.013 C88.8103235,12.9616664 89.102223,12.8700007 89.3649366,12.738 C89.6276501,12.6059993 89.842926,12.4153346 90.0107707,12.166 C90.1786154,11.9166654 90.2625366,11.594002 90.2625366,11.198 Z M95.4242341,22 L95.4242341,6.424 L99.1897755,6.424 L99.1897755,22 L95.4242341,22 Z" id="BRI" fill="#FFFFFF"></path>
                    <path d="M9.82682927,20.558 C9.82682927,20.828668 9.77342492,21.0561657 9.66661463,21.2405 C9.55980434,21.4248343 9.41816674,21.5729994 9.24169756,21.685 C9.06522839,21.7970006 8.86438161,21.8774998 8.63915122,21.9265 C8.41392083,21.9755002 8.18288899,22 7.94604878,22 L5.98167805,22 L5.98167805,17.044 L7.94604878,17.044 C8.13644973,17.044 8.33149168,17.0638331 8.53118049,17.1035 C8.73086929,17.1431669 8.91197968,17.2108329 9.07451707,17.3065 C9.23705447,17.4021671 9.36940437,17.5316659 9.47157073,17.695 C9.5737371,17.8583342 9.62481951,18.0659987 9.62481951,18.318 C9.62481951,18.5933347 9.55051782,18.8208324 9.4019122,19.0005 C9.25330657,19.1801676 9.05826462,19.3096663 8.81678049,19.389 L8.81678049,19.403 C8.95609826,19.4263335 9.08728719,19.4694997 9.21035122,19.5325 C9.33341525,19.5955003 9.44022394,19.6759995 9.53078049,19.774 C9.62133704,19.8720005 9.69331681,19.9863327 9.74672195,20.117 C9.8001271,20.2476673 9.82682927,20.3946659 9.82682927,20.558 Z M8.47545366,18.479 C8.47545366,18.3109992 8.41160064,18.1885004 8.28389268,18.1115 C8.15618473,18.0344996 7.9669476,17.996 7.71617561,17.996 L7.1310439,17.996 L7.1310439,19.018 L7.77190244,19.018 C7.99481087,19.018 8.16779451,18.9725005 8.29085854,18.8815 C8.41392257,18.7904995 8.47545366,18.6563342 8.47545366,18.479 Z M8.63566829,20.446 C8.63566829,20.2406656 8.55904467,20.0983337 8.40579512,20.019 C8.25254558,19.9396663 8.04821591,19.9 7.7928,19.9 L7.1310439,19.9 L7.1310439,21.034 L7.79976585,21.034 C7.89264437,21.034 7.98900438,21.0258334 8.08884878,21.0095 C8.18869318,20.9931666 8.27924837,20.9640002 8.36051707,20.922 C8.44178577,20.8799998 8.50796072,20.8205004 8.5590439,20.7435 C8.61012708,20.6664996 8.63566829,20.5673339 8.63566829,20.446 Z M17.6644099,20.481 L17.518127,20.481 C17.392741,20.481 17.2661959,20.4868333 17.138488,20.4985 C17.01078,20.5101667 16.8970055,20.5323332 16.7971611,20.565 C16.6973167,20.5976668 16.6148883,20.6454997 16.5498733,20.7085 C16.4848584,20.7715003 16.4523514,20.8543328 16.4523514,20.957 C16.4523514,21.0223337 16.4674439,21.0783331 16.4976294,21.125 C16.5278149,21.1716669 16.5661267,21.2089999 16.612566,21.237 C16.6590053,21.2650001 16.7124096,21.2848333 16.7727806,21.2965 C16.8331517,21.3081667 16.8911999,21.314 16.946927,21.314 C17.1791233,21.314 17.3567508,21.249834 17.4798148,21.1215 C17.6028788,20.993166 17.6644099,20.8193344 17.6644099,20.6 L17.6644099,20.481 Z M15.567688,18.99 C15.7720207,18.793999 16.0100183,18.6470005 16.281688,18.549 C16.5533576,18.4509995 16.830828,18.402 17.1141075,18.402 C17.4066748,18.402 17.6539601,18.4381663 17.8559709,18.5105 C18.0579816,18.5828337 18.2216776,18.6948326 18.3470636,18.8465 C18.4724496,18.9981674 18.5641657,19.1894988 18.6222148,19.4205 C18.6802639,19.6515012 18.709288,19.9256651 18.709288,20.243 L18.709288,22 L17.6644099,22 L17.6644099,21.629 L17.6435123,21.629 C17.5552778,21.7736674 17.4217669,21.8856663 17.2429758,21.965 C17.0641846,22.0443337 16.8703036,22.084 16.661327,22.084 C16.5220092,22.084 16.3780497,22.0653335 16.2294441,22.028 C16.0808384,21.9906665 15.9450056,21.9300004 15.8219416,21.846 C15.6988776,21.7619996 15.5978737,21.6500007 15.518927,21.51 C15.4399802,21.3699993 15.4005075,21.1973344 15.4005075,20.992 C15.4005075,20.7399987 15.4690043,20.5370008 15.6060002,20.383 C15.742996,20.2289992 15.9194625,20.1100004 16.135405,20.026 C16.3513476,19.9419996 16.5916671,19.8860001 16.8563709,19.858 C17.1210746,19.8299999 17.3788087,19.816 17.6295806,19.816 L17.6295806,19.76 C17.6295806,19.5873325 17.5692105,19.4601671 17.4484684,19.3785 C17.3277264,19.2968329 17.179123,19.256 17.0026538,19.256 C16.8401164,19.256 16.6833863,19.2909997 16.5324587,19.361 C16.3815311,19.4310004 16.2526641,19.5149995 16.1458538,19.613 L15.567688,18.99 Z M26.9021271,22 L26.9021271,20.096 C26.9021271,19.9979995 26.8940004,19.9046671 26.8777466,19.816 C26.8614929,19.7273329 26.8347907,19.649167 26.7976393,19.5815 C26.7604879,19.513833 26.7082445,19.4601669 26.6409076,19.4205 C26.5735707,19.3808331 26.4888203,19.361 26.386654,19.361 C26.2844876,19.361 26.1950934,19.3808331 26.1184686,19.4205 C26.0418438,19.4601669 25.9779908,19.5149997 25.9269076,19.585 C25.8758244,19.6550004 25.8375126,19.7354995 25.811971,19.8265 C25.7864294,19.9175005 25.7736588,20.0119995 25.7736588,20.11 L25.7736588,22 L24.624293,22 L24.624293,18.514 L25.7318637,18.514 L25.7318637,18.997 L25.7457954,18.997 C25.7875908,18.922333 25.8421561,18.8488337 25.909493,18.7765 C25.9768299,18.7041663 26.0557755,18.6423336 26.146332,18.591 C26.2368886,18.5396664 26.3355705,18.4976668 26.4423808,18.465 C26.5491911,18.4323332 26.6629656,18.416 26.7837076,18.416 C27.0159039,18.416 27.2132678,18.4579996 27.3758052,18.542 C27.5383426,18.6260004 27.6695315,18.7344993 27.7693759,18.8675 C27.8692203,19.0005007 27.9412001,19.1533325 27.9853174,19.326 C28.0294347,19.4986675 28.051493,19.6713325 28.051493,19.844 L28.051493,22 L26.9021271,22 Z M37.7071614,22 L36.2930931,22 L35.157659,20.327 L35.1367614,20.327 L35.1367614,22 L33.9873956,22 L33.9873956,16.708 L35.1367614,16.708 L35.1367614,19.928 L35.157659,19.928 L36.2652297,18.514 L37.6514346,18.514 L36.3139907,20.089 L37.7071614,22 Z M44.4302055,17.401 C44.4302055,17.4896671 44.412791,17.5724996 44.3779616,17.6495 C44.3431321,17.7265004 44.2966936,17.7929997 44.2386445,17.849 C44.1805954,17.9050003 44.1109376,17.9493332 44.0296689,17.982 C43.9484002,18.0146668 43.8636498,18.031 43.7754152,18.031 C43.5896582,18.031 43.434089,17.9691673 43.308703,17.8455 C43.1833171,17.7218327 43.120625,17.5736675 43.120625,17.401 C43.120625,17.3169996 43.1368785,17.2365004 43.169386,17.1595 C43.2018935,17.0824996 43.248332,17.0160003 43.308703,16.96 C43.3690741,16.9039997 43.4387319,16.8585002 43.5176787,16.8235 C43.5966254,16.7884998 43.6825367,16.771 43.7754152,16.771 C43.8636498,16.771 43.9484002,16.7873332 44.0296689,16.82 C44.1109376,16.8526668 44.1805954,16.8969997 44.2386445,16.953 C44.2966936,17.0090003 44.3431321,17.0754996 44.3779616,17.1525 C44.412791,17.2295004 44.4302055,17.3123329 44.4302055,17.401 Z M43.2042152,22 L43.2042152,18.514 L44.3466152,18.514 L44.3466152,22 L43.2042152,22 Z M52.5951812,22 L52.5951812,20.096 C52.5951812,19.9979995 52.5870545,19.9046671 52.5708008,19.816 C52.554547,19.7273329 52.5278448,19.649167 52.4906934,19.5815 C52.453542,19.513833 52.4012987,19.4601669 52.3339617,19.4205 C52.2666248,19.3808331 52.1818744,19.361 52.0797081,19.361 C51.9775417,19.361 51.8881475,19.3808331 51.8115227,19.4205 C51.7348979,19.4601669 51.6710449,19.5149997 51.6199617,19.585 C51.5688786,19.6550004 51.5305667,19.7354995 51.5050251,19.8265 C51.4794836,19.9175005 51.466713,20.0119995 51.466713,20.11 L51.466713,22 L50.3173471,22 L50.3173471,18.514 L51.4249178,18.514 L51.4249178,18.997 L51.4388495,18.997 C51.4806449,18.922333 51.5352102,18.8488337 51.6025471,18.7765 C51.669884,18.7041663 51.7488296,18.6423336 51.8393861,18.591 C51.9299427,18.5396664 52.0286246,18.4976668 52.1354349,18.465 C52.2422452,18.4323332 52.3560197,18.416 52.4767617,18.416 C52.708958,18.416 52.9063219,18.4579996 53.0688593,18.542 C53.2313967,18.6260004 53.3625856,18.7344993 53.46243,18.8675 C53.5622744,19.0005007 53.6342542,19.1533325 53.6783715,19.326 C53.7224888,19.4986675 53.7445471,19.6713325 53.7445471,19.844 L53.7445471,22 L52.5951812,22 Z M63.3514546,21.671 C63.3514546,22.0116684 63.3026941,22.3079987 63.2051716,22.56 C63.1076492,22.8120013 62.9706555,23.0208325 62.7941863,23.1865 C62.6177171,23.3521675 62.4029388,23.4758329 62.1498448,23.5575 C61.8967509,23.6391671 61.6169585,23.68 61.3104594,23.68 C61.0039604,23.68 60.6893391,23.6333338 60.3665863,23.54 C60.0438334,23.4466662 59.7640411,23.3113342 59.5272009,23.134 L60.0984009,22.315 C60.2655822,22.4643341 60.4501755,22.5751663 60.6521863,22.6475 C60.854197,22.7198337 61.0527219,22.756 61.2477668,22.756 C61.5821294,22.756 61.8294147,22.6673342 61.9896302,22.49 C62.1498456,22.3126658 62.2299521,22.0770015 62.2299521,21.783 L62.2299521,21.573 L62.2090546,21.573 C62.1022443,21.7130007 61.9582847,21.8249996 61.7771716,21.909 C61.5960585,21.9930004 61.389407,22.035 61.1572107,22.035 C60.8925069,22.035 60.6579922,21.9871671 60.4536594,21.8915 C60.2493267,21.7958329 60.0763431,21.6663342 59.9347034,21.503 C59.7930636,21.3396659 59.685094,21.1495011 59.6107912,20.9325 C59.5364883,20.7154989 59.4993375,20.4856679 59.4993375,20.243 C59.4993375,20.0003321 59.5364883,19.7693344 59.6107912,19.55 C59.685094,19.3306656 59.7930636,19.1370008 59.9347034,18.969 C60.0763431,18.8009992 60.2493267,18.6668338 60.4536594,18.5665 C60.6579922,18.4661662 60.890185,18.416 61.1502448,18.416 C61.3685093,18.416 61.5774828,18.4603329 61.7771716,18.549 C61.9768604,18.6376671 62.1370735,18.7753324 62.2578155,18.962 L62.2717473,18.962 L62.2717473,18.514 L63.3514546,18.514 L63.3514546,21.671 Z M62.2647814,20.236 C62.2647814,20.1193328 62.245045,20.0073339 62.2055716,19.9 C62.1660983,19.7926661 62.109211,19.6981671 62.0349082,19.6165 C61.9606054,19.5348329 61.8723722,19.4706669 61.7702058,19.424 C61.6680394,19.3773331 61.551943,19.354 61.4219131,19.354 C61.2918832,19.354 61.1769478,19.3773331 61.0771034,19.424 C60.9772589,19.4706669 60.8925086,19.5336663 60.8228497,19.613 C60.7531908,19.6923337 60.6997865,19.7856661 60.6626351,19.893 C60.6254837,20.0003339 60.6069082,20.1146661 60.6069082,20.236 C60.6069082,20.3526673 60.6254837,20.4646661 60.6626351,20.572 C60.6997865,20.6793339 60.7531908,20.7738329 60.8228497,20.8555 C60.8925086,20.9371671 60.9772589,21.0024998 61.0771034,21.0515 C61.1769478,21.1005002 61.2918832,21.125 61.4219131,21.125 C61.551943,21.125 61.6692004,21.1005002 61.7736887,21.0515 C61.878177,21.0024998 61.9664103,20.9383337 62.0383912,20.859 C62.110372,20.7796663 62.1660983,20.6863339 62.2055716,20.579 C62.245045,20.4716661 62.2647814,20.3573339 62.2647814,20.236 Z" id="Banking" fill="#F97C3C"></path>
                </g>
            </g>
        </g>
    </g>
</svg>