<?xml version="1.0" encoding="UTF-8"?>
<svg width="96px" height="31px" viewBox="0 0 96 31" version="1.1" xmlns="http://www.w3.org/2000/svg" xmlns:xlink="http://www.w3.org/1999/xlink">
    <!-- Generator: Sketch 51.3 (57544) - http://www.bohemiancoding.com/sketch -->
    <title>kiatnakin-bank</title>
    <desc>Created with Sketch.</desc>
    <defs></defs>
    <g id="Page-1" stroke="none" stroke-width="1" fill="none" fill-rule="evenodd">
        <g id="m7-withdraw-balance-0-1366-copy" transform="translate(-955.000000, -1130.000000)" fill-rule="nonzero">
            <g id="kiatnakin-bank" transform="translate(955.000000, 1130.000000)">
                <g id="#ffffffff" transform="translate(4.421053, 3.368421)" fill="#FFFFFF">
                    <path d="M5.66526316,0.610526316 C6.26947368,0.322105263 6.90105263,0.0463157895 7.58105263,0.0294736842 C7.55578947,0.652631579 7.34315789,1.25473684 7.36631579,1.88421053 C7.36842105,6.81684211 7.36842105,11.7515789 7.36842105,16.6842105 C5.49052632,16.6842105 3.61473684,16.6842105 1.73684211,16.6842105 C1.73684211,12.6589474 1.73894737,8.63157895 1.73473684,4.60631579 C1.71578947,3.95578947 1.91578947,3.27368421 2.41263158,2.83157895 C3.37473684,1.93052632 4.48,1.18526316 5.66526316,0.610526316 Z" id="Shape"></path>
                    <path d="M15.7705263,1.66947368 C16.6421053,1.30526316 17.6357895,0.863157895 18.5789474,1.24421053 C19.4842105,1.66526316 20.2252632,2.35789474 20.9515789,3.02736842 C21.5684211,3.65263158 22.2589474,4.25894737 22.6252632,5.07368421 C22.5494737,5.55578947 22.0147368,5.33052632 21.6821053,5.37263158 C21.1684211,5.32631579 20.6715789,5.48210526 20.2126316,5.69473684 C16.16,7.54947368 12.1136842,9.41263158 8.05473684,11.2547368 C8.05052632,9.18315789 8.05263158,7.11368421 8.05263158,5.04421053 C10.6168421,3.89684211 13.1873684,2.76842105 15.7705263,1.66947368 Z" id="Shape"></path>
                    <path d="M12.8231579,9.86947368 C14.5726316,9.06736842 16.32,8.26105263 18.0715789,7.46105263 C19.3368421,9.74947368 20.6126316,12.0315789 21.8736842,14.3242105 C22.5894737,15.3515789 21.6652632,16.8463158 20.4273684,16.6842105 C19.0947368,16.6968421 17.76,16.6757895 16.4273684,16.6842105 C15.2315789,14.4105263 14.0189474,12.1431579 12.8231579,9.86947368 Z" id="Shape"></path>
                    <path d="M0.0694736842,17.1157895 C0.76,17.0294737 1.40631579,17.4063158 2.09894737,17.3684211 C8.41684211,17.3705263 14.7347368,17.3642105 21.0526316,17.3705263 C21.7073684,17.3915789 22.3263158,17.1515789 22.9642105,17.0463158 C23.4778947,17.5305263 22.8294737,18.1347368 22.5494737,18.5578947 C21.1494737,20.3115789 19.5052632,22.3536842 17.0884211,22.5157895 C13.7768421,22.5473684 10.4631579,22.5094737 7.14947368,22.5305263 C6.34315789,22.5368421 5.50526316,22.5431579 4.75368421,22.2084211 C3.08631579,21.5347368 1.91368421,20.0968421 0.808421053,18.7410526 C0.467368421,18.2568421 -0.0757894737,17.7705263 0.0694736842,17.1157895 Z" id="Shape"></path>
                    <path d="M75.1157895,20.8357895 C75.1094737,20.6168421 75.1052632,20.4 75.1010526,20.1831579 C75.4547368,20.2105263 75.8084211,20.2484211 76.1642105,20.2926316 C76.0568421,20.8210526 75.5621053,20.8231579 75.1157895,20.8357895 Z" id="Shape"></path>
                    <path d="M41.0378947,20.4821053 C41.1431579,20.7768421 41.2484211,21.0694737 41.3578947,21.3663158 C41.1368421,21.3684211 40.9157895,21.3684211 40.6947368,21.3726316 C40.8084211,21.0757895 40.9221053,20.7768421 41.0378947,20.4821053 Z" id="Shape"></path>
                    <path d="M54.5305263,21.3663158 C54.6378947,21.0694737 54.7452632,20.7705263 54.8547368,20.4757895 C54.9621053,20.7726316 55.0736842,21.0715789 55.1810526,21.3705263 C55.0189474,21.3684211 54.6926316,21.3663158 54.5305263,21.3663158 Z" id="Shape"></path>
                    <path d="M79.9178947,21.3642105 C80.0336842,21.0694737 80.1494737,20.7768421 80.2694737,20.4842105 C80.3684211,20.7789474 80.4715789,21.0757895 80.5726316,21.3705263 C80.4105263,21.3684211 80.0821053,21.3663158 79.9178947,21.3642105 Z" id="Shape"></path>
                    <path d="M75.1115789,22.0484211 C75.1073684,21.7684211 75.1052632,21.4884211 75.1052632,21.2105263 C75.5578947,21.2947368 76.3810526,21.1621053 76.1915789,21.8842105 C75.84,21.9810526 75.4736842,22.0063158 75.1115789,22.0484211 Z" id="Shape"></path>
                </g>
                <g id="#0080c6ff" fill="#0080C6">
                    <path d="M13.5768421,0.368421053 C17.24,-0.153684211 21.0905263,0.545263158 24.2757895,2.45052632 C27.0694737,4.10105263 29.3536842,6.63578947 30.6021053,9.64210526 C32.0631579,13.1221053 32.0631579,17.1873684 30.6042105,20.6694737 C29.2778947,23.8694737 26.7768421,26.5326316 23.7368421,28.1726316 C18.28,31.1578947 11.1178947,30.6694737 6.16210526,26.8884211 C3.15578947,24.6357895 0.997894737,21.2484211 0.395789474,17.5263158 C-0.206315789,13.9726316 0.593684211,10.2084211 2.59578947,7.20842105 C5.04842105,3.48631579 9.17263158,0.970526316 13.5768421,0.368421053 Z M10.0863158,3.97894737 C8.90105263,4.55368421 7.79578947,5.29894737 6.83368421,6.2 C6.33684211,6.64210526 6.13684211,7.32421053 6.15578947,7.97473684 C6.16,12 6.15789474,16.0273684 6.15789474,20.0526316 C8.03578947,20.0526316 9.91157895,20.0526316 11.7894737,20.0526316 C11.7894737,15.12 11.7894737,10.1852632 11.7873684,5.25263158 C11.7642105,4.62315789 11.9768421,4.02105263 12.0021053,3.39789474 C11.3221053,3.41473684 10.6905263,3.69052632 10.0863158,3.97894737 Z M20.1915789,5.03789474 C17.6084211,6.13684211 15.0378947,7.26526316 12.4736842,8.41263158 C12.4736842,10.4821053 12.4715789,12.5515789 12.4757895,14.6231579 C16.5347368,12.7810526 20.5810526,10.9178947 24.6336842,9.06315789 C25.0926316,8.85052632 25.5894737,8.69473684 26.1031579,8.74105263 C26.4357895,8.69894737 26.9705263,8.92421053 27.0463158,8.44210526 C26.68,7.62736842 25.9894737,7.02105263 25.3726316,6.39578947 C24.6463158,5.72631579 23.9052632,5.03368421 23,4.61263158 C22.0568421,4.23157895 21.0631579,4.67368421 20.1915789,5.03789474 Z M17.2442105,13.2378947 C18.44,15.5115789 19.6526316,17.7789474 20.8484211,20.0526316 C22.1810526,20.0442105 23.5157895,20.0652632 24.8484211,20.0526316 C26.0863158,20.2147368 27.0105263,18.72 26.2947368,17.6926316 C25.0336842,15.4 23.7578947,13.1178947 22.4926316,10.8294737 C20.7410526,11.6294737 18.9936842,12.4357895 17.2442105,13.2378947 Z M4.49052632,20.4842105 C4.34526316,21.1389474 4.88842105,21.6252632 5.22947368,22.1094737 C6.33473684,23.4652632 7.50736842,24.9031579 9.17473684,25.5768421 C9.92631579,25.9115789 10.7642105,25.9052632 11.5705263,25.8989474 C14.8842105,25.8778947 18.1978947,25.9157895 21.5094737,25.8842105 C23.9263158,25.7221053 25.5705263,23.68 26.9705263,21.9263158 C27.2505263,21.5031579 27.8989474,20.8989474 27.3852632,20.4147368 C26.7473684,20.52 26.1284211,20.76 25.4736842,20.7389474 C19.1557895,20.7326316 12.8378947,20.7389474 6.52,20.7368421 C5.82736842,20.7747368 5.18105263,20.3978947 4.49052632,20.4842105 Z" id="Shape"></path>
                </g>
                <g id="#004990ff" transform="translate(36.000000, 4.421053)" fill="#FFFFFF">
                    <path d="M0.644210526,0.848421053 C2.33263158,-0.490526316 5.51578947,-0.193684211 6.24631579,2.08421053 C5.64421053,2.10526316 5.04421053,2.10736842 4.44421053,2.10526316 C3.75578947,1.31368421 2.51157895,1.21894737 1.70736842,1.89473684 C2.86105263,2.51368421 4.31368421,2.21473684 5.39578947,3.00631579 C6.51789474,3.76 6.46315789,5.71157895 5.22526316,6.32631579 C3.69894737,7.14105263 1.86947368,6.87157895 0.269473684,6.44 C0.261052632,5.64842105 0.263157895,4.85684211 0.265263158,4.06526316 C0.858947368,3.92631579 1.45263158,3.78736842 2.04842105,3.65473684 C2.05263158,4.25052632 2.05263158,4.84842105 2.05684211,5.44421053 C2.81052632,5.46947368 3.76,5.58105263 4.27789474,4.90105263 C4.57473684,4.49052632 4.18315789,3.94526316 3.74105263,3.85684211 C2.65263158,3.55368421 1.39368421,3.68 0.473684211,2.91789474 C-0.16,2.36842105 0.00421052632,1.32 0.644210526,0.848421053 Z" id="Shape"></path>
                    <path d="M14.1621053,0.393684211 C15.2168421,0.0147368421 16.4589474,-0.157894737 17.4842105,0.393684211 C18.2589474,0.783157895 18.6631579,1.67789474 18.6336842,2.52 C18.6378947,3.92631579 18.6273684,5.33052632 18.6315789,6.73684211 C18.0694737,6.73684211 17.5073684,6.73684211 16.9473684,6.73684211 C16.9010526,5.27578947 17.0421053,3.80210526 16.88,2.35157895 C16.48,1.20210526 15.0105263,1.57052632 14.1515789,1.91157895 C14.1557895,1.40421053 14.1578947,0.898947368 14.1621053,0.393684211 Z" id="Shape"></path>
                    <path d="M21.5621053,0.311578947 C22.7557895,-0.117894737 24.1621053,-0.0505263158 25.2610526,0.612631579 C25.8442105,0.968421053 26.2947368,1.59789474 26.3073684,2.29894737 C26.3347368,3.77894737 26.3052632,5.25684211 26.3157895,6.73684211 C25.7178947,6.73684211 25.1221053,6.73684211 24.5263158,6.73684211 C24.4905263,5.20210526 24.5978947,3.65684211 24.4757895,2.12631579 C24.1010526,1.33684211 22.9852632,1.31789474 22.2652632,1.6 C21.7221053,1.76210526 21.7073684,2.37473684 21.6105263,2.83368421 C22.3010526,2.84421053 22.9915789,2.84210526 23.6842105,2.84210526 C23.6842105,3.29684211 23.6842105,3.75368421 23.6842105,4.21052632 C23.0168421,4.21052632 22.3515789,4.21052632 21.6842105,4.21052632 C21.6842105,5.05263158 21.6842105,5.89473684 21.6842105,6.73684211 C21.0863158,6.73684211 20.4905263,6.73684211 19.8947368,6.73684211 C19.9052632,5.25894737 19.8715789,3.78315789 19.9031579,2.30526316 C19.9263158,1.35157895 20.7094737,0.612631579 21.5621053,0.311578947 Z" id="Shape"></path>
                    <path d="M27.1073684,0.395789474 C28.1431579,0.0210526316 29.3515789,-0.151578947 30.3726316,0.362105263 C31.1621053,0.738947368 31.6063158,1.62526316 31.5768421,2.48210526 C31.5894737,3.89894737 31.5726316,5.31789474 31.5789474,6.73684211 C31.0168421,6.73684211 30.4547368,6.73684211 29.8947368,6.73684211 C29.8884211,5.46736842 29.9052632,4.19789474 29.8947368,2.92842105 C29.9136842,2.43578947 29.7326316,1.86105263 29.2231579,1.68210526 C28.5242105,1.40210526 27.7768421,1.69263158 27.1031579,1.90947368 C27.1031579,1.40421053 27.1052632,0.898947368 27.1073684,0.395789474 Z" id="Shape"></path>
                    <path d="M33.2484211,0.84 C34.4463158,-0.143157895 36.24,-0.176842105 37.5978947,0.482105263 C38.2863158,0.789473684 38.6336842,1.49052632 38.9052632,2.15157895 C38.3305263,2.15789474 37.7557895,2.15789474 37.1810526,2.16 C36.4547368,1.33052632 34.9726316,1.10105263 34.2989474,2.11157895 C35.52,2.81263158 37.1052632,2.36631579 38.2505263,3.25052632 C39.12,3.96 38.8968421,5.42947368 38.0589474,6.07789474 C36.9642105,6.98315789 35.3621053,7.02315789 34.0589474,6.61473684 C33.0947368,6.31157895 32.4568421,5.41894737 32.3557895,4.43157895 C32.9368421,4.41894737 33.5178947,4.41894737 34.1010526,4.41894737 C34.5410526,5.72421053 36.4968421,5.74947368 37.1726316,4.62947368 C36.0294737,3.64210526 34.2968421,4.24 33.1178947,3.30315789 C32.3263158,2.70947368 32.5305263,1.41263158 33.2484211,0.84 Z" id="Shape"></path>
                    <path d="M7.05263158,0.157894737 C7.66526316,0.157894737 8.28,0.157894737 8.89473684,0.157894737 C8.92,1.70947368 8.84631579,3.26315789 8.92421053,4.81263158 C9.36842105,6.02947368 11.5894737,5.50105263 11.5242105,4.22736842 C11.5389474,2.87157895 11.5178947,1.51368421 11.5263158,0.157894737 C12.1221053,0.157894737 12.7178947,0.157894737 13.3157895,0.157894737 C13.3157895,2.35157895 13.3157895,4.54315789 13.3157895,6.73684211 C12.7136842,6.73684211 12.1115789,6.73684211 11.5094737,6.73473684 C11.5242105,6.56631579 11.5515789,6.22947368 11.5663158,6.05894737 C10.8863158,6.52 10.1136842,6.93052632 9.26526316,6.85263158 C8.16,6.88631579 7.05894737,6.00631579 7.06736842,4.85684211 C7.02526316,3.29052632 7.06736842,1.72421053 7.05263158,0.157894737 Z" id="Shape"></path>
                    <path d="M7.47368421,7.63157895 C8.06947368,7.63157895 8.66526316,7.63157895 9.26315789,7.63157895 C9.26315789,8.24631579 9.26315789,8.85894737 9.26315789,9.47368421 C7.28,9.47368421 5.29894737,9.47368421 3.31578947,9.47368421 C3.31368421,9.06947368 3.31578947,8.66736842 3.31578947,8.26315789 C4.70105263,8.26315789 6.08631579,8.26315789 7.47368421,8.26315789 C7.47368421,8.10526316 7.47368421,7.78947368 7.47368421,7.63157895 Z" id="Shape"></path>
                    <path d="M25.4736842,8.26315789 C27.4568421,8.26315789 29.4378947,8.26315789 31.4210526,8.26315789 C31.4210526,8.66736842 31.4210526,9.06947368 31.4210526,9.47368421 C29.4378947,9.47368421 27.4568421,9.47368421 25.4736842,9.47368421 C25.4715789,9.06947368 25.4736842,8.66736842 25.4736842,8.26315789 Z" id="Shape"></path>
                    <path d="M46.0526316,8.26315789 C48.0526316,8.26315789 50.0526316,8.26315789 52.0526316,8.26315789 C52.0526316,8.66736842 52.0526316,9.06947368 52.0526316,9.47368421 C50.0526316,9.47368421 48.0526316,9.47368421 46.0526316,9.47368421 C46.0505263,9.06947368 46.0505263,8.66736842 46.0526316,8.26315789 Z" id="Shape"></path>
                    <path d="M3.21052632,11.3494737 C4.49894737,10.0547368 6.59157895,9.74315789 8.23157895,10.5031579 C8.89894737,10.7978947 9.38315789,11.4673684 9.41052632,12.2042105 C9.44210526,13.7326316 9.40842105,15.2610526 9.42105263,16.7894737 C8.82315789,16.7894737 8.22736842,16.7894737 7.63157895,16.7894737 C7.60842105,15.3368421 7.67578947,13.88 7.60421053,12.4294737 C7.39157895,11.3115789 5.71789474,11.2568421 5.02947368,11.9494737 C4.95368421,13.56 5.02315789,15.1768421 5,16.7894737 C4.40210526,16.7894737 3.80631579,16.7894737 3.21052632,16.7894737 C3.21052632,14.9747368 3.21052632,13.1621053 3.21052632,11.3494737 Z" id="Shape"></path>
                    <path d="M11.3873684,10.5284211 C12.2821053,9.98947368 13.3789474,10.1284211 14.3578947,10.3136842 C14.3642105,10.7705263 14.3705263,11.2294737 14.3768421,11.6863158 C13.6568421,11.5473684 12.6989474,11.2652632 12.2063158,12.0126316 C12.7242105,12.6842105 13.64,12.5115789 14.3768421,12.4757895 C14.3705263,12.9431579 14.3684211,13.4126316 14.3684211,13.8821053 C13.7389474,13.9242105 13.0378947,13.7894737 12.4757895,14.1410526 C12.0842105,14.3452632 12.0168421,14.9578947 12.4210526,15.1852632 C13.1789474,15.72 14.1768421,15.5368421 14.9957895,15.2484211 C15.0042105,13.5684211 14.9978947,11.8884211 15,10.2105263 C15.5957895,10.2105263 16.1915789,10.2105263 16.7894737,10.2105263 C16.7831579,12.0526316 16.8021053,13.8968421 16.7768421,15.7389474 C15.6168421,16.8084211 13.9410526,17.1263158 12.4273684,16.7768421 C11.3452632,16.6084211 10.2084211,15.7494737 10.3094737,14.5515789 C10.3073684,13.9010526 10.8842105,13.52 11.3705263,13.2084211 C11.0126316,12.9452632 10.5410526,12.7157895 10.4610526,12.2294737 C10.3221053,11.5221053 10.7915789,10.8568421 11.3873684,10.5284211 Z" id="Shape"></path>
                    <path d="M18.9557895,10.5368421 C20.1557895,9.92210526 21.6778947,9.95578947 22.8652632,10.5873684 C23.5221053,10.9136842 23.8378947,11.6105263 24.0968421,12.2568421 C23.5178947,12.2631579 22.9410526,12.2631579 22.3642105,12.2610526 C21.6526316,11.3621053 20.16,11.2021053 19.4463158,12.1810526 C20.7157895,12.8421053 22.3326316,12.4252632 23.4863158,13.3557895 C24.2905263,14.08 24.0715789,15.4442105 23.2926316,16.1052632 C22.0694737,17.0821053 20.2484211,17.1473684 18.8610526,16.4989474 C18.0526316,16.1431579 17.6568421,15.3073684 17.5242105,14.48 C18.0905263,14.4736842 18.6589474,14.4736842 19.2252632,14.4673684 C19.7052632,15.7115789 21.6378947,15.8631579 22.3010526,14.7094737 C21.5936842,13.9389474 20.4821053,14.1326316 19.56,13.8926316 C18.9094737,13.7347368 18.1515789,13.4821053 17.8778947,12.8084211 C17.5431579,11.9136842 18.1494737,10.9326316 18.9557895,10.5368421 Z" id="Shape"></path>
                    <path d="M24.9789474,12.5073684 C25.3747368,11.3810526 26.3431579,10.4168421 27.5263158,10.1726316 C27.9094737,10.2442105 28.2105263,10.5810526 28.5473684,10.7789474 C28.7936842,10.5747368 29.0442105,10.3726316 29.2947368,10.1705263 C30.3073684,10.2715789 31.4905263,10.7452632 31.6778947,11.8757895 C31.8189474,13.5073684 31.6968421,15.1515789 31.7368421,16.7894737 C31.1389474,16.7894737 30.5431579,16.7894737 29.9473684,16.7894737 C29.8421053,15.0757895 30.1873684,13.3073684 29.7221053,11.6378947 C29.3242105,11.92 28.9473684,12.2294737 28.5726316,12.5410526 C28.2126316,12.2652632 27.8505263,11.9936842 27.4842105,11.7284211 C27.0505263,12.2968421 26.5810526,12.9284211 26.6210526,13.6842105 C26.5915789,14.3031579 26.7705263,15.0821053 27.4231579,15.3157895 C27.84,15.4863158 28.2378947,15.1789474 28.6147368,15.0315789 C28.9557895,15.4 29.2947368,15.7747368 29.6231579,16.1557895 C28.6421053,16.9726316 27.1810526,17.1642105 26.08,16.4736842 C24.8105263,15.6463158 24.5326316,13.8652632 24.9789474,12.5073684 Z" id="Shape"></path>
                    <path d="M37.4210526,10.2105263 C38.0168421,10.2105263 38.6126316,10.2105263 39.2105263,10.2105263 C39.2105263,12.4021053 39.2105263,14.5957895 39.2105263,16.7894737 C38.6084211,16.7894737 38.0084211,16.7894737 37.4084211,16.7873684 C37.4189474,16.6210526 37.4357895,16.2842105 37.4442105,16.1178947 C36.7621053,16.5831579 35.9873684,16.9957895 35.1326316,16.9031579 C34.0526316,16.9368421 32.9663158,16.0673684 32.9747368,14.9431579 C32.9052632,13.3663158 32.9663158,11.7873684 32.9473684,10.2105263 C33.56,10.2105263 34.1747368,10.2105263 34.7894737,10.2105263 C34.8189474,11.7726316 34.7305263,13.3410526 34.8273684,14.9010526 C35.3136842,16.0631579 37.4273684,15.5642105 37.4147368,14.3305263 C37.4378947,12.9578947 37.4105263,11.5831579 37.4210526,10.2105263 Z" id="Shape"></path>
                    <path d="M40.0652632,10.4252632 C41.2147368,10.0294737 42.6231579,9.87578947 43.6505263,10.6547368 C44.3284211,11.1515789 44.52,12.0357895 44.5242105,12.8315789 C44.5389474,14.1515789 44.52,15.4694737 44.5263158,16.7894737 C43.9473684,16.7894737 43.3684211,16.7894737 42.7894737,16.7894737 C42.7726316,15.4042105 42.8252632,14.0168421 42.7705263,12.6315789 C42.7747368,12.1263158 42.3326316,11.7431579 41.8652632,11.6589474 C41.2336842,11.5284211 40.6168421,11.7684211 40.0336842,11.9747368 C40.0484211,11.4568421 40.0547368,10.9410526 40.0652632,10.4252632 Z" id="Shape"></path>
                    <path d="M47.2484211,10.4273684 C48.3726316,9.96842105 49.6926316,9.98736842 50.8,10.4863158 C51.5389474,10.8294737 52.1831579,11.5494737 52.1557895,12.4084211 C52.1684211,13.8673684 52.1494737,15.3284211 52.1578947,16.7894737 C51.56,16.7894737 50.9642105,16.7894737 50.3684211,16.7894737 C50.3557895,15.3347368 50.3915789,13.88 50.3578947,12.4252632 C50.3978947,11.9221053 49.8652632,11.6252632 49.4378947,11.5452632 C48.8526316,11.4821053 48.1536842,11.4715789 47.7178947,11.9326316 C47.5747368,12.2315789 47.5789474,12.5726316 47.5178947,12.8905263 C48.1852632,12.8968421 48.8568421,12.8947368 49.5263158,12.8947368 C49.5263158,13.3515789 49.5263158,13.8063158 49.5263158,14.2631579 C48.8757895,14.2631579 48.2273684,14.2610526 47.5789474,14.2631579 C47.5789474,15.1052632 47.5789474,15.9473684 47.5789474,16.7894737 C46.9642105,16.7894737 46.3494737,16.7894737 45.7368421,16.7894737 C45.7515789,15.3410526 45.7094737,13.8905263 45.7515789,12.4421053 C45.7494737,11.5263158 46.4357895,10.7621053 47.2484211,10.4273684 Z" id="Shape"></path>
                    <path d="M53.4210526,10.2105263 C54.0168421,10.2105263 54.6126316,10.2105263 55.2105263,10.2105263 C55.2421053,11.7578947 55.1494737,13.3094737 55.2505263,14.8526316 C55.6526316,15.9663158 57.4231579,15.6568421 57.8063158,14.68 C57.8989474,13.1936842 57.8126316,11.6989474 57.8421053,10.2105263 C58.4547368,10.2105263 59.0694737,10.2105263 59.6842105,10.2105263 C59.6842105,12.4042105 59.6842105,14.5957895 59.6842105,16.7894737 C59.0652632,16.7894737 58.4484211,16.7894737 57.8315789,16.7873684 C57.84,16.6273684 57.8568421,16.3052632 57.8673684,16.1452632 C57.1894737,16.5936842 56.4210526,16.9894737 55.5810526,16.9052632 C54.5115789,16.9389474 53.3894737,16.0947368 53.4231579,14.9642105 C53.4084211,13.3789474 53.4273684,11.7936842 53.4210526,10.2105263 Z" id="Shape"></path>
                    <path d="M0.210526316,10.2105263 C0.806315789,10.2105263 1.40421053,10.2105263 2,10.2105263 C2,12.4021053 2,14.5957895 2,16.7894737 C1.40421053,16.7894737 0.806315789,16.7894737 0.210526316,16.7894737 C0.210526316,14.5957895 0.210526316,12.4021053 0.210526316,10.2105263 Z" id="Shape"></path>
                    <path d="M0.473684211,18.6315789 C0.717894737,18.6294737 0.964210526,18.6294737 1.21052632,18.6315789 C1.21052632,18.9894737 1.20842105,19.3494737 1.21052632,19.7094737 C1.57052632,19.3494737 1.93052632,18.9915789 2.28842105,18.6315789 C2.51368421,18.6315789 2.96421053,18.6315789 3.18947368,18.6336842 C2.80631579,19.0105263 2.42105263,19.3894737 2.02736842,19.7578947 C2.44842105,20.3326316 2.87368421,20.9031579 3.30105263,21.4736842 C2.99789474,21.4736842 2.69684211,21.4736842 2.39578947,21.4736842 C2.07789474,21.0189474 1.75157895,20.5705263 1.42315789,20.1242105 C1.30947368,20.5684211 1.22315789,21.0210526 1.15368421,21.4757895 C0.926315789,21.4736842 0.701052632,21.4736842 0.473684211,21.4736842 C0.473684211,20.5263158 0.473684211,19.5789474 0.473684211,18.6315789 Z" id="Shape"></path>
                    <path d="M34.5789474,18.6315789 C34.8063158,18.6294737 35.0357895,18.6294737 35.2673684,18.6273684 C35.6652632,19.2378947 36.0715789,19.8442105 36.4757895,20.4526316 C36.4736842,19.8442105 36.4736842,19.2378947 36.4736842,18.6315789 C36.6315789,18.6315789 36.9473684,18.6315789 37.1052632,18.6315789 C37.1052632,19.5789474 37.1052632,20.5263158 37.1052632,21.4736842 C36.9347368,21.4736842 36.5915789,21.4736842 36.4210526,21.4736842 C36.0273684,20.8884211 35.6505263,20.2947368 35.2673684,19.7052632 C35.2631579,20.2947368 35.2631579,20.8842105 35.2631579,21.4736842 C35.0926316,21.4736842 34.7494737,21.4736842 34.5789474,21.4736842 C34.5789474,20.5263158 34.5789474,19.5789474 34.5789474,18.6315789 Z" id="Shape"></path>
                    <path d="M42.7894737,18.6315789 C43.4778947,18.6631579 44.1957895,18.5263158 44.8631579,18.7410526 C45.3957895,18.9578947 45.1178947,19.6105263 44.9936842,19.9957895 C45.0863158,20.0778947 45.2715789,20.2442105 45.3663158,20.3263158 C45.2884211,20.6926316 45.3031579,21.1852632 44.8884211,21.3515789 C44.2168421,21.5789474 43.4863158,21.4421053 42.7894737,21.4757895 C42.7894737,20.5263158 42.7894737,19.5789474 42.7894737,18.6315789 Z M43.5368421,19.7831579 C43.9831579,19.7705263 44.4778947,19.7684211 44.5852632,19.24 C44.2294737,19.1957895 43.8757895,19.1578947 43.5221053,19.1305263 C43.5263158,19.3473684 43.5305263,19.5642105 43.5368421,19.7831579 Z M43.5326316,20.9957895 C43.8947368,20.9536842 44.2610526,20.9284211 44.6126316,20.8315789 C44.8021053,20.1094737 43.9789474,20.2421053 43.5263158,20.1578947 C43.5263158,20.4357895 43.5284211,20.7157895 43.5326316,20.9957895 Z" id="Shape"></path>
                    <path d="M52.1578947,18.6315789 C52.3915789,18.6294737 52.6294737,18.6315789 52.8652632,18.6315789 C53.2589474,19.24 53.6526316,19.8505263 54.0526316,20.4547368 C54.0505263,19.8463158 54.0505263,19.24 54.0526316,18.6315789 C54.2105263,18.6315789 54.5263158,18.6315789 54.6842105,18.6315789 C54.6842105,19.5789474 54.6842105,20.5263158 54.6842105,21.4736842 C54.5115789,21.4736842 54.1684211,21.4715789 53.9957895,21.4715789 C53.6168421,20.88 53.2336842,20.2947368 52.8442105,19.7136842 C52.8421053,20.2989474 52.8421053,20.8863158 52.8421053,21.4736842 C52.6715789,21.4736842 52.3284211,21.4736842 52.1578947,21.4736842 C52.1578947,20.5263158 52.1557895,19.5789474 52.1578947,18.6315789 Z" id="Shape"></path>
                    <path d="M58.8168421,18.6294737 C59.1136842,18.6294737 59.4105263,18.6315789 59.7094737,18.6315789 C59.3284211,19.0126316 58.9473684,19.3936842 58.5684211,19.7747368 C58.9915789,20.3389474 59.4147368,20.9031579 59.8357895,21.4694737 C59.5347368,21.4694737 59.2357895,21.4715789 58.9368421,21.4736842 C58.6126316,21.0084211 58.2715789,20.5536842 57.8884211,20.1368421 C57.7936842,20.5768421 57.7368421,21.0252632 57.6947368,21.4736842 C57.52,21.4736842 57.1726316,21.4736842 57,21.4736842 C57,20.5263158 57,19.5789474 57,18.6315789 C57.1831579,18.6315789 57.5536842,18.6315789 57.7368421,18.6315789 C57.7347368,18.9894737 57.7347368,19.3494737 57.7368421,19.7094737 C58.0968421,19.3494737 58.4568421,18.9894737 58.8168421,18.6294737 Z" id="Shape"></path>
                    <path d="M5.26315789,18.6315789 C5.44842105,18.6315789 5.81684211,18.6315789 6,18.6315789 C6,19.5789474 6,20.5263158 6,21.4736842 C5.81684211,21.4736842 5.44842105,21.4736842 5.26315789,21.4736842 C5.26315789,20.5263158 5.26315789,19.5789474 5.26315789,18.6315789 Z" id="Shape"></path>
                    <path d="M9.10947368,18.6273684 C9.34736842,18.6294737 9.58526316,18.6315789 9.82315789,18.6336842 C10.2,19.5810526 10.5768421,20.5305263 10.96,21.4757895 C10.7073684,21.4736842 10.4547368,21.4715789 10.2042105,21.4694737 C10.1494737,21.3136842 10.0378947,21.0042105 9.98315789,20.8484211 C9.63157895,20.8421053 9.28421053,20.84 8.93473684,20.8378947 C8.87578947,20.9957895 8.76,21.3115789 8.70105263,21.4694737 C8.45684211,21.4715789 8.21263158,21.4736842 7.96842105,21.4757895 C8.34736842,20.5242105 8.72421053,19.5747368 9.10947368,18.6273684 Z M9.45894737,19.4294737 C9.34315789,19.7242105 9.22947368,20.0231579 9.11578947,20.32 C9.33684211,20.3157895 9.55789474,20.3157895 9.77894737,20.3136842 C9.66947368,20.0168421 9.56421053,19.7242105 9.45894737,19.4294737 Z" id="Shape"></path>
                    <path d="M12.6842105,18.6315789 C13.5073684,18.6315789 14.3326316,18.6315789 15.1578947,18.6315789 C15.1578947,18.7768421 15.1578947,19.0652632 15.1578947,19.2105263 C14.8589474,19.2105263 14.56,19.2105263 14.2631579,19.2105263 C14.2610526,19.9642105 14.2631579,20.72 14.2631579,21.4736842 C14.0926316,21.4736842 13.7494737,21.4736842 13.5789474,21.4736842 C13.5789474,20.7178947 13.5789474,19.9642105 13.5789474,19.2105263 C13.28,19.2105263 12.9831579,19.2105263 12.6863158,19.2105263 C12.6842105,19.0652632 12.6842105,18.7768421 12.6842105,18.6315789 Z" id="Shape"></path>
                    <path d="M17.2631579,18.6315789 C17.44,18.6315789 17.7957895,18.6315789 17.9726316,18.6315789 C18.3684211,19.2378947 18.7557895,19.8484211 19.1536842,20.4547368 C19.1557895,19.8463158 19.1578947,19.2378947 19.1578947,18.6315789 C19.3157895,18.6315789 19.6315789,18.6315789 19.7894737,18.6315789 C19.7894737,19.5789474 19.7894737,20.5263158 19.7894737,21.4736842 C19.6189474,21.4736842 19.2757895,21.4736842 19.1052632,21.4736842 C18.7157895,20.8863158 18.3347368,20.2947368 17.9494737,19.7052632 C17.9473684,20.2947368 17.9473684,20.8842105 17.9473684,21.4736842 C17.7768421,21.4736842 17.4336842,21.4736842 17.2631579,21.4736842 C17.2631579,20.5263158 17.2631579,19.5789474 17.2631579,18.6315789 Z" id="Shape"></path>
                    <path d="M21.7894737,21.4736842 C22.1684211,20.5263158 22.5473684,19.5810526 22.9242105,18.6315789 C23.1073684,18.6315789 23.4715789,18.6294737 23.6547368,18.6294737 C24.0273684,19.5747368 24.3978947,20.52 24.7705263,21.4673684 C24.5852632,21.4694737 24.2189474,21.4736842 24.0336842,21.4757895 C23.9536842,21.2652632 23.8736842,21.0526316 23.7936842,20.8421053 C23.4463158,20.8421053 23.1010526,20.8421053 22.7578947,20.8421053 C22.6757895,21.0526316 22.5957895,21.2631579 22.5178947,21.4736842 C22.3347368,21.4736842 21.9705263,21.4736842 21.7894737,21.4736842 Z M22.9515789,20.3136842 C23.1136842,20.3136842 23.44,20.3157895 23.6021053,20.3178947 C23.4947368,20.0189474 23.3831579,19.72 23.2757895,19.4231579 C23.1663158,19.7178947 23.0589474,20.0168421 22.9515789,20.3136842 Z" id="Shape"></path>
                    <path d="M26.7894737,18.6315789 C26.96,18.6315789 27.3031579,18.6315789 27.4736842,18.6315789 C27.4736842,18.9894737 27.4736842,19.3494737 27.4736842,19.7115789 C27.8336842,19.3515789 28.1936842,18.9915789 28.5536842,18.6315789 C28.7768421,18.6315789 29.2252632,18.6315789 29.4484211,18.6336842 C29.0652632,19.0126316 28.6842105,19.3936842 28.2968421,19.7705263 C28.7242105,20.3326316 29.1494737,20.8989474 29.5705263,21.4673684 C29.2694737,21.4694737 28.9705263,21.4715789 28.6715789,21.4757895 C28.3536842,21.0252632 28.0315789,20.5768421 27.6989474,20.1389474 C27.5536842,20.5726316 27.4757895,21.0210526 27.4189474,21.4736842 C27.2610526,21.4736842 26.9473684,21.4736842 26.7894737,21.4736842 C26.7894737,20.5263158 26.7894737,19.5789474 26.7894737,18.6315789 Z" id="Shape"></path>
                    <path d="M31.5263158,18.6315789 C31.7094737,18.6315789 32.08,18.6315789 32.2631579,18.6315789 C32.2631579,19.5789474 32.2631579,20.5263158 32.2631579,21.4736842 C32.08,21.4736842 31.7094737,21.4736842 31.5263158,21.4736842 C31.5263158,20.5263158 31.5263158,19.5789474 31.5263158,18.6315789 Z" id="Shape"></path>
                    <path d="M47.1915789,21.4694737 C47.5684211,20.5242105 47.9494737,19.5810526 48.3242105,18.6357895 C48.5052632,18.6336842 48.8673684,18.6315789 49.0463158,18.6294737 C49.4147368,19.5789474 49.8042105,20.5221053 50.1768421,21.4715789 C49.9894737,21.4715789 49.6168421,21.4736842 49.4294737,21.4736842 C49.3473684,21.2610526 49.2694737,21.0484211 49.1915789,20.8378947 C48.84,20.84 48.4926316,20.8442105 48.1431579,20.8505263 C48.0884211,21.0063158 47.9768421,21.3178947 47.9221053,21.4757895 C47.6778947,21.4715789 47.4336842,21.4694737 47.1915789,21.4694737 Z M48.3389474,20.3115789 C48.5031579,20.3136842 48.8315789,20.3157895 48.9936842,20.3178947 C48.8926316,20.0231579 48.7894737,19.7263158 48.6905263,19.4315789 C48.5705263,19.7242105 48.4547368,20.0168421 48.3389474,20.3115789 Z" id="Shape"></path>
                </g>
            </g>
        </g>
    </g>
</svg>