<?xml version="1.0" encoding="UTF-8"?>
<svg width="94px" height="33px" viewBox="0 0 94 33" version="1.1" xmlns="http://www.w3.org/2000/svg" xmlns:xlink="http://www.w3.org/1999/xlink">
    <!-- Generator: Sketch 51.3 (57544) - http://www.bohemiancoding.com/sketch -->
    <title>Group 39</title>
    <desc>Created with Sketch.</desc>
    <defs></defs>
    <g id="Page-1" stroke="none" stroke-width="1" fill="none" fill-rule="evenodd">
        <g id="m7-withdraw-balance-0-1366-copy" transform="translate(-956.000000, -1350.000000)" fill-rule="nonzero">
            <g id="Group-39" transform="translate(956.000000, 1350.000000)">
                <g id="Group-33">
                    <path d="M15.6598668,0.0785953426 C15.7568351,0.0683881553 15.9487302,0.0459323431 16.0456985,0.034704437 L16.0314085,0.108196186 C16.0018076,0.25824184 15.9426059,0.560374586 15.9130051,0.71042024 C15.8701349,0.878838831 15.9109637,1.05031958 15.9579167,1.21363458 C15.9395438,1.38205317 15.9221916,1.55149248 15.9048393,1.71991107 C15.7843945,1.87608104 15.7650009,2.08022478 15.8354305,2.26191272 C15.8272647,2.3864404 15.8201197,2.51096809 15.8139954,2.63549578 C15.6915091,2.75185771 15.662929,2.9253799 15.7262136,3.07950843 C15.7190685,3.2091397 15.7109028,3.3397917 15.7047785,3.4704437 C15.6098516,3.58578492 15.5628986,3.7429756 15.6323074,3.88485551 C15.6221002,3.95426438 15.6016859,4.09206141 15.5914787,4.16147029 C15.6118931,4.31559881 15.6312867,4.46972734 15.6506804,4.62385587 C15.5098212,4.64631168 15.4547024,4.72796918 15.4863447,4.87086981 C15.5006347,4.96171377 15.5281941,5.14340171 15.5424842,5.23424568 C15.4036664,5.25976364 15.3516098,5.34244186 15.3852935,5.48330105 C15.3995836,5.57516573 15.4291844,5.75889511 15.4434745,5.85075979 C15.3056774,5.8732156 15.2505586,5.95589382 15.278118,6.09675301 C15.2862838,6.17534835 15.3026153,6.33355975 15.310781,6.41317582 C15.1791083,6.56526291 15.1586939,6.77348953 15.2362686,6.95619818 C14.7381578,9.94180049 14.0675456,12.93761 12.7793986,15.6925298 C12.7242798,15.6761983 12.6150629,15.6445561 12.5609648,15.6282246 C12.5681098,15.4526609 12.4313335,15.3250711 12.277205,15.2699523 C12.1567601,15.2066677 12.0393775,15.1393003 11.9230156,15.0709121 C11.8985183,14.904535 11.8229851,14.7116191 11.6331314,14.6861012 L11.6249657,14.6146509 C11.6188414,14.4523566 11.5392253,14.3829477 11.3861175,14.407445 C10.4205176,12.5374882 9.61925336,10.5572939 9.27935403,8.47094479 C9.32222421,8.31987841 9.27629187,8.21984798 9.14257772,8.17289492 C9.16095065,8.08715454 9.19667581,7.91567379 9.21402803,7.82993342 C9.2507739,7.69009495 9.20075868,7.60639602 9.06194093,7.57679517 C9.07418956,7.51351061 9.09766609,7.38694149 9.108894,7.32467765 C9.14666059,7.18483918 9.09664537,7.09909881 8.95986906,7.06847724 C8.97109697,7.00519268 8.99559422,6.87862356 9.00784284,6.815339 C9.043568,6.67447981 8.99253206,6.59078088 8.85269359,6.56322147 C8.86698366,6.47135678 8.89454306,6.28762741 8.90883312,6.19576273 C8.93843397,6.05490354 8.88433587,5.97222532 8.74551813,5.94976951 C8.75980819,5.85994626 8.7873676,5.68132048 8.80165766,5.59149723 C8.79349191,5.52310908 8.77818113,5.38531205 8.77001538,5.31590318 C8.814927,5.19035477 8.78328472,5.08624146 8.67508853,5.00356324 C8.67508853,4.93109221 8.67610925,4.78717087 8.67610925,4.71469984 C8.73429022,4.55852987 8.70162722,4.38602841 8.57709954,4.27272863 C8.5750581,4.11247579 8.57199594,3.95324366 8.5699545,3.79401154 C8.63119763,3.63988301 8.60159679,3.46738154 8.48013126,3.35204033 C8.46992407,3.15912449 8.45971688,2.96722936 8.45053041,2.77533424 C8.43828179,2.60895709 8.41480526,2.2772235 8.40357735,2.11084635 L8.3188577,2.06797616 C9.87851592,1.22996608 11.5627018,0.534856617 13.3254831,0.307236339 C13.4316378,0.318464246 13.5275854,0.29090484 13.6123051,0.224558122 C13.6725275,0.223537403 13.7919516,0.222516684 13.8511532,0.221495966 C13.957308,0.236806747 14.0542763,0.212309497 14.1410374,0.150045654 C14.3186424,0.108196186 14.4982889,0.0908439675 14.6820183,0.0969682799 C14.8524783,0.102071874 15.0239591,0.106154749 15.1964605,0.10513403 C15.3505891,0.115341217 15.506759,0.106154749 15.6598668,0.0785953426 Z" id="Shape" fill="#FEC529"></path>
                    <path d="M16.2692359,0.0285801246 C16.5836173,0.0469530618 16.904123,0.0643052803 17.2215665,0.0898232487 C17.375695,0.10513403 17.531865,0.107175467 17.6870143,0.10513403 C17.8574743,0.102071874 18.0269136,0.115341217 18.1963529,0.14494206 C18.2790311,0.209247341 18.373958,0.234765309 18.479092,0.221495966 C18.5362522,0.224558122 18.649552,0.229661716 18.7067123,0.232723872 C20.4807214,0.514442243 22.2547306,1.05950605 23.7960159,1.99448441 C23.850114,2.03327172 23.9583102,2.11084635 24.0124083,2.15065438 C23.857259,2.26497487 23.8562383,2.47013934 23.8817563,2.64264081 C23.8786941,2.8110594 23.8756319,2.97947799 23.8735905,3.1489173 C23.7480421,3.30202511 23.726607,3.50616886 23.7939744,3.68989823 C23.7878501,3.84913035 23.7827465,4.00836247 23.7776429,4.16861532 C23.6531153,4.28293581 23.6224937,4.45543728 23.6837368,4.61058653 C23.6806747,4.74021781 23.6776125,4.86984909 23.6755711,4.99948037 C23.5663542,5.0831793 23.5347119,5.18831333 23.5816649,5.31386174 C23.5796235,5.38939492 23.5755406,5.54148202 23.5734992,5.6170152 C23.5857478,5.69458983 23.6122865,5.84973907 23.6245351,5.9273137 C23.4898003,5.9712046 23.4408058,6.0691936 23.4795931,6.22128069 C23.4101842,6.83779481 23.2979051,7.44818461 23.1978747,8.06061586 C23.0723263,8.13819048 23.0325183,8.24740738 23.0794713,8.38928729 C22.6313758,10.6297649 21.95566,12.8998434 20.6226013,14.7840902 C20.3337379,15.049477 20.046916,15.3169053 19.7723426,15.597603 C19.6998716,15.655784 19.6284213,15.7129442 19.5579917,15.7711252 C18.8894209,14.2094255 18.3045491,12.6058764 17.9360696,10.945167 C17.9983335,10.8104321 17.9728155,10.6961116 17.8595157,10.6022055 C17.6451648,9.76317471 17.4532697,8.91801959 17.343032,8.05857442 C17.3869229,7.90954948 17.343032,7.80951905 17.2134008,7.75746239 C17.2276908,7.70030214 17.2572917,7.58700236 17.2726024,7.52984211 C17.3154726,7.39102436 17.2685196,7.30426327 17.1297018,7.27057955 C17.1409297,7.20729499 17.165427,7.08276731 17.1766549,7.02050346 C17.2113593,6.87760284 17.1572612,6.79492462 17.0153813,6.77144809 C17.0368164,6.57853225 17.0562101,6.38561641 17.0786659,6.19372129 C17.1052046,6.0528621 17.0500858,5.9712046 16.9143302,5.94874879 C16.9286202,5.85790482 16.9572004,5.67621689 16.9725111,5.58639364 C17.0041534,5.44451374 16.951076,5.36183552 16.8112376,5.33835899 C16.8326727,5.1811683 16.853087,5.0229569 16.8745221,4.86576621 C16.9031023,4.72388631 16.8479835,4.64222881 16.7091657,4.62079372 C16.7183522,4.54117765 16.7367251,4.38092481 16.7459116,4.30130875 C16.8040925,4.14411807 16.7653052,3.97263732 16.6407775,3.86035826 C16.635674,3.78992867 16.6264875,3.64906948 16.6213839,3.57863989 C16.6652748,3.44186358 16.6662955,3.30508727 16.6234253,3.17035239 C16.6938549,3.02847249 16.6520055,2.86821965 16.5550372,2.75185771 C16.5427885,2.62222643 16.5315606,2.49361587 16.5203327,2.36500531 C16.5907623,2.18229666 16.570348,1.97815291 16.4488824,1.82300366 C16.4386752,1.66989585 16.4294888,1.51882948 16.4203023,1.36674239 C16.4009086,1.19424092 16.3621213,0.850258707 16.3427277,0.678777959 C16.3202719,0.485862118 16.2957746,0.292946277 16.2753602,0.101051155 L16.2692359,0.0285801246 Z" id="Shape" fill="#FEC529"></path>
                    <path d="M7.28486962,2.74777484 C7.52575924,2.50484378 7.83707845,2.3537774 8.13614904,2.195566 C8.11165179,2.49463659 8.08715454,2.7947279 8.06367801,3.09481921 C8.05857442,3.16422808 8.04734651,3.30304583 8.0412222,3.3724547 C8.0248907,3.52454179 7.99324842,3.82871598 7.97793764,3.98080307 C7.83095414,4.16351172 7.8666793,4.40848422 7.99324842,4.59119287 C7.98304123,4.75654931 7.97181333,4.92190574 7.96160614,5.0882829 C7.83605773,5.20158268 7.80237402,5.37306342 7.86259642,5.52923339 C7.85851355,5.6547818 7.85545139,5.7803302 7.85340995,5.9058786 C7.72990298,6.02224054 7.70132286,6.19678344 7.76664886,6.35091197 C7.75848311,6.39174072 7.74317233,6.47135678 7.73500658,6.51116481 C7.61864464,6.67243837 7.60741674,6.87862356 7.69111567,7.05827006 C7.25731021,9.74888464 6.27537879,12.3547796 4.71163768,14.5952572 C4.56159203,14.5819879 4.47483094,14.6442517 4.45237512,14.7830694 C4.44216794,14.8371675 4.42073284,14.9463844 4.41052566,15.0004825 C4.18290538,15.0372284 4.05531554,15.23831 3.97263732,15.434288 C3.77155573,15.6292453 3.57047414,15.8231818 3.36735111,16.0171184 C3.18974605,16.1794127 3.01418243,16.3457898 2.8386188,16.512167 C2.80289365,16.54483 2.7294019,16.6111767 2.69367674,16.6438397 C2.54261037,16.6387361 2.45074568,16.7101864 2.42012412,16.8581906 C1.78421635,17.2889339 1.12687348,17.6972214 0.399101026,17.9544426 C0.346023651,17.9748569 0.239868903,18.0156857 0.187812247,18.0361001 C0.231703153,17.8962616 0.208226622,17.7492781 0.178625779,17.6104603 C0.151066373,17.4236688 0.0979889986,17.0521272 0.0704295928,16.8653357 C0.0571602492,16.4039708 0.0459323431,15.9456681 0.0520566555,15.4863447 C0.0796160614,15.2995531 0.133714154,14.9249494 0.16127356,14.7381578 C0.201081591,14.6166923 0.221495966,14.4891025 0.213330216,14.3625333 C0.221495966,14.2522957 0.226599559,14.1430788 0.228640997,14.0328412 C0.292946277,13.9460801 0.320505683,13.8491118 0.308257058,13.7429571 C0.614472679,11.3095636 1.59742482,8.95476547 2.9856023,6.9408874 C3.06623908,6.85820918 3.12850292,6.76022019 3.17749742,6.65610688 C3.24486486,6.53974494 3.33775027,6.4397145 3.44390501,6.35703629 C3.54597689,6.30395891 3.59292995,6.22230141 3.58272276,6.11308451 L3.58068132,5.98855682 C3.70622973,5.99366042 3.77053501,5.93241729 3.77359717,5.80788961 C3.88485551,5.83136614 3.97059588,5.79053739 4.03081829,5.68336192 C4.12676585,5.57924861 4.20638191,5.46186595 4.26762503,5.33529683 L4.31049522,5.26180508 C4.74021781,4.78206728 5.18014758,4.30641235 5.67519617,3.89200054 L5.7313357,3.85219251 C5.84667692,3.7807422 5.94976951,3.69296039 6.04673779,3.59803354 C6.09164941,3.56332911 6.18147266,3.49494095 6.22740501,3.46023651 C6.25496441,3.44084286 6.31212466,3.40307626 6.34070479,3.38368261 C6.43563163,3.35101961 6.5101441,3.2907972 6.56322147,3.20505683 C6.61834028,3.16831096 6.72959862,3.09379849 6.78471744,3.05705261 C6.8969965,3.00907883 6.93680453,2.93048349 6.90516225,2.81922515 L7.02560706,2.84678455 C7.13278252,2.87740612 7.2185229,2.84474312 7.28486962,2.74777484 Z" id="Shape" fill="#FEC428"></path>
                    <path d="M8.20759935,12.9998738 C8.24026235,13.0560133 8.30558835,13.1672717 8.33825135,13.2234112 C8.76899466,15.0647878 9.56821743,16.7959268 10.5981226,18.3759994 C10.6420135,18.5178793 10.7318368,18.577081 10.8665717,18.551563 C10.8808617,18.6087233 10.9084211,18.7240645 10.9227112,18.7812247 C10.9370013,18.9343325 11.0441767,19.074171 11.2023881,19.1007097 C10.7808313,20.0265016 10.1980009,20.8675738 9.73663602,21.7729513 C9.5937354,21.7290604 9.50187071,21.7831585 9.46002124,21.9352456 C9.38346734,22.1179543 9.30589271,22.3006629 9.2344424,22.4864337 C9.08950034,22.4507086 9.00171853,22.510931 8.96905553,22.6650595 C8.95170331,22.7171162 8.91597816,22.8222502 8.89760522,22.8743069 C8.72714519,22.8692033 8.56689235,22.9896481 8.55260229,23.1662324 C8.53933294,23.2172684 8.51279426,23.320361 8.49850419,23.3713969 C8.2647596,23.3989563 8.13512832,23.6051415 8.05551226,23.8062231 C7.65845267,24.2145106 7.25424805,24.6166737 6.86841637,25.0361891 C6.62548531,24.9892361 6.41011366,25.170924 6.41725869,25.4189587 C6.31008322,25.4699946 6.20290776,25.5210305 6.09369085,25.570025 C5.96916317,25.6108538 5.90996148,25.6976149 5.91608579,25.831329 C5.85994626,25.8456191 5.74868792,25.8752199 5.69254839,25.88951 C5.5567928,25.9170694 5.49554967,26.0038305 5.5077983,26.1497933 C5.10257296,26.3835379 4.69938906,26.6203446 4.30028803,26.8642964 C4.22679628,26.7540588 4.13289016,26.6601527 4.03796332,26.5703294 C3.96753373,26.4682575 3.87668976,26.4315117 3.7644107,26.4611125 C3.75114135,26.4039523 3.72256123,26.2896318 3.70827117,26.2324715 C3.67867032,26.125296 3.61130289,26.0518043 3.50718958,26.0119963 C3.46431939,25.9191109 3.39695195,25.849702 3.30508727,25.8047904 C2.28640997,24.5717621 1.4984151,23.1203001 1.00744939,21.5943256 C1.86077026,21.1768516 2.65999303,20.6593472 3.44798789,20.1306149 C3.58884707,20.1102005 3.67254601,20.0305845 3.69806398,19.890746 C3.78176292,19.8172543 3.86546185,19.7437625 3.94916079,19.6702708 C4.13289016,19.5110386 4.3145781,19.3497651 4.49218316,19.1833879 C4.73919709,18.9588298 4.97090024,18.7189609 5.20566555,18.4821541 C5.37612558,18.3116941 5.54454417,18.1381719 5.70683845,17.9595462 C5.74052217,17.9228003 5.80788961,17.8503292 5.84157332,17.8146041 C5.98345323,17.7788789 6.05388282,17.6890557 6.05592426,17.5451343 C6.06409001,17.492057 6.07940079,17.3859022 6.08756654,17.3338456 C6.22128069,17.3491563 6.30702107,17.2858718 6.34376694,17.1439919 C7.14401043,15.8619692 7.97895836,14.519724 8.20759935,12.9998738 Z" id="Shape" fill="#FEC428"></path>
                    <path d="M16.0997966,13.4540937 C16.1314389,13.3162966 16.1641019,13.1784996 16.1967649,13.0417233 C16.2151378,13.2121833 16.2335108,13.3836641 16.2518837,13.5561655 C16.1753298,13.703149 16.1875784,13.8766712 16.2967953,14.0063025 C16.6734405,16.3784528 17.3573221,18.6944636 18.2871969,20.9073819 C19.2160509,23.1846054 20.3316965,25.3903785 21.7229361,27.4216088 C21.7311019,27.5634887 21.8056143,27.6492291 21.9444321,27.67883 L21.9525978,27.7472181 C21.9515771,27.8942016 22.0250689,27.9789213 22.1730731,28.0013771 C22.1832803,28.0493509 22.2026739,28.1452984 22.2128811,28.1932722 C22.2353369,28.3259656 22.3190359,28.3912916 22.4629572,28.3872088 C22.478268,28.4341618 22.5078688,28.5290887 22.5231796,28.5760417 C22.5456354,28.7587504 22.7109919,28.8546979 22.8661411,28.9200239 C22.9365707,29.0027022 23.008021,29.0853804 23.0815128,29.1680586 C23.367314,29.5059165 23.6837368,29.8182564 23.9889317,30.1397828 L24.0522163,30.208171 C22.4803094,31.0533261 20.7808127,31.7596635 18.9976171,31.9515586 C18.9373947,31.9505379 18.8169499,31.9495171 18.7567275,31.9484964 C18.6464899,31.9362478 18.5454387,31.9617658 18.4545947,32.026071 C18.3902895,32.0281125 18.2626996,32.0332161 18.1983943,32.0352575 C18.0708045,32.0291332 17.9442354,32.0526097 17.8248113,32.0975214 C17.6125018,32.156723 17.3950887,32.2067383 17.1746134,32.2138833 C16.4754211,32.2036761 15.7782702,32.200614 15.0800986,32.1812203 C14.8943278,32.1689717 14.7105984,32.1393708 14.5319726,32.0934385 C14.4105071,32.051589 14.2849587,32.0291332 14.1573689,32.0352575 C14.0930636,32.0332161 13.9654737,32.0291332 13.9021892,32.0270918 C13.8103245,31.9627865 13.7092733,31.9372685 13.6000564,31.9484964 C13.539834,31.9495171 13.4193892,31.9495171 13.3591668,31.9495171 C11.5749505,31.7535391 9.86524658,31.0584297 8.30558835,30.1908188 L8.36479004,30.1254928 C8.63323907,29.8427537 8.90270881,29.5610353 9.16605425,29.2731926 C9.24158743,29.1894937 9.3160999,29.104774 9.39061237,29.0200544 C9.54372018,28.9557491 9.7192838,28.8628637 9.73255314,28.6750514 C9.74480177,28.6260569 9.77031974,28.5270472 9.78256836,28.477032 C9.94894552,28.4729491 10.1173641,28.3422971 10.0908254,28.1616299 L10.0928669,28.0728274 C10.2276017,28.0697652 10.3031349,27.9952528 10.3184457,27.8482693 C10.4164347,27.6961822 10.513403,27.5440951 10.611392,27.392008 C10.7553133,27.3644486 10.8308465,27.2766668 10.8359501,27.1296833 C11.8964769,25.4281451 12.8784083,23.6765918 13.6572167,21.8270494 C14.6912048,19.4865414 15.5598364,17.0470236 15.9507717,14.5115583 C16.0589679,14.4156107 16.0834651,14.3012902 16.0252841,14.1675761 C16.0273256,14.1012293 16.0314085,13.9685359 16.0334499,13.9021892 C16.152874,13.7807236 16.1732884,13.60516 16.0997966,13.4540937 Z" id="Shape" fill="#FEC428"></path>
                    <path d="M24.1736818,2.19964888 C24.5248091,2.36194315 24.9055371,2.51096809 25.170924,2.80391437 C25.2199185,2.89679977 25.2954517,2.95498074 25.3985443,2.97743655 C25.450601,2.99785093 25.5526728,3.03867968 25.6047295,3.05909405 C25.6547447,3.09073633 25.7547751,3.15402089 25.8047904,3.18668389 C25.849702,3.27752786 25.9191109,3.34285386 26.0140377,3.38266189 C26.0681358,3.42553208 26.1753113,3.51127245 26.2294093,3.55414264 C26.2977975,3.6500902 26.3845586,3.68071176 26.4896926,3.64702804 C26.4539675,3.75522423 26.4856098,3.84504748 26.5856402,3.91649779 C26.7101679,4.05225338 26.8489856,4.17678107 27.000052,4.28497725 C27.3317856,4.55036412 27.6696435,4.81370956 27.972797,5.11278015 C27.9972942,5.16687824 28.0462887,5.27609514 28.0697652,5.33019324 C28.0891589,5.43328583 28.1442777,5.51188117 28.2361424,5.56495855 C28.3280071,5.65988539 28.4259961,5.74868792 28.5290887,5.83340757 C28.567876,5.8946507 28.6464713,6.01917838 28.6852586,6.08144223 C28.7281288,6.19780416 28.8077449,6.23965363 28.9220654,6.20699063 C28.9292104,6.26415088 28.9435005,6.37745066 28.9516662,6.43461091 C28.9690184,6.54178638 29.0282201,6.619361 29.1282506,6.66733478 C30.6807638,8.66386063 31.6647366,11.1299171 32.0393404,13.6276158 C32.0403611,13.768475 32.0607755,13.9093342 32.0944592,14.0471312 C32.1250808,14.2124877 32.1434537,14.3788648 32.149578,14.5483041 C32.142433,14.6718111 32.1669302,14.7942974 32.2108211,14.9106593 L32.2434841,15.0586635 C32.2455256,15.1199066 32.2496085,15.2423929 32.2526706,15.303636 C32.2485877,15.4077493 32.2496085,15.5128833 32.2567535,15.6180174 C32.2628778,15.9793518 32.2812507,16.3468106 32.273085,16.7101864 C32.2598156,16.8735014 32.247567,17.0368164 32.2414427,17.2011521 C32.2312355,17.2838304 32.2108211,17.4491868 32.200614,17.5308443 C32.1791789,17.669662 32.1363087,17.9483182 32.1148736,18.087136 C31.3697489,17.6921178 30.6246242,17.296079 29.9009346,16.8622735 C29.9223697,16.7132486 29.8641888,16.6234253 29.7284332,16.5948452 C29.6773972,16.5836173 29.5753254,16.5601408 29.5242894,16.5489129 C29.5406209,16.3468106 29.3395393,16.2478008 29.1721415,16.2171793 C28.836325,15.8946322 28.5056121,15.5690229 28.1769407,15.2403514 C28.1381534,15.0811193 28.059558,14.8871828 27.8686836,14.879017 L27.8707251,14.8024631 C27.874808,14.6605832 27.8002955,14.5860707 27.6482084,14.577905 C26.1518347,12.5476954 25.2576851,10.1296127 24.7799887,7.66865986 C24.8402112,7.53188355 24.8136725,7.41654233 24.699352,7.32365693 C24.6962898,7.2787453 24.6911862,7.18790134 24.6891448,7.14298971 C24.7309942,6.96844681 24.7616158,6.74899228 24.5993215,6.62548531 C24.5993215,6.55607644 24.5983008,6.41623797 24.5972801,6.3468291 C24.641171,6.21923926 24.6105494,6.11410523 24.503374,6.02938557 C24.4992911,5.89567142 24.4972497,5.7639987 24.4952082,5.63130526 C24.5533892,5.4751353 24.5227676,5.30365455 24.3992607,5.18933405 C24.3951778,5.03826768 24.3900742,4.88618059 24.387012,4.73511421 C24.3676184,4.56261275 24.3278103,4.21965125 24.3084167,4.04714979 C24.2931059,3.79503226 24.2777951,3.54393545 24.2645258,3.29385936 C24.2430907,2.92844205 24.2043034,2.56200403 24.1736818,2.19964888 Z" id="Shape" fill="#FEC429"></path>
                    <path d="M23.9532066,13.0458062 C24.0144497,13.0631584 24.1379567,13.0958214 24.1991998,13.1121529 C24.3114788,14.4329629 25.0535414,15.590458 25.7149671,16.7020207 C25.7180293,16.8418591 25.7874381,16.9316824 25.9211523,16.9714904 L25.922173,17.0470236 C25.9201316,17.1848206 25.9926026,17.2603538 26.1416275,17.2715817 C26.1569383,17.3277213 26.1875599,17.441021 26.2018499,17.4971606 C26.2365544,17.6400612 26.3222948,17.6849728 26.4611125,17.6318954 C26.5090863,17.7441745 26.5580808,17.8554328 26.608096,17.9677119 C26.6683184,18.185125 26.8714414,18.2974041 27.058233,18.3943723 C27.4450854,18.8026598 27.8452071,19.197678 28.2494117,19.589634 C28.306572,19.7417211 28.3933331,19.9346369 28.5872696,19.9336162 C28.640347,19.9417819 28.7485432,19.9591342 28.8026413,19.9672999 C28.7852891,20.1020348 28.8485736,20.1867544 28.992495,20.224521 C29.7784484,20.7297768 30.581754,21.211556 31.3289202,21.7760135 C30.7787528,23.0253732 30.2541033,24.3421004 29.3640366,25.3934407 C29.2762548,25.4485595 29.221136,25.5261341 29.195618,25.6261646 C29.1660172,25.6731176 29.104774,25.7680445 29.0741525,25.8149975 C28.9792256,25.8527641 28.908796,25.9180901 28.8638844,26.0099548 C28.763854,26.0467007 28.6954658,26.1150889 28.6597407,26.2151193 C28.6311605,26.2630931 28.5740003,26.3600613 28.5454202,26.4080351 C28.4300789,26.4927548 28.3218828,26.5856402 28.2249145,26.6907742 C28.1942929,26.7479345 28.1320291,26.862255 28.1003868,26.9194152 C27.7145551,26.6897535 27.3328063,26.451926 26.9245188,26.2661552 C26.9582025,26.1191717 26.8969594,26.0324106 26.7418102,26.0038305 C26.6887328,25.987499 26.582578,25.954836 26.5295007,25.9385045 C26.5315421,25.7690652 26.4131387,25.6108538 26.2396165,25.5986052 C26.1896013,25.5863565 26.0905916,25.5618593 26.0405764,25.5496107 C26.0477214,25.3454669 25.8425569,25.2495194 25.668014,25.2382915 C25.6322889,25.2046077 25.5587971,25.138261 25.5220513,25.1045773 C25.2801409,24.8687913 25.0412927,24.6330052 24.8095896,24.3890535 C24.6299431,24.1940962 24.4574416,23.9940353 24.281878,23.799078 C24.1226459,23.6153487 23.9562687,23.4377436 23.7898916,23.2611593 C23.7582493,23.2264548 23.693944,23.1550045 23.6623017,23.1203001 C23.6235144,22.9620887 23.5592091,22.7661107 23.3713969,22.7436549 L23.3795626,22.6681217 C23.3938527,22.5282832 23.3264853,22.4476464 23.1764396,22.4251906 C23.1499009,22.3915069 23.0968235,22.322098 23.0702849,22.2873936 C23.0580362,22.1414308 22.9804616,22.0556904 22.8396024,22.0291518 C22.2537099,21.0768212 21.5973877,20.159195 21.1594994,19.1241862 C21.3228144,19.0966268 21.4116169,18.9424983 21.4422385,18.7934734 C21.4595907,18.7393753 21.4953159,18.6311791 21.5126681,18.5760603 C21.6463822,18.5852467 21.7362055,18.5280865 21.7821378,18.4045795 C22.6875153,16.7061035 23.7633529,15.0086483 23.9532066,13.0458062 Z" id="Shape" fill="#FEC429"></path>
                </g>
                <g id="Group-34" transform="translate(35.899497, 3.306533)" fill="#FFFFFF">
                    <path d="M0.06385821,11.0359549 C0.217746027,7.38556838 -0.0544365069,3.72366644 0.211464892,0.0774673367 C0.254385984,0.117247861 0.340228168,0.195762054 0.38314926,0.235542578 C0.432351487,0.331853321 0.508771968,0.396758387 0.613457558,0.431304631 L0.699299742,0.481553715 C0.803985332,0.573677034 0.915998913,0.660566074 1.0374342,0.732799131 L1.11594839,0.787235638 C1.22168084,0.872030966 1.33578813,0.948451446 1.45617656,1.01545022 L1.51480049,1.05418389 C1.72835909,1.21749341 1.93354285,1.39231835 2.14710145,1.55667472 L2.14082032,1.69067228 C2.0748684,3.14370827 2.08114953,4.59988483 2.13663289,6.05396768 C2.26644303,5.93043868 2.3952063,5.80586283 2.52292272,5.67919326 C2.84849491,5.35990221 3.16987967,5.0374706 3.5038267,4.72760125 L3.54988836,4.68572701 C3.92256906,4.36120168 4.28373435,4.02202037 4.64385278,3.68283906 L4.69514872,3.64201168 C4.9233633,3.47870216 5.15785902,3.31958006 5.41329186,3.20128535 C6.21937091,3.20861334 7.02544995,3.23897216 7.83257585,3.2640967 C7.63157952,3.42426565 7.43686432,3.59385631 7.24843026,3.7697281 C6.90296781,4.06389461 6.56588021,4.36643596 6.262292,4.70352356 C6.06967051,4.89091077 5.87390846,5.07411055 5.67919326,5.25731034 C5.419573,5.48343121 5.15681217,5.70431781 4.91080103,5.94509466 C4.58313514,6.262292 4.26175037,6.58472362 3.95397474,6.92076436 C3.8859291,6.99090371 3.81893033,7.06208991 3.75193155,7.13222925 C3.99794269,7.37824039 4.25023496,7.62215782 4.50776151,7.85770039 C4.88148907,8.2136314 5.26359147,8.5601407 5.66558414,8.88571289 C5.70850523,8.92130599 5.79330056,8.99249219 5.83622165,9.02808529 C6.05606139,9.22594106 6.27590113,9.42693739 6.48945973,9.63526171 C6.84329703,10.0131767 7.20027489,10.388998 7.5750493,10.7491164 C6.85899986,10.8213494 6.14504414,10.9061448 5.42690099,10.9124259 C5.2604509,10.8422866 5.09714138,10.7700535 4.93069129,10.7030547 L4.85008339,10.6632742 C4.80925601,10.5659166 4.74330409,10.4936836 4.65118077,10.446575 C4.3559674,10.1702051 4.07541002,9.88127285 3.76240011,9.62688687 C3.62526199,9.51277957 3.48917072,9.39657857 3.36668858,9.26781529 C3.27770583,9.16731713 3.18139508,9.07414695 3.07880321,8.99144533 C2.8464012,8.78416787 2.62237403,8.56746869 2.38159718,8.3727535 C2.33134809,8.39369062 2.23084993,8.43661171 2.1816477,8.45754883 C2.1198832,9.22803477 2.11569578,10.0027081 2.12407062,10.7763346 C1.58179927,10.8422866 1.04162162,10.9071916 0.502490833,10.9783778 C0.35488415,10.9951275 0.208324324,11.0150178 0.06385821,11.0359549 Z" id="Shape"></path>
                    <path d="M56.0078376,0.108873014 C56.5909363,0.0910764634 57.1750819,0.0711862013 57.7623681,0.0471085156 C57.82832,0.0460616596 57.9602238,0.0439679478 58.0261757,0.0429210919 L58.0230352,0.210418036 C58.0125666,0.769439087 57.9947701,1.32950699 58.0062855,1.8895749 C57.3499068,1.89376233 56.6977156,1.90004346 56.0465712,1.91155888 C56.0381964,1.31066359 56.0287747,0.708721445 56.0078376,0.108873014 Z" id="Shape"></path>
                    <path d="M27.5501067,3.05891294 C27.6610735,3.04739753 27.7720402,3.03588211 27.8851006,3.02541355 C28.042129,3.03064783 28.2002043,3.03274155 28.3593264,3.03064783 C28.5351982,3.04425696 28.7121168,3.05577238 28.8911292,3.06833465 C29.2397322,3.12381801 29.589382,3.20861334 29.9086731,3.36564172 C30.1232786,3.58024718 30.330556,3.80427434 30.5305055,4.03458264 C30.701143,4.28896863 30.7964069,4.58941627 30.8602651,4.88881706 C30.8665462,5.01234605 30.8738742,5.13587505 30.8864365,5.25940405 C30.9063268,7.09872987 30.8696868,8.93805568 30.8916708,10.7784284 C30.8634057,10.8108809 30.8058286,10.8747391 30.7765166,10.9071916 C30.1829493,10.8956762 29.5904289,10.8862545 28.9989553,10.8778797 C28.9958147,9.21128507 29.0827038,7.53422192 28.862864,5.87809588 L28.8503018,5.8090034 C28.8105213,5.64150645 28.753991,5.47819693 28.7100231,5.3127937 C28.6880391,5.19763955 28.6189466,5.13378134 28.5016988,5.12331278 C28.2619688,5.06573571 28.0316605,4.97675295 27.8076333,4.87939536 C27.6956197,4.8783485 27.4705457,4.87625479 27.3574853,4.87416108 C27.0884433,4.97465924 26.8141671,5.056314 26.5409377,5.13901562 C26.3462225,5.16728073 26.2373494,5.34419938 26.1860535,5.51588374 L26.1577884,5.58916366 L26.0970708,5.72839549 C26.0237908,5.83412794 25.9693543,5.95032894 25.9410892,6.07595165 C25.8824653,6.21518348 25.8458253,6.36383702 25.8604813,6.51667798 C25.8542002,7.94773 25.8437316,9.38087573 25.9013087,10.8119277 C25.3883493,10.8642705 24.8764368,10.9197539 24.3655711,10.9647687 C24.1876056,10.9752373 24.0106869,10.9867527 23.8348152,11.0003618 C23.8976265,8.4177683 23.8536586,5.83412794 23.8704083,3.25258128 C24.4273356,3.24420644 24.9842629,3.23687845 25.543284,3.22955045 C25.6395947,3.28398696 25.7432335,3.32062692 25.8521065,3.34156404 L25.8374505,3.50173299 C25.753702,3.70272932 25.9306207,3.86394513 26.1012582,3.70377618 L26.1860535,3.66399565 C26.3179574,3.61165286 26.4331115,3.52790439 26.5430314,3.43682792 L26.625733,3.3802977 C26.7157626,3.34156404 26.8057922,3.2996898 26.8958218,3.25572185 C27.1030993,3.15941111 27.3239859,3.09450604 27.5501067,3.05891294 Z" id="Shape"></path>
                    <path d="M55.9816662,3.24420644 C56.5752335,3.25258128 57.1698476,3.24734701 57.7676023,3.24734701 C57.82832,3.26095613 57.9497553,3.28817439 58.0104729,3.30073666 L58.0104729,3.42217194 C58.009426,5.8896113 57.937193,8.35914437 58.0523471,10.82449 C57.7801646,10.8820671 57.4954198,10.9417379 57.2316121,11.0003618 C56.818104,11.0212989 56.4066897,11.0401423 55.9984159,11.056892 C55.9931816,8.45231455 56.0507587,5.84669021 55.9816662,3.24420644 Z" id="Shape"></path>
                    <path d="M12.677425,3.07252207 C12.8124694,3.06624093 12.9485606,3.05891294 13.0846519,3.04635067 C13.1485101,3.03169469 13.2762265,3.00238272 13.3400847,2.98667989 C13.3756778,3.62526199 13.4102241,4.26384409 13.4489578,4.90242618 C13.2050403,4.94220671 12.9621698,4.97884667 12.7213929,5.0112992 L12.6418319,5.01443977 C12.5340057,4.99769007 12.4397887,5.02595518 12.3591808,5.09714138 C12.197965,5.20496754 12.0199995,5.28243488 11.8409871,5.35048051 C11.7813163,5.37141763 11.6640685,5.41538558 11.6043977,5.43632269 C11.427479,5.46563466 11.2934815,5.62685047 11.3280277,5.8090034 L11.2662632,5.83098737 C11.1542496,5.86029933 11.093532,5.93253239 11.0820166,6.0487334 C11.0411892,6.22146462 10.991987,6.39210213 10.955347,6.56588021 C10.9323162,6.67580008 10.9145196,6.78571995 10.9019574,6.89773353 C10.7491164,8.16756974 10.7711004,9.44892136 10.8297243,10.7250387 C10.8307712,10.7805221 10.831818,10.8914888 10.8328649,10.9469722 C10.6873519,10.9563939 10.5418389,10.9637219 10.3984197,10.9679093 C10.3628266,10.9668624 10.2926872,10.9658156 10.2570941,10.9658156 C9.8634763,10.962675 9.47299905,10.9584876 9.0825218,10.9710498 C9.03541328,10.9731436 8.93910254,10.9783778 8.89199402,10.9815184 C8.90874372,8.39683118 8.90979057,5.81214396 8.89618145,3.22745674 C9.46253049,3.2379253 10.0341138,3.24001901 10.6036034,3.21698818 C10.6528056,3.21594133 10.7533038,3.21280076 10.8035529,3.21070705 C10.8077403,3.26514356 10.817162,3.37401657 10.8223963,3.42845308 C10.8360054,3.61374657 10.8642705,3.98433356 10.8789265,4.17067391 C11.0212989,3.99794269 11.1594839,3.82311775 11.2987157,3.64829282 C11.3227934,3.61793399 11.3730425,3.55721635 11.3971202,3.52685753 C11.5112275,3.54779465 11.6075382,3.51638897 11.6860524,3.4326405 C11.9603287,3.19919163 12.3288219,3.11753687 12.677425,3.07252207 Z" id="Shape"></path>
                    <path d="M54.0533576,3.07775635 C54.2438854,3.06833465 54.4344131,3.0693815 54.6280815,3.07252207 C54.6730963,3.06624093 54.7610322,3.05367866 54.806047,3.04844438 C54.769407,3.66922993 54.7673133,4.29420291 54.7966253,4.91708217 C54.6207535,4.91498846 54.4490691,4.94534728 54.2815722,4.9851278 L54.1528089,5.0112992 C54.0952318,5.02595518 53.9811245,5.05422029 53.9235475,5.06887627 C53.8167682,5.09923509 53.7110357,5.1275002 53.6053033,5.15471846 C53.2284351,5.21752981 52.9175189,5.45097868 52.7039603,5.76084802 L52.6505707,5.82679995 C52.5427445,5.94090724 52.4694646,6.0843265 52.4527149,6.24135488 C52.4338715,6.33138449 52.394091,6.51144371 52.3742007,6.60147331 C52.3438419,6.69359663 52.3291859,6.78886052 52.3291859,6.88621812 C52.2590466,8.15919489 52.2370626,9.43321853 52.2046101,10.708289 L52.1993758,10.8223963 L52.1240022,10.7972718 C51.9931452,10.7208513 51.8172734,10.8517083 51.8601945,10.999315 L51.754462,10.991987 C51.3461882,10.9710498 50.9441956,10.9574407 50.5411561,10.9532533 C50.4291425,10.9522064 50.3181757,10.9532533 50.2082559,10.9574407 C50.2679267,8.36647236 50.2689735,5.77445715 50.2260524,3.1834888 C50.8342757,3.2023322 51.4445927,3.20861334 52.0570034,3.20547277 C52.1082993,3.20547277 52.2098444,3.20547277 52.2600934,3.20547277 L52.2611403,3.32481434 C52.263234,3.52476382 52.2663746,3.92361592 52.2674214,4.12356539 C52.3030145,4.08587858 52.3731539,4.0094581 52.4077001,3.97177129 C52.5825251,3.78333723 52.7583968,3.59385631 52.9436903,3.41484395 C53.2922934,3.254675 53.6712552,3.14370827 54.0533576,3.07775635 Z" id="Shape"></path>
                    <path d="M14.5251256,3.18662936 C15.1186929,3.20547277 15.7154008,3.22326932 16.3121087,3.24630015 C16.3728263,3.25990928 16.4942616,3.28608067 16.5549792,3.29864294 L16.5539324,3.42112508 C16.5403232,5.04584544 16.483793,6.67580008 16.621978,8.29737987 C16.6837425,8.53187559 16.8208806,8.73496564 16.9360348,8.94538368 C16.9820964,9.04378813 17.0616575,9.1013652 17.1747179,9.1181149 L17.2867315,9.16103599 C17.3715268,9.22908162 17.4699313,9.2604873 17.580898,9.25315931 L17.7232704,9.26362787 C17.9200793,9.27933071 18.1639967,9.35679804 18.3681336,9.27095586 C18.6089105,9.19244167 18.8465468,9.10241206 19.0873236,9.01866359 C19.1407133,8.99667961 19.2464457,8.95375852 19.2998354,8.93177455 C19.4087084,8.90246258 19.4788478,8.83441695 19.5081597,8.72763765 C19.614939,8.44708027 19.760452,8.18013201 19.8211696,7.88491865 C19.9614483,6.3428999 19.8797936,4.7904126 19.8923558,3.24420644 C20.4922043,3.23583159 21.0941464,3.22536303 21.6971354,3.21594133 C21.7494782,3.21489447 21.8531169,3.21384762 21.9054597,3.21384762 C21.9044129,3.26828412 21.9023192,3.37715714 21.9023192,3.43159364 C21.8740541,5.90007986 21.8541638,8.36961293 21.9012723,10.8370523 L21.9065066,10.9218476 L21.910694,11.0035024 L21.8206644,10.9972212 C21.184176,10.9532533 20.5497813,10.9071916 19.913293,10.9155665 C19.9185272,10.7648192 19.9195741,10.6119783 19.8860747,10.4654184 C19.869325,10.2309227 19.6086579,10.3293272 19.5489871,10.483215 C19.5018786,10.5313704 19.4066147,10.628728 19.3584593,10.6768833 C19.2495863,10.7239919 19.1480413,10.7847095 19.0569648,10.8600831 C18.8434062,11.0024555 18.5963482,11.0998131 18.3398685,11.1238908 C17.8007377,11.1322657 17.2657944,11.1458748 16.7287573,11.1249377 C16.3613109,11.108188 15.989677,10.9982681 15.7059791,10.7585381 C15.685042,10.6214 15.6054809,10.562776 15.4652022,10.5837132 L15.408672,10.5763852 C15.1731294,10.3387489 14.9564303,10.0822692 14.7606682,9.81218036 C14.6078272,9.53999783 14.5418753,9.22698791 14.5303599,8.91816542 C14.5355942,7.0076534 14.5816558,5.09714138 14.5251256,3.18662936 Z" id="Shape"></path>
                    <path d="M35.5941475,3.03483526 C35.8024718,3.03274155 36.011843,3.03169469 36.222261,3.03169469 C36.3803363,3.04739753 36.5415521,3.06205351 36.7027679,3.07356893 C36.8660774,3.1405677 37.0304338,3.20442591 37.2000244,3.25886242 C37.2712106,3.28817439 37.4114893,3.34889203 37.4826755,3.37925085 C37.5779394,3.4420622 37.682625,3.47032731 37.7977792,3.46613989 C37.798826,3.60432487 37.937011,3.80218063 38.089852,3.70482303 C38.2311775,3.6273557 38.2311775,3.43368736 38.2405992,3.29131495 C38.8823219,3.26095613 39.5271851,3.22536303 40.1720483,3.16778596 C40.2097352,5.85611191 40.1772826,8.54443787 40.2463751,11.231717 C40.2421877,11.3688551 40.2359066,11.5059932 40.2275317,11.6431313 C40.1636735,11.8891425 40.0432851,12.1225913 39.8820693,12.3183534 C39.629777,12.5737862 39.3732973,12.8250316 39.1189113,13.0762771 C38.9985229,13.1820095 38.8456819,13.2395866 38.6970284,13.2866951 C38.5598903,13.3191476 38.4332207,13.3788184 38.3212071,13.46152 C38.1453353,13.5735336 37.9548076,13.6656569 37.7517175,13.708578 C37.7098433,13.5630651 37.537112,13.5682993 37.4669727,13.6855472 L37.3507717,13.7117186 C37.2450393,13.7064843 37.1414005,13.7075312 37.0398555,13.7138123 C36.5844732,13.7295151 36.1311846,13.7441711 35.6810365,13.7588271 C35.5669292,13.6960158 35.4674779,13.7054375 35.3816357,13.7881391 L35.2727627,13.8844498 C35.2444976,13.8404819 35.1858737,13.7535928 35.1576086,13.7096249 C35.1000315,13.6112204 35.0131425,13.5714399 34.8979883,13.5881896 C34.5556664,13.570393 34.2259068,13.4426766 33.9306935,13.2825077 C33.8898661,13.1841032 33.8239142,13.112917 33.730744,13.0668554 C33.4732174,12.8292191 33.2198783,12.5926296 32.9738672,12.3445248 C32.7592617,12.1330599 32.6681853,11.8294717 32.6765601,11.5332115 C32.6723727,11.3971202 32.6671384,11.2610289 32.6399201,11.1280782 C33.3360793,11.2400918 34.2468439,10.8119277 34.8288958,11.3500117 L34.8822855,11.4473693 C34.9534717,11.602304 35.0476887,11.776082 35.2350759,11.8095814 C35.430838,11.8734396 35.6286937,11.9310167 35.8255026,12.0001092 C35.9364694,12.052452 36.0599984,12.0702485 36.1835274,12.0566394 C36.2829787,12.0587331 36.4808344,12.0618737 36.5802858,12.0639674 C36.6399565,12.0566394 36.7582513,12.0409366 36.817922,12.0336086 C37.0429961,11.9530007 37.2670232,11.8702991 37.486863,11.7750352 C37.6554068,11.7069895 37.7956855,11.5866011 37.9401516,11.478775 C38.0479777,11.427479 38.1003205,11.3447774 38.09718,11.231717 L38.0982268,11.1406405 C38.1024142,10.752257 38.1128828,10.3649203 38.1160234,9.97863045 C38.1097422,9.93884993 38.09718,9.86033573 38.0908988,9.82055521 C38.0427434,9.85719517 37.9464327,9.92942822 37.8982773,9.96606818 C37.6198137,10.323046 37.1539628,10.5020584 36.7100959,10.505199 C36.5760983,10.4423876 36.4222105,10.4434345 36.3049627,10.5376515 L36.164684,10.5606823 C35.9846247,10.5544012 35.8066592,10.5491669 35.6297406,10.5460263 C35.5051647,10.5397452 35.256013,10.5261361 35.1314372,10.5188081 C34.6195247,10.4884493 34.115987,10.2769844 33.7171349,9.9608339 C33.5339351,9.76507185 33.3622507,9.55884123 33.1916132,9.35365748 C33.1288018,9.24478446 33.0440065,9.21337879 32.9372272,9.25839359 L32.9382741,9.13486459 C32.9592112,9.00924189 32.8827907,8.90036887 32.8042765,8.81347983 C32.5718745,8.53606302 32.4483455,8.18117887 32.4462518,7.82106044 C32.4514861,7.69648459 32.4169398,7.57609616 32.3666908,7.46408258 C32.3468005,7.02230938 32.3394725,6.58158305 32.3436599,6.14085672 C32.4075181,6.03407741 32.4504392,5.91473584 32.4514861,5.78911313 C32.4912666,5.419573 32.5823431,5.03433003 32.8304479,4.74644466 C32.9204775,4.68886758 32.9791015,4.60825968 33.0052729,4.50462094 L33.0513345,4.42505989 C33.1685824,4.33921771 33.2648931,4.22825098 33.3287513,4.09634714 C33.3538759,4.05551976 33.4041249,3.97491186 33.4292495,3.93408448 C33.5433568,3.87755426 33.6459487,3.79799321 33.7296971,3.69958875 C33.7768056,3.66399565 33.8720695,3.59490316 33.9191781,3.56035692 C34.2112508,3.3352829 34.5713693,3.21070705 34.9335814,3.15627054 C35.0424544,3.15941111 35.1408589,3.12695858 35.2277479,3.05891294 C35.3491832,3.05472552 35.4706185,3.04635067 35.5941475,3.03483526 Z M36.3782426,8.79358957 C37.5056595,8.79358957 38.2102404,7.87963753 38.2102404,6.75222056 C38.2102404,5.62480359 37.5056595,4.71085156 36.3782426,4.71085156 C35.2508256,4.71085156 34.5462447,5.62480359 34.5462447,6.75222056 C34.5462447,7.87963753 35.2508256,8.79358957 36.3782426,8.79358957 Z" id="Combined-Shape"></path>
                    <path d="M44.337488,3.08508434 C44.5541872,3.06728779 44.9886324,3.03169469 45.2063784,3.01389814 C45.3885313,3.02017927 45.5727779,3.02646041 45.7580714,3.02646041 C45.9475524,3.03902268 46.1380801,3.04739753 46.3296548,3.05681923 C46.4134032,3.12591172 46.5107608,3.15836425 46.6217276,3.15522369 C46.7609594,3.17197338 46.8980975,3.20128535 47.0352356,3.24315958 C47.1462024,3.27979954 47.2613565,3.31329893 47.3775575,3.3447046 C47.4948054,3.37925085 47.606819,3.42740622 47.7135983,3.48917072 C47.7701285,3.57605976 47.8507364,3.63258998 47.9543751,3.65876137 C48.0580139,3.70482303 48.1532777,3.76868124 48.2380731,3.84928915 C48.3343838,3.94874046 48.4317414,4.05656662 48.5688795,4.10576884 C48.5877229,4.25337553 48.6275035,4.39784164 48.6840337,4.53812033 C48.499787,4.72236697 48.326009,4.91603531 48.1574652,5.11389108 C47.9774059,5.31384055 47.7942062,5.51169632 47.6078658,5.70536466 L47.5220236,5.66453728 L47.4508374,5.62580361 C47.4225723,5.57660139 47.3660421,5.47715007 47.337777,5.42794785 C47.1765612,5.22695151 47.0048768,5.03433003 46.8206302,4.85636453 C46.7243194,4.76214749 46.6489458,4.77680348 46.5924156,4.90033247 L46.5557756,4.96837811 C46.3977004,4.86264566 46.2396252,4.75900693 46.0888779,4.6480402 C46.000942,4.57057286 45.899397,4.54230775 45.7842428,4.56010431 L45.7203846,4.55382317 C45.4502958,4.49938666 45.2765177,4.47216841 45.0483031,4.54649518 L44.9739764,4.56429173 C44.8588222,4.54858889 44.7572772,4.57476029 44.6672476,4.64280592 C44.53325,4.71817955 44.3992525,4.78936575 44.2631612,4.85741138 C44.1228825,4.90556675 44.0265718,5.02490833 43.9930724,5.16623387 C43.9909787,5.23113894 43.9857444,5.35885536 43.9836507,5.42271357 C44.0119158,5.55880483 44.0715866,5.7210675 44.228615,5.75037946 C44.6735287,5.90740785 45.1383327,6.00371859 45.5916213,6.138763 C45.7099161,6.18482466 45.8376325,6.20157436 45.9674426,6.19319951 C46.030254,6.19319951 46.1569235,6.19424637 46.2197349,6.19424637 L46.3652479,6.22251148 C46.480402,6.27066685 46.6028842,6.30207252 46.7306006,6.3073068 C47.1022344,6.36174331 47.4665403,6.47166318 47.8130496,6.62031672 L47.8831889,6.65276925 C48.034983,6.72918973 48.1899177,6.80142279 48.3479929,6.87156213 L48.4223197,6.91238952 C48.5940041,7.0788396 48.7520793,7.26099253 48.8934049,7.45570773 C48.9331854,7.61692354 48.9844813,7.77395192 49.0399647,7.93098031 C49.0472927,8.00530708 49.0619487,8.15396061 49.0692767,8.22828738 C49.0420584,8.55385957 49.0326367,8.88571289 48.9876219,9.21128507 C48.9604036,9.40181285 48.8829363,9.59548119 48.7280016,9.71691647 C48.6327377,9.77239984 48.5762075,9.8540546 48.5573641,9.96188076 L48.5186304,10.0602852 C48.4034763,10.1586897 48.2830879,10.2518598 48.1647932,10.3460769 C48.0527796,10.3628266 47.970078,10.4214505 47.918782,10.519855 C47.6727709,10.7868032 47.3095119,10.9092853 46.959862,10.9658156 C46.8352862,10.9710498 46.7169914,11.0035024 46.6091653,11.0600326 C46.5599631,11.0757354 46.4615586,11.1071411 46.4123564,11.1228439 C45.7381812,11.1270314 45.0660997,11.1207502 44.3961119,11.0705012 C44.3615657,11.0610795 44.2914263,11.0411892 44.2558332,11.0307206 C44.1490539,10.9176602 43.9082771,11.0181584 44.0600712,11.165765 C43.7543892,11.0684074 43.4382388,10.9836121 43.1660562,10.809834 C43.0686986,10.7334136 42.9545913,10.686305 42.8342029,10.6800239 C42.5033964,10.636056 42.17259,10.4790276 41.9872965,10.1921891 C41.93286,10.0780818 41.8491115,10.0383012 41.7350042,10.0718006 C41.6721929,9.93884993 41.6020535,9.81008665 41.5266799,9.68446394 C41.576929,9.64154285 41.678474,9.55570067 41.7297699,9.51382643 C41.8512052,9.41437512 41.9705468,9.31073638 42.0919821,9.20919136 C42.1495591,9.18616053 42.2626196,9.14114573 42.3191498,9.1181149 C42.4248822,9.09089665 42.5054902,9.02913215 42.5609735,8.93177455 C42.5902855,8.87943175 42.6499563,8.77369931 42.6803151,8.72030966 C42.9284199,8.85744778 43.1765248,9.00086704 43.4350982,9.12020861 L43.5052375,9.1442863 C43.8412783,9.26886215 44.1804596,9.38506315 44.5280158,9.47928018 C44.6766693,9.52429499 44.8326508,9.54732582 44.9896792,9.56407551 C45.1142551,9.57245036 45.3613131,9.58920005 45.4858889,9.5975749 C45.5644031,9.58396577 45.7203846,9.55779438 45.7988988,9.54418525 C45.9622083,9.52743556 46.1223773,9.47509276 46.2532343,9.37145403 C46.4238718,9.25211245 46.5955562,9.12963031 46.7693342,9.0113356 C46.872973,8.95166481 46.9138004,8.86058835 46.8928632,8.73810621 C46.8918164,8.70146625 46.8897227,8.62923319 46.8886758,8.59259324 C46.9117066,8.43242428 46.7881776,8.30052044 46.633243,8.29109874 C46.4646992,8.24294337 46.2951085,8.19688171 46.1412207,8.1162738 C46.0543317,8.05032188 45.9569741,8.02415048 45.8512416,8.03880646 C45.797852,7.91004319 45.6282613,7.8859655 45.5664968,8.02100991 C45.5183414,8.0000728 45.4209838,7.95819856 45.3717816,7.93726144 C45.2587212,7.87130952 45.1330985,7.8409507 45.0064289,7.84304441 C44.9436175,7.83990384 44.8179948,7.83466956 44.7551835,7.831529 L44.6128111,7.81268559 C44.5217346,7.74987424 44.4233302,7.72684341 44.3165509,7.7435931 C44.2568801,7.7341714 44.1364916,7.71532799 44.0768209,7.70590629 C43.988885,7.64100122 43.8925742,7.61482982 43.7878886,7.62843895 C43.4099737,7.59912699 42.9954187,7.49339454 42.738939,7.19818118 C42.6719402,7.08198017 42.5724889,7.03905908 42.4405851,7.0694179 C42.3181029,6.93227978 42.194574,6.79723537 42.0783729,6.65695668 L42.049061,6.58472362 C42.0176553,6.46433519 41.9694999,6.35127475 41.9077354,6.24658916 L41.8794703,6.09165449 C41.8784235,6.02570257 41.8784235,5.89484558 41.8784235,5.82889366 C41.9056417,5.6331316 41.89622,5.43632269 41.8595801,5.24370121 C41.8752829,5.11703164 41.888892,4.98931522 41.8993606,4.86264566 C41.9621719,4.69200815 42.0239364,4.52137064 42.0815135,4.34863941 C42.2982127,4.11937797 42.521193,3.8932571 42.7504544,3.67446421 C42.7912818,3.63887111 42.8729366,3.56768491 42.913764,3.53104495 C43.0634643,3.4420622 43.2320081,3.38971941 43.4026457,3.34889203 C43.5261747,3.32272063 43.6507505,3.29236181 43.7742795,3.25781556 C43.9648073,3.21489447 44.1511476,3.14998941 44.337488,3.08508434 Z" id="Shape"></path>
                    <path d="M1.84979438,17.617538 L1.94505826,17.5756637 C2.31983268,17.5505392 2.69041967,17.5536798 3.0693815,17.5620546 L3.15312997,17.61021 C3.23269102,17.6813962 3.32690805,17.7138487 3.43473421,17.7054739 C3.63049627,17.7169893 3.82521146,17.7724726 3.99898954,17.8666897 C4.19893902,18.0614049 4.39784164,18.2582138 4.58836941,18.4633975 C4.63443107,18.5628488 4.67316474,18.6675344 4.70457042,18.7753606 C4.73388238,18.910405 4.78831889,19.0381214 4.85531767,19.1606036 C4.87311422,19.2045715 4.90870732,19.2935543 4.92650387,19.3375222 C4.94325357,20.6513264 4.92441016,21.9672242 4.96733125,23.2820752 L4.96942496,23.3846671 L4.81239658,23.3815266 C4.49519924,23.371058 4.1874236,23.36373 3.87336683,23.3741986 C3.88488225,22.0436447 3.92780334,20.7036692 3.74146299,19.382537 C3.70272932,19.1763064 3.63991797,18.9763569 3.58548146,18.7753606 C3.56245063,18.6623001 3.49126443,18.6099574 3.37296971,18.6204259 C3.2190819,18.6068168 3.06728779,18.5848328 2.91654054,18.56913 C2.6349363,18.5408649 2.35647263,18.5136466 2.07696211,18.5115529 C1.92621486,18.5356306 1.77965503,18.5827391 1.63518892,18.6277539 C1.48653538,18.648691 1.4195366,18.7962977 1.39127149,18.9261078 C1.34102241,19.0904642 1.29077333,19.2548206 1.22796197,19.4149895 C1.16619747,19.5416591 1.12955752,19.6798441 1.14630721,19.8232633 C1.15468206,20.9748048 1.15677577,22.1263463 1.17875974,23.2789347 L1.1798066,23.393042 L1.03848105,23.3846671 C0.724424284,23.3605894 0.419789216,23.3448866 0.10991987,23.3260432 C0.115154149,21.9808334 0.0649050659,20.6345767 0.0994513106,19.2904137 C0.137138123,19.0360277 0.213558604,18.77222 0.395711531,18.5827391 C0.506678256,18.4885221 0.599848431,18.3723211 0.644863235,18.2320424 C0.689878039,18.1221225 0.736986554,18.0132495 0.785141926,17.9043765 C0.874124677,17.9766095 0.965201141,17.9724221 1.05941817,17.8928611 C1.16829119,17.8300497 1.28239848,17.7787538 1.40174005,17.7389732 C1.44047372,17.7285047 1.51794106,17.7065207 1.55667472,17.6960522 C1.66450088,17.7107081 1.76185848,17.6845367 1.84979438,17.617538 Z" id="Shape"></path>
                    <path d="M13.2793671,17.8928611 C13.6489072,17.8865799 14.0111194,17.8729708 14.3838001,17.864596 L14.3806595,18.0111558 C14.3283167,19.7102029 14.3450664,21.4102969 14.3293636,23.109344 C14.3168013,23.1721554 14.2916768,23.2967312 14.2791145,23.3595426 C13.6771723,23.3092935 13.0438245,23.3689643 12.487944,23.0936412 L12.5298183,22.9271911 C12.5832079,22.8057558 12.5183029,22.68118 12.4439761,22.5880098 C12.3612745,22.4644808 12.2859009,22.3357175 12.2346049,22.1975325 C12.2000587,22.0823784 12.1456222,21.9766459 12.0786234,21.8803352 C11.9132202,21.5746533 11.776082,21.2532685 11.6933804,20.9172278 C11.6734902,20.8198702 11.6504593,20.7235594 11.6232411,20.6293424 C11.6033508,20.5068602 11.5478674,20.3958935 11.4651658,20.3058639 C11.3217466,20.116383 11.2065924,19.9091055 11.0882977,19.7060155 C11.4798218,19.6379698 11.8734396,19.5699242 12.2660106,19.4955974 L12.2513546,19.5845802 C12.2283238,19.6934532 12.2649637,19.782436 12.3633682,19.8504816 L12.4251327,19.9363238 C12.4732881,20.0703213 12.531912,20.2011783 12.5989108,20.3288947 L12.6345039,20.4272992 C12.6575347,20.5466408 12.7098775,20.6607481 12.7915323,20.7549651 C12.9255298,20.9528209 13.0448714,21.1632389 13.127573,21.3893598 L13.1265261,21.467874 C13.0239343,21.7766965 13.4081304,21.8028679 13.2992574,21.4783425 C13.2647111,20.2828331 13.2940231,19.0873236 13.2793671,17.8928611 Z" id="Shape"></path>
                    <path d="M8.93700883,23.9991715 C9.24897189,24.0106869 9.5619818,24.0232492 9.87708543,24.0368583 L9.99538014,24.0410458 L9.98909901,24.1719028 C9.91686595,24.6293788 10.0246921,25.1329165 9.85824202,25.5746897 C9.65096455,25.8374505 9.35470433,26.0101817 9.08670922,26.2038501 L8.99982018,26.262474 L8.99563276,26.1159142 C8.98307049,25.4103333 8.96108651,24.7037056 8.93700883,23.9991715 Z" id="Shape"></path>
                    <path d="M35.6307875,13.849779 C36.0547641,13.834779 36.4724596,13.849779 36.9006237,13.824779 C36.4735065,13.874779 36.0526704,13.899779 35.6307875,13.849779 Z" id="Shape" opacity="0.05"></path>
                    <path d="M35.3816357,14.0311178 C35.5249924,13.6621267 35.6910763,13.6200897 35.8816357,13.9003362 L35.7977197,14.2179488 C35.6928246,14.1712411 35.4847826,14.0778256 35.3816357,14.0311178 Z" id="Shape" opacity="0.58"></path>
                    <path d="M35.6810365,13.907506 C36.1311846,13.8444429 36.5844732,13.7813799 37.0398555,13.7138123 L36.9906533,13.898497 L36.9006237,14.1912898 C36.4724596,14.2138123 36.0547641,14.2002988 35.6307875,14.2138123 L35.6810365,13.907506 Z" id="Shape" opacity="0.86"></path>
                    <path d="M37.0589672,13.7252308 C37.1999556,13.705778 37.3438509,13.7025359 37.4906533,13.7187465 C37.4891998,14.269909 37.0473393,14.4093207 36.9906533,13.8581582 L37.0589672,13.7252308 Z" id="Shape" opacity="0.44"></path>
                    <path d="M25.6431156,14.7634083 C25.3782349,14.3682538 26.0165237,13.9972924 26.079065,14.5241651 L26.0735466,14.6881408 C25.9668586,14.7069577 25.751643,14.7445914 25.6431156,14.7634083 Z" id="Shape" opacity="0.56"></path>
                    <path d="M25.3399267,14.802119 C24.9638471,14.506218 25.7011611,14.1033374 25.7333258,14.576779 C25.6739448,14.64734 25.5551828,14.788462 25.4958018,14.859023 L25.3399267,14.802119 Z" id="Shape" opacity="0.17"></path>
                    <path d="M25.4448795,14.4591737 L25.615517,14.4581269 C25.6772815,14.4507989 25.7997637,14.4361429 25.8604813,14.4288149 C25.8458253,15.0569284 25.8384974,15.685042 25.8395442,16.3142024 C25.8604813,16.367592 25.9013087,16.4754182 25.9222458,16.5288078 L25.790342,16.5309015 C24.5634269,16.5539324 23.3396523,16.5015896 22.1158778,16.4879804 C22.2268445,16.469137 22.295937,16.4000445 22.3242021,16.2817498 L22.3807323,16.1707831 C22.499027,16.0388793 22.6215092,15.910116 22.7199136,15.7604156 L22.7659753,15.69237 C23.4663219,15.6881825 24.1719028,15.7237756 24.8732962,15.6819014 L24.8921396,15.5845438 C24.9162173,15.4076252 24.9643727,15.0537879 24.9884504,14.8768692 C25.1308228,14.8161516 25.2459769,14.7072786 25.3443814,14.5889838 C25.3695059,14.5565313 25.419755,14.4916262 25.4448795,14.4591737 Z" id="Shape"></path>
                    <path d="M24.9982663,15.0517428 C24.8350473,14.7957653 25.1507823,14.473781 25.3688536,14.5687664 L25.4531388,14.6090144 C25.3273799,14.7909356 25.1802153,14.9583674 24.9982663,15.0517428 Z" id="Shape" opacity="0.72"></path>
                    <path d="M19.8086074,17.5358832 L19.8253571,17.4489942 C20.1844286,17.4803998 20.5361722,17.5002901 20.8994312,17.5180866 C20.6994817,17.7295515 20.5257037,17.9640473 20.3613473,18.2048241 C20.2357246,18.3126503 20.3100513,18.4738661 20.4220649,18.5565677 C20.5204694,18.6539253 20.5843276,18.7680326 20.6136395,18.9009833 C20.6073584,19.0088095 20.6377172,19.1061671 20.7068097,19.1920092 C20.7225126,19.3626467 20.7444965,19.5343311 20.7664805,19.7070623 C20.756012,20.9318837 20.7089034,22.1598457 20.7884645,23.3846671 L20.6429515,23.3825734 C20.3550661,23.3752454 20.0682276,23.3721048 19.7834828,23.3721048 C19.7845297,22.179736 19.789764,20.9863202 19.7122966,19.7970919 C19.6829847,19.6808909 19.6233139,19.4505826 19.5940019,19.3343816 C19.4966443,19.1103545 19.3940524,18.8905147 19.2893668,18.6717219 C19.2422583,18.561802 19.1564161,18.5125998 19.0328871,18.525162 C18.9910129,18.5199277 18.9062176,18.5115529 18.8643433,18.5073655 L18.7115024,18.4916626 C18.4780535,18.4539758 18.2791509,18.4194296 18.0624517,18.4707255 C17.9724221,18.4864284 17.791316,18.5167872 17.7012864,18.5314432 C17.588226,18.5366774 17.5107587,18.5911139 17.4678376,18.6968464 C17.363152,18.8653902 17.2448573,19.0245123 17.1150471,19.1731658 C17.0250175,19.2464457 16.9957056,19.3385691 17.0271112,19.4484889 C17.0511889,19.5971425 17.0773603,19.7468429 17.1066723,19.8954964 C17.1150471,19.9289958 17.13075,19.9959946 17.1391248,20.029494 C17.6803493,20.1258047 18.227855,20.2053657 18.7701263,20.3131919 C18.656019,20.3090045 18.5743643,20.363441 18.5272557,20.4775483 C18.4916626,20.5267505 18.4215233,20.6262018 18.3859302,20.675404 C18.2770572,20.734028 18.2330892,20.8198702 18.2540263,20.9329306 C17.8394714,20.9559614 17.4270102,20.981086 17.0155958,21.0083042 C16.9915181,21.7662279 16.9758153,22.5251984 16.9653467,23.284169 C16.6272123,23.3249963 16.2932652,23.3584957 15.9582714,23.3961825 C16.0273638,22.0331762 15.9886302,20.6691229 16.0127079,19.3061165 C16.0493478,19.1396664 16.0891283,18.9742632 16.1226277,18.8078131 C16.1487991,18.6832373 16.1854391,18.5628488 16.2335945,18.4466478 C16.4063257,18.2603075 16.585338,18.0802483 16.7716784,17.907517 C16.9161445,17.8174874 17.0763135,17.7536292 17.2438104,17.7222236 C17.3034812,17.7169893 17.4207291,17.7065207 17.479353,17.7023333 C17.588226,17.7065207 17.6813962,17.6709276 17.7609572,17.5934603 C18.1430596,17.5693826 18.5209746,17.5746169 18.9072644,17.5819449 C19.1375727,17.602882 19.3647405,17.6478968 19.5950488,17.6845367 C19.7206715,17.7148956 19.7918577,17.6646465 19.8086074,17.5358832 Z" id="Shape"></path>
                    <path d="M8.08382127,17.6185848 L8.22200625,17.595554 C8.39787804,17.5966008 8.57479669,17.5976477 8.75380905,17.5986946 L8.91293114,17.6280065 C9.03541328,17.6719745 9.16417656,17.7012864 9.29712726,17.7054739 C9.3578449,17.7107081 9.48032704,17.7201298 9.54209154,17.7253641 C9.67190167,17.7316453 9.80275866,17.7400201 9.9346625,17.7515355 C9.96502132,17.864596 9.99747386,17.9787032 10.0299264,18.0928105 C9.95664648,18.2739166 9.88336656,18.4539758 9.81113351,18.6361288 C9.67608909,18.5733174 9.53476355,18.5230683 9.38611001,18.5167872 C9.32853293,18.5125998 9.21337879,18.5031781 9.15580171,18.4989906 C8.70670053,18.4707255 8.2586462,18.4613038 7.8147793,18.525162 C7.64100122,18.525162 7.5488779,18.7020807 7.5394562,18.8549216 C7.49862882,18.9826381 7.51433166,19.1260573 7.59703327,19.2359772 L7.66507891,19.3553188 C7.7435931,19.5196751 7.87235638,19.6557664 8.03357219,19.7447492 C8.08800869,19.7803423 8.19897542,19.8504816 8.25445878,19.8860747 C8.34134782,19.9499329 8.43765856,19.9959946 8.54339101,20.0263534 C8.66273258,20.0703213 8.77998044,20.123711 8.89304088,20.1886161 C8.94433682,20.2158343 9.0469287,20.269224 9.09822464,20.2964422 C9.1987228,20.3466913 9.29293983,20.4095026 9.37878202,20.4859231 C9.46985848,20.5843276 9.56930979,20.6764509 9.67608909,20.7612462 C9.84358604,20.9203683 10.0027081,21.089959 10.1471742,21.2721119 C10.1733456,21.3412044 10.2256884,21.4793894 10.2518598,21.5484819 C10.2550004,21.6898074 10.2623284,21.9714117 10.265469,22.1127372 C10.2612815,22.2781404 10.2529067,22.4508717 10.1848611,22.6047595 C10.0508635,22.7596941 9.90953796,22.906254 9.76821241,23.0538607 C9.6143246,23.0559544 9.53790412,23.1271406 9.53895097,23.2684661 L9.53476355,23.3878077 C9.38192259,23.4056042 9.23012848,23.4286351 9.07728752,23.4349162 C9.01971044,23.4349162 8.90560315,23.4349162 8.84802608,23.4359631 C8.42404944,23.4443379 8.0094945,23.4558533 7.58865843,23.4443379 C7.5300345,23.4464316 7.41383349,23.450619 7.35625642,23.4527128 C7.27878908,23.4391036 7.12594812,23.4118854 7.04952764,23.3982762 C6.98566943,23.3815266 6.86004672,23.3480272 6.79723537,23.3302306 C6.71558061,23.1491245 6.59100475,22.9889556 6.43502322,22.8654266 C6.46119462,22.7104919 6.51249056,22.3995757 6.5376151,22.2435942 C6.54494309,22.2006731 6.55855222,22.1137841 6.56588021,22.0698161 C6.62241043,22.0991281 6.73442401,22.157752 6.78990737,22.187064 C6.87784327,22.2352193 6.96996659,22.2749999 7.06732419,22.3053587 C7.24110227,22.3650295 7.41488035,22.426794 7.58865843,22.4896053 C7.64937607,22.5011207 7.7697645,22.5241516 7.82943528,22.535667 L7.96552655,22.5513698 C8.02729105,22.6780394 8.18641315,22.6790862 8.2659742,22.5670727 L8.39892489,22.5409013 C8.45754883,22.5220579 8.57374983,22.484371 8.6313269,22.4655276 C8.66168573,22.4487779 8.72240337,22.4142317 8.75276219,22.3964351 C8.88152547,22.3210615 9.0113356,22.2467348 9.14114573,22.172408 C9.09508407,22.0300356 9.04797555,21.88871 9.00191389,21.7484313 L8.97469564,21.6699172 C8.93910254,21.5317322 8.8427918,21.4259997 8.75380905,21.322361 C8.69832568,21.2260503 8.61667092,21.1705669 8.50884476,21.1538172 C8.16756974,21.0418036 7.82838843,20.9078061 7.53212821,20.7057629 C7.44000489,20.6272487 7.33322559,20.5717653 7.22016515,20.5382659 L7.15211952,20.5079071 C6.96682602,20.3278479 6.78990737,20.1415075 6.60775445,19.9604015 C6.57111449,19.9216678 6.49574087,19.8431536 6.45805405,19.8044199 L6.4570072,19.7018281 C6.4475855,19.3260068 6.4475855,18.9554198 6.43188266,18.5816922 L6.42874209,18.4686318 L6.42560152,18.386977 C6.63706641,18.2341361 6.84015646,18.0697797 7.05057449,17.914845 C7.2735548,17.7808475 7.53317506,17.7169893 7.79070162,17.7002396 C7.89852777,17.711755 7.99588537,17.6845367 8.08382127,17.6185848 Z" id="Shape" opacity="0.98"></path>
                    <path d="M23.8557523,17.6143974 L24.0263898,17.5903197 C24.1928399,17.5986946 24.5246932,17.6154442 24.6900964,17.6238191 C24.8429374,17.6615059 24.9978721,17.6918647 25.1559473,17.7012864 C25.3852087,17.7222236 25.6134233,17.7609572 25.8426848,17.7975972 C25.8405911,18.0875763 25.8542002,18.3859302 25.8678093,18.6800967 L25.8730436,18.7889697 C25.6678598,18.7313926 25.4647698,18.6738156 25.2616798,18.6172853 C25.0292777,18.5523803 24.7979226,18.4885221 24.5676143,18.4225701 C24.4524601,18.3702274 24.3393997,18.3691805 24.2294798,18.4215233 C23.9342665,18.5335369 23.6578965,18.6905653 23.4056042,18.8800462 C23.2506696,18.9501855 23.2925438,19.1449007 23.3815266,19.25168 L23.4516659,19.3762559 C23.5291332,19.5385185 23.647428,19.6913595 23.8243466,19.7541709 C24.1017634,19.8881684 24.3917425,20.0033226 24.6597376,20.1624447 C24.7173147,20.2514274 24.7989694,20.3048171 24.9047019,20.3257542 C25.0083406,20.3603004 25.1056982,20.4105495 25.1967747,20.4765014 C25.2899449,20.5644373 25.3883493,20.6481858 25.4961755,20.7235594 C25.7453272,20.92979 25.9484172,21.184176 26.1483667,21.438562 C26.1284764,21.5013734 26.0886959,21.6280429 26.0688056,21.6908543 C26.0656651,21.757853 26.0583371,21.8928975 26.0541497,21.9609431 C26.0510091,22.0258482 26.044728,22.157752 26.0415874,22.2226571 L26.0059943,22.3838729 C25.9337612,22.5115893 25.8636219,22.6403526 25.7955763,22.7712096 C25.674141,22.9083477 25.5568931,23.0475795 25.4459264,23.1930925 C25.3234442,23.3773391 25.1067451,23.4642282 24.8921396,23.4589939 C24.8335157,23.4558533 24.7173147,23.4485253 24.6586908,23.4453848 C24.2336673,23.4474785 23.8180655,23.4558533 23.3961825,23.4443379 C23.3375586,23.4474785 23.2213576,23.4527128 23.1637805,23.4558533 C22.9167225,23.4495722 22.6853674,23.3354649 22.5011207,23.1784365 C22.4037631,23.0957349 22.3043118,23.0172207 22.1954388,22.9544093 C22.3210615,22.6832737 22.4571528,22.4173723 22.5921972,22.1525177 C22.6633834,22.2299851 22.7513193,22.2791873 22.8560049,22.3022181 C23.0685166,22.3650295 23.2810284,22.4330751 23.4935401,22.499027 C23.5898509,22.5335733 23.6893022,22.5482293 23.7939878,22.542995 C23.9499693,22.5440418 24.1080445,22.5482293 24.2661198,22.5597447 C24.329978,22.5534635 24.4566476,22.5409013 24.5205058,22.5346201 C24.6827684,22.5011207 24.8869053,22.4110911 24.8858585,22.2163759 L24.8921396,22.135768 L24.8910928,22.0258482 C24.8178128,21.8185707 24.7235958,21.6207149 24.6157697,21.4322809 C24.5979731,21.3998283 24.56238,21.337017 24.5445835,21.3056113 C24.4964281,21.20616 24.4158202,21.1517235 24.3048535,21.1433486 C23.9646253,21.0344756 23.6202097,20.9182746 23.32709,20.7130909 C23.3543083,20.5539688 23.2894032,20.4838294 23.1334217,20.5058134 L23.0601418,20.5131414 C22.9994241,20.4754546 22.8758952,20.4000809 22.8141307,20.3623941 C22.6947891,20.2420057 22.5733538,20.1226641 22.4519185,20.0064631 C22.3629358,19.9195741 22.2980307,19.8190759 22.2572033,19.7049686 C22.2404536,19.367881 22.2415005,19.0391683 22.2467348,18.7062681 C22.273953,18.6664876 22.3273427,18.5879734 22.3535141,18.5481929 C22.4519185,18.4916626 22.5084487,18.4068673 22.5231047,18.2938069 C22.615228,18.1922618 22.7115388,18.0938574 22.8109901,17.9996404 C22.9334722,17.9525318 23.0475795,17.8865799 23.1491245,17.8028315 C23.284169,17.7724726 23.4192134,17.7421138 23.5542578,17.7075676 C23.6662714,17.7159424 23.7667695,17.6855836 23.8557523,17.6143974 Z" id="Shape" opacity="0.98"></path>
                </g>
            </g>
        </g>
    </g>
</svg>