<?xml version="1.0" encoding="UTF-8"?>
<svg width="97px" height="35px" viewBox="0 0 97 35" version="1.1" xmlns="http://www.w3.org/2000/svg" xmlns:xlink="http://www.w3.org/1999/xlink">
    <!-- Generator: Sketch 51.3 (57544) - http://www.bohemiancoding.com/sketch -->
    <title>Unknown</title>
    <desc>Created with Sketch.</desc>
    <defs></defs>
    <g id="Page-1" stroke="none" stroke-width="1" fill="none" fill-rule="evenodd">
        <g id="m7-withdraw-balance-0-1366-copy" transform="translate(-195.000000, -2073.000000)">
            <g id="Group-2" transform="translate(145.000000, 1692.000000)">
                <g id="Unknown" transform="translate(50.000000, 381.000000)">
                    <g id="#2ba3e0ff" fill-rule="nonzero">
                        <g id="Group-32">
                            <path d="M0.174251497,0.110359281 C1.22847305,0.0842215569 2.27979042,0.0900299401 3.33401198,0.101646707 C3.31368263,2.0445509 3.33691617,3.98745509 3.31658683,5.93326347 C5.6805988,4.09781437 7.84422156,2.01550898 10.1356287,0.0871257485 C11.6283832,0.098742515 13.1182335,0.101646707 14.6080838,0.0784131737 C12.1482335,2.29140719 9.55769461,4.35919162 7.13850299,6.6157485 C9.5954491,9.32826347 11.9420359,12.1424251 14.3612275,14.8897904 C13.1588922,14.8694611 11.9565569,14.9101198 10.7571257,14.8781737 C10.3156886,14.9536826 10.0862575,14.5325749 9.83068862,14.2653892 C8.18982036,12.3457186 6.48796407,10.4754192 4.85,8.55284431 C4.32434132,9.00299401 3.80739521,9.46766467 3.31077844,9.94976048 C3.34272455,11.6341916 3.31077844,13.3157186 3.33110778,14.9972455 C2.27688623,14.9856287 1.22266467,14.9943413 0.168443114,14.9769162 C0.206197605,10.0223653 0.194580838,5.06491018 0.174251497,0.110359281 Z" id="Shape" fill="#2BA3E0"></path>
                            <path d="M15.505479,0.0842215569 C19.7165569,0.10745509 23.9276347,0.0900299401 28.1387126,0.0929341317 C28.1329042,1.03389222 28.1387126,1.9748503 28.1706587,2.91290419 L28.054491,2.88095808 C26.553024,2.48308383 24.8744012,2.39595808 23.3845509,2.86062874 C23.3264671,6.86550898 23.2306287,10.8732934 23.2770958,14.8810778 C22.2257784,14.883982 21.1773653,14.883982 20.1260479,14.8868862 C20.097006,10.8791018 20.1638024,6.87422156 20.2654491,2.86934132 C19.9401796,2.65152695 19.551018,2.60215569 19.1676647,2.60215569 C17.9362874,2.57601796 16.6758683,2.50050898 15.4735329,2.84320359 C15.5170958,1.92547904 15.5141916,1.0048503 15.505479,0.0842215569 Z" id="Shape" fill="#2BA3E0"></path>
                            <path d="M29.6837425,0.0900299401 C32.0913174,0.10745509 34.4988922,0.0842215569 36.9035629,0.0958383234 C38.5473353,0.174251497 40.3711677,0.853832335 41.1407784,2.41338323 C41.8929641,3.85386228 41.846497,5.90712575 40.4728144,6.97005988 C41.5328443,8.01556886 42.2211377,9.54317365 41.9132934,11.0446407 C41.6693413,13.0020659 39.8542216,14.413503 37.9897305,14.7039222 C35.3265868,14.4222156 32.646018,14.7358683 29.9770659,14.535479 C29.8057186,11.7532635 30.2094012,8.9391018 29.7302096,6.18302395 C29.6227545,4.1558982 29.7244012,2.12005988 29.6837425,0.0900299401 Z M32.6024551,2.69799401 C32.4630539,3.80449102 32.4543413,4.92260479 32.6024551,6.0291018 C34.1532934,6.14817365 35.738982,6.2352994 37.284012,6.00877246 L37.4437425,5.7502994 C38.117515,5.44826347 38.8203293,4.70188623 38.4631138,3.92065868 C38.3237126,3.40661677 37.8067665,3.14814371 37.3420958,2.99712575 L37.3769461,2.71541916 C35.7912575,2.53826347 34.1881437,2.54407186 32.6024551,2.69799401 Z M32.7534731,8.61383234 C32.7592814,9.77260479 32.7215269,10.9371856 32.7941317,12.0959581 C34.4930838,11.9246108 36.2820659,12.3660479 37.9171257,11.7503593 C39.1746407,11.2682635 39.1978743,9.25275449 37.8619461,8.84326347 C36.1978443,8.43958084 34.4524251,8.67482036 32.7534731,8.61383234 Z" id="Shape" fill="#2BA3E0"></path>
                            <path d="M15.4735329,2.95224649 C16.6758683,2.46941915 17.9362874,2.57580484 19.1676647,2.61263065 C19.551018,2.61263065 19.9401796,2.68219052 20.2654491,2.9890723 C18.6710479,3.09136623 17.0650299,3.1322838 15.4735329,2.95224649 Z" id="Shape" fill="#019CDE"></path>
                            <path d="M23.3845509,2.95608091 C24.8744012,2.35039742 26.553024,2.46396307 28.054491,2.98257956 C26.4978443,3.05071895 24.9382934,3.09235969 23.3845509,2.95608091 Z" id="Shape" fill="#009CDE"></path>
                            <path d="M32.6024551,2.69799401 C34.1881437,2.54407186 35.7912575,2.53826347 37.3769461,2.71541916 L37.3420958,2.99712575 C35.8493413,2.83739521 34.3420659,2.94775449 32.843503,2.91871257 C32.8464072,3.88290419 32.843503,4.84419162 32.8376946,5.80838323 C34.374012,5.78805389 35.9103293,5.86646707 37.4437425,5.7502994 L37.284012,6.00877246 C35.738982,6.2352994 34.1532934,6.14817365 32.6024551,6.0291018 C32.4543413,4.92260479 32.4630539,3.80449102 32.6024551,2.69799401 Z" id="Shape" fill="#049DDE"></path>
                            <path d="M29.7302096,6.18302395 C30.2094012,8.9391018 29.8057186,11.7532635 29.9770659,14.535479 C32.646018,14.7358683 35.3265868,14.4222156 37.9897305,14.7039222 C35.2162275,15.0785629 32.3933533,14.7736228 29.599521,14.8810778 C29.6924551,11.9826946 29.448503,9.06688623 29.7302096,6.18302395 Z" id="Shape" fill="#0A9DDE"></path>
                        </g>
                    </g>
                    <g id="#019cdeff" transform="translate(15.392216, 2.323353)"></g>
                    <g id="#009cdeff" transform="translate(23.233533, 2.323353)"></g>
                    <g id="#049ddeff" transform="translate(32.236527, 2.323353)"></g>
                    <g id="#0a9ddeff" transform="translate(29.332335, 6.098802)"></g>
                    <g id="#939496ff" transform="translate(0.000000, 16.553892)" fill="#939496" fill-rule="nonzero">
                        <path d="M29.6779341,1.59730539 C30.7815269,1.10359281 31.8705988,0.577934132 32.9596707,0.0522754491 C32.9625749,1.19652695 32.965479,2.34077844 32.9480539,3.48502994 C33.737994,3.09296407 34.5395509,2.71541916 35.3411078,2.34658683 C35.3323952,3.2904491 35.329491,4.23431138 35.344012,5.18107784 C34.5831138,5.59637725 33.7670359,5.90131737 33.0119461,6.32532934 C32.8812575,10.170479 33.0090419,14.0301497 32.9538623,17.8811078 C31.858982,17.8927246 30.7641018,17.8927246 29.6692216,17.8782036 C29.6808383,14.5209581 29.6721257,11.1666168 29.6721257,7.80937126 C28.9954491,8.16077844 28.3013473,8.48314371 27.6014371,8.78517964 C27.5898204,7.8297006 27.5811078,6.87422156 27.6508084,5.91874251 C28.3449102,5.63994012 29.024491,5.32047904 29.6895509,4.97488024 C29.6634132,3.84805389 29.6721257,2.72122754 29.6779341,1.59730539 Z" id="Shape"></path>
                        <path d="M36.5899102,1.77446108 C37.7864371,1.23137725 38.9626347,0.644730539 40.1620659,0.10745509 C40.1359281,2.15781437 40.1823952,4.20817365 40.1301198,6.25562874 C41.6983832,4.92260479 43.8416766,4.21688623 45.8891317,4.63799401 C47.893024,4.93422156 49.6326347,6.30209581 50.591018,8.05622754 C51.5987725,10.0717365 51.6452395,12.5809581 50.5881138,14.5906587 C49.3712575,16.8965868 46.7632934,18.4067665 44.1466168,18.2005689 C42.6364371,18.1831437 41.2947006,17.4164371 40.118503,16.5393713 C40.1417365,16.975 40.1649701,17.4106287 40.1882036,17.8462575 C38.9945808,17.9246707 37.7980539,17.869491 36.6073353,17.9101497 C36.572485,12.5315868 36.6073353,7.15302395 36.5899102,1.77446108 Z M42.7845509,7.66997006 C40.7138623,8.14335329 39.482485,10.4870359 40.133024,12.4851198 C40.679012,14.883982 43.7632635,15.944012 45.8136228,14.7649102 C48.0062874,13.6990719 48.4825749,10.3795808 46.7487725,8.69805389 C45.7787725,7.59736527 44.1582335,7.33889222 42.7845509,7.66997006 Z" id="Shape"></path>
                        <path d="M81.9127246,1.81511976 C83.0889222,1.3155988 84.2360778,0.743473054 85.3977545,0.209101796 C85.4064671,3.40080838 85.4006587,6.59541916 85.4006587,9.79002994 C88.7956587,12.5112575 92.2400299,15.171497 95.6234132,17.9101497 C94.1422754,17.8607784 92.6611377,17.9130539 91.1829042,17.884012 C90.8285928,17.9217665 90.5643114,17.6603892 90.3029341,17.4716168 C88.6823952,16.156018 87.0299102,14.8810778 85.3861377,13.594521 C85.3222455,15.0146707 85.5749102,16.5132335 85.2815868,17.8869162 C84.1721856,18.1163473 83.0279341,17.9740419 81.904012,18.0030838 C81.9185329,12.6070958 81.9011078,7.21110778 81.9127246,1.81511976 Z" id="Shape"></path>
                        <path d="M90.0357485,5.25077844 C92.4491317,4.07167665 94.7695808,2.6660479 96.7850898,0.877065868 C96.3000898,2.0794012 95.6147006,3.20041916 94.7899102,4.19946108 C93.9360778,5.2304491 92.6262874,5.7154491 91.3600599,6.00877246 C91.9147605,6.05814371 92.4694611,6.0958982 93.0270659,6.12784431 C91.467515,7.51314371 89.9399102,9.06398204 87.9389222,9.78712575 C87.4858683,9.98461078 86.9892515,9.93814371 86.5129641,9.91781437 C86.3270958,8.61673653 86.7830539,7.36793413 87.2215868,6.16850299 C88.1886826,5.96230539 89.1470659,5.69511976 90.0357485,5.25077844 Z" id="Shape"></path>
                        <path d="M3.45598802,6.24401198 C4.44922156,5.41631737 5.62251497,4.70479042 6.94392216,4.62637725 C8.54122754,4.4695509 10.2634132,5.24787425 11.0359281,6.68835329 C11.4512275,7.5857485 11.6109581,8.5905988 11.5964371,9.57511976 C11.5819162,12.3457186 11.5964371,15.1192216 11.5906287,17.8898204 C10.5567365,17.8869162 9.5257485,17.8869162 8.49476048,17.8898204 C8.45991018,15.2121557 8.57317365,12.5286826 8.38149701,9.85682635 C8.30017964,9.13658683 8.07655689,8.33793413 7.43763473,7.91392216 C6.53443114,7.32727545 5.25368263,7.54218563 4.50730539,8.29437126 C3.79287425,9.01170659 3.46760479,10.0426946 3.47922156,11.0417365 C3.45308383,13.3244311 3.4995509,15.6071257 3.46179641,17.8898204 C2.36110778,17.8898204 1.26332335,17.9043413 0.165538922,17.8578743 C0.194580838,13.5480539 0.165538922,9.23532934 0.18005988,4.92260479 C1.2807485,4.93131737 2.38143713,4.92841317 3.48212575,4.9197006 C3.47631737,5.36113772 3.46760479,5.80257485 3.45598802,6.24401198 Z" id="Shape"></path>
                        <path d="M13.8326647,8.01847305 C15.4125449,5.13461078 19.2896407,3.71446108 22.3535629,4.92841317 C24.3284132,5.66317365 25.6933832,7.47248503 26.4107186,9.39215569 C23.2277246,10.8500599 20.0244012,12.2731138 16.9023952,13.852994 C17.5442216,14.5151497 18.2731737,15.2005389 19.2315569,15.3312275 C21.2005988,15.6158383 23.1986826,14.3263772 23.901497,12.4909281 C24.9150599,12.4851198 25.9286228,12.488024 26.9421856,12.488024 C26.2016168,17.0388922 20.2799701,19.809491 16.3564072,17.3409281 C13.3331437,15.4967665 12.0698204,11.1375749 13.8326647,8.01847305 Z M18.9411377,7.37664671 C17.126018,7.78904192 15.8278443,9.5257485 15.9469162,11.3873353 C18.1163473,10.4057186 20.2741617,9.39796407 22.431976,8.3844012 C21.5287725,7.48991018 20.1928443,7.00491018 18.9411377,7.37664671 Z" id="Shape"></path>
                        <path d="M52.8620958,8.73 C53.6781737,6.5489521 55.7720958,4.90517964 58.0809281,4.61476048 C60.0673952,4.26916168 62.1322754,4.98068862 63.610509,6.31661677 C63.5988922,5.85194611 63.5872754,5.38727545 63.5756587,4.92550898 C64.7489521,4.93131737 65.9193413,4.93131737 67.0897305,4.92550898 C67.0926347,9.2498503 67.1071557,13.5770958 67.0839222,17.9043413 C65.9251497,17.884012 64.7634731,17.8811078 63.6047006,17.8985329 C63.5988922,17.4367665 63.595988,16.9720958 63.595988,16.5103293 C62.3762275,17.5326048 60.8515269,18.2673653 59.2280838,18.2092814 C55.9695808,18.3341617 52.8679042,15.7087725 52.4758383,12.4676946 C52.3422455,11.2188922 52.3741916,9.9061976 52.8620958,8.73 Z M58.5107485,7.72805389 C55.850509,8.44538922 55.1360778,12.2731138 57.0441317,14.1027545 C58.4352395,15.5897006 60.9764072,15.5984132 62.4865868,14.2915269 C64.1535928,12.8336228 64.1681138,9.86553892 62.4546407,8.43667665 C61.3655689,7.56832335 59.8321557,7.31856287 58.5107485,7.72805389 Z" id="Shape"></path>
                        <path d="M72.0239521,6.19173653 C73.1711078,5.25368263 74.5447904,4.45793413 76.0782036,4.51892216 C77.5593413,4.68155689 79.1072754,5.39889222 79.8304192,6.76386228 C80.2747605,7.62931138 80.3822156,8.6254491 80.3851198,9.58383234 C80.3764072,12.3892814 80.358982,15.1976347 80.3967365,18.0030838 C79.2960479,18.0088922 78.1982635,18.005988 77.100479,18.005988 C76.9610778,14.9391617 77.5477246,11.8287725 76.7955389,8.81131737 C76.3395808,7.31856287 74.2166168,7.14140719 73.220479,8.16949102 C72.2243413,9.0058982 72.0558982,10.382485 72.0326647,11.6022455 C72.0152395,13.7048802 72.0617066,15.807515 72.0123353,17.9101497 C70.9523054,17.884012 69.8922754,17.8723952 68.8351497,17.9101497 C68.7044611,13.5858084 68.8119162,9.25275449 68.7799701,4.92550898 C69.8632335,4.92841317 70.9435928,4.92841317 72.0268563,4.92550898 C72.0239521,5.34661677 72.0239521,5.76772455 72.0239521,6.19173653 Z" id="Shape"></path>
                    </g>
                </g>
            </g>
        </g>
    </g>
</svg>