<?xml version="1.0" encoding="UTF-8"?>
<svg width="87px" height="25px" viewBox="0 0 87 25" version="1.1" xmlns="http://www.w3.org/2000/svg" xmlns:xlink="http://www.w3.org/1999/xlink">
    <!-- Generator: Sketch 51.3 (57544) - http://www.bohemiancoding.com/sketch -->
    <title>Bank_Mandiri_logo</title>
    <desc>Created with Sketch.</desc>
    <defs>
        <linearGradient x1="-0.816508089%" y1="46.3978601%" x2="106.004264%" y2="284.058889%" id="linearGradient-1">
            <stop stop-color="#FDB913" offset="0%"></stop>
            <stop stop-color="#FFCB05" offset="22.4719%"></stop>
            <stop stop-color="#FAA61A" offset="39.3258%"></stop>
            <stop stop-color="#FFCB05" offset="52.809%"></stop>
            <stop stop-color="#FAA61A" offset="64.6067%"></stop>
            <stop stop-color="#FFCB05" offset="76.4045%"></stop>
            <stop stop-color="#FFCB05" offset="100%"></stop>
        </linearGradient>
    </defs>
    <g id="Page-1" stroke="none" stroke-width="1" fill="none" fill-rule="evenodd">
        <g id="m7-withdraw-balance-0-1366-copy" transform="translate(-200.000000, -985.000000)" fill-rule="nonzero">
            <g id="Bank_Mandiri_logo" transform="translate(200.000000, 985.000000)">
                <g id="Group-16" transform="translate(0.000000, 9.000000)" fill="#003D79">
                    <g id="g19736" transform="translate(9.074601, 10.138103) scale(-1, 1) rotate(-180.000000) translate(-9.074601, -10.138103) translate(0.574601, 4.638103)">
                        <path d="M0.485714286,7.38461538 C0.485714286,8.56246154 0.463857143,9.552 0.396828571,10.4349231 L2.74428571,10.4349231 L2.85551429,8.91830769 L2.92108571,8.91830769 C3.45148571,9.71861538 4.42582857,10.6670769 6.24191429,10.6670769 C7.65971429,10.6670769 8.76568571,9.90784615 9.23002857,8.77338462 L9.27568571,8.77338462 C9.65162857,9.34107692 10.0936286,9.76153846 10.6026571,10.0550769 C11.2005714,10.4547692 11.8883429,10.6670769 12.7728286,10.6670769 C14.5660857,10.6670769 16.3807143,9.51 16.3807143,6.22569231 L16.3807143,0.189230769 L13.7248286,0.189230769 L13.7248286,5.84861538 C13.7248286,7.55123077 13.1050571,8.56246154 11.7984857,8.56246154 C10.8688286,8.56246154 10.1815429,7.93107692 9.89448571,7.194 C9.82842857,6.94384615 9.76188571,6.62630769 9.76188571,6.33369231 L9.76188571,0.189230769 L7.10502857,0.189230769 L7.10502857,6.12369231 C7.10502857,7.55123077 6.50808571,8.56246154 5.24474286,8.56246154 C4.22814286,8.56246154 3.54182857,7.80507692 3.29605714,7.09015385 C3.18628571,6.83815385 3.1416,6.54276923 3.1416,6.24923077 L3.1416,0.189230769 L0.485714286,0.189230769 L0.485714286,7.38461538 Z" id="path19738"></path>
                    </g>
                    <g id="g19740" transform="translate(23.076973, 10.257132) scale(-1, 1) rotate(-180.000000) translate(-23.076973, -10.257132) translate(18.076973, 4.757132)">
                        <path d="M9.22857143,2.76923077 C9.22857143,1.84430769 9.27228571,0.940615385 9.38254286,0.308307692 L6.92482857,0.308307692 L6.74802857,1.44369231 L6.681,1.44369231 C6.01654286,0.643384615 4.88725714,0.0775384615 3.4952,0.0775384615 C1.32405714,0.0775384615 0.106857143,1.56969231 0.106857143,3.12738462 C0.106857143,5.71661538 2.51794286,7.01861538 6.50517143,6.99830769 L6.50517143,7.16630769 C6.50517143,7.83969231 6.21617143,8.95476923 4.31217143,8.95476923 C3.24894286,8.95476923 2.14248571,8.63861538 1.41197143,8.19784615 L0.881085714,9.88061538 C1.67814286,10.344 3.07262857,10.7861538 4.77651429,10.7861538 C8.2314,10.7861538 9.22857143,8.70138462 9.22857143,6.47307692 L9.22857143,2.76923077 Z M6.57074286,5.31369231 C4.64391429,5.35661538 2.80742857,4.95738462 2.80742857,3.40061538 C2.80742857,2.39076923 3.4952,1.92738462 4.35734286,1.92738462 C5.44048571,1.92738462 6.239,2.60261538 6.48234286,3.33830769 C6.54791429,3.52846154 6.57074286,3.73707692 6.57074286,3.90553846 L6.57074286,5.31369231 Z" id="path19742"></path>
                    </g>
                    <g id="g19744" transform="translate(34.200904, 10.138103) scale(-1, 1) rotate(-180.000000) translate(-34.200904, -10.138103) translate(28.700904, 4.638103)">
                        <path d="M0.485714286,7.38461538 C0.485714286,8.56246154 0.4624,9.552 0.398771429,10.4349231 L2.78751429,10.4349231 L2.92011429,8.89707692 L2.98762857,8.89707692 C3.45197143,9.69738462 4.62594286,10.6670769 6.41871429,10.6670769 C8.30134286,10.6670769 10.2485714,9.51 10.2485714,6.26861538 L10.2485714,0.189230769 L7.52614286,0.189230769 L7.52614286,5.97323077 C7.52614286,7.44692308 6.94911429,8.56246154 5.46671429,8.56246154 C4.38308571,8.56246154 3.62877143,7.82630769 3.34171429,7.04723077 C3.2538,6.816 3.23097143,6.50076923 3.23097143,6.20723077 L3.23097143,0.189230769 L0.485714286,0.189230769 L0.485714286,7.38461538 Z" id="path19746"></path>
                    </g>
                    <g id="g19748" transform="translate(45.568950, 8.357193) scale(-1, 1) rotate(-180.000000) translate(-45.568950, -8.357193) translate(40.068950, 0.857193)">
                        <path d="M10.6857143,14.7692308 L10.6857143,3.29076923 C10.6857143,2.23938462 10.7313714,1.10215385 10.7746,0.408461538 L8.34068571,0.408461538 L8.22994286,2.02753846 L8.18477143,2.02753846 C7.54265714,0.891692308 6.23608571,0.177692308 4.66528571,0.177692308 C2.09634286,0.177692308 0.0612,2.26015385 0.0612,5.41384615 C0.0378857143,8.844 2.29548571,10.8858462 4.88628571,10.8858462 C6.36868571,10.8858462 7.43191429,10.2969231 7.9186,9.53676923 L7.96377143,9.53676923 L7.96377143,14.7692308 L10.6857143,14.7692308 Z M7.96377143,6.38353846 C7.96377143,6.59307692 7.94191429,6.84553846 7.89674286,7.05738462 C7.6534,8.06492308 6.79125714,8.886 5.55074286,8.886 C3.80168571,8.886 2.82637143,7.41323077 2.82637143,5.49923077 C2.82637143,3.62861538 3.80168571,2.26015385 5.52937143,2.26015385 C6.63388571,2.26015385 7.6092,2.97553846 7.8744,4.09107692 C7.94191429,4.32184615 7.96377143,4.57523077 7.96377143,4.848 L7.96377143,6.38353846 Z" id="path19750"></path>
                    </g>
                    <polygon id="path19752" points="52.680813 5.20354894 55.4275272 5.20354894 55.4275272 15.4487797 52.680813 15.4487797"></polygon>
                    <g id="g19754" transform="translate(60.366019, 10.391580) scale(-1, 1) rotate(-180.000000) translate(-60.366019, -10.391580) translate(56.866019, 4.891580)">
                        <path d="M0.485714286,7.38461538 C0.485714286,8.77338462 0.463857143,9.76338462 0.398771429,10.6883077 L2.7676,10.6883077 L2.85454286,8.73369231 L2.9444,8.73369231 C3.47577143,10.1833846 4.73668571,10.6883077 5.89025714,10.6883077 C6.15448571,10.6883077 6.30942857,10.7303077 6.52994286,10.6883077 L6.52994286,8.41523077 C6.30942857,8.45769231 6.06657143,8.49923077 5.73434286,8.49923077 C4.4268,8.49923077 3.54085714,7.70030769 3.298,6.54507692 C3.25525714,6.31292308 3.21008571,6.03830769 3.21008571,5.74338462 L3.21008571,0.442615385 L0.485714286,0.442615385 L0.485714286,7.38461538 Z" id="path19756"></path>
                    </g>
                    <polygon id="path19758" points="64.6594987 5.20354894 67.402813 5.20354894 67.402813 15.4487797 64.6594987 15.4487797 64.6594987 5.20354894"></polygon>
                </g>
                <g id="g19760" transform="translate(60.500000, 5.500000) scale(-1, 1) rotate(-180.000000) translate(-60.500000, -5.500000) translate(34.000000, 0.000000)" fill="url(#linearGradient-1)">
                    <g id="g19762">
                        <g id="g19768">
                            <g id="g19770">
                                <path d="M30.0393659,9.54845833 C28.3902256,8.644625 23.01525,5.74108333 23.01525,5.74108333 C20.9972104,4.95458333 19.4513232,5.9125 18.9505701,6.61466667 C18.9282713,6.64125 18.9059726,6.672875 18.8914299,6.699 L18.825503,6.80579167 L18.4847195,7.33195833 C18.3392927,7.54920833 18.1773841,7.772875 17.9917226,8.0025 C17.825936,8.20325 17.6417287,8.40216667 17.4415244,8.59420833 C16.1462561,9.83216667 14.0729543,10.701625 10.6190671,9.14833333 C8.53025305,8.02129167 3.67299695,5.39504167 3.67299695,5.39504167 C3.6725122,5.39366667 3.6725122,5.39366667 3.67202744,5.39366667 C1.67337805,4.313375 0.116341463,3.47279167 0.116341463,3.47279167 L1.95599085,1.33695833 C2.72966159,0.639833333 4.18489939,-0.503708333 6.43610671,0.460625 C6.43610671,0.460625 12.6487409,3.86191667 12.6729787,3.872 C17.9844512,6.62795833 20.6060122,3.994375 21.7640945,2.23895833 C21.8043293,2.184875 21.8377774,2.12483333 21.8731646,2.07166667 L21.8760732,2.069375 C21.8896463,2.04829167 21.8998262,2.028125 21.9109756,2.00795833 L22.043314,1.80491667 C22.6066006,0.995958333 23.4980671,0.473458333 24.5587134,0.497291667 C25.1442988,0.508291667 25.5417988,0.688875 26.119628,0.99275 L32.1310884,4.28908333 C32.1349665,4.29091667 32.137875,4.29320833 32.1441768,4.294125 C37.5210915,7.08354167 40.1862805,4.27808333 41.3249726,2.523125 C41.4131982,2.37095833 41.514997,2.22658333 41.6167957,2.09091667 C42.1800823,1.36858333 42.9581159,0.895125 43.9450793,0.9185 C44.5965915,0.930875 45.3285732,1.30075 45.436189,1.36858333 L52.6440274,5.300625 C52.6440274,5.300625 51.9067134,6.35204167 50.3903963,7.9915 C49.0345335,9.45404167 47.5923841,8.79220833 46.4469055,8.25366667 C45.9655427,8.02908333 42.4859634,6.164125 42.4859634,6.164125 C40.5799024,5.42070833 39.0950945,6.23195833 38.5124177,6.91441667 C38.4523079,6.98683333 38.400439,7.05375 38.360689,7.11975 L38.2264116,7.34204167 C38.0174817,7.67525 37.7683171,8.05108333 37.4614665,8.42233333 C37.2971341,8.62354167 37.1138963,8.82475 36.9127226,9.01495833 C36.1114207,9.780375 35.0153872,10.4041667 33.4811341,10.404625 C32.5179238,10.404625 31.3831098,10.1589583 30.0393659,9.54845833" id="path19788"></path>
                            </g>
                        </g>
                    </g>
                </g>
            </g>
        </g>
    </g>
</svg>