<?xml version="1.0" encoding="UTF-8"?>
<svg width="128px" height="36px" viewBox="0 0 128 36" version="1.1" xmlns="http://www.w3.org/2000/svg" xmlns:xlink="http://www.w3.org/1999/xlink">
    <!-- Generator: Sketch 51.3 (57544) - http://www.bohemiancoding.com/sketch -->
    <title>Group 17</title>
    <desc>Created with Sketch.</desc>
    <defs></defs>
    <g id="Page-1" stroke="none" stroke-width="1" fill="none" fill-rule="evenodd">
        <g id="m7-withdraw-balance-0-1366-copy" transform="translate(-180.000000, -1345.000000)" fill-rule="nonzero">
            <g id="Group-17" transform="translate(180.000000, 1345.000000)">
                <polygon id="path236" fill="#FFC20E" points="127.980025 4.86686128e-14 0 4.86686128e-14 0 35.5273161 127.980025 35.5273161 127.980025 0"></polygon>
                <g id="g266" transform="translate(64.277592, 17.881250) scale(-1, 1) rotate(-180.000000) translate(-64.277592, -17.881250) translate(7.277592, 5.881250)" fill="#000000">
                    <g id="Maybank_(2012)_(Print)" transform="translate(57.000000, 11.735184) scale(1, -1) translate(-57.000000, -11.735184) translate(0.000000, 0.235184)">
                        <g id="Group-19" transform="translate(25.000000, 3.000000)">
                            <path d="M47.2430701,7.00703075 C46.8244361,7.00703075 46.3802054,7.10190125 46.0933364,7.21183041 L46.0933364,12.5185293 C46.3146979,12.589303 46.7348362,12.6427627 47.1557301,12.6427627 C48.6585914,12.6427627 49.543292,11.5969343 49.543292,9.75374416 C49.543292,8.00391913 48.7015087,7.00703075 47.2430701,7.00703075 M46.9132826,15.0039725 C45.1438816,15.0039725 43.4414924,14.6734318 42.4446028,14.2916934 L42.4446028,0.323965782 L46.0933364,0.323965782 L46.0933364,5.0192795 C46.5586519,4.85212673 47.3552568,4.72488067 47.9734188,4.72488067 C51.0702467,4.72488067 53.1927765,6.45211714 53.1927765,9.49247508 C53.1927765,13.2225247 50.9603187,15.0039725 46.9132826,15.0039725" id="path4065"></path>
                            <path d="M60.4885805,10.2136381 C58.5241678,10.2942032 57.0408825,10.4749072 57.0408825,11.6562659 C57.0408825,12.4634133 57.8593234,12.906894 59.1619058,12.906894 C59.6723973,12.906894 60.2476408,12.8338594 60.4885805,12.7547997 L60.4885805,10.2136381 Z M59.2718361,15.0038228 C55.5154332,15.0038228 53.6564312,13.8495694 53.6564312,11.7262886 C53.6564312,9.09176303 56.8872839,8.48037942 60.4885805,8.32075689 L60.4885805,7.93299343 C60.4885805,7.14165685 59.8282557,6.76895433 58.5874156,6.76895433 C57.4369286,6.76895433 56.0665822,7.08744498 55.2074816,7.37807925 L54.3197702,5.35117422 C55.3806585,5.00331634 56.8564133,4.56360253 59.0354114,4.56360253 C62.2843348,4.56360253 63.9212187,5.66063137 63.9212187,8.29666121 L63.9212187,14.2922969 C63.0139302,14.6732831 61.176764,15.0038228 59.2718361,15.0038228 Z" id="path4069"></path>
                            <path d="M72.012052,14.7823819 L72.012052,8.33573728 C72.012052,7.50449648 71.5444767,6.95861818 70.2411432,6.95861818 C69.5604902,6.95861818 68.9588935,7.21235566 68.9588935,7.21235566 L68.9588935,14.7823819 L65.3109155,14.7823819 L65.3109155,5.35109731 C66.6413543,4.92418189 68.2104742,4.56352528 70.2863204,4.56352528 C74.0246504,4.56352528 75.6607844,5.82544695 75.6607844,7.98938799 L75.6607844,14.7823819 L72.012052,14.7823819 Z" id="path4073"></path>
                            <polygon id="path4077" points="84.375192 14.7823819 80.7257063 9.82579977 80.6805326 9.82579977 80.6805326 14.7823819 77.0777306 14.7823819 77.0777306 0.323738439 80.6805326 0.323738439 80.6805326 9.11276847 80.7257063 9.11276847 84.020559 4.85265244 88.1338513 4.85265244 84.4196147 9.47719066 88.4448161 14.7823819"></polygon>
                            <polygon id="path4081" points="35.5798698 18.7518648 31.7541975 18.7518648 33.543929 14.782383 29.0549211 4.85265402 33.0244028 4.85265402 35.4466017 11.9061656 37.8439504 4.85265402 41.8164441 4.85265402"></polygon>
                            <polygon id="path4085" points="16.5968924 1.44719573 12.3488242 1.44719573 9.54413481 9.68582929 6.73568019 1.44719573 2.487612 1.44719573 0.565365597 14.7824579 4.0364026 14.7824579 5.14171359 5.61771146 8.39439996 14.7824579 10.6923631 14.7824579 13.9450495 5.61771146 15.0518659 14.7824579 18.5229052 14.7824579"></polygon>
                            <path d="M25.817425,10.2136381 C23.848496,10.2942032 22.3667161,10.4749072 22.3667161,11.6562659 C22.3667161,12.4634133 23.1859125,12.906894 24.4907514,12.906894 C24.9974787,12.906894 25.5712157,12.8338594 25.817425,12.7547997 L25.817425,10.2136381 Z M24.6014327,15.0038228 C20.8397603,15.0038228 18.9845246,13.8495694 18.9845246,11.7262886 C18.9845246,9.09176303 22.2131175,8.48037942 25.817425,8.32075689 L25.817425,7.93299343 C25.817425,7.14165685 25.154087,6.76895433 23.9155079,6.76895433 C22.7642665,6.76895433 21.3931702,7.08744498 20.5318098,7.37807925 L19.6456027,5.35117422 C20.7079975,5.00331634 22.4992333,4.56360253 24.3582342,4.56360253 C27.6101673,4.56360253 29.2447948,5.66063137 29.2447948,8.29666121 L29.2447948,14.2922969 C28.340516,14.6732831 26.5018444,15.0038228 24.6014327,15.0038228 Z" id="path4089"></path>
                        </g>
                        <g id="Group-18">
                            <path d="M11.1095798,21.3238954 C5.46782629,21.3238954 0.89373513,16.7490516 0.89373513,11.1065447 C0.89373513,5.46554287 5.46782629,0.880912508 11.1095798,0.880912508 C16.7550982,0.880912508 21.3269289,5.46554287 21.3269289,11.1065447 C21.3269289,16.7490516 16.7550982,21.3238954 11.1095798,21.3238954 M11.1095798,-2.44902321e-05 C4.97389857,-2.44902321e-05 0,4.9701111 0,11.1065447 C0,17.2437323 4.97389857,22.2161252 11.1095798,22.2161252 C17.2460137,22.2161252 22.2184066,17.2437323 22.2184066,11.1065447 C22.2184066,4.9701111 17.2460137,-2.44902321e-05 11.1095798,-2.44902321e-05" id="path4093"></path>
                            <path d="M6.67802189,10.5982371 C5.88292269,10.3941907 5.18344362,11.3248193 4.79492757,12.0273094 C4.93045714,11.0658112 6.11181462,9.49142089 6.67802189,10.5982371" id="path4097"></path>
                            <path d="M4.93023093,10.609231 C5.196771,9.69666945 5.82848392,9.36161393 6.1665539,9.63116414 C5.70726201,9.7734683 5.37446393,10.0452809 4.93023093,10.609231" id="path4101"></path>
                            <path d="M6.95962063,12.0750469 C7.369217,11.7302031 7.32705421,11.2197116 6.69232774,11.0518053 C6.22324953,10.9328426 5.21054933,11.7814007 5.10062119,12.7157957 C5.50720594,12.1962707 6.67802189,11.2392876 6.95962063,12.0750469" id="path4105"></path>
                            <path d="M12.0168713,11.5122268 C11.7977651,10.2789171 13.8404831,8.30848244 12.550704,6.29061171 C14.987206,8.25577666 13.0785106,9.42132266 14.3088105,11.0544429 C13.8314472,10.9098779 13.360109,10.487482 13.2170517,10.2653639 C12.5326323,11.1666285 14.8960996,12.4059632 13.3367688,14.5081626 C13.4098023,13.3057213 12.2412447,12.744031 12.0168713,11.5122268 Z" id="path4109"></path>
                            <path d="M9.41472073,4.81184355 C9.7023418,4.81410224 10.1992819,5.01739524 9.99674233,5.24854665 C9.32135701,5.87724931 8.40804365,5.6182388 7.68371983,6.25748287 C7.98112971,5.46614606 9.30404068,5.35320516 9.41472073,4.81184355" id="path4113"></path>
                            <path d="M8.58242343,7.46737637 C8.49433012,7.46737637 8.4137657,7.34464723 8.39042443,7.18351906 C8.50637603,7.47716462 8.79776358,7.3371179 8.63211645,6.91246253 C8.73602203,6.91472121 8.90091589,6.92902706 9.20736119,6.91088451 C8.88661016,7.07728253 8.74505871,7.47031663 8.58242343,7.46730433 M11.6062169,5.70242087 C11.8885697,5.38317536 11.6295582,4.94797847 10.4685294,4.80567238 C11.6784983,5.39221067 9.73291166,5.52246891 9.66589981,6.53968581 C9.03117334,6.78740176 8.5229417,6.37479218 8.20670769,6.65940265 C7.90252096,6.93497769 7.55089978,6.74448422 7.65329892,6.42749819 C7.28661998,6.61497914 7.36040619,7.11417637 7.71729893,7.26928153 C7.78732388,7.30015122 7.84981495,7.36565789 7.79635806,7.41685735 C7.40558332,7.78654939 7.22186659,8.11031182 7.63071093,8.47322768 C7.85508651,8.06287748 7.96802763,7.91454849 8.21724967,7.71426678 C8.44990615,7.86786584 8.86101031,7.75869052 9.41441784,7.1586 C9.44077095,7.12396473 9.4784192,7.13676539 9.46411086,7.17441137 C9.02514965,8.68706129 7.90252096,8.93101303 7.54336965,8.85948414 C7.75795778,9.18701203 9.18703302,9.38578539 9.36773541,8.74880284 C9.77356926,7.30918654 11.1582193,6.68274324 9.96104975,6.71060234 C10.2855659,6.33037037 11.3728065,5.97573666 11.6062169,5.70242087" id="path4117"></path>
                            <path d="M12.2102992,4.92802239 C12.7893091,5.30373755 13.0626226,5.54994888 13.4405981,6.00020432 C13.5121262,5.38580852 13.1642703,4.17056769 12.6470017,3.891229 C12.4248858,3.77075889 12.1041353,4.62082449 12.2102992,4.92802239" id="path4121"></path>
                            <path d="M2.96115111,9.861489 C3.33460702,8.87514247 4.24415514,7.70131444 5.71991111,6.82941264 C6.0602392,5.94847734 5.94805147,5.35365668 9.52224124,3.96599481 C9.61259436,3.44044457 9.59678333,2.8042145 9.74586354,2.8042145 C9.89946227,2.8042145 10.426518,3.04364807 10.8037389,3.58275065 C10.9603507,3.57070588 11.0981395,3.55489155 11.1937592,3.53531472 C11.2585137,3.22886998 11.4723475,2.38482739 11.7524382,1.94812441 C12.0084378,1.5468094 12.5053772,1.50389187 13.1476314,2.03471207 C13.8124736,2.5760738 14.2815554,2.80044915 15.193359,3.96599481 C15.9643652,4.31159332 17.1698196,4.75507248 18.2133882,6.03657121 C17.7593673,5.73313719 17.2466195,5.62170261 16.8242213,5.57652594 C17.6757925,6.32118168 18.2367306,7.55373851 17.8113205,9.35401051 C17.6426633,7.67119598 16.4055884,6.96418951 15.6496398,6.43261625 C16.0592357,7.85039477 14.2815554,7.35797529 13.7386857,6.29106333 C13.9178842,6.34828603 14.1038611,6.34075681 14.216049,6.27073504 C14.1543066,4.10001863 13.1363368,2.85240189 12.6823159,2.4804506 C12.0972844,1.99480707 11.7863219,3.15959956 11.5882995,4.02999527 C11.5265583,4.32138157 11.2765833,4.52994396 10.9603507,4.52090865 C11.0311251,4.41549868 11.109431,4.13390062 11.1214781,4.04204129 C10.2239771,4.11808766 9.21052562,4.64740325 8.5885997,4.9274951 C7.00818443,5.64203249 6.61213927,5.99892376 6.26277791,7.19684713 C5.01064493,7.72917343 3.56575968,9.17104581 2.96115111,9.861489" id="path4125"></path>
                            <path d="M10.8456014,9.55707628 C11.0217893,9.75886228 12.0631001,11.3324996 10.8561495,13.3338079 C11.1859348,11.8618149 10.2681055,9.04131451 9.25540485,10.485448 C9.94283744,10.7813506 10.167213,11.3422899 9.98274426,11.8889203 C9.70189744,11.3611126 8.98736107,10.7926463 8.27884714,11.0268089 C7.92571941,11.153301 7.45664007,11.1563141 7.10652543,10.6315172 C6.65024414,9.96968585 7.41598122,9.13994979 6.11189653,9.20620837 C7.6892978,8.40734132 7.23226573,9.95914343 7.99273126,10.1496377 C8.87743066,10.3559416 8.98133624,9.81458183 9.28627749,9.46371267 C9.53098,9.16479761 9.98274426,8.94117394 10.4578459,9.25891324 C10.6844801,8.5699766 10.3539402,7.47520701 10.9999607,6.89921024 C11.2386409,6.68537641 11.9976016,6.71549317 12.3906345,7.02344389 C11.8319551,7.01667237 11.174642,7.68376941 10.8456076,9.55707628" id="path4129"></path>
                            <path d="M7.24415554,15.9143462 C7.16810826,15.852605 6.95954371,15.5807958 6.97912111,15.2894105 C7.24415554,15.4603253 7.60405763,15.5461599 7.60405763,15.5461599 C7.60405763,15.5461599 7.43389461,15.8352877 7.24415554,15.9143462 M8.82983988,14.1803343 C8.98720236,14.2036744 9.12197809,14.3301677 9.26428531,14.2255091 C9.40357558,14.1216039 9.25825458,13.7022188 9.14833121,13.5614191 C9.28611867,13.5380789 9.83500916,13.5930429 9.80715086,13.7888056 C9.74239882,14.3120982 9.41713064,14.4762369 8.63256932,14.8527047 C8.76659439,14.7292245 8.74475717,14.4536478 8.82983988,14.1803343 M5.68934102,13.7579361 C5.75635174,13.5960538 6.05752628,13.3882444 6.19155022,13.3746912 C6.13809173,13.8272067 6.30373829,14.4446142 6.30373829,14.4446142 C6.30373829,14.4446142 5.6946128,14.0591094 5.68934102,13.7579361 M3.68652963,11.7513582 C3.39966013,11.5510805 2.94940503,11.0819987 2.90196979,10.9118348 C2.95844069,10.8478349 3.19862775,10.5903322 3.50507158,10.5022378 C3.72643475,10.444263 3.87175132,10.5669898 3.83937644,10.6340005 C3.8077529,10.7145657 3.61048326,10.7145657 3.55250683,10.8832229 C3.46290823,11.1399746 3.74826981,11.2212907 3.8077529,11.3372427 C3.84163478,11.411785 3.91993939,11.6030314 3.68652963,11.7513582 M18.9139202,6.80531912 C19.7180568,9.60774845 19.4929278,12.3062736 18.6639445,13.9213216 C18.7678509,12.9108811 17.8801384,11.4328665 18.2370301,9.70638373 C16.5564768,11.3372427 19.1827175,15.339856 15.3721061,17.9683588 C15.9405713,17.0497757 16.1995839,14.772894 15.9962908,13.9424065 C16.1995839,14.0259813 16.4058867,14.2736982 16.5361452,14.4890369 C16.8508729,13.4401953 16.8915338,11.9599231 16.2914402,10.4570618 C16.5007572,10.4871803 16.9276728,10.6746603 17.1241887,10.8568708 C17.2190603,8.54234292 15.5241982,8.36916691 15.2057075,7.74046629 C15.2057075,8.41735589 15.9962908,8.98582378 16.1416068,9.87127588 C15.5859394,9.60774845 15.1823662,9.58139545 14.8962505,9.60774845 C15.3254236,9.92247579 16.2778892,11.7701833 15.9962908,13.2474447 C15.5859394,12.9026008 15.2057075,12.7437315 14.7946028,12.7068359 C15.2990703,13.4763377 15.5046221,15.4776438 14.875169,16.3992377 C14.8578505,16.1899207 14.7825572,15.5890773 14.5453815,15.339856 C14.2472191,16.4632376 13.3715521,16.9338226 12.7692044,17.0776332 C13.5168693,16.2968379 13.3715521,14.9099297 12.2775357,14.5417422 C11.2949545,14.2059331 10.0428204,14.8737873 9.53458755,17.2146677 C8.8253216,17.4247369 6.69225196,16.9699639 7.96772859,15.5905838 C8.74475717,15.8541116 10.7212176,14.534214 10.5887003,13.6043364 C10.3967027,12.3130508 9.22211991,11.8597831 8.28772386,11.8673113 C7.13422627,11.8883928 6.35493662,12.9643408 5.41226113,13.428903 C4.62544181,13.3106901 4.35664339,13.1992556 3.95683346,12.1466522 C3.90488038,11.5081621 4.58779492,11.057152 4.57725374,10.393814 C4.01706812,10.5097683 3.87852749,9.6679847 2.78752257,10.5436497 C2.70244066,10.3840272 2.84625307,10.006805 2.84625307,10.006805 C2.44267914,10.3734859 2.36663277,10.8041655 2.35834869,10.8945164 C2.55637116,11.2852929 2.83194552,11.6361607 3.36879055,11.9847698 C4.01255154,13.7067351 4.67287694,13.8979826 5.35503741,13.9619825 C5.47099015,14.1253691 5.9754577,14.7299767 6.61771248,14.827107 C6.5077832,14.5025902 6.49197217,13.5930429 6.55672295,13.3656564 C7.95266822,11.9659471 8.9902142,12.816765 9.12499118,13.1902231 C7.88414982,13.4401953 8.76132148,16.0927915 6.70429923,14.9129416 C6.6214776,15.1847509 6.73516938,15.8616409 6.99643994,16.2576858 C7.20650729,18.0692521 9.49091821,17.631042 10.1994321,17.9450164 C10.1203743,16.1823914 11.0976852,14.894871 11.9372103,15.0010338 C12.7797446,15.1064456 12.9965909,16.4782963 11.562248,17.7763591 C11.9138691,17.9683588 13.4528705,17.7070897 14.2374311,17.1386211 C14.3089591,17.5896312 13.7299504,18.9080222 13.0093909,19.8476879 C19.0449319,18.4600241 21.7404432,11.917758 18.9139202,6.80531912" id="path4133"></path>
                        </g>
                    </g>
                </g>
            </g>
        </g>
    </g>
</svg>