<?xml version="1.0" encoding="UTF-8"?>
<svg width="100px" height="29px" viewBox="0 0 100 29" version="1.1" xmlns="http://www.w3.org/2000/svg" xmlns:xlink="http://www.w3.org/1999/xlink">
    <!-- Generator: Sketch 49.1 (51147) - http://www.bohemiancoding.com/sketch -->
    <title>Group 7 Copy</title>
    <desc>Created with Sketch.</desc>
    <defs></defs>
    <g id="Page-1" stroke="none" stroke-width="1" fill="none" fill-rule="evenodd">
        <g id="m7-withdraw-balance-0-1366" transform="translate(-953.000000, -1179.000000)">
            <g id="Group-7-Copy" transform="translate(953.000000, 1179.000000)">
                <g id="Group-4-Copy" transform="translate(32.663989, 10.593607)" fill="#FFFFFF">
                    <path d="M15.5112873,0.861052523 C15.5112873,0.458641386 15.8452738,0.132420091 16.2565872,0.132420091 C16.6679006,0.132420091 17.0013387,0.458641386 17.0013387,0.861052523 L17.0013387,4.80360856 L16.9985966,4.80360856 C16.9980482,5.70500951 16.6218335,6.52324549 16.0152833,7.11613123 C15.4120236,7.70687078 14.5762347,8.07386973 13.6565379,8.07440628 L13.6565379,8.07762557 L13.6537958,8.07762557 L13.6537958,8.07440628 C12.7330022,8.07440628 11.8961165,7.70579768 11.2901147,7.11291194 C10.6857582,6.52163584 10.3111888,5.70500951 10.3106403,4.80468166 L10.3078983,4.80468166 L10.3078983,0.861052523 C10.3078983,0.458641386 10.6413363,0.132420091 11.0526498,0.132420091 C11.4639632,0.132420091 11.7974013,0.458641386 11.7974013,0.861052523 L11.7974013,4.80468166 L11.7946592,4.80468166 C11.7952076,5.30259837 12.0052516,5.75651814 12.3430771,6.08756836 C12.6798057,6.41700895 13.1443156,6.62197035 13.6537958,6.62197035 L13.6537958,6.61982416 L13.6565379,6.61982416 L13.6565379,6.62197035 C14.1649213,6.62197035 14.6299797,6.4164724 14.9678051,6.08542217 C15.3045337,5.75598159 15.5140294,5.30259837 15.5140294,4.80360856 L15.5112873,4.80360856 L15.5112873,0.861052523" id="Fill-4"></path>
                    <path d="M22.5635772,6.61982416 C22.9665202,6.61982416 23.2931727,6.94604545 23.2931727,7.34845659 C23.2931727,7.75086773 22.9665202,8.07762557 22.5635772,8.07762557 L20.5483249,8.07762557 L20.5483249,8.07440628 C19.792941,8.07440628 19.1068634,7.76535453 18.6099003,7.27012056 C18.1156235,6.77542313 17.8083123,6.09186075 17.8077751,5.3385471 L17.8045515,5.3385471 L17.8045515,0.861052523 C17.8045515,0.458641386 18.1317413,0.132420091 18.5346843,0.132420091 C18.9376273,0.132420091 19.2642798,0.458641386 19.2642798,0.861052523 L19.2642798,5.3385471 L19.2615935,5.3385471 C19.2615935,5.68891306 19.4071902,6.01030543 19.6419717,6.24424043 C19.8746041,6.47710234 20.195884,6.62197035 20.5483249,6.62197035 L20.5483249,6.61982416 L22.5635772,6.61982416" id="Fill-5"></path>
                    <path d="M10.1688121,7.26486891 C10.2171218,7.66365813 9.92451883,8.02546286 9.51608247,8.07263147 C9.10764612,8.11926408 8.73708894,7.83410835 8.68877926,7.43531914 L8.049774,2.1926346 L5.77153357,7.35063003 C5.60903739,7.71940286 5.17095646,7.89038909 4.79271365,7.73173102 C4.61045441,7.65508201 4.47540691,7.51572019 4.40294239,7.35063003 L4.40239342,7.35063003 L2.12415299,2.1926346 L1.48514773,7.43531914 C1.43683805,7.83410835 1.06628087,8.11926408 0.657844517,8.07263147 C0.249408161,8.02546286 -0.0426457925,7.66365813 0.00511491041,7.26486891 L0.747327213,1.17743733 C0.79563689,0.779720128 1.04377296,0.453291861 1.39895887,0.27426552 C1.44562163,0.250145205 1.49448028,0.229240932 1.5438879,0.211016693 C1.562553,0.203512595 1.58176708,0.197080511 1.60153013,0.191184434 C1.66466209,0.171352175 1.73822456,0.155807972 1.82111957,0.145087831 L1.82111957,0.145623838 L1.8266093,0.145087831 L1.83374596,0.144015817 C2.22296824,0.0957751867 2.60670079,0.218520791 2.87514887,0.465084015 C2.92894829,0.514932667 2.98000283,0.572285416 3.02666559,0.63607025 C3.05905503,0.680022825 3.0886996,0.725583421 3.11395239,0.772752037 C3.12932365,0.798480374 3.14304799,0.825280724 3.15567438,0.853689095 L5.0869635,5.22589826 L7.01825261,0.853689095 C7.17800393,0.492956379 7.50629014,0.246393156 7.89057165,0.163848077 C7.96413412,0.147767866 8.03769658,0.137583733 8.10961212,0.134367691 C8.16505845,0.131687656 8.21940684,0.131687656 8.2721083,0.134903698 L8.27650009,0.135439705 L8.27704907,0.135439705 C8.2951652,0.136511719 8.31328132,0.13811974 8.33194643,0.140263768 L8.33743616,0.141335782 L8.33743616,0.14347981 L8.34073,0.144015817 C8.73873586,0.192792455 9.07800154,0.412019321 9.26904436,0.725583421 L9.26849538,0.725583421 C9.30802148,0.790976276 9.3409599,0.860657187 9.36676166,0.933018133 C9.38323086,0.978578728 9.3969552,1.02574734 9.4073857,1.075596 C9.41562031,1.1066844 9.42165902,1.13830882 9.42550183,1.17100524 L9.42659978,1.17743733 L10.1688121,7.26486891" id="Fill-8"></path>
                    <path d="M25.9135165,7.34845659 C25.9135165,7.75086773 25.5795616,8.07762557 25.1676106,8.07762557 C24.7556597,8.07762557 24.4217048,7.75086773 24.4217048,7.34845659 L24.4217048,1.5902215 L22.2987841,1.5902215 C21.8868331,1.5902215 21.5528782,1.26346366 21.5528782,0.861052523 C21.5528782,0.458641386 21.8868331,0.132420091 22.2987841,0.132420091 L28.0364372,0.132420091 C28.4483882,0.132420091 28.7817938,0.458641386 28.7817938,0.861052523 C28.7817938,1.26346366 28.4483882,1.5902215 28.0364372,1.5902215 L25.9135165,1.5902215 L25.9135165,7.34845659" id="Fill-10"></path>
                    <g id="Group-14" transform="translate(29.049531, 0.000000)">
                        <path d="M1.5132713,7.34579269 C1.5132713,7.74967397 1.17967125,8.07762557 0.768158021,8.07762557 C0.356644796,8.07762557 0.0230447406,7.74967397 0.0230447406,7.34579269 L0.0230447406,0.834687976 C0.0230447406,0.430806697 0.356644796,0.103393607 0.768158021,0.103393607 C1.17967125,0.103393607 1.5132713,0.430806697 1.5132713,0.834687976 L1.5132713,7.34579269" id="Fill-11"></path>
                        <path d="M16.8018107,7.25693881 C16.8517409,7.65758904 16.5603896,8.02269772 16.1521684,8.07170198 C15.7439473,8.12016773 15.3724881,7.8347583 15.3225578,7.43410807 L15.0608354,5.36838995 L12.4781784,5.36838995 C12.0666651,5.36838995 11.7325164,5.04097686 11.7325164,4.63709559 C11.7325164,4.23321431 12.0666651,3.90526271 12.4781784,3.90526271 L14.8753801,3.90526271 L14.8073432,3.36890837 L14.8062459,3.36298478 C14.8040511,3.34575251 14.8024051,3.32852024 14.8018564,3.31182648 C14.7826524,3.18904658 14.7541208,3.06411263 14.7157129,2.93810167 C14.6723669,2.79701248 14.6207906,2.66723196 14.56263,2.55252968 C14.2668892,1.97255616 13.731922,1.56652085 13.0553943,1.56652085 L13.0482614,1.56652085 L13.0482614,1.56382831 C12.9193205,1.56382831 12.7931232,1.57944505 12.6729613,1.607986 C12.5610297,1.63437291 12.4496468,1.67583805 12.3404586,1.7302274 C11.7687296,2.01617534 11.3857479,2.64084505 11.3028966,3.36029224 L10.8370636,7.42549193 C10.7920715,7.82668067 10.4239043,8.11585967 10.0156832,8.07170198 C9.60746211,8.02754429 9.31281864,7.66620518 9.35781075,7.26555495 L9.82419241,3.20035525 C9.96191216,2.00002009 10.6406346,0.938620091 11.6650282,0.427037139 C11.8669441,0.326874581 12.0869665,0.246098326 12.3239981,0.190631963 C12.5533481,0.13570411 12.7953179,0.107163166 13.0482614,0.106624658 L13.0482614,0.103393607 L13.0553943,0.103393607 C14.3475458,0.103393607 15.3510894,0.844381126 15.8898974,1.90093455 C15.9935987,2.10449072 16.0780961,2.31181644 16.1422921,2.52129619 C16.1993553,2.7081586 16.2427014,2.9074067 16.272879,3.11634795 C16.2783658,3.1389653 16.2822066,3.16212116 16.28495,3.18581553 L16.2860474,3.19120061 L16.8018107,7.25693881" id="Fill-13"></path>
                    </g>
                    <path d="M48.0811287,7.34845659 C48.0811287,7.75086773 47.7466317,8.07762557 47.3340121,8.07762557 C46.9213925,8.07762557 46.5863454,7.75086773 46.5863454,7.34845659 L46.5863454,1.31980122 C46.5863454,1.27795046 46.5896463,1.23663625 46.5967984,1.19639514 C46.6067013,1.11430326 46.6270572,1.03543068 46.6556655,0.960313936 L46.6567658,0.958167743 L46.6556655,0.957631195 C46.6710699,0.917390082 46.6925262,0.873929679 46.7172833,0.827249987 L46.7189338,0.825103794 L46.7172833,0.824567246 C46.8421695,0.603509395 47.0451784,0.431813977 47.3010026,0.345966268 C47.3351124,0.335235304 47.3692223,0.325577437 47.4038824,0.319675407 C47.43029,0.313236829 47.4566977,0.307871347 47.4831054,0.30411551 L47.4891571,0.303042413 L47.4891571,0.30089622 C47.5392216,0.293921094 47.599189,0.290701805 47.6679589,0.29231145 L47.6872145,0.29231145 C47.9936534,0.30411551 48.2797363,0.442544941 48.4772436,0.68774746 L52.4543465,5.63418515 L52.4543465,0.861052523 C52.4543465,0.458641386 52.7893936,0.132420091 53.2020133,0.132420091 C53.6146329,0.132420091 53.9491299,0.458641386 53.9491299,0.861052523 L53.9491299,6.86073429 C53.9491299,7.17783427 53.8027874,7.464351 53.5590668,7.65858144 C53.5128534,7.69506672 53.4616885,7.7294058 53.4066726,7.7594525 C53.376964,7.77554894 53.3456049,7.79003575 53.3136956,7.803986 L53.3054432,7.80720529 L53.3037928,7.80774184 C53.283987,7.81686315 53.2636311,7.82544793 53.2421749,7.83242305 L53.2399743,7.83349615 L53.2399743,7.83242305 L53.2394241,7.83242305 L53.2388739,7.8318865 L53.2339225,7.83349615 C52.9626939,7.92470934 52.6777113,7.9053936 52.4328903,7.7894992 C52.4004309,7.77608549 52.3685216,7.75998905 52.3366124,7.74067331 C52.2859977,7.71062661 52.2359332,7.67360479 52.1886195,7.63282713 C52.1589109,7.60707282 52.1264515,7.57487992 52.0934419,7.53571191 L52.0686847,7.5078114 L52.0670342,7.50620176 L52.0675844,7.50566521 L52.0582317,7.4943977 L48.0811287,2.5490331 L48.0811287,7.34845659" id="Fill-15"></path>
                    <path d="M59.5117535,6.61982416 C59.9144838,6.61982416 60.2409639,6.94604545 60.2409639,7.34845659 C60.2409639,7.75086773 59.9144838,8.07762557 59.5117535,8.07762557 L57.3617105,8.07762557 L57.3617105,8.07440628 C56.5696742,8.07440628 55.8495924,7.75033118 55.3292648,7.22934289 C54.8105482,6.7115739 54.4878269,5.99367243 54.486753,5.20280041 L54.4846051,5.20280041 L54.4846051,3.00724525 L54.486753,3.00724525 C54.48729,2.21637323 54.8110851,1.49686212 55.3324867,0.976410382 C55.8512033,0.458104838 56.5691372,0.136175929 57.3606366,0.13563938 L57.3606366,0.132420091 L59.5117535,0.132420091 C59.9144838,0.132420091 60.2409639,0.458641386 60.2409639,0.861052523 C60.2409639,1.26346366 59.9144838,1.5902215 59.5117535,1.5902215 L57.3606366,1.5902215 L57.3606366,1.58753876 C56.9724045,1.58753876 56.6169279,1.74850322 56.3581066,2.00711944 C56.1003591,2.26466257 55.940341,2.61878437 55.940341,3.00724525 L55.9430258,3.00724525 L55.9430258,5.20280041 L55.940341,5.20280041 C55.940341,5.5912613 56.1014331,5.94645619 56.3607914,6.20453587 C56.6180019,6.46207899 56.9724045,6.62197035 57.3617105,6.62197035 L57.3617105,6.61982416 L59.5117535,6.61982416" id="Fill-16"></path>
                    <path d="M63.856246,1.58753876 L63.856246,1.5902215 L63.8534983,1.5902215 L63.8534983,1.58753876 C63.3033965,1.58753876 62.8027544,1.7984022 62.441149,2.1380372 C62.0861383,2.47123362 61.8652183,2.92729957 61.8646687,3.42521628 L61.8679661,3.42521628 L61.8679661,4.78536593 L61.8646687,4.78536593 C61.8652183,5.28274609 62.0861383,5.73773895 62.4400499,6.07093537 C62.8027544,6.41057037 63.3033965,6.62197035 63.8545974,6.62197035 L63.8545974,6.61982416 L63.8573451,6.61982416 L63.8573451,6.62197035 C64.4079964,6.62197035 64.908089,6.41110692 65.2702439,6.07093537 C65.6252546,5.7382755 65.8461746,5.28274609 65.8461746,4.78429283 L65.8434269,4.78429283 L65.8434269,3.42467974 L65.8461746,3.42467974 C65.8456251,2.92676302 65.6252546,2.47123362 65.2707934,2.13857374 C64.908089,1.7984022 64.4074469,1.58753876 63.856246,1.58753876 Z M63.8551469,0.132420091 L63.856246,0.132420091 L63.856246,0.13563938 C64.80862,0.13563938 65.6747143,0.501565241 66.3028525,1.09069514 C66.9386845,1.68680017 67.3327134,2.51254783 67.3332629,3.42467974 L67.3360107,3.42467974 L67.3360107,4.78429283 L67.3332629,4.78429283 C67.3327134,5.69642474 66.9386845,6.52270894 66.302303,7.11881397 C65.6747143,7.70794387 64.8091696,8.07386973 63.8573451,8.07440628 L63.8573451,8.07762557 L63.8545974,8.07762557 L63.8545974,8.07440628 C62.9027729,8.07440628 62.0366786,7.70794387 61.4079908,7.11827742 C60.773258,6.52270894 60.37813,5.69696129 60.3775804,4.78536593 L60.3748327,4.78536593 L60.3748327,3.42521628 L60.3775804,3.42521628 C60.37813,2.51308437 60.773258,1.68626363 61.40909,1.09069514 C62.0372281,0.501565241 62.9027729,0.136175929 63.8534983,0.13563938 L63.8534983,0.132420091 L63.8551469,0.132420091 Z" id="Fill-17"></path>
                    <path d="M32.5550851,1.5902215 L32.5550851,6.61982416 L35.4487134,6.61982416 L35.4487134,6.62197035 C35.7055574,6.62197035 35.9409058,6.51788001 36.11287,6.35047697 C36.284283,6.18414704 36.3901071,5.95504096 36.3901071,5.70500951 L36.3873513,5.70500951 L36.3873513,5.70179022 L36.3901071,5.70179022 C36.3901071,5.46624557 36.2947552,5.24894356 36.1398772,5.08422326 L36.1106653,5.05739585 C35.9387011,4.88945627 35.7033527,4.78536593 35.4476111,4.78536593 L35.4476111,4.78804867 L34.4505494,4.78804867 C34.0377251,4.78804867 33.7020643,4.46021773 33.7020643,4.05887969 C33.7020643,3.65754165 34.0377251,3.33024726 34.4505494,3.33024726 L34.791722,3.33024726 C35.0077796,3.31361426 35.2061998,3.21918178 35.355015,3.07431377 L35.3561173,3.07538687 L35.3577708,3.07431377 C35.519814,2.91603206 35.6206776,2.69926659 35.6206776,2.4610392 L35.6184729,2.4610392 L35.6184729,2.45835646 L35.6206776,2.45835646 C35.6206776,2.22066562 35.5192628,2.00282705 35.355015,1.84347224 C35.1929718,1.68572708 34.969749,1.58753876 34.7255819,1.58753876 L34.7255819,1.5902215 L32.5550851,1.5902215 Z M31.0575636,4.05887969 L31.0575636,0.892708865 C31.0575636,0.789155066 31.0796103,0.691503297 31.1187432,0.602972847 C31.1589784,0.508003819 31.2185044,0.422692658 31.292912,0.352404846 L31.3017307,0.343820075 L31.3017307,0.343283527 C31.4284992,0.225779475 31.5966052,0.146370344 31.7933719,0.13563938 C31.8077023,0.134566284 31.8225838,0.133493188 31.8369141,0.134029736 L31.8369141,0.132420091 L34.7255819,0.132420091 L34.7255819,0.13563938 C35.3836757,0.13563938 35.9816922,0.397474893 36.4138073,0.818665216 C36.844269,1.23770935 37.1121363,1.81771793 37.1121363,2.45835646 L37.1154433,2.45835646 L37.1154433,2.4610392 L37.1121363,2.4610392 C37.1121363,2.91442242 36.9765491,3.33829548 36.7445077,3.69670966 C36.8988345,3.79167869 37.0415869,3.90220762 37.1694577,4.02722334 C37.1854415,4.04278324 37.2008742,4.05887969 37.2152046,4.07551268 C37.6269265,4.4988492 37.8810147,5.0724192 37.8815658,5.70179022 L37.8848728,5.70179022 L37.8848728,5.70500951 L37.8815658,5.70500951 C37.8815658,6.3574521 37.6076357,6.95141094 37.1655995,7.38118603 C36.7268703,7.80774184 36.119484,8.07386973 35.4487134,8.07440628 L35.4487134,8.07762557 L31.8065999,8.07762557 C31.3926733,8.07762557 31.0575636,7.75086773 31.0575636,7.34845659 L31.0575636,4.05887969 Z" id="Fill-18"></path>
                </g>
                <g id="Group-5-Copy-2">
                    <path d="M15.1131847,29 L27.6652776,29 C30.5316897,29 30.5600577,25.9722829 30.2681659,24.4774681 C30.1086581,23.4730931 28.3909012,23.4812547 28.2017812,24.4774681 L28.2017812,25.6438391 C28.2017812,26.1765709 27.7630726,26.6128471 27.226569,26.6128471 L3.16129882,26.6128471 C2.62504411,26.6128471 2.18633549,26.1765709 2.18633549,25.6438391 L2.18633549,24.4774681 C1.9972155,23.4812547 0.27945852,23.4730931 0.119950737,24.4774681 C-0.171692199,25.9722829 -0.143573042,29 2.72283905,29 L15.1131847,29 Z M6.2392267,0 L25.5934183,0 C26.9533404,0 28.0656645,1.17008085 28.0656645,2.60034455 L28.0656645,3.84313809 C28.0656645,5.60011428 25.6708082,5.59368391 25.6708082,3.85500955 L25.6708082,3.17611039 C25.6708082,2.74428601 25.3154617,2.39111005 24.8809834,2.39111005 L5.48697704,2.39111005 C5.05249875,2.39111005 4.69690339,2.74428601 4.69690339,3.17611039 L4.69690339,3.84115951 C4.69690339,5.58873746 2.4145237,5.57612404 2.4145237,3.8789998 L2.4145237,2.60034455 C2.4145237,1.17008085 3.5270967,0 4.88676991,0 L6.2392267,0 Z" id="Fill-1" fill="#2B619E"></path>
                    <path d="M27.7107097,14.3323632 C29.0569589,14.9624195 29.9866131,16.2630605 29.9866131,17.7563982 C29.9866131,19.8618901 28.1388005,21.5844749 25.8801406,21.5844749 L19.5502452,21.5844749 C18.9582154,21.5844749 18.4738956,21.1329429 18.4738956,20.5809599 L18.4738956,8.59895066 C18.4738956,8.02086036 18.9497186,7.54794521 19.5312523,7.54794521 L24.803791,7.54794521 C27.0232154,7.54794521 28.8387901,9.35258149 28.8387901,11.5585243 C28.8387901,12.6321561 28.4082003,13.6105584 27.7107097,14.3323632 Z M22.9862171,13.3564473 L24.9959695,13.3564473 L24.9959695,13.3345669 C25.9111291,13.194582 26.6178662,12.4029091 26.6178662,11.454841 C26.6178662,10.4090571 25.7576862,9.55323477 24.7065772,9.55323477 L20.6585829,9.55323477 L20.6585829,19.4963879 L25.7921734,19.4963879 C26.8775196,19.4963879 27.7656893,18.6127178 27.7656893,17.5326213 C27.7656893,16.4525249 26.8775196,15.5688548 25.7921734,15.5688548 L24.9959695,15.5688548 L24.9959695,15.5641306 L22.9862171,15.5641306 C22.376194,15.5641306 21.8768798,15.0675946 21.8768798,14.4604133 C21.8768798,13.853232 22.376194,13.3564473 22.9862171,13.3564473 Z" id="Fill-3" fill="#FFFFFF"></path>
                    <path d="M17.5295918,20.194035 C17.6036871,20.8845816 17.0992402,21.5041188 16.4029437,21.5773549 C15.7066473,21.6505909 15.0819514,21.150557 15.007856,20.4597631 L13.9687752,10.9776759 L10.288458,20.248962 L10.2849653,20.2578691 L10.2844663,20.2588588 L10.2744872,20.2836007 L10.2660049,20.3028994 L10.2552773,20.326899 L10.2500382,20.3385277 L10.2410569,20.3565893 L10.2368158,20.3650016 L10.2270861,20.3838054 L10.2235934,20.3907332 C10.1557351,20.5174117 10.0684173,20.6289977 9.96638035,20.7227695 L9.96263816,20.7262334 L9.94367774,20.7433053 C9.87731627,20.8016962 9.80396939,20.8531593 9.72438552,20.8971999 L9.71914646,20.9004164 L9.69494698,20.9132822 L9.69419854,20.913777 L9.67174541,20.9251583 L9.66176624,20.9301067 L9.64729645,20.9370344 L9.63207822,20.9439621 L9.61885582,20.9499002 L9.60313863,20.9568279 L9.58941728,20.9625186 L9.57644436,20.9679618 L9.56471884,20.9724153 L9.55823238,20.9751369 L9.54750477,20.9790956 L9.53054019,20.9852811 L9.5208105,20.9884976 C9.39806673,21.0310536 9.27307765,21.0535688 9.14908649,21.0582697 L9.13411774,21.0587646 L9.11615523,21.059012 L9.0902094,21.059012 L9.07249637,21.0587646 L9.0565297,21.0582697 C8.91806875,21.0530739 8.77786144,21.025363 8.64139631,20.9724153 L8.62443173,20.965735 L8.62019058,20.9637556 L8.603226,20.9570753 L8.58676037,20.9496528 L8.57353797,20.9437147 L8.55931766,20.9372818 L8.54409943,20.9298592 L8.53536765,20.9256531 L8.51241557,20.9140244 L8.50992078,20.9125399 L8.49021192,20.9019009 L8.47898535,20.8959628 C8.40938066,20.8568706 8.34476554,20.8123352 8.28538949,20.762604 L8.28039991,20.7583978 C8.2661796,20.7462743 8.25245824,20.7341508 8.23873688,20.7217798 L8.23773897,20.7207902 C8.22701136,20.7108934 8.21653324,20.7007492 8.20605511,20.690605 C8.19582646,20.6802134 8.18559781,20.6698218 8.17536917,20.6591828 L8.17462073,20.6581931 C8.16189729,20.6445851 8.14967281,20.6307296 8.13744833,20.6166267 L8.13345666,20.6119258 C8.08306186,20.5527926 8.03815561,20.4887111 7.99898737,20.4196812 L7.99275039,20.4087947 L7.98202279,20.3890012 L7.98077539,20.386527 L7.96880039,20.3637645 L7.96455924,20.3551048 L7.95732435,20.3402597 L7.95058841,20.3259094 L7.94460091,20.3127962 L7.93736601,20.2964665 L7.93038059,20.279642 L7.92863424,20.2756833 L7.92164882,20.2588588 L4.23733998,10.9776759 L3.19825911,20.4597631 C3.12441327,21.150557 2.49971735,21.6505909 1.8034209,21.5773549 C1.10687497,21.5041188 0.602677509,20.8845816 0.676523352,20.194035 L1.90171571,9.01490064 L1.90271362,9.00698323 L1.90196519,9.00698323 C1.91668446,8.87659339 1.94462613,8.74719324 1.98429332,8.62001985 C2.0229626,8.49655775 2.07460479,8.37482758 2.13847147,8.25606645 C2.45131839,7.67314719 3.0268669,7.26441094 3.71368314,7.17039171 L3.71617793,7.16989687 C3.73913002,7.16668042 3.76258107,7.16445365 3.78528367,7.1624743 C3.89305869,7.15134044 3.99983578,7.148124 4.10511601,7.15282496 L4.11010559,7.1533198 L4.11010559,7.15282496 C4.24731915,7.15950527 4.37555146,7.17632977 4.49355512,7.20379328 C5.1486875,7.35546115 5.7052756,7.80724831 5.96722876,8.46736231 L9.10318231,16.3667099 L12.2388864,8.46736231 C12.5008395,7.80749573 13.0574276,7.35546115 13.71256,7.20379328 C13.8305637,7.17632977 13.958796,7.15950527 14.0960096,7.15282496 L14.0960096,7.1533198 L14.1009991,7.15282496 C14.2065288,7.148124 14.3138049,7.15109302 14.4215799,7.1624743 C14.444532,7.16445365 14.4669851,7.16668042 14.4899372,7.16989687 L14.492432,7.17039171 C15.1792482,7.26441094 15.7550462,7.67314719 16.0678932,8.25606645 C16.1315104,8.37482758 16.183402,8.49655775 16.2218218,8.62001985 C16.2617385,8.74719324 16.2894307,8.87659339 16.30415,9.00698323 L16.303651,9.00698323 L16.30415,9.01193161 L16.3046489,9.01490064 L17.5295918,20.194035" id="Fill-6" fill="#FFFFFF"></path>
                </g>
            </g>
        </g>
    </g>
</svg>