<?xml version="1.0" encoding="UTF-8" standalone="no"?>
<svg width="57px" height="32px" viewBox="0 0 57 32" version="1.1" xmlns="http://www.w3.org/2000/svg" xmlns:xlink="http://www.w3.org/1999/xlink">
    <!-- Generator: Sketch 50.2 (55047) - http://www.bohemiancoding.com/sketch -->
    <title>mybank</title>
    <desc>Created with Sketch.</desc>
    <defs></defs>
    <g id="Page-1" stroke="none" stroke-width="1" fill="none" fill-rule="evenodd">
        <g id="withdraw-" transform="translate(-779.000000, -2742.000000)" fill-rule="nonzero">
            <g id="mybank" transform="translate(779.000000, 2742.000000)">
                <path d="M39.223589,12.9636829 C37.0293777,12.9473146 36.0065123,14.1994885 36.0065123,14.1994885 C35.3383502,14.9033248 35.7672938,15.8526854 36.418958,15.9181586 C37.3593343,16.0163683 37.3510854,15.2388747 38.7863965,14.8869565 C40.0484805,14.5841432 40.1062229,15.7462916 40.1062229,15.7462916 C34.7114327,15.6153453 34.9671491,20.1002558 36.806657,21.0578005 C38.5636758,21.9744246 40.2134588,20.8204604 40.2134588,20.8204604 C40.2134588,20.8204604 40.2794501,21.4424552 41.1455861,21.4424552 C42.1437048,21.4424552 42.1437048,20.4521739 42.1437048,20.4521739 L42.1437048,16.0818414 C42.0777135,12.8818414 39.223589,12.9636829 39.223589,12.9636829 Z M38.8028944,19.2818414 C38.8028944,19.2818414 37.39233,19.5682864 37.4088278,18.569821 C37.4253256,17.5713555 39.9824891,17.6286445 40.2382055,17.7104859 C40.2382055,17.7104859 40.3124457,18.8480818 38.8028944,19.2818414 Z" id="Shape" fill="#204866"></path>
                <path d="M56.6452967,19.6746803 L54.4428365,16.3846547 L56.0596237,14.8705882 C56.0596237,14.8705882 56.802026,14.1831202 56.1916064,13.5038363 C55.5151954,12.7508951 54.7068017,13.4956522 54.7068017,13.4956522 L52.6775687,15.369821 L52.6775687,11.6132992 C52.6775687,11.0731458 52.2403763,10.6393862 51.6959479,10.6393862 C51.1515195,10.6393862 50.7143271,11.0731458 50.7143271,11.6132992 L50.7143271,20.4521739 C50.7143271,20.9923274 51.1515195,21.426087 51.6959479,21.426087 C52.2403763,21.426087 52.6775687,20.9923274 52.6775687,20.4521739 L52.6775687,18.0951407 L53.0487699,17.7268542 L55.0367583,20.8204604 C55.0367583,20.8204604 55.6884226,21.8925831 56.6370478,21.2132992 C57.3547033,20.6976982 56.6452967,19.6746803 56.6452967,19.6746803 Z" id="Shape" fill="#204866"></path>
                <path d="M49.6254703,16.0818414 C49.6254703,12.8900256 46.9445731,12.4398977 45.121563,13.4547315 C45.121563,13.4547315 45.121563,13.4629156 45.121563,13.4629156 C44.9813314,13.0782609 44.6183792,12.7918159 44.1729378,12.7918159 C43.6202605,12.7918159 43.1665702,13.2419437 43.1665702,13.7902813 L43.1665702,20.4521739 C43.1665702,21.0005115 43.6202605,21.4506394 44.1729378,21.4506394 C44.7256151,21.4506394 45.1793054,21.0005115 45.1793054,20.4521739 L45.1628075,15.9590793 C45.1628075,15.9590793 45.410275,15.6726343 45.797974,15.3943734 C46.7383502,14.7314578 47.629233,14.9606138 47.629233,16.0900256 L47.6539797,20.4685422 C47.6539797,21.0086957 48.0994211,21.4506394 48.6438495,21.4506394 C49.1882779,21.4506394 49.6337192,21.0086957 49.6337192,20.4685422 L49.6254703,16.0818414 Z" id="Shape" fill="#204866"></path>
                <path d="M20.7542692,21.5652174 C20.9852388,21.1805627 21.0264834,20.9186701 21.0264834,20.9186701 L18.7580318,15.0342711 C18.7580318,15.0342711 18.3455861,13.8966752 19.2529667,13.5611253 C20.2098408,13.201023 20.5645441,14.1176471 20.6305355,14.3058824 C20.6965268,14.4941176 22.0658466,18.0951407 22.0658466,18.0951407 L23.377424,14.3140665 C23.377424,14.3140665 23.7486252,13.1355499 24.8044863,13.5611253 C25.6706223,13.9048593 25.2251809,15.0588235 25.2251809,15.0588235 C25.2251809,15.0588235 23.8806078,18.9953964 22.7587554,21.8516624 C22.0905933,23.5539642 21.5131693,23.7258312 20.8615051,23.8895141 C19.9871201,24.1023018 18.3290883,23.9959079 18.3290883,22.915601 C18.3290883,22.0644501 19.2117221,22.0071611 19.60767,22.0235294 C19.615919,22.0153453 20.4408104,22.0808184 20.7542692,21.5652174 Z" id="Shape" fill="#27BDED"></path>
                <path d="M15.4832127,11.6787724 L13.4127352,17.3503836 L11.1525326,11.711509 C11.1525326,11.711509 10.8143271,10.6393862 9.8739508,10.6393862 C8.78509407,10.6393862 8.81808973,11.4987212 8.79334298,11.711509 C8.76859624,11.9242967 8.79334298,20.5340153 8.79334298,20.5340153 C8.79334298,20.5340153 8.78509407,21.4342711 9.78321274,21.4342711 C10.8060781,21.4342711 10.7565847,20.5258312 10.7648336,20.5258312 C10.7730825,20.5258312 10.7648336,15.9836317 10.7648336,15.9836317 L12.4311143,20.5258312 C12.4311143,20.5258312 12.6785818,21.4179028 13.4457308,21.4015345 C14.2128799,21.3851662 14.4356006,20.5258312 14.4356006,20.5258312 L15.8296671,15.9918159 L15.8296671,20.5258312 C15.8296671,20.5258312 15.8296671,21.4342711 16.8360347,21.4342711 C17.8094067,21.4342711 17.8094067,20.5258312 17.8094067,20.5258312 L17.8094067,11.7196931 C17.8094067,11.7196931 17.8094067,10.6393862 16.7535456,10.6475703 C15.8709117,10.6475703 15.5409551,11.4823529 15.4832127,11.6787724 C15.4749638,11.7033248 15.4749638,11.711509 15.4749638,11.711509" id="Shape" fill="#27BDED"></path>
                <path d="M56.9670043,24.912532 L39.4628075,24.912532 L26.6109986,24.912532 L26.6192475,24.9289003 C24.0785818,27.883376 20.3088278,29.7575448 16.0853835,29.7575448 C8.43863965,29.7575448 2.23545586,23.6030691 2.23545586,16.0163683 C2.23545586,8.42966752 8.43863965,2.27519182 16.0853835,2.27519182 C20.3253256,2.27519182 24.1115774,4.1657289 26.6522431,7.13657289 L29.4486252,7.13657289 C26.5615051,2.87263427 21.6616498,0.0654731458 16.1018813,0.0654731458 C7.2260492,0.0654731458 0.0247467438,7.21023018 0.0247467438,16.0163683 C0.0247467438,24.8225064 7.2260492,31.9672634 16.1018813,31.9672634 C20.7625181,31.9672634 24.9447178,29.9948849 27.8813314,26.8521739 L55.6554269,26.8276215 L56.9670043,24.912532 Z" id="Shape" fill="#27BDED"></path>
                <path d="M33.6803184,15.6480818 C33.7298119,15.5744246 34.4062229,15.0342711 34.3484805,13.6102302 C34.2412446,10.7212276 31.7088278,10.7539642 31.1479016,10.7294118 C30.2487699,10.7048593 29.7043415,10.7130435 28.0463097,10.7294118 C26.6439942,10.7457801 26.660492,12.0061381 26.660492,12.0061381 L26.6604876,21.4342711 C26.6604876,21.4342711 29.176411,21.4342711 31.3788712,21.4342711 C33.9030391,21.4342711 34.8434153,20.059335 34.8434153,18.1278772 C34.8434153,16.1882353 33.6803184,15.6480818 33.6803184,15.6480818 Z M28.689725,12.7263427 L31.2963821,12.7263427 C31.8160637,12.742711 32.368741,13.0127877 32.368741,13.7902813 C32.368741,14.5923274 31.8903039,14.8542199 31.2963821,14.8542199 L28.689725,14.8542199 L28.689725,12.7263427 Z M31.4778582,19.5109974 L28.6814761,19.5109974 L28.6814761,16.8675192 L31.4778582,16.8675192 C32.1542692,16.9002558 32.8141823,17.2439898 32.8141823,18.1933504 C32.8141823,19.1590793 32.2202605,19.5109974 31.4778582,19.5109974 Z" id="Shape" fill="#204866"></path>
            </g>
        </g>
    </g>
</svg>