<?xml version="1.0" encoding="UTF-8" standalone="no"?>
<svg width="100px" height="21px" viewBox="0 0 100 21" version="1.1" xmlns="http://www.w3.org/2000/svg" xmlns:xlink="http://www.w3.org/1999/xlink">
    <!-- Generator: Sketch 50.2 (55047) - http://www.bohemiancoding.com/sketch -->
    <title>paysera</title>
    <desc>Created with Sketch.</desc>
    <defs></defs>
    <g id="Page-1" stroke="none" stroke-width="1" fill="none" fill-rule="evenodd">
        <g id="withdraw-" transform="translate(-757.000000, -2383.000000)" fill-rule="nonzero">
            <g id="paysera" transform="translate(757.000000, 2383.000000)">
                <path d="M64.3930636,0.0714285714 C64.2052023,0.414285714 63.8728324,0.328571429 63.583815,0.357142857 C59.8410405,0.671428571 56.1271676,1.21428571 52.6300578,2.67142857 C51.3872832,3.2 50.216763,3.88571429 49.5375723,5.11428571 C48.916185,6.22857143 49.0606936,6.97142857 50,7.85714286 C51.0693642,8.85714286 52.2976879,9.65714286 53.4682081,10.5285714 C54.4653179,11.2714286 55.4624277,12.0142857 56.2861272,12.9714286 C57.5144509,14.3857143 57.4710983,16.1285714 56.1705202,17.4714286 C54.7109827,18.9714286 52.8034682,19.5571429 50.8526012,20 C48.367052,20.5714286 45.8236994,20.8142857 43.265896,20.9 C41.4884393,20.9571429 39.6965318,20.9142857 37.9190751,20.9142857 C37.283237,20.9142857 36.632948,20.8714286 35.9104046,20.7 C39.783237,20.6142857 43.5260116,20.3285714 47.2254335,19.5 C48.8439306,19.1285714 50.4479769,18.6857143 51.7919075,17.6714286 C52.0375723,17.4857143 52.2687861,17.2714286 52.4710983,17.0285714 C53.2514451,16.0714286 53.2514451,15.4714286 52.3988439,14.5857143 C51.199422,13.3285714 49.7109827,12.4428571 48.3815029,11.3428571 C47.7023121,10.7857143 47.0375723,10.1857143 46.4595376,9.51428571 C45.3323699,8.18571429 45.2456647,6.68571429 46.2572254,5.1 C47.3554913,3.38571429 49.0751445,2.48571429 50.9248555,1.8 C53.5404624,0.842857143 56.2861272,0.471428571 59.0317919,0.214285714 C59.2052023,0.214285714 62.7601156,0.0714285714 64.3930636,0.0714285714 Z" id="Shape" fill="#F37B28"></path>
                <path d="M12.8757225,7.82857143 C12.5289017,6.37142857 11.5462428,5.5 10.0578035,5.2 C8.22254335,4.84285714 6.37283237,4.9 4.52312139,5.01428571 C3.98843931,5.04285714 3.46820809,5.14285714 2.96242775,5.3 C2.61560694,5.41428571 2.21098266,5.97142857 1.99421965,5.14285714 C1.97976879,5.08571429 1.69075145,5.07142857 1.53179191,5.05714286 C1.05491329,5.04285714 0.563583815,5.05714286 0.0867052023,5.05714286 C0.0867052023,9.52857143 0.0867052023,14.0142857 0.0867052023,18.4857143 C0.476878613,18.6285714 0.838150289,18.5857143 1.30057803,18.5714286 C1.95086705,18.5571429 2.21098266,18.4142857 2.18208092,17.7428571 C2.12427746,16.7 2.16763006,15.6714286 2.16763006,14.5571429 C2.80346821,14.8 3.32369942,15.0571429 3.88728324,15.1285714 C5.95375723,15.3571429 8.02023121,15.3714286 10.0722543,15 C11.5028902,14.7428571 12.4277457,13.8571429 12.8179191,12.4714286 C13.265896,10.9428571 13.2514451,9.37142857 12.8757225,7.82857143 Z M10.7225434,11.7285714 C10.5635838,12.5142857 10.1156069,13.0142857 9.30635838,13.1428571 C7.44219653,13.4428571 5.57803468,13.4428571 3.69942197,13.1428571 C2.86127168,13.0142857 2.44219653,12.4714286 2.28323699,11.7285714 C2.06647399,10.7 2.03757225,9.65714286 2.25433526,8.61428571 C2.4566474,7.62857143 2.94797688,7.18571429 3.94508671,7.04285714 C4.16184971,7.01428571 4.37861272,6.97142857 4.59537572,6.97142857 C5.21676301,6.95714286 8.29479769,6.91428571 9.20520231,7.07142857 C10.0433526,7.21428571 10.5491329,7.67142857 10.7080925,8.48571429 C10.9393064,9.54285714 10.9393064,10.6428571 10.7225434,11.7285714 Z" id="Shape" fill="#196E9D"></path>
                <path d="M67.066474,10.7714286 C65.5057803,10.7714286 63.9450867,10.7857143 62.3699422,10.7571429 C61.8786127,10.7428571 61.7630058,10.8857143 61.8641618,11.3714286 C62.1242775,12.6428571 62.4855491,13.0428571 63.7716763,13.2142857 C65.4479769,13.4285714 67.1242775,13.4285714 68.8150289,13.2285714 C69.5375723,13.1428571 70.1300578,12.9 70.2023121,12.0571429 C70.2312139,11.7285714 70.433526,11.6142857 70.7514451,11.6285714 C70.9971098,11.6428571 71.2283237,11.6285714 71.4739884,11.6285714 C72.5433526,11.6285714 72.6011561,11.7 72.3843931,12.7142857 C72.1387283,13.8285714 71.4884393,14.6142857 70.3468208,14.8857143 C67.5867052,15.5428571 64.8121387,15.4428571 62.0520231,14.8571429 C60.9248555,14.6142857 60.2601156,13.8 59.9132948,12.7428571 C59.3641618,11.0428571 59.3641618,9.31428571 59.8699422,7.61428571 C60.3034682,6.14285714 61.3439306,5.31428571 62.8901734,5.14285714 C65.0433526,4.88571429 67.2109827,4.82857143 69.3641618,5.21428571 C70.982659,5.51428571 72.0809249,6.6 72.3410405,8.2 C72.4421965,8.81428571 72.4421965,9.42857143 72.5144509,10.0428571 C72.5722543,10.6 72.3554913,10.8 71.7919075,10.8 C70.1878613,10.7428571 68.6271676,10.7714286 67.066474,10.7714286 Z M66.0693642,8.82857143 C67.2254335,8.82857143 68.3815029,8.8 69.5231214,8.84285714 C70.1300578,8.85714286 70.1445087,8.6 70,8.15714286 C69.7687861,7.5 69.2485549,7.17142857 68.5982659,7.07142857 C66.849711,6.82857143 65.1011561,6.81428571 63.3526012,7.05714286 C62.6734104,7.15714286 62.2254335,7.55714286 61.9942197,8.2 C61.8352601,8.62857143 61.9075145,8.85714286 62.4566474,8.84285714 C63.6560694,8.8 64.8554913,8.82857143 66.0693642,8.82857143 Z" id="Shape" fill="#F37B28"></path>
                <path d="M97.8612717,9.5 C97.9913295,7.71428571 97.4421965,7.05714286 95.7225434,6.94285714 C94.1907514,6.84285714 92.6445087,6.81428571 91.1127168,7.02857143 C90.5491329,7.11428571 90.216763,7.38571429 90.2312139,7.95714286 C90.2456647,8.4 90.0433526,8.55714286 89.6242775,8.52857143 C89.4364162,8.51428571 89.234104,8.52857143 89.0462428,8.52857143 C87.9768786,8.52857143 87.8468208,8.37142857 88.0202312,7.32857143 C88.2080925,6.21428571 88.8439306,5.5 89.9421965,5.27142857 C92.4710983,4.75714286 95.0144509,4.75714286 97.5433526,5.22857143 C99.0606936,5.51428571 99.9277457,6.64285714 99.9277457,8.18571429 C99.9277457,10.3 99.9132948,12.4285714 99.9421965,14.5428571 C99.9421965,15.0428571 99.7976879,15.1714286 99.2919075,15.1714286 C98.800578,15.1714286 98.0057803,15.3857143 97.8468208,14.6857143 C97.8468208,14.6857143 97.6734104,14.7 97.6011561,14.7428571 C96.6473988,15.3142857 95.5635838,15.2571429 94.5086705,15.2857143 C92.9479769,15.3285714 91.3728324,15.3571429 89.8265896,15.0857143 C88.3959538,14.8285714 87.7456647,14.0857143 87.5867052,12.6857143 C87.5144509,12.0857143 87.5578035,11.5 87.6878613,10.9142857 C87.9190751,9.87142857 88.6416185,9.24285714 89.6820809,9.1 C92.0231214,8.77142857 94.4219653,8.6 96.734104,9.08571429 C97.1387283,9.15714286 97.4421965,9.34285714 97.8612717,9.5 Z M93.6127168,10.8285714 C92.6445087,10.8142857 91.6907514,10.8428571 90.7369942,10.9714286 C90.0867052,11.0571429 89.8121387,11.5 89.8265896,12.1428571 C89.8410405,12.7142857 90.0722543,13.1285714 90.6791908,13.1857143 C92.6878613,13.4 94.7109827,13.4571429 96.7196532,13.1857143 C97.3265896,13.1 97.7601156,12.8428571 97.7745665,12.1428571 C97.7890173,11.4428571 97.3554913,11.1857143 96.7630058,11.0571429 C95.7369942,10.8428571 94.6820809,10.8428571 93.6127168,10.8285714 Z" id="Shape" fill="#F37B28"></path>
                <path d="M36.0260116,13.0571429 C37.1387283,10.9142857 38.2514451,8.77142857 39.3786127,6.62857143 C39.4075145,6.57142857 39.4508671,6.5 39.4797688,6.44285714 C39.8121387,5.18571429 40.6936416,4.91428571 41.8641618,5.07142857 C42.5,5.15714286 42.6011561,5.24285714 42.2976879,5.8 C41.3150289,7.65714286 40.3468208,9.5 39.349711,11.3428571 C38.4682081,12.9714286 37.6734104,14.6571429 36.6907514,16.2285714 C35.2745665,18.4857143 33.800578,18.5 31.3294798,18.4428571 C31.0693642,18.4428571 30.9393064,18.2857143 30.9248555,18.0285714 C30.9248555,17.9857143 30.9248555,17.9285714 30.9248555,17.8857143 C30.8236994,16.5142857 30.8236994,16.5285714 32.1820809,16.5 C33.0635838,16.4857143 33.916185,16.4 34.5086705,15.6142857 C34.6820809,15.3714286 34.7398844,15.2142857 34.5520231,14.8857143 C32.8034682,11.9142857 31.0982659,8.91428571 29.3930636,5.91428571 C28.9884393,5.21428571 29.0895954,5.14285714 29.9277457,5.05714286 C31.0115607,4.94285714 31.6473988,5.27142857 32.1531792,6.28571429 C33.2514451,8.47142857 34.5231214,10.5714286 35.7225434,12.7142857 C35.7947977,12.8428571 35.8381503,12.9857143 36.0260116,13.0571429 Z" id="Shape" fill="#196E9D"></path>
                <path d="M77.1387283,5.65714286 C79.4219653,4.65714286 81.7485549,4.7 84.0606936,5.32857143 C85.1300578,5.61428571 85.6069364,6.58571429 85.765896,7.61428571 C85.867052,8.21428571 85.8092486,8.84285714 85.8236994,9.47142857 C85.8381503,9.8 85.6936416,9.95714286 85.3468208,9.94285714 C85.3034682,9.94285714 85.2456647,9.94285714 85.2023121,9.94285714 C83.367052,9.92857143 83.6705202,10.1 83.6271676,8.51428571 C83.5982659,7.44285714 83.3092486,7.1 82.2543353,6.97142857 C81.0549133,6.82857143 79.8554913,6.85714286 78.6560694,7.08571429 C77.8468208,7.24285714 77.4277457,7.75714286 77.2543353,8.52857143 C77.0086705,9.62857143 77.0953757,10.7571429 77.0809249,11.8714286 C77.066474,12.7714286 77.066474,13.6857143 77.0809249,14.5857143 C77.0809249,15.0142857 76.9219653,15.1857143 76.4884393,15.1857143 C74.6531792,15.1714286 74.9566474,15.3142857 74.9421965,13.7428571 C74.9277457,11.1714286 74.9421965,8.6 74.9421965,6.02857143 C74.9421965,5.07142857 74.9421965,5.07142857 75.9537572,5.07142857 C76.0693642,5.07142857 76.199422,5.08571429 76.3150289,5.07142857 C76.8208092,5 77.1676301,5.14285714 77.1387283,5.65714286 Z" id="Shape" fill="#F37B28"></path>
                <path d="M27.6589595,7.81428571 C27.5289017,6.42857143 26.6618497,5.48571429 25.2601156,5.22857143 C22.7601156,4.77142857 20.2312139,4.77142857 17.7312139,5.25714286 C16.632948,5.47142857 15.9682081,6.14285714 15.7803468,7.27142857 C15.5924855,8.37142857 15.7080925,8.52857143 16.8063584,8.52857143 C16.9942197,8.52857143 17.1965318,8.51428571 17.3843931,8.52857143 C17.7745665,8.55714286 17.9768786,8.41428571 17.9768786,8.01428571 C17.9768786,7.37142857 18.3381503,7.1 18.9595376,7.01428571 C20.4913295,6.81428571 22.0375723,6.84285714 23.5693642,6.95714286 C25.216763,7.08571429 25.7514451,7.78571429 25.5924855,9.5 C25.0433526,9.22857143 24.4942197,9.01428571 23.8872832,8.98571429 C21.9653179,8.87142857 20.0433526,8.84285714 18.1213873,8.97142857 C17.716763,9 17.2976879,9.08571429 16.9219653,9.22857143 C15.7080925,9.68571429 15.1878613,10.7714286 15.3179191,12.4857143 C15.433526,14.0428571 16.0982659,14.8428571 17.6589595,15.1 C19.349711,15.3857143 21.0693642,15.3285714 22.7745665,15.2714286 C23.6705202,15.2428571 24.5520231,15.2142857 25.3612717,14.7571429 C25.433526,14.7142857 25.6069364,14.6857143 25.6069364,14.7 C25.8092486,15.3857143 26.734104,15.2 27.2543353,15.1857143 C27.6011561,15.1714286 27.7890173,15.0428571 27.7890173,14.6857143 C27.7456647,12.3714286 27.8901734,10.0857143 27.6589595,7.81428571 Z M24.4219653,13.2 C22.4277457,13.4571429 20.433526,13.4 18.4537572,13.2 C17.8468208,13.1428571 17.6011561,12.7571429 17.5867052,12.1857143 C17.5722543,11.5714286 17.7601156,11.1 18.4537572,11 C19.4075145,10.8571429 20.3757225,10.8571429 21.4884393,10.8428571 C22.3988439,10.8714286 23.4537572,10.8571429 24.4942197,11.0714286 C25.0722543,11.1857143 25.5346821,11.4285714 25.5346821,12.1285714 C25.5202312,12.8571429 25.0578035,13.1142857 24.4219653,13.2 Z" id="Shape" fill="#196E9D"></path>
            </g>
        </g>
    </g>
</svg>