<?xml version="1.0" encoding="UTF-8"?>
<svg width="88px" height="32px" viewBox="0 0 88 32" version="1.1" xmlns="http://www.w3.org/2000/svg" xmlns:xlink="http://www.w3.org/1999/xlink">
    <!-- Generator: Sketch 49.1 (51147) - http://www.bohemiancoding.com/sketch -->
    <title>qiwi</title>
    <desc>Created with Sketch.</desc>
    <defs></defs>
    <g id="Page-1" stroke="none" stroke-width="1" fill="none" fill-rule="evenodd">
        <g id="m7-withdraw-balance-0-1366" transform="translate(-199.000000, -1687.000000)" fill="#FF8B00">
            <path d="M244.355286,1705.25457 L242.706382,1703.28139 C242.533753,1703.07439 242.681678,1702.76078 242.951932,1702.76078 L246.401535,1702.76078 C246.56583,1702.27422 246.658692,1701.75449 246.658692,1701.21463 C246.658692,1698.74276 244.809479,1696.61144 242.271535,1696.61144 C239.733592,1696.61144 237.884378,1698.74276 237.884378,1701.21463 C237.884378,1703.68651 239.733592,1705.78762 242.271535,1705.78762 C243.040627,1705.78762 243.745132,1705.59217 244.355286,1705.25457 Z M251.816132,1708.58939 C251.995309,1708.78662 251.848277,1709.10408 251.578321,1709.10408 L247.813818,1709.10408 C247.660833,1709.10408 247.515289,1709.03627 247.417367,1708.919 L246.779235,1708.15555 C245.479756,1708.99392 243.932345,1709.48314 242.271535,1709.48314 C237.689129,1709.48314 233.961236,1705.77399 233.961236,1701.21463 C233.961236,1696.65527 237.689129,1692.94583 242.271535,1692.94583 C246.853942,1692.94583 250.581835,1696.65527 250.581835,1701.21463 C250.581835,1702.85821 250.095497,1704.38984 249.261223,1705.67834 L251.816132,1708.58939 Z M286.591346,1693.32637 L283.519145,1693.32637 C283.293537,1693.32637 283.110491,1693.50849 283.110491,1693.73326 L283.110491,1708.696 C283.110491,1708.92048 283.293537,1709.1026 283.519145,1709.1026 L286.591346,1709.1026 C286.816954,1709.1026 287,1708.92048 287,1708.696 L287,1693.73326 C287,1693.50849 286.816954,1693.32637 286.591346,1693.32637 Z M281.421703,1693.32637 L277.984303,1693.32637 C277.804531,1693.32637 277.645891,1693.44245 277.593507,1693.61214 L274.87341,1702.45457 L271.883952,1693.60237 C271.828294,1693.43771 271.672333,1693.32637 271.49643,1693.32637 L269.09778,1693.32637 C268.921877,1693.32637 268.765618,1693.43771 268.70996,1693.60237 L265.720503,1702.45457 L263.000406,1693.61214 C262.948022,1693.44245 262.789382,1693.32637 262.60961,1693.32637 L259.17221,1693.32637 C259.040952,1693.32637 258.917433,1693.38885 258.840643,1693.49398 C258.763853,1693.59911 258.743018,1693.73445 258.784687,1693.85734 L263.833192,1708.82838 C263.88885,1708.99303 264.045109,1709.10408 264.221012,1709.10408 L266.949145,1709.10408 C267.125048,1709.10408 267.281009,1708.99303 267.336965,1708.82867 L270.296956,1700.08219 L273.256948,1708.82867 C273.312904,1708.99303 273.468865,1709.10408 273.644768,1709.10408 L276.372901,1709.10408 C276.548804,1709.10408 276.705063,1708.99303 276.760721,1708.82838 L281.809225,1693.85734 C281.850894,1693.73445 281.83006,1693.59911 281.75327,1693.49398 C281.67648,1693.38885 281.552961,1693.32637 281.421703,1693.32637 Z M257.483422,1693.73326 L257.483422,1708.696 C257.483422,1708.92048 257.300376,1709.1026 257.074768,1709.1026 L254.002567,1709.1026 C253.776959,1709.1026 253.593913,1708.92048 253.593913,1708.696 L253.593913,1693.73326 C253.593913,1693.50849 253.776959,1693.32637 254.002567,1693.32637 L257.074768,1693.32637 C257.300376,1693.32637 257.483422,1693.50849 257.483422,1693.73326 Z M221.592966,1709.8898 C222.229312,1710.42522 222.423073,1711.06163 222.086446,1711.51057 C221.899233,1711.75666 221.595942,1711.8923 221.232231,1711.8923 C220.875067,1711.8923 220.511356,1711.76081 220.25896,1711.54167 C219.680356,1711.03853 219.510405,1710.22296 219.888106,1709.7595 C220.035733,1709.57826 220.275628,1709.47846 220.563145,1709.47846 C220.912272,1709.47846 221.278067,1709.62476 221.592966,1709.8898 Z M224.529146,1708.53052 C224.622604,1709.15419 224.424378,1709.41242 224.225557,1709.41242 C224.008581,1709.41242 223.736244,1709.15952 223.414797,1708.66082 C223.097814,1708.16834 222.981736,1707.60331 223.138888,1707.31783 C223.242763,1707.12889 223.460037,1707.04686 223.73416,1707.14992 C224.264845,1707.34952 224.473191,1708.15798 224.529146,1708.53052 Z M220.528321,1715.05684 C217.477253,1715.05684 215.398264,1715.46226 213.302608,1715.46226 C205.403642,1715.46226 199,1709.09023 199,1701.23068 C199,1693.37144 205.403642,1687 213.302608,1687 C221.201872,1687 227.605216,1693.37144 227.605216,1701.23068 C227.605216,1703.90127 226.866483,1706.40039 225.580397,1708.53556 C225.538431,1708.60515 225.43277,1708.58116 225.42146,1708.50061 C224.930658,1705.0035 222.783213,1703.07623 219.657735,1702.51445 C219.386589,1702.46559 219.336288,1702.29945 219.69494,1702.26865 C220.648268,1702.18662 222.006978,1702.20054 222.697791,1702.32433 C222.73946,1701.9657 222.757616,1701.60027 222.757616,1701.23068 C222.757616,1696.03521 218.524337,1691.82352 213.302608,1691.82352 C208.080879,1691.82352 203.847898,1696.03521 203.847898,1701.23068 C203.847898,1706.42615 208.080879,1710.63785 213.302608,1710.63785 C213.451426,1710.63785 213.599649,1710.63992 213.746979,1710.63311 C213.588934,1709.71952 213.540419,1708.79083 213.568992,1708.08898 C213.592506,1707.51536 213.709179,1707.43658 213.969611,1707.88316 C215.278019,1710.12671 217.155508,1712.17008 220.80542,1712.97024 C223.789521,1713.62442 226.781657,1714.39852 230.016664,1718.46245 C230.304181,1718.82344 229.865167,1719.18473 229.535387,1718.89392 C226.243531,1715.99175 223.26955,1715.05684 220.528321,1715.05684 Z" id="qiwi"></path>
        </g>
    </g>
</svg>