<?xml version="1.0" encoding="UTF-8"?>
<svg width="92px" height="18px" viewBox="0 0 92 18" version="1.1" xmlns="http://www.w3.org/2000/svg" xmlns:xlink="http://www.w3.org/1999/xlink">
    <!-- Generator: Sketch 51.3 (57544) - http://www.bohemiancoding.com/sketch -->
    <title>credit-card-rhb-2</title>
    <desc>Created with Sketch.</desc>
    <defs></defs>
    <g id="Page-1" stroke="none" stroke-width="1" fill="none" fill-rule="evenodd">
        <g id="m7-withdraw-balance-0-1366-copy" transform="translate(-393.000000, -1209.000000)" fill-rule="nonzero">
            <g id="credit-card-rhb-2" transform="translate(393.000000, 1209.000000)">
                <g id="#025facff" fill="#FFFFFF">
                    <path d="M15.7483024,0.243965304 C16.3091945,-0.05244114 17.0331103,-0.0547211896 17.5541016,0.329467162 C18.2574969,0.840198265 18.5014622,1.78641884 18.40228,2.61635688 C18.1275341,4.67524164 17.8311276,6.73070632 17.5563817,8.78959108 C18.3281784,8.79187113 19.0988352,8.78845105 19.8694919,8.7907311 C20.1328377,6.96327138 20.3870632,5.13467162 20.6481289,3.3072119 C20.7142503,2.79876084 20.7712515,2.28004957 20.9867162,1.80921933 C21.343544,0.994101611 22.0275589,0.261065675 22.9224783,0.0649814126 C23.5449318,-0.0855018587 24.2221066,0.194944238 24.5983147,0.704535316 C25.0360843,1.27796778 25.1478067,2.04178439 25.0463445,2.74289963 C24.5036927,6.63836431 23.9587608,10.533829 23.413829,14.4292937 C23.2644857,15.4268154 22.6728129,16.3878563 21.7664932,16.8621066 C21.1987608,17.1630731 20.4531846,17.1801735 19.9276332,16.7823048 C19.2208178,16.2578934 18.9814126,15.3025527 19.091995,14.4634944 C19.2664188,13.1809665 19.4397026,11.8984387 19.6209665,10.6181908 C18.8400496,10.6113507 18.0579926,10.6090706 17.2770756,10.6193309 C17.0935316,11.9474597 16.9202478,13.2778686 16.7230235,14.6048575 C16.4972986,15.7243618 15.684461,16.8279058 14.5170756,17.0604709 C13.7053779,17.1197522 12.8891202,17.0718711 12.0762825,17.0866914 C12.740917,12.3008674 13.4044114,7.51504337 14.0690458,2.73035936 C14.2104089,1.70775713 14.8169021,0.720495663 15.7483024,0.243965304 Z" id="Shape"></path>
                    <path d="M28.9703098,1.38969021 C30.5230235,0.208624535 32.6366295,-0.31464684 34.5279306,0.266765799 C35.5938538,0.581412639 36.5400743,1.36460967 36.9322429,2.41913259 C37.25943,3.21144981 37.1591078,4.08698885 37.0063445,4.90666667 C36.8159603,6.18919455 36.0544238,7.30413879 35.1332838,8.18195787 C35.8161586,8.91043371 36.1798265,9.93759603 36.0418835,10.9339777 C35.9142007,11.7547955 35.8480793,12.605254 35.4855514,13.3667906 C34.6100124,15.271772 32.7278315,16.650062 30.6712268,17.0023296 C30.0681537,17.110632 29.4548203,17.0844114 28.8460471,17.0866914 C27.5407187,17.0855514 26.2353903,17.0878315 24.931202,17.0855514 C25.5217348,13.0589839 26.0963073,9.02899628 26.68228,5.00128872 C26.8977447,3.54319703 27.8131846,2.26636927 28.9703098,1.38969021 Z M31.7132094,2.62091698 C31.0474349,2.86716233 30.6313259,3.54547708 30.5082032,4.22037175 C30.405601,4.82572491 30.3064188,5.43335812 30.2140768,6.04099133 C30.128575,6.62582404 30.3919207,7.32465923 30.9790335,7.54240397 C31.4601239,7.73050805 31.9947955,7.48540273 32.3299628,7.12971499 C32.7939529,6.66800496 32.9512763,6.00679058 33.0208178,5.37635688 C33.0914994,4.68094176 33.398166,3.94904585 33.0971995,3.26845105 C32.889715,2.73947955 32.2570012,2.41115242 31.7132094,2.62091698 Z M30.8068897,8.81011152 C30.1456753,9.0483767 29.7193061,9.71301115 29.6041636,10.3844857 C29.484461,11.222404 29.3681784,12.0614622 29.2507559,12.9005204 C29.1777943,13.3987113 29.300917,13.9607435 29.6908055,14.303891 C29.9803717,14.5706568 30.4215613,14.626518 30.7806691,14.4748947 C31.4361834,14.213829 31.8568525,13.5434944 31.9583147,12.8640397 C32.0711772,12.0683024 32.1817596,11.271425 32.293482,10.4756877 C32.3687237,9.99687732 32.2843618,9.46562577 31.9480545,9.09853779 C31.6710285,8.78389095 31.2001983,8.66076828 30.8068897,8.81011152 Z" id="Shape"></path>
                    <path d="M2.05204461,3.89204461 C3.22057001,1.1730855 6.46166047,-0.492490706 9.34820322,0.229144981 C10.4061462,0.484510533 11.3785874,1.17878563 11.8551177,2.17174721 C12.2210657,2.90136307 12.2723668,3.74840149 12.1218835,4.54071871 C11.9634201,5.43107807 11.9645601,6.37387856 11.5393309,7.19355638 C10.9419579,8.39628253 9.85893432,9.27410161 8.70180917,9.90909542 C9.31742255,10.9202974 9.90567534,11.9485998 10.5144486,12.9632218 C11.4150682,14.2548699 10.7755143,16.2499133 9.39836431,16.928228 C8.72802974,17.2690954 7.82285006,17.0502107 7.45006196,16.3787361 C6.46166047,14.6892193 5.48237918,12.9940025 4.50423792,11.2987856 C4.3377943,12.510632 4.16793061,13.7224783 3.98552664,14.9331846 C3.81224287,15.8862454 3.14760843,16.8450062 2.15578686,17.0570508 C1.4444114,17.1231722 0.726195787,17.0695911 0.0114002478,17.0866914 C0.533531599,13.4454523 1.04996283,9.80421314 1.57209418,6.16297398 C1.69179678,5.39915737 1.73169765,4.60798017 2.05204461,3.89204461 Z M6.42973978,2.67677819 C5.92698885,2.92530359 5.61690211,3.46339529 5.5336803,4.00490706 C5.36723668,5.19623296 5.20649318,6.38869888 5.04232962,7.58116481 C4.97392813,8.03033457 5.03890954,8.54106568 5.38319703,8.86825279 C5.66934325,9.15895911 6.14017348,9.17947955 6.48788104,8.99365551 C7.02597274,8.71548947 7.33377943,8.12267658 7.38964064,7.53556382 C7.54924411,6.27583643 7.75672862,5.02294919 7.88783147,3.76094176 C7.97561338,3.00168525 7.15707559,2.2447088 6.42973978,2.67677819 Z" id="Shape"></path>
                    <path d="M83.9286245,3.32317224 C84.6069393,3.32203222 85.2863941,3.32203222 85.9658488,3.32317224 C85.9658488,5.90304833 85.9624287,8.48292441 85.9669888,11.0628005 C86.9941512,10.0014374 88.0281537,8.9469145 89.0598761,7.89011152 C89.884114,7.8889715 90.7094919,7.8889715 91.5337299,7.89125155 C90.2204213,9.17035936 88.9447336,10.487088 87.6371252,11.7730359 C89.0689963,13.5446344 90.4985874,15.318513 91.9315985,17.0889715 C91.1142007,17.0855514 90.296803,17.0844114 89.4794052,17.0901115 C88.3040397,15.6046592 87.1286741,14.1192069 85.9658488,12.6246344 C85.9635688,14.1112268 85.9647088,15.5978191 85.9647088,17.0855514 C85.285254,17.0889715 84.6069393,17.0855514 83.9286245,17.0866914 C83.9309046,12.4992317 83.9297646,7.911772 83.9286245,3.32317224 Z" id="Shape"></path>
                    <path d="M54.9184139,4.27851301 C56.2955638,4.27965304 57.6727138,4.27281289 59.0498637,4.28193309 C60.1978686,4.30017348 61.3903346,4.83028501 61.9808674,5.85174721 C62.8609665,7.27905824 62.3707559,9.48728625 60.7576208,10.1542007 C61.7551425,10.3616853 62.6147212,11.0970012 62.9920694,12.0409418 C63.5404213,13.4101115 63.112912,15.0996283 61.9888476,16.0515489 C61.1224287,16.8005452 59.9482032,17.0718711 58.8275589,17.0844114 C57.5245105,17.0889715 56.2203222,17.0855514 54.9172739,17.0866914 C54.9206939,12.8172986 54.9184139,8.54790582 54.9184139,4.27851301 Z M56.9750186,6.05923172 C56.9772986,7.26423792 56.9750186,8.46924411 56.9761586,9.67425031 C57.819777,9.62864932 58.7637175,9.85551425 59.5104337,9.34934325 C60.5079554,8.73600991 60.6230979,7.04763321 59.6232962,6.38641884 C58.8309789,5.89164808 57.8562577,6.10141264 56.9750186,6.05923172 Z M56.9761586,11.4390087 C56.9772986,12.7363569 56.9750186,14.0325651 56.9761586,15.3287732 C58.100223,15.271772 59.3656506,15.5430979 60.350632,14.8556629 C61.0722677,14.3472119 61.2945725,13.2835688 60.9081041,12.5049318 C60.582057,11.8608178 59.8581413,11.5359108 59.1707063,11.4606691 C58.4399504,11.409368 57.7069145,11.4481289 56.9761586,11.4390087 Z" id="Shape"></path>
                    <path d="M64.9301115,8.69952912 C66.2810409,7.7419083 68.0275589,7.45462206 69.6372739,7.77040892 C70.2699876,7.90379182 70.8935812,8.21045849 71.2925898,8.73486989 C71.7520198,9.32654275 71.9139033,10.0960595 71.9104833,10.8325155 C71.9116233,12.4262701 71.900223,14.0200248 71.9253036,15.6137794 C71.9481041,16.1074102 71.9492441,16.6101611 72.0928872,17.0878315 C71.5217348,17.0844114 70.9517224,17.0901115 70.38171,17.0844114 C70.2563073,16.8016853 70.1286245,16.5200991 70.0020818,16.238513 C69.2964064,16.9031475 68.3376456,17.2839157 67.3674845,17.2736555 C66.4839653,17.3135564 65.5708055,16.972689 64.9939529,16.2898141 C64.3053779,15.4815366 64.1640149,14.2981908 64.5105824,13.3132094 C64.7830483,12.5482528 65.4556629,11.9907807 66.2012392,11.7103346 C67.3652045,11.2531846 68.6374721,11.3512268 69.8618587,11.2908055 C69.8675589,10.8439157 69.8493185,10.3673854 69.596233,9.982057 C69.321487,9.53174721 68.7822553,9.32996283 68.2795043,9.28778191 C67.3401239,9.2136803 66.4007435,9.50666667 65.6198265,10.0208178 C65.3872615,9.5819083 65.1615366,9.13957869 64.9301115,8.69952912 Z M68.0651797,12.8685998 C67.5373482,12.9119207 66.9456753,13.0339033 66.6002478,13.4716729 C66.1328377,14.122627 66.3950434,15.1919703 67.1634201,15.4860967 C68.0708798,15.8417844 69.1425031,15.5522181 69.8458984,14.904684 C69.8413383,14.2001487 69.8447584,13.4967534 69.8436183,12.7933581 C69.2508055,12.8184387 68.6568525,12.833259 68.0651797,12.8685998 Z" id="Shape"></path>
                    <path d="M75.854969,8.90701363 C76.7305081,8.23895911 77.7599504,7.69516729 78.8840149,7.65754647 C79.6763321,7.5994052 80.5153903,7.84679058 81.0717224,8.43504337 C81.6918959,9.05977695 81.9176208,9.9683767 81.9290211,10.8268154 C81.9335812,12.9130607 81.926741,14.9993061 81.9324411,17.0866914 C81.2529864,17.0866914 80.5735316,17.0866914 79.8940768,17.0866914 C79.8952169,15.2672119 79.8940768,13.4477323 79.8952169,11.6282528 C79.8895167,11.0593804 79.856456,10.4471871 79.5224287,9.9638166 C79.256803,9.5819083 78.7620322,9.43142503 78.3151425,9.47816605 C77.4247831,9.53972739 76.6564064,10.0515985 75.9598513,10.5657497 C75.9518711,12.7386369 75.9552912,14.9115242 75.9587113,17.0844114 C75.2769765,17.0889715 74.5963817,17.0866914 73.9157869,17.0855514 C73.9169269,14.0200248 73.9157869,10.9556382 73.9169269,7.89011152 C74.4869393,7.8889715 75.0580917,7.88783147 75.6292441,7.89125155 C75.7044857,8.22983891 75.7797274,8.56842627 75.854969,8.90701363 Z" id="Shape"></path>
                </g>
                <g id="#e62a38ff" transform="translate(37.506815, 0.684015)" fill="#E62A38">
                    <path d="M0.111722429,7.86959108 C2.71667906,5.27717472 5.31251549,2.67677819 7.91519207,0.0809417596 C10.5201487,2.67563817 13.108005,5.28743494 15.7198017,7.87415118 C13.1216853,10.4756877 10.5167286,13.0703841 7.91633209,15.6696406 C5.32049566,13.063544 2.71097893,10.4711276 0.111722429,7.86959108 Z" id="Shape"></path>
                </g>
            </g>
        </g>
    </g>
</svg>