<?xml version="1.0" encoding="UTF-8"?>
<svg width="92px" height="17px" viewBox="0 0 92 17" version="1.1" xmlns="http://www.w3.org/2000/svg" xmlns:xlink="http://www.w3.org/1999/xlink">
    <!-- Generator: Sketch 51.3 (57544) - http://www.bohemiancoding.com/sketch -->
    <title>credit-card-rhb-2</title>
    <desc>Created with Sketch.</desc>
    <defs></defs>
    <g id="Page-1" stroke="none" stroke-width="1" fill="none" fill-rule="evenodd">
        <g id="m7-withdraw-balance-0-1366-copy" transform="translate(-198.000000, -1208.000000)" fill-rule="nonzero">
            <g id="credit-card-rhb-2" transform="translate(198.000000, 1208.000000)">
                <g id="#025facff" fill="#025FAC">
                    <path d="M15.7483024,0.239342105 C16.3091945,-0.0514473684 17.0331103,-0.0536842105 17.5541016,0.323223684 C18.2574969,0.824276316 18.5014622,1.75256579 18.40228,2.56677632 C18.1275341,4.58664474 17.8311276,6.60315789 17.5563817,8.62302632 C18.3281784,8.62526316 19.0988352,8.62190789 19.8694919,8.62414474 C20.1328377,6.83131579 20.3870632,5.03736842 20.6481289,3.24453947 C20.7142503,2.74572368 20.7712515,2.23684211 20.9867162,1.77493421 C21.343544,0.975263158 22.0275589,0.256118421 22.9224783,0.06375 C23.5449318,-0.0838815789 24.2221066,0.19125 24.5983147,0.691184211 C25.0360843,1.25375 25.1478067,2.00309211 25.0463445,2.69092105 C24.5036927,6.51256579 23.9587608,10.3342105 23.413829,14.1558553 C23.2644857,15.1344737 22.6728129,16.0773026 21.7664932,16.5425658 C21.1987608,16.8378289 20.4531846,16.8546053 19.9276332,16.4642763 C19.2208178,15.9498026 18.9814126,15.0125658 19.091995,14.1894079 C19.2664188,12.9311842 19.4397026,11.6729605 19.6209665,10.4169737 C18.8400496,10.4102632 18.0579926,10.4080263 17.2770756,10.4180921 C17.0935316,11.7210526 16.9202478,13.02625 16.7230235,14.3280921 C16.4972986,15.4263816 15.684461,16.5090132 14.5170756,16.7371711 C13.7053779,16.7953289 12.8891202,16.7483553 12.0762825,16.7628947 C12.740917,12.0677632 13.4044114,7.37263158 14.0690458,2.67861842 C14.2104089,1.67539474 14.8169021,0.706842105 15.7483024,0.239342105 Z" id="Shape"></path>
                    <path d="M28.9703098,1.36335526 C30.5230235,0.204671053 32.6366295,-0.308684211 34.5279306,0.261710526 C35.5938538,0.570394737 36.5400743,1.33875 36.9322429,2.37328947 C37.25943,3.15059211 37.1591078,4.00953947 37.0063445,4.81368421 C36.8159603,6.07190789 36.0544238,7.16572368 35.1332838,8.02690789 C35.8161586,8.74157895 36.1798265,9.74927632 36.0418835,10.7267763 C35.9142007,11.5320395 35.8480793,12.3663816 35.4855514,13.1134868 C34.6100124,14.9823684 32.7278315,16.3345395 30.6712268,16.6801316 C30.0681537,16.7863816 29.4548203,16.7606579 28.8460471,16.7628947 C27.5407187,16.7617763 26.2353903,16.7640132 24.931202,16.7617763 C25.5217348,12.8115132 26.0963073,8.85789474 26.68228,4.90651316 C26.8977447,3.47605263 27.8131846,2.22342105 28.9703098,1.36335526 Z M31.7132094,2.57125 C31.0474349,2.81282895 30.6313259,3.47828947 30.5082032,4.14039474 C30.405601,4.73427632 30.3064188,5.33039474 30.2140768,5.92651316 C30.128575,6.50026316 30.3919207,7.18585526 30.9790335,7.39947368 C31.4601239,7.58401316 31.9947955,7.34355263 32.3299628,6.99460526 C32.7939529,6.54164474 32.9512763,5.89296053 33.0208178,5.27447368 C33.0914994,4.59223684 33.398166,3.87421053 33.0971995,3.20651316 C32.889715,2.68756579 32.2570012,2.36546053 31.7132094,2.57125 Z M30.8068897,8.64315789 C30.1456753,8.87690789 29.7193061,9.52894737 29.6041636,10.1876974 C29.484461,11.0097368 29.3681784,11.8328947 29.2507559,12.6560526 C29.1777943,13.1448026 29.300917,13.6961842 29.6908055,14.0328289 C29.9803717,14.2945395 30.4215613,14.3493421 30.7806691,14.2005921 C31.4361834,13.9444737 31.8568525,13.2868421 31.9583147,12.6202632 C32.0711772,11.8396053 32.1817596,11.0578289 32.293482,10.2771711 C32.3687237,9.80743421 32.2843618,9.28625 31.9480545,8.92611842 C31.6710285,8.61743421 31.2001983,8.49664474 30.8068897,8.64315789 Z" id="Shape"></path>
                    <path d="M2.05204461,3.81828947 C3.22057001,1.15085526 6.46166047,-0.483157895 9.34820322,0.224802632 C10.4061462,0.475328947 11.3785874,1.15644737 11.8551177,2.13059211 C12.2210657,2.84638158 12.2723668,3.67736842 12.1218835,4.45467105 C11.9634201,5.32815789 11.9645601,6.25309211 11.5393309,7.05723684 C10.9419579,8.23717105 9.85893432,9.09835526 8.70180917,9.72131579 C9.31742255,10.7133553 9.90567534,11.7221711 10.5144486,12.7175658 C11.4150682,13.9847368 10.7755143,15.9419737 9.39836431,16.6074342 C8.72802974,16.9418421 7.82285006,16.7271053 7.45006196,16.0683553 C6.46166047,14.4108553 5.48237918,12.7477632 4.50423792,11.0846711 C4.3377943,12.2735526 4.16793061,13.4624342 3.98552664,14.6501974 C3.81224287,15.5851974 3.14760843,16.5257895 2.15578686,16.7338158 C1.4444114,16.7986842 0.726195787,16.7461184 0.0114002478,16.7628947 C0.533531599,13.1906579 1.04996283,9.61842105 1.57209418,6.04618421 C1.69179678,5.29684211 1.73169765,4.52065789 2.05204461,3.81828947 Z M6.42973978,2.62605263 C5.92698885,2.86986842 5.61690211,3.39776316 5.5336803,3.92901316 C5.36723668,5.09776316 5.20649318,6.26763158 5.04232962,7.4375 C4.97392813,7.87815789 5.03890954,8.37921053 5.38319703,8.70019737 C5.66934325,8.98539474 6.14017348,9.00552632 6.48788104,8.82322368 C7.02597274,8.55032895 7.33377943,7.96875 7.38964064,7.39276316 C7.54924411,6.15690789 7.75672862,4.92776316 7.88783147,3.68967105 C7.97561338,2.94480263 7.15707559,2.20217105 6.42973978,2.62605263 Z" id="Shape"></path>
                    <path d="M83.9286245,3.26019737 C84.6069393,3.25907895 85.2863941,3.25907895 85.9658488,3.26019737 C85.9658488,5.79118421 85.9624287,8.32217105 85.9669888,10.8531579 C86.9941512,9.81190789 88.0281537,8.77736842 89.0598761,7.74059211 C89.884114,7.73947368 90.7094919,7.73947368 91.5337299,7.74171053 C90.2204213,8.99657895 88.9447336,10.2883553 87.6371252,11.5499342 C89.0689963,13.2879605 90.4985874,15.0282237 91.9315985,16.7651316 C91.1142007,16.7617763 90.296803,16.7606579 89.4794052,16.76625 C88.3040397,15.3089474 87.1286741,13.8516447 85.9658488,12.3853947 C85.9635688,13.8438158 85.9647088,15.3022368 85.9647088,16.7617763 C85.285254,16.7651316 84.6069393,16.7617763 83.9286245,16.7628947 C83.9309046,12.2623684 83.9297646,7.76184211 83.9286245,3.26019737 Z" id="Shape"></path>
                    <path d="M54.9184139,4.19743421 C56.2955638,4.19855263 57.6727138,4.19184211 59.0498637,4.20078947 C60.1978686,4.21868421 61.3903346,4.73875 61.9808674,5.74085526 C62.8609665,7.14111842 62.3707559,9.3075 60.7576208,9.96177632 C61.7551425,10.1653289 62.6147212,10.8867105 62.9920694,11.8127632 C63.5404213,13.1559868 63.112912,14.8134868 61.9888476,15.7473684 C61.1224287,16.4821711 59.9482032,16.7483553 58.8275589,16.7606579 C57.5245105,16.7651316 56.2203222,16.7617763 54.9172739,16.7628947 C54.9206939,12.5744079 54.9184139,8.38592105 54.9184139,4.19743421 Z M56.9750186,5.94440789 C56.9772986,7.12657895 56.9750186,8.30875 56.9761586,9.49092105 C57.819777,9.44618421 58.7637175,9.66875 59.5104337,9.17217105 C60.5079554,8.57046053 60.6230979,6.91407895 59.6232962,6.26539474 C58.8309789,5.78 57.8562577,5.98578947 56.9750186,5.94440789 Z M56.9761586,11.2222368 C56.9772986,12.495 56.9750186,13.7666447 56.9761586,15.0382895 C58.100223,14.9823684 59.3656506,15.2485526 60.350632,14.5741447 C61.0722677,14.0753289 61.2945725,13.0318421 60.9081041,12.2679605 C60.582057,11.6360526 59.8581413,11.3173026 59.1707063,11.2434868 C58.4399504,11.1931579 57.7069145,11.2311842 56.9761586,11.2222368 Z" id="Shape"></path>
                    <path d="M64.9301115,8.53467105 C66.2810409,7.59519737 68.0275589,7.31335526 69.6372739,7.62315789 C70.2699876,7.75401316 70.8935812,8.05486842 71.2925898,8.56934211 C71.7520198,9.14980263 71.9139033,9.90473684 71.9104833,10.6272368 C71.9116233,12.1907895 71.900223,13.7543421 71.9253036,15.3178947 C71.9481041,15.8021711 71.9492441,16.2953947 72.0928872,16.7640132 C71.5217348,16.7606579 70.9517224,16.76625 70.38171,16.7606579 C70.2563073,16.4832895 70.1286245,16.2070395 70.0020818,15.9307895 C69.2964064,16.5828289 68.3376456,16.9563816 67.3674845,16.9463158 C66.4839653,16.9854605 65.5708055,16.6510526 64.9939529,15.9811184 C64.3053779,15.1881579 64.1640149,14.0272368 64.5105824,13.0609211 C64.7830483,12.3104605 65.4556629,11.7635526 66.2012392,11.4884211 C67.3652045,11.0399342 68.6374721,11.1361184 69.8618587,11.0768421 C69.8675589,10.6384211 69.8493185,10.1709211 69.596233,9.79289474 C69.321487,9.35111842 68.7822553,9.15315789 68.2795043,9.11177632 C67.3401239,9.03907895 66.4007435,9.32651316 65.6198265,9.83092105 C65.3872615,9.40032895 65.1615366,8.96638158 64.9301115,8.53467105 Z M68.0651797,12.6247368 C67.5373482,12.6672368 66.9456753,12.7869079 66.6002478,13.2163816 C66.1328377,13.855 66.3950434,14.9040789 67.1634201,15.1926316 C68.0708798,15.5415789 69.1425031,15.2575 69.8458984,14.6222368 C69.8413383,13.9310526 69.8447584,13.2409868 69.8436183,12.5509211 C69.2508055,12.5755263 68.6568525,12.5900658 68.0651797,12.6247368 Z" id="Shape"></path>
                    <path d="M75.854969,8.73822368 C76.7305081,8.08282895 77.7599504,7.54934211 78.8840149,7.51243421 C79.6763321,7.45539474 80.5153903,7.69809211 81.0717224,8.27519737 C81.6918959,8.88809211 81.9176208,9.77947368 81.9290211,10.6216447 C81.9335812,12.6683553 81.926741,14.7150658 81.9324411,16.7628947 C81.2529864,16.7628947 80.5735316,16.7628947 79.8940768,16.7628947 C79.8952169,14.9778947 79.8940768,13.1928947 79.8952169,11.4078947 C79.8895167,10.8498026 79.856456,10.2492105 79.5224287,9.775 C79.256803,9.40032895 78.7620322,9.25269737 78.3151425,9.29855263 C77.4247831,9.35894737 76.6564064,9.86111842 75.9598513,10.3655263 C75.9518711,12.4972368 75.9552912,14.6289474 75.9587113,16.7606579 C75.2769765,16.7651316 74.5963817,16.7628947 73.9157869,16.7617763 C73.9169269,13.7543421 73.9157869,10.7480263 73.9169269,7.74059211 C74.4869393,7.73947368 75.0580917,7.73835526 75.6292441,7.74171053 C75.7044857,8.07388158 75.7797274,8.40605263 75.854969,8.73822368 Z" id="Shape"></path>
                </g>
                <g id="#e62a38ff" transform="translate(37.506815, 0.671053)" fill="#E62A38">
                    <path d="M0.111722429,7.72046053 C2.71667906,5.17717105 5.31251549,2.62605263 7.91519207,0.0794078947 C10.5201487,2.62493421 13.108005,5.18723684 15.7198017,7.72493421 C13.1216853,10.2771711 10.5167286,12.8226974 7.91633209,15.3726974 C5.32049566,12.8159868 2.71097893,10.2726974 0.111722429,7.72046053 Z" id="Shape"></path>
                </g>
            </g>
        </g>
    </g>
</svg>