<?xml version="1.0" encoding="UTF-8"?>
<svg width="107px" height="16px" viewBox="0 0 107 16" version="1.1" xmlns="http://www.w3.org/2000/svg" xmlns:xlink="http://www.w3.org/1999/xlink">
    <!-- Generator: Sketch 51.3 (57544) - http://www.bohemiancoding.com/sketch -->
    <title>logo-ngan-hang-sacombank</title>
    <desc>Created with Sketch.</desc>
    <defs></defs>
    <g id="Page-1" stroke="none" stroke-width="1" fill="none" fill-rule="evenodd">
        <g id="m7-withdraw-balance-0-1366-copy" transform="translate(-753.000000, -1648.000000)" fill-rule="nonzero">
            <g id="logo-ngan-hang-sacombank" transform="translate(753.000000, 1648.000000)">
                <g id="#0072bcff" fill="#0072BC">
                    <path d="M3.58174134,1.49094972 C4.87062553,0.57027933 6.45889265,0.127821229 8.03811496,0.0902793296 C9.67522401,0.010726257 11.4697126,0.230614525 12.7613102,1.31932961 C13.7661877,2.1926257 14.0212511,3.58703911 14.0013525,4.84916201 C12.4899662,4.85005587 10.9785799,4.84916201 9.46719358,4.84916201 C9.4662891,4.41296089 9.27906171,3.9427933 8.84310228,3.77027933 C8.20725275,3.50569832 7.467388,3.50122905 6.80892646,3.68178771 C6.36030431,3.79977654 6.00665258,4.26100559 6.14051564,4.72581006 C6.28975486,5.22905028 6.84058326,5.43106145 7.28920541,5.6 C8.68572274,6.06301676 10.1826374,6.26413408 11.4823753,6.98368715 C12.429366,7.45206704 13.2614877,8.29854749 13.3854015,9.37743017 C13.569011,11.1526257 12.8716568,13.0458101 11.4615723,14.1881564 C10.1319865,15.2178771 8.45598478,15.7461453 6.78721893,15.8918436 C5.33733728,16.0134078 3.80695689,15.9177654 2.49817413,15.2339665 C1.52495351,14.7092737 0.661174979,13.8851397 0.303000845,12.8259218 C0.0777852916,12.1984358 0.0524598478,11.5208939 0.118486898,10.8639106 C1.64615385,10.8549721 3.17472527,10.8630168 4.70239222,10.8603352 C4.72590871,11.2643575 4.84801352,11.6880447 5.17814877,11.9544134 C5.90715976,12.5506145 6.95364328,12.5765363 7.82284869,12.3056983 C8.30765004,12.1608939 8.76350803,11.7094972 8.70200338,11.1776536 C8.68120034,10.8281564 8.4143787,10.5430168 8.10142857,10.4089385 C6.45256128,9.71173184 4.61284869,9.51240223 3.05623838,8.5926257 C2.25306002,8.18145251 1.61901944,7.42614525 1.47611158,6.52960894 C1.32687236,5.94234637 1.46797126,5.34703911 1.51229079,4.75798883 C1.67871513,3.43687151 2.48641589,2.24536313 3.58174134,1.49094972 Z" id="Shape"></path>
                    <path d="M65.6978191,0.0893854749 C66.8356551,0.0893854749 67.9743956,0.0893854749 69.1122316,0.0893854749 C68.7576754,2.0424581 68.4013102,3.99463687 68.0395182,5.94592179 C68.4718597,5.60446927 68.9313356,5.27284916 69.459552,5.09318436 C70.120727,4.92603352 70.8280304,4.87687151 71.4964413,5.03776536 C72.5429248,5.30055866 73.396754,6.19620112 73.5767456,7.25184358 C73.762164,8.34502793 73.6111158,9.49810056 73.1453085,10.5072626 C72.6550803,11.5316201 71.8799408,12.4755307 70.8216991,12.96 C69.9660609,13.3515084 68.9756551,13.4408939 68.0557988,13.2549721 C67.3982418,13.1173184 66.8483178,12.6507263 66.5842096,12.0437989 C66.5064243,12.3941899 66.4268301,12.7436872 66.3517582,13.0940782 C65.3342181,13.0958659 64.3157735,13.0949721 63.2973288,13.0949721 C64.0968893,8.75977654 64.90459,4.42547486 65.6978191,0.0893854749 Z M68.5089434,7.47530726 C67.8369146,7.71217877 67.6433559,8.46837989 67.4507016,9.06994413 C67.2679966,9.5803352 67.2164413,10.1881564 67.5420541,10.6547486 C67.8975148,11.1427933 68.6446154,11.1302793 69.1348436,10.8639106 C69.843956,10.4187709 70.1849451,9.56067039 70.2283601,8.75888268 C70.2310735,8.32893855 70.1677599,7.81765363 69.7860693,7.5477095 C69.4107101,7.30189944 68.9186729,7.34748603 68.5089434,7.47530726 Z" id="Shape"></path>
                    <path d="M98.3377937,0.0893854749 C99.4692984,0.0893854749 100.601708,0.0893854749 101.733212,0.0893854749 C101.285495,2.46167598 100.837777,4.83396648 100.400913,7.20893855 C101.261074,6.41608939 102.129374,5.63307263 102.98049,4.83128492 C104.307363,4.82145251 105.635139,4.82860335 106.962916,4.82681564 C105.732823,5.8627933 104.485545,6.88089385 103.247312,7.90614525 C104.097523,9.63843575 104.959493,11.3644693 105.820558,13.0913966 C104.465647,13.0994413 103.109831,13.0931844 101.754015,13.0949721 C101.338859,12.0589944 100.924607,11.0221229 100.504928,9.98793296 C100.266145,10.184581 100.030076,10.3830168 99.7931023,10.5796648 C99.6321048,11.4189944 99.4674894,12.2574302 99.3055875,13.0958659 C98.1749873,13.0931844 97.0443872,13.0958659 95.913787,13.0940782 C96.7205833,8.75888268 97.530093,4.42458101 98.3377937,0.0893854749 Z" id="Shape"></path>
                    <path d="M19.7728402,4.98949721 C20.7831445,4.92067039 21.8024937,4.90458101 22.8082756,5.03776536 C23.3681488,5.12357542 23.9632967,5.26659218 24.3739307,5.68044693 C24.7529079,6.0326257 24.8894844,6.5698324 24.8722992,7.06860335 C24.8442604,7.76223464 24.679645,8.43888268 24.5548267,9.11910615 C24.359459,10.1631285 24.1478107,11.2053631 23.9632967,12.252067 C23.9090279,12.578324 24.2319273,12.7955307 24.3250888,13.0842458 C23.1438377,13.1092737 21.9616822,13.0878212 20.7804311,13.0949721 C20.7804311,12.8143017 20.7795266,12.5345251 20.7813356,12.2547486 C19.828918,12.9626816 18.6503804,13.3756425 17.4528487,13.3434637 C16.6424345,13.384581 15.8175486,13.1244693 15.1925528,12.6105028 C14.7783009,12.2502793 14.7023246,11.6630168 14.750262,11.1490503 C14.8461369,10.4455866 15.1645139,9.74659218 15.7379544,9.2996648 C16.1684869,8.96804469 16.6804227,8.74815642 17.2068301,8.61318436 C18.3202451,8.36826816 19.4598901,8.27798883 20.580541,8.07418994 C20.900727,8.00804469 21.2697549,7.90882682 21.4443195,7.60849162 C21.5899408,7.3698324 21.4425106,7.04625698 21.1892561,6.95061453 C20.4873795,6.68782123 19.4933559,6.85765363 19.1930685,7.61921788 C18.1022654,7.62011173 17.0123669,7.6227933 15.9215638,7.61743017 C16.0545224,6.95865922 16.3964159,6.33653631 16.9418174,5.92536313 C17.7477092,5.30949721 18.779721,5.08603352 19.7728402,4.98949721 Z M18.6078698,10.3401117 C18.280448,10.5930726 18.1520118,11.1946369 18.5771175,11.421676 C19.1632206,11.6683799 19.898563,11.5280447 20.3616568,11.0963128 C20.784049,10.713743 20.968563,10.1515084 21.081623,9.61162011 C20.2784446,9.93877095 19.3549704,9.87173184 18.6078698,10.3401117 Z" id="Shape"></path>
                    <path d="M28.2432967,5.83329609 C29.5050465,5.01184358 31.0860778,4.84916201 32.5594759,4.98502793 C33.5797295,5.0922905 34.6949535,5.43106145 35.3018597,6.30972067 C35.6953085,6.85765363 35.7360101,7.55307263 35.7043533,8.20111732 C34.5610904,8.19932961 33.418732,8.20379888 32.2754691,8.19932961 C32.2953677,7.91240223 32.2682333,7.60044693 32.0592984,7.38055866 C31.6929839,6.9372067 31.0082925,7.00424581 30.528918,7.20893855 C29.8957819,7.49765363 29.6931784,8.21899441 29.5240406,8.82860335 C29.391082,9.41497207 29.1848605,10.0683799 29.4670583,10.6449162 C29.7537785,11.1982123 30.5108284,11.2929609 31.052612,11.095419 C31.5428402,10.9202235 31.8259425,10.4545251 32.033973,10.0111732 C33.1573373,10.012067 34.2816061,10.0093855 35.4049704,10.012067 C35.1173457,11.1034637 34.354869,12.0527374 33.3409467,12.5711732 C31.9787997,13.2916201 30.3615892,13.4507263 28.8502029,13.2147486 C28.0081319,13.0753073 27.1615385,12.7159777 26.6215638,12.0393296 C26.0553593,11.3769832 25.7831107,10.4625698 25.975765,9.60804469 C26.1213863,8.1027933 26.9788335,6.68335196 28.2432967,5.83329609 Z" id="Shape"></path>
                    <path d="M41.5735249,4.99128492 C42.9845139,4.82324022 44.5176078,5.0350838 45.6708199,5.90837989 C46.2777261,6.36513966 46.5906762,7.11418994 46.6395182,7.85251397 C46.6847422,9.10748603 46.3609383,10.412514 45.5414793,11.396648 C44.6360947,12.5193296 43.2061116,13.0931844 41.8023584,13.3005587 C40.4537785,13.4444693 38.9876162,13.2791061 37.8732967,12.4540782 C37.0239899,11.8569832 36.651344,10.7512849 36.8042012,9.75374302 C36.8937447,8.45050279 37.4454776,7.14100559 38.4639222,6.28201117 C39.3367456,5.55351955 40.4438292,5.12357542 41.5735249,4.99128492 Z M41.6458833,7.12402235 C41.0064159,7.28938547 40.6563821,7.90614525 40.5071429,8.49787709 C40.3208199,9.22100559 39.9970161,10.043352 40.4022232,10.7503911 C40.8644125,11.4046927 41.9271767,11.2777654 42.4463483,10.7539665 C42.892257,10.2569832 43.1075232,9.59374302 43.1943533,8.94480447 C43.2287236,8.4147486 43.2703297,7.8122905 42.9221048,7.36715084 C42.6181995,6.99530726 42.0700845,7.01318436 41.6458833,7.12402235 Z" id="Shape"></path>
                    <path d="M51.4775824,6.27217877 C52.2744294,5.51687151 53.3236264,4.9322905 54.4533221,4.93765363 C55.1217329,4.9501676 55.8444125,5.06011173 56.3608707,5.51776536 C56.6258833,5.73854749 56.7742181,6.05318436 56.9107946,6.35977654 C57.7031192,5.5347486 58.7975402,4.9698324 59.9616061,4.94391061 C60.7783516,4.93407821 61.7181065,5.00290503 62.3150634,5.62592179 C62.9373457,6.34011173 62.8496112,7.36804469 62.7374556,8.23955307 C62.4389772,9.85921788 62.1332629,11.477095 61.8284531,13.0949721 C60.6969484,13.0940782 59.5663483,13.0958659 58.4357481,13.0949721 C58.6853846,11.7541899 58.9341167,10.4134078 59.1864666,9.0726257 C59.2479713,8.68022346 59.352891,8.26905028 59.2298817,7.87664804 C59.1756128,7.68625698 59.010093,7.53877095 58.8183432,7.4922905 C58.347109,7.36804469 57.8053254,7.45385475 57.4326796,7.7747486 C57.120634,8.10189944 57.0157143,8.55955307 56.9198394,8.98592179 C56.664776,10.3553073 56.4088081,11.7246927 56.1537447,13.0949721 C55.0213356,13.0967598 53.8898309,13.0922905 52.7574218,13.0967598 C53.0061538,11.7684916 53.2575993,10.4402235 53.5072358,9.11195531 C53.5488419,8.67039106 53.6908453,8.18234637 53.4701522,7.76759777 C53.1870499,7.36446927 52.588284,7.37698324 52.1758411,7.55932961 C51.6069231,7.79977654 51.3952747,8.4326257 51.2514624,8.97787709 C50.9774049,10.3472626 50.7386221,11.7237989 50.472705,13.0949721 C49.3484362,13.0949721 48.2241674,13.0949721 47.0989941,13.0949721 C47.5901268,10.442905 48.0848774,7.79083799 48.5769146,5.13877095 C49.6134489,5.1396648 50.6499831,5.14145251 51.6865173,5.13787709 C51.6186813,5.51597765 51.5626036,5.89675978 51.4775824,6.27217877 Z" id="Shape"></path>
                    <path d="M79.1293491,4.99128492 C80.182164,4.91888268 81.2467371,4.89921788 82.2923161,5.05921788 C82.9263567,5.15932961 83.5992899,5.40156425 83.9637954,5.95843575 C84.3436771,6.54480447 84.2378529,7.27865922 84.1446915,7.93117318 C83.8823922,9.35955307 83.5929586,10.7834637 83.3315638,12.2127374 C83.2393068,12.5595531 83.6110482,12.7767598 83.6825021,13.0878212 C82.4931107,13.1039106 81.3037194,13.0905028 80.114328,13.0949721 C80.1134235,12.8187709 80.1134235,12.5434637 80.1134235,12.2672626 C79.1673373,12.9823464 77.9797549,13.3729609 76.7885545,13.3434637 C75.9781403,13.3810056 75.1532544,13.1173184 74.5373035,12.5926257 C74.1510904,12.2350838 74.0642604,11.6755307 74.103153,11.1767598 C74.2062637,10.4732961 74.5083601,9.76357542 75.0845139,9.31217877 C75.5105241,8.98592179 76.0088926,8.75530726 76.5298732,8.61944134 C77.6306255,8.37810056 78.7557988,8.28156425 79.8655959,8.08849162 C80.2038715,8.02234637 80.5982249,7.93027933 80.794497,7.62011173 C80.9482587,7.39307263 80.8252494,7.07128492 80.5801352,6.96670391 C79.8728318,6.67709497 78.863432,6.85139665 78.5522908,7.62011173 C77.4623922,7.61921788 76.3715892,7.6227933 75.2816906,7.61832402 C75.4083178,6.98726257 75.7122232,6.37407821 76.2313948,5.97005587 C77.0445224,5.31664804 78.11,5.08871508 79.1293491,4.99128492 Z M77.9526205,10.350838 C77.6224852,10.6046927 77.5257058,11.2402235 77.9670921,11.4332961 C78.5034489,11.6478212 79.1492477,11.5316201 79.6087236,11.1901676 C80.114328,10.8201117 80.3214539,10.197095 80.4480811,9.61340782 C79.6367625,9.93787709 78.699721,9.86547486 77.9526205,10.350838 Z" id="Shape"></path>
                    <path d="M89.2622401,6.36692737 C90.0229079,5.58301676 91.0431615,4.99932961 92.1601944,4.94837989 C93.0266864,4.9126257 94.0071429,5.04044693 94.6348521,5.69206704 C95.1920118,6.33027933 95.2064835,7.24201117 95.1087997,8.03664804 C94.7994675,9.72424581 94.4675232,11.409162 94.1500507,13.0958659 C93.0248774,13.0922905 91.8997041,13.0994413 90.7745309,13.0922905 C91.0304987,11.7407821 91.2837532,10.3883799 91.5406255,9.03687151 C91.6048436,8.66234637 91.6401183,8.2627933 91.5053508,7.89988827 C91.3995266,7.6227933 91.1055706,7.46994413 90.8197549,7.44938547 C90.3684193,7.41094972 89.8501522,7.49854749 89.5462468,7.86055866 C89.2459594,8.25027933 89.1229501,8.73832402 89.0279797,9.21117318 C88.785579,10.5054749 88.5449873,11.7997765 88.3034911,13.0940782 C87.1647506,13.0967598 86.0269146,13.0922905 84.8890786,13.0967598 C85.3892561,10.4437989 85.8849112,7.78994413 86.3896112,5.13698324 C87.4261454,5.14234637 88.4626796,5.13877095 89.4992139,5.13877095 C89.4178107,5.54815642 89.3409298,5.9575419 89.2622401,6.36692737 Z" id="Shape"></path>
                </g>
                <g id="#ffe000ff" transform="translate(14.743026, 14.927374)" fill="#FFE000">
                    <path d="M0,0.0223463687 C30.6465004,0.0223463687 61.2939053,0.0223463687 91.9404057,0.0223463687 C91.9395013,0.349497207 91.9395013,0.677541899 91.9404057,1.00558659 C61.2939053,1.00558659 30.6465004,1.00558659 0,1.00558659 C0,0.677541899 0,0.349497207 0,0.0223463687 Z" id="Shape"></path>
                </g>
            </g>
        </g>
    </g>
</svg>