<?xml version="1.0" encoding="UTF-8" standalone="no"?>
<svg width="100px" height="19px" viewBox="0 0 100 19" version="1.1" xmlns="http://www.w3.org/2000/svg" xmlns:xlink="http://www.w3.org/1999/xlink">
    <!-- Generator: Sketch 50.2 (55047) - http://www.bohemiancoding.com/sketch -->
    <title>safetypay </title>
    <desc>Created with Sketch.</desc>
    <defs></defs>
    <g id="Page-1" stroke="none" stroke-width="1" fill="none" fill-rule="evenodd">
        <g id="withdraw-" transform="translate(-757.000000, -2676.000000)" fill-rule="nonzero">
            <g id="safetypay-" transform="translate(757.000000, 2676.000000)">
                <path d="M3.28358209,14.9651685 C2.19616205,14.9651685 1.13006397,14.7089888 0.341151386,14.2393258 L0.191897655,14.1539326 L0.78891258,12.3393258 L1.02345416,12.488764 C1.5565032,12.8303371 2.47334755,13.1932584 3.32622601,13.1932584 C4.41364606,13.1932584 5.07462687,12.7022472 5.07462687,11.9123596 C5.07462687,11.1651685 4.62686567,10.7382022 3.34754797,10.2685393 C1.02345416,9.43595506 0.554371002,8.15505618 0.554371002,7.21573034 C0.554371002,5.35842697 2.06823028,4.03483146 4.24307036,4.03483146 C5.15991471,4.03483146 6.14072495,4.26966292 6.82302772,4.69662921 L6.97228145,4.78202247 L6.37526652,6.53258427 L6.14072495,6.38314607 C5.88486141,6.21235955 5.15991471,5.82808989 4.20042644,5.82808989 C3.32622601,5.82808989 2.72921109,6.29775281 2.72921109,6.98089888 C2.72921109,7.62134831 3.13432836,7.96292135 4.4989339,8.49662921 C6.41791045,9.22247191 7.27078891,10.2258427 7.27078891,11.741573 C7.27078891,13.6842697 5.69296375,14.9651685 3.28358209,14.9651685 Z" id="Shape" fill="#285AA0"></path>
                <path d="M0.91684435,12.6595506 C1.44989339,13.0224719 2.40938166,13.3853933 3.32622601,13.3853933 C4.64818763,13.3853933 5.28784648,12.7235955 5.28784648,11.8910112 C5.28784648,11.0157303 4.7761194,10.5460674 3.41151386,10.0337079 C1.59914712,9.39325843 0.746268657,8.38988764 0.746268657,7.17303371 C0.746268657,5.5505618 2.04690832,4.20561798 4.2217484,4.20561798 C5.24520256,4.20561798 6.14072495,4.50449438 6.69509595,4.8247191 L6.24733475,6.14831461 C5.84221748,5.89213483 5.11727079,5.57191011 4.17910448,5.57191011 C3.09168443,5.57191011 2.49466951,6.19101124 2.49466951,6.93820225 C2.49466951,7.77078652 3.09168443,8.15505618 4.41364606,8.64606742 C6.16204691,9.30786517 7.0575693,10.1831461 7.0575693,11.6775281 C7.0575693,13.4494382 5.69296375,14.6876404 3.28358209,14.6876404 C2.17484009,14.6876404 1.15138593,14.4101124 0.447761194,14.0044944 L0.91684435,12.6595506 Z" id="Shape" fill="#285AA0"></path>
                <path d="M11.684435,14.9865169 C10.0426439,14.9865169 8.40085288,13.9191011 8.40085288,11.8696629 C8.40085288,10.3966292 9.18976546,7.94157303 14.45629,7.8988764 C14.45629,6.48988764 13.7526652,5.78539326 12.3880597,5.78539326 C11.5138593,5.78539326 10.575693,6.06292135 9.89339019,6.51123596 L9.65884861,6.66067416 L9.10447761,5.03820225 L9.25373134,4.95280899 C10.1705757,4.35505618 11.4072495,4.01348315 12.6865672,4.01348315 C14.5202559,4.01348315 16.7164179,4.76067416 16.7164179,8.34719101 L16.7164179,12.1258427 C16.7164179,13.1292135 16.6950959,14.7516854 16.6950959,14.7516854 L14.7121535,14.7516854 L14.6695096,13.7269663 C13.9445629,14.5168539 12.8571429,14.9865169 11.684435,14.9865169 Z M14.4136461,9.60674157 C11.9189765,9.60674157 10.6609808,10.2898876 10.6609808,11.6561798 C10.6609808,12.7876404 11.4498934,13.1932584 12.1748401,13.1932584 C13.4328358,13.1932584 14.1577825,12.3606742 14.4136461,11.6561798 C14.4776119,11.4853933 14.4989339,11.2932584 14.4989339,11.1438202 L14.4989339,9.60674157 C14.45629,9.60674157 14.434968,9.60674157 14.4136461,9.60674157 Z" id="Shape" fill="#285AA0"></path>
                <path d="M19.4029851,14.7516854 L19.4029851,6.06292135 L17.9957356,6.06292135 L17.9957356,4.24831461 L19.4029851,4.24831461 L19.4029851,3.99213483 C19.466951,3.30898876 19.7867804,1.98539326 20.6396588,1.1741573 C21.8550107,0.0213483146 24.0085288,0.170786517 24.0085288,0.170786517 L24.1577825,2.07078652 C24.1577825,2.07078652 21.7697228,1.70786517 21.641791,3.92808989 L21.641791,4.24831461 L24.0724947,4.24831461 L24.0724947,6.06292135 L21.641791,6.06292135 L21.641791,14.7516854 L19.4029851,14.7516854 Z" id="Shape" fill="#285AA0"></path>
                <path d="M29.445629,14.9651685 C26.3113006,14.9651685 24.2857143,12.894382 24.2857143,9.67078652 C24.2857143,6.34044944 26.3113006,4.01348315 29.2110874,4.01348315 C30.7249467,4.01348315 31.9402985,4.63258427 32.7078891,5.78539326 C33.4968017,7.00224719 33.5820896,8.41123596 33.5820896,8.96629213 C33.5820896,9.30786517 33.5607676,9.56404494 33.5181237,9.75617978 L33.4968017,10.0337079 L26.4605544,10.0337079 C26.6098081,12.8089888 28.7633262,13.1078652 29.7014925,13.1078652 C31.0447761,13.1078652 31.7910448,12.8730337 32.4093817,12.5955056 L32.6439232,12.488764 L33.0490405,14.2179775 L32.8784648,14.2820225 C32.238806,14.6022472 31.108742,14.9651685 29.445629,14.9651685 Z M31.4072495,8.30449438 C31.3859275,7.83483146 31.2793177,6.95955056 30.6823028,6.36179775 C30.2985075,5.95617978 29.7441365,5.76404494 29.0831557,5.76404494 C27.4200426,5.76404494 26.7164179,7.27977528 26.5245203,8.30449438 L31.4072495,8.30449438 Z" id="Shape" fill="#285AA0"></path>
                <path d="M38.7420043,14.9651685 C37.8251599,14.9651685 37.0788913,14.6662921 36.6098081,14.111236 C36.098081,13.5775281 35.8422175,12.7022472 35.8422175,11.3359551 L35.8422175,6.04157303 L34.2857143,6.04157303 L34.2857143,4.22696629 L35.8422175,4.22696629 L35.8422175,0.426966292 L38.0597015,0.426966292 L38.0597015,4.24831461 L40.6823028,4.24831461 L40.6823028,6.06292135 L38.0597015,6.06292135 L38.0597015,11.2932584 C38.0597015,12.8303371 38.6140725,13.0438202 39.2110874,13.0438202 C39.6801706,13.0438202 40.021322,12.9797753 40.2132196,12.9157303 L40.4690832,12.8516854 L40.575693,14.6449438 L40.4264392,14.7089888 C40.0426439,14.858427 39.424307,14.9651685 38.7420043,14.9651685 Z" id="Shape" fill="#285AA0"></path>
                <path d="M41.7484009,16.694382 C42.6439232,16.9505618 43.4968017,17.1853933 44.6695096,14.9651685 C44.7334755,14.858427 45.010661,14.3033708 45.010661,14.2393258 C45.010661,14.1539326 44.9466951,13.9831461 44.9040512,13.8337079 L41.0660981,4.26966292 L43.5181237,4.26966292 L45.7782516,10.3752809 C45.9488273,10.8449438 46.098081,11.3573034 46.2473348,11.8269663 C46.2473348,11.805618 46.2473348,11.7842697 46.2686567,11.7842697 C46.3965885,11.3359551 46.5458422,10.8235955 46.7164179,10.3539326 L48.7633262,4.29101124 L51.1727079,4.29101124 L48.315565,11.7629213 C46.9083156,15.4988764 46.0341151,17.1213483 44.7974414,18.1674157 C43.326226,19.405618 41.08742,18.188764 41.08742,18.188764 L41.7484009,16.694382 Z" id="Shape" fill="#285AA0"></path>
                <path d="M67.0362473,18.8719101 L68.9978678,7.70674157 C69.2110874,6.44719101 69.3603412,5.42247191 69.4882729,4.41910112 L69.5095949,4.22696629 L71.5778252,4.22696629 L71.4072495,5.5505618 C72.4093817,4.5258427 73.6673774,3.99213483 75.0746269,3.99213483 C76.2046908,3.99213483 77.1641791,4.41910112 77.8251599,5.20898876 C78.6567164,6.19101124 78.9339019,7.66404494 78.6353945,9.37191011 C77.9530917,13.2359551 75.2665245,14.9651685 72.8997868,14.9651685 C71.7057569,14.9651685 70.7036247,14.5168539 70.1492537,13.7269663 L69.2537313,18.8505618 L67.0362473,18.8505618 L67.0362473,18.8719101 Z M74.2643923,5.89213483 C73.0703625,5.89213483 71.8336887,6.76741573 71.3006397,8.02696629 C71.2153518,8.24044944 71.108742,8.49662921 71.0660981,8.73146067 L70.7675906,10.4606742 C70.7249467,10.7168539 70.7249467,10.9516854 70.7249467,11.1651685 C70.8315565,12.3179775 71.684435,13.1078652 72.8784648,13.1078652 C74.6481876,13.1078652 76.0127932,11.6775281 76.4179104,9.39325843 C76.6311301,8.24044944 76.4392324,7.21573034 75.9061834,6.59662921 C75.5010661,6.12696629 74.9680171,5.89213483 74.2643923,5.89213483 Z" id="Shape" fill="#069FCD"></path>
                <path d="M82.0895522,14.9865169 C81.108742,14.9865169 80.3411514,14.6662921 79.8294243,14.0685393 C79.3603412,13.4921348 79.1684435,12.6808989 79.3176972,11.8483146 C79.7654584,9.32921348 82.1535181,7.94157303 86.0554371,7.92022472 L86.0554371,7.8988764 C86.1833689,7.19438202 86.098081,6.66067416 85.7995736,6.31910112 C85.5223881,5.9988764 85.0533049,5.82808989 84.3710021,5.82808989 C83.4968017,5.82808989 82.4946695,6.10561798 81.7270789,6.55393258 L81.4712154,6.70337079 L81.1940299,5.03820225 L81.3219616,4.9741573 C82.3240938,4.37640449 83.6247335,4.05617978 84.9040512,4.05617978 C86.1620469,4.05617978 87.1002132,4.39775281 87.6545842,5.08089888 C88.2729211,5.82808989 88.4648188,6.95955056 88.2089552,8.43258427 L87.5479744,12.211236 C87.3773987,13.2146067 87.2921109,13.9831461 87.2921109,14.5808989 L87.2921109,14.794382 L85.1812367,14.794382 L85.2452026,13.7910112 C84.3923241,14.5382022 83.2409382,14.9865169 82.0895522,14.9865169 Z M85.7569296,9.60674157 C83.2409382,9.60674157 81.8336887,10.311236 81.5991471,11.6988764 C81.5138593,12.1685393 81.5778252,12.552809 81.7910448,12.8089888 C82.0042644,13.0651685 82.3667377,13.1932584 82.793177,13.1932584 C84.0724947,13.1932584 84.9680171,12.3393258 85.3304904,11.6134831 C85.4157783,11.4213483 85.4797441,11.2505618 85.5223881,11.1011236 L85.7782516,9.60674157 C85.7782516,9.60674157 85.7782516,9.60674157 85.7569296,9.60674157 Z" id="Shape" fill="#069FCD"></path>
                <path d="M87.6545842,16.6730337 C87.6545842,16.6730337 88.891258,17.2921348 90.021322,16.5235955 C90.7036247,16.0539326 91.3859275,15.3067416 91.8550107,14.5382022 C91.9402985,14.4101124 92.0469083,14.2393258 92.0469083,14.1752809 C92.0682303,14.0898876 92.0255864,13.9191011 92.0042644,13.7696629 L89.8507463,4.22696629 L92.3240938,4.22696629 L93.5181237,10.3539326 C93.6034115,10.8022472 93.6673774,11.3146067 93.7313433,11.7629213 C93.7526652,11.741573 93.7526652,11.7202247 93.7739872,11.6988764 C93.9872068,11.2505618 94.2217484,10.7382022 94.4776119,10.2685393 L97.5692964,4.24831461 L100,4.24831461 L95.7782516,11.741573 C93.7100213,15.4561798 92.6012793,17.1426966 91.1513859,18.1247191 C90.0426439,18.8719101 89.1684435,18.8292135 88.4434968,18.7011236 C87.9317697,18.6157303 86.9083156,18.1674157 86.9083156,18.1674157 L87.6545842,16.6730337 Z" id="Shape" fill="#069FCD"></path>
                <path d="M64.7974414,9.52134831 C64.7974414,4.54719101 60.9381663,0.491011236 56.0554371,0.170786517 C55.8635394,0.149438202 55.4584222,0.149438202 55.4584222,0.149438202 L55.4584222,3.15955056 C55.4584222,3.15955056 55.7356077,3.15955056 55.8635394,3.18089888 C59.1684435,3.39438202 61.7910448,6.14831461 61.7910448,9.52134831" id="Shape" fill="#285AA0"></path>
                <path d="M61.7910448,9.52134831 C61.7910448,12.894382 59.1684435,15.6483146 55.8635394,15.8617978 C55.7356077,15.8617978 55.4584222,15.8831461 55.4584222,15.8831461 L55.4584222,18.8932584 C55.4584222,18.8932584 55.8635394,18.8932584 56.0554371,18.8719101 C60.9381663,18.5516854 64.7974414,14.4955056 64.7974414,9.52134831" id="Shape" fill="#069FCD"></path>
                <polygon id="Shape" fill="#285AA0" points="53.3049041 5.89213483 53.3049041 9.47865169 58.1449893 9.47865169"></polygon>
                <polyline id="Shape" fill="#069FCD" points="58.1449893 9.47865169 53.3049041 13.0651685 53.3049041 9.47865169"></polyline>
            </g>
        </g>
    </g>
</svg>