<?xml version="1.0" encoding="UTF-8"?>
<svg width="58px" height="20px" viewBox="0 0 58 20" version="1.1" xmlns="http://www.w3.org/2000/svg" xmlns:xlink="http://www.w3.org/1999/xlink">
    <!-- Generator: Sketch 49.1 (51147) - http://www.bohemiancoding.com/sketch -->
    <title>Fill 1 Copy 12</title>
    <desc>Created with Sketch.</desc>
    <defs></defs>
    <g id="Page-1" stroke="none" stroke-width="1" fill="none" fill-rule="evenodd">
        <g id="m7-withdraw-balance-0-1366" transform="translate(-410.000000, -1258.000000)" fill="#FFFFFF">
            <path d="M451.661321,1262.80494 C452.976544,1262.80494 454.041977,1261.72963 454.041977,1260.40316 C454.041977,1259.07634 452.976544,1258 451.661321,1258 C450.348476,1258 449.283043,1259.07634 449.283043,1260.40316 C449.283043,1261.72963 450.348476,1262.80494 451.661321,1262.80494 L451.661321,1262.80494 Z M433.428992,1264.10156 C433.321259,1264.37434 432.548438,1266.57917 430.678237,1268.8643 L430.678237,1259.0935 L425.696021,1260.08749 L425.696021,1277.79894 L430.678237,1277.79894 L430.678237,1272.32424 C432.121585,1274.50884 432.833912,1277.79894 432.833912,1277.79894 L438.801697,1277.79894 C438.211376,1275.32132 435.629187,1270.75279 435.629187,1270.75279 C437.946632,1267.78658 438.964486,1264.62584 439.126255,1264.10156 L433.428992,1264.10156 Z M446.526851,1263.91697 C442.064607,1264.06176 439.79882,1266.08303 439.79882,1270.10122 L439.79882,1277.79894 L444.667866,1277.79894 L444.667866,1271.52136 C444.667866,1269.1158 444.979849,1268.08406 447.80741,1267.98593 L447.80741,1263.98765 C447.331618,1263.8854 446.526851,1263.91697 446.526851,1263.91697 L446.526851,1263.91697 Z M417.340443,1266.05215 C416.73007,1266.01201 415.31731,1265.91971 415.31731,1264.63544 C415.31731,1263.08595 417.351318,1263.08595 418.114284,1263.08595 C419.455676,1263.08595 421.192994,1263.48568 422.433791,1263.8607 C422.433791,1263.8607 423.126067,1264.10705 423.715029,1264.35924 L423.769745,1264.37434 L423.769745,1264.31806 L423.769745,1260.13038 L423.694638,1260.10808 C422.23022,1259.59101 420.527566,1259.0935 417.371029,1259.0935 C411.928315,1259.0935 410,1262.29439 410,1265.03654 C410,1266.61726 410.670866,1270.33797 416.904414,1270.7672 C417.432542,1270.79979 418.834768,1270.88145 418.834768,1272.20827 C418.834768,1273.30417 417.686751,1273.94991 415.756057,1273.94991 C413.640145,1273.94991 411.586765,1273.40539 410.340191,1272.88866 L410.340191,1277.25922 C412.206993,1277.75296 414.310671,1278 416.77697,1278 C422.098697,1278 424.482073,1274.97135 424.482073,1271.96981 C424.482073,1268.56648 421.814922,1266.35478 417.340443,1266.05215 L417.340443,1266.05215 Z M449.248039,1277.79894 L454.076982,1277.79894 L454.076982,1264.11734 L449.248039,1264.11734 L449.248039,1277.79894 Z M463.170037,1259.96535 L463.170037,1277.79894 L468,1277.79894 L468,1259.0935 L463.170037,1259.96535 Z M456.122885,1259.96535 L460.947751,1259.0935 L460.947751,1277.79894 L456.122885,1277.79894 L456.122885,1259.96535 Z" id="Fill-1-Copy-12"></path>
        </g>
    </g>
</svg>