<?xml version="1.0" encoding="UTF-8"?>
<svg width="90px" height="16px" viewBox="0 0 90 16" version="1.1" xmlns="http://www.w3.org/2000/svg" xmlns:xlink="http://www.w3.org/1999/xlink">
    <!-- Generator: Sketch 49.1 (51147) - http://www.bohemiancoding.com/sketch -->
    <title>path66 copy</title>
    <desc>Created with Sketch.</desc>
    <defs></defs>
    <g id="Page-1" stroke="none" stroke-width="1" fill="none" fill-rule="evenodd">
        <g id="m7-withdraw-balance-0-1366" transform="translate(-958.000000, -1698.000000)" fill="#FFFFFF">
            <path d="M987.765129,1698 C986.534137,1698 985.340424,1698.27769 984.219198,1698.79589 C982.618094,1699.54024 981.165612,1700.78147 979.979977,1702.42866 C979.209814,1703.49801 978.550398,1704.73753 978.034234,1706.12385 C977.060872,1708.74067 977.071762,1710.86326 978.066896,1712.26205 C978.631138,1713.0527 979.804096,1713.99733 982.188971,1714 L982.198113,1714 C986.542414,1714 989.785311,1711.2051 991.83908,1705.69278 C992.381549,1704.23434 993.097316,1701.5124 991.789217,1699.67555 C990.999097,1698.56525 989.647444,1698.00178 987.765126,1698 L987.765129,1698 Z M1013.97801,1698 C1012.74793,1698 1011.55327,1698.27769 1010.43295,1698.79589 C1008.83094,1699.54024 1007.37958,1700.78147 1006.19395,1702.42866 C1005.42288,1703.49801 1004.76415,1704.73753 1004.24799,1706.12385 C1003.27372,1708.74067 1003.28548,1710.86326 1004.28152,1712.26205 C1004.84486,1713.0527 1006.01691,1713.99733 1008.4036,1714 L1008.411,1714 C1012.75621,1714 1016.00001,1711.2051 1018.05197,1705.69278 C1018.59625,1704.23434 1019.31017,1701.5124 1018.00298,1699.67555 C1017.21195,1698.56525 1015.86033,1698.00178 1013.97801,1698 L1013.97801,1698 Z M973.813303,1698.22163 C972.383648,1698.22163 970.994834,1698.22152 969.750236,1698.84119 C968.506544,1699.4609 967.407947,1700.70122 966.562491,1703.18181 C966.379249,1703.71514 966.282327,1704.17465 966.269628,1704.57354 C966.256932,1704.97332 966.327712,1705.3134 966.481926,1705.609 C966.672425,1705.96961 966.980859,1706.30886 967.366395,1706.59467 C967.752838,1706.88137 968.214455,1707.11385 968.712477,1707.26254 C968.731526,1707.26788 968.992896,1707.34084 969.310397,1707.42988 C969.626081,1707.51892 969.995226,1707.62566 970.229268,1707.6951 C970.366246,1707.73606 970.516704,1707.78954 970.652776,1707.87057 C970.789754,1707.94981 970.9123,1708.05659 970.989405,1708.20439 C971.040206,1708.30234 971.067466,1708.41011 971.070188,1708.52497 C971.073811,1708.64072 971.053743,1708.76549 971.007478,1708.89727 C970.891365,1709.23383 970.71537,1709.45106 970.379727,1709.58373 C970.045899,1709.7164 969.553373,1709.75898 968.805888,1709.76432 L959.474985,1709.76432 L958,1713.74161 L967.987613,1713.74161 C968.927411,1713.74161 970.645513,1713.74172 972.296511,1713.05259 C973.947509,1712.36433 975.531556,1710.98868 976.201934,1708.23474 C976.45412,1707.20012 976.376038,1706.35693 975.963289,1705.69449 C975.548725,1705.03294 974.799426,1704.55223 973.708134,1704.24505 C973.708134,1704.24505 973.464189,1704.17541 973.176625,1704.09438 C972.890875,1704.01336 972.559739,1703.92084 972.391012,1703.87276 C972.111612,1703.7944 971.896575,1703.6359 971.769576,1703.43378 C971.643483,1703.23256 971.605371,1702.98768 971.677035,1702.73749 C971.752327,1702.4775 971.933788,1702.27003 972.195044,1702.12668 C972.458115,1701.98422 972.802815,1701.90591 973.205585,1701.90591 L979.011242,1701.90591 C979.052063,1701.84804 979.089309,1701.7849 979.13013,1701.72703 C980.190578,1700.25434 981.474233,1699.06303 982.880302,1698.22163 L973.813303,1698.22163 L973.813303,1698.22163 Z M999.908171,1698.22163 C997.324631,1698.22163 995.401409,1699.50457 994.49336,1701.90591 L990.10455,1713.74161 L994.912513,1713.74161 L997.167668,1707.6577 L1001.41669,1707.66048 L1002.62581,1704.40171 L998.390508,1704.39893 L999.072694,1702.51223 C999.214207,1702.17389 999.55433,1701.90506 1000.05145,1701.90506 C1000.32812,1701.90506 1003.44767,1701.90593 1005.06147,1701.90676 C1005.1032,1701.848 1005.14041,1701.7849 1005.18123,1701.72703 C1006.24168,1700.25434 1007.74308,1699.06303 1009.14915,1698.22162 L999.908171,1698.22162 L999.908171,1698.22163 Z M1022.21302,1698.23017 L1016.45526,1713.75123 L1021.34575,1713.75123 L1023.43847,1708.28796 C1023.54098,1708.51322 1024.77563,1713.75123 1024.77563,1713.75123 L1029.91739,1713.75123 C1029.91739,1713.75123 1028.98217,1709.90218 1028.29456,1708.34758 C1028.11767,1707.9478 1027.93336,1707.49996 1027.68662,1707.12512 C1029.13895,1706.59534 1031.24351,1705.45832 1032.11528,1703.15402 C1032.65049,1701.73743 1032.61978,1700.59232 1032.0247,1699.7527 C1031.30352,1698.73322 1029.83576,1698.23284 1027.53616,1698.23017 L1022.21302,1698.23017 L1022.21302,1698.23017 Z M1032.24396,1698.23039 C1032.5533,1698.47079 1032.81995,1698.74492 1033.0422,1699.05833 C1033.61098,1699.86323 1033.82864,1700.81969 1033.69892,1701.91574 L1036.611,1701.91574 L1032.22219,1713.75508 L1036.6073,1713.75508 L1040.99872,1701.91574 L1046.63301,1701.91574 L1048,1698.23039 L1032.24396,1698.23039 L1032.24396,1698.23039 Z M1025.43517,1701.43466 L1026.24256,1701.43466 C1027.71847,1701.43565 1028.26898,1701.85939 1027.76915,1703.1816 C1027.30015,1704.42278 1026.45653,1705.18948 1024.85271,1705.18948 L1024.8464,1705.18948 L1024.01636,1705.1886 L1025.43517,1701.43464 L1025.43517,1701.43466 Z M986.611314,1701.5116 L986.612205,1701.5116 C988.114431,1701.51339 988.458342,1702.36822 987.139358,1705.91013 L987.139135,1705.91013 C985.783865,1709.55088 984.800612,1710.46703 983.320157,1710.46703 L983.317325,1710.46703 C981.874971,1710.46615 981.368925,1709.5703 982.718752,1705.94647 C983.726587,1703.2415 985.031994,1701.5116 986.611328,1701.5116 L986.611314,1701.5116 Z M1012.8242,1701.5116 L1012.82594,1701.5116 C1014.32726,1701.51339 1014.67189,1702.36822 1013.352,1705.91013 C1011.99764,1709.55088 1011.01344,1710.46703 1009.53389,1710.46703 L1009.53042,1710.46703 C1008.08715,1710.46615 1007.58358,1709.5703 1008.9325,1705.94647 C1009.93942,1703.2415 1011.24577,1701.5116 1012.8242,1701.5116 L1012.8242,1701.5116 Z" id="path66-copy"></path>
        </g>
    </g>
</svg>