<?xml version="1.0" encoding="UTF-8"?>
<svg width="100px" height="21px" viewBox="0 0 100 21" version="1.1" xmlns="http://www.w3.org/2000/svg" xmlns:xlink="http://www.w3.org/1999/xlink">
    <!-- Generator: Sketch 49.1 (51147) - http://www.bohemiancoding.com/sketch -->
    <title>teleingreso</title>
    <desc>Created with Sketch.</desc>
    <defs></defs>
    <g id="Page-1" stroke="none" stroke-width="1" fill="none" fill-rule="evenodd">
        <g id="m7-withdraw-balance-0-1366" transform="translate(-757.000000, -1327.000000)">
            <g id="teleingreso" transform="translate(757.000000, 1327.000000)">
                <path d="M30.5368491,0 C31.0434149,0.127179801 31.5323408,0.289298483 31.9284834,0.646540001 C33.0516321,1.65948302 32.9376693,3.30252086 31.6701523,4.13837952 C30.7940778,4.71606603 29.8469796,4.7922601 28.8894368,4.37077429 C28.0662238,4.00835453 27.5492714,3.38571409 27.5023284,2.46933668 C27.4526583,1.49924216 27.9265555,0.812072906 28.7597489,0.330781291 C29.026842,0.176572225 29.3325803,0.127122898 29.6084353,0 C29.9178872,0 30.2273972,0 30.5368491,0 Z M33.19663,8.06504833 C33.2079738,9.39721641 32.1621449,10.7249633 30.4587809,10.740983 C28.9628464,10.7549932 27.7462818,9.53146101 27.7465133,8.06745991 C27.7468027,6.58158233 28.9879648,5.35305475 30.4710508,5.37073967 C31.9960393,5.38894135 33.1935046,6.57268245 33.19663,8.06504833 Z M29.9874592,16.3557687 C28.4713426,16.3548798 27.2569181,15.2168265 27.2510606,13.7914404 C27.245261,12.3779987 28.4582356,11.2287232 29.9552138,11.2293343 C31.4862353,11.2298899 32.7048934,12.3776654 32.7012397,13.8155515 C32.6976439,15.2404376 31.5051418,16.3566576 29.9874592,16.3557687 Z M22.296308,10.1449021 C22.2982148,8.73386 23.4177085,7.57426231 24.7844083,7.56762497 C26.1712413,7.5608217 27.2548992,8.70222204 27.2510296,10.1656437 C27.2473282,11.5536764 26.1187493,12.6965148 24.7542366,12.6940258 C23.3778347,12.6915368 22.2943452,11.5678913 22.296308,10.1449021 Z M24.8035168,18.0645809 C22.9691549,18.0261416 21.6999708,16.397965 22.1340612,14.7775432 C22.4373511,13.6454516 23.6366335,12.9711732 24.8653331,13.241978 C26.5665433,13.6169987 27.5137436,15.4912094 26.7174141,16.9328241 C26.2890007,17.7084173 25.5867719,18.0550408 24.8035168,18.0645809 Z M19.7683782,10.0087521 C18.8281046,10.0077297 18.0682128,9.34537607 17.8873823,8.28092988 C17.700382,7.1797336 18.0314746,6.23121776 18.9295693,5.55250552 C20.1031726,4.66556169 21.5924439,5.22425394 21.9625182,6.66466434 C22.2932181,7.95193989 21.6418582,9.37985413 20.5039836,9.86209255 C20.2497328,9.96984359 20.0528048,10.0090929 19.7683782,10.0087521 Z M21.5530636,16.6410593 C21.5481927,17.6496911 20.9986499,18.3734322 20.0808317,18.5263735 C19.4311454,18.634615 18.8689615,18.4006482 18.3697515,18.0046869 C17.5007584,17.3153477 17.1118396,16.0337074 17.480289,15.0755468 C17.863815,14.0782314 18.87592,13.6566951 19.8814725,14.0755155 C20.873572,14.4886777 21.5584563,15.5398026 21.5530636,16.6410593 Z M17.5853432,5.71090028 C17.5809904,6.53579775 17.2974313,7.25735098 16.6804856,7.81800898 C15.7129712,8.69719453 14.4858951,8.33051092 14.2000451,7.06737084 C13.9602999,6.00805014 14.2682001,5.08222748 15.0920163,4.35251698 C15.5430992,3.95292298 16.0901145,3.77520688 16.6777937,4.01294928 C17.2894704,4.26042415 17.5146109,4.79340366 17.5837395,5.40244274 C17.5952514,5.50409928 17.5853432,5.60806235 17.5853432,5.71090028 Z M13.873034,4.85553014 C13.8199898,5.69761614 13.5772453,6.46478011 12.9003141,7.03147108 C12.2914861,7.54118377 11.6017434,7.36583201 11.2927499,6.6440519 C11.2531915,6.5515174 11.2146446,6.45528373 11.1978997,6.35711766 C11.0288214,5.36772735 11.2884793,4.50642775 12.0114309,3.79044485 C12.095661,3.70702025 12.1991646,3.63761938 12.3040729,3.57981292 C12.9223409,3.23948916 13.4945886,3.44526247 13.7451436,4.09830424 C13.8380833,4.34062757 13.876574,4.5944349 13.873034,4.85553014 Z M10.6513453,4.70806175 C10.6177795,5.42110988 10.4325124,6.0825536 9.97888991,6.6532643 C9.88337844,6.77342885 9.77071367,6.87312175 9.63998378,6.95234302 C9.26192706,7.18133048 8.88797347,7.09933052 8.66566427,6.71751462 C8.36112175,6.1947223 8.38408781,5.6316672 8.51299409,5.06759135 C8.63523281,4.53272019 8.8617591,4.04763878 9.285463,3.67863893 C9.80872449,3.22287562 10.3474297,3.37751871 10.5573155,4.03675082 C10.6267266,4.25485032 10.6599505,4.47777001 10.6513453,4.70806175 Z M6.19372007,6.27598533 C6.19955517,5.72101275 6.32726685,5.20123188 6.60432412,4.7242207 C6.68557517,4.58431502 6.78146902,4.45698191 6.89916193,4.34911044 C7.26022266,4.01809029 7.66851469,4.10219444 7.80261195,4.58316684 C8.0818161,5.58420716 7.88920267,6.5156104 7.26440632,7.32346951 C6.96488941,7.71080788 6.55676253,7.62067578 6.3432308,7.17013014 C6.24375882,6.96018551 6.18882078,6.6320358 6.19372007,6.27598533 Z M5.94568143,6.55919294 C5.9383978,7.09621528 5.83246978,7.60696676 5.58052511,8.08394144 C5.51227695,8.21315937 5.42699543,8.32748087 5.31728221,8.42170949 C5.1005513,8.60774175 4.87343978,8.57996971 4.70035327,8.34971005 C4.5942532,8.20859806 4.53242839,8.04433309 4.50650556,7.8742943 C4.39822613,7.16296055 4.46412288,6.4735673 4.82933656,5.8402955 C4.96789752,5.60010489 5.13645327,5.32579104 5.45756372,5.37671607 C5.79966478,5.43093217 5.84887228,5.76252225 5.90754275,6.0428986 C5.94258445,6.21028143 5.93444056,6.38678689 5.94568143,6.55919294 Z M4.21093962,7.80681492 C4.20837668,8.29794353 4.14174025,8.7752931 3.9011025,9.20999052 C3.80811237,9.37802626 3.69762738,9.54114499 3.47426162,9.51838955 C3.26632922,9.49717783 3.18180792,9.33120037 3.12274888,9.15716132 C2.86038186,8.38462001 2.95387344,7.63872201 3.31368788,6.92415561 C3.40216502,6.74845849 3.53387783,6.57058874 3.76158944,6.59305831 C3.99470551,6.61604244 4.05905759,6.82855991 4.12463541,7.01597779 C4.21383685,7.27097588 4.21311254,7.53940997 4.21093962,7.80681492 Z M2.72337425,9.23615361 C2.72596077,9.70038238 2.6915246,10.1036693 2.51122917,10.4748404 C2.4464141,10.6082657 2.37160798,10.7361154 2.21443905,10.7409663 C2.05143778,10.7459843 1.97034287,10.6112208 1.92048903,10.4763458 C1.64474606,9.73093695 1.67502352,8.99483941 2.01147356,8.27953905 C2.06989841,8.15531353 2.16184654,8.04948766 2.30836511,8.05612269 C2.46994633,8.06348255 2.53760149,8.20064358 2.59252694,8.33618767 C2.71541184,8.63933586 2.73138738,8.96300244 2.72337425,9.23615361 Z M1.73415068,11.1357923 C1.73459393,11.4891695 1.71232075,11.8388454 1.57458165,12.1678416 C1.51673787,12.3059613 1.43916959,12.4422597 1.28475331,12.4496033 C1.12983837,12.4570058 1.03498345,12.3309297 0.976862646,12.1938088 C0.674623384,11.4809445 0.668140892,10.7588567 0.942677197,10.0362988 C0.994204697,9.90058783 1.07842169,9.77116308 1.23959749,9.7648769 C1.42077483,9.75782698 1.48859167,9.90828399 1.55225306,10.0503986 C1.7062261,10.3939646 1.73171282,10.7630279 1.73415068,11.1357923 Z M1.42108547e-14,12.7692099 C0.00393088015,12.4894587 0.0164172054,12.2104904 0.144633267,11.9521595 C0.199203133,11.8422053 0.265218796,11.7298461 0.407655395,11.7184928 C0.551941819,11.7069716 0.644201889,11.8046217 0.698598333,11.9138489 C1.02035244,12.5599837 1.0831309,13.2287134 0.853983714,13.9152841 C0.815195176,14.0316141 0.748081178,14.1444766 0.603736946,14.1575637 C0.460953505,14.170539 0.373375808,14.0727211 0.304990054,13.9699257 C0.0616801342,13.6043251 0.00381526603,13.1927518 1.42108547e-14,12.7692099 Z" id="Combined-Shape" fill="#35AAE5"></path>
                <g id="Group-4" transform="translate(36.065574, 9.692308)">
                    <path d="M0,2.21338012 C0.280378346,2.21077664 0.561093483,2.19831321 0.84091051,2.20911485 C1.01592947,2.2159282 1.06453961,2.15466349 1.06195754,1.9873765 C1.05314485,1.41544333 1.06622356,0.843177802 1.05443588,0.271355418 C1.05039439,0.0750978659 1.0890692,-0.0111491022 1.31281056,0.00114815337 C1.66700223,0.0205911115 2.02327077,0.0131684437 2.37830441,0.00325308901 C2.53788712,-0.00117835444 2.58722697,0.0506695339 2.58515009,0.207653418 C2.57723551,0.798087864 2.58935998,1.38879928 2.57768456,1.97906754 C2.574036,2.16518817 2.63578098,2.22008267 2.81630085,2.2087271 C3.0304998,2.19526659 3.24643884,2.21177372 3.46114298,2.20352015 C3.60141635,2.19814703 3.66495755,2.2374207 3.65889532,2.38842213 C3.64671471,2.69219758 3.75678918,3.06366333 3.61651581,3.28224428 C3.47029246,3.51007586 3.06810811,3.35785578 2.78043263,3.36001611 C2.54647528,3.36173329 2.58200671,3.49240548 2.58200671,3.6283954 C2.58200671,5.14156716 2.57459732,6.65479431 2.58896706,8.16785528 C2.59149299,8.43152617 2.50881084,8.49351098 2.26227997,8.47750239 C1.95507063,8.4575609 1.64410045,8.45456967 1.33745242,8.47838868 C1.08654327,8.49788703 1.0525274,8.39751484 1.05381843,8.18065108 C1.06285565,6.67678535 1.0526958,5.17275344 1.06459574,3.66888772 C1.06650422,3.42654315 1.00784649,3.33929911 0.756376018,3.36339508 C0.506196581,3.38732488 0.252256314,3.37375358 0,3.37663402 C0,2.98888272 0,2.60113142 0,2.21338012" id="Fill-2" fill="#35AAE5"></path>
                    <path d="M26.2938672,3.23220429 C26.7505417,2.50779991 27.3719981,2.1448628 28.1483987,2.05808578 C29.2698996,1.93275376 30.3162978,2.07402788 31.0309127,3.02834896 C31.4243018,3.55375979 31.5454138,4.16611723 31.5505726,4.79599967 C31.5598705,5.94518745 31.549133,7.09454483 31.5573511,8.24373262 C31.5586708,8.42593609 31.510142,8.48077238 31.3097283,8.4795852 C30.6328447,8.47557141 30.6327847,8.48399472 30.6327847,7.86151801 C30.6327847,6.9383462 30.6343443,6.01517439 30.631465,5.09200259 C30.6309251,4.91353024 30.6276259,4.73307927 30.600992,4.55686821 C30.3734646,3.05141413 29.2003157,2.64653008 27.896037,2.90601315 C26.9188628,3.1004276 26.3649507,3.80425423 26.3560728,4.82630096 C26.3462951,5.94722262 26.3456952,7.0683704 26.3602118,8.18917898 C26.3632711,8.42667101 26.2962066,8.48670827 26.0485239,8.48032012 C25.4143504,8.46403883 25.4139905,8.47585408 25.4139905,7.87813849 C25.4139905,6.07894278 25.4169898,4.27969054 25.4098514,2.48049483 C25.4090716,2.27669603 25.4371451,2.18483111 25.6936458,2.19246297 C26.307424,2.21072289 26.307424,2.1961941 26.2942271,2.78503412 C26.2915877,2.90296041 26.2938672,3.0210563 26.2938672,3.23220429" id="Fill-9" fill="#161918"></path>
                    <path d="M13.5200064,4.26451912 C13.5200064,5.57520785 13.5155759,6.88595198 13.5245566,8.19658531 C13.5259336,8.40291794 13.4858797,8.4947814 13.2343601,8.47904604 C12.8868668,8.457216 12.5359009,8.46098363 12.187749,8.47799332 C11.9568252,8.48924078 11.8822255,8.42895885 11.8853388,8.20556111 C11.8988099,7.23656233 11.8910865,6.26728651 11.8910865,5.29812151 C11.8910865,3.65516189 11.8904279,2.01214686 11.8915654,0.369187234 C11.8918648,-0.0427577563 11.8519905,0.00804971599 12.2986906,0.00533481289 C12.6178648,0.00339559639 12.9376976,0.0162498315 13.2559737,0.00101313041 C13.4669005,-0.00912620158 13.5256941,0.0556436295 13.5244368,0.249399061 C13.515995,1.58773548 13.5200064,2.9261273 13.5200064,4.26451912" id="Fill-10" fill="#35AAE5"></path>
                    <path d="M52.4827799,6.54762138 C52.5279641,6.54762138 52.5737991,6.55262863 52.6182239,6.54674099 C52.8047645,6.52186982 52.8830909,6.57188728 52.9235017,6.79127078 C53.086067,7.67403214 54.1443959,8.06817411 54.8577414,7.53052771 C55.4685139,7.07019102 55.4256622,6.14726162 54.773394,5.75135886 C54.4929593,5.58111242 54.1847524,5.47926169 53.8746471,5.38032726 C53.6346232,5.3037879 53.3962266,5.21932497 53.1631458,5.12330686 C51.8647931,4.58868682 52.0633213,3.01398977 52.8617735,2.40761751 C53.5571104,1.87960043 54.7244129,1.8855431 55.3878551,2.4525727 C55.7143417,2.73165801 55.8758222,3.0988929 55.9361401,3.52274821 C55.960929,3.69679135 55.9079339,3.75874917 55.7389137,3.73354786 C55.6770228,3.72430371 55.6116604,3.724964 55.5494982,3.73332776 C55.2770373,3.76991919 55.1245611,3.72045198 55.055239,3.38249023 C54.943716,2.83879111 54.3318043,2.5884287 53.7395828,2.77749359 C53.2333359,2.93904612 52.9646176,3.41963191 53.1018516,3.91342362 C53.1850056,4.21275802 53.4000779,4.38212407 53.660497,4.50884597 C54.0285335,4.68789636 54.4293869,4.76542617 54.8145642,4.89143275 C56.1384652,5.32458724 56.5769088,6.7933067 55.6688321,7.81318962 C55.0909849,8.46220603 54.3374998,8.5950907 53.5327012,8.39507589 C52.808453,8.21503505 52.2960766,7.77197612 52.1094818,7.00707768 C51.9975792,6.54822665 52.0000743,6.54762138 52.4827799,6.54762138" id="Fill-11" fill="#161918"></path>
                    <path d="M42.2338985,3.06765815 C42.6647073,2.42729004 43.2584001,2.11386068 43.9952215,2.02489083 C44.1838391,2.00216791 44.2727108,2.04190476 44.2494254,2.25398536 C44.2289866,2.44017766 44.30465,2.6635632 44.2247166,2.80934036 C44.1359588,2.97122704 43.8826658,2.88485733 43.7038975,2.91962001 C42.9076955,3.07444111 42.3843144,3.67761598 42.3005666,4.57924117 C42.2394779,5.23662321 42.2810387,5.89609666 42.2738082,6.5546092 C42.2675457,7.12884343 42.2686843,7.70324724 42.2751746,8.27748147 C42.2767687,8.41845403 42.2435201,8.46921319 42.0883789,8.47418736 C41.3986408,8.49623199 41.3988116,8.50205403 41.3988116,7.81917936 C41.3988116,6.03034278 41.4029107,4.2415062 41.3934599,2.45266962 C41.3923213,2.239402 41.4470904,2.1853644 41.6595058,2.1899429 C42.2335569,2.20232181 42.2337847,2.19163864 42.2338416,2.76231182 C42.2338985,2.86411277 42.2338985,2.9658572 42.2338985,3.06765815" id="Fill-14" fill="#161918"></path>
                    <path d="M23.7659333,5.2643155 C23.7659333,6.2515066 23.7605045,7.2386977 23.7704314,8.22571446 C23.7724995,8.4309047 23.7219341,8.48285601 23.5421631,8.4807059 C22.955904,8.47384879 22.9558523,8.48250734 22.9558523,7.82044776 C22.9558523,5.98158061 22.9597817,4.14277157 22.9508371,2.30402065 C22.9496997,2.0741332 23.0038326,2.01456933 23.2055256,2.01950878 C23.7657782,2.03322299 23.765985,2.02253055 23.765985,2.65129248 C23.765985,3.52231953 23.765985,4.39334657 23.7659333,5.2643155" id="Fill-16" fill="#161918"></path>
                    <path d="M22.9508245,0.589528028 C22.950672,0.000636984626 22.9507737,0.00888429936 23.5088328,0.00014542282 C23.6910915,-0.00274933003 23.778104,0.0360840526 23.7511667,0.251115034 C23.7355126,0.37602635 23.7548261,0.505580195 23.7467449,0.632184669 C23.7354109,0.81045775 23.8290307,1.07202325 23.707203,1.14870689 C23.5200143,1.26657249 23.2643643,1.18136844 23.0378878,1.18704871 C22.9555512,1.18912419 22.9508753,1.11975936 22.9509262,1.05290696 C22.9510278,0.898447313 22.9509262,0.743987671 22.9508245,0.589528028" id="Fill-23" fill="#1A1D1B"></path>
                    <path d="M36.3088718,7.91864761 C34.817513,7.91652831 33.6892303,6.81145734 33.6968177,5.36031064 C33.7042286,3.93808951 34.8249239,2.84831186 36.2884624,2.84006377 C37.7368849,2.83193025 38.8612857,3.93637116 38.8628738,5.36884512 C38.8644618,6.80618773 37.7481778,7.92065235 36.3088718,7.91864761 Z M39.7450082,2.84831186 C39.7453611,2.19362045 39.7449494,2.20267043 39.0851425,2.19516697 C38.8763428,2.19281856 38.8169379,2.2514143 38.828466,2.4497119 C38.845464,2.74263332 38.8328772,3.03721581 38.8328772,3.33111097 C37.7197693,1.71809569 35.3446292,1.67467871 34.006547,2.75282887 C32.5122473,3.95681953 32.3606764,6.33736453 33.7201092,7.74423507 C34.3851507,8.43249158 35.2325244,8.73898796 36.1972375,8.73870157 C37.314992,8.7383579 38.1888332,8.29095681 38.8074095,7.35749173 C38.8327008,7.57715416 38.8347005,7.78278339 38.8324067,7.98835535 C38.822996,8.81614189 38.5283238,9.51711419 37.8435786,10.0314164 C36.681888,10.9039373 35.0798948,10.6336981 34.2131704,9.42707264 C34.1548241,9.34585195 34.1276508,9.23799684 33.9820204,9.2428655 C33.6834663,9.25277466 33.3842652,9.24584398 33.0542441,9.24584398 C33.3442698,10.0142329 33.8535057,10.5362677 34.5450148,10.9122999 C34.9051501,11.1080773 35.3082804,11.1707398 35.6867665,11.3076923 C36.0592533,11.3076923 36.431799,11.3076923 36.8042858,11.3076923 C36.8369879,11.2910816 36.8678667,11.2662801 36.9026274,11.2590057 C38.6910699,10.8829162 39.6936023,9.75590758 39.7337742,7.97151551 C39.7722404,6.26450649 39.7441259,4.55612278 39.7450082,2.84831186 Z" id="Fill-25" fill="#161918"></path>
                    <path d="M60.4658186,7.69486859 C59.0228306,7.70707959 57.8817946,6.6349868 57.8782492,5.26317446 C57.8752947,3.8875118 58.995649,2.82245959 60.451046,2.81794922 C61.907034,2.81343885 63.0191156,3.87271559 63.0179338,5.26273442 C63.016752,6.63465677 61.9170793,7.68260259 60.4658186,7.69486859 Z M63.3842944,3.45215115 C62.4979381,2.19815846 60.7352709,1.68947681 59.1551931,2.23919182 C57.6693055,2.75634417 56.7727856,4.19135669 57.0031201,5.68439895 C57.2441499,7.2468569 58.4206992,8.3055286 60.0905945,8.46262146 C61.7374444,8.61756915 63.2217958,7.76840961 63.7412006,6.37047013 C63.8138818,6.1758642 63.8706086,5.97625285 63.9344262,5.77895169 C63.9344262,5.43060817 63.9344262,5.08220964 63.9344262,4.73386611 C63.7855184,4.29383008 63.6632012,3.84620342 63.3842944,3.45215115 Z" id="Fill-27" fill="#161918"></path>
                    <path d="M19.8475236,4.79820267 C19.304991,4.79084684 18.7622254,4.7956937 18.2195762,4.79575072 C17.6865985,4.79575072 17.1535626,4.79073279 16.6207014,4.79843076 C16.4296031,4.80116781 16.387946,4.74808037 16.4441686,4.5648118 C16.6642811,3.84701942 17.3954067,3.34556833 18.251154,3.34180488 C19.0707209,3.3382125 19.8320843,3.84599302 20.0595961,4.53407697 C20.1306753,4.74899272 20.0539447,4.80093972 19.8475236,4.79820267 Z M19.6651646,2.31153218 C18.2221397,1.71736339 16.656008,2.03702848 15.6442359,3.19753933 C14.7074466,4.27206108 14.5052204,5.51525377 15.0605706,6.81712205 C15.5947718,8.06932421 16.5950663,8.77930459 17.9888018,8.87572872 C19.5663528,8.98492576 20.9970263,8.07793453 21.4648092,6.69806021 C21.0023281,6.69806021 20.5658317,6.7047888 20.1297431,6.69480996 C19.9514042,6.6907614 19.836687,6.73369893 19.723135,6.88697395 C19.2658392,7.50435067 18.6050937,7.65540183 17.8857952,7.53160716 C17.1948118,7.41271638 16.6722047,7.04081919 16.4454503,6.35455994 C16.3317235,6.01037541 16.3596309,5.97741672 16.7202706,5.9773597 C18.2824406,5.97701757 19.8446688,5.97428052 21.4068388,5.980724 C21.6079581,5.98157933 21.6998367,5.93978223 21.7139943,5.71996259 C21.8088443,4.24993656 20.9737216,2.85033264 19.6651646,2.31153218 Z" id="Fill-28" fill="#35AAE5"></path>
                    <path d="M5.7829612,4.52792684 C6.05179339,3.80930694 6.60537123,3.45150993 7.3553516,3.34491873 C8.23211312,3.22028639 9.12695279,3.74456435 9.40105046,4.52524351 C9.4722515,4.72803511 9.43720678,4.79483302 9.20932836,4.79009437 C8.66470184,4.77873301 8.11960728,4.78644046 7.57474675,4.78626919 C7.0395396,4.78609791 6.50433245,4.78124507 5.96924231,4.78855288 C5.75604873,4.79146458 5.71579703,4.70742482 5.7829612,4.52792684 Z M5.97626295,5.96425318 C7.42877584,5.97458688 8.88140574,5.9692773 10.3340356,5.9692773 C11.0988764,5.9692773 11.0988764,5.9692773 11.045695,5.21223432 C10.9258175,3.50454861 9.75606107,2.27295501 8.00359113,2.0489251 C5.66068497,1.74941926 3.73223088,3.76003634 4.15750643,6.07352771 C4.49139659,7.88997412 6.01306283,8.99436623 7.90536061,8.87595694 C9.17182641,8.79665584 10.47948,7.82283366 10.8092163,6.69155111 C10.3084688,6.69155111 9.81532701,6.69280714 9.32218522,6.69040926 C9.23343257,6.69000962 9.17832051,6.72700538 9.13151621,6.79648663 C8.70822984,7.42484372 8.08608371,7.60816687 7.35611217,7.54764911 C6.58512837,7.48381999 5.92606534,6.94435551 5.74545926,6.2565654 C5.68566677,6.02882449 5.7241048,5.96242623 5.97626295,5.96425318 Z" id="Fill-29" fill="#35AAE5"></path>
                    <path d="M49.5339305,4.8286395 C48.8009497,4.82880423 48.067969,4.82869441 47.3349288,4.82869441 C46.5920179,4.82869441 45.8489287,4.82045811 45.1063152,4.83308711 C44.8441499,4.83753471 44.7582876,4.79432157 44.8298197,4.52779481 C45.1093478,3.48562794 46.0984288,2.75891147 47.3003222,2.7407367 C48.4888368,2.72278156 49.5357143,3.43022507 49.8345079,4.4531739 C49.9382681,4.80848802 49.9224513,4.82852969 49.5339305,4.8286395 Z M48.7617647,2.27549539 C47.4050338,1.75078798 45.7494498,2.05212686 44.8151922,2.99381083 C43.7466112,4.07089963 43.5477723,5.62789035 44.3181543,6.88584836 C45.0693302,8.11250841 46.5212589,8.70755385 48.1009106,8.40138302 C49.2764032,8.17351197 50.0822241,7.51296047 50.5870515,6.46744416 C50.3129939,6.46744416 50.0775267,6.47815136 49.8437839,6.46393001 C49.6706917,6.45338754 49.5832835,6.51735616 49.4937941,6.65007046 C48.9277809,7.489789 47.9087313,7.87738942 46.8231444,7.67999269 C45.7813806,7.49055772 45.01968,6.77218737 44.8195923,5.81243844 C44.7678014,5.56403154 44.8229222,5.49012445 45.1142236,5.49226589 C46.9176286,5.50549888 48.7212715,5.49901966 50.5247954,5.49869021 C50.6672649,5.4986353 50.8072965,5.53998154 50.8169887,5.31051814 C50.8725852,3.99051331 50.060164,2.77758042 48.7617647,2.27549539 Z" id="Fill-30" fill="#161918"></path>
                </g>
            </g>
        </g>
    </g>
</svg>