<?xml version="1.0" encoding="UTF-8"?>
<svg width="87px" height="30px" viewBox="0 0 87 30" version="1.1" xmlns="http://www.w3.org/2000/svg" xmlns:xlink="http://www.w3.org/1999/xlink">
    <!-- Generator: Sketch 51.3 (57544) - http://www.bohemiancoding.com/sketch -->
    <title>vietcombank-vector-logo</title>
    <desc>Created with Sketch.</desc>
    <defs>
        <linearGradient x1="50%" y1="100%" x2="50%" y2="1.29606214%" id="linearGradient-1">
            <stop stop-color="#1C7255" offset="0%"></stop>
            <stop stop-color="#86C23F" offset="100%"></stop>
        </linearGradient>
        <linearGradient x1="11.6903108%" y1="50%" x2="85.9960168%" y2="50%" id="linearGradient-2">
            <stop stop-color="#13754C" offset="0%"></stop>
            <stop stop-color="#7DBE42" offset="100%"></stop>
        </linearGradient>
    </defs>
    <g id="Page-1" stroke="none" stroke-width="1" fill="none" fill-rule="evenodd">
        <g id="m7-withdraw-balance-0-1366-copy" transform="translate(-764.000000, -1420.000000)">
            <g id="vietcombank-vector-logo" transform="translate(764.000000, 1420.000000)">
                <g id="Group-4" transform="translate(58.000000, 0.000000)">
                    <path d="M7.27305128,0.3735 C5.90261538,0.654 5.40069231,1.28025 5.44976923,2.18175 C5.5174359,3.4485 6.89976923,5.86425 7.56007692,6.9405 C8.71264103,8.823 10.0771282,10.521 11.5947949,12.084 C12.8254359,13.30875 13.5935641,13.57425 14.9074872,11.76525 C16.0280769,10.27575 17.064641,8.79225 17.9524872,6.945 C18.3421282,6.13275 18.7020256,5.247 19.024,4.25325 C19.3697692,3.093 19.2441026,2.06625 18.1205385,1.31025 C19.2091538,1.84275 19.678359,2.8275 19.7482564,3.91125 C19.8151795,4.959 19.5036154,6.1005 19.2664103,6.9405 C18.6752564,9.033 17.9190256,11.1435 16.9612821,13.0395 C16.2377692,14.47125 15.3157179,16.1955 14.396641,17.4705 C12.3621795,20.295 10.4080256,19.38225 8.11851282,17.47125 C6.66776923,16.26 5.27205128,14.72475 4.07561538,13.05 C2.86653846,11.35875 1.53030769,8.856 0.742846154,6.93225 C-0.337589744,4.29825 0.501923077,2.949 1.83592308,2.09325 C3.30153846,1.1535 5.49661538,0.621 7.27305128,0.3735" id="Fill-1" fill="url(#linearGradient-1)"></path>
                    <path d="M7.22546154,6.3825 C9.3454359,6.063 14.8539487,5.71725 16.7865385,6.7275 C17.4327179,7.065 17.4505641,7.5225 17.3866154,8.04075 C17.5806923,7.689 17.7695641,7.3245 17.9524872,6.945 C18.3421282,6.13275 18.7020256,5.247 19.024,4.25325 C19.3697692,3.093 19.2441026,2.06625 18.1205385,1.31025 L18.1153333,1.30725 C17.6959487,1.08675 17.2141026,0.92625 16.7820769,0.7995 C15.5068205,0.4275 14.0947436,0.2745 12.6744872,0.17175 C12.0877949,0.12825 11.4743333,0.13275 10.8526923,0.135 C9.73061538,0.13875 8.49848718,0.20775 7.27230769,0.3735 C5.90261538,0.654 5.40069231,1.28025 5.44976923,2.18175 C5.50776923,3.261 6.51979487,5.17425 7.22546154,6.3825" id="Fill-3" fill="url(#linearGradient-2)"></path>
                </g>
                <path d="M60.0991538,24.7035 L60.0991538,26.8395 C60.0991538,27.33825 59.6953846,27.74475 59.201641,27.74475 C58.8647949,27.74475 58.5272051,27.74475 58.1911026,27.74475 C57.4861795,27.74475 57.4809744,27.7545 57.4809744,26.742 L57.4809744,24.44775 C57.4809744,23.4345 57.4861795,23.44425 58.1911026,23.44425 C58.5272051,23.44425 58.8647949,23.44425 59.201641,23.44425 C59.6953846,23.44425 60.0991538,23.8515 60.0991538,24.3495 L60.0991538,24.7035 Z M65.7764615,26.09175 C66.5036923,26.09175 67.2309231,26.09175 67.9574103,26.09175 C67.9574103,26.475 67.9574103,26.85825 67.9574103,27.2415 C67.9574103,27.71775 66.5802821,27.7395 65.7050769,27.7185 C65.063359,27.70425 65.1384615,27.7215 65.1102051,27.1455 C65.0997949,26.931 65.1094615,26.71725 65.1094615,26.502 C65.1094615,26.061 65.1986923,26.09175 65.7764615,26.09175 Z M73.2212821,29.448 C73.2398718,27.4635 73.2584615,25.479 73.2763077,23.4945 C73.7730256,23.4945 74.2704872,23.493 74.7672051,23.493 C75.2059231,23.4975 75.5539231,23.76225 75.5539231,24.21225 C75.5561538,25.95675 75.5583846,27.702 75.5598718,29.448 C76.2276154,29.448 76.8961026,29.448 77.5631026,29.448 C77.5794615,27.71175 77.5958205,25.97625 77.6121795,24.2415 C77.6248205,22.866 77.0886923,21.64875 75.4728718,21.64875 C75.1665128,21.64875 74.861641,21.64875 74.5567692,21.64875 C74.0184103,21.66975 73.6689231,21.83475 73.2688718,22.22475 C72.9253333,22.55925 72.9342564,22.743 72.9342564,22.20975 L72.9342564,21.693 L71.2247436,21.69375 C71.2277179,24.27375 71.2329231,26.868 71.2351538,29.448 C71.8976923,29.448 72.5594872,29.448 73.2212821,29.448 Z M45.5158718,29.448 C45.5344615,27.4635 45.5523077,25.479 45.5708974,23.4945 C46.0609231,23.4945 46.5509487,23.493 47.0409744,23.493 C47.431359,23.49675 47.8157949,23.74725 47.8157949,24.17025 L47.8157949,24.444 L47.821,29.448 L49.7959744,29.448 L49.8517436,23.4885 C50.3886154,23.48775 50.9262308,23.48775 51.4631026,23.487 C51.9375128,23.4855 52.2483333,23.7555 52.2490769,24.21525 L52.2565128,29.448 L54.213641,29.448 L54.2805641,23.82 C54.2946923,22.623 53.6403333,21.6345 52.2981538,21.64725 C51.8705897,21.651 51.4445128,21.65475 51.0176923,21.65925 C50.3744872,21.66525 50.0324359,21.783 49.635359,22.1985 C49.3394103,22.509 49.4836667,22.512 49.213,22.221 C48.8159231,21.7935 48.3392821,21.64875 47.7354872,21.64875 C47.4350769,21.64875 47.1331795,21.64875 46.8327692,21.64875 C46.2847436,21.6705 45.9345128,21.84525 45.5225641,22.26525 C45.1953846,22.599 45.2347949,22.71 45.2347949,22.18575 C45.2347949,22.02375 45.2347949,21.86175 45.2347949,21.699 C45.2340513,21.699 45.2340513,21.699 45.2340513,21.699 C44.6778462,21.70125 44.1067692,21.70425 43.5505641,21.70725 C43.5535385,24.28725 43.5565128,26.868 43.5594872,29.448 L45.5158718,29.448 Z M38.383359,23.4495 C37.8896154,23.4495 37.4858462,23.85675 37.4858462,24.35475 L37.4858462,26.77425 C37.4858462,27.2715 37.8896154,27.67875 38.383359,27.67875 L39.3715897,27.67875 C39.8653333,27.67875 40.2691026,27.2715 40.2691026,26.77425 L40.2691026,24.35475 C40.2691026,23.85675 39.8653333,23.4495 39.3715897,23.4495 L38.383359,23.4495 Z M37.9996667,21.56175 L39.7552821,21.56175 C41.1264615,21.56175 42.2477949,22.6935 42.2477949,24.07725 L42.2477949,27.05175 C42.2477949,28.43475 41.1264615,29.5665 39.7552821,29.5665 L37.9996667,29.5665 C36.6284872,29.5665 35.5071538,28.43475 35.5071538,27.05175 L35.5071538,24.07725 C35.5071538,22.6935 36.6284872,21.56175 37.9996667,21.56175 Z M11.3323077,29.448 L13.2886923,29.48625 L13.3600769,21.69675 L11.3241282,21.70725 L11.3323077,29.448 Z M23.6216154,21.66675 C23.2014872,21.66675 22.7821026,21.66675 22.3627179,21.66675 C22.359,22.2885 22.3552821,22.911 22.3523077,23.532 C22.7858205,23.535 23.187359,23.538 23.6216154,23.541 C23.6238462,24.17175 23.6201282,24.84075 23.6178974,25.4745 C23.6156667,26.142 23.6104615,26.76675 23.6134359,27.309 C23.618641,28.0995 23.767359,28.77675 24.2120256,29.1345 C24.3979231,29.28375 24.6656154,29.3625 24.9950256,29.39925 C25.7720769,29.48925 26.7498974,29.44575 27.4154103,29.2275 C27.3938462,28.6935 27.3722821,28.1595 27.3507179,27.6255 C26.5773846,27.7035 25.6285641,27.87075 25.6300513,27.47175 C25.6307949,26.11125 25.6315385,24.906 25.6330256,23.5455 C26.2524359,23.5425 26.841359,23.54025 27.4615128,23.53725 C27.4600256,22.91775 27.4585385,22.2975 27.4570513,21.67725 C26.8495385,21.67425 26.2420256,21.67125 25.6345128,21.66825 C25.6337692,21.05025 25.6330256,20.4315 25.6322821,19.8135 C24.9608205,19.81425 24.2901026,19.81575 23.6193846,19.8165 C23.6201282,20.433 23.6208718,21.05025 23.6216154,21.66675 Z M34.4252308,29.18925 L34.249,27.429 C33.3462821,27.50475 32.393,27.75525 31.4315385,27.6465 C30.4715641,27.53775 30.3533333,27.0255 30.3444103,26.2395 C30.3392051,25.76325 30.3250769,25.227 30.3525897,24.7575 C30.3897692,24.114 30.5778974,23.69775 31.4315385,23.601 C32.393,23.493 33.3462821,23.7435 34.249,23.8185 L34.4252308,22.0575 C30.9831538,21.23775 28.8364103,21.64725 28.3560513,24.33825 C28.2556667,24.90075 28.3010256,26.75625 28.4378462,27.28425 C29.0475897,29.63775 31.1497179,29.97 34.4252308,29.18925 Z M80.8951282,29.44875 L80.9568462,26.1285 C80.9598205,25.926 81.1397692,26.19825 81.1888462,26.27925 C81.8409744,27.3825 82.4440256,28.21275 83.4114359,29.193 C83.6850769,29.46825 83.7408462,29.44875 84.2256667,29.44875 L86.3002821,29.44875 C84.7863333,28.185 83.9445897,27.17775 83.1370513,25.6455 C82.9749487,25.29225 82.9831282,25.33275 83.2151282,25.002 C83.5155385,24.6525 83.8940256,24.18075 84.3111795,23.70075 L86.0786923,21.60225 C86.0876154,21.58575 86.0957949,21.56925 86.1032308,21.5535 L84.2241795,21.5535 C83.8791538,21.5535 83.8917949,21.50025 83.648641,21.765 C82.9333077,22.54425 82.1123846,23.45625 81.4513333,24.192 C81.3680513,24.2835 81.2721282,24.3495 81.1895897,24.41025 C80.9174359,24.6075 80.9665128,24.555 80.9650256,24.27225 L80.9479231,18.63225 L78.9454359,18.64725 L78.9201538,29.44875 L80.8951282,29.44875 Z M17.6617436,23.4495 L18.6499744,23.4495 C19.1444615,23.4495 19.5482308,23.85675 19.5482308,24.35475 L19.5482308,24.756 L16.7642308,24.756 L16.7642308,24.35475 C16.7642308,23.85675 17.168,23.4495 17.6617436,23.4495 Z M21.2659231,29.12025 C21.1997436,28.52925 21.1328205,27.93825 21.066641,27.34725 C20.2553846,27.50025 18.8656154,27.7065 18.0469231,27.67875 C17.1025641,27.64725 16.7508462,27.18975 16.7553077,25.83225 C17.0549744,26.17425 17.4751026,26.41725 18.0045385,26.4225 C19.2374103,26.436 20.3892308,26.457 21.605,26.41125 C21.6585385,24.15075 21.8526154,22.179 19.6144103,21.69675 C18.7042564,21.501 17.4981538,21.50475 16.6348462,21.7635 C15.6875128,22.047 15.2220256,22.5 14.9498718,23.44875 C14.442,25.22175 14.5847692,27.849 15.7150256,28.863 C17.0133333,30.0255 19.6300256,29.6115 21.2659231,29.12025 Z M63.4958718,22.04925 L63.6884615,23.8605 C64.4714615,23.78475 65.1116923,23.577 65.9318718,23.51775 C67.1684615,23.47275 67.9574103,23.44275 67.918,24.3465 C66.9937179,24.34275 66.0627436,24.3465 65.1020256,24.35475 C63.9368205,24.36525 62.9679231,24.924 63.0965641,27.31275 C63.2512308,30.1815 66.6286154,29.9715 68.1700769,28.821 L68.1700769,29.4645 L69.9628718,29.4645 C69.9160256,26.53575 70.1264615,23.45925 69.6029744,22.6275 C68.6028462,21.039 65.3295641,21.62175 63.4958718,22.04925 Z M6.65141026,29.364 C7.06707692,29.364 6.98528205,29.40075 7.23810256,29.05125 C8.95802564,26.673 10.5842564,21.60225 10.5619487,18.77325 C9.76258974,18.73875 8.9535641,18.87075 8.14230769,19.06725 C7.36525641,23.7075 6.68412821,24.93225 5.44233333,27.3 C4.20053846,24.93225 3.51941026,23.7075 2.74235897,19.06725 C1.93184615,18.87075 1.12207692,18.73875 0.323461538,18.77325 C0.300410256,21.60225 1.92738462,26.673 3.6465641,29.05125 C3.89938462,29.40075 3.81758974,29.364 4.23325641,29.364 L6.65141026,29.364 Z M59.6879487,29.55975 C60.7936667,29.4255 61.7313333,28.85625 62.047359,27.16875 C62.2488718,26.0895 62.2206154,24.351 61.9209487,23.334 C61.7818974,22.8615 61.5722051,22.46175 61.2628718,22.2015 C60.7431026,21.76425 60.1683077,21.68625 59.6619231,21.66675 C58.8053077,21.63375 58.3450256,21.78375 57.7256154,22.28625 C57.6051538,22.38375 57.5010513,22.428 57.5010513,22.25625 L57.4809744,18.6555 L55.5037692,18.6885 L55.5126923,29.01075 C56.359641,29.58675 58.6907949,29.6805 59.6879487,29.55975 Z" id="Fill-5" fill="#123C25"></path>
            </g>
        </g>
    </g>
</svg>