<?xml version="1.0" encoding="UTF-8"?>
<svg width="87px" height="30px" viewBox="0 0 87 30" version="1.1" xmlns="http://www.w3.org/2000/svg" xmlns:xlink="http://www.w3.org/1999/xlink">
    <!-- Generator: Sketch 51.3 (57544) - http://www.bohemiancoding.com/sketch -->
    <title>vietcombank-vector-logo</title>
    <desc>Created with Sketch.</desc>
    <defs>
        <linearGradient x1="50%" y1="100%" x2="50%" y2="1.29606214%" id="linearGradient-1">
            <stop stop-color="#1C7255" offset="0%"></stop>
            <stop stop-color="#86C23F" offset="100%"></stop>
        </linearGradient>
        <linearGradient x1="11.6903108%" y1="50%" x2="85.9960168%" y2="50%" id="linearGradient-2">
            <stop stop-color="#13754C" offset="0%"></stop>
            <stop stop-color="#7DBE42" offset="100%"></stop>
        </linearGradient>
    </defs>
    <g id="Page-1" stroke="none" stroke-width="1" fill="none" fill-rule="evenodd">
        <g id="m7-withdraw-balance-0-1366-copy" transform="translate(-960.000000, -1420.000000)">
            <g id="vietcombank-vector-logo" transform="translate(960.000000, 1420.000000)">
                <g id="Group-4" transform="translate(58.000000, 0.000000)">
                    <path d="M7.27305128,0.370307692 C5.90261538,0.648410256 5.40069231,1.26930769 5.44976923,2.16310256 C5.5174359,3.41902564 6.89976923,5.81412821 7.56007692,6.88117949 C8.71264103,8.74758974 10.0771282,10.4310769 11.5947949,11.9807179 C12.8254359,13.195 13.5935641,13.4582308 14.9074872,11.6646923 C16.0280769,10.1879231 17.064641,8.71710256 17.9524872,6.88564103 C18.3421282,6.08033333 18.7020256,5.20215385 19.024,4.21689744 C19.3697692,3.0665641 19.2441026,2.04858974 18.1205385,1.29905128 C19.2091538,1.827 19.678359,2.80333333 19.7482564,3.87782051 C19.8151795,4.91661538 19.5036154,6.04835897 19.2664103,6.88117949 C18.6752564,8.95579487 17.9190256,11.0482564 16.9612821,12.9280513 C16.2377692,14.3475641 15.3157179,16.0570769 14.396641,17.3211795 C12.3621795,20.1215385 10.4080256,19.2165897 8.11851282,17.3219231 C6.66776923,16.1210256 5.27205128,14.5988974 4.07561538,12.9384615 C2.86653846,11.2616667 1.53030769,8.78030769 0.742846154,6.873 C-0.337589744,4.26151282 0.501923077,2.92379487 1.83592308,2.07535897 C3.30153846,1.14364103 5.49661538,0.615692308 7.27305128,0.370307692" id="Fill-1" fill="url(#linearGradient-1)"></path>
                    <path d="M7.22546154,6.32794872 C9.3454359,6.01117949 14.8539487,5.66838462 16.7865385,6.67 C17.4327179,7.00461538 17.4505641,7.45820513 17.3866154,7.97202564 C17.5806923,7.62328205 17.7695641,7.26189744 17.9524872,6.88564103 C18.3421282,6.08033333 18.7020256,5.20215385 19.024,4.21689744 C19.3697692,3.0665641 19.2441026,2.04858974 18.1205385,1.29905128 L18.1153333,1.29607692 C17.6959487,1.07746154 17.2141026,0.918333333 16.7820769,0.792666667 C15.5068205,0.423846154 14.0947436,0.272153846 12.6744872,0.170282051 C12.0877949,0.127153846 11.4743333,0.131615385 10.8526923,0.133846154 C9.73061538,0.137564103 8.49848718,0.205974359 7.27230769,0.370307692 C5.90261538,0.648410256 5.40069231,1.26930769 5.44976923,2.16310256 C5.50776923,3.23312821 6.51979487,5.13002564 7.22546154,6.32794872" id="Fill-3" fill="url(#linearGradient-2)"></path>
                </g>
                <path d="M60.0991538,24.492359 L60.0991538,26.6101026 C60.0991538,27.1045897 59.6953846,27.5076154 59.201641,27.5076154 C58.8647949,27.5076154 58.5272051,27.5076154 58.1911026,27.5076154 C57.4861795,27.5076154 57.4809744,27.5172821 57.4809744,26.5134359 L57.4809744,24.2387949 C57.4809744,23.2342051 57.4861795,23.2438718 58.1911026,23.2438718 C58.5272051,23.2438718 58.8647949,23.2438718 59.201641,23.2438718 C59.6953846,23.2438718 60.0991538,23.647641 60.0991538,24.1413846 L60.0991538,24.492359 Z M65.7764615,25.8687436 C66.5036923,25.8687436 67.2309231,25.8687436 67.9574103,25.8687436 C67.9574103,26.2487179 67.9574103,26.6286923 67.9574103,27.0086667 C67.9574103,27.4808462 66.5802821,27.5024103 65.7050769,27.4815897 C65.063359,27.4674615 65.1384615,27.4845641 65.1102051,26.9134872 C65.0997949,26.7008205 65.1094615,26.4888974 65.1094615,26.2754872 C65.1094615,25.8382564 65.1986923,25.8687436 65.7764615,25.8687436 Z M73.2212821,29.1963077 C73.2398718,27.2287692 73.2584615,25.2612308 73.2763077,23.2936923 C73.7730256,23.2936923 74.2704872,23.2922051 74.7672051,23.2922051 C75.2059231,23.2966667 75.5539231,23.5591538 75.5539231,24.0053077 C75.5561538,25.7348974 75.5583846,27.4652308 75.5598718,29.1963077 C76.2276154,29.1963077 76.8961026,29.1963077 77.5631026,29.1963077 C77.5794615,27.4748974 77.5958205,25.7542308 77.6121795,24.0343077 C77.6248205,22.6705641 77.0886923,21.4637179 75.4728718,21.4637179 C75.1665128,21.4637179 74.861641,21.4637179 74.5567692,21.4637179 C74.0184103,21.4845385 73.6689231,21.6481282 73.2688718,22.0347949 C72.9253333,22.3664359 72.9342564,22.5486154 72.9342564,22.0199231 L72.9342564,21.5075897 L71.2247436,21.5083333 C71.2277179,24.0662821 71.2329231,26.638359 71.2351538,29.1963077 C71.8976923,29.1963077 72.5594872,29.1963077 73.2212821,29.1963077 Z M45.5158718,29.1963077 C45.5344615,27.2287692 45.5523077,25.2612308 45.5708974,23.2936923 C46.0609231,23.2936923 46.5509487,23.2922051 47.0409744,23.2922051 C47.431359,23.2959231 47.8157949,23.5442821 47.8157949,23.9636667 L47.8157949,24.2350769 L47.821,29.1963077 L49.7959744,29.1963077 L49.8517436,23.2877436 C50.3886154,23.287 50.9262308,23.287 51.4631026,23.2862564 C51.9375128,23.2847692 52.2483333,23.5524615 52.2490769,24.0082821 L52.2565128,29.1963077 L54.213641,29.1963077 L54.2805641,23.6164103 C54.2946923,22.429641 53.6403333,21.4495897 52.2981538,21.4622308 C51.8705897,21.4659487 51.4445128,21.4696667 51.0176923,21.4741282 C50.3744872,21.4800769 50.0324359,21.5968205 49.635359,22.0087692 C49.3394103,22.3166154 49.4836667,22.3195897 49.213,22.0310769 C48.8159231,21.6072308 48.3392821,21.4637179 47.7354872,21.4637179 C47.4350769,21.4637179 47.1331795,21.4637179 46.8327692,21.4637179 C46.2847436,21.4852821 45.9345128,21.6585385 45.5225641,22.0749487 C45.1953846,22.4058462 45.2347949,22.5158974 45.2347949,21.9961282 C45.2347949,21.8355128 45.2347949,21.6748974 45.2347949,21.5135385 C45.2340513,21.5135385 45.2340513,21.5135385 45.2340513,21.5135385 C44.6778462,21.5157692 44.1067692,21.5187436 43.5505641,21.5217179 C43.5535385,24.0796667 43.5565128,26.638359 43.5594872,29.1963077 L45.5158718,29.1963077 Z M38.383359,23.2490769 C37.8896154,23.2490769 37.4858462,23.6528462 37.4858462,24.1465897 L37.4858462,26.5454103 C37.4858462,27.0384103 37.8896154,27.4421795 38.383359,27.4421795 L39.3715897,27.4421795 C39.8653333,27.4421795 40.2691026,27.0384103 40.2691026,26.5454103 L40.2691026,24.1465897 C40.2691026,23.6528462 39.8653333,23.2490769 39.3715897,23.2490769 L38.383359,23.2490769 Z M37.9996667,21.3774615 L39.7552821,21.3774615 C41.1264615,21.3774615 42.2477949,22.4995385 42.2477949,23.8714615 L42.2477949,26.8205385 C42.2477949,28.1917179 41.1264615,29.3137949 39.7552821,29.3137949 L37.9996667,29.3137949 C36.6284872,29.3137949 35.5071538,28.1917179 35.5071538,26.8205385 L35.5071538,23.8714615 C35.5071538,22.4995385 36.6284872,21.3774615 37.9996667,21.3774615 Z M11.3323077,29.1963077 L13.2886923,29.2342308 L13.3600769,21.5113077 L11.3241282,21.5217179 L11.3323077,29.1963077 Z M23.6216154,21.4815641 C23.2014872,21.4815641 22.7821026,21.4815641 22.3627179,21.4815641 C22.359,22.098 22.3552821,22.7151795 22.3523077,23.3308718 C22.7858205,23.3338462 23.187359,23.3368205 23.6216154,23.3397949 C23.6238462,23.9651538 23.6201282,24.6284359 23.6178974,25.2567692 C23.6156667,25.9185641 23.6104615,26.5379744 23.6134359,27.0755897 C23.618641,27.8593333 23.767359,28.5307949 24.2120256,28.8854872 C24.3979231,29.0334615 24.6656154,29.1115385 24.9950256,29.1479744 C25.7720769,29.2372051 26.7498974,29.1940769 27.4154103,28.9776923 C27.3938462,28.4482564 27.3722821,27.9188205 27.3507179,27.3893846 C26.5773846,27.4667179 25.6285641,27.6325385 25.6300513,27.2369487 C25.6307949,25.8880769 25.6315385,24.6931282 25.6330256,23.3442564 C26.2524359,23.3412821 26.841359,23.3390513 27.4615128,23.3360769 C27.4600256,22.7218718 27.4585385,22.1069231 27.4570513,21.4919744 C26.8495385,21.489 26.2420256,21.4860256 25.6345128,21.4830513 C25.6337692,20.8703333 25.6330256,20.2568718 25.6322821,19.6441538 C24.9608205,19.6448974 24.2901026,19.6463846 23.6193846,19.6471282 C23.6201282,20.258359 23.6208718,20.8703333 23.6216154,21.4815641 Z M34.4252308,28.9397692 L34.249,27.1945641 C33.3462821,27.2696667 32.393,27.5180256 31.4315385,27.4102051 C30.4715641,27.3023846 30.3533333,26.7945128 30.3444103,26.0152308 C30.3392051,25.5430513 30.3250769,25.0113846 30.3525897,24.5458974 C30.3897692,23.9078974 30.5778974,23.4952051 31.4315385,23.3992821 C32.393,23.2922051 33.3462821,23.5405641 34.249,23.6149231 L34.4252308,21.8689744 C30.9831538,21.0562308 28.8364103,21.4622308 28.3560513,24.1302308 C28.2556667,24.6879231 28.3010256,26.5275641 28.4378462,27.0510513 C29.0475897,29.3844359 31.1497179,29.7138462 34.4252308,28.9397692 Z M80.8951282,29.1970513 L80.9568462,25.9051795 C80.9598205,25.7044103 81.1397692,25.9743333 81.1888462,26.054641 C81.8409744,27.1484615 82.4440256,27.9716154 83.4114359,28.9434872 C83.6850769,29.2163846 83.7408462,29.1970513 84.2256667,29.1970513 L86.3002821,29.1970513 C84.7863333,27.9441026 83.9445897,26.9454615 83.1370513,25.4263077 C82.9749487,25.0760769 82.9831282,25.1162308 83.2151282,24.7883077 C83.5155385,24.4417949 83.8940256,23.9740769 84.3111795,23.4981795 L86.0786923,21.4176154 C86.0876154,21.4012564 86.0957949,21.3848974 86.1032308,21.3692821 L84.2241795,21.3692821 C83.8791538,21.3692821 83.8917949,21.3164872 83.648641,21.5789744 C82.9333077,22.3515641 82.1123846,23.2557692 81.4513333,23.9852308 C81.3680513,24.0759487 81.2721282,24.1413846 81.1895897,24.2016154 C80.9174359,24.3971795 80.9665128,24.3451282 80.9650256,24.0647949 L80.9479231,18.473 L78.9454359,18.4878718 L78.9201538,29.1970513 L80.8951282,29.1970513 Z M17.6617436,23.2490769 L18.6499744,23.2490769 C19.1444615,23.2490769 19.5482308,23.6528462 19.5482308,24.1465897 L19.5482308,24.5444103 L16.7642308,24.5444103 L16.7642308,24.1465897 C16.7642308,23.6528462 17.168,23.2490769 17.6617436,23.2490769 Z M21.2659231,28.871359 C21.1997436,28.2854103 21.1328205,27.6994615 21.066641,27.1135128 C20.2553846,27.2652051 18.8656154,27.4696923 18.0469231,27.4421795 C17.1025641,27.4109487 16.7508462,26.957359 16.7553077,25.6114615 C17.0549744,25.9505385 17.4751026,26.1914615 18.0045385,26.1966667 C19.2374103,26.2100513 20.3892308,26.2308718 21.605,26.1855128 C21.6585385,23.9443333 21.8526154,21.9894359 19.6144103,21.5113077 C18.7042564,21.3172308 17.4981538,21.3209487 16.6348462,21.5774872 C15.6875128,21.8585641 15.2220256,22.3076923 14.9498718,23.2483333 C14.442,25.0061795 14.5847692,27.6109744 15.7150256,28.6163077 C17.0133333,29.7688718 19.6300256,29.3584103 21.2659231,28.871359 Z M63.4958718,21.8607949 L63.6884615,23.6565641 C64.4714615,23.5814615 65.1116923,23.3754872 65.9318718,23.3167436 C67.1684615,23.2721282 67.9574103,23.2423846 67.918,24.1384103 C66.9937179,24.1346923 66.0627436,24.1384103 65.1020256,24.1465897 C63.9368205,24.157 62.9679231,24.7109744 63.0965641,27.0793077 C63.2512308,29.9235385 66.6286154,29.7153333 68.1700769,28.5746667 L68.1700769,29.2126667 L69.9628718,29.2126667 C69.9160256,26.3089487 70.1264615,23.2587436 69.6029744,22.4341026 C68.6028462,20.8591795 65.3295641,21.4369487 63.4958718,21.8607949 Z M6.65141026,29.1130256 C7.06707692,29.1130256 6.98528205,29.1494615 7.23810256,28.8029487 C8.95802564,26.4450256 10.5842564,21.4176154 10.5619487,18.6127949 C9.76258974,18.5785897 8.9535641,18.7094615 8.14230769,18.9042821 C7.36525641,23.5048718 6.68412821,24.7191538 5.44233333,27.0666667 C4.20053846,24.7191538 3.51941026,23.5048718 2.74235897,18.9042821 C1.93184615,18.7094615 1.12207692,18.5785897 0.323461538,18.6127949 C0.300410256,21.4176154 1.92738462,26.4450256 3.6465641,28.8029487 C3.89938462,29.1494615 3.81758974,29.1130256 4.23325641,29.1130256 L6.65141026,29.1130256 Z M59.6879487,29.3071026 C60.7936667,29.174 61.7313333,28.6096154 62.047359,26.9365385 C62.2488718,25.8665128 62.2206154,24.1428718 61.9209487,23.1345641 C61.7818974,22.6661026 61.5722051,22.2697692 61.2628718,22.0117436 C60.7431026,21.5782308 60.1683077,21.5008974 59.6619231,21.4815641 C58.8053077,21.4488462 58.3450256,21.5975641 57.7256154,22.0957692 C57.6051538,22.1924359 57.5010513,22.2363077 57.5010513,22.0660256 L57.4809744,18.4960513 L55.5037692,18.5287692 L55.5126923,28.7627949 C56.359641,29.3338718 58.6907949,29.4268205 59.6879487,29.3071026 Z" id="Fill-5" fill="#FFFFFF"></path>
            </g>
        </g>
    </g>
</svg>