<?xml version="1.0" encoding="UTF-8"?>
<svg width="100px" height="19px" viewBox="0 0 100 19" version="1.1" xmlns="http://www.w3.org/2000/svg" xmlns:xlink="http://www.w3.org/1999/xlink">
    <!-- Generator: Sketch 49.2 (51160) - http://www.bohemiancoding.com/sketch -->
    <title>Yandex_Money_rgb_ru</title>
    <desc>Created with Sketch.</desc>
    <defs></defs>
    <g id="Page-1" stroke="none" stroke-width="1" fill="none" fill-rule="evenodd">
        <g id="m7-withdraw-balance-0-1366" transform="translate(-193.000000, -1955.000000)">
            <g id="Yandex_Money_rgb_ru" transform="translate(193.000000, 1955.000000)">
                <path d="M6.3365019,1.48086 L5.40190114,1.48086 C3.98859316,1.48086 2.62110266,2.4149 2.62110266,5.12601 C2.62110266,7.74573 3.87452471,8.58876 5.40190114,8.58876 L6.3365019,8.58876 L6.3365019,1.48086 Z M4.87756654,10.04682 L2.09676806,16.28889 L0.0678707224,16.28889 L3.12262357,9.61381 C1.68612167,8.88478 0.728707224,7.56352 0.728707224,5.12601 C0.728707224,1.70867 2.89429658,0 5.47034221,0 L8.0918251,0 L8.0918251,16.28889 L6.3365019,16.28889 L6.3365019,10.04682 L4.87756654,10.04682 Z" id="Fill-1" fill="#FF0000"></path>
                <path d="M42.1958175,10.54804 C42.1958175,6.9483 43.586692,4.64759 46.276616,4.64759 C47.3020913,4.64759 47.8948669,4.921 48.3963878,5.23963 L48.1456274,6.92588 C47.6669202,6.51548 46.9830798,6.12845 46.2536122,6.12845 C44.9769962,6.12845 44.0653992,7.56352 44.0653992,10.45684 C44.0653992,13.32717 44.7490494,14.96782 46.1851711,14.96782 C47.0513308,14.96782 47.7125475,14.62601 48.1228137,14.26159 L48.5330798,15.58266 C47.9176806,16.10649 47.1882129,16.4483 46.1395437,16.4483 C43.6775665,16.4483 42.1958175,14.4666 42.1958175,10.54804 Z M36.9986692,10.57046 L36.9986692,16.28889 L35.2205323,16.28889 L35.2205323,4.80681 L36.9986692,4.80681 L36.9986692,10.11503 L39.7568441,4.80681 L41.5577947,4.80681 L38.708365,10.20623 L41.9678707,16.28889 L40.0304183,16.28889 L36.9986692,10.57046 Z M28.6326996,9.5 L31.573384,9.5 C31.573384,7.54072 31.2541825,6.10546 30.2285171,6.10546 C29.1342205,6.10546 28.7467681,7.44952 28.6326996,9.5 Z M30.5931559,16.4483 C28.2224335,16.4483 26.7636882,14.5578 26.7636882,11.02684 C26.7636882,7.33571 27.7895437,4.64759 30.2285171,4.64759 C32.143346,4.64759 33.3971483,6.08266 33.3971483,9.97804 L33.3971483,10.95806 L28.6098859,10.95806 C28.6098859,13.55536 29.3393536,14.92222 30.7526616,14.92222 C31.7557034,14.92222 32.5536122,14.4666 33.0095057,14.14778 L33.419962,15.51388 C32.6904943,16.08388 31.7328897,16.4483 30.5931559,16.4483 Z M23.0250951,6.24207 L21.0418251,6.24207 L21.0418251,6.44746 C21.0418251,8.86217 20.9279468,12.39294 19.9705323,14.83083 L23.0250951,14.83083 L23.0250951,6.24207 Z M25.6920152,18.54438 L24.0965779,18.54438 L24.0965779,16.28889 L19.1726236,16.28889 L19.1726236,18.54438 L17.5771863,18.54438 L17.5771863,14.83083 L18.2838403,14.83083 C19.3321293,12.39294 19.4461977,8.83937 19.4461977,5.78645 L19.4461977,4.80681 L24.7804183,4.80681 L24.7804183,14.83083 L25.6920152,14.83083 L25.6920152,18.54438 Z M16.5513308,4.80681 L16.5513308,16.28889 L14.7960076,16.28889 L14.7960076,11.14046 L12.151711,11.14046 L12.151711,16.28889 L10.3735741,16.28889 L10.3735741,4.80681 L12.151711,4.80681 L12.151711,9.68183 L14.7960076,9.68183 L14.7960076,4.80681 L16.5513308,4.80681 Z" id="Fill-2" fill="#000000"></path>
                <path d="M59.4161597,0.93404 L55.8830798,0.93404 C55.8144487,5.05742 55.7003802,8.20135 55.5180608,10.54804 C55.3129278,12.98536 54.9480989,14.60283 54.3328897,15.35523 L59.4161597,15.35523 L59.4161597,0.93404 Z M60.6243346,16.28889 L53.6490494,16.28889 L53.4891635,19 L52.6003802,19 L52.6003802,15.35523 L53.0790875,15.35523 C53.8769962,14.69403 54.2642586,12.87174 54.4922053,10.54804 C54.7201521,8.13333 54.7885932,4.5334 54.8572243,0 L60.5558935,0 L60.5558935,15.35523 L61.673384,15.35523 L61.673384,19 L60.7836502,19 L60.6243346,16.28889 Z" id="Fill-3" fill="#000000"></path>
                <path d="M63.8859316,9.88684 L68.0581749,9.88684 C68.2401141,6.83449 67.3285171,5.46782 66.1659696,5.46782 C64.9577947,5.46782 63.9771863,7.0167 63.8859316,9.88684 Z M66.3935361,15.58266 C67.9205323,15.58266 68.7184411,14.35279 68.7184411,14.35279 L69.0606464,15.21767 C69.0606464,15.21767 68.1944867,16.51632 66.3711027,16.51632 C63.9323194,16.51632 62.8148289,14.30643 62.8148289,10.54804 C62.8148289,6.78889 64.2279468,4.579 66.1659696,4.579 C68.1488593,4.579 69.4250951,6.65247 69.0606464,10.73063 L63.8634981,10.73063 C63.9091255,13.87418 64.7294677,15.58266 66.3935361,15.58266 Z" id="Fill-4" fill="#000000"></path>
                <polyline id="Fill-5" fill="#000000" points="76.08327 10.75305 72.1623574 10.75305 72.1623574 16.28889 71.0912548 16.28889 71.0912548 4.80681 72.1623574 4.80681 72.1623574 9.88684 76.08327 9.88684 76.08327 4.80681 77.1543726 4.80681 77.1543726 16.28889 76.08327 16.28889 76.08327 10.75305"></polyline>
                <path d="M80.7577947,9.91002 L80.7577947,15.44586 L81.4420152,15.44586 C83.0602662,15.44586 84.1545627,14.649 84.1545627,12.66673 C84.1545627,10.73063 83.1973384,9.91002 81.5557034,9.91002 L80.7577947,9.91002 Z M79.6872624,4.80681 L80.7577947,4.80681 L80.7577947,9.06718 L81.6020913,9.06718 C83.7901141,9.06718 85.2034221,10.25183 85.2034221,12.64412 C85.2034221,15.08144 83.6988593,16.28889 81.53327,16.28889 L79.6872624,16.28889 L79.6872624,4.80681 Z" id="Fill-6" fill="#000000"></path>
                <polyline id="Fill-7" fill="#000000" points="88.0994297 5.69563 88.0994297 16.28889 87.0513308 16.28889 87.0513308 4.80681 91.9064639 4.80681 91.9064639 5.69563 88.0994297 5.69563"></polyline>
                <path d="M98.906654,8.29255 C98.906654,7.70013 98.9515209,7.19891 98.9979087,6.72049 L98.9290875,6.72049 C98.7695817,7.22171 98.5646388,7.70013 98.3138783,8.20135 L94.5756654,16.28889 L93.6638783,16.28889 L93.6638783,4.80681 L94.6669202,4.80681 L94.6669202,12.78035 C94.6669202,13.39538 94.6205323,13.8966 94.5756654,14.39782 L94.6437262,14.39782 C94.8032319,13.87418 95.0307985,13.37296 95.2591255,12.87174 L98.9979087,4.80681 L99.9321293,4.80681 L99.9321293,16.28889 L98.906654,16.28889 L98.906654,8.29255" id="Fill-8" fill="#000000"></path>
            </g>
        </g>
    </g>
</svg>