<svg xmlns="http://www.w3.org/2000/svg" width="72" height="72" viewBox="0 0 72 72">
  <path fill="#D74A37" fill-rule="evenodd" d="M35.516 68.394c-8.076 0-15.468-2.983-21.16-7.902l45.936-45.936c4.82 5.706 7.74 13.085 7.74 21.14 0 18.03-14.587 32.698-32.516 32.698m0-65.394c8.843 0 16.87 3.573 22.737 9.353L12.177 58.43C6.503 52.54 3 44.524 3 35.696 3 17.667 17.587 3 35.516 3m25.424 7.807C54.485 4.147 45.475 0 35.516 0 15.933 0 0 16.014 0 35.697 0 55.38 15.933 71.394 35.516 71.394S71.032 55.38 71.032 35.697c0-8.883-3.253-17.012-8.614-23.266l-1.478-1.623z"/>
</svg>
