<?xml version="1.0" encoding="UTF-8" standalone="no"?>
<svg width="34px" height="34px" viewBox="0 0 34 34" version="1.1" xmlns="http://www.w3.org/2000/svg" xmlns:xlink="http://www.w3.org/1999/xlink">
    <!-- Generator: Sketch 49.1 (51147) - http://www.bohemiancoding.com/sketch -->
    <title>bancontact</title>
    <desc>Created with Sketch.</desc>
    <defs></defs>
    <g id="Page-1" stroke="none" stroke-width="1" fill="none" fill-rule="evenodd">
        <g id="bancontact" transform="translate(1.000000, 1.000000)">
            <rect id="Rectangle-6-Copy-8" stroke="#D0D5DF" fill="#FFFFFF" x="0" y="0" width="32" height="32" rx="2"></rect>
            <g id="mister_cash-copy-3" transform="translate(4.000000, 11.000000)">
                <path d="M21.3465217,2.62659235 L20.226463,2.62659235 L15.0501727,2.62659235 L13.930114,2.62659235 L13.1758565,3.48757954 L10.7282401,6.28129509 L10.7282401,6.28139119 L9.97398251,7.14228228 L8.85382901,7.14228228 L3.77574293,7.14228228 L2.65558943,7.14228228 L3.3981876,6.27043544 L3.74967521,5.85776896 L4.49227338,4.98592213 L3.37211988,4.98592213 L1.92872669,4.98592213 L1.1201535,4.98592213 C0.504102252,4.98592213 0,5.50997204 0,6.15040274 L0,6.15049884 L0,8.39931012 L0,8.60746932 C0,9.24799612 0.504102252,9.77204603 1.1201535,9.77204603 L1.43486194,9.77204603 L13.1875159,9.77204603 L14.0301193,9.77204603 C14.6461705,9.77204603 15.4877312,9.38282869 15.9002647,8.90711861 L17.8530685,6.65523204 L21.3465217,2.62659235 Z" id="Fill-1" fill="#005596"></path>
                <path d="M22.8366188,9.61030458e-06 C23.45267,9.61030458e-06 23.9567723,0.52405952 23.9567723,1.16458632 L23.9567723,3.6215568 C23.9567723,4.2619875 23.45267,4.78613351 22.8366188,4.78613351 L22.2289092,4.78613351 L20.5956483,4.78613351 L19.4754948,4.78613351 L20.2251075,3.92082168 L20.2252023,3.92082168 L20.5968805,3.49181768 L21.3464933,2.62660196 L13.9301804,2.62660196 L9.97404886,7.14555939 L2.61025056,7.14555939 L7.89119087,1.09174021 L8.09101177,0.862630551 C8.50496712,0.388169813 9.34766532,9.61030458e-06 9.96371657,9.61030458e-06 L10.223825,9.61030458e-06 L22.8366188,9.61030458e-06 Z" id="Fill-3" fill="#FFDC00"></path>
            </g>
        </g>
    </g>
</svg>