<?xml version="1.0" encoding="UTF-8"?>
<svg width="52px" height="52px" viewBox="0 0 52 52" version="1.1" xmlns="http://www.w3.org/2000/svg" xmlns:xlink="http://www.w3.org/1999/xlink">
    <!-- Generator: Sketch 51.3 (57544) - http://www.bohemiancoding.com/sketch -->
    <title>Bank_bri</title>
    <desc>Created with Sketch.</desc>
    <defs></defs>
    <g id="Bank_bri" stroke="none" stroke-width="1" fill="none" fill-rule="evenodd">
        <rect id="Rectangle" fill="#00529C" fill-rule="nonzero" x="0" y="0" width="52" height="52" rx="4"></rect>
        <g id="g246" transform="translate(26.200000, 25.500000) scale(-1, 1) rotate(-180.000000) translate(-26.200000, -25.500000) translate(6.700000, 6.000000)" fill="#FFFFFF" fill-rule="nonzero">
            <path d="M32.71875,38.25 L6.46809375,38.25 C3.28059375,38.25 0.697125,35.6027812 0.697125,32.3371875 L0.697125,32.2750312 L0.697125,6.3399375 C0.697125,3.10621875 3.23278125,0.47653125 6.37884375,0.42871875 L32.7044063,0.42871875 C35.8919063,0.42871875 38.4769688,3.07434375 38.4769688,6.3399375 L38.488125,32.3371875 C38.488125,35.6027812 35.90625,38.25 32.71875,38.25 Z M9.5870625,3.4584375 L8.155875,3.4425 C6.421875,3.4425 5.0161875,4.8673125 5.0161875,6.62521875 L5.00821875,6.8754375 L5.00821875,30.8836875 L5.01778125,32.1778125 C5.083125,33.8783438 6.37565625,35.2457813 8.066625,35.2457813 L10.9784062,35.2457813 C13.6176562,35.2457813 15.7564687,32.9507813 15.7564687,30.2461875 C15.7564687,28.9074375 15.232125,27.693 14.3826562,26.8100625 L6.9541875,19.271625 L13.9172812,12.1810313 C14.8145625,11.2550625 15.3564375,10.040625 15.3564375,8.70984375 C15.3564375,5.80921875 12.7745625,3.4584375 9.5870625,3.4584375 Z M30.9927187,3.48234375 L18.011625,3.487125 C18.011625,3.487125 19.5113437,6.73040625 19.5113437,8.73853125 C19.5113437,11.188125 18.69375,13.37475 17.412375,14.821875 L12.9721875,19.348125 L17.5032187,24.0305625 C18.853125,25.2975938 19.7488125,27.5479688 19.7488125,30.1123125 C19.7488125,32.14275 19.1878125,33.9405 18.2841562,35.2457813 L21.428625,35.2457813 C24.067875,35.2457813 26.2082812,32.9507813 26.2082812,30.2461875 C26.2082812,28.9074375 25.6839375,27.693 24.8344687,26.8100625 L17.5478437,19.3497188 L32.6820937,3.9174375 C32.202375,3.61621875 31.5983437,3.48234375 30.9927187,3.48234375 Z M34.1626875,8.30025 L23.3172188,19.3545 L28.4825625,24.6043125 C29.5328438,25.9191563 30.200625,27.8985938 30.200625,30.1123125 C30.200625,32.1555 29.6316563,33.9994688 28.7200313,35.30475 L31.0309688,35.234625 C32.7649688,35.234625 34.1706563,33.8098125 34.1706563,32.0519063 L34.1626875,8.30025 Z" id="path248"></path>
        </g>
    </g>
</svg>