<?xml version="1.0" encoding="UTF-8"?>
<svg width="52px" height="52px" viewBox="0 0 52 52" version="1.1" xmlns="http://www.w3.org/2000/svg" xmlns:xlink="http://www.w3.org/1999/xlink">
    <!-- Generator: Sketch 52.2 (67145) - http://www.bohemiancoding.com/sketch -->
    <title>bank_transfer copy</title>
    <desc>Created with Sketch.</desc>
    <defs>
        <path d="M0,48.0059907 C0,50.2118211 1.7899577,52 3.99400932,52 L48.0059907,52 C50.2118211,52 52,50.2100423 52,48.0059907 L52,3.99400932 C52,1.78817888 50.2100423,0 48.0059907,0 L3.99400932,0 C1.78817888,0 0,1.7899577 0,3.99400932 L0,48.0059907 Z" id="path-1"></path>
    </defs>
    <g id="bank_transfer-copy" stroke="none" stroke-width="1" fill="none" fill-rule="evenodd">
        <g id="Group" fill="#FFFFFF" fill-rule="nonzero">
            <rect id="Rectangle" x="0" y="0" width="52" height="52" rx="4"></rect>
        </g>
        <g id="Group">
            <g id="neosurf-copy-2">
                <mask id="mask-2" fill="white">
                    <use xlink:href="#path-1"></use>
                </mask>
                <use id="Fill-1" fill="#F2F2F7" xlink:href="#path-1"></use>
                <g id="refresh-button" mask="url(#mask-2)" fill="#6B758E" fill-rule="nonzero">
                    <g transform="translate(5.000000, 8.000000)" id="Shape">
                        <path d="M39,7.81954887 L28.6,0 L28.6,5.21303258 L12.9922,5.21303258 C5.8162,5.21303258 0,11.0620551 0,18.245614 C0,20.4298747 0.5356,22.4890226 1.4846,24.2953383 L5.7356,21.0997494 C5.3898,20.2161404 5.2,19.2543358 5.2,18.245614 C5.2,13.9370426 8.6892,10.4260652 12.9922,10.4260652 L28.6,10.4260652 L28.6,15.6390977 L39,7.81954887 Z"></path>
                        <path d="M35.8644,15.3888722 C36.2102,16.2750877 36.4,17.2368922 36.4,18.245614 C36.4,22.5541855 32.9108,26.0651629 28.6078,26.0651629 L13,26.0651629 L13,20.8521303 L2.6,28.6716792 L13,36.4912281 L13,31.2781955 L28.6078,31.2781955 C35.7838,31.2781955 41.6,25.4291729 41.6,18.245614 C41.6,16.0613534 41.0644,14.0022055 40.1154,12.1958897 L35.8644,15.3888722 Z"></path>
                    </g>
                </g>
            </g>
        </g>
    </g>
</svg>