<?xml version="1.0" encoding="UTF-8"?>
<svg width="52px" height="52px" viewBox="0 0 52 52" version="1.1" xmlns="http://www.w3.org/2000/svg" xmlns:xlink="http://www.w3.org/1999/xlink">
    <!-- Generator: Sketch 51.3 (57544) - http://www.bohemiancoding.com/sketch -->
    <title>Bank_btn</title>
    <desc>Created with Sketch.</desc>
    <defs></defs>
    <g id="Bank_btn" stroke="none" stroke-width="1" fill="none" fill-rule="evenodd">
        <rect id="Rectangle" fill="#28357C" fill-rule="nonzero" x="0" y="0" width="52" height="52" rx="4"></rect>
        <g id="Group-2" transform="translate(6.700000, 5.000000)">
            <polygon id="Fill-15" fill="#E5A444" points="9.77263582 38.9607586 19.630072 33.5541201 29.4858569 38.8592066 24.6890505 41.5833546 19.630072 38.7375937 14.571385 41.5863301"></polygon>
            <polygon id="Fill-16" fill="#E5A444" points="0.219626165 33.7405228 19.4459008 22.823774 38.6723696 33.6352274 33.9696887 36.310903 19.4459008 27.9399622 4.92201566 36.310903 4.92201566 36.3111909"></polygon>
            <path d="M0.219626165,33.7405228 L0.219626165,33.7350517 L0.219626165,33.6763089 L0.219626165,11.4596395 L19.4459008,0.491730741 L38.6717868,11.4596395 L38.6717868,33.6382029 L33.9696887,36.310903 L33.9696887,13.9606226 L19.4459008,5.67462842 L4.92201566,13.9606226 L4.92201566,36.3111909 L0.219626165,33.7405228 Z M9.77448142,38.9640221 L9.77448142,17.4272139 L19.630072,11.9159518 L29.4858569,17.4272139 L29.4858569,38.8592066 L24.9329608,41.447056 L24.6890505,41.5833546 L24.6890505,19.928197 L19.630072,17.0994254 L14.571385,19.928197 L14.571385,41.5863301 L9.77448142,38.9640221 Z" id="Fill-17" fill="#FFFFFF"></path>
        </g>
    </g>
</svg>