<?xml version="1.0" encoding="UTF-8"?>
<svg width="52px" height="52px" viewBox="0 0 52 52" version="1.1" xmlns="http://www.w3.org/2000/svg" xmlns:xlink="http://www.w3.org/1999/xlink">
    <!-- Generator: Sketch 51.3 (57544) - http://www.bohemiancoding.com/sketch -->
    <title>bidv</title>
    <desc>Created with Sketch.</desc>
    <defs></defs>
    <g id="bidv" stroke="none" stroke-width="1" fill="none" fill-rule="evenodd">
        <rect id="Rectangle" fill="#D8262C" fill-rule="nonzero" x="0" y="0" width="52" height="52" rx="4"></rect>
        <g id="Group-30" transform="translate(7.000000, 7.000000)">
            <polyline id="Fill-5" fill="#D8262C" points="18.9507727 1.34640909 1.31618182 18.9286061 18.9418485 36.5070606 18.9493333 36.5033182 36.5879545 18.9346515 18.9525 1.35216667"></polyline>
            <polyline id="Fill-6" fill="#FFFFFF" points="16.0049091 7.12816667 16.0017424 21.8145909 19.0791667 21.8160303 21.9021061 21.8168939 21.9044091 7.12931818 19.0803182 7.12816667"></polyline>
            <g id="Group-10">
                <path d="M23.7848333,18.9404091 L22.1925758,18.9438636 L22.1940152,10.0524394 L23.788,10.0524394 C25.4061667,10.0524394 26.6382879,12.0468636 26.6480758,14.4958485 C26.6665,16.8895606 25.4084697,18.9404091 23.7848333,18.9404091 M12.7705909,10.0492727 L15.7196212,10.0492727 L15.7196212,18.943 L12.7705909,18.9421364 L12.7705909,10.0492727" id="Fill-7" fill="#243B80"></path>
                <path d="M0.118318182,18.9286061 L0.272621212,19.0866515 L18.9504848,37.7121212 L37.7875455,18.9346515 L18.9568182,0.146242424 M18.9493333,36.5033182 L18.9415606,36.5070606 L1.31589394,18.9286061 L18.9504848,1.34640909 L18.9522121,1.35216667 L36.5876667,18.9346515 L18.9493333,36.5033182" id="Fill-9" fill="#FFFFFF"></path>
                <polyline id="Fill-11" fill="#FFFFFF" points="18.9484697 27.4057727 10.4502879 18.9286061 2.10842424 18.9286061 16.7951364 33.5787576 18.9470303 35.7260455 35.798303 18.9286061 27.4535606 18.9286061"></polyline>
            </g>
        </g>
    </g>
</svg>