<?xml version="1.0" encoding="UTF-8"?>
<svg width="52px" height="52px" viewBox="0 0 52 52" version="1.1" xmlns="http://www.w3.org/2000/svg" xmlns:xlink="http://www.w3.org/1999/xlink">
    <!-- Generator: Sketch 51.3 (57544) - http://www.bohemiancoding.com/sketch -->
    <title>CIMB_clicks</title>
    <desc>Created with Sketch.</desc>
    <defs></defs>
    <g id="CIMB_clicks" stroke="none" stroke-width="1" fill="none" fill-rule="evenodd">
        <rect id="Rectangle" fill="#7E272C" fill-rule="nonzero" x="0" y="0" width="52" height="52" rx="4"></rect>
        <g id="Group-3" transform="translate(6.000000, 12.000000)" fill="#FFFFFF" fill-rule="nonzero">
            <g id="image2vector">
                <path d="M0.647777376,5.12878351 C0.758251603,4.9097732 0.736932015,4.66556701 0.785385623,4.43492784 C1.16138562,2.61113402 2.08200418,1.18853608 3.88641655,0.533443299 C5.61911758,-0.0964536082 7.31887016,0.0159587629 8.85388047,1.13814433 C9.75124129,1.79323711 10.2105815,2.72548454 10.3888908,3.81084536 C10.4102104,3.94845361 10.3617568,3.96783505 10.24353,3.96589691 C9.59748184,3.96589691 8.95143373,3.96589691 8.30538562,3.96589691 C8.21816913,3.96589691 8.16971552,3.9523299 8.14451964,3.85154639 C7.88287016,2.83983505 7.18707634,2.28552577 6.18893201,2.15373196 C5.14621037,2.01612371 4.25078769,2.34754639 3.64414851,3.25265979 C3.27957213,3.82119481 3.06733162,4.47393448 3.02781861,5.14816495 C2.91495522,6.03684316 3.04907044,6.93943858 3.41544748,7.75690722 C4.09379799,9.17756701 5.45631346,9.43340206 6.4854681,9.18725773 C7.51462274,8.9411134 7.99915882,8.17554639 8.19297325,7.19872165 C8.23755057,6.97195876 8.30150933,6.89443299 8.53990109,6.90218557 C9.12134439,6.92156701 9.70278769,6.91381443 10.297798,6.90218557 C10.472231,6.90218557 10.4916124,6.94870103 10.4741691,7.11538144 C10.257097,8.61938144 9.61750933,9.85979381 8.24724129,10.6156701 C5.36715882,12.2282062 1.70600418,10.6369897 0.88229284,7.42742268 C0.804910471,7.11634871 0.744736689,6.80124515 0.702045417,6.48354639 C0.702045417,6.43509278 0.719488716,6.36919588 0.643901087,6.34787629 L0.647777376,5.12878351 Z" id="Shape"></path>
                <path d="M22.7678186,7.64837113 L24.465633,2.38437113 C24.6594475,1.80292784 24.8532619,1.22148454 25.029633,0.622597938 C25.0722722,0.483051546 25.1265403,0.428783505 25.2854681,0.428783505 C26.2467877,0.436536082 27.2081073,0.436536082 28.1694269,0.428783505 C28.3244784,0.428783505 28.3632413,0.473360825 28.3632413,0.622597938 C28.3632413,3.99884536 28.3632413,7.37509278 28.3632413,10.7513402 C28.3632413,10.9218969 28.3089733,10.9548454 28.1519836,10.9451546 C27.5705403,10.9451546 26.989097,10.9335258 26.4076537,10.9451546 C26.2138392,10.9451546 26.1770145,10.8928247 26.1789526,10.7125773 C26.1789526,8.37517526 26.1789526,6.03841924 26.1789526,3.70230928 C26.1789526,3.65191753 26.1789526,3.60152577 26.1789526,3.53562887 C26.076231,3.59183505 26.0820454,3.67905155 26.0587877,3.7468866 C25.2525196,6.07265979 24.4488358,8.39843299 23.6477361,10.7242062 C23.6354769,10.7989125 23.5935954,10.8655131 23.531575,10.9089274 C23.4695546,10.9523417 23.3926416,10.9688972 23.3182516,10.9548454 C22.880231,10.9393402 22.4422104,10.9393402 22.0061279,10.9548454 C21.8584368,10.979356 21.7188007,10.8796159 21.6940867,10.7319588 C20.8852344,8.40618557 20.0718599,6.08041237 19.2539629,3.75463918 C19.2384578,3.712 19.2210145,3.66936082 19.1783753,3.56082474 C19.1783753,3.68486598 19.1628702,3.75463918 19.1628702,3.80696907 C19.1628702,6.09785567 19.1628702,8.38680412 19.1628702,10.6776907 C19.1628702,10.9257732 19.0911588,10.9684124 18.8663341,10.9625979 C18.3120248,10.9470928 17.7557774,10.9529072 17.2014681,10.9625979 C17.0502928,10.9625979 16.9863341,10.9412784 16.9863341,10.7687835 C16.9863341,7.39253608 16.9863341,4.01628866 16.9863341,0.640041237 C16.9863341,0.467546392 17.0425403,0.446226804 17.19953,0.446226804 C18.1453444,0.446226804 19.0911588,0.446226804 20.0369733,0.446226804 C20.1770179,0.426589518 20.3067363,0.523445954 20.3276949,0.663298969 C21.1029526,2.95418557 21.8820867,5.24442612 22.665097,7.53402062 C22.6961073,7.55534021 22.6961073,7.60573196 22.7678186,7.64837113 Z" id="Shape"></path>
                <path d="M37.6469526,5.23538144 L37.7690557,5.27995876 C39.116066,5.73929897 39.6413031,6.86923711 39.5443959,8.11934021 C39.4300454,9.59039175 38.4919836,10.5458969 36.9317774,10.8482474 C36.5787156,10.9175601 36.2197845,10.9526094 35.8599836,10.9529072 C34.2261279,10.9529072 32.5922722,10.9529072 30.9584166,10.9529072 C30.7646021,10.9529072 30.7161485,10.9005773 30.7161485,10.7067629 C30.7161485,7.36152577 30.7161485,4.01628866 30.7161485,0.671051546 C30.7161485,0.477237113 30.7587877,0.421030928 30.9584166,0.422969072 C32.5535093,0.422969072 34.146664,0.422969072 35.7417568,0.422969072 C36.2111398,0.4181204 36.6794783,0.468206602 37.1372207,0.572206186 C38.6024578,0.919134021 39.1664578,1.94635052 39.0327258,3.36119588 C38.9681333,4.060132 38.5695662,4.68469815 37.9628702,5.03769072 C37.8717774,5.10164948 37.7787464,5.15591753 37.6469526,5.23538144 Z M33.0477361,8.92560825 C33.0477361,9.10004124 33.0787464,9.16787629 33.2725609,9.16206186 C33.7338392,9.1465567 34.1951176,9.16206186 34.6563959,9.16206186 C35.1173615,9.18232824 35.5791882,9.16937378 36.0382928,9.12329897 C36.497633,9.05158763 36.8988289,8.88103093 37.1120248,8.43138144 C37.571365,7.46230928 37.0170557,6.41764948 35.9491382,6.29942268 C35.0304578,6.20251546 34.1059629,6.28197938 33.1853444,6.26065979 C33.0361073,6.26065979 33.0477361,6.344 33.0477361,6.44090722 C33.0477361,6.86342268 33.0477361,7.284 33.0477361,7.70651546 C33.0477361,8.11352577 33.0477361,8.51859794 33.0477361,8.92560825 Z M33.2008495,2.2254433 C33.0981279,2.2254433 33.045798,2.2428866 33.045798,2.36305155 C33.045798,3.09760825 33.045798,3.83216495 33.045798,4.56478351 C33.045798,4.64618557 33.0613031,4.69657732 33.1601485,4.69463918 C34.026499,4.67525773 34.9044784,4.75084536 35.7592001,4.65393814 C36.4317361,4.57835052 36.805798,4.11901031 36.805798,3.43678351 C36.805798,2.7545567 36.4608083,2.3785567 35.7747052,2.27389691 C35.3349337,2.22961191 34.8927849,2.21342784 34.4509526,2.2254433 C33.9819217,2.2254433 33.5923547,2.2254433 33.2008495,2.2254433 Z" id="Shape"></path>
                <path d="M12.3212207,5.67146392 C12.3212207,4.00078351 12.3212207,2.32816495 12.3212207,0.657484536 C12.3212207,0.475298969 12.365798,0.421030928 12.5518599,0.424907216 C13.1759423,0.436536082 13.8006708,0.436536082 14.4260454,0.424907216 C14.608231,0.424907216 14.6411794,0.479175258 14.6411794,0.647793814 C14.6411794,4.01499656 14.6411794,7.38155326 14.6411794,10.7474639 C14.6411794,10.9122062 14.5966021,10.9567835 14.433798,10.9548454 C13.8019629,10.9548454 13.1681897,10.9432165 12.5363547,10.9548454 C12.3541691,10.9548454 12.3212207,10.9025155 12.3212207,10.7319588 C12.3309114,9.0457732 12.3212207,7.35958763 12.3212207,5.67146392 Z" id="Shape"></path>
            </g>
            <g id="Group" transform="translate(4.000000, 14.400000)">
                <path d="M26.9942104,12.353732 C26.5658805,12.0126186 26.5775093,11.8420619 27.0601073,11.5319588 C27.5427052,11.2218557 28.0291794,10.9291959 28.5001485,10.6094021 C29.044345,10.2532906 29.5213519,9.80384117 29.9091794,9.2817732 C30.0099629,9.1422268 30.0041485,9.06082474 29.8723547,8.95616495 C29.4847258,8.64606186 29.1067877,8.30882474 28.7094681,8.01810309 C28.2638762,7.72757014 28.0483616,7.18878345 28.170664,6.67109278 C28.4691382,4.86668041 29.4168908,3.72317526 31.4112413,3.28903093 C31.8341204,3.23436899 32.2438615,3.45921736 32.4248908,3.84527835 C32.487144,3.96003395 32.4567391,4.10301894 32.3531794,4.18251546 C32.2784673,4.25213419 32.1880384,4.30266799 32.0895918,4.32981443 C31.1399011,4.5643299 30.4111588,5.13995876 29.7773856,5.84931959 C29.4196999,6.20876977 29.2249647,6.69911029 29.2385815,7.20602062 C29.2337914,7.44057704 29.3512287,7.66077201 29.5486846,7.78746392 C29.8452207,7.98127835 30.1475712,8.15571134 30.4460454,8.33983505 C30.7193028,8.49288835 30.9730955,8.67835228 31.2019217,8.89220619 C31.608932,9.30115464 31.6321897,9.71010309 31.273633,10.165567 C31.0398194,10.4513721 30.7460429,10.682291 30.413097,10.8419794 C29.5021691,11.3051959 28.5582928,11.7044536 27.6667464,12.1986804 C27.5411222,12.2589121 27.411626,12.3107106 27.2791176,12.353732 L26.9942104,12.353732 Z" id="Shape"></path>
                <path d="M-0.000263861314,9.19261856 C0.0869526335,7.75839175 0.641261912,6.58193814 1.4320248,5.51014433 C2.57042491,4.00545413 3.97165685,2.71913109 5.5680248,1.71331959 C5.95679928,1.44882181 6.39531009,1.26616393 6.85689078,1.17645361 C7.75037531,1.01752577 8.3880248,1.49818557 8.45392171,2.40136082 C8.49379723,2.93659192 8.35099791,3.46952718 8.04884954,3.9131134 C7.84554219,4.24237605 7.45964096,4.41140079 7.07977738,4.33756701 C6.94350798,4.33369233 6.81681133,4.26659203 6.73703626,4.15604657 C6.65726118,4.04550112 6.63350363,3.90411487 6.67276707,3.77356701 C6.71088125,3.61420936 6.75746279,3.45699663 6.81231346,3.30259794 C6.8611736,3.17056137 6.88484032,3.03053322 6.88208665,2.8897732 C6.8665815,2.67463918 6.75223098,2.58936082 6.53515882,2.632 C6.39616241,2.66230631 6.26446434,2.71959496 6.14752995,2.80061856 C4.11477106,4.08772496 2.59611872,6.04517527 1.85454026,8.33402062 C1.68211276,8.87105472 1.61627458,9.43660468 1.66072583,9.9988866 C1.71693201,10.8187216 2.20534439,11.2063505 3.00773614,11.0202887 C3.93817529,10.7807989 4.83767701,10.4341363 5.68818975,9.98725773 C6.34134439,9.66552577 6.94023098,9.25463918 7.55656088,8.8708866 C7.66749417,8.80041179 7.78199757,8.7357206 7.89961243,8.67707216 C8.01513989,8.60139696 8.16583939,8.60683457 8.27561243,8.69063918 C8.38598361,8.78654286 8.42996265,8.93819474 8.3880248,9.07826804 C8.3236658,9.35727233 8.13515797,9.59147902 7.8763547,9.71397938 C6.87433408,10.2954227 5.91882892,10.9408247 4.86060212,11.4156701 C4.40255938,11.6524917 3.9131019,11.8228229 3.40699387,11.9215258 C2.54673213,12.0449802 1.67123069,11.8454377 0.94942686,11.3614021 C0.367983561,10.9737732 0.116024798,10.3923299 0.030746448,9.71785567 C0.00748871601,9.50853608 0.00555057168,9.30309278 -0.000263861314,9.19261856 Z" id="Shape"></path>
                <path d="M22.0713238,11.2993814 C21.9841073,11.7025155 21.7747877,11.7625979 21.4627464,11.4931959 C21.1984367,11.2510522 21.0562501,10.9034059 21.0751176,10.5454433 C21.0599218,9.43427659 21.2470957,8.32962223 21.6274887,7.28548454 C22.3436992,5.37047984 23.2088196,3.51452113 24.2149114,1.73463918 C24.2943753,1.59121649 24.3874062,1.45554639 24.4804372,1.31987629 C24.5292425,1.21712976 24.6175846,1.13853352 24.7253123,1.10201566 C24.83304,1.06549779 24.9509656,1.07417279 25.0521897,1.12606186 C25.2906285,1.1934523 25.490158,1.35723232 25.6027305,1.57796275 C25.7153031,1.79869319 25.7307175,2.05637192 25.6452619,2.28894845 C25.5216329,2.61009541 25.3511686,2.91118363 25.1394062,3.18243299 C24.2857426,4.3354457 23.6198371,5.61623461 23.1663753,6.97731959 C23.1450557,7.04321649 23.1237361,7.11105155 23.1062928,7.17113402 C23.1062928,7.18470103 23.1062928,7.20020619 23.1062928,7.2137732 C23.1528083,7.23509278 23.1780042,7.20214433 23.2070763,7.1788866 L25.4921485,5.24074227 C25.8230158,4.95339683 26.2068581,4.73349403 26.6220867,4.59340206 C27.1027464,4.43447423 27.4535506,4.78721649 27.606664,5.06437113 C27.6592639,5.13280491 27.6714824,5.22405538 27.6387393,5.30391665 C27.6059962,5.38377792 27.533237,5.44018755 27.4477361,5.452 C26.3391176,5.78342268 25.5309114,6.58969072 24.7556537,7.36494845 C24.0007125,8.15310213 23.4527034,9.1159467 23.1605609,10.1675052 C23.1411794,10.2314639 23.0907877,10.3109278 23.1392413,10.3613196 C23.1876949,10.4117113 23.269097,10.3613196 23.3330557,10.3361237 C24.3454184,10.092103 25.2984531,9.64722162 26.1356124,9.02787629 C26.2061479,8.97900279 26.2814783,8.9374412 26.3604372,8.90383505 C26.5042984,8.82467453 26.6844885,8.86352287 26.7829526,8.99492784 C26.8955924,9.11229598 26.9109377,9.29240174 26.8197774,9.42713402 C26.7372887,9.56986008 26.6232639,9.69184011 26.4864166,9.78375258 C25.8942123,10.2034849 25.2802579,10.5916542 24.6471176,10.9466392 C24.3852919,11.0883789 24.0968748,11.1741781 23.8001485,11.1985979 C23.3905476,11.2590849 22.977413,11.1141254 22.6954062,10.8109691 C22.5541916,10.6426668 22.3934928,10.491727 22.2166846,10.3613196 C22.1662928,10.6985567 22.1352825,11.0028454 22.0713238,11.2993814 Z" id="Shape"></path>
                <path d="M8.94233408,9.84383505 C9.01211657,9.07106263 9.23689196,8.32027329 9.60324129,7.63628866 C10.6924784,5.54696907 11.7022516,3.41307216 13.0124372,1.44585567 C13.2647802,1.01270434 13.5968886,0.631272854 13.9912001,0.321731959 C14.3788289,0.0542680412 14.7180042,0.0484536082 15.0571794,0.281030928 C15.2271849,0.377145072 15.3032838,0.581712025 15.2374269,0.76556701 C15.1807482,0.944296261 15.0963825,1.11302778 14.9874062,1.26560825 C13.9912878,2.73055599 13.0763974,4.24911881 12.2468702,5.81443299 C11.6688366,6.94563491 11.1594741,8.11063165 10.7215506,9.30309278 C10.6710013,9.44212512 10.6365363,9.58648785 10.6188289,9.73336082 C10.5916949,9.9465567 10.6982928,10.0221443 10.8979217,9.93880412 C11.0526309,9.86236096 11.1903862,9.75558414 11.3029939,9.62482474 C11.4556616,9.45651989 11.6288663,9.30805878 11.8185403,9.18292784 C11.9561485,9.09958763 12.1015093,9.02787629 12.2526846,9.14028866 C12.3789706,9.24567438 12.4101666,9.42710386 12.3263341,9.56861856 C12.090523,10.2352807 11.6729519,10.8226999 11.1208083,11.2644948 C10.6711588,11.6056082 10.1517361,11.7412784 9.62649903,11.4699381 C9.10126191,11.1985979 8.91326191,10.7082474 8.94233408,9.84383505 Z" id="Shape"></path>
                <path d="M20.6855506,8.23905155 C20.6241644,8.41524882 20.5241739,8.57549858 20.3928908,8.70808247 C19.845042,9.26497595 19.2939629,9.81799313 18.7396537,10.367134 C18.5884546,10.5145775 18.4151657,10.6375145 18.2260454,10.7315052 C17.7398211,11.0167704 17.1190179,10.9122141 16.7530557,10.4834227 C16.2690953,9.96358199 16.0757899,9.23686989 16.2375093,8.54527835 C16.5270024,7.05805523 17.1944678,5.67039485 18.1756537,4.51587629 C18.5632825,4.05265979 19.0516949,3.77356701 19.6622104,3.96738144 C20.4180867,4.20771134 20.8619217,4.77946392 21.0828702,5.51789691 C21.1431991,5.64333385 21.1131539,5.79355981 21.0092207,5.88614433 C20.8754887,5.9811134 20.7514475,5.88614433 20.6448495,5.8105567 C20.4956124,5.71171134 20.3638186,5.5876701 20.2165196,5.48494845 C20.1116398,5.38699252 19.9716895,5.33546958 19.8283297,5.34203568 C19.6849699,5.34860177 19.5503154,5.41270203 19.4548289,5.51983505 C18.8816999,5.99451066 18.415395,6.58498738 18.086499,7.25253608 C17.8061476,7.79278381 17.5858231,8.36211789 17.4294681,8.95035052 C17.3887671,9.13059794 17.3577568,9.31859794 17.5205609,9.45039175 C17.683365,9.58218557 17.8461691,9.51047423 18.0089733,9.45039175 C18.7475091,9.19625488 19.458009,8.86698299 20.1293031,8.46775258 C20.2988004,8.35743286 20.4874737,8.27985989 20.6855506,8.23905155 Z" id="Shape"></path>
                <path d="M14.8517361,5.69426804 C15.3789114,5.69426804 15.8498805,6.2214433 15.7529733,6.67496907 C15.600259,7.25617764 15.3939309,7.82195804 15.1366434,8.36503093 C14.7490145,9.29534021 14.2896743,10.1907629 13.8477774,11.0958763 C13.8103967,11.2009616 13.7010939,11.2622374 13.5919423,11.239299 C13.4033651,11.2262059 13.2300841,11.1308555 13.1181038,10.9785623 C13.0061235,10.8262691 12.9667728,10.6324404 13.010499,10.4485361 C13.2973444,8.98717526 13.8187052,7.59752577 14.3555712,6.21562887 C14.4486021,5.95591753 14.5823341,5.7097732 14.8517361,5.69426804 Z" id="Shape"></path>
                <path d="M17.3907052,3.75030928 C17.036741,3.6679377 16.7195063,3.47187847 16.48753,3.19212371 C16.232813,2.85716116 16.0362562,2.48173765 15.9060867,2.08156701 C15.8615093,1.96915464 15.9060867,1.92263918 16.0068702,1.90325773 C16.2720203,1.84554216 16.548377,1.92575123 16.7414269,2.11645361 C17.1852619,2.55641237 17.334499,3.11653608 17.3907052,3.75030928 Z" id="Shape"></path>
            </g>
        </g>
    </g>
</svg>