<?xml version="1.0" encoding="UTF-8" standalone="no"?>
<svg width="34px" height="34px" viewBox="0 0 34 34" version="1.1" xmlns="http://www.w3.org/2000/svg" xmlns:xlink="http://www.w3.org/1999/xlink">
    <!-- Generator: Sketch 50.2 (55047) - http://www.bohemiancoding.com/sketch -->
    <title>eps</title>
    <desc>Created with Sketch.</desc>
    <defs></defs>
    <g id="Page-1" stroke="none" stroke-width="1" fill="none" fill-rule="evenodd">
        <g id="deposit" transform="translate(-102.000000, -1597.000000)">
            <g id="eps" transform="translate(103.000000, 1598.000000)">
                <rect id="Rectangle-6-Copy-26" stroke="#D0D5DF" fill="#FFFFFF" x="0" y="0" width="32" height="32" rx="2"></rect>
                <g id="eps-copy" transform="translate(8.000000, 3.000000)" fill="#C90A72" fill-rule="nonzero">
                    <path d="M5.03636364,17.4727273 C7.70909091,17.4727273 10.2181818,17.4545455 12.7272727,17.4909091 C13.3636364,17.4909091 13.5090909,17.3272727 13.5454545,16.6909091 C13.7636364,12.2363636 9.87272727,9.54545455 6.27272727,10.4727273 C3.41818182,11.2181818 1.65454545,13.8363636 1.98181818,16.8 C2.29090909,19.6363636 4.67272727,21.8909091 7.54545455,21.9636364 C9.90909091,22.0181818 12.2727273,22 14.6363636,21.9818182 C15.3636364,21.9818182 15.4181818,22.2181818 15.0727273,22.7636364 C14.6363636,23.4363636 14.0181818,23.8363636 13.1818182,23.8363636 C9.54545455,23.8363636 5.90909091,23.8545455 2.27272727,23.8363636 C1.03636364,23.8363636 0.0545454545,22.9090909 0.0363636364,21.6727273 C-8.32667268e-17,17.9818182 -8.32667268e-17,14.2727273 0.0363636364,10.5818182 C0.0545454545,9.41818182 0.963636364,8.50909091 2.14545455,8.50909091 C5.83636364,8.47272727 9.54545455,8.47272727 13.2363636,8.50909091 C14.4909091,8.52727273 15.3636364,9.47272727 15.3818182,10.7636364 C15.4181818,13.3454545 15.3818182,15.9090909 15.4,18.4909091 C15.4,19 15.2,19.0909091 14.7454545,19.0909091 C12.3818182,19.0727273 10.0181818,19.1090909 7.65454545,19.0727273 C6.6,19.0363636 5.69090909,18.6363636 5.03636364,17.4727273 Z" id="Shape"></path>
                    <path d="M12.6181818,5.4 C12.6181818,5.78181818 12.5818182,6.6 12.5818182,6.6 L10.2545455,6.61818182 C10.2545455,6.61818182 10.1818182,5.25454545 10.1636364,4.85454545 C10.0545455,3.52727273 9.01818182,2.54545455 7.70909091,2.54545455 C6.4,2.54545455 5.36363636,3.54545455 5.27272727,4.87272727 C5.25454545,5.09090909 5.21818182,6.61818182 5.21818182,6.61818182 L2.78181818,6.61818182 C2.78181818,6.61818182 2.78181818,5.83636364 2.78181818,5.30909091 C2.78181818,2.34545455 4.87272727,0.0727272727 7.67272727,0.0909090909 C10.2,0.109090909 12.6727273,2.05454545 12.6181818,5.4 Z" id="Shape"></path>
                    <path d="M5.14545455,14.6181818 C6.23636364,12.5272727 8.94545455,12.5090909 10.3454545,14.6181818 C8.6,14.6181818 6.90909091,14.6181818 5.14545455,14.6181818 Z" id="Shape"></path>
                </g>
            </g>
        </g>
    </g>
</svg>