<?xml version="1.0" encoding="UTF-8" standalone="no"?>
<svg width="34px" height="34px" viewBox="0 0 34 34" version="1.1" xmlns="http://www.w3.org/2000/svg" xmlns:xlink="http://www.w3.org/1999/xlink">
    <!-- Generator: Sketch 49.1 (51147) - http://www.bohemiancoding.com/sketch -->
    <title>euteller</title>
    <desc>Created with Sketch.</desc>
    <defs>
        <polygon id="path-1" points="0.00353238015 0.0835591689 17.7032801 0.0835591689 17.7032801 18.0387534 0.00353238015 18.0387534"></polygon>
    </defs>
    <g id="Page-1" stroke="none" stroke-width="1" fill="none" fill-rule="evenodd">
        <g id="euteller" transform="translate(1.000000, 1.000000)">
            <rect id="Rectangle-6-Copy-10" stroke="#D0D5DF" fill="#FFFFFF" x="0" y="0" width="32" height="32" rx="2"></rect>
            <g id="Group-5" transform="translate(6.000000, 7.000000)">
                <path d="M8.32632464,0.793812105 C3.72783852,0.793812105 0,4.49748871 0,9.06616983 C0,10.0205827 0.164676198,10.936224 0.46391926,11.7893631 C2.01867115,11.1661789 4.31808242,9.94086721 6.89655172,7.56210479 C9.05012616,5.57523487 10.7449958,3.39768293 11.9518923,1.61753839 C10.8558452,1.0899458 9.62607233,0.793812105 8.32632464,0.793812105" id="Fill-9" fill="#273870"></path>
                <path d="M8.32632464,17.3385276 C12.4760303,17.3385276 15.9155593,14.3222087 16.5476871,10.3762105 C14.3522288,11.8565447 11.5212784,13.2645167 8.32632464,13.6619241 C5.20134567,14.0506414 3.08881413,14.1133107 1.68561817,14.0554878 C3.2058873,16.0495438 5.61429773,17.3385276 8.32632464,17.3385276" id="Fill-10" fill="#273870"></path>
                <path d="M1.68561817,13.2178907 C1.68561817,13.2178907 8.36787216,13.975271 16.5818335,10.1302123 C16.6269134,9.78160343 16.6526493,9.42697832 16.6526493,9.06616983 C16.6526493,7.96018067 16.4324643,6.90566396 16.0361648,5.94139115 C14.7658537,7.1986224 12.9251472,8.76452123 10.6531539,9.98532069 C5.15845248,12.9378004 1.68561817,13.2178907 1.68561817,13.2178907" id="Fill-11" fill="#5AAE45"></path>
                <g id="Group-15" transform="translate(1.682086, 0.000000)">
                    <mask id="mask-2" fill="white">
                        <use xlink:href="#path-1"></use>
                    </mask>
                    <g id="Clip-13"></g>
                    <path d="M0.00353238015,12.2414182 C0.00353238015,12.2414182 7.32783852,11.472841 14.180656,5.5481617 C13.4713204,4.05094851 12.3241379,2.79990063 10.9022708,1.95745709 C9.84339781,3.30326107 8.49554247,4.93283198 7.00874685,6.531486 C2.91555929,10.9323803 0.00353238015,12.2414182 0.00353238015,12.2414182" id="Fill-12" fill="#166134" mask="url(#mask-2)"></path>
                    <path d="M16.1333894,9.06616983 C16.1333894,4.36813911 12.502439,0.514891599 7.87703953,0.119322493 C8.13608074,0.0972628726 8.39730866,0.0835591689 8.66206897,0.0835591689 C13.6553406,0.0835591689 17.7032801,4.10526197 17.7032801,9.06616983 C17.7032801,14.0270777 13.6553406,18.0487805 8.66206897,18.0487805 C8.39730866,18.0487805 8.13608074,18.0350768 7.87703953,18.0130172 C12.502439,17.6174481 16.1333894,13.7642005 16.1333894,9.06616983" id="Fill-14" fill="#DA2E2D" mask="url(#mask-2)"></path>
                </g>
            </g>
        </g>
    </g>
</svg>