<?xml version="1.0" encoding="UTF-8"?>
<svg width="52px" height="52px" viewBox="0 0 52 52" version="1.1" xmlns="http://www.w3.org/2000/svg" xmlns:xlink="http://www.w3.org/1999/xlink">
    <!-- Generator: Sketch 51.3 (57544) - http://www.bohemiancoding.com/sketch -->
    <title>eximbank</title>
    <desc>Created with Sketch.</desc>
    <defs></defs>
    <g id="eximbank" stroke="none" stroke-width="1" fill="none" fill-rule="evenodd">
        <g id="Group" fill-rule="nonzero">
            <rect id="Rectangle" fill="#008ED0" x="0" y="0" width="52" height="52" rx="4"></rect>
            <g id="thebank_quensotaikhoanatmeximbankvanhungcachkhacphucnhanhnhat_1523879553" transform="translate(11.000000, 11.000000)" fill="#FFFFFF">
                <g id="#008ed0ff">
                    <g id="Group-25" transform="translate(0.315302, 0.000000)">
                        <path d="M13.9678292,0.182092527 C13.9589466,0.148042705 13.9419217,0.0784626335 13.9337794,0.0436725979 C14.261694,0.046633452 14.5896085,0.0532953737 14.9182633,0.0488540925 L14.9108612,0.0977081851 C15.3831174,0.094747331 15.8561139,0.118434164 16.3283701,0.12805694 L16.2920996,0.196156584 C16.4031317,0.193935943 16.5141637,0.191715302 16.6251957,0.189494662 L16.6118719,0.24575089 C16.8146904,0.250932384 17.0175089,0.262035587 17.2210676,0.267957295 L17.1966406,0.327174377 C17.3387616,0.332355872 17.4808826,0.339017794 17.6237438,0.346419929 C17.9287117,0.426362989 18.2388612,0.49594306 18.5564128,0.501124555 L18.5179217,0.566263345 C18.6741068,0.601053381 18.8325125,0.628441281 18.9923986,0.647686833 L18.973153,0.692839858 C19.0634591,0.70172242 19.1537651,0.712085409 19.2455516,0.722448399 C19.3343772,0.751316726 19.4254235,0.777964413 19.51721,0.801651246 L19.4898221,0.855686833 C19.5512598,0.853466192 19.6748754,0.849024911 19.7363132,0.84680427 L19.7296512,0.920085409 C19.7859075,0.921565836 19.8991601,0.923046263 19.9561566,0.92452669 L19.9443132,0.994106762 C20.0464626,0.999288256 20.1493523,1.00446975 20.252242,1.01039146 L20.2463203,1.10439858 C20.2803701,1.09107473 20.3484698,1.06442705 20.3825196,1.0511032 L20.3891815,1.14214947 C20.4491388,1.14362989 20.5683132,1.14585053 20.6282705,1.14659075 L20.616427,1.25318149 C20.6430747,1.24355872 20.6971103,1.22357295 20.723758,1.21395018 C20.824427,1.26724555 20.9265765,1.32054093 21.0279858,1.37531673 C21.053153,1.36791459 21.1027473,1.35311032 21.1279146,1.34570819 L21.1367972,1.40936655 C21.3559004,1.50115302 21.5713025,1.60108185 21.7889253,1.69582918 L21.7970676,1.74098221 C21.8540641,1.74320285 21.9673167,1.74764413 22.0243132,1.74912456 C22.0228327,1.78169395 22.0198719,1.84609253 22.0176512,1.87866192 C22.0768683,1.88162278 22.1938221,1.88680427 22.2522989,1.88902491 L22.2308327,1.94602135 C22.3825765,2.01486121 22.5335801,2.08444128 22.6882847,2.14735943 C22.6897651,2.16512456 22.692726,2.19991459 22.6942064,2.21767972 C22.8474306,2.27911744 22.9932527,2.3590605 23.1257509,2.45972954 C23.1464769,2.46195018 23.188669,2.46565125 23.209395,2.46787189 L23.2101352,2.56854093 C23.2471459,2.55817794 23.3211673,2.53745196 23.3581779,2.52708897 L23.3463345,2.60037011 C23.3766833,2.62553737 23.4373808,2.67735231 23.4677295,2.70325979 C23.4928968,2.69955872 23.5432313,2.6928968 23.5683986,2.68993594 L23.5787616,2.7861637 C23.6135516,2.78246263 23.6838719,2.77432028 23.7194021,2.77061922 C23.722363,2.80985053 23.7297651,2.88979359 23.732726,2.92902491 C23.7682562,2.92458363 23.8385765,2.91422064 23.8733665,2.90977936 L23.8770676,2.9667758 C24.1094947,3.11925979 24.3234164,3.29913167 24.5447402,3.46716014 C24.6957438,3.61520285 24.8541495,3.75732384 25.0384626,3.86391459 C25.0488256,3.89944484 25.0695516,3.97050534 25.0799146,4.00603559 C25.1213665,4.02232028 25.2042705,4.05488968 25.2457224,4.07117438 C25.3182633,4.15481851 25.3908043,4.23772242 25.462605,4.32210676 L25.5092384,4.32358719 L25.5010961,4.41241281 C25.5366263,4.41241281 25.608427,4.41315302 25.6439573,4.41389324 C25.6446975,4.44942349 25.6454377,4.52048399 25.6454377,4.55601423 C25.680968,4.55675445 25.7512883,4.55823488 25.7868185,4.55897509 C25.7868185,4.59450534 25.7868185,4.66482562 25.7860783,4.70035587 L25.8756441,4.69887544 L25.8660214,4.78918149 L25.9666904,4.7566121 L25.9311601,4.82323132 C25.9578078,4.85358007 26.0118434,4.91501779 26.0392313,4.94610676 L26.0577367,4.92019929 C26.1169537,5.03197153 26.2057794,5.12301779 26.3108897,5.19333808 C26.308669,5.21850534 26.3042278,5.26809964 26.3020071,5.2932669 L26.4063772,5.27772242 L26.3730676,5.37691103 L26.4722562,5.36728826 C26.4722562,5.40207829 26.4729964,5.47239858 26.4737367,5.50792883 C26.4959431,5.51162989 26.5410961,5.51903203 26.5633025,5.52347331 C26.6580498,5.67003559 26.7609395,5.81141637 26.8601281,5.95649822 L26.9171246,5.96316014 C26.9126833,5.99720996 26.9052811,6.06530961 26.9008399,6.09861922 C26.939331,6.1030605 27.015573,6.11194306 27.0533238,6.11638434 C27.0518434,6.15117438 27.0474021,6.22075445 27.0451815,6.25480427 L27.151032,6.25850534 C27.1421495,6.29255516 27.1251246,6.35991459 27.1169822,6.3932242 L27.2072883,6.39470463 L27.1998861,6.48279004 L27.293153,6.47908897 C27.2864911,6.51535943 27.272427,6.58790036 27.2657651,6.6234306 L27.3708754,6.6175089 C27.369395,6.64267616 27.3671744,6.6944911 27.365694,6.71965836 C27.4123274,6.77147331 27.4589609,6.82476868 27.5048541,6.87880427 C27.5618505,6.99205694 27.6277295,7.10160854 27.7039715,7.20449822 C27.7061922,7.22596441 27.7113737,7.2688968 27.7143345,7.29036299 L27.8098221,7.29406406 C27.8046406,7.32145196 27.7942776,7.37548754 27.7890961,7.40287544 C27.816484,7.44802847 27.8697794,7.53907473 27.8971673,7.58496797 L27.962306,7.59607117 C27.9526833,7.62938078 27.9334377,7.69674021 27.9245552,7.73004982 L28.0326263,7.72708897 C28.0267046,7.7670605 28.0163416,7.84700356 28.0104199,7.88697509 L28.0911032,7.86995018 C28.1236726,7.97283986 28.1577224,8.07498932 28.1888114,8.177879 L28.2576512,8.18454093 C28.2517295,8.21933096 28.2398861,8.28817082 28.2339644,8.32296085 L28.3361139,8.33258363 C28.3250107,8.36737367 28.3020641,8.43843416 28.2909609,8.4732242 L28.4034733,8.47396441 C28.399032,8.51097509 28.3894093,8.58573665 28.3842278,8.62348754 L28.4782349,8.62792883 C28.4745338,8.65161566 28.4663915,8.6975089 28.4626904,8.72045552 C28.5004413,8.81150178 28.5359715,8.90254804 28.5700214,8.99507473 L28.6351601,8.99655516 C28.6233167,9.03060498 28.6011103,9.09944484 28.5892669,9.13423488 L28.7025196,9.14755872 C28.6914164,9.18382918 28.6684698,9.25637011 28.6566263,9.29264057 L28.728427,9.28301779 C28.7609964,9.37702491 28.7957865,9.47029181 28.8327972,9.56355872 C28.8261352,9.58650534 28.8128114,9.633879 28.8061495,9.65756584 L28.8942349,9.65608541 C28.9001566,9.75897509 28.9075587,9.86112456 28.9149609,9.96401423 L29.0104484,9.96179359 C28.9941637,9.99732384 28.9608541,10.0676441 28.9445694,10.1031744 L29.0519004,10.0898505 C29.0526406,10.1512883 29.054121,10.2749039 29.0548612,10.3363416 L29.1037153,10.3267189 C29.1229609,10.4125836 29.144427,10.4991886 29.1681139,10.5843132 C29.2140071,10.7715872 29.2695231,10.9573808 29.3028327,11.1476157 L29.3894377,11.155758 C29.3613096,11.1912883 29.303573,11.2616085 29.2754448,11.2971388 L29.4094235,11.2756726 C29.4168256,11.4037295 29.424968,11.5317865 29.4338505,11.6598434 L29.4738221,11.6613238 C29.511573,11.9359431 29.5804128,12.2068612 29.5855943,12.4859217 L29.6995872,12.4837011 C29.6633167,12.521452 29.5900356,12.5962135 29.5537651,12.6339644 L29.702548,12.6080569 C29.7069893,12.8412242 29.7173523,13.0736512 29.7225338,13.3068185 L29.7839715,13.2764698 C29.7906335,13.5399858 29.7935943,13.8057224 29.844669,14.0662776 C29.8750178,14.8064911 29.8839004,15.5489253 29.8483701,16.289879 C29.8032171,16.6185338 29.785452,16.9508897 29.7765694,17.2832456 L29.7106904,17.2647402 C29.7121708,17.3742918 29.7143915,17.4838434 29.7173523,17.5941352 L29.6514733,17.5682278 C29.6477722,17.6999858 29.6425907,17.8317438 29.6403701,17.964242 L29.5737509,17.9346335 C29.5715302,18.0885979 29.5678292,18.2433025 29.5685694,18.3980071 C29.5537651,18.3965267 29.5248968,18.3920854 29.5100925,18.3898648 C29.4938078,18.5060783 29.4671601,18.6200712 29.4427331,18.7355445 C29.4294093,18.8473167 29.418306,18.9605694 29.4072028,19.0738221 L29.3376228,19.0382918 C29.3398434,19.1004698 29.3435445,19.2248256 29.3457651,19.2877438 L29.251758,19.288484 C29.2665623,19.3240142 29.296911,19.3935943 29.3117153,19.4291246 L29.2147473,19.4269039 C29.2058648,19.5534804 29.196242,19.6793167 29.1895801,19.8058932 L29.15479,19.7970107 C29.1207402,19.8887972 29.0859502,19.9805836 29.0504199,20.0723701 C29.0593025,20.0967972 29.0778078,20.1463915 29.0866904,20.1708185 L28.9845409,20.1611957 C28.9838007,20.2204128 28.9823203,20.3381068 28.9808399,20.3973238 L28.9075587,20.3921423 C28.9068185,20.4476584 28.9045979,20.5586904 28.9038577,20.6134662 L28.8594448,20.6171673 C28.8276157,20.7082135 28.7950463,20.7977794 28.7602562,20.8873452 C28.7646975,20.911032 28.7743203,20.9591459 28.7787616,20.983573 L28.6714306,20.9857936 C28.6758719,21.0117011 28.6840142,21.0642562 28.6877153,21.0901637 C28.6477438,21.1760285 28.6092527,21.2626335 28.5737224,21.3499786 L28.5137651,21.358121 C28.5248683,21.3914306 28.5470747,21.4573096 28.5581779,21.4906192 L28.4530676,21.5135658 C28.4597295,21.5483559 28.4723132,21.6179359 28.4789751,21.6519858 L28.3812669,21.6542064 C28.388669,21.6919573 28.4019929,21.7674591 28.409395,21.80521 L28.2968826,21.8015089 C28.3057651,21.8370391 28.32279,21.9080996 28.3309324,21.9436299 L28.2287829,21.9554733 C28.2369253,21.9902633 28.25321,22.0598434 28.2613523,22.0946335 L28.1584626,22.1020356 C28.1651246,22.1375658 28.1777082,22.2086263 28.1836299,22.2434164 L28.0829609,22.2500783 C28.0896228,22.2856085 28.1029466,22.356669 28.1096085,22.3921993 L28.003758,22.3951601 C28.0126406,22.4306904 28.0304057,22.5017509 28.038548,22.5380214 L27.9245552,22.5446833 C27.9319573,22.5779929 27.9460214,22.6460925 27.9534235,22.6801423 L27.8897651,22.6868043 C27.8660783,22.7319573 27.8187046,22.8215231 27.7942776,22.8666762 L27.8053808,22.921452 L27.7113737,22.91479 C27.7187758,22.9503203 27.7328399,23.0213808 27.740242,23.056911 L27.6321708,23.056911 C27.6388327,23.0939217 27.6521566,23.1679431 27.6595587,23.2042135 L27.5574093,23.188669 L27.5759146,23.2841566 L27.4796868,23.2871174 C27.4893096,23.320427 27.5078149,23.3870463 27.5166975,23.4203559 L27.414548,23.4247972 C27.4160285,23.4610676 27.4182491,23.535089 27.4197295,23.5713594 C27.3938221,23.5743203 27.3427473,23.580242 27.3168399,23.5832028 C27.2368968,23.7645552 27.1221637,23.9266619 26.994847,24.0769253 C26.9941068,24.0998719 26.9926263,24.1457651 26.9918861,24.1687117 L26.8926975,24.1642705 C26.8941779,24.1998007 26.8963986,24.2723416 26.8971388,24.3086121 C26.8623488,24.3108327 26.7927687,24.3167544 26.7579786,24.3197153 C26.7624199,24.356726 26.7705623,24.4314875 26.7742633,24.4684982 L26.6758149,24.453694 L26.6935801,24.5477011 L26.592911,24.5343772 C26.5973523,24.5691673 26.6062349,24.6387473 26.6106762,24.6735374 C26.58921,24.6787189 26.5455374,24.6898221 26.5240712,24.6950036 C26.4493096,24.7549609 26.3856512,24.8245409 26.3338363,24.9052242 C26.3308754,24.9259502 26.3249537,24.9666619 26.3219929,24.9866477 L26.2242847,24.9777651 C26.2279858,25.0125552 26.2353879,25.0821352 26.239089,25.1169253 C26.2146619,25.122847 26.1658078,25.13321 26.142121,25.1383915 C26.0466335,25.2538648 25.9459644,25.3641566 25.8497367,25.4781495 C25.7853381,25.5262633 25.7209395,25.573637 25.6572811,25.6210107 C25.6572811,25.6483986 25.6572811,25.7024342 25.6572811,25.7298221 L25.5521708,25.7024342 L25.5980641,25.8045836 L25.5247829,25.7853381 C25.3463915,25.9541068 25.168,26.1236157 25.0081139,26.3101495 C24.9822064,26.3071886 24.9296512,26.3012669 24.9037438,26.298306 L24.9126263,26.3464199 L24.8933808,26.4485694 L24.7904911,26.4596726 L24.7534804,26.4478292 L24.7490391,26.506306 C24.6846406,26.5603416 24.6217224,26.6158577 24.5610249,26.6728541 C24.5365979,26.6743345 24.4892242,26.6780356 24.4647972,26.679516 C24.4596157,26.7180071 24.4499929,26.7942491 24.4455516,26.8327402 C24.412242,26.8297794 24.3471032,26.8245979 24.3137936,26.8223772 L24.311573,26.9141637 C24.2767829,26.9119431 24.2057224,26.9067616 24.1709324,26.9045409 L24.1738932,26.9978078 L24.1131957,26.9711601 C24.0872883,26.9992883 24.0347331,27.0555445 24.0088256,27.0836726 L24.0325125,27.147331 L23.9274021,27.1103203 L23.9459075,27.1784199 C23.8585623,27.2191317 23.7726975,27.2620641 23.6868327,27.3027758 C23.615032,27.359032 23.545452,27.4160285 23.4780925,27.4759858 C23.3678007,27.5544484 23.2434448,27.6099644 23.12279,27.6699217 L23.1338932,27.7254377 C23.0954021,27.7239573 23.0184199,27.7217367 22.9799288,27.7209964 C22.980669,27.7520854 22.9828897,27.8150036 22.9843701,27.8468327 C22.9029466,27.8623772 22.8215231,27.8794021 22.7415801,27.896427 C22.7201139,27.9267758 22.6771815,27.9882135 22.6557153,28.0193025 C22.6261068,28.014121 22.5668897,28.003758 22.5372811,27.9978363 L22.5350605,28.1133096 C22.4995302,28.1022064 22.4277295,28.0792598 22.3921993,28.0681566 L22.4055231,28.176968 L22.3018932,28.1399573 L22.3203986,28.2065765 C22.1634733,28.2694947 22.0072883,28.3309324 21.8533238,28.399032 L21.871089,28.4760142 C21.8348185,28.4663915 21.7622776,28.4471459 21.7260071,28.4375231 L21.718605,28.5478149 C21.6830747,28.5396726 21.6120142,28.5219075 21.5772242,28.5137651 L21.5816655,28.5885267 C21.4721139,28.617395 21.3625623,28.6492242 21.2544911,28.6810534 L21.2937224,28.749153 C21.236726,28.7513737 21.1234733,28.7543345 21.0672171,28.7565552 C21.0139217,28.804669 20.9613665,28.8535231 20.9095516,28.9031174 C20.8540356,28.9045979 20.7415231,28.9068185 20.6852669,28.9082989 L20.6867473,28.9660356 C20.560911,29.0000854 20.4365552,29.0370961 20.3114591,29.0704057 L20.3321851,29.1333238 C20.2714875,29.1325836 20.1493523,29.1311032 20.0886548,29.130363 L20.0938363,29.227331 C20.058306,29.2132669 19.9865053,29.1843986 19.9502349,29.1695943 L19.9642989,29.2495374 C19.8177367,29.2887687 19.673395,29.3324413 19.5297936,29.3775943 C19.440968,29.3998007 19.3528826,29.4205267 19.2647972,29.439032 L19.2951459,29.5004698 C19.2337082,29.4997295 19.111573,29.4982491 19.0508754,29.4975089 L19.0575374,29.5855943 C19.0331103,29.5804128 18.9857367,29.5685694 18.9613096,29.5626477 C18.7281423,29.6514733 18.4838719,29.7084698 18.2366406,29.7380783 L18.262548,29.7921139 C18.1522562,29.7921139 18.0419644,29.7921139 17.933153,29.7921139 L17.9657224,29.8498505 C17.7362562,29.8942633 17.5082705,29.9475587 17.274363,29.9586619 L17.2869466,30.0082562 C17.1085552,30.017879 16.9316441,30.0297224 16.7539929,30.0408256 C16.757694,25.4181922 16.7747189,20.7948185 16.7710178,16.1729253 L16.9301637,16.1366548 L16.7732384,16.0996441 C16.7724982,16.0396868 16.7710178,15.919032 16.7702776,15.8590747 L16.8361566,15.8990463 C16.8339359,15.7924555 16.8331957,15.6851246 16.8324555,15.5785338 C19.5120285,15.5807544 22.1908612,15.5785338 24.869694,15.5800142 C25.2323986,15.5918577 25.5854804,15.4919288 25.9481851,15.4911886 C25.9474448,15.4652811 25.9452242,15.4134662 25.9437438,15.3868185 C25.9696512,15.4001423 26.0199858,15.4260498 26.0458932,15.4386335 C26.1739502,15.3845979 26.304968,15.3327829 26.4345053,15.2794875 C26.4589324,15.284669 26.5085267,15.295032 26.5329537,15.3009537 L26.5255516,15.1995445 L26.6269609,15.229153 L26.6165979,15.1188612 C26.6521281,15.1307046 26.7231886,15.1543915 26.7587189,15.1669751 L26.7520569,15.0929537 C26.7824057,15.066306 26.8416228,15.0122705 26.8712313,14.9856228 C26.897879,14.9922847 26.9511744,15.0063488 26.9785623,15.0130107 L26.9696797,14.9064199 L27.0740498,14.9338078 L27.0481423,14.8768114 C27.0762705,14.8501637 27.1332669,14.7968683 27.161395,14.7702206 L27.1665765,14.747274 C27.227274,14.6895374 27.2887117,14.6325409 27.3523701,14.5762847 C27.3479288,14.5511174 27.3397865,14.5000427 27.3360854,14.4748754 L27.4389751,14.4704342 C27.4330534,14.4349039 27.42121,14.3631032 27.4152883,14.327573 L27.5166975,14.320911 C27.5137367,14.2957438 27.5078149,14.2461495 27.5048541,14.2209822 C27.5374235,14.1306762 27.5692527,14.0403701 27.5996014,13.9493238 L27.643274,13.9693096 C27.6854662,13.2934947 27.6728826,12.6161993 27.639573,11.9403843 L27.5936797,11.963331 C27.5707331,11.8493381 27.5448256,11.7353452 27.5159573,11.6228327 C27.5018932,11.5118007 27.49079,11.4007687 27.480427,11.2897367 L27.4167687,11.3015801 C27.4175089,11.2408826 27.4197295,11.1202278 27.4204698,11.0602705 L27.3212811,11.0610107 C27.338306,11.0247402 27.3723559,10.9529395 27.3886406,10.9174093 L27.3027758,10.9307331 C27.2753879,10.7582633 27.2146904,10.5954164 27.1428897,10.4377509 C27.1391886,10.3881566 27.1310463,10.2882278 27.126605,10.2386335 L27.0325979,10.2467758 C27.0429609,10.2119858 27.0651673,10.1424057 27.0755302,10.1076157 L26.9837438,10.1076157 C26.9822633,10.0483986 26.9785623,9.92996441 26.9763416,9.87074733 L26.8867758,9.91145907 L26.9104626,9.83521708 C26.8593879,9.7375089 26.8097936,9.63980071 26.7579786,9.54357295 C26.7631601,9.51766548 26.7727829,9.46585053 26.7779644,9.43994306 L26.6698932,9.43328114 C26.6780356,9.39775089 26.6950605,9.32669039 26.7039431,9.29116014 L26.5951317,9.29041993 C26.6025338,9.25340925 26.6173381,9.1793879 26.6247402,9.14237722 L26.5507189,9.14755872 C26.5292527,9.09944484 26.4870605,9.00247687 26.4663345,8.95362278 C26.4685552,8.92919573 26.4729964,8.87886121 26.4752171,8.85369395 L26.3723274,8.84407117 C26.3782491,8.8070605 26.3908327,8.73229893 26.3967544,8.69454804 L26.2938648,8.70713167 L26.3279146,8.60054093 L26.2176228,8.62422776 C26.2250249,8.5990605 26.2405694,8.54872598 26.2479715,8.52355872 C26.1539644,8.38513879 26.0636584,8.24523843 25.9644698,8.11125979 C25.9644698,8.08831317 25.96521,8.04316014 25.96521,8.02095374 L25.903032,8.04019929 C25.8386335,7.91066192 25.771274,7.7833452 25.7068754,7.65454804 L25.6380356,7.66120996 C25.6372954,7.63826335 25.6372954,7.59311032 25.6365552,7.57090391 C25.5240427,7.43100356 25.417452,7.28592171 25.3227046,7.13417794 C25.3041993,7.13417794 25.2671886,7.13417794 25.2486833,7.13343772 C25.1820641,7.00908185 25.112484,6.88620641 25.0436441,6.76259075 L24.9651815,6.7766548 C24.9696228,6.73964413 24.9785053,6.66562278 24.9822064,6.6286121 C24.9555587,6.62787189 24.9022633,6.62565125 24.8756157,6.62417082 C24.7845694,6.50573665 24.6816797,6.39692527 24.5906335,6.27923132 C24.5736085,6.25036299 24.5410391,6.19188612 24.5247544,6.16301779 L24.4973665,6.17930249 C24.2989893,5.92318861 24.0539786,5.70852669 23.8311744,5.473879 C23.7689964,5.42724555 23.7075587,5.38135231 23.646121,5.33619929 C23.6453808,5.30733096 23.6446406,5.24959431 23.6446406,5.22072598 C23.6076299,5.22368683 23.535089,5.22812811 23.4980783,5.23108897 L23.4995587,5.17631317 C23.4329395,5.12005694 23.3670605,5.06380071 23.3011815,5.00754448 C23.2767544,5.00384342 23.2279004,4.99718149 23.2027331,4.99348043 C23.2019929,4.95795018 23.2005125,4.88688968 23.1997722,4.85061922 C23.1753452,4.85061922 23.1250107,4.85061922 23.0998434,4.85061922 C22.9865907,4.76253381 22.8725979,4.67518861 22.7571246,4.59006406 L22.7778505,4.57377936 C22.7489822,4.55601423 22.6897651,4.51974377 22.6608968,4.50197865 C22.5831744,4.44350178 22.505452,4.3842847 22.42921,4.32506762 C22.4033025,4.32802847 22.3514875,4.33469039 22.3255801,4.33765125 C22.321879,4.29767972 22.3152171,4.21699644 22.311516,4.17702491 C22.2759858,4.18368683 22.2041851,4.19775089 22.1679146,4.20441281 L22.1679146,4.12891103 C22.0857509,4.09782206 22.0035872,4.06599288 21.9229039,4.0341637 L21.951032,3.99863345 C21.8414804,3.9631032 21.7445125,3.90536655 21.6697509,3.81802135 C21.6468043,3.81802135 21.600911,3.81654093 21.5779644,3.81654093 L21.5742633,3.75288256 C21.4758149,3.71957295 21.3781068,3.68478292 21.2803986,3.65221352 L21.2900214,3.61076157 C21.2433879,3.58707473 21.150121,3.53970107 21.1034875,3.51601423 L21.0376085,3.52711744 L21.063516,3.46864057 C20.8377509,3.3827758 20.616427,3.28654804 20.3988043,3.18291815 L20.3869609,3.12148043 C20.3521708,3.13406406 20.2825907,3.15775089 20.2478007,3.17033452 L20.2603843,3.08965125 C20.1478719,3.05856228 20.0360996,3.02451246 19.9258078,2.99120285 L19.9650391,2.93050534 C19.912484,2.9282847 19.8081139,2.92236299 19.7562989,2.91940214 C19.6082562,2.83353737 19.4491103,2.769879 19.2788612,2.75359431 C19.2818221,2.74397153 19.2892242,2.72546619 19.2929253,2.71584342 C19.1981779,2.68919573 19.1056512,2.66180783 19.0131246,2.6329395 C18.9864769,2.63886121 18.9324413,2.65070463 18.9057936,2.65662633 L18.9272598,2.55965836 C18.8199288,2.55669751 18.7133381,2.55299644 18.6067473,2.55003559 L18.6222918,2.47675445 C18.5608541,2.47897509 18.4387189,2.48267616 18.3772811,2.4848968 L18.4091103,2.41087544 C18.2810534,2.40569395 18.1529964,2.39903203 18.0264199,2.39385053 L18.0271601,2.35239858 C17.9139075,2.32945196 17.8021352,2.30354448 17.6918434,2.27393594 C17.5741495,2.26505338 17.4571957,2.2554306 17.3409822,2.24802847 L17.3772527,2.18362989 C17.2447544,2.18140925 17.1122562,2.17770819 16.9804982,2.17622776 L16.9953025,2.12441281 C16.8531815,2.11627046 16.7125409,2.10664769 16.5719004,2.09332384 C16.3431744,2.02226335 16.1011246,2.02818505 15.8649964,2.02078292 C15.8649964,11.3815231 15.8642562,20.7422633 15.8649964,30.1030036 C14.9937651,30.1281708 14.1143915,30.1429751 13.2476014,30.0430463 C13.0544057,30.0238007 12.8597295,30.0067758 12.6724555,29.9549609 C12.5273737,29.9453381 12.3822918,29.9364555 12.2379502,29.931274 L12.261637,29.8705765 C12.1535658,29.8683559 12.0454947,29.8668754 11.9381637,29.8661352 L11.9707331,29.7972954 C11.8374947,29.7943345 11.7042562,29.7898932 11.571758,29.7876726 L11.6006263,29.7351174 C11.4148327,29.7055089 11.232,29.6647972 11.0469466,29.6359288 L11.0735943,29.5826335 C10.9462776,29.5767117 10.8182206,29.5685694 10.6923843,29.5626477 L10.704968,29.4952883 C10.6435302,29.4960285 10.5199146,29.4975089 10.4584769,29.4982491 L10.4940071,29.418306 C10.441452,29.4175658 10.3378221,29.4168256 10.2852669,29.4160854 C10.1905196,29.3716726 10.0957722,29.3287402 10.0017651,29.2850676 C9.91145907,29.2761851 9.82189324,29.2680427 9.7323274,29.2599004 L9.75675445,29.1658932 L9.65460498,29.2214093 L9.66940925,29.1288826 C9.60723132,29.130363 9.48361566,29.1325836 9.42143772,29.1333238 L9.44808541,29.0674448 C9.32002847,29.0341352 9.19271174,28.9971246 9.06539502,28.9645552 L9.07279715,28.9090391 C8.96842705,28.9031174 8.86553737,28.8971957 8.76264769,28.8920142 C8.76708897,28.8609253 8.77671174,28.7980071 8.78189324,28.7661779 C8.72119573,28.7632171 8.59980071,28.7572954 8.5391032,28.7543345 L8.55168683,28.7054804 C8.385879,28.6492242 8.22525267,28.5803843 8.06980783,28.5019217 C7.97135943,28.4478861 7.8766121,28.3871886 7.78482562,28.3250107 C7.66935231,28.2857794 7.55461922,28.2458078 7.43914591,28.2095374 C7.43914591,28.180669 7.43840569,28.1236726 7.43840569,28.0955445 C7.39917438,28.0985053 7.32219217,28.1036868 7.28296085,28.1066477 L7.29036299,28.0015374 C7.26297509,28.0052384 7.20967972,28.0133808 7.18229181,28.0178221 C7.137879,27.9941352 7.04831317,27.9460214 7.00316014,27.9223345 L7.00464057,27.8868043 C6.92247687,27.8497936 6.84105338,27.8135231 6.75962989,27.7772527 L6.78701779,27.7350605 C6.66044128,27.6699217 6.53312456,27.6062633 6.4043274,27.5477865 L6.40358719,27.4833879 C6.36953737,27.487089 6.30069751,27.4952313 6.26664769,27.4996726 C6.26220641,27.4597011 6.25480427,27.3804982 6.2511032,27.3405267 C6.21631317,27.344968 6.1467331,27.3538505 6.11194306,27.3582918 L6.1030605,27.3057367 C6.03348043,27.2509609 5.96464057,27.1947046 5.89728114,27.1384484 C5.87433452,27.1399288 5.82992171,27.1436299 5.80697509,27.1458505 L5.81881851,27.0799715 C5.68780071,26.9896655 5.55974377,26.8956584 5.42798577,26.807573 L5.44501068,26.7875872 C5.31991459,26.6958007 5.2,26.5988327 5.07490391,26.5077865 L5.07564413,26.45079 C5.03937367,26.4515302 4.96757295,26.4544911 4.9320427,26.4559715 C4.93352313,26.4189609 4.93574377,26.3449395 4.9372242,26.3079288 L4.84543772,26.3219929 L4.83285409,26.2753594 C4.74995018,26.2042989 4.6692669,26.131758 4.59080427,26.0577367 C4.36874021,25.833452 4.15111744,25.6054662 3.9194306,25.3915445 C3.90388612,25.3471317 3.87279715,25.258306 3.85725267,25.2146335 C3.8261637,25.2146335 3.76398577,25.2153737 3.73363701,25.2153737 L3.74844128,25.1154448 L3.64999288,25.136911 C3.65147331,25.1065623 3.65517438,25.046605 3.6566548,25.0162562 C3.5633879,24.939274 3.47160142,24.8608114 3.37759431,24.7860498 C3.37907473,24.7601423 3.3827758,24.7098078 3.38425623,24.6846406 L3.31393594,24.6883416 C3.27692527,24.6091388 3.2406548,24.5306762 3.20364413,24.4529537 L3.1747758,24.4670178 C3.06966548,24.3263772 2.95789324,24.1909181 2.84686121,24.0561993 C2.85278292,24.0295516 2.86388612,23.975516 2.86980783,23.9488683 L2.75951601,23.9503488 C2.76321708,23.9140783 2.769879,23.8430178 2.77358007,23.8074875 C2.74397153,23.8037865 2.68623488,23.7978648 2.65736655,23.7941637 C2.59148754,23.6638861 2.5233879,23.535089 2.45898932,23.4048114 L2.38052669,23.427758 C2.39311032,23.3907473 2.41901779,23.3174662 2.43234164,23.2804555 L2.32130961,23.2982206 L2.34943772,23.1945907 L2.28207829,23.1982918 C2.22434164,23.0472883 2.16068327,22.8970249 2.05187189,22.7756299 C2.04965125,22.7526833 2.04595018,22.7053096 2.04372954,22.682363 L1.94454093,22.6875445 C1.94972242,22.6608968 1.95860498,22.6068612 1.96378648,22.5802135 C1.88532384,22.4151459 1.79649822,22.2552598 1.68842705,22.1086975 C1.6802847,22.0665053 1.664,21.9813808 1.65585765,21.9391886 L1.59590036,21.9569537 C1.56777224,21.8533238 1.53668327,21.7511744 1.50929537,21.6482847 L1.44933808,21.6519858 C1.44785765,21.5942491 1.44415658,21.4780356 1.44267616,21.4202989 L1.33756584,21.4454662 L1.40196441,21.3410961 L1.30055516,21.3633025 C1.29907473,21.3033452 1.29685409,21.1819502 1.29537367,21.1219929 L1.22727402,21.1427189 C1.19618505,21.0117011 1.16287544,20.8821637 1.1332669,20.7511459 L1.07108897,20.7777936 C1.07108897,20.7163559 1.0725694,20.5942206 1.07330961,20.5335231 L0.973380783,20.5394448 C0.985224199,20.5039146 1.00817082,20.4328541 1.01927402,20.3965836 L0.921565836,20.4099075 C0.921565836,20.3499502 0.921565836,20.2307758 0.921565836,20.1715587 L0.860128114,20.1708185 C0.826818505,20.0175943 0.790548043,19.8651103 0.760939502,19.7111459 L0.698761566,19.7474164 C0.700241993,19.6844982 0.702462633,19.5579217 0.70394306,19.4942633 L0.604754448,19.4979644 C0.620298932,19.4624342 0.6513879,19.3898932 0.666932384,19.3536228 L0.577366548,19.3662064 C0.534434164,19.0323701 0.419701068,18.7125979 0.386391459,18.3772811 L0.324953737,18.4157722 C0.326434164,18.3535943 0.328654804,18.2284982 0.330135231,18.1663203 L0.243530249,18.1715018 C0.249451957,18.1455943 0.261295374,18.0945196 0.267217082,18.0686121 C0.165807829,17.7399573 0.127316726,17.395758 0.0940071174,17.0545196 L0.0399715302,17.076726 C0.00666192171,15.8575943 0.0199857651,14.6384626 0.0444128114,13.419331 L0.100669039,13.4511601 C0.104370107,13.0677295 0.184313167,12.6909609 0.196156584,12.3082705 L0.257594306,12.3415801 C0.259074733,12.2098221 0.262775801,12.0780641 0.264996441,11.9470463 L0.330135231,11.9611103 C0.330135231,11.8522989 0.330135231,11.7442278 0.330875445,11.6354164 L0.40341637,11.6746477 C0.407857651,11.5451103 0.412298932,11.415573 0.417480427,11.2860356 L0.464854093,11.2897367 C0.503345196,11.0639715 0.551459075,10.8396868 0.575886121,10.6117011 L0.668412811,10.6472313 L0.5966121,10.5361993 L0.693580071,10.5576655 C0.696540925,10.4495943 0.700241993,10.3422633 0.704683274,10.2349324 L0.778704626,10.2652811 C0.78166548,10.2156868 0.788327402,10.115758 0.79202847,10.0661637 C0.81941637,9.97955872 0.845323843,9.89221352 0.871231317,9.80486833 L0.923046263,9.81301068 C0.923046263,9.75231317 0.92230605,9.63091815 0.92230605,9.57022064 L1.02963701,9.58354448 C1.01483274,9.54727402 0.985224199,9.4747331 0.970419929,9.43846263 L1.07108897,9.4473452 C1.07182918,9.38590747 1.07330961,9.26303203 1.07404982,9.20159431 L1.12882562,9.22380071 C1.17545907,9.07797865 1.22357295,8.93141637 1.29611388,8.7959573 C1.2916726,8.77227046 1.28279004,8.7248968 1.27834875,8.70120996 L1.38641993,8.69528826 C1.37753737,8.65901779 1.36051246,8.58573665 1.35162989,8.54946619 L1.46636299,8.55020641 C1.45674021,8.51393594 1.43749466,8.44287544 1.4286121,8.4073452 L1.49819217,8.39772242 C1.53002135,8.29483274 1.56333096,8.19342349 1.59590036,8.09127402 L1.65363701,8.11718149 C1.66251957,8.07276868 1.6802847,7.98394306 1.68916726,7.94027046 C1.81500356,7.7833452 1.89642705,7.59829181 1.97711032,7.41619929 L2.06223488,7.43840569 C2.0474306,7.40139502 2.01930249,7.32811388 2.00523843,7.2911032 L2.08962278,7.31108897 C2.14958007,7.17785053 2.21545907,7.04757295 2.28059786,6.91655516 L2.3427758,6.92617794 C2.33907473,6.88990747 2.3316726,6.81736655 2.32797153,6.78109609 C2.35683986,6.77813523 2.4138363,6.77221352 2.44196441,6.76925267 C2.51746619,6.5849395 2.62553737,6.41691103 2.76469751,6.27330961 C2.7639573,6.24962278 2.76321708,6.2015089 2.76247687,6.17708185 L2.82317438,6.18744484 C2.91570107,6.04458363 3.01711032,5.90764413 3.11851957,5.76996441 L3.14516726,5.72703203 L3.24213523,5.73443416 C3.23325267,5.70038434 3.21622776,5.63376512 3.2073452,5.5997153 L3.30727402,5.59675445 L3.28580783,5.53975801 C3.31245552,5.51162989 3.36501068,5.45389324 3.39165836,5.42502491 L3.41904626,5.45833452 C3.43533096,5.42650534 3.46864057,5.36284698 3.48492527,5.33175801 C3.66627758,5.134121 3.85651246,4.94536655 4.04008541,4.75069039 L4.03564413,4.69221352 C4.07117438,4.69295374 4.14149466,4.69517438 4.17702491,4.69591459 C4.1762847,4.65890391 4.17406406,4.58414235 4.17332384,4.54713167 L4.27325267,4.57303915 L4.24142349,4.4938363 C4.31766548,4.44942349 4.39464769,4.40575089 4.47237011,4.36281851 C4.47459075,4.33617082 4.4775516,4.28361566 4.47977224,4.25696797 C4.50345907,4.25474733 4.55231317,4.24882562 4.576,4.24586477 C4.65298221,4.15333808 4.73440569,4.06451246 4.81434875,3.97420641 C4.82915302,3.96902491 4.85876157,3.95718149 4.87356584,3.952 C4.99792171,3.82690391 5.134121,3.71587189 5.26883986,3.601879 C5.29252669,3.59817794 5.33990036,3.58929537 5.36284698,3.58485409 C5.36580783,3.55968683 5.37172954,3.50787189 5.37469039,3.48270463 C5.50792883,3.42496797 5.62858363,3.34354448 5.72111032,3.2295516 C5.74331673,3.23029181 5.78846975,3.23029181 5.81141637,3.23029181 L5.80845552,3.13332384 C5.83214235,3.13332384 5.88025623,3.13480427 5.90394306,3.13554448 C5.96760142,3.07854804 6.03348043,3.02229181 6.10009964,2.96825623 L6.11268327,2.91125979 C6.14821352,2.91718149 6.21853381,2.92902491 6.25406406,2.93494662 C6.2562847,2.89645552 6.26146619,2.81799288 6.26442705,2.77876157 C6.29847687,2.78172242 6.36731673,2.78838434 6.40210676,2.7913452 L6.41395018,2.69437722 C6.44725979,2.69955872 6.51313879,2.71066192 6.5464484,2.71658363 L6.54792883,2.6218363 L6.6397153,2.64700356 C6.63897509,2.61739502 6.63601423,2.55817794 6.63527402,2.5285694 L6.76629181,2.58186477 L6.76851246,2.51080427 C6.86103915,2.45306762 6.9513452,2.39385053 7.04313167,2.33463345 C7.06681851,2.33685409 7.11345196,2.34055516 7.13713879,2.34203559 L7.15194306,2.23988612 C7.18747331,2.25098932 7.25779359,2.27245552 7.29332384,2.28355872 L7.27185765,2.17770819 L7.37252669,2.19177224 L7.37030605,2.09332384 C7.40435587,2.10220641 7.47393594,2.11923132 7.50798577,2.12737367 L7.51390747,2.02300356 C7.54129537,2.0252242 7.59607117,2.03040569 7.62345907,2.03262633 C7.66935231,2.00819929 7.76039858,1.95786477 7.8055516,1.93269751 L7.8166548,1.8608968 C7.85144484,1.87422064 7.92176512,1.8993879 7.95655516,1.91197153 L7.9365694,1.806121 L8.03871886,1.82092527 L8.03723843,1.72099644 C8.07202847,1.73135943 8.14012811,1.75208541 8.17417794,1.76170819 L8.18158007,1.69212811 C8.28372954,1.65881851 8.38513879,1.62328826 8.48728826,1.58849822 L8.46656228,1.51891815 C8.52577936,1.51743772 8.64421352,1.51447687 8.70417082,1.51299644 L8.67974377,1.4175089 L8.77523132,1.46340214 L8.77079004,1.40270463 C8.86109609,1.36569395 8.95288256,1.33164413 9.04614947,1.30129537 C9.05725267,1.29685409 9.08019929,1.28723132 9.09130249,1.28204982 C9.18382918,1.25170107 9.27709609,1.22209253 9.3711032,1.19470463 L9.35925979,1.11476157 C9.39553025,1.12586477 9.46733096,1.14881139 9.50360142,1.1606548 L9.51914591,1.05554448 C9.55393594,1.06516726 9.62203559,1.08441281 9.65682562,1.09403559 L9.65830605,1.00298932 C9.7160427,1.00224911 9.83299644,1.00076868 9.8907331,1.00002847 L9.88111032,0.944512456 C10.0335943,0.904540925 10.1853381,0.8593879 10.3400427,0.825338078 L10.3215374,0.749836299 C10.3467046,0.755017794 10.3977794,0.765380783 10.4229466,0.770562278 C10.6102206,0.700982206 10.8004555,0.63880427 10.9973523,0.602533808 L11.0003132,0.53147331 C11.0358434,0.547017794 11.1076441,0.577366548 11.1431744,0.592170819 L11.1254093,0.503345196 C11.3304484,0.477437722 11.5317865,0.426362989 11.7353452,0.387131673 L11.7301637,0.341978648 C11.8589609,0.33827758 11.9892384,0.333096085 12.119516,0.329395018 C12.1113737,0.312370107 12.0943488,0.279060498 12.0854662,0.262035587 C12.216484,0.259074733 12.3467616,0.253893238 12.4785196,0.250192171 L12.4651957,0.19541637 C12.6709751,0.188014235 12.8767544,0.175430605 13.0825338,0.164327402 C13.0847544,4.35319573 13.083274,8.54206406 13.0840142,12.7301922 C13.0766121,13.3305053 13.0988185,13.9315587 13.0699502,14.5311317 C10.2749039,14.5333523 7.48059786,14.5511174 4.6855516,14.5511174 L4.71886121,14.6118149 C4.576,14.6177367 4.433879,14.625879 4.29249822,14.6355018 C4.18220641,14.667331 4.06969395,14.6910178 3.95866192,14.7147046 L3.95718149,14.7568968 C3.85503203,14.7635587 3.75362278,14.7694804 3.65221352,14.7768826 L3.68848399,14.8731103 L3.58337367,14.8183345 L3.58485409,14.8819929 C3.43162989,14.944911 3.27988612,15.0130107 3.12740214,15.0781495 L3.14146619,15.1610534 C3.10519573,15.1484698 3.03339502,15.1225623 2.99786477,15.1092384 L3.01637011,15.2128683 L2.95937367,15.2232313 C2.89793594,15.2787473 2.83649822,15.3335231 2.77432028,15.3875587 L2.77358007,15.4408541 C2.74915302,15.4408541 2.69955872,15.4408541 2.67513167,15.4401139 C2.59814947,15.5622491 2.51968683,15.6851246 2.4138363,15.7843132 C2.41457651,15.8072598 2.41605694,15.8538932 2.41679715,15.8775801 L2.31020641,15.8775801 C2.31982918,15.9131103 2.33907473,15.9841708 2.34869751,16.0197011 L2.26357295,16.0167402 C2.25024911,16.0626335 2.22286121,16.1551601 2.20879715,16.2010534 C2.01930249,16.6163132 2.0089395,17.0745053 2.04002847,17.5223345 L2.10072598,17.4912456 C2.10590747,17.6725979 2.11479004,17.8539502 2.11997153,18.0353025 L2.1784484,17.9982918 C2.20657651,18.2499644 2.25024911,18.501637 2.3316726,18.7422064 C2.32575089,18.7666335 2.31316726,18.8147473 2.30724555,18.8391744 L2.40199288,18.831032 C2.40125267,18.8924698 2.40051246,19.014605 2.39977224,19.0760427 L2.47675445,19.0523559 C2.47897509,19.1574662 2.48119573,19.2640569 2.48415658,19.3699075 L2.54041281,19.3499217 C2.57520285,19.5031459 2.61295374,19.6556299 2.64552313,19.8095943 L2.70770107,19.784427 C2.70696085,19.8443843 2.70622064,19.9657794 2.70548043,20.0264769 L2.80762989,20.0257367 L2.75803559,20.1582349 C2.77728114,20.1582349 2.81651246,20.1582349 2.83649822,20.1582349 C2.89793594,20.3617936 2.97121708,20.560911 3.03043416,20.76521 C3.05708185,20.7629893 3.1088968,20.7592883 3.13554448,20.7570676 C3.13850534,20.8162847 3.14442705,20.9354591 3.1473879,20.9954164 L3.20660498,20.9798719 C3.23769395,21.0820214 3.2732242,21.1834306 3.30653381,21.2855801 L3.3664911,21.2707758 C3.36945196,21.3277722 3.37537367,21.4410249 3.37759431,21.4980214 C3.40276157,21.4987616 3.45235587,21.500242 3.47678292,21.5009822 C3.53081851,21.6201566 3.58855516,21.7378505 3.65221352,21.8533238 C3.65221352,21.8762705 3.65147331,21.9229039 3.65147331,21.9458505 L3.75954448,21.9502918 C3.74992171,21.9865623 3.72993594,22.058363 3.71957295,22.0946335 L3.79359431,22.0761281 C3.81209964,22.1072171 3.84985053,22.1686548 3.86909609,22.1997438 C3.94015658,22.3122562 4.00899644,22.4269893 4.09190036,22.5313594 C4.09264057,22.5520854 4.094121,22.5935374 4.09486121,22.6142633 L4.14815658,22.6201851 C4.24512456,22.7660071 4.35097509,22.9051673 4.46348754,23.0406263 C4.46496797,23.063573 4.46792883,23.1102064 4.47014947,23.1338932 L4.56119573,23.1213096 L4.54195018,23.2138363 L4.63669751,23.2071744 C4.63447687,23.2434448 4.6307758,23.316726 4.62929537,23.3537367 C4.66408541,23.3544769 4.73440569,23.3566975 4.76919573,23.3574377 C4.77067616,23.3840854 4.77363701,23.4373808 4.77437722,23.4640285 C4.98385765,23.6994164 5.20592171,23.9237011 5.40281851,24.1701922 C5.42872598,24.173153 5.48128114,24.1783345 5.50792883,24.1812954 C5.50940925,24.214605 5.51311032,24.2819644 5.51459075,24.3160142 C5.54864057,24.3174947 5.61525979,24.3219359 5.64930961,24.3234164 C5.65227046,24.3493238 5.65893238,24.3996584 5.66189324,24.4248256 C5.81955872,24.5402989 5.95723843,24.6801993 6.07789324,24.8334235 C6.10083986,24.8326833 6.1467331,24.8312028 6.16967972,24.8304626 L6.17856228,24.9192883 C6.21335231,24.918548 6.28219217,24.9170676 6.31698221,24.9163274 C6.31698221,24.9525979 6.31846263,25.0266192 6.31920285,25.0636299 L6.41617082,25.0429039 L6.39840569,25.1376512 C6.42357295,25.1398719 6.47464769,25.1443132 6.49981495,25.1465338 C6.56125267,25.2013096 6.62491103,25.2553452 6.68930961,25.3086406 L6.68930961,25.3693381 L6.78701779,25.3375089 L6.76703203,25.4448399 C6.8040427,25.4389181 6.87732384,25.4285552 6.91359431,25.4233737 C6.91655516,25.4589039 6.92247687,25.5292242 6.92543772,25.5647544 C6.96096797,25.563274 7.0335089,25.559573 7.06977936,25.5580925 L7.06829893,25.6572811 C7.10604982,25.6543203 7.1815516,25.6491388 7.21856228,25.6469181 C7.22078292,25.6750463 7.22374377,25.7313025 7.2252242,25.7594306 C7.26741637,25.7831174 7.35032028,25.8297509 7.39177224,25.8526975 C7.47985765,25.892669 7.56794306,25.9326406 7.65824911,25.9718719 C7.66120996,26.0022206 7.66713167,26.0643986 7.67009253,26.0954875 C7.70636299,26.0917865 7.77742349,26.0851246 7.81295374,26.0814235 L7.80407117,26.1399004 C7.90251957,26.1894947 8.00096797,26.24279 8.08313167,26.3197722 C8.10533808,26.3108897 8.14975089,26.2931246 8.17269751,26.284242 L8.17861922,26.4011957 C8.21562989,26.3960142 8.29039146,26.3856512 8.32740214,26.3804698 L8.31481851,26.4803986 L8.41622776,26.4515302 L8.40142349,26.523331 C8.5006121,26.5544199 8.59980071,26.5884698 8.69972954,26.6210391 L8.69898932,26.7061637 C8.73451957,26.6965409 8.80632028,26.6780356 8.84185053,26.6684128 L8.8455516,26.7757438 C8.88256228,26.7683416 8.95658363,26.7542776 8.99359431,26.7468754 L8.99063345,26.8586477 C9.0261637,26.8497651 9.09796441,26.8312598 9.13423488,26.8223772 L9.14163701,26.8941779 C9.24082562,26.9260071 9.34001423,26.9607972 9.44068327,26.9933665 L9.43624199,27.0792313 C9.47251246,27.0696085 9.54505338,27.0496228 9.58058363,27.04 L9.58872598,27.1495516 C9.62573665,27.1384484 9.69827758,27.1169822 9.73454804,27.1066192 L9.71678292,27.1902633 C9.84483986,27.2206121 9.97215658,27.2554021 10.1002135,27.2879715 L10.1105765,27.3649537 C10.1461068,27.355331 10.2186477,27.3368256 10.2549181,27.3279431 L10.2526975,27.4389751 C10.2897082,27.4293523 10.3637295,27.4115872 10.4007402,27.4019644 L10.3940783,27.501153 C10.4540356,27.4996726 10.5754306,27.497452 10.6361281,27.4967117 L10.6087402,27.552968 C10.8426477,27.5988612 11.0721139,27.6677011 11.297879,27.7439431 L11.2889964,27.8187046 C11.3274875,27.8046406 11.40521,27.7772527 11.4437011,27.7631886 L11.4207544,27.8468327 C11.7338648,27.8845836 12.0321708,27.9956157 12.3452811,28.0333665 L12.3082705,28.0866619 C12.4392883,28.090363 12.5710463,28.0948043 12.7035445,28.0992456 L12.708726,28.2080569 C12.7442562,28.1777082 12.8153167,28.1162705 12.850847,28.0859217 L12.8338221,28.2206406 C13.0462633,28.2339644 13.2587046,28.2487687 13.4718861,28.2628327 C13.6073452,28.2894804 13.7442847,28.3094662 13.8827046,28.329452 C13.8982491,18.9442847 13.8901068,9.55837722 13.8864057,0.173209964 L13.9678292,0.182092527 Z" id="Shape"></path>
                    </g>
                </g>
            </g>
        </g>
    </g>
</svg>