<?xml version="1.0" encoding="UTF-8"?>
<svg width="52px" height="52px" viewBox="0 0 52 52" version="1.1" xmlns="http://www.w3.org/2000/svg" xmlns:xlink="http://www.w3.org/1999/xlink">
    <!-- Generator: Sketch 52.2 (67145) - http://www.bohemiancoding.com/sketch -->
    <title>giropay</title>
    <desc>Created with Sketch.</desc>
    <defs>
        <path d="M0,48.0059907 C0,50.2118211 1.7899577,52 3.99400932,52 L48.0059907,52 C50.2118211,52 52,50.2100423 52,48.0059907 L52,3.99400932 C52,1.78817888 50.2100423,0 48.0059907,0 L3.99400932,0 C1.78817888,0 0,1.7899577 0,3.99400932 L0,48.0059907 Z" id="path-1"></path>
    </defs>
    <g id="giropay" stroke="none" stroke-width="1" fill="none" fill-rule="evenodd">
        <g id="Group" fill="#FFFFFF" fill-rule="nonzero">
            <rect id="Rectangle" x="0" y="0" width="52" height="52" rx="4"></rect>
        </g>
        <g id="neosurf-copy">
            <mask id="mask-2" fill="white">
                <use xlink:href="#path-1"></use>
            </mask>
            <use id="Fill-1" fill="#000268" xlink:href="#path-1"></use>
            <g id="Giropay" mask="url(#mask-2)">
                <g transform="translate(8.000000, 12.000000)">
                    <path d="M5.27201906,-0.000475165853 L62.728008,-0.000475165853 C65.6402335,-0.000475165853 68,2.34603591 68,5.24013949 L68,23.968214 C68,26.8606335 65.6402335,29.2075785 62.728008,29.2075785 L5.27201906,29.2075785 C2.36104444,29.2075785 0,26.8606335 0,23.968214 L0,5.24013949 C0,2.34603591 2.36104444,-0.000475165853 5.27201906,-0.000475165853 Z" id="_92653320" fill="#000268"></path>
                    <path d="M2.28187919,23.6872905 C2.28187919,25.4754266 3.75164571,26.9256993 5.56462954,26.9256993 L35.5434562,26.9256993 L35.5434562,2.28140403 L5.56462954,2.28140403 C3.75164571,2.28140403 2.28187919,3.73165014 2.28187919,5.51981314 L2.28187919,23.6872905 Z M43.2894396,14.5128058 C43.2894396,15.6694936 42.7126344,16.4644598 41.7576668,16.4644598 C40.9140074,16.4644598 40.2107237,15.6694936 40.2107237,14.6102284 C40.2107237,13.522967 40.829246,12.7146211 41.7576668,12.7146211 C42.7421613,12.7146211 43.2894396,13.5509904 43.2894396,14.5128058 Z M37.6822661,21.1468273 L40.2107237,21.1468273 L40.2107237,17.2021168 L40.2389777,17.2021168 C40.7179378,18.0665088 41.6741783,18.3868272 42.5591756,18.3868272 C44.7368579,18.3868272 45.9030653,16.6032855 45.9030653,14.456759 C45.9030653,12.7012407 44.793366,10.7905605 42.7691417,10.7905605 C41.6176978,10.7905605 40.5497156,11.2509945 40.0425014,12.2688293 L40.0142474,12.2688293 L40.0142474,10.959102 L37.6822661,10.959102 L37.6822661,21.1468273 Z M49.3565575,15.9199822 C49.3565575,15.2237018 50.0303143,14.9598328 50.8887371,14.9598328 C51.2677932,14.9598328 51.6337654,14.9861903 51.9567201,15.0012366 C51.9567201,15.8509856 51.3525278,16.7153518 50.3962865,16.7153518 C49.8060182,16.7153518 49.3565575,16.423056 49.3565575,15.9199822 Z M54.4569512,18.2199782 C54.3452087,17.6491703 54.3169554,17.0766708 54.3169554,16.5058629 L54.3169554,13.8018824 C54.3169554,11.5859559 52.7017209,10.7905605 50.8322566,10.7905605 C49.7507838,10.7905605 48.809306,10.9440291 47.909546,11.307014 L47.9525635,13.0081787 C48.6528671,12.6171712 49.4695454,12.4637018 50.2845448,12.4637018 C51.1965216,12.4637018 51.9415499,12.7292641 51.9567201,13.7191028 C51.6337654,13.663056 51.1830318,13.6203896 50.7757493,13.6203896 C49.4278283,13.6203896 46.9963222,13.8859519 46.9963222,16.101475 C46.9963222,17.6771937 48.2886021,18.3868272 49.7360203,18.3868272 C50.7757493,18.3868272 51.4790062,17.9841318 52.0549445,17.0766708 L52.0831985,17.0766708 C52.0831985,17.4542978 52.1245089,17.8289699 52.1397058,18.2199782 L54.4569512,18.2199782 Z M55.5948777,21.1468273 C56.1151482,21.2589201 56.6346067,21.3153696 57.1683677,21.3153696 C59.4873194,21.3153696 60.034571,19.5447784 60.7513452,17.7185703 L63.4362416,10.959102 L60.9060777,10.959102 L59.4025581,15.697517 L59.374304,15.697517 L57.8003806,10.959102 L55.0754467,10.959102 L58.0398744,18.3868272 C57.8568879,19.0283241 57.3796075,19.391309 56.7606784,19.391309 C56.4081967,19.391309 56.1004122,19.3486426 55.762694,19.2378395 L55.5948777,21.1468273 Z" id="_92186184" fill="#FFFFFF"></path>
                    <path d="M8.11363288,14.5036469 C8.11363288,13.4908232 8.61058812,12.6487238 9.56067792,12.6487238 C10.7090675,12.6487238 11.1907145,13.5755251 11.1907145,14.4026423 C11.1907145,15.5438521 10.4673837,16.313621 9.56067792,16.313621 C8.79524844,16.313621 8.11363288,15.6585199 8.11363288,14.5036469 Z M13.658486,10.85244 L11.3468616,10.85244 L11.3468616,12.1925803 L11.3200441,12.1925803 C10.7796786,11.2794694 9.89979032,10.6799848 8.80886164,10.6799848 C6.51210877,10.6799848 5.47651007,12.3359223 5.47651007,14.5459842 C5.47651007,16.7423551 6.73889478,18.2819201 8.76504096,18.2819201 C9.78746315,18.2819201 10.6384293,17.8818323 11.2477117,17.0123785 L11.2762234,17.0123785 L11.2762234,17.4124384 C11.2762234,18.8664218 10.4822822,19.56518 9.00842048,19.56518 C7.94428229,19.56518 7.29117921,19.3371083 6.51210877,18.9524442 L6.38447342,20.9780636 C6.9788843,21.1924442 7.98599753,21.4491893 9.206694,21.4491893 C12.1846242,21.4491893 13.658486,20.4645998 13.658486,17.4124384 L13.658486,10.85244 Z M17.9724194,7.7579141 L15.4195479,7.7579141 L15.4195479,9.6402195 L17.9724194,9.6402195 L17.9724194,7.7579141 Z M15.4208325,18.2819201 L17.9724194,18.2819201 L17.9724194,10.85244 L15.4208325,10.85244 L15.4208325,18.2819201 Z M25.0796504,10.7660064 C24.8243519,10.7240539 24.512057,10.6799848 24.2150703,10.6799848 C23.1088334,10.6799848 22.4710393,11.2794694 22.0310813,12.2212544 L22.0025688,12.2212544 L22.0025688,10.85244 L19.6773312,10.85244 L19.6773312,18.2819201 L22.2293548,18.2819201 L22.2293548,15.1454689 C22.2293548,13.6902208 22.896946,12.8207391 24.0874349,12.8207391 C24.3861167,12.8207391 24.6682041,12.8207391 24.9520151,12.9050289 L25.0796504,10.7660064 Z M29.474473,16.6563606 C28.2975972,16.6563606 27.8159509,15.672211 27.8159509,14.5746576 C27.8159509,13.4621491 28.2975972,12.4779995 29.474473,12.4779995 C30.6526325,12.4779995 31.1346893,13.4621491 31.1346893,14.5746576 C31.1346893,15.672211 30.6526325,16.6563606 29.474473,16.6563606 Z M29.474473,18.4526436 C31.9137319,18.4526436 33.7718121,17.0277743 33.7718121,14.5746576 C33.7718121,12.1065866 31.9137319,10.6799848 29.474473,10.6799848 C27.0356229,10.6799848 25.1788281,12.1065866 25.1788281,14.5746576 C25.1788281,17.0277743 27.0356229,18.4526436 29.474473,18.4526436 Z" id="_47303032" fill="#FF0007"></path>
                </g>
            </g>
        </g>
    </g>
</svg>