<?xml version="1.0" encoding="UTF-8"?>
<svg width="52px" height="52px" viewBox="0 0 52 52" version="1.1" xmlns="http://www.w3.org/2000/svg" xmlns:xlink="http://www.w3.org/1999/xlink">
    <!-- Generator: Sketch 51.3 (57544) - http://www.bohemiancoding.com/sketch -->
    <title>Hang_leong_bank</title>
    <desc>Created with Sketch.</desc>
    <defs></defs>
    <g id="Hang_leong_bank" stroke="none" stroke-width="1" fill="none" fill-rule="evenodd">
        <rect id="Rectangle" fill="#00529B" fill-rule="nonzero" x="0" y="0" width="52" height="52" rx="4"></rect>
        <g id="Group-20" transform="translate(13.000000, 7.700000)">
            <path d="M11.9732022,18.4000277 C7.81750327,21.5384049 4.29339076,26.0931729 3.14895218,29.0768502 L0.559747203,27.1266183 C2.03544437,23.7587275 4.41412055,21.0400686 6.76286371,18.4000277 C11.9123384,12.7370005 20.4332673,9.48323253 24.2277747,9.6366643 L24.2277747,13.6157461 C22.1204911,13.4255414 16.6996238,14.8026233 11.9732022,18.4000277" id="path1624" fill="#FFFFFF"></path>
            <path d="M7.75664041,32.6362141 L5.10756942,30.6859822 C9.08167479,23.1082279 16.5499597,16.9836373 24.2277756,16.5258781 L24.2277756,20.42761 C17.845061,20.8118234 11.3096882,25.594837 7.75664041,32.6362141" id="path1628" fill="#FFFFFF"></path>
            <path d="M12.3034637,36.2336181 L9.62346196,34.1667273 C13.9597567,26.9719184 19.0194324,24.0630549 24.2277754,23.2984321 L24.2277754,27.3180909 C20.8862542,27.4296777 15.3755879,30.5312819 12.3034637,36.2336181" id="path1632" fill="#FFFFFF"></path>
            <path d="M9.62346197,2.82480128 L12.3034637,0.795951409 C13.5377013,3.09235586 15.1959898,4.928465 16.9111511,6.34485582 C19.470423,8.41174663 22.2112886,9.56058287 24.2277754,9.67343765 L24.2277754,13.6550555 C21.7293672,13.2721101 19.2898272,12.4288694 16.9111511,10.8590468 C14.3508813,9.17636943 11.8824061,6.57563749 9.62346197,2.82480128" id="path1636" fill="#CE1041" fill-rule="nonzero"></path>
            <path d="M5.10657153,6.19269215 L7.75664029,4.31727404 C9.92478765,8.56391044 13.2373736,12.0484601 16.9111511,14.1521238 C19.2598943,15.5304737 21.7593003,16.3331374 24.2287732,16.5258782 L24.2287732,20.4276101 C21.7293673,20.2754463 19.2598943,19.5095555 16.9111511,18.3226783 C12.063002,15.7980283 7.78757106,11.3599192 5.10657153,6.19269215" id="path1640" fill="#CE1041" fill-rule="nonzero"></path>
            <path d="M16.9111506,25.5187547 C13.4179689,23.9882411 9.59352853,21.5764458 6.76286397,18.4761096 C4.41511857,15.7980278 2.03544463,13.0032871 0.559747462,9.6734372 L3.20981622,7.72193723 C4.29339102,10.7094187 7.81750353,15.3377324 11.9732025,18.5141505 C13.5985647,19.7403367 15.2847906,20.6964322 16.9111506,21.461055 C20.0431408,22.8761778 22.8428745,23.4531319 24.2287727,23.2984321 L24.2287727,27.277514 C22.5126137,27.3941728 19.8326119,26.7424048 16.9111506,25.5187547" id="path1644" fill="#CE1041" fill-rule="nonzero"></path>
        </g>
    </g>
</svg>