<?xml version="1.0" encoding="UTF-8" standalone="no"?>
<svg width="34px" height="34px" viewBox="0 0 34 34" version="1.1" xmlns="http://www.w3.org/2000/svg" xmlns:xlink="http://www.w3.org/1999/xlink">
    <!-- Generator: Sketch 49.1 (51147) - http://www.bohemiancoding.com/sketch -->
    <title>ideal</title>
    <desc>Created with Sketch.</desc>
    <defs></defs>
    <g id="Page-1" stroke="none" stroke-width="1" fill="none" fill-rule="evenodd">
        <g id="ideal" transform="translate(1.000000, 1.000000)">
            <rect id="Rectangle-6-Copy-11" stroke="#D0D5DF" fill="#FFFFFF" x="0" y="0" width="32" height="32" rx="2"></rect>
            <g transform="translate(4.000000, 5.000000)">
                <path d="M23.9987416,9.75938545 C23.9987416,10.1043539 23.9987416,10.4492331 23.9987416,10.7942015 C23.9830112,10.8122215 23.9894831,10.8339884 23.9898427,10.853971 C24.0051236,11.6911015 23.8829663,12.5118176 23.6924045,13.3245942 C23.5130787,14.0893768 23.2506067,14.824899 22.890427,15.5238459 C22.5604494,16.1642721 22.1553258,16.7545633 21.6694831,17.290705 C21.1920899,17.8174799 20.6561798,18.2756536 20.0644494,18.6698649 C19.5457978,19.0153686 18.9949663,19.3028869 18.4194157,19.543214 C17.355236,19.9875604 16.2453933,20.2624111 15.1040899,20.41915 C14.6061124,20.4875728 14.1075056,20.5465395 13.6037753,20.5556387 C13.4693034,20.5580473 13.3346517,20.5593855 13.2000899,20.5622401 C13.1022921,20.5678602 13.0038652,20.5507323 12.9066067,20.5714286 C8.60482697,20.5714286 4.3030382,20.5714286 0,20.5714286 C0,13.716397 0,6.86142783 0,0 C4.30137528,0 8.604,0 12.9066067,0 C13.0092584,0.0198488415 13.1129888,0.00397868913 13.216,0.00919737331 C13.9353708,0.0130065667 14.6490787,0.0837754925 15.3597303,0.190896791 C16.1640449,0.31213976 16.953618,0.494918597 17.723236,0.757315822 C18.8347865,1.13629042 19.8638202,1.6679093 20.7699775,2.41723207 C21.4252584,2.95907422 21.9855281,3.5857802 22.4473708,4.29949994 C23.1658427,5.40978615 23.5929888,6.62810358 23.8280449,7.91942907 C23.8972584,8.29967935 23.9511011,8.68205278 23.9778876,9.06739685 C23.9918202,9.26847231 23.9937978,9.47088589 23.9901124,9.67285343 C23.989573,9.70157849 23.9804045,9.73217693 23.9987416,9.75938545" id="Fill-1" fill="#000105"></path>
                <path d="M13.2302022,0 C13.230382,0.07838848 13.2305618,0.156646747 13.2309213,0.234905013 C13.1225169,0.244931447 13.0134831,0.437647311 12.9066067,0 C13.0144719,0 13.1223371,0 13.2302022,0" id="Fill-5" fill="#ABADA9"></path>
                <path d="M13.2150112,20.6171201 C13.2124045,20.6857837 13.2115056,20.7595335 13.2122247,20.8370979 C13.110382,20.8370979 13.0085393,20.8370979 12.9066067,20.8370979 C12.9245843,20.5103101 12.950382,20.6107624 12.9732135,20.6183917 C13.0538427,20.6489088 13.134382,20.454362 13.2150112,20.6171201" id="Fill-6" fill="#4B4E4C"></path>
                <path d="M0.98698427,10.285179 C0.98698427,7.21960798 0.98698427,4.15401016 0.98698427,1.08841234 C0.98698427,0.969774254 0.986993258,0.969756412 1.10468315,0.969756412 C4.83779775,0.969756412 8.57092135,0.969613679 12.304,0.96995267 C12.7235056,0.969988353 13.1430112,0.977856523 13.5617079,1.00292405 C14.5799551,1.06389791 15.5867865,1.20042225 16.5739326,1.4626143 C17.5008539,1.70882022 18.3857079,2.05593855 19.2066517,2.55378317 C20.5797753,3.38643539 21.5912809,4.53270821 22.2320899,5.99874811 C22.5397753,6.70255681 22.7418427,7.43662495 22.8685843,8.19259373 C23.0132135,9.05535374 23.0525843,9.92415314 23.022382,10.7964317 C22.9947865,11.5940429 22.8979775,12.3835361 22.7063371,13.1600942 C22.4679551,14.1261306 22.092764,15.0332896 21.5290787,15.8595366 C20.9951461,16.64225 20.3295281,17.2937381 19.5421124,17.8237244 C18.7094831,18.3843985 17.7982921,18.7750415 16.8348764,19.0515872 C16.1984719,19.2342857 15.5504719,19.362032 14.8941124,19.4500805 C14.049618,19.5632858 13.2010787,19.608336 12.3493933,19.608336 C8.59533483,19.6079792 4.84124045,19.6082468 1.08715506,19.6079792 C0.974094382,19.6079792 0.987191011,19.623323 0.987182022,19.5087796 C0.986930337,16.4343055 0.98698427,13.3597423 0.98698427,10.285179" id="Fill-7" fill="#FFFFFE"></path>
                <path d="M8.00972584,14.2912551 C8.00972584,13.0602701 8.00956404,11.8293743 8.00996854,10.5983893 C8.01000449,10.4694833 7.99452584,10.4872358 8.12578876,10.48563 C8.37733933,10.4825077 8.62923146,10.4953537 8.88036854,10.4734085 C9.33465169,10.4338892 9.73573034,10.2767042 10.0524045,9.93994301 C10.2720899,9.70639574 10.4118652,9.42842275 10.4858427,9.11994053 C10.6234607,8.54639376 10.6261573,7.97424755 10.4084494,7.4187833 C10.1528989,6.76664403 9.6588764,6.40760748 8.96443146,6.31416181 C8.70197753,6.27884426 8.43786067,6.30159237 8.17457079,6.29489283 C8.12419775,6.29360823 8.06204045,6.31554454 8.0264,6.28463387 C7.9853573,6.24903085 8.01057978,6.18375716 8.01053483,6.13187362 C8.00948315,4.95445818 8.00961798,3.77703382 8.00988764,2.59960947 C8.00991461,2.4816226 7.99747416,2.49337133 8.11411236,2.49339809 C9.62408989,2.49373708 11.1340225,2.49389766 12.6439551,2.49528931 C13.1985618,2.49579779 13.7515506,2.52951852 14.3025618,2.59023368 C15.1316854,2.68160079 15.9471461,2.83951728 16.7389663,3.1056791 C17.5187416,3.36777301 18.2487191,3.72518597 18.9050787,4.22297708 C19.7137079,4.83621261 20.3264719,5.60467055 20.7530787,6.52045595 C21.0528539,7.16394201 21.244764,7.83931111 21.3598202,8.53774055 C21.4033258,8.80183273 21.4337079,9.06730764 21.4600449,9.33341593 C21.4621124,9.35411225 21.4621124,9.37498699 21.4641798,9.39568331 C21.4670562,9.42458679 21.457618,9.44126874 21.4253483,9.4397522 C21.4074607,9.43894932 21.3894831,9.43993062 21.3715056,9.43993062 C20.9130787,9.44001982 20.4547416,9.44001982 19.9963146,9.44001982 C19.9813933,9.44001982 19.966382,9.43930616 19.9513708,9.44001982 C19.9217978,9.44144716 19.9067865,9.42886879 19.9074157,9.39853798 C19.9079551,9.37177549 19.9071461,9.34501301 19.9071461,9.31825053 C19.9071461,8.34598736 19.9073258,7.3737242 19.9069663,6.40146103 C19.9068764,6.27924569 19.9193708,6.29367959 19.7954157,6.29338521 C19.5137978,6.29271614 19.2321798,6.2930819 18.9505618,6.29324247 C18.8472809,6.29330492 18.8573483,6.28762235 18.8573483,6.38356585 C18.8570787,6.92470326 18.8571685,7.46584066 18.8571685,8.00697807 C18.8571685,8.79787189 18.8570787,9.58873002 18.8573483,10.3796506 C18.8573483,10.495889 18.8449438,10.4854516 18.9623371,10.4854516 C19.771236,10.48563 20.5801348,10.4854516 21.3890337,10.4857192 C21.5110112,10.4857192 21.4997753,10.4734977 21.496,10.5968728 C21.4701124,11.4401586 21.3729438,12.2735423 21.1403146,13.0877463 C20.9337528,13.8109577 20.6296629,14.4890299 20.1919101,15.1054591 C19.6903371,15.8118102 19.0561798,16.3736439 18.3078652,16.8112997 C17.6028764,17.2236204 16.8445843,17.5025746 16.0531236,17.69803 C15.5528989,17.8214942 15.0460225,17.9087399 14.5342921,17.9703829 C13.8166292,18.0567365 13.0962697,18.0911709 12.3738427,18.0913493 C10.9537978,18.0916169 9.53375281,18.0914385 8.11364494,18.0914385 C8.10465618,18.0914385 8.09566742,18.0915277 8.08667865,18.0914385 C8.01081348,18.0901896 8.01075955,18.0901896 8.00977079,18.0107942 C8.00951011,17.9900087 8.00972584,17.9691339 8.00972584,17.9483484 C8.00972584,16.7293173 8.00972584,15.5102862 8.00972584,14.2912551" id="Fill-8" fill="#C61C6E"></path>
                <path d="M6.16796404,14.867273 C6.16796404,15.9076199 6.16811685,16.948056 6.1677573,17.9884029 C6.16771236,18.1067823 6.18107865,18.0893867 6.06995955,18.0893867 C4.91982022,18.0898327 3.7696809,18.0896543 2.61954157,18.0896543 C2.60456629,18.0896543 2.5894382,18.0883162 2.5746427,18.0899219 C2.53403146,18.0943824 2.51117303,18.0823392 2.51652135,18.0367538 C2.51893034,18.0162359 2.51687191,17.9951828 2.51687191,17.9743972 C2.51686292,15.8995019 2.51674607,13.8246958 2.51714157,11.7498897 C2.51716854,11.6160773 2.49959551,11.6355247 2.62917753,11.6355247 C3.77332135,11.6349895 4.91747416,11.6349895 6.06161798,11.6355247 C6.18172584,11.6355247 6.16768539,11.6160773 6.16773034,11.7372222 C6.16813483,12.7806022 6.16796404,13.823893 6.16796404,14.867273" id="Fill-9" fill="#000105"></path>
                <path d="M2.07281798,8.37389171 C2.08640899,7.08209342 3.15685393,6.1139606 4.3801618,6.13356858 C5.62609438,6.15354231 6.63084045,7.17351406 6.61182022,8.42053872 C6.59235955,9.69649362 5.5249618,10.6600322 4.30167191,10.6384438 C3.1134382,10.6174799 2.07253034,9.65688514 2.07281798,8.37389171" id="Fill-10" fill="#000105"></path>
                <path d="M8.00648989,8.3847216 C8.00648989,8.0728673 8.00648989,7.76101301 8.00649888,7.44915872 C8.00649888,7.42837319 8.00746067,7.40753413 8.00643596,7.38680213 C8.00458427,7.34920084 8.02084494,7.3344904 8.05951461,7.33498104 C8.18219326,7.33654219 8.30491685,7.33451716 8.42759551,7.33573039 C8.56510562,7.33708636 8.70253483,7.33168034 8.84000899,7.34760401 C9.15226966,7.38376905 9.35739326,7.54804609 9.45321348,7.84432462 C9.52844944,8.07704225 9.53582022,8.31702143 9.51910112,8.5583209 C9.51092135,8.67676273 9.49492135,8.79426787 9.46067416,8.90890943 C9.36035955,9.24456449 9.1512809,9.41762855 8.79837303,9.43413208 C8.55348315,9.44555074 8.30772135,9.43921695 8.06234607,9.43948457 C8.00820674,9.43957378 8.00692135,9.43689753 8.00675056,9.36481725 C8.0061573,9.10647008 8.00649888,8.84805154 8.00648989,8.58965977 C8.00648989,8.52134407 8.00648989,8.45303729 8.00648989,8.3847216" id="Fill-11" fill="#C61C6E"></path>
                <path d="M18.3140674,10.4778689 C18.2890787,10.493748 18.261573,10.4865221 18.2355056,10.4865221 C17.9300674,10.4871466 17.6245393,10.4870574 17.3190112,10.4868789 C17.2333483,10.4867897 17.2329888,10.4866113 17.2093483,10.4063239 C17.1448989,10.1868715 17.0809888,9.96715153 17.0163596,9.74769917 C16.9945169,9.67347788 16.9937978,9.67276422 16.9210787,9.67276422 C16.5107416,9.67240738 16.1004045,9.67240738 15.6900674,9.67267501 C15.6197753,9.67276422 15.6188764,9.67329947 15.5989213,9.74038409 C15.5328539,9.96260191 15.468764,10.1852658 15.4012584,10.4070375 C15.376809,10.4871466 15.3969438,10.4870574 15.2914157,10.4869682 C14.9858876,10.4868789 14.6803596,10.4871466 14.3749213,10.4865221 C14.3489438,10.4865221 14.3214382,10.4936588 14.2961798,10.4780473 C14.2870112,10.4435237 14.3060674,10.4139958 14.315236,10.3838434 C14.7189213,9.05321274 15.1235955,7.72287647 15.5280899,6.39252236 C15.5342022,6.37262 15.5418427,6.35305662 15.5459775,6.33277958 C15.5517303,6.30483955 15.567191,6.29194895 15.5957753,6.29316219 C15.6106966,6.29379556 15.6257079,6.29303729 15.6407191,6.29303729 C16.0839551,6.29302837 16.527191,6.29282319 16.9705169,6.29322463 C17.059236,6.293296 17.0508764,6.28188626 17.0790112,6.3746361 C17.4850337,7.7108958 17.8911461,9.04714657 18.2963596,10.383665 C18.3054382,10.4137282 18.3257528,10.4431669 18.3140674,10.4778689" id="Fill-12" fill="#FFFFFE"></path>
                <path d="M11.1778876,8.38689828 C11.1778876,7.729915 11.1778876,7.07293173 11.1778876,6.41594846 C11.1778876,6.39811572 11.1775281,6.38027407 11.1779775,6.36244133 C11.1793258,6.29617743 11.1794157,6.29493743 11.2481798,6.29491067 C12.0390112,6.29460736 12.8297528,6.29460736 13.6205843,6.29487498 C13.6938427,6.29490175 13.6949213,6.29601685 13.6950112,6.3680793 C13.6954607,6.66535696 13.6954607,6.96263462 13.6950112,7.25991228 C13.6949213,7.3342763 13.6939326,7.33498104 13.6136629,7.33502565 C13.1883146,7.33528435 12.7629663,7.33490968 12.337618,7.33530219 C12.2122247,7.33542708 12.2271461,7.32303606 12.2265169,7.44381514 C12.2258876,7.54785875 12.2257079,7.65192021 12.2266966,7.7559549 C12.227236,7.81923033 12.2283146,7.82092529 12.2918652,7.82121968 C12.4835955,7.82212068 12.6753258,7.82154975 12.8669663,7.82155867 C13.0916854,7.82156759 13.3163146,7.82118399 13.5409438,7.82182629 C13.6111461,7.82202255 13.612764,7.82329823 13.6129438,7.88947293 C13.613573,8.19269186 13.613573,8.49591971 13.6129438,8.79913864 C13.612764,8.86445694 13.6111461,8.86558989 13.5404944,8.86566126 C13.1361798,8.86605377 12.7317753,8.86570586 12.3273708,8.86595564 C12.2147416,8.86602701 12.2269663,8.85661554 12.2265169,8.96650229 C12.2259775,9.09737083 12.2260674,9.22815017 12.2265169,9.3589295 C12.2266966,9.43921695 12.227236,9.43984141 12.3112809,9.43984141 C12.7635955,9.44010903 13.2159101,9.4397522 13.6682247,9.44019824 C13.7861573,9.44028745 13.7770787,9.42530046 13.7771685,9.55161938 C13.7775281,9.82807583 13.7772584,10.1045323 13.7772584,10.3810779 C13.7772584,10.4018635 13.776809,10.422649 13.7768989,10.4434345 C13.7770787,10.4734085 13.7613483,10.4860761 13.7322247,10.4854516 C13.7142472,10.4850056 13.6962697,10.48563 13.6782921,10.48563 C12.8785618,10.48563 12.0787416,10.4857192 11.2790112,10.4854516 C11.1683596,10.4854516 11.1779775,10.4962458 11.1779775,10.3846463 C11.1777978,9.71870648 11.1778876,9.0527667 11.1778876,8.38689828" id="Fill-13" fill="#FFFEFE"></path>
                <path d="M16.6734382,8.6300622 C16.4263371,8.6300622 16.1816629,8.6300622 15.937618,8.6300622 C15.9258427,8.59951728 15.9418427,8.57510098 15.9489438,8.55066683 C16.049618,8.20630504 16.1515506,7.86228225 16.2532135,7.518197 C16.2565393,7.50682295 16.2610337,7.49577004 16.264,7.48430678 C16.2694831,7.462986 16.2773933,7.44603643 16.304,7.44406492 C16.3365393,7.4416563 16.3445393,7.46376211 16.3513708,7.4869741 C16.3798652,7.58366696 16.4076404,7.68057391 16.4360449,7.77730244 C16.514427,8.04473101 16.5930787,8.31211498 16.6717303,8.57949003 C16.6758652,8.59364738 16.6821573,8.60742114 16.6734382,8.6300622" id="Fill-14" fill="#C61C6E"></path>
            </g>
        </g>
    </g>
</svg>