<?xml version="1.0" encoding="UTF-8"?>
<svg width="52px" height="52px" viewBox="0 0 52 52" version="1.1" xmlns="http://www.w3.org/2000/svg" xmlns:xlink="http://www.w3.org/1999/xlink">
    <!-- Generator: Sketch 51.3 (57544) - http://www.bohemiancoding.com/sketch -->
    <title>krungsri</title>
    <desc>Created with Sketch.</desc>
    <defs></defs>
    <g id="krungsri" stroke="none" stroke-width="1" fill="none" fill-rule="evenodd">
        <rect id="Rectangle" fill="#FEC529" fill-rule="nonzero" x="0" y="0" width="52" height="52" rx="4"></rect>
        <g id="Group-33" transform="translate(10.000000, 10.000000)" fill-rule="nonzero">
            <path d="M15.245205,0.0765141956 C15.3396057,0.0665772871 15.5264196,0.0447160883 15.6208202,0.033785489 L15.6069085,0.10533123 C15.5780915,0.251403785 15.5204574,0.545536278 15.4916404,0.691608833 C15.4499054,0.855567823 15.489653,1.02250789 15.5353628,1.18149842 C15.5174763,1.34545741 15.5005836,1.51041009 15.4836909,1.67436909 C15.3664353,1.82640379 15.3475552,2.02514196 15.4161199,2.20201893 C15.4081703,2.32324921 15.4012145,2.4444795 15.3952524,2.56570978 C15.2760095,2.67899054 15.2481861,2.84791798 15.309795,2.9979653 C15.3028391,3.12416404 15.2948896,3.25135647 15.2889274,3.3785489 C15.1965142,3.49083596 15.1508044,3.64386435 15.2183754,3.78198738 C15.2084385,3.84955836 15.1885647,3.98370662 15.1786278,4.0512776 C15.1985016,4.20132492 15.2173817,4.35137224 15.2362618,4.50141956 C15.0991325,4.52328076 15.0454732,4.60277603 15.0762776,4.74189274 C15.0901893,4.83033123 15.1170189,5.0072082 15.1309306,5.09564669 C14.9957886,5.12048896 14.9451104,5.20097792 14.9779022,5.33810726 C14.9918139,5.42753943 15.0206309,5.60640379 15.0345426,5.69583596 C14.9003943,5.71769716 14.846735,5.79818612 14.8735647,5.93531546 C14.8815142,6.01182965 14.8974132,6.16585174 14.9053628,6.24335962 C14.7771767,6.39141956 14.7573028,6.59413249 14.8328233,6.77200315 C14.3479022,9.6785489 13.6950473,12.5950315 12.4410095,15.2770032 C12.3873502,15.2611041 12.2810252,15.2302997 12.2283596,15.2144006 C12.2353155,15.0434858 12.1021609,14.9192744 11.9521136,14.8656151 C11.834858,14.8040063 11.7205836,14.7384227 11.6073028,14.6718454 C11.5834543,14.5098738 11.5099211,14.3220662 11.3250946,14.297224 L11.3171451,14.2276656 C11.311183,14.0696688 11.2336751,14.0020978 11.0846215,14.0259464 C10.1445899,12.2055047 9.36454259,10.2777445 9.03364353,8.24664038 C9.07537855,8.09957413 9.03066246,8.00219243 8.90048896,7.95648265 C8.91837539,7.87301262 8.95315457,7.70607256 8.97004732,7.62260252 C9.00582019,7.48646688 8.95712934,7.40498423 8.82198738,7.37616719 C8.83391167,7.31455836 8.85676656,7.19134069 8.86769716,7.13072555 C8.90446372,6.99458991 8.85577287,6.91111987 8.7226183,6.88130915 C8.7335489,6.81970032 8.75739748,6.69648265 8.76932177,6.63487382 C8.80410095,6.49774448 8.7544164,6.41626183 8.61828076,6.38943218 C8.63219243,6.3 8.65902208,6.12113565 8.67293375,6.03170347 C8.70175079,5.89457413 8.64908517,5.81408517 8.51394322,5.79222397 C8.52785489,5.70477918 8.55468454,5.53088328 8.56859621,5.44343849 C8.56064669,5.3768612 8.54574132,5.24271293 8.5377918,5.17514196 C8.5815142,5.05291798 8.55070978,4.95156151 8.44537855,4.87107256 C8.44537855,4.8005205 8.44637224,4.66041009 8.44637224,4.58985804 C8.50301262,4.43782334 8.47121451,4.26988959 8.34998423,4.15958991 C8.34799685,4.00358044 8.34501577,3.84856467 8.34302839,3.6935489 C8.40264984,3.54350158 8.37383281,3.37556782 8.2555836,3.26328076 C8.24564669,3.07547319 8.23570978,2.88865931 8.22676656,2.70184543 C8.21484227,2.53987382 8.19198738,2.21692429 8.18105678,2.05495268 L8.09858044,2.01321767 C9.61694006,1.19739748 11.25653,0.520694006 12.9726341,0.299100946 C13.0759779,0.310031546 13.1693849,0.283201893 13.2518612,0.218611987 C13.310489,0.217618297 13.4267508,0.216624606 13.4843849,0.215630915 C13.5877287,0.230536278 13.6821293,0.206687697 13.7665931,0.146072555 C13.9394953,0.10533123 14.1143849,0.0884384858 14.2932492,0.0944006309 C14.4591956,0.0993690852 14.6261356,0.103343849 14.7940694,0.102350158 C14.9441167,0.112287066 15.0961514,0.103343849 15.245205,0.0765141956 Z" id="Shape" fill="#FFFFFF"></path>
            <path d="M15.8384385,0.0278233438 C16.1444953,0.0457097792 16.4565142,0.0626025237 16.7655521,0.087444795 C16.9155994,0.102350158 17.0676341,0.104337539 17.2186751,0.102350158 C17.3846215,0.0993690852 17.5495741,0.112287066 17.7145268,0.141104101 C17.7950158,0.203706625 17.887429,0.228548896 17.9897792,0.215630915 C18.0454259,0.218611987 18.1557256,0.223580442 18.2113722,0.226561514 C19.9384069,0.500820189 21.6654416,1.0314511 23.1659148,1.94167192 C23.2185804,1.97943218 23.3239117,2.05495268 23.3765773,2.09370662 C23.2255363,2.205 23.2245426,2.40473186 23.2493849,2.57266562 C23.2464038,2.73662461 23.2434227,2.9005836 23.2414353,3.06553628 C23.1192114,3.21458991 23.0983438,3.41332808 23.1639274,3.59219243 C23.1579653,3.7472082 23.1529968,3.90222397 23.1480284,4.05823344 C23.0267981,4.16952681 22.9969874,4.33746057 23.0566088,4.48850158 C23.0536278,4.61470032 23.0506467,4.74089905 23.0486593,4.86709779 C22.9423344,4.94858044 22.91153,5.0509306 22.9572397,5.17315457 C22.9552524,5.2466877 22.9512776,5.39474763 22.9492902,5.46828076 C22.9612145,5.54380126 22.9870505,5.69484227 22.9989748,5.77036278 C22.8678076,5.81309148 22.8201104,5.9084858 22.8578707,6.05654574 C22.7902997,6.65673502 22.6809937,7.25096215 22.583612,7.84717666 C22.461388,7.92269716 22.4226341,8.02902208 22.4683438,8.16714511 C22.0321136,10.3482965 21.3742902,12.558265 20.07653,14.3926183 C19.7953155,14.6509779 19.5160883,14.9113249 19.2487855,15.1845899 C19.1782334,15.2412303 19.1086751,15.296877 19.0401104,15.3535174 C18.3892429,13.8331703 17.819858,12.272082 17.4611356,10.655347 C17.5217508,10.5241798 17.4969085,10.4128864 17.3866088,10.3214669 C17.1779338,9.504653 16.9911199,8.68187697 16.8838013,7.84518927 C16.92653,7.70011041 16.8838013,7.60272871 16.7576025,7.55205047 C16.7715142,7.49640379 16.8003312,7.3861041 16.8152366,7.33045741 C16.8569716,7.19531546 16.8112618,7.11085174 16.6761199,7.07805994 C16.6870505,7.0164511 16.7108991,6.89522082 16.7218297,6.83460568 C16.7556151,6.69548896 16.7029495,6.615 16.5648265,6.59214511 C16.585694,6.40433754 16.6045741,6.21652997 16.6264353,6.02971609 C16.6522713,5.89258675 16.598612,5.81309148 16.4664511,5.79123028 C16.4803628,5.7027918 16.5081861,5.52591483 16.5230915,5.43847003 C16.5538959,5.300347 16.502224,5.21985804 16.3660883,5.19700315 C16.3869558,5.04397476 16.4068297,4.88995268 16.4276972,4.73692429 C16.4555205,4.59880126 16.4018612,4.51930599 16.2667192,4.49843849 C16.2756625,4.4209306 16.2935489,4.26492114 16.3024921,4.18741325 C16.3591325,4.03438486 16.3213722,3.86744479 16.200142,3.7581388 C16.1951735,3.68957413 16.1862303,3.55244479 16.1812618,3.48388013 C16.2239905,3.35072555 16.2249842,3.21757098 16.1832492,3.08640379 C16.2518139,2.94828076 16.2110726,2.79227129 16.1166719,2.67899054 C16.1047476,2.5527918 16.093817,2.42758675 16.0828864,2.3023817 C16.1514511,2.12451104 16.1315773,1.92577287 16.0133281,1.77473186 C16.0033912,1.62567823 15.9944479,1.47861199 15.9855047,1.33055205 C15.9666246,1.1626183 15.9288644,0.827744479 15.9099842,0.660804416 C15.888123,0.472996845 15.8642744,0.285189274 15.8444006,0.0983753943 L15.8384385,0.0278233438 Z" id="Shape" fill="#FFFFFF"></path>
            <path d="M15.6069085,0.10533123 C15.66653,0.103343849 15.7847792,0.100362776 15.8444006,0.0983753943 C15.8642744,0.285189274 15.888123,0.472996845 15.9099842,0.660804416 C15.9288644,0.827744479 15.9666246,1.1626183 15.9855047,1.33055205 C15.9944479,1.47861199 16.0033912,1.62567823 16.0133281,1.77473186 C15.9437697,1.95160883 15.9636435,2.150347 16.0828864,2.3023817 C16.093817,2.42758675 16.1047476,2.5527918 16.1166719,2.67899054 C16.0709621,2.81115142 16.0689748,2.9433123 16.1117035,3.07547319 C16.0421451,3.21359621 16.0848738,3.37059937 16.1812618,3.48388013 C16.1862303,3.55244479 16.1951735,3.68957413 16.200142,3.7581388 C16.145489,3.91116719 16.1792744,4.07810726 16.3024921,4.18741325 C16.2935489,4.26492114 16.2756625,4.4209306 16.2667192,4.49843849 C16.2388959,4.63556782 16.2925552,4.71506309 16.4276972,4.73692429 C16.4068297,4.88995268 16.3869558,5.04397476 16.3660883,5.19700315 C16.3362776,5.3331388 16.3879495,5.41362776 16.5230915,5.43847003 C16.5081861,5.52591483 16.4803628,5.7027918 16.4664511,5.79123028 C16.434653,5.92835962 16.4883123,6.00785489 16.6264353,6.02971609 C16.6045741,6.21652997 16.585694,6.40433754 16.5648265,6.59214511 C16.5379968,6.72828076 16.5896688,6.80876972 16.7218297,6.83460568 C16.7108991,6.89522082 16.6870505,7.0164511 16.6761199,7.07805994 C16.6373659,7.21121451 16.6840694,7.29567823 16.8152366,7.33045741 C16.8003312,7.3861041 16.7715142,7.49640379 16.7576025,7.55205047 C16.7168612,7.6792429 16.7595899,7.7776183 16.8838013,7.84518927 C16.9911199,8.68187697 17.1779338,9.504653 17.3866088,10.3214669 C17.3289748,10.4516404 17.353817,10.5629338 17.4611356,10.655347 C17.819858,12.272082 18.3892429,13.8331703 19.0401104,15.3535174 C19.1086751,15.296877 19.1782334,15.2412303 19.2487855,15.1845899 C19.5528549,14.9520662 19.8459937,14.7006625 20.07653,14.3926183 C21.3742902,12.558265 22.0321136,10.3482965 22.4683438,8.16714511 C22.5846057,8.08963722 22.6233596,7.98231861 22.583612,7.84717666 C22.6809937,7.25096215 22.7902997,6.65673502 22.8578707,6.05654574 C22.982082,5.99493691 23.0287855,5.89954259 22.9989748,5.77036278 C22.9870505,5.69484227 22.9612145,5.54380126 22.9492902,5.46828076 C23.0526341,5.38580442 23.0824448,5.28444795 23.0387224,5.16222397 C23.0407098,5.08869085 23.0466719,4.94162461 23.0486593,4.86709779 C23.0506467,4.74089905 23.0536278,4.61470032 23.0566088,4.48850158 C23.1768454,4.37621451 23.2066562,4.20828076 23.1480284,4.05823344 C23.1529968,3.90222397 23.1579653,3.7472082 23.1639274,3.59219243 C23.2861514,3.44214511 23.3070189,3.24340694 23.2414353,3.06553628 C23.2434227,2.9005836 23.2464038,2.73662461 23.2493849,2.57266562 C23.3537224,2.43156151 23.4262618,2.26859621 23.4381861,2.09171924 L23.4540852,2.03011041 C23.4759464,2.0857571 23.5206625,2.19605678 23.5425237,2.25170347 C23.5693533,2.56869085 23.599164,2.88865931 23.6220189,3.20664038 C23.6349369,3.45009464 23.6498423,3.69454259 23.6647476,3.93998423 C23.6836278,4.10791798 23.7223817,4.44179811 23.7412618,4.60973186 C23.7442429,4.75679811 23.7492114,4.90485804 23.7531861,5.05192429 C23.6935647,5.2029653 23.7243691,5.37089905 23.8465931,5.48219243 C23.8485804,5.61137224 23.8505678,5.73955836 23.8545426,5.86973186 C23.8575237,5.94425868 23.8644795,6.09430599 23.8674606,6.1698265 C23.8088328,6.29503155 23.8356625,6.38843849 23.9479495,6.45004732 C23.8575237,6.61996845 23.9380126,6.80678233 24.0353943,6.95384858 C24.0373817,6.99757098 24.0423502,7.08600946 24.0453312,7.12973186 C23.9896845,7.26089905 24.0155205,7.37219243 24.1238328,7.46559937 C24.5888801,9.86138801 25.4593533,12.2154416 26.9161041,14.1918927 C26.9300158,14.3329968 27.0015615,14.4055363 27.1327287,14.4105047 L27.1307413,14.4850315 C27.0939748,14.6738328 27.2857571,14.7732019 27.430836,14.8367981 C27.7508044,15.1567666 28.0727603,15.4737539 28.3996845,15.7877603 C28.4652681,15.9338328 28.5616562,16.0987855 28.7425079,16.1107098 C28.7921924,16.1216404 28.8915615,16.1444953 28.9412461,16.1554259 C28.9154101,16.2855994 28.9720505,16.3720505 29.1091798,16.4157729 C29.8137066,16.8380915 30.5391009,17.2236435 31.2644953,17.6082019 L31.3002681,17.6370189 C31.3221293,18.8682019 30.8779495,20.0437382 30.4993533,21.1994006 C29.7719716,20.6498896 28.9899369,20.1808675 28.224795,19.6889905 C28.2357256,19.5419243 28.1741167,19.4584543 28.0399685,19.4385804 C27.9873028,19.4306309 27.8819716,19.4137382 27.8302997,19.4057886 C27.842224,19.215 27.6583912,19.1146372 27.501388,19.0709148 C27.1078864,18.6893375 26.7183596,18.3047792 26.3417508,17.9073028 C26.2861041,17.6966404 26.1489748,17.4790221 25.9035331,17.4919401 C25.8548423,17.3826341 25.8071451,17.2743218 25.7604416,17.1650158 C25.7177129,17.035836 25.6332492,16.9921136 25.5080442,17.0338486 C25.4941325,16.9791956 25.4643218,16.8688959 25.4494164,16.8142429 C25.4394795,16.669164 25.3689274,16.5966246 25.2357729,16.5956309 L25.2347792,16.5220978 C25.2457098,16.3760252 25.1791325,16.2885804 25.0340536,16.2597634 C24.390142,15.1776341 23.6677287,14.0507886 23.5584227,12.7649527 C23.5623975,12.7053312 23.570347,12.5860883 23.5743218,12.5254732 C23.6478549,12.3495899 23.3547161,12.2651262 23.3586909,12.4708202 C23.3487539,12.5284543 23.3288801,12.6427287 23.3189432,12.7003628 C23.1341167,14.6112303 22.0867666,16.2637382 21.2053628,17.9172397 C21.063265,17.8784858 20.9758202,17.9341325 20.9430284,18.0841798 C20.9261356,18.1378391 20.8913565,18.2431703 20.8744637,18.295836 C20.7254101,18.311735 20.5107729,18.4458833 20.5992114,18.6177918 C21.0255047,19.6253943 21.6644479,20.5187224 22.2348265,21.445836 C22.242776,21.5889274 22.3173028,21.6723975 22.4594006,21.6972397 C22.4852366,21.7310252 22.5369085,21.7985962 22.5627445,21.831388 C22.5637382,21.9744795 22.6293218,22.0529811 22.760489,22.0678864 L22.7525394,22.1414196 C22.7018612,22.3302208 22.8896688,22.4444953 23.0357413,22.5080915 C23.0665457,22.541877 23.1291483,22.6114353 23.1599527,22.6452208 C23.3159621,22.8230915 23.4779338,22.995 23.6389117,23.1688959 C23.8098265,23.3586909 23.9777603,23.5534543 24.1526498,23.7432492 C24.3752366,23.981735 24.6037855,24.2192271 24.8462461,24.4398265 C24.8820189,24.4726183 24.9535647,24.5372082 24.9883438,24.57 C25.0678391,24.7101104 25.1731703,24.8611514 25.351041,24.8730757 C25.3997319,24.885 25.4961199,24.9088486 25.5448107,24.9207729 C25.5388486,25.0867192 25.6610726,25.2308044 25.8270189,25.2516719 C25.8786909,25.267571 25.9820347,25.2993691 26.0337066,25.3152681 C26.0287382,25.4454416 26.0883596,25.5308991 26.2115773,25.5706467 C26.6090536,25.7514984 26.980694,25.9830284 27.3563091,26.2066088 L27.417918,26.2433754 C27.1565773,26.4649685 26.900205,26.69153 26.6428391,26.9161041 C26.4460883,26.9906309 26.2731861,27.115836 26.1698423,27.3026498 C26.0754416,27.3940694 25.9870032,27.4924448 25.9085016,27.5987697 C25.8608044,27.6246057 25.7644164,27.6752839 25.7167192,27.7001262 C25.6183438,27.7299369 25.5477918,27.7915457 25.5060568,27.8849527 C25.4136435,27.9276814 25.3520347,27.9982334 25.3202366,28.0946215 C24.7955678,28.6620189 24.0632177,28.9968927 23.4153312,29.4082808 L23.3537224,29.3417035 C23.0705205,29.0147792 22.7753943,28.7007729 22.4703312,28.3957098 C22.3987855,28.3152208 22.3292271,28.2347319 22.2606625,28.1542429 C22.229858,27.9863091 22.1215457,27.7994953 21.9267823,27.8193691 C21.911877,27.7736593 21.8830599,27.6812461 21.8681546,27.6355363 C21.8433123,27.48847 21.7618297,27.4258675 21.6247003,27.446735 C21.6147634,27.4000315 21.5958833,27.3066246 21.5859464,27.2599211 C21.5770032,27.1217981 21.5054574,27.0393218 21.3713091,27.0124921 L21.3633596,26.9459148 C21.3623659,26.8018297 21.2908202,26.7183596 21.1477287,26.6955047 C19.7933281,24.7180599 18.707224,22.570694 17.8029653,20.3537697 C16.8977129,18.1994479 16.2319401,15.9447634 15.8652681,13.6354259 C15.9417823,13.4913407 15.9288644,13.3204259 15.8215457,13.1972082 C15.8036593,13.0292744 15.7857729,12.8623344 15.7678864,12.696388 C15.7360883,12.8295426 15.7042902,12.9636909 15.6734858,13.0978391 C15.5641798,13.2190694 15.5433123,13.3860095 15.6088959,13.5340694 C15.6069085,13.5986593 15.6029338,13.7278391 15.6009464,13.792429 C15.489653,13.8838486 15.4658044,13.9961356 15.5284069,14.1273028 C15.1478233,16.5956309 14.3021924,18.9705521 13.2955836,21.2490852 C12.5373975,23.049653 11.5814669,24.7548265 10.5490221,26.4113091 C10.4118927,26.4401262 10.3383596,26.5255836 10.3304101,26.6666877 C10.2350158,26.8147476 10.1406151,26.9628076 10.0452208,27.1108675 C9.89815457,27.1198107 9.82462145,27.1923502 9.82561514,27.3294795 L9.82362776,27.4159306 C9.66364353,27.433817 9.5364511,27.5620032 9.52353312,27.7229811 C9.51160883,27.7716719 9.48676656,27.8680599 9.47484227,27.9157571 C9.28107256,27.9008517 9.17574132,28.0866719 9.14195584,28.2516246 C9.0694164,28.3341009 8.99687697,28.4165773 8.92334385,28.4980599 C8.66299685,28.774306 8.39768139,29.0465773 8.14329653,29.3277918 L8.08566246,29.391388 C7.57788644,29.0614826 7.00353312,28.8140536 6.57326498,28.3778233 C6.5285489,28.2883912 6.46097792,28.2218139 6.37055205,28.1810726 C6.35664038,28.0598423 6.20063091,27.9495426 6.1261041,28.0946215 L6.05455836,28.1721293 L6.04164038,28.0191009 C6.03766562,27.912776 5.98996845,27.829306 5.89954259,27.7686909 C5.82104101,27.6544164 5.71769716,27.5003943 5.55771293,27.5351735 L5.48417981,27.543123 C5.43449527,27.4129495 5.33413249,27.3145741 5.23277603,27.225142 C4.87504732,26.8703943 4.5183123,26.5156467 4.14468454,26.1797792 L4.18641956,26.1529495 C4.57495268,25.9154574 4.96746057,25.6849211 5.36195584,25.4573659 C5.50405363,25.4205994 5.56466877,25.3361356 5.54181388,25.2039748 C5.59646688,25.1900631 5.70477918,25.1612461 5.75943218,25.1473344 C5.91146688,25.1205047 5.96910095,25.036041 5.93233438,24.8929495 C6.03865931,24.8452524 6.14299685,24.7955678 6.24733438,24.7458833 C6.43216088,24.6733438 6.56531546,24.5232965 6.68654574,24.3732492 C7.06216088,23.9648423 7.45566246,23.5733281 7.8422082,23.1758517 C8.03697161,23.1003312 8.2555836,22.9880442 8.27347003,22.7525394 C8.2873817,22.7028549 8.31321767,22.6024921 8.32613565,22.5528076 C8.49208202,22.5538013 8.63616719,22.4335647 8.66200315,22.268612 C8.67988959,22.2179338 8.71466877,22.1155836 8.73156151,22.0649054 C8.86471609,22.0718612 8.95116719,22.0132334 8.98992114,21.8910095 C9.0594795,21.7101577 9.135,21.5322871 9.20952681,21.3544164 C9.3416877,21.3693218 9.43111987,21.3166562 9.47881703,21.1964196 C9.9279653,20.3150158 10.4953628,19.4962145 10.9057571,18.5949369 C10.9971767,18.4240221 10.777571,18.2968297 10.6334858,18.2839117 C10.6195741,18.228265 10.5927445,18.1159779 10.5788328,18.0603312 C10.5490221,17.9271767 10.4615773,17.8705363 10.3174921,17.8894164 C9.31485804,16.351183 8.53679811,14.6658833 8.11746057,12.873265 C8.08466877,12.6824763 8.05684543,12.4926814 8.02802839,12.3018927 C8.0161041,12.4191483 8.00318612,12.5373975 7.99026814,12.6556467 C7.76768139,14.1352524 6.95484227,15.4419558 6.17578864,16.6900315 C6.0287224,16.6771136 5.94525237,16.7387224 5.92637224,16.874858 C5.91842271,16.9255363 5.90351735,17.0288801 5.89556782,17.0805521 C5.7564511,17.1113565 5.68689274,17.1988013 5.68689274,17.3428864 C5.65410095,17.3776656 5.58851735,17.4482177 5.55572555,17.4839905 C5.39276025,17.652918 5.22880126,17.8208517 5.06782334,17.9927603 C4.83927445,18.2232965 4.61370662,18.4568139 4.37323344,18.6754259 C4.19536278,18.8314353 4.0184858,18.9894322 3.84458991,19.1494164 C3.76310726,19.2209621 3.68162461,19.2925079 3.60014196,19.3640536 C3.4540694,19.3749842 3.37258675,19.4524921 3.3566877,19.597571 C2.58955836,20.1123028 1.81149842,20.6161041 0.980772871,21.0225237 C0.682665615,20.0874606 0.343817035,19.1464353 0.271277603,18.160694 C0.298107256,17.9311514 0.342823344,17.7045899 0.388533123,17.4790221 C1.0970347,17.228612 1.73697161,16.8311356 2.35604101,16.4117981 C2.49317035,16.4048423 2.58260252,16.3352839 2.62235016,16.203123 C2.65712934,16.1713249 2.72867508,16.106735 2.76345426,16.0749369 C2.93933754,15.9179338 3.11025237,15.7559621 3.27818612,15.5929968 C3.4759306,15.4041956 3.6716877,15.2153943 3.86744479,15.0255994 C4.0622082,14.9540536 4.29175079,14.8447476 4.29373817,14.6032808 C4.30367508,14.5506151 4.32454259,14.4442902 4.3344795,14.3916246 C4.46564669,14.409511 4.54911672,14.3488959 4.58687697,14.2087855 C6.10921136,12.0276341 7.06514196,9.49074132 7.48746057,6.87137224 C7.59477918,6.71138801 7.60570978,6.51264984 7.53018927,6.33875394 C7.5381388,6.3 7.55304416,6.22249211 7.56099369,6.18274448 C7.67725552,6.06747634 7.70507886,5.89954259 7.64545741,5.74949527 C7.64744479,5.62727129 7.65042587,5.50504732 7.65440063,5.38282334 C7.77563091,5.27152997 7.80742902,5.10458991 7.75078864,4.9535489 C7.76072555,4.79157729 7.77165615,4.63059937 7.78159306,4.46962145 C7.79351735,4.32156151 7.81835962,4.02444795 7.8312776,3.87638801 C7.97735016,3.70050473 7.94853312,3.46201893 7.82829653,3.28315457 C7.83425868,3.2155836 7.84518927,3.08044164 7.85015773,3.01287066 C7.87003155,2.74656151 7.89785489,2.48422713 7.91474763,2.21891167 C7.98132492,2.17817035 8.1144795,2.09569401 8.18105678,2.05495268 L8.09957413,2.1185489 C8.13137224,2.26462145 8.19496845,2.55577287 8.22676656,2.70184543 C8.23570978,2.88865931 8.24564669,3.07547319 8.2555836,3.26328076 C8.19397476,3.41332808 8.2227918,3.58126183 8.34302839,3.6935489 C8.34501577,3.84856467 8.34799685,4.00358044 8.34998423,4.15958991 C8.29235016,4.31063091 8.32414826,4.47856467 8.44637224,4.58985804 C8.44637224,4.66041009 8.44537855,4.8005205 8.44537855,4.87107256 C8.44835962,4.94559937 8.45531546,5.09564669 8.45829653,5.17116719 C8.40861199,5.30432177 8.44637224,5.39474763 8.56859621,5.44343849 C8.55468454,5.53088328 8.52785489,5.70477918 8.51394322,5.79222397 C8.4831388,5.92835962 8.53580442,6.00785489 8.67293375,6.03170347 C8.65902208,6.12113565 8.63219243,6.3 8.61828076,6.38943218 C8.58548896,6.52457413 8.63616719,6.60705047 8.76932177,6.63487382 C8.75739748,6.69648265 8.7335489,6.81970032 8.7226183,6.88130915 C8.68485804,7.0164511 8.7335489,7.09992114 8.86769716,7.13072555 C8.85676656,7.19134069 8.83391167,7.31455836 8.82198738,7.37616719 C8.78621451,7.51130915 8.83589905,7.5927918 8.97004732,7.62260252 C8.95315457,7.70607256 8.91837539,7.87301262 8.90048896,7.95648265 C8.86570978,8.08466877 8.91042587,8.18105678 9.03364353,8.24664038 C9.36454259,10.2777445 10.1445899,12.2055047 11.0846215,14.0259464 C11.1144322,14.146183 11.1919401,14.2137539 11.3171451,14.2276656 L11.3250946,14.297224 C11.3091956,14.4790694 11.4473186,14.6132177 11.6073028,14.6718454 C11.7205836,14.7384227 11.834858,14.8040063 11.9521136,14.8656151 C11.9272713,15.0385174 12.0554574,15.1945268 12.2283596,15.2144006 C12.2810252,15.2302997 12.3873502,15.2611041 12.4410095,15.2770032 C13.6950473,12.5950315 14.3479022,9.6785489 14.8328233,6.77200315 C14.943123,6.61698738 14.9669716,6.42123028 14.9053628,6.24335962 C14.8974132,6.16585174 14.8815142,6.01182965 14.8735647,5.93531546 C15.010694,5.91345426 15.0643533,5.8329653 15.0345426,5.69583596 C15.0206309,5.60640379 14.9918139,5.42753943 14.9779022,5.33810726 C15.1120505,5.31326498 15.1627287,5.23178233 15.1309306,5.09564669 C15.1170189,5.0072082 15.0901893,4.83033123 15.0762776,4.74189274 C15.2094322,4.71804416 15.2630915,4.63755521 15.2362618,4.50141956 C15.2173817,4.35137224 15.1985016,4.20132492 15.1786278,4.0512776 C15.3038328,4.00556782 15.3425868,3.91514196 15.2929022,3.77900631 C15.3336435,3.64485804 15.3326498,3.51170347 15.2889274,3.3785489 C15.2948896,3.25135647 15.3028391,3.12416404 15.309795,2.9979653 C15.4280442,2.88369085 15.4558675,2.7157571 15.3952524,2.56570978 C15.4012145,2.4444795 15.4081703,2.32324921 15.4161199,2.20201893 C15.5353628,2.05097792 15.5542429,1.85124606 15.4836909,1.67436909 C15.5005836,1.51041009 15.5174763,1.34545741 15.5353628,1.18149842 C15.6079022,1.02946372 15.6804416,0.832712934 15.5492744,0.687634069 C15.7191956,0.540567823 15.7172082,0.286182965 15.6069085,0.10533123 Z" id="Shape" fill="#FEC529"></path>
            <path d="M7.09197161,2.67501577 C7.32648265,2.43851735 7.62955836,2.2914511 7.92070978,2.13742902 C7.8968612,2.42858044 7.87301262,2.72072555 7.85015773,3.01287066 C7.84518927,3.08044164 7.83425868,3.2155836 7.82829653,3.28315457 C7.81239748,3.43121451 7.78159306,3.72733438 7.7666877,3.87539432 C7.62359621,4.05326498 7.65837539,4.29175079 7.78159306,4.46962145 C7.77165615,4.63059937 7.76072555,4.79157729 7.75078864,4.9535489 C7.62856467,5.06384858 7.59577287,5.23078864 7.65440063,5.38282334 C7.65042587,5.50504732 7.64744479,5.62727129 7.64545741,5.74949527 C7.52522082,5.86277603 7.49739748,6.03269716 7.56099369,6.18274448 C7.55304416,6.22249211 7.5381388,6.3 7.53018927,6.33875394 C7.41690852,6.4957571 7.40597792,6.69648265 7.48746057,6.87137224 C7.06514196,9.49074132 6.10921136,12.0276341 4.58687697,14.2087855 C4.44080442,14.1958675 4.35634069,14.2564826 4.3344795,14.3916246 C4.32454259,14.4442902 4.30367508,14.5506151 4.29373817,14.6032808 C4.07214511,14.6390536 3.94793375,14.8348107 3.86744479,15.0255994 C3.6716877,15.2153943 3.4759306,15.4041956 3.27818612,15.5929968 C3.10528391,15.7509937 2.93436909,15.9129653 2.76345426,16.0749369 C2.72867508,16.106735 2.65712934,16.1713249 2.62235016,16.203123 C2.47528391,16.1981546 2.38585174,16.2677129 2.35604101,16.4117981 C1.73697161,16.8311356 1.0970347,17.228612 0.388533123,17.4790221 C0.336861199,17.4988959 0.23351735,17.5386435 0.182839117,17.5585174 C0.225567823,17.4223817 0.202712934,17.2792902 0.173895899,17.1441483 C0.147066246,16.9623028 0.0953943218,16.6005994 0.0685646688,16.4187539 C0.0556466877,15.9696057 0.0447160883,15.5234385 0.0506782334,15.0762776 C0.0775078864,14.8944322 0.130173502,14.5297476 0.157003155,14.3479022 C0.195757098,14.229653 0.215630915,14.1054416 0.207681388,13.982224 C0.215630915,13.8749054 0.220599369,13.7685804 0.222586751,13.6612618 C0.285189274,13.5767981 0.312018927,13.4823975 0.300094637,13.3790536 C0.598201893,11.0100946 1.55512618,8.71764984 2.90654574,6.75709779 C2.98504732,6.67660883 3.04566246,6.58121451 3.09335962,6.47985804 C3.15894322,6.36657729 3.24936909,6.26919558 3.35271293,6.18870662 C3.45208202,6.1370347 3.4977918,6.05753943 3.48785489,5.95121451 L3.48586751,5.82998423 C3.60809148,5.83495268 3.67069401,5.77533123 3.67367508,5.65410095 C3.78198738,5.67695584 3.86545741,5.6372082 3.92408517,5.53287066 C4.01749211,5.4315142 4.095,5.31723975 4.15462145,5.19402208 L4.19635647,5.12247634 C4.61470032,4.65544164 5.04298107,4.1923817 5.52492114,3.78894322 L5.57957413,3.75018927 C5.6918612,3.68063091 5.79222397,3.5951735 5.88662461,3.50276025 C5.930347,3.46897476 6.0177918,3.40239748 6.06250789,3.36861199 C6.08933754,3.34973186 6.14498423,3.3129653 6.17280757,3.29408517 C6.26522082,3.26228707 6.33776025,3.20365931 6.38943218,3.12018927 C6.44309148,3.0844164 6.55140379,3.01187697 6.60506309,2.9761041 C6.71436909,2.92940063 6.75312303,2.85288644 6.72231861,2.74457413 L6.83957413,2.77140379 C6.94391167,2.80121451 7.0273817,2.7694164 7.09197161,2.67501577 Z" id="Shape" fill="#FFFFFF"></path>
            <path d="M7.99026814,12.6556467 C8.02206625,12.7102997 8.08566246,12.818612 8.11746057,12.873265 C8.53679811,14.6658833 9.31485804,16.351183 10.3174921,17.8894164 C10.3602208,18.0275394 10.4476656,18.0851735 10.5788328,18.0603312 C10.5927445,18.1159779 10.6195741,18.228265 10.6334858,18.2839117 C10.6473975,18.4329653 10.751735,18.5691009 10.9057571,18.5949369 C10.4953628,19.4962145 9.9279653,20.3150158 9.47881703,21.1964196 C9.33970032,21.1536909 9.25026814,21.2063565 9.20952681,21.3544164 C9.135,21.5322871 9.0594795,21.7101577 8.98992114,21.8910095 C8.84881703,21.8562303 8.76335962,21.914858 8.73156151,22.0649054 C8.71466877,22.1155836 8.67988959,22.2179338 8.66200315,22.268612 C8.49605678,22.2636435 8.34004732,22.3808991 8.32613565,22.5528076 C8.31321767,22.6024921 8.2873817,22.7028549 8.27347003,22.7525394 C8.04591483,22.7793691 7.91971609,22.9800946 7.8422082,23.1758517 C7.45566246,23.5733281 7.06216088,23.9648423 6.68654574,24.3732492 C6.45004732,24.3275394 6.24037855,24.5044164 6.24733438,24.7458833 C6.14299685,24.7955678 6.03865931,24.8452524 5.93233438,24.8929495 C5.8111041,24.9326972 5.75347003,25.0171609 5.75943218,25.1473344 C5.70477918,25.1612461 5.59646688,25.1900631 5.54181388,25.2039748 C5.409653,25.2308044 5.35003155,25.3152681 5.36195584,25.4573659 C4.96746057,25.6849211 4.57495268,25.9154574 4.18641956,26.1529495 C4.11487382,26.0456309 4.02345426,25.9542114 3.93104101,25.8667666 C3.86247634,25.7673975 3.77403785,25.7316246 3.66473186,25.7604416 C3.65181388,25.704795 3.62399054,25.5935016 3.61007886,25.5378549 C3.58126183,25.4335174 3.51567823,25.3619716 3.41432177,25.3232177 C3.37258675,25.2327918 3.30700315,25.1652208 3.21757098,25.1214984 C2.22586751,23.9211199 1.45873817,22.5080915 0.980772871,21.0225237 C1.81149842,20.6161041 2.58955836,20.1123028 3.3566877,19.597571 C3.49381703,19.5776972 3.57529968,19.5001893 3.60014196,19.3640536 C3.68162461,19.2925079 3.76310726,19.2209621 3.84458991,19.1494164 C4.02345426,18.9944006 4.20033123,18.8373975 4.37323344,18.6754259 C4.61370662,18.4568139 4.83927445,18.2232965 5.06782334,17.9927603 C5.23376972,17.8268139 5.39772871,17.6578864 5.55572555,17.4839905 C5.58851735,17.4482177 5.65410095,17.3776656 5.68689274,17.3428864 C5.82501577,17.3081073 5.89358044,17.2206625 5.89556782,17.0805521 C5.90351735,17.0288801 5.91842271,16.9255363 5.92637224,16.874858 C6.05654574,16.8897634 6.14001577,16.8281546 6.17578864,16.6900315 C6.95484227,15.4419558 7.76768139,14.1352524 7.99026814,12.6556467 Z" id="Shape" fill="#FFFFFF"></path>
            <path d="M15.6734858,13.0978391 C15.7042902,12.9636909 15.7360883,12.8295426 15.7678864,12.696388 C15.7857729,12.8623344 15.8036593,13.0292744 15.8215457,13.1972082 C15.7470189,13.3402997 15.7589432,13.5092271 15.8652681,13.6354259 C16.2319401,15.9447634 16.8977129,18.1994479 17.8029653,20.3537697 C18.707224,22.570694 19.7933281,24.7180599 21.1477287,26.6955047 C21.1556782,26.8336278 21.2282177,26.9170978 21.3633596,26.9459148 L21.3713091,27.0124921 C21.3703155,27.1555836 21.4418612,27.2380599 21.5859464,27.2599211 C21.5958833,27.3066246 21.6147634,27.4000315 21.6247003,27.446735 C21.6465615,27.5759148 21.7280442,27.639511 21.8681546,27.6355363 C21.8830599,27.6812461 21.911877,27.7736593 21.9267823,27.8193691 C21.9486435,27.9972397 22.1096215,28.0906467 22.2606625,28.1542429 C22.3292271,28.2347319 22.3987855,28.3152208 22.4703312,28.3957098 C22.7485647,28.7246215 23.0566088,29.0286909 23.3537224,29.3417035 L23.4153312,29.4082808 C21.8850473,30.2310568 20.2305521,30.9186909 18.4945741,31.1055047 C18.4359464,31.104511 18.3186909,31.1035174 18.2600631,31.1025237 C18.1527445,31.0905994 18.0543691,31.1154416 17.9659306,31.1780442 C17.9033281,31.1800315 17.7791167,31.185 17.7165142,31.1869874 C17.5923028,31.1810252 17.4690852,31.2038801 17.3528233,31.2476025 C17.1461356,31.3052366 16.9344795,31.3539274 16.7198423,31.3608833 C16.039164,31.3509464 15.3604732,31.3479653 14.6807886,31.3290852 C14.4999369,31.3171609 14.3210726,31.2883438 14.1471767,31.2436278 C14.0289274,31.2028864 13.9067035,31.1810252 13.7824921,31.1869874 C13.7198896,31.185 13.5956782,31.1810252 13.5340694,31.1790379 C13.4446372,31.1164353 13.3462618,31.0915931 13.2399369,31.1025237 C13.1813091,31.1035174 13.0640536,31.1035174 13.0054259,31.1035174 C11.2684543,30.9127287 9.60402208,30.2360252 8.08566246,29.391388 L8.14329653,29.3277918 C8.40463722,29.0525394 8.66697161,28.7782808 8.92334385,28.4980599 C8.99687697,28.4165773 9.0694164,28.3341009 9.14195584,28.2516246 C9.29100946,28.1890221 9.46192429,28.0985962 9.47484227,27.9157571 C9.48676656,27.8680599 9.51160883,27.7716719 9.52353312,27.7229811 C9.68550473,27.7190063 9.84946372,27.5918139 9.82362776,27.4159306 L9.82561514,27.3294795 C9.95678233,27.3264984 10.0303155,27.253959 10.0452208,27.1108675 C10.1406151,26.9628076 10.2350158,26.8147476 10.3304101,26.6666877 C10.4705205,26.639858 10.5440536,26.5544006 10.5490221,26.4113091 C11.5814669,24.7548265 12.5373975,23.049653 13.2955836,21.2490852 C14.3021924,18.9705521 15.1478233,16.5956309 15.5284069,14.1273028 C15.6337382,14.0338959 15.6575868,13.9226025 15.6009464,13.792429 C15.6029338,13.7278391 15.6069085,13.5986593 15.6088959,13.5340694 C15.7251577,13.4158202 15.7450315,13.2449054 15.6734858,13.0978391 Z" id="Shape" fill="#FFFFFF"></path>
            <path d="M23.5335804,2.14140379 C23.8754101,2.29940063 24.2460568,2.4444795 24.5044164,2.72966877 C24.5521136,2.82009464 24.6256467,2.87673502 24.7260095,2.89859621 C24.7766877,2.91847003 24.8760568,2.95821767 24.926735,2.97809148 C24.9754259,3.0088959 25.0728076,3.07050473 25.1214984,3.10230284 C25.1652208,3.19074132 25.2327918,3.25433754 25.325205,3.29309148 C25.3778707,3.3348265 25.4822082,3.41829653 25.5348738,3.46003155 C25.6014511,3.55343849 25.6859148,3.58324921 25.788265,3.55045741 C25.7534858,3.65578864 25.7842902,3.74323344 25.8816719,3.8127918 C26.0029022,3.94495268 26.1380442,4.06618297 26.2851104,4.1715142 C26.6080599,4.42987382 26.9369716,4.68624606 27.2320978,4.97739748 C27.2559464,5.03006309 27.3036435,5.13638801 27.3264984,5.18905363 C27.3453785,5.2894164 27.3990379,5.3659306 27.48847,5.41760252 C27.5779022,5.51001577 27.6732965,5.59646688 27.7736593,5.67894322 C27.8114196,5.73856467 27.8879338,5.85979495 27.925694,5.92041009 C27.967429,6.03369085 28.0449369,6.07443218 28.1562303,6.04263407 C28.1631861,6.09828076 28.1770978,6.20858044 28.1850473,6.26422713 C28.2019401,6.36856467 28.2595741,6.44408517 28.3569558,6.49078864 C29.8683596,8.43444795 30.8262776,10.835205 31.1909621,13.2667666 C31.1919558,13.4038959 31.2118297,13.5410252 31.2446215,13.6751735 C31.2744322,13.8361514 31.2923186,13.998123 31.2982808,14.1630757 C31.2913249,14.2833123 31.3151735,14.4025552 31.3579022,14.515836 L31.3897003,14.6599211 C31.3916877,14.7195426 31.3956625,14.8387855 31.3986435,14.8984069 C31.3946688,14.9997634 31.3956625,15.1021136 31.4026183,15.2044637 C31.4085804,15.5562303 31.4264669,15.913959 31.4185174,16.2677129 C31.4055994,16.4267035 31.3936751,16.585694 31.3877129,16.7456782 C31.377776,16.8261672 31.3579022,16.9871451 31.3479653,17.0666404 C31.3270978,17.2017823 31.2853628,17.4730599 31.2644953,17.6082019 C30.5391009,17.2236435 29.8137066,16.8380915 29.1091798,16.4157729 C29.1300473,16.270694 29.0734069,16.1832492 28.9412461,16.1554259 C28.8915615,16.1444953 28.7921924,16.1216404 28.7425079,16.1107098 C28.7584069,15.913959 28.5626498,15.817571 28.3996845,15.7877603 C28.0727603,15.4737539 27.7508044,15.1567666 27.430836,14.8367981 C27.3930757,14.6817823 27.3165615,14.4929811 27.1307413,14.4850315 L27.1327287,14.4105047 C27.1367035,14.2723817 27.064164,14.1998423 26.9161041,14.1918927 C25.4593533,12.2154416 24.5888801,9.86138801 24.1238328,7.46559937 C24.1824606,7.33244479 24.1566246,7.22015773 24.0453312,7.12973186 C24.0423502,7.08600946 24.0373817,6.99757098 24.0353943,6.95384858 C24.0761356,6.78392744 24.1059464,6.57028391 23.9479495,6.45004732 C23.9479495,6.38247634 23.9469558,6.24634069 23.9459621,6.17876972 C23.9886909,6.05455836 23.9588801,5.9522082 23.8545426,5.86973186 C23.8505678,5.73955836 23.8485804,5.61137224 23.8465931,5.48219243 C23.9032334,5.33015773 23.8734227,5.16321767 23.7531861,5.05192429 C23.7492114,4.90485804 23.7442429,4.75679811 23.7412618,4.60973186 C23.7223817,4.44179811 23.6836278,4.10791798 23.6647476,3.93998423 C23.6498423,3.69454259 23.6349369,3.45009464 23.6220189,3.20664038 C23.6011514,2.85089905 23.5633912,2.49416404 23.5335804,2.14140379 Z" id="Shape" fill="#FFFFFF"></path>
            <path d="M23.3189432,12.7003628 C23.3785647,12.7172555 23.4988013,12.7490536 23.5584227,12.7649527 C23.6677287,14.0507886 24.390142,15.1776341 25.0340536,16.2597634 C25.0370347,16.3958991 25.1046057,16.4833438 25.2347792,16.5220978 L25.2357729,16.5956309 C25.2337855,16.7297792 25.3043375,16.8033123 25.4494164,16.8142429 C25.4643218,16.8688959 25.4941325,16.9791956 25.5080442,17.0338486 C25.5418297,17.1729653 25.6252997,17.2166877 25.7604416,17.1650158 C25.8071451,17.2743218 25.8548423,17.3826341 25.9035331,17.4919401 C25.9621609,17.7035962 26.1599054,17.8129022 26.3417508,17.9073028 C26.7183596,18.3047792 27.1078864,18.6893375 27.501388,19.0709148 C27.5570347,19.2189748 27.6414984,19.4067823 27.8302997,19.4057886 C27.8819716,19.4137382 27.9873028,19.4306309 28.0399685,19.4385804 C28.0230757,19.5697476 28.0846845,19.652224 28.224795,19.6889905 C28.9899369,20.1808675 29.7719716,20.6498896 30.4993533,21.1994006 C29.9637539,22.4156782 29.4529968,23.6975394 28.5864984,24.721041 C28.501041,24.7747003 28.4473817,24.8502208 28.4225394,24.9476025 C28.3937224,24.9933123 28.3341009,25.0857256 28.3042902,25.1314353 C28.211877,25.1682019 28.1433123,25.2317981 28.0995899,25.3212303 C28.0022082,25.3570032 27.9356309,25.4235804 27.9008517,25.5209621 C27.8730284,25.5676656 27.8173817,25.6620662 27.7895584,25.7087697 C27.6772713,25.7912461 27.5719401,25.8816719 27.4775394,25.9840221 C27.4477287,26.0396688 27.3871136,26.1509621 27.3563091,26.2066088 C26.980694,25.9830284 26.6090536,25.7514984 26.2115773,25.5706467 C26.2443691,25.4275552 26.1847476,25.3430915 26.0337066,25.3152681 C25.9820347,25.2993691 25.8786909,25.267571 25.8270189,25.2516719 C25.8290063,25.0867192 25.7137382,24.9326972 25.5448107,24.9207729 C25.4961199,24.9088486 25.3997319,24.885 25.351041,24.8730757 C25.3579968,24.6743375 25.158265,24.5809306 24.9883438,24.57 C24.9535647,24.5372082 24.8820189,24.4726183 24.8462461,24.4398265 C24.6107413,24.2102839 24.3782177,23.9807413 24.1526498,23.7432492 C23.9777603,23.5534543 23.8098265,23.3586909 23.6389117,23.1688959 C23.4838959,22.9900315 23.3219243,22.8171293 23.1599527,22.6452208 C23.1291483,22.6114353 23.0665457,22.541877 23.0357413,22.5080915 C22.9979811,22.3540694 22.9353785,22.1632808 22.7525394,22.1414196 L22.760489,22.0678864 C22.7744006,21.9317508 22.708817,21.8532492 22.5627445,21.831388 C22.5369085,21.7985962 22.4852366,21.7310252 22.4594006,21.6972397 C22.4474763,21.555142 22.3719558,21.4716719 22.2348265,21.445836 C21.6644479,20.5187224 21.0255047,19.6253943 20.5992114,18.6177918 C20.7582019,18.5909621 20.844653,18.4409148 20.8744637,18.295836 C20.8913565,18.2431703 20.9261356,18.1378391 20.9430284,18.0841798 C21.0732019,18.093123 21.1606467,18.0374763 21.2053628,17.9172397 C22.0867666,16.2637382 23.1341167,14.6112303 23.3189432,12.7003628 Z" id="Shape" fill="#FFFFFF"></path>
        </g>
    </g>
</svg>