<?xml version="1.0" encoding="UTF-8" standalone="no"?>
<svg width="32px" height="32px" viewBox="0 0 32 32" version="1.1" xmlns="http://www.w3.org/2000/svg" xmlns:xlink="http://www.w3.org/1999/xlink">
    <!-- Generator: Sketch 50.2 (55047) - http://www.bohemiancoding.com/sketch -->
    <title>paypost</title>
    <desc>Created with Sketch.</desc>
    <defs></defs>
    <g id="Page-1" stroke="none" stroke-width="1" fill="none" fill-rule="evenodd">
        <g id="deposit" transform="translate(-103.000000, -1822.000000)">
            <g id="paypost" transform="translate(103.000000, 1822.000000)">
                <rect id="Rectangle-6-Copy-26" fill="#FEDE00" x="0" y="0" width="32" height="32" rx="2"></rect>
                <g id="Group-30" transform="translate(4.000000, 9.000000)" fill-rule="nonzero">
                    <path d="M16.8189723,13.0624506 C16.8284585,13.0529644 16.8474308,13.0529644 16.856917,13.0529644 C16.8948617,13.0719368 16.9328063,13.0814229 16.970751,13.0434783 C17.0371542,13.0055336 17.1130435,13.0434783 17.1889328,12.9960474 C17.1604743,13.0434783 17.1320158,13.0529644 17.1035573,13.0624506 C16.0790514,13.5462451 15.0071146,13.8782609 13.887747,14.058498 C13.0150198,14.2007905 12.1328063,14.2482213 11.2600791,14.1913043 C8.64189723,14.0205534 6.31778656,13.1098814 4.30671937,11.43083 C2.39051383,9.82766798 1.09090909,7.81660079 0.42687747,5.40711462 C0.123320158,4.2972332 -0.00948616601,3.16837945 0.018972332,2.01106719 C0.028458498,1.66956522 0.0664031621,1.32806324 0.113833992,0.986561265 C0.14229249,0.806324111 0.246640316,0.701976285 0.407905138,0.645059289 C0.758893281,0.52173913 1.11936759,0.445849802 1.4798419,0.37944664 C2.10592885,0.265612648 2.73201581,0.199209486 3.36758893,0.161264822 C3.3770751,0.161264822 3.39604743,0.161264822 3.4055336,0.161264822 C3.38656126,0.436363636 3.35810277,0.701976285 3.3486166,0.977075099 C3.33913043,1.4513834 3.3486166,1.9256917 3.4055336,2.4 C3.44347826,2.80790514 3.50988142,3.21581028 3.58577075,3.61422925 C3.76600791,4.51541502 4.04110672,5.37865613 4.43003953,6.20395257 C4.71462451,6.82055336 5.05612648,7.41818182 5.43557312,7.97786561 C5.84347826,8.56600791 6.29881423,9.11620553 6.79209486,9.6284585 C7.01027668,9.85612648 7.24743083,10.0648221 7.48458498,10.2640316 C7.81660079,10.5581028 8.16758893,10.8237154 8.53754941,11.0798419 C9.1541502,11.4972332 9.79920949,11.8577075 10.4727273,12.1612648 C11.0513834,12.4079051 11.6300395,12.626087 12.2371542,12.7778656 C12.7968379,12.9201581 13.3565217,13.0339921 13.9256917,13.0909091 C14.2766798,13.1288538 14.627668,13.1667984 14.9786561,13.1667984 C15.3391304,13.1667984 15.6996047,13.1857708 16.0695652,13.1478261 C16.2592885,13.1288538 16.4395257,13.1288538 16.629249,13.1003953 C16.686166,13.0909091 16.7620553,13.1193676 16.8189723,13.0624506 Z" id="Shape" fill="#0076C1"></path>
                    <path d="M23.943083,2.57075099 C23.9525692,2.99762846 23.9051383,3.42450593 23.8482213,3.8513834 C23.7249012,4.8 23.4972332,5.71067194 23.1462451,6.59288538 C22.2640316,8.83162055 20.8316206,10.6434783 18.8774704,12.0284585 C18.7636364,12.113834 18.6213439,12.1328063 18.4885375,12.170751 C17.4450593,12.4837945 16.3826087,12.6071146 15.2916996,12.5312253 C13.9826087,12.4363636 12.7588933,12.0664032 11.601581,11.4592885 C10.8142292,11.0513834 10.0837945,10.5581028 9.47667984,9.90355731 C9.45770751,9.88458498 9.43873518,9.85612648 9.41976285,9.83715415 C9.41976285,9.81818182 9.41976285,9.79920949 9.39130435,9.80869565 C9.39130435,9.80869565 9.38181818,9.79920949 9.38181818,9.79920949 C9.40079051,9.77075099 9.39130435,9.75177866 9.37233202,9.72332016 C9.22055336,9.45770751 9.0972332,9.1826087 8.99288538,8.89802372 C8.74624506,8.24347826 8.63241107,7.56996047 8.60395257,6.87747036 C8.5944664,6.73517787 8.61343874,6.59288538 8.61343874,6.44110672 C8.6229249,6.17549407 8.6513834,5.91936759 8.69881423,5.66324111 C8.83162055,4.96126482 9.07826087,4.30671937 9.43873518,3.69011858 C9.79920949,3.08300395 10.2640316,2.55177866 10.8142292,2.11541502 C11.1652174,1.84031621 11.5351779,1.60316206 11.943083,1.41343874 C12.5786561,1.10988142 13.2426877,0.939130435 13.944664,0.901185771 C14.3810277,0.872727273 14.8079051,0.891699605 15.2442688,0.967588933 C16.0031621,1.10039526 16.6956522,1.37549407 17.3407115,1.79288538 C17.6822134,2.01106719 18.0047431,2.26719368 18.2798419,2.57075099 C18.3083004,2.59920949 18.3272727,2.64664032 18.3841897,2.63715415 C18.3841897,2.63715415 18.3841897,2.63715415 18.3841897,2.63715415 C18.3841897,2.65612648 18.3841897,2.67509881 18.4126482,2.67509881 C18.4126482,2.67509881 18.4126482,2.67509881 18.4126482,2.67509881 C18.4126482,2.68458498 18.4221344,2.69407115 18.4221344,2.70355731 C18.7541502,3.22529644 18.9913043,3.78498024 19.143083,4.3826087 C19.4371542,5.56837945 19.3992095,6.73517787 18.9913043,7.89249012 C18.9438735,8.03478261 18.8774704,8.1770751 18.7920949,8.30039526 C18.7920949,8.27193676 18.7920949,8.24347826 18.7920949,8.22450593 C18.8490119,7.99683794 18.8869565,7.75968379 18.915415,7.52252964 C18.9533597,7.08616601 18.9343874,6.6687747 18.8395257,6.24189723 C18.6972332,5.57786561 18.4126482,4.98023715 17.9857708,4.44901186 C17.9193676,4.36363636 17.8719368,4.24980237 17.7486166,4.21185771 C17.7486166,4.21185771 17.7486166,4.21185771 17.7486166,4.21185771 C17.7581028,4.20237154 17.7486166,4.19288538 17.7391304,4.18339921 C17.3027668,3.39604743 16.6956522,2.79841897 15.8798419,2.41897233 C14.3620553,1.71699605 12.5501976,2.07747036 11.4213439,3.3201581 C10.6055336,4.21185771 10.2166008,5.2743083 10.283004,6.47905138 C10.3683794,7.98735178 11.0513834,9.16363636 12.3604743,9.93201581 C12.9770751,10.2924901 13.6600791,10.5011858 14.3715415,10.6434783 C14.7889328,10.7288538 15.2158103,10.7383399 15.6426877,10.7193676 C15.6901186,10.7193676 15.7375494,10.7098814 15.7849802,10.7098814 C15.8039526,10.7098814 15.8134387,10.7193676 15.8324111,10.7193676 C16.1264822,10.7288538 16.4205534,10.7193676 16.7051383,10.6814229 C17.2648221,10.5865613 17.8055336,10.4252964 18.3177866,10.1786561 C19.1905138,9.76126482 19.9494071,9.1826087 20.6324111,8.50909091 C20.8411067,8.30039526 21.0403162,8.08221344 21.2300395,7.85454545 C21.4956522,7.54150198 21.7517787,7.21897233 21.9794466,6.87747036 C22.4822134,6.15652174 22.9090909,5.39762846 23.2600791,4.60079051 C23.4403162,4.18339921 23.5920949,3.76600791 23.7249012,3.32964427 C23.8197628,3.07351779 23.8766798,2.82687747 23.943083,2.57075099 Z" id="Shape" fill="#0076C1"></path>
                    <path d="M17.7770751,4.21185771 C17.9003953,4.24980237 17.9478261,4.36363636 18.0142292,4.44901186 C18.4411067,4.98023715 18.7256917,5.57786561 18.8679842,6.24189723 C18.9533597,6.6687747 18.9818182,7.09565217 18.9438735,7.52252964 C18.9249012,7.75968379 18.8869565,7.99683794 18.8205534,8.22450593 C18.8110672,8.25296443 18.8205534,8.28142292 18.8205534,8.30039526 C18.8205534,8.30039526 18.8205534,8.30039526 18.8205534,8.30039526 C18.8110672,8.30039526 18.801581,8.30988142 18.8110672,8.31936759 C18.6023715,8.71778656 18.2988142,9.04980237 17.9667984,9.35335968 C17.4640316,9.78972332 16.8664032,10.0268775 16.2213439,10.1596838 C15.9367589,10.2166008 15.6426877,10.2735178 15.3486166,10.3114625 C15.3296443,10.3114625 15.3011858,10.3114625 15.2537549,10.3114625 C15.7185771,10.1786561 16.1359684,9.99841897 16.5059289,9.72332016 C17.3976285,9.08774704 17.9478261,8.23399209 18.1849802,7.16205534 C18.2893281,6.6972332 18.3083004,6.2229249 18.2608696,5.7486166 C18.1944664,5.2173913 18.0332016,4.69565217 17.7770751,4.21185771 Z" id="Shape" fill="#019CDD"></path>
                    <path d="M16.8189723,13.0624506 C16.7620553,13.1098814 16.6956522,13.0909091 16.629249,13.1003953 C16.4490119,13.1288538 16.2592885,13.1288538 16.0695652,13.1478261 C15.7090909,13.1857708 15.3486166,13.1667984 14.9786561,13.1667984 C14.627668,13.1667984 14.2766798,13.1288538 13.9256917,13.0909091 C13.3565217,13.0245059 12.7873518,12.9201581 12.2371542,12.7778656 C11.6300395,12.6166008 11.0418972,12.4079051 10.4727273,12.1612648 C9.78972332,11.8671937 9.14466403,11.4972332 8.53754941,11.0798419 C8.16758893,10.8332016 7.81660079,10.5581028 7.48458498,10.2640316 C7.24743083,10.055336 7.01027668,9.84664032 6.79209486,9.6284585 C6.29881423,9.11620553 5.83399209,8.57549407 5.43557312,7.97786561 C5.04664032,7.41818182 4.71462451,6.82055336 4.43003953,6.20395257 C4.05059289,5.37865613 3.76600791,4.50592885 3.58577075,3.61422925 C3.50988142,3.21581028 3.45296443,2.80790514 3.4055336,2.4 C3.35810277,1.9256917 3.33913043,1.4513834 3.3486166,0.977075099 C3.35810277,0.701976285 3.38656126,0.436363636 3.4055336,0.161264822 C3.87035573,0.132806324 4.3256917,0.14229249 4.79051383,0.170750988 C5.05612648,0.18972332 5.32173913,0.208695652 5.58735178,0.256126482 C5.82450593,0.303557312 5.92885375,0.464822134 5.87193676,0.701976285 C5.78656126,1.10988142 5.72964427,1.52727273 5.70118577,1.94466403 C5.67272727,2.36205534 5.65375494,2.78893281 5.68221344,3.20632411 C5.71067194,3.65217391 5.75810277,4.10750988 5.84347826,4.54387352 C5.95731225,5.19841897 6.11857708,5.84347826 6.36521739,6.46007905 C6.83003953,7.63636364 7.42766798,8.73675889 8.26245059,9.70434783 C9.543083,11.1747036 11.1272727,12.1802372 13.0055336,12.7114625 C13.5747036,12.8727273 14.1628458,12.9865613 14.7509881,13.0434783 C15.3770751,13.1098814 16.0031621,13.1383399 16.6387352,13.0719368 C16.6956522,13.0624506 16.7525692,13.0719368 16.8189723,13.0624506 Z" id="Shape" fill="#019CDD"></path>
                    <path d="M18.4031621,2.65612648 C18.3557312,2.65612648 18.3272727,2.61818182 18.2988142,2.58972332 C18.0142292,2.29565217 17.7011858,2.03952569 17.3596838,1.81185771 C16.7146245,1.3944664 16.0221344,1.11936759 15.2632411,0.986561265 C14.8363636,0.910671937 14.4,0.891699605 13.9636364,0.920158103 C13.2711462,0.958102767 12.5976285,1.13833992 11.9620553,1.43241107 C11.5541502,1.62213439 11.1841897,1.85928854 10.8332016,2.13438735 C10.283004,2.58023715 9.82766798,3.10197628 9.45770751,3.70909091 C9.08774704,4.3256917 8.84110672,4.98023715 8.71778656,5.68221344 C8.67035573,5.93833992 8.64189723,6.20395257 8.63241107,6.46007905 C8.6229249,6.60237154 8.61343874,6.74466403 8.6229249,6.89644269 C8.6513834,7.58893281 8.75573123,8.26245059 9.01185771,8.91699605 C9.11620553,9.20158103 9.23952569,9.47667984 9.39130435,9.74229249 C9.40079051,9.76126482 9.41976285,9.78972332 9.40079051,9.81818182 C9.03083004,9.41027668 8.74624506,8.94545455 8.50909091,8.45217391 C8.24347826,7.87351779 8.06324111,7.26640316 7.99683794,6.63083004 C7.79762846,4.59130435 8.41422925,2.85533597 9.92252964,1.46086957 C10.6909091,0.749407115 11.601581,0.294071146 12.6355731,0.113833992 C14.3525692,-0.18972332 15.8893281,0.227667984 17.2458498,1.32806324 C17.6916996,1.68853755 18.0616601,2.12490119 18.3841897,2.59920949 C18.3841897,2.60869565 18.3936759,2.62766798 18.4031621,2.65612648 Z" id="Shape" fill="#019CDD"></path>
                    <path d="M23.943083,2.57075099 C23.8766798,2.8173913 23.8197628,3.07351779 23.7533597,3.3201581 C23.6300395,3.75652174 23.4687747,4.17391304 23.2885375,4.59130435 C22.9375494,5.39762846 22.5106719,6.15652174 22.0079051,6.86798419 C21.770751,7.2 21.5241107,7.53201581 21.258498,7.84505929 C21.0687747,8.07272727 20.8695652,8.29090909 20.6608696,8.49960474 C19.9683794,9.17312253 19.2189723,9.75177866 18.3462451,10.16917 C17.8339921,10.4158103 17.2932806,10.5770751 16.7335968,10.6719368 C16.4395257,10.7193676 16.1549407,10.7193676 15.8608696,10.7098814 C15.8418972,10.7098814 15.8324111,10.7003953 15.8134387,10.7003953 C16.9043478,10.6150198 17.8529644,10.1786561 18.7162055,9.52411067 C20.3193676,8.30039526 21.3343874,6.6972332 21.7992095,4.743083 C21.9699605,4.04110672 22.0363636,3.33913043 22.0268775,2.61818182 C22.0268775,2.38102767 21.998419,2.15335968 21.9889328,1.91620553 C21.9794466,1.70750988 22.055336,1.64110672 22.2640316,1.61264822 C22.7478261,1.56521739 23.2221344,1.65059289 23.6774704,1.81185771 C23.8766798,1.87826087 23.9525692,1.9826087 23.9620553,2.19130435 C23.9525692,2.32411067 23.9620553,2.44743083 23.943083,2.57075099 Z" id="Shape" fill="#019CDD"></path>
                </g>
            </g>
        </g>
    </g>
</svg>