<?xml version="1.0" encoding="UTF-8" standalone="no"?>
<svg width="32px" height="32px" viewBox="0 0 32 32" version="1.1" xmlns="http://www.w3.org/2000/svg" xmlns:xlink="http://www.w3.org/1999/xlink">
    <!-- Generator: Sketch 49.1 (51147) - http://www.bohemiancoding.com/sketch -->
    <title>qiwi</title>
    <desc>Created with Sketch.</desc>
    <defs></defs>
    <g id="Page-1" stroke="none" stroke-width="1" fill="none" fill-rule="evenodd">
        <g id="qiwi">
            <rect id="Rectangle-6-Copy-4" fill="#FF8B00" x="0" y="0" width="32" height="32" rx="2"></rect>
            <path d="M20.7453381,20.8755134 C21.1043192,21.1766872 21.2136254,21.5346642 21.0237247,21.7871971 C20.9181124,21.9256238 20.7470172,22.0019167 20.5418372,22.0019167 C20.3403511,22.0019167 20.1351711,21.9279559 19.9927876,21.8046879 C19.6663801,21.5216711 19.5705063,21.0629141 19.7835779,20.8022189 C19.8668588,20.7002729 20.0021903,20.6441359 20.1643866,20.6441359 C20.3613392,20.6441359 20.5676946,20.7264257 20.7453381,20.8755134 Z M22.4017216,20.1109184 C22.4544438,20.4617326 22.3426191,20.6069889 22.2304585,20.6069889 C22.1080557,20.6069889 21.9544225,20.464731 21.7730851,20.1842129 C21.5942662,19.9071929 21.5287832,19.5893613 21.6174371,19.4287797 C21.6760359,19.3225026 21.7986066,19.2763604 21.9532472,19.3343297 C22.2526219,19.4466036 22.3701555,19.9013627 22.4017216,20.1109184 Z M20.1447417,23.7819739 C18.4235468,23.7819739 17.2507299,24.0100197 16.0685103,24.0100197 C11.6124776,24.0100197 8,20.4257516 8,16.00476 C8,11.583935 11.6124776,8 16.0685103,8 C20.5247109,8 24.1370205,11.583935 24.1370205,16.00476 C24.1370205,17.5069643 23.7202802,18.9127197 22.9947624,20.1137502 C22.9710877,20.1528961 22.9114814,20.1394033 22.905101,20.0940939 C22.6282256,18.1269692 21.4167905,17.0428768 19.6536193,16.7268775 C19.5006578,16.6993921 19.4722819,16.6059416 19.6746075,16.5886174 C20.2124074,16.5424752 20.9788941,16.5503044 21.3686017,16.6199342 C21.3921085,16.4182077 21.4023507,16.2126499 21.4023507,16.00476 C21.4023507,13.082308 19.0142368,10.7132295 16.0685103,10.7132295 C13.1227837,10.7132295 10.7348378,13.082308 10.7348378,16.00476 C10.7348378,18.927212 13.1227837,21.2962905 16.0685103,21.2962905 C16.1524628,21.2962905 16.2360795,21.2974565 16.3191925,21.2936252 C16.230035,20.7797308 16.2026664,20.2573408 16.2187853,19.8625499 C16.2320498,19.5398875 16.2978686,19.4955776 16.4447855,19.7467779 C17.1828962,21.0087761 18.2420414,22.1581673 20.3010613,22.6082622 C21.9844775,22.976234 23.6724272,23.41167 25.4973874,25.6976258 C25.6595837,25.900685 25.4119238,26.1039106 25.2258849,25.9403306 C23.3688548,24.307862 21.6911474,23.7819739 20.1447417,23.7819739 Z" id="Combined-Shape-Copy" fill="#FFFFFF"></path>
        </g>
    </g>
</svg>