<?xml version="1.0" encoding="UTF-8"?>
<svg width="52px" height="52px" viewBox="0 0 52 52" version="1.1" xmlns="http://www.w3.org/2000/svg" xmlns:xlink="http://www.w3.org/1999/xlink">
    <!-- Generator: Sketch 51.3 (57544) - http://www.bohemiancoding.com/sketch -->
    <title>scb</title>
    <desc>Created with Sketch.</desc>
    <defs></defs>
    <g id="scb" stroke="none" stroke-width="1" fill="none" fill-rule="evenodd">
        <rect id="Rectangle" fill="#4B2884" fill-rule="nonzero" x="0" y="0" width="52" height="52" rx="4"></rect>
        <g id="Group-3" transform="translate(8.000000, 9.000000)" fill-rule="nonzero">
            <g id="Group-31">
                <rect id="Rectangle" fill="#4B2884" x="0.254521667" y="0.872909699" width="35.09699" height="33.5016722"></rect>
                <path d="M17.7723793,0.768579545 C18.0033378,0.953582016 18.2095507,1.16804348 18.4028017,1.39311018 C18.2013022,1.21753458 18.0115863,1.02899704 17.8312973,0.833389328 L17.7723793,0.768579545 Z" id="Shape" fill="#A36B4E"></path>
                <path d="M17.4825028,1.15508152 C17.5956253,1.04549407 17.712283,0.9394417 17.8312973,0.833389328 C18.0115863,1.02899704 18.2013022,1.21753458 18.4028017,1.39311018 C18.623155,1.5910746 18.8494,1.78550395 19.0709317,1.98700346 C19.278323,2.18143281 19.4857143,2.37821887 19.7048892,2.56204298 C19.8887133,2.72112154 20.0725374,2.8802001 20.2516481,3.04634881 C20.457861,3.24313488 20.664074,3.43874259 20.8832489,3.6225667 C21.0635379,3.77928854 21.247362,3.93365366 21.4205809,4.09980237 C21.6668581,4.34254447 21.9119569,4.58646492 22.1794445,4.80799654 C22.3597335,4.96236166 22.5423793,5.11554842 22.7167765,5.27934042 C22.9630537,5.52090415 23.2093309,5.7648246 23.4756402,5.98635623 C23.6559292,6.1418997 23.838575,6.29744318 24.0106155,6.4635919 C24.2533576,6.70751235 24.4984564,6.95025445 24.765944,7.16825099 C24.9485898,7.32261611 25.1324139,7.47580287 25.3068111,7.64312994 C25.5507316,7.88469368 25.7958304,8.12743577 26.0644964,8.34425395 C26.2047212,8.46208992 26.3461244,8.57992589 26.4804574,8.70718874 C26.7267345,8.94757411 26.9718333,9.19031621 27.2416777,9.40831275 C27.4266802,9.56267787 27.612861,9.71822134 27.79315,9.88201334 C27.999363,10.0764427 28.2079327,10.2696937 28.4259292,10.4535178 C28.6191802,10.6196665 28.8124312,10.7869936 28.98565,10.9767095 C29.0787405,11.0921887 29.1824361,11.1994195 29.2920236,11.3019368 C30.6801313,16.3830237 31.891485,21.5136018 33.2560255,26.6017589 C33.349116,27.09667 33.5623991,27.5833325 33.558864,28.0947406 C33.5329401,28.1536586 33.4822706,28.2726729 33.4563467,28.3327693 C31.8031081,29.2919541 29.9872558,29.960084 28.2857044,30.8367836 C27.3783674,31.2079669 26.554694,31.8030385 25.6002227,32.0434239 C23.4355759,32.0587426 21.2697508,31.9821492 19.1074608,32.0575642 C19.0992123,30.1910425 19.1168877,28.3233424 19.0567914,26.4568207 C20.2269025,26.9246294 21.4252943,27.3193799 22.6437182,27.6398938 C22.7450572,27.7011685 22.855823,27.7235573 22.9760157,27.7058819 L23.0962083,27.7435894 C23.2116876,27.8001507 23.3307019,27.8001507 23.4508946,27.7447678 C23.8809959,27.7483029 24.3275942,27.7577297 24.7635873,27.7518379 C24.8814233,27.8048641 25.0004376,27.8036858 25.1194519,27.7494812 L25.2431797,27.7129521 C25.362194,27.725914 25.4717815,27.696455 25.5707637,27.6245751 C25.9973299,27.3924382 26.4745656,27.2486784 26.8799213,26.9741206 C27.1108798,26.8091502 27.3123793,26.605294 27.478528,26.3731571 C27.9392667,25.6861734 28.163155,24.878997 28.3835083,24.0906744 C28.4436046,23.9822653 28.4589233,23.8679644 28.4306426,23.7477717 C28.4235725,23.6311141 28.415324,23.5156349 28.4047187,23.401334 C28.3787948,22.8321863 28.3693679,22.2630385 28.4094322,21.6962475 C28.4117889,21.6267243 28.4165023,21.4888562 28.418859,21.419333 C28.4271076,21.2767515 28.4000053,21.1353483 28.3552276,21.0021937 C28.3069149,20.823083 28.2868828,20.642794 28.297488,20.4589699 C28.3198768,20.3399555 28.2986664,20.2303681 28.2326782,20.1302075 C28.1065937,19.823834 28.0429623,19.4903582 28.0641728,19.1604175 C28.08774,19.0402248 28.0629944,18.9318157 27.9934712,18.8340119 C27.7071298,18.2200865 27.6152177,17.5378162 27.3913294,16.9026803 C26.8728511,15.3425321 25.8900992,14.0027372 25.1324139,12.5616033 C25.1005982,12.4449457 25.031075,12.3589254 24.9238442,12.3058992 C24.8814233,12.2587648 24.795403,12.1633177 24.7518037,12.1161833 C24.7140962,12.0030608 24.6433946,11.9182189 24.5420557,11.8604792 C24.5055265,11.8074531 24.4324682,11.7025791 24.3959391,11.6495529 C24.3676584,11.5340736 24.3063837,11.4421616 24.2132933,11.3738167 C24.1708724,11.3160771 24.0860305,11.2017762 24.0436095,11.1452149 C23.9670162,11.0120603 23.871569,10.8918676 23.7655167,10.7822801 C23.7148472,10.7210054 23.6135083,10.5960993 23.5628388,10.5348246 C23.4485379,10.3792811 23.3189183,10.2366996 23.1822286,10.103545 C23.0749979,9.99513587 22.9736589,9.8831917 22.8746767,9.77006917 C22.6472533,9.50729496 22.4021545,9.26219615 22.154699,9.02181077 C21.7729104,8.63884387 21.3923002,8.2582337 21.0116901,7.87880188 C20.7701263,7.63016798 20.5226708,7.38742589 20.2622533,7.16000247 C20.1538442,7.06455534 20.0477918,6.96792984 19.949988,6.86541255 C19.8474707,6.75111166 19.7308131,6.65095109 19.6047286,6.56728755 C19.5517024,6.52133152 19.4444717,6.43059783 19.3914455,6.3846418 C19.3278141,6.27976779 19.2382587,6.21731472 19.1216011,6.19374753 C18.6585058,6.02877717 18.2437232,5.75657609 17.8112652,5.53033103 C17.4118012,5.75893281 17.0382612,6.03938241 16.6034465,6.19728261 C16.4832538,6.21967144 16.3936985,6.28330287 16.3336021,6.38699852 C16.2805759,6.43177619 16.1721668,6.52250988 16.1191407,6.56728755 C15.9883427,6.64741601 15.8716851,6.74521986 15.7691678,6.85716403 C15.7208551,6.90076334 15.625408,6.98914032 15.5782736,7.03273962 C15.3131426,7.25898468 15.0668655,7.50290514 14.8264801,7.75389575 C14.403449,8.1733918 13.9839529,8.59642292 13.5668136,9.02063241 C13.3181797,9.26219615 13.0742592,9.50729496 12.8491925,9.77006917 C12.7466752,9.8831917 12.644158,9.99395751 12.5404623,10.1023666 C12.4014159,10.2366996 12.2729747,10.3792811 12.1645656,10.5383597 C12.1150745,10.6019911 12.0149139,10.7316107 11.9654228,10.7952421 C11.8617271,10.9083646 11.7721718,11.030914 11.6944,11.1605336 C11.6496224,11.2147381 11.5624238,11.3219689 11.5176461,11.3761734 C11.4151288,11.4374481 11.3491407,11.5258251 11.3196817,11.640126 C11.2018457,11.8993651 11.0333403,12.1409289 10.8141654,12.3235746 C10.708113,12.3801359 10.6385898,12.4661561 10.6079524,12.580457 C9.9303956,13.7517465 9.1385379,14.8629397 8.6153462,16.1202495 C8.22413078,16.8696863 8.06976566,17.7110351 7.72804135,18.4793256 C7.65498305,18.5783078 7.63259422,18.6867169 7.65969649,18.8069096 C7.69033384,19.1757362 7.63141586,19.5516329 7.4900127,19.8945356 C7.42166784,19.9946961 7.40045736,20.1042836 7.42638127,20.2232979 C7.43345143,20.3988735 7.41224096,20.570914 7.36274985,20.7405978 C7.30972367,20.869039 7.28026467,21.0057288 7.29911843,21.1459536 C7.30029679,21.3038538 7.29794007,21.4629323 7.29440499,21.6220109 C7.27672959,22.2748221 7.25787584,22.9276334 7.28144303,23.581623 C7.31679382,24.5231324 7.60902703,25.4481448 8.12986201,26.2341107 C8.36199886,26.562873 8.65305371,26.8527495 8.98888622,27.0789946 C9.49675924,27.3806546 10.0729771,27.5491601 10.6173793,27.7754051 C10.7340369,27.8331448 10.8495162,27.8260746 10.9649954,27.7518379 C11.3491407,27.7483029 11.7521397,27.7518379 12.1433551,27.7459461 C12.2529425,27.8190044 12.3684218,27.830788 12.4909712,27.7824753 C13.8908625,27.4266107 15.2919322,27.0507139 16.6058032,26.4332535 C16.6187652,28.2962401 16.6293704,30.1592268 16.624657,32.0222134 C14.4564751,32.0151433 12.29065,32.0481374 10.124825,32.0740613 C8.02263127,31.1902915 5.99820934,30.1026655 3.90544254,29.18708 C3.31744106,28.9066304 2.69408878,28.679207 2.17207544,28.2832782 C2.11551418,28.2526408 2.00239165,28.1901877 1.94583039,28.158372 C3.43999046,23.0054051 4.61481507,17.7617045 6.00292278,12.5792787 C6.21502752,12.0360548 6.23977307,11.3443577 6.71111695,10.939002 C6.96564264,10.7056868 7.21427653,10.4653014 7.46173207,10.2237376 C7.63377258,10.0599457 7.81406161,9.90558053 7.995529,9.75121542 C8.26065993,9.52732708 8.5128289,9.28812006 8.76735459,9.05126976 C8.9016876,8.92872036 9.04309076,8.81324111 9.18567228,8.6965835 C9.49911596,8.44323617 9.78074392,8.1557164 10.0682637,7.87408844 C10.1990616,7.74918231 10.3381081,7.6325247 10.4783329,7.51468874 C10.7446421,7.29433547 10.9909193,7.05159338 11.2395532,6.811208 C11.4115937,6.64741601 11.5942395,6.49422925 11.7757069,6.33986413 C12.0420162,6.11833251 12.2894717,5.87559042 12.5392839,5.6363834 C12.6724386,5.51147727 12.8126634,5.3936413 12.9528882,5.27580534 C13.2191975,5.05663043 13.4654747,4.81388834 13.7141085,4.5723246 C13.8873274,4.40853261 14.0699732,4.25534585 14.2514406,4.10098073 C14.5165715,3.87944911 14.7616703,3.63552866 15.0091258,3.3916082 C15.1788096,3.22781621 15.3579203,3.07227273 15.537031,2.91672925 C15.8021619,2.69284091 16.0531525,2.45245553 16.3076782,2.21560524 C16.4420112,2.09305583 16.5834144,1.97757658 16.7236392,1.85974061 C16.9899485,1.64056571 17.2362256,1.39782362 17.4825028,1.15508152 Z" id="Shape" fill="#FBAE17"></path>
                <path d="M16.7236392,1.85974061 C16.9345656,1.58400445 17.1761293,1.3283004 17.4825028,1.15508152 C17.2362256,1.39782362 16.9899485,1.64056571 16.7236392,1.85974061 Z" id="Shape" fill="#976255"></path>
                <path d="M12.9528882,5.27580534 C13.1638146,5.00006917 13.4065567,4.74436512 13.7141085,4.5723246 C13.4654747,4.81388834 13.2191975,5.05663043 12.9528882,5.27580534 Z" id="Shape" fill="#976255"></path>
                <path d="M19.0709317,1.98700346 C19.3030685,2.15315217 19.5092815,2.35347332 19.7048892,2.56204298 C19.4857143,2.37821887 19.278323,2.18143281 19.0709317,1.98700346 Z" id="Shape" fill="#A66D4C"></path>
                <path d="M15.537031,2.91672925 C15.7373521,2.62803113 15.9883427,2.37232708 16.3076782,2.21560524 C16.0531525,2.45245553 15.8021619,2.69284091 15.537031,2.91672925 Z" id="Shape" fill="#825262"></path>
                <path d="M20.2516481,3.04634881 C20.4814282,3.21485425 20.6876412,3.41399704 20.8832489,3.6225667 C20.664074,3.43874259 20.457861,3.24313488 20.2516481,3.04634881 Z" id="Shape" fill="#A1694F"></path>
                <path d="M14.2514406,4.10098073 C14.4600102,3.82288785 14.701574,3.56482708 15.0091258,3.3916082 C14.7616703,3.63552866 14.5165715,3.87944911 14.2514406,4.10098073 Z" id="Shape" fill="#956056"></path>
                <path d="M21.4205809,4.09980237 C21.7269544,4.27184289 21.9696965,4.52990366 22.1794445,4.80799654 C21.9119569,4.58646492 21.6668581,4.34254447 21.4205809,4.09980237 Z" id="Shape" fill="#986255"></path>
                <path d="M22.7167765,5.27934042 C23.02315,5.45020257 23.2658921,5.70708498 23.4756402,5.98635623 C23.2093309,5.7648246 22.9630537,5.52090415 22.7167765,5.27934042 Z" id="Shape" fill="#9A6453"></path>
                <path d="M11.7757069,6.33986413 C11.9854549,6.06059289 12.2270186,5.80253211 12.5392839,5.6363834 C12.2894717,5.87559042 12.0420162,6.11833251 11.7757069,6.33986413 Z" id="Shape" fill="#935F57"></path>
                <path d="M24.0106155,6.4635919 C24.3028487,6.65095109 24.5455908,6.9019417 24.765944,7.16825099 C24.4984564,6.95025445 24.2533576,6.70751235 24.0106155,6.4635919 Z" id="Shape" fill="#AD7248"></path>
                <path d="M10.4783329,7.51468874 C10.6892592,7.23895257 10.9331797,6.98324852 11.2395532,6.811208 C10.9909193,7.05159338 10.7446421,7.29433547 10.4783329,7.51468874 Z" id="Shape" fill="#966156"></path>
                <path d="M6.71111695,10.939002 C6.91850825,10.6597307 7.15889363,10.40167 7.46173207,10.2237376 C7.21427653,10.4653014 6.96564264,10.7056868 6.71111695,10.939002 Z" id="Shape" fill="#966156"></path>
                <path d="M25.3068111,7.64312994 C25.5990443,7.82931077 25.8417864,8.07912302 26.0644964,8.34425395 C25.7958304,8.12743577 25.5507316,7.88469368 25.3068111,7.64312994 Z" id="Shape" fill="#B07545"></path>
                <path d="M9.18567228,8.6965835 C9.4130957,8.35957263 9.68647515,8.04141551 10.0682637,7.87408844 C9.78074392,8.1557164 9.49911596,8.44323617 9.18567228,8.6965835 Z" id="Shape" fill="#8F5C5A"></path>
                <path d="M26.4804574,8.70718874 C26.777404,8.88865613 27.0213245,9.13964674 27.2416777,9.40831275 C26.9718333,9.19031621 26.7267345,8.94757411 26.4804574,8.70718874 Z" id="Shape" fill="#AA7149"></path>
                <path d="M7.995529,9.75121542 C8.19585015,9.46133893 8.44684076,9.20681324 8.76735459,9.05126976 C8.5128289,9.28812006 8.26065993,9.52732708 7.995529,9.75121542 Z" id="Shape" fill="#835361"></path>
                <path d="M27.79315,9.88201334 C28.0229302,10.0493404 28.2303215,10.2461265 28.4259292,10.4535178 C28.2079327,10.2696937 27.999363,10.0764427 27.79315,9.88201334 Z" id="Shape" fill="#A16A4F"></path>
                <path d="M8.12986201,26.2341107 C8.47394303,26.4497505 8.76617624,26.7384486 8.98888622,27.0789946 C8.65305371,26.8527495 8.36199886,26.562873 8.12986201,26.2341107 Z" id="Shape" fill="#8D5B5B"></path>
                <path d="M16.6058032,26.3213093 C16.8332266,28.2526408 16.7401362,30.2016477 16.7377795,32.1424061 C14.5330685,32.1400494 12.3271792,32.1918972 10.124825,32.0740613 C12.29065,32.0481374 14.4564751,32.0151433 16.624657,32.0222134 C16.6293704,30.1592268 16.6187652,28.2962401 16.6058032,26.4332535 L16.6058032,26.3213093 Z" id="Shape" fill="#DF9929"></path>
                <path d="M26.8799213,26.9741206 C27.0684588,26.7643725 27.2676016,26.562873 27.478528,26.3731571 C27.3123793,26.605294 27.1108798,26.8091502 26.8799213,26.9741206 Z" id="Shape" fill="#E19A27"></path>
            </g>
            <path d="M17.6396189,26.4601857 C13.7891666,27.977867 11.3857782,28.2672798 10.4294539,27.3284241 C8.99496739,25.9201407 5.86029535,23.8262542 11.3490503,13.3125384 C12.7986426,10.535843 15.3470998,7.98461776 18.994422,5.65886288 C22.5816204,8.18351543 25.0818041,10.7347406 26.4949729,13.3125384 C28.6147262,17.1792352 32.5166678,25.7031974 25.985351,27.8292019 C25.1111947,28.1137479 23.2256135,27.6574092 20.3286074,26.4601857 L20.3286074,32.0011359 L17.6396189,32.0011359 L17.6396189,26.4601857 Z" id="Path-2" fill="#4B2884"></path>
        </g>
    </g>
</svg>