<?xml version="1.0" encoding="UTF-8" standalone="no"?>
<svg width="32px" height="32px" viewBox="0 0 32 32" version="1.1" xmlns="http://www.w3.org/2000/svg" xmlns:xlink="http://www.w3.org/1999/xlink">
    <!-- Generator: Sketch 49.1 (51147) - http://www.bohemiancoding.com/sketch -->
    <title>sofort</title>
    <desc>Created with Sketch.</desc>
    <defs></defs>
    <g id="Page-1" stroke="none" stroke-width="1" fill="none" fill-rule="evenodd">
        <g id="sofort">
            <rect id="Rectangle-6-Copy-13" fill="#EE7F00" x="0" y="0" width="32" height="32" rx="2"></rect>
            <path d="M20.2538048,8 C18.8747334,8 17.535057,7.99989424 16.3344947,8.59881031 C15.1348067,9.19775071 14.0750803,10.3965156 13.2595373,12.7939937 C13.082779,13.3094608 12.9892863,13.7535712 12.9770365,14.1390962 C12.9647899,14.5254811 13.0330656,14.8541668 13.1818229,15.1398673 C13.365582,15.4883878 13.6631029,15.8162751 14.0349982,16.0925103 C14.4077677,16.3696054 14.8530522,16.5942914 15.3334537,16.7380031 C15.3518289,16.743164 15.603951,16.813682 15.9102181,16.8997369 C16.2147333,16.9857917 16.570817,17.0889528 16.7965779,17.1560749 C16.9287095,17.19566 17.0738448,17.2473489 17.2051022,17.3256591 C17.3372338,17.4022476 17.4554434,17.505451 17.5298209,17.6483018 C17.5788245,17.7429611 17.60512,17.847128 17.6077451,17.9581373 C17.6112401,18.0700086 17.5918819,18.1906007 17.5472541,18.3179612 C17.4352496,18.6432468 17.2654813,18.8532028 16.9417143,18.9814242 C16.619697,19.1096445 16.1445972,19.1508011 15.4235599,19.1559652 L6.42279802,19.1559652 L5,23 L14.6342362,23 C15.5407834,23 17.198096,23.0001058 18.7906795,22.3340591 C20.3832619,21.6688574 21.9112637,20.339298 22.5579223,17.6776326 C22.8011853,16.677679 22.7258668,15.8627364 22.3277211,15.2224903 C21.9278248,14.5831051 21.2050368,14.1185042 20.1523564,13.8216166 C20.1523564,13.8216166 19.9170428,13.754303 19.6396532,13.6759939 C19.3640134,13.5976847 19.0445942,13.5082636 18.8818364,13.4617938 C18.612322,13.3860662 18.4048934,13.2328691 18.2823876,13.0375245 C18.1607562,12.8430418 18.1239927,12.6063747 18.1931213,12.3645602 C18.2657491,12.1132816 18.4407901,11.9127665 18.6928024,11.774219 C18.9465655,11.6365302 19.279069,11.5608449 19.6675888,11.5608449 L25.2678333,11.5608449 C25.30721,11.5049098 25.3431379,11.4438909 25.3825145,11.3879558 C26.405442,9.96461384 27.6436797,8.81321556 29,8 L20.2538048,8 L20.2538048,8 Z" id="path66-path" fill="#FFFFFF"></path>
        </g>
    </g>
</svg>