<?xml version="1.0" encoding="UTF-8" standalone="no"?>
<svg width="32px" height="32px" viewBox="0 0 32 32" version="1.1" xmlns="http://www.w3.org/2000/svg" xmlns:xlink="http://www.w3.org/1999/xlink">
    <!-- Generator: Sketch 49.1 (51147) - http://www.bohemiancoding.com/sketch -->
    <title>unionpay</title>
    <desc>Created with Sketch.</desc>
    <defs>
        <rect id="path-1" x="0" y="0" width="32" height="32" rx="2"></rect>
    </defs>
    <g id="Page-1" stroke="none" stroke-width="1" fill="none" fill-rule="evenodd">
        <g id="unionpay">
            <g id="Rectangle-path-Copy-2" fill-rule="nonzero">
                <use fill="#FFFFFF" fill-rule="evenodd" xlink:href="#path-1"></use>
                <rect stroke="#D0D5DF" stroke-width="1" x="0.5" y="0.5" width="31" height="31" rx="2"></rect>
            </g>
            <g transform="translate(4.000000, 8.000000)">
                <g id="Group-2">
                    <g id="Group-8">
                        <path d="M8.9116939,1.48552249 C9.09149518,0.675070716 10.0919695,0.0181052828 10.887139,0.00142414815 L4.79687764,0 C3.99726589,0 2.97207169,0.664493434 2.78933544,1.48552249 L0.0588357083,13.8751815 C0.042219219,13.9507947 0.0330006339,14.0248932 0.0275005944,14.0974049 L0.0275005944,14.3272567 C0.0809523165,14.9191366 0.521620229,15.3501465 1.15505987,15.36 L7.2774284,15.36 C6.49071721,15.3478421 6.00066365,14.6871431 6.18119845,13.8751816 L8.9116939,1.48552249 Z" id="path16" fill="#DD0228"></path>
                        <path d="M15.356542,1.48423584 C15.5364129,0.679711512 16.5240162,0.027262163 17.3169743,0.00234067926 L15.0219864,0.000814595117 L10.0938837,0 C9.29871416,0.0166826801 8.2982405,0.673710282 8.11843859,1.48423584 L5.3879425,13.875044 C5.2074077,14.6870807 5.69746127,15.347841 6.48417245,15.36 L13.7235249,15.36 C12.9363174,15.347841 12.446978,14.6870807 12.6268489,13.875044 L15.356542,1.48423584 Z" id="path20" fill="#024381"></path>
                        <path d="M16.5383935,0 C15.7307603,0.0257387175 14.7431558,0.678252897 14.5632849,1.48285709 L11.8335931,13.8748965 C11.6537222,14.6870138 12.1430617,15.3478398 12.9302691,15.36 L18.9941157,15.36 C19.7693242,15.3206581 20.5226196,14.6756484 20.6994173,13.8801868 L23.4292095,1.48804554 C23.6119551,0.6676722 23.1108154,0.00152623578 22.3105197,0.00152623578 L16.5383935,0 Z" id="path22" fill="#01798A"></path>
                    </g>
                </g>
                <path d="M10.205534,8.83592821 L10.3057816,8.83592821 C10.3978988,8.83592821 10.4598719,8.8050209 10.4889242,8.74382129 L10.7494098,8.35397593 L11.4469789,8.35397593 L11.3015164,8.61038605 L12.1379053,8.61038605 L12.0318078,9.00325562 L11.036568,9.00325562 C10.9219432,9.17569945 10.7808429,9.25677044 10.6111855,9.2471622 L10.0927925,9.2471622 L10.2055339,8.83592821 L10.205534,8.83592821 Z M10.0910077,9.39900113 L11.9234286,9.39900113 L11.8066214,9.82576287 L11.0696872,9.82576287 L10.9572435,10.237691 L11.6743463,10.237691 L11.557539,10.6644123 L10.8404363,10.6644123 L10.6738521,11.2731081 C10.6326025,11.3748529 10.6868422,11.4206041 10.835677,11.4102224 L11.4201077,11.4102224 L11.3118279,11.8067704 L10.1897683,11.8067704 C9.97707587,11.8067704 9.9041164,11.6851047 9.97082954,11.4412089 L10.1838179,10.6644123 L9.72543536,10.6644123 L9.8418758,10.237691 L10.3003274,10.237691 L10.4126731,9.82576287 L9.97449835,9.82576287 L10.0910078,9.39900113 L10.0910077,9.39900113 Z M13.0157423,8.35107023 L12.9868873,8.60089633 C12.9868873,8.60089633 13.3325484,8.34138267 13.6464798,8.34138267 L14.8065172,8.34138267 L14.362889,9.94726944 C14.3261009,10.1308588 14.168343,10.2221529 13.8897109,10.2221529 L12.5748895,10.2221529 L12.2669086,11.3497949 C12.2491591,11.4102211 12.2742461,11.4412077 12.3405815,11.4412077 L12.5992817,11.4412077 L12.5041905,11.7912323 L11.8464826,11.7912323 C11.5940294,11.7912323 11.4890212,11.7153176 11.5306679,11.5628239 L12.4009677,8.35107023 L13.015741,8.35107023 L13.0157422,8.35107023 L13.0157423,8.35107023 Z M13.99809,8.8050209 L12.9626924,8.8050209 L12.8388454,9.23833707 C12.8388454,9.23833707 13.0112796,9.11384556 13.2994303,9.10939301 C13.5867871,9.10489153 13.9147979,9.10939301 13.9147979,9.10939301 L13.99809,8.8050209 L13.99809,8.8050209 Z M13.6229796,9.81022482 C13.6995284,9.82060655 13.7423638,9.79031417 13.7475201,9.71882175 L13.8108816,9.4904042 L12.7738982,9.4904042 L12.6869374,9.81022482 L13.6229796,9.81022482 L13.6229796,9.81022482 Z M12.9235258,10.3290639 L13.5212444,10.3290639 L13.5101389,10.5877145 L13.6692851,10.5877145 C13.7497013,10.5877145 13.7895626,10.5619642 13.7895626,10.5111463 L13.8366622,10.3438188 L14.3334385,10.3438188 L14.267103,10.5877145 C14.2109798,10.7911449 14.0622444,10.8972726 13.8204995,10.9076543 L13.5021066,10.9076543 L13.500619,11.349795 C13.4947691,11.4206029 13.5588241,11.4566962 13.6907034,11.4566962 L13.9899597,11.4566962 L13.8933797,11.8067705 L13.1755833,11.8067705 C12.9743934,11.8163388 12.8757327,11.7204742 12.8778146,11.5171225 L12.9235258,10.329064 L12.9235258,10.3290639 Z" id="path24" fill="#FFFFFF"></path>
                <path d="M5.68053493,6.21157016 C5.59946394,6.60881294 5.41153227,6.91391922 5.12002018,7.13058667 C4.83115613,7.34358594 4.45857369,7.45040792 4.0024219,7.45040792 C3.57314157,7.45040792 3.25842738,7.34133524 3.05759459,7.12245579 C2.91830877,6.96693838 2.84901811,6.76943718 2.84901811,6.53064765 C2.84901811,6.43191672 2.86083746,6.32578901 2.88442691,6.21157023 L3.37044502,3.86801421 L4.10448418,3.86801421 L3.62508008,6.18503551 C3.61032544,6.2491704 3.60443559,6.30886315 3.60520902,6.36266533 C3.60443559,6.48134624 3.63390489,6.57859989 3.69359755,6.65447457 C3.78055815,6.76726564 3.92169828,6.82323992 4.11810827,6.82323992 C4.34396821,6.82323992 4.53007579,6.7680094 4.67451792,6.65668593 C4.81898973,6.54614565 4.91330777,6.3891999 4.95567739,6.18503543 L5.43658908,3.86801413 L6.16690953,3.86801413 L5.68053493,6.21157016" id="path28" fill="#FFFFFF"></path>
                <path d="M8.76326589,5.28959837 L9.33814825,5.28959837 L8.88783673,7.38115652 L8.31408491,7.38115652 L8.76326589,5.28959837 M8.94422739,4.52760654 L9.52422617,4.52760654 L9.41588757,5.03529069 L8.83592813,5.03529069 L8.94422739,4.52760654" id="path34" fill="#FFFFFF"></path>
                <path d="M9.84702197,7.22196006 C9.69666032,7.07826168 9.62074566,6.88443961 9.62001213,6.63829255 C9.62001213,6.59625975 9.6225703,6.54838676 9.62814308,6.49602187 C9.63368556,6.44295313 9.64069628,6.39136176 9.65061198,6.34348876 C9.7187824,6.00375687 9.86398773,5.73402013 10.0876362,5.53501198 C10.3109379,5.33529998 10.5803479,5.23506211 10.8957656,5.23506211 C11.1540701,5.23506211 11.3589275,5.30729829 11.5089521,5.45174042 C11.6588774,5.59694575 11.7340392,5.79293937 11.7340392,6.04211119 C11.7340392,6.08478788 11.7307662,6.13417821 11.725214,6.18723719 C11.7185701,6.24103945 11.710539,6.29263083 11.7012177,6.34348869 C11.6345845,6.67806426 11.4898155,6.94486572 11.2661167,7.14019545 C11.0424192,7.33696249 10.7738021,7.43490968 10.4605655,7.43490968 C10.2011717,7.43490968 9.99700659,7.36419076 9.84702197,7.22195998 M10.9425674,6.80778111 C11.0439068,6.6979749 11.1164892,6.53138102 11.1607128,6.30959651 C11.1673567,6.27497081 11.1732066,6.23883825 11.1768755,6.20273527 C11.1805442,6.16733615 11.1820318,6.13417813 11.1820318,6.103965 C11.1820318,5.97498167 11.1492114,5.87478306 11.0832718,5.80401512 C11.0177292,5.73251302 10.9245214,5.69718355 10.8040454,5.69718355 C10.6448,5.69718355 10.5151018,5.75311792 10.4134659,5.86517483 C10.3109379,5.97723238 10.2383556,6.14672157 10.1926432,6.37223414 C10.1863962,6.40685983 10.1812411,6.4415248 10.1764805,6.47541697 C10.1728118,6.51004267 10.1717211,6.54246716 10.1724159,6.57193646 C10.1724159,6.70018634 10.2052363,6.79895653 10.2711759,6.86894137 C10.3367185,6.93897587 10.4295293,6.97360149 10.5515922,6.97360149 C10.7115324,6.97360149 10.8412293,6.91833107 10.9425674,6.80778103" id="path36" fill="#FFFFFF"></path>
                <path d="M15.4639286,8.85363772 L15.6025499,8.36578521 L16.303392,8.36578521 L16.2731486,8.54481306 C16.2731486,8.54481306 16.6313036,8.36578521 16.8892111,8.36578521 L17.7558433,8.36578521 L17.6181141,8.85363772 L17.4817733,8.85363772 L16.8280307,11.1545058 L16.9643716,11.1545058 L16.8346746,11.6114413 L16.6983338,11.6114413 L16.6416163,11.8096754 L15.962886,11.8096754 L16.0195055,11.6114413 L14.6804892,11.6114413 L14.8109801,11.1545058 L14.9451398,11.1545058 L15.5994767,8.85363772 L15.4639287,8.85363772 L15.4639286,8.85363772 Z M16.2200999,8.85363772 L16.0417166,9.47634342 C16.0417166,9.47634342 16.3469221,9.35921911 16.6099846,9.32606102 C16.6680916,9.10860983 16.744045,8.85363764 16.744045,8.85363764 L16.2200998,8.85363764 L16.2200999,8.85363772 Z M15.9591193,9.76824167 L15.7801404,10.420467 C15.7801404,10.420467 16.1183648,10.253913 16.3504916,10.2398916 C16.4175218,9.98781537 16.4846513,9.76824175 16.4846513,9.76824175 L15.9591193,9.76824175 L15.9591193,9.76824167 Z M16.0903038,11.1545058 L16.2244622,10.6813786 L15.7013111,10.6813786 L15.5664567,11.1545058 L16.0903038,11.1545058 L16.0903038,11.1545058 Z M17.785392,8.33558183 L18.4442896,8.33558183 L18.4722526,8.57870524 C18.4678891,8.6405991 18.5046771,8.67015732 18.5828129,8.67015732 L18.6992231,8.67015732 L18.5814245,9.0820855 L18.0971421,9.0820855 C17.9122141,9.09165383 17.8171217,9.02096513 17.8082978,8.8683527 L17.785392,8.33558183 L17.785392,8.33558183 Z M17.5923336,9.21919985 L19.7265885,9.21919985 L19.6013531,9.66141009 L18.92183,9.66141009 L18.8053205,10.0725642 L19.48415,10.0725642 L19.3581207,10.5140512 L18.6020487,10.5140512 L18.4310029,10.7727914 L18.8010575,10.7727914 L18.8865307,11.2908466 C18.8967429,11.342438 18.9424554,11.3674948 19.0205911,11.3674948 L19.1355138,11.3674948 L19.01474,11.7941374 L18.6078998,11.7941374 C18.397092,11.8045191 18.2881186,11.7337607 18.2791942,11.5812283 L18.1811278,11.1080999 L17.8443911,11.6114414 C17.7647677,11.7536624 17.6424071,11.8200184 17.477411,11.8096755 L16.856093,11.8096755 L16.9769648,11.3829143 L17.1708172,11.3829143 C17.2504406,11.3829143 17.3166767,11.3475448 17.3763695,11.2760821 L17.9033891,10.5140512 L17.223866,10.5140512 L17.349796,10.0725642 L18.0868295,10.0725642 L18.2040325,9.66141009 L17.4663055,9.66141009 L17.5923336,9.21919985 L17.5923336,9.21919985 Z" id="path26" fill="#FFFFFF"></path>
                <path d="M6.35669616,5.28886485 L6.87513821,5.28886485 L6.81584249,5.59101585 L6.89025021,5.50479877 C7.05831114,5.32499749 7.26243571,5.23579611 7.50343668,5.23579611 C7.72158204,5.23579611 7.8789145,5.29920716 7.9776847,5.4266733 C8.07493771,5.55418902 8.10147235,5.73034156 8.05546335,5.95658821 L7.76984174,7.3818906 L7.23702185,7.3818906 L7.4949486,6.08998418 C7.52152323,5.95658829 7.5141657,5.85708386 7.4731842,5.79293929 C7.432708,5.72883461 7.35527607,5.69718355 7.24364522,5.69718355 C7.10657084,5.69718355 6.9912216,5.73987055 6.89726029,5.82465992 C6.80290258,5.91014284 6.74066198,6.02882384 6.71006214,6.17987966 L6.47239221,7.3818906 L5.93846176,7.3818906 L6.35669616,5.28886485" id="path30" fill="#FFFFFF"></path>
                <path d="M12.3022092,5.28886485 L12.8210973,5.28886485 L12.7621986,5.59101585 L12.8357735,5.50479877 C13.0039433,5.32499749 13.2088019,5.23579611 13.4490592,5.23579611 C13.6672045,5.23579611 13.8248644,5.29920716 13.9228303,5.4266733 C14.0195083,5.55418902 14.0474713,5.73034156 14.0002724,5.95658821 L13.7157904,7.3818906 L13.1822273,7.3818906 L13.4402339,6.08998418 C13.4667081,5.95658829 13.4593705,5.85708386 13.4188157,5.79293929 C13.3767732,5.72883461 13.3008187,5.69718355 13.1896641,5.69718355 C13.0525304,5.69718355 12.9376066,5.73987055 12.8425154,5.82465992 C12.7481178,5.91014284 12.6855503,6.02882384 12.6560998,6.17987966 L12.4173302,7.3818906 L11.8840636,7.3818906 L12.302209,5.28886485" id="path32" fill="#FFFFFF"></path>
                <path d="M14.8670028,3.99176181 L16.3733961,3.99176181 C16.6630333,3.99176181 16.8870286,4.05740365 17.0410197,4.18630773 C17.194316,4.31679864 17.2710634,4.5040071 17.2710634,4.74793336 L17.2710634,4.7552709 C17.2710634,4.8016766 17.2679902,4.85403085 17.2636266,4.9107496 C17.2561899,4.96677266 17.246572,5.02349046 17.2341773,5.08248894 C17.1678419,5.40529442 17.0137515,5.66472875 16.7757748,5.86149587 C16.5369059,6.05751971 16.2540108,6.15628998 15.9282803,6.15628998 L15.1204474,6.15628998 L14.8706716,7.38189004 L14.1712178,7.38189004 L14.8670027,3.99176189 M15.2435015,5.56673206 L15.9135059,5.56673206 C16.0881212,5.56673206 16.2266433,5.52613727 16.3276836,5.44585002 C16.4279324,5.36477904 16.4942678,5.24099138 16.5310547,5.07297035 C16.5369058,5.04193413 16.5405746,5.01397178 16.5450361,4.98819065 C16.5473166,4.96389735 16.5501925,4.93950481 16.5501925,4.91600405 C16.5501925,4.79582586 16.5075545,4.7088659 16.4219819,4.65432956 C16.3365087,4.59899917 16.2024494,4.57252505 16.0166281,4.57252505 L15.4476652,4.57252505 L15.2435013,5.56673206" id="path38" fill="#FFFFFF"></path>
                <path d="M20.4016486,7.78653026 C20.180528,8.25668286 19.9698194,8.5307929 19.8460717,8.65829894 C19.7221254,8.78437673 19.4768111,9.07770324 18.8857365,9.05555149 L18.9366041,8.69668237 C19.4339759,8.54338544 19.7029889,7.85276712 19.8562852,7.5469673 L19.6735383,5.29475477 L20.0582679,5.289599 L20.3810231,5.289599 L20.4157281,6.70239722 L21.0206849,5.289599 L21.6331777,5.289599 L20.4016485,7.78653026" id="path40" fill="#FFFFFF"></path>
                <path d="M18.6890095,5.4598314 L18.4456778,5.62715881 C18.1914392,5.42819064 17.9593124,5.30509708 17.5113217,5.51290013 C16.90101,5.79588425 16.3910463,7.96633162 18.0713602,7.25143967 L18.1671462,7.36492492 L18.828225,7.38189068 L19.2623346,5.4097077 L18.6890095,5.45983148 M18.313105,6.53804444 C18.2069083,6.85128159 17.9697243,7.05835112 17.7840035,6.99940221 C17.5982826,6.94192091 17.5319461,6.63972033 17.6395311,6.32578893 C17.7456298,6.01181881 17.9843994,5.80548288 18.1686326,5.86444147 C18.3543546,5.92192277 18.4213848,6.22407377 18.313105,6.53804444" id="path42" fill="#FFFFFF"></path>
            </g>
        </g>
    </g>
</svg>