<?xml version="1.0" encoding="UTF-8"?>
<svg width="52px" height="52px" viewBox="0 0 52 52" version="1.1" xmlns="http://www.w3.org/2000/svg" xmlns:xlink="http://www.w3.org/1999/xlink">
    <!-- Generator: Sketch 51.3 (57544) - http://www.bohemiancoding.com/sketch -->
    <title>vietinbank</title>
    <desc>Created with Sketch.</desc>
    <defs>
        <path d="M20.6564672,19.5655985 C24.5675257,19.8254227 30.3701918,22.724431 30.3967559,22.6825095 C31.005862,21.8112585 31.8888889,18.9805949 31.8888889,15.9444444 C31.8888889,7.13857093 24.750318,0 15.9444444,0 C7.13857093,0 -5.68434189e-14,7.13857093 -5.68434189e-14,15.9444444 C-5.68434189e-14,18.2899824 0.748198665,21.5185926 1.47530591,22.4989495 C1.46802843,22.5036751 6.18708049,20.3433308 11.3021582,19.3376452 C11.2936551,19.3374122 11.2936551,16.6720048 11.3021582,11.3414229 L20.6564672,11.3414799 C20.6492163,16.8349006 20.6492163,19.5762735 20.6564672,19.5655985 Z" id="path-1"></path>
        <radialGradient cx="50%" cy="50%" fx="50%" fy="50%" r="50%" id="radialGradient-3">
            <stop stop-color="#FFFFFF" offset="0%"></stop>
            <stop stop-color="#3F88D2" offset="100%"></stop>
        </radialGradient>
    </defs>
    <g id="vietinbank" stroke="none" stroke-width="1" fill="none" fill-rule="evenodd">
        <rect id="Rectangle" fill="#BC010C" fill-rule="nonzero" x="0" y="0" width="52" height="52" rx="4"></rect>
        <g id="Group-23" transform="translate(10.000000, 10.000000)">
            <g id="#2b81ceff">
                <path d="M10.2277778,1.12333333 C14.3177778,-0.461111111 19.0655556,-0.283333333 23.0033333,1.66111111 C26.5211111,3.36333333 29.3611111,6.41222222 30.8111111,10.0411111 C32.4588889,14.0944444 32.3077778,18.8188889 30.43,22.7677778 C30.2088889,22.66 29.9866667,22.5533333 29.7666667,22.4488889 C29.7411111,22.0555556 30.0755556,21.7911111 30.1788889,21.4377778 C30.3811111,20.5166667 30.7144444,19.6222222 30.7044444,18.6655556 C30.7555556,18.8155556 30.8066667,18.9644444 30.8622222,19.1155556 C30.8955556,18.2922222 31.0611111,17.4855556 31.1622222,16.67 C31.2688889,15.8555556 30.9266667,15.0744444 30.9488889,14.2622222 C30.9666667,13.2833333 30.4911111,12.4 30.2722222,11.4677778 C30.0511111,10.5033333 29.54,9.64666667 29.0766667,8.78444444 C28.7955556,8.30222222 28.5511111,7.79444444 28.2033333,7.35444444 C27.5444444,6.57111111 26.94,5.73333333 26.1533333,5.06666667 C25.4233333,4.45888889 24.7155556,3.81111111 23.8922222,3.32888889 C23.2455556,2.90333333 22.4855556,2.69666667 21.8422222,2.26666667 C21.2722222,1.88888889 20.5655556,1.87555556 19.9411111,1.63888889 C19.2944444,1.39777778 18.59,1.44444444 17.9344444,1.25222222 C17.5555556,1.14444444 17.1744444,1.02666667 16.7788889,1.02444444 C15.7788889,1.01222222 14.7755556,1.00888889 13.7844444,1.15333333 C13.9288889,1.2 14.0744444,1.24555556 14.2222222,1.29 C13.0777778,1.31333333 11.9311111,1.49555556 10.8533333,1.88555556 C9.87,2.31333333 8.84888889,2.67555556 7.96222222,3.29333333 C6.97666667,3.83 6.12333333,4.56111111 5.25,5.25666667 C4.73222222,5.69333333 4.25666667,6.17888889 3.80888889,6.68555556 C3.03777778,7.59444444 2.66555556,8.74555556 2.10666667,9.77888889 C1.46777778,10.8566667 1.21444444,12.1044444 0.954444444,13.3133333 C0.9,13.1711111 0.845555556,13.0288889 0.794444444,12.8866667 C0.917777778,14.2588889 0.703333333,15.6288889 0.655555556,17 C0.634444444,18.1422222 0.848888889,19.2733333 1.18111111,20.3633333 C1.36555556,20.95 1.52,21.5522222 1.80333333,22.1011111 C1.9,22.3133333 2.17888889,22.2755556 2.37,22.3244444 C2.11777778,22.4622222 1.86555556,22.5988889 1.61555556,22.7366667 C-0.401111111,18.4566667 -0.425555556,13.26 1.66111111,9 C3.37666667,5.41111111 6.51444444,2.54111111 10.2277778,1.12333333 Z" id="Shape" fill="#2B81CE" fill-rule="nonzero"></path>
                <g id="Oval">
                    <mask id="mask-2" fill="white">
                        <use xlink:href="#path-1"></use>
                    </mask>
                    <use id="Mask" fill="#D0D0D0" fill-rule="nonzero" xlink:href="#path-1"></use>
                    <circle fill="url(#radialGradient-3)" fill-rule="nonzero" mask="url(#mask-2)" cx="15.9444444" cy="15.9444444" r="15.9444444"></circle>
                </g>
            </g>
            <path d="M2.68777778,24.6844444 C7.16111111,22.3211111 12.2733333,21.2055556 17.3233333,21.43 C21.5022222,21.6422222 25.6277778,22.7888889 29.3333333,24.7277778 C27.16,28.0266667 23.7411111,30.4944444 19.8977778,31.4355556 C15.5022222,32.5566667 10.6433333,31.6811111 6.93555556,29.0622222 C5.25777778,27.8911111 3.80888889,26.3955556 2.68777778,24.6844444 Z" id="Shape" fill="#FFFFFF" fill-rule="nonzero"></path>
        </g>
    </g>
</svg>