<?xml version="1.0" encoding="UTF-8"?>
<svg width="52px" height="52px" viewBox="0 0 52 52" version="1.1" xmlns="http://www.w3.org/2000/svg" xmlns:xlink="http://www.w3.org/1999/xlink">
    <!-- Generator: Sketch 51.3 (57544) - http://www.bohemiancoding.com/sketch -->
    <title>vietcombank</title>
    <desc>Created with Sketch.</desc>
    <defs>
        <linearGradient x1="50%" y1="100%" x2="50%" y2="1.29606214%" id="linearGradient-1">
            <stop stop-color="#1C7255" offset="0%"></stop>
            <stop stop-color="#86C23F" offset="100%"></stop>
        </linearGradient>
        <linearGradient x1="11.6903108%" y1="50%" x2="85.9960168%" y2="50%" id="linearGradient-2">
            <stop stop-color="#13754C" offset="0%"></stop>
            <stop stop-color="#7DBE42" offset="100%"></stop>
        </linearGradient>
    </defs>
    <g id="vietcombank" stroke="none" stroke-width="1" fill="none" fill-rule="evenodd">
        <rect id="Rectangle" fill="#123C25" fill-rule="nonzero" x="0" y="0" width="52" height="52" rx="4"></rect>
        <g id="vietcombank-vector-logo" transform="translate(10.000000, 11.000000)">
            <g id="Group-4">
                <path d="M11.5922963,0.612923077 C9.408,1.07323077 8.608,2.10092308 8.68622222,3.58030769 C8.79407407,5.65907692 10.9973333,9.62338462 12.0497778,11.3895385 C13.8868148,14.4787692 16.0616296,17.2652308 18.4805926,19.8301538 C20.4420741,21.84 21.6663704,22.2756923 23.7605926,19.3070769 C25.5466667,16.8627692 27.1988148,14.4283077 28.6139259,11.3969231 C29.234963,10.064 29.8085926,8.61046154 30.3217778,6.97969231 C30.8728889,5.07569231 30.6725926,3.39076923 28.8817778,2.15015385 C30.6168889,3.024 31.3647407,4.64 31.4761481,6.41846154 C31.5828148,8.13784615 31.0862222,10.0110769 30.7081481,11.3895385 C29.7659259,14.8233846 28.5605926,18.2867692 27.0340741,21.3981538 C25.8808889,23.7476923 24.4112593,26.5772308 22.9463704,28.6695385 C19.7037037,33.3046154 16.589037,31.8067692 12.9398519,28.6707692 C10.6275556,26.6830769 8.40296296,24.1636923 6.496,21.4153846 C4.56888889,18.64 2.43911111,14.5329231 1.184,11.376 C-0.538074074,7.05353846 0.8,4.83938462 2.92622222,3.43507692 C5.26222222,1.89292308 8.76088889,1.01907692 11.5922963,0.612923077" id="Fill-1" fill="url(#linearGradient-1)"></path>
                <path d="M11.5164444,10.4738462 C14.8954074,9.94953846 23.6752593,9.38215385 26.7555556,11.04 C27.7854815,11.5938462 27.8139259,12.3446154 27.712,13.1950769 C28.0213333,12.6178462 28.3223704,12.0196923 28.6139259,11.3969231 C29.234963,10.064 29.8085926,8.61046154 30.3217778,6.97969231 C30.8728889,5.07569231 30.6725926,3.39076923 28.8817778,2.15015385 L28.8734815,2.14523077 C28.205037,1.78338462 27.437037,1.52 26.7484444,1.312 C24.7158519,0.701538462 22.4651852,0.450461538 20.2014815,0.281846154 C19.2663704,0.210461538 18.2885926,0.217846154 17.2977778,0.221538462 C15.5093333,0.227692308 13.5454815,0.340923077 11.5911111,0.612923077 C9.408,1.07323077 8.608,2.10092308 8.68622222,3.58030769 C8.77866667,5.35138462 10.3917037,8.49107692 11.5164444,10.4738462" id="Fill-3" fill="url(#linearGradient-2)"></path>
            </g>
        </g>
    </g>
</svg>