<svg id="Layer_1" data-name="Layer 1" xmlns="http://www.w3.org/2000/svg" viewBox="0 0 16 20"><defs><style>.cls-1{fill:#6e7c91;}</style></defs><title>Untitled-2</title><path class="cls-1" d="M14.19,5.67h-.94V5.3A5.35,5.35,0,0,0,8,0,5.35,5.35,0,0,0,2.75,5.3v.36H1.81A1.84,1.84,0,0,0,0,7.52V18.14A1.84,1.84,0,0,0,1.81,20H14.19A1.83,1.83,0,0,0,16,18.14V7.52A1.83,1.83,0,0,0,14.19,5.67ZM3.62,5.29A4.47,4.47,0,0,1,8,.88a4.47,4.47,0,0,1,4.38,4.4v.38H3.61ZM15.13,17.44a1.66,1.66,0,0,1-1.63,1.68H2.5A1.66,1.66,0,0,1,.87,17.44V8.23A1.66,1.66,0,0,1,2.5,6.55h11a1.66,1.66,0,0,1,1.63,1.68Z"/></svg>