<svg id="Layer_1" data-name="Layer 1" xmlns="http://www.w3.org/2000/svg" viewBox="0 0 140 24"><defs><style>.cls-1{fill:#8fb850;}</style></defs><title>iq.deposit.icons</title><path id="Neteller" class="cls-1" d="M130.9,10.47a6.16,6.16,0,0,1-3.53.82H125.8L127,4.86h1.15a5.42,5.42,0,0,1,2.93.63,2.51,2.51,0,0,1,1.13,2.24A3.14,3.14,0,0,1,130.9,10.47ZM37.38,18.56H25.24L26,14.35h7.61l.86-4.74H27l.73-4.17H39.8ZM137.44,1.82C135.66.61,133,0,129.42,0h-9.27L116.7,18.56H104.56l.78-4.21h7.31l.87-4.73h-7.31L107,5.44h7.53l1-5.44h-15.3L97,17.6H91.34L94.64,0h-8L83.37,17.6H77.9L81.2,0h-8L69.75,18.56H57.52l.77-4.21h7.34l.87-4.7H59.17l.78-4.2h7.62l1-5.44H20.88L18.17,14.71,12.76,0H4.47L0,24H7.92l2.7-15.11L15.87,24h28.4L47.73,5.44h4.44L48.72,24h74.73l2.17-11.72L129.12,24h7.93l-3.63-9.57.83-.18a7.12,7.12,0,0,0,4.25-2.48A7.62,7.62,0,0,0,140,6.93,5.72,5.72,0,0,0,137.44,1.82Z"/></svg>