<svg id="Layer_1" data-name="Layer 1" xmlns="http://www.w3.org/2000/svg" viewBox="0 0 140 65"><defs><style>.cls-1{fill:#fff;}.cls-2{fill:#ff9e16;}</style></defs><title>iq.deposit.icons</title><g id="QIWI"><path class="cls-1" d="M130.3,17.94h-2.21c-.42,0-.63.11-.74.63l-3.9,15.07-4.74-15c-.21-.63-.21-.63-.42-.74H117c-.42,0-.42.21-.63.63l-4.64,15.07-3.8-15c-.21-.74-.32-.74-.95-.74h-3.06c-.32,0-.63.11-.63.53a1.84,1.84,0,0,0,.11.53l6.22,21.5c.11.53.32.63.95.63h1.48c.32,0,.42-.11.53-.63l4.43-14,4.85,14c.11.53.21.63.53.63h1.69c.42,0,.53-.11.74-.63L130.93,19a3.73,3.73,0,0,1,.11-.63c0-.42-.32-.42-.74-.42Zm-51,21a5.12,5.12,0,0,1-4.43-2.74,14,14,0,0,1-1.48-6.74c0-2.21.32-4.85,1.48-6.64a5.37,5.37,0,0,1,4.53-2.63,5,5,0,0,1,4.22,2.53,12.16,12.16,0,0,1,1.69,6.64,14.35,14.35,0,0,1-1.37,6.74,5.32,5.32,0,0,1-4.64,2.85Zm10.44,8c-1.9-.53-6.12-2-7.17-5.69,5.9-2.21,7.38-7.9,7.38-11.8,0-7.06-4.22-12-10.54-12-5.8,0-10.65,4.11-10.65,12.33,0,5.27,2.53,10.75,9.07,11.8,2.74,6.32,11.49,7.38,12.12,7.38.95,0,1.16-.63,1.16-.95,0-.74-.53-.84-1.37-1.05Zm8.54-29H95.09c-.63,0-.63.21-.74.74V40.39c0,.63.32.74.74.74h3.16c.42,0,.74-.11.74-.74V18.68c0-.63-.21-.74-.74-.74Zm41,0H136.1c-.63,0-.63.21-.74.74V40.39c0,.63.32.74.74.74h3.16c.42,0,.74-.11.74-.74V18.68c0-.63-.21-.74-.74-.74Z"/><path class="cls-2" d="M62.19,63c-1.79-3.58-5-6.22-8.43-8.22a13.92,13.92,0,0,0-3.69-1.58,61.56,61.56,0,0,0-8.33-1.58,17.2,17.2,0,0,1-6.54-2.85A11.72,11.72,0,0,1,32.46,46c-.11-.21-.84-1.05-.74-1.26a7.66,7.66,0,0,0,.53,4.53C23.39,48.92,15.59,44.07,12,38.17,5.47,27.32,7.79,14.25,16.54,8.45s22-1.69,29.1,8.75c4.43,6.53,5.59,14.23,3.69,20.45v.11a8,8,0,0,0-7.27-1.37C45.85,36.06,48.8,39,48.8,39a7.16,7.16,0,0,1,1.27,1.26,1.45,1.45,0,0,1,.32.42,10.86,10.86,0,0,1,1.9,4.22c7.49-9.38,8.75-22.45,2.11-32.57C45.85-.61,27.82-3.88,14,5S-4.13,31.43,4.31,44.39c7,10.64,23.3,13.81,32.68,11A24.17,24.17,0,0,1,61.14,63a6.6,6.6,0,0,1,1.05,1.69s.21.42.53.21c0,0,.32-.32-.53-1.9ZM44.79,45.65v-.11h-.21a1.46,1.46,0,0,0-1.16.21,1.66,1.66,0,0,0-.21,2.42,2,2,0,0,0,1.05.84h.11v.11h.11a1.46,1.46,0,0,0,1.16-.21,1.79,1.79,0,0,0,.21-2.53,1.93,1.93,0,0,0-1.05-.74Zm5-2.11c-.63-.21-.74.53-.53.95.32,1.16.74,2,1.16,2.11s.63-.21.42-1.37c-.11-.42-.42-1.48-1.05-1.69Z"/></g></svg>