<svg width="80px" height="26px" viewBox="0 0 80 26" version="1.1" xmlns="http://www.w3.org/2000/svg" xmlns:xlink="http://www.w3.org/1999/xlink">
    <!-- Generator: Sketch 47.1 (45422) - http://www.bohemiancoding.com/sketch -->
    <desc>Created with Sketch.</desc>
    <defs></defs>
    <g id="Page-1" stroke="none" stroke-width="1" fill="none" fill-rule="evenodd">
        <g id="popup_buy_success_update-copy-2" transform="translate(-648.000000, -727.000000)" fill="#4982FF">
            <g id="footer" transform="translate(133.000000, 692.000000)">
                <g id="Group-18" transform="translate(44.000000, 22.000000)">
                    <g id="Group-17" transform="translate(471.000000, 13.000000)">
                        <path d="M76.8025714,22.858 L76.8025714,23.212 L76.3345714,23.212 L76.3345714,25 L75.9025714,25 L75.9025714,23.212 L75.4345714,23.212 L75.4345714,22.858 L76.8025714,22.858 Z M76.769,22.858 L77.411,22.858 L77.717,24.37 L77.723,24.37 L78.032,22.858 L78.671,22.858 L78.671,25 L78.275,25 L78.275,23.29 L78.269,23.29 L77.888,25 L77.552,25 L77.171,23.29 L77.165,23.29 L77.165,25 L76.769,25 L76.769,22.858 Z" id="TM" opacity="0.900000036"></path>
                        <path d="M76.205,9.215 C76.205,9.3950009 76.2374997,9.56583253 76.3025,9.7275 C76.3675003,9.88916748 76.4574994,10.0299994 76.5725,10.15 C76.6875006,10.2700006 76.8241659,10.3649996 76.9825,10.435 C77.1408341,10.5050004 77.3133324,10.54 77.5,10.54 C77.6866676,10.54 77.8591659,10.5050004 78.0175,10.435 C78.1758341,10.3649996 78.3124994,10.2700006 78.4275,10.15 C78.5425006,10.0299994 78.6324997,9.88916748 78.6975,9.7275 C78.7625003,9.56583253 78.795,9.3950009 78.795,9.215 C78.795,9.0349991 78.7625003,8.86416748 78.6975,8.7025 C78.6324997,8.54083253 78.5425006,8.4000006 78.4275,8.28 C78.3124994,8.1599994 78.1758341,8.06500035 78.0175,7.995 C77.8591659,7.92499965 77.6866676,7.89 77.5,7.89 C77.3133324,7.89 77.1408341,7.92499965 76.9825,7.995 C76.8241659,8.06500035 76.6875006,8.1599994 76.5725,8.28 C76.4574994,8.4000006 76.3675003,8.54083253 76.3025,8.7025 C76.2374997,8.86416748 76.205,9.0349991 76.205,9.215 Z M75.645,9.215 C75.645,8.95833205 75.6933329,8.71750113 75.79,8.4925 C75.8866672,8.26749888 76.0191658,8.07083417 76.1875,7.9025 C76.3558342,7.73416582 76.5524989,7.60166715 76.7775,7.505 C77.0025011,7.40833285 77.2433321,7.36 77.5,7.36 C77.756668,7.36 77.9974989,7.40833285 78.2225,7.505 C78.4475011,7.60166715 78.6441658,7.73416582 78.8125,7.9025 C78.9808342,8.07083417 79.1133329,8.26749888 79.21,8.4925 C79.3066672,8.71750113 79.355,8.95833205 79.355,9.215 C79.355,9.47166795 79.3066672,9.71249888 79.21,9.9375 C79.1133329,10.1625011 78.9808342,10.3583325 78.8125,10.525 C78.6441658,10.6916675 78.4475011,10.8216662 78.2225,10.915 C77.9974989,11.0083338 77.756668,11.055 77.5,11.055 C77.2433321,11.055 77.0025011,11.0083338 76.7775,10.915 C76.5524989,10.8216662 76.3558342,10.6916675 76.1875,10.525 C76.0191658,10.3583325 75.8866672,10.1625011 75.79,9.9375 C75.6933329,9.71249888 75.645,9.47166795 75.645,9.215 Z M77.215,9.06 L77.55,9.06 C77.6466672,9.06 77.7266664,9.04500015 77.79,9.015 C77.8533337,8.98499985 77.885,8.9166672 77.885,8.81 C77.885,8.75333305 77.8733335,8.70916683 77.85,8.6775 C77.8266666,8.64583318 77.7958335,8.62166675 77.7575,8.605 C77.7191665,8.58833325 77.6775002,8.57750002 77.6325,8.5725 C77.5874998,8.56749998 77.5450002,8.565 77.505,8.565 L77.215,8.565 L77.215,9.06 Z M76.775,8.215 L77.555,8.215 C77.8150013,8.215 78.0083327,8.2683328 78.135,8.375 C78.2616673,8.4816672 78.325,8.634999 78.325,8.835 C78.325,9.00500085 78.2775005,9.13583288 78.1825,9.2275 C78.0874995,9.31916713 77.9700007,9.37333325 77.83,9.39 L78.325,10.215 L77.845,10.215 L77.375,9.41 L77.215,9.41 L77.215,10.215 L76.775,10.215 L76.775,8.215 Z" id="®" opacity="0.900000036"></path>
                        <path d="M14.1648059,1.1289042 L12.6012333,10.8075638 L10.8914273,10.8075638 L11.8138227,5.05567465 L8.81041347,9.78439119 L8.00050537,9.78439119 L6.38068917,5.00036803 L5.43579638,10.8075638 L3.72599039,10.8075638 L5.3008117,1.1289042 L6.78564322,1.1289042 L8.75416985,7.15732644 L12.6012333,1.1289042 L14.1648059,1.1289042 Z M21.6337673,3.36882255 L20.2879167,10.8075638 L18.4263665,10.8075638 L18.5521469,10.074751 C17.9903249,10.6370378 17.2985394,10.918177 16.4767699,10.918177 C15.9484895,10.918177 15.4621434,10.7845207 15.017717,10.517204 C14.5732906,10.2498873 14.2190126,9.86504919 13.9548724,9.36267816 C13.6907322,8.86030713 13.558664,8.26807126 13.558664,7.5859528 C13.558664,6.76556707 13.7242733,6.02584835 14.0554967,5.36677442 C14.3867202,4.7077005 14.8374288,4.19151048 15.4076363,3.81818889 C15.9778437,3.4448673 16.6067396,3.2582093 17.2943426,3.2582093 C18.3341327,3.2582093 19.0678445,3.6315253 19.4955001,4.37816848 L19.6715927,3.36882255 L21.6337673,3.36882255 Z M18.1119154,8.82343856 C18.4137899,8.61603767 18.6485777,8.32798521 18.8162858,7.95927252 C18.9839939,7.59055984 19.0678466,7.16654661 19.0678466,6.68722012 C19.0678466,6.18024018 18.9315859,5.77927115 18.6590603,5.484301 C18.3865346,5.18933086 18.0071008,5.041848 17.5207474,5.041848 C17.1350188,5.041848 16.7912225,5.14554688 16.4893479,5.35294777 C16.1874734,5.56034865 15.9526856,5.84840112 15.7849776,6.2171138 C15.6172695,6.58582648 15.5334167,7.00983971 15.5334167,7.4891662 C15.5334167,7.99614614 15.6696775,8.39711517 15.9422031,8.69208532 C16.2147287,8.98705547 16.5941625,9.13453833 17.0805159,9.13453833 C17.4662445,9.13453833 17.8100409,9.03083944 18.1119154,8.82343856 Z M21.9395335,10.7038638 C21.4154458,10.5609877 21.0066635,10.3743297 20.7131744,10.1438843 L21.4678569,8.58147207 C21.761346,8.79348186 22.1198167,8.96400892 22.5432795,9.09305836 C22.9667424,9.2221078 23.3922953,9.28663155 23.8199508,9.28663155 C24.2643772,9.28663155 24.5955957,9.22441222 24.8136162,9.09997169 C25.0316367,8.97553116 25.1406453,8.79809084 25.1406453,8.56764541 C25.1406453,8.38328907 25.0442146,8.24963273 24.8513503,8.16667237 C24.658486,8.08371202 24.3482308,7.99614407 23.9205752,7.9039659 C23.4342218,7.80256991 23.0338248,7.69195776 22.7193721,7.57212614 C22.4049195,7.45229452 22.132398,7.25641884 21.9017994,6.98449324 C21.6712008,6.71256763 21.5559032,6.34155606 21.5559032,5.87144739 C21.5559032,5.05106166 21.8682548,4.41043298 22.4929674,3.94954213 C23.1176799,3.48865127 23.9373408,3.2582093 24.9519747,3.2582093 C25.4215573,3.2582093 25.8785549,3.31351538 26.3229813,3.42412918 C26.7674077,3.53474299 27.1447452,3.68683469 27.4550051,3.88040885 L26.7506347,5.45664769 C26.1971981,5.07871719 25.5305685,4.88975477 24.750726,4.88975477 C24.3230704,4.88975477 23.9981409,4.95888736 23.7759277,5.09715462 C23.5537145,5.23542188 23.4426096,5.41055778 23.4426096,5.62256757 C23.4426096,5.81614173 23.5390403,5.95671133 23.7319045,6.04428059 C23.9247688,6.13184986 24.247602,6.22633106 24.7004138,6.32772705 C25.1783818,6.42912304 25.5703936,6.53743077 25.8764608,6.65265348 C26.182528,6.7678762 26.4487606,6.95914303 26.6751665,7.22645973 C26.9015724,7.49377642 27.0147736,7.85787474 27.0147736,8.31876559 C27.0147736,9.14836913 26.6982294,9.78899781 26.0651314,10.2406709 C25.4320335,10.6923439 24.6123726,10.918177 23.6061241,10.918177 C23.0191459,10.918177 22.4636212,10.84674 21.9395335,10.7038638 Z M29.5279863,8.18049903 C29.5112155,8.25424157 29.5028302,8.35563603 29.5028302,8.48468547 C29.5028302,8.96401196 29.7418106,9.20367161 30.2197786,9.20367161 C30.4797261,9.20367161 30.7438624,9.11610366 31.0121953,8.94096514 L31.3014903,10.475724 C30.8654493,10.7706942 30.3036357,10.918177 29.6160326,10.918177 C28.9787419,10.918177 28.46724,10.7338234 28.0815114,10.3651108 C27.6957828,9.99639808 27.5029214,9.48942574 27.5029214,8.84417854 C27.5029214,8.6598222 27.5238846,8.44320675 27.5658117,8.19432568 L28.1066675,5.19394122 L27.06269,5.19394122 L27.364563,3.53474243 L28.4085405,3.53474243 L28.7355696,1.72345043 L30.6977442,1.72345043 L30.3707151,3.53474243 L32.0561728,3.53474243 L31.7542998,5.19394122 L30.0688421,5.19394122 L29.5279863,8.18049903 Z M38.3931104,7.66891274 L33.2109569,7.66891274 C33.2780401,8.68287262 33.8608169,9.18984496 34.9593048,9.18984496 C35.3031063,9.18984496 35.6322285,9.12993004 35.9466811,9.01009842 C36.2611338,8.8902668 36.5357516,8.71973974 36.7705429,8.49851213 L37.5881157,9.92265775 C37.2107725,10.2544992 36.7789307,10.5033765 36.2925773,10.6692972 C35.8062239,10.8352179 35.2947219,10.918177 34.7580561,10.918177 C34.0620676,10.918177 33.4520387,10.7822163 32.9279509,10.5102907 C32.4038632,10.238365 32.0013699,9.84891812 31.7204589,9.34193818 C31.4395478,8.83495824 31.2990944,8.24963563 31.2990944,7.5859528 C31.2990944,6.76556707 31.4688963,6.02584835 31.8085052,5.36677442 C32.148114,4.7077005 32.6197859,4.19151048 33.2235349,3.81818889 C33.827284,3.4448673 34.5148768,3.2582093 35.2863339,3.2582093 C35.9403954,3.2582093 36.5084979,3.39186565 36.9906586,3.65918234 C37.4728193,3.92649904 37.8459642,4.30903271 38.1101044,4.80679483 C38.3742446,5.30455696 38.5063128,5.88066189 38.5063128,6.5351269 C38.5063128,6.87618613 38.468579,7.25411097 38.3931104,7.66891274 Z M34.0285296,5.28381448 C33.7098843,5.55574009 33.4834818,5.9313605 33.3493154,6.41068699 L36.7076527,6.41068699 C36.7076527,5.9313605 36.5713919,5.55574009 36.2988663,5.28381448 C36.0263407,5.01188888 35.6594848,4.87592812 35.1982876,4.87592812 C34.7370904,4.87592812 34.347175,5.01188888 34.0285296,5.28381448 Z M42.2081504,3.49326246 C42.6232279,3.33655957 43.1116703,3.2582093 43.6734924,3.2582093 L43.3213072,5.24924784 C43.0865159,5.23081221 42.9355809,5.22159453 42.8684977,5.22159453 C42.273134,5.22159453 41.7972695,5.38290391 41.4408898,5.70552751 C41.0845102,6.02815111 40.8434335,6.5305146 40.7176524,7.21263307 L40.0635942,10.8075638 L38.1014196,10.8075638 L39.4472701,3.36882255 L41.3088204,3.36882255 L41.1453058,4.25372857 C41.438795,3.90345152 41.793073,3.64996535 42.2081504,3.49326246 Z M47.611917,10.4480707 C46.9536628,10.0977936 46.4484498,9.60464783 46.0962629,8.96861845 C45.744076,8.33258907 45.5679851,7.5997836 45.5679851,6.77018006 C45.5679851,5.67325983 45.7964839,4.68466377 46.2534884,3.80436224 C46.7104929,2.9240607 47.354063,2.23043037 48.1842179,1.72345043 C49.0143729,1.21647049 49.9661019,0.962984318 51.0394336,0.962984318 C51.8276615,0.962984318 52.5236396,1.11046718 53.1273886,1.40543733 C53.7311377,1.70040747 54.1881353,2.1244207 54.4983953,2.67748973 L53.0267643,4.00484876 C52.5571817,3.24898775 51.8486257,2.87106292 50.9010751,2.87106292 C50.255399,2.87106292 49.6852002,3.03698114 49.1904613,3.36882255 C48.6957225,3.70066397 48.3120961,4.15233023 48.0395705,4.72383489 C47.7670448,5.29533956 47.6307841,5.9313594 47.6307841,6.6319135 C47.6307841,7.37855668 47.846705,7.97079255 48.2785533,8.40863886 C48.7104015,8.84648517 49.3162379,9.06540505 50.0960804,9.06540505 C51.0268602,9.06540505 51.806691,8.69208905 52.4355963,7.94544587 L53.6430884,9.30045821 C52.7710064,10.4158141 51.5299853,10.9734836 49.9199878,10.9734836 C49.0395204,10.9734836 48.2701712,10.7983477 47.611917,10.4480707 Z M61.4013447,3.36882255 L60.0554942,10.8075638 L58.1939439,10.8075638 L58.3197243,10.074751 C57.7579023,10.6370378 57.0661169,10.918177 56.2443473,10.918177 C55.7160669,10.918177 55.2297208,10.7845207 54.7852944,10.517204 C54.340868,10.2498873 53.98659,9.86504919 53.7224498,9.36267816 C53.4583096,8.86030713 53.3262415,8.26807126 53.3262415,7.5859528 C53.3262415,6.76556707 53.4918507,6.02584835 53.8230742,5.36677442 C54.1542976,4.7077005 54.6050063,4.19151048 55.1752137,3.81818889 C55.7454212,3.4448673 56.374317,3.2582093 57.0619201,3.2582093 C58.1017101,3.2582093 58.8354219,3.6315253 59.2630775,4.37816848 L59.4391701,3.36882255 L61.4013447,3.36882255 Z M57.8794928,8.82343856 C58.1813674,8.61603767 58.4161551,8.32798521 58.5838632,7.95927252 C58.7515713,7.59055984 58.8354241,7.16654661 58.8354241,6.68722012 C58.8354241,6.18024018 58.6991633,5.77927115 58.4266377,5.484301 C58.1541121,5.18933086 57.7746783,5.041848 57.2883248,5.041848 C56.9025963,5.041848 56.5587999,5.14554688 56.2569254,5.35294777 C55.9550508,5.56034865 55.7202631,5.84840112 55.552555,6.2171138 C55.3848469,6.58582648 55.3009941,7.00983971 55.3009941,7.4891662 C55.3009941,7.99614614 55.4372549,8.39711517 55.7097805,8.69208532 C55.9823061,8.98705547 56.36174,9.13453833 56.8480934,9.13453833 C57.2338219,9.13453833 57.5776183,9.03083944 57.8794928,8.82343856 Z M65.0151361,3.49326246 C65.4302136,3.33655957 65.918656,3.2582093 66.480478,3.2582093 L66.1282929,5.24924784 C65.8935016,5.23081221 65.7425666,5.22159453 65.6754833,5.22159453 C65.0801197,5.22159453 64.6042552,5.38290391 64.2478755,5.70552751 C63.8914959,6.02815111 63.6504191,6.5305146 63.5246381,7.21263307 L62.8705799,10.8075638 L60.9084052,10.8075638 L62.2542558,3.36882255 L64.1158061,3.36882255 L63.9522915,4.25372857 C64.2457806,3.90345152 64.6000586,3.64996535 65.0151361,3.49326246 Z M73.9997516,0.548184622 L72.1382013,10.8075638 L70.276651,10.8075638 L70.4150095,10.0609243 C69.8448021,10.632429 69.1530166,10.918177 68.3396325,10.918177 C67.8113521,10.918177 67.325006,10.7845207 66.8805796,10.517204 C66.4361532,10.2498873 66.0818752,9.86504919 65.817735,9.36267816 C65.5535948,8.86030713 65.4215266,8.26807126 65.4215266,7.5859528 C65.4215266,6.76556707 65.5871359,6.02584835 65.9183593,5.36677442 C66.2495828,4.7077005 66.7002914,4.19151048 67.2704989,3.81818889 C67.8407063,3.4448673 68.4696022,3.2582093 69.1572052,3.2582093 C69.6519441,3.2582093 70.0858822,3.35038609 70.4590326,3.53474243 C70.8321831,3.71909878 71.1277641,3.9910203 71.3457846,4.35051517 L72.037577,0.548184622 L73.9997516,0.548184622 Z M69.974778,8.82343856 C70.2766525,8.61603767 70.5114403,8.32798521 70.6791484,7.95927252 C70.8468565,7.59055984 70.9307092,7.16654661 70.9307092,6.68722012 C70.9307092,6.18024018 70.7944485,5.77927115 70.5219229,5.484301 C70.2493972,5.18933086 69.8699634,5.041848 69.38361,5.041848 C68.9978815,5.041848 68.6540851,5.14554688 68.3522105,5.35294777 C68.050336,5.56034865 67.8155482,5.84840112 67.6478402,6.2171138 C67.4801321,6.58582648 67.3962793,7.00983971 67.3962793,7.4891662 C67.3962793,7.99614614 67.5325401,8.39711517 67.8050657,8.69208532 C68.0775913,8.98705547 68.4570251,9.13453833 68.9433785,9.13453833 C69.3291071,9.13453833 69.6729035,9.03083944 69.974778,8.82343856 Z M2.38427124,25.4835721 C1.74698057,25.2807801 1.23547863,25.0226851 0.849750066,24.7092793 L1.67990087,22.9809472 C2.08240024,23.3035708 2.53520524,23.5524482 3.03832945,23.7275867 C3.54145366,23.9027252 4.05714825,23.9902932 4.58542867,23.9902932 C5.14725071,23.9902932 5.59167043,23.8888987 5.91870117,23.6861067 C6.24573191,23.4833147 6.40924483,23.2067844 6.40924483,22.8565073 C6.40924483,22.570755 6.27927302,22.3518351 6.01932551,22.1997411 C5.759378,22.0476472 5.34430675,21.8840334 4.77409931,21.7088948 C4.20389187,21.5245385 3.73850895,21.3470982 3.3779366,21.1765686 C3.01736424,21.0060389 2.70501265,20.7502483 2.44087243,20.4091891 C2.17673222,20.0681299 2.0446641,19.6164636 2.0446641,19.0541768 C2.0446641,18.3997118 2.21027333,17.8236068 2.54149677,17.3258447 C2.87272022,16.8280826 3.34229577,16.4455489 3.95023753,16.1782322 C4.55817929,15.9109155 5.26463894,15.7772592 6.06963768,15.7772592 C6.66500133,15.7772592 7.22681494,15.8486962 7.75509537,15.9915724 C8.28337579,16.1344485 8.73618079,16.3395419 9.11352395,16.6068586 L8.34626336,18.321364 C8.01923262,18.0724829 7.6502804,17.8858249 7.23939563,17.7613844 C6.82851085,17.6369439 6.40086169,17.5747245 5.9564353,17.5747245 C5.37784245,17.5747245 4.92084481,17.6853367 4.58542867,17.9065643 C4.25001253,18.1277919 4.08230697,18.4135399 4.08230697,18.763817 C4.08230697,18.9758268 4.15358184,19.1532671 4.2961337,19.2961433 C4.43868556,19.4390194 4.61896903,19.5542404 4.83698952,19.6418097 C5.05501001,19.7293789 5.36107265,19.8330778 5.75518662,19.9529094 C6.31700866,20.1188302 6.77819894,20.2870528 7.13877129,20.4575824 C7.49934364,20.628112 7.8075026,20.8769894 8.06325741,21.2042219 C8.31901222,21.5314544 8.4468877,21.9623809 8.4468877,22.4970142 C8.4468877,23.1606971 8.27918215,23.7391064 7.94376601,24.2322596 C7.60834986,24.7254129 7.13458167,25.1079465 6.52244721,25.3798721 C5.91031275,25.6517977 5.19756414,25.7877585 4.38417999,25.7877585 C3.6881915,25.7877585 3.02156191,25.686364 2.38427124,25.4835721 Z M15.4881956,22.4831876 L10.3060422,22.4831876 C10.3731254,23.4971475 10.9559022,24.0041198 12.0543901,24.0041198 C12.3981916,24.0041198 12.7273138,23.9442049 13.0417664,23.8243733 C13.356219,23.7045417 13.6308369,23.5340146 13.8656282,23.312787 L14.6832009,24.7369326 C14.3058578,25.068774 13.874016,25.3176514 13.3876626,25.4835721 C12.9013091,25.6494928 12.3898072,25.7324519 11.8531414,25.7324519 C11.1571529,25.7324519 10.5471239,25.5964911 10.0230362,25.3245655 C9.49894848,25.0526399 9.09645514,24.663193 8.81554412,24.156213 C8.5346331,23.6492331 8.3941797,23.0639105 8.3941797,22.4002277 C8.3941797,21.5798419 8.56398158,20.8401232 8.90359042,20.1810493 C9.24319926,19.5219754 9.71487114,19.0057853 10.3186202,18.6324637 C10.9223693,18.2591422 11.609962,18.0724842 12.3814192,18.0724842 C13.0354806,18.0724842 13.6035832,18.2061405 14.0857439,18.4734572 C14.5679046,18.7407739 14.9410495,19.1233076 15.2051897,19.6210697 C15.4693299,20.1188318 15.601398,20.6949367 15.601398,21.3494018 C15.601398,21.690461 15.5636643,22.0683858 15.4881956,22.4831876 Z M11.1236149,20.0980893 C10.8049696,20.3700149 10.5785671,20.7456354 10.4444006,21.2249618 L13.802738,21.2249618 C13.802738,20.7456354 13.6664772,20.3700149 13.3939516,20.0980893 C13.121426,19.8261637 12.7545701,19.690203 12.2933729,19.690203 C11.8321757,19.690203 11.4422602,19.8261637 11.1236149,20.0980893 Z M16.9448527,25.3176522 C16.4249577,25.0411177 16.0245607,24.6516707 15.7436497,24.1492997 C15.4627387,23.6469287 15.3222853,23.0639105 15.3222853,22.4002277 C15.3222853,21.5798419 15.4983761,20.8424276 15.850563,20.1879626 C16.20275,19.5334976 16.6932887,19.0173076 17.322194,18.6393771 C17.9510993,18.2614466 18.6596552,18.0724842 19.4478832,18.0724842 C20.1690279,18.0724842 20.7916348,18.236098 21.3157225,18.5633305 C21.8398102,18.890563 22.2318219,19.3537513 22.4917695,19.9529094 L20.8314678,20.8654688 C20.5379787,20.1925681 20.0348621,19.8561229 19.3221028,19.8561229 C18.9363742,19.8561229 18.5904815,19.9598217 18.2844143,20.1672226 C17.978347,20.3746235 17.7393666,20.662676 17.5674658,21.0313887 C17.3955651,21.4001013 17.309616,21.8195057 17.309616,22.2896144 C17.309616,22.7965943 17.447973,23.1998678 17.7246914,23.4994468 C18.0014097,23.7990259 18.3871325,23.9488132 18.8818713,23.9488132 C19.603016,23.9488132 20.1564443,23.6169767 20.5421729,22.9532939 L21.9886478,23.9488132 C21.661617,24.5111 21.215101,24.9489398 20.6490862,25.2623456 C20.0830715,25.5757513 19.456272,25.7324519 18.7686689,25.7324519 C18.0726804,25.7324519 17.4647478,25.5941867 16.9448527,25.3176522 Z M29.8349504,18.1830974 L28.4890999,25.6218386 L26.6275496,25.6218386 L26.7659081,24.8198925 C26.4724189,25.1240805 26.1370078,25.3522181 25.7596647,25.504312 C25.3823215,25.656406 24.9840208,25.7324519 24.5647506,25.7324519 C23.8268351,25.7324519 23.2377693,25.5112276 22.7975357,25.0687724 C22.357302,24.6263171 22.1371884,24.0041238 22.1371884,23.2021737 C22.1371884,22.8979858 22.1665369,22.5984112 22.2252347,22.3034411 L22.9673392,18.1830974 L24.9295139,18.1830974 L24.2125654,22.1651745 C24.1790238,22.340313 24.1622533,22.5200578 24.1622533,22.7044141 C24.1622533,23.4787107 24.5395908,23.8658532 25.2942771,23.8658532 C25.7890159,23.8658532 26.1977982,23.7068483 26.5206362,23.3888336 C26.8434743,23.0708189 27.0635878,22.593804 27.1809835,21.9577746 L27.8727758,18.1830974 L29.8349504,18.1830974 Z M33.4613198,18.3075373 C33.8763973,18.1508344 34.3648397,18.0724842 34.9266618,18.0724842 L34.5744766,20.0635227 C34.3396853,20.0450871 34.1887503,20.0358694 34.121667,20.0358694 C33.5263034,20.0358694 33.0504389,20.1971788 32.6940592,20.5198024 C32.3376796,20.842426 32.0966028,21.3447895 31.9708218,22.0269079 L31.3167636,25.6218386 L29.354589,25.6218386 L30.7004395,18.1830974 L32.5619898,18.1830974 L32.3984752,19.0680034 C32.6919644,18.7177264 33.0462423,18.4642402 33.4613198,18.3075373 Z M40.9365702,22.4831876 L35.7544167,22.4831876 C35.8215,23.4971475 36.4042768,24.0041198 37.5027646,24.0041198 C37.8465662,24.0041198 38.1756883,23.9442049 38.490141,23.8243733 C38.8045936,23.7045417 39.0792114,23.5340146 39.3140027,23.312787 L40.1315755,24.7369326 C39.7542323,25.068774 39.3223905,25.3176514 38.8360371,25.4835721 C38.3496837,25.6494928 37.8381818,25.7324519 37.301516,25.7324519 C36.6055275,25.7324519 35.9954985,25.5964911 35.4714108,25.3245655 C34.9473231,25.0526399 34.5448297,24.663193 34.2639187,24.156213 C33.9830077,23.6492331 33.8425543,23.0639105 33.8425543,22.4002277 C33.8425543,21.5798419 34.0123562,20.8401232 34.351965,20.1810493 C34.6915738,19.5219754 35.1632457,19.0057853 35.7669948,18.6324637 C36.3707438,18.2591422 37.0583366,18.0724842 37.8297937,18.0724842 C38.4838552,18.0724842 39.0519578,18.2061405 39.5341185,18.4734572 C40.0162792,18.7407739 40.3894241,19.1233076 40.6535643,19.6210697 C40.9177045,20.1188318 41.0497726,20.6949367 41.0497726,21.3494018 C41.0497726,21.690461 41.0120389,22.0683858 40.9365702,22.4831876 Z M36.5719895,20.0980893 C36.2533442,20.3700149 36.0269417,20.7456354 35.8927752,21.2249618 L39.2511125,21.2249618 C39.2511125,20.7456354 39.1148518,20.3700149 38.8423262,20.0980893 C38.5698005,19.8261637 38.2029446,19.690203 37.7417474,19.690203 C37.2805502,19.690203 36.8906348,19.8261637 36.5719895,20.0980893 Z M45.6925676,25.2623456 C45.0343134,24.9120685 44.5291005,24.4189227 44.1769135,23.7828933 C43.8247266,23.1468639 43.6486357,22.4140585 43.6486357,21.5844549 C43.6486357,20.4875347 43.8771345,19.4989386 44.334139,18.6186371 C44.7911435,17.7383356 45.4347136,17.0447052 46.2648686,16.5377253 C47.0950235,16.0307453 48.0467525,15.7772592 49.1200842,15.7772592 C49.9083121,15.7772592 50.6042902,15.924742 51.2080392,16.2197122 C51.8117883,16.5146823 52.2687859,16.9386956 52.5790459,17.4917646 L51.1074149,18.8191236 C50.6378323,18.0632626 49.9292763,17.6853378 48.9817257,17.6853378 C48.3360497,17.6853378 47.7658508,17.851256 47.271112,18.1830974 C46.7763731,18.5149388 46.3927467,18.9666051 46.1202211,19.5381098 C45.8476955,20.1096144 45.7114347,20.7456343 45.7114347,21.4461884 C45.7114347,22.1928315 45.9273556,22.7850674 46.3592039,23.2229137 C46.7910522,23.66076 47.3968885,23.8796799 48.176731,23.8796799 C49.1075108,23.8796799 49.8873416,23.5063639 50.5162469,22.7597207 L51.723739,24.1147331 C50.851657,25.2300889 49.6106359,25.7877585 48.0006384,25.7877585 C47.120171,25.7877585 46.3508218,25.6126226 45.6925676,25.2623456 Z M53.0105925,25.3176522 C52.4948902,25.0411177 52.0965895,24.6516707 51.8156785,24.1492997 C51.5347674,23.6469287 51.394314,23.0639105 51.394314,22.4002277 C51.394314,21.5798419 51.5704049,20.8424276 51.9225918,20.1879626 C52.2747788,19.5334976 52.7611249,19.0173076 53.3816447,18.6393771 C54.0021646,18.2614466 54.7023353,18.0724842 55.4821778,18.0724842 C56.1697809,18.0724842 56.7693283,18.2107493 57.2808379,18.4872839 C57.7923475,18.7638184 58.1885519,19.1532653 58.4694629,19.6556363 C58.7503739,20.1580074 58.8908273,20.7410256 58.8908273,21.4047084 C58.8908273,22.2250941 58.7168328,22.9625084 58.3688386,23.6169734 C58.0208443,24.2714384 57.5344982,24.7876285 56.9097857,25.165559 C56.2850731,25.5434895 55.5828061,25.7324519 54.8029635,25.7324519 C54.1237459,25.7324519 53.5262948,25.5941867 53.0105925,25.3176522 Z M55.9475654,23.6377134 C56.2494399,23.4303125 56.4842277,23.1422601 56.6519358,22.7735474 C56.8196439,22.4048347 56.9034966,21.9808215 56.9034966,21.501495 C56.9034966,20.994515 56.7693322,20.593546 56.5009993,20.2985759 C56.2326664,20.0036057 55.8553289,19.8561229 55.3689755,19.8561229 C54.9832469,19.8561229 54.6394505,19.9598217 54.337576,20.1672226 C54.0357014,20.3746235 53.8009137,20.662676 53.6332056,21.0313887 C53.4654975,21.4001013 53.3816447,21.8241146 53.3816447,22.3034411 C53.3816447,22.810421 53.5179055,23.21139 53.7904311,23.5063602 C54.0629567,23.8013303 54.4423906,23.9488132 54.928744,23.9488132 C55.3060871,23.9488132 55.6456909,23.8451143 55.9475654,23.6377134 Z M67.2779858,15.3624595 L65.4164355,25.6218386 L63.5548853,25.6218386 L63.6932437,24.8751992 C63.1230363,25.4467038 62.4312509,25.7324519 61.6178667,25.7324519 C61.0895863,25.7324519 60.6032402,25.5987955 60.1588138,25.3314788 C59.7143874,25.0641621 59.3601094,24.6793241 59.0959692,24.176953 C58.831829,23.674582 58.6997609,23.0823461 58.6997609,22.4002277 C58.6997609,21.5798419 58.8653701,20.8401232 59.1965935,20.1810493 C59.527817,19.5219754 59.9785257,19.0057853 60.5487331,18.6324637 C61.1189406,18.2591422 61.7478364,18.0724842 62.4354395,18.0724842 C62.9301783,18.0724842 63.3641164,18.1646609 63.7372669,18.3490173 C64.1104173,18.5333736 64.4059984,18.8052952 64.6240189,19.16479 L65.3158112,15.3624595 L67.2779858,15.3624595 Z M63.2530122,23.6377134 C63.5548868,23.4303125 63.7896745,23.1422601 63.9573826,22.7735474 C64.1250907,22.4048347 64.2089435,21.9808215 64.2089435,21.501495 C64.2089435,20.994515 64.0726827,20.593546 63.8001571,20.2985759 C63.5276315,20.0036057 63.1481976,19.8561229 62.6618442,19.8561229 C62.2761157,19.8561229 61.9323193,19.9598217 61.6304448,20.1672226 C61.3285702,20.3746235 61.0937825,20.662676 60.9260744,21.0313887 C60.7583663,21.4001013 60.6745135,21.8241146 60.6745135,22.3034411 C60.6745135,22.810421 60.8107743,23.21139 61.0832999,23.5063602 C61.3558255,23.8013303 61.7352594,23.9488132 62.2216128,23.9488132 C62.6073413,23.9488132 62.9511377,23.8451143 63.2530122,23.6377134 Z M73.514299,22.4831876 L68.3321456,22.4831876 C68.3992288,23.4971475 68.9820056,24.0041198 70.0804935,24.0041198 C70.424295,24.0041198 70.7534172,23.9442049 71.0678698,23.8243733 C71.3823224,23.7045417 71.6569403,23.5340146 71.8917316,23.312787 L72.7093043,24.7369326 C72.3319612,25.068774 71.9001194,25.3176514 71.413766,25.4835721 C70.9274125,25.6494928 70.4159106,25.7324519 69.8792448,25.7324519 C69.1832563,25.7324519 68.5732273,25.5964911 68.0491396,25.3245655 C67.5250519,25.0526399 67.1225585,24.663193 66.8416475,24.156213 C66.5607365,23.6492331 66.4202831,23.0639105 66.4202831,22.4002277 C66.4202831,21.5798419 66.590085,20.8401232 66.9296938,20.1810493 C67.2693027,19.5219754 67.7409745,19.0057853 68.3447236,18.6324637 C68.9484727,18.2591422 69.6360654,18.0724842 70.4075226,18.0724842 C71.061584,18.0724842 71.6296866,18.2061405 72.1118473,18.4734572 C72.594008,18.7407739 72.9671529,19.1233076 73.2312931,19.6210697 C73.4954333,20.1188318 73.6275014,20.6949367 73.6275014,21.3494018 C73.6275014,21.690461 73.5897677,22.0683858 73.514299,22.4831876 Z M69.1497183,20.0980893 C68.831073,20.3700149 68.6046705,20.7456354 68.470504,21.2249618 L71.8288414,21.2249618 C71.8288414,20.7456354 71.6925806,20.3700149 71.420055,20.0980893 C71.1475294,19.8261637 70.7806735,19.690203 70.3194763,19.690203 C69.8582791,19.690203 69.4683636,19.8261637 69.1497183,20.0980893 Z" id="Master-Card-Secure-C"></path>
                    </g>
                </g>
            </g>
        </g>
    </g>
</svg>