<svg width="32px" height="32px" viewBox="0 0 32 32" version="1.1" xmlns="http://www.w3.org/2000/svg" xmlns:xlink="http://www.w3.org/1999/xlink" style="">
    <desc>Created with Sketch.</desc>
    <defs></defs>
    <g id="Page-1" stroke="none" stroke-width="1" fill="none" fill-rule="evenodd">
        <g id="popup_buy_success_update-copy-2" transform="translate(-177.000000, -723.000000)" fill="#4982FF">
            <g id="footer" transform="translate(133.000000, 692.000000)">
                <g id="Group-18" transform="translate(44.000000, 22.000000)">
                    <g id="Group-33" transform="translate(0.000000, 4.000000)">
                        <g id="Group-22">
                            <g id="Billing_EU" transform="translate(0.000000, 5.000000)">
                                <g id="Group-47">
                                    <path d="M27.4790703,7.06016862 L28.0828774,8.93121721 L30.0512129,8.92807892 L28.4563339,10.0804591 L29.0689281,11.9502523 L27.479698,10.7909679 L25.8904679,11.9502523 L26.5024344,10.0804591 L24.908183,8.92807892 L26.875891,8.93121721 L27.4790703,7.06016862 L27.4790703,7.06016862 Z M3.93812824,8.69710076 L4.54193527,6.82479686 L5.14636995,8.69710076 L7.11282256,8.6920795 L5.51982648,9.84634261 L6.13053774,11.7161359 L4.54193527,10.5568515 L2.95333279,11.7161359 L3.56404406,9.84634261 L1.97104798,8.6920795 L3.93812824,8.69710076 L3.93812824,8.69710076 Z M0.123850392,15.5071904 L2.09093066,15.5103287 L2.69473768,13.6380248 L3.29854471,15.5103287 L5.26625263,15.5071904 L3.6726289,16.6595705 L4.28459548,18.5293638 L2.69473768,17.3700794 L1.10613521,18.5293638 L1.71747413,16.6595705 L0.123850392,15.5071904 L0.123850392,15.5071904 Z M4.46787162,24.0835097 L2.87801383,25.2427941 L3.48935275,23.3730008 L1.89572901,22.2206207 L3.86343694,22.223759 L4.46724396,20.3508274 L5.07105099,22.223759 L7.03813125,22.2206207 L5.44450752,23.3730008 L6.05584644,25.2427941 L4.46787162,24.0835097 L4.46787162,24.0835097 Z M10.7733242,30.0945907 L9.18409406,28.9353063 L7.59549159,30.0945907 L8.20683051,28.2247974 L6.61320677,27.0711619 L8.58028703,27.0761832 L9.18409406,25.2051346 L9.78852874,27.0761832 L11.755609,27.0711619 L10.1619853,28.2247974 L10.7733242,30.0945907 L10.7733242,30.0945907 Z M10.2617829,5.02843957 L10.8731218,6.89823285 L9.28326403,5.73894846 L7.69466155,6.89823285 L8.30662813,5.02843957 L6.71363205,3.87605943 L8.679457,3.87919772 L9.28326403,2.00689382 L9.88832637,3.87919772 L11.8554066,3.87605943 L10.2617829,5.02843957 L10.2617829,5.02843957 Z M15.2949726,1.98178749 L15.898152,0.110738905 L16.5025867,1.98178749 L18.4684116,1.9786492 L16.8754156,3.13228466 L17.4880098,5.00019496 L15.898152,3.84279355 L14.3095495,5.00019496 L14.9208885,3.13228466 L13.3272647,1.9786492 L15.2949726,1.98178749 L15.2949726,1.98178749 Z M17.5865521,31.8922033 L15.9979496,30.7329189 L14.4093472,31.8922033 L15.0206861,30.02241 L13.4270623,28.8700299 L15.393515,28.8731681 L15.997322,27.0008642 L16.6017567,28.8731681 L18.5682093,28.8700299 L16.9752132,30.02241 L17.5865521,31.8922033 L17.5865521,31.8922033 Z M21.8822437,3.86476158 L22.4879337,1.993713 L23.0917407,3.86476158 L25.0581933,3.86162329 L23.4651972,5.01400344 L24.0759085,6.88379671 L22.4885613,5.72451233 L20.8987035,6.88379671 L21.5100425,5.01400344 L19.9170464,3.86162329 L21.8822437,3.86476158 L21.8822437,3.86476158 Z M24.2014401,30.1209523 L22.61221,28.9604126 L21.0223522,30.1209523 L21.6349464,28.2499037 L20.040695,27.0975236 L22.0084029,27.1025448 L22.6128376,25.2302409 L23.2166446,27.1025448 L25.1843526,27.0975236 L23.5901012,28.2499037 L24.2014401,30.1209523 L24.2014401,30.1209523 Z M29.0419388,25.2785706 L27.4545917,24.1174033 L25.8647339,25.2785706 L26.4773281,23.4087773 L24.8830767,22.2545142 L26.8507846,22.2576525 L27.4552193,20.3866039 L28.0590263,22.2576525 L30.025479,22.2545142 L28.4324829,23.4087773 L29.0419388,25.2785706 L29.0419388,25.2785706 Z M29.3005339,17.3556433 L27.7113038,18.5149277 L28.323898,16.6451344 L26.7296466,15.4908713 L28.6973546,15.4958925 L29.3011616,13.624844 L29.9055963,15.4958925 L31.8733042,15.4908713 L30.2790528,16.6451344 L30.891647,18.5149277 L29.3005339,17.3556433 L29.3005339,17.3556433 Z" id="Shape"></path>
                                </g>
                                <path d="M14.605437,16.8544631 L11.605437,16.8544631 L11.605437,18.8857131 L15.1262703,18.8857131 L15.1262703,20.1409214 L10.042937,20.1409214 L10.042937,12.5575881 L15.1158537,12.5575881 L15.1158537,13.8232131 L11.605437,13.8232131 L11.605437,15.6305047 L14.605437,15.6305047 L14.605437,16.8544631 Z M21.7825203,12.5575881 L21.7825203,17.5523797 C21.7825203,18.382245 21.5229743,19.0384884 21.0038745,19.5211297 C20.4847747,20.003771 19.7755804,20.2450881 18.8762703,20.2450881 C17.9908492,20.2450881 17.2877313,20.0107154 16.7668953,19.5419631 C16.2460594,19.0732107 15.980437,18.42912 15.9700203,17.6096714 L15.9700203,12.5575881 L17.5325203,12.5575881 L17.5325203,17.5627964 C17.5325203,18.0593267 17.6514427,18.4213022 17.8892912,18.6487339 C18.1271396,18.8761656 18.4561293,18.9898797 18.8762703,18.9898797 C19.7547469,18.9898797 20.200923,18.5280788 20.214812,17.6044631 L20.214812,12.5575881 L21.7825203,12.5575881 Z" id="EU"></path>
                            </g>
                        </g>
                    </g>
                </g>
            </g>
        </g>
    </g>
</svg>