<svg xmlns="http://www.w3.org/2000/svg" xmlns:xlink="http://www.w3.org/1999/xlink" version="1.1" viewBox="0 0 132.4 132.4">
    <circle fill="#f70" cx="66.2" cy="66.2" r="66.2"></circle>
    <path xmlns="http://www.w3.org/2000/svg" fill="#fff" d="M44.7 94.2c0 4.8-3.9 8.6-8.6 8.6-4.8 0-8.6-3.9-8.6-8.6v-31.9c0-4.8 3.9-8.6 8.6-8.6 4.8 0 8.6 3.9 8.6 8.6v31.9zM103.9 94.1c0 5.3-4.3 9.6-9.6 9.6s-9.6-4.3-9.6-9.6v-61.7c0-5.3 4.3-9.6 9.6-9.6s9.6 4.3 9.6 9.6v61.7zM73.2 95.4c0 4.6-3.7 8.3-8.3 8.3-4.6 0-8.3-3.7-8.3-8.3v-46.6c0-4.6 3.7-8.3 8.3-8.3 4.6 0 8.3 3.7 8.3 8.3v46.6zM205.9"/>
</svg>