<?xml version="1.0" encoding="UTF-8"?>
<svg width="16px" height="12px" viewBox="0 0 16 12" version="1.1" xmlns="http://www.w3.org/2000/svg" xmlns:xlink="http://www.w3.org/1999/xlink">
    <!-- Generator: Sketch 49.2 (51160) - http://www.bohemiancoding.com/sketch -->
    <title>Fill 3 Copy 9</title>
    <desc>Created with Sketch.</desc>
    <defs></defs>
    <g id="Page-1" stroke="none" stroke-width="1" fill="none" fill-rule="evenodd">
        <g id="m7-m3-request-popup" transform="translate(-633.000000, -501.000000)" fill="#FFFFFF">
            <path d="M635.237618,508.03124 C634.920794,508.365914 634.920794,508.910849 635.237618,509.245524 L640.427663,514.747128 C640.743314,515.084291 641.257273,515.084291 641.572923,514.747128 L646.762969,509.245524 C646.921381,509.078809 647,508.858595 647,508.638382 C647,508.418168 646.921381,508.199199 646.762969,508.03124 C646.444971,507.694077 645.932186,507.694077 645.615362,508.03124 L641.809955,512.064754 L641.809955,499.858459 C641.809955,499.385685 641.448541,499 641.000293,499 C640.552046,499 640.188285,499.385685 640.188285,499.858459 L640.188285,512.064754 L636.384051,508.03124 C636.068401,507.694077 635.554442,507.694077 635.237618,508.03124" id="Fill-3-Copy-9" transform="translate(641.000000, 507.000000) rotate(90.000000) translate(-641.000000, -507.000000) "></path>
        </g>
    </g>
</svg>