
<svg width="63px" height="27px" viewBox="0 0 63 27" version="1.1" xmlns="http://www.w3.org/2000/svg" xmlns:xlink="http://www.w3.org/1999/xlink">
    <!-- Generator: Sketch 47.1 (45422) - http://www.bohemiancoding.com/sketch -->
    <desc>Created with Sketch.</desc>
    <defs>
        <polygon id="path-1" points="0 0.0173614191 62.9108228 0.0173614191 62.9108228 26.3636364 0 26.3636364"></polygon>
    </defs>
    <g id="Page-1" stroke="none" stroke-width="1" fill="none" fill-rule="evenodd">
        <g id="card" transform="translate(-984.000000, -750.000000)">
            <g id="Group-9" transform="translate(393.000000, 745.000000)">
                <g id="Page-1" transform="translate(591.000000, 5.000000)">
                    <path d="M25.4421563,14.0785033 L22.2891671,22.3370732 L21.9528483,20.6591242 C21.167663,18.6014745 19.4675315,16.4431929 17.487686,15.5680488 L20.372547,26.1726608 L23.7820785,26.1710532 L28.853012,14.0785033 L25.4421563,14.0785033 Z" id="Fill-1" fill="#9B9B9B"></path>
                    <polygon id="Fill-3" fill="#9B9B9B" points="28.14469 26.1846851 30.160617 14.0667361 33.3817967 14.0667361 31.3648768 26.1846851"></polygon>
                    <g id="Group-7">
                        <mask id="mask-2" fill="white">
                            <use xlink:href="#path-1"></use>
                        </mask>
                        <g id="Clip-6"></g>
                        <path d="M43.0513276,14.3657705 C42.4147713,14.1211031 41.4104491,13.8555377 40.1644805,13.8555377 C36.9777271,13.8555377 34.739022,15.5006929 34.7194917,17.8541297 C34.6989683,19.5970233 36.3203164,20.5692627 37.5391412,21.1482982 C38.7970266,21.740837 39.2170942,22.1208592 39.2131219,22.651347 C39.2008741,23.4631541 38.2068135,23.832888 37.2829298,23.832888 C35.9952523,23.832888 35.3090427,23.6505931 34.253412,23.1998392 L33.8349996,23.0066131 L33.384147,25.718531 C34.1378852,26.0557927 35.5288417,26.3486863 36.9750789,26.3637971 C40.3571356,26.3637971 42.557442,24.7372894 42.5835928,22.2256707 C42.5971647,20.8431874 41.7365063,19.7966796 39.8761599,18.9324667 C38.7533317,18.3711142 38.0588465,17.9988082 38.0691082,17.4290965 C38.0701013,16.9265798 38.6517078,16.3874113 39.9148896,16.3874113 C40.9698582,16.3706929 41.7285617,16.6057151 42.3257263,16.8532761 L42.6130538,16.9924889 L43.0513276,14.3657705 Z" id="Fill-5" fill="#9B9B9B" mask="url(#mask-2)"></path>
                    </g>
                    <path d="M47.3407831,21.887959 C47.6079183,21.1925377 48.6241573,18.5008747 48.6241573,18.5008747 C48.6042959,18.5336685 48.8883132,17.7999878 49.0525004,17.3463404 L49.2670029,18.3909191 C49.2670029,18.3909191 49.885684,21.2825599 50.0151138,21.887959 L47.3407831,21.887959 Z M51.3133839,14.0795 L48.8244259,14.0795 C48.0528125,14.0795 47.4748472,14.2929812 47.1342251,15.0851763 L42.3522743,26.1884468 L45.7353241,26.1884468 C45.7353241,26.1884468 46.2887937,24.6940787 46.4139202,24.3664623 C46.7826792,24.3664623 50.0690704,24.373857 50.5381293,24.373857 C50.637767,24.7963182 50.9303909,26.1884468 50.9303909,26.1884468 L53.9218411,26.1884468 L51.3133839,14.0795 Z" id="Fill-8" fill="#9B9B9B"></path>
                    <path d="M19.3641863,14.0725554 L14.1691194,14.0725554 L14.1386654,14.2808925 C18.1781327,15.2843182 20.8435258,17.7486752 21.9527821,20.6625 L20.8236644,15.0933426 C20.6296852,14.3271896 20.0642988,14.0995621 19.3641863,14.0725554" id="Fill-10" fill="#9B9B9B"></path>
                    <polygon id="Fill-12" fill="#9B9B9B" points="4.42388376 11.1442949 2.36955824 11.1442949 9.93067453e-05 0.769239468 2.27058251 0.400791574 3.89159961 8.51982705 8.0214361 0.508175166 10.2022122 0.508175166"></polygon>
                    <path d="M12.2237334,4.8058337 C11.4650299,4.8058337 10.7566418,5.38872727 10.421978,6.60145455 L13.4557991,6.60145455 C13.5120729,5.45045676 13.1403347,4.8058337 12.2237334,4.8058337 M15.1069392,7.75245233 L10.2081375,7.75245233 C10.0740734,9.19537916 10.7642553,9.82456984 11.9340887,9.82456984 C12.9139153,9.82456984 13.7755668,9.47155432 14.7030918,8.90377162 L14.6958093,10.3460554 C13.7864906,10.8990488 12.7348321,11.2520643 11.5021044,11.2520643 C9.36899553,11.2520643 7.96049486,10.0702018 8.3835416,7.39943681 C8.76521052,4.98973614 10.4818931,3.53201996 12.4729933,3.53201996 C14.7639999,3.53201996 15.5263447,5.20482483 15.1930051,7.30748559 C15.1688404,7.46084479 15.1238214,7.64506874 15.1069392,7.75245233" id="Fill-14" fill="#9B9B9B"></path>
                    <path d="M18.2998166,6.84711863 L17.6261858,11.0984157 L15.729758,11.0984157 L16.9045568,3.68541131 L18.5163053,3.68541131 L18.5176294,5.17399224 C19.159482,4.314602 20.0320572,3.59346009 21.2270484,3.53205211 L21.2379722,5.35821619 C20.0406638,5.43505654 18.9635167,6.04913636 18.2998166,6.84711863" id="Fill-16" fill="#9B9B9B"></path>
                    <path d="M23.548807,2.44210865 C22.9168851,2.44210865 22.4792734,2.01225277 22.576594,1.39849446 C22.6762317,0.769303769 23.2522109,0.324337029 23.8844638,0.324337029 C24.5008277,0.324337029 24.9357912,0.769303769 24.8361534,1.39849446 C24.7388328,2.01225277 24.1651709,2.44210865 23.548807,2.44210865 L23.548807,2.44210865 Z M21.2131124,11.0983836 L22.3879112,3.68537916 L24.2840079,3.68537916 L23.1095402,11.0983836 L21.2131124,11.0983836 Z" id="Fill-18" fill="#9B9B9B"></path>
                    <path d="M29.5355472,1.65949446 C28.8874052,1.65949446 28.4961366,1.93566962 28.3915335,2.59572506 L28.2187398,3.68531486 L29.6725905,3.68531486 L29.6712664,5.18932816 L27.9807346,5.18932816 L27.044272,11.0983193 L25.1637333,11.0983193 L26.1001959,5.18932816 L24.9939187,5.18932816 L25.2322549,3.68531486 L26.3385321,3.68531486 L26.5401248,2.41150111 C26.8006395,0.769239468 27.972459,0.155481153 29.5365403,0.155481153 C29.8685558,0.155481153 30.1164917,0.186345898 30.3015332,0.216889135 L30.3157672,1.72090244 C30.1310567,1.6903592 29.8513427,1.65949446 29.5355472,1.65949446" id="Fill-20" fill="#9B9B9B"></path>
                    <path d="M31.8919639,2.44210865 C31.2600419,2.44210865 30.8224302,2.01225277 30.9197508,1.39849446 C31.0193886,0.769303769 31.5953677,0.324337029 32.2276207,0.324337029 C32.8439845,0.324337029 33.2789481,0.769303769 33.1793103,1.39849446 C33.0823207,2.01225277 32.5083277,2.44210865 31.8919639,2.44210865 L31.8919639,2.44210865 Z M29.5562692,11.0983836 L30.731068,3.68537916 L32.6271648,3.68537916 L31.452366,11.0983836 L29.5562692,11.0983836 Z" id="Fill-22" fill="#9B9B9B"></path>
                    <path d="M37.095869,4.8058337 C36.3371655,4.8058337 35.6284463,5.38872727 35.2944446,6.60145455 L38.3282657,6.60145455 C38.3842085,5.45045676 38.0121392,4.8058337 37.095869,4.8058337 M39.9790748,7.75245233 L35.0802731,7.75245233 C34.94654,9.19537916 35.6367219,9.82456984 36.8062243,9.82456984 C37.7860509,9.82456984 38.6477024,9.47155432 39.5755584,8.90377162 L39.5679449,10.3460554 C38.6586261,10.8990488 37.6069677,11.2520643 36.37424,11.2520643 C34.2411311,11.2520643 32.8326304,10.0702018 33.2556772,7.39943681 C33.6376771,4.98973614 35.3540287,3.53201996 37.3451289,3.53201996 C39.6364665,3.53201996 40.3984803,5.20482483 40.0654717,7.30748559 C40.040976,7.46084479 39.995957,7.64506874 39.9790748,7.75245233" id="Fill-24" fill="#9B9B9B"></path>
                    <g id="Group-28" transform="translate(40.581538, 0.000000)" fill="#9B9B9B">
                        <path d="M5.64783757,5.4043847 C5.20790869,5.18929601 4.86132816,5.08191242 4.21351716,5.08191242 C3.21780153,5.08191242 2.36707375,5.86478381 2.10920724,7.49161308 C1.88080172,8.9342184 2.40580338,9.60970621 3.24329026,9.60970621 C3.9387685,9.60970621 4.53891226,9.21071508 5.14203522,8.59663525 L5.64783757,5.4043847 Z M5.01426054,11.0982871 L5.01889486,10.0701053 C4.3820076,10.699296 3.55180321,11.2519678 2.49319332,11.2519678 C0.896671882,11.2519678 -0.200336625,10.1006486 0.195897286,7.59899667 C0.633509008,4.836602 2.39256248,3.60844235 4.16253969,3.60844235 C4.88946507,3.60844235 5.45485147,3.73157982 5.88882194,3.88461752 L6.45520141,0.308808204 L8.39764134,0.0172006652 L6.64189809,11.0982871 L5.01426054,11.0982871 Z" id="Fill-26"></path>
                    </g>
                    <path d="M54.0917549,6.59907539 C53.6130964,6.59907539 53.1324518,6.91318847 52.7067569,7.33179157 L52.3035715,9.87781153 C52.5862647,9.98230155 52.78223,10.0285987 53.1893876,10.0285987 C54.0990374,10.0285987 54.7346006,9.49393126 54.9371863,8.2152949 C55.108325,7.1340643 54.7382418,6.59907539 54.0917549,6.59907539 M53.032483,11.1683437 C52.13475,11.1683437 51.4028593,11.0284878 50.721615,10.7963592 L51.9689077,2.92552772 L53.4399717,2.70465188 L52.900405,6.11102661 C53.3304032,5.73904213 53.9278988,5.36705765 54.6581344,5.36705765 C55.8792763,5.36705765 56.6965708,6.25088248 56.3983196,8.13395344 C56.0702763,10.2031774 54.7561171,11.1683437 53.032483,11.1683437" id="Fill-29" fill="#9B9B9B"></path>
                    <path d="M59.7821969,11.400633 C59.0483201,12.7840809 58.3220567,13.2142583 57.2088281,13.2142583 C56.957251,13.2142583 56.8175596,13.1907882 56.69144,13.1560654 L56.6821714,12.0050676 C56.8662199,12.0516863 57.0641713,12.0864091 57.339582,12.0864091 C57.7586565,12.0864091 58.1231122,11.9005776 58.3674068,11.4938703 L58.5577448,11.1215643 L57.339913,5.58777273 L58.8659267,5.40194124 L59.5726597,9.40085477 L61.4863007,5.48328271 L62.9106904,5.48328271 L59.7821969,11.400633 Z" id="Fill-31" fill="#9B9B9B"></path>
                </g>
            </g>
        </g>
    </g>
</svg>