<?xml version="1.0" encoding="UTF-8"?>
<svg width="62px" height="40px" viewBox="0 0 62 40" version="1.1" xmlns="http://www.w3.org/2000/svg" xmlns:xlink="http://www.w3.org/1999/xlink">
    <!-- Generator: Sketch 49.3 (51167) - http://www.bohemiancoding.com/sketch -->
    <title>China_Unionpay [преобразованный]</title>
    <desc>Created with Sketch.</desc>
    <defs></defs>
    <g id="Page-1" stroke="none" stroke-width="1" fill="none" fill-rule="evenodd">
        <g id="cards" transform="translate(-402.000000, -1294.000000)">
            <g id="China_Unionpay-[преобразованный]" transform="translate(402.000000, 1294.000000)">
                <path d="M58.7914104,0.209285714 C60.8435029,0.209285714 62.1204162,1.87642857 61.6416185,3.92857143 L54.795815,36.0742857 C54.3130751,38.1192857 52.2577572,39.7878571 50.2042312,39.7878571 L2.95055491,39.6428571 C0.90132948,39.6428571 -0.378450867,37.9742857 0.100346821,35.9292857 L6.94901734,3.78357143 C7.42781503,1.73142857 9.48134104,0.0642857143 11.5363006,0.0642857143 L58.7914104,0.209285714 Z" id="Fill-1" fill="#FFFFFF"></path>
                <g id="Group-5" transform="translate(1.433526, 1.428571)">
                    <path d="M11.5363006,0.0642857143 L26.2399769,0.0642857143 C28.2920694,0.0642857143 29.5689827,1.73142857 29.090185,3.78357143 L22.2443815,33.0721429 C21.7616416,35.1171429 19.7063237,36.7857143 17.6527977,36.7857143 L2.95055491,36.7857143 C0.90132948,36.7857143 -0.378450867,35.1171429 0.100346821,33.0721429 L6.94901734,3.78357143 C7.42781503,1.73142857 9.48134104,0.0642857143 11.5363006,0.0642857143" id="Fill-1" fill="#D02139"></path>
                    <path d="M25.0164624,0.0642857143 L41.9245434,0.0642857143 C43.9769942,0.0642857143 43.0516532,1.73142857 42.5685549,3.78357143 L35.7245434,33.0721429 C35.2443121,35.1171429 35.3941156,36.7857143 33.3373642,36.7857143 L16.4292832,36.7857143 C14.3725318,36.7857143 13.1002775,35.1171429 13.5830173,33.0721429 L20.4273873,3.78357143 C20.9129942,1.73142857 22.962578,0.0642857143 25.0164624,0.0642857143" id="Fill-3" fill="#003B65"></path>
                    <path d="M41.2540116,0.0642857143 L55.9576879,0.0642857143 C58.0126474,0.0642857143 59.2892023,1.73142857 58.8064624,3.78357143 L51.9620925,33.0721429 C51.4789942,35.1171429 49.4226012,36.7857143 47.3676416,36.7857143 L32.6711329,36.7857143 C30.6147399,36.7857143 29.3392601,35.1171429 29.8209249,33.0721429 L36.6663699,3.78357143 C37.1451676,1.73142857 39.1976185,0.0642857143 41.2540116,0.0642857143" id="Fill-4" fill="#006F74"></path>
                </g>
                <path d="M45.0969364,23.1167857 L43.3035954,29.0278571 L43.7881272,29.0278571 L43.4129017,30.2485714 L42.934104,30.2485714 L42.8204971,30.625 L41.1142428,30.625 L41.2303584,30.2485714 L37.7669595,30.2485714 L38.1127977,29.1185714 L38.4654451,29.1185714 L40.2824393,23.1167857 L40.6451214,21.9071429 L42.3839884,21.9071429 L42.2019306,22.5167857 C42.2019306,22.5167857 42.6653179,22.1846429 43.1046936,22.0717857 C43.5429942,21.9560714 46.0642081,21.9142857 46.0642081,21.9142857 L45.6918497,23.1167857 L45.0969364,23.1167857 M42.0309827,23.1167857 L41.5704624,24.6275 C41.5704624,24.6275 42.0883237,24.3946429 42.3671445,24.3178571 C42.6527746,24.2425 43.0796069,24.2175 43.0796069,24.2175 L43.4129017,23.1167857 L42.0309827,23.1167857 M41.3407399,25.3753571 L40.8648092,26.9475 C40.8648092,26.9475 41.3927052,26.6796429 41.6740347,26.5946429 C41.9596647,26.5303571 42.3936647,26.4760714 42.3936647,26.4760714 L42.7294682,25.3753571 L41.3407399,25.3753571 M40.2336994,29.0417857 L41.6195607,29.0417857 L42.0170058,27.715 L40.6354451,27.715 L40.2336994,29.0417857" id="Fill-6" fill="#FFFFFE"></path>
                <path d="M45.8642312,21.9142857 L47.7231561,21.9142857 L47.7414335,22.6032143 C47.7288902,22.7207143 47.8295954,22.775 48.0464162,22.775 L48.4245087,22.775 L48.0786705,23.9132143 L47.0748439,23.9132143 C46.2072023,23.9746429 45.8767746,23.6035714 45.8989942,23.185 L45.8642312,21.9142857" id="Fill-7" fill="#FFFFFE"></path>
                <path d="M46.1104393,27.3146429 L44.3396763,27.3146429 L44.6432254,26.3017857 L46.6677225,26.3017857 L46.9547861,25.3753571 L44.9568092,25.3753571 L45.2972717,24.2328571 L50.8561272,24.2328571 L50.510289,25.3753571 L48.6456301,25.3753571 L48.3546243,26.3017857 L50.224659,26.3017857 L49.9139422,27.3146429 L47.894104,27.3146429 L47.534289,27.7414286 L48.3546243,27.7414286 L48.5546012,29.0178571 C48.5771792,29.145 48.5771792,29.2285714 48.6191098,29.2832143 C48.6610405,29.3275 48.9076069,29.3514286 49.0502428,29.3514286 L49.2993179,29.3514286 L48.9201503,30.5932143 L48.2886821,30.5932143 C48.1922775,30.5932143 48.0464162,30.5860714 47.8450058,30.5778571 C47.6572139,30.5610714 47.5242543,30.4507143 47.3955954,30.3864286 C47.2794798,30.3321429 47.1070983,30.1925 47.0651676,29.9539286 L46.8676994,28.6803571 L45.9480925,29.9346429 C45.6567283,30.3321429 45.2621503,30.635 44.5944855,30.635 L43.3093295,30.635 L43.6465665,29.5257143 L44.1379075,29.5257143 C44.2809017,29.5257143 44.4038266,29.47 44.4977225,29.4225 C44.5916185,29.3835714 44.6754798,29.3346429 44.7693757,29.1964286 L46.1104393,27.3146429" id="Fill-8" fill="#FFFFFE"></path>
                <path d="M26.7241503,24.5396429 L31.4139306,24.5396429 L31.066659,25.6528571 L29.1923237,25.6528571 L28.8998844,26.6046429 L30.8175838,26.6046429 L30.4678035,27.7539286 L28.5511792,27.7539286 L28.0849249,29.2996429 C28.0290173,29.47 28.5415029,29.4921429 28.7260694,29.4921429 L29.6836647,29.3610714 L29.298763,30.635 L27.1387977,30.635 C26.9635491,30.635 26.8348902,30.6096429 26.6470983,30.5678571 C26.4653988,30.5217857 26.3840462,30.4410714 26.3041272,30.3182143 C26.226,30.1925 26.1027168,30.0892857 26.186578,29.8189286 L26.8083699,27.7735714 L25.7429017,27.7735714 L26.0969827,26.6046429 L27.1653179,26.6046429 L27.4495145,25.6528571 L26.3840462,25.6528571 L26.7241503,24.5396429" id="Fill-9" fill="#FFFFFE"></path>
                <path d="M29.8782659,22.5364286 L31.8016994,22.5364286 L31.4533526,23.7014286 L28.8256994,23.7014286 L28.5415029,23.9467857 C28.4182197,24.0653571 28.376289,24.0164286 28.2164509,24.1017857 C28.0680809,24.1757143 27.7573642,24.3235714 27.3527514,24.3235714 L26.5112717,24.3235714 L26.8503006,23.2046429 L27.1036763,23.2046429 C27.3165549,23.2046429 27.4634913,23.185 27.5376763,23.1389286 C27.6215376,23.0846429 27.7154335,22.9660714 27.8190058,22.775 L28.3046127,21.9003571 L30.2144277,21.9003571 L29.8782659,22.5364286" id="Fill-10" fill="#FFFFFE"></path>
                <path d="M32.6277688,21.9142857 L34.2655723,21.9142857 L34.0261734,22.7357143 C34.0261734,22.7357143 34.5443931,22.3228571 34.9067168,22.175 C35.2665318,22.0425 36.0829249,21.9225 36.0829249,21.9225 L38.7342312,21.9071429 L37.8311098,24.9053571 C37.6787977,25.4171429 37.5010405,25.7492857 37.3903006,25.9014286 C37.2910289,26.0535714 37.1734798,26.1860714 36.9437572,26.3114286 C36.7212023,26.4314286 36.5169249,26.4985714 36.3291329,26.5178571 C36.1542428,26.5303571 35.8854566,26.5346429 35.5130983,26.5403571 L32.9581965,26.5403571 L32.24,28.9092857 C32.1715491,29.145 32.1392948,29.2578571 32.1840925,29.3221429 C32.220289,29.3764286 32.3070173,29.4407143 32.4274335,29.4407143 L33.5545434,29.3346429 L33.1682081,30.635 L31.9095723,30.635 C31.5078266,30.635 31.2164624,30.625 31.012185,30.6096429 C30.8175838,30.5932143 30.6147399,30.6096429 30.4774798,30.5064286 C30.3613642,30.4032143 30.1821734,30.2664286 30.1861156,30.1285714 C30.1990173,30 30.2534913,29.7867857 30.3348439,29.4921429 L32.6277688,21.9142857 M36.1051445,24.94 L33.4215838,24.94 L33.2563699,25.4785714 L35.5801156,25.4785714 C35.8532023,25.4464286 35.9105434,25.4857143 35.9345549,25.4732143 L36.1051445,24.94 M33.5670867,24.4532143 C33.5670867,24.4532143 34.0921156,23.9746429 34.9909364,23.82 C35.1952139,23.7821429 36.4706936,23.7946429 36.4706936,23.7946429 L36.6652948,23.1528571 L33.9591561,23.1528571 L33.5670867,24.4532143" id="Fill-11" fill="#FFFFFE"></path>
                <path d="M37.4042775,26.7496429 L37.2516069,27.4692857 C37.1874566,27.6953571 37.1311908,27.8628571 36.9606012,28.0078571 C36.7814104,28.16 36.5713988,28.3189286 36.0800578,28.3189286 L35.1701272,28.3567857 L35.1629595,29.17 C35.1532832,29.3989286 35.2149249,29.3764286 35.2511214,29.4128571 C35.293052,29.4546429 35.3310405,29.47 35.370104,29.4867857 L35.6586012,29.47 L36.5266012,29.4225 L36.1667861,30.6096429 L35.1701272,30.6096429 C34.4727168,30.6096429 33.9548555,30.5932143 33.7867746,30.4603571 C33.6186936,30.3546429 33.596474,30.2217857 33.599341,29.9932143 L33.6638497,26.8207143 L35.2539884,26.8207143 L35.2314104,27.4692857 L35.6138035,27.4692857 C35.7453295,27.4692857 35.8334913,27.4567857 35.8883237,27.4221429 C35.9370636,27.3857143 35.972185,27.3367857 35.9944046,27.2575 L36.1542428,26.7496429 L37.4042775,26.7496429" id="Fill-12" fill="#FFFFFE"></path>
                <path d="M14.7086936,10.8457143 C14.6542197,11.105 13.6335491,15.7953571 13.6306821,15.7996429 C13.4109942,16.7482143 13.2511561,17.4246429 12.7082081,17.8614286 C12.4,18.1153571 12.0405434,18.2382143 11.6230289,18.2382143 C10.9524971,18.2382143 10.5622197,17.9060714 10.4962775,17.2767857 L10.4837341,17.0607143 C10.4837341,17.0607143 10.6880116,15.7896429 10.6880116,15.7828571 C10.6880116,15.7828571 11.7588555,11.5082143 11.950948,10.9432143 C11.9606243,10.9110714 11.9634913,10.8942857 11.9663584,10.8789286 C9.88165318,10.8971429 9.51216185,10.8789286 9.48707514,10.8457143 C9.47273988,10.8914286 9.42113295,11.1567857 9.42113295,11.1567857 L8.32771098,15.9739286 L8.23381503,16.3825 L8.05211561,17.7192857 C8.05211561,18.1153571 8.13024277,18.4389286 8.28578035,18.7125 C8.78428902,19.5803571 10.2049133,19.71 11.008763,19.71 C12.0444855,19.71 13.0160578,19.4910714 13.6726127,19.0903571 C14.8122659,18.4196429 15.1104393,17.3703571 15.3763584,16.4385714 L15.4996416,15.96 C15.4996416,15.96 16.6027399,11.5207143 16.7901734,10.9432143 C16.797341,10.9110714 16.8002081,10.8942857 16.8098844,10.8789286 C15.2978728,10.8942857 14.8513295,10.8789286 14.7086936,10.8457143" id="Fill-13" fill="#FFFFFE"></path>
                <path d="M20.812289,19.6639286 C20.0747399,19.6514286 19.8113295,19.6514286 18.9476301,19.6975 L18.9153757,19.6317857 C18.9895607,19.3025 19.0709133,18.9803571 19.1450983,18.6482143 L19.2515376,18.1989286 C19.4110173,17.5028571 19.5665549,16.6925 19.584474,16.4439286 C19.6013179,16.2960714 19.6532832,15.925 19.2260925,15.925 C19.0469017,15.925 18.8594682,16.0114286 18.6691676,16.0992857 C18.5655954,16.4707143 18.3555838,17.5125 18.2545202,17.9871429 C18.0405665,18.9871429 18.0280231,19.1032143 17.9312601,19.5967857 L17.8696185,19.6639286 C17.1080578,19.6514286 16.8421387,19.6514286 15.965896,19.6975 L15.926474,19.6221429 C16.0723353,19.0292857 16.2178382,18.4292857 16.3576069,17.835 C16.7260231,16.2221429 16.814185,15.6057143 16.9134566,14.7853571 L16.9847746,14.7378571 C17.8402312,14.6178571 18.0473757,14.5928571 18.9727168,14.4057143 L19.0512023,14.4921429 L18.9085665,15.0057143 C19.0666127,14.9121429 19.2164162,14.8189286 19.3744624,14.7378571 C19.8113295,14.5242857 20.2972948,14.4603571 20.5632139,14.4603571 C20.9706936,14.4603571 21.4143699,14.5732143 21.5989364,15.0407143 C21.774185,15.4578571 21.657711,15.9696429 21.4269133,16.9796429 L21.3079306,17.4960714 C21.0713988,18.6189286 21.0319769,18.8253571 20.8990173,19.5967857 L20.812289,19.6639286" id="Fill-14" fill="#FFFFFE"></path>
                <path d="M23.8166012,19.6639286 C23.3700578,19.6610714 23.0815607,19.6514286 22.8030983,19.6610714 C22.5242775,19.6639286 22.2529827,19.6778571 21.8383353,19.6975 L21.8161156,19.6610714 L21.7895954,19.6221429 C21.9028439,19.1964286 21.9644855,19.0485714 22.0203931,18.8964286 C22.0777341,18.7446429 22.1296994,18.5939286 22.2304046,18.1614286 C22.3604971,17.5964286 22.4404162,17.2028571 22.4923815,16.8571429 C22.5536647,16.5221429 22.5859191,16.2375 22.6321503,15.9082143 L22.6644046,15.8832143 L22.699526,15.8510714 C23.1432023,15.7896429 23.4245318,15.7478571 23.7130289,15.7017857 C24.0040347,15.6642857 24.2968324,15.6057143 24.7559191,15.5178571 L24.772763,15.5567857 L24.7853064,15.5985714 C24.7014451,15.9475 24.6132832,16.2960714 24.5290636,16.6503571 C24.4480694,17.0064286 24.3609827,17.3535714 24.2828555,17.7025 C24.1176416,18.4446429 24.0502659,18.7221429 24.0112023,18.9232143 C23.9721387,19.11 23.962104,19.2132143 23.8975954,19.5967857 L23.8556647,19.6317857 L23.8166012,19.6639286" id="Fill-15" fill="#FFFFFE"></path>
                <path d="M30.4592023,17.125 C30.7183121,15.9921429 30.5165434,15.4632143 30.2631676,15.1410714 C29.8782659,14.65 29.1980578,14.4921429 28.4924046,14.4921429 C28.0680809,14.4921429 27.0574451,14.5342857 26.2679306,15.2596429 C25.7009711,15.7828571 25.4389942,16.4928571 25.280948,17.1735714 C25.1214682,17.8671429 24.9379769,19.1157143 26.0901734,19.5803571 C26.4456879,19.7321429 26.9581734,19.7739286 27.2882428,19.7739286 C28.1325896,19.7739286 28.9977225,19.5425 29.6485434,18.8546429 C30.1499191,18.2967857 30.3792832,17.4667857 30.4592023,17.125 M28.5217919,17.0439286 C28.485237,17.235 28.3175145,17.945 28.090659,18.2478571 C27.9322543,18.4710714 27.7448208,18.6064286 27.5376763,18.6064286 C27.4760347,18.6064286 27.1094104,18.6064286 27.1036763,18.0635714 C27.1008092,17.7957143 27.1552832,17.5225 27.222659,17.2253571 C27.4172601,16.3671429 27.6469827,15.6475 28.2332948,15.6475 C28.6923815,15.6475 28.7260694,16.1832143 28.5217919,17.0439286" id="Fill-16" fill="#FFFFFE"></path>
                <path d="M48.5377572,19.7392857 C47.6446705,19.7321429 47.3884277,19.7321429 46.5641503,19.7671429 L46.512185,19.7 C46.7347399,18.8546429 46.9587283,18.0121429 47.1590636,17.1567857 C47.417815,16.0478571 47.4765896,15.5764286 47.5608092,14.9275 L47.6278266,14.8732143 C48.5155376,14.7475 48.7617457,14.7114286 49.684578,14.5410714 L49.7110983,14.6178571 C49.5415838,15.3153571 49.3763699,16.0089286 49.2111561,16.7089286 C48.8724855,18.1710714 48.7492023,18.9132143 48.6191098,19.6778571 L48.5377572,19.7392857" id="Fill-17" fill="#FFFFFE"></path>
                <path d="M48.9620809,17.2253571 C49.2211908,16.0992857 48.1754335,17.125 48.0102197,16.7535714 C47.7554104,16.1732143 47.9134566,14.9985714 46.8874104,14.6053571 C46.492474,14.4503571 45.5660578,14.65 44.7693757,15.3725 C44.2092254,15.8889286 43.9404393,16.5960714 43.7881272,17.2742857 C43.6268555,17.9578571 43.442289,19.2064286 44.5887514,19.6514286 C44.9539422,19.8060714 45.2818613,19.8521429 45.6147977,19.8353571 C46.7669942,19.7739286 47.6446705,18.0385714 48.2958497,17.3535714 C48.7968671,16.8096429 48.8850289,17.5571429 48.9620809,17.2253571 M47.1981272,17.1414286 C47.1533295,17.3257143 46.9841734,18.0414286 46.7573179,18.3414286 C46.6060809,18.5546429 46.2462659,18.6875 46.0391214,18.6875 C45.9803468,18.6875 45.6176647,18.6875 45.6051214,18.1542857 C45.6022543,17.8892857 45.6567283,17.6160714 45.7255376,17.3160714 C45.9230058,16.4732143 46.1495029,15.7603571 46.7376069,15.7603571 C47.1981272,15.7603571 47.3955954,16.2792857 47.1981272,17.1414286" id="Fill-18" fill="#FFFFFE"></path>
                <path d="M35.5102312,19.6639286 C34.7683815,19.6514286 34.5150058,19.6514286 33.6484393,19.6975 L33.616185,19.6317857 C33.6903699,19.3025 33.7742312,18.9803571 33.8512832,18.6482143 L33.9519884,18.1989286 C34.1143353,17.5028571 34.2698728,16.6925 34.2852832,16.4439286 C34.3021272,16.2960714 34.3537341,15.925 33.9297688,15.925 C33.7448439,15.925 33.5602775,16.0114286 33.3696185,16.0992857 C33.2689133,16.4707143 33.0546012,17.5125 32.9510289,17.9871429 C32.7438844,18.9871429 32.728474,19.1032143 32.634578,19.5967857 L32.5689942,19.6639286 C31.8088671,19.6514286 31.5468902,19.6514286 30.6692139,19.6975 L30.6301503,19.6221429 C30.7756532,19.0292857 30.9211561,18.4292857 31.0612832,17.835 C31.429341,16.2221429 31.5135607,15.6057143 31.6171329,14.7853571 L31.6827168,14.7378571 C32.5367399,14.6178571 32.748185,14.5928571 33.673526,14.4057143 L33.7448439,14.4921429 L33.6118844,15.0057143 C33.7645549,14.9121429 33.9197341,14.8189286 34.0752717,14.7378571 C34.5092717,14.5242857 34.9977457,14.4603571 35.2636647,14.4603571 C35.6657688,14.4603571 36.1123121,14.5732143 36.3026127,15.0407143 C36.4746358,15.4578571 36.3570867,15.9696429 36.1248555,16.9796429 L36.0083815,17.4960714 C35.7650405,18.6189286 35.7299191,18.8253571 35.5998266,19.5967857 L35.5102312,19.6639286" id="Fill-19" fill="#FFFFFE"></path>
                <path d="M42.7169249,13.5925 C42.5868324,14.1796429 42.2047977,14.6735714 41.7134566,14.9121429 C41.3088439,15.1146429 40.8132023,15.1314286 40.3021503,15.1314286 L39.9717225,15.1314286 L39.9968092,14.9985714 C39.9968092,14.9985714 40.6060578,12.3592857 40.6031908,12.3689286 L40.6229017,12.2335714 L40.6311445,12.1303571 L40.8748439,12.1553571 C40.8748439,12.1553571 42.1306127,12.2628571 42.16,12.2657143 C42.6552832,12.4567857 42.8599191,12.9492857 42.7169249,13.5925 M41.9177341,10.84 C41.9134335,10.84 41.3016763,10.8457143 41.3016763,10.8457143 C39.7029364,10.865 39.0617919,10.8596429 38.7987399,10.8275 C38.7761618,10.9432143 38.7342312,11.1496429 38.7342312,11.1496429 C38.7342312,11.1496429 38.1615376,13.7946429 38.1615376,13.7989286 C38.1615376,13.7989286 36.7910867,19.4225 36.726578,19.6875 C38.122474,19.6707143 38.6951676,19.6707143 38.936,19.6975 C38.990474,19.4321429 39.3137341,17.8614286 39.3166012,17.8614286 C39.3166012,17.8614286 39.5925549,16.7089286 39.6090405,16.6671429 C39.6090405,16.6671429 39.6961272,16.5471429 39.7828555,16.5 L39.9100809,16.5 C41.1142428,16.5 42.4735838,16.5 43.5386936,15.7185714 C44.2640578,15.1828571 44.7596994,14.3917857 44.9808208,13.4307143 C45.0381618,13.195 45.0800925,12.9142857 45.0800925,12.6339286 C45.0800925,12.2657143 45.0059075,11.9017857 44.7915954,11.6171429 C44.2486474,10.8596429 43.1663353,10.8457143 41.9177341,10.84" id="Fill-20" fill="#FFFFFE"></path>
                <path d="M55.8426474,14.5342857 L55.7713295,14.4532143 C54.8585318,14.6375 54.6933179,14.6667857 53.8547052,14.7796429 L53.7930636,14.8410714 C53.7905549,14.8507143 53.7876879,14.8660714 53.7833873,14.88 L53.7805202,14.8660714 C53.1562197,16.3017857 53.1744971,15.9921429 52.6663121,17.1221429 C52.6634451,17.0703571 52.6634451,17.0382143 52.660578,16.9839286 L52.5333526,14.5342857 L52.4534335,14.4532143 C51.4972717,14.6375 51.475052,14.6667857 50.5916416,14.7796429 L50.5228324,14.8410714 C50.5131561,14.8703571 50.5131561,14.9025 50.507422,14.9375 L50.5131561,14.95 C50.623896,15.5121429 50.5970173,15.3864286 50.7077572,16.2739286 C50.7597225,16.7089286 50.8281734,17.1471429 50.8801387,17.5767857 C50.9668671,18.2967857 51.0156069,18.6510714 51.1220462,19.7489286 C50.5256994,20.7296429 50.3844971,21.1007143 49.8103699,21.9617857 L49.8469249,22.0425 C50.7077572,22.0103571 50.9080925,22.0103571 51.5463699,22.0103571 L51.6850636,21.8528571 C52.1678035,20.8160714 55.8426474,14.5342857 55.8426474,14.5342857" id="Fill-21" fill="#FFFFFE"></path>
                <path d="M24.6258266,15.1410714 C25.1157341,14.8021429 25.1773757,14.3346429 24.7655954,14.0917857 C24.3484393,13.8464286 23.6162659,13.9246429 23.1234913,14.2635714 C22.6321503,14.5957143 22.5762428,15.0671429 22.9919653,15.3153571 C23.4023121,15.5539286 24.1369942,15.4828571 24.6258266,15.1410714" id="Fill-22" fill="#FFFFFE"></path>
                <path d="M51.6205549,21.9392857 L50.9023584,23.1657143 C50.6755029,23.5853571 50.2540462,23.8978571 49.5835145,23.9007143 L48.4413526,23.8814286 L48.7746474,22.7778571 L48.9986358,22.7778571 C49.1147514,22.7778571 49.1986127,22.7721429 49.2631214,22.74 C49.321896,22.7207143 49.3638266,22.6746429 49.4100578,22.6075 L49.8343815,21.9392857 L51.6205549,21.9392857" id="Fill-23" fill="#FFFFFE"></path>
            </g>
        </g>
    </g>
</svg>
