<?xml version="1.0" encoding="UTF-8"?>
<svg width="114px" height="40px" viewBox="0 0 114 40" version="1.1" xmlns="http://www.w3.org/2000/svg" xmlns:xlink="http://www.w3.org/1999/xlink">
    <g id="Page-1" stroke="none" stroke-width="1" fill="none" fill-rule="evenodd">
        <g id="DepositPage2-Alipay" transform="translate(-663.000000, -303.000000)">
            <g id="Group-10" transform="translate(230.000000, 260.000000)">
                <g id="Group" transform="translate(433.000000, 43.000000)">
                    <path d="M9.75722543,21.734104 C8.75144509,21.8381503 6.86705202,22.2774566 5.83815029,23.1791908 C2.75144509,25.8612717 4.60115607,30.7630058 10.8439306,30.7630058 C14.4739884,30.7630058 18.1040462,28.4508671 20.9479769,24.7514451 C16.8901734,22.7745665 13.4566474,21.3641618 9.75722543,21.734104 L9.75722543,21.734104 Z" id="Shape" fill="#1CACEB"></path>
                    <path d="M33.0404624,25.1213873 C38.8208092,27.0520231 40.1271676,27.1560694 40.1271676,27.1560694 L40.1271676,6.40462428 C40.1271676,2.86705202 37.2485549,0 33.699422,0 L6.42774566,0 C2.87861272,0 0,2.86705202 0,6.40462428 L0,33.5953757 C0,37.132948 2.87861272,40 6.42774566,40 L33.699422,40 C37.2485549,40 40.1271676,37.132948 40.1271676,33.5953757 L40.1271676,33.3294798 C40.1271676,33.3294798 29.6878613,28.9942197 24.416185,26.4624277 C20.8786127,30.7976879 16.3236994,33.433526 11.583815,33.433526 C3.57225434,33.433526 0.855491329,26.4508671 4.64739884,21.849711 C5.47976879,20.8439306 6.87861272,19.8959538 9.06358382,19.3526012 C12.4739884,18.5202312 17.9075145,19.8728324 23.0057803,21.5491329 C23.9190751,19.8612717 24.6936416,18.0115607 25.2716763,16.0462428 L9.57225434,16.0462428 L9.57225434,14.4624277 L17.6647399,14.4624277 L17.6647399,11.6184971 L7.87283237,11.6184971 L7.87283237,10.0346821 L17.6763006,10.0346821 L17.6763006,5.97687861 C17.6763006,5.97687861 17.6763006,5.29479769 18.3699422,5.29479769 L22.3121387,5.29479769 L22.3121387,10.0346821 L32,10.0346821 L32,11.6184971 L22.3121387,11.6184971 L22.3121387,14.4624277 L30.2196532,14.4624277 C29.4682081,17.5491329 28.3121387,20.4046243 26.867052,22.9017341 C29.2716763,23.7572254 31.433526,24.5780347 33.0404624,25.1213873 L33.0404624,25.1213873 Z" id="Shape" fill="#1CACEB"></path>
                    <path d="M97.2369942,6.26589595 L108.728324,6.26589595 L108.728324,8.5433526 L112.83237,8.5433526 L112.83237,5.84971098 L112.83237,5.83815029 C112.83237,5.23699422 112.358382,4.73988439 111.768786,4.7283237 L105.132948,4.7283237 L105.132948,2.61271676 L100.843931,2.61271676 L100.843931,4.7283237 L93.1445087,4.7283237 L93.1445087,8.5433526 L97.2485549,8.5433526 L97.2485549,6.26589595 L97.2369942,6.26589595 Z M72.3815029,2.79768786 L68.1734104,12.7398844 L71.3988439,12.7398844 L71.3988439,24.5780347 L74.9248555,24.5780347 L74.9248555,8.87861272 L73.6416185,8.87861272 L76.300578,2.79768786 L72.3815029,2.79768786 Z M113.294798,24.0462428 L112,19.6878613 C111.919075,19.4104046 111.66474,19.2138728 111.364162,19.2138728 L107.953757,19.2138728 L108.947977,22.5549133 L104.936416,22.5549133 L104.936416,16.0809249 L112.820809,16.0809249 L112.820809,14.5433526 L104.936416,14.5433526 L104.936416,11.4913295 L112.820809,11.4913295 L112.820809,9.94219653 L93.132948,9.94219653 L93.132948,11.4797688 L101.017341,11.4797688 L101.017341,14.5317919 L93.132948,14.5317919 L93.132948,16.0693642 L101.017341,16.0693642 L101.017341,22.5433526 L93.132948,22.5433526 L93.132948,24.0809249 L113.294798,24.0809249 L113.283237,24.0231214 L113.294798,24.0462428 Z M81.4104046,10.9595376 C81.2716763,10.6820809 81.0057803,10.4971098 80.6820809,10.4971098 L77.6300578,10.4971098 L80.0115607,17.9884393 L83.6300578,17.9884393 L81.4104046,10.9595376 Z M89.1445087,2.98265896 L85.4797688,2.98265896 L85.4797688,6.80924855 L76.4393064,6.80924855 L76.4393064,8.34682081 L85.4797688,8.34682081 L85.4797688,22.1156069 C85.4450867,22.4277457 85.2023121,22.6820809 84.8901734,22.6936416 L83.0289017,22.6936416 L83.0289017,24.2890173 L87.7803468,24.2890173 C88.5317919,24.2543353 89.132948,23.6300578 89.1560694,22.8554913 L89.1560694,8.3583815 L90.6473988,8.3583815 L90.6473988,6.82080925 L89.1560694,6.82080925 L89.1560694,2.98265896 L89.1445087,2.98265896 Z M66.265896,9.96531792 L59.2254335,9.96531792 L59.2254335,7.44508671 L67.3872832,7.44508671 L67.3872832,5.87283237 L59.2254335,5.87283237 L59.2254335,2.67052023 L55.583815,2.67052023 C55.1791908,2.67052023 54.867052,3.00578035 54.867052,3.42196532 L54.867052,5.87283237 L46.7630058,5.87283237 L46.7630058,7.44508671 L54.867052,7.44508671 L54.867052,9.96531792 L48.0231214,9.96531792 L48.0231214,11.5375723 L61.6531792,11.5375723 C61.6531792,11.5375723 60.9017341,14.4855491 57.1560694,17.6531792 C53.8034682,15.1213873 52.6820809,13.0982659 52.6820809,13.0982659 L49.017341,13.0982659 C50.4971098,15.6647399 52.6011561,17.7109827 54.867052,19.3410405 C52.7861272,20.6936416 50.0924855,22 46.6011561,23.0404624 L46.6011561,24.9248555 C46.6011561,24.9248555 51.9768786,23.9075145 57.1791908,20.8439306 C62.3815029,23.8843931 67.6184971,24.9248555 67.6184971,24.9248555 L67.6184971,23.1445087 C64.2774566,21.9190751 61.6184971,20.5780347 59.5375723,19.283237 C62.5549133,17.0520231 65.2023121,14.0231214 66.265896,9.96531792 Z M54.7052023,35.0982659 L55.3179191,36.9364162 L57.0289017,36.9364162 L53.6647399,27.8034682 L52.3583815,27.8034682 L49.0057803,36.9364162 L50.716763,36.9364162 L51.3526012,35.0982659 L54.7052023,35.0982659 Z M53.0520231,30.1618497 L54.3121387,33.9421965 L51.7456647,33.9421965 L53.0520231,30.1618497 Z M62.4046243,27.8034682 L62.4046243,36.9364162 L67.9306358,36.9364162 L67.9306358,35.6878613 L64.0462428,35.6878613 L64.0462428,27.8034682 L62.4046243,27.8034682 Z M73.9537572,27.8034682 L75.5953757,27.8034682 L75.5953757,36.9364162 L73.9537572,36.9364162 L73.9537572,27.8034682 Z M85.8034682,27.8034682 L82.2543353,27.8034682 L82.2543353,36.9364162 L83.8959538,36.9364162 L83.8959538,33.4219653 L85.8034682,33.4219653 C87.5722543,33.4219653 88.8092486,32.265896 88.8092486,30.6127168 C88.8092486,28.9595376 87.5722543,27.8034682 85.8034682,27.8034682 Z M85.7109827,32.1734104 L83.8959538,32.1734104 L83.8959538,29.0520231 L85.7109827,29.0520231 C86.6242775,29.0520231 87.1676301,29.849711 87.1676301,30.6242775 C87.1676301,31.3757225 86.6589595,32.1734104 85.7109827,32.1734104 Z M98.4508671,35.0982659 L99.0635838,36.9364162 L100.774566,36.9364162 L97.4104046,27.8034682 L96.1040462,27.8034682 L92.7514451,36.9364162 L94.4624277,36.9364162 L95.0982659,35.0982659 L98.4508671,35.0982659 Z M96.7976879,30.1618497 L98.0578035,33.9421965 L95.4913295,33.9421965 L96.7976879,30.1618497 Z M109.919075,27.8034682 L108.127168,31.6878613 L106.312139,27.8034682 L104.531792,27.8034682 L107.294798,33.1791908 L107.294798,36.9248555 L108.924855,36.9248555 L108.924855,33.1791908 L108.936416,33.1560694 L111.687861,27.7919075 L109.919075,27.7919075 L109.919075,27.8034682 Z" id="Combined-Shape" fill="#303030"></path>
                </g>
            </g>
        </g>
    </g>
</svg>