<?xml version="1.0" encoding="UTF-8"?>
<svg width="139px" height="40px" viewBox="0 0 139 40" version="1.1" xmlns="http://www.w3.org/2000/svg" xmlns:xlink="http://www.w3.org/1999/xlink">
    <!-- Generator: Sketch 41.2 (35397) - http://www.bohemiancoding.com/sketch -->
    <title>wechat</title>
    <desc>Created with Sketch.</desc>
    <defs>
        <path d="M0,30.7729673 C0,35.8689167 4.13004398,40 9.22703274,40 L30.7729673,40 C35.8689167,40 40,35.869956 40,30.7729673 L40,9.22703274 C40,4.13108327 35.869956,0 30.7729673,0 L9.22703274,0 C4.13108327,0 0,4.13004398 0,9.22703274 L0,30.7729673 Z" id="path-1"></path>
        <path d="M22.5302098,8.77268065 C27.6080653,8.77268065 32.1291841,12.4554312 32.1291841,16.9739394 C32.1291841,19.5229837 30.4393939,21.779627 28.1710023,23.4811655 L28.6898082,25.2055374 C28.8726058,25.8131078 28.5633906,26.0551028 28.0057671,25.7496691 L25.9208858,24.6076923 C24.7904429,24.8909557 23.6554312,25.1751981 22.5302098,25.1751981 C17.1531002,25.1751981 12.9181818,21.4999534 12.9181818,16.9739394 C12.9181818,12.4554312 17.1531002,8.77268065 22.5302098,8.77268065 Z M19.3076876,16.0000189 C20.0299062,16.0000189 20.61538,15.414545 20.61538,14.6923265 C20.61538,13.970108 20.0299062,13.3846342 19.3076876,13.3846342 C18.5854691,13.3846342 17.9999953,13.970108 17.9999953,14.6923265 C17.9999953,15.414545 18.5854691,16.0000189 19.3076876,16.0000189 Z M25.6153893,16.0000189 C26.3376079,16.0000189 26.9230817,15.414545 26.9230817,14.6923265 C26.9230817,13.970108 26.3376079,13.3846342 25.6153893,13.3846342 C24.8931708,13.3846342 24.307697,13.970108 24.307697,14.6923265 C24.307697,15.414545 24.8931708,16.0000189 25.6153893,16.0000189 Z" id="path-3"></path>
        <mask id="mask-4" maskContentUnits="userSpaceOnUse" maskUnits="objectBoundingBox" x="-2.30769231" y="-2.30769231" width="23.8263869" height="21.8617552">
            <rect x="10.6104895" y="6.46498834" width="23.8263869" height="21.8617552" fill="white"></rect>
            <use xlink:href="#path-3" fill="black"></use>
        </mask>
    </defs>
    <g id="Page-1" stroke="none" stroke-width="1" fill="none" fill-rule="evenodd">
        <g id="DepositPage2-Alipay" transform="translate(-650.000000, -303.000000)">
            <g id="Group-10" transform="translate(230.000000, 260.000000)">
                <g id="wechat" transform="translate(420.000000, 43.000000)">
                    <g>
                        <mask id="mask-2" fill="white">
                            <use xlink:href="#path-1"></use>
                        </mask>
                        <use id="Fill-1" fill="#5BCB48" xlink:href="#path-1"></use>
                        <g id="Group" mask="url(#mask-2)">
                            <g transform="translate(3.846154, 6.769221)" id="Combined-Shape">
                                <path d="M0.20004662,9.9033604 C0.20004662,4.52625084 5.28834499,0.292311448 11.5008858,0.292311448 C17.0574825,0.292311448 21.9251748,3.67548161 22.9032168,8.22890818 C22.5439161,8.18876832 22.181352,8.16233476 21.8151981,8.16233476 C16.4468998,8.16233476 12.2070862,12.1688149 12.2070862,17.1060177 C12.2070862,17.9277427 12.3350117,18.7187916 12.5559441,19.4739431 C12.2070862,19.5010294 11.8556177,19.5193045 11.5008858,19.5193045 C10.0901166,19.5193045 8.95608392,19.2308196 7.54237762,18.9514723 L4.62969524,20.4119036 C4.0564272,20.6993427 3.75366654,20.4453412 3.95560334,19.8381317 L4.72214452,17.5331972 C1.89277389,15.5555749 0.20004662,13.0078359 0.20004662,9.9033604 Z M7.8461515,8.00001878 C8.69582034,8.00001878 9.38461304,7.31122609 9.38461304,6.46155724 C9.38461304,5.6118884 8.69582034,4.9230957 7.8461515,4.9230957 C6.99648265,4.9230957 6.30768996,5.6118884 6.30768996,6.46155724 C6.30768996,7.31122609 6.99648265,8.00001878 7.8461515,8.00001878 Z M15.3846154,8.00001878 C16.2342842,8.00001878 16.9230769,7.31122609 16.9230769,6.46155724 C16.9230769,5.6118884 16.2342842,4.9230957 15.3846154,4.9230957 C14.5349465,4.9230957 13.8461538,5.6118884 13.8461538,6.46155724 C13.8461538,7.31122609 14.5349465,8.00001878 15.3846154,8.00001878 Z" fill="#FFFFFF" fill-rule="evenodd"></path>
                                <g fill="none">
                                    <use fill="#FFFFFF" fill-rule="evenodd" xlink:href="#path-3"></use>
                                    <use stroke="#5BCB48" mask="url(#mask-4)" stroke-width="4.61538462" xlink:href="#path-3"></use>
                                </g>
                            </g>
                        </g>
                    </g>
                    <path d="M53.514263,30.8173286 L56.3506342,20.4468464 C57.0892725,17.876385 57.5620011,15.9559254 57.8870019,13.9468291 L57.946093,13.9468291 C58.2120028,15.9559254 58.6256403,17.9059306 59.2460965,20.4763919 L61.7574668,30.8173286 L64.4461103,30.8173286 L70.0893071,10.9036392 L67.4597547,10.9036392 L64.8302022,20.9491205 C64.209746,23.4309453 63.6483809,25.6468602 63.2347434,27.8332297 L63.1756524,27.8332297 C62.880197,25.7354968 62.3483774,23.4013997 61.7870123,21.0082115 L59.3642786,10.9036392 L56.6756351,10.9036392 L54.0165371,20.9491205 C53.3369898,23.5195819 52.7165336,25.8832245 52.3915328,27.8627752 L52.3324417,27.8627752 C51.9778953,25.9423156 51.4460757,23.4900363 50.855165,20.978666 L48.4915224,10.9036392 L45.7733333,10.9036392 L50.8256195,30.8173286 L53.514263,30.8173286 Z M82.5884419,24.1400381 C82.6475329,23.8445827 82.6770785,23.4604908 82.6770785,22.9286712 C82.6770785,20.2991187 81.4657116,16.1922896 76.7975174,16.1922896 C72.6315972,16.1922896 70.0611358,19.5900259 70.0611358,23.9036738 C70.0611358,28.1877761 72.7202338,31.1127839 77.0929727,31.1127839 C79.3679787,31.1127839 80.9634375,30.6105098 81.8793491,30.1968724 L81.4066205,28.3355038 C80.4611635,28.7491412 79.3088877,29.0741421 77.4475191,29.0741421 C74.8475122,29.0741421 72.6315972,27.626411 72.5725061,24.1400381 L82.5884419,24.1400381 Z M72.6020516,22.2786695 C72.8088704,20.4763919 73.9316006,18.0536582 76.5906986,18.0536582 C79.4861609,18.0536582 80.1952537,20.6241196 80.1657081,22.2786695 L72.6020516,22.2786695 Z M98.9580414,28.0991395 C97.9239478,28.6014136 96.328489,28.9264144 94.7330302,28.9264144 C89.9171083,28.9264144 87.1102826,25.8241334 87.1102826,20.9491205 C87.1102826,15.7491066 90.2125636,12.7650078 94.8807578,12.7650078 C96.5353077,12.7650078 97.9239478,13.1195542 98.8694048,13.5922827 L99.5194065,11.4650043 C98.8398593,11.1400035 97.2444005,10.6081839 94.7921212,10.6081839 C88.6171048,10.6081839 84.3920936,14.8036496 84.3920936,21.0377571 C84.3920936,27.5673199 88.5875593,31.1127839 94.2012106,31.1127839 C96.6239443,31.1127839 98.544404,30.6400554 99.4603155,30.1673268 L98.9580414,28.0991395 Z M102.209424,30.8173286 L104.809431,30.8173286 L104.809431,22.1900329 C104.809431,21.6877588 104.838977,21.3036669 104.986704,20.9491205 C105.488978,19.5309349 106.788982,18.3491136 108.473077,18.3491136 C110.925357,18.3491136 111.782177,20.2695732 111.782177,22.5741248 L111.782177,30.8173286 L114.382184,30.8173286 L114.382184,22.308215 C114.382184,17.374111 111.309448,16.1922896 109.388989,16.1922896 C108.413986,16.1922896 107.498075,16.4581994 106.729891,16.930928 C105.932161,17.3445654 105.28216,18.0241127 104.868522,18.762751 L104.809431,18.762751 L104.809431,9.84 L102.209424,9.84 L102.209424,30.8173286 Z M128.269959,22.0423052 C128.269959,19.1763885 127.206319,16.1922896 122.804035,16.1922896 C121.001758,16.1922896 119.258571,16.6945637 118.07675,17.433202 L118.66766,19.1763885 C119.672209,18.4968412 121.060849,18.1127493 122.419943,18.1127493 C125.344951,18.0832038 125.669952,20.2400277 125.669952,21.421849 L125.669952,21.7173043 C120.144937,21.6877588 117.072202,23.5786729 117.072202,27.0355003 C117.072202,29.1036876 118.549478,31.1423294 121.444941,31.1423294 C123.483582,31.1423294 125.049496,30.1377813 125.817679,29.015051 L125.906316,29.015051 L126.14268,30.8173286 L128.476777,30.8173286 C128.32905,29.842326 128.269959,28.6309591 128.269959,27.3900467 L128.269959,22.0423052 Z M125.729043,26.0014066 C125.729043,26.2673164 125.699497,26.5627718 125.610861,26.8286816 C125.197223,28.0400484 123.985856,29.2218698 122.094942,29.2218698 C120.794939,29.2218698 119.672209,28.4536859 119.672209,26.740045 C119.672209,23.9627649 122.892672,23.4604908 125.729043,23.5195819 L125.729043,26.0014066 Z M132.496344,13.887738 L132.496344,16.5172905 L130.280429,16.5172905 L130.280429,18.4968412 L132.496344,18.4968412 L132.496344,26.2673164 C132.496344,27.9514118 132.791799,29.2218698 133.500892,30.0195992 C134.121348,30.6991464 135.096351,31.1127839 136.307718,31.1127839 C137.312266,31.1127839 138.109995,30.9355107 138.612269,30.7582375 L138.494087,28.7786868 C138.109995,28.8968689 137.696358,28.95596 136.987265,28.95596 C135.539534,28.95596 135.03726,27.9514118 135.03726,26.1786798 L135.03726,18.4968412 L138.759997,18.4968412 L138.759997,16.5172905 L135.03726,16.5172905 L135.03726,13.0900086 L132.496344,13.887738 Z" id="WeChat" fill="#313131"></path>
                </g>
            </g>
        </g>
    </g>
</svg>